<?xml version="1.0" encoding="UTF-8"?><svg id="_イヤー_2" xmlns="http://www.w3.org/2000/svg" viewBox="0 0 1401.62 173.24"><g id="_イヤー_1-2"><path id="_ス_15433" d="M1382.66,53.67v39.45h-20.46V20.5h-26.68v46.29h-5.06V20.5h-26.68V105.27h-13.04v-38.48h-27.25v16.73h-15.45v13.47h-9.42V6.29h-32.12v14.21h-16.06v54.38h-9.81v-19.58h-27.23v19.58h-35.26v10.98h-22.69v-30.57h-18.04v30.57h-6.38V37.96h-23.39v33.14h-18.99v-4.64c0-7.06-6.07-12.79-13.55-12.79h-21.34v51.6h-8.76v-38.48h-27.25v14.61h-9.28v15.96h-13.54V20.5L886.96,0V82.94h-26.42V45.3h-7.36V25.24h-37.59v20.06h-7.36v59.97h-12.43V37.96h-25.02V20.5h-32.12V90.8h-18.53V53.67h-38.29v39.45h-20.46V20.5h-26.68v46.29h-5.06V20.5h-26.68V105.27h-13.04v-38.48h-27.24v16.73h-15.45v13.47h-9.42V6.29h-32.12v14.21h-16.06v54.38h-9.81v-19.58h-27.24v19.58h-35.26v10.98h-22.69v-30.57h-18.04v30.57h-6.38V37.96h-23.39v33.14h-18.99v-4.64c0-7.06-6.07-12.79-13.55-12.79h-21.33v51.6h-8.76v-38.48h-27.24v14.61h-9.28v15.96h-13.54V20.5L186.15,0V82.94h-26.42V45.3h-7.36V25.24h-37.59v20.06h-7.36v59.97h-12.42V37.96h-25.03V20.5H37.85V90.8H19.32V53.67H0v119.58H1401.62V53.67h-18.96Z"/></g></svg>