<svg xmlns="http://www.w3.org/2000/svg" width="220.813" height="14.086" viewBox="0 0 220.813 14.086">
  <path id="パス_19931" data-name="パス 19931" d="M2.438-10.781l.117-1.383h6.3l.188-2.086h4.781l-.187,2.086H17.6l.047-1.711H21.68L21.539-8.93H17.508l.047-1.852H13.523l-.234,2.859h7.852l-.7,7.453H16.219l.563-6.07H13.148l-.516,6.07H1.711l.68-7.453H8.508l.234-2.859Zm5.531,8.93.4-4.687H6.492L6.047-1.852Zm16.22-3.211,3.117-5.273h4.125L29.673-7.359,29.063-.469H25.126l.4-4.594Zm.516-5.953,2.648-3.516h4.313l-2.648,3.516ZM31.29-6.75l.117-1.406H45.47L45.353-6.75H43.946l-.07.844h1.406L45.165-4.5H43.759L43.431-.469H39.118L39.446-4.5H31.29l.117-1.406h8.156l.07-.844Zm1.922,5.438L32.321-3.75h3.75l.891,2.438Zm-1.2-7.547.492-5.672h12.75l-.492,5.672H32.017Zm4.43-3.562h4.5l.07-.7h-4.5Zm-.187,2.156h4.5l.07-.75h-4.5Zm11.884-.867.094-1.383h3.281l.773-1.734h5.133l-.773,1.734h12l-.117,1.383H56.041L52.432-3.047H47.3l3.609-8.086ZM56.674-8.18l.117-1.383h11.2L67.877-8.18H66.166l-.211,2.3h2.227L68.064-4.5H65.838L65.463-.469H53.369l.445-5.414H61.2l.188-2.3ZM61.08-4.5H58.455l-.211,2.648h2.6ZM73.2-8.719l.117-1.406h15.82l-.117,1.406ZM71.815-6l.117-1.406H90.5L88.128-.469H83.112L85.011-6Zm-1.078-4.219.188-2.156,10.711-2.156,10.383,2.156-.187,2.156L81.448-12.375ZM98.183-.469,94.5-5.812H99l3.68,5.344Zm18.423-2.344.938-10.617h7.641l.094-1.125h4.875l-.094,1.125h7.688l-.937,10.617h-7.734l-.211,2.344h-4.875l.211-2.344h-7.594Zm5.063-6.281h3.117l.258-2.93h-3.117Zm-.445,4.875h3.117l.3-3.469h-3.117Zm11.508-3.469H129.52l-.3,3.469h3.211Zm.4-4.336h-3.211l-.258,2.93h3.211ZM141.217-.469l1.2-13.781h5.156l-1.078,12.4h11.836l-.117,1.383ZM179.28-4.031,176.421-8.18l-3.609,4.148h-4.125l5.742-7.031.188-2.062h-3.562l.117-1.406h8.063l-.3,3.469L183.4-4.031ZM162.686-7.875l.117-1.406h5.625l-.492,5.813L183.264-2.25l-.141,1.781L167.257-1.734,162.03-.469l.141-1.781,1.758-.422.445-5.2Zm.469-4.875.117-1.781,5.156.75L168.311-12Zm23.86,1.523.07-1.359h4.688l.141-1.664h4.758l-.141,1.664h4.2l-.117,1.359h-4.2l-.8,9.375h9.727l-.117,1.383H186.054l.609-7.453h4.711l.281-3.3Zm15.375,5.6-.094-8.156h3.656l.117,8.156Zm-11.156-.914h-1.008l-.375,4.688h.984Zm25.454,2.555.539-10.547h5.3L221.235-3.984Zm-.7,3.516.164-1.758h5.3l-.164,1.758Z" transform="translate(-1.711 14.555)" fill="#fff"/>
</svg>
