<?xml version="1.0" encoding="utf-8"?>
<!-- Generator: Adobe Illustrator 26.4.1, SVG Export Plug-In . SVG Version: 6.00 Build 0)  -->
<svg version="1.1" id="レイヤー_1" xmlns="http://www.w3.org/2000/svg" xmlns:xlink="http://www.w3.org/1999/xlink" x="0px"
	 y="0px" viewBox="0 0 185 185" style="enable-background:new 0 0 185 185;" xml:space="preserve">
<style type="text/css">
	.st0{fill:#9BCB08;}
	.st1{fill:none;}
	.st2{fill:none;stroke:#FFFFFF;stroke-width:2;}
	.st3{fill:#FFFFFF;}
	.st4{fill:none;stroke:#9BCB08;stroke-width:4.999;stroke-linecap:round;stroke-miterlimit:3.9992;}
</style>
<g id="btn_tel_sp" transform="translate(24380 -968.495)">
	<path id="パス_18469" class="st0" d="M-24287.5,968.5c51.1,0,92.5,41.4,92.5,92.5c0,51.1-41.4,92.5-92.5,92.5
		s-92.5-41.4-92.5-92.5C-24380,1009.9-24338.6,968.5-24287.5,968.5z"/>
	<g id="楕円形_20" transform="translate(-24374.99 973.54)">
		<circle class="st1" cx="87.9" cy="87.9" r="87.9"/>
		<circle class="st2" cx="87.9" cy="87.9" r="86.9"/>
	</g>
	<path id="パス_36468" class="st3" d="M-24322.9,1037.2h3.3c-0.1,0.4-0.1,0.8-0.2,1.1c-0.1,0.3-0.1,0.5-0.1,0.5h7.2v3.2
		c-0.1,1.7-0.5,3.4-1.2,5c-0.6,1.3-1.4,2.5-2.4,3.5c-0.9,0.9-1.8,1.7-2.9,2.3c-0.9,0.6-1.8,1-2.8,1.4c-0.7,0.3-1.4,0.5-2.1,0.7
		c-0.3,0.1-0.5,0.1-0.8,0.2v-3.4c0,0,0.3-0.1,0.7-0.2c0.6-0.2,1.2-0.4,1.8-0.6c0.8-0.3,1.6-0.8,2.3-1.3c0.8-0.6,1.6-1.3,2.2-2.2
		h-3.9v-3.1h5.1c0.2-0.8,0.4-1.6,0.4-2.4h-4.9c-0.7,1.3-1.5,2.5-2.5,3.6c-0.6,0.6-1.3,1.2-2,1.7c-0.3,0.2-0.5,0.4-0.8,0.5v-4.1
		c0.2-0.1,0.3-0.3,0.5-0.4c0.4-0.4,0.7-0.8,1-1.2c0.5-0.6,0.8-1.3,1.2-2C-24323.3,1039.2-24323,1038.3-24322.9,1037.2z
		 M-24308.6,1054.7v-2.9c1.3-0.2,2.6-0.7,3.6-1.6c0.9-0.8,1.7-1.7,2.2-2.8c0.5-1,0.8-2.1,1.1-3.2c0.2-0.8,0.4-1.7,0.5-2.6
		c0.1-0.4,0.1-0.7,0.1-1.1h2.8c-0.1,1.1-0.2,2.2-0.4,3.3c-0.2,1.1-0.5,2.2-0.9,3.2c-0.4,1.2-1.1,2.3-1.8,3.3c-0.8,1.1-1.8,2-2.9,2.8
		C-24305.6,1054-24307.1,1054.5-24308.6,1054.7z M-24307.8,1040.6l1.3,7.2h-2.2l-1.2-7.2H-24307.8z M-24304.3,1040.6l1.3,7.2h-2.2
		l-1.2-7.2H-24304.3z M-24285.9,1041.6h-9.6v-3.4h10.5l2.4,0.7v2.4c0,1.8-0.3,3.6-0.9,5.3c-0.5,1.3-1.3,2.6-2.2,3.7
		c-0.8,0.9-1.7,1.6-2.7,2.2c-0.9,0.5-1.8,0.9-2.7,1.2c-0.7,0.2-1.4,0.4-2.1,0.5c-0.3,0.1-0.6,0.1-0.8,0.1v-3.4c1-0.1,2-0.4,2.9-0.7
		c0.9-0.4,1.7-0.9,2.5-1.5c0.9-0.8,1.6-1.7,2-2.8C-24286.2,1044.6-24285.9,1043.1-24285.9,1041.6L-24285.9,1041.6z M-24281.9,1037.1
		c0-0.3-0.1-0.6-0.3-0.8c-0.2-0.2-0.5-0.3-0.8-0.3c-0.3,0-0.6,0.1-0.8,0.3c-0.2,0.2-0.3,0.5-0.3,0.8c0,0.3,0.1,0.6,0.3,0.8
		c0.2,0.2,0.5,0.3,0.8,0.3c0.3,0,0.6-0.1,0.8-0.3C-24282,1037.7-24281.9,1037.4-24281.9,1037.1L-24281.9,1037.1z M-24284.8,1035.3
		c0.5-0.5,1.1-0.7,1.8-0.7c0.7,0,1.3,0.3,1.8,0.7c0.5,0.5,0.8,1.1,0.7,1.8c0,0.7-0.3,1.3-0.7,1.8c-0.5,0.5-1.1,0.7-1.8,0.7
		c-0.7,0-1.3-0.3-1.8-0.7c-0.5-0.5-0.8-1.1-0.7-1.8C-24285.6,1036.4-24285.3,1035.7-24284.8,1035.3z M-24278.7,1037.4h3.2v11.7
		c0,0.6,0.1,1.3,0.4,1.8c0.3,0.4,0.8,0.6,1.3,0.7c0.8,0,1.6-0.2,2.3-0.5c0.8-0.4,1.6-0.8,2.4-1.3c0.8-0.5,1.7-1.1,2.7-1.9v3.8
		c-0.7,0.6-1.5,1.1-2.4,1.6c-0.8,0.5-1.6,0.8-2.5,1.1c-0.9,0.3-1.9,0.5-2.9,0.5c-1.3,0.1-2.7-0.4-3.6-1.4c-0.8-1.1-1.2-2.5-1.1-3.9
		V1037.4z M-24263.3,1038.3h13.8v3.2c-1.3,0.1-2.5,0.5-3.6,1.1c-1,0.5-1.8,1.2-2.5,2.1c-0.6,0.6-1,1.4-1.3,2.2
		c-0.3,0.7-0.2,1.6,0.1,2.3c0.3,0.5,0.7,1,1.2,1.2c0.5,0.2,0.9,0.4,1.5,0.4c0.5,0,1.1,0,1.6,0c0.5,0,1-0.1,1.4-0.1
		c0.4,0,0.6-0.1,0.6-0.1v3.4c-0.7,0.1-1.4,0.1-2,0.2c-0.6,0-1.2,0-1.8-0.1c-0.7,0-1.4-0.2-2.1-0.4c-0.8-0.2-1.5-0.6-2.1-1.1
		c-0.7-0.6-1.2-1.3-1.5-2.1c-0.4-1-0.5-2.1-0.3-3.2c0.1-0.8,0.4-1.7,0.8-2.4c0.3-0.7,0.8-1.3,1.3-1.8c0.4-0.4,0.8-0.8,1.2-1.1
		c0.2-0.1,0.3-0.3,0.5-0.4h-6.6V1038.3z M-24312.4,1057.6c1.9,2.7,4.1,5.1,6.5,7.2c2.4,2,5,3.7,7.8,5c-1.3,1.3-2.3,2.8-3.3,4.4
		c-2.2-1.3-4.3-2.8-6.3-4.4v2.9h-14.2v-2.8c-1.9,1.6-3.9,3-6.1,4.3c-0.4-0.7-0.9-1.4-1.4-2c-0.5-0.7-1.1-1.3-1.7-1.9
		c2.9-1.6,5.5-3.5,7.9-5.8c2.2-2,4.1-4.3,5.7-6.8L-24312.4,1057.6z M-24309.4,1068.2c-1.9-1.7-3.7-3.6-5.2-5.7
		c-1.5,2.1-3.2,4-5.1,5.7H-24309.4z M-24302.7,1076.3c-1.4,3.7-3.5,8.4-6.2,14l-5.3-1.4c1.5-3.1,2.9-6,4.2-8.9h-16.6v-4.7h19.1
		l0.8-0.2L-24302.7,1076.3z M-24282.1,1069.9h-13.1v-4.8h13.1v-3.5h4.8v3.5h5.1v4.8h-5.1v6.7c0.5,1.3,0.9,2.7,1,4.1
		c0.1,1.7-0.1,3.4-0.5,5c-0.4,1.6-1.1,3.1-2,4.5h-5.2c0.5-0.8,1-1.7,1.3-2.6c0.3-0.8,0.6-1.6,0.8-2.4c0.2-0.7,0.3-1,0.3-1.1
		c-0.5,0.7-1.2,1.3-1.9,1.8c-0.7,0.4-1.5,0.7-2.4,0.7c-1.2,0-2.4-0.3-3.4-0.9c-1-0.7-1.8-1.7-2.3-2.8c-0.6-1.4-0.9-2.9-0.8-4.3
		c0-1.4,0.4-2.7,1-3.9c0.6-1.1,1.5-2.1,2.6-2.7c1.2-0.7,2.6-1,4-0.9c0.6,0,1.1,0.1,1.7,0.3c0.4,0.1,0.7,0.3,1.1,0.5V1069.9z
		 M-24281.7,1078.5l0-0.4c-0.1-0.4-0.1-0.7-0.3-1.1c-0.2-0.4-0.4-0.8-0.8-1.2c-0.6-0.5-1.3-0.8-2-0.8c-0.9-0.1-1.8,0.3-2.4,1
		c-0.5,0.7-0.7,1.4-0.7,2.2c-0.1,1,0.2,1.9,0.9,2.7c0.6,0.6,1.5,0.8,2.3,0.6c0.7-0.1,1.4-0.4,1.9-1c0.4-0.4,0.7-0.9,0.9-1.4
		C-24281.8,1079-24281.8,1078.8-24281.7,1078.5z M-24254.7,1062.4h8.4c-1.8,1.5-3.4,2.8-4.8,3.8l-4.2,3.3c-1.4,1.1-2.6,2.1-3.7,3
		c-1,0.9-1.7,1.4-1.9,1.7c-0.2,0.2-0.3,0.5-0.3,0.8c0,0.4,0.2,0.7,0.4,1c0.3,0.3,0.9,0.9,2,1.9c1,1,2.2,2.1,3.7,3.4
		c1.4,1.3,2.8,2.6,4.2,3.8c1.4,1.3,3,2.7,4.8,4.4h-7.9c-1.4-1.2-2.5-2.3-3.6-3.2c-1-0.9-2.1-1.8-3.1-2.8c-1.1-1-2-1.8-2.9-2.6
		c-0.6-0.5-1.2-1.1-1.8-1.8c-1.1-1.1-1.7-2.5-1.6-4c0-1.4,0.6-2.8,1.6-3.8c0.4-0.3,1-0.9,1.8-1.5c0.8-0.7,1.8-1.5,2.8-2.3
		c1-0.8,2-1.6,2.9-2.4C-24257.1,1064.3-24256,1063.4-24254.7,1062.4L-24254.7,1062.4z M-24252.3,1073.7v-5.4h2.6v5.4H-24252.3z
		 M-24248.2,1073.7v-5.4h2.6v5.4H-24248.2z M-24327.2,1104.1h-6.2v-4.8h6.2v-3.4h4.7v3.4h3.6c-0.4-0.9-1-1.9-1.8-3.3h5.3
		c1.6,3.4,2.8,5.9,3.4,7.7c0.7,1.8,1,2.6,1,2.7h-5c-0.4-1.1-0.7-2.1-1-2.8c-0.4-1.1-0.9-2.1-1.5-3.1v3.6h-4v2.6
		c0.2-0.1,0.5-0.1,0.7-0.1c1.1,0,2.2,0.1,3.3,0.3c1.2,0.2,2.3,0.6,3.3,1.2c1.1,0.6,1.9,1.5,2.5,2.6c0.7,1.4,1,3,1,4.5
		c0,1.6-0.3,3.1-1,4.5c-0.6,1.1-1.4,2-2.4,2.7c-0.9,0.6-2,1-3.1,1.3c-1,0.2-1.9,0.3-2.9,0.3v-5.2c0.9,0,1.8-0.1,2.7-0.4
		c0.6-0.2,1.1-0.6,1.4-1.2c0.3-0.7,0.4-1.4,0.4-2.1c0.1-1.1-0.5-2.2-1.4-2.9c-1.2-0.7-2.7-1-4.1-0.9h-0.2c-0.1,0-0.1,0-0.2,0v5.7
		c0.1,1.5-0.3,2.9-1.1,4.1c-0.5,0.8-1.3,1.4-2.1,1.7c-0.7,0.2-1.4,0.3-2.1,0.3c-1,0-2-0.3-2.9-0.8c-1-0.6-1.8-1.4-2.4-2.4
		c-0.7-1.2-1.1-2.5-1.1-3.8c-0.1-1.3,0.2-2.6,0.8-3.8c0.6-1.2,1.5-2.2,2.5-3.1c1.1-0.9,2.3-1.6,3.7-2L-24327.2,1104.1z
		 M-24327.2,1117.7v-5.2c-0.7,0.3-1.3,0.9-1.8,1.5c-0.4,0.6-0.6,1.4-0.6,2.1c0,0.4,0.1,0.9,0.3,1.3c0.2,0.3,0.5,0.5,0.8,0.7
		c0.3,0.1,0.5,0.2,0.8,0.2c0,0,0.1,0,0.2,0C-24327.3,1118.2-24327.2,1118.1-24327.2,1117.7z M-24301.9,1100.6v3.9h-4.4v-7.1h12.8
		v-0.8h-10.3v-3.6h25.4v3.6h-10.3v0.8h13.1v7.1h-4.6v-3.9h-8.5v6.7h-4.8v-6.7H-24301.9z M-24294.4,1101.3v2.6h-6.5v-2.6
		L-24294.4,1101.3z M-24287.7,1101.3h6.3v2.6h-6.3V1101.3z M-24301.5,1107.3v-2.6h7.1v2.6H-24301.5z M-24287.7,1107.3v-2.6h7.1v2.6
		H-24287.7z M-24280.8,1120.5c0.4,0,0.9-0.1,1.3-0.2c0.3-0.2,0.5-0.5,0.6-0.8c0.2-0.6,0.3-1.3,0.3-2c0.6,0.4,1.2,0.7,1.9,0.9
		c0.7,0.3,1.4,0.5,2.2,0.6c-0.1,1.1-0.4,2.2-0.9,3.2c-0.4,0.7-1,1.3-1.8,1.6c-1,0.3-2.1,0.5-3.2,0.5h-6.7c-1.3,0-2.7-0.1-4-0.4
		c-0.8-0.2-1.6-0.7-2-1.4c-0.4-0.9-0.7-1.9-0.7-2.9h-4.6v1.4h-4.7v-12.7h24v11.4h-10c0,0.4,0.2,0.7,0.5,0.9c0.6,0.2,1.2,0.2,1.8,0.2
		H-24280.8z M-24293.8,1111.3h-4.6v1.1h4.6V1111.3z M-24284,1112.4v-1.1h-5.1v1.1H-24284z M-24298.3,1115.2v1h4.6v-1H-24298.3z
		 M-24289.1,1116.2h5.1v-1h-5.1V1116.2z M-24247,1106.4v3.8h5.7v13.9h-4.9v-1.5h-6.5v1.6h-4.7v-14.1h5.3v-3.8h-6.9v-4.7h6.9v-3.4
		c-1.5,0.2-3.3,0.3-5.2,0.4c-0.1-0.7-0.3-1.4-0.5-2.1c-0.2-0.7-0.5-1.4-0.8-2.1c2.7-0.2,5.3-0.6,7.9-1c2.2-0.4,4.4-0.9,6.5-1.5
		l3.4,4.1c-2,0.6-4.1,1-6.2,1.4v4.1h7v4.7L-24247,1106.4z M-24260.3,1092.9v3.7h-10.3v-3.7L-24260.3,1092.9z M-24272.5,1101.6v-3.8
		h13.2v3.8H-24272.5z M-24260.4,1102.7v3.7h-10.4v-3.7H-24260.4z M-24270.8,1111.2v-3.7h10.4v3.7H-24270.8z M-24260.2,1112.4v10.6
		h-6.7v1.2h-4.1v-11.8L-24260.2,1112.4z M-24246.2,1118.2v-3.6h-6.5v3.6H-24246.2z M-24264.3,1116.3h-2.5v2.9h2.5V1116.3z"/>
	<g id="グループ_3998" transform="matrix(0.996, -0.087, 0.087, 0.996, -26526.326, 130.375)">
		<g id="グループ_3997" transform="translate(2126.823 1047)">
			<path id="パス_18486" class="st4" d="M0,6.8L0,6.8C0,7.4,0.2,8,0.5,8.5c4.2,9.9,7.1,17,11.2,27c1.1,2.7,1.9,4.7,3.7,5.9
				c1.6,1.1,3.4,0.7,5.3,0.5c3.6-0.4,7.2-0.8,10.8-1.2l4-0.4l0.7-0.1c1.5-0.1,2.7-1.3,2.8-2.8c0.2-0.6,0.1-1.2-0.1-1.8L25.3,4
				c-0.8-1.6-2.4-2.6-4.2-2.6L3,3.3c-0.4,0-0.8,0.2-1.2,0.4c0,0,0,0,0,0l0,0C1.5,4,1.2,4.3,1,4.6C0.4,5.2,0.1,6,0,6.8 M26.6,34.8
				c0.8,0,1.6,0.4,2,1.2c0.3,0.5,0.1,1.1-0.3,1.3c-0.1,0.1-0.3,0.1-0.5,0.1c-0.9,0-1.6-0.4-2-1.2c-0.3-0.5-0.1-1.1,0.4-1.3
				C26.3,34.8,26.4,34.8,26.6,34.8 M4.5,7.1l18.3-2l11.1,25.9l-18.3,2L4.5,7.1z"/>
			<path id="パス_18487" class="st4" d="M51.7,10.5c1,3.4,1.1,7.1,0.3,10.5l1.9,0.5c1.9-7.8-0.5-16-6.3-21.5l-1.4,1.5
				C48.7,3.9,50.7,7,51.7,10.5"/>
			<path id="パス_18488" class="st4" d="M41.9,4.7l-1.4,1.5c3.8,3.6,5.3,8.9,4.1,13.9l1.9,0.5C48,14.8,46.2,8.8,41.9,4.7"/>
			<path id="パス_18489" class="st4" d="M37.3,19.2l1.9,0.5c0.9-3.7-0.2-7.6-3-10.2l-1.4,1.5C37.1,13,38,16.2,37.3,19.2"/>
			<path id="パス_18490" class="st4" d="M24.3,21c-0.4-0.3-0.9-0.3-1.3,0l-1.2,0.8c-0.2,0.2-0.5,0.2-0.8,0.1
				c-2.1-1-3.7-2.9-4.3-5.1c-0.1-0.3,0-0.6,0.3-0.8l1-1c0.3-0.3,0.4-0.8,0.2-1.2l-0.9-2.3c-0.1-0.5-0.6-0.8-1-0.8
				c-0.7,0-1.4,0.3-1.9,0.8c-0.8,0.8-1.3,1.9-1.2,3.1c0,1.5,0.3,4,3,7.1c2.7,3.2,5,3.9,6.5,4.2c1.1,0.3,2.3,0.1,3.2-0.6
				c0.6-0.4,1-1,1.1-1.8c0.1-0.5-0.2-0.9-0.6-1.1L24.3,21z"/>
		</g>
		<g id="グループ_3996" transform="translate(2126.823 1047)">
			<path id="パス_18486-2" class="st3" d="M0,6.8L0,6.8C0,7.4,0.2,8,0.5,8.5c4.2,9.9,7.1,17,11.2,27c1.1,2.7,1.9,4.7,3.7,5.9
				c1.6,1.1,3.4,0.7,5.3,0.5c3.6-0.4,7.2-0.8,10.8-1.2l4-0.4l0.7-0.1c1.5-0.1,2.7-1.3,2.8-2.8c0.2-0.6,0.1-1.2-0.1-1.8L25.3,4
				c-0.8-1.6-2.4-2.6-4.2-2.6L3,3.3c-0.4,0-0.8,0.2-1.2,0.4c0,0,0,0,0,0l0,0C1.5,4,1.2,4.3,1,4.6C0.4,5.2,0.1,6,0,6.8 M26.6,34.8
				c0.8,0,1.6,0.4,2,1.2c0.3,0.5,0.1,1.1-0.3,1.3c-0.1,0.1-0.3,0.1-0.5,0.1c-0.9,0-1.6-0.4-2-1.2c-0.3-0.5-0.1-1.1,0.4-1.3
				C26.3,34.8,26.4,34.8,26.6,34.8 M4.5,7.1l18.3-2l11.1,25.9l-18.3,2L4.5,7.1z"/>
			<path id="パス_18487-2" class="st3" d="M51.7,10.5c1,3.4,1.1,7.1,0.3,10.5l1.9,0.5c1.9-7.8-0.5-16-6.3-21.5l-1.4,1.5
				C48.7,3.9,50.7,7,51.7,10.5"/>
			<path id="パス_18488-2" class="st3" d="M41.9,4.7l-1.4,1.5c3.8,3.6,5.3,8.9,4.1,13.9l1.9,0.5C48,14.8,46.2,8.8,41.9,4.7"/>
			<path id="パス_18489-2" class="st3" d="M37.3,19.2l1.9,0.5c0.9-3.7-0.2-7.6-3-10.2l-1.4,1.5C37.1,13,38,16.2,37.3,19.2"/>
			<path id="パス_18490-2" class="st3" d="M24.3,21c-0.4-0.3-0.9-0.3-1.3,0l-1.2,0.8c-0.2,0.2-0.5,0.2-0.8,0.1
				c-2.1-1-3.7-2.9-4.3-5.1c-0.1-0.3,0-0.6,0.3-0.8l1-1c0.3-0.3,0.4-0.8,0.2-1.2l-0.9-2.3c-0.1-0.5-0.6-0.8-1-0.8
				c-0.7,0-1.4,0.3-1.9,0.8c-0.8,0.8-1.3,1.9-1.2,3.1c0,1.5,0.3,4,3,7.1c2.7,3.2,5,3.9,6.5,4.2c1.1,0.3,2.3,0.1,3.2-0.6
				c0.6-0.4,1-1,1.1-1.8c0.1-0.5-0.2-0.9-0.6-1.1L24.3,21z"/>
		</g>
	</g>
</g>
</svg>
