<svg xmlns="http://www.w3.org/2000/svg" width="222.338" height="14.086" viewBox="0 0 222.338 14.086">
  <path id="パス_19930" data-name="パス 19930" d="M6.609-.469,7.992-7.008,5.977-7.945,5.391-5.719H1.266l2.2-8.437H13.641L10.734-.469Zm7.359,0,1.242-14.086h4.5l-.469,5.32L22.617-9l-.164,1.781-3.375-.234L18.469-.469ZM9.211-12.75H7.219L6.375-9.516l1.969.891Zm24.238-1.781h4.5L37.48-9.187h3.047l.4-4.594h4.313l-.516,6H37.363l-.539,5.906h3.352l.4-4.594h4.5l-.516,6H24.379l.516-6h4.5L29-1.875h3.328l.539-5.906H25.5l.516-6h4.313l-.4,4.594H32.98ZM55.226-.469l.633-7.125L52.32-3.937H47.445l8.672-9H48.336l.117-1.406H69.195l-.117,1.406H60.992l-1.711,1.781h1.57l7.594,7.2H63.757L60.5-7.055,59.914-.469ZM72.058-1.594,73.394-5.25H70.652l.117-1.406H73.91l.352-.937h-2.7l.375-4.219H77.4l.094-1.031H71.332l.117-1.406h21.07L92.4-12.844H86.214l-.094,1.031h5.508l-.375,4.219h-12.3l-.352.938H91.839L91.722-5.25H88.253L87.667-3.3l3.7.211-.141,1.5L87.222-1.8l-.4,1.336H82.136L82.6-2.062l-5.578-.3-.281.773Zm5.508-2.25,5.484.3.516-1.711H78.082ZM75.808-9h1.336l.117-1.406H75.949Zm11.578-1.406H85.98L85.863-9h1.383Zm-4.828-1.406.094-1.031H81.058l-.094,1.031Zm-1.734,1.406L80.707-9H82.3l.117-1.406Zm14.183-1.453.117-1.383h1.734l.164-1.008h5.156l-.164,1.008h9.82l-.117,1.383h-9.937L99.882-.469H94.726l1.9-11.391ZM103.093-1.2l.117-1.383,11.2.727L114.3-.469ZM104.1-7.734l.117-1.359h9.914l-.117,1.359Zm11.156-4.219h-1.008l.211-2.3h1.008Zm-1.734,0h-1.008l.188-2.3h1.008Zm4.246.8.094-1.383H121.4l.539-1.734h4.781l-.539,1.734h7.523L132.675-.469h-4.781l.914-10.687h-3.07L122.386-.469H117.6l3.352-10.687ZM134.644-2.2l-.07-10.969h2.953L137.6-2.2Zm11.512-10.664.117-1.383,11.766.633-.117,1.383Zm-4.477,12.4.117-1.383h12.469l.445-4.781-13.2.281.516-5.227h5.32l-.3,3.75,13.1-.258-.7,7.617Zm22.363-9.937.281-3.187h8.2l.094-.937h4.125l-.094.938h8.109l-.281,3.188h-4.125l.164-1.781H168.331l-.094,1.031h4.57l-.516,1.406h12.492l-.117,1.406h-3.422l-1.664,4.9,4.594.633-.117,1.406-4.945-.68-.539,1.617H173.7l.773-2.25-4.547-.633-.164.445h-4.875L166.9-8.344h-3.3l.117-1.406h3.7l.234-.656Zm6.375,5.7,4.5.633,1.453-4.266h-4.594ZM186.053-.469l1.477-11.719h4.313L190.366-.469Zm6.281,0,1.008-11.437h4.5l-.891,10.031H201.8l-.117,1.406h-9.352Zm10.453-.187-.445-9.75h4.313l.445,9.75ZM189.78-12.937l.141-1.594,15.727.75-.141,1.594Zm27.988,8.953.539-10.547h5.3L222.315-3.984Zm-.7,3.516.164-1.758h5.3l-.164,1.758Z" transform="translate(-1.266 14.555)" fill="#fff"/>
</svg>
