<?xml version="1.0" encoding="utf-8"?>
<!-- Generator: Adobe Illustrator 26.5.0, SVG Export Plug-In . SVG Version: 6.00 Build 0)  -->
<svg version="1.1" id="レイヤー_1" xmlns="http://www.w3.org/2000/svg" xmlns:xlink="http://www.w3.org/1999/xlink" x="0px"
	 y="0px" viewBox="0 0 236 236" style="enable-background:new 0 0 236 236;" xml:space="preserve">
<style type="text/css">
	.st0{fill:#9BCB08;}
	.st1{fill:none;}
	.st2{fill:none;stroke:#FFFFFF;stroke-width:2;}
	.st3{fill:#FFFFFF;}
	.st4{fill:#FDFD00;}
</style>
<g id="btn_entry_sp" transform="translate(-506.02 -1003.149)">
	<path id="パス_18469" class="st0" d="M624,1003.1c65.2,0,118,52.8,118,118c0,65.2-52.8,118-118,118s-118-52.8-118-118
		c0,0,0,0,0,0C506,1056,558.9,1003.1,624,1003.1z"/>
	<g id="楕円形_20" transform="translate(512.412 1009.587)">
		<circle class="st1" cx="112.1" cy="112.1" r="112.1"/>
		<circle class="st2" cx="112.1" cy="112.1" r="111.1"/>
	</g>
	<path id="パス_39192" class="st3" d="M553,1069.5h-4.7v-3.7h4.7v-2.6h3.6v2.6h2.7c-0.3-0.7-0.8-1.5-1.3-2.5h4
		c1.2,2.6,2.1,4.5,2.6,5.9c0.5,1.3,0.8,2,0.8,2h-3.8c-0.3-0.9-0.5-1.6-0.8-2.1c-0.3-0.8-0.7-1.6-1.1-2.3v2.8h-3.1v2
		c0.2,0,0.4-0.1,0.6-0.1c0.8,0,1.7,0.1,2.5,0.2c0.9,0.2,1.7,0.5,2.5,0.9c0.8,0.5,1.5,1.2,1.9,2c0.5,1.1,0.8,2.3,0.8,3.5
		c0,1.2-0.2,2.4-0.8,3.5c-0.4,0.8-1.1,1.5-1.9,2c-0.7,0.5-1.5,0.8-2.4,1c-0.7,0.2-1.5,0.3-2.2,0.3v-4c0.7,0,1.4-0.1,2.1-0.3
		c0.5-0.1,0.9-0.5,1.1-0.9c0.2-0.5,0.3-1.1,0.3-1.6c0-0.9-0.3-1.7-1-2.2c-0.9-0.6-2.1-0.8-3.1-0.7h-0.2c-0.1,0-0.1,0-0.2,0v4.4
		c0,1.1-0.3,2.2-0.8,3.1c-0.4,0.6-1,1-1.6,1.3c-0.5,0.2-1.1,0.3-1.6,0.2c-0.8,0-1.5-0.2-2.2-0.6c-0.8-0.5-1.4-1.1-1.8-1.9
		c-0.5-0.9-0.8-1.9-0.8-2.9c0-1,0.2-2,0.6-2.9c0.5-0.9,1.1-1.7,1.9-2.3c0.8-0.7,1.8-1.2,2.8-1.5V1069.5z M553,1080v-4
		c-0.6,0.3-1,0.7-1.4,1.2c-0.3,0.5-0.5,1.1-0.5,1.6c0,0.3,0.1,0.7,0.2,1c0.2,0.2,0.4,0.4,0.6,0.5c0.2,0.1,0.4,0.2,0.6,0.1
		c0,0,0.1,0,0.2,0C552.9,1080.4,553,1080.2,553,1080z M582.6,1063.7h8.9v15.9h-4v-1.2h-5v6.5h-4v-6.5h-4.9v1.3H570v-16.1h8.6v-3.5h4
		V1063.7z M578.6,1067.3h-4.9v2h4.9V1067.3z M587.6,1067.3h-5v2h5V1067.3z M573.8,1074.9h4.9v-2.1h-4.9V1074.9z M582.6,1074.9h5
		v-2.1h-5V1074.9z M596.8,1063.2h3.9v14.5c-0.1,0.8,0.1,1.6,0.5,2.3c0.4,0.5,1,0.8,1.6,0.8c1,0,2-0.2,2.9-0.7c1-0.5,2-1,3-1.6
		c1-0.6,2.1-1.4,3.4-2.4v4.8c-0.9,0.7-1.9,1.4-2.9,2c-1,0.6-2,1-3,1.4c-1.1,0.4-2.3,0.6-3.6,0.7c-1.7,0.1-3.3-0.5-4.4-1.8
		c-1-1.4-1.5-3.1-1.4-4.8L596.8,1063.2z M619.3,1067.2c-0.5-0.7-1.1-1.4-1.7-2c-0.7-0.7-1.5-1.4-2.4-2.1l2.8-2.3
		c0.8,0.6,1.7,1.3,2.4,2c0.7,0.6,1.3,1.2,1.8,1.9L619.3,1067.2z M629.4,1067c-0.1-0.7-0.2-1.5-0.2-2.2h-4.4v-3.6h7.6
		c0,3.5,0.6,6.9,1.8,10.2c0.9,2.6,2.9,4.8,5.4,6c-0.5,0.4-1.1,0.9-1.5,1.3c-0.5,0.5-1,1-1.4,1.6c-2.8-1.7-4.9-4.4-5.9-7.6
		c-1.1,3-3.1,5.7-5.7,7.6c-0.4-0.5-0.9-1-1.3-1.5c-0.5-0.5-1-1-1.5-1.4c3.3-1.9,5.4-5.5,6.2-10.6L629.4,1067z M621.7,1078.5
		c0.5,0.8,1.2,1.4,2,1.7c1,0.4,2.2,0.6,3.3,0.6c0.6,0,1.8,0.1,3.5,0.1c3.7,0,6.8-0.1,9.4-0.3c-0.3,0.6-0.5,1.2-0.7,1.9
		c-0.2,0.6-0.4,1.3-0.5,2c-2.3,0.1-4.6,0.2-7.1,0.2c-1.3,0-2.9,0-4.7-0.1c-1.4,0-2.7-0.3-4-0.7c-1.1-0.4-2.1-1.2-2.9-2.1
		c-1.2,1.1-2.4,2.1-3.6,3l-1.8-4c1.2-0.6,2.3-1.3,3.3-2.1v-4.8h-2.7v-3.5h6.4V1078.5z M649.2,1068.3h-6.1v-4.2h9.8c0,0,0,0.4,0,1.1
		c0,0.7-0.1,1.6-0.1,2.8s-0.2,2.4-0.4,3.8c0.8,0.3,1.5,0.5,2.3,0.9c0.1-0.7,0.2-1.5,0.2-2.3c0-0.8,0.1-1.6,0.1-2.4h3.4v0.8
		c0,0.5,0,1.3-0.1,2.2c-0.1,0.9-0.2,2-0.3,3.1c0.7,0.3,1.2,0.6,1.5,0.8c0.4,0.2,0.6,0.3,0.6,0.3v4.7c0,0-0.3-0.2-0.8-0.5
		c-0.5-0.3-1.2-0.7-2-1.1c-0.2,1.1-0.5,2.3-0.8,3.4c-0.3,1.1-0.7,2.1-1.2,3.1h-4.2c0,0,0.2-0.4,0.5-1c0.4-0.9,0.8-1.8,1.1-2.8
		c0.5-1.4,0.9-2.9,1.3-4.4c-0.4-0.2-0.8-0.4-1.2-0.5s-0.8-0.3-1.1-0.5l0,0l0,0c-0.3,1.2-0.7,2.4-1.2,3.5c-0.5,1.1-1.2,2.2-2,3.1
		c-0.7,0.8-1.6,1.3-2.6,1.4c-1.3,0-2.5-0.7-3-1.8c-0.7-1.5-0.9-3.2-0.7-4.9c0.2-1.1,0.6-2.1,1.3-3c0.7-0.8,1.5-1.5,2.5-2
		c0.9-0.5,2-0.8,3-0.8c0.1-0.6,0.1-1.1,0.2-1.6S649.2,1068.6,649.2,1068.3z M646,1079.5c0.4,0,0.8-0.3,1-0.7c0.3-0.5,0.5-1,0.7-1.6
		c0.2-0.6,0.3-1.1,0.4-1.6s0.2-0.7,0.2-0.7c-0.5,0-1.1,0.1-1.5,0.4c-0.4,0.3-0.7,0.6-1,1c-0.2,0.3-0.3,0.7-0.5,1.1
		c-0.1,0.5-0.1,1,0.1,1.5C645.6,1079.4,645.8,1079.5,646,1079.5z M664.4,1063.8h3.6c-0.2,1.2-0.3,2.3-0.4,3.3c-0.1,1-0.2,2-0.3,3.2
		c-0.1,1.1-0.1,2.2-0.1,3.3c0,1.3,0,2.5,0.1,3.8c0.1,1.2,0.2,2.4,0.3,3.4c0.1,1,0.3,2.2,0.5,3.5h-3.7c-0.3-2.1-0.5-4-0.6-5.6
		c-0.1-1.6-0.2-3.3-0.2-5c0-1.6,0.1-3.2,0.2-4.7C664,1067.5,664.2,1065.8,664.4,1063.8z M668.9,1070.9v-4h5.5v-3.4l3.5,0v3.4h2.9v4
		h-2.9v4.2c1,0.4,2,0.8,3,1.3v4c-0.6-0.4-1.2-0.8-1.6-1.1c-0.4-0.3-0.9-0.5-1.4-0.7v1.6c0.1,1-0.2,1.9-0.6,2.8
		c-0.4,0.6-1,1.1-1.6,1.3c-0.6,0.2-1.3,0.3-2,0.3c-0.8,0-1.6-0.1-2.4-0.4c-0.8-0.3-1.4-0.8-1.9-1.5c-0.5-0.9-0.8-1.9-0.7-3
		c-0.1-1.5,0.5-2.9,1.5-4c1.2-1,2.7-1.5,4.3-1.2v-3.7H668.9z M673.6,1081.2c0.2,0,0.4-0.1,0.5-0.3c0.1-0.3,0.2-0.6,0.2-0.8v-2
		c-0.6-0.2-1.3-0.1-1.9,0.3c-0.4,0.3-0.7,0.8-0.7,1.4c-0.1,0.5,0.1,0.9,0.5,1.2C672.6,1081.1,673.1,1081.2,673.6,1081.2z
		 M588.4,1106.2h4.9c-0.6,0.4-1.1,0.9-1.7,1.4c-0.4,0.4-0.8,0.9-1.1,1.4c-0.3,0.4-0.4,0.9-0.4,1.5c0,0.3,0.1,0.6,0.3,0.9
		c0.3,0.3,0.7,0.5,1.1,0.6c0.9,0.2,1.8,0.2,2.7,0.2c1.4,0,2.6,0,3.6-0.1s2.2-0.2,3.6-0.4v4.2c-2.6,0.3-5.1,0.5-7.7,0.5
		c-2.6,0-4.5-0.5-5.8-1.4c-1.3-1-2-2.5-1.8-4.1c0-0.9,0.2-1.8,0.6-2.6C587.1,1107.6,587.7,1106.8,588.4,1106.2z M596.5,1102.2h-4.9
		l2.2-2.1h-7.4v-4h14.1v3L596.5,1102.2z M609.1,1102h-4v-4h5.4c0.3-0.8,0.6-1.5,0.8-1.9c0.2-0.5,0.2-0.7,0.2-0.7h4.2l-0.5,1.4
		c-0.1,0.4-0.3,0.9-0.5,1.3h7.4v4h-8.8c-0.2,0.5-0.7,1.4-1.4,2.7c0.5-0.2,0.9-0.3,1.4-0.4c0.5-0.1,0.9-0.2,1.4-0.3
		c1.8-0.2,3.7,0.2,5.2,1.3c1.3,1.1,2.1,2.7,2,4.5c0,1.5-0.5,3.1-1.4,4.3c-1.2,1.4-3,2.2-4.8,2.3c-2.7,0.3-5.4,0.2-8.1-0.3v-4
		c1.8,0.3,3.6,0.5,5.4,0.6c1.1,0.1,2.1-0.1,3.2-0.4c0.6-0.2,1.1-0.6,1.5-1.1c0.3-0.4,0.4-0.9,0.4-1.5c0-0.7-0.3-1.3-0.8-1.7
		c-0.9-0.5-1.9-0.6-2.8-0.4c-1.3,0.1-2.5,0.4-3.7,1c-1.4,0.7-2.7,1.4-4,2.3v-4C608,1104.4,608.8,1102.8,609.1,1102L609.1,1102z
		 M628.3,1099.8v-4.1l0.8,0c0.5,0,1.1,0,1.9,0c0.8,0,1.6,0,2.4,0c0.8,0,1.7,0.1,2.5,0.2c0.8,0.1,1.5,0.2,2.1,0.3
		c0.6,0.1,0.8,0.1,0.9,0.1v4.2c-0.3-0.1-0.6-0.2-0.9-0.2c-0.6-0.1-1.3-0.2-2.1-0.4c-0.8-0.1-1.6-0.2-2.5-0.2c-0.8,0-1.6,0-2.4,0
		c-0.8,0-1.4,0.1-1.9,0.1L628.3,1099.8z M629.8,1109.6h-3.6v-8.4h3.8v4.2c0,0,0.2-0.2,0.5-0.5c0.5-0.4,1-0.7,1.6-0.9
		c0.8-0.3,1.7-0.5,2.6-0.6c1.4-0.1,2.8,0.1,4,0.6c1.1,0.5,2,1.2,2.6,2.2c0.6,1,0.9,2.2,0.9,3.4c0.1,2.5-1.3,4.8-3.6,5.8
		c-2.4,1.2-6,1.4-10.7,0.7v-4c1.8,0.3,3.6,0.5,5.4,0.5c1.1,0,2.1-0.1,3.2-0.4c0.6-0.2,1.1-0.6,1.5-1.1c0.3-0.4,0.4-1,0.4-1.5
		c0-0.5-0.1-1-0.4-1.5c-0.3-0.5-0.7-0.9-1.2-1.1c-0.7-0.3-1.5-0.3-2.3-0.1c-0.9,0.2-1.8,0.6-2.6,1.1
		C631.1,1108.6,630.5,1109.1,629.8,1109.6z"/>
	<path id="パス_39191" class="st4" d="M596.8,1030.7c1.3,1.9,2.9,3.6,4.6,5.1c1.7,1.4,3.5,2.6,5.5,3.5c-0.9,0.9-1.7,2-2.3,3.1
		c-1.6-0.9-3.1-2-4.4-3.1v2.1h-10.1v-2c-1.3,1.1-2.8,2.1-4.3,3c-0.3-0.5-0.6-1-1-1.4c-0.4-0.5-0.8-0.9-1.2-1.3
		c2-1.1,3.9-2.5,5.6-4.1c1.6-1.4,2.9-3,4-4.8H596.8z M598.8,1038.2c-1.4-1.2-2.6-2.5-3.7-4c-1,1.5-2.3,2.8-3.6,4H598.8z
		 M603.6,1043.9c-1,2.6-2.4,5.9-4.3,9.9l-3.7-1c1.1-2.2,2.1-4.2,3-6.3h-11.7v-3.3h13.5l0.6-0.1L603.6,1043.9z M618.2,1039.4h-9.3
		v-3.4h9.3v-2.5h3.4v2.5h3.6v3.4h-3.6v4.7c0.4,0.9,0.6,1.9,0.7,2.9c0.1,1.2,0,2.4-0.3,3.5c-0.3,1.1-0.8,2.2-1.4,3.2h-3.7
		c0.4-0.6,0.7-1.2,0.9-1.8c0.2-0.6,0.4-1.1,0.6-1.7c0.1-0.5,0.2-0.7,0.2-0.8c-0.4,0.5-0.8,0.9-1.4,1.3c-0.5,0.3-1.1,0.5-1.7,0.5
		c-0.9,0-1.7-0.2-2.4-0.7c-0.7-0.5-1.3-1.2-1.7-2c-0.4-1-0.6-2-0.6-3.1c0-1,0.3-1.9,0.7-2.8c0.4-0.8,1-1.5,1.8-1.9
		c0.9-0.5,1.8-0.7,2.8-0.7c0.4,0,0.8,0.1,1.2,0.2c0.3,0.1,0.5,0.2,0.8,0.3V1039.4z M618.5,1045.5l0-0.3c0-0.3-0.1-0.5-0.2-0.7
		c-0.1-0.3-0.3-0.6-0.6-0.8c-0.4-0.4-0.9-0.5-1.4-0.5c-0.6,0-1.3,0.2-1.7,0.7c-0.3,0.5-0.5,1-0.5,1.6c-0.1,0.7,0.2,1.4,0.6,1.9
		c0.4,0.4,1,0.6,1.6,0.5c0.5-0.1,1-0.3,1.4-0.7c0.3-0.3,0.5-0.6,0.6-1C618.4,1045.9,618.4,1045.7,618.5,1045.5L618.5,1045.5z
		 M637.6,1034.1h5.9c-1.3,1-2.4,1.9-3.4,2.7l-3,2.3c-1,0.8-1.9,1.5-2.6,2.1c-0.7,0.6-1.2,1-1.4,1.2c-0.2,0.1-0.2,0.3-0.2,0.6
		c0,0.3,0.1,0.5,0.3,0.7c0.2,0.2,0.7,0.6,1.4,1.3c0.7,0.7,1.6,1.5,2.6,2.4l2.9,2.7c1,0.9,2.1,1.9,3.4,3.1H638
		c-1-0.8-1.8-1.6-2.5-2.2c-0.7-0.6-1.5-1.3-2.2-2c-0.8-0.7-1.4-1.3-2-1.8c-0.4-0.4-0.9-0.8-1.2-1.2c-0.8-0.8-1.2-1.8-1.2-2.8
		c0-1,0.4-2,1.1-2.7c0.3-0.2,0.7-0.6,1.3-1.1s1.2-1,2-1.6c0.7-0.6,1.4-1.2,2.1-1.7S636.7,1034.8,637.6,1034.1L637.6,1034.1z
		 M639.3,1042.1v-3.8h1.8v3.8L639.3,1042.1z M642.1,1042.1v-3.8h1.8v3.8L642.1,1042.1z"/>
</g>
</svg>
