<?xml version="1.0" encoding="UTF-8"?><svg id="_レイヤー_2" xmlns="http://www.w3.org/2000/svg" viewBox="0 0 338 268"><defs><style>.cls-1{fill:#004c94;}.cls-2{fill:#fff;}.cls-3{fill:#fee30b;}.cls-4{fill:#b77902;}.cls-5{fill:#090406;}.cls-6{fill:#76b7da;}.cls-7{stroke:#0b0507;}.cls-7,.cls-8{stroke-miterlimit:10;stroke-width:.18px;}.cls-7,.cls-8,.cls-9{fill:none;}.cls-8{stroke:#fff;}.cls-9{stroke:#1b1311;stroke-linecap:round;stroke-linejoin:round;stroke-width:1.52px;}</style></defs><g id="_レイヤー_1-2"><g id="_グループ_4600"><path id="_パス_20506" class="cls-6" d="M328.38,149.09c2.05,79.26-71.96,117.11-160.7,115.81-51.06-.74-92.11-10.51-120.24-32.98-28.13-22.47-43.36-57.65-38.34-84.95C24.64,62.5,78.95,35.39,167.67,33.28c95.56-2.27,159.05,51.87,160.71,115.81"/><path id="_パス_20507" class="cls-6" d="M225.91,44.96l42.56-26.57,32.35-12.75,16.2-3.64,10.65,2.29,5.68,8.32,2.98,27.6-7.92,31.52-17,37.83L225.91,44.96Z"/><path id="_パス_20508" class="cls-6" d="M110.79,44.96l-42.56-26.57L35.88,5.64,19.68,2.01l-10.65,2.29L3.36,12.62,.37,40.22l7.92,31.52,17,37.83L110.79,44.96Z"/><path id="_パス_20509" class="cls-3" d="M147.21,95.55l13.47-.27,7.76-8.7,7.23,8.95,13.87,1.98-7.6,10.27,1.87,13.25-16.22-5.67-16.39,8.11,.35-11.68,1.71-5.7-6.04-10.55Z"/><path id="_パス_20510" class="cls-7" d="M147.21,95.55l13.47-.27,7.76-8.7,7.23,8.95,13.87,1.98-7.6,10.27,1.87,13.25-16.22-5.67-16.39,8.11,.35-11.68,1.71-5.7-6.04-10.55Z"/><path id="_パス_20511" class="cls-2" d="M277.75,113.54c0-4.43-6.72-8.02-15-8.02s-15.01,3.59-15.01,8.02,6.72,8.02,15.01,8.02,15-3.59,15-8.02"/><path id="_パス_20512" class="cls-2" d="M88.63,113.54c0-4.43-6.72-8.02-15-8.02s-15,3.59-15,8.02,6.72,8.02,15.01,8.02,15-3.59,15-8.02"/><path id="_パス_20513" class="cls-4" d="M137.56,144.44c1.1,.18,14.55-2.71,14.55-2.71,0,0,16.87-13.48,16.16-19.92,0,0,7.47,23.37,23.67,21.17,16.2-2.2,7.39-1.24,7.39-1.24v120.46l-21.4,2.68-20.61,.06-19.77-1.66v-118.84Z"/><path id="_パス_20514" class="cls-3" d="M77.27,42.73l-26.71,15.81-14.61,11.55-9.93,13.44,.14,13.43,11.01-16.26,21.45-15.7,17.48-8.91,1.16-13.36Z"/><path id="_パス_20515" class="cls-3" d="M260.13,42.73l26.71,15.81,14.61,11.56,9.93,13.44-.14,13.43-11.01-16.26-21.45-15.7-17.48-8.9-1.16-13.36Z"/><path id="_パス_20516" class="cls-1" d="M35.56,68.03l-8.9-26.45-.63-15.3h4.11l21.51,10.96,14.68,10.58-20.73,13.16-10.04,7.06Z"/><path id="_パス_20517" class="cls-1" d="M302.46,68.03l8.91-26.45,.63-15.3h-4.11l-21.51,10.96-14.68,10.58,20.73,13.16,10.04,7.06Z"/><path id="_パス_20518" class="cls-1" d="M80.07,30.81l-4.63,32.46,9.09,7.25,16.1,2.13,21.64-4.62,14.78-6.18,16.51-10.87,7.86-11.4-1.12-6.37-9.09-14.27-8.96-7.36-11.72-3.52h-13.58l-16.32,3.12-9.91,4.99-7.46,7.92-3.19,6.71Z"/><path id="_パス_20519" class="cls-1" d="M257.12,30.81l4.63,32.46-9.09,7.25-16.1,2.13-21.64-4.62-14.78-6.18-16.51-10.87-7.86-11.4,1.12-6.37,9.09-14.27,8.96-7.36,11.72-3.52h13.58l16.32,3.12,9.91,4.99,7.46,7.92,3.19,6.71Z"/><path id="_パス_20520" class="cls-3" d="M159.97,32.13l10.6-1.86,6.4,1.38-2.36,5.59h-12.5l-1.6-2.92-.56-2.18Z"/><path id="_パス_20521" class="cls-2" d="M113.1,13.72h16.96l13.51,4.1,2.94,6.28-3.8,4.97-22.27,9.18-14.48,2.23-10.09-.88-6.32-2.35-4.31-5.11,2.3-6.3,10.63-6.87,14.94-5.24Z"/><path id="_パス_20522" class="cls-8" d="M113.1,13.72h16.96l13.51,4.1,2.94,6.28-3.8,4.97-22.27,9.18-14.48,2.23-10.09-.88-6.32-2.35-4.31-5.11,2.3-6.3,10.63-6.87,14.94-5.24Z"/><path id="_パス_20523" class="cls-2" d="M223.64,13.72h-16.96l-13.5,4.1-2.94,6.28,3.8,4.97,22.27,9.17,14.48,2.23,10.09-.88,6.32-2.35,4.31-5.11-2.3-6.3-10.63-6.87-14.95-5.24Z"/><path id="_パス_20524" class="cls-8" d="M223.64,13.72h-16.96l-13.5,4.1-2.94,6.28,3.8,4.97,22.27,9.17,14.48,2.23,10.09-.88,6.32-2.35,4.31-5.11-2.3-6.3-10.63-6.87-14.95-5.24Z"/><path id="_パス_20525" class="cls-2" d="M119.65,95.91c0-7.49-6.05-13.56-13.52-13.56s-13.52,6.06-13.53,13.55,6.05,13.56,13.52,13.56h0c7.47,0,13.52-6.06,13.53-13.55"/><path id="_パス_20526" class="cls-2" d="M244.93,95.91c0-7.49-6.05-13.55-13.52-13.56-7.47,0-13.52,6.07-13.52,13.55,0,7.49,6.05,13.55,13.52,13.56h0c7.47,0,13.52-6.07,13.52-13.55"/><path id="_パス_20527" class="cls-5" d="M171.79,267.99c-26.63-2.19-53.62-4.15-79.12-12.72-20.02-6.3-40.13-14.88-55.47-29.6-18.29-16.76-29.2-40.93-31.25-65.57-.82-13.81,3.24-27.34,7.68-40.25,3.18-9.39,6.92-18.65,12.21-27.05,.65-.68,1.73-.7,2.41-.05,.6,.58,.7,1.51,.23,2.2-7.31,12.02-11.77,25.51-15.73,38.94-2.67,9.73-4.4,19.92-3.04,30.01,2.15,16.39,8.17,32.02,17.56,45.61,15.83,21.92,40.61,34.72,65.94,42.36,21.75,7.44,44.48,9.72,67.19,11.78,3.87,.37,7.75,.73,11.63,.94,2.12,.09,1.99,3.62-.25,3.4M26.56,95.54s.07,.02,.1,.03c-.23-.07-.44-.18-.63-.33,.16,.13,.33,.23,.53,.3"/><path id="_パス_20528" class="cls-5" d="M165.65,267.58c26.63-2.19,53.62-4.15,79.12-12.72,20.02-6.3,40.13-14.88,55.47-29.6,18.29-16.76,29.2-40.93,31.25-65.57,.82-13.81-3.24-27.34-7.68-40.25-3.18-9.39-6.92-18.65-12.22-27.06-.65-.68-1.73-.71-2.41-.06-.61,.58-.71,1.52-.23,2.21,7.31,12.02,11.77,25.5,15.73,38.94,2.67,9.73,4.4,19.92,3.04,30.01-2.15,16.39-8.17,32.02-17.56,45.61-15.83,21.92-40.62,34.72-65.95,42.36-21.75,7.44-44.48,9.72-67.19,11.78-3.88,.37-7.75,.73-11.64,.94-2.12,.09-1.99,3.62,.26,3.4M310.89,95.13s-.07,.02-.1,.03c.23-.07,.44-.18,.63-.33-.16,.13-.33,.23-.53,.3"/><path id="_パス_20529" class="cls-5" d="M177.79,121.64c-2.72-1.18-5.46-2.32-8.16-3.55-1.6-.56-4.22-1.63-2.77-3.72,1.2-1.52,3.03-.19,4.4,.34,2.64,1.21,5.32,2.32,7.99,3.47,1.97,.81,1.06,3.62-.7,3.62-.26,0-.52-.06-.76-.17"/><path id="_パス_20530" class="cls-5" d="M177.97,121.78c-2.62-.54-2.48-5.78,4-2.65-.19-2.31-.53-4.61-1.04-6.87-.12-1.94-2.19-5.11,.44-6.08,3.15-.93,3.08,6.21,3.77,8.27,.27,2.78,2.17,8.98-2.25,9.03-1.67-.46-3.19-1.39-4.92-1.7"/><path id="_パス_20531" class="cls-5" d="M150.32,125.23c-3.94-1.36-1.63-6.35-1.22-9.29,.84-2.32,2.08-11.49,4.87-11.29,1.03,.01,1.86,.84,1.87,1.87,0,.83-.64,1.4-.81,2.19-1.44,4.21-2.52,8.54-3.21,12.94,5.46-1.27,9.88-5.2,14.68-7.91,2.07-1.25,3.98,2.02,1.89,3.23-4.92,2.61-11.13,8.33-16.94,8.33-.37,0-.74-.02-1.11-.07"/><path id="_パス_20532" class="cls-5" d="M152.8,106.86c-3.63-2.86-14.18-11.03-4.05-12.59,3.77-.6,7.58-.88,11.4-.81,1.03,0,1.86,.84,1.87,1.87-.1,2.12-2.54,2.03-4.73,1.94-.86-.08-1.72-.06-2.58,.08-1.99,.11-3.97,.35-5.93,.73,1.9,2.14,4,4.09,6.28,5.81,.79,.24,1.32,.97,1.33,1.79,0,1.01-.8,1.83-1.81,1.84-.05,0-.09,0-.14,0-.61,0-1.2-.23-1.65-.65"/><path id="_パス_20533" class="cls-5" d="M180.87,107.31c-1.76-1.98,1.17-3.57,2.29-4.96,1.31-1.34,2.69-2.6,4.01-3.93-3.37-.48-6.76-.74-10.16-.77-1-.29-1.57-1.33-1.28-2.33,.11-.38,.33-.71,.64-.95,.84-.42,1.79-.55,2.71-.37,.39,.04,.78,.06,1.18,.05,5.55,.21,17.27,.48,8.62,7.96-1.05,1.02-2.12,2.03-3.15,3.08-1,.91-2.21,2.78-3.59,2.78-.47-.02-.92-.21-1.25-.55"/><path id="_パス_20534" class="cls-5" d="M174.25,96.79c-2.16-2.85-3.99-6-6.55-8.51-1.84,2.24-3.15,4.87-4.9,7.17-.36,.98-1.45,1.47-2.42,1.11-.82-.31-1.33-1.15-1.21-2.02,.31-1.24,1.32-2.14,1.96-3.21,1.61-2.31,2.82-5.05,5.14-6.76,3.07-1.5,5.32,2.52,7.01,4.49,1.34,1.79,2.61,3.64,3.93,5.45,.62,.85,.43,2.04-.41,2.65-.34,.25-.75,.37-1.16,.36-.55,0-1.06-.28-1.38-.73"/><path id="_パス_20535" class="cls-5" d="M135.43,144.9c-6.31-2.07-12.43-6.25-15.07-12.55-1.44-4.03-3.53-8.98-1.97-13.18,1.35-2,4.55,.02,3.17,2.07-.13,9.07,5.7,17.14,14.32,19.87,14.4,5.36,28.6-10.79,30.51-24.1,.1-1.1,1.08-1.91,2.18-1.81,.35,.03,.68,.16,.96,.36,1.46,1.57,.91,4.12,1.55,6.08,.95,4.53,3.1,8.73,6.2,12.16,8.18,10.08,25.85,8.53,32.64-2.39,1.77-2.69,3.21-5.59,4.29-8.62,.99-1.83,.38-5.37,3.13-5.23,3.64,.8-.13,7.11-.72,9.31-3.87,10.17-13.43,18.09-24.64,17.36-11.47,.39-20.8-8.83-23.95-19.34-3.98,10.61-14.72,21.04-26.4,21.04-2.11,0-4.21-.35-6.21-1.02"/><path id="_パス_20536" class="cls-5" d="M138.98,152.36l-.7-.14-.65-.14-.6-.15-.54-.15-.18-.06c.06-2.07,.12-4.14,.19-6.21,.25-2.65,4.04-1.77,3.27,.8-.05,2.05-.11,4.1-.16,6.15l-.63-.11Z"/><path id="_パス_20537" class="cls-5" d="M200.27,161.63l-1.36-.65-.84-.4c-.09-5.58-.19-11.16-.31-16.74-.18-.94,.44-1.86,1.38-2.04,.39-.07,.79-.01,1.14,.17,1.28,.78,.67,2.44,.81,3.68,.13,5.51,.24,11.03,.33,16.54l-1.16-.56Z"/><path id="_パス_20538" class="cls-5" d="M136.17,261.13c-1.11-39.03-.64-78.12,.16-117.16l.18,.08,.54,.21,.6,.21,.65,.2,.7,.19,.64,.16c-.56,30.81-1,61.64-.64,92.46,.14,7.88,.36,15.77,.53,23.66,.01,1.52-.83,2.29-1.67,2.29s-1.66-.75-1.66-2.29"/><path id="_パス_20539" class="cls-5" d="M197.03,262.56c1.46-35.35,1.43-70.73,1.04-106.1l.84,.57,1.36,.92,1.16,.78c.34,28.83,.36,57.66-.47,86.49-.51,6.22,.24,13.14-1.08,19.01-.23,.41-.66,.66-1.13,.67-1.12-.17-1.89-1.22-1.72-2.34,0,0,0,0,0,0"/><path id="_パス_20540" class="cls-5" d="M79.62,32.81c-.57-.18-1.15-.36-1.73-.54,.05-.16,.1-.32,.14-.49,.04-.13,.07-.26,.11-.4,.06-.23,.1-.46,.13-.7,.04-.42,.02-.84-.06-1.25-.04-.24-.11-.48-.2-.7,.01-.03,.02-.06,.04-.08,1.02,.33,2.03,.67,3.05,1.01,1.99,.72,1.11,3.3-.7,3.3-.27,0-.53-.06-.78-.15"/><path id="_パス_20541" class="cls-5" d="M74.17,64.93l-.02-.12-.02-.11v-.1s-.03-.09-.03-.09v-.08s-.03-.08-.03-.08v-.07s-.02-.06-.02-.06v-.06s-.02-.06-.02-.06v-.06s-.02-.06-.02-.06v-.06s-.02-.05-.02-.05v-.11s-.01-.05-.01-.05v-.05s-.01-.05-.01-.05v-.05s0-.05,0-.05v-.04s-.01-.04-.01-.04v-.04s0-.04,0-.04v-.04s0-.04,0-.04v-.16s0-.04,0-.04v-.92s0-.05,0-.05v-.17s0-.06,0-.06v-.06s-.01-.06-.01-.06v-.06s0-.06,0-.06l-.1-.06v-.07s-.01-.06-.01-.06v-.07s-.02-.07-.02-.07v-.07s-.02-.07-.02-.07v-.07s-.02-.07-.02-.07h.04c.83-.11,1.64,.33,2.01,1.08,.47,1.24-.59,2.12-1.61,2.92v-.06Z"/><path id="_パス_20542" class="cls-5" d="M74.33,46.63v-.06s.02-.06,.02-.06v-.06s.03-.06,.03-.06l.02-.06,.02-.07,.02-.07,.02-.07,.02-.07,.02-.07,.02-.07,.03-.08,.02-.08,.03-.08,.03-.08,.03-.09,.03-.09,.03-.09,.04-.09,.04-.09,.04-.09,.04-.09,.04-.09,.04-.09,.04-.09,.04-.09,.04-.09,.04-.08,.04-.08,.04-.08,.04-.08,.03-.08,.03-.08,.03-.07,.03-.07,.03-.07,.03-.07,.02-.07,.02-.06,.02-.06,.02-.06,.02-.06v-.05s.02-.06,.02-.06v-.05s0-.05,0-.05v-.21s-.01-.04-.01-.04v-.03s-.02-.04-.02-.04v-.03s-.02-.03-.02-.03v-.03s-.03-.03-.03-.03v-.03s-.03-.03-.03-.03v-.03s-.03-.03-.03-.03l-.02-.03-.02-.03-.02-.03-.02-.03-.02-.03-.02-.03-.02-.03-.02-.03-.02-.03-.02-.03-.02-.03-.02-.03-.02-.03-.02-.03-.02-.03-.02-.03-.02-.03-.02-.03-.02-.03-.02-.03-.02-.03-.02-.02c.61-.16,1.25,.01,1.7,.44,1.47,1.47-.54,2.96-2.44,4.26v-.04Z"/><path id="_パス_20543" class="cls-5" d="M75.18,63.25c-.52-.05-.99-.31-1.31-.72v-.56s0-.06,0-.06v-.06s-.01-.06-.01-.06v-.06s-.01-.06-.01-.06v-.06s-.01-.06-.01-.06v-.06s-.01-.06-.01-.06v-.07s-.02-.07-.02-.07v-.07s-.02-.07-.02-.07l-.05-.07v-.07s-.02-.08-.02-.08v-.08s-.02-.08-.02-.08v-.08s-.03-.08-.03-.08v-.09s-.03-.08-.03-.08v-.06c.26-3.31,.56-6.62,.96-9.92,.71-6.02,1.78-12,3.21-17.89,.08-.25,.16-.5,.23-.75,.04-.13,.07-.26,.11-.4s.06-.24,.08-.37c.15-.53,.31-1.05,.47-1.57-.07,.09-.13,.19-.19,.29,.94-2.03,4.49-.7,3.52,1.34-.88,3.71-1.67,7.4-2.36,11.14-.66,3.71-1.17,7.44-1.57,11.18-.3,2.8-.54,5.6-.76,8.4-.19,.89-.98,1.51-1.89,1.48-.09,0-.18,0-.26-.02"/><path id="_パス_20544" class="cls-5" d="M159.46,35.9c-.98-.35-1.22-1.42-1.69-2.14-1.88-3.34-3.89-6.62-6.07-9.81-1.25-1.83-2.56-3.64-3.93-5.4-.45-.64-1.32-1.03-1.27-1.91,.04-1.98,2.95-2.2,3.93-.63,3.94,5.02,7.48,10.35,10.58,15.93,.32,.57,.64,1.15,.95,1.73,.6,1.12-.52,2.38-1.78,2.38-.25,0-.49-.05-.72-.14"/><path id="_パス_20545" class="cls-5" d="M79.29,68.71c-1.85-1.46-4.3-2.96-5.31-5.03v-.07s-.01-.05-.01-.05v-.09s-.01-.04-.01-.04v-.04s0-.04,0-.04v-.04l-.02-.04v-.16s0-.04,0-.04v-.92s0-.05,0-.05v-.11s0-.05,0-.05v-.03c.73-1.24,3.16-1.21,3.57,.41,5.88,7.02,16.1,9.56,25.61,8.76,15.44-.99,29.83-7.54,41.69-16.17,3.73-2.62,7.52-5.31,10.19-8.87,2.27-3.24,4.56-6.96,4.3-10.9-.38-2.17,3.49-2.67,3.79-.46,.44,3.57-1.14,7.06-2.89,10.2-3.14,5.77-8.83,9.86-14.41,13.7-13.05,9.22-29.13,15.94-46.01,16.02h-.34c-7.16,0-14.57-1.67-20.12-5.86"/><path id="_パス_20546" class="cls-5" d="M78.15,31.85c.06-.35,.13-.69,.21-1.03,.06-.1,.13-.19,.21-.28l-.04,.03c-.06,.08-.12,.16-.17,.24,2.33-9.96,12.26-17.49,22.66-20.84,11.58-3.68,24.69-5.51,36.64-2.2,2.27,.4,10.42,3.9,13.05,7.06,0,.19,.04,.38,.11,.56,.17,.4,.4,.77,.7,1.09h0c.04,.67-.29,1.3-.85,1.64-1.45,.77-2.52-.39-3.26-1.37-1.01-.95-2.12-1.79-3.31-2.51-3.56-2.05-7.46-3.45-11.51-4.13-15.4-2.19-37.41,1.84-46.7,13.93-1.72,2.17-3.03,4.64-3.86,7.28,.02,1.06-.82,1.94-1.88,1.97-.07,0-.13,0-.2,0-.88,.06-1.66-.56-1.81-1.43"/><path id="_パス_20547" class="cls-5" d="M78.37,30.81h0c-.04,.07-.07,.13-.1,.2,.03-.07,.06-.14,.1-.2"/><path id="_パス_20548" class="cls-5" d="M100.01,44.9c-8.88-.03-18.69-3.58-21.37-11.8-.19-.63-.34-1.26-.45-1.91,.04-.17,.07-.34,.09-.5,.04-.42,.02-.84-.06-1.25-.01-.09-.03-.18-.06-.27,.13-.88,.9-1.51,1.78-1.46,2.26,.36,.58,3.41,1.66,4.97,1.86,4.91,7,8.07,12.56,8.96,15.44,2.35,37.51-2.03,50.04-10.44,4.79-3.43,6.38-9.91,2.49-14.4-1.12-.87-1.1-2.77,.68-2.82,1.93,.24,3.24,3.81,3.96,5.27,5.63,18.19-32.07,25.71-48.82,25.71-.91,0-1.75-.02-2.52-.06"/><path id="_パス_20549" class="cls-5" d="M100.15,40.79c-8.28-.16-17.37-4.1-15.32-12.75,1.1-3.5,4.67-5.66,7.82-7.66,13.86-8.59,33.44-12.01,48.96-5.1,3.89,1.72,6.57,5.67,5.28,9.55-2,5.07-8.22,7.52-13.28,9.68-9.56,3.76-19.8,6.34-30.28,6.34-1.06,0-2.11-.02-3.17-.08m12.33-25.39c-7.35,1.34-21.36,6.88-24.69,13.07-2.31,9.28,11.37,10.21,18.63,9.63,7.84,.19,38.57-7.06,37.78-15.65-.27-3.73-4.72-5.33-8.12-6.44-3.97-1.16-8.09-1.73-12.23-1.69-3.81,.03-7.62,.38-11.37,1.07"/><path id="_パス_20551" class="cls-5" d="M96.31,68.99c-8-1.66-16.99-4.91-20.88-11.81-.77-1.66,2.16-2.63,2.8-.91,3.95,6.43,13.97,9.75,21.77,10.46,9.39,.47,18.7-2.33,26.97-6.02,10.55-4.39,19.7-11.6,26.43-20.85,1.54-1.87,2.94-3.85,4.21-5.92,.27-.62,.59-1.34,1.44-1.4,4.77,.22-2.37,7.3-3.27,8.92-6.61,8.75-15.21,16.4-25.99,20.95-8.42,3.89-17.87,7.03-27.43,7.03-2.02,0-4.05-.14-6.05-.44"/><path id="_パス_20552" class="cls-5" d="M255.64,29.26c.83-.28,1.66-.55,2.49-.83,.02,.09,.04,.17,.07,.26,.12,.39,.24,.78,.37,1.17,.03,.1,.07,.2,.11,.3,.11,.31,.22,.62,.34,.93,.08,.21,.17,.43,.25,.64-.72,.23-1.44,.46-2.14,.68-.25,.1-.52,.15-.78,.15-1.81,0-2.69-2.58-.7-3.3"/><path id="_パス_20553" class="cls-5" d="M260.97,61.67c.37-.75,1.18-1.19,2.01-1.09,.09,.02,.17,.04,.26,.06v.03s-.01,.05-.01,.05v.05s-.02,.05-.02,.05v.05s-.02,.05-.02,.05v.05s-.01,.05-.01,.05v.05s-.01,.05-.01,.05v.05s-.01,.05-.01,.05v.05s-.02,.05-.02,.05v.05s-.02,.05-.02,.05v.05s-.01,.05-.01,.05v.05s-.01,.05-.01,.05v.05s-.02,.05-.02,.05v.05s-.01,.05-.01,.05v.05s-.02,.05-.02,.05v.05s-.02,.05-.02,.05v.05s-.02,.05-.02,.05v.05s-.02,.05-.02,.05v.06s-.02,.06-.02,.06v.06s-.02,.06-.02,.06v.06s-.02,.06-.02,.06v.06s-.02,.06-.02,.06v.06s-.02,.06-.02,.06v.06s-.02,.06-.02,.06v.06s-.02,.06-.02,.06v.06s-.02,.06-.02,.06v.06s-.02,.06-.02,.06v.06s-.02,.06-.02,.06v.06s-.02,.06-.02,.06v.06s-.02,.06-.02,.06v.06s-.02,.05-.02,.05v.05s-.02,.05-.02,.05v.05s-.01,.05-.01,.05v.05s0,.05,0,.05v.05s0,.05,0,.05v.39c-1.06-.82-2.22-1.72-1.72-3"/><path id="_パス_20554" class="cls-5" d="M259.99,41.99c.37-.36,.89-.54,1.41-.49v2.08s.01,.06,.01,.06v.06s.01,.06,.01,.06v.06s.01,.06,.01,.06v.06s.01,.06,.01,.06v.06s.02,.06,.02,.06v.06s.02,.06,.02,.06v.06s.02,.06,.02,.06v.06s.02,.06,.02,.06v.06s.02,.06,.02,.06v.05s.02,.06,.02,.06v.06s.02,.06,.02,.06v.05s.02,.05,.02,.05v.06s.03,.05,.03,.05v.06s.03,.05,.03,.05v.05s.03,.06,.03,.06l.02,.05v.05s.03,.05,.03,.05l.02,.05,.02,.05,.02,.06,.02,.05,.02,.05,.02,.05,.02,.05,.02,.04c-1.71-1.2-3.22-2.55-1.9-3.88"/><path id="_パス_20555" class="cls-5" d="M259.41,61.39c-.22-2.8-.46-5.6-.76-8.4-.4-3.74-.91-7.47-1.57-11.18-.7-3.74-1.49-7.43-2.36-11.14-.97-2.03,2.58-3.37,3.52-1.33-.05-.1-.11-.2-.19-.29,2.14,6.79,3.13,13.96,4.1,20.98,.44,3.61,.76,7.24,1.05,10.87v.05s0,.05,0,.05v.05s-.02,.05-.02,.05v.05s-.02,.05-.02,.05v.05s-.01,.05-.01,.05v.05s-.01,.05-.01,.05v.05s-.02,.05-.02,.05v.05s-.01,.05-.01,.05v.05s-.02,.05-.02,.05v.05s0,.02,0,.02c-.28,.59-.85,.99-1.5,1.06-.09,.01-.18,.02-.26,.02-.9,.03-1.7-.59-1.89-1.48"/><path id="_パス_20556" class="cls-5" d="M174.79,33.26c.31-.58,.63-1.15,.95-1.73,3.11-5.58,6.64-10.9,10.58-15.93,.97-1.57,3.88-1.35,3.93,.62,.06,.88-.81,1.27-1.26,1.92-1.37,1.76-2.68,3.57-3.93,5.4-2.18,3.19-4.19,6.47-6.07,9.81-.47,.72-.71,1.79-1.69,2.14-.23,.1-.47,.15-.72,.14-1.26,0-2.39-1.26-1.78-2.38"/><path id="_パス_20557" class="cls-5" d="M237,74.16c-16.88-.08-32.96-6.8-46.01-16.02-5.58-3.84-11.27-7.93-14.41-13.7-1.75-3.13-3.33-6.63-2.89-10.19,.3-2.2,4.17-1.71,3.79,.46-.26,3.94,2.03,7.65,4.3,10.9,2.67,3.55,6.45,6.25,10.18,8.87,11.86,8.63,26.25,15.19,41.69,16.17,9.51,.81,19.73-1.74,25.69-8.76,.45-1.76,3.27-1.65,3.72-.07h0s0,.06,0,.06v.05s-.02,.05-.02,.05v.05s-.02,.05-.02,.05v.05s-.02,.05-.02,.05v.05s-.01,.05-.01,.05v.06s-.02,.06-.02,.06v.06s-.02,.06-.02,.06v.06s-.02,.06-.02,.06v.06s-.02,.06-.02,.06v.06s-.02,.06-.02,.06v.06s-.02,.06-.02,.06c-.92,2.21-3.51,3.77-5.43,5.29-5.55,4.18-12.96,5.86-20.12,5.86h-.34"/><path id="_パス_20558" class="cls-5" d="M254.71,30.92c-.83-2.64-2.14-5.11-3.86-7.29-9.29-12.09-31.3-16.11-46.7-13.93-4.05,.68-7.95,2.07-11.51,4.13-1.19,.71-2.3,1.55-3.31,2.51-.74,.98-1.82,2.14-3.26,1.37-.65-.38-.97-1.14-.81-1.87l.02-.05c.04-.07,.08-.14,.12-.21,.1-.19,.18-.4,.24-.6,2.07-3.29,11.05-7.18,13.44-7.6,11.95-3.3,25.06-1.47,36.64,2.2,10.4,3.35,20.33,10.88,22.66,20.84-.05-.08-.11-.16-.17-.24-.01,0-.03-.02-.04-.03,.08,.09,.15,.18,.21,.28,.08,.34,.15,.68,.21,1.03-.15,.87-.92,1.49-1.8,1.43-1.06,.09-1.99-.7-2.07-1.77,0-.06,0-.13,0-.19"/><path id="_パス_20559" class="cls-5" d="M258.38,30.42h0c.04,.06,.07,.12,.1,.19-.03-.07-.06-.13-.1-.19"/><path id="_パス_20560" class="cls-5" d="M185.4,18.84c.72-1.46,2.03-5.03,3.96-5.27,1.79,.05,1.81,1.95,.68,2.82-3.88,4.49-2.29,10.98,2.49,14.4,12.54,8.41,34.61,12.79,50.05,10.44,5.56-.89,10.7-4.06,12.56-8.96,1.08-1.56-.6-4.61,1.66-4.97,.4,0,.79,.11,1.12,.34,.04,.17,.09,.34,.14,.51s.08,.37,.14,.55c.12,.39,.24,.78,.37,1.17,.02,.07,.05,.14,.07,.2-.09,.89-.27,1.77-.53,2.63-2.69,8.22-12.49,11.77-21.37,11.8-.77,.04-1.61,.06-2.52,.06-16.75,0-54.46-7.52-48.82-25.71"/><path id="_パス_20561" class="cls-5" d="M203.15,34.12c-5.07-2.17-11.29-4.61-13.28-9.69-1.29-3.88,1.39-7.83,5.28-9.55,15.52-6.92,35.11-3.49,48.96,5.1,3.14,2,6.72,4.15,7.81,7.66,2.05,8.65-7.04,12.59-15.32,12.75-1.06,.05-2.11,.08-3.17,.08-10.49,0-20.72-2.58-30.28-6.34m45.81-6.06c-3.33-6.19-17.33-11.74-24.69-13.07-7.77-1.36-16.02-1.68-23.6,.62-3.41,1.11-7.85,2.7-8.12,6.44-.79,8.59,29.95,15.84,37.78,15.65,7.26,.58,20.94-.35,18.63-9.64"/><path id="_パス_20563" class="cls-5" d="M206.96,62c-10.77-4.55-19.38-12.2-25.99-20.95-.9-1.62-8.04-8.7-3.27-8.92,.85,.07,1.17,.78,1.44,1.41,1.26,2.07,2.67,4.05,4.21,5.92,6.73,9.25,15.88,16.46,26.43,20.84,8.28,3.69,17.59,6.49,26.97,6.03,7.8-.71,17.83-4.03,21.77-10.46,.65-1.72,3.57-.75,2.8,.91-3.9,6.91-12.88,10.15-20.88,11.81-2,.3-4.03,.44-6.05,.44-9.56,0-19.01-3.14-27.43-7.03"/><path id="_パス_20564" class="cls-5" d="M185.59,16.89c.11-.94,.97-1.61,1.9-1.5,.77,.09,1.38,.7,1.49,1.47-.11,.94-.97,1.61-1.9,1.5-.77-.09-1.38-.7-1.49-1.47"/><path id="_パス_20565" class="cls-5" d="M150.14,18.67c-1.42-1.28-.69-2.13,.98-2.7,.12,.18,.26,.34,.4,.51l.05,.06c.02,.14,.05,.27,.1,.4,.12,.27,.28,.52,.45,.75,.12,.17,.22,.34,.36,.5,.15,.17,.32,.33,.5,.46-.59,.16-1.19,.26-1.8,.3-.37,.01-.74-.09-1.05-.29"/><path id="_パス_20566" class="cls-5" d="M184.53,17.52h0c.1-.26,.17-.53,.21-.81,.17-.21,.31-.44,.42-.68,.04-.08,.08-.16,.11-.24s.08-.14,.12-.21c.15-.31,.27-.63,.34-.97,0-.02,.02-.04,.02-.07,2.89,.22,3.53,2.79,.83,3.28-.69-.09-1.35-.24-2.05-.29"/><path id="_パス_20567" class="cls-5" d="M159.03,32.36c-.92-2.76,4.58-2.83,6.55-3.35,3.54-.58,7.17-.34,10.6,.71,1.72,.27,2.56,2.43,.75,3.15-1.45,.41-2.69-.85-4.18-.87-2.71-.38-5.47-.29-8.15,.24-1.22,.05-2.78,.99-4.03,.99-.64,.03-1.24-.31-1.54-.88"/><path id="_パス_20568" class="cls-5" d="M160.1,38.71c-1.44-3.23,9.94-4.03,12.23-3.77,1.73-.03,2.65,.81,2.83,1.65,.22,1.04-.68,2.07-2.57,1.47-3.04-.3-6.1,.04-9,1-.63,.3-1.32,.48-2.02,.52-.62,.04-1.2-.31-1.47-.87"/><path id="_パス_20569" class="cls-5" d="M310.23,95.42c-.06-.11-.12-.21-.18-.32l.06-.07c1.26-1.2,2.54-2.4,3.84-3.6v.03c-.01,.05-.02,.1-.03,.16-.13,.44-.25,.89-.39,1.33-.19,.55-.39,1.09-.56,1.64-.24,.7-.53,1.39-.85,2.09-.17,.37-.34,.74-.48,1.11-.02,.06-.05,.12-.07,.19-.42-.86-.87-1.71-1.33-2.55"/><path id="_パス_20570" class="cls-5" d="M302.31,69.46c.19-.22,.38-.43,.57-.65l.2,.2c.19,.19,.38,.39,.57,.58,.42,.42,.87,.83,1.31,1.24,.08,.07,.15,.14,.22,.21-.31,.11-.64,.17-.98,.17-1.35,0-2.74-.83-1.89-1.74"/><path id="_パス_20571" class="cls-5" d="M272.88,47.81c.5-.16,1-.33,1.5-.49,.22,.16,.44,.32,.68,.48,.1,.08,.2,.15,.31,.21,.02,.02,.05,.04,.08,.06l.03,.02c.21,.17,.42,.33,.64,.5,.27,.22,.55,.42,.85,.6-.65,.21-1.31,.41-1.96,.62-.34,.13-.7,.2-1.06,.2-1.73,0-2.92-1.55-1.08-2.2"/><path id="_パス_20572" class="cls-5" d="M308.16,92.25c-.15-.21-.33-.42-.5-.62s-.31-.41-.49-.6c-.46-.5-.9-1.02-1.38-1.5-.44-.43-.89-.84-1.35-1.25-.24-.21-.5-.42-.76-.62-3.92-6.93-12.45-12.83-20.59-18.27-6.68-4.32-13.29-8.68-20.7-12.59-.26-.17-.59-.34-.92-.51v-.3s.01-.03,.01-.03v-.07s.01-.03,.01-.03v-.04s.02-.04,.02-.04v-.03s.02-.04,.02-.04v-.04s.02-.04,.02-.04v-.04s.02-.04,.02-.04v-.04s.02-.04,.02-.04v-.04s.02-.04,.02-.04v-.04s.02-.04,.02-.04l.04-.05v-.04s.02-.04,.02-.04v-.04s.02-.04,.02-.04v-.04s.02-.04,.02-.04v-.04s.02-.04,.02-.04v-.04s.02-.04,.02-.04v-.04s.02-.04,.02-.04v-.04s.02-.04,.02-.04v-.04s.02-.04,.02-.04v-.04s.02-.04,.02-.04v-.04s.02-.03,.02-.03v-.04s.02-.04,.02-.04v-.03s.02-.04,.02-.04v-.04s.02-.03,.02-.03v-.04s.02-.03,.02-.03v-.04s.01-.03,.01-.03v-.03s.02-.04,.02-.04v-.03s.02-.04,.02-.04v-.04s.01-.04,.01-.04v-.04s.02-.03,.02-.03v-.04s.02-.03,.02-.03v-.04s.02-.03,.02-.03v-.04s.02-.03,.02-.03v-.04s0-.02,0-.02c1.36,.26,2.02,1.17,3.21,1.64,13.16,7.39,25.94,15.24,36.05,24.18,4.8,3.94,7.92,9.57,8.72,15.74-.57-.97-1.22-1.89-1.87-2.81"/><path id="_パス_20573" class="cls-5" d="M310.23,95.42c-.38-.69-.81-1.35-1.25-1.99,1.42-3.63,1.48-7.66,.17-11.34-2.37-4.96-7.06-9.35-11.22-13.84-5.75-5.43-12.94-10.35-20.16-15.12-4.6-2.85-9.24-5.7-14.13-8.38-.96-.58-1.96-1.08-3-1.5l-.02-.03-.02-.04-.02-.04-.02-.04-.02-.04-.02-.04-.02-.04-.02-.04-.02-.04-.02-.04-.02-.04v-.04s-.03-.04-.03-.04v-.04s-.02-.04-.02-.04v-.04s-.03-.04-.03-.04v-.04s-.03-.04-.03-.04v-.04s-.02-.04-.02-.04v-.04s-.02-.04-.02-.04v-.04s-.02-.04-.02-.04v-.04s-.02-.04-.02-.04v-.04s-.02-.04-.02-.04v-.04s-.02-.04-.02-.04v-.04s-.02-.04-.02-.04v-.04s-.01-.04-.01-.04v-.04s-.01-.04-.01-.04v-.04s-.02-.04-.02-.04v-.09s0-.05,0-.05v-.04s0-.04,0-.04v-.14s0-.04,0-.04v-1.08c2.17,.12,4.89,2.31,6.48,2.92,4.94,2.73,9.65,5.6,14.29,8.5,7.78,5.16,15.56,10.45,21.48,16.43v.02c.17,.36,.41,.68,.7,.93,.19,.19,.38,.39,.57,.58,.4,.39,.82,.78,1.23,1.17,2.99,3.3,6.38,6.84,8.05,10.52,2.24,5.42,1.04,11-1.56,16.3-.36-.73-.74-1.44-1.14-2.15"/><path id="_パス_20574" class="cls-5" d="M261.89,54.28v-.04s.02-.03,.02-.03v-.04s.02-.04,.02-.04v-.03s.02-.04,.02-.04v-.03s.01-.03,.01-.03v-.04s.02-.03,.02-.03v-.04s.01-.04,.01-.04v-.04s.02-.03,.02-.03v-.04s.01-.04,.01-.04v-.03s0,.02,0,.02c.04,.21,0,.43-.13,.6h0Z"/><path id="_パス_20575" class="cls-5" d="M261.7,55.1v-.04s.02-.04,.02-.04v-.04s.02-.04,.02-.04v-.04s.02-.04,.02-.04v-.04s.02-.04,.02-.04v-.04s.02-.04,.02-.04v-.04s.02-.04,.02-.04v-.04s.02-.04,.02-.04v-.04s.02-.04,.02-.04v-.04s.02-.03,.02-.03v-.04s.02-.03,.02-.03h0c.04,.1,.07,.2,.07,.31-.06,.18-.15,.36-.25,.52v-.05Z"/><path id="_パス_20576" class="cls-5" d="M26.3,97.1c-.13-.1-.26-.19-.4-.28-.08-.19-.17-.38-.26-.57-.11-.22-.21-.45-.33-.68-.11-.32-.22-.64-.36-.96-.13-.57-.3-1.13-.49-1.69-.02-.08-.05-.15-.08-.23-.08-.38-.18-.76-.28-1.14-.04-.17-.09-.33-.14-.5,1.2,1.08,2.39,2.15,3.57,3.24,.21,.22,.43,.44,.66,.63-.55,.71-1.1,1.43-1.63,2.15-.04,.05-.07,.09-.1,.13-.05-.04-.11-.08-.16-.12"/><path id="_パス_20577" class="cls-5" d="M25.07,95.09l-.02-.1s.02,.09,.03,.14v-.04"/><path id="_パス_20578" class="cls-5" d="M32.22,71.1c.18-.16,.36-.32,.53-.49,.28-.26,.54-.53,.8-.8,.08-.09,.17-.17,.26-.26,.13-.11,.25-.22,.37-.34,.12-.12,.23-.26,.31-.41l.81,.89c.85,.88-.54,1.67-1.88,1.67-.41,0-.82-.08-1.2-.26"/><path id="_パス_20579" class="cls-5" d="M62.5,50.79c-.76-.24-1.52-.47-2.28-.7l.03-.02c.13-.07,.25-.14,.38-.21l.74-.42c.2-.1,.4-.19,.59-.29,.44-.21,.88-.44,1.28-.68l.05-.03,1.33,.42c1.84,.63,.65,2.12-1.07,2.12-.36,0-.72-.06-1.06-.19"/><path id="_パス_20580" class="cls-5" d="M36.3,79.18c10.07-8.61,22.81-16.16,35.92-23.27,1.25-.47,1.91-1.42,3.42-1.61v.05s.02,.05,.02,.05v.05s.02,.04,.02,.04v.05s.02,.04,.02,.04v.04s.01,.04,.01,.04v.04s.01,.04,.01,.04v.04s.01,.04,.01,.04v.08s.01,.04,.01,.04v.07s0,.03,0,.03v.03s0,.03,0,.03v.16s0,.03,0,.03v.54s0,.03,0,.03v.03s.01,.03,.01,.03v.03s.01,.03,.01,.03v.06s.01,.03,.01,.03v.03s.01,.03,.01,.03v.03s.02,.03,.02,.03v.04s.02,.03,.02,.03v.04s.02,.04,.02,.04v.04s.02,.04,.02,.04v.05s.03,.05,.03,.05v.06s.03,.06,.03,.06l.02,.07,.02,.07,.02,.08v.04c-.37,.18-.73,.36-1.03,.54-7.38,3.76-13.97,7.96-20.62,12.12-8.78,5.67-18.03,11.86-21.39,19.27l-.2,.26-.21,.27v-.02s-.01,.03-.01,.03l-.02,.02,.02-.02,.02-.02c-.11,.13-.21,.26-.31,.39h0s.01-.02,.01-.02h-.01s0,.02,0,.02v.02h-.01l-.02,.03h-.01s0,.02,0,.02c-.02,.02-.04,.05-.06,.07l-.17,.21s.05-.06,.07-.09l-.13,.17c-.12,.15-.24,.29-.36,.44h0s0,0,0,0v-.02s0,.02,0,.02v.02h-.03s0,.03,0,.03c-.22,.27-.45,.55-.67,.82-.78,.96-1.57,1.91-2.33,2.89-.39,.5-.78,1-1.16,1.5,.46-6.58,3.68-12.66,8.86-16.73"/><path id="_パス_20581" class="cls-5" d="M32.31,89.82v.02s-.01,0-.01,0l.02-.02"/><path id="_パス_20582" class="cls-5" d="M24.71,81.06c1.69-3.59,5.15-7.04,8.15-10.26,6.1-6.78,14.94-12.6,23.78-18.27,4.63-2.79,9.32-5.55,14.24-8.18,1.51-.56,4.04-2.5,6.15-2.78l.02,.02,.02,.02,.02,.02,.02,.02,.02,.02,.02,.02,.02,.02,.02,.02,.02,.02,.02,.02,.02,.02,.02,.02,.02,.02,.02,.02,.02,.02,.02,.02,.02,.02,.02,.02,.02,.02,.02,.02,.02,.02,.02,.02,.02,.02v.02s.03,.02,.03,.02v.02s.03,.02,.03,.02v.02s.02,.02,.02,.02v.02s.02,.02,.02,.02v.02s.02,.02,.02,.02v.03s.01,.03,.01,.03v.16s-.01,.04-.01,.04v.04s-.03,.04-.03,.04l-.02,.04-.02,.04-.02,.04-.02,.04-.03,.05-.03,.05-.05,.04-.03,.05-.03,.05-.03,.05-.04,.05-.04,.05-.04,.05-.04,.06-.04,.06-.04,.06-.05,.07-.04,.06-.05,.06-.04,.06-.04,.06-.04,.06-.04,.06-.04,.06-.04,.06-.03,.06-.03,.04-.03,.05-.03,.05-.03,.05-.03,.05-.02,.05-.02,.04-.02,.05-.02,.04-.02,.04-.02,.04-.02,.04-.02,.04v.04s-.03,.04-.03,.04v.02c-.84,.32-1.65,.72-2.42,1.19-4.87,2.58-9.5,5.31-14.08,8.06-7.19,4.6-14.36,9.33-20.09,14.55-4.15,4.33-8.83,8.55-11.2,13.32-1.6,3.99-1.03,8.04,.57,11.97-.16,.2-.31,.39-.46,.59-.69,.88-1.37,1.77-2.04,2.68-.02,.03-.04,.06-.07,.09-2.74-5.22-4.08-10.74-1.78-16.11"/><path id="_パス_20583" class="cls-5" d="M75.45,54.52c.03-.22,.05-.44,.08-.65v.04s.03,.06,.03,.06v.06s.03,.05,.03,.05v.05s.03,.06,.03,.06v.05s.02,.05,.02,.05v.05s.02,.05,.02,.05v.05s.02,.05,.02,.05v.05s.02,.04,.02,.04v.04s.01,.04,.01,.04v.04s.01,.04,.01,.04v.04s.01,.04,.01,.04v.08s.01,.04,.01,.04v.07s0,.03,0,.03v.07s0,.03,0,.03v.13s0,.03,0,.03c-.26-.18-.39-.49-.34-.8"/><path id="_パス_20584" class="cls-5" d="M75.53,55.42c0-.2,.08-.39,.22-.53v.06s.01,.04,.01,.04v.14s0,.03,0,.03v.67s0,.03,0,.03v.06s.01,.03,.01,.03v.03s.01,.03,.01,.03v.03s.01,.03,.01,.03h0c-.16-.19-.28-.42-.37-.66"/><path id="_パス_20585" class="cls-5" d="M315.7,100.02c-.16-.27-.33-.54-.5-.81,2.18-4.5,4.36-9,6.37-13.56,10.43-24.45,18.85-53.09,7.44-78.31-.51-.98-.95-2-1.33-3.04,.07-2.74,3.25-2.35,3.77-.02,15.36,32.53,.86,67.44-14.09,98.62-.54-.97-1.09-1.93-1.66-2.87"/><path id="_パス_20586" class="cls-5" d="M254.62,27.5c-.05-.17-.11-.33-.16-.5-.17-.56-.4-1.09-.69-1.6-.14-.26-.32-.49-.52-.7,.97-.5,1.95-1,2.92-1.5,10.63-5.44,21.2-11.06,32.34-15.49,11.79-4.18,27.86-9.9,40.16-6.1,3.6,1.9,.97,5.77-2.1,2.83-22.8-3.69-51.08,12.82-71.86,23.36-.03-.1-.06-.2-.1-.31"/><path id="_パス_20587" class="cls-5" d="M302.09,70.01c-.41-.52-.83-1.03-1.27-1.54,1.27-3.45,2.49-6.92,3.61-10.41,3.08-10.02,6.4-20.26,6.85-30.73-1.74-3.05,5.03-5.3,3.34,3.5-1.91,14.01-6.37,27.6-11.32,40.91-.39-.59-.79-1.18-1.22-1.73"/><path id="_パス_20588" class="cls-5" d="M270.91,48.99c-.8-.44-1.62-.86-2.43-1.28,.11-.27,.3-.5,.53-.67,1-.72,2-1.42,3.02-2.12,8.05-5.6,16.48-10.65,25.22-15.1,4.16-2.06,8.33-4.34,12.94-5.26,2.62-.73,3.6,3.03,.83,3.34-4.02,.58-7.66,2.73-11.28,4.45-9.81,4.94-19.22,10.63-28.15,17.02-.23-.13-.45-.25-.68-.38"/><path id="_パス_20589" class="cls-5" d="M311.07,92.99c.03-.35,.04-.7,.05-1.06,.17,.54,.32,1.09,.47,1.64-.16-.21-.33-.4-.52-.58"/><path id="_パス_20590" class="cls-5" d="M282.3,56.16c-.84-.64-1.71-1.24-2.62-1.79-.14-.09-.29-.17-.44-.25-.64-.44-1.28-.87-1.93-1.29-2.08-1.37-4.22-2.64-6.41-3.84-.84-.46-1.69-.9-2.54-1.34l-.21-.13c-.42-.26-.84-.52-1.28-.76l-.07-.05c-.1-.06-.2-.12-.3-.18,.12-.57,.2-1.15,.3-1.72,.04-.21,.07-.43,.11-.64,3.31,2.37,6.56,4.83,9.78,7.31,2.04,1.67,4.09,3.36,6.11,5.08-.17-.13-.34-.26-.52-.39"/><path id="_パス_20591" class="cls-5" d="M22.3,99.65c.16-.27,.33-.54,.5-.81-2.18-4.5-4.36-9-6.37-13.56C6,60.82-2.42,32.18,9,6.96c.51-.98,.95-2,1.33-3.04-.07-2.74-3.25-2.35-3.77-.02-15.36,32.52-.86,67.44,14.09,98.62,.54-.97,1.09-1.93,1.66-2.88"/><path id="_パス_20592" class="cls-5" d="M83.38,27.13c.05-.17,.11-.33,.16-.5,.17-.56,.4-1.09,.69-1.6,.14-.26,.32-.49,.52-.7l-2.92-1.5c-10.63-5.44-21.2-11.06-32.34-15.49C37.68,3.17,21.62-2.55,9.32,1.24c-3.61,1.9-.97,5.77,2.1,2.83C34.22,.39,62.51,16.9,83.28,27.44c.03-.1,.06-.2,.1-.31"/><path id="_パス_20593" class="cls-5" d="M35.91,69.64c.41-.52,.83-1.03,1.27-1.54-1.27-3.45-2.49-6.92-3.61-10.41-3.08-10.02-6.4-20.26-6.85-30.73,1.74-3.05-5.03-5.3-3.34,3.5,1.9,14.02,6.37,27.6,11.32,40.91,.39-.59,.79-1.18,1.22-1.73"/><path id="_パス_20594" class="cls-5" d="M67.1,48.62c.8-.44,1.62-.86,2.43-1.28-.11-.27-.3-.5-.53-.67-1-.72-2-1.42-3.02-2.12-8.05-5.6-16.48-10.65-25.22-15.1-4.16-2.05-8.33-4.34-12.94-5.25-2.62-.73-3.6,3.03-.83,3.34,4.02,.58,7.66,2.73,11.28,4.45,9.8,4.94,19.22,10.63,28.15,17.01,.23-.13,.45-.25,.68-.38"/><path id="_パス_20595" class="cls-5" d="M26.93,92.62c-.03-.35-.04-.7-.05-1.06-.17,.54-.32,1.09-.47,1.64,.16-.21,.33-.4,.52-.58"/><path id="_パス_20596" class="cls-5" d="M55.7,55.79c.84-.64,1.71-1.24,2.62-1.79,.14-.09,.29-.17,.44-.25,.64-.44,1.28-.87,1.93-1.29,2.08-1.37,4.23-2.64,6.41-3.84,.84-.46,1.69-.9,2.54-1.34l.21-.13c.42-.26,.84-.52,1.28-.76l.07-.05c.1-.06,.2-.12,.3-.18-.12-.57-.2-1.15-.3-1.72-.04-.21-.07-.42-.11-.64-3.31,2.37-6.56,4.83-9.78,7.31-2.04,1.67-4.09,3.36-6.11,5.08,.17-.13,.34-.26,.52-.39"/><path id="_パス_20597" class="cls-5" d="M104.88,110.41c-13.49-.04-20.3-14.13-11.17-24.33,10.07-10.5,27.76-6.9,27.97,9.19,.52,4.18-1.69,8.04-4.5,10.96-3.05,2.99-7.37,4.18-11.53,4.18-.26,0-.52,0-.77-.01m-5.78-24.4c-10.84,6.97-6.52,21.53,6.55,20.99,3.15,.14,6.24-.84,8.73-2.78,2.55-2.42,4.48-5.74,3.88-9.36-.25-7.42-5.23-11.32-11.04-11.32-2.88,.04-5.7,.9-8.11,2.48"/><path id="_パス_20598" class="cls-5" d="M230.17,110.68c-13.49-.04-20.3-14.13-11.18-24.32,10.07-10.5,27.76-6.9,27.98,9.19,.52,4.18-1.69,8.04-4.5,10.96-3.05,2.99-7.37,4.19-11.53,4.19-.26,0-.52,0-.77-.01m-5.78-24.41c-10.84,6.97-6.52,21.53,6.55,20.99,3.15,.14,6.24-.84,8.73-2.78,2.55-2.42,4.48-5.74,3.88-9.36-.25-7.41-5.23-11.32-11.04-11.32-2.88,.04-5.7,.9-8.11,2.48"/><path id="_パス_20599" class="cls-5" d="M229.37,102.9c-9.75-.76-9.32-15.8,.77-15.5,2.97,.1,6.18,1.82,7.35,4.65,1.71,3.96,.32,10.09-4.61,10.59-.49,.4-1.1,.6-1.73,.58-.61-.02-1.21-.12-1.78-.32"/><path id="_パス_20600" class="cls-5" d="M104.38,102.9c-9.75-.76-9.32-15.8,.77-15.5,2.97,.1,6.18,1.82,7.35,4.65,1.71,3.96,.31,10.09-4.62,10.59-.49,.4-1.1,.6-1.73,.58-.61-.02-1.21-.12-1.78-.32"/><path id="_パス_20601" class="cls-5" d="M72.52,123.58c-17.87,.13-20.77-15.69-2.11-18.22,4.64-.45,9.33,.24,13.65,2,5.32,1.93,8.82,8.56,3.69,12.76-2.14,1.92-8.42,3.91-12.55,3.91-.92,.04-1.84-.11-2.69-.45m1.73-2.54c4.17-.29,8.95-.75,12.14-3.73,2.88-3.4-1.64-6.84-4.76-7.7-4.91-1.74-10.24-1.86-15.23-.35-2.96,.95-7.23,3.86-5.22,7.4,2.43,2.63,6.24,3.62,9.7,3.91,.41,.05,.82,.06,1.22,.03,.2-.01,.39-.02,.58-.02,.56-.05,1.12,.12,1.57,.47"/><path id="_パス_20602" class="cls-5" d="M260.88,122.44c-17.87,.13-20.77-15.69-2.11-18.22,4.65-.45,9.33,.24,13.65,2,5.32,1.93,8.81,8.56,3.69,12.76-2.14,1.92-8.42,3.91-12.55,3.91-.92,.04-1.84-.11-2.69-.45m1.73-2.54c4.17-.3,8.95-.75,12.14-3.73,2.88-3.4-1.64-6.84-4.76-7.7-4.91-1.74-10.24-1.86-15.23-.35-2.96,.95-7.23,3.85-5.23,7.39,2.43,2.64,6.24,3.62,9.7,3.91,.41,.05,.82,.06,1.22,.03,.2,0,.39-.02,.58-.02,.56-.05,1.12,.12,1.57,.47"/><path id="_パス_20603" class="cls-6" d="M137.56,245.7h61.27l-.8,18.12s-30.75,7.01-59.2,.09l-1.27-18.22Z"/><path id="_パス_20604" class="cls-9" d="M137.56,245.7h61.27l-.8,18.12s-30.75,7.01-59.2,.09l-1.27-18.22Z"/></g></g></svg>