<?xml version="1.0" encoding="utf-8"?>
<!-- Generator: Adobe Illustrator 26.4.1, SVG Export Plug-In . SVG Version: 6.00 Build 0)  -->
<svg version="1.1" id="レイヤー_1" xmlns="http://www.w3.org/2000/svg" xmlns:xlink="http://www.w3.org/1999/xlink" x="0px"
	 y="0px" viewBox="0 0 1138 898" style="enable-background:new 0 0 1138 898;" xml:space="preserve">
<style type="text/css">
	.st0{clip-path:url(#SVGID_00000034805568030250924530000004603469388770080441_);}
	.st1{fill:#76B7DA;}
	.st2{fill:#FEE30B;}
	.st3{fill:none;stroke:#0B0507;stroke-width:0.185;stroke-miterlimit:10;}
	.st4{fill:#FFFFFF;}
	.st5{fill:#004C94;}
	.st6{fill:none;stroke:#FFFFFF;stroke-width:0.185;stroke-miterlimit:10;}
	.st7{fill:#090406;}
</style>
<g>
	<defs>
		<rect id="SVGID_1_" width="1138" height="898"/>
	</defs>
	<clipPath id="SVGID_00000062191103930210350040000014040096877773815726_">
		<use xlink:href="#SVGID_1_"  style="overflow:visible;"/>
	</clipPath>
	<g id="グループ_4592" style="clip-path:url(#SVGID_00000062191103930210350040000014040096877773815726_);">
		<path id="パス_20415" class="st1" d="M1105.6,500.6c6.9,266.1-242.3,393.2-541.1,388.8c-171.9-2.5-310.1-35.3-404.8-110.7
			S13.7,585.1,30.6,493.5C83,209.8,265.8,118.8,564.5,111.8C886.3,104.1,1100,285.9,1105.6,500.6"/>
		<path id="パス_20416" class="st1" d="M760.6,151l143.3-89.2L1012.8,19l54.5-12.2l35.9,7.7l19.1,28l10,92.7l-26.7,105.8
			l-57.3,127L760.6,151z"/>
		<path id="パス_20417" class="st1" d="M373,151L229.7,61.8L120.8,19L66.3,6.7l-35.9,7.7l-19.1,28L1.3,135l26.7,105.8l57.2,127
			L373,151z"/>
		<path id="パス_20418" class="st2" d="M495.6,367.3l45.3-0.9l26.1-29.2l24.4,30l46.7,6.7l-25.6,34.5l6.3,44.5l-54.6-19L509,461.1
			l1.2-39.2l5.7-19.1L495.6,367.3z"/>
		<path id="パス_20419" class="st3" d="M495.6,367.3l45.3-0.9l26.1-29.2l24.4,30l46.7,6.7l-25.6,34.5l6.3,44.5l-54.6-19L509,461.1
			l1.2-39.2l5.7-19.1L495.6,367.3z"/>
		<path id="パス_20420" class="st4" d="M935.1,427.7c0-14.9-22.6-26.9-50.5-26.9s-50.5,12.1-50.5,26.9s22.6,26.9,50.5,26.9
			S935.1,442.6,935.1,427.7"/>
		<path id="パス_20421" class="st4" d="M298.4,427.7c0-14.9-22.6-26.9-50.5-26.9s-50.5,12.1-50.5,26.9s22.6,26.9,50.5,26.9
			S298.4,442.6,298.4,427.7"/>
		<path id="パス_20422" class="st2" d="M260.2,143.5l-89.9,53.1l-49.2,38.8l-33.4,45.1l0.5,45.1l37.1-54.6l72.2-52.7l58.9-29.9
			L260.2,143.5z"/>
		<path id="パス_20423" class="st2" d="M875.8,143.5l89.9,53.1l49.2,38.8l33.4,45.1l-0.5,45.1l-37.1-54.6l-72.2-52.7l-58.9-29.9
			L875.8,143.5z"/>
		<path id="パス_20424" class="st5" d="M119.7,228.4l-30-88.8l-2.1-51.4h13.8l72.4,36.8l49.4,35.5l-69.8,44.2L119.7,228.4z"/>
		<path id="パス_20425" class="st5" d="M1018.3,228.4l30-88.8l2.1-51.4h-13.8L964.2,125l-49.4,35.5l69.8,44.2L1018.3,228.4z"/>
		<path id="パス_20426" class="st5" d="M269.6,103.5l-15.6,109l30.6,24.4l54.2,7.2l72.9-15.5l49.8-20.8l55.6-36.5l26.4-38.3
			l-3.8-21.4l-30.6-47.9l-30.2-24.7l-39.5-11.8h-45.7l-54.9,10.5l-33.4,16.8l-25.1,26.6L269.6,103.5z"/>
		<path id="パス_20427" class="st5" d="M865.7,103.5l15.6,109l-30.6,24.4l-54.2,7.2l-72.9-15.5l-49.8-20.8l-55.6-36.5l-26.4-38.3
			l3.8-21.4l30.6-47.9l30.2-24.7l39.4-11.8h45.7l54.9,10.5l33.4,16.8l25.1,26.6L865.7,103.5z"/>
		<path id="パス_20428" class="st2" d="M538.6,107.9l35.7-6.3l21.6,4.6l-7.9,18.8h-42.1l-5.4-9.8L538.6,107.9z"/>
		<path id="パス_20429" class="st4" d="M380.8,46.1h57.1l45.5,13.8l9.9,21.1l-12.8,16.7l-75,30.8l-48.8,7.5l-34-3l-21.3-7.9
			l-14.5-17.1l7.8-21.2l35.8-23.1L380.8,46.1z"/>
		<path id="パス_20430" class="st6" d="M380.8,46.1h57.1l45.5,13.8l9.9,21.1l-12.8,16.7l-75,30.8l-48.8,7.5l-34-3l-21.3-7.9
			l-14.5-17.1l7.8-21.2l35.8-23.1L380.8,46.1z"/>
		<path id="パス_20431" class="st4" d="M753,46.1h-57.1l-45.5,13.8l-9.9,21.1l12.8,16.7l75,30.8l48.8,7.5l34-3l21.3-7.9l14.5-17.1
			L839,86.7l-35.8-23.1L753,46.1z"/>
		<path id="パス_20432" class="st6" d="M753,46.1h-57.1l-45.5,13.8l-9.9,21.1l12.8,16.7l75,30.8l48.8,7.5l34-3l21.3-7.9l14.5-17.1
			L839,86.7l-35.8-23.1L753,46.1z"/>
		<path id="パス_20433" class="st4" d="M402.8,368.5c0-25.1-20.4-45.5-45.5-45.5c-25.1,0-45.5,20.4-45.5,45.5s20.4,45.5,45.5,45.5
			c0,0,0,0,0,0C382.4,414,402.8,393.7,402.8,368.5"/>
		<path id="パス_20434" class="st4" d="M824.6,368.5c0-25.1-20.4-45.5-45.5-45.5c-25.1,0-45.5,20.4-45.5,45.5
			c0,25.1,20.4,45.5,45.5,45.5c0,0,0,0,0,0C804.3,414,824.6,393.7,824.6,368.5"/>
		<path id="パス_20435" class="st7" d="M1090.2,401c-10.7-31.5-23.3-62.6-41.1-90.8c-4.7-5.1-13.1,1.5-8.9,7.2
			c24.6,40.3,39.6,85.6,53,130.7c9,32.7,14.8,66.9,10.2,100.8c-7.2,55-27.5,107.5-59.1,153.1c-53.3,73.6-136.7,116.6-222,142.2
			c-73.2,25-149.8,32.6-226.2,39.6c-12.5,1.2-30.8,3.7-37.5,3.1c-6.7-0.7-12.3-1.1-18.4-1.7c-76.5-6.9-153-14.6-226.2-39.6
			C228.6,820,145.1,777,91.8,703.4c-31.6-45.6-51.9-98.1-59.1-153.1c-4.6-33.9,1.2-68.1,10.2-100.8c13.4-45.1,28.4-90.4,53-130.7
			c4.3-5.8-4.2-12.3-8.9-7.2c-17.8,28.2-30.4,59.3-41.1,90.8C30.9,445.8,17.3,491.2,20,537.5c6.9,82.7,43.6,163.9,105.2,220.1
			c51.7,49.4,119.4,78.2,186.8,99.4c78.3,26.3,233.5,40.2,242.8,40.8c9.3,0.6,15.4-0.7,29.2-1.6c13.8-0.9,162.7-14.6,240.2-40.6
			c67.4-21.2,135.1-50,186.8-99.4c61.6-56.3,98.3-137.4,105.2-220.1C1118.9,489.8,1105.2,444.4,1090.2,401 M1046.7,319.4
			c-0.1,0-0.2,0.1-0.3,0.1c0.8-0.2,1.5-0.6,2.1-1.1C1047.9,318.8,1047.3,319.2,1046.7,319.4 M89.8,320.9c-0.1,0-0.2-0.1-0.3-0.1
			c-0.6-0.2-1.2-0.6-1.8-1C88.3,320.3,89,320.6,89.8,320.9"/>
		<path id="パス_20436" class="st7" d="M598.6,454.9c-9.2-4-18.4-7.8-27.5-11.9c-5.4-1.9-14.2-5.5-9.3-12.5
			c4-5.1,10.2-0.6,14.8,1.2c8.9,4.1,17.9,7.8,26.9,11.7c6.6,2.7,3.6,12.1-2.3,12.1C600.3,455.5,599.4,455.3,598.6,454.9"/>
		<path id="パス_20437" class="st7" d="M599.2,455.4c-8.8-1.8-8.3-19.4,13.5-8.9c-0.4-7.8-2-15.4-3.5-23.1
			c-0.4-6.5-7.4-17.2,1.5-20.4c10.6-3.1,10.4,20.8,12.7,27.8c0.9,9.3,7.3,30.2-7.6,30.3C610.2,459.6,605,456.4,599.2,455.4"/>
		<path id="パス_20438" class="st7" d="M506.1,467c-13.3-4.6-5.5-21.3-4.1-31.2c2.8-7.8,7-38.6,16.4-37.9c3.5,0,6.3,2.8,6.3,6.3
			c0,2.8-2.2,4.7-2.7,7.4c-4.7,14.2-8.7,28.7-10.8,43.4c18.4-4.3,33.2-17.5,49.4-26.6c7-4.2,13.4,6.8,6.3,10.9
			c-16.6,8.8-37.5,28-57,28C508.6,467.2,507.4,467.2,506.1,467"/>
		<path id="パス_20439" class="st7" d="M514.5,405.3c-12.2-9.6-47.8-37-13.6-42.3c12.6-2.3,25.6-2.7,38.4-2.7
			c3.5,0,6.3,2.8,6.3,6.3c-0.3,7.1-8.6,6.8-15.9,6.5c-3.3-0.1-6.5-0.3-8.7,0.3c-6.7,0.4-13.4,1.2-20,2.4c6.6,7,13.3,14,21.2,19.5
			c2.6,0.8,4.5,3.2,4.5,6c0,4.1-3.2,6.2-6.6,6.2C518,407.5,516,406.7,514.5,405.3"/>
		<path id="パス_20440" class="st7" d="M609,406.8c-5.9-6.6,3.9-12,7.7-16.7c4.4-4.5,9.1-8.7,13.5-13.2c-11.2-2.1-23-2-34.2-2.6
			c-4.9-1.1-6.3-8.2-2.2-11c2.7-1.7,5.9-1.5,9.1-1.3c1.3,0.1,2.6,0.2,4,0.2c18.7,0.7,58.1,1.6,29,26.7c-3.5,3.4-7.2,6.8-10.6,10.3
			c-3.4,3.1-7.4,9.3-12.1,9.3C611.6,408.6,610.1,407.9,609,406.8"/>
		<path id="パス_20441" class="st7" d="M586.7,371.5c-7.3-9.6-13.4-20.1-22.1-28.6c-6.2,7.5-10.6,16.3-16.5,24.1
			c-1.2,3.3-4.9,4.9-8.2,3.7c-2.8-1-4.5-3.8-4.1-6.8c1-4.2,4.5-7.2,6.6-10.8c5.4-7.8,9.5-17,17.3-22.7c10.3-5,17.9,8.5,23.6,15.1
			c4.5,6,8.8,12.2,13.2,18.3c3.7,4.7-0.8,10.1-5.3,10.1C589.5,373.9,587.7,373,586.7,371.5"/>
		<path id="パス_20442" class="st7" d="M456,533c-21.2-7-41.9-21-50.7-42.1c-4.9-13.5-11.9-30.2-6.6-44.3c4.6-6.7,15.3,0.1,10.7,7
			c0.2,30.5,18.7,57.6,48.2,66.7c48.5,18,96.3-36.2,102.7-80.9c0.7-4.9,6.4-8.2,10.6-4.9c4.9,5.3,3.1,13.8,5.2,20.4
			c2.8,15.3,10.8,29.1,20.9,40.8c27.6,33.9,87,28.6,109.9-8c6-9,10.8-18.8,14.4-29c3.3-6.2,1.3-18,10.5-17.6
			c12.3,2.7-0.4,23.9-2.4,31.3c-13,34.1-45.2,60.7-82.9,58.3c-38.6,1.3-70-29.7-80.7-64.9c-13.4,35.6-49.6,70.6-88.9,70.6
			C469.8,536.5,462.7,535.3,456,533"/>
		<path id="パス_20443" class="st7" d="M268.1,110.2c-1.9-0.6-3.9-1.2-5.8-1.8c0.2-0.5,0.3-1.1,0.5-1.6c0.1-0.4,0.2-0.9,0.4-1.3
			c0.2-0.8,0.4-1.6,0.5-2.4c0.1-1.4,0.1-2.8-0.2-4.2c-0.1-0.8-0.4-1.6-0.7-2.3c0-0.1,0.1-0.2,0.1-0.3c3.4,1.1,6.8,2.3,10.3,3.4
			c6.7,2.4,3.7,11.1-2.4,11.1C269.8,110.7,268.9,110.5,268.1,110.2"/>
		<path id="パス_20444" class="st7" d="M249.7,218l-0.1-0.4l-0.1-0.4l0-0.3l-0.1-0.3l0-0.3l0-0.3l0-0.2l0-0.2l0-0.2l0-0.2l0-0.2
			l0-0.2l0-0.2l0-0.2l0-0.2l0-0.2l0-0.2l0-0.2l0-0.2l0-0.2l0-0.2l0-0.2l0-0.2l0-0.1l0-0.1l0-0.1l0-0.1l0-0.1l0-0.1l0-0.1l0-0.1
			l0-0.1l0-0.1l0-0.1v-0.1l0-0.1l0-0.1l0-0.2l0-0.1l0-0.1l0-0.2l0-0.2l0-0.2l0-0.2l0-0.2l0-0.2l0-0.2l0-0.2l0-0.2l0-0.2l0-0.2l0-0.2
			l0-0.2l0-0.2l0-0.2l0-0.2l0-0.2l0-0.2l0-0.2l0-0.2l0-0.2l0-0.2l0-0.2l0-0.2l0-0.2l0-0.2l0-0.2l0-0.2l0-0.2l0-0.2l0.2,0
			c2.8-0.3,5.5,1.1,6.8,3.7c1.6,4.2-2,7.1-5.4,9.8L249.7,218z"/>
		<path id="パス_20445" class="st7" d="M250.2,156.6l0-0.2l0-0.2l0-0.2l0.1-0.2l0.1-0.2l0.1-0.2l0.1-0.2l0.1-0.2l0.1-0.2l0.1-0.2
			l0.1-0.3l0.1-0.3l0.1-0.3l0.1-0.3l0.1-0.3l0.1-0.3l0.1-0.3l0.1-0.3l0.1-0.3l0.1-0.3l0.1-0.3l0.1-0.3l0.1-0.3l0.1-0.3l0.1-0.3
			l0.1-0.3l0.1-0.3l0.1-0.3l0.1-0.3l0.1-0.3l0.1-0.3l0.1-0.3l0.1-0.3l0.1-0.3l0.1-0.2l0.1-0.2l0.1-0.2l0.1-0.2l0.1-0.2l0.1-0.2
			l0.1-0.2l0.1-0.2l0-0.2l0-0.2l0-0.2l0-0.2l0-0.2l0-0.2l0-0.1l0-0.1l0-0.1l0-0.1l0-0.1l0-0.1l0-0.1l0-0.1l0-0.1l0-0.1l0-0.1l0-0.1
			l0-0.1L254,143l-0.1-0.1l-0.1-0.1l-0.1-0.1l-0.1-0.1l-0.1-0.1l-0.1-0.1l-0.1-0.1l-0.1-0.1l-0.1-0.1l-0.1-0.1l-0.1-0.1l-0.1-0.1
			l-0.1-0.1l-0.1-0.1l-0.1-0.1l-0.1-0.1l-0.1-0.1l-0.1-0.1l-0.1-0.1l-0.1-0.1l-0.1-0.1l-0.1-0.1c2-0.5,4.2,0,5.7,1.5
			C263.4,147.3,256.6,152.3,250.2,156.6L250.2,156.6z"/>
		<path id="パス_20446" class="st7" d="M253.1,212.4c-1.7-0.2-3.3-1.1-4.4-2.4l0-0.2l0-0.2l0-0.2l0-0.2l0-0.2l0-0.2l0-0.2l0-0.2
			l0-0.2l0-0.2l0-0.2l0-0.2l0-0.2l0-0.2l0-0.2l0-0.2l0-0.2l0-0.2l0-0.2l0-0.2l0-0.2l0-0.2l0-0.2l0-0.2l0-0.2l0-0.3l0-0.3l0-0.3
			l0-0.3l0-0.3l0-0.3l0-0.3l0-0.3l0-0.2c0.9-11.1,1.9-22.2,3.3-33.3c2.8-20,5.6-40.4,10.8-60.1c0.3-0.8,0.5-1.7,0.8-2.5
			c0.1-0.4,0.2-0.9,0.4-1.3c0.1-0.4,0.2-0.8,0.3-1.2c0.5-1.8,1-3.5,1.6-5.3c-0.2,0.3-0.4,0.6-0.6,1c3.2-6.8,15.1-2.3,11.8,4.5
			c-3,12.4-5.6,24.9-8,37.4c-2.2,12.4-3.9,25-5.3,37.5c-1,9.4-1.8,18.8-2.6,28.2c-0.3,2.8-3.3,5-6.4,5
			C253.7,212.4,253.4,212.4,253.1,212.4"/>
		<path id="パス_20447" class="st7" d="M536.9,120.5c-3.3-1.2-4.1-4.8-5.7-7.2c-6.3-11.2-13.1-22.2-20.4-32.9
			c-4.2-6.1-8.6-12.2-13.2-18.1c-1.5-2.2-4.5-3.5-4.3-6.4c0.2-6.6,9.9-7.4,13.2-2.1c13.3,16.9,25.2,34.7,35.6,53.5
			c1.1,1.9,2.2,3.8,3.2,5.8c2,3.8-1.8,8-6,8C538.5,121,537.6,120.8,536.9,120.5"/>
		<path id="パス_20448" class="st7" d="M267,230.7c-6.2-4.9-14.5-9.9-17.9-16.9l0-0.1l0-0.2l0-0.2l0-0.2l0-0.2l0-0.2l0-0.1l0-0.1
			l0-0.1l0-0.1l0-0.1l0-0.1l0-0.1l0-0.1l0-0.1l0-0.1l0-0.1v-0.1l0-0.1l0-0.1l0-0.2v-0.1l0-0.2l0-0.2l0-0.2l0-0.2l0-0.2l0-0.2l0-0.2
			l0-0.2l0-0.2l0-0.2l0-0.2l0-0.2l0-0.2l0-0.2l0-0.2l0-0.2l0-0.2l0-0.1c2.5-4.2,10.6-4.1,12,1.4c20.1,23.6,54.5,32.1,86.5,29.4
			c52-3.3,100.4-25.3,140.4-54.3c12.6-8.8,25.3-17.8,34.3-29.8c7.6-10.9,15.3-23.4,14.5-36.6c-1.3-7.3,11.8-9,12.8-1.6
			c1.5,12-3.8,23.7-9.7,34.2c-10.6,19.4-29.7,33.1-48.5,46c-44,31-98.1,53.5-154.9,53.8c-0.4,0-0.8,0-1.1,0
			C310.6,250.4,285.6,244.8,267,230.7"/>
		<path id="パス_20449" class="st7" d="M263.1,106.9c0.2-1.2,0.4-2.3,0.7-3.5c0.2-0.3,0.4-0.7,0.7-0.9l-0.1,0.1
			c-0.2,0.3-0.4,0.5-0.6,0.8c7.9-33.4,41.3-58.7,76.3-70c39-12.3,83.1-18.5,123.4-7.4c7.6,1.3,35.1,13.1,43.9,23.7
			c0,0.6,0.1,1.3,0.4,1.9c0.6,1.4,1.4,2.6,2.4,3.7l0,0c0.2,2-0.7,3.8-2.9,5.5c-4.9,2.6-8.5-1.3-11-4.6c-3.4-3.2-7.1-6-11.1-8.4
			c-11.6-7-25.1-11.3-38.8-13.8c-51.9-7.4-126,6.2-157.2,46.8c-5.6,7.5-10.6,15.6-13,24.5c0.3,4.1-3.4,6.6-7,6.6
			C266.2,111.9,263.6,109.9,263.1,106.9"/>
		<path id="パス_20450" class="st7" d="M263.8,103.5L263.8,103.5c-0.1,0.2-0.2,0.4-0.3,0.7C263.6,103.9,263.7,103.7,263.8,103.5"
			/>
		<path id="パス_20451" class="st7" d="M336.7,150.7c-29.9-0.1-62.9-12-71.9-39.6c-0.6-2.1-1.1-4.2-1.5-6.4
			c0.1-0.6,0.2-1.1,0.3-1.7c0.1-1.4,0.1-2.8-0.2-4.2c0-0.3-0.1-0.6-0.2-0.9c0.6-2.8,2.3-4.8,6-4.9c7.6,1.2,2,11.4,5.6,16.7
			c6.3,16.5,23.6,27.1,42.3,30.1c52,7.9,126.3-6.8,168.5-35c16.1-11.5,21.5-33.3,8.4-48.4c-3.8-2.9-3.7-9.3,2.3-9.5
			c6.5,0.8,10.9,12.8,13.3,17.7c19,61.1-108,86.3-164.4,86.3C342.1,151,339.3,150.9,336.7,150.7"/>
		<path id="パス_20452" class="st7" d="M337.2,137c-27.9-0.5-58.5-13.8-51.6-42.8c3.7-11.8,15.7-19,26.3-25.7
			c46.6-28.8,112.6-40.3,164.8-17.1c13.1,5.8,22.1,19.1,17.8,32.1c-6.7,17-27.7,25.2-44.7,32.5c-32.2,12.6-66.7,21.3-102,21.3
			C344.3,137.2,340.7,137.1,337.2,137 M378.7,51.7c-24.8,4.5-71.9,23.1-83.1,43.9c-7.8,31.2,38.3,34.3,62.7,32.3
			c26.4,0.6,129.9-23.7,127.2-52.5c-0.9-12.5-15.9-17.9-27.3-21.6c-13.4-3.9-27.2-5.8-41.2-5.7C404.1,48.2,391.3,49.4,378.7,51.7"/>
		<path id="パス_20453" class="st7" d="M358.3,127.9l0.1,0L358.3,127.9L358.3,127.9z"/>
		<path id="パス_20454" class="st7" d="M324.2,231.7c-26.9-5.6-57.2-16.5-70.3-39.7c-2.6-5.6,7.3-8.8,9.4-3.1
			c13.3,21.6,47,32.7,73.3,35.1c31.6,1.6,63-7.8,90.8-20.2c36.9-14.9,66.7-40.2,89-70c5.1-6.4,10.1-12.9,14.2-19.9
			c0.9-2.1,2-4.5,4.8-4.7c16.1,0.7-8,24.5-11,29.9c-22.3,29.4-51.2,55.1-87.5,70.3c-28.4,13.1-60.2,23.6-92.4,23.6
			C337.8,233.1,331,232.6,324.2,231.7"/>
		<path id="パス_20455" class="st7" d="M860.7,98.3c2.8-0.9,5.6-1.9,8.4-2.8c0.1,0.3,0.2,0.6,0.2,0.9c0.4,1.3,0.8,2.6,1.3,3.9
			c0.1,0.3,0.2,0.7,0.4,1c0.4,1,0.7,2.1,1.1,3.1c0.3,0.7,0.6,1.4,0.8,2.2c-2.4,0.8-4.8,1.5-7.2,2.3c-0.8,0.3-1.7,0.5-2.6,0.5
			C857,109.3,854,100.7,860.7,98.3"/>
		<path id="パス_20456" class="st7" d="M878.6,207.1c1.3-2.5,4-4,6.8-3.7c0.3,0.1,0.6,0.1,0.9,0.2l0,0.1l0,0.2l0,0.2l0,0.2l0,0.2
			l0,0.2l0,0.2l0,0.2l0,0.2l0,0.2l0,0.2l0,0.2l0,0.2l0,0.2l0,0.2l0,0.2l0,0.2l0,0.2l0,0.2l0,0.2l0,0.2l0,0.2l0,0.2l0,0.2l0,0.2
			l0,0.2l0,0.2l0,0.2l0,0.2l0,0.2l0,0.2l0,0.2l0,0.2l0,0.2l0,0.2l0,0.2l0,0.2l0,0.2l0,0.2l0,0.2l0,0.2l0,0.2l0,0.2l0,0.2l0,0.2
			l0,0.2l0,0.2l0,0.2l0,0.2l0,0.2l0,0.2l0,0.2l0,0.2l0,0.2l0,0.2l0,0.2l0,0.2l0,0.2l0,0.2l0,0.2l0,0.2l0,0.2l0,0.2l0,0.2l0,0.2
			l0,0.2l0,0.2l0,0.2l0,0.2l0,0.2l0,0.2l0,0.2l0,0.2v0.2C880.9,214.4,876.9,211.4,878.6,207.1"/>
		<path id="パス_20457" class="st7" d="M875.3,141c1.3-1.2,3-1.8,4.7-1.6l0,0.1l0,0.2l0,0.2l0,0.2l0,0.2v0.2l0,0.2l0,0.2v1.2
			l0,0.2v0.2l0,0.2l0,0.2l0,0.2l0,0.2v0.2l0,0.2l0,0.2l0,0.2l0,0.2l0,0.2l0,0.2l0,0.2l0,0.2l0,0.2l0,0.2l0,0.2l0,0.2l0,0.2l0,0.2
			l0,0.2l0,0.2l0,0.2l0,0.2l0,0.2l0,0.2l0,0.2l0,0.2l0,0.2l0,0.2l0,0.2l0,0.2l0,0.2l0,0.2l0,0.2l0,0.2l0,0.2l0,0.2l0,0.2l0,0.2
			l0,0.2l0,0.2l0,0.2l0,0.2l0,0.2l0,0.2l0.1,0.2l0,0.2l0.1,0.2l0.1,0.2l0.1,0.2l0.1,0.2l0.1,0.2l0.1,0.2l0.1,0.2l0.1,0.2l0.1,0.2
			C876,150,870.9,145.5,875.3,141"/>
		<path id="パス_20458" class="st7" d="M873.4,206.1c-0.7-9.4-1.6-18.8-2.6-28.2c-1.4-12.5-3.1-25.1-5.3-37.5
			c-2.3-12.5-5-25-8-37.4c-3.3-6.8,8.7-11.3,11.8-4.5c-0.2-0.3-0.4-0.7-0.6-1c7.2,22.8,10.5,46.9,13.8,70.4
			c1.5,12.1,2.6,24.3,3.5,36.5l0,0.2l0,0.2l0,0.2l0,0.2l0,0.2l0,0.2l0,0.2l0,0.2l0,0.2l0,0.2l0,0.2l0,0.2l0,0.2l0,0.2l0,0.2l0,0.2
			l0,0.2l0,0.1c-0.9,2-2.9,3.3-5.1,3.5c-0.3,0-0.6,0.1-0.9,0.1C876.7,211.1,873.7,208.9,873.4,206.1"/>
		<path id="パス_20459" class="st7" d="M588.5,111.7c1-1.9,2.1-3.9,3.2-5.8c10.5-18.7,22.4-36.6,35.6-53.5
			c3.3-5.3,13.1-4.5,13.2,2.1c0.2,3-2.7,4.3-4.3,6.4c-4.6,5.9-9,12-13.2,18.1c-7.4,10.7-14.1,21.7-20.4,32.9c-1.6,2.4-2.4,6-5.7,7.2
			c-0.8,0.3-1.6,0.5-2.4,0.5C590.2,119.7,586.5,115.4,588.5,111.7"/>
		<path id="パス_20460" class="st7" d="M797.9,249c-56.8-0.3-111-22.8-154.9-53.8c-18.8-12.9-37.9-26.6-48.5-46
			c-5.9-10.5-11.2-22.2-9.7-34.2c1-7.4,14-5.7,12.8,1.6c-0.9,13.2,6.8,25.7,14.5,36.6c9,11.9,21.7,21,34.3,29.8
			c39.9,29,88.4,51,140.4,54.3c32,2.7,66.4-5.8,86.5-29.4c1.5-5.9,11-5.5,12.5-0.2l0,0l0,0.2l0,0.2l0,0.2l0,0.2l0,0.2l0,0.2l0,0.2
			l0,0.2l0,0.2l0,0.2l0,0.2l0,0.2l0,0.2l0,0.2l0,0.2l0,0.2l0,0.2l0,0.2l0,0.2l0,0.2l0,0.2c-3.1,7.4-11.8,12.7-18.3,17.8
			c-18.7,14-43.6,19.7-67.7,19.7C798.7,249,798.3,249,797.9,249"/>
		<path id="パス_20461" class="st7" d="M857.6,103.8c-2.4-8.8-7.4-16.9-13-24.5c-31.3-40.6-105.4-54.1-157.2-46.8
			c-13.7,2.6-27.1,6.8-38.8,13.9c-4,2.4-7.8,5.2-11.1,8.4c-2.5,3.3-6.1,7.2-11,4.6c-2.5-1.8-3.3-4-2.7-6.3l0.1-0.2
			c0.1-0.2,0.3-0.5,0.4-0.7c0.3-0.7,0.6-1.3,0.8-2c7-11.1,37.2-24.1,45.3-25.5c40.2-11.1,84.4-4.9,123.4,7.4
			c35,11.2,68.4,36.5,76.3,70c-0.2-0.3-0.4-0.5-0.6-0.8c0,0-0.1-0.1-0.1-0.1c0.3,0.3,0.5,0.6,0.7,0.9c0.3,1.1,0.5,2.3,0.7,3.5
			c-0.5,2.9-3.1,5-6.1,4.8C861,110.4,857.2,107.9,857.6,103.8"/>
		<path id="パス_20462" class="st7" d="M869.9,102.1L869.9,102.1c0.1,0.2,0.2,0.4,0.3,0.6C870.2,102.6,870.1,102.3,869.9,102.1"/>
		<path id="パス_20463" class="st7" d="M624.2,63.3c2.4-4.9,6.8-16.9,13.3-17.7c6,0.2,6.1,6.5,2.3,9.5
			c-13.1,15.1-7.7,36.9,8.4,48.4c42.2,28.2,116.5,42.9,168.5,35c18.7-3,36-13.6,42.3-30.1c3.6-5.2-2-15.5,5.6-16.7
			c1.3,0,2.7,0.4,3.8,1.1c0.1,0.6,0.3,1.2,0.5,1.7c0.1,0.6,0.3,1.2,0.5,1.8c0.4,1.3,0.8,2.6,1.3,3.9c0.1,0.2,0.2,0.5,0.2,0.7
			c-0.3,3-0.9,5.9-1.8,8.8c-9,27.6-42.1,39.5-72,39.6c-2.6,0.1-5.4,0.2-8.5,0.2C732.2,149.6,605.2,124.4,624.2,63.3"/>
		<path id="パス_20464" class="st7" d="M684,114.6c-17.1-7.3-38-15.5-44.7-32.5c-4.3-13,4.7-26.3,17.8-32.1
			c52.2-23.2,118.2-11.7,164.8,17.1c10.6,6.7,22.6,13.9,26.3,25.7c6.9,29-23.7,42.3-51.6,42.8c-3.6,0.2-7.1,0.3-10.7,0.3
			C750.6,135.9,716.2,127.2,684,114.6 M838.2,94.2c-11.2-20.8-58.3-39.4-83.1-43.9c-26.2-4.6-53.9-5.6-79.5,2.1
			c-11.5,3.7-26.4,9.1-27.4,21.6c-2.6,28.8,100.8,53.2,127.2,52.5C799.9,128.5,846,125.4,838.2,94.2"/>
		<path id="パス_20465" class="st7" d="M775.5,126.6l-0.1,0L775.5,126.6L775.5,126.6z"/>
		<path id="パス_20466" class="st7" d="M696.8,208.2c-36.3-15.3-65.3-40.9-87.5-70.3c-3-5.4-27.1-29.2-11-30
			c2.9,0.2,4,2.6,4.8,4.7c4,7,9.1,13.5,14.2,19.9c22.3,29.8,52.1,55.1,89,70c27.9,12.4,59.2,21.8,90.8,20.2
			c26.3-2.4,60-13.5,73.3-35.1c2.2-5.8,12-2.5,9.4,3.1c-13.1,23.2-43.4,34.1-70.3,39.7c-6.7,1-13.6,1.5-20.4,1.5
			C757,231.8,725.2,221.2,696.8,208.2"/>
		<path id="パス_20467" class="st7" d="M624.9,56.7c0-2.8,2.6-5.1,5.7-5.1c3.1,0,5.7,2.3,5.8,5.1c0,2.8-2.6,5.1-5.7,5.1
			C627.5,61.8,624.9,59.5,624.9,56.7"/>
		<path id="パス_20468" class="st7" d="M505.5,62.7c-4.8-4.3-2.3-7.1,3.3-9.1c0.4,0.6,0.9,1.2,1.3,1.7l0.2,0.2
			c0.1,0.5,0.2,0.9,0.3,1.3c0.4,0.9,0.9,1.7,1.5,2.5c0.4,0.6,0.8,1.2,1.2,1.7c0.5,0.6,1.1,1.1,1.7,1.5c-2,0.5-4,0.9-6.1,1
			C507.8,63.7,506.6,63.3,505.5,62.7"/>
		<path id="パス_20469" class="st7" d="M621.3,58.8L621.3,58.8c0.3-0.9,0.6-1.8,0.7-2.7c0.6-0.7,1-1.5,1.4-2.3
			c0.1-0.3,0.3-0.5,0.4-0.8c0.1-0.2,0.3-0.5,0.4-0.7c0.5-1,0.9-2.1,1.1-3.2c0-0.1,0.1-0.2,0.1-0.2c9.8,0.7,11.9,9.4,2.8,11
			C625.9,59.5,623.6,59,621.3,58.8"/>
		<path id="パス_20470" class="st7" d="M535.4,108.7c-3.1-9.3,15.4-9.5,22.1-11.2c11.9-1.6,24.3-1.4,35.7,2.4
			c5.8,0.9,8.6,8.2,2.5,10.6c-4.9,1.4-9.1-2.8-14.1-2.9c-9.1-1.5-18.4-0.8-27.4,0.8c-4.1,0.2-9.3,3.3-13.6,3.3
			C538.5,111.7,536.5,110.5,535.4,108.7"/>
		<path id="パス_20471" class="st7" d="M539,130c-4.8-10.9,33.5-13.5,41.2-12.7c5.8-0.1,8.9,2.7,9.5,5.5c0.8,3.5-2.3,7-8.7,4.9
			c-10.1-1.5-20.6,0.6-30.3,3.4c-2.1,1-4.4,1.6-6.8,1.8C541.9,133,539.9,131.9,539,130"/>
		<path id="パス_20472" class="st7" d="M1044.5,320.4c-0.2-0.4-0.4-0.7-0.6-1.1l0.2-0.2c4.3-4,8.6-8.1,12.9-12.1l0,0.1
			c0,0.2-0.1,0.3-0.1,0.5c-0.5,1.5-0.8,3-1.3,4.5c-0.6,1.8-1.3,3.7-1.9,5.5c-0.8,2.4-1.8,4.7-2.9,7c-0.6,1.2-1.2,2.5-1.6,3.7
			c-0.1,0.2-0.2,0.4-0.2,0.6C1047.6,326,1046.1,323.2,1044.5,320.4"/>
		<path id="パス_20473" class="st7" d="M1017.8,233.2c0.6-0.7,1.3-1.5,1.9-2.2l0.7,0.7c0.6,0.6,1.3,1.3,1.9,1.9
			c1.4,1.4,2.9,2.8,4.4,4.2c0.3,0.2,0.5,0.5,0.7,0.7c-1.1,0.4-2.2,0.6-3.3,0.6C1019.6,239.1,1015,236.3,1017.8,233.2"/>
		<path id="パス_20474" class="st7" d="M918.7,160.5c1.7-0.5,3.4-1.1,5.1-1.6c0.7,0.6,1.5,1.1,2.3,1.6c0.3,0.3,0.7,0.5,1.1,0.7
			c0.1,0.1,0.2,0.1,0.3,0.2l0.1,0.1c0.7,0.6,1.4,1.1,2.1,1.7c0.9,0.7,1.9,1.4,2.8,2c-2.2,0.7-4.4,1.4-6.6,2.1
			c-1.1,0.4-2.3,0.7-3.6,0.7C916.6,167.9,912.5,162.7,918.7,160.5"/>
		<path id="パス_20475" class="st7" d="M1037.5,309.7c-0.5-0.7-1.1-1.4-1.7-2.1c-0.5-0.7-1.1-1.4-1.6-2c-1.5-1.7-3-3.4-4.7-5
			c-1.5-1.4-3-2.8-4.5-4.2c-0.8-0.7-1.7-1.4-2.5-2.1c-13.2-23.3-41.9-43.1-69.3-61.3c-22.5-14.5-44.7-29.1-69.7-42.3
			c-0.9-0.6-2-1.1-3.1-1.7v-0.1l0-0.1l0-0.1l0-0.1l0-0.1l0-0.1l0-0.1l0-0.1l0-0.1l0-0.1l0-0.1l0-0.1l0-0.1l0-0.1l0-0.1l0-0.1l0-0.1
			l0-0.1l0-0.1l0-0.1l0-0.1l0-0.1l0-0.1l0-0.1l0-0.2l0-0.1l0-0.1l0-0.2l0-0.2l0-0.1l0-0.1l0-0.1l0-0.1l0-0.1l0-0.1l0-0.1l0-0.1
			l0-0.1l0-0.1l0-0.1l0-0.1l0-0.1l0-0.1l0-0.1l0-0.1l0-0.1l0-0.1l0-0.1l0-0.1l0-0.1l0-0.1l0-0.1l0-0.1l0-0.1l0-0.1l0-0.1l0-0.1
			l0-0.1l0-0.1l0-0.1l0-0.1l0-0.1l0-0.1l0-0.1l0-0.1l0-0.1l0-0.1l0-0.1l0-0.1l0-0.1l0-0.1l0-0.1l0-0.1l0-0.1
			c4.6,0.9,6.8,3.9,10.8,5.5c44.3,24.8,87.3,51.2,121.4,81.2c18.4,15.7,26.8,34.1,29.4,52.8C1041.9,315.9,1039.7,312.8,1037.5,309.7
			"/>
		<path id="パス_20476" class="st7" d="M1044.5,320.4c-1.3-2.3-2.7-4.5-4.2-6.7c4.3-12.6,5.5-25.4,0.6-38.1
			c-8-16.6-23.8-31.4-37.8-46.5c-19.4-18.2-43.6-34.8-67.9-50.8c-15.5-9.6-31.1-19.1-47.6-28.1c-1.9-1.5-6.1-3.2-10.1-5l-0.1-0.1
			l-0.1-0.1l-0.1-0.1l-0.1-0.1l-0.1-0.1l-0.1-0.1l-0.1-0.1l-0.1-0.1l-0.1-0.1l-0.1-0.1l-0.1-0.1l0-0.1l-0.1-0.1l0-0.1l0-0.1l0-0.1
			l0-0.1l0-0.1l0-0.1l0-0.1l0-0.1l0-0.1l0-0.1l0-0.1l0-0.1l0-0.1l0-0.1l0-0.1l0-0.1l0-0.1l0-0.1l0-0.1l0-0.1l0-0.1l0-0.2l0-0.1
			l0-0.2l0-0.1l0-0.2l0-0.2l0-0.1l0-0.2l0-0.2l0-0.2l0-0.2l0-0.2l0-0.2l0-0.2l0-0.1l0-0.2l0-0.2l0-0.2l0-0.2l0-0.2l0-0.2v-0.2l0-0.2
			v-0.2l0-0.2v-0.5l0-0.2v-0.2l0-0.2l0-0.2l0-0.2l0-0.2l0-0.2l0-0.2l0-0.1c7.3,0.4,16.5,7.7,21.8,9.8c16.6,9.2,32.5,18.8,48.1,28.5
			c26.2,17.3,52.4,35.1,72.3,55.2l0,0.1c0.5,1.2,1.3,2.3,2.3,3.1c0.6,0.7,1.3,1.3,1.9,1.9c1.3,1.3,2.8,2.6,4.2,3.9
			c10.1,11.1,21.5,23,27.1,35.3c7.6,18.2,3.5,36.9-5.3,54.7C1047.1,325.2,1045.8,322.8,1044.5,320.4"/>
		<path id="パス_20477" class="st7" d="M881.7,182.3l0-0.1l0-0.1l0-0.1l0-0.1l0-0.1l0-0.1l0-0.1l0-0.1l0-0.1l0-0.1l0-0.1l0-0.1
			l0-0.1l0-0.1l0-0.1l0-0.1l0-0.1l0,0.1C882.3,181,882.1,181.7,881.7,182.3L881.7,182.3z"/>
		<path id="パス_20478" class="st7" d="M881.1,185l0-0.1l0-0.1l0-0.1l0-0.1l0-0.1l0-0.1l0-0.1l0-0.1l0-0.1l0-0.1l0-0.1l0-0.1
			l0-0.1l0-0.1l0-0.1l0-0.1l0-0.1l0-0.1l0-0.1l0-0.1v0c0.1,0.3,0.2,0.7,0.2,1c-0.2,0.6-0.5,1.2-0.8,1.7L881.1,185z"/>
		<path id="パス_20479" class="st7" d="M88.5,326c-0.4-0.3-0.9-0.6-1.3-1c-0.3-0.6-0.6-1.3-0.9-1.9c-0.4-0.8-0.7-1.5-1.1-2.3
			c-0.4-1.1-0.8-2.2-1.2-3.2c-0.4-1.9-1-3.8-1.6-5.7c-0.1-0.3-0.2-0.5-0.3-0.8c-0.3-1.3-0.6-2.5-0.9-3.8c-0.2-0.6-0.3-1.1-0.5-1.7
			c4,3.6,8.1,7.2,12,10.9c0.7,0.8,1.4,1.5,2.2,2.1c-1.8,2.4-3.7,4.8-5.5,7.2c-0.1,0.2-0.2,0.3-0.3,0.5
			C88.9,326.3,88.7,326.1,88.5,326"/>
		<path id="パス_20480" class="st7" d="M84.4,319.3l-0.1-0.3c0,0.2,0.1,0.3,0.1,0.5L84.4,319.3"/>
		<path id="パス_20481" class="st7" d="M108.5,238.7c0.6-0.5,1.2-1.1,1.8-1.6c0.9-0.9,1.8-1.8,2.7-2.7c0.3-0.3,0.6-0.6,0.9-0.9
			c0.4-0.4,0.9-0.8,1.3-1.1c0.4-0.4,0.8-0.9,1-1.4c0.9,1,1.8,2,2.7,3c2.8,2.9-1.8,5.6-6.3,5.6C111.1,239.7,109.7,239.3,108.5,238.7"
			/>
		<path id="パス_20482" class="st7" d="M210.4,170.5c-2.6-0.8-5.1-1.6-7.7-2.3l0.1-0.1c0.4-0.2,0.9-0.5,1.3-0.7
			c0.8-0.5,1.7-0.9,2.5-1.4c0.7-0.3,1.3-0.7,2-1c1.5-0.7,3-1.5,4.3-2.3l0.2-0.1c1.5,0.5,3,0.9,4.5,1.4c6.2,2.1,2.2,7.1-3.6,7.1
			C212.8,171.2,211.6,170.9,210.4,170.5"/>
		<path id="パス_20483" class="st7" d="M122.2,265.9c33.9-28.9,76.8-54.3,120.9-78.1c4.2-1.6,6.4-4.8,11.5-5.4l0,0.2l0,0.2l0,0.2
			l0,0.2l0,0.2l0,0.2l0,0.1l0,0.1l0,0.1l0,0.1l0,0.1l0,0.1l0,0.1l0,0.1l0,0.1l0,0.1l0,0.1l0,0.1l0,0.1l0,0.1l0,0.1l0,0.1l0,0.1
			l0,0.1l0,0.1l0,0.1l0,0.1l0,0.1l0,0.1l0,0.1l0,0.1l0,0.1l0,0.1l0,0.1l0,0.1l0,0.1l0,0.1l0,0.1l0,0.1l0,0.1l0,0.1l0,0.1l0,0.1
			l0,0.1l0,0.1l0,0.1l0,0.1l0,0.1l0,0.1l0,0.1l0,0.1l0,0.1l0,0.1l0,0.1l0,0.1l0,0.1l0,0.1l0,0.1l0,0.1l0,0.1l0,0.1l0,0.1l0,0.1
			l0,0.2l0,0.2l0,0.2l0.1,0.2l0.1,0.2l0.1,0.3l0.1,0.3l0,0.1c-1.3,0.6-2.5,1.2-3.5,1.8c-24.9,12.6-47,26.7-69.4,40.7
			c-29.6,19-60.7,39.8-72,64.7l-0.7,0.9c-0.2,0.3-0.5,0.6-0.7,0.9l0-0.1l-0.1,0.1l-0.1,0.1l0.1-0.1l0.1-0.1
			c-0.4,0.4-0.7,0.9-1.1,1.3l0,0l0,0l0,0l0,0l0,0.1l0,0l-0.1,0.1l0,0l0,0l0,0c-0.1,0.1-0.1,0.2-0.2,0.2l-0.6,0.7
			c0.1-0.1,0.2-0.2,0.2-0.3c-0.2,0.2-0.3,0.4-0.5,0.6c-0.4,0.5-0.8,1-1.2,1.5l0,0l0,0l0-0.1l0,0.1l0,0.1l0,0l0,0l0,0
			c-0.8,0.9-1.5,1.8-2.3,2.8c-2.6,3.2-5.3,6.4-7.8,9.7c-1.3,1.7-2.6,3.3-3.9,5C93.9,302.1,102.1,282.4,122.2,265.9"/>
		<path id="パス_20484" class="st7" d="M108.8,301.6L108.8,301.6L108.8,301.6L108.8,301.6"/>
		<path id="パス_20485" class="st7" d="M83.2,272.2c5.7-12,17.3-23.6,27.4-34.4c20.5-22.8,50.3-42.3,80.1-61.3
			c15.6-9.4,31.4-18.6,48-27.5c5.1-1.9,13.6-8.4,20.7-9.3l0.1,0.1l0.1,0.1l0.1,0.1l0.1,0.1l0.1,0.1l0.1,0.1l0.1,0.1l0.1,0.1l0.1,0.1
			l0.1,0.1l0.1,0.1l0.1,0.1l0.1,0.1l0.1,0.1l0.1,0.1l0.1,0.1l0.1,0.1l0.1,0.1l0.1,0.1l0.1,0.1l0.1,0.1l0.1,0.1l0.1,0.1l0,0.1
			l0.1,0.1l0,0.1l0.1,0.1l0,0.1l0,0.1l0,0.1l0,0.1l0,0.1l0,0.1l0,0.1l0,0.1l0,0.1l0,0.1v0.1l0,0.1l0,0.1l0,0.1l0,0.1l0,0.1l-0.1,0.1
			l-0.1,0.1l-0.1,0.1l-0.1,0.2l-0.1,0.2l-0.1,0.2l-0.1,0.2l-0.1,0.2l-0.1,0.2l-0.1,0.2l-0.1,0.2l-0.1,0.2l-0.1,0.2l-0.1,0.2
			l-0.2,0.2l-0.2,0.2l-0.1,0.2l-0.2,0.2l-0.2,0.2l-0.1,0.2l-0.1,0.2l-0.1,0.2l-0.1,0.2l-0.1,0.2l-0.1,0.2l-0.1,0.2l-0.1,0.2
			l-0.1,0.2l-0.1,0.2l-0.1,0.2l-0.1,0.2l-0.1,0.2l-0.1,0.2l-0.1,0.2l-0.1,0.1l-0.1,0.2l-0.1,0.1l-0.1,0.1l-0.1,0.1l0,0.1l0,0.1
			l0,0.1c-3.3,1.4-6.6,2.8-8.1,4c-16.4,8.7-32,17.8-47.4,27.1c-24.2,15.4-48.3,31.3-67.6,48.9c-14,14.5-29.7,28.7-37.7,44.7
			c-5.4,13.4-3.5,27,1.9,40.2c-0.5,0.7-1,1.3-1.6,2c-2.3,3-4.6,5.9-6.9,9c-0.1,0.1-0.2,0.2-0.2,0.3C80,308.7,75.5,290.2,83.2,272.2"
			/>
		<path id="パス_20486" class="st7" d="M254,183c0.1-0.7,0.2-1.5,0.3-2.2l0,0.1l0.1,0.2l0,0.2l0.1,0.2l0,0.2l0,0.2l0,0.2l0,0.2
			l0,0.2l0,0.2l0,0.2l0,0.2l0,0.2l0,0.2l0,0.1l0,0.1l0,0.1l0,0.1l0,0.1l0,0.1l0,0.1l0,0.1l0,0.1l0,0.1l0,0.1l0,0.1l0,0.1l0,0.1
			l0,0.1l0,0.1l0,0.1l0,0.1l0,0.1l0,0.1C254.3,185.1,253.9,184.1,254,183"/>
		<path id="パス_20487" class="st7" d="M254.3,186.1c0-0.7,0.3-1.3,0.7-1.8l0,0.1l0,0.1l0,0.1l0,0.1l0,0.1l0,0.1l0,0.1l0,0.1
			l0,0.1l0,0.1l0,0.1l0,0.1l0,0.1l0,0.1l0,0.1v0.1l0,0.1l0,0.1l0,0.1l0,0.1l0,0.1l0,0.1l0,0.1l0,0.1l0,0.1l0,0.1l0,0.1l0,0.1l0,0.1
			l0,0.1l0,0.1l0,0.1l0,0.1l0,0.1l0,0.1l0,0.1l0,0.1l0,0.1l0,0.1l0,0C255,187.6,254.6,186.9,254.3,186.1"/>
		<path id="パス_20488" class="st7" d="M1062.9,335.8c-0.6-0.9-1.1-1.8-1.7-2.7c7.3-15.1,14.7-30.2,21.4-45.5
			c35.1-82.1,63.5-178.3,25-262.9c-1.4-3.4-3.6-6.6-4.5-10.2c0.2-9.2,11-7.9,12.7-0.1c51.7,109.2,2.9,226.4-47.4,331.1
			C1066.7,342.2,1064.8,339,1062.9,335.8"/>
		<path id="パス_20489" class="st7" d="M857.3,92.3c-0.2-0.6-0.4-1.1-0.5-1.7c-0.6-1.9-1.4-3.7-2.3-5.4c-0.5-0.9-1.1-1.7-1.8-2.4
			c3.3-1.7,6.6-3.4,9.8-5c35.8-18.3,71.4-37.1,108.9-52c39.7-14,93.8-33.2,135.2-20.5c12.1,6.4,3.3,19.4-7.1,9.5
			c-76.8-12.4-172,43-241.9,78.5C857.5,93,857.4,92.7,857.3,92.3"/>
		<path id="パス_20490" class="st7" d="M1017.1,235.1c-1.4-1.8-2.8-3.5-4.3-5.2c4.3-11.6,8.4-23.2,12.2-35
			c10.4-33.7,21.6-68,23.1-103.2c-5.9-10.2,16.9-17.8,11.3,11.8c-6.4,47.1-21.4,92.6-38.1,137.3
			C1019.9,238.9,1018.6,236.9,1017.1,235.1"/>
		<path id="パス_20491" class="st7" d="M912.1,164.5c-2.7-1.5-5.4-2.9-8.2-4.3c0.4-0.9,1-1.7,1.8-2.3c3.4-2.4,6.8-4.8,10.2-7.1
			c27.2-18.6,55.3-35.9,84.9-50.7c14-6.9,28.1-14.6,43.6-17.7c8.8-2.5,12.1,10.2,2.8,11.2c-13.5,2-25.8,9.2-38,14.9
			c-33.2,16.4-64.6,36-94.8,57.1C913.6,165.3,912.9,164.9,912.1,164.5"/>
		<path id="パス_20492" class="st7" d="M1047.3,312.2c0.1-1.2,0.1-2.4,0.2-3.5c0.6,1.8,1.1,3.7,1.6,5.5
			C1048.6,313.5,1048,312.8,1047.3,312.2"/>
		<path id="パス_20493" class="st7" d="M950.5,188.6c-2.8-2.1-5.8-4.2-8.8-6c-0.5-0.3-1-0.6-1.5-0.8c-2.1-1.5-4.3-2.9-6.5-4.3
			c-7-4.6-14.2-8.9-21.6-12.9c-2.8-1.5-5.7-3-8.6-4.5c-0.2-0.2-0.5-0.3-0.7-0.5c-1.4-0.9-2.8-1.7-4.3-2.5l-0.3-0.2
			c-0.3-0.2-0.7-0.4-1-0.6c0.4-1.9,0.7-3.9,1-5.8c0.1-0.7,0.2-1.4,0.4-2.1c11.2,8,22.1,16.2,32.9,24.5c6.9,5.6,13.8,11.3,20.6,17.1
			C951.6,189.5,951,189,950.5,188.6"/>
		<path id="パス_20494" class="st7" d="M75.1,334.6c0.6-0.9,1.1-1.8,1.7-2.7c-7.3-15.1-14.7-30.2-21.4-45.5
			C20.2,204.2-8.1,108,30.3,23.4c1.4-3.4,3.6-6.6,4.5-10.2c-0.2-9.2-11-7.9-12.7-0.1c-51.7,109.2-2.9,226.4,47.4,331.1
			C71.3,341,73.2,337.8,75.1,334.6"/>
		<path id="パス_20495" class="st7" d="M280.7,91.1c0.2-0.6,0.4-1.1,0.5-1.7c0.6-1.9,1.4-3.7,2.3-5.4c0.5-0.9,1.1-1.7,1.8-2.4
			c-3.3-1.7-6.6-3.4-9.8-5c-35.8-18.3-71.4-37.1-108.9-52C126.9,10.6,72.8-8.6,31.4,4.2c-12.1,6.4-3.3,19.4,7.1,9.5
			c76.8-12.4,172,43,241.9,78.4C280.5,91.8,280.6,91.4,280.7,91.1"/>
		<path id="パス_20496" class="st7" d="M120.9,233.8c1.4-1.8,2.8-3.5,4.3-5.2c-4.3-11.6-8.4-23.2-12.2-35
			c-10.4-33.7-21.6-68-23.1-103.2c5.9-10.2-16.9-17.8-11.3,11.8c6.4,47.1,21.4,92.6,38.1,137.3C118.1,237.6,119.4,235.7,120.9,233.8
			"/>
		<path id="パス_20497" class="st7" d="M225.9,163.3c2.7-1.5,5.4-2.9,8.2-4.3c-0.4-0.9-1-1.7-1.8-2.3c-3.4-2.4-6.8-4.8-10.2-7.1
			c-27.2-18.6-55.3-35.9-84.9-50.7c-14-6.9-28.1-14.6-43.6-17.7c-8.8-2.5-12.1,10.2-2.8,11.2c13.5,2,25.8,9.2,38,14.9
			c33.2,16.4,64.6,36,94.8,57.1C224.4,164.1,225.1,163.7,225.9,163.3"/>
		<path id="パス_20498" class="st7" d="M90.7,311c-0.1-1.2-0.1-2.4-0.2-3.5c-0.6,1.8-1.1,3.7-1.6,5.5
			C89.4,312.2,90,311.6,90.7,311"/>
		<path id="パス_20499" class="st7" d="M187.5,187.3c2.8-2.1,5.8-4.2,8.8-6c0.5-0.3,1-0.6,1.5-0.8c2.1-1.5,4.3-2.9,6.5-4.3
			c7-4.6,14.2-8.9,21.6-12.9c2.8-1.5,5.7-3,8.6-4.5c0.2-0.2,0.5-0.3,0.7-0.5c1.4-0.9,2.8-1.7,4.3-2.5l0.3-0.2c0.3-0.2,0.7-0.4,1-0.6
			c-0.4-1.9-0.7-3.9-1-5.8c-0.1-0.7-0.3-1.4-0.4-2.1c-11.2,8-22.1,16.2-32.9,24.5c-6.9,5.6-13.8,11.3-20.6,17.1
			C186.4,188.2,187,187.8,187.5,187.3"/>
		<path id="パス_20500" class="st7" d="M353.1,417.2c-45.4-0.1-68.3-47.4-37.6-81.7c33.9-35.2,93.5-23.2,94.2,30.9
			c1.7,14-5.7,27-15.1,36.8c-10.3,10-24.8,14.1-38.8,14.1C354.8,417.3,354,417.3,353.1,417.2 M333.7,335.3
			c-36.5,23.4-21.9,72.3,22,70.5c10.4,0,21.1-2.4,29.4-9.3c8.6-8.1,15.1-19.3,13.1-31.4c-0.9-24.9-17.6-38-37.2-38
			C351.3,327.1,341.8,330,333.7,335.3"/>
		<path id="パス_20501" class="st7" d="M774.9,418.1c-45.4-0.1-68.3-47.4-37.6-81.7c33.9-35.2,93.5-23.2,94.2,30.9
			c1.7,14-5.7,27-15.1,36.8c-10.3,10-24.8,14.1-38.8,14.1C776.7,418.2,775.8,418.2,774.9,418.1 M755.5,336.2
			c-36.5,23.4-21.9,72.3,22,70.5c10.4,0,21.1-2.4,29.4-9.3c8.6-8.1,15.1-19.3,13.1-31.4c-0.9-24.9-17.6-38-37.2-38
			C773.1,328,763.6,330.9,755.5,336.2"/>
		<path id="パス_20502" class="st7" d="M772.3,392c-32.8-2.5-31.4-53,2.6-52c10,0.3,20.8,6.1,24.8,15.6
			c5.8,13.3,1.1,33.9-15.5,35.6c-1.6,1.3-3.7,2-5.8,1.9C776.2,393,774.2,392.7,772.3,392"/>
		<path id="パス_20503" class="st7" d="M351.4,392c-32.8-2.5-31.4-53,2.6-52c10,0.3,20.8,6.1,24.8,15.6
			c5.8,13.3,1.1,33.9-15.5,35.6c-1.6,1.3-3.7,2-5.8,1.9C355.4,393,353.4,392.7,351.4,392"/>
		<path id="パス_20504" class="st7" d="M244.2,461.5c-60.2,0.4-69.9-52.7-7.1-61.2c15.6-1.5,31.4,0.8,46,6.7
			c17.9,6.5,29.7,28.8,12.4,42.8c-7.2,6.5-28.3,13.1-42.2,13.1C250.1,463.1,247.1,462.6,244.2,461.5 M250,452.9
			c14-1,30.1-2.5,40.9-12.5c9.7-11.4-5.5-23-16-25.8c-16.4-5.3-34.7-6.7-51.3-1.2c-10,3.2-24.4,12.9-17.6,24.8
			c8.2,8.8,21,12.1,32.7,13.1c1.4,0.2,2.8,0.2,4.1,0.1c0.7,0,1.3-0.1,2-0.1C246.6,451.2,248.5,451.8,250,452.9"/>
		<path id="パス_20505" class="st7" d="M878.3,457.6c-60.2,0.4-69.9-52.7-7.1-61.2c15.6-1.5,31.4,0.8,46,6.7
			c17.9,6.5,29.7,28.8,12.4,42.8c-7.2,6.4-28.3,13.1-42.2,13.1C884.3,459.3,881.2,458.7,878.3,457.6 M884.1,449.1
			c14-1,30.1-2.5,40.9-12.5c9.7-11.4-5.5-23-16-25.8c-16.4-5.3-34.7-6.7-51.3-1.2c-10,3.2-24.4,12.9-17.6,24.8
			c8.2,8.9,21,12.1,32.7,13.1c1.4,0.2,2.7,0.2,4.1,0.1c0.7,0,1.3-0.1,2-0.1C880.8,447.3,882.6,447.9,884.1,449.1"/>
	</g>
</g>
</svg>
