<?xml version="1.0" encoding="UTF-8"?><svg id="_レイヤー_9" xmlns="http://www.w3.org/2000/svg" xmlns:xlink="http://www.w3.org/1999/xlink" viewBox="0 0 85.3 136.21"><defs><style>.cls-1,.cls-2,.cls-3,.cls-4{fill:none;}.cls-5{clip-path:url(#clippath);}.cls-6{fill:#88c0dd;}.cls-6,.cls-7,.cls-8,.cls-9,.cls-3{stroke:#040000;stroke-linecap:round;stroke-linejoin:round;stroke-width:.6px;}.cls-7,.cls-10{fill:#fff;}.cls-8,.cls-11{fill:#e9da21;}.cls-9{fill:#025999;}.cls-12{fill:#040000;}.cls-13{fill:#be8c14;}.cls-14{fill:#070002;}.cls-2{stroke-width:.16px;}.cls-2,.cls-4{stroke:#070002;stroke-miterlimit:10;}.cls-15{clip-path:url(#clippath-1);}.cls-4{stroke-width:.19px;}.cls-16{fill:url(#Unnamed_Pattern_8);}</style><clipPath id="clippath"><rect class="cls-1" width="28.8" height="28.8"/></clipPath><pattern id="Unnamed_Pattern_8" x="0" y="0" width="28.8" height="28.8" patternTransform="translate(751.91 1636.26) scale(.96 -.96)" patternUnits="userSpaceOnUse" viewBox="0 0 28.8 28.8"><g><rect class="cls-1" width="28.8" height="28.8"/><g class="cls-5"><path class="cls-10" d="M28.8-2.16C29.99-2.16,30.96-1.19,30.96,0s-.97,2.16-2.16,2.16S26.64,1.19,26.64,0s.97-2.16,2.16-2.16"/><path class="cls-10" d="M14.4-2.16C15.59-2.16,16.56-1.19,16.56,0s-.97,2.16-2.16,2.16S12.24,1.19,12.24,0s.97-2.16,2.16-2.16"/><path class="cls-10" d="M28.8,12.24c1.19,0,2.16,.97,2.16,2.16s-.97,2.16-2.16,2.16-2.16-.97-2.16-2.16,.97-2.16,2.16-2.16"/><path class="cls-10" d="M14.4,12.24c1.19,0,2.16,.97,2.16,2.16s-.97,2.16-2.16,2.16-2.16-.97-2.16-2.16,.97-2.16,2.16-2.16"/><path class="cls-10" d="M7.2,5.04c1.19,0,2.16,.97,2.16,2.16s-.97,2.16-2.16,2.16-2.16-.97-2.16-2.16,.97-2.16,2.16-2.16"/><path class="cls-10" d="M21.6,5.04c1.19,0,2.16,.97,2.16,2.16s-.97,2.16-2.16,2.16-2.16-.97-2.16-2.16,.97-2.16,2.16-2.16"/><path class="cls-10" d="M7.2,19.44c1.19,0,2.16,.97,2.16,2.16s-.97,2.16-2.16,2.16-2.16-.97-2.16-2.16,.97-2.16,2.16-2.16"/><path class="cls-10" d="M21.6,19.44c1.19,0,2.16,.97,2.16,2.16s-.97,2.16-2.16,2.16-2.16-.97-2.16-2.16,.97-2.16,2.16-2.16"/><path class="cls-10" d="M0-2.16C1.19-2.16,2.16-1.19,2.16,0S1.19,2.16,0,2.16-2.16,1.19-2.16,0-1.19-2.16,0-2.16"/><path class="cls-10" d="M0,12.24c1.19,0,2.16,.97,2.16,2.16s-.97,2.16-2.16,2.16-2.16-.97-2.16-2.16,.97-2.16,2.16-2.16"/><path class="cls-10" d="M28.8,26.64c1.19,0,2.16,.97,2.16,2.16s-.97,2.16-2.16,2.16-2.16-.97-2.16-2.16,.97-2.16,2.16-2.16"/><path class="cls-10" d="M14.4,26.64c1.19,0,2.16,.97,2.16,2.16s-.97,2.16-2.16,2.16-2.16-.97-2.16-2.16,.97-2.16,2.16-2.16"/><path class="cls-10" d="M0,26.64c1.19,0,2.16,.97,2.16,2.16s-.97,2.16-2.16,2.16-2.16-.97-2.16-2.16,.97-2.16,2.16-2.16"/></g></g></pattern><clipPath id="clippath-1"><path class="cls-1" d="M14.61,28.65s.85,3.38,2.18,5.09,5.06,5.14,5.06,5.14l1.68,6.34-5.66,7.27-8.7-16.06,.23-8.37,5.21,.6Z"/></clipPath></defs><g><path class="cls-13" d="M60.97,130.35c-.59-1.04-2.25-1.91-4.29-2.45-.82-.25-3.47-.99-3.42-1.41-.19-.76-1.14-1.23-2.3-1.46-2.14-.74-5.27-.8-7.54-.04-.05,.06-.09,.12-.13,.18-.13,.2-.24,.41-.34,.61-.12,.25-.24,.49-.47,.72-.17,.17-.4,.33-.6,.49-.12,.09-.25,.18-.39,.26-.37,.2-.82,.31-1.32,.34-.1,0-.19,0-.29,0-.12,0-.25,0-.37,0-.1,0-.21,0-.31-.01-.04,0-.08,0-.12,0-.04,0-.08,0-.12,0,0,0-.01,0-.01,0-.04,0-.07,0-.11-.01-.04,0-.07,0-.11-.01-.05,0-.09-.01-.14-.02-.02,0-.04,0-.06-.01-.01,0-.03,0-.04,0-.07-.01-.13-.03-.2-.05,0,0,0,0,0,0,0,0-.01,0-.01,0-.05-.02-.11-.03-.16-.05-.02,0-.03-.01-.05-.02-.04-.02-.09-.04-.13-.05-.01,0-.03-.01-.04-.02-.05-.02-.11-.05-.16-.08-.01,0-.02-.01-.03-.02-.04-.02-.08-.04-.11-.07-.1-.06-.19-.13-.26-.2-.01-.01-.03-.03-.04-.04-.13-.14-.22-.29-.32-.44,0-.01-.02-.03-.03-.04-.03-.03-.05-.06-.08-.1h0s-.05-.05-.07-.07h0c-.15-.14-.31-.28-.48-.41-.04-.03-.09-.06-.14-.09-.1-.02-.19-.04-.29-.06,0,0,0,0,0,0-.05-.01-.11-.02-.16-.03-.04,0-.08-.01-.12-.02,0,0-.01,0-.02,0-.15-.03-.3-.05-.45-.08h0s-.02,0-.03,0c0,0,0,0-.01,0-.06,0-.12-.01-.18-.02-.04,0-.07,0-.11-.01-.03,0-.05,0-.08,0,0,0,0,0,0,0-.02,0-.04,0-.05,0-.06,0-.12,0-.18,0-.13,0-.25,0-.38-.01-.01,0-.02,0-.03,0h-.02c-.2,0-.4,0-.6,0h-.04c-.16,0-.32,.01-.48,.02,0,0,0,0-.01,0-.02,0-.04,0-.06,0,0,0,0,0,0,0-.07,0-.14,.02-.21,.02,0,0,0,0,0,0-.12,.02-.24,.05-.36,.08-.09,.02-.17,.05-.26,.07-.21,.06-.41,.12-.61,.18-.13,.05-.26,.1-.39,.15-.03,.01-.07,.02-.1,.04-.06,.02-.11,.04-.16,.06,0,0-.01,0-.02,0-.01,0-.02,0-.03,.01h0c-.17,.06-.33,.12-.49,.19-.01,0-.03,.01-.04,.02-.03,0-.05,.02-.08,.03-.01,0-.03,.01-.04,.02-.02,.01-.05,.02-.07,.04h0s-.1,.05-.15,.08c-.02,.01-.04,.02-.06,.03-.06,.03-.12,.07-.19,.1-.28,.14-.55,.25-.88,.35-.28,.08-.56,.14-.86,.19-.1,.02-.2,.03-.3,.05-.56,.09-1.14,.14-1.71,.15-.17,0-.34,0-.51,0-.07,0-.15,0-.22,0h-.02s-.08,0-.12,0c-.08,0-.15,0-.23,0-.05,0-.1,0-.15,0-.1,0-.2-.02-.3-.02-.46-.04-.91-.13-1.36-.22-.5-.1-.94-.27-1.28-.5-.35,.02-.69,.05-1.01,.1-7.18,.58-11.01,3.15-3.31,4.8,.65,.49,1.76,.85,3.07,1.13,.65,.35,1.22,.73,2.12,.97,.28,.07,.56,.14,.84,.2,.24,.16,.5,.31,.77,.45,2.26,1.14,5.56,1.81,8.9,1.9,.4,.01,.8,.02,1.19,.02,2.96,0,5.89-.35,8.37-1.07,1.4-.37,2.62-.89,4.18-1.11,1.6-.19,3.26-.14,4.91-.1,.87,.02,1.74,.04,2.6,.03,.66-.01,1.35-.08,2.01-.2,.72-.05,1.4-.19,1.95-.42,2.21-.63,3.54-1.81,2.71-3"/><path class="cls-10" d="M30.95,116.51l2.92,.5,2.16-1.35,.51,2.08-2,5.72-3.6,2.46-2.22,2.09-1.93-.04s-1.82-1.41-1.97-1.33c-.16,.07-2.8,.53-2.8,.53l-2.17-1.67-1.53,.08-1.8-.52-.96-1.38-3.68,.26-.95-2.74,2-2.91,4.76,.61,6.78-2.5,2.68,1.7,3.79-1.61Z"/><polygon class="cls-11" points="27.91 18.17 28.29 21.59 27.34 21.54 25.08 21.77 21.78 23.63 19.07 23.98 17.05 24.67 15.06 25.76 9.14 28.31 8.82 30.44 5.59 32.47 5.63 34.08 3.82 34.63 1.55 36.94 .38 41.02 1.63 43.96 1.91 45.02 .81 49.29 2.14 50.91 1.91 53.13 4.46 56.16 5.79 58.2 7.69 61.42 10.34 62.04 11.52 62.04 12.38 62.4 13.49 63.21 15.41 62.9 17.65 62.26 16.8 68.18 19.27 72.86 18.97 75.35 20.23 78.56 20.38 83.24 23.21 85.94 20.12 89.82 20.39 93.02 20.34 96.84 20.81 99.55 19.38 103.43 20.85 107.75 20.5 112.41 23.01 115.67 25.32 117.14 25.48 118.57 27.99 119.67 30.86 117.98 34.03 118.49 36.19 116.53 36.34 114.01 36.04 110.81 37.48 106.77 36.7 104.89 37.47 104.02 39.96 101.71 41.13 98.96 40.99 96.18 42.74 97.33 44.52 97.88 42.35 102.39 43.28 108.73 44 110.1 42.11 113.79 42.86 117.62 42.77 122.3 41.56 124.85 43.28 126.08 45.87 124.43 48.86 125.29 50.94 123.75 50.7 122.1 52.9 119 53.14 117.14 57.18 115.47 58.94 110.57 57.52 103.29 58.98 101.43 59.1 97.23 61.29 94.69 61.02 92.07 62.67 87.62 61.88 82.09 62.43 77.66 65.41 76.05 68.04 73.07 68.83 70.29 70.63 70.83 74.08 68.91 78.28 69.22 81.93 65.54 82.59 60.31 83.34 58.68 84.59 56.52 84.59 52.44 83.59 50.56 81.63 48.02 82.28 45.62 80.57 43.76 78.05 44.6 72.58 31.16 69.2 29.15 65.9 26.8 63.76 23.18 60.1 22.89 58.02 23.75 57.27 21.63 59.59 17.67 58.93 13.97 56.43 11.91 55.7 10.15 52.94 8.64 51.7 4.82 48.32 3.87 45.32 5.07 42.29 4.18 39.72 4.9 36.23 4.01 33.44 5.2 31.8 8.48 31.73 9.83 30.31 11.47 29.3 13.36 29.4 16.8 27.91 18.17"/><polygon class="cls-4" points="27.91 18.17 28.29 21.59 27.34 21.54 25.08 21.77 21.78 23.63 19.07 23.98 17.05 24.67 15.06 25.76 9.14 28.31 8.82 30.44 5.59 32.47 5.63 34.08 3.82 34.63 1.55 36.94 .38 41.02 1.63 43.96 1.91 45.02 .81 49.29 2.14 50.91 1.91 53.13 4.46 56.16 5.79 58.2 7.69 61.42 10.34 62.04 11.52 62.04 12.38 62.4 13.49 63.21 15.41 62.9 17.65 62.26 16.8 68.18 19.27 72.86 18.97 75.35 20.23 78.56 20.38 83.24 23.21 85.94 20.12 89.82 20.39 93.02 20.34 96.84 20.81 99.55 19.38 103.43 20.85 107.75 20.5 112.41 23.01 115.67 25.32 117.14 25.48 118.57 27.99 119.67 30.86 117.98 34.03 118.49 36.19 116.53 36.34 114.01 36.04 110.81 37.48 106.77 36.7 104.89 37.47 104.02 39.96 101.71 41.13 98.96 40.99 96.18 42.74 97.33 44.52 97.88 42.35 102.39 43.28 108.73 44 110.1 42.11 113.79 42.86 117.62 42.77 122.3 41.56 124.85 43.28 126.08 45.87 124.43 48.86 125.29 50.94 123.75 50.7 122.1 52.9 119 53.14 117.14 57.18 115.47 58.94 110.57 57.52 103.29 58.98 101.43 59.1 97.23 61.29 94.69 61.02 92.07 62.67 87.62 61.88 82.09 62.43 77.66 65.41 76.05 68.04 73.07 68.83 70.29 70.63 70.83 74.08 68.91 78.28 69.22 81.93 65.54 82.59 60.31 83.34 58.68 84.59 56.52 84.59 52.44 83.59 50.56 81.63 48.02 82.28 45.62 80.57 43.76 78.05 44.6 72.58 31.16 69.2 29.15 65.9 26.8 63.76 23.18 60.1 22.89 58.02 23.75 57.27 21.63 59.59 17.67 58.93 13.97 56.43 11.91 55.7 10.15 52.94 8.64 51.7 4.82 48.32 3.87 45.32 5.07 42.29 4.18 39.72 4.9 36.23 4.01 33.44 5.2 31.8 8.48 31.73 9.83 30.31 11.47 29.3 13.36 29.4 16.8 27.91 18.17"/><polygon class="cls-16" points="27.91 18.17 28.29 21.59 27.34 21.54 25.08 21.77 21.78 23.63 19.07 23.98 17.05 24.67 15.06 25.76 9.14 28.31 8.82 30.44 5.59 32.47 5.63 34.08 3.82 34.63 1.55 36.94 .38 41.02 1.63 43.96 1.91 45.02 .81 49.29 2.14 50.91 1.91 53.13 4.46 56.16 5.79 58.2 7.69 61.42 10.34 62.04 11.52 62.04 12.38 62.4 13.49 63.21 15.41 62.9 17.65 62.26 16.8 68.18 19.27 72.86 18.97 75.35 20.23 78.56 20.38 83.24 23.21 85.94 20.12 89.82 20.39 93.02 20.34 96.84 20.81 99.55 19.38 103.43 20.85 107.75 20.5 112.41 23.01 115.05 24.71 116.22 24.86 117.65 27.07 119.36 30.86 117.98 34.03 118.8 36.19 116.53 36.34 114.01 36.04 110.81 37.48 106.77 36.7 104.89 37.47 104.02 39.96 101.71 41.13 98.96 40.99 96.18 42.74 97.33 44.52 97.88 42.35 102.39 43.28 108.73 44 110.1 42.11 113.79 42.86 117.62 42.77 122.3 41.56 124.85 43.28 126.08 45.87 124.43 48.86 125.29 50.94 123.75 50.7 122.1 52.9 119 53.14 117.14 57.18 115.47 58.94 110.57 57.52 103.29 58.98 101.43 59.1 97.23 61.29 94.69 61.02 92.07 62.67 87.62 61.88 82.09 62.43 77.66 65.41 76.05 68.04 73.07 68.83 70.29 70.63 70.83 74.08 68.91 78.28 69.22 81.93 65.54 82.59 60.31 83.34 58.68 84.59 56.52 84.59 52.44 83.59 50.56 81.63 48.02 82.28 45.62 80.57 43.76 78.05 44.6 72.58 31.16 69.2 29.15 65.9 26.8 63.76 23.18 60.1 22.89 58.02 23.75 57.27 21.63 59.59 17.67 58.93 13.97 56.43 11.91 55.7 10.15 52.94 8.64 51.7 4.82 48.32 3.87 45.32 5.07 42.29 4.18 39.72 4.9 36.23 4.01 33.44 5.2 31.8 8.48 31.73 9.83 30.31 11.47 29.3 13.36 29.4 16.8 27.91 18.17"/><polygon class="cls-10" points="77.36 45.08 79.25 43.98 79.95 41.69 81.37 41.31 82.81 42.44 84.18 41.86 82.81 38.9 81.17 37.76 81.49 36.13 80.72 35.14 79.39 34.57 79.39 32.78 77.3 32.26 75.81 33.47 75.25 30.55 74.06 29.82 72.9 30.26 72.5 31.45 70.61 35.32 68.02 34.05 66.77 35.14 66.47 36.13 67.16 38.26 67.4 41.03 68.72 43.01 70.67 45.15 71.69 45.62 74.67 43.2 77.36 45.08"/><polygon class="cls-10" points="16.28 30.36 19.16 30.36 20.76 30.12 21.78 28.48 21.47 26.81 19.35 25.39 17.72 23.52 16.08 18.92 15.52 16.63 13.1 15.92 12.02 17.23 11.5 19.72 9.8 17.23 7.8 18.13 7.92 21.97 6 20.71 4.59 22.45 5.04 23.61 5.44 24.83 3.27 26.37 3.34 28.71 3.8 30.03 5.23 29.71 5.67 28.24 8.35 30.19 10.98 31.34 14.17 28.15 15.42 30.06 16.28 30.36"/><polygon class="cls-10" points="43.46 125.98 46.04 124.72 48.86 125.29 50.2 128.89 52.81 129.8 52.81 131.79 48.7 132.69 46.87 132.38 45.27 133.01 43.44 132.69 42.35 130.45 43.46 125.98"/><path class="cls-10" d="M41.41,20.38c0,1.26-1.02,2.29-2.29,2.29s-2.29-1.02-2.29-2.29,1.02-2.29,2.29-2.29,2.29,1.02,2.29,2.29"/><path class="cls-10" d="M50.24,20.38c0,1.26-1.02,2.29-2.29,2.29s-2.29-1.02-2.29-2.29,1.02-2.29,2.29-2.29,2.29,1.02,2.29,2.29"/><path class="cls-12" d="M21.4,30.15c-.09,.06-.17,.11-.26,.17-.01,.01-.03,.02-.04,.03-.15,.03-.3,.06-.45,.09,.25-.11,.5-.21,.76-.3"/><path class="cls-12" d="M15.98,29.32c-.15-1.12,.22-1.66,1.15-2.23,2.11-1.42,2.39,.43,1.45,.63-.53,.13-.97,.48-1.39,.81-.14,.55,0,1.19,.48,1.53,.24-.15,.52-.22,.79-.31,.43-.19,.83-.42,1.38-.47,.15-.04,.33-.04,.5-.03,.27,.01,.53,.02,.72-.16,.29-.49,0-1.4-.01-1.98-.25-.51-.83-.81-1.31-1.09-1.88-.89-2.83-2.22-3.41-4.18-.29-.89-.67-1.75-.93-2.65-.12-.55-.23-1.1-.43-1.64-.13-.88-1.36-.34-1.4-1.23,.12-1.17,2.01-.34,2.31,.36,.42,.8,.51,1.71,.77,2.57,.39,.97,.7,1.95,1.07,2.92,.72,2.51,2.78,2.4,4.22,4.07,.47,.71,.36,1.63,.43,2.44,.03,.38-.09,.75-.3,1.05-.1,.06-.2,.13-.3,.19-.2,.13-.4,.26-.59,.39-.01,0-.03,.02-.04,.03-.08,.02-.16,.03-.24,.05-.35,.03-.71,0-1.05,.07-.33,.06-.61,.26-.92,.37-.26,.09-.53,.14-.76,.31-.16,.09-.31,.13-.47,.13-.85,0-1.64-1.19-1.69-1.96"/><path class="cls-12" d="M11.22,20.03c-.21-.39-.14-.84-.08-1.26,.06-.52,.08-1.04,.21-1.55,.36-1.9,1.72-1.95,3.28-1.37,.66,.16,.54,1.17-.14,1.17-.4-.06-.77-.22-1.16-.31-.99-.2-.85,1.3-.98,1.94-.15,.81-.1,1.35,.85,1.42,.56-.27,.32-1.28,1.06-1.28,1.33,.18,.11,2.19-.66,2.41-.14,.03-.29,.05-.45,.05-.8,0-1.64-.46-1.92-1.21"/><path class="cls-12" d="M7.44,20.45c-.04-.85-.47-1.99,.1-2.73,.4-.3,.79-.61,1.26-.78,.73-.44,1.73-.65,2.2,.28,.37,.67,.75,1.33,1.09,2.02,.09,.23,.25,.42,.26,.68,0,.32-.27,.59-.59,.59-.63-.03-.69-.83-.99-1.25-.22-.53-.58-.99-.82-1.51-.51,.14-1.06,.43-1.5,.77,.01,1.07,.2,2.13,.27,3.21,.44,.36,1.07,.04,1.24-.45,.1-.3-.1-.59,.02-.88,.18-.47,.91-.48,1.09,0,.43,1.12-.4,2.38-1.52,2.65-.08,0-.16,0-.24,0-1.73,0-1.85-1.04-1.87-2.61"/><path class="cls-12" d="M6.41,25.4c-.48,0-.83-.35-1.17-.79-.37-.52-.89-.89-1.27-1.4-.64-1.33,.89-2.32,1.52-3.32,.69-.71,2.48,1.03,3.15,1.43,.54,.53-.24,1.37-.8,.87,.38,.43,.35,1.02,.27,1.56,0,.73-.56,1.27-1.2,1.53-.19,.08-.35,.12-.51,.12h0Zm-1.18-3.26c-.11,.14-.26,.28-.22,.48,.52,.49,.98,1.03,1.45,1.57,.17-.08,.38-.18,.46-.35,.02-.3,.16-.66,0-.93-.37-.37-.07-1.01,.41-1.01,.05,0,.09,0,.14,.02-.41-.34-.87-.61-1.32-.89-.32,.36-.66,.7-.91,1.11"/><path class="cls-12" d="M8.99,30.92c-1.18-.48-2.19-1.3-2.98-2.29-.24,1.09-1.52,2.53-2.59,1.46-.39-.33-.4-.88-.48-1.35-.1-.63-.26-1.25-.24-1.89,0-.58,.02-1.25,.55-1.62,.32-.29,.7-.48,.99-.79,.22-.15,.49-.2,.7-.37,.44-.42,1.17-.24,1.13,.43-.11,.5-.71,.69-1.13,.89-.28,.34-.71,.49-1.01,.81-.15,1.01,.08,2.08,.33,3.04,.43-.24,.54-.74,.68-1.19,.07-.27,.02-.58,.2-.82,.39-.52,1.03-.11,1.45,.15,.17,.13,.24,.32,.34,.49,.2,.26,.44,.46,.63,.72,.3,.26,.65,.48,.95,.75,.47,.29,.99,.49,1.49,.7,.2,.1,.38,.22,.61,.18,.1,0,.2,0,.29-.02-.13,.15-.24,.32-.33,.5,0,.01-.01,.03-.02,.04-.19,.13-.38,.26-.57,.39-.06,.04-.11,.08-.17,.12-.28-.11-.55-.25-.83-.37"/><path class="cls-12" d="M16.55,31.24s-.02-.03-.03-.05c-.08-.11-.18-.22-.29-.31-.03-.03-.06-.06-.09-.09-.11-.08-.23-.14-.36-.17,.03-.32,.07-.63,.11-.95-.21-.85,.83-1.3,1.16-.45-.03,.7-.08,1.4-.13,2.11-.12-.03-.24-.07-.37-.09"/><path class="cls-12" d="M9.62,31.11c-.27-.66,.69-1.12,1.05-.53-.03,.05-.06,.1-.09,.16,0,.01-.01,.03-.02,.04-.19,.13-.38,.26-.57,.39-.2,.14-.39,.28-.58,.43,.07-.16,.14-.33,.2-.49"/><path class="cls-12" d="M9.68,31.01c-.06-.83,2.12-.77,1.96,.07-.1,.61-.77,.4-1.2,.39-.07,.04-.15,.06-.23,.06-.27,0-.53-.22-.53-.52"/><path class="cls-12" d="M69.53,45.72c.22-.15,.54-.13,.74,.04-.35,.04-.68,.21-1,.38,.04-.16,.12-.3,.26-.42"/><path class="cls-12" d="M66.29,34.34s0-.01,.01-.02c.06-.07,.12-.15,.18-.22,.04-.02,.08-.05,.11-.09,.14-.14,.28-.29,.42-.43,.07-.06,.14-.12,.2-.18,.27,.19,.54,.39,.79,.6-.17,.05-.32,.14-.44,.26-.21,.04-.4,.15-.54,.33-.05,.06-.09,.12-.12,.2-.2-.16-.4-.31-.61-.45"/><path class="cls-12" d="M70.85,35.34c-.55-.28-.27-.88-.05-1.3,.39-1.05,.96-2.02,1.38-3.05,.62-2.12,2.45-2.34,4.03-1.01,.46,.51,.12,1.24,.24,1.85,.02,.8,.25,1.72-.28,2.41-.71,.75-2.01,.67-2.69-.09-.38-.47-.51-1.1-.63-1.68-.41,.86-.8,1.72-1.18,2.59-.1,.21-.33,.34-.55,.34-.09,0-.18-.02-.27-.06m3.19-3.27c.11,.51,.11,1.37,.76,1.46,.16,.04,.31,0,.44-.1,.17-.87-.14-1.78,0-2.66-.35-.24-.69-.39-.98-.39-.38,0-.68,.24-.85,.85,.02,0,.03,0,.05,0,.43,0,.68,.43,.59,.83"/><path class="cls-12" d="M76.32,34.68c.06-.8,1.26-.72,1.22,.08-.08,.85,.25,1.25,1.12,1.17,.24-.85,.23-1.75,.49-2.59-1.42-.66-1.29-.01-2.51,.52-.44,.2-1.07-.04-1.03-.59,.02-.33,.31-.59,.63-.57,.41-.2,.77-.5,1.17-.74,.56-.31,1.23-.12,1.78,.1,.61,.15,1.27,.53,1.19,1.25-.01,.48-.21,.93-.27,1.41-.12,.87-.07,2.2-1.15,2.42-.16,.02-.33,.03-.48,.03-1.39,0-2.3-.95-2.15-2.48"/><path class="cls-12" d="M76.75,37.75c-.38,0-.76-.33-.6-.81,.11-.28,.25-.55,.36-.82,0-.2,.09-.4,.27-.52,.27-.18,.67-.11,.85,.17,.32,.53-.15,1.08-.32,1.57-.1,.28-.33,.4-.55,.4h0Zm-.24-1.58s0,.05,0,.07c.01,.05,.03,.11,.06,.16-.04-.08-.06-.16-.07-.25v.02Z"/><path class="cls-12" d="M73.72,36.07c-.62-.63,.35-1.25,.72-1.73,.15-.95,1.46-.59,1.2,.32-.18,.56-.72,.9-1.05,1.36-.11,.14-.28,.2-.45,.2-.15,0-.3-.05-.41-.15"/><path class="cls-12" d="M81.6,39.54s.02,0,.03,0c0,0,0,0,0,0-.01,0-.02,0-.03,0"/><path class="cls-12" d="M81.3,39.51s-.08,0-.11,0h-.07s-.03,0-.04,0c-.12-.03-.23-.07-.35-.09-.11-.02-.21-.03-.32-.04h0s-.02,0-.03-.01c-.16-.07-.34-.08-.51-.07-.85-.56-1.37-1.76-1.21-2.7,.06-.8,1.27-.72,1.22,.08-.07,.39-.01,.75,.24,1.06,.18,.37,.44,.71,.9,.66-.05-.82,.1-1.62,.08-2.46-.48-.36-1.12-.39-1.61-.72-.66-.59,.24-1.63,.86-.93,.97,.29,2.21,.8,1.97,2.03-.03,.6-.1,1.18-.09,1.78,0,.02,0,.05,0,.07-.01,.18-.02,.37-.03,.55,0,.08,0,.15,0,.23-.08,.26-.23,.45-.47,.56-.07,0-.14,.01-.21,.02,0,0-.02,0-.03,0-.07-.01-.13-.02-.21-.02"/><path class="cls-12" d="M78.75,38.28c.17-1.12,1.67-.47,1.13,.48-.11,.24-.31,.43-.41,.67-.18,.12-.32,.3-.39,.51-.09,.04-.17,.06-.26,.06-.51,0-.94-.7-.07-1.72"/><path class="cls-12" d="M80.72,39.42c-.11-.02-.21-.03-.32-.04,0,0-.02,0-.03-.01-.07-.03-.14-.05-.22-.06,.29-.2,.74-.12,.91,.2-.11-.03-.22-.07-.34-.09"/><path class="cls-12" d="M82.21,38.81c-.33-.24-.88-.33-.83-.85,.1-.58,.49-.63,.91-.5-.02,.42-.05,.84-.07,1.26,0,.11,0,.22-.01,.33,0,0,0,0,0,0,0-.09,0-.17,.01-.25"/><path class="cls-12" d="M78.11,44.45s-.05,0-.08-.01c.28-.28,.48-.62,.61-1,.24-.49,.44-.99,.61-1.5,.12-.05,.23-.13,.32-.23,0,0,0,0,0,0,.12,0,.25-.01,.37-.01,.08,0,.15,.01,.23,.02,.03,0,.07,.02,.1,.02,0,0,0,0,.01,0,0,0,0,0,0,0,.02,.03,.04,.07,.06,.1,.04,.07,.08,.13,.14,.18-.17,.57-.35,1.12-.63,1.65-.07,.24-.16,.47-.27,.67-.02,0-.04,.01-.06,.01-.06,.01-.12,.03-.19,.04-.03,0-.06,0-.09,.01-.1,.01-.19,.03-.29,.05-.06,.01-.12,.03-.17,.04-.03,0-.06,.02-.09,.03-.19-.04-.39-.07-.58-.1"/><path class="cls-12" d="M80.52,39.39s.06,0,.1,.01c-.03,0-.06,0-.1-.01"/><path class="cls-12" d="M68.44,36.57c.31-.61,.93-.21,1.37-.01,.36,.1,1.25-.09,.89-.6-.7-.74-1.99-.99-2.38-2-.17-.76,1-1.08,1.21-.33,.64,.56,1.48,.88,2.07,1.5,.9,.98,.22,2.44-1.04,2.62-.12,.04-.28,.05-.45,.05-.81,0-1.99-.4-1.67-1.23"/><path class="cls-12" d="M68.85,44.27c-.62-.49-.86-1.25-1.2-1.94-.49-.98-.79-2.03-.9-3.12-.22-1.06-.66-2.07-.83-3.15-.25-1.49,2.13-4.06,3.45-2.54,.98,.68-.34,1.74-.96,.76-.53,.15-.91,.68-1.21,1.12-.21,.67,.17,1.31,.3,1.98,.52,1.35,.46,2.85,1.13,4.15,.25,.51,.44,1.06,.76,1.54,.47,.56,1.93,1.41,1.08,2.2-.12,.07-.24,.1-.34,.1-.54,0-.81-.85-1.29-1.11"/><path class="cls-12" d="M71.5,45.7h-.02s-.01,0-.01,0h-.01s-.01,0-.01,0h-.01s-.01,0-.01,0h-.01s-.01,0-.01,0h-.01s-.02,0-.02,0h-.01s-.01,0-.01,0h-.01s-.01,0-.01,0h-.01s-.01,0-.01,0h-.02s-.01-.01-.01-.01h-.01s-.01,0-.01,0h-.01s-.01-.01-.01-.01h-.01s-.01,0-.01,0h-.01s-.01,0-.01,0h-.01s-.01-.01-.01-.01h-.02s-.01,0-.01,0h-.02s-.01-.01-.01-.01h-.01s-.01,0-.01,0h-.01s-.01,0-.01,0h-.01s-.01,0-.01,0h-.01s-.01,0-.01,0h-.01s-.01,0-.01,0h-.01s-.01-.01-.01-.01h-.02s-.01,0-.01,0h-.01s-.01,0-.01,0h-.01s-.01,0-.01,0h-.01s-.01,0-.01,0h-.01s-.01,0-.01,0h-.01s-.01,0-.01,0h-.02s-.02,0-.02,0h-.01s-.02,0-.02,0h-.02s-.02,0-.02,0h-.01s-.02,0-.02,0h-.01s-.01,0-.01,0h-.01s-.01,0-.01,0h-.01s-.01,0-.01,0h-.05s-.01,0-.01,0h-.02s-.01,0-.01,0h-.01s-.01,0-.01,0h-.01s0,0,0,0h-.01s0,.01,0,.01h-.01s0,.01,0,.01h-.01s0,.02,0,.02h0s0,.02,0,.02h0s-.01,.03-.01,.03v.02s-.02,.02-.02,.02h0s0-.04-.01-.06c-.34-.52-1.37-1.04-.84-1.74,.4-.45,.93-.09,1.2,.31,.32,.4,.78,.73,.91,1.25,.01,.13,.03,.26,.05,.39h-.01Z"/><path class="cls-12" d="M81.11,41.7c-.21,.19-.44,.29-.64,.49-.42,1.08-1.71,.18-1-.72,.18-.22,.41-.41,.66-.55,.4-.28,.82-.79,1.37-.65,.37,.1,.46,.49,.65,.77,.32,.33,.84,.84,1.33,.57-.31-.75-1.79-2.8-.34-3.09,.81,.04,.51,.99,.88,1.49,.74,1.18,1.23,2.48-.57,2.88-.09,.02-.18,.02-.27,.02-.81,0-1.58-.6-2.06-1.22"/><path class="cls-12" d="M82.42,39.36c-.23-.02-.45-.07-.66-.18-.47-.24-.36-1,.15-1.12,.15-.04,.3-.02,.44,.04,.32,.08,.7,.03,.94,.3,.41,.41,.45,1.16-.24,1.27-.02,0-.05,0-.07,0-.22,0-.45-.12-.55-.32"/><path class="cls-12" d="M69.75,44.44h0s.01-.02,.01-.02h0s.01-.03,.01-.03h.01s.01-.02,.01-.02h0s.01-.02,.01-.02h0s.01-.01,.01-.01h0s.01-.01,.01-.01h.01s0,0,0,0h.01s.01,0,.01,0h0s.01,0,.01,0h.04s.01,0,.01,0h.01s.01,0,.01,0h.01s.01,0,.01,0h.01s.01,0,.01,0h.01s.01,0,.01,0h.02s.01,0,.01,0h.01s.01,0,.01,0h.02s.01,.01,.01,.01h.01s.01,.01,.01,.01h.01s.01,.01,.01,.01h.01s.01,0,.01,0h.01s.01,.01,.01,.01h.01s.01,.01,.01,.01h.01s.01,.01,.01,.01h.01s.01,.01,.01,.01h.01s.01,.01,.01,.01h.01s.01,.01,.01,.01h.01s.01,.01,.01,.01h.01s.01,.01,.01,.01h.01s.01,.01,.01,.01h.01s.01,.01,.01,.01h.01s.01,.01,.01,.01h.01s.02,.01,.02,.01h.01s.01,.01,.01,.01h.01s.01,.01,.01,.01h.01s.01,.01,.01,.01h.01s.01,.01,.01,.01h.01s.01,.01,.01,.01h.01s.01,.01,.01,.01h.01s.01,.01,.01,.01h.01s.01,.01,.01,.01h.01s.01,.01,.01,.01h.01s.01,.01,.01,.01h.01s.01,.01,.01,.01h.01s.01,.01,.01,.01h.01s.01,.01,.01,.01h.01s.01,.01,.01,.01h.01s0,.01,0,.01c.02,.35,.05,.7,.1,1.04-.15-.04-.3-.06-.47-.04-.06,0-.13,.02-.19,.03-.02,0-.04,0-.06,0-.17,0-.33,.03-.5,.09-.07-.47-.13-.93-.17-1.4"/><path class="cls-12" d="M18.19,24.51c-1.1-.88,.81-1.24,1.46-1.28,.34-.08,.7-.04,1.05,0,.47,.06,.94,.11,1.36-.13,1.86-1.76,4.01-2.88,6.41-1.93-.01,.03-.02,.05-.03,.08-.05,.13-.09,.27-.14,.4-.02,.07-.04,.14-.06,.2-.01,.04-.02,.09-.03,.13-.02,.05-.04,.09-.06,.14,0-.01,0-.02,.01-.03-.01,.03-.02,.05-.03,.08-3.47-1.32-4.26,1.66-6.44,2.13-.83,0-1.65-.18-2.47,.03-.28,.03-.56,.21-.83,.21-.06,0-.13-.01-.19-.03"/><path class="cls-12" d="M18.73,47.7c.04-.54,0-1.09-.1-1.63-.92-3.23,4.07-3.11,.59-7.9-.57-.95,.71-1.46,1.18-2.1,.74-.9,1.75-2.29,.6-3.28-.72-.95-1.64-.89-2.51-.82-.69,.05-1.35,.11-1.86-.34-.74-1.35-2.6-2.08-3.91-1.08-.47,.23-.75,.75-1.15,1.04,.03-.04,.06-.08,.07-.13-.02,.05-.05,.09-.08,.13-.12,.09-.25,.16-.4,.19-1.72-.49,1.44-2.55,2.16-2.65,1.57-.39,3.27,.46,4.08,1.82,1.74-.2,3.69-.11,4.69,1.57,1.34,1.84-.59,4-1.96,5.2,2.11,2.73,1.47,4.79-.62,7.2-.08,.81,.88,3.71-.41,3.76-.51-.08-.46-.61-.4-1"/><path class="cls-12" d="M11.58,31.6s0,0,0,0c-.01,.02-.03,.04-.05,.05,.01-.02,.03-.03,.04-.05"/><path class="cls-12" d="M13.06,63.47c-.87-.28-1.37-1.35-2.38-1.03-2.51,.27-4.62-1.51-5.24-3.88-.61-1.73-.43-1.76-2.06-2.62-1.59-1.08-2.39-3.05-1.74-4.9-2.43-1.69-.82-3.96-.24-6.1-1.22-2.07-1.78-3.61-1.14-6.04,.43-2.92,2.33-4.28,4.87-5.36-.61-2.94,5.13-4.79,4.9-3.02-.11,.38-.43,.38-.75,.37-.17,0-.34,0-.48,.04-1.04,.24-2.31,.73-2.61,1.87-.1,.47,.11,1.03-.28,1.41-1.45,1.01-3.44,1.42-4.14,3.27-.62,1.52-1.01,3.32-.5,4.92,.26,1,1.34,1.79,1.12,2.89-.26,1.45-1.79,3.15-.59,4.5,.3,.36,.84,.58,.87,1.11-.46,1.84-.18,3.23,1.49,4.32,.41,.31,1.01,.32,1.3,.79,1.2,2.11,1.4,5.34,4.52,5.39,2.87-.4,2.18,1.1,4.56,1.37,.52-.04,.82,.24,.82,.52,0,.26-.27,.52-.86,.52-.36,0-.84-.1-1.45-.35"/><path class="cls-12" d="M28.74,23.24c-1.74-2.25-2.06-4.79,.17-6.82-.47-3.02-.55-3.73,1.64-6.06,.3-.31,.44-.52,.48-.78h.07s.09,.01,.09,.01h.09s.09,.02,.09,.02h.09s.1,.02,.1,.02h.1s.1,.03,.1,.03h.1s.1,.03,.1,.03l.1,.02h.03c0,.28-.08,.53-.31,.77-1.39,1.77-2.62,2.5-1.94,5.01,.11,.47,.24,.99-.01,1.44-1.82,1.88-1.92,3.25-.45,5.45,.5,.41,.25,1.08-.2,1.08-.13,0-.28-.06-.43-.2"/><path class="cls-12" d="M57.34,23.08c-.06-.64-.64-1.3-.26-1.91,.8-1.14,1.61-2.35,1.91-3.74,.56-2.68-1-3.57-2.74-5.13-.36-.54-.4-1.28-.94-1.71-.56-.64-1.62-.85-2.36-1.31-.01-.02-.03-.03-.05-.05-.02-.02-.05-.04-.07-.06-.03-.02-.05-.04-.08-.06-.05-.04-.1-.08-.15-.12t0,0h0s0,0,0,0h0s0,0,0,0c0,0,0,0,0,0-.03-.02-.05-.04-.08-.06-.02-.05-.04-.09-.06-.14,0,.01,0,.02,.01,.04,0-.02-.02-.04-.03-.07,0,0,0,0,0,0-.02-.06-.04-.12-.06-.18h.03s.17-.08,.17-.08l.17-.07,.18-.07,.18-.07,.15-.05c1.3,.74,2.98,1.21,3.55,2.76,.13,.58,.49,.97,.98,1.29,3.57,2.4,2.49,6.46,.2,9.36,.22,.69,1.02,2.96-.18,3.02-.75-.16-.27-1.07-.48-1.59"/><polyline class="cls-12" points="52.6 9 52.6 9 52.61 9 52.6 9"/><polyline class="cls-12" points="52.59 8.99 52.6 9 52.6 9 52.59 8.99"/><path class="cls-12" d="M52.59,8.99s0,0,0,0h0Z"/><path class="cls-12" d="M56.78,26.18c-.56-.49,.25-1.07,.41-1.57,.23-.56,.71-1.7,1.35-.8,.14,.46-.31,.87-.45,1.3-.24,.38-.51,1.17-.99,1.17-.1,0-.2-.03-.32-.11"/><path class="cls-12" d="M71.85,31.25c-.97-.85-2.26-1.13-3.34-1.78-1.42-1.54-.77-1.29-2.81-2.07-.75-.64-.68-1.81-1.34-2.55-1.11-1.83-3.66-1.99-5.33-.85-.19,.6-1.12,.35-1.01-.26,.15-.6,.83-.85,1.35-1.07,1.26-.54,2.74-.63,3.99-.02,1.36,.6,2.21,1.93,2.68,3.29,.08,.71,.57,.75,1.15,.92,1,.29,1.36,1.36,2.14,1.9,.7,.42,3.88,1.34,3.25,2.4-.1,.13-.26,.2-.42,.2-.11,0-.22-.03-.31-.11"/><path class="cls-12" d="M81.25,48.59c-.67-.47,.22-1.16,.32-1.72,.33-.89,.03-2.09-.87-2.51-.97-.34-2.07,.2-2.87,.75-.29,.75-1.34,.16-.94-.5,.88-.95,2.33-1.47,3.61-1.38,1.92,.27,2.74,2.68,1.93,4.29-.2,.38-.43,1.14-.91,1.14-.08,0-.17-.02-.26-.07"/><path class="cls-12" d="M69.06,62c-1.44-.46-2.37-2.01-2.57-3.45-.14-.95,.29-1.84,.86-2.57-1.21-1.6-.55-3.66,.26-5.28-2.44-3.54,.19-6.73,4.19-5.45,.73-2.24,2.47-2.98,4.59-1.92,.49,.27,.81,.74,1.1,1.19,.48,.22,.32,.99-.22,.98-.56,.01-.72-.66-1.06-1-.67-.64-1.96-.88-2.7-.24-.38,.41-.59,.95-.8,1.46-.07,.32-.31,.61-.66,.6-1.21-.19-2.68-.75-3.71,.22-1.17,.97-.53,2.67,.21,3.71,.35,.73-.39,1.41-.54,2.11-.59,1.61-.33,2.12,.44,3.51-.18,1.21-1.42,1.34-.79,3.21,.31,.78,.84,1.63,1.67,1.91,.6,.16,.41,1.02-.12,1.02-.05,0-.1,0-.15-.02"/><path class="cls-12" d="M70.08,71.1c-.52-.15-1.22-.33-1.48-.85-.13-.42,.38-.83,.76-.58,.31,.2,.64,.36,1,.44,1.46,.32,2.14-1.48,3.43-1.71,4.24,1.34,7.3-.98,8.13-5.2,.41-1.39-.4-3.11,.6-4.29,1.47-1.24,1.78-3.24,1.74-5.07-.14-1.62-1.06-3.02-2.07-4.24-.36-.65-2.14-1.85-.75-2.24,.27,0,.41,.2,.54,.39,.69,.79,1.36,1.59,1.96,2.46,2.17,2.96,1.65,7.21-.85,9.75,.03,2.13-.04,4.29-1.1,6.21-1.43,3.04-5.04,4.4-8.15,3.28-.96,.71-1.91,1.75-3.15,1.75-.2,0-.4-.03-.61-.09"/><path class="cls-12" d="M14.41,63.7c-.5-.34-.05-1.16,.5-.9,.86-.19,1.63-.67,2.42-1.03,.31-.2,.75-.35,.98,.04,.24,.4-.15,.75-.51,.87-.85,.32-1.88,1.13-2.83,1.13-.19,0-.39-.03-.57-.11"/><path class="cls-12" d="M60.85,92.28c-.98-.48,1.66-2.5,1.12-5.56-.08-1.27-.35-2.51-.7-3.73-.21-.62-.18-1.27,.1-1.86,.54-1.24-.17-2.88,.81-3.92,1.88-.78,3.77-1.74,5.04-3.42,.57-.98,.41-2.18,.59-3.27,.01-.54,.74-.84,1.03-.32,.11,.17,.09,.39-.02,.55-.12,1.06-.09,2.15-.5,3.16-1.16,1.98-3.32,3.34-5.47,4.07-.37,.72-.11,1.64-.27,2.43-.39,1.69-.62,1.69-.03,3.46,.47,2.16,.84,4.53-.15,6.59-.33,.51-.63,1.86-1.32,1.86-.08,0-.16-.02-.24-.05"/><path class="cls-12" d="M19.53,78.72c.37-2.08-1.79-2.01-.61-5.77-2.34-2.53-3.44-6.29-2.1-9.56,.29-.59,.33-1.65,1.08-1.79,1.11,.2,.03,1.38-.07,2.01-1.07,2.55-.5,5.45,1.05,7.65,.41,.68,1.32,1.2,1.02,2.11-.96,2.64,.6,2.83,.75,4.85-.05,.24-.1,.48-.15,.71-.24-.01-.49,.03-.72,.12-.14,.05-.27,.12-.4,.2,.05-.18,.1-.35,.16-.53"/><path class="cls-12" d="M42.63,122.69c-.28-.41-.17-.91-.27-1.37-.13-.55-.39-1.12-.4-1.68-.17-1,.7-1.95-.01-2.83-1.4-2.92,.58-4.42,1.63-6.81-2.35-3.51-2.49-8.37,0-11.87-1.55-.14-3.46-.98-3.74-2.68-.04-.31-.03-.69,.27-.86,.44-.27,1.01,.23,.75,.69,.16,1.02,1.33,1.52,2.23,1.74,1.01,.14,2.46,.03,1.48,1.48-2.28,3.12-2.41,7.66-.14,10.82,.81,1.83-1.94,3.39-1.9,5.32,.02,2.37,1.35,1.8,.47,4.57,.01,1.01,.46,1.96,.54,2.96,.24,.39-.12,.77-.48,.77-.16,0-.31-.07-.41-.25"/><path class="cls-12" d="M41.69,125.93c-2.16-1.41,1.71-5.51,2.14-3.6,0,.5-.59,.5-.86,.81-.5,.49-1.42,1.5-.54,2.05,1.41,.7,2.38-.82,3.55-1.18,1.05,.17,2.05,1.15,3.15,.56,1.61-.81,1.37-1.5,.86-2.14,.05-.03,.1-.06,.15-.1,.14-.11,.26-.26,.38-.38,.06-.06,.12-.12,.17-.18,.02,0,.04,0,.07,.01,.03,0,.05,0,.08,.01,1.93,2.75-2.01,5.16-4.82,3.27-.77,.7-1.87,1.32-2.93,1.32-.49,0-.98-.13-1.42-.46"/><path class="cls-12" d="M58.89,97.57s-.05,0-.08,0c0-.02-.02-.04-.03-.05-.11-.21-.21-.42-.33-.63-.04-.07-.08-.15-.12-.22,.76-.45,1.8-1,2.18-1.98,.75-1.27-.2-2.59,.5-2.84,.82-.25,.87,.92,.87,1.47,0,1.9-1.37,3.41-2.97,4.26,0,0,0,0,0,0-.01,0-.02,0-.03,0"/><path class="cls-12" d="M40.2,101.6s.05,0,.07,0c-.01,.04-.03,.07-.04,.11-.01-.04-.02-.08-.03-.11"/><path class="cls-12" d="M41.21,97.56c-.06-.09-.15-.17-.27-.21-.02,0-.05-.02-.07-.02-.04-.04-.08-.08-.12-.12-.01-.02-.03-.03-.04-.05-.07-.1-.13-.22-.22-.31-.03-.03-.07-.05-.1-.07,.12-.63-.36-1.76,.51-1.89,.87,.12,.44,1.35,.51,1.96-.02,.26-.05,.51-.09,.76-.03-.02-.07-.04-.1-.06"/><path class="cls-12" d="M42.43,132.38c-.86-1.9-.34-3.64,.1-5.55,.14-.45,.05-1.11,.52-1.36,.33-.15,.74,.11,.73,.47,0,.17-.11,.3-.12,.46-.2,1.32-.71,2.61-.69,3.94,.06,.56,.21,1.11,.41,1.64,.17,.4-.18,.71-.51,.71-.18,0-.35-.09-.44-.31"/><path class="cls-12" d="M45.17,133.62c-.38-.06-.68-.34-.97-.58-.73,.6-2.52-.81-1.5-1.45,.54-.23,.61,.4,.99,.55,.62-.48,1.13,.1,1.62,.45,.56-.32,1.09-1.1,1.83-.78,.47,.2,.97,.64,1.5,.54,.42-.21,.7-.67,1.19-.73,1.13,.08,2.85,.64,2.76-1.12-.27-1.03-1.69-.68-2.47-.99-.69-.42-.76-1.38-1.03-2.08-.13-.69-.68-1.51-.36-2.18,.33-.43,1.01-.11,.93,.42,.27,.98,.52,1.98,.94,2.9,1.7,.1,3.55,.7,2.91,2.79-.32,1.61-2.27,1.58-3.55,1.29-1.05,1.07-1.99,.85-3.18,.14-.47,.31-.89,.85-1.49,.85-.04,0-.09,0-.13,0"/><path class="cls-12" d="M25.3,116.9c-2.26-1.06-4.59-2.79-5.3-5.28-.35-1.48,.17-2.94,.34-4.38-.84-1.45-1.56-3.05-1.45-4.78-.03-.59,.24-1.16,.43-1.73l.25-.14,.27-.15,.26-.14,.26-.14,.17-.09c-.08,.37-.28,1.03-.61,2.65-.09,1.63,.88,2.96,1.45,4.39,.09,.82-.32,1.59-.38,2.41-.61,3.08,2.27,5.31,4.76,6.47,.51,.24,.26,.95-.19,.99-.01,0-.02,0-.03,0-.07,0-.15-.02-.23-.06"/><path class="cls-12" d="M35.62,116.02c-.67-.42,.12-1.23,.06-1.83,.26-1.21-.36-2.3-.53-3.46,.41-1.4,2.07-2.42,1.68-4.08-.01-.65-.55-1.18-.69-1.77,.06-.02,.12-.06,.16-.1,0,0,0,0,0-.01,0,0,0,0,.01,0,.2,.07,.4,.13,.6,.19,.12,.04,.25,.08,.37,.12,.04,.02,.09,.03,.13,.05,1.01,1.97,.22,3.96-1.21,5.6,.07,.84,.59,1.69,.54,2.59-.05,.68,0,2.66-.89,2.73-.01,0-.03,0-.05,0-.06,0-.13,0-.2-.03"/><path class="cls-12" d="M24.35,117.57c-.1-.43-.23-1.16,.37-1.26,.37-.06,.7,.35,.58,.7,.13,2.45,3.14,1.82,4.43,.66,.82-.51,1.45-.18,2.09,.15,.86,.44,1.74,.88,3.11-.69,.5-.43,.78-2.2,1.59-1.12-.01,1.43-1.48,2.66-2.74,3.14-1.09,.38-2.11-.19-3.05-.69-.35-.16-.6,.26-.89,.4-.86,.54-1.87,.9-2.89,.89-.01,0-.02,0-.04,0-.04,0-.09,0-.13,0-1.2-.09-2.23-.97-2.43-2.18"/><path class="cls-12" d="M33.88,124.15c.07-.31,.05-.64-.06-.93,.42-.21,.62-.63,.74-1.3,.5-1.37,1.63-2.56,1.61-4.09-.04-.73-.3-1.43-.56-2.1-.34-.55,.5-1.1,.87-.56,1.41,2.69,.47,4.5-.88,6.91-.24,1.35-.83,1.98-1.75,2.22,.01-.05,.02-.1,.03-.15"/><path class="cls-12" d="M13.12,124.68c-4.03-.75-2.68-6.09,.61-6.89,1.29-.32,2.57,.23,3.78,.61,2.45-.25,4.65-1.56,6.89-2.5,1.32-.57,1.92,.58,.93,.88-.88,.03-1.64,.6-2.43,.94-1.35,.68-2.8,1.14-4.26,1.53-.84,.36-1.64,.09-2.46-.18-.67-.22-1.34-.45-2.04-.32-2.36,.3-3.78,4.56-.74,4.91,.55-.02,1.06-.22,1.56-.42,.21-.08,.45,0,.59,.18v.04c0,.16,0,.32,.03,.48-.26,.48-1.24,.66-1.94,.72-.16,.01-.3,.02-.42,.02-.04,0-.07,0-.11,0"/><path class="cls-12" d="M15.58,123.04c-.02,.14-.03,.28-.03,.43,0,.34,.04,.69,.12,1.03-.18-.46-.2-.96-.09-1.45"/><path class="cls-12" d="M15.03,122.78c.08-2.48,2.93-3.3,4.81-2.09,.64,.42,.07,1.37-.56,.9-.39-.37-1.02-.36-1.53-.41-2.57,.14-1.85,3.56,.22,3.99,.46,.12,.92-.1,1.32-.29,.59-.31,1.07,.62,.47,.92-.43,.22-.9,.4-1.39,.44-.01,0-.03,0-.04,0-1.78-.03-3.29-1.7-3.29-3.46"/><path class="cls-12" d="M22.8,127.63c-5.21-.22-3.56-6.79,.47-5.27,.25,.13,.36,.43,.24,.69-.25,.52-.76,.17-1.16,.08-1.25-.09-2.3,1.39-1.6,2.49,.62,.92,1.94,1.15,2.95,.86,.57-.06,1.2-.93,1.69-.33,.5,.87-1.42,1.4-2.32,1.47-.06,0-.12,0-.18,0-.04,0-.08,0-.11,0"/><path class="cls-12" d="M27.28,128.73c-2.31-.14-3.7-2.68-2.26-4.61,.31-.45,.79-.78,1.32-.91,.58-.12,1.97-.18,1.8,.74-.21,.4-.56,.34-.95,.29-.58-.08-1.26-.16-1.68,1.28-.3,.94,.53,1.83,1.38,2.1,1.36,.33,2.75-.63,3.54-1.68,.45-.88,1.4-1.14,2.12-1.72,.52-.38,2.49-2.26,2.65-.84-.05,.47-.57,.63-.93,.81-.84,.61-1.6,1.31-2.54,1.76-.95,1.36-2.34,2.64-4.05,2.77-.09,0-.19,0-.28,0-.04,0-.07,0-.1,0"/><path class="cls-12" d="M19.68,101.86c-1.06-.38,.05-2.11,.52-2.64-.61-2.33-.46-4.67,.38-6.7,.01,.04,.03,.07,.05,.1,.07,.14,.16,.26,.27,.38,0,.08,.02,.16,.04,.23,.05,.23,.14,.46,.27,.65-.44,1.58-.46,3.31-.03,5,.38,.68-.39,1.1-.64,1.66-.34,.41-.08,1.35-.79,1.32-.02,0-.04,0-.06,0"/><path class="cls-12" d="M36.95,106.28c-.56-1.02-1.46-1.91,.16-2.4,1.92-1.5,3.61-3.63,3.44-6.18-.04-.5-.31-1.4,.49-1.36,.69,.13,.49,1.28,.55,1.81-.06,2.81-1.96,5.29-4.24,6.78,.15,.29,.33,.55,.49,.83,.24,.4-.12,.77-.48,.77-.16,0-.31-.07-.41-.25"/><path class="cls-12" d="M50.35,122.68c-1.46-.9,1.95-2.26,1.87-3.43,.21-.84-.06-1.73,.45-2.45,1.13-.8,2.84-.49,3.91-1.51,2.22-2.26,1.72-5.76,1.22-8.61-.15-.74-.33-1.47-.56-2.19-.32-.81-.49-1.76,.29-2.36,1.29-1.28,1.75-3.19,.9-4.83-.12-.83,1.3-.8,1.1,.04,.64,1.29,.45,2.88-.24,4.11-.22,.39-.47,.75-.76,1.1-.2,.32-.6,.47-.53,.84,1.61,5.27,2.97,13.33-4.56,14.09-.15,1.85-.18,3-1.79,4.2-.46,.25-.66,1.01-1.2,1.01-.03,0-.07,0-.1,0"/><path class="cls-12" d="M20.5,93.78c-2.88-2.77,.41-6.68,2.79-8.53,.52-.41,1.17,.41,.63,.82-.21,.16-.41,.32-.61,.49-1.58,1.53-4.11,4.19-2.23,6.37,.75,.23,.39,1.05-.14,1.05-.14,0-.29-.06-.44-.2"/><path class="cls-12" d="M22.97,86.44c-2.41-1.5-4.11-4.47-3.31-7.32,.1-.44,.18-1.12,.75-1.12,.84,.15,.4,.75,.28,1.23-.72,2.42,.67,4.93,2.7,6.25,.59,.23,.34,1.04-.15,1.04-.08,0-.18-.02-.27-.08"/><path class="cls-12" d="M31.77,10.5h-.1s-.09-.02-.09-.02h-.09s-.09-.02-.09-.02h-.09s-.07-.01-.07-.01c.02-.18,0-.38-.07-.67-.04-.82,.1-1.64,.36-2.41,1.17-3.97,4.71-4.72,8.08-2.77,.76-.56,1.67-1.03,2.63-1.02,1.04,0,1.91,.64,2.82,1.03,.38,.21,.31,.85-.12,.94-.33,.11-.61-.12-.88-.28-.67-.36-1.42-.76-2.21-.63-.91,.08-1.57,1.05-2.35,1.01-1.58-.78-3.6-1.59-5.26-.56-1.26,.96-1.88,2.61-2.03,4.14-.02,.24,0,.49,.04,.73,0,0,0,.02,0,.02,0,0,0,0,0,0,0,.01-.02,.02-.03,.03-.06,.07-.12,.14-.18,.22-.06,.07-.11,.14-.17,.21,0,.01-.02,.02-.03,.03-.01,.01-.02,.02-.03,.03h-.03Z"/><path class="cls-12" d="M52.91,9.24s-.05-.04-.07-.06c-.03-.02-.05-.04-.08-.06-.05-.04-.1-.08-.15-.12,0,0,0,0,0,0,0,0,0,0,0,0h0s0,0,0,0c0,0,0,0,0,0,0,0,0,0,0,0l-.08-.06s-.04-.09-.06-.14c0,.01,0,.02,.01,.04,0-.02-.02-.04-.02-.07h0c-.02-.07-.04-.14-.07-.2-.03-.55-.11-1.1-.29-1.62-.55-2.47-4.03-3.27-5.89-1.79-.54,1.22-2.07-.39,.15-1.32,1.62-.77,3.64-.5,5.14,.43,1.51,1.1,1.91,3.08,1.95,4.82,.02,0,.03,.02,.05,.03l-.15,.05-.18,.07-.18,.07h0s-.04-.04-.06-.06"/><polyline class="cls-12" points="52.6 9 52.6 9 52.61 9 52.6 9"/><polyline class="cls-12" points="52.59 8.99 52.6 9 52.6 9 52.59 8.99"/><polyline class="cls-12" points="52.59 8.99 52.59 8.99 52.59 8.99"/><path class="cls-12" d="M52.06,6.88s.01,.04,.02,.06h0s-.01-.04-.02-.06"/><path class="cls-12" d="M45,5.91c-.32-.15-.56-.41-.87-.58-.13-.12-.32-.15-.43-.3-.34-.43,.18-1.02,.66-.79,.29,.17,.56,.38,.84,.57,.18-.27,.58-.32,.81-.09,.24,.23,.17,.6-.07,.8-.21,.31-.56,.57-.94,.39"/><path class="cls-12" d="M32.51,51.04c-5.13-.43-5.97-6.01-4.26-9.98-3.77-1.09-4.96-5.4-1.27-7.52,1.54-.76,2.17,.55,1.15,.57-.31-.11-.65,.02-.93,.16-2.26,1.41-2.27,4.12,.05,5.49,.57,.61,2.31,.37,1.73,1.51-.95,2.17-1.08,4.89,.02,7.03,3,3.96,8.86,1.42,10.6-2.48,.46-.84,1.05,0,1.11,.6,.75,3.39,2.71,2.5,4.75,.77,1.03-.08,1.44,1.28,2.24,1.74,1.15,.77,2.69,.72,4,.45,2.29-.59,3.47-2.87,4.17-4.93,.42-.49,1.21-.21,1.77-.4,1.3-.27,2.41-1.12,3.23-2.14,1.37-1.48,1.04-3.12,.34-4.81,.07-.95,2.17-1.35,.97-3.14-.42-.37,.21-.98,.55-.54,1.04,1.18,.49,2.87-.73,3.69,.37,.97,.76,2.05,.57,3.1-.69,2.67-3.33,4.76-6.09,4.73-.76,2.78-3.01,5.5-6.12,5.38-2.17,.14-3.36-.79-4.7-2.35-2.25,2.21-4.93,2.22-5.66-1.25-1.4,2.4-4.08,4.35-6.92,4.35-.19,0-.37,0-.56-.03"/><path class="cls-12" d="M39.87,27.89c-.6-.18-.97-.75-1.12-1.33-1.23,.37-2.8,1.19-3.99,.36-1.02-1.06-.02-2.9,1.18-3.35,.51-.14,.77,.11,.81,.37,.04,.27-.16,.53-.58,.35-.84,.27-1.73,2.23-.32,2.21,2.99-.22,3.14-1.87,3.81,.27,.43,.8,1.33,.2,1.84-.19,.32-.28,.69-.72,1.15-.43,.56,.41,1.21,.68,1.91,.57,.93-.11,1.39-1.04,2.05-1.53,.22-.02,.43,.02,.65,.07,.3,.06,.61,.13,.91,0,.69-.21,1.34-.57,1.78-1.14,.24-.08,.47-.05,.7-.02,.38,.06,.76,.11,1.22-.39,.36-.24,.34-.98,.88-.84,.74,.44-.38,1.46-.81,1.76-.48,.28-1.09,.35-1.63,.21-.85,.89-2.24,1.51-3.46,1.11-1.01,1.52-3.05,2.08-4.53,.89-.56,.5-1.27,1.08-2.05,1.08-.13,0-.27-.02-.41-.06"/><path class="cls-12" d="M39.18,23.11c-2.15-.06-3.38-1.76-2.48-3.77,1.01-2.24,4.46-2.29,5.15,.16,.29,1.1-.03,2.36-.94,3.07-.36,.3-.88,.6-1.37,.6-.12,0-.25-.02-.37-.06m.36-.71c2.33-.46,2.21-4.15-.39-3.99-1.46,.06-2.5,1.9-1.71,3.16,.39,.54,1.1,.71,1.73,.77,.03,0,.06,0,.09,0h.06c.08,0,.16,0,.22,.06"/><path class="cls-12" d="M38.77,21.66c-.82-.38-.99-1.75-.22-2.25,.24-.13,.52-.16,.79-.2,.73,.04,1.31,.77,1.17,1.49-.07,.5-.47,1.06-1.03,1.01-.08,.04-.17,.06-.27,.06-.16,0-.32-.05-.45-.11"/><path class="cls-12" d="M47.96,23.11c-2.15-.06-3.38-1.76-2.48-3.77,1.01-2.24,4.46-2.29,5.15,.16,.29,1.1-.03,2.36-.94,3.07-.36,.3-.88,.6-1.37,.6-.12,0-.25-.02-.37-.06m.36-.71c2.33-.46,2.21-4.15-.39-3.99-1.46,.06-2.5,1.9-1.72,3.16,.39,.54,1.1,.71,1.73,.77,.03,0,.06,0,.09,0h.06c.08,0,.16,0,.22,.06"/><path class="cls-12" d="M47.54,21.66c-.82-.38-.99-1.75-.22-2.25,.24-.13,.52-.16,.79-.2,.73,.04,1.31,.77,1.17,1.49-.07,.5-.47,1.06-1.03,1.01-.08,.04-.17,.06-.27,.06-.16,0-.32-.05-.45-.11"/><path class="cls-10" d="M45.16,14.74c-.09-.56,.92-.9,2.27-.78,1.35,.13,2.51,.68,2.6,1.24,.09,.56-.92,.9-2.27,.78-1.34-.13-2.51-.68-2.6-1.24"/><path class="cls-14" d="M47.87,13.78c-.35-.06-.73-.21-1.05-.18-.65-.07-1.41-.16-1.81,.25-.34,.32-.29,.91,.19,1.31,1.04,.91,2.51,1.23,3.76,1.25,1.31,.07,2.19-.89,.79-1.88-.57-.38-1.23-.6-1.88-.74m-.47,1.72c-.47-.07-2.43-.84-1.5-1.19,.35-.08,.76,.04,1.12,.01,.63,.14,1.29,.24,1.9,.53,1.87,.93-.81,.91-1.53,.65"/><path class="cls-2" d="M47.87,13.78c-.35-.06-.73-.21-1.05-.18-.65-.07-1.41-.16-1.81,.25-.34,.32-.29,.91,.19,1.31,1.04,.91,2.51,1.23,3.76,1.25,1.31,.07,2.19-.89,.79-1.88-.57-.38-1.23-.6-1.88-.74Zm-.47,1.72c-.47-.07-2.43-.84-1.5-1.19,.35-.08,.76,.04,1.12,.01,.63,.14,1.29,.24,1.9,.53,1.87,.93-.81,.91-1.53,.65Z"/><path class="cls-10" d="M36.82,15.89c-.34-.45,.41-1.23,1.66-1.73,1.25-.5,2.54-.54,2.88-.09,.34,.45-.41,1.23-1.66,1.73-1.25,.5-2.54,.54-2.88,.09"/><path class="cls-14" d="M38.79,13.8c-.34,.11-.74,.15-1.02,.32-.61,.23-1.32,.51-1.49,1.05-.16,.45,.16,.94,.77,1.08,1.34,.34,2.8-.05,3.91-.61,1.19-.54,1.54-1.8-.16-2.03-.68-.07-1.37,.03-2.01,.2m.37,1.74c-.45,.15-2.54,.36-1.87-.38,.27-.23,.69-.31,1-.5,.62-.17,1.25-.38,1.93-.4,2.09-.03-.31,1.18-1.06,1.28"/><path class="cls-2" d="M38.79,13.8c-.34,.11-.74,.15-1.02,.32-.61,.23-1.32,.51-1.49,1.05-.16,.45,.16,.94,.77,1.08,1.34,.33,2.8-.05,3.91-.61,1.19-.54,1.54-1.8-.16-2.03-.68-.07-1.37,.03-2.01,.2Zm.37,1.74c-.45,.15-2.54,.36-1.88-.37,.27-.23,.69-.31,1-.5,.62-.17,1.25-.38,1.93-.4,2.09-.03-.31,1.18-1.06,1.28Z"/></g><g><path class="cls-6" d="M23.21,13.77s-2.9-4.39-1.74-12.12c.21-1.43,1.31-1.42,2.13-1.29,.74,.12,4.13,.8,8.38,3.26l1.12,10.98-9.89-.82Z"/><path class="cls-6" d="M65.71,13.77s2.9-4.39,1.74-12.12c-.21-1.43-1.31-1.42-2.13-1.29-.74,.12-4.13,.8-8.38,3.26l-6.34,5.37,10.26,6.24,4.85-1.45Z"/><path class="cls-9" d="M30.34,6.85c-2.55-2.41-4.83-3.03-5.18-3.09-.39-.06-.93-.17-.97,.52-.19,3.13,1.5,5.87,1.5,5.87l4.18,2.16,.48-5.47Z"/><path class="cls-9" d="M63.24,10.15s1.69-2.74,1.5-5.87c-.04-.69-.58-.58-.97-.52-.36,.06-2.64,.68-5.18,3.09v5.09l4.66-1.79Z"/><path class="cls-6" d="M67.39,22.33c0,9.27-10.28,15.18-22.96,15.18s-22.96-5.9-22.96-15.18S31.76,3.93,44.44,3.93s22.96,9.13,22.96,18.4Z"/><circle class="cls-7" cx="35.58" cy="13.53" r="2.02"/><circle class="cls-12" cx="35.58" cy="13.45" r="1.14"/><circle class="cls-7" cx="53.28" cy="13.53" r="2.02"/><circle class="cls-12" cx="53.28" cy="13.45" r="1.14"/><path class="cls-8" d="M46.75,17.11c.05-1.11-.44-1.93-.44-1.93,.65-.48,1.13-1.21,1.13-1.21-.42-.31-1.96-.41-1.96-.41-.55-1.12-1.03-1.62-1.03-1.62-.65,.62-1.09,1.62-1.09,1.62,0,0-1.54,.1-1.96,.41,0,0,.47,.73,1.13,1.21,0,0-.49,.82-.44,1.93,0,0,1.37-.14,2.29-.88,.81,.6,1.74,.86,2.39,.88Z"/><ellipse class="cls-7" cx="31.05" cy="16.21" rx="2.05" ry=".98"/><ellipse class="cls-7" cx="57.67" cy="16.21" rx="2.05" ry=".98"/><path class="cls-3" d="M37.6,17.1s.15,3.33,2.81,3.33,3.73-2.27,3.95-4.13"/><path class="cls-3" d="M51.15,17.1s-.15,3.33-2.81,3.33-3.73-2.27-3.95-4.13"/><path class="cls-3" d="M48.63,37.25s-4.34,.99-8.36,.01"/><path class="cls-7" d="M57.9,7.54c.69,.89,.25,1.58-.15,1.86-3.44,2.37-10.5-.41-12.32-3.89-.13-.24-.2-1.08,.64-1.41l6.62,3.09,5.2,.34"/><path class="cls-7" d="M30.97,7.54l3.64-1.58,8.18-1.85c.84,.32,.77,1.16,.64,1.41-1.87,3.57-8.82,6.29-12.32,3.89-.4-.28-.84-.97-.15-1.86"/><path class="cls-8" d="M43.5,4.81s.96-.38,1.98,0l1.06,.07-.54-.95c-1.59-.38-3.1,0-3.1,0l-.85,.91,1.46-.03Z"/><path class="cls-9" d="M42.04,2.79s.49,.76,.87,1.55c.11,.23,.11,.49-.01,.71-1.48,2.83-8.44,5.68-11.41,3.63-.37-.26-.57-.7-.52-1.14,.26-2.1,1-3.88,1-3.88l5.01-.87h5.06Z"/><path class="cls-9" d="M56.91,3.67s.74,1.78,1,3.88c.06,.45-.15,.89-.52,1.14-2.97,2.05-9.93-.8-11.41-3.63-.12-.22-.12-.49-.01-.71,.38-.78,.87-1.55,.87-1.55h4.07s6,.87,6,.87Z"/><ellipse class="cls-7" cx="37" cy="3.35" rx="5.05" ry="1.95" transform="translate(-.15 3.47) rotate(-5.36)"/><ellipse class="cls-7" cx="51.88" cy="3.35" rx="1.95" ry="5.05" transform="translate(43.7 54.69) rotate(-84.64)"/><path class="cls-8" d="M58.29,8.66s3.9,1.28,7.37,7.02c0,0,.39-.91-.37-2.39-2.01-3.9-5.64-6.01-7.5-6.6l.51,1.97Z"/><path class="cls-8" d="M30.56,8.66s-3.9,1.28-7.37,7.02c0,0-.39-.91,.37-2.39,2.01-3.9,5.64-6.01,7.5-6.6l-.51,1.97Z"/><ellipse class="cls-9" cx="37.01" cy="3.33" rx="3.88" ry="1.21" transform="translate(-.15 3.47) rotate(-5.36)"/><ellipse class="cls-9" cx="51.86" cy="3.33" rx="1.21" ry="3.88" transform="translate(43.71 54.65) rotate(-84.64)"/></g><g><polygon class="cls-10" points="77.63 45.06 79.53 43.95 80.23 41.67 81.64 41.28 83.08 42.42 84.45 41.84 83.08 38.88 81.44 37.74 81.77 36.1 80.99 35.11 79.67 34.55 79.67 32.76 77.57 32.23 76.08 33.45 75.53 30.52 74.33 29.8 73.17 30.23 72.78 31.43 70.88 35.3 68.29 34.02 67.04 35.11 66.75 36.1 67.43 38.24 67.67 41.01 69 42.98 70.94 45.13 71.97 45.6 74.94 43.18 77.63 45.06"/><polygon class="cls-10" points="16.55 30.34 19.44 30.34 21.04 30.09 22.06 28.46 21.74 26.79 19.62 25.37 17.99 23.49 16.36 18.9 15.79 16.61 13.37 15.9 12.29 17.21 11.77 19.69 10.07 17.21 8.08 18.11 8.19 21.95 6.27 20.69 4.87 22.42 5.32 23.59 5.72 24.81 3.54 26.34 3.61 28.69 4.07 30.01 5.5 29.68 5.94 28.22 8.63 30.16 11.25 31.31 14.44 28.12 15.69 30.03 16.55 30.34"/><path class="cls-12" d="M21.67,30.12c-.09,.06-.17,.11-.26,.17-.01,.01-.03,.02-.04,.03-.15,.03-.3,.06-.45,.09,.25-.11,.5-.21,.76-.3"/><path class="cls-12" d="M16.25,29.29c-.15-1.12,.22-1.66,1.15-2.23,2.11-1.42,2.39,.43,1.45,.63-.53,.13-.97,.48-1.39,.81-.14,.55,0,1.19,.48,1.53,.24-.15,.52-.22,.79-.31,.43-.19,.83-.42,1.38-.47,.15-.04,.33-.04,.5-.03,.27,.01,.53,.02,.72-.16,.29-.49,0-1.4-.01-1.98-.25-.51-.83-.81-1.31-1.09-1.88-.89-2.83-2.22-3.41-4.18-.29-.89-.67-1.75-.93-2.65-.12-.55-.23-1.1-.43-1.64-.13-.88-1.36-.34-1.4-1.23,.12-1.17,2.01-.34,2.31,.36,.42,.8,.51,1.71,.77,2.57,.39,.97,.7,1.95,1.07,2.92,.72,2.51,2.78,2.4,4.22,4.07,.47,.71,.36,1.63,.43,2.44,.03,.38-.09,.75-.3,1.05-.1,.06-.2,.13-.3,.19-.2,.13-.4,.26-.59,.39-.01,0-.03,.02-.04,.03-.08,.02-.16,.03-.24,.05-.35,.03-.71,0-1.05,.07-.33,.06-.61,.26-.92,.37-.26,.09-.53,.14-.76,.31-.16,.09-.31,.13-.47,.13-.85,0-1.64-1.19-1.69-1.96"/><path class="cls-12" d="M11.49,20c-.21-.39-.14-.84-.08-1.26,.06-.52,.08-1.04,.21-1.55,.36-1.9,1.72-1.95,3.28-1.37,.66,.16,.54,1.17-.14,1.17-.4-.06-.77-.22-1.16-.31-.99-.2-.85,1.3-.98,1.94-.15,.81-.1,1.35,.85,1.42,.56-.27,.32-1.28,1.06-1.28,1.33,.18,.11,2.19-.66,2.41-.14,.03-.29,.05-.45,.05-.8,0-1.64-.46-1.92-1.21"/><path class="cls-12" d="M7.71,20.43c-.04-.85-.47-1.99,.1-2.73,.4-.3,.79-.61,1.26-.78,.73-.44,1.73-.65,2.2,.28,.37,.67,.75,1.33,1.09,2.02,.09,.23,.25,.42,.26,.68,0,.32-.27,.59-.59,.59-.63-.03-.69-.83-.99-1.25-.22-.53-.58-.99-.82-1.51-.51,.14-1.06,.43-1.5,.77,.01,1.07,.2,2.13,.27,3.21,.44,.36,1.07,.04,1.24-.45,.1-.3-.1-.59,.02-.88,.18-.47,.91-.48,1.09,0,.43,1.12-.4,2.38-1.52,2.65-.08,0-.16,0-.24,0-1.73,0-1.85-1.04-1.87-2.61"/><path class="cls-12" d="M6.68,25.38c-.48,0-.83-.35-1.17-.79-.37-.52-.89-.89-1.27-1.4-.64-1.33,.89-2.32,1.52-3.32,.69-.71,2.48,1.03,3.15,1.43,.54,.53-.24,1.37-.8,.87,.38,.43,.35,1.02,.27,1.56,0,.73-.56,1.27-1.2,1.53-.19,.08-.35,.12-.51,.12h0Zm-1.18-3.26c-.11,.14-.26,.28-.22,.48,.52,.49,.98,1.03,1.45,1.57,.17-.08,.38-.18,.46-.35,.02-.3,.16-.66,0-.93-.37-.37-.07-1.01,.41-1.01,.05,0,.09,0,.14,.02-.41-.34-.87-.61-1.32-.89-.32,.36-.66,.7-.91,1.11"/><path class="cls-12" d="M9.26,30.9c-1.18-.48-2.19-1.3-2.98-2.29-.24,1.09-1.52,2.53-2.59,1.46-.39-.33-.4-.88-.48-1.35-.1-.63-.26-1.25-.24-1.89,0-.58,.02-1.25,.55-1.62,.32-.29,.7-.48,.99-.79,.22-.15,.49-.2,.7-.37,.44-.42,1.17-.24,1.13,.43-.11,.5-.71,.69-1.13,.89-.28,.34-.71,.49-1.01,.81-.15,1.01,.08,2.08,.33,3.04,.43-.24,.54-.74,.68-1.19,.07-.27,.02-.58,.2-.82,.39-.52,1.03-.11,1.45,.15,.17,.13,.24,.32,.34,.49,.2,.26,.44,.46,.63,.72,.3,.26,.65,.48,.95,.75,.47,.29,.99,.49,1.49,.7,.2,.1,.38,.22,.61,.18,.1,0,.2,0,.29-.02-.13,.15-.24,.32-.33,.5,0,.01-.01,.03-.02,.04-.19,.13-.38,.26-.57,.39-.06,.04-.11,.08-.17,.12-.28-.11-.55-.25-.83-.37"/><path class="cls-12" d="M16.83,31.22s-.02-.03-.03-.05c-.08-.11-.18-.22-.29-.31-.03-.03-.06-.06-.09-.09-.11-.08-.23-.14-.36-.17,.03-.32,.07-.63,.11-.95-.21-.85,.83-1.3,1.16-.45-.03,.7-.08,1.4-.13,2.11-.12-.03-.24-.07-.37-.09"/><path class="cls-12" d="M9.9,31.09c-.27-.66,.69-1.12,1.05-.53-.03,.05-.06,.1-.09,.16,0,.01-.01,.03-.02,.04-.19,.13-.38,.26-.57,.39-.2,.14-.39,.28-.58,.43,.07-.16,.14-.33,.2-.49"/><path class="cls-12" d="M9.95,30.99c-.06-.83,2.12-.77,1.96,.07-.1,.61-.77,.4-1.2,.39-.07,.04-.15,.06-.23,.06-.27,0-.53-.22-.53-.52"/><path class="cls-12" d="M69.8,45.7c.22-.15,.54-.13,.74,.04-.35,.04-.68,.21-1,.38,.04-.16,.12-.3,.26-.42"/><path class="cls-12" d="M66.57,34.32s0-.01,.01-.02c.06-.07,.12-.15,.18-.22,.04-.02,.08-.05,.11-.09,.14-.14,.28-.29,.42-.43,.07-.06,.14-.12,.2-.18,.27,.19,.54,.39,.79,.6-.17,.05-.32,.14-.44,.26-.21,.04-.4,.15-.54,.33-.05,.06-.09,.12-.12,.2-.2-.16-.4-.31-.61-.45"/><path class="cls-12" d="M71.12,35.31c-.55-.28-.27-.88-.05-1.3,.39-1.05,.96-2.02,1.38-3.05,.62-2.12,2.45-2.34,4.03-1.01,.46,.51,.12,1.24,.24,1.85,.02,.8,.25,1.72-.28,2.41-.71,.75-2.01,.67-2.69-.09-.38-.47-.51-1.1-.63-1.68-.41,.86-.8,1.72-1.18,2.59-.1,.21-.33,.34-.55,.34-.09,0-.18-.02-.27-.06m3.19-3.27c.11,.51,.11,1.37,.76,1.46,.16,.04,.31,0,.44-.1,.17-.87-.14-1.78,0-2.66-.35-.24-.69-.39-.98-.39-.38,0-.68,.24-.85,.85,.02,0,.03,0,.05,0,.43,0,.68,.43,.59,.83"/><path class="cls-12" d="M76.6,34.66c.06-.8,1.26-.72,1.22,.08-.08,.85,.25,1.25,1.12,1.17,.24-.85,.23-1.75,.49-2.59-1.42-.66-1.29-.01-2.51,.52-.44,.2-1.07-.04-1.03-.59,.02-.33,.31-.59,.63-.57,.41-.2,.77-.5,1.17-.74,.56-.31,1.23-.12,1.78,.1,.61,.15,1.27,.53,1.19,1.25-.01,.48-.21,.93-.27,1.41-.12,.87-.07,2.2-1.15,2.42-.16,.02-.33,.03-.48,.03-1.39,0-2.3-.95-2.15-2.48"/><path class="cls-12" d="M77.02,37.73c-.38,0-.76-.33-.6-.81,.11-.28,.25-.55,.36-.82,0-.2,.09-.4,.27-.52,.27-.18,.67-.11,.85,.17,.32,.53-.15,1.08-.32,1.57-.1,.28-.33,.4-.55,.4h0Zm-.24-1.58s0,.05,0,.07c.01,.05,.03,.11,.06,.16-.04-.08-.06-.16-.07-.25v.02Z"/><path class="cls-12" d="M73.99,36.05c-.62-.63,.35-1.25,.72-1.73,.15-.95,1.46-.59,1.2,.32-.18,.56-.72,.9-1.05,1.36-.11,.14-.28,.2-.45,.2-.15,0-.3-.05-.41-.15"/><path class="cls-12" d="M81.87,39.52s.02,0,.03,0c0,0,0,0,0,0-.01,0-.02,0-.03,0"/><path class="cls-12" d="M81.57,39.48s-.08,0-.11,0h-.07s-.03,0-.04,0c-.12-.03-.23-.07-.35-.09-.11-.02-.21-.03-.32-.04h0s-.02,0-.03-.01c-.16-.07-.34-.08-.51-.07-.85-.56-1.37-1.76-1.21-2.7,.06-.8,1.27-.72,1.22,.08-.07,.39-.01,.75,.24,1.06,.18,.37,.44,.71,.9,.66-.05-.82,.1-1.62,.08-2.46-.48-.36-1.12-.39-1.61-.72-.66-.59,.24-1.63,.86-.93,.97,.29,2.21,.8,1.97,2.03-.03,.6-.1,1.18-.09,1.78,0,.02,0,.05,0,.07-.01,.18-.02,.37-.03,.55,0,.08,0,.15,0,.23-.08,.26-.23,.45-.47,.56-.07,0-.14,.01-.21,.02,0,0-.02,0-.03,0-.07-.01-.13-.02-.21-.02"/><path class="cls-12" d="M79.03,38.26c.17-1.12,1.67-.47,1.13,.48-.11,.24-.31,.43-.41,.67-.18,.12-.32,.3-.39,.51-.09,.04-.17,.06-.26,.06-.51,0-.94-.7-.07-1.72"/><path class="cls-12" d="M81,39.39c-.11-.02-.21-.03-.32-.04,0,0-.02,0-.03-.01-.07-.03-.14-.05-.22-.06,.29-.2,.74-.12,.91,.2-.11-.03-.22-.07-.34-.09"/><path class="cls-12" d="M82.48,38.78c-.33-.24-.88-.33-.83-.85,.1-.58,.49-.63,.91-.5-.02,.42-.05,.84-.07,1.26,0,.11,0,.22-.01,.33,0,0,0,0,0,0,0-.09,0-.17,.01-.25"/><path class="cls-12" d="M78.39,44.42s-.05,0-.08-.01c.28-.28,.48-.62,.61-1,.24-.49,.44-.99,.61-1.5,.12-.05,.23-.13,.32-.23,0,0,0,0,0,0,.12,0,.25-.01,.37-.01,.08,0,.15,.01,.23,.02,.03,0,.07,.02,.1,.02,0,0,0,0,.01,0,0,0,0,0,0,0,.02,.03,.04,.07,.06,.1,.04,.07,.08,.13,.14,.18-.17,.57-.35,1.12-.63,1.65-.07,.24-.16,.47-.27,.67-.02,0-.04,.01-.06,.01-.06,.01-.12,.03-.19,.04-.03,0-.06,0-.09,.01-.1,.01-.19,.03-.29,.05-.06,.01-.12,.03-.17,.04-.03,0-.06,.02-.09,.03-.19-.04-.39-.07-.58-.1"/><path class="cls-12" d="M80.8,39.36s.06,0,.1,.01c-.03,0-.06,0-.1-.01"/><path class="cls-12" d="M68.71,36.55c.31-.61,.93-.21,1.37-.01,.36,.1,1.25-.09,.89-.6-.7-.74-1.99-.99-2.38-2-.17-.76,1-1.08,1.21-.33,.64,.56,1.48,.88,2.07,1.5,.9,.98,.22,2.44-1.04,2.62-.12,.04-.28,.05-.45,.05-.81,0-1.99-.4-1.67-1.23"/><path class="cls-12" d="M69.12,44.24c-.62-.49-.86-1.25-1.2-1.94-.49-.98-.79-2.03-.9-3.12-.22-1.06-.66-2.07-.83-3.15-.25-1.49,2.13-4.06,3.45-2.54,.98,.68-.34,1.74-.96,.76-.53,.15-.91,.68-1.21,1.12-.21,.67,.17,1.31,.3,1.98,.52,1.35,.46,2.85,1.13,4.15,.25,.51,.44,1.06,.76,1.54,.47,.56,1.93,1.41,1.08,2.2-.12,.07-.24,.1-.34,.1-.54,0-.81-.85-1.29-1.11"/><path class="cls-12" d="M71.77,45.68h-.02s-.01,0-.01,0h-.01s-.01,0-.01,0h-.01s-.01,0-.01,0h-.01s-.01,0-.01,0h-.01s-.02,0-.02,0h-.01s-.01,0-.01,0h-.01s-.01,0-.01,0h-.01s-.01,0-.01,0h-.02s-.01-.01-.01-.01h-.01s-.01,0-.01,0h-.01s-.01-.01-.01-.01h-.01s-.01,0-.01,0h-.01s-.01,0-.01,0h-.01s-.01-.01-.01-.01h-.02s-.01,0-.01,0h-.02s-.01-.01-.01-.01h-.01s-.01,0-.01,0h-.01s-.01,0-.01,0h-.01s-.01,0-.01,0h-.01s-.01,0-.01,0h-.01s-.01,0-.01,0h-.01s-.01-.01-.01-.01h-.02s-.01,0-.01,0h-.01s-.01,0-.01,0h-.01s-.01,0-.01,0h-.01s-.01,0-.01,0h-.01s-.01,0-.01,0h-.01s-.01,0-.01,0h-.02s-.02,0-.02,0h-.01s-.02,0-.02,0h-.02s-.02,0-.02,0h-.01s-.02,0-.02,0h-.01s-.01,0-.01,0h-.01s-.01,0-.01,0h-.01s-.01,0-.01,0h-.05s-.01,0-.01,0h-.02s-.01,0-.01,0h-.01s-.01,0-.01,0h-.01s0,0,0,0h-.01s0,.01,0,.01h-.01s0,.01,0,.01h-.01s0,.02,0,.02h0s0,.02,0,.02h0s-.01,.03-.01,.03v.02s-.02,.02-.02,.02h0s0-.04-.01-.06c-.34-.52-1.37-1.04-.84-1.74,.4-.45,.93-.09,1.2,.31,.32,.4,.78,.73,.91,1.25,.01,.13,.03,.26,.05,.39h-.01Z"/><path class="cls-12" d="M81.38,41.67c-.21,.19-.44,.29-.64,.49-.42,1.08-1.71,.18-1-.72,.18-.22,.41-.41,.66-.55,.4-.28,.82-.79,1.37-.65,.37,.1,.46,.49,.65,.77,.32,.33,.84,.84,1.33,.57-.31-.75-1.79-2.8-.34-3.09,.81,.04,.51,.99,.88,1.49,.74,1.18,1.23,2.48-.57,2.88-.09,.02-.18,.02-.27,.02-.81,0-1.58-.6-2.06-1.22"/><path class="cls-12" d="M82.7,39.33c-.23-.02-.45-.07-.66-.18-.47-.24-.36-1,.15-1.12,.15-.04,.3-.02,.44,.04,.32,.08,.7,.03,.94,.3,.41,.41,.45,1.16-.24,1.27-.02,0-.05,0-.07,0-.22,0-.45-.12-.55-.32"/><path class="cls-12" d="M70.02,44.42h0s.01-.02,.01-.02h0s.01-.03,.01-.03h.01s.01-.02,.01-.02h0s.01-.02,.01-.02h0s.01-.01,.01-.01h0s.01-.01,.01-.01h.01s0,0,0,0h.01s.01,0,.01,0h0s.01,0,.01,0h.04s.01,0,.01,0h.01s.01,0,.01,0h.01s.01,0,.01,0h.01s.01,0,.01,0h.01s.01,0,.01,0h.02s.01,0,.01,0h.01s.01,0,.01,0h.02s.01,.01,.01,.01h.01s.01,.01,.01,.01h.01s.01,.01,.01,.01h.01s.01,0,.01,0h.01s.01,.01,.01,.01h.01s.01,.01,.01,.01h.01s.01,.01,.01,.01h.01s.01,.01,.01,.01h.01s.01,.01,.01,.01h.01s.01,.01,.01,.01h.01s.01,.01,.01,.01h.01s.01,.01,.01,.01h.01s.01,.01,.01,.01h.01s.01,.01,.01,.01h.01s.01,.01,.01,.01h.01s.02,.01,.02,.01h.01s.01,.01,.01,.01h.01s.01,.01,.01,.01h.01s.01,.01,.01,.01h.01s.01,.01,.01,.01h.01s.01,.01,.01,.01h.01s.01,.01,.01,.01h.01s.01,.01,.01,.01h.01s.01,.01,.01,.01h.01s.01,.01,.01,.01h.01s.01,.01,.01,.01h.01s.01,.01,.01,.01h.01s.01,.01,.01,.01h.01s.01,.01,.01,.01h.01s.01,.01,.01,.01h.01s0,.01,0,.01c.02,.35,.05,.7,.1,1.04-.15-.04-.3-.06-.47-.04-.06,0-.13,.02-.19,.03-.02,0-.04,0-.06,0-.17,0-.33,.03-.5,.09-.07-.47-.13-.93-.17-1.4"/><path class="cls-12" d="M11.85,31.58s0,0,0,0c-.01,.02-.03,.04-.05,.05,.01-.02,.03-.03,.04-.05"/></g><path class="cls-12" d="M69.06,62c-1.44-.46-2.37-2.01-2.57-3.45-.14-.95,.29-1.84,.86-2.57-1.21-1.6-.55-3.66,.26-5.28-2.44-3.54,.19-6.73,4.19-5.45,.73-2.24,2.47-2.98,4.59-1.92,.49,.27,.81,.74,1.1,1.19,.48,.22,.32,.99-.22,.98-.56,.01-.72-.66-1.06-1-.67-.64-1.96-.88-2.7-.24-.38,.41-.59,.95-.8,1.46-.07,.32-.31,.61-.66,.6-1.21-.19-2.68-.75-3.71,.22-1.17,.97-.53,2.67,.21,3.71,.35,.73-.39,1.41-.54,2.11-.59,1.61-.33,2.12,.44,3.51-.18,1.21-1.42,1.34-.79,3.21,.31,.78,.84,1.63,1.67,1.91,.6,.16,.41,1.02-.12,1.02-.05,0-.1,0-.15-.02"/><g class="cls-15"><path class="cls-12" d="M18.73,47.7c.04-.54,0-1.09-.1-1.63-.92-3.23,4.07-3.11,.59-7.9-.57-.95,.71-1.46,1.18-2.1,.74-.9,1.75-2.29,.6-3.28-.72-.95-1.64-.89-2.51-.82-.69,.05-1.35,.11-1.86-.34-.74-1.35-2.6-2.08-3.91-1.08-.47,.23-.75,.75-1.15,1.04,.03-.04,.06-.08,.07-.13-.02,.05-.05,.09-.08,.13-.12,.09-.25,.16-.4,.19-1.72-.49,1.44-2.55,2.16-2.65,1.57-.39,3.27,.46,4.08,1.82,1.74-.2,3.69-.11,4.69,1.57,1.34,1.84-.59,4-1.96,5.2,2.11,2.73,1.47,4.79-.62,7.2-.08,.81,.88,3.71-.41,3.76-.51-.08-.46-.61-.4-1"/></g></svg>