<?xml version="1.0" encoding="UTF-8"?><svg id="_レイヤー_4" xmlns="http://www.w3.org/2000/svg" viewBox="0 0 64.47 130.84"><defs><style>.cls-1{fill:#88c0dd;}.cls-1,.cls-2,.cls-3,.cls-4,.cls-5{stroke-width:.6px;}.cls-1,.cls-2,.cls-3,.cls-4,.cls-5,.cls-6,.cls-7,.cls-8,.cls-9,.cls-10{stroke:#040000;}.cls-1,.cls-2,.cls-3,.cls-4,.cls-5,.cls-6,.cls-7,.cls-10{stroke-linecap:round;stroke-linejoin:round;}.cls-2,.cls-11,.cls-9{fill:#fff;}.cls-3,.cls-8{fill:#e9da21;}.cls-4,.cls-12{fill:#025999;}.cls-13,.cls-6{fill:#040000;}.cls-14{fill:#c68f00;}.cls-5,.cls-7,.cls-10{fill:none;}.cls-6,.cls-7{stroke-width:.98px;}.cls-8,.cls-9{stroke-miterlimit:10;stroke-width:.19px;}.cls-10{stroke-width:.76px;}</style></defs><path class="cls-14" d="M51.78,124.88c-.59-1.04-2.25-1.91-4.29-2.45-.82-.25-3.47-.99-3.42-1.41-.19-.76-1.14-1.23-2.3-1.46-2.14-.74-5.27-.8-7.54-.04-.05,.06-.09,.12-.13,.18-.13,.2-.24,.41-.34,.61-.12,.25-.24,.49-.47,.72-.17,.17-.4,.33-.6,.49-.12,.09-.25,.18-.39,.26-.37,.2-.82,.31-1.32,.34-.1,0-.19,0-.29,0-.12,0-.25,0-.37,0-.1,0-.21,0-.31-.01-.04,0-.08,0-.12,0-.04,0-.08,0-.12,0,0,0-.01,0-.01,0-.04,0-.07,0-.11-.01-.04,0-.07,0-.11-.01-.05,0-.09-.01-.14-.02-.02,0-.04,0-.06-.01-.01,0-.03,0-.04,0-.07-.01-.13-.03-.2-.05,0,0,0,0,0,0,0,0-.01,0-.01,0-.05-.02-.11-.03-.16-.05-.02,0-.03-.01-.05-.02-.05-.02-.09-.04-.13-.05-.01,0-.03-.01-.04-.02-.05-.02-.11-.05-.16-.08-.01,0-.02-.01-.03-.02-.04-.02-.08-.04-.11-.07-.1-.06-.19-.13-.26-.2-.01-.01-.03-.03-.04-.04-.13-.14-.22-.29-.32-.44,0-.01-.02-.03-.03-.04-.03-.03-.05-.06-.08-.1h0s-.05-.05-.07-.07h0c-.15-.14-.31-.28-.48-.41-.04-.03-.09-.06-.14-.09-.1-.02-.19-.04-.29-.06t0,0c-.05-.01-.11-.02-.16-.03-.04,0-.08-.01-.12-.02,0,0-.01,0-.02,0-.15-.03-.3-.05-.45-.08h0s-.02,0-.03,0c0,0,0,0-.01,0-.06,0-.12-.01-.18-.02-.04,0-.07,0-.11-.01-.03,0-.05,0-.08,0,0,0,0,0,0,0-.02,0-.04,0-.05,0-.06,0-.12,0-.18,0-.13,0-.25,0-.38-.01-.01,0-.02,0-.03,0h-.02c-.2,0-.4,0-.6,0h-.04c-.16,0-.32,.01-.48,.02,0,0,0,0-.01,0-.02,0-.04,0-.06,0,0,0,0,0,0,0-.07,0-.14,.02-.21,.02,0,0,0,0,0,0-.12,.02-.24,.05-.36,.08-.09,.02-.17,.05-.26,.07-.21,.06-.41,.12-.61,.18-.13,.05-.26,.1-.39,.15-.03,.01-.07,.02-.1,.04-.06,.02-.11,.04-.16,.06,0,0-.01,0-.02,0-.01,0-.02,0-.03,.01h0c-.17,.06-.33,.12-.49,.19-.01,0-.03,.01-.04,.02-.03,0-.05,.02-.08,.03-.01,0-.03,.01-.04,.02-.02,.01-.05,.02-.07,.04h0s-.1,.05-.15,.08c-.02,.01-.04,.02-.06,.03-.06,.03-.13,.07-.19,.1-.28,.14-.55,.25-.88,.35-.28,.08-.56,.14-.86,.19-.1,.02-.2,.03-.3,.05-.56,.08-1.14,.14-1.71,.15-.17,0-.34,0-.51,0-.07,0-.15,0-.22,0h-.02s-.08,0-.12,0c-.08,0-.15,0-.23-.01-.05,0-.1,0-.15,0-.1,0-.2-.02-.31-.02-.46-.04-.91-.13-1.36-.22-.5-.1-.94-.27-1.28-.5-.35,.02-.69,.05-1.01,.1-7.18,.58-11.01,3.15-3.31,4.8,.65,.49,1.76,.85,3.07,1.13,.65,.35,1.22,.73,2.12,.97,.28,.07,.56,.14,.84,.2,.24,.16,.5,.31,.77,.45,2.26,1.14,5.56,1.81,8.9,1.9,.4,.01,.8,.02,1.19,.02,2.96,0,5.89-.35,8.37-1.07,1.4-.37,2.62-.89,4.18-1.11,1.61-.19,3.26-.14,4.91-.1,.87,.02,1.74,.05,2.6,.03,.66-.01,1.35-.08,2.01-.2,.72-.05,1.4-.19,1.95-.42,2.21-.63,3.54-1.81,2.71-3"/><g><path class="cls-1" d="M11.38,14.75s-2.9-4.39-1.74-12.12c.21-1.43,1.31-1.42,2.13-1.29,.74,.12,4.13,.8,8.38,3.26l1.12,10.98-9.89-.82Z"/><path class="cls-1" d="M53.88,14.75s2.9-4.39,1.74-12.12c-.21-1.43-1.31-1.42-2.13-1.29-.74,.12-4.13,.8-8.38,3.26l-6.34,5.37,10.26,6.24,4.85-1.45Z"/><path class="cls-4" d="M18.5,7.83c-2.55-2.41-4.83-3.03-5.18-3.09-.39-.06-.93-.17-.97,.52-.19,3.13,1.5,5.87,1.5,5.87l4.18,2.16,.48-5.47Z"/><path class="cls-4" d="M51.41,11.13s1.69-2.74,1.5-5.87c-.04-.69-.58-.58-.97-.52-.36,.06-2.64,.68-5.18,3.09v5.09l4.66-1.79Z"/><path class="cls-1" d="M55.56,23.31c0,9.27-10.28,15.18-22.96,15.18s-22.96-5.9-22.96-15.18S19.92,4.91,32.6,4.91s22.96,9.13,22.96,18.4Z"/><circle class="cls-2" cx="23.74" cy="14.51" r="2.02"/><circle class="cls-13" cx="23.74" cy="14.43" r="1.14"/><circle class="cls-2" cx="41.44" cy="14.51" r="2.02"/><circle class="cls-13" cx="41.44" cy="14.43" r="1.14"/><path class="cls-3" d="M34.91,18.09c.05-1.11-.44-1.93-.44-1.93,.65-.48,1.13-1.21,1.13-1.21-.42-.31-1.96-.41-1.96-.41-.55-1.12-1.03-1.62-1.03-1.62-.65,.62-1.09,1.62-1.09,1.62,0,0-1.54,.1-1.96,.41,0,0,.47,.73,1.13,1.21,0,0-.49,.82-.44,1.93,0,0,1.37-.14,2.29-.88,.81,.6,1.74,.86,2.39,.88Z"/><ellipse class="cls-2" cx="19.22" cy="17.19" rx="2.05" ry=".98"/><ellipse class="cls-2" cx="45.83" cy="17.19" rx="2.05" ry=".98"/><path class="cls-5" d="M25.76,18.08s.15,3.33,2.81,3.33,3.73-2.27,3.95-4.13"/><path class="cls-5" d="M39.31,18.08s-.15,3.33-2.81,3.33-3.73-2.27-3.95-4.13"/><path class="cls-5" d="M36.79,38.23s-4.34,.99-8.36,.01"/><path class="cls-2" d="M46.07,8.52c.69,.89,.25,1.58-.15,1.86-3.44,2.37-10.5-.41-12.32-3.89-.13-.24-.2-1.08,.64-1.41l6.62,3.09,5.2,.34"/><path class="cls-2" d="M19.14,8.52l3.64-1.58,8.18-1.85c.84,.32,.77,1.16,.64,1.41-1.87,3.57-8.82,6.29-12.32,3.89-.4-.28-.84-.97-.15-1.86"/><path class="cls-3" d="M31.67,5.79s.96-.38,1.98,0l1.06,.07-.54-.95c-1.59-.38-3.1,0-3.1,0l-.85,.91,1.46-.03Z"/><path class="cls-4" d="M30.21,3.77s.49,.76,.87,1.55c.11,.23,.11,.49-.01,.71-1.48,2.83-8.44,5.68-11.41,3.63-.37-.26-.57-.7-.52-1.14,.26-2.1,1-3.88,1-3.88l5.01-.87h5.06Z"/><path class="cls-4" d="M45.07,4.64s.74,1.78,1,3.88c.06,.45-.15,.89-.52,1.14-2.97,2.05-9.93-.8-11.41-3.63-.12-.22-.12-.49-.01-.71,.38-.78,.87-1.55,.87-1.55h4.07s6,.87,6,.87Z"/><ellipse class="cls-2" cx="25.16" cy="4.33" rx="5.05" ry="1.95" transform="translate(-.29 2.37) rotate(-5.36)"/><ellipse class="cls-2" cx="40.05" cy="4.33" rx="1.95" ry="5.05" transform="translate(31.99 43.79) rotate(-84.64)"/><path class="cls-3" d="M46.46,9.63s3.9,1.28,7.37,7.02c0,0,.39-.91-.37-2.39-2.01-3.9-5.64-6.01-7.5-6.6l.51,1.97Z"/><path class="cls-3" d="M18.72,9.63s-3.9,1.28-7.37,7.02c0,0-.39-.91,.37-2.39,2.01-3.9,5.64-6.01,7.5-6.6l-.51,1.97Z"/><ellipse class="cls-4" cx="25.18" cy="4.3" rx="3.88" ry="1.21" transform="translate(-.29 2.37) rotate(-5.36)"/><ellipse class="cls-4" cx="40.03" cy="4.3" rx="1.21" ry="3.88" transform="translate(32.01 43.76) rotate(-84.64)"/></g><path class="cls-8" d="M17.38,86.49l32.63-4.59s.41,5.5,.66,7.02-3.05,13.25-3.05,13.25l-3.16,1.87-4.88,.11-4.52-2.38,.36-5.11-.98-4.39-1.13-.34-2.04,4.72-1.53,5.73-3.17-1.52-4.32-1.37-2.35,.3v2.33l-3.4-1.96v-4.09l.88-9.59Z"/><path class="cls-12" d="M63.56,41.43l-2.53-3.53-2.03-3.44-4.37-3.61-6.47-1.86,7.88-6.65-.88-6.83,.79-6.04,.83-5.69-1.62-2.55-1.99-.5-8.85,2.07-5.72-1.5-5.73-.46-5.39,.03-2.83,1.27-4.91,.35L11.78,.09l-2.76,2.53,.3,4.26,.91,8.21-1.25,6.68,2.03,7.02,4.58,5.07-1.3,.86-5.08,2.82-3.2,10.92-1.48,.3-1.31,4.18-.98,1.05S-.01,57.97,.44,58.91c.45,.94,2.3,4.9,2.3,4.9l1.8,1.54,1.18,.85,2.42-.83,5.71-4.66-1.15,13.69,1.92,8.28,3.13,3.95s3.31,2.85,8.58,3.51c5.27,.66,9.97-.83,9.97-.83,0,0,8-3.2,9.93-4.23,1.93-1.03,3.53-3.61,3.53-3.61l1.31-3.55,1.42-10.21-1.04-8.98-1.14-5.98,3.05,.76,4.61,.4,3.22-2.29,2.91-5-.53-5.18Zm-17.15-11.16c-3.56,4.83-13.52,6.93-13.52,6.93h-.32s-10.13-2.1-13.76-6.93c-3.32-4.43-3.24-9.03-.05-16.45,3.19-7.43,7.24-8.66,10.59-9.28,1.15-.21,3.96-.5,6.71,0,3.26,.59,7.27,1.85,10.41,9.28,3.13,7.43,3.21,12.02-.05,16.45Z"/><polygon class="cls-11" points="6.8 48.59 4.78 47.51 4.32 45.06 2.98 44.58 1.33 45.69 .61 45.06 1.33 43.2 2.74 42.21 2.74 40.25 3.13 39.39 4.27 38.91 4.27 37.36 6.07 36.91 7.36 37.96 7.84 35.44 8.86 34.81 10.05 35.19 10.58 36.22 11.84 39.56 14.07 38.46 15.15 39.39 15.4 40.25 14.81 42.09 14.6 44.47 13.46 46.83 11.79 48.03 8.19 50.02 6.23 50.05 6.8 48.59"/><polygon class="cls-11" points="51.71 33.52 49.13 33.05 47.76 32.84 46.88 31.43 47.14 29.99 48.98 28.77 50.92 27.27 52.33 23.31 52.82 21.34 54.9 20.73 55.83 21.86 56 23.99 57.46 21.86 59.46 22.63 59.08 25.75 61.01 24.48 62.23 26.35 61.84 27.35 61.49 28.4 63.44 29.61 63.38 31.62 62.99 32.76 61.75 32.48 61.38 31.22 58.56 33.33 56.91 33.87 57.19 35.46 52.26 35.52 51.71 33.52"/><polygon class="cls-9" points="20.53 99.72 26.57 100.88 28.49 101.8 27.94 106.55 23.35 104.79 20.25 104.83 20.53 99.72"/><polygon class="cls-9" points="35.69 102.35 38.48 104.04 42.21 104.45 40.1 110.84 37.25 110 34.43 108.04 35.69 102.35"/><polygon class="cls-9" points="20.25 105.18 22.25 104.45 27.94 106.55 27.87 113.85 25.76 114.27 22.7 113.44 21.58 111.32 20.25 105.18"/><polygon class="cls-9" points="34.43 108.04 36.66 109.89 40.1 110.84 35.95 117.04 34.43 117.04 32.68 116.32 32.4 114.44 33.25 112.35 34.43 108.04"/><polygon class="cls-12" points="32.28 115.15 33.59 117.04 35.34 117.36 35.95 119.5 37.43 122.3 37.36 124.56 34.57 124.83 32.4 124.07 31.51 121.78 31.51 118.49 30.96 116.6 32.28 115.15"/><polygon class="cls-12" points="21.93 112.81 24.37 114.27 27.87 113.85 27.33 121.22 26.33 122.14 24.1 122.14 20.53 122.62 16.8 122.3 13.17 120.93 11.44 119.38 12.05 116.48 15.06 115.15 18.13 114.48 21.93 112.81"/><g><path class="cls-7" d="M54.56,33.34s1.37,.43,1.93,.46c.65,.03,2.65-.26,4.36-2.61,.09-.12,.34-.23,.57-.28,0,0,.26,2.06,1.07,2.03s.86-1.81,.9-2.44,.01-1.08-.61-1.48-1.46-.97-1.46-.97"/><path class="cls-7" d="M59.84,26.6s-.31,.62-.14,1,.65,1.53,1.99,.07c1.17-1.27,.64-1.73,.12-2.36s-.67-1.06-1.45-.47-1.36,1.06-1.36,1.06"/><path class="cls-7" d="M57.01,24.82s-.08,.8,.29,1.1,1.47,1.23,1.87-.94c.35-1.93,.43-2.49-.93-3.04-.86-.35-1.06-.28-1.56,.7-.53,1.03-.82,1.41-.82,1.41"/><path class="cls-7" d="M53.68,23.67s.28,.99,.74,1.1c.64,.15,1.7,.04,1.51-1.94-.18-1.85-.57-2.15-1.88-1.98-1.12,.15-1.48,.66-1.7,1.74-.29,1.39-1.29,3.95-1.29,3.95-.9,2.32-2.29,2.09-3.52,3.34-.67,.68-.83,3.16,.54,3.09,1.76-.09,2.62,1.42,3.34,.07,.43-.81,.58-1.78-1.45-2.53"/><path class="cls-7" d="M57.12,34.01s.13,.27,.35,.76"/><path class="cls-7" d="M51.67,32.11s.08,1.15,.25,2.9"/></g><g><path class="cls-7" d="M7.27,48.76s-2.27,.02-2.93-3.3c0-.62-1.41-1.06-1.41-1.06,0,0-.96,1.59-1.9,1.15s-.14-.65,.4-2.46c.22-.42,1.26-.68,1.26-.68"/><path class="cls-7" d="M13.63,40.9s-1.41,.86-1.96-.14,1.05-1.52,1.65-2.05c.83-.74,1.69-.29,2.18,.88,.4,.95-.49,2.54-1.02,5.02-.6,2.83-2.7,3.55-2.7,3.55"/><path class="cls-7" d="M11.98,39.63s-1.42-3.04-1.63-3.54-.79-1.73-2.32-.92c-.56,.3-.55,3.06-.2,3.29,1.02,.67,1.71,.1,1.85-1.4"/><path class="cls-7" d="M7.51,38.11s-1.01-.65-1.45-.85c-.54-.24-1.82,.27-1.74,.59,.24,.97,.44,2.56,.59,2.71s2.04,.59,1.84-1.54"/><path class="cls-7" d="M4.39,39.37c-.5-.31-1.81,.4-1.77,.74,.1,.99,.08,2.23,.15,2.44,.09,.3,1.99,.54,1.99-1.84"/><line class="cls-7" x1="6.53" y1="40.41" x2="6.98" y2="41.22"/><line class="cls-7" x1="8.15" y1="38.75" x2="9.32" y2="40.1"/><line class="cls-7" x1="4.63" y1="41.77" x2="5.32" y2="43.19"/></g><g><path class="cls-7" d="M58.06,34.18s-1.33,1.72-3.65,1.69-3.27-1.21-3.27-1.21c0,0,.12,3.78,1.15,5.45,0,0-.33,6.3,1.58,8.83"/><path class="cls-7" d="M58.05,33.71s1.73,1.51,2.58,3.91c.25,.7,2.93,2.52,3.43,6.66s-3.6,8.83-6.45,9.2c-4.06,.52-7.47-.86-7.47-.86"/><path class="cls-7" d="M6.25,48.5s-1.39,.02-1.72,.79-1.04,2.87-1.29,3.78c0,0-2.28,2.63-2.4,5.07-.16,3.12,2.19,7.8,5.07,7.8s7.77-5.24,7.77-5.24"/><path class="cls-7" d="M4.98,48.89s1.25,1.82,3.63,.93,4.48-2.23,4.48-2.23c0,0-1.13,5.11-1.73,6.34,0,0-.23,3.86-.64,6.17"/><path class="cls-7" d="M3.24,53.08s3.48,4.26,7.93,1.01"/><line class="cls-7" x1="6.7" y1="48.78" x2="6.53" y2="49.54"/><path class="cls-7" d="M12.74,49.81s1.4,4.14,3.61,7.18"/><path class="cls-7" d="M10.85,37.2s1.13-1.64,5.09-2.9"/><path class="cls-7" d="M51.34,44.01s-.88,7.71-1.92,12.03"/><path class="cls-7" d="M14.43,54.37s-2.16,17.11-1.29,22.77c.88,5.66,2.04,9.88,10.69,12.53,8.66,2.65,20.38-2.37,25.09-6.99s3.33-23.27,1.39-29.27"/><path class="cls-7" d="M25.21,65.39s6.03,1.1,16.27-1.51c0,0,2.26,4.66,4.75,6.2,0,0-.06,4.86-.45,6.69,0,0-14.6,10.15-24.38,2.62,0,0-1.02-3.25-1.03-6.79,0,0,2.4-1.66,4.83-7.21Z"/><path class="cls-7" d="M52.46,40.18s4.44,2.34,8.22-2.04"/></g><g><path class="cls-7" d="M32.28,114.96s.39,2.56,3.26,2.22c0,0,5.37-5.14,6.66-12.6"/><path class="cls-7" d="M32.39,114.72c-1.71,1.89-1.49,2.83-1.32,3.56,.13,.54,.39,1.02,.31,2.34-.07,1.08,.3,4.22,2.88,4.19,3.38-.04,3.9-.86,3.17-2.78-.42-1.1-2.11-2.49-1.89-4.84"/><path class="cls-7" d="M32.28,114.96s2.57-6.55,2.95-12.56"/><path class="cls-7" d="M34.43,107.76s1.78,3.45,5.63,2.89"/><line class="cls-10" x1="35.45" y1="109.51" x2="34.66" y2="111.96"/><line class="cls-10" x1="21.99" y1="104.89" x2="22.48" y2="108.21"/><line class="cls-10" x1="23.75" y1="105.13" x2="24.24" y2="108.46"/><line class="cls-10" x1="25.78" y1="105.56" x2="25.86" y2="108.93"/><line class="cls-10" x1="37.1" y1="110.25" x2="35.8" y2="112.64"/><line class="cls-10" x1="38.59" y1="110.9" x2="36.96" y2="113.31"/><path class="cls-7" d="M50.02,81.55s2.05,10.02-2.41,20.62c0,0-6.32,5.22-12.86-.57,0,0,1.96-4.84-1.12-9.77,0,0-2.51,2.72-3.54,10.51l-1.56,.75"/><path class="cls-7" d="M16.8,100.5s5.06-3.03,12.83,1.85"/><path class="cls-7" d="M17.37,86.47s-1.74,8.38-.69,14.35c0,0,2.08,1.09,3.39,1.31"/><path class="cls-7" d="M28.53,102.05s-1.15,7.56-.79,11.8"/><path class="cls-7" d="M20.26,99.61s-1.1,6.16,1.73,13.02"/><path class="cls-7" d="M27.87,106.8s-4.53-3.31-7.58-1.75"/><path class="cls-7" d="M21.99,112.64s1.7,2.61,5.81,1.31c0,0,.03,5.26,0,6.13s-1.01,1.61-2.19,1.78-5.98,1.82-9.63,.11c-3.66-1.71-4.5-1.67-4.55-3.56s1.47-2.55,3.83-3.3c2.36-.75,3.44-.52,4.78-1.38s1.94-1.09,1.94-1.09Z"/></g><g><path class="cls-7" d="M32.57,37.2s-10.13-2.1-13.76-6.93c-3.32-4.43-3.24-9.03-.05-16.45,3.19-7.43,7.24-8.66,10.59-9.28,1.15-.21,3.96-.5,6.71,0,3.26,.59,7.27,1.85,10.41,9.28,3.13,7.43,3.21,12.02-.05,16.45-3.56,4.83-13.52,6.93-13.52,6.93"/><path class="cls-7" d="M51.4,33.04c-3.6,5.1-9.26,5.39-11.18,5.71-2.55,.42-6.31,1.22-6.31,1.22"/><path class="cls-7" d="M31.19,39.97s-3.76-.8-6.31-1.22-15.48-5.66-15.9-16.98c-.21-5.57,1.6-4.7,.34-14.88-.32-2.57-.52-4.7,1.53-6.17,2.19-1.58,7.65,3.39,13.7,1.28,3.69-1.29,12.54-1.49,16.89,.03,4.99,1.75,8.22-.98,11.73-1.31,1.53-.15,4.89,1,3.08,7.57-2.28,8.29-.43,8.09-.3,12.52,.03,.93,.01,1.78-.04,2.57"/><path class="cls-7" d="M24.55,35.87s.31,12.35,0,15.35"/><path class="cls-7" d="M40.18,35.87s.76,14.23,1.39,15.34"/><circle class="cls-6" cx="24.6" cy="49.89" r=".64"/><circle class="cls-6" cx="41.27" cy="49.92" r=".64"/></g></svg>