<?xml version="1.0" encoding="UTF-8"?><svg id="_レイヤー_2" xmlns="http://www.w3.org/2000/svg" xmlns:xlink="http://www.w3.org/1999/xlink" viewBox="0 0 46.6 94.3"><defs><style>.cls-1,.cls-2,.cls-3,.cls-4{fill:none;}.cls-5{clip-path:url(#clippath);}.cls-6{fill:#88c0dd;}.cls-6,.cls-7,.cls-8,.cls-9,.cls-2,.cls-3,.cls-4{stroke:#040000;}.cls-6,.cls-7,.cls-8,.cls-9,.cls-3{stroke-linecap:round;stroke-linejoin:round;stroke-width:.6px;}.cls-7,.cls-10{fill:#fff;}.cls-8,.cls-11{fill:#e9da21;}.cls-9{fill:#025999;}.cls-12{fill:#040000;}.cls-13{fill:#ce8a0d;}.cls-14{fill:#c68f00;}.cls-15{fill:#1961ad;}.cls-2{stroke-width:.16px;}.cls-2,.cls-4{stroke-miterlimit:10;}.cls-4{stroke-width:.19px;}</style><clipPath id="clippath"><path class="cls-1" d="M31.3,30.64l1.81,.78,.95,.83,1.39,1.69,2.03,4.99-.85,2.09,.04,3.32,1.91,1.75-2.94-1.26-1.34,.75,.97,5.32,.06,7s-2.21,2.64-6.34,3.47c-4.12,.84-8.92-.93-8.92-.93l-9.12-4.74,1.15-9.39-.13-4.47-3.67,1.85-1.43-2.62,2.18-.5,.16-2.14-.58-2.12,.68-4.51,2.8-2.2,2.45-1.07c.68,1.03,2.04,2.02,5.29,2.71,0,0,.7,2.31,3.14,2.2,2.78-.13,3.46-2.42,3.46-2.42l3.18-1.48,1.68,1.09Z"/></clipPath></defs><g><g><path class="cls-14" d="M36.8,88.84c-.37-.97-1.41-1.78-2.69-2.28-.51-.23-2.18-.92-2.14-1.31-.12-.7-.71-1.15-1.44-1.36-1.39-.71-3.44-.75-4.87,.04,0,.07-.01,.14-.02,.21,0,.07,0,.14-.01,.21-.01,.2-.06,.38-.15,.56-.17,.36-.48,.64-.87,.84-.13,.07-.26,.11-.41,.14-.02,.01-.05,.02-.08,.04-.14,.06-.3,.09-.45,.09-.15,0-.29-.03-.43-.07-.08,0-.15-.01-.21-.02,0-.01,0-.03,0-.04-.06,0-.12-.02-.18-.03-.01,0-.03,0-.05,0-.05,0-.1-.02-.15-.03,0,0-.02,0-.02,0,0,0,0,0-.01,0-.05-.01-.11-.03-.16-.05-.01,0-.02,0-.04-.01-.05-.02-.09-.03-.13-.05-.01,0-.02,0-.03-.01,0,0-.02,0-.03-.01,0,0-.01,0-.02-.01-.03-.01-.05-.03-.08-.04,0,0,0,0,0,0,0,0-.02,0-.03-.01-.04-.02-.07-.05-.11-.07-.04-.03-.08-.06-.11-.09,0,0-.02-.02-.03-.03-.03-.02-.05-.05-.07-.07-.01-.01-.02-.03-.04-.04-.02-.02-.04-.04-.06-.07-.01-.01-.02-.03-.04-.04-.02-.02-.04-.04-.05-.07-.1-.14-.19-.29-.26-.45-.02-.04-.04-.09-.06-.13,0-.02-.02-.05-.03-.08,0-.02-.01-.04-.02-.06-.03-.09-.06-.18-.09-.26,0,0,0-.01,0-.02,0-.02-.01-.03-.02-.04,0,0,0,0,0,0-.05-.09-.1-.18-.15-.29-.15-.03-.31-.06-.46-.09-.02,0-.03,0-.04,0h-.01c-.17,.03-.35,.03-.52,0-.64,.12-1.25,.3-1.8,.43-.19,.06-.37,.12-.56,.19-1.15,.12-2.13,.53-3.16,.77-.8,.29-1.96,.21-2.9,.4-4.5,.54-6.91,2.94-2.08,4.48,.41,.46,1.1,.8,1.92,1.05,.41,.33,.77,.68,1.33,.91,.17,.06,.35,.13,.53,.19,.15,.15,.31,.29,.49,.42,1.41,1.06,3.49,1.69,5.58,1.78,.25,.01,.5,.02,.75,.02,1.85,0,3.7-.32,5.25-1,.88-.34,1.65-.83,2.63-1.03,1.01-.17,2.05-.13,3.08-.1,.55,.02,1.09,.04,1.63,.03,.42-.01,.85-.07,1.26-.18,.45-.05,.88-.18,1.23-.39,1.38-.59,2.22-1.69,1.7-2.8"/><path class="cls-15" d="M31.3,30.64l1.81,.78,.95,.83,1.39,1.69,2.03,4.99-.85,2.09,.04,3.32,1.91,1.75-2.94-1.26-1.34,.75,.97,5.32,.06,7s-2.21,2.64-6.34,3.47c-4.12,.84-8.92-.93-8.92-.93l-9.12-4.74,1.15-9.39-.13-4.47-3.67,1.85-1.43-2.62,2.18-.5,.16-2.14-.58-2.12,.68-4.51,2.8-2.2,2.45-1.07c.68,1.03,2.04,2.02,5.29,2.71,0,0,.7,2.31,3.14,2.2,2.78-.13,3.46-2.42,3.46-2.42l3.18-1.48,1.68,1.09Z"/></g><g class="cls-5"><rect class="cls-10" x="3.95" y="34.9" width="40.15" height="4.64"/><rect class="cls-10" x="3.95" y="43.89" width="40.15" height="4.64"/><rect class="cls-10" x="3.95" y="52.87" width="40.15" height="4.64"/></g><path class="cls-1" d="M12.1,29.62l-2.8,2.2-.68,4.51,.58,2.12-.16,2.14-2.18,.5,1.43,2.62,3.67-1.85,.13,4.47-1.15,9.39,9.12,4.74s4.8,1.77,8.92,.93c4.12-.84,6.34-3.47,6.34-3.47l-.05-7-.97-5.32,1.34-.75,2.94,1.26-1.91-1.75-.04-3.32,.85-2.09-2.03-4.99-1.39-1.69-.95-.83-1.81-.78-1.68-1.09-3.18,1.48s-.68,2.3-3.46,2.42c-2.44,.11-3.14-2.2-3.14-2.2-3.24-.69-4.6-1.68-5.29-2.71l-2.45,1.07Z"/><path class="cls-15" d="M15.45,78.85s4.25-1.43,4.25-1.43l-.09,3.58-3.21,.78-.95-2.93Z"/><polygon class="cls-15" points="26.2 79.47 28.74 81.01 26.77 84.44 24.71 84.04 26.2 79.47"/><polygon class="cls-10" points="36.63 39.08 36.04 37.64 34.81 36.27 33.97 35.01 33.82 33.24 33.39 31.88 33.58 31.25 34.36 30.55 36 31.37 36.93 28.9 37.32 28.13 38.19 27.86 38.94 28.32 39.3 30.19 40.24 29.41 41.56 29.75 41.56 30.89 42.4 31.25 42.69 31.88 42.69 32.92 43.39 33.1 43.65 34.9 43.39 35.36 42.51 35.36 41.93 34.74 40.54 37.23 40.05 37.98 41.28 41.32 42.57 43.92 42.55 44.1 43.13 46.3 42.64 47.54 41.33 49.22 41.02 49.75 40.34 49.88 38.74 49.57 35.47 45.4 36.5 44.46 37.05 43.92 36.63 39.08"/><polygon class="cls-10" points="4.91 29.66 5.66 27.58 4.52 26.76 3.01 25.21 2.66 26.76 1.82 26.95 1.56 26.17 1.61 24.11 3.19 23.47 2.48 22.85 2.09 22.24 2.97 20.91 4.33 21.52 3.99 19.38 5.42 18.73 6.42 20.19 6.72 18.73 7.35 17.96 8.76 18.38 9.09 19.73 10.04 22.43 10.99 23.53 11.65 23.8 12.64 25.06 12.88 26.32 11.33 27.24 9.35 27.65 9.49 29.41 8.73 34.27 8.73 35.81 9.15 39 8.83 40.46 6.37 40.96 4.42 41.11 4.16 40.42 3.52 39.75 2.69 37.86 2.66 36.01 3.27 33.92 4.91 29.66"/><path class="cls-10" d="M15.44,79.3s1.59-1.39,2.34-1.41c.27,0,1.64-.38,1.64-.38l-.07-3.03,.24-1.66-4.63-1.23v5.22l.5,2.49Z"/><path class="cls-10" d="M25.85,79.97s1.49,.56,1.86,.61c.37,.05,1.24-.27,1.24-.27l1.24-5.88-1.19,.51-1.83-.4-1.32,5.43Z"/><path class="cls-10" d="M12.7,17.71l-1.39,.65-1.4,.96-.23,2.26,.44,1.59,1.57,.99,1.48,1.23s1.15,3.95,3.82,5.11c2.68,1.17,3.19,1.16,3.19,1.16,0,0,.88,1.72,1.74,1.95,.86,.23,2.45,.19,2.45,.19l1.19-.69,1.04-1.48,2.96-1.3,2.25-1.4,1.09-1.59,.95-2.31,1.23-.54,1.41-1.94v-2.15s-.67-1.58-.67-1.58l-1.9-.6-2.01-4.38-1.64-1.96s-3.54,1.35-5.88,1.42c-2.34,.07-5-.64-5-.64l-3.54-1.43s-1.78,2.31-2.21,4.13c-.43,1.82-.93,2.35-.93,2.35"/><polygon class="cls-10" points="20.53 60.37 17.74 58.98 13.43 56.7 13.07 56.66 12.98 58.32 15.11 59.21 20.53 60.37"/><polygon class="cls-15" points="11.01 18.42 12.85 17.62 13.55 15.04 15.53 11.77 16.74 11.79 19.1 12.86 21.92 13.39 24.1 13.5 28.15 12.7 30.31 12.46 31.43 13.81 33.64 18.42 35.53 19.02 35.13 16.87 33.64 12.18 31.53 9.53 29.2 8.19 27.38 7.92 23.76 6.86 19.91 7.02 17.88 8.13 14.96 9.54 13.25 11.26 11.84 14.14 10.8 17.91 11.01 18.42"/><path class="cls-11" d="M12.03,58.52l3.71,1.01,3.34,.69s5.96,1.57,6.13,1.5c.17-.07,3.54,0,3.54,0l4.9-2.53,.87,4.38,.29,8.04-5.11,3-3.3-.18-3.07-1.05-.89,1.75-2.82,.87,.31-2.93-3.33-1.07-1.83-.07-.07,3.21-5.03-2.07s0-10.46,2.37-14.54"/><path class="cls-4" d="M12.03,58.52l3.71,1.01,3.34,.69s5.96,1.57,6.13,1.5c.17-.07,3.54,0,3.54,0l4.9-2.53,.87,4.38,.29,8.04-5.11,3-3.3-.18-3.07-1.05-.89,1.75-2.82,.87,.31-2.93-3.33-1.07-1.83-.07-.07,3.21-5.03-2.07s0-10.46,2.37-14.54Z"/><polygon class="cls-11" points="24.37 83.59 26.5 84.4 27.77 87.86 26.98 88.55 24.56 88.55 23.94 87.57 24.37 83.59"/><polygon class="cls-4" points="24.37 83.59 26.5 84.4 27.77 87.86 26.98 88.55 24.56 88.55 23.94 87.57 24.37 83.59"/><polygon class="cls-11" points="19.36 81.34 19.93 83.71 19.72 85.55 17.12 86.6 15.23 86.6 15.23 85.1 16.72 82.06 19.36 81.34"/><polygon class="cls-4" points="19.36 81.34 19.93 83.71 19.72 85.55 17.12 86.6 15.23 86.6 15.23 85.1 16.72 82.06 19.36 81.34"/><path class="cls-12" d="M35.47,54.96l-.13-.06-.14-.07-.15-.07-.15-.08-.16-.08-.16-.08-.15-.07c-.02-.37-.04-.74-.06-1.12-.22-3.24-.6-6.47-.92-9.71-.13-.5,.43-.98,.86-.61,.27,.24,.12,.63,.2,.95,.12,1.12,.23,2.24,.35,3.36,.25,2.54,.52,5.08,.62,7.63h0Z"/><path class="cls-12" d="M11.24,48.89c.23-1.88,.73-3.82,.59-5.74-.3-1.49-.75-2.95-1.07-4.43-.02-.62-.86-2.06,.11-2.21,.56-.01,.57,.62,.67,1.03,.24,1.12,.52,2.24,.8,3.35,.95,2.58,.36,5.25-.05,7.88h0s0,0,0,0c0,0,0,.01,0,.02h0c-.19,1.22-.34,2.44-.46,3.67h0l-.26,.06-.25,.07-.23,.08-.22,.08-.09,.04c.12-1.31,.28-2.62,.47-3.92"/><path class="cls-12" d="M12.28,48.78s0,0,0,0c0,0,0,.02,0,.02,0,0,0-.01,0-.02"/><path class="cls-12" d="M12.28,48.81s0,.01,0,.02h0s0,0,0-.02"/><path class="cls-12" d="M6.66,41.46c-.2-.64,.75-.96,.97-.33,.18,.55,.41,1.09,.69,1.61,.41-1.55,.47-3.18,.3-4.76-.13-.84-.24-1.7-.49-2.51-.2-.57,.63-.94,.92-.43h0c.75,2.4,.9,5.05,.37,7.52-.16,.53-.23,1.22-.73,1.53-.09,.04-.18,.05-.26,.05-.91,0-1.47-2.02-1.76-2.69"/><path class="cls-12" d="M8.25,43.37c.56-.27,1.09-.59,1.64-.89,.52-.3,1.03-.62,1.55-.92,.32-.28,.87-.12,.9,.33,.02,.23-.13,.46-.35,.53-1.09,.64-2.16,1.32-3.29,1.88-.08,.04-.16,.05-.23,.05-.47,0-.74-.72-.22-.98"/><path class="cls-12" d="M34.7,46.68c-.27-.34-.51-.7-.73-1.08-.22-.39,.23-.88,.63-.71,.02,0,.04,.02,.05,.03,0,.01,0,.03,0,.04,0,.01,0,.02,0,.04,0,0,0,0,0,0,0,0,0,.02,0,.03,.03,.2,.06,.4,.09,.6,0,.03,0,.06,.01,.09h0s0,0,0,0h0s0,0,0,0h0s0,.01,0,.02c0,0,0,0,0,.01,0,0,0,0,0,0,0,.02,0,.05,.01,.07,0,0,0,0,0,.01,0,.04,.01,.08,.02,.13,0,.07,.02,.14,.03,.21,.02,.19,.05,.38,.07,.58,0,.01,0,.02,0,.04,0,.06,.01,.12,.02,.17-.09-.1-.17-.2-.25-.29"/><path class="cls-12" d="M34.8,45.83s0,0,0,.01c0,0,0,0,0-.01"/><path class="cls-12" d="M34.78,45.63s0,0,0,.01c0,0,0,0,0-.01"/><path class="cls-12" d="M33.73,43.09c.42-1.17,.82-2.35,1.22-3.53h0c.1-.58,1-.5,1.01,.08-.32,1.29-.84,2.54-1.27,3.8-.09,.23-.27,.33-.46,.33-.32,0-.64-.29-.5-.68"/><path class="cls-12" d="M9.86,25.11c.42-.25,1.28-.61,1.45,.09,.05,.27-.13,.55-.41,.6-.5,.04-.89,.44-.68,.95,.58-.22,1.21-.26,1.78-.49,.2-.33,.19-.79,.07-1.15-.2-.44-.71-.57-1.08-.83-1.48-1.05-2.19-3.56-2.6-5.27-.13-.79,.99-.87,1.03-.07,.37,1.46,.83,3.05,1.81,4.22,.24,.26,.57,.4,.87,.58,.79,.41,1.18,1.3,1.05,2.17-.11,1.62-1.42,1.39-2.57,1.81-.15,.05-.29,.07-.41,.07-1.23,0-1.37-2.07-.33-2.68"/><path class="cls-12" d="M6.23,19.69c.13-.51,.14-1.13,.56-1.5,.29-.25,.69-.25,1.05-.22,.5,.06,1.47,.05,1.54,.71,.01,.48-.5,.67-.87,.43-.35-.09-.71-.12-1.06-.12-.1,.24-.13,.51-.18,.76-.02,.26-.35,.94,.06,.99,.45-.08,.36-.77,1-.58,.87,.45-.16,1.52-.8,1.59-.08,0-.15,.01-.22,.01-1.07,0-1.39-1.13-1.06-2.08"/><path class="cls-12" d="M3.89,21.71c-.05-.57-.11-1.14-.09-1.71,.03-.64,.5-1.14,1.07-1.35,.64-.32,1.27-.16,1.56,.53,.13,.24,.32,.51,.51,.74,.18,.18,.23,.48,.08,.69-.2,.3-.67,.29-.85-.02-.28-.32-.51-.68-.71-1.05-.81,.18-.65,.66-.61,1.32,.04,.29-.02,.63,.12,.9,.26,.05,.42-.29,.46-.5,.06-.27,.34-.45,.61-.39,.98,.34-.06,1.8-.75,1.9-.09,.03-.18,.04-.27,.04-.58,0-1.08-.5-1.13-1.09"/><path class="cls-12" d="M2.35,23.7c-.29-.43-.76-.86-.66-1.43,.1-.45,.39-.85,.66-1.22,.24-.36,.65-.72,1.11-.52,.43,.22,.8,.54,1.21,.79,.3,.24,.15,.8-.23,.87,.33,.68,.17,1.73-.54,2.1-.15,.08-.31,.12-.46,.12-.44,0-.86-.32-1.1-.71m.36-1.27c.22,.33,.44,.68,.72,.96,.22-.14,.18-.52,.12-.74-.09-.26,.05-.54,.3-.64-.08-.04-.15-.09-.22-.14-.13-.09-.26-.19-.38-.28-.2,.26-.41,.53-.53,.84"/><path class="cls-12" d="M3.33,26.5c-.42,.74-1.45,1.14-1.98,.29-.17-.3-.17-.64-.22-.97-.04-.41-.18-.84-.08-1.25,.12-.5,.53-.81,.96-1.05,.23-.27,.63-.41,.89-.1,.5,.74-.58,.93-.86,1.38,0,.48,.12,.95,.16,1.43,.32-.19,.34-.62,.59-.86,.32-.29,.74-.09,.99,.18,.67,.53,1.41,1.15,2.29,1.23,.6,0,2.01-.63,2.05,.39-.03,.41-.45,.52-.79,.46-.28-.02-.55,.1-.82,.14-.14,.02-.27,.04-.41,.04-1.04,0-1.98-.68-2.78-1.3"/><path class="cls-12" d="M7.55,38.88c-.61-.25-.18-.94-.08-1.39,0,.01,0,.02-.01,.04,.8-3.3,1.43-6.76,1.6-10.16,.04-.25-.03-.53,.15-.73,.28-.34,.88-.13,.89,.31-.15,3.65-.79,7.27-1.65,10.81-.07,.25-.15,.52-.25,.8-.07,.21-.28,.34-.49,.34-.06,0-.11,0-.17-.03"/><path class="cls-12" d="M2.51,38.4c-.81-2.21,.32-4.41,1.13-6.45,.48-1.18,.96-2.36,1.46-3.53,.18-.39,.29-.81,.5-1.18,.28-.34,.89-.13,.89,.32-.25,1.05-.81,2.03-1.19,3.04-.36,.91-.74,1.81-1.11,2.71-.77,1.88-1.4,3.45-.48,5.43,.32,.64,.71,1.68,1.46,1.85,1.14,.05,2.3-.13,3.41-.42,.64-.2,.95,.76,.32,.98-.19,.06-.39,.11-.58,.16-.89,.19-1.8,.29-2.7,.34-.07,0-.15,0-.22,0-1.64,0-2.43-1.88-2.89-3.24"/><path class="cls-12" d="M19.38,31.97c-.22-.64,.73-.98,.96-.35,.82,2.08,3.27,2.17,4.85,.9,.33-.27,.61-.58,.87-.92,.15-.25,.28-.59,.64-.56,1.36,.37-.58,2.07-1.11,2.46-.61,.43-1.31,.71-2.05,.83-.23,.05-.47,.08-.7,.08-1.49,0-2.93-1.01-3.45-2.44"/><path class="cls-12" d="M30.5,29.42c-.07-.05-.11-.12-.14-.19,.22-.06,.44-.13,.65-.2,.22-.07,.44-.14,.67-.22,0,0,0,0,.01,0-.02,.02-.04,.03-.06,.05-.11,.09-.22,.19-.33,.29-.12,.11-.23,.22-.34,.34-.02,.02-.04,.04-.05,.06-.14,0-.28-.01-.41-.12"/><path class="cls-12" d="M8.94,31.55c.34-.36,.75-.66,1.15-.96,1.37-1.03,2.85-1.96,4.51-2.43,.59-.21,.96,.66,.4,.94-1.41,.41-2.71,1.13-3.89,2.01-.48,.35-.98,.68-1.4,1.1-.09,.1-.2,.16-.34,.18-.02,0-.04,0-.06,0-.4,0-.66-.54-.37-.85"/><path class="cls-12" d="M35.88,37.47c-.08-.03-.15-.06-.23-.08-.06-.02-.13-.01-.19,0,0,0,0,0,0,0-.48-.45-.93-.95-1.26-1.52-.39-.71-.56-1.52-.79-2.3,0-.01,0-.02,.01-.04,.02-.08,0-.15,0-.23,0-.06-.03-.11-.04-.17-.02-.08-.04-.15-.06-.23-.02-.07-.04-.14-.06-.21-.01-.04-.03-.08-.04-.12-.01-.04-.03-.09-.05-.13-.02-.04-.05-.07-.08-.1-.02-.12-.03-.24-.04-.36-.06-.95,.91-2.58,1.99-2.24,.25,.1,.45,.31,.66,.48,.28,.22,.6,.41,.84,.68,.49,.51,.45,1.44-.17,1.83-.55,.35-1.98,.3-1.9-.59,.04-.22,.24-.4,.47-.41,.12,0,.22,.04,.32,.09,.13,.06,.26,.12,.42,.08,.67-.14-.83-.96-.97-1.17-1.11,.86-.46,1.92-.18,3.02,.16,.56,.3,1.13,.58,1.64,.2,.35,.47,.66,.75,.96,.29,.25,.66,.63,.33,1.01-.06,.06-.13,.11-.21,.14-.03,0-.06-.02-.09-.03"/><path class="cls-12" d="M33.29,33.11s0-.01,0-.02c0,.01,0,.03,.01,.04,0,0,0-.01,0-.02"/><path class="cls-12" d="M34.46,32.14s0,0,0,0c0,.03,0,.07,0,.1,0-.04,0-.07,.01-.11"/><path class="cls-12" d="M35.86,31.25c-.31-.53,.46-1.67,.67-2.22,.33-.59,.61-1.4,1.33-1.59,.6-.1,1.42,.15,1.64,.78,.1,.36,.08,.76,.08,1.13,0,.38,.05,.8-.14,1.15-.56,1.03-1.96,.56-2.28-.42-.15,.35-.33,.7-.39,1.08-.07,.22-.28,.34-.49,.34-.17,0-.33-.08-.43-.24m2.03-2.57c.15,.44,.04,1.17,.58,1.36,.22,.04,.07-1.29,.07-1.49h0c-.12-.06-.24-.11-.34-.11-.12,0-.23,.06-.3,.24"/><path class="cls-12" d="M39.16,31.01s-.03,.03-.04,.04c-.12,.12-.23,.24-.35,.36,.02-.02,.03-.03,.05-.05-.26,.28-.61,.7-1.02,.42-.49-.41-.07-.81,.27-1.12,.6-.59,1.21-1.26,1.98-1.62,.56-.11,1.37,.07,1.72,.55,.31,.56,.02,1.22-.02,1.82-.03,.4-.19,.83-.58,.99-.15,.07-.31,.1-.46,.1-.76,0-1.46-.73-1.54-1.49m.82-.72s-.07,.05-.1,.08c.23,.1,.31,.35,.31,.59,.08,.23,.26,.48,.52,.51,.06-.39,.14-.88,.18-1.31-.18-.08-.32-.12-.44-.12-.15,0-.28,.07-.47,.25,.02-.01,.03-.02,.05-.04-.01,.01-.03,.02-.04,.03"/><path class="cls-12" d="M39.15,32c.08-.15,.16-.3,.25-.45,.33-.57,1.21-.08,.89,.51-.08,.12-.17,.28-.23,.41-.1,.19-.27,.28-.43,.28-.34,0-.68-.34-.48-.75m.19-.27s.02-.09,.04-.13c-.02,.04-.04,.09-.04,.13"/><polyline class="cls-12" points="40.29 32.06 40.29 32.06 40.29 32.06"/><polyline class="cls-12" points="40.29 32.05 40.29 32.06 40.29 32.06 40.29 32.05"/><path class="cls-12" d="M40.7,32.96c-.14-.37-.34-.88-.07-1.23,.28-.34,.89-.13,.89,.32,0,.33,.14,.74,.48,.85,0-.4,.05-.76-.02-1.17-.32-.19-.86-.25-.88-.71,0,0,0,0,0,0-.03-.4,.43-.69,.77-.47,.26,.14,.6,.23,.83,.44,.45,.46,.32,1.17,.32,1.76,.04,.5-.1,1.11-.68,1.19-.07,.01-.14,.02-.22,.02-.62,0-1.19-.43-1.43-.99"/><path class="cls-12" d="M40.5,33.15c.12-.21,.27-.46,.54-.46,.27-.01,.54,.21,.54,.49,.01,.22-.14,.39-.24,.57,0,0,0,0,0-.01,0,0,0,0,0,.01,0,0,0,0,0,0-.07,.1-.16,.18-.28,.23-.06,.02-.11,.03-.16,.03-.39,0-.68-.52-.39-.85"/><path class="cls-12" d="M41.33,33.75h0s0,.01-.01,.02c0,0,0-.01,.01-.02"/><polygon class="cls-12" points="41.33 33.75 41.33 33.75 41.33 33.75 41.33 33.75"/><polyline class="cls-12" points="41.33 33.75 41.33 33.75 41.33 33.75 41.33 33.75"/><path class="cls-12" d="M39.37,37.08c.44-.13,.77-.49,1.05-.83,.59-.65,.53-1.99,1.61-2.05,.53-.05,.71,.59,1.18,.68-.13-.35-.24-.7-.35-1.06-.26-.09-.57-.25-.57-.57-.01-.28,.2-.53,.48-.54,1.17,.21,1.01,.9,1.39,1.81,.58,1.57-1.32,1.78-2.14,.8-.26,.74-.66,1.5-1.23,2.06-.09,.02-.17,.06-.24,.13-.07,.07-.13,.15-.2,.22-.24,.16-.51,.29-.81,.37-.04,0-.07,0-.1,0-.57,0-.7-.88-.09-1.02"/><path class="cls-12" d="M36.03,39.21s0,0,.01,.01t0,0s0,.01,0,.02c0-.01,0-.02,0-.03"/><path class="cls-12" d="M36,37.5s-.08-.02-.12-.04c-.08-.03-.15-.06-.23-.08-.04-.01-.09-.01-.13,0-.03-.13-.05-.26,0-.4,.13-.42,.77-.46,.94-.05,.08,.25,.15,.49,.22,.74-.23-.05-.45-.1-.67-.17"/><path class="cls-12" d="M39.48,37.68c-.01-.28,.2-.53,.48-.54,.26,.01,.44,.17,.6,.36-.07,.07-.13,.15-.19,.22-.03,.04-.07,.07-.1,.11-.04,.03-.08,.06-.12,.09-.04,.03-.08,.06-.12,.1-.03,0-.05,.02-.08,.03-.06,.02-.11,.04-.17,.07-.03-.01-.05-.03-.08-.04,0,0,0,0,0,0,0,0,0,0,0,0,.02,.01,.05,.03,.07,.04-.01,0-.03,.01-.04,.02-.11-.13-.26-.29-.25-.46"/><path class="cls-12" d="M37.13,48.18s0,0,0,0c.01,.02,.02,.04,.04,.06,0,0-.01,0-.02,.01,0-.03-.01-.05-.02-.08"/><path class="cls-12" d="M33.4,33.26s-.02-.08-.03-.13c-.02-.08-.04-.15-.06-.23-.02-.07-.04-.14-.06-.21-.01-.04-.03-.08-.04-.12-.01-.04-.03-.09-.05-.13-.03-.05-.06-.08-.1-.12-.01,0-.02-.02-.04-.03,0,0,0,0,0-.01,0-.05,0-.1-.01-.15,0-.03,0-.05,0-.08,0,0,0-.02,0-.03,.14,.05,.27,.1,.41,.15,.4,.11,.8,.32,.61,.81-.11,.21-.28,.29-.46,.29-.05,0-.1,0-.15-.01"/><path class="cls-12" d="M33.28,33.11s0,0,0,0c0,0,0,.01,0,.02,0,0,0-.02,0-.02"/><path class="cls-12" d="M36.99,45.81c-.37-1.55-.6-3.13-.87-4.71-.16-.88-.36-1.76-.46-2.65,0-.53-.35-1.49,.37-1.65,.33-.04,.63,.26,.57,.59,0,.43,.06,.85,.12,1.27,.15,.95,.35,1.88,.51,2.83,.16,.91,.28,1.82,.46,2.72,.03,.55,.68,1.74-.07,1.96-.04,.01-.09,.02-.13,.02-.22,0-.45-.15-.5-.38"/><path class="cls-12" d="M36,46.95c-.28-.43-.55-.88-.79-1.34-.33-.59,.54-1.1,.88-.52,.72,1.31,1.56,2.59,2.63,3.63,1.04,1.03,1.71,.71,2.6-.28,2.17-2.64,.79-4.07-.38-6.73-.46-1-.95-1.89-1.41-2.9-.11-.24-.2-.48-.32-.7-.11-.13-.16-.32-.11-.48,.07-.27,.36-.43,.63-.36,.52,.18,.78,1.4,1.09,1.88,.74,1.51,1.58,3.14,2.23,4.74,.61,1.29,.6,2.84-.18,4.06-.57,1.01-1.39,2.11-2.56,2.41-.12,.02-.24,.03-.36,.03-1.76,0-3-2.16-3.95-3.43"/><path class="cls-12" d="M33.91,46.05c.56-.72,1.28-1.29,1.91-1.94,.25-.25,.5-.5,.75-.75,.09-.13,.25-.22,.41-.22,.39,0,.64,.44,.44,.78-.83,.99-1.88,1.77-2.7,2.76-.11,.14-.25,.2-.38,.2-.37,0-.72-.44-.42-.83"/><path class="cls-12" d="M33.08,31.82c-.84-.55-1.71-1.1-2.7-1.29-.09-.03-.19-.03-.28-.02-.1,0-.2,.02-.3-.03-.51-.21-.33-1,.21-1.01,.98,0,1.91,.45,2.75,.94,.34,.27,1.16,.58,1.46,1.02,0,0,0,0,0,.01-.01,.02-.03,.04-.04,.07,0,.01,0,.02-.01,.04,0,0,0,0,0,.01,0,.02,0,.03,0,.05,0,.03-.01,.06-.01,.09,0,0,0,0,0,0h0s0,0,0,0h0s0,0,0,0h0c-.02,.1-.04,.21-.04,.31,0,.05,0,.11,0,.16-.08,.05-.16,.08-.24,.08-.27,0-.55-.25-.78-.42"/><path class="cls-12" d="M34.43,58.15c.06-1.38,.04-2.74-.03-4.13l.15,.07,.16,.08,.16,.08,.15,.08,.15,.07,.14,.07,.13,.06h0c.05,1.24,.06,2.48,0,3.72-.02,.31-.26,.46-.49,.46-.27,0-.55-.19-.52-.54"/><path class="cls-12" d="M11.08,55.9c-.27,0-.55-.19-.52-.54,.07-1,.15-2,.25-3l.09-.04,.22-.08,.23-.08,.25-.07,.26-.06h0c-.11,1.14-.21,2.28-.29,3.41-.02,.31-.26,.46-.49,.46h0Z"/><path class="cls-12" d="M12.74,56.64c-.5-.22-1-.42-1.51-.61-.63-.22-.26-1.2,.35-.97,.93,.33,1.84,.73,2.72,1.18,7.87,4.33,11.96,7.85,20.35,1.73-.02,0-.04,0-.06,0,.43-.11,.78,.45,.51,.8-.97,.78-1.98,1.56-3.11,2.09-1.41,.65-2.9,1.17-4.45,1.33-.43,.05-.86,.08-1.27,.08-4.98,0-9.12-3.66-13.53-5.64"/><path class="cls-12" d="M12.83,58.51s0,0-.01,0c-.13-.08-.23-.22-.23-.43-.02-.53-.01-1.06-.02-1.59-.08-.32,.17-.64,.49-.64,.86,.03,.42,1.62,.54,2.23,0,.34-.25,.5-.51,.5-.09,0-.19-.02-.27-.07m0-1.69c-.07-.04-.13-.09-.18-.15,0,0,0,0,0,0h0c.05,.06,.1,.11,.17,.14"/><path class="cls-12" d="M21.15,61.08c-2.21-.35-4.44-.77-6.56-1.54-.23-.08-.46-.17-.69-.26-.04-.02-.08-.04-.11-.06-.15-.12-.3-.23-.46-.33-.06-.07-.13-.14-.21-.19-.08-.05-.15-.1-.23-.14-.02-.24,.11-.5,.37-.56,.14-.04,.28,0,.41,.06,.9,.43,1.86,.72,2.81,1.02,1.57,.48,3.19,.7,4.8,1,.56,.14,.44,1.01-.12,1.01,0,0,0,0-.01,0"/><path class="cls-12" d="M13.12,58.69c-.2-.13-.42-.26-.63-.37-.06-.03-.12-.07-.18-.1,.23-.71,1.26-.27,.93,.46,0,.02-.01,.05-.02,.07-.03-.02-.06-.05-.09-.07"/><path class="cls-12" d="M34.33,58.87c-.24-.54,.51-.99,.87-.52,.07,.13,.12,.26,.16,.4-.01,0-.02,0-.03,.01-.06,.02-.12,.05-.18,.09-.19,.07-.34,.24-.45,.43-.08,.06-.15,.12-.21,.19-.05-.2-.11-.4-.16-.61"/><path class="cls-12" d="M13.65,59.33c-.28-.07-.55-.16-.82-.24-.21-.07-.43-.14-.64-.22-.65,.3-1.06-.82-.41-1.06,.72-.11,1.4,.42,2.11,.53,.59,.15,.42,1.02-.11,1.02-.04,0-.09,0-.14-.02"/><path class="cls-12" d="M11.13,59.01s.05-.08,.08-.12c.03-.04,.05-.08,.08-.12,.05,0,.1-.02,.15-.04,.12-.04,.24-.09,.34-.18,.01,0,.02-.02,.03-.03,.04,.02,.08,.05,.12,.07,.02,.01,.04,.03,.06,.04,0,0,0,0,0,0,0,.33-.26,.51-.53,.51-.13,0-.26-.04-.35-.13"/><path class="cls-12" d="M11.93,56.75s0,0,0,0c-.01-.04-.03-.08-.06-.11,0-.02,.02-.04,.03-.06,.03-.06,.05-.12,.08-.18,0,.12,0,.25,0,.37-.01,0-.02-.01-.04-.02"/><path class="cls-12" d="M11.65,55.73c-.1,0-.2,0-.29,.05-.05,.03-.1,.06-.14,.11,0-.01,0-.02,0-.04-.01-.19-.04-.38-.05-.56,0-.03,0-.05,0-.08,0,0,.01,.02,.02,.03,0-.01-.01-.02-.02-.03h0s.02,.02,.03,.03c.05,.08,.1,.15,.17,.22,.17,.17,.39,.25,.61,.27,0,.08,0,.16,0,.24-.06-.13-.18-.23-.33-.24"/><path class="cls-12" d="M10.99,54.93s.04,.07,.07,.1c-.02,0-.05,0-.07,0,0-.04,0-.07,0-.11"/><path class="cls-12" d="M23.75,62.04s-.03,0-.04,0c0,0,0,0,.01-.01,.07,0,.13-.03,.19-.05,.13-.05,.24-.15,.35-.23,.01,0,.02-.01,.03-.02,.03,.01,.07,.02,.1,.04,.05,.04,.09,.08,.14,.11-.2,.08-.41,.15-.62,.22-.06-.01-.12-.03-.18-.04"/><polyline class="cls-12" points="12.01 59.77 12.01 59.76 12.01 59.77"/><path class="cls-12" d="M11.32,59.22c-.09-.12-.11-.26-.08-.39,.02-.02,.03-.05,.05-.07,.05,0,.1-.02,.15-.04,.12-.04,.24-.1,.34-.18,.01,0,.02-.02,.03-.03,.04,.02,.08,.05,.12,.07,.02,.01,.04,.02,.06,.04,.03,.03,.07,.06,.1,.09,0,.07,0,.13,0,.2,0,.11,.01,.22,.02,.32-.05,.09-.04,.2-.04,.3,0,0,0,.01,0,.02-.03,.05-.05,.11-.06,.16,0,0,0,0,0,.01,0,0,0,0,0-.01,0,0,0,0,0,0h0s0,.02,0,.02c0,0,0,0,0,0,0,0,0,.01,0,.02h0s0,0,0,0c0,0,0,0,0,0-.23-.18-.46-.36-.69-.55"/><polyline class="cls-12" points="12.02 59.75 12.02 59.76 12.02 59.75"/><path class="cls-12" d="M12.03,59.71s0,.01,0,.02c0,0,0-.01,0-.02"/><path class="cls-12" d="M34.67,71.08c.02-3.86-.2-7.76-1.27-11.47,.05-.03,.1-.07,.15-.1,.06-.04,.12-.08,.18-.12,.16-.11,.32-.22,.48-.34,.03-.02,.05-.04,.08-.06,.69,2.39,1.13,4.86,1.27,7.34,.1,1.58,.13,3.16,.14,4.75,0,.33-.26,.5-.51,.5s-.5-.17-.51-.5"/><path class="cls-12" d="M28.41,74.84c-1.86-.11-3.75-.59-5.38-1.49-.05-.04-.09-.08-.13-.13,0-.03,0-.06,0-.09,0-.03,0-.07,0-.1,0,0,0-.01,0-.02,0-.05,.01-.1,.02-.15,0-.04,0-.08,.01-.12,0-.03,0-.05,.01-.08,0-.04,.01-.07,.02-.11,.18-.17,.46-.22,.71,.02,1.42,.68,2.96,1.12,4.53,1.24,1.69,.12,3.39-.32,4.77-1.31,.45-.31,.88-.65,1.29-1.01,.31-.29,.72-.83,1.15-.41,.43,.44-.17,.92-.47,1.17-.46,.41-.94,.78-1.44,1.13-1.39,.97-3.04,1.48-4.72,1.48-.13,0-.27,0-.4,0"/><path class="cls-12" d="M23.12,74.6c-.3-.08-.44-.41-.34-.69,.16-.79,.26-1.59,.34-2.39,.17-1.7,.23-3.41,.28-5.11h.01s.06-.03,.06-.03l.06-.03,.06-.03,.07-.03,.07-.03,.07-.03,.07-.03,.07-.03,.07-.03,.07-.03,.07-.03,.06-.03,.06-.03,.06-.03,.06-.03,.04-.02c-.07,2.19-.13,4.38-.4,6.56-.07,.58-.17,1.16-.29,1.74-.05,.23-.28,.38-.5,.38-.04,0-.09,0-.13-.02"/><path class="cls-12" d="M9.2,72.41c-.17-2.31,.03-4.64,.4-6.92,.28-1.77,.77-3.49,1.2-5.22,.12-.41,.17-.86,.33-1.27,.03-.04,.05-.08,.08-.12,.03-.04,.05-.08,.08-.12,.05-.01,.1-.02,.15-.04,.09-.03,.18-.07,.26-.12,.18,.03,.34,.16,.41,.32,0,.1,.01,.19,.02,.29,0,.03-.02,.06-.03,.1-1.12,4.23-2.21,8.58-1.88,12.98,0,0,0,0,0-.02h0c.04,.36-.24,.56-.52,.56-.23,0-.45-.14-.49-.43"/><path class="cls-12" d="M22.67,74.62c-3.56-2.12-7.41-3.32-11.5-2.1-.34,.11-.7,.21-.99,.43-.56,.32-1.06-.6-.49-.9,2.22-1.16,5.26-1.27,7.68-.75,1.79,.43,3.59,1.22,5.2,2.07,.4,.23,1.14,.52,.81,1.1-.1,.15-.26,.24-.44,.24-.09,0-.19-.03-.27-.08m-12.24-1.99s.02-.09,.02-.14c0,.05,0,.09-.02,.14"/><path class="cls-12" d="M15.81,81.54c-.79-2.09-1.3-4.29-1.52-6.51,0-.69-.52-3.92,.48-3.84,.52,.02,.54,.57,.45,.96-.1,2.25,.23,4.4,.77,6.55,.22,.83,.47,1.66,.78,2.46,.16,.39-.18,.7-.5,.7-.18,0-.36-.09-.44-.32"/><path class="cls-12" d="M19.24,80.69c-.3-2.38-.3-4.8,.06-7.17,.03-.21,.07-.51,.15-.76,0,.05,0,.1,.01,.15,0,0,0,0,0,.01-.02-.05-.02-.11-.02-.16,.12-.39,.35-.68,.83-.38,.38,.34,.06,.87,.03,1.3-.18,1.11-.24,2.1-.26,3.19-.02,1.24,.05,2.47,.21,3.7,.05,.36-.24,.56-.52,.56-.23,0-.46-.14-.49-.44"/><path class="cls-12" d="M19.45,72.74s0,.01,0,.02h0s0-.01,0-.02"/><path class="cls-12" d="M15.43,79.19c-1.16-.86,1.37-2.15,2.12-2.19,.59-.05,2-.38,1.98,.56-.04,.27-.31,.48-.58,.43-.91-.14-1.89,.07-2.61,.67-.25,.22-.35,.59-.68,.59-.07,0-.14-.02-.23-.05m0-.93s.1-.04,.13-.04c-.05,0-.09,.02-.13,.04"/><path class="cls-12" d="M16.28,82.37c-1.22-1.19,2.57-2.08,3.34-1.95,.67,.02,.65,1.03-.01,1.03-.87,0-1.75,.19-2.5,.65-.17,.16-.36,.35-.58,.35-.08,0-.16-.02-.25-.08m.72-.22c.05-.09,.06-.2,.05-.3,.01,.1,0,.2-.05,.3"/><path class="cls-12" d="M24.81,83.47c-.26-.08-.43-.37-.35-.64,.16-.51,.3-1.02,.43-1.54,.62-2.29,1.14-4.61,1.44-6.96,.02-.63,.96-.66,1.02-.04-.09,1.05-.29,2.09-.49,3.13-.32,1.56-.7,3.1-1.12,4.64-.19,.46-.18,1.43-.8,1.43-.04,0-.09,0-.14-.02"/><path class="cls-12" d="M26.6,84.12c-.56-.55,.34-1.16,.53-1.69,.66-1.14,1.27-2.32,1.76-3.54,.37-1.07,.57-2.17,.7-3.29,.04-.34,.08-.67,.1-1.01-.07-.6,.87-.76,1-.17,0,.02,0,.03,0,.05,0,0,0,.02,0,.01-.1,2.48-.71,4.94-1.94,7.09-.41,.77-.82,1.53-1.3,2.26-.11,.23-.33,.41-.56,.41-.1,0-.21-.03-.31-.11"/><path class="cls-12" d="M27.12,80.69c-.66-.21-1.57-.6-1.7-1.36,0-.53,.77-.69,.97-.21,.28,.31,.67,.5,1.07,.59,.18,.07,.41,.04,.63,.02,.39-.04,.77-.09,.9,.36,.06,.56-.42,.69-.94,.69-.34,0-.7-.06-.93-.1"/><path class="cls-12" d="M26.74,84.5c-.5,0-.99-.17-1.44-.38-.39-.21-.94-.5-.89-1.02,.04-.34,.41-.54,.72-.4,.44,.45,1.01,.79,1.67,.78,.38-.02,.56,.25,.55,.52,0,.26-.18,.52-.52,.52-.03,0-.06,0-.09,0"/><path class="cls-12" d="M24.93,88.95c-1.11-.03-1.22-1.25-1.15-2.12,.08-1.1,0-2.26,.45-3.28,.43-1.4,1.64-.7,1.11,.05-.33,.54-.43,1.17-.46,1.79-.03,.83-.19,1.69-.02,2.51,.84,.16,1.69-.19,2.51-.36,.27-.07,.55,.1,.62,.37s-.1,.56-.37,.63c-.79,.19-1.58,.43-2.39,.43-.1,0-.2,0-.3-.01m.14-5.2c.07-.01,.14-.05,.2-.09-.06,.04-.12,.08-.2,.09"/><path class="cls-12" d="M27.5,88.38c-.26-.26-.1-.6,.07-.83,.05-.88-.5-1.68-.74-2.51-.1-.3-.28-.58-.26-.9,.05-.51,.81-.6,.98-.12,.29,1.32,1.73,3.16,.67,4.38-.09,.1-.21,.14-.34,.14-.14,0-.28-.06-.38-.16"/><path class="cls-12" d="M15.1,87.32c-1.53-.81-.42-2.68,.02-3.85,.27-.62,.51-1.26,.79-1.88,.19-.33,.71-.33,.88,.02,.28,.37-1.06,2.8-1.21,3.47-.87,2.03,.73,1.14,1.85,.85,.4-.13,.8-.26,1.2-.39,.42-.13,.81,.4,.56,.77-.32,.38-.97,.38-1.38,.58-.68,.17-1.41,.52-2.13,.52-.19,0-.39-.02-.58-.09"/><path class="cls-12" d="M18.67,86.17c-.18-.45,.26-.65,.55-.84,.87-.59,.31-3.39,.09-4.32-.13-.42,.4-.82,.76-.57,.6,.52,.7,3.66,.53,4.48,0,.54-.84,1.56-1.47,1.56-.19,0-.35-.09-.47-.32"/><path class="cls-12" d="M14.08,74.89c-1.06-.24-2.12-.53-3.15-.91-.6-.24-1.17-.59-1.66-1-.34-.45,.24-1.05,.71-.73,.31,.21,.58,.41,.9,.58,1.11,.52,2.31,.79,3.49,1.08,.58,.16,.39,1.01-.13,1.01-.05,0-.1,0-.16-.03"/><path class="cls-12" d="M19.64,75.78c-.35,0-.52-.26-.52-.52,0-.28,.2-.55,.57-.51,1.08,0,2.16-.17,3.14-.65,.61-.51,1.36,.32,.68,.8-1.18,.66-2.55,.87-3.88,.88h0Z"/><path class="cls-12" d="M23.38,66.66c.04-.61-.03-1.26,.23-1.83,.31-.38,.49-.95,.94-1.17,.42-.14,.81,.38,.58,.76-.26,.45-.72,.82-.69,1.38-.02,.42-.03,.85-.04,1.27l-.04,.02-.06,.03-.06,.03-.06,.03-.06,.03-.07,.03-.07,.03-.07,.03-.07,.03-.07,.03-.07,.03-.07,.03-.07,.03-.06,.03-.06,.03-.06,.03h-.01c0-.28,.02-.57,.02-.86m1.44-2.01h0s.04-.01,.06-.02c.04-.02,.08-.04,.11-.07-.05,.04-.11,.07-.17,.09"/><path class="cls-12" d="M22.21,33.46s-.07-.05-.1-.08h0c.08-.08,.15-.17,.22-.27,.26,.1,.52,.17,.79,.2-.01,0-.03,.02-.04,.03-.19,.14-.38,.28-.57,.42-.08-.12-.18-.22-.29-.31"/><path class="cls-12" d="M11.54,59.5c-.47-.13-.38-.65-.27-1.01,.03-.34,.32-.7,.69-.57,.43,.11,.42,.56,.28,.91-.03,.37-.27,.79-.7,.67m.09-.61c-.06-.03-.12-.06-.17-.11,.05,.05,.1,.08,.16,.11h0s0,0,0,0"/><path class="cls-12" d="M22.08,32.22c-1.64-.28-3.29-.65-4.75-1.5-1.07-.6-2.16-1.25-2.96-2.21-.77-.92-1.34-1.93-1.75-2.99,.02-.14,0-.29-.07-.41-.04-.06-.08-.12-.13-.17-1.14-3.6-.4-7.72,1.36-11.09,.38-.7,.81-1.37,1.29-2.01,.29-.36,.65-.93,1.14-.58,.34,.27,.19,.7-.1,.93-.27,.31-.5,.65-.73,.98-.68,1-1.23,2.15-1.61,3.29-.56,1.72-.99,3.47-.89,5.28,.15,1.89,.61,3.78,1.7,5.35,.95,1.54,2.59,2.44,4.17,3.21,1.14,.52,2.38,.71,3.59,.95,.59,.16,.41,1.01-.12,1.01-.05,0-.09,0-.15-.02"/><path class="cls-12" d="M23.29,32.34c-.49-.05-1.41,.15-1.39-.6,.11-.7,.92-.39,1.4-.43,3.21,.2,6.11-.95,8.18-3.47,1.13-1.26,1.61-2.9,1.87-4.53,.43-2.43-.14-4.8-.95-7.07-.5-1.21-1.07-2.25-1.79-3.31-.24-.38-.87-.76-.45-1.24,.65-.56,1.15,.52,1.5,.96,.55,.86,1.03,1.76,1.46,2.68,.65,1.59,1.15,3.27,1.32,4.99,0,0,0-.02,0-.03,0,0,0,0,0-.04,.24,2.39-.17,5.06-1.38,7.15-2.19,3.42-5.75,5.19-9.76,4.94"/><path class="cls-12" d="M23.57,13.64c-2.64-.1-5.41-.54-7.69-1.96-.54-.27-.23-1.13,.37-.96,.63,.38,1.29,.72,1.99,.96,1.37,.48,2.67,.73,4.08,.85,2.28,.24,4.47,0,6.57-.87,.36-.13,.73-.24,1.08-.4,.62-.24,1,.7,.37,.96-2.15,.88-4.43,1.58-6.78,1.42"/><path class="cls-12" d="M12.7,25.79s-.09-.02-.14-.03c0-.02,.01-.05,.01-.07,.09-.18,.09-.4-.02-.59-.17-.29-.51-.47-.84-.44-.02-.01-.04-.03-.06-.04-.05-.03-.1-.07-.15-.1h0s-.07-.05-.11-.08c-.06-.06-.12-.13-.18-.19-.09-.1-.19-.21-.28-.31-.04-.05-.09-.09-.13-.14-.03-.03-.07-.07-.1-.1-.06-.06-.12-.1-.19-.15h0s0,0,0,0c-.02-.02-.05-.04-.07-.06,0,0,.02,.01,.03,.02,0,0-.02-.02-.03-.02-.03-.04-.05-.08-.08-.12-.08-.13-.16-.26-.23-.39,0,0,0-.01,0-.02-.04-.08-.07-.17-.11-.25-.08-.17-.15-.35-.23-.52-.03-.06-.05-.11-.08-.17,0,0,0,0,0-.01-.05-.14-.11-.28-.17-.42-.03-.07-.06-.13-.09-.2-.02-.04-.04-.08-.06-.12-.04-.08-.1-.15-.18-.2-.04-.03-.08-.05-.12-.06,.06-1.7,.92-3.34,2.71-3.73,.46-.13,1.29-.3,1.28,.43-.02,.31-.31,.51-.6,.49-.4,.05-.79,.16-1.14,.36-1.72,1.08-1.52,3.98-.21,5.32,.49,.47,1.12,.79,1.78,.93,.61,.14,.47,1.02-.1,1.02-.04,0-.07,0-.11-.01"/><polyline class="cls-12" points="10.53 23.54 10.53 23.54 10.53 23.54"/><path class="cls-12" d="M35.36,19.32c-.04-.16-.09-.32-.13-.48-.03-.1-.06-.2-.09-.29-.02-.05-.03-.1-.05-.15-.01-.03-.02-.06-.04-.1-.01-.04-.04-.07-.07-.1-.02-.09-.04-.19-.06-.28,.12,.04,.22,.09,.31,.12,.31,.18,.65,.38,.97,.61-.04,.12-.06,.24-.08,.36,0,.03-.01,.07-.02,.1,0,0-.01,0-.02,0-.19,.12-.22,.35-.23,.56-.15-.14-.33-.27-.51-.38"/><path class="cls-12" d="M33.79,18.73c-.18,.02-.38-.02-.51-.17-.14-.16-.15-.38-.07-.57,.15-.26,.47-.32,.81-.29,0,.03,0,.06,.01,.09,.04,.23,.09,.46,.14,.69,0,0,0,0,0,0,.02,.1,.05,.2,.07,.3,0,0,0,0,0,.01-.15-.04-.31-.07-.47-.07"/><path class="cls-12" d="M22.97,21.39c.46,0,.51,.68,.06,.75-.21,.05-.97,.5-.55,.68,.14,.05,.31,.04,.47,.03,.26-.02,.51-.04,.68,.21,.03,.04,.05,.08,.07,.12,0,.01,0,.02,0,.03h0s0,.03,0,.05c0,0,0-.02,0-.02h0c-.01,.06-.02,.11-.03,.16,0,0,0-.02,0-.03,0,0,0,.02,0,.03-.03,.03-.06,.05-.08,.08,0,0-.01,0-.02,0-.08,.02-.15,.03-.22,.05-.04,0-.07,0-.1,0-.03,0-.06,0-.09,0-.12,0-.23,.02-.32,.08-.02,0-.03,0-.04,0-1.75,0-1.41-1.94,.2-2.23"/><path class="cls-12" d="M23.69,23.23s0-.02,0-.03c0,.01,0,.02,0,.03h0Z"/><path class="cls-12" d="M35.31,19.14c-.03-.1-.06-.2-.08-.29-.03-.09-.05-.17-.08-.26-.39-2.71-1.26-5.46-3.03-7.57-1.72-1.9-4.28-2.83-6.68-3.38-.15-.03-.29-.05-.44-.08-.09-.06-.18-.09-.29-.11,0,0,0,0,0,0-.13-.02-.26-.06-.38-.07-.23-.04-.46-.05-.7-.05-.24,0-.49,0-.73-.01-.07,0-.13,0-.2,0-.16-.07-.27-.2-.28-.45,0-.25,.19-.48,.44-.51,.03,0,.07,0,.1,0,.69,.02,1.37,.08,2.05,.17,3.1,.55,6.37,1.76,8.33,4.37,1.22,1.57,1.91,3.45,2.41,5.36,.22,.81,.38,1.64,.46,2.48-.03,.1-.05,.21-.06,.31,0,.01,0,.02,0,.03-.1,.15-.27,.23-.44,.23-.14,0-.28-.05-.37-.15"/><path class="cls-12" d="M10.6,18.82c-.28,0-.51-.23-.51-.51,.43-1.88,.79-3.86,1.69-5.56,1.95-3.44,5.37-5.54,9.12-6.34,.08,0,.16-.02,.23-.03,.03,0,.07,0,.1-.01,.09,.02,.19,.01,.29,0h0s-.01,0-.02,0c0,0,.02,0,.02,0h.08c.13,0,.27,0,.4,0,.24,0,.49-.01,.73-.02,.18,0,.37-.01,.55-.02,.03,0,.05,0,.08,0,.12,.01,.23,.02,.35,.03,.13,.28,.03,.68-.38,.74-.83,.07-1.66,.21-2.47,.37-3.48,.69-6.72,2.93-8.38,6.11-.64,1.39-.93,2.91-1.3,4.39-.06,.35-.14,.83-.59,.83h0"/><path class="cls-12" d="M32.53,10.72c-.2,0-.37-.19-.36-.39,0-.21,.18-.32,.28-.48,.04,.04,.07,.07,.1,.11,.08,.09,.16,.19,.25,.27,.04,.04,.09,.08,.13,.13,.01,.01,.03,.03,.04,.04-.11,.15-.23,.32-.44,.32h-.01m-.21-.68s.09-.05,.15-.06c-.05,0-.1,.03-.15,.06"/><path class="cls-12" d="M25.84,7.11c0-.07,0-.15,.04-.21,.02-.08,.04-.15,.05-.21,.06,.01,.12,.03,.19,.04,.04,0,.08,.01,.11,.02,.07,.02,.13,.04,.2,.05,.06,.01,.12,.02,.18,.03,.02,0,.04,0,.06,0,0,.01,0,.03-.01,.04-.04,.15-.06,.31-.15,.44-.07,.1-.18,.14-.28,.14-.18,0-.37-.13-.39-.34"/><path class="cls-12" d="M18.42,7.33c-.01-.06-.02-.12-.04-.19,.08-.03,.16-.06,.24-.09,.09-.04,.19-.07,.28-.11,.06-.03,.12-.05,.18-.08,.06,.21,.1,.42,.05,.63-.06,.15-.2,.22-.33,.22-.19,0-.39-.14-.39-.37"/><path class="cls-12" d="M13.62,10.43s-.03-.07-.05-.11c.01,0,.02-.02,.03-.03,.09-.08,.17-.15,.26-.23,.08-.07,.16-.15,.24-.22,.01-.01,.02-.02,.03-.04,.04,.08,.07,.15,.11,.21,0,0-.02-.02-.03-.03,.01,.01,.02,.03,.03,.04,0,.02,.02,.03,.03,.05,.17,.28-.08,.57-.34,.57-.12,0-.24-.06-.32-.21"/><path class="cls-12" d="M14.28,10.07s-.02-.03-.03-.05c0,0,0,0,0,0,.02,.02,.03,.04,.04,.06,0,0,0,0,0,0"/><path class="cls-12" d="M33.11,25.81c-.05-.81,.9-.32,1.79-1.54,1.39-1.4,1.54-4.47-.47-5.37-.27-.18-.62-.18-.87-.38-.37-.34,0-.99,.46-.87,3.38,.73,3.76,5.23,1.53,7.42-.44,.54-2.05,1.89-2.45,.74"/><path class="cls-12" d="M19,22.78c-2.12-.06-3.35-1.75-2.46-3.76,1-2.24,4.41-2.28,5.1,.16,.29,1.1-.03,2.35-.93,3.06-.44,.37-1.14,.75-1.71,.54m.36-.7c2.3-.46,2.18-4.14-.39-3.98-1.44,.06-2.47,1.9-1.7,3.15,.39,.54,1.09,.71,1.71,.77,.12,0,.26-.02,.37,.06"/><path class="cls-12" d="M18.6,21.33c-.81-.38-.98-1.74-.22-2.25,.23-.13,.52-.16,.78-.2,.72,.04,1.29,.77,1.16,1.49-.07,.5-.47,1.05-1.01,1.01-.22,.11-.5,.05-.71-.05"/><path class="cls-12" d="M27.68,22.78c-2.12-.06-3.35-1.75-2.46-3.76,.99-2.24,4.41-2.28,5.1,.16,.29,1.1-.03,2.35-.93,3.06-.44,.37-1.14,.75-1.71,.54m.36-.7c2.3-.46,2.18-4.14-.39-3.98-1.44,.06-2.47,1.9-1.7,3.15,.39,.54,1.09,.71,1.71,.77,.12,0,.26-.02,.37,.06"/><path class="cls-12" d="M27.27,21.33c-.81-.38-.98-1.74-.22-2.25,.23-.13,.52-.16,.78-.2,.72,.04,1.29,.77,1.16,1.49-.07,.5-.47,1.05-1.01,1.01-.22,.11-.51,.05-.71-.05"/><path class="cls-12" d="M24.33,27.95c-.94-.16-1.83-.63-2.5-1.31-.68-.04-.52-.91,.24-.75,.89-.01,1.59-.65,2.34-1.07,.59-.22,1.59-1.74,2.14-.98,1.04,1.82,.32,4.14-1.85,4.14-.12,0-.24,0-.37-.02m-1.48-1.43c.55,.39,1.23,.69,1.91,.69,1.44-.03,1.81-1.57,1.27-2.7-.95,.82-2.01,1.57-3.18,2.01"/><path class="cls-10" d="M20.32,15.36c-.26-.31-1.32-.25-2.35,.13-1.04,.38-1.67,.93-1.4,1.24,.26,.31,1.32,.25,2.35-.13,1.04-.38,1.66-.93,1.4-1.24"/><path class="cls-12" d="M17.37,17.15c-1.4,0-1.28-.89-.38-1.37,.83-.49,1.96-.89,3.09-.79,.51,.04,.83,.35,.76,.66-.07,.38-.62,.64-1.08,.86-.2,.14-.53,.21-.79,.32-.5,.17-1.04,.31-1.6,.33m.39-.51c.54-.08,1.03-.28,1.51-.46,.23-.16,.56-.25,.75-.44,.45-.57-1.21-.22-1.56-.08-.6,.14-2.38,1.19-.7,.97"/><path class="cls-2" d="M17.37,17.15c-1.4,0-1.28-.89-.38-1.37,.83-.49,1.96-.89,3.09-.79,.51,.04,.83,.35,.76,.66-.07,.38-.62,.64-1.08,.86-.2,.14-.53,.21-.79,.32-.5,.17-1.04,.31-1.6,.33Zm.39-.51c.54-.08,1.03-.28,1.51-.46,.23-.16,.56-.25,.75-.44,.45-.57-1.21-.22-1.56-.08-.6,.14-2.38,1.19-.7,.97Z"/><path class="cls-10" d="M25.78,15.28c-.3,.28,.25,.83,1.24,1.23,.99,.4,2.04,.49,2.34,.21,.3-.28-.25-.83-1.24-1.23-.99-.4-2.04-.49-2.34-.21"/><path class="cls-12" d="M28.87,17.01c1.4-.07,1.2-.92,.26-1.34-.87-.43-2.03-.76-3.15-.61-.51,.06-.8,.37-.7,.68,.1,.37,.67,.59,1.15,.77,.22,.13,.55,.18,.81,.27,.51,.14,1.06,.25,1.62,.24m-.43-.47c-.55-.05-1.05-.22-1.55-.37-.24-.14-.58-.22-.79-.38-.5-.52,1.19-.27,1.55-.15,.61,.11,2.48,1.03,.78,.91"/><path class="cls-2" d="M28.87,17.01c1.4-.07,1.2-.92,.26-1.34-.87-.43-2.03-.76-3.15-.61-.51,.06-.8,.37-.7,.68,.1,.37,.67,.59,1.15,.77,.22,.13,.55,.18,.81,.27,.51,.14,1.06,.25,1.62,.24Zm-.43-.47c-.55-.05-1.05-.22-1.55-.37-.24-.14-.58-.22-.78-.38-.5-.52,1.19-.27,1.55-.15,.61,.11,2.48,1.03,.78,.91Z"/></g><g><path class="cls-6" d="M2.29,13.73S-.58,9.35,.57,1.64C.78,.22,1.87,.22,2.68,.35c.73,.12,4.08,.79,8.28,3.25l1.11,10.95-9.78-.82Z"/><path class="cls-6" d="M44.31,13.73s2.87-4.38,1.72-12.09c-.21-1.42-1.3-1.42-2.11-1.29-.73,.12-4.08,.79-8.28,3.25l-6.27,5.35,10.15,6.23,4.8-1.45Z"/><path class="cls-9" d="M9.34,6.83c-2.52-2.4-4.77-3.02-5.13-3.08-.39-.06-.92-.17-.96,.52-.19,3.12,1.48,5.86,1.48,5.86l4.14,2.15,.47-5.45Z"/><path class="cls-9" d="M41.87,10.13s1.67-2.74,1.48-5.86c-.04-.69-.57-.58-.96-.52-.35,.06-2.61,.68-5.13,3.08v5.08l4.61-1.78Z"/><path class="cls-6" d="M45.98,22.27c0,9.25-10.16,15.13-22.7,15.13S.57,31.51,.57,22.27,10.74,3.92,23.27,3.92s22.7,9.1,22.7,18.35Z"/><ellipse class="cls-7" cx="14.52" cy="13.5" rx="2" ry="2.02"/><ellipse class="cls-12" cx="14.52" cy="13.41" rx="1.13" ry="1.14"/><ellipse class="cls-7" cx="32.02" cy="13.5" rx="2" ry="2.02"/><ellipse class="cls-12" cx="32.02" cy="13.41" rx="1.13" ry="1.14"/><path class="cls-8" d="M25.56,17.06c.05-1.11-.44-1.93-.44-1.93,.65-.48,1.11-1.21,1.11-1.21-.42-.31-1.94-.41-1.94-.41-.55-1.11-1.02-1.61-1.02-1.61-.64,.62-1.07,1.61-1.07,1.61,0,0-1.52,.1-1.94,.41,0,0,.47,.73,1.11,1.21,0,0-.49,.82-.44,1.93,0,0,1.35-.14,2.26-.88,.8,.6,1.72,.86,2.36,.88Z"/><ellipse class="cls-7" cx="10.04" cy="16.16" rx="2.02" ry=".98"/><ellipse class="cls-7" cx="36.36" cy="16.16" rx="2.02" ry=".98"/><path class="cls-13" d="M18.88,20.37s2.75,.34,4.37-3.23c0,0,1.2,3.72,4.44,3.23v12.46s-.15,4.01-.15,4.01l-3.1,.7-5.28-.38-.27-10.88v-5.91Z"/><path class="cls-3" d="M16.51,17.05s.15,3.32,2.78,3.32,3.68-2.26,3.9-4.12"/><path class="cls-3" d="M29.91,17.05s-.15,3.32-2.78,3.32-3.68-2.26-3.9-4.12"/><path class="cls-3" d="M18.88,20.37s-.04,13.12,.17,16.71"/><path class="cls-3" d="M27.68,20.37s.04,13.12-.17,16.71"/><path class="cls-3" d="M27.42,37.14s-4.3,.99-8.27,.01"/><path class="cls-7" d="M36.59,7.52c.69,.89,.25,1.58-.15,1.86-3.41,2.36-10.38-.41-12.18-3.88-.13-.24-.2-1.08,.63-1.4l6.55,3.08,5.14,.34"/><path class="cls-7" d="M9.96,7.52l3.6-1.58,8.09-1.84c.83,.32,.76,1.16,.63,1.4-1.85,3.56-8.72,6.27-12.18,3.88-.4-.28-.83-.97-.15-1.86"/><path class="cls-8" d="M22.35,4.79s.95-.38,1.96,0l1.05,.07-.54-.94c-1.57-.38-3.07,0-3.07,0l-.85,.91,1.44-.03Z"/><path class="cls-9" d="M20.91,2.79s.48,.76,.86,1.54c.11,.23,.1,.49-.01,.71-1.46,2.83-8.34,5.66-11.28,3.62-.37-.25-.56-.69-.51-1.14,.26-2.09,.99-3.86,.99-3.86l4.95-.87h5.01Z"/><path class="cls-9" d="M35.6,3.66s.73,1.77,.99,3.86c.05,.45-.14,.88-.51,1.14-2.94,2.04-9.82-.79-11.28-3.62-.12-.22-.12-.49-.01-.71,.38-.78,.86-1.54,.86-1.54h4.03s5.93,.87,5.93,.87Z"/><ellipse class="cls-7" cx="15.92" cy="3.34" rx="4.99" ry="1.95" transform="translate(-.24 1.52) rotate(-5.42)"/><ellipse class="cls-7" cx="30.64" cy="3.34" rx="1.95" ry="4.99" transform="translate(24.41 33.52) rotate(-84.58)"/><path class="cls-8" d="M36.98,8.63s3.86,1.28,7.28,6.99c0,0,.38-.9-.37-2.38-1.99-3.89-5.58-5.99-7.42-6.58l.51,1.96Z"/><path class="cls-8" d="M9.55,8.63s-3.86,1.28-7.28,6.99c0,0-.38-.9,.37-2.38,1.99-3.89,5.58-5.99,7.42-6.58l-.51,1.96Z"/><ellipse class="cls-9" cx="15.94" cy="3.32" rx="3.84" ry="1.21" transform="translate(-.24 1.52) rotate(-5.42)"/><ellipse class="cls-9" cx="30.62" cy="3.32" rx="1.21" ry="3.84" transform="translate(24.43 33.49) rotate(-84.58)"/></g><g><polygon class="cls-10" points="36.63 39.08 36.04 37.64 34.81 36.27 33.97 35.01 33.82 33.24 33.39 31.88 33.58 31.25 34.36 30.55 36 31.37 36.93 28.9 37.32 28.13 38.19 27.86 38.94 28.32 39.3 30.19 40.24 29.41 41.56 29.75 41.56 30.89 42.4 31.25 42.69 31.88 42.69 32.92 43.39 33.1 43.65 34.9 43.39 35.36 42.51 35.36 41.93 34.74 40.54 37.23 40.05 37.98 41.28 41.32 42.57 43.92 42.55 44.1 43.13 46.3 42.64 47.54 41.33 49.22 41.02 49.75 40.34 49.88 38.74 49.57 35.47 45.4 36.5 44.46 37.05 43.92 36.63 39.08"/><polygon class="cls-10" points="4.91 29.66 5.66 27.58 4.52 26.76 3.01 25.21 2.66 26.76 1.82 26.95 1.56 26.17 1.61 24.11 3.19 23.47 2.48 22.85 2.09 22.24 2.97 20.91 4.33 21.52 3.99 19.38 5.42 18.73 6.42 20.19 6.72 18.73 7.35 17.96 8.76 18.38 9.09 19.73 10.04 22.43 10.99 23.53 11.65 23.8 12.64 25.06 12.88 26.32 11.33 27.24 9.35 27.65 9.49 29.41 8.73 34.27 8.73 35.81 9.15 39 8.83 40.46 6.37 40.96 4.42 41.11 4.16 40.42 3.52 39.75 2.69 37.86 2.66 36.01 3.27 33.92 4.91 29.66"/><path class="cls-12" d="M12.28,48.78s0,0,0,0c0,0,0,.02,0,.02,0,0,0-.01,0-.02"/><path class="cls-12" d="M12.28,48.81s0,.01,0,.02h0s0,0,0-.02"/><path class="cls-12" d="M6.66,41.46c-.2-.64,.75-.96,.97-.33,.18,.55,.41,1.09,.69,1.61,.41-1.55,.47-3.18,.3-4.76-.13-.84-.24-1.7-.49-2.51-.2-.57,.63-.94,.92-.43h0c.75,2.4,.9,5.05,.37,7.52-.16,.53-.23,1.22-.73,1.53-.09,.04-.18,.05-.26,.05-.91,0-1.47-2.02-1.76-2.69"/><path class="cls-12" d="M8.25,43.37c.56-.27,1.09-.59,1.64-.89,.52-.3,1.03-.62,1.55-.92,.32-.28,.87-.12,.9,.33,.02,.23-.13,.46-.35,.53-1.09,.64-2.16,1.32-3.29,1.88-.08,.04-.16,.05-.23,.05-.47,0-.74-.72-.22-.98"/><path class="cls-12" d="M34.7,46.68c-.27-.34-.51-.7-.73-1.08-.22-.39,.23-.88,.63-.71,.02,0,.04,.02,.05,.03,0,.01,0,.03,0,.04,0,.01,0,.02,0,.04,0,0,0,0,0,0,0,0,0,.02,0,.03,.03,.2,.06,.4,.09,.6,0,.03,0,.06,.01,.09h0s0,0,0,0h0s0,0,0,0h0s0,.01,0,.02c0,0,0,0,0,.01,0,0,0,0,0,0,0,.02,0,.05,.01,.07,0,0,0,0,0,.01,0,.04,.01,.08,.02,.13,0,.07,.02,.14,.03,.21,.02,.19,.05,.38,.07,.58,0,.01,0,.02,0,.04,0,.06,.01,.12,.02,.17-.09-.1-.17-.2-.25-.29"/><path class="cls-12" d="M34.8,45.83s0,0,0,.01c0,0,0,0,0-.01"/><path class="cls-12" d="M34.78,45.63s0,0,0,.01c0,0,0,0,0-.01"/><path class="cls-12" d="M9.86,25.11c.42-.25,1.28-.61,1.45,.09,.05,.27-.13,.55-.41,.6-.5,.04-.89,.44-.68,.95,.58-.22,1.21-.26,1.78-.49,.2-.33,.19-.79,.07-1.15-.2-.44-.71-.57-1.08-.83-1.48-1.05-2.19-3.56-2.6-5.27-.13-.79,.99-.87,1.03-.07,.37,1.46,.83,3.05,1.81,4.22,.24,.26,.57,.4,.87,.58,.79,.41,1.18,1.3,1.05,2.17-.11,1.62-1.42,1.39-2.57,1.81-.15,.05-.29,.07-.41,.07-1.23,0-1.37-2.07-.33-2.68"/><path class="cls-12" d="M6.23,19.69c.13-.51,.14-1.13,.56-1.5,.29-.25,.69-.25,1.05-.22,.5,.06,1.47,.05,1.54,.71,.01,.48-.5,.67-.87,.43-.35-.09-.71-.12-1.06-.12-.1,.24-.13,.51-.18,.76-.02,.26-.35,.94,.06,.99,.45-.08,.36-.77,1-.58,.87,.45-.16,1.52-.8,1.59-.08,0-.15,.01-.22,.01-1.07,0-1.39-1.13-1.06-2.08"/><path class="cls-12" d="M3.89,21.71c-.05-.57-.11-1.14-.09-1.71,.03-.64,.5-1.14,1.07-1.35,.64-.32,1.27-.16,1.56,.53,.13,.24,.32,.51,.51,.74,.18,.18,.23,.48,.08,.69-.2,.3-.67,.29-.85-.02-.28-.32-.51-.68-.71-1.05-.81,.18-.65,.66-.61,1.32,.04,.29-.02,.63,.12,.9,.26,.05,.42-.29,.46-.5,.06-.27,.34-.45,.61-.39,.98,.34-.06,1.8-.75,1.9-.09,.03-.18,.04-.27,.04-.58,0-1.08-.5-1.13-1.09"/><path class="cls-12" d="M2.35,23.7c-.29-.43-.76-.86-.66-1.43,.1-.45,.39-.85,.66-1.22,.24-.36,.65-.72,1.11-.52,.43,.22,.8,.54,1.21,.79,.3,.24,.15,.8-.23,.87,.33,.68,.17,1.73-.54,2.1-.15,.08-.31,.12-.46,.12-.44,0-.86-.32-1.1-.71m.36-1.27c.22,.33,.44,.68,.72,.96,.22-.14,.18-.52,.12-.74-.09-.26,.05-.54,.3-.64-.08-.04-.15-.09-.22-.14-.13-.09-.26-.19-.38-.28-.2,.26-.41,.53-.53,.84"/><path class="cls-12" d="M3.33,26.5c-.42,.74-1.45,1.14-1.98,.29-.17-.3-.17-.64-.22-.97-.04-.41-.18-.84-.08-1.25,.12-.5,.53-.81,.96-1.05,.23-.27,.63-.41,.89-.1,.5,.74-.58,.93-.86,1.38,0,.48,.12,.95,.16,1.43,.32-.19,.34-.62,.59-.86,.32-.29,.74-.09,.99,.18,.67,.53,1.41,1.15,2.29,1.23,.6,0,2.01-.63,2.05,.39-.03,.41-.45,.52-.79,.46-.28-.02-.55,.1-.82,.14-.14,.02-.27,.04-.41,.04-1.04,0-1.98-.68-2.78-1.3"/><path class="cls-12" d="M7.55,38.88c-.61-.25-.18-.94-.08-1.39,0,.01,0,.02-.01,.04,.8-3.3,1.43-6.76,1.6-10.16,.04-.25-.03-.53,.15-.73,.28-.34,.88-.13,.89,.31-.15,3.65-.79,7.27-1.65,10.81-.07,.25-.15,.52-.25,.8-.07,.21-.28,.34-.49,.34-.06,0-.11,0-.17-.03"/><path class="cls-12" d="M2.51,38.4c-.81-2.21,.32-4.41,1.13-6.45,.48-1.18,.96-2.36,1.46-3.53,.18-.39,.29-.81,.5-1.18,.28-.34,.89-.13,.89,.32-.25,1.05-.81,2.03-1.19,3.04-.36,.91-.74,1.81-1.11,2.71-.77,1.88-1.4,3.45-.48,5.43,.32,.64,.71,1.68,1.46,1.85,1.14,.05,2.3-.13,3.41-.42,.64-.2,.95,.76,.32,.98-.19,.06-.39,.11-.58,.16-.89,.19-1.8,.29-2.7,.34-.07,0-.15,0-.22,0-1.64,0-2.43-1.88-2.89-3.24"/><path class="cls-12" d="M35.88,37.47c-.08-.03-.15-.06-.23-.08-.06-.02-.13-.01-.19,0,0,0,0,0,0,0-.48-.45-.93-.95-1.26-1.52-.39-.71-.56-1.52-.79-2.3,0-.01,0-.02,.01-.04,.02-.08,0-.15,0-.23,0-.06-.03-.11-.04-.17-.02-.08-.04-.15-.06-.23-.02-.07-.04-.14-.06-.21-.01-.04-.03-.08-.04-.12-.01-.04-.03-.09-.05-.13-.02-.04-.05-.07-.08-.1-.02-.12-.03-.24-.04-.36-.06-.95,.91-2.58,1.99-2.24,.25,.1,.45,.31,.66,.48,.28,.22,.6,.41,.84,.68,.49,.51,.45,1.44-.17,1.83-.55,.35-1.98,.3-1.9-.59,.04-.22,.24-.4,.47-.41,.12,0,.22,.04,.32,.09,.13,.06,.26,.12,.42,.08,.67-.14-.83-.96-.97-1.17-1.11,.86-.46,1.92-.18,3.02,.16,.56,.3,1.13,.58,1.64,.2,.35,.47,.66,.75,.96,.29,.25,.66,.63,.33,1.01-.06,.06-.13,.11-.21,.14-.03,0-.06-.02-.09-.03"/><path class="cls-12" d="M33.29,33.11s0-.01,0-.02c0,.01,0,.03,.01,.04,0,0,0-.01,0-.02"/><path class="cls-12" d="M34.46,32.14s0,0,0,0c0,.03,0,.07,0,.1,0-.04,0-.07,.01-.11"/><path class="cls-12" d="M35.86,31.25c-.31-.53,.46-1.67,.67-2.22,.33-.59,.61-1.4,1.33-1.59,.6-.1,1.42,.15,1.64,.78,.1,.36,.08,.76,.08,1.13,0,.38,.05,.8-.14,1.15-.56,1.03-1.96,.56-2.28-.42-.15,.35-.33,.7-.39,1.08-.07,.22-.28,.34-.49,.34-.17,0-.33-.08-.43-.24m2.03-2.57c.15,.44,.04,1.17,.58,1.36,.22,.04,.07-1.29,.07-1.49h0c-.12-.06-.24-.11-.34-.11-.12,0-.23,.06-.3,.24"/><path class="cls-12" d="M39.16,31.01s-.03,.03-.04,.04c-.12,.12-.23,.24-.35,.36,.02-.02,.03-.03,.05-.05-.26,.28-.61,.7-1.02,.42-.49-.41-.07-.81,.27-1.12,.6-.59,1.21-1.26,1.98-1.62,.56-.11,1.37,.07,1.72,.55,.31,.56,.02,1.22-.02,1.82-.03,.4-.19,.83-.58,.99-.15,.07-.31,.1-.46,.1-.76,0-1.46-.73-1.54-1.49m.82-.72s-.07,.05-.1,.08c.23,.1,.31,.35,.31,.59,.08,.23,.26,.48,.52,.51,.06-.39,.14-.88,.18-1.31-.18-.08-.32-.12-.44-.12-.15,0-.28,.07-.47,.25,.02-.01,.03-.02,.05-.04-.01,.01-.03,.02-.04,.03"/><path class="cls-12" d="M39.15,32c.08-.15,.16-.3,.25-.45,.33-.57,1.21-.08,.89,.51-.08,.12-.17,.28-.23,.41-.1,.19-.27,.28-.43,.28-.34,0-.68-.34-.48-.75m.19-.27s.02-.09,.04-.13c-.02,.04-.04,.09-.04,.13"/><polyline class="cls-12" points="40.29 32.06 40.29 32.06 40.29 32.06"/><polyline class="cls-12" points="40.29 32.05 40.29 32.06 40.29 32.06 40.29 32.05"/><path class="cls-12" d="M40.7,32.96c-.14-.37-.34-.88-.07-1.23,.28-.34,.89-.13,.89,.32,0,.33,.14,.74,.48,.85,0-.4,.05-.76-.02-1.17-.32-.19-.86-.25-.88-.71,0,0,0,0,0,0-.03-.4,.43-.69,.77-.47,.26,.14,.6,.23,.83,.44,.45,.46,.32,1.17,.32,1.76,.04,.5-.1,1.11-.68,1.19-.07,.01-.14,.02-.22,.02-.62,0-1.19-.43-1.43-.99"/><path class="cls-12" d="M40.5,33.15c.12-.21,.27-.46,.54-.46,.27-.01,.54,.21,.54,.49,.01,.22-.14,.39-.24,.57,0,0,0,0,0-.01,0,0,0,0,0,.01,0,0,0,0,0,0-.07,.1-.16,.18-.28,.23-.06,.02-.11,.03-.16,.03-.39,0-.68-.52-.39-.85"/><path class="cls-12" d="M41.33,33.75h0s0,.01-.01,.02c0,0,0-.01,.01-.02"/><polygon class="cls-12" points="41.33 33.75 41.33 33.75 41.33 33.75 41.33 33.75"/><polyline class="cls-12" points="41.33 33.75 41.33 33.75 41.33 33.75 41.33 33.75"/><path class="cls-12" d="M39.37,37.08c.44-.13,.77-.49,1.05-.83,.59-.65,.53-1.99,1.61-2.05,.53-.05,.71,.59,1.18,.68-.13-.35-.24-.7-.35-1.06-.26-.09-.57-.25-.57-.57-.01-.28,.2-.53,.48-.54,1.17,.21,1.01,.9,1.39,1.81,.58,1.57-1.32,1.78-2.14,.8-.26,.74-.66,1.5-1.23,2.06-.09,.02-.17,.06-.24,.13-.07,.07-.13,.15-.2,.22-.24,.16-.51,.29-.81,.37-.04,0-.07,0-.1,0-.57,0-.7-.88-.09-1.02"/><path class="cls-12" d="M36.03,39.21s0,0,.01,.01t0,0s0,.01,0,.02c0-.01,0-.02,0-.03"/><path class="cls-12" d="M36,37.5s-.08-.02-.12-.04c-.08-.03-.15-.06-.23-.08-.04-.01-.09-.01-.13,0-.03-.13-.05-.26,0-.4,.13-.42,.77-.46,.94-.05,.08,.25,.15,.49,.22,.74-.23-.05-.45-.1-.67-.17"/><path class="cls-12" d="M39.48,37.68c-.01-.28,.2-.53,.48-.54,.26,.01,.44,.17,.6,.36-.07,.07-.13,.15-.19,.22-.03,.04-.07,.07-.1,.11-.04,.03-.08,.06-.12,.09-.04,.03-.08,.06-.12,.1-.03,0-.05,.02-.08,.03-.06,.02-.11,.04-.17,.07-.03-.01-.05-.03-.08-.04,0,0,0,0,0,0,0,0,0,0,0,0,.02,.01,.05,.03,.07,.04-.01,0-.03,.01-.04,.02-.11-.13-.26-.29-.25-.46"/><path class="cls-12" d="M37.13,48.18s0,0,0,0c.01,.02,.02,.04,.04,.06,0,0-.01,0-.02,.01,0-.03-.01-.05-.02-.08"/><path class="cls-12" d="M33.4,33.26s-.02-.08-.03-.13c-.02-.08-.04-.15-.06-.23-.02-.07-.04-.14-.06-.21-.01-.04-.03-.08-.04-.12-.01-.04-.03-.09-.05-.13-.03-.05-.06-.08-.1-.12-.01,0-.02-.02-.04-.03,0,0,0,0,0-.01,0-.05,0-.1-.01-.15,0-.03,0-.05,0-.08,0,0,0-.02,0-.03,.14,.05,.27,.1,.41,.15,.4,.11,.8,.32,.61,.81-.11,.21-.28,.29-.46,.29-.05,0-.1,0-.15-.01"/><path class="cls-12" d="M33.28,33.11s0,0,0,0c0,0,0,.01,0,.02,0,0,0-.02,0-.02"/><path class="cls-12" d="M36.99,45.81c-.37-1.55-.6-3.13-.87-4.71-.16-.88-.36-1.76-.46-2.65,0-.53-.35-1.49,.37-1.65,.33-.04,.63,.26,.57,.59,0,.43,.06,.85,.12,1.27,.15,.95,.35,1.88,.51,2.83,.16,.91,.28,1.82,.46,2.72,.03,.55,.68,1.74-.07,1.96-.04,.01-.09,.02-.13,.02-.22,0-.45-.15-.5-.38"/><path class="cls-12" d="M36,46.95c-.28-.43-.55-.88-.79-1.34-.33-.59,.54-1.1,.88-.52,.72,1.31,1.56,2.59,2.63,3.63,1.04,1.03,1.71,.71,2.6-.28,2.17-2.64,.79-4.07-.38-6.73-.46-1-.95-1.89-1.41-2.9-.11-.24-.2-.48-.32-.7-.11-.13-.16-.32-.11-.48,.07-.27,.36-.43,.63-.36,.52,.18,.78,1.4,1.09,1.88,.74,1.51,1.58,3.14,2.23,4.74,.61,1.29,.6,2.84-.18,4.06-.57,1.01-1.39,2.11-2.56,2.41-.12,.02-.24,.03-.36,.03-1.76,0-3-2.16-3.95-3.43"/><path class="cls-12" d="M33.91,46.05c.56-.72,1.28-1.29,1.91-1.94,.25-.25,.5-.5,.75-.75,.09-.13,.25-.22,.41-.22,.39,0,.64,.44,.44,.78-.83,.99-1.88,1.77-2.7,2.76-.11,.14-.25,.2-.38,.2-.37,0-.72-.44-.42-.83"/><polyline class="cls-12" points="10.53 23.54 10.53 23.54 10.53 23.54"/><path class="cls-12" d="M32.32,10.04s.09-.05,.15-.06c-.05,0-.1,.03-.15,.06"/></g></svg>