<?xml version="1.0" encoding="UTF-8"?><svg id="_レイヤー_9" xmlns="http://www.w3.org/2000/svg" xmlns:xlink="http://www.w3.org/1999/xlink" viewBox="0 0 72.7 133.34"><defs><style>.cls-1,.cls-2,.cls-3,.cls-4,.cls-5{fill:none;}.cls-2,.cls-6,.cls-3,.cls-4,.cls-7,.cls-5,.cls-8,.cls-9{stroke:#040000;}.cls-2,.cls-3,.cls-4,.cls-5,.cls-9{stroke-linecap:round;}.cls-2,.cls-3,.cls-7,.cls-8,.cls-9{stroke-miterlimit:10;}.cls-2,.cls-5,.cls-9{stroke-width:.76px;}.cls-6,.cls-10,.cls-8{fill:#e9da21;}.cls-6,.cls-4,.cls-5{stroke-linejoin:round;}.cls-6,.cls-7,.cls-8{stroke-width:.18px;}.cls-11{fill:#040000;}.cls-12{fill:#025999;}.cls-13,.cls-9{fill:#fff;}.cls-14{fill:#ce8a0d;}.cls-3,.cls-4{stroke-width:.98px;}.cls-7{fill:url(#Unnamed_Pattern_13);}</style><pattern id="Unnamed_Pattern_13" x="0" y="0" width="28.8" height="28.8" patternTransform="translate(-2771.02 -2373.05) scale(.74)" patternUnits="userSpaceOnUse" viewBox="0 0 28.8 28.8"><g><rect class="cls-1" x="0" y="0" width="28.8" height="28.8"/><g><path class="cls-12" d="M28.8,30.96c1.19,0,2.16-.97,2.16-2.16s-.97-2.16-2.16-2.16-2.16,.97-2.16,2.16,.97,2.16,2.16,2.16Z"/><path class="cls-12" d="M14.4,30.96c1.19,0,2.16-.97,2.16-2.16s-.97-2.16-2.16-2.16-2.16,.97-2.16,2.16,.97,2.16,2.16,2.16Z"/><path class="cls-12" d="M28.8,16.56c1.19,0,2.16-.97,2.16-2.16s-.97-2.16-2.16-2.16-2.16,.97-2.16,2.16,.97,2.16,2.16,2.16Z"/><path class="cls-12" d="M14.4,16.56c1.19,0,2.16-.97,2.16-2.16s-.97-2.16-2.16-2.16-2.16,.97-2.16,2.16,.97,2.16,2.16,2.16Z"/><path class="cls-12" d="M7.2,23.76c1.19,0,2.16-.97,2.16-2.16s-.97-2.16-2.16-2.16-2.16,.97-2.16,2.16,.97,2.16,2.16,2.16Z"/><path class="cls-12" d="M21.6,23.76c1.19,0,2.16-.97,2.16-2.16s-.97-2.16-2.16-2.16-2.16,.97-2.16,2.16,.97,2.16,2.16,2.16Z"/><path class="cls-12" d="M7.2,9.36c1.19,0,2.16-.97,2.16-2.16s-.97-2.16-2.16-2.16-2.16,.97-2.16,2.16,.97,2.16,2.16,2.16Z"/><path class="cls-12" d="M21.6,9.36c1.19,0,2.16-.97,2.16-2.16s-.97-2.16-2.16-2.16-2.16,.97-2.16,2.16,.97,2.16,2.16,2.16Z"/></g><g><path class="cls-12" d="M0,30.96c1.19,0,2.16-.97,2.16-2.16s-.97-2.16-2.16-2.16-2.16,.97-2.16,2.16,.97,2.16,2.16,2.16Z"/><path class="cls-12" d="M0,16.56c1.19,0,2.16-.97,2.16-2.16s-.97-2.16-2.16-2.16-2.16,.97-2.16,2.16,.97,2.16,2.16,2.16Z"/></g><g><path class="cls-12" d="M28.8,2.16c1.19,0,2.16-.97,2.16-2.16s-.97-2.16-2.16-2.16-2.16,.97-2.16,2.16,.97,2.16,2.16,2.16Z"/><path class="cls-12" d="M14.4,2.16c1.19,0,2.16-.97,2.16-2.16s-.97-2.16-2.16-2.16-2.16,.97-2.16,2.16,.97,2.16,2.16,2.16Z"/></g><path class="cls-12" d="M0,2.16c1.19,0,2.16-.97,2.16-2.16S1.19-2.16,0-2.16-2.16-1.19-2.16,0-1.19,2.16,0,2.16Z"/></g></pattern></defs><path class="cls-14" d="M53.4,127.46c-.52-1.05-2.01-1.92-3.82-2.46-.73-.25-3.09-.99-3.04-1.41-.17-.76-1.01-1.24-2.05-1.46-1.91-.74-4.7-.81-6.72-.04-.04,.06-.08,.12-.12,.18-.11,.2-.21,.41-.3,.62-.11,.25-.21,.5-.42,.73-.15,.17-.35,.33-.54,.49-.11,.09-.22,.18-.35,.26-.33,.2-.74,.31-1.17,.34-.09,0-.17,0-.26,0-.11,0-.22,0-.33,0-.09,0-.18,0-.27,0-.04,0-.07,0-.11,0-.04,0-.07,0-.11,0,0,0,0,0-.01,0-.03,0-.07,0-.1-.01-.03,0-.07,0-.1-.01-.04,0-.08-.01-.12-.02-.02,0-.04,0-.05-.01-.01,0-.02,0-.04,0-.06-.01-.12-.03-.17-.05,0,0,0,0,0,0,0,0,0,0-.01,0-.05-.02-.1-.03-.14-.05-.02,0-.03-.01-.05-.02-.04-.02-.08-.03-.12-.05-.01,0-.02-.01-.03-.02-.05-.02-.1-.05-.14-.08-.01,0-.02-.01-.03-.02-.04-.02-.07-.04-.1-.07-.09-.06-.17-.13-.23-.2-.01-.01-.02-.03-.03-.04-.12-.14-.2-.29-.29-.44,0-.01-.02-.03-.03-.04-.02-.03-.05-.06-.07-.1,0,0,0,0,0,0-.02-.02-.04-.04-.06-.07,0,0,0,0,0,0-.13-.14-.27-.28-.42-.41-.04-.03-.08-.06-.12-.09-.09-.02-.17-.04-.26-.06,0,0,0,0,0,0-.05-.01-.1-.02-.15-.03-.04,0-.07-.02-.11-.02,0,0-.01,0-.02,0-.13-.03-.27-.05-.4-.08,0,0,0,0,0,0,0,0-.02,0-.02,0,0,0,0,0,0,0-.05,0-.11-.01-.16-.02-.03,0-.06,0-.1-.01-.02,0-.05,0-.07,0,0,0,0,0,0,0-.02,0-.03,0-.05,0-.05,0-.1,0-.16,0-.11,0-.23,0-.34-.01,0,0-.02,0-.03,0,0,0-.01,0-.02,0-.18,0-.36,0-.54,0,0,0,0,0,0,0h-.03s0,0,0,0c-.14,0-.28,.01-.43,.02,0,0,0,0-.01,0-.02,0-.04,0-.06,0,0,0,0,0,0,0-.06,0-.12,.01-.18,.02,0,0,0,0,0,0-.11,.02-.22,.05-.32,.08-.08,.02-.15,.05-.23,.07-.18,.06-.36,.12-.54,.18-.12,.05-.23,.1-.35,.15-.03,.01-.06,.03-.09,.04-.05,.02-.1,.04-.15,.06,0,0-.01,0-.02,0,0,0-.02,0-.03,.01,0,0,0,0,0,0-.15,.06-.29,.12-.44,.19-.01,0-.03,.01-.04,.02-.02,.01-.05,.02-.07,.03-.01,0-.02,.01-.03,.02-.02,.01-.04,.02-.06,.03,0,0,0,0,0,0-.04,.03-.09,.05-.13,.08-.02,.01-.04,.02-.05,.03-.06,.03-.11,.07-.17,.1-.25,.14-.49,.25-.79,.35-.25,.08-.5,.14-.77,.19h0c-.09,.02-.18,.03-.27,.05-.5,.09-1.01,.14-1.52,.16h0c-.16,0-.31,0-.46,0-.06,0-.13,0-.19,0,0,0-.01,0-.02,0-.03,0-.07,0-.1,0-.07,0-.14,0-.21-.01-.04,0-.09,0-.13,0-.09,0-.18-.01-.27-.02-.41-.04-.81-.13-1.21-.22-.44-.1-.83-.27-1.14-.5-.31,.02-.61,.05-.9,.1-6.4,.58-9.81,3.16-2.95,4.82,.58,.49,1.57,.86,2.74,1.13,.58,.35,1.09,.74,1.89,.97,.25,.07,.5,.14,.75,.2,.21,.16,.44,.31,.69,.45,2.01,1.14,4.96,1.81,7.93,1.91,.35,.01,.71,.02,1.07,.02,2.63,0,5.25-.35,7.46-1.07,1.24-.37,2.34-.89,3.73-1.11,1.43-.19,2.91-.15,4.38-.1,.78,.02,1.55,.04,2.32,.03,.59-.01,1.2-.08,1.79-.2,.64-.05,1.25-.19,1.74-.42,1.96-.64,3.15-1.82,2.42-3.01Z"/><polygon class="cls-13" points="56.33 61.63 55.8 60.01 55.69 59.28 54.71 51.6 54.47 46.05 54.31 39.05 55.71 39.45 57.35 38.64 59.56 40.49 60.91 36.91 61.48 35.8 62.95 34.98 64.14 35.65 64.37 38.77 65.75 37.65 67.69 38.14 67.69 39.79 68.91 40.31 69.96 40.82 69.81 43.17 70.96 44.18 72.24 46.71 71.21 47.24 69.68 45.79 68.33 46.3 67.14 49.02 65.53 50.55 66.97 53.27 68.15 56.02 69.74 60.01 70.11 65.16 69.28 67.17 68.47 68.65 66.36 69.87 63.97 69.48 61.28 66.68 58.84 62.38 57.7 62.67 56.98 62.67 56.33 61.63"/><polygon class="cls-13" points="5.5 39.48 7.67 34.19 5.92 32.94 3.23 30.93 2.73 32.43 1.52 32.8 .87 31.6 .87 29.08 3.21 27.36 2.23 26.49 1.94 24.8 3.82 23.3 5.61 24.94 5.3 20.99 7.54 20.35 9.27 22.71 9.3 20.69 9.91 19.15 12.85 19.55 13.36 21.61 15.1 26.46 16.41 27.84 18.75 29.08 19.23 31.64 18.8 32.82 15.49 33.45 13.97 33.09 13.56 37 14.88 36.58 17.22 34.61 21.25 33.52 18.11 54.16 17.84 51.72 10.29 55.54 5.76 55.54 2.9 51.67 2.59 48.36 3.96 42.56 5.03 40.84 5.5 39.48"/><path class="cls-13" d="M28.56,20.04l-.72,.16-1.18,5.08-2.08-1.86-.76,1.42c-.06,2.55,.78,3.67,1.76,4.54l1.63-.26,1.68,5.65-3-.12,.9,7.53,3.7,4.28,5.29,1.33,5.5-1.33,4.71-4.4,1.01-3.7,.15-1.18-4.97-.44,2.05-2.52,1.26-4.22s3.46-.76,3.95-3.21-.82-4.03-.82-4.03l-2.07,2.52-1.33-5.41-5.91-1.15h-4.9l-5.84,1.32Z"/><polygon class="cls-13" points="22.08 100.16 26.1 99.41 30.65 100.64 33.13 102.5 31.46 108.86 27.95 108.03 24.32 109.42 22.77 104.92 22.08 100.16"/><polygon class="cls-13" points="40.11 106.49 43.34 107.83 46.34 107.53 48.18 107.16 43.58 114.65 40.99 114.65 38.68 112.38 40.11 106.49"/><path class="cls-10" d="M27.9,20.07l-1.24,5.21-2.68-3.68-2.28-1.2-.09-2.1,.97-2.32v-3.18l.48-1.95,3.25-1.27,2.44-3.15,3.51-.77,1.27,.54,3.52-2.08,2.77-.26,3.67,1.84,4.67,.99,1.96,1.59,.36,2.31,1.44,1.64,.62,2-1.33,2.85c.74,2.35,.74,3.73-.14,3.93l-2.09,.5-2.49,4.19-.84-5.63-7.2-1.36-6.66,.16-3.89,1.19Z"/><polygon class="cls-13" points="23.9 18.47 28.56 16.52 31.37 17.09 34.93 16.35 37.6 15.39 38.53 16.47 41.99 15.63 48.89 18.22 49.17 21.37 40.59 18.72 33.54 18.72 27.39 20.23 23.98 21.61 23.9 18.47"/><path class="cls-6" d="M25.89,34.65c-.04,2.51,.56,5.23,1.76,8.15,1.34,1.98,2.63,3.64,3.69,3.87,1.74,1.12,3.98,1.28,6.4,1.11l4.99-2.71,3.57-4.58,.96-3.78,.61,.02-.81,7.94-3.48,8.15-3.78,3.09-3.88,1.01-4.59-.46-3.57-2.99-1.7-4.21-.49-5.54v-6.67l.3-2.41Z"/><path class="cls-13" d="M25.42,33.4l-3.81-.4-1.7,6.13-1.41,10.75-1.14,6.17,1.07,10.78,5.02,12.48,6.97,3.01,9.64,1.68,6.01-.37,6.52-3.37,2.1-6.75,2.6-5.98,.89-4.47-1.67-.53-1.46-6.98-.56-6.44-.18-10.05-1.37-.9-4.69-1.49-2.18,11.29-2.48,4.89-3.78,3.09-3.28,.95-5.19-.4s-3.3-2.37-4.38-4.79c-1.08-2.41-1.39-9.66-1.39-9.66l-.17-8.63Z"/><path class="cls-7" d="M25.42,33.4l-3.81-.4-1.7,6.13-1.41,10.75-1.14,6.17,1.07,10.78,5.02,12.48,6.97,3.01,9.64,1.68,6.01-.37,6.52-3.37,2.1-6.75,2.6-5.98,.89-4.47-1.67-.53-1.46-6.98-.56-6.44-.18-10.05-1.37-.9-4.69-1.49-2.18,11.29-2.48,4.89-3.78,3.09-3.28,.95-5.19-.4s-3.3-2.37-4.38-4.79c-1.08-2.41-1.39-9.66-1.39-9.66l-.17-8.63Z"/><path class="cls-12" d="M22.08,100.16l4.02-.75,5.2,1.55,1.83,1.54s2.86-6.59,4.28-7.69l1.42-1.1,1.54,4.01-.25,8.77,3.23,1.34,4.47-.67,3.43-9.64,1.53-10.65-.18-6.6-5.3,2.74s-5.6,.97-8.21,.63-8.65-1.31-8.65-1.31l-6.89-3.01-1.12,4.32-1.04,4.58s-.41,8.72,.7,11.95Z"/><polygon class="cls-8" points="24.32 109.42 26.3 108.03 30.14 108.55 31.63 109.84 31.3 116.72 28.56 116.34 25.8 115.18 24.32 109.42"/><polygon class="cls-8" points="38.68 112.38 41.9 114.65 43.58 114.65 39.15 120.25 37.48 119.68 37.04 117.33 38.68 112.38"/><path class="cls-12" d="M25.8,115.18s1.07-.55,2.05,.45c1.25,1.29,3.49,.38,3.49,.38l.03,5.38-.6,1.84-1.89,.97-5.77-.4-3.75-1.96s-2.42-1.41-1.53-2.93c.89-1.52,5.58-2.53,5.58-2.53l2.38-1.2Z"/><path class="cls-12" d="M36.56,118.3s1.04,1.66,1.81,1.8,1.35,.69,1.35,.69l2.18,4.46,.19,2.48-1.77,.71-2.76,.37-1.48-1.93-.19-3.83-.56-2.01,1.23-2.74Z"/><polygon class="cls-8" points="59.3 50.57 65.7 51.15 67.3 53.79 65.02 54.97 61.99 55.42 60.29 54.97 59.3 50.57"/><path class="cls-5" d="M33.77,31.47s3.42-.8,6.88-2.39c0,0,.61,1.72-1.27,2.64s-2.27,.97-2.88,1.22-1.65,.44-2.73-1.46Z"/><line class="cls-5" x1="38.84" y1="30.23" x2="39.17" y2="31.6"/><g><path class="cls-4" d="M10.73,33.22s-1.54,.48-2.17,.51c-.73,.04-2.98-.29-4.9-2.93-.1-.14-.38-.25-.64-.32,0,0-.29,2.32-1.21,2.28s-.97-2.03-1.01-2.74-.01-1.21,.68-1.67,1.64-1.09,1.64-1.09"/><path class="cls-4" d="M4.8,25.66s.35,.7,.16,1.13-.73,1.72-2.23,.08c-1.31-1.43-.71-1.94-.13-2.65s.76-1.19,1.63-.53,1.53,1.19,1.53,1.19"/><path class="cls-4" d="M7.98,23.66s.09,.9-.32,1.24-1.65,1.39-2.1-1.06c-.4-2.16-.48-2.79,1.04-3.41,.97-.39,1.2-.31,1.76,.78,.59,1.16,.92,1.59,.92,1.59"/><path class="cls-4" d="M11.72,22.36s-.31,1.11-.83,1.23c-.72,.17-1.91,.04-1.7-2.18,.2-2.08,.64-2.41,2.12-2.22,1.26,.16,1.66,.75,1.91,1.95,.32,1.56,1.45,4.44,1.45,4.44,1.02,2.6,2.58,2.35,3.96,3.75,.75,.76,.94,3.55-.61,3.47-1.98-.1-2.94,1.6-3.75,.08-.49-.91-.65-2,1.63-2.85"/><path class="cls-4" d="M7.85,33.98c-.56,1.24-1.12,2.45-1.63,3.74-1.26,3.16-2.47,5.82-2.47,5.82-1.1,2.92-1.97,5.99-.51,8.96,.63,1.27,1.64,2.34,2.94,2.92,1.46,.66,3.06,.56,4.56,.08,1.69-.54,5.2-2.25,6.59-3.74"/><path class="cls-4" d="M13.97,31.84c-.23,1.76-.3,3.63-.48,5.32-.87,8.34-2.55,14.12-2.55,14.12"/></g><g><g><path class="cls-4" d="M64.72,50.55s2.55,.03,3.29-3.7c0-.69,1.58-1.19,1.58-1.19,0,0,1.08,1.79,2.13,1.29s.15-.73-.45-2.76c-.25-.47-1.42-.76-1.42-.76"/><path class="cls-4" d="M57.58,41.71s1.58,.97,2.21-.15-1.18-1.7-1.85-2.3c-.94-.84-1.9-.32-2.45,.99-.45,1.07,.55,2.85,1.14,5.64,.68,3.17,3.03,3.98,3.03,3.98"/><path class="cls-4" d="M60.03,54.43c.52,3.16,.97,6.75,1.62,9.14"/><path class="cls-4" d="M57.7,60.3c1.44,2.94,4.01,7.94,6.27,9.18,3,1.64,5.63-2.34,6-3.72,.51-1.92,.91-3.86-2.9-11.92"/><path class="cls-4" d="M59.44,40.29s1.59-3.42,1.83-3.98,.89-1.94,2.6-1.03c.63,.33,.61,3.43,.22,3.69-1.14,.75-1.92,.11-2.07-1.57"/><path class="cls-4" d="M64.46,38.58s1.13-.73,1.63-.95c.61-.27,2.04,.3,1.95,.66-.27,1.09-.49,2.88-.67,3.05s-2.29,.66-2.07-1.73"/><path class="cls-4" d="M67.97,40c.56-.35,2.03,.45,1.99,.83-.12,1.11-.09,2.51-.17,2.74-.1,.33-2.24,.61-2.24-2.06"/><line class="cls-4" x1="65.56" y1="41.17" x2="65.06" y2="42.08"/><line class="cls-4" x1="63.74" y1="39.3" x2="62.43" y2="40.81"/><line class="cls-4" x1="67.69" y1="42.69" x2="66.92" y2="44.29"/></g><path class="cls-4" d="M59.09,50.38s3.69,1.05,6.78,.38c0,0,.89,1.45,1.43,2.87,0,0-3.59,3.85-7.44,.54l-.77-3.79Z"/></g><g><path class="cls-4" d="M31.24,115.98s1.09,3.54-.61,7.59c0,0-4.96,2.02-9.63-.67-3.46-1.99-3.71-2.89-2.94-4.07s4.14-2.11,5.84-2.57c1.02-.28,1.78-1.98,3.11-1.21s0,1.48,4.22,.93Z"/><path class="cls-4" d="M36.82,118.32s.4,2.94,2.62,1.52"/><path class="cls-4" d="M37.08,117.6s-1.1,2.08-1.54,3.27,.16,1.93,.28,2.59c.2,1.15-.41,5.11,2.52,5.37s4.15-.98,3.97-2.06c-.29-1.83-1.94-2.65-2.96-6.78,0,0,14.38-13.51,13.24-39.74"/><path class="cls-2" d="M18.19,119.18s1.68,2.02,6.41,3.12,6.17,.92,6.17,.92"/><path class="cls-4" d="M36.82,118.32s6.6-14.12,1.86-24.38c0,0-3.64-2.18-4.84-6.34"/><path class="cls-4" d="M47.77,107.1s-4.13,1.98-7.63-.62"/><path class="cls-4" d="M43.82,114.42s-3.13,1.09-4.9-1.74"/><path class="cls-4" d="M38.03,93.99s-6.38,6.14-6.96,22.29"/><path class="cls-4" d="M23.58,79.19s-6.18,13.89,2.26,35.77"/><path class="cls-4" d="M22.08,100.64s4.81-3.58,11.34,1.81"/><path class="cls-4" d="M23.99,109.54s3.59-3.29,7.72,0"/></g><g><path class="cls-3" d="M26.81,26c.56,5.36,2.55,14.04,9.65,10.89,6.71,3.63,9.34-5.6,10.06-11.39"/><path class="cls-3" d="M24.76,23.28c-.7,.48-1.3,1.33-1.11,2.85,.41,3.24,3.68,3.52,3.68,3.52"/><path class="cls-3" d="M48.26,23.07c.84,.42,1.7,1.28,1.47,3.06-.41,3.24-3.68,3.52-3.68,3.52"/><path class="cls-2" d="M36.51,25.15s-.17,.69-.5,1.34c-.36,.7-.07,1.25,.77,1.35"/><path class="cls-4" d="M38.17,15.46c-.72-.04-1.05-.04-1.74-.03"/><path class="cls-4" d="M28.85,16.48c-2.45,.66-4.22,1.48-4.87,2,0,0-.73,2.12,0,3.14,2-1.57,14.31-5.98,25,0,.72-1.46,0-3.14,0-3.14-2.49-1.39-5.07-2.22-7.59-2.66"/><path class="cls-4" d="M48.75,21.61s-.8,2.32-2.27,4.1c0,0-.12-3.7-1.27-5.78"/><path class="cls-4" d="M24.45,21.61s.8,2.32,2.27,4.1c0,0,.12-3.7,1.27-5.78"/><path class="cls-3" d="M39.81,12.52s-6.39,7.37-11.81,3.4"/><path class="cls-4" d="M43.73,10.21s3.2,.27,1.34,3.13-6.91,3.1-6.91,3.1l.3-2.58"/><path class="cls-4" d="M24.45,22.21s-4.75-1.82-2.18-5.77c.66-1.01-.37-3.92,.99-5.49s3.41-1.36,3.41-1.36c0,0,.54-2.66,2.81-3.5s3.79-.04,4.29,.26c0,0,1.42-2.56,4.85-2.56s3.31,1.68,5.49,1.97c2.18,.28,5.72,1.38,6.02,2.79s.14,2.09,.97,2.88,1.95,2.89,.59,4.76c-1.36,1.87,2.38,4.88-2.69,5.43"/><path class="cls-9" d="M30.79,21.04s3.14,.83,3.56,.18-1.35-1.26-2.51-1.56c-2.9-.76-3.57-.33-3.75-.03s.94,1.03,2.7,1.42Z"/><path class="cls-9" d="M42.14,21.04s-3.14,.83-3.56,.18,1.35-1.26,2.51-1.56c2.9-.76,3.57-.33,3.75-.03s-.94,1.03-2.7,1.42Z"/></g><g><path class="cls-4" d="M16.4,46.47s.88,4.59,1.65,6.49"/><path class="cls-4" d="M20.75,33.54s-3.71-.04-7.18,3.93"/><path class="cls-4" d="M59.22,55.92s-1.48,4.44-2.42,5.93"/><path class="cls-4" d="M48,36.88c-1.21,18.96-9.93,20.24-13.08,20.04s-7.32-1.1-8.62-7.2c-1.29-6.1-.38-15.98-.38-15.98,0,0-2.05-.88-4.64-.34,0,0-.76,2.96-1.11,5.18-.95,6.01-2.18,15.12-2.69,17.47-.3,1.37,.33,9.54,1.9,13.47s2.9,7.15,3.42,8.37,1.13,1.67,3.25,2.7,16.84,6.93,26.54-.33c0,0,.13-3.29,2.87-8.26s2.72-10.33,2.72-10.33c-.15,1.39-1.2,1.14-1.2,1.14-3.04-2.93-2.68-23.95-2.68-23.95,0,0-6.73-3.49-7.66-1.67"/><path class="cls-4" d="M42.26,36.57s.87,.84,5.62,1.06"/><path class="cls-4" d="M25.8,35.41s.11,11.61,9.13,12.38,12.35-9.93,12.35-9.93"/><path class="cls-2" d="M21.28,60.15s1.58,4.34,10.42,4.75"/><path class="cls-2" d="M38.22,65.29s6.02,1.42,11.34-.39"/><path class="cls-2" d="M35.01,68.13s.1,3.44,.25,5.19,0,4.26,0,4.26"/><path class="cls-4" d="M26.04,34.12s1.97,.78,3.22,.71"/><path class="cls-4" d="M26.04,37.1s2.87,3.26,5.34,3.87c2.02,.5,2.39,1.26,2.39,1.26"/><path class="cls-4" d="M37.55,42.61s.52-.92,1.56-1,4.82-.74,7.3-1.96"/><line class="cls-4" x1="54.32" y1="39.3" x2="55.8" y2="39.66"/></g><g><circle class="cls-11" cx="32.19" cy="24.8" r="1.23"/><circle class="cls-2" cx="32.19" cy="24.8" r="2.41"/><circle class="cls-11" cx="41.02" cy="24.8" r="1.23"/><circle class="cls-2" cx="41.02" cy="24.8" r="2.41"/></g></svg>