<?xml version="1.0" encoding="UTF-8"?><svg id="_レイヤー_9" xmlns="http://www.w3.org/2000/svg" xmlns:xlink="http://www.w3.org/1999/xlink" viewBox="0 0 64.91 138.22"><defs><style>.cls-1,.cls-2,.cls-3,.cls-4{fill:none;}.cls-2{stroke-linecap:round;stroke-width:1.41px;}.cls-2,.cls-3,.cls-4{stroke:#040000;stroke-miterlimit:10;}.cls-5{clip-path:url(#clippath);}.cls-6{fill:#040000;}.cls-7{fill:#0068b6;}.cls-8{fill:#e9da21;}.cls-9{fill:#fff;}.cls-10{fill:#c68f00;}.cls-11{fill:#1961ad;}.cls-3{stroke-width:.19px;}.cls-12{fill:url(#Unnamed_Pattern_5);}.cls-4{stroke-width:.98px;}</style><clipPath id="clippath"><rect class="cls-1" width="28.8" height="28.8"/></clipPath><pattern id="Unnamed_Pattern_5" x="0" y="0" width="28.8" height="28.8" patternTransform="translate(-295.25 -166.37) scale(.74 -.74)" patternUnits="userSpaceOnUse" viewBox="0 0 28.8 28.8"><g><rect class="cls-1" width="28.8" height="28.8"/><g class="cls-5"><path class="cls-7" d="M28.8-2.16C29.99-2.16,30.96-1.19,30.96,0s-.97,2.16-2.16,2.16S26.64,1.19,26.64,0s.97-2.16,2.16-2.16"/><path class="cls-7" d="M14.4-2.16C15.59-2.16,16.56-1.19,16.56,0s-.97,2.16-2.16,2.16S12.24,1.19,12.24,0s.97-2.16,2.16-2.16"/><path class="cls-7" d="M28.8,12.24c1.19,0,2.16,.97,2.16,2.16s-.97,2.16-2.16,2.16-2.16-.97-2.16-2.16,.97-2.16,2.16-2.16"/><path class="cls-7" d="M14.4,12.24c1.19,0,2.16,.97,2.16,2.16s-.97,2.16-2.16,2.16-2.16-.97-2.16-2.16,.97-2.16,2.16-2.16"/><path class="cls-7" d="M7.2,5.04c1.19,0,2.16,.97,2.16,2.16s-.97,2.16-2.16,2.16-2.16-.97-2.16-2.16,.97-2.16,2.16-2.16"/><path class="cls-7" d="M21.6,5.04c1.19,0,2.16,.97,2.16,2.16s-.97,2.16-2.16,2.16-2.16-.97-2.16-2.16,.97-2.16,2.16-2.16"/><path class="cls-7" d="M7.2,19.44c1.19,0,2.16,.97,2.16,2.16s-.97,2.16-2.16,2.16-2.16-.97-2.16-2.16,.97-2.16,2.16-2.16"/><path class="cls-7" d="M21.6,19.44c1.19,0,2.16,.97,2.16,2.16s-.97,2.16-2.16,2.16-2.16-.97-2.16-2.16,.97-2.16,2.16-2.16"/><path class="cls-7" d="M0-2.16C1.19-2.16,2.16-1.19,2.16,0S1.19,2.16,0,2.16-2.16,1.19-2.16,0-1.19-2.16,0-2.16"/><path class="cls-7" d="M0,12.24c1.19,0,2.16,.97,2.16,2.16s-.97,2.16-2.16,2.16-2.16-.97-2.16-2.16,.97-2.16,2.16-2.16"/><path class="cls-7" d="M28.8,26.64c1.19,0,2.16,.97,2.16,2.16s-.97,2.16-2.16,2.16-2.16-.97-2.16-2.16,.97-2.16,2.16-2.16"/><path class="cls-7" d="M14.4,26.64c1.19,0,2.16,.97,2.16,2.16s-.97,2.16-2.16,2.16-2.16-.97-2.16-2.16,.97-2.16,2.16-2.16"/><path class="cls-7" d="M0,26.64c1.19,0,2.16,.97,2.16,2.16s-.97,2.16-2.16,2.16-2.16-.97-2.16-2.16,.97-2.16,2.16-2.16"/></g></g></pattern></defs><path class="cls-10" d="M50.5,130.27c-.55-1.42-2.1-2.59-4-3.33-.76-.33-3.23-1.34-3.18-1.91-.18-1.02-1.05-1.67-2.14-1.97-2.13-1.07-5.3-1.11-7.44,.17-.53,.27-.9,.61-1.23,.98,.06,.15,.1,.31,.11,.48,.06,.56-.38,1.11-.95,1.35-.22,.09-.44,.13-.67,.13-.15,0-.3-.02-.44-.05-.17,.07-.35,.13-.55,.14t0,0s-.06,0-.09,0c-.21,0-.42-.05-.62-.12-.07-.03-.14-.06-.21-.09-.05-.03-.1-.05-.15-.08h0c-.07-.03-.14-.06-.2-.1-.01,0-.02-.01-.03-.02-.04-.02-.08-.04-.11-.06-.24-.15-.38-.37-.48-.6,0,0,0-.01,0-.02,0,0,0-.02-.01-.02-.02-.03-.04-.07-.06-.1-.02-.05-.04-.09-.06-.14,0-.01,0-.02-.01-.03-.01-.04-.02-.07-.03-.11-.01-.04-.02-.09-.03-.13,0-.03,0-.05-.01-.08-.01-.03-.02-.07-.03-.1-.02-.06-.03-.11-.05-.17-.01-.06-.02-.11-.03-.17,0-.02,0-.04,0-.06-.09-.15-.17-.29-.25-.45h0s-.02-.04-.03-.05c0-.01-.01-.02-.02-.03,0,0,0,0,0,0l-.09-.17c-.05-.09-.1-.17-.15-.25,0,0,0-.01-.01-.02h0c-.09-.02-.18-.03-.28-.04-.04,0-.08-.01-.12-.02-.05,0-.1,0-.15-.01,0,0-.01,0-.02,0-.06,0-.11-.01-.17-.02,0,0,0,0-.01,0-.02,0-.03,0-.05-.01s-.03,0-.05-.01c-.02,0-.05-.01-.07-.02-.02,0-.04-.01-.06-.02-.01,0-.02,0-.04-.01-.02,0-.05-.02-.07-.02-.02,0-.04-.02-.06-.02-.01,0-.03-.01-.04-.02-.03-.01-.06-.03-.09-.04-.06-.03-.11-.07-.17-.11-1.08,.17-2.12,.48-3.04,.69-.28,.09-.56,.18-.83,.27-1.71,.17-3.16,.77-4.7,1.12-1.19,.43-2.91,.31-4.3,.58-6.69,.78-10.26,4.28-3.08,6.52,.61,.67,1.64,1.16,2.86,1.53,.61,.48,1.14,1,1.98,1.32,.26,.1,.52,.19,.78,.28,.22,.22,.46,.42,.72,.61,2.1,1.55,5.18,2.46,8.29,2.59,.37,.02,.74,.03,1.11,.03,2.75,0,5.49-.47,7.8-1.45,1.3-.5,2.44-1.2,3.9-1.51,1.5-.25,3.04-.2,4.58-.14,.81,.03,1.62,.06,2.42,.05,.62-.02,1.25-.11,1.87-.27,.67-.07,1.31-.26,1.82-.57,2.05-.86,3.3-2.46,2.53-4.07"/><line class="cls-2" x1="9.31" y1="30.9" x2="25.29" y2="59.57"/><path class="cls-11" d="M10.42,33.01c-.55-.31-1.11-.63-1.66-.94-.19-.11-.39-.22-.51-.41-.1-.16-.13-.35-.17-.53-.24-1.15-.81-2.21-1.37-3.24-.57-1.06-1.15-2.12-1.72-3.18-.68-1.26-1.37-2.52-2.26-3.64-.26-.33-.55-.78-.33-1.13,.08-.13,.22-.21,.35-.29,.3-.18,.59-.36,.89-.55,.21-.13,.45-.27,.69-.21,.5,.11,.49,.8,.52,1.32,.04,.58,.28,1.15,.69,1.57,.21,.22,.45,.4,.63,.64,.28,.39,.33,.9,.43,1.37,.62,2.83,3.33,4.75,4.29,7.48,.15,.43,.25,.93,0,1.31-.25,.38-.98,.37-1.06-.07"/><path class="cls-6" d="M10.66,32.58c-1.56-.89-2.03-1.74-2.71-3.31-.48-1.11-1.11-2.16-1.69-3.23-.63-1.16-1.23-2.33-1.91-3.46-.24-.4-.83-.99-.95-1.43-.39-.31-.35-.64,.11-1,.23-.88,.51-.88,.84,.03,.17,.18,.59,1.51,.75,1.82,.56,1.03,.98,2.05,1.43,3.12,.47,1.1,1.19,2.03,1.89,2.99,.39,.54,.8,1.06,1.15,1.63,.21,.31,.39,.64,.52,.99,.4,.45,.42,.92,.07,1.41-.41-.48-1.1,.22-.69,.69,.47,.54,1.21,.68,1.75,.07,.81-.91-.13-2.51-.59-3.32-.59-1.04-1.38-1.95-2.06-2.93-.84-1.2-1.14-2.37-1.65-3.73-.4-1.05-1.18-2.62-1.63-3.35-.31-.5-.01-.73-.62-1.05-.69-.36-1.74,.21-2.22,.72-.85,.9-.55,1.4,.12,2.4,1.46,2.19,2.74,4.52,3.93,6.87,.51,1.01,.7,2.5,1.34,3.38,.51,.7,1.64,1.13,2.35,1.53,.55,.31,1.04-.53,.49-.85"/><line class="cls-2" x1="10.11" y1="24.81" x2="19.46" y2="56.28"/><path class="cls-11" d="M10.73,27.1c-.47-.43-.94-.85-1.42-1.28-.16-.15-.33-.3-.41-.51-.06-.18-.06-.37-.05-.56,.01-1.18-.31-2.33-.63-3.46-.33-1.16-.66-2.32-.99-3.48-.39-1.38-.78-2.76-1.41-4.05-.18-.38-.37-.88-.08-1.18,.11-.11,.26-.16,.4-.21,.33-.11,.66-.23,.99-.34,.23-.08,.5-.16,.72-.06,.46,.22,.31,.89,.22,1.4-.09,.58,.03,1.18,.33,1.68,.15,.26,.36,.49,.47,.76,.18,.44,.12,.95,.12,1.43,0,2.89,2.21,5.36,2.56,8.24,.05,.45,.04,.96-.29,1.28-.33,.31-1.03,.15-1.02-.3"/><path class="cls-6" d="M11.07,26.75c-1.89-1.71-1.74-3.23-2.38-5.6-.41-1.51-.83-3.02-1.29-4.51-.02-.07-1.58-4.13,.19-3.34-.26-.12,.37,1.96,.36,1.93,.29,1.15,.49,2.26,.72,3.41,.18,.9,.52,1.73,.88,2.57,.28,.65,.58,1.3,.84,1.96,.18,.38,.32,.77,.42,1.17,.24,.61,.2,1.23-.14,1.86-.3-.56-1.14-.06-.84,.49,.33,.63,.95,.93,1.63,.5,.87-.55,.6-1.89,.42-2.7-.6-2.66-2.02-4.85-2.38-7.62-.12-.92-.29-1.68-.53-2.61,.08,.32-.31-2.08-.41-2.19-1.22-1.41-3.47-.22-3.32,1.51,.12,1.37,1.11,2.97,1.52,4.35,.42,1.43,.89,2.88,1.22,4.33,.67,2.9,.19,3.17,2.4,5.18,.47,.42,1.16-.27,.69-.69"/><path class="cls-8" d="M46.66,58.72H15.3c-1.74,0-3.15-1.41-3.15-3.15V28.7c0-1.53,1.1-2.85,2.61-3.11,8.17-1.4,15.05-3.46,32.5-.1,1.48,.29,2.56,1.59,2.56,3.1v26.98c0,1.74-1.41,3.15-3.15,3.15"/><path class="cls-3" d="M46.66,58.72H15.3c-1.74,0-3.15-1.41-3.15-3.15V28.7c0-1.53,1.1-2.85,2.61-3.11,8.17-1.41,15.05-3.46,32.5-.1,1.48,.29,2.56,1.59,2.56,3.1v26.98c0,1.74-1.41,3.15-3.15,3.15Z"/><path class="cls-4" d="M46.66,58.72H15.3c-1.74,0-3.15-1.41-3.15-3.15V28.7c0-1.53,1.1-2.85,2.61-3.11,8.17-1.41,15.05-3.46,32.5-.1,1.48,.29,2.56,1.59,2.56,3.1v26.98c0,1.74-1.41,3.15-3.15,3.15Z"/><path class="cls-9" d="M15.38,41.6l1.08,8.34,.23,1.94,.24,1.01-2.05,4.76-2.99,6.97h1.1s5.63-5.25,5.63-5.25l3.05-5.8,.46-2.47,.93-5.15-.7-7.86-.69-4.18,1.67,3.53,1.81,3.51,1.65,.44,2.98,1.08,2.21-.55-.76,2.3v1.66l1.1,.6,.94-.49v-2.16l-.35-1.58,1.67-.5,1.58-.36,1.4-1.48,1.92-1.05,.94-1.72,.72-1.15-.36,6.59,.48,3.52,.11,3.49,.43,.7,1.95,2.97s1.92,1.46,3.51,2.14c1.6,.68,2.15,1.1,2.15,1.1l1.26-1.43-2.81-2.36-1.42-2.78,.51-4.6,.41-1.73,.55-3.41,.24-3.72-.39-2.75,1.53,.67,2,2.05,.61,.27v-1.28l1.33,.75,2.22,.49,2.96-.88-.28-1.1v-.36s.95-.34,.95-.34l.48,.54,.69,1.15,.72,2.47,1.8,2.39,1.18,2.85s.64,2.82,.64,3.81-1.26,4.4-1.26,4.4c0,0-2.23,3.42-3.96,3.82-1.73,.39-8.16-.58-8.16-.58l-1.12,2.02,2.06,7,.74,9.05s-1.25,9.83-1.64,10.59c-.39,.77-2.39,4.58-2.39,4.58l-1.56,1.58s-8.72,3.25-9.62,3.53c-.9,.28-9.52,.75-9.52,.75l-5.32-.75-5.65-3.15-3.28-6.87s-2.14-5.54-1.96-7.5c.18-1.96-.75-7.26,.53-10.91,.34-.97-1.2-.52-1.2-.52l-1.55,.8-2.66,.99-2.63-.06s-2.15-1.25-2.15-1.35-1.53-1.92-1.53-1.92l-.42-2.97,1.41-3.79,1.39-1.9,1.95-5.24,1.25-2.86,1.3,1.04,1.13,.24,3.92-1.29-.33-1.09,1.42-.87,1.56-2.41Z"/><path class="cls-12" d="M15.38,41.6l1.08,8.34,.23,1.94,.24,1.01-2.05,4.76-2.99,6.97h1.1s5.63-5.25,5.63-5.25l3.05-5.8,.46-2.47,.93-5.15-.7-7.86-.69-4.18,1.67,3.53,1.81,3.51,1.65,.44,2.98,1.08,2.21-.55-.76,2.3v1.66l1.1,.6,.94-.49v-2.16l-.35-1.58,1.67-.5,1.58-.36,1.4-1.48,1.92-1.05,.94-1.72,.72-1.15-.36,6.59,.48,3.52,.11,3.49,.43,.7,1.95,2.97s1.92,1.46,3.51,2.14c1.6,.68,2.15,1.1,2.15,1.1l1.26-1.43-2.81-2.36-1.42-2.78,.51-4.6,.41-1.73,.55-3.41,.24-3.72-.39-2.75,1.53,.67,2,2.05,.61,.27v-1.28l1.33,.75,2.22,.49,2.96-.88-.28-1.1v-.36s.95-.34,.95-.34l.48,.54,.69,1.15,.72,2.47,1.8,2.39,1.18,2.85s.64,2.82,.64,3.81-1.26,4.4-1.26,4.4c0,0-2.23,3.42-3.96,3.82-1.73,.39-8.16-.58-8.16-.58l-1.12,2.02,2.06,7,.74,9.05s-1.25,9.83-1.64,10.59c-.39,.77-2.39,4.58-2.39,4.58l-1.56,1.58s-8.72,3.25-9.62,3.53c-.9,.28-9.52,.75-9.52,.75l-5.32-.75-5.65-3.15-3.28-6.87s-2.14-5.54-1.96-7.5c.18-1.96-.75-7.26,.53-10.91,.34-.97-1.2-.52-1.2-.52l-1.55,.8-2.66,.99-2.63-.06s-2.15-1.25-2.15-1.35-1.53-1.92-1.53-1.92l-.42-2.97,1.41-3.79,1.39-1.9,1.95-5.24,1.25-2.86,1.3,1.04,1.13,.24,3.92-1.29-.33-1.09,1.42-.87,1.56-2.41Z"/><path class="cls-3" d="M15.38,41.6l1.08,8.34,.23,1.94,.24,1.01-2.05,4.76-2.99,6.97h1.1s5.63-5.25,5.63-5.25l3.05-5.8,.46-2.47,.93-5.15-.7-7.86-.69-4.18,1.67,3.53,1.81,3.51,1.65,.44,2.98,1.09,2.21-.55-.76,2.3v1.66l1.1,.6,.94-.49v-2.16l-.35-1.58,1.67-.5,1.58-.36,1.4-1.48,1.92-1.05,.94-1.72,.72-1.15-.36,6.59,.48,3.52,.11,3.49,.43,.7,1.95,2.97s1.92,1.46,3.51,2.14c1.6,.68,2.15,1.1,2.15,1.1l1.26-1.43-2.81-2.36-1.42-2.78,.51-4.6,.41-1.73,.55-3.41,.24-3.72-.39-2.75,1.53,.67,2,2.05,.61,.27v-1.28l1.33,.75,2.22,.49,2.96-.88-.28-1.1v-.36s.95-.34,.95-.34l.48,.54,.69,1.15,.72,2.47,1.8,2.39,1.18,2.85s.64,2.82,.64,3.81-1.26,4.4-1.26,4.4c0,0-2.23,3.42-3.96,3.82-1.73,.39-8.16-.58-8.16-.58l-1.12,2.02,2.06,7,.74,9.05s-1.25,9.83-1.64,10.59c-.39,.77-2.39,4.58-2.39,4.58l-1.56,1.58s-8.72,3.25-9.62,3.53c-.9,.28-9.52,.75-9.52,.75l-5.32-.75-5.65-3.15-3.28-6.87s-2.14-5.54-1.96-7.5c.18-1.96-.75-7.26,.53-10.91,.34-.97-1.2-.52-1.2-.52l-1.55,.8-2.66,.99-2.63-.07s-2.15-1.25-2.15-1.35-1.53-1.92-1.53-1.92l-.42-2.97,1.41-3.79,1.39-1.9,1.95-5.24,1.25-2.86,1.3,1.04,1.13,.24,3.92-1.29-.33-1.09,1.42-.87,1.56-2.41Z"/><polygon class="cls-9" points="26.76 4.97 28.45 1.04 31.4 .8 36.4 1.58 38.17 2.64 38.5 6.99 43.21 9.88 43 10.33 40.08 10.38 31.84 9.23 27.54 8.45 22.81 6.99 21.19 6.12 21.92 5.21 26.76 4.97"/><path class="cls-9" d="M27.4,10.98s.39,2.06,2.89,2.93c2.49,.87,3.74,1.14,3.74,1.14l2.11-.56,2.6,.96,1.53,.15,.03,7.43-2.2,1.45-1.53-.34-1.64,.34-1.76-.34-1.55,.34-1.32-.34-1.37-.06-1.16,.36-1.53-.25-1.57-.47-1.25,.36-.64-2.53-.37-4.71,2.49-2.26,2.5-3.61Z"/><polygon class="cls-9" points="5.88 47.65 7.02 48.55 6.47 49.58 8.85 49.78 11.24 48.83 12.32 47.86 13.75 46.22 15.06 42.3 15.66 40.44 15.66 39.11 14.44 38.15 12.06 39.74 10.79 36.37 10.26 35.33 9.05 34.95 8.02 35.58 7.53 38.13 6.23 37.07 4.41 37.53 4.41 39.09 3.26 39.58 2.87 40.44 2.87 41.86 1.9 42.11 .37 44.75 .73 45.38 1.93 45.38 2.73 44.53 4.05 44.87 5.88 47.65"/><polygon class="cls-9" points="47.52 30.38 50.54 28.71 51.71 27.06 52.99 23.47 53.44 21.68 55.34 21.13 56.19 22.15 56.61 24.09 57.95 22.15 59.89 23.02 59.89 25.98 61.81 24.93 62.78 26.65 62.29 28.13 61.74 28.76 63.81 29.58 63.82 32.02 63.44 33.61 62.53 33.45 61.74 31.42 59.32 33.48 58.16 34.39 58.48 35.94 56.94 36.84 53.74 36.44 51.88 35.64 52.44 33.94 50.09 34.19 47.47 33.47 47.27 31.69 47.52 30.38"/><polygon class="cls-9" points="20.3 18.47 20.74 19.82 20.95 24.95 19.74 24.15 18.6 22.01 18.89 20.22 20.3 18.47"/><polygon class="cls-9" points="42.42 18.15 43.4 18.85 44.48 20.22 44.48 22.87 42.42 25.76 41.35 24.7 42.12 22.65 42.44 20.81 42.08 19.3 42.42 18.15"/><polygon class="cls-9" points="33.46 119.06 35.98 120.21 34.13 123.37 32.79 122.79 32.55 120.75 33.46 119.06"/><polygon class="cls-9" points="22.97 115.45 24.47 115.58 25.88 116.89 25.3 119.02 20.51 118.19 21.09 117.08 21.99 115.58 22.97 115.45"/><path class="cls-11" d="M42.65,14.24l-.47-2.88-.64-1.73s-4.46-.26-7.48-.67c-3.02-.41-9.66-1.92-9.66-1.92l-2.69,1.09-2.47,2.45v2.61l.8,1.91v2.81l.44,1.35,.43,5.69-.67,1.86,.24,1.2-.1,3.68,1.55,2.66,1.1,2.56,1.6,3.67,2.64,.4,2.3,1.06,1.94-.29,1.48,.23h1.59l1.29-1.06,1.24-.34,.71-1.27,1.59-.7,.92-1.15,.74-1.79,.7-1.32,.08-1.08-.41-2.65,.22-2.43,.14-2.55-.73-1.51,.77-2.05,.18-2.43-.49-2.27,1.11-3.17Zm-4.82,9.92l-1.53-.34-1.64,.34-1.76-.34-1.56,.34-1.32-.34-1.37-.06-1.16,.36-1.53-.25-1.57-.47-1.25,.36-.64-2.52-.37-3.84,2.49-3.13,2.5-3.61s1,2.4,3.5,3.27c2.5,.87,3.13,.8,3.13,.8l2.11-.56,2.6,.96,1.53,.15,.03,7.43-2.2,1.45Z"/><polygon class="cls-11" points="18.53 119.16 21.18 118.12 26.26 119.04 27.04 121.64 25.11 126.28 18.65 126.17 13.76 122.65 14.67 120.72 17.2 119.62 18.53 119.16"/><polygon class="cls-11" points="31.85 122.81 34.04 123.18 34.84 122.99 36.33 127.62 37.28 129.13 37.18 130.9 35.3 131.55 33.09 131.42 31.66 129.44 31.61 128.02 31.79 125.16 31.85 122.81"/><path class="cls-8" d="M21.06,117.41l.83-1.57,2.17-.44,1.8,1.57,.43,1.72,.89-2.19,.67-4.83v-5.86l3.47-10.35,1.74-.56,.85,1.05,.57,2.6s.47,5.14,0,9.16c-.47,4.01-.75,6.59-.75,6.59l-1.11,1.66-.41,2.03,1.09,1.64,2.24,.57,1.7-.57,1.43-3.14,1.58-3.69,3.87-9.58,2.57-8.11,1.07-6.34-1.77,1.59-5.76,2.18s-4.08,1.96-10.66,1.51c-6.59-.45-10.59-2.32-10.59-2.32l-.94-.81-.63,2.97,.78,9.71,1.45,8.17,.72,4.72,.74,.91Z"/><path class="cls-3" d="M21.06,117.41l.83-1.57,2.17-.44,1.79,1.57,.43,1.72,.89-2.19,.67-4.83v-5.86l3.47-10.35,1.74-.56,.85,1.05,.57,2.6s.47,5.14,0,9.16c-.47,4.01-.75,6.59-.75,6.59l-1.11,1.66-.41,2.03,1.09,1.64,2.24,.57,1.7-.57,1.43-3.14,1.58-3.69,3.87-9.58,2.57-8.11,1.07-6.34-1.77,1.59-5.76,2.18s-4.08,1.96-10.66,1.51c-6.59-.45-10.59-2.32-10.59-2.32l-.94-.81-.63,2.97,.78,9.71,1.45,8.17,.72,4.72,.74,.91Z"/><polygon class="cls-8" points="42.28 31.84 44.92 32.53 48.35 33.31 48.11 37.36 46.45 49.94 50.69 55.08 50.12 56.51 48.53 56.23 46.43 55 44.88 53.97 42.38 50.89 40.79 41.03 40.79 37.26 42.08 33.73 42.28 31.84"/><polygon class="cls-3" points="42.28 31.84 44.92 32.53 48.35 33.31 48.11 37.36 46.45 49.94 50.69 55.08 50.12 56.51 48.53 56.23 46.43 55 44.88 53.97 42.38 50.89 40.79 41.03 40.79 37.26 42.08 33.73 42.28 31.84"/><polygon class="cls-8" points="32.01 42.19 32.94 42.72 32.94 45.97 31.61 46.68 31.13 45.87 31.03 44.43 32.01 42.19"/><polygon class="cls-3" points="32.01 42.19 32.94 42.72 32.94 45.97 31.61 46.68 31.13 45.87 31.03 44.43 32.01 42.19"/><polygon class="cls-11" points="27.41 4.23 38.69 5.84 38.78 7.16 34.61 6.77 26.76 4.97 27.41 4.23"/><polygon class="cls-8" points="14.87 36.98 17.96 35.06 20.88 33.86 22.34 36.32 23.19 43.9 21.61 52.4 19.24 58.73 15.61 62.54 12.52 64.8 11.89 63.62 14.07 60.98 16.93 52.88 16.06 46.12 15.66 40.44 14.87 36.98"/><polygon class="cls-3" points="14.87 36.98 17.96 35.06 20.88 33.86 22.34 36.32 23.19 43.9 21.61 52.4 19.24 58.73 15.61 62.54 12.52 64.8 11.89 63.62 14.07 60.98 16.93 52.88 16.06 46.12 15.66 40.44 14.87 36.98"/><path class="cls-6" d="M55.39,36.97c-1.29-.16-2.77-.54-3.64-1.56-.22-.47,.4-.94,.79-.61,.82,.73,1.94,1.05,3.02,1.15,1.18,.11,2.34-.35,3.24-1.09,.31-.27,.55-.85,1.04-.56,.96,.78-1.16,1.93-1.78,2.22-.67,.33-1.41,.48-2.16,.48-.17,0-.34,0-.52-.02"/><path class="cls-6" d="M52.5,39.08c-.1,0-.2,0-.29,0-.03-.02-.05-.04-.08-.05-.38-1.24-.83-3.11-.53-4.34,.24-.45,.98-.26,.96,.26-.04,.32-.03,.66,0,.96,0,0,0-.02,0-.03h0c.08,.97,.26,1.92,.56,2.84,.07,.16,.05,.31-.01,.43-.2-.04-.4-.06-.6-.07"/><path class="cls-6" d="M51.6,34.69s0,0,0,0h0s0,.01,0,.01c0,0,0,0,0-.01"/><path class="cls-6" d="M60.74,38.82c-.42-1.38-.83-2.73-1.46-4.02-.28-.07-.55,.05-.83,.1-.28,0-.52-.23-.52-.52,0-.14,.05-.24,.12-.33h0s.02-.01,.02-.01h.02s.03-.02,.03-.02h.03s.03-.03,.03-.03h.03s.03-.03,.03-.03h.03s.03-.03,.03-.03h.03s.03-.03,.03-.03h.04s.04-.02,.04-.02h.04s.04-.02,.04-.02h.03s.04-.02,.04-.02h.03s.03-.02,.03-.02h.03s.03-.02,.03-.02h.03s.03-.02,.03-.02h.03s.03-.02,.03-.02h0c.1-.01,.2-.01,.29-.02,.56-.03,1.01,.33,1.19,.84,.57,1.29,1,2.61,1.4,3.95,.1,.39-.21,.65-.52,.65-.2,0-.4-.11-.48-.37"/><path class="cls-6" d="M52.5,39.08c-.1,0-.2,0-.29,0-.01-.01-.03-.02-.04-.03,.03-.08,.06-.17,.1-.25,.28-.39,.94-.17,.93,.31,0,.02,0,.03,0,.05-.23-.06-.45-.08-.68-.09"/><path class="cls-6" d="M61.78,40.16c-.27-.45-.68-.88-.92-1.32-.16-.53,.58-.9,.91-.45-.01-.02-.03-.03-.04-.05,1.07,1.33,1.96,2.81,2.56,4.36h-.04s-.05-.02-.05-.02h-.05s-.05-.02-.05-.02h-.05s-.06-.01-.06-.01h-.06s-.06,0-.06,0h-.06s-.07,0-.07,0h-.07s-.07,.01-.07,.01h-.07s-.08,.02-.08,.02h-.08s-.08,.03-.08,.03l-.08,.02h-.02c-.37-.87-.84-1.73-1.41-2.57"/><path class="cls-6" d="M53.76,50.46c-2.02-1.98-2.81-5.01-2.47-7.77,.11-.85,.45-3.72,1.26-4.03,.34-.09,.7,.21,.64,.57-.07,.24-.22,.45-.29,.7-.83,2.59-1,5.52,.26,8,.33,.68,.78,1.29,1.33,1.81,.36,.36,0,.88-.39,.88-.12,0-.24-.05-.35-.16"/><path class="cls-6" d="M60.36,54.81c-.54-.64,.56-1.12,.86-1.61,.55-.62,1.08-1.41,1.42-2.12,1.62-3,1.55-6.04,.35-8.91h.02s.08-.02,.08-.02l.08-.02,.08-.02h.07s.07-.02,.07-.02h.07s.07-.01,.07-.01h.07s.06,0,.06,0h.12s.06,0,.06,0h.05s.05,.01,.05,.01h.05s.05,.02,.05,.02h.04c.96,2.51,1.17,5.22,.16,7.91-.32,.84-.72,1.65-1.18,2.43-.54,.87-1.22,1.66-1.97,2.36-.1,.1-.24,.15-.37,.15s-.26-.05-.36-.15"/><path class="cls-6" d="M55.56,55.61c-1.47-.09-2.94-.26-4.39-.53,.06-.07,.11-.14,.15-.21,.15-.24,.22-.52,.21-.79,2.81,.48,5.82,.91,8.55,.05,.4-.18,.79-.8,1.25-.36,.2,.2,.19,.53,0,.73-1.11,.99-2.8,1.12-4.36,1.12-.49,0-.96-.01-1.4-.02"/><path class="cls-6" d="M47.68,33.03c-.23-.16-.42-.38-.53-.64h0s0,0,0,0h0s0,0,0,0h0s0,0,0,0h0s0,0,0,0h0s0,0,0,0h.01s0,0,0,0h0s0,0,0,0h0s0,0,0,0h0s0,0,0,0h0s0,0,0,0h0s0,0,0,0h0s0,0,0,0h0s0,0,0,0h0s0,0,0,0h0s0,0,0,0h0s0,0,0,0h0s0,0,0,0h0s0,0,0,0h0s0,0,0,0h0s0,0,0,0h0s0,0,0,0h0s0,0,0,0h0s0,0,0,0h0s0,0,0,0h0s0,0,0,0h0s0,0,0,0h0s0,0,0,0h0s0,0,0,0h0s0,0,0,0h0s0,0,0,0h0s0,0,0,0h0s0,0,0,0h0s0,0,0,0h0s0,0,0,0h0s0,0,0,0h0s0,0,0,0h0s0,0,0,0h0s0,.01,0,.01h0s0,0,0,0h0s0,0,0,0h0s0,0,0,0h0s0,0,0,0h0s0,0,0,0h0s0,0,0,0h0s0,0,0,0h0s0,0,0,0h0s0,0,0,0h0s0,0,0,0h0s0,0,0,0h0s0,0,0,0h0s0,0,0,0h0s0,0,0,0h0s0,0,0,0h0s0,0,0,0h0s0,0,0,0h0s0,0,0,0h0s0,0,0,0h0s0,0,0,0h0s0,0,0,0h0s0,0,0,0h0s0,0,0,0h0s0,0,0,0h0s0,0,0,0h0s0,0,0,0h0s0,0,0,0h0s0,0,0,0h0s0,0,0,0h0s0,0,0,0h0s0,0,0,0h0s0,0,0,0h0s0,0,0,0h0s0,0,0,0h0s0,0,0,0h0s0,0,0,0h0s0,0,0,0h0s0,0,0,0h0s0,0,0,0h0s0,0,0,0h0s0,0,0,0h0s0,0,0,0h0s0,0,0,0h0s0,0,0,0h0s0,0,0,0h0s0,0,0,0h0s0,0,0,0h0s0,0,0,0h0s0,0,0,0h0s0,0,0,0h0s0,0,0,0h0s0,0,0,0h0s0,0,0,0h0s0,0,0,0h0s0,0,0,0h0s0,0,0,0h0s0,0,0,0h0s0,0,0,0h0s0,0,0,0h0s0,0,0,0h0s0,0,0,0h0s0,0,0,0h0s0,0,0,0h0s0,0,0,0h0s0,0,0,0h0s0,0,0,0h0s0,0,0,0h0s0,0,0,0h0s0,0,0,0h0s0,0,0,0h0s0,0,0,0h0s0,0,0,0h0s0,0,0,0h0s0,0,0,0h0s0,0,0,0h0s0,0,0,0h0s0,0,0,0h0s0,0,0,0h0s0,0,0,0h0s0,0,0,0h0s0,0,0,0h0s0,0,0,0h0s0,0,0,0h0s0,0,0,0h0s0,0,0,0h0s0,0,0,0h0s0,0,0,0c-.35-.01-.71-.03-1-.25"/><path class="cls-6" d="M57.73,34.22h.01s.01,0,.01,0h.01s0,0,0,0h.01s.01,0,.01,0h0s0,0,0,0h.01s0-.01,0-.01h0s0,0,0,0h.01s0,0,0,0h0s0,0,0,0h0s0,0,0,0h0s0-.01,0-.01h.01s0-.01,0-.01h.01s.01-.01,.01-.01h.01s.02-.02,.02-.02h.02s.02-.02,.02-.02h.02s.02-.02,.02-.02h.02s.02-.02,.02-.02h.03s.03-.02,.03-.02h.03s.03-.03,.03-.03h.03s.03-.03,.03-.03h.03s.03-.03,.03-.03h.03s.04-.03,.04-.03h.04s.04-.02,.04-.02h.04s.04-.02,.04-.02h.04s.03-.02,.03-.02h.03s.03-.02,.03-.02h.03s.03-.02,.03-.02h.03s.03-.02,.03-.02h.03s.03-.01,.03-.01h.03s.02-.02,.02-.02h.02s.02-.01,.02-.01h.02s.02-.01,.02-.01h.02s.02-.01,.02-.01h.02s.02-.01,.02-.01h.02s.02,0,.02,0h.02s.02,0,.02,0h.02s.02,0,.02,0h.01s.01,0,.01,0h.01s.01,0,.01,0h.01s.01,0,.01,0h.01s.01,0,.01,0h.01s.01,0,.01,0h.01s.01,0,.01,0h.01s.01,0,.01,0h.01s.01,0,.01,0h0s0,0,0,0h0c-.09,.04-.19,.08-.28,.12-.46,.2-.9,.46-1.39,.48h0Z"/><path class="cls-6" d="M52.97,35.98c-.24-.19-.59-.26-.89-.19-.04-.46-.08-.91-.12-1.37h0s0,0,0,0h0s0,0,0,0h.01s0,0,0,0h0s0,0,0,0h0s0,0,0,0h0s0,0,0,0h0s0,0,0,0h0s0,0,0,0h0s0,0,0,0h0s0,0,0,0h0s0,0,0,0h0s0,0,0,0h0s0,0,0,0h0s0,0,0,0h0s0,0,0,0h0s0,0,0,0h0s0,0,0,0h0s0,0,0,0h0s.01,0,.01,0h.01s0,0,0,0h.01s.01,0,.01,0h.01s.01,0,.01,0h.01s.01,0,.01,0h.01s.01,0,.01,0h.01s.01,0,.01,0h0s.01,0,.01,0h.01s.01,0,.01,0h.01s.01,0,.01,0h0s.01,0,.01,0h.01s0,0,0,0h.01s0,0,0,0h0s0,0,0,0h0s0,0,0,0h0s0,0,0,0h0s.01,0,.01,0h0s0,0,0,0h0s.01,0,.01,0h0s.01,0,.01,0h0s.01,0,.01,0h0s.01,0,.01,0h.01s.01,0,.01,0h.01s.01,0,.01,0h.03s.01,0,.01,0h.01s.01,0,.01,0h.01s.01,0,.01,0h.01s.01,0,.01,0h.01s.01,0,.01,0h.01s.01,0,.01,0h.02s.01,.01,.01,.01h.02s.02,.01,.02,.01h.02s.02,.01,.02,.01h.02s.02,.01,.02,.01h.02s.02,.01,.02,.01c.05,.63,.09,1.26,.13,1.89-.07-.08-.14-.15-.21-.21"/><path class="cls-6" d="M58.07,35.55c-.11-.41-.41-.83-.54-1.26h0s.01,0,.01,0h.01s.01,0,.01,0h.01s.01,0,.01,0h.01s.01,0,.01,0h.01s.01,0,.01,0h.01s.01,0,.01,0h.01s.01,0,.01,0h.01s.01,0,.01,0h.01s.01,0,.01,0h.01s.01,0,.01,0h.01s.01,0,.01,0h0s0,0,0,0h.01s0,0,0,0h.01s0-.01,0-.01h0s0,0,0,0h0s0-.01,0-.01h0s0,0,0,0h0s0,0,0,0h.01s0-.01,0-.01h0s.01-.01,.01-.01h.01s.01-.01,.01-.01h.02s.02-.02,.02-.02h.02s.02-.02,.02-.02h.02s.02-.02,.02-.02h.02s.03-.02,.03-.02h.03s.03-.02,.03-.02h.03s.03-.03,.03-.03h.03s.03-.03,.03-.03h.03s.04-.03,.04-.03h.04s.04-.02,.04-.02h.04s.04-.02,.04-.02h.03s-.01,.03-.02,.05c.19,.46,.38,.92,.58,1.39-.04,0-.08,.02-.13,.03-.18,.04-.36,.08-.53,.13-.13,.03-.25,.07-.38,.11,0,0,0-.01,0-.02"/><path class="cls-6" d="M17.71,90.83c-2.97-2.97-4.32-7.25-5.28-11.27-1.31-5.45-1.31-11.15-.24-16.64,0,0,0,0,0,0,0,.08,0,.17,.04,.25,.05,.13,.12,.26,.19,.37,0,0,0,.01,.01,.02,.03,.07,.06,.13,.1,.2,.04,.08,.08,.16,.12,.24,.04,.07,.08,.13,.13,.19,.06,.06,.12,.09,.19,.13-1.2,7.26-.34,14.84,2.6,21.59,.36,.92,.95,1.71,1.51,2.51,.38,.55,.77,1.09,1.17,1.62,.24,.32-.05,.8-.43,.8-.04,0-.08,0-.12-.02"/><path class="cls-6" d="M48.32,88.56c-.23-.16-.28-.48-.13-.72,.43-.65,.85-1.32,1.25-1.97,.45-.77,.95-1.52,1.33-2.33,1.23-3.17,1.38-6.58,1.51-9.94,.16-5.45-.67-10.9-2.39-16.06-.03-.17-.06-.35-.1-.52-.02-.11-.04-.22-.07-.33,.13-.12,.24-.27,.32-.43,.02-.03,.03-.07,.04-.1,.02-.03,.05-.07,.08-.1,.02-.01,.03-.03,.04-.04,.06-.05,.12-.11,.17-.16,2.83,7.48,3.56,15.72,2.48,23.61-.3,2.1-.78,4.23-1.98,6.02-.59,.99-1.2,1.98-1.84,2.95-.1,.14-.26,.22-.42,.22-.1,0-.21-.03-.29-.09"/><path class="cls-6" d="M28.2,94.04c-3.53-.29-7.22-.98-10.17-3.04-.34-.26-.64-.57-.89-.92-.34-.56,.47-1.11,.86-.57,.75,.98,1.95,1.46,3.04,1.95,7.16,2.75,15.9,1.68,22.88-1.17,1.58-.7,3.25-1.43,4.39-2.77,.42-.51,1.23,.17,.78,.67-.33,.37-.69,.73-1.08,1.04-5.03,3.4-12.02,4.83-18.18,4.83-.55,0-1.1-.01-1.63-.03"/><path class="cls-6" d="M22.14,36.54c-.07-.11-.16-.19-.25-.28-.05-.07-.09-.14-.14-.21-.06-.09-.13-.19-.21-.28,0-.01-.01-.03-.02-.04-.03-.06-.05-.13-.08-.19,.03-.15,.05-.31,.08-.46,.06-.36,.1-.72,.14-1.09,.04-.32,.07-.65,.08-.97,.09,.07,.16,.18,.18,.33,.15,1.15,.27,2.3,.38,3.45-.05-.09-.1-.18-.16-.26"/><path class="cls-6" d="M46.35,46.75c.4-1.99,.77-3.98,1.05-5.99,.27-2,.52-4.03,.47-6.05,.11-1.38-3.85-2.29-4.95-2.41-.32-.04-.64-.1-.97-.1-.67,0-.67-1.03,0-1.03,2.13,.17,5.5,.78,6.78,2.64,.51,2.74-.18,5.61-.5,8.35-.33,2.18-.81,4.34-1.19,6.51-.15-.02-.3-.03-.46-.02-.2,0-.4,.04-.6,.08,.11-.66,.23-1.32,.36-1.97"/><path class="cls-6" d="M41.26,49.3c-.78-3.94-1.17-7.97-1.1-11.98,0-.48,.01-.91,.04-1.32,.07-.61,1.04-.57,1.03,.07-.06,.98-.05,1.97-.04,2.96,.03,2.81,.33,5.61,.77,8.38,.15,.59,.23,1.48,.42,2.3-.18,.02-.37,.04-.55,.05-.16,.01-.32,.02-.48,.03-.04-.16-.07-.32-.09-.48"/><path class="cls-6" d="M50.61,59.77c-.08-.03-.16-.06-.23-.09-.03-.12-.06-.23-.09-.35,0,0,0,0,0,0,0,0,0-.02,0-.03,0,0,0-.01,0-.02-.02-.07-.04-.14-.06-.21,.01,.04,.02,.08,.03,.11-.02-.07-.04-.14-.06-.22-.01-.1-.03-.19-.05-.29-.01-.07-.03-.14-.04-.21,.24,.11,.48,.21,.73,.3,.15,.04,.29,.12,.37,.26,.21,.33-.08,.78-.44,.78-.05,0-.09,0-.14-.02"/><path class="cls-6" d="M50.25,59.17s0,.03,0,.04c0-.01,0-.03,0-.04"/><path class="cls-6" d="M50.44,58.27c-.16-.13-.33-.27-.49-.4,0-.02-.01-.05-.02-.07-.05-.26-.09-.52-.14-.78-.02-.11-.04-.22-.07-.33,.07-.07,.14-.14,.19-.21,.38,.33,.77,.66,1.16,.98,.42,.34,.1,.93-.32,.93-.1,0-.21-.03-.31-.11"/><path class="cls-6" d="M19.62,113.62c-1.97-7.61-3.05-15.57-2.3-23.42,.15-.57,1.03-.46,1.02,.13-.02,.18-.06,.36-.07,.54-.38,5.71,.01,11.52,1.12,17.12,.37,1.79,.75,3.58,1.22,5.35,.11,.38-.21,.64-.53,.64-.2,0-.4-.11-.47-.37"/><path class="cls-6" d="M26.96,117.45c-.39-.16-.34-.62-.19-.92,.25-.71,.48-1.45,.53-2.21,.03-2.37,.15-4.73,.43-7.08,.48-4.04,.89-8.25,2.96-11.84,.55-1.24,1.49-1.28,2.71-1.24,.47,0,.61,.51,.42,.81-.06,.01-.12,.03-.18,.05-.14,.04-.28,.1-.41,.18-.22,0-.45,0-.67,0-.95-.09-1.36,1.62-1.77,2.32-1.34,3.16-1.63,6.55-2.04,9.91-.22,2.02-.38,4.05-.39,6.08,.04,1.17-.22,2.33-.63,3.42-.05,.29-.28,.57-.57,.57-.06,0-.13-.01-.2-.04"/><path class="cls-6" d="M20.46,116.64c-.45-.42-.45-1.18-.62-1.74-.05-.62-.62-1.99,.34-2.12,.34,0,.6,.34,.5,.66,.02,.42,.1,.85,.17,1.25,.1,.46,.21,.91,.37,1.36,.11,.34-.2,.65-.51,.65-.08,0-.17-.02-.25-.07"/><path class="cls-6" d="M33.23,94.96c-.44-.64,.64-1.19,.91-.46,0,0,0-.02,0-.02,.07,.14,.13,.29,.18,.44-.23,0-.46,.04-.66,.1-.12,.04-.24,.08-.35,.14-.03-.07-.05-.13-.08-.2"/><path class="cls-6" d="M34.1,94.41s.02,.03,.02,.05c0,0,0,.01,0,.02,0-.02-.02-.04-.03-.07"/><path class="cls-6" d="M35.42,120.11c-2.27-.38-4.27-1.28-3.35-3.94,.2-1.05,.6-2.04,1.25-2.86,0,.02,0,.04,.01,.06,.07,.38,.24,.72,.51,.99-.45,.72-.7,1.56-.85,2.41-.23,.81-.15,1.39,.69,1.76,.87,.31,2.25,1.04,2.91,.12,.32-.37,.55-.8,.77-1.24,.29-.43,.37-1.44,1.1-1.19,.76,.44-.12,1.35-.31,1.91-.47,.92-1.25,2.02-2.36,2.02-.12,0-.25-.01-.38-.04"/><path class="cls-6" d="M38.07,116.19h0c0-.48,.43-.84,.61-1.27,.38-.69,.74-1.36,1.06-2,1.56-3.27,2.97-6.64,4.17-10.05,1.56-4.33,2.37-8.88,2.99-13.42,.08-.65,1.12-.53,1.02,.14-.73,5.66-1.97,11.26-4.13,16.56-1.25,3.06-2.49,6.15-4.08,9.01-.31,.42-.59,1.45-1.14,1.48-.26,0-.48-.2-.51-.45"/><path class="cls-6" d="M32.08,122.15c-.26-.07-.44-.37-.36-.63,.24-.78,.5-1.55,.72-2.33,.09-.35,.17-.83,.63-.83,.94,.12,.28,1.21,.17,1.77-.26,.5-.34,2.05-1.03,2.05-.04,0-.09,0-.14-.02"/><path class="cls-6" d="M34.56,122.43c-.66-.3-.07-1.05,.1-1.44,.35-.49,.45-1.44,1.15-1.53,.28,0,.52,.24,.52,.52-.03,.34-.34,.55-.44,.87-.34,.43-.51,1.62-1.14,1.62-.06,0-.12-.01-.19-.03"/><path class="cls-6" d="M32.91,123.31c-.48-.3-1.15-.64-1.26-1.23,0-.28,.23-.52,.52-.52,.42,.03,.59,.5,.95,.68,.41,.41,.68,.14,.95-.12,.24-.24,.49-.48,.86-.23,.68,.65-.6,1.46-1.18,1.6-.06,.01-.12,.02-.17,.02-.23,0-.45-.09-.66-.19"/><path class="cls-6" d="M34.14,131.7c-3.46-.31-2.96-2.13-2.88-4.86,.18-2.35-1.22-2.26,.13-4.92,.19-.59,1.05-.66,1.1,.04-.19,.57-.56,1.1-.64,1.73-.16,.64,.36,1.18,.42,1.8,.09,1.31-.07,2.63-.03,3.94,.07,1.35,2.29,1.37,3.27,1.12,.65-.09,1.22-1.24,1.84-.71,.52,.62-.45,1.08-.88,1.39-.57,.35-1.22,.48-1.88,.48-.15,0-.3,0-.45-.02"/><path class="cls-6" d="M37.11,130.45c-.47-.21-.25-.61-.23-.99-.06-.9-.81-1.51-1.17-2.28-.64-1.49-1.16-3.1-1.41-4.7,.14-.54,.93-.45,1.01,.04,.39,1.4,.7,2.84,1.3,4.16,.33,.69,.92,1.22,1.14,1.97,.22,.54,.32,1.83-.44,1.84-.06,0-.13,0-.2-.03"/><path class="cls-6" d="M26.06,118.2c-.13-.16-.12-.36-.13-.56-.06-.74-.56-1.33-1.16-1.73-.98-.64-2.78-.37-3.07,.91-.19,.62-1.13,.38-1-.25,.34-1.58,2.13-2.24,3.59-1.95,1.1,.23,2.04,1.07,2.46,2.1,.36-.44,1.1,.03,.86,.54-.21,.41-.64,1.16-1.12,1.16-.14,0-.29-.06-.43-.21"/><path class="cls-6" d="M33.59,114.3c-.27-.04-.49-.3-.44-.58,.18-1.1,.32-2.21,.45-3.32,.43-5,.89-10.11-.38-15-.56-.93,.4-1.46,.81-.76,1.6,4.95,1,10.37,.64,15.46-.14,1.25-.29,2.51-.5,3.75-.04,.26-.26,.45-.51,.45-.02,0-.05,0-.07,0"/><path class="cls-6" d="M49.82,56.12c-.45-.49,.24-.91,.41-1.34,.17-.33,.19-.87,.68-.86,.28,0,.52,.23,.52,.52-.09,.5-.61,1.83-1.25,1.83h0c-.11,0-.23-.04-.35-.14"/><path class="cls-6" d="M49.57,56.94c-.69-1.75,1.38-1.77,.91-.61,.02,.11,.05,.23,.08,.34,.1,.39-.21,.65-.51,.65-.2,0-.4-.11-.48-.37"/><path class="cls-6" d="M51.42,55.12c-.28-.03-.48-.31-.44-.58,.05-.41,.48-.47,.82-.44,.8,.13,.62,1.05-.13,1.05-.08,0-.16,0-.24-.03"/><path class="cls-6" d="M41.57,49.81c0-.28,.23-.52,.52-.52s.52,.24,.52,.52-.23,.52-.52,.52-.52-.24-.52-.52"/><path class="cls-6" d="M49.46,56.73c-2.94-.6-7.09-3.99-8-6.87,.09-.74,.95-.64,1.09,.03,1.11,2.32,3.25,3.99,5.44,5.24,.55,.28,1.14,.47,1.74,.6,.59,.15,.41,1.02-.12,1.02-.05,0-.1,0-.15-.02"/><path class="cls-6" d="M50.14,55.07c-1.26-.82-2.26-1.97-3.08-3.22-.3-.55-1.14-1.49-.87-2.13,.22-.4,.88-.28,.95,.17,.19,.49,.48,.94,.77,1.38,.55,.81,1.16,1.6,1.9,2.25,.32,.36,.89,.53,1.1,.97,.11,.33-.19,.66-.51,.66-.08,0-.17-.02-.25-.07m-3.04-4.86c.04-.09,.06-.2,.04-.3,.01,.1,0,.2-.04,.3"/><path class="cls-6" d="M42.89,51.09c-.61-.15-1.69-.67-1.46-1.44,.12-.25,.41-.39,.68-.27,.14,.06,.24,.18,.29,.32,.14,.16,.33,.27,.53,.34,1.1,.31,2.71,.09,3.13-1.13,.07-.35,.21-.78,.65-.71,.28,.04,.48,.3,.44,.58-.22,1.63-1.81,2.43-3.33,2.43-.32,0-.63-.04-.93-.11"/><path class="cls-6" d="M31.62,46.39c-.77-.25-.87-1.13-.66-1.81,.19-.83,.33-1.68,.64-2.47,.16-.3,.62-.24,.7,.08-.16,1.07-.71,2.17-.66,3.27,.16,.35,.67,.31,.99,.25,.27-.17,.2-.59,.25-.87,0,.01,0,.02,0,.03,.06-.79-.01-1.59-.16-2.38-.04-.2,.12-.4,.32-.43,.63,0,.46,.89,.57,1.32,.12,1.32,.17,3.15-1.25,3.15-.22,0-.47-.04-.75-.14"/><path class="cls-6" d="M31.33,65.46c.17-6.34,.14-12.69,.53-19.02,.07-.51,.87-.37,.75,.14-.36,5.45-.3,10.92-.48,16.39-.02,.83-.04,1.66-.04,2.49,0,.21-.17,.38-.38,.38s-.38-.17-.38-.38"/><path class="cls-6" d="M54.5,40.01c-.24-.46-1.52-3.97-.9-4.14,.25-.14,.58,.05,.57,.34,.19,1.21,.53,2.4,1.03,3.51,.12,.29-.12,.52-.37,.52-.13,0-.27-.07-.34-.23"/><path class="cls-6" d="M56.2,40.26c-.45-1.16-.81-2.36-1.05-3.57,0-.47,.71-.5,.76-.04,.26,1.13,.56,2.25,.99,3.33,.12,.29-.13,.52-.37,.52-.13,0-.27-.07-.33-.23"/><path class="cls-6" d="M57.72,39.91c-.12-.76-.26-1.51-.4-2.27-.01-.45-.48-1.37,.16-1.53,.58-.03,.4,.71,.53,1.08,.16,.87,.32,1.74,.46,2.62,.03,.27-.18,.42-.38,.42-.17,0-.34-.1-.37-.32"/><path class="cls-6" d="M59.04,39.13c-.1-.98-.28-1.94-.52-2.89-.03-.18-.15-.35-.09-.53,.15-.43,.73-.3,.77,.13,.24,.91,.42,1.83,.55,2.77,.05,.31,.15,.79-.28,.86-.02,0-.03,0-.04,0-.18,0-.36-.14-.38-.33"/><path class="cls-6" d="M55.58,40.64c-1.06-.16-2.01-.7-2.91-1.26-.37-.18-.31-.75,.13-.76,.33,.07,.57,.35,.88,.48,.86,.53,1.85,.91,2.88,.83,1.23-.07,2.4-.61,3.33-1.41,.3-.21,.61-.8,1.01-.44,.4,.49-.48,.93-.78,1.23-1.08,.85-2.43,1.39-3.81,1.39-.24,0-.48-.02-.73-.05"/><path class="cls-6" d="M43.77,102.93c-1.93-2.95-2.8-7.94-2.06-11.36,.26-.35,.85,0,.65,.4-.34,2.64-.04,5.41,.8,7.93,.32,.94,.69,1.76,1.23,2.57,.22,.28-.05,.61-.33,.61-.1,0-.2-.05-.28-.15"/><path class="cls-6" d="M44.47,101.43c-1.54-3.07-1.71-6.69-1.33-10.04,.08-.49,.82-.39,.75,.11-.31,2.13-.18,4.34,.18,6.45,.22,1.07,.55,2.13,1.06,3.1,.17,.29-.09,.57-.35,.57-.12,0-.23-.05-.31-.19"/><path class="cls-6" d="M17.97,99.94c-.32-.25-.02-.6,.15-.83,.44-.64,.85-1.3,1.23-1.98,.84-1.49,1.4-3.11,1.8-4.77,0-.51,.75-.55,.77-.02-.16,.88-.45,1.74-.74,2.58-.54,1.54-1.33,2.95-2.22,4.3-.21,.26-.41,.8-.75,.8-.07,0-.15-.02-.24-.08"/><path class="cls-6" d="M17.94,102.37c-.2-.2-.09-.48,.1-.64,.33-.37,.64-.75,.89-1.12,1.57-2.42,2.95-5.09,3.49-7.92,.1-.45,.83-.32,.74,.15-.17,1.03-.49,2.03-.87,2.99-.25,.79-3.03,6.63-4.15,6.63-.08,0-.15-.03-.21-.09"/><path class="cls-6" d="M37.64,116.67c-1.6-.15-3.47-1.03-4.03-2.63,0-.43,.65-.52,.75-.1,.22,.49,.65,.86,1.08,1.17,.82,.55,1.84,.9,2.84,.78,.3-.04,.51,.18,.48,.4-.03,.2-.25,.4-.77,.4-.1,0-.22,0-.35-.03"/><path class="cls-6" d="M19.95,113.38c.27-1.06,1.15-2.01,2.22-2.31,1.3-.33,2.72-.21,3.96,.28,.71,.31,1.35,.77,1.88,1.33,.35,.35-.2,.89-.54,.53-.1-.1-.2-.2-.31-.3,0,0,.02,.01,.02,.02-1.36-1.25-3.49-1.63-5.2-.98-.59,.29-1.02,.87-1.26,1.46,0,.25-.19,.37-.38,.37-.2,0-.41-.14-.39-.41"/><path class="cls-6" d="M13.73,122.39c-.26-.11-.38-.42-.27-.68,.29-1,1.03-1.74,1.98-2.14,1.2-.67,2.55-1.01,3.9-1.22,.38-.1,.56-.55,.81-.83,.21-.24,.25-.54,.24-.85,.01-.27-.01-.59,.27-.74,.27-.15,.6-.03,.72,.23,.14,.7,.03,1.49-.45,2.04-.39,.52-.8,1.13-1.51,1.19-1.51,.21-2.96,.69-4.24,1.51-.64,.29-.6,1.54-1.24,1.54-.07,0-.14-.01-.22-.04"/><path class="cls-6" d="M25.73,125.36c-.27-.11-.38-.44-.26-.7,.21-.6,.37-1.22,.49-1.78,.26-1.24,.33-2.54,.04-3.78-1.5,.51-2.25,.09-2.92-.33-.59-.38-1.12-.76-2.04-.47-.32,.41-1.02,.06-.89-.45,.19-.6,.99-.68,1.53-.69,.89-.05,1.58,.55,2.31,.97,.44,.25,.95,.15,1.42,.05,.76-.16,1.44-.31,1.65,.95,.29,1.51,.15,3.08-.23,4.55-.2,.49-.23,1.71-.89,1.71-.07,0-.14-.01-.21-.04"/><path class="cls-6" d="M20.92,126.61c-2.54-.3-5.02-1.43-6.85-3.22-.26-.32-.74-.54-.78-.97,0-.31,.28-.55,.59-.51,.27,.04,.43,.28,.61,.45,2.04,2.11,5.03,3.43,7.98,3.24,0,0-.02,0-.03,0,.84-.06,1.56-.2,2.33-.38,.52-.03,1.25-.64,1.63-.06,.36,.84-.88,.9-1.41,1.07-1.04,.25-2.11,.42-3.19,.42-.29,0-.59-.01-.88-.04"/><path class="cls-6" d="M25.46,118.68c-.71-.26-.17-1.1-.11-1.61,.07-.59,.63-1.19,1.11-.55,.12,.2,.09,.48-.07,.64-.22,.48-.11,1.54-.79,1.54-.04,0-.09,0-.14-.01"/><path class="cls-6" d="M22.68,125.45c-2.22-.1-4.33-.88-6.25-1.95-.91-.56-1.94-1.07-2.65-1.88-.17-.45,.45-.73,.7-.33,2.75,2.15,6.16,3.65,9.69,3.39h0s0,0,0,0h0c.56-.04,1.12-.09,1.69-.14,.21-.02,.4,.12,.43,.33,.03,.2-.12,.41-.33,.43-.89,.08-1.77,.17-2.65,.17-.21,0-.42,0-.63-.02m-8.55-3.6s.08,0,.12-.02c-.06,.02-.12,.02-.18,.01,.02,0,.04,0,.06,0"/><polyline class="cls-6" points="24.2 124.68 24.19 124.68 24.2 124.68"/><path class="cls-6" d="M58.85,34.2h0s-.03,0-.03,0h-.03s-.03,.02-.03,.02h-.03s-.03,.02-.03,.02h-.03s-.03,.02-.03,.02h-.03s-.03,.02-.03,.02h-.04s-.04,.02-.04,.02h-.04s-.04,.02-.04,.02h-.04s-.04,.03-.04,.03h-.03s-.03,.03-.03,.03h-.03s-.03,.03-.03,.03h-.03s-.03,.03-.03,.03h-.03s-.03,.02-.03,.02h-.02s-.02,.02-.02,.02h0c.17-.2,.5-.26,.8-.29"/><path class="cls-6" d="M50.84,34.38c-.2-.15-.45-.2-.69-.28-.28-.11-.53-.28-.83-.34-.21-.04-.43-.04-.64-.05h0s0,0,0,0h0s0,0,0,0h0s0,0,0,0h0s0,0,0,0h0s0,0,0,0h0s0,0,0,0h0s0,0,0,0h0s0,0,0,0h0s0,0,0,0h0s0,0,0,0h0s0,0,0,0h0s0,0,0,0h0s0,0,0,0h0s0,0,0,0h0s0,0,0,0h0s0,0,0,0h0s0,0,0,0h0s0,0,0,0h0s0,0,0,0h0s0,0,0,0h0s0,0,0,0h0s0,0,0,0h0s0,0,0,0h0s0,0,0,0h0s0,0,0,0h0s0,0,0,0h0s0,0,0,0h0s0,0,0,0h0s0,0,0,0h0s0,0,0,0h0s0,0,0,0h0s0,0,0,0h0s0,0,0,0h0s0,0,0,0h0s0,0,0,0h0s0,0,0,0h0s0,0,0,0h0s0,0,0,0h0s0,0,0,0h0s0,0,0,0h0s0,0,0,0h0s0,0,0,0h0s0,0,0,0h0s0,0,0,0h0s0,0,0,0h0s0,0,0,0h0s0,0,0,0h0s0,0,0,0h0s0,0,0,0h0s0,0,0,0h0s0,0,0,0h0s0,0,0,0h0s0,0,0,0h0s0,0,0,0h0s0,0,0,0h0s0,0,0,0h0s0,0,0,0h0s0,0,0,0h0s0,0,0,0h0s0,0,0,0h0s0,0,0,0h0s0,0,0,0h0s0,0,0,0h0s0,0,0,0h0s0,0,0,0h0s0,0,0,0h0s0,0,0,0h0s0,0,0,0h0s0,0,0,0h0s0,0,0,0h0s0,0,0,0h0s0,0,0,0h0s0,0,0,0h0s0,0,0,0h0s0,0,0,0h0s0,0,0,0h0s0,0,0,0h0s0,0,0,0h0s0,0,0,0h0s0,0,0,0h0s0,0,0,0h0s0,0,0,0h0s0,0,0,0h0s0,0,0,0h0s0,0,0,0h0s0,0,0,0h0s0,0,0,0h0s0,0,0,0h0s0,0,0,0h0s0,0,0,0h0s0,0,0,0h0s0,0,0,0h0s0,0,0,0h0s0,0,0,0h0s0,0,0,0h0s0,0,0,0h0s0,0,0,0h0s0,0,0,0h0s0,0,0,0h0s0,0,0,0h0s0,0,0,0h0s0,0,0,0h0s0,0,0,0h0s0,0,0,0h0s0,0,0,0h0s0,0,0,0h0s0,0,0,0h0s0,0,0,0h0s0,0,0,0h0s0,0,0,0h0s0,0,0,0h0s0,0,0,0h0s0,0,0,0h0s0,0,0,0h0s0,0,0,0h0s0,0,0,0h0s0,0,0,0h0s0,0,0,0h0s0,0,0,0h0s-.01,0-.01,0h0s0,0,0,0h0s0-.01,0-.01h0s0,0,0,0h0s0,0,0,0h0s0,0,0,0c-.09-.21-.13-.44-.12-.67,.06-.73-.04-1.57,.39-2.21,1.3-1.51,3.17-1.41,3.81-3.68,.33-.88,.62-1.77,.97-2.64,.23-.77,.32-1.6,.69-2.32,.27-.63,1.98-1.38,2.09-.32-.03,.81-1.15,.32-1.27,1.11-.17,.48-.28,.98-.38,1.48-.24,.81-.58,1.59-.84,2.39-.52,1.77-1.38,2.98-3.08,3.78-.43,.25-.96,.52-1.19,.99-.02,.52-.27,1.34,0,1.79,.17,.16,.41,.15,.65,.14,.16,0,.31-.01,.45,.03,.49,.05,.85,.26,1.24,.43,.24,.08,.5,.14,.71,.28,.44-.3,.56-.88,.43-1.38-.38-.3-.78-.62-1.26-.73-.85-.17-.6-1.85,1.31-.57,.84,.51,1.18,1.01,1.04,2.02-.04,.7-.75,1.77-1.52,1.77-.14,0-.28-.03-.42-.11"/><path class="cls-6" d="M54.95,25.37c-.7-.2-1.8-2.01-.6-2.17,.67,0,.45,.92,.96,1.16,.86-.07,.91-.56,.77-1.29-.12-.58,.01-1.93-.89-1.76-.35,.08-.69,.23-1.05,.28-.62,0-.73-.91-.13-1.05,1.41-.53,2.64-.48,2.97,1.24,.11,.46,.13,.93,.18,1.4,.05,.38,.12,.78-.07,1.14-.26,.68-1.02,1.1-1.74,1.1-.14,0-.27-.02-.4-.05"/><path class="cls-6" d="M58.61,27.06c-1.02-.24-1.77-1.39-1.38-2.4,.16-.43,.83-.42,.98,0,.11,.26-.07,.53,.02,.8,.16,.44,.72,.73,1.12,.41,.06-.97,.23-1.93,.24-2.9-.4-.31-.9-.57-1.35-.7-.22,.47-.54,.89-.74,1.37-.27,.38-.33,1.1-.89,1.13-.29,0-.54-.24-.54-.53,0-.23,.15-.41,.23-.61,.3-.62,.65-1.22,.98-1.82,.43-.84,1.33-.65,1.99-.25,.43,.15,.78,.43,1.14,.7,.52,.66,.13,1.69,.09,2.46-.02,1.42-.12,2.36-1.69,2.36-.07,0-.14,0-.21,0"/><path class="cls-6" d="M60.98,29.08c-.58-.24-1.08-.72-1.09-1.38-.07-.48-.09-1.02,.25-1.41-.51,.45-1.21-.31-.72-.79,.6-.36,2.23-1.93,2.85-1.29,.57,.9,1.95,1.8,1.37,3-.34,.46-.82,.8-1.15,1.27-.31,.39-.62,.72-1.05,.72-.14,0-.29-.03-.46-.11m.01-2.14c-.15,.24-.03,.57,0,.84,.07,.15,.26,.25,.41,.32,.42-.49,.84-.98,1.31-1.42,.03-.18-.1-.3-.2-.43-.23-.37-.54-.68-.82-1.01-.41,.26-.82,.5-1.2,.81,.04-.01,.09-.02,.13-.02,.43,0,.71,.58,.38,.91"/><path class="cls-6" d="M57.35,34.62c-.63,0-1.15-.35-1.76-.43-.41-.03-.97,0-.98-.56,.07-.83,1.14-.47,1.65-.41,.44,.19,.88,.35,1.37,.36,.21,.04,.37-.07,.55-.16,.46-.2,.92-.38,1.35-.64,.28-.24,.59-.44,.86-.68,.17-.23,.4-.42,.57-.65,.09-.16,.16-.33,.31-.45,.38-.23,.96-.6,1.31-.13,.16,.22,.12,.49,.18,.74,.13,.4,.23,.86,.61,1.08,.22-.87,.43-1.84,.29-2.75-.27-.29-.66-.42-.91-.73-.37-.18-.92-.36-1.02-.81-.04-.61,.62-.77,1.02-.39,.19,.15,.43,.2,.63,.33,.27,.28,.61,.46,.9,.72,.48,.33,.49,.93,.5,1.46,.02,.58-.13,1.14-.21,1.71-.08,.42-.09,.92-.43,1.22-.96,.96-2.12-.34-2.34-1.32-.65,.82-1.46,1.51-2.41,1.95h0s-.01,0-.01,0h-.01s-.01,0-.01,0h-.01s-.01,0-.01,0h-.01s-.01,0-.01,0h-.01s-.01,0-.01,0h-.01s-.01,0-.01,0h-.01s-.01,0-.01,0h-.01s-.01,0-.01,0h-.02s-.01,0-.01,0h-.01s-.02,0-.02,0h-.02s-.02,0-.02,0h-.02s-.02,0-.02,0h-.02s-.02,.01-.02,.01h-.02s-.02,0-.02,0h-.02s-.02,.01-.02,.01h-.02s-.02,.01-.02,.01h-.02s-.02,.01-.02,.01h-.02s-.03,.02-.03,.02h-.03s-.03,.02-.03,.02h-.03s-.03,.02-.03,.02h-.03s-.03,.02-.03,.02h-.03s-.03,.02-.03,.02h-.04s-.04,.02-.04,.02h-.03s-.04,.02-.04,.02h-.04s-.04,.02-.04,.02h-.03s-.03,.03-.03,.03h-.03s-.03,.03-.03,.03h-.03s-.03,.03-.03,.03h-.03s-.03,.03-.03,.03h-.03s-.02,.02-.02,.02h-.02s-.02,.02-.02,.02h-.02s-.02,.02-.02,.02h-.02s-.01,.02-.01,.02h-.01s-.01,.01-.01,.01h-.01s0,.01,0,.01h-.01s0,.01,0,.01h0s0,.01,0,.01h0s0,0,0,0h0s0,0,0,0h0s0,0,0,0h-.01s0,0,0,0h0s-.01,0-.01,0h0s-.01,0-.01,0h0s-.01,0-.01,0h-.01s0,0,0,0h-.01s0,0,0,0h-.05c-.11,0-.21-.01-.32-.04"/><path class="cls-6" d="M51.82,32.64c.29-.76,1.24-.36,1.05,.41,.08,.56,.13,1.12,.18,1.68h-.02s-.02-.02-.02-.02h-.02s-.02-.01-.02-.01h-.02s-.02-.01-.02-.01h-.02s-.02-.01-.02-.01h-.02s-.01-.01-.01-.01h-.01s-.02,0-.02,0h-.01s-.01,0-.01,0h-.01s-.01,0-.01,0h-.01s-.01,0-.01,0h-.01s-.01,0-.01,0h-.01s-.01,0-.01,0h-.04s-.01,0-.01,0h-.02s0,0,0,0h0s0,0,0,0h0s0,0,0,0h0s0,0,0,0h0s0,0,0,0h0s0,0,0,0h0s0,0,0,0h0s0,0,0,0h0s0,0,0,0h0s-.01,0-.01,0h-.01s0,0,0,0h-.01s-.01,0-.01,0h-.01s0,0,0,0h-.01s-.01,0-.01,0h-.01s-.01,0-.01,0h-.01s-.01,0-.01,0h-.01s-.01,0-.01,0h-.01s-.01,0-.01,0h-.01s-.01,0-.01,0h0s-.01,0-.01,0h-.01s0,0,0,0h0s0,0,0,0h-.01s0,0,0,0h0s0,0,0,0h0s0,0,0,0h0s0,0,0,0h0s0,0,0,0h0s0,0,0,0h0s0,0,0,0h0s0,0,0,0h0s0,0,0,0h0s0,0,0,0h0s0,0,0,0h0s0,0,0,0h0s0,0,0,0h0s0,0,0,0h0s0,0,0,0h0s0,0,0,0h0s0,0,0,0h0s0,0,0,0h0c-.06-.74-.11-1.48-.14-2.21"/><path class="cls-6" d="M57.58,33.88c.31-.53,1.15-.16,.98,.41h-.03s-.04,.02-.04,.02h-.03s-.04,.02-.04,.02h-.04s-.03,.03-.03,.03h-.03s-.03,.03-.03,.03h-.03s-.03,.03-.03,.03h-.03s-.03,.03-.03,.03h-.03s-.03,.02-.03,.02h-.02s-.02,.02-.02,.02h-.02s-.02,.02-.02,.02h-.02s-.01,.02-.01,.02h-.02s-.01,.02-.01,.02h-.01s-.01,.01-.01,.01h0s0,.01,0,.01h0s0,0,0,0h0s0,.01,0,.01h0s0,0,0,0h0s0,0,0,0h0s-.01,0-.01,0h0s0,0,0,0h-.01s0,0,0,0h0s-.01,0-.01,0h-.01s0,0,0,0h-.01s-.01,.01-.01,.01h-.01s-.01,0-.01,0h-.01s-.01,.01-.01,.01h-.01s-.01,0-.01,0h-.01s-.01,0-.01,0h-.01s-.01,0-.01,0h-.01s-.01,0-.01,0h-.01s-.01,0-.01,0h-.01s-.01,0-.01,0h0c-.09-.28-.1-.56,.05-.84"/><path class="cls-6" d="M51.76,37.04c-1.03-1.21-2.34-2.17-3.7-2.97-.68-.39,.04-1.36,.61-.82-.03-.03-.07-.06-.1-.08,1.5,.89,2.9,1.91,4.02,3.24,.3,.39-.06,.83-.43,.83-.14,0-.27-.06-.38-.2"/><path class="cls-6" d="M11.17,54.02c-.65-.48,.23-1.17,.32-1.74,.42-1.24,.68-2.53,.8-3.83-1.29,1.09-2.95,2.23-4.72,1.83-.88-.22-1.91-.54-2.46-1.3-.1-.25,0-.52,.23-.65,.06-.04,.13-.06,.19-.07,.04,.02,.08,.03,.12,.04,.1,.03,.2,.07,.29,.1,.08,.06,.16,.13,.23,.19,.29,.2,.6,.36,.92,.48,1.77,.8,3.48-.47,4.77-1.6,.75-.64,1.18-.4,1.37,.13,0,.13,0,.27,0,.4,0,.31,0,.63-.01,.94,0,.14,0,.28,0,.43,0,0,0,.01,0,.02-.2,1.32-.79,4.56-1.76,4.68-.09,.01-.19,0-.29-.06m-5.29-4.81c.1-.07,.18-.17,.21-.29-.03,.11-.11,.22-.21,.29"/><path class="cls-6" d="M2.97,54.31c-.81-.29,.01-1.61,.11-2.19,.18-.68,2.17-5.41,2.84-3.21,0-.01,0-.02,0-.04,0-.02,0-.05,0-.07,.06,.35-.31,.51-.46,.77-.55,.8-.93,1.63-1.27,2.52-.22,.61-.42,1.23-.57,1.86-.05,.2-.24,.34-.44,.37-.07,0-.14,0-.2-.02"/><path class="cls-6" d="M6.3,66.62c-3.5,0-6.77-3.42-6.24-6.96,.36-1.98,1.3-3.82,2.29-5.55,.19-.29,.33-.74,.77-.67,1.09,.37-.21,1.51-.41,2.12-.92,1.95-2.19,4.14-1.42,6.35,.73,1.93,2.6,3.52,4.69,3.66,2.31,.05,4.49-1.17,6.17-2.72,.02,.03,.03,.05,.05,.08,0,.09,0,.17,.04,.25,.05,.13,.12,.26,.19,.37,0,0,0,.01,0,.02,.03,.07,.06,.13,.1,.2,.02,.03,.03,.06,.05,.09-1.61,1.43-3.59,2.45-5.71,2.71-.17,.02-.35,.04-.53,.05h-.05Z"/><path class="cls-6" d="M11.27,61.19c-.87-.07-.35-1.42-.45-2.01,.07-1.9,.01-3.8-.01-5.69,0-.62,.96-.68,1.03-.06,0,.79,.03,1.57,.04,2.35,.02,1.63,0,3.27-.09,4.9,0,.05,0,.09-.02,.13-.04,.07-.09,.14-.12,.21-.08,.08-.19,.14-.3,.16-.02,0-.04,0-.06,0h-.02"/><path class="cls-6" d="M7.53,65.81s.02-.02,.03-.02h0s-.02,.02-.04,.03c0,0,0,0,0,0"/><path class="cls-6" d="M7.57,65.78s0,0-.01,0c0,0,0,0,.01,0"/><path class="cls-6" d="M7.58,65.77s0,0-.01,.01c0,0,0,0,.01-.01"/><path class="cls-6" d="M7.58,65.76s0,0,0,0c0,0-.01,0-.02,.01,0,0,0,0,0,0"/><path class="cls-6" d="M7.61,65.74s-.02,.02-.03,.02c0,0,.02-.02,.03-.02"/><path class="cls-6" d="M7.61,65.74h0s-.01,.01-.02,.02c0,0,.01-.01,.02-.02"/><path class="cls-6" d="M7.68,65.68s-.01,.01-.02,.02c0,0,.01-.01,.02-.02"/><path class="cls-6" d="M5.28,49.45c-.12,0-.25,0-.37,.03,.2-.41,.42-.81,.63-1.22,.04,.02,.08,.03,.11,.04,.14,.05,.29,.1,.43,.15,0,0,.01,0,.02,.01,.1,.06,.2,.12,.3,.18,.04,.02,.07,.04,.11,.06-.15,.26-.32,.51-.39,.71-.03,.06-.07,.12-.1,.18-.24-.07-.49-.14-.75-.14"/><path class="cls-6" d="M11.11,47.91s.07-.04,.11-.07c.27-.17,.52-.35,.78-.53,0,0,0,0,0,0,.04-.02,.08-.05,.12-.07,.04-.03,.09-.05,.13-.08-.04,.44-.09,.88-.16,1.31-.22,.14-.44,.28-.66,.42-.18,.09-.36,.19-.52,.32,.09-.43,.16-.86,.21-1.29"/><path class="cls-6" d="M5.13,54.13c-.2-.03-.36-.23-.32-.43,.17-.93,.43-1.85,.77-2.73,.2-.39,.48-1.4,.92-1.49,.21-.03,.4,.12,.42,.33,.02,.23-.16,.38-.24,.58-.47,.94-.81,1.93-1.02,2.91-.07,.29-.06,.79-.42,.84-.03,0-.07,0-.11,0"/><path class="cls-6" d="M6.45,54.19c-.61-.2,.03-1.18,.09-1.61,.29-.86,.55-1.74,.95-2.56,.17-.32,.68-.23,.72,.14-.08,.45-.37,.86-.49,1.3-.29,.81-.56,1.64-.8,2.47-.04,.15-.18,.26-.32,.27-.05,0-.1,0-.15-.01"/><path class="cls-6" d="M8.29,53.79c-.19-.05-.33-.27-.26-.47,.34-1.03,.67-2.07,.88-3.13,.03-.73,1.07-.43,.7,.18,.03-.04,.06-.09,.07-.14h0s0,.01,0,.01c-.19,1-.48,1.97-.79,2.94-.07,.24-.17,.59-.43,.62-.05,0-.1,0-.16-.02"/><path class="cls-6" d="M9.65,53.92c-.22-.09-.28-.35-.18-.55,.33-.92,.59-1.87,.84-2.82,.1-.37,.19-.73,.26-1.09,.03-.23,.11-.5,.38-.52,.43-.02,.48,.36,.37,.69-.13,.61-.29,1.21-.45,1.81-.14,.5-.28,1-.44,1.5-.14,.31-.18,.96-.56,1.01-.06,0-.13,0-.21-.03"/><path class="cls-6" d="M6.56,54.57c-.75,.05-3.27,.23-3.39-.77,0,.03,0,.05,0,.08-.06-.35,.43-.58,.66-.3,.33,.19,.71,.22,1.07,.25,1.1,.09,2.18-.08,3.27-.25,.52-.08,1.04-.16,1.55-.21,.45-.06,.91-.11,1.35-.26,.2-.09,.45-.02,.54,.19,.22,.7-1.09,.67-1.52,.78-.61,.07-1.22,.16-1.83,.25-.52,.08-1.04,.15-1.57,.22-.04,0-.09,.01-.13,.01"/><path class="cls-6" d="M14.51,38.09s0,.06,.01,.1c-.02-.16-.05-.3-.12-.44-.07-.15-.19-.27-.34-.34,.32-.29,.67-.59,1.06-.9,.01,.08,.02,.16,.04,.24,.03,.18,.07,.37,.11,.55,.02,.08,.04,.17,.06,.25,0,.03,.02,.06,.02,.09-.28,.24-.55,.48-.82,.74-.01-.09-.02-.19-.03-.28"/><path class="cls-6" d="M21.8,34.35c-.06-.01-.12-.02-.18-.02,.01-.11,.03-.23,.04-.35,.02-.21,.04-.42,.06-.62,.13,0,.26,0,.38,.02-.04-.02-.08-.04-.12-.05,.57,.13,.46,1.02-.11,1.02-.02,0-.04,0-.07,0"/><path class="cls-6" d="M21.95,33.34s.01,0,.02,0c0,0-.01,0-.02,0"/><path class="cls-6" d="M14.17,38.08c-2.13-.79,4.03-4.18,4.9-4.31,.04,0,.07-.01,.11-.02v.07s0,.1,0,.1v.2s0,.1,0,.1v.09s.01,.09,.01,.09v.08s.02,.08,.02,.08v.08s.02,.07,.02,.07v.03c-.18,.04-.36,.1-.51,.22-.03,.02-.06,.05-.08,.08-1.28,.54-2.46,1.36-3.5,2.28-.34,.22-.49,.77-.94,.77-.01,0-.02,0-.04,0"/><path class="cls-6" d="M15.12,41.51c.1-.12,.15-.26,.17-.42,.05-.3,.05-.6,.05-.91,0-.21-.03-.43-.07-.64-.04-.18-.08-.38-.19-.54-.05-.08-.12-.16-.2-.21-.05-.04-.11-.06-.17-.08-.06-.02-.12-.03-.18-.04-.06-.27-.13-.53-.2-.79-.09-.75,1.01-.79,1.06-.06,.84,3.41,1.35,6.92,1.47,10.43,.02,.63,.03,1.25,.04,1.88h-.02s-.33,.12-.33,.12l-.32,.11-.31,.11-.05,.02c-.01-3.01-.24-6.03-.76-8.99"/><path class="cls-6" d="M16.05,51.14c.02-.64,.02-1.28,.02-1.92l.05-.02,.31-.11,.32-.11,.27-.09s0,.09,0,.13c-.01,.18-.02,.36-.03,.55,0,.18-.01,.36-.01,.54,0,.08,0,.17,.02,.25,0,.11,0,.23,.07,.32,0,0,0,.01,.01,.02,0,.05,0,.11,0,.16,0,.04,.01,.07,.03,.1,0,.19-.04,.38-.16,.54-.1,.11-.23,.16-.36,.16-.27,0-.54-.2-.53-.49"/><path class="cls-6" d="M17.67,53.89c-2.39-.84-1.69-3.69-.62-2.28,0,.55,.29,1.04,.81,1.24,1.33,.53,2.23,.07,2.9-.44l.04,.11,.06,.15,.06,.15,.06,.15,.06,.15,.06,.14,.06,.14v.02c-.67,.43-1.47,.68-2.27,.68-.41,0-.83-.07-1.22-.21m-.86-1.69c.1-.06,.19-.16,.23-.27-.04,.11-.12,.21-.23,.27"/><path class="cls-6" d="M18.95,34.78v-.08s-.02-.09-.02-.09v-.09s-.01-.1-.01-.1v-.1s0-.1,0-.1v-.11s0-.07,0-.07c.65-.15,1.79-.73,2.09,.02-.05,.02-.08,.05-.12,.1-.01,.02-.02,.03-.04,.05-.01,0-.02,0-.03,0-.07,0-.15,.02-.22,.03-.11,.03-.22,.06-.32,.1,0,0,0,0,0,0-.01,0-.03,.01-.04,.02,.01,0,.02,0,.03-.01-.25,.09-.5,.19-.75,.29-.05,.02-.1,.04-.15,.06-.14,.03-.29,.06-.43,.12v-.04Z"/><path class="cls-6" d="M22.98,50.04l-.24-.12-.25-.1-.26-.09-.2-.05s0-.04,0-.05c.64-4.15,.66-8.39-.16-12.5-.22-.64,.78-.98,.98-.33,.87,4.17,.87,8.51,.24,12.71-.03,.12-.06,.31-.11,.55h-.01Z"/><path class="cls-6" d="M21.61,52.4c-.72-.35,0-1.17,.08-1.71,.23-.75,.39-1.52,.53-2.29l.2,.05,.26,.09,.25,.1,.24,.12h.01c-.22,1.23-.63,3.67-1.42,3.67-.05,0-.1,0-.16-.03"/><path class="cls-6" d="M20.92,53.7l-.06-.14-.06-.14-.06-.15-.06-.15-.06-.15-.06-.15-.04-.11s.07-.05,.1-.08c.63-.5,1.05-1,1.43-.63,.53,.6-.43,1.16-.82,1.52-.1,.07-.19,.14-.29,.2v-.02Z"/><path class="cls-6" d="M22.28,37.59c-.43-.29-.38-.92-.51-1.37-.01-.63-.8-2.08,.27-2.13,.67,.14,.48,1.05,.67,1.55,.08,.4,.14,.81,.24,1.21,.31,.43-.22,1.01-.68,.75"/><path class="cls-6" d="M17.96,35.06c-.91-1.03,1.49-1.49,2.17-1.57,.52,0,1.52-.32,1.6,.44,0,.27-.21,.54-.5,.53-.56,0-1.12,.04-1.67,.16-.57,.02-1.09,.76-1.6,.43"/><path class="cls-6" d="M21.61,36.11c-.26-.6-.55-1.2-.72-1.82-.02-.39,.43-.67,.76-.47,.5,.47,.54,1.29,.9,1.87,.28,.61-.66,1.04-.94,.43"/><path class="cls-6" d="M13.14,62.48c-.48-.27-.17-.79,.01-1.16,.77-1.71,1.41-3.47,2.1-5.22,.47-1.16,.86-2.35,1.11-3.57,.26-.53,1.11-.19,.95,.37-.34,1.96-1.21,3.77-1.9,5.63-.49,1.26-.97,2.53-1.58,3.74,0,0,0,.02-.01,.02-.02,0-.05,.02-.07,.03-.05,.05-.11,.1-.16,.14-.02,.02-.04,.03-.06,.04-.05,.02-.11,.03-.16,.03-.09,0-.17-.02-.24-.06"/><path class="cls-6" d="M13.06,63.64s0,0,.01-.02c0,.01,.02,.02,.03,.03,0,0,0,.01,.01,.02-.02-.01-.04-.02-.05-.03"/><path class="cls-6" d="M13.33,62.68h0s-.01,0-.02,.01c-.01,0-.02,.01-.03,.02-.03,.03-.05,.06-.07,.09,0,0,0,0,0,0-.03-.01-.05-.02-.09,0-.04,.01-.08,.04-.1,.08-.05,.07-.08,.14-.1,.22,0,0,0,0,0,.01-.05,.08-.11,.18-.04,.26,.01,.01,.03,.02,.04,.03,0,.02-.01,.04-.01,.05,0,0,0,.01,0,.02-.19-.31,.03-.76,.44-.79"/><path class="cls-6" d="M20.76,53.18c.08-.47,.85-.57,1-.05,.01,.07,.02,.14,.01,.21-.1,.05-.2,.11-.3,.17,0,0,0,0,0,0,0,0,0,0,0,0,0,0-.02,.01-.03,.02,0,0,0,0,0,0,0,0,0,0,0,0,0,0,0,0,0,0h0s0,0,0,0t0,0h0c-.09,.05-.18,.1-.26,.16-.23,.07-.46,.12-.69,.2,0,0-.01,0-.02,0,.1-.24,.2-.48,.3-.73"/><path class="cls-6" d="M11.49,63.9c.22-1.04,.85-2.09,1.45-1.68,.22,.16,.24,.37,.17,.58-.04,.01-.07,.04-.1,.07-.05,.07-.08,.14-.1,.22,0,0,0,0,0,.01-.03,.04-.06,.09-.07,.14-.2,.33-.31,.71-.39,1.09,2.23-1.92,4.64-3.72,6.36-6.14,.74-1.48,1.29-3.05,1.9-4.58,.13-.29,.18-.67,.46-.87,.34-.23,.85,.08,.79,.49-.33,.9-.69,1.8-1.04,2.7-.51,1.18-.88,2.46-1.71,3.46-1.56,1.94-3.49,3.53-5.39,5.12-.53,.4-1,1.03-1.68,1.14h-.02c-.7,0-.82-.89-.63-1.77"/><path class="cls-6" d="M11.1,39.33c-.32-.73-.65-1.46-1-2.19-.1,.49-.21,1.02-.53,1.42-.57,.64-1.67,.71-2.27,.07-.45-.58-.25-1.35-.24-2.03,.1-.51-.18-1.13,.21-1.56,1.34-1.12,2.88-.94,3.4,.85,.35,.88,.83,1.69,1.16,2.58,.19,.35,.42,.85-.04,1.09-.07,.04-.15,.05-.23,.05-.19,0-.38-.1-.47-.28m-3-3.62c.11,.75-.15,1.51,0,2.25,.11,.08,.24,.12,.37,.08,.55-.08,.55-.8,.64-1.23-.08-.35,.15-.73,.54-.7-.14-.51-.4-.72-.72-.72-.25,0-.53,.12-.82,.32"/><path class="cls-6" d="M4.97,41.07c-.92-.19-.87-1.31-.97-2.04-.05-.4-.22-.78-.23-1.18-.07-.61,.5-.93,1.01-1.05,.47-.18,1.03-.34,1.5-.08,.33,.2,.64,.46,.98,.62,.27-.01,.52,.21,.54,.48,.03,.46-.5,.67-.87,.5-1.03-.45-.93-.99-2.12-.44,.21,.71,.21,1.47,.41,2.19,.73,.06,1.01-.27,.95-.99-.04-.67,.98-.74,1.03-.07,.13,1.29-.63,2.09-1.81,2.09-.13,0-.26-.01-.4-.03"/><path class="cls-6" d="M6.35,41.26c-.15-.42-.54-.88-.27-1.33,.15-.24,.49-.3,.72-.14,.15,.1,.23,.27,.23,.44,.1,.23,.21,.46,.3,.69,.13,.4-.19,.68-.51,.68-.19,0-.38-.1-.47-.34m.61-.8s.04-.09,.05-.13c0-.02,0-.04,0-.06h0c0,.06-.02,.13-.06,.19"/><path class="cls-6" d="M8.65,40.14c-.28-.39-.74-.67-.88-1.15-.23-.76,.88-1.06,1.01-.27,.31,.4,1.13,.92,.6,1.46-.1,.08-.22,.13-.35,.13-.14,0-.29-.06-.38-.17"/><path class="cls-6" d="M2.71,43.11s.02,0,.03,0c0,0-.02,0-.02,0t0,0"/><path class="cls-6" d="M2.79,43.09c-.06,0-.12-.01-.17-.02-.2-.09-.33-.26-.4-.47,0-.06,0-.13,0-.19,0-.16-.01-.31-.02-.46,0-.02,0-.04,0-.06,0-.51-.05-1-.08-1.51-.2-1.04,.84-1.47,1.66-1.71,.52-.59,1.28,.29,.73,.79-.41,.28-.95,.3-1.36,.61-.01,.7,.11,1.38,.07,2.07,.38,.05,.6-.24,.76-.55,.21-.26,.26-.57,.2-.9-.04-.67,.98-.74,1.03-.07,.13,.8-.31,1.8-1.02,2.28-.14-.01-.29,0-.43,.06,0,0-.01,0-.02,0-.09,.01-.18,.02-.27,.04-.1,.02-.2,.05-.3,.07-.01,0-.02,0-.04,0-.02,0-.04,0-.06,0-.03,0-.07,0-.1,0-.06,0-.12,0-.17,.02,0,0-.01,0-.02,0"/><path class="cls-6" d="M4.85,43.44c-.06-.17-.18-.33-.33-.43-.09-.2-.25-.36-.35-.57-.45-.8,.81-1.35,.96-.4,.73,.86,.37,1.45-.06,1.45-.07,0-.15-.02-.22-.05"/><path class="cls-6" d="M3.95,42.9c-.06,0-.12,.03-.19,.05,0,0-.01,0-.02,0h0c-.09,.01-.18,.02-.27,.04-.1,.02-.19,.05-.29,.07,.14-.27,.52-.33,.77-.17"/><path class="cls-6" d="M2.23,42.69c0-.09,0-.19,0-.28-.01-.35-.04-.71-.06-1.06,.35-.12,.68-.07,.76,.42,.04,.44-.42,.52-.7,.72,0,.07,0,.14,.01,.21,0,0,0,0,0,0"/><path class="cls-6" d="M6.91,48.99s-.03-.01-.05-.02h0s-.01-.02-.01-.02l-.02-.02v-.02s-.03-.01-.03-.01v-.02s-.03-.01-.03-.01v-.02s-.03-.01-.03-.01h-.01s-.01-.03-.01-.03h-.01s-.01-.02-.01-.02h-.01s-.01-.02-.01-.02h-.01s-.01-.02-.01-.02h-.01s-.01-.02-.01-.02h-.01s-.01-.02-.01-.02h-.01s0-.02,0-.02h-.01s0-.02,0-.02h-.01s0-.01,0-.01h0s0-.01,0-.01h0s0-.01,0-.01h0s0,0,0,0h0s0,0,0,0h0s0,0,0,0h0s0,0,0,0h0s0,0,0,0h0s0,0,0,0h-.01s0,0,0,0h-.01s-.01,0-.01,0h-.01s-.01,0-.01,0h-.01s-.01,0-.01,0h-.01s-.01,0-.01,0h-.01s-.01,0-.01,0h-.01s-.01,0-.01,0h-.01s-.01,0-.01,0h-.01s-.01,0-.01,0h-.01s-.01,0-.01,0h-.01s-.01,0-.01,0h-.01s-.01,0-.01,0h-.02s-.01,0-.01,0h-.05s-.01,0-.01,0h-.02s-.01,0-.01,0h-.02s-.01,0-.01,0h-.01s-.01,0-.01,0h-.01s-.01,0-.01,0h-.01c-.79-.41-1.41-.99-1.7-1.97-.24-.44-.4-.91-.53-1.39,.05-.04,.09-.09,.12-.15,.02-.03,.03-.06,.05-.08t0,0s0,0,.01,0c.03,0,.05-.01,.08-.02,.06,0,.13-.02,.19-.02,.1,0,.21,0,.31,0h0c.08,.08,.17,.15,.27,.19,.14,.43,.32,.85,.52,1.27,.16,.48,.47,.9,.92,1.15,.35,.18,.74,.31,1.1,.48,.57,.19,.36,1.01-.16,1.01-.06,0-.12-.01-.18-.03"/><path class="cls-6" d="M3.64,42.98s-.05,0-.08,.01c.03,0,.05-.01,.08-.01"/><path class="cls-6" d="M12.04,41.6c-1.06-.15-1.63-1.38-.88-2.21,.5-.52,1.2-.79,1.74-1.26,.18-.63,1.17-.36,1.02,.28-.33,.85-1.42,1.06-2.01,1.69-.3,.43,.45,.59,.75,.51,.38-.17,.89-.5,1.16,.01,.27,.7-.72,1.03-1.41,1.03-.15,0-.28-.02-.38-.05"/><path class="cls-6" d="M12.11,47.94c-.71-.66,.52-1.38,.91-1.85,.26-.4,.43-.87,.64-1.3,.57-1.1,.51-2.37,.96-3.5,.11-.56,.43-1.1,.25-1.67-.25-.38-.57-.82-1.02-.95-.52,.83-1.64-.07-.81-.64,1.11-1.29,3.12,.88,2.91,2.14-.14,.91-.51,1.77-.7,2.66-.09,.92-.35,1.8-.76,2.63-.28,.58-.49,1.22-1.01,1.63-.4,.22-.63,.94-1.08,.94-.09,0-.18-.03-.29-.09"/><path class="cls-6" d="M6.72,48.83h-.01s-.01-.02-.01-.02h-.01s-.01-.02-.01-.02h-.01s-.01-.02-.01-.02h-.01s-.01-.02-.01-.02h-.01s-.01-.02-.01-.02h0s-.01-.02-.01-.02h0s0-.02,0-.02h0s-.01-.01-.01-.01h0s-.01-.01-.01-.01h0s0-.01,0-.01h0s0,0,0,0h0s0,0,0,0h0s0,0,0,0h0s0,0,0,0h0s0,0,0,0h0s0,0,0,0h-.01s-.01,0-.01,0h0s-.01,0-.01,0h-.01s-.01,0-.01,0h-.01s-.01,0-.01,0h-.01s-.01,0-.01,0h-.01s-.01,0-.01,0h-.01s-.01,0-.01,0h-.01s-.01,0-.01,0h-.01s-.01,0-.01,0h-.02s-.01,0-.01,0h-.02s-.01,0-.01,0h-.01s-.01,0-.01,0h-.07s-.01,0-.01,0h-.01s-.01,0-.01,0h-.02s-.01,0-.01,0h-.01s-.01,0-.01,0h-.01s-.01,0-.01,0h-.01s-.01,0-.01,0h-.01s-.01,0-.01,0h-.01s-.01,0-.01,0h-.01s-.01,0-.01,0h-.01s-.01,0-.01,0h-.01s-.01,0-.01,0h-.01s-.02,0-.02,0h-.02s-.02,0-.02,0h-.02s-.02,0-.02,0h-.02s-.02,.01-.02,.01h-.02s-.02,0-.02,0h-.02s0,0,0,0c.17-.25,.35-.5,.53-.74,.22-.18,.54-.17,.73,.05,.22,.26,.1,.58-.11,.89h0Z"/><path class="cls-6" d="M11.28,47.98c.11-.43,.5-.71,.77-1.05,.22-.33,.67-.64,1.01-.26,.44,.6-.42,1.03-.71,1.47,0,.02,0,.04-.01,.05h0s0-.02,0-.02h0s0-.03,0-.03h0s0-.02,0-.02h0s0-.02,0-.02h0s0-.01,0-.01h0s0,0,0,0h0s0,0,0,0h-.01s0,0,0,0h-.01s-.01,0-.01,0h-.01s0,0,0,0h-.01s-.01,0-.01,0h-.05s-.01,0-.01,0h-.01s-.01,0-.01,0h-.01s-.01,0-.01,0h-.01s-.01,0-.01,0h-.01s-.01,0-.01,0h-.01s-.01,0-.01,0h-.01s-.01,0-.01,0h-.01s-.01,0-.01,0h-.01s-.01,0-.01,0h-.01s-.01,0-.01,0h-.01s-.01,0-.01,0h-.01s-.01,0-.01,0h-.01s-.01,0-.01,0h-.01s-.01,0-.01,0h-.01s-.01,0-.01,0h-.01s-.01,0-.01,0h-.01s-.01,0-.01,0h-.01s-.01,0-.01,0h-.01s-.01,0-.01,0h-.01s-.01,0-.01,0h-.01s-.01,0-.01,0h-.01s-.01,0-.01,0h-.01s-.01,0-.01,0h-.01s-.01,0-.01,0h-.01s-.01,0-.01,0h-.01s-.01,0-.01,0h-.01s-.01,0-.01,0h-.01s-.01,0-.01,0h-.01s-.01,0-.01,0h-.01s-.01,0-.01,0h-.01s-.01,0-.01,0h-.01s-.01,0-.01,0h-.01s-.01,0-.01,0h-.01s-.01,0-.01,0h-.01s-.01,0-.01,0h0c.02-.1,.03-.21,.05-.32"/><path class="cls-6" d="M1.18,45.93c-1.52-.34-1.11-1.43-.48-2.43,.31-.42,.06-1.22,.74-1.25,1.23,.24-.02,1.97-.28,2.6,.41,.23,.85-.2,1.12-.48,.16-.24,.23-.57,.54-.65,.46-.11,.81,.31,1.15,.55,.21,.12,.4,.28,.56,.47,.6,.76-.49,1.52-.85,.6-.17-.16-.37-.25-.54-.41-.4,.52-1.05,1.03-1.74,1.03-.08,0-.15,0-.23-.02"/><path class="cls-6" d="M1.51,43.22c-.58-.09-.55-.72-.2-1.07,.21-.23,.52-.19,.79-.26,.12-.05,.24-.07,.37-.03,.43,.1,.52,.74,.12,.94-.17,.09-.36,.13-.55,.15-.09,.17-.28,.27-.47,.27-.02,0-.04,0-.06,0"/><path class="cls-6" d="M6.37,48.37h.01s.01,0,.01,0h.01s.01,0,.01,0h.01s.01,0,.01,0h.01s.01,0,.01,0h.01s.01,0,.01,0h.01s.01,0,.01,0h.01s.01,0,.01,0h.01s.01,0,.01,0h.01s.01,0,.01,0h.01s.01,0,.01,0h.02s.01,0,.01,0h.11s.01,0,.01,0h.02s.01,0,.01,0h.01s.01,0,.01,0h.01s.01,0,.01,0h.01s.01,0,.01,0h.01s0,0,0,0h.01s0,0,0,0h0s.01,0,.01,0h0s0,0,0,0h0s0,0,0,0h0s0,0,0,0h0s.01,0,.01,0h0s0,.01,0,.01h.01s.01,.01,.01,.01h.01s.01,.01,.01,.01h.01s.01,.01,.01,.01h.01s.01,.02,.01,.02h.01s.01,.02,.01,.02h.01s.01,.02,.01,.02h.01s.01,.02,.01,.02h.01s.01,.02,.01,.02h.01s.01,.02,.01,.02h.02s.01,.02,.01,.02h.02s.02,.03,.02,.03h.02s.02,.02,.02,.02h.02s.02,.03,.02,.03h.02s0,.02,0,.02c-.35-.08-.69-.18-1.01-.3"/><path class="cls-6" d="M6.2,49.78c-.19-.14-.43-.22-.67-.27,.18-.35,.36-.69,.54-1.03h.02s.02-.01,.02-.01h.02s.02-.01,.02-.01h.02s.02-.01,.02-.01h.01s.02-.01,.02-.01h.02s.01-.01,.01-.01h.01s.01-.01,.01-.01h.01s.01,0,.01,0h.01s.01,0,.01,0h.01s.01,0,.01,0h.01s.01,0,.01,0h.01s.01,0,.01,0h.01s.01,0,.01,0h.01s.01,0,.01,0h.01s.01,0,.01,0h.01s.01,0,.01,0h.01s.01,0,.01,0h.01s.01,0,.01,0h.01s.01,0,.01,0h.01s.01,0,.01,0h.01s.01,0,.01,0h.01s.01,0,.01,0h.01s.01,0,.01,0h.01s.01,0,.01,0h.09s.01,0,.01,0h.01s.01,0,.01,0h.01s.01,0,.01,0h.01s0,0,0,0h.01s.01,0,.01,0h.01s.01,0,.01,0h.01s0,0,0,0h.01s0,0,0,0h0s0,0,0,0h0s0,0,0,0h0s0,0,0,0h0s0,0,0,0h.01s0,0,0,0h0s0,0,0,0h.01s.01,.01,.01,.01h.01s.01,.01,.01,.01h.01s.01,.01,.01,.01h.01s.01,.02,.01,.02h.01s.01,.02,.01,.02h.01s.01,.02,.01,.02h.01s.01,.02,.01,.02h.01s.01,.02,.01,.02h.01s0,.01,0,.01c-.17,.33-.41,.67-.5,.92-.07,.13-.13,.25-.2,.38-.11-.02-.21-.04-.32-.06"/><path class="cls-6" d="M11.64,47.48h0s.01,0,.01,0h.01s.01-.01,.01-.01h.01s.01-.01,.01-.01h.01s.01-.01,.01-.01h.01s.01-.01,.01-.01h.01s.01-.01,.01-.01h.01s.01-.01,.01-.01h.01s.01-.01,.01-.01h.01s.01-.01,.01-.01h.01s.01-.01,.01-.01h.01s.01-.01,.01-.01h.01s.01-.01,.01-.01h.01s.01-.01,.01-.01h.01s.01-.01,.01-.01h.01s.01-.01,.01-.01h.01s.01-.01,.01-.01h.01s.01-.01,.01-.01h.01s.01-.01,.01-.01h.01s.01-.01,.01-.01h.01s.01-.01,.01-.01h.01s.01-.01,.01-.01h.01s.01-.01,.01-.01h.01s.01-.01,.01-.01h.01s.01-.01,.01-.01h.01s.01,0,.01,0h.01s.01,0,.01,0h.01s.01-.01,.01-.01h.01s.01,0,.01,0h.01s.01,0,.01,0h.01s.01,0,.01,0h.01s.01,0,.01,0h.01s.01,0,.01,0h.01s.01,0,.01,0h.01s.01,0,.01,0h.01s.01,0,.01,0h.01s.01,0,.01,0h.01s.01,0,.01,0h.01s0,0,0,0h.04s.01,0,.01,0h0s0,0,0,0h0s.01,0,.01,0h0s.01,0,.01,0h0s.01,.01,.01,.01h0s0,.02,0,.02h0s.01,.02,.01,.02h0s.01,.03,.01,.03h0c-.03,.4-.08,.79-.14,1.18-.02,.02-.05,.03-.07,.05-.09,.06-.18,.12-.27,.18-.1,.06-.21,.11-.31,.17-.06,.03-.13,.07-.19,.1-.03,.01-.05,.02-.08,.04-.07,.03-.15,.07-.22,.1,.11-.52,.18-1.05,.21-1.58"/><path class="cls-6" d="M22.13,17.35c-.21-.27-.08-.63,.19-.8,.43-.37,.83-.77,1.21-1.18,.98-1.11,1.78-2.31,2.45-3.61,.19-.38,.38-.76,.53-1.15,.05-.22,.16-.42,.4-.48,.79-.1,.72,.69,.43,1.18-.67,1.51-1.5,2.85-2.52,4.13-.59,.73-1.25,1.4-1.97,2.01-.21,.18-.56,.11-.72-.1m4.4-6.64c0-.06,0-.12,0-.18-.01,.06-.01,.12,0,.18"/><path class="cls-6" d="M22.38,23.18c-.26-1.89-.41-3.8-.54-5.69-.16-.87,1.11-.96,1.03-.07,.12,1.88,.29,3.76,.53,5.63,.08,.67-.93,.8-1.02,.13"/><path class="cls-6" d="M35.17,24.54c-.51-.02-1.01-.15-1.52-.19-.7-.05-1.39,.11-2.09,.15-.91,.09-1.76-.29-2.65-.38-.46-.03-.9,.09-1.34,.16-.8,.14-1.6,0-2.39-.14-.52-.09-1.05-.16-1.56-.05-.27,.05-.62,.2-.87,.03-.25-.13-.32-.48-.18-.71,.23-.37,1.22-.37,1.64-.41,.79,0,1.55,.24,2.33,.3,.94,.08,1.85-.36,2.79-.17,.57,.09,1.12,.29,1.7,.34,.69,.04,1.36-.12,2.04-.15,.7-.05,1.38,.12,2.07,.19,.59,.04,1.16-.07,1.74-.14,.45-.06,.9,.04,1.35,.05,.65,.03,1.22-1.07,1.8-.43,.52,.75-1.13,1.41-1.7,1.46-.42,.03-.83-.09-1.25-.06-.64,.07-1.27,.2-1.92,.16"/><path class="cls-6" d="M39.91,23.68c-.67-.12-.37-.9-.37-1.37,.12-1.6,.2-3.2,.2-4.8,.09-.58-.29-1.86,.32-2.13,.26-.11,.57,.02,.67,.28,.09,1.63,.03,3.29-.05,4.92-.03,.61-.07,1.21-.11,1.82-.06,.48,.05,1.34-.66,1.28"/><path class="cls-6" d="M33.26,15.26c-1.78-.06-3.44-.87-4.78-2.02-.67-.6-1.84-1.66-1.9-2.58,0,.04-.01,.07-.01,.11,0-.27,.24-.52,.52-.51,.49-.02,.77,1,1.16,1.33,.75,.84,1.58,1.46,2.54,1.98,1.55,.81,3.39,.82,5.05,.38,.27-.07,.56,.09,.63,.37,.2,.6-.82,.83-1.78,.91-.05,0-.11,0-.16,.01-.38,.03-.75,.03-1,.03-.11,0-.21,0-.27,0"/><path class="cls-6" d="M39.98,16.35c-.69-.16-1.39-.35-2.07-.59,0,0,0,0-.01,0,0,0-.01,0-.02,0-1.14-.42-2.2-1-3.05-1.88-.61-.63-1.88-1.98-2.01-2.81,.04-.28,.3-.48,.58-.44,.4,.07,.51,.54,.74,.82,1.01,1.54,2.43,2.83,4.21,3.39,.62,.22,1.26,.4,1.91,.54,.59,.15,.4,1.02-.12,1.02-.05,0-.1,0-.16-.03"/><path class="cls-6" d="M20.78,33.26c-1.05-1.67-.86-4.16-.94-6.07,.01-1.12,.61-2.15,.54-3.26-.22-1.97-.3-3.96-.7-5.9-.17-1.73,.26-1.54-.71-3.22-1.14-2.87,.83-5.94,3.26-7.43,.49-.31,.96-.69,1.52-.85,.45-.07,.77,.48,.48,.83-2.41,1.3-4.9,3.33-4.51,6.38,.41,1.58,1.16,1.72,.94,3.66,.11,1.03,.36,2.05,.41,3.09,.11,1.43,.44,2.88,.3,4.31-.11,.77-.43,1.5-.49,2.28-.05,.86,.03,1.72,.07,2.58,0,0,0-.01,0-.02,0,0,0,0,0-.01,.07,.93,.12,1.88,.49,2.74,.2,.3,.45,.72,.07,1-.22,.17-.56,.12-.72-.1"/><path class="cls-6" d="M29.39,42.57c-.61-.08-1.03-.59-1.59-.79-.84-.26-1.8-.08-2.58-.57-.95-.64-1.36-1.83-1.85-2.79-.33-.75-.83-1.4-1.26-2.1-.37-.65-.52-1.42-.75-2.11-.07-.35-.37-.67-.4-1-.01-.59,.88-.7,1.01-.13,0-.04-.03-.08-.05-.13,.42,.66,.56,1.45,.79,2.18,.21,.69,.68,1.24,1.05,1.85,.76,1.09,1,2.77,2.2,3.45,1.9,.36,1.78,.04,3.54,1.12,.93,0,1.85-.5,2.79-.23,1.18,.5,2.27-.4,3.4-.68,1.04-.12,1.26-.94,1.84-1.65,.6-.59,1.49-.74,2.09-1.34,.32-.48,.32-1.09,.54-1.61,.26-.67,.87-1.13,1.06-1.83,.73-1.97-.58-4.02,.12-6.01,.31-1.16,.66-2.6-.36-3.52-.54-.76,.64-1.57,1.39,.2,.99,1.91-.64,3.93-.12,5.9,.36,1.57,.38,3.33-.52,4.73-.62,.64-.77,1.47-1.02,2.29-.39,1.14-1.81,1.27-2.53,2.06-.33,.46-.6,.97-1.04,1.33-.46,.34-1.06,.39-1.58,.6-.71,.26-1.39,.62-2.15,.73-.66,.14-1.26-.27-1.91-.22-.71,.03-1.4,.4-2.12,.3"/><path class="cls-6" d="M41.16,24.74c-1.39-.23,.5-2.89,.43-3.76,.07-.93-.37-1.82-.25-2.74,.67-2.3,1.31-4.88,.12-7.13-.1-.35-.51-.56-.46-.94,.04-.27,.31-.49,.58-.44,.75,.27,.95,1.35,1.24,2.01,.69,2.15,.21,4.44-.45,6.54-.12,.64,.16,1.26,.2,1.89,.21,1.13-.35,2.28-.72,3.27-.25,.44-.03,1.26-.71,1.29m.29-13.98h0c-.07-.01-.14-.04-.2-.07,.04,.03,.08,.04,.13,.06h0s.05,0,.07,.01"/><path class="cls-6" d="M19.96,25.26c-2.2-1.3-2.51-4.51-1.28-6.58,.34-.51,.87-1.52,1.59-1.32,.26,.11,.38,.42,.27,.68-.09,.22-.33,.27-.47,.46-.74,.84-1.15,1.97-1.07,3.09,.05,1.08,.5,2.24,1.48,2.79,.57,.35,.05,1.23-.53,.89"/><path class="cls-6" d="M41.79,25.47c-.32-.64,.59-.85,.87-1.28,1.14-1.27,1.46-3.23,.89-4.82-.25-.46-.58-.95-1.07-1.15-.2,.06-.43-.01-.57-.18-.38-.58,.31-.99,.83-.82,2.71,1.11,2.54,5.1,1.08,7.17-.37,.47-1.46,1.91-2.03,1.09"/><path class="cls-6" d="M20.42,6.15c-.1-.09-.16-.22-.17-.35-.02-.27,.2-.55,.48-.55,.14,0,.27,.03,.38,.13,.1,.09,.16,.22,.17,.35,.02,.27-.2,.55-.48,.55-.14,0-.27-.04-.38-.13"/><path class="cls-6" d="M40.94,10.31c-6.91-.27-13.95-1.22-20.3-4.09-.66-.24-.39-1.2,.3-1,.14,.05,.27,.13,.4,.19,5.4,2.32,11.22,3.41,17.06,3.71,1.33,.08,2.67,.19,3.96,.19,.55,.09,1.66-.33,1.76,.46,.02,.28-.2,.53-.48,.55-.9,.04-1.8,.02-2.7-.02"/><path class="cls-6" d="M43.52,10.14c-.68-.41-1.35-.83-2.02-1.24-1.05-.66-2.21-1.16-3.2-1.91-.36-.42,.13-1.06,.62-.8,.13,.08,.25,.19,.38,.26,1.6,.95,3.23,1.85,4.8,2.85,.55,.38-.03,1.23-.59,.85"/><path class="cls-6" d="M20.67,6.16c-.62-.21-.31-1.17,.32-.98-.06-.02-.12-.02-.17-.02,1.86-.32,3.72-.72,5.61-.89,.67-.04,.74,.98,.07,1.03-1.43,.14-2.82,.37-4.22,.65-.53,.07-1.06,.3-1.59,.22"/><path class="cls-6" d="M37.97,2.66c-2.82-1.02-5.83-1.98-8.85-1.5-.35,.02-.74,.28-1.08,.08-.43-.27-.24-.92,.24-.95,1.94-.49,3.98-.28,5.92,.13,1.39,.31,2.73,.79,4.07,1.26,.64,.21,.34,1.18-.3,.99M28.83,.77c0-.12-.06-.25-.15-.33,.08,.09,.14,.2,.15,.33"/><path class="cls-6" d="M38.25,6.65c-.12-1.53-.45-3.08-.36-4.61,.17-.59,1.08-.4,1,.22h0c.02,1.42,.25,2.83,.38,4.25,.09,.67-.92,.82-1.02,.15"/><path class="cls-6" d="M26.54,5.29c-.27-.1-.39-.42-.28-.68,.25-.74,.53-1.46,.78-2.2,.09-.27,.18-.54,.27-.81,.19-.4,.17-1.05,.69-1.16,.44-.08,.74,.45,.51,.8-.16,.48-.31,.94-.47,1.41-.25,.74-.53,1.48-.78,2.22-.05,.33-.4,.54-.72,.41"/><path class="cls-6" d="M35.6,3.31c-2.23-.05-4.42-.68-6.48-1.5-.37-.21-1.21-.39-1.26-.86,0-.21,.15-.39,.37-.4,.31,.04,.55,.31,.85,.41,.71,.33,1.45,.58,2.2,.81,2.23,.71,4.63,1.08,6.92,.45,.19-.06,.42,.05,.47,.25,.06,.19-.05,.43-.25,.48-.92,.23-1.86,.38-2.81,.37"/><path class="cls-6" d="M38.72,7.23c-4.14-.44-8.25-1.11-12.34-1.88-.48-.12-.31-.85,.17-.74,3.22,.6,6.45,1.15,9.69,1.56,.85,.11,1.7,.2,2.55,.3,.49,.05,.43,.8-.07,.76"/><path class="cls-6" d="M38.17,6.01c-3.06-.4-6.12-.87-9.17-1.36-.61-.1-1.23-.19-1.84-.29-.22-.01-.43-.23-.37-.45,.04-.22,.28-.37,.49-.3,1.28,.2,2.56,.4,3.84,.6,2.37,.39,4.74,.72,7.12,1.04,.49,.06,.42,.8-.07,.76"/><path class="cls-6" d="M23.82,15.71c-.06-.49,.68-.59,.75-.1,.02,.05,.04,.09,.06,.13,0,0,0,0,0,0-.05,.05-.1,.11-.15,.16-.05,.05-.09,.11-.14,.16-.02,.03-.04,.06-.06,.09-.02,.02-.05,.05-.07,.07-.03,.03-.06,.06-.09,.08-.15-.17-.26-.38-.29-.61"/><path class="cls-6" d="M24.49,14.88c-.21-.38,.22-.58,.48-.75,.38-.24,.8-.45,1.23-.58,0,0,0,0,0,.01,0,0,0,0,0,0,0,0,0,0,0,0,0,0,0,0,0,0h0s0,0,0,0h0s0,0,0,0t0,0h0s0,0,0,0c0,0,0,0,0,0-.14,.23-.3,.45-.45,.67-.07,.1-.13,.2-.2,.3-.04,.06-.09,.13-.14,.19,0,0,0,0,0,0-.02,.02-.03,.04-.05,.06,0,0,0,0,0,0,0,0,0,0,0,0-.19,.14-.38,.27-.56,.27-.11,0-.21-.05-.31-.18"/><path class="cls-6" d="M26.19,13.57h0s0,0,0,0Z"/><polyline class="cls-6" points="26.19 13.57 26.19 13.57 26.19 13.57"/><path class="cls-6" d="M37.91,15.75s-.06-.02-.08-.03c-.07-.02-.13-.04-.2-.06-.02,0-.04-.01-.06-.02-.05-.03-.1-.05-.15-.08-.06-.03-.13-.06-.19-.09,0,0,0,0,0,0,.01-.01,.03-.02,.04-.03,.23-.18,.34-.36,.63-.22,.17,.1,.25,.35,.14,.52-.01,.02-.02,.03-.03,.05-.03-.02-.05-.03-.09-.05"/><path class="cls-6" d="M37.82,15.76h0s.01,0,.02,0c0,0-.02,0-.02,0"/><path class="cls-6" d="M37.22,15.52s-.01,0-.02,0c0,0,.01,0,.02,0,0,0,0,0,0,0"/><path class="cls-6" d="M33.38,15.29c-.13-.17-.19-.36-.16-.56,.06-.14,.2-.23,.35-.23,.3,0,.37,.32,.56,.48,.14,.09,.28,.18,.43,.25-.02,0-.04,0-.05,.01-.06,.01-.11,.02-.17,.03-.08,0-.16,.01-.25,.01-.22,0-.43,0-.65,.01-.02,0-.04,0-.06,0"/><path class="cls-6" d="M30.9,23.33c-1.71-.34-.55-2.12-.51-3.22,0-.49,.76-.49,.76,0-.01,.25-.07,.51-.12,.75-.09,.5-.28,.99-.32,1.5,.09,.28,.56,.25,.82,.27,.49,0,.5,.76,0,.76-.21,0-.43-.01-.64-.06"/><path class="cls-6" d="M27.07,21.9c-2.14-.06-3.38-1.76-2.48-3.77,1.01-2.24,4.46-2.29,5.15,.16,.29,1.1-.03,2.36-.94,3.07-.45,.38-1.15,.76-1.73,.54m.36-.71c2.33-.46,2.21-4.15-.39-3.99-1.46,.06-2.5,1.91-1.71,3.16,.39,.54,1.1,.71,1.73,.77,.13,0,.27-.03,.38,.06"/><path class="cls-6" d="M26.66,20.44c-.82-.38-.99-1.75-.22-2.25,.24-.13,.52-.16,.79-.2,.73,.04,1.31,.77,1.17,1.49-.07,.5-.47,1.06-1.03,1.01-.22,.11-.51,.05-.72-.05"/><path class="cls-6" d="M35.84,21.9c-2.15-.06-3.38-1.76-2.48-3.77,1.01-2.24,4.46-2.29,5.15,.16,.29,1.1-.03,2.36-.94,3.07-.45,.38-1.15,.76-1.73,.54m.36-.71c2.33-.46,2.21-4.15-.39-3.99-1.46,.06-2.5,1.91-1.72,3.16,.39,.54,1.1,.71,1.73,.77,.13,0,.27-.03,.38,.06"/><path class="cls-6" d="M35.43,20.44c-.82-.38-.99-1.75-.22-2.25,.24-.13,.52-.16,.79-.2,.73,.04,1.3,.77,1.17,1.49-.07,.5-.47,1.06-1.02,1.01-.22,.11-.51,.05-.72-.05"/><polygon class="cls-9" points="31.61 25.76 33.35 26.64 34.35 29.54 34.09 33.45 32.98 35.23 31.35 35.81 29.84 34.91 29.13 32.81 28.93 29.16 29.59 27.14 30.48 26.2 31.61 25.76"/><path class="cls-6" d="M31.91,25.3c2.54,.5,3.65,5.68,2.22,8.95-.56,1.35-2,1.83-2.94,1.91-3.95-.97-3.57-11.52,.72-10.85m-.41,1.07c-3.19,.02-3.09,8.36-.15,8.68,.07,.06,.15,.1,.24,.13h0s.03,0,.04,.01c.08,.02,.16,.04,.24,.04,.05,0,.09,0,.14-.01,.09-.01,.18-.04,.26-.09,.11-.04,.21-.09,.31-.16,.2-.15,.37-.36,.47-.62,.15-.11,.29-.26,.41-.49,1.39-2.69,.34-7.49-1.92-7.49-.02,0-.03,0-.05,0"/><path class="cls-9" d="M28.01,14.47c-.22-.53-1.28-.6-2.38-.15-1.1,.45-1.82,1.24-1.6,1.77,.22,.53,1.28,.6,2.38,.15,1.1-.45,1.82-1.24,1.6-1.77"/><path class="cls-6" d="M24.77,16.88c-1.41-.22-1.14-1.64-.16-2.27,.91-.65,2.11-1.13,3.22-.79,.51,.14,.78,.68,.65,1.19-.13,.6-.72,.93-1.22,1.21-.23,.2-.57,.26-.84,.39-.53,.2-1.09,.34-1.66,.28m.47-.75c.56-.05,1.07-.3,1.59-.5,.25-.22,.6-.32,.82-.59,.54-.84-1.18-.55-1.56-.37-.62,.13-2.58,1.55-.85,1.46"/><path class="cls-9" d="M33.72,14.2c-.29,.5,.31,1.38,1.34,1.97,1.03,.59,2.09,.67,2.38,.18,.29-.5-.31-1.38-1.34-1.97-1.03-.59-2.09-.67-2.38-.18"/><path class="cls-6" d="M36.96,16.87c1.41-.22,1.14-1.64,.16-2.27-.91-.65-2.11-1.13-3.22-.79-.51,.14-.78,.68-.66,1.19,.13,.6,.72,.93,1.22,1.21,.23,.2,.57,.26,.84,.39,.53,.2,1.09,.34,1.66,.28m-.47-.75c-.56-.05-1.08-.3-1.59-.5-.25-.22-.6-.32-.82-.59-.54-.84,1.18-.55,1.56-.37,.62,.13,2.58,1.55,.85,1.46"/></svg>