<?xml version="1.0" encoding="UTF-8"?><svg id="_レイヤー_1" xmlns="http://www.w3.org/2000/svg" viewBox="0 0 58 126"><defs><style>.cls-1{fill:#88c0dd;}.cls-1,.cls-2,.cls-3,.cls-4,.cls-5{stroke-linecap:round;stroke-linejoin:round;stroke-width:.6px;}.cls-1,.cls-2,.cls-3,.cls-4,.cls-5,.cls-6,.cls-7{stroke:#040000;}.cls-2,.cls-8{fill:#fff;}.cls-3,.cls-9{fill:#e9da21;}.cls-4{fill:#025999;}.cls-10{fill:#040000;}.cls-11{fill:#ce8a0d;}.cls-12{fill:#c68f00;}.cls-13{fill:#1961ad;}.cls-5,.cls-6,.cls-7{fill:none;}.cls-6{stroke-width:.19px;}.cls-6,.cls-7{stroke-miterlimit:10;}.cls-7{stroke-width:.11px;}</style></defs><g><path class="cls-12" d="M41.29,120.15c-.42-1.04-1.6-1.91-3.04-2.44-.58-.25-2.46-.98-2.42-1.4-.14-.75-.81-1.23-1.63-1.45-1.52-.74-3.74-.8-5.35-.04-.03,.06-.07,.12-.1,.18-.09,.2-.17,.41-.24,.61-.08,.25-.17,.49-.33,.72-.12,.17-.28,.33-.43,.48-.09,.09-.17,.18-.28,.26-.26,.2-.58,.3-.93,.34-.07,0-.14,0-.21,0-.09,0-.18,0-.27,0-.07,0-.15,0-.22,0-.03,0-.06,0-.09,0-.03,0-.06,0-.09,0,0,0,0,0-.01,0-.03,0-.05,0-.08-.01-.03,0-.05,0-.08-.01-.03,0-.07-.01-.1-.02-.01,0-.03,0-.04-.01,0,0-.02,0-.03,0-.05-.01-.09-.03-.14-.05,0,0,0,0,0,0,0,0,0,0-.01,0-.04-.02-.08-.03-.11-.05-.01,0-.03-.01-.04-.02-.03-.02-.06-.03-.1-.05,0,0-.02,0-.03-.02-.04-.02-.08-.05-.11-.08,0,0-.02-.01-.02-.02-.03-.02-.06-.04-.08-.07-.07-.06-.13-.13-.19-.2-.01-.01-.02-.03-.03-.04-.09-.14-.16-.29-.23-.44,0-.01-.01-.03-.02-.04-.02-.03-.04-.06-.06-.1h0s-.03-.05-.05-.07h0c-.11-.14-.22-.28-.34-.41-.03-.03-.06-.06-.1-.09-.07-.02-.14-.04-.21-.06,0,0,0,0,0,0-.04-.01-.08-.02-.12-.03-.03,0-.06-.01-.08-.02,0,0,0,0-.01,0-.11-.03-.21-.05-.32-.08h0s-.01,0-.02,0c0,0,0,0,0,0-.04,0-.09-.01-.13-.02-.03,0-.05,0-.08-.01-.02,0-.04,0-.05,0,0,0,0,0,0,0-.01,0-.02,0-.04,0-.04,0-.08,0-.13,0-.09,0-.18,0-.27-.01,0,0-.01,0-.02,0h-.02c-.14,0-.28,0-.43,0h-.03c-.11,0-.23,.01-.34,.02,0,0,0,0-.01,0-.01,0-.03,0-.04,0,0,0,0,0,0,0-.05,0-.1,.01-.15,.02,0,0,0,0,0,0-.09,.02-.17,.05-.26,.08-.06,.02-.12,.05-.18,.07-.15,.06-.29,.12-.43,.18-.09,.05-.18,.1-.28,.15-.02,.01-.05,.02-.07,.04-.04,.02-.08,.04-.12,.06,0,0,0,0-.01,0,0,0-.02,0-.02,.01h0c-.12,.06-.23,.12-.35,.19-.01,0-.02,.01-.03,.02-.02,0-.04,.02-.06,.03,0,0-.02,.01-.03,.02-.02,.01-.03,.02-.05,.03h0s-.07,.05-.1,.08c-.01,0-.03,.02-.04,.03-.04,.03-.09,.06-.13,.1-.2,.14-.39,.25-.63,.35-.2,.08-.4,.14-.61,.19-.07,.02-.14,.03-.21,.05-.39,.08-.81,.14-1.21,.15-.12,0-.24,0-.36,0-.05,0-.1,0-.15,0h-.02s-.05,0-.08,0c-.05,0-.11,0-.16-.01-.03,0-.07,0-.1,0-.07,0-.14-.01-.22-.02-.33-.04-.65-.13-.96-.22-.35-.1-.66-.27-.9-.49-.25,.02-.49,.05-.72,.1-5.09,.57-7.81,3.15-2.35,4.79,.46,.49,1.25,.85,2.18,1.13,.47,.35,.87,.73,1.51,.97,.19,.07,.39,.14,.59,.2,.17,.16,.35,.31,.55,.45,1.6,1.14,3.94,1.81,6.3,1.9,.28,.01,.56,.02,.85,.02,2.09,0,4.18-.35,5.93-1.07,.99-.37,1.86-.88,2.97-1.11,1.14-.19,2.31-.14,3.48-.1,.62,.02,1.23,.04,1.84,.03,.47-.01,.96-.08,1.42-.2,.51-.05,1-.19,1.39-.42,1.56-.63,2.51-1.81,1.92-2.99"/><path class="cls-13" d="M8.93,58.35l1.52-.99-.54-1.62,.58-3.8-.51-2.02,1.38-6.26,.79-.46s6.7,3.25,7.72,3.25,4.9,.52,4.9,.52l3.67-.44-2.7,1.18-1.5,2.74-1.4,3.5,.4,2.2,2.84-.34-.35,2.85-.89,5.95,2.3,.4-.13-5.99,.25-4.45,.47-.82,1.93,9.13,.88,1.98,2.18-.16-.51-1.83-.77-3.71-1.22-3.12,1.42,.49,1.4-1.03,.42-1.79-.33-2.6-.93-2.2-.99-1.71-1.3-1.01,2.63,.42,3.09-.3,4.3-1.03,4.15-1.35,3.54-1.77,.74,6.32-.95,4.04,.92,.9,1.81,.32-1.42,3.56-1.28,.72-1.28-.39-3.15-1.94v1.33l.37,9.39-.74,.62-.45,.92,2.24,10.85,1.58,7.8-.55,6.45-.27,2.91-3.78,4.01-4.55,.78-6.3-1.38-6.12-2.48-5.96-1.73-3.18,.5-4.96,.96-2.13-1.85,2.13-12.26,1.15-4.7,3.22-9.49-.91-.49,.23-8.81-1.96-.49-.94,2.13-1.95-1.07-.26-1.25Z"/><polygon class="cls-13" points="18.54 106.04 20.61 104.49 23.62 104.91 23.62 111.58 22.5 113.36 19.47 111.04 18.54 106.04"/><polygon class="cls-13" points="31.37 106.36 32.93 107.79 34.63 108.46 31.85 113.09 30.98 112.31 29.38 112.4 29.62 111 31.37 106.36"/><polygon class="cls-13" points="28.3 38.74 31.92 38.34 33.03 38.03 28.91 45.96 26.22 41.73 25.06 38.03 28.3 38.74"/><polygon class="cls-8" points="10.49 51.94 10.95 49.03 12.52 47.3 13.6 45.71 13.79 43.48 14.35 41.76 14.11 40.96 13.1 40.09 11 41.11 9.81 38 9.32 37.03 8.2 36.68 7.23 37.27 6.78 39.62 5.57 38.64 3.87 39.07 3.87 40.51 2.79 40.96 2.43 41.76 2.43 43.08 1.1 44 .77 46.26 1.1 46.85 2.65 46.15 3.18 46 4.35 48.54 6.25 49.56 3.74 54.22 2.58 57.43 1.94 59.94 2.11 61.61 3.25 63.51 4.34 65.04 5.13 65.19 6.01 65.26 9.2 63.55 12.08 58.54 10.32 56.61 9.91 55.74 10.49 51.94"/><polygon class="cls-8" points="53.86 40.61 52 36.02 53.58 35.5 55.82 33.89 56.18 35.1 57.38 35.37 57.76 34.28 57.81 32.34 56.01 31.07 56.34 30.06 56.71 29.1 55.54 27.67 53.94 28.71 54.04 25.54 52.38 24.79 50.96 26.84 50.53 24.79 49.63 23.71 47.62 24.3 47.15 26.19 45.79 29.99 44.43 31.53 42.66 32.71 42.4 34.09 43.25 35.44 44.58 35.64 46.98 35.64 47.1 39.75 48.04 48.15 48.04 50.31 47.12 52.26 47.7 52.96 49.9 53.51 52.13 54.26 53.43 53.59 54.33 52.65 54.86 52.39 56.24 49.3 55.45 46.12 53.86 40.61"/><path class="cls-8" d="M23.17,21.54c.16,.13,5.09-.67,5.09-.67l3.77-.15,3.49-5.53,.43,6.6,1.87,.86,.99,2.19-.39,4.09-1.24,3.66-2.53,1.96-1.31,1.23-.78,2.56-2.27,.44-2.48-.09-2.79-.02-.95-2.81-2.67-1.94-1.51-2.63-1.09-5.11,1.3-3.53,2.23-1.25,.83,.13Z"/><polygon class="cls-8" points="16.5 95.35 16.5 99.85 18.29 106.23 19.74 105.16 21.62 104.63 23.64 104.37 24.44 99.32 24.83 97.25 23 96.4 16.5 95.35"/><polygon class="cls-8" points="32.53 100.44 35.04 100.67 38.39 101.05 37.11 104.62 35.46 108 32.92 108.52 31.28 105.26 31.6 104.12 32.53 100.44"/><polygon class="cls-8" points="16.62 23.52 17.5 29.94 15.45 28.99 14.67 26.73 15.2 23.66 16.62 23.52"/><polygon class="cls-8" points="41.11 23.31 42.07 23.97 43.08 26 42.68 28.31 40.4 29.84 41.11 23.31"/><path class="cls-9" d="M26.44,21.15l5.59-.43,3.52-5.05,.61,6.49,2.27,1.15-.32,8.45-4.13,3.65,2.91,.09-.93,2.25,3.84-.42,1.48-7.26s-1.25,.22-.94-1.33c.3-1.54,.81-5.41,.81-5.41,0,0,1.57,1.03,1.28-1.42-.22-1.85-1.97-6.99-3.6-8.73-3.79-4.04-6.02-4.86-6.02-4.86l-5.25-.22-4.01,.82s-5.06,1.87-6.82,6.6c-1.77,4.73-1.7,8.85-1.7,8.85l1.21-1.07,1.29,6.1s-1.79,.57-1.41,.36c.38-.21,1.41,7.66,1.41,7.66l3.96,.46,.5-1.26,1.95-.27-3.97-4.59-.7-8.25,3.42-1.72s1.93-.38,3.78-.65"/><path class="cls-6" d="M26.44,21.15l5.59-.43,3.52-5.05,.61,6.49,2.27,1.15-.32,8.45-4.13,3.65,2.91,.09-.93,2.25,3.84-.42,1.48-7.26s-1.25,.22-.94-1.33c.3-1.54,.81-5.41,.81-5.41,0,0,1.57,1.03,1.28-1.42-.22-1.85-1.97-6.99-3.6-8.73-3.79-4.04-6.02-4.86-6.02-4.86l-5.25-.22-4.01,.82s-5.06,1.87-6.82,6.6c-1.77,4.73-1.7,8.85-1.7,8.85l1.21-1.07,1.29,6.1s-1.79,.57-1.41,.36c.38-.21,1.41,7.66,1.41,7.66l3.96,.46,.5-1.26,1.95-.27-3.97-4.59-.7-8.25,3.42-1.72s1.93-.38,3.78-.65Z"/><polygon class="cls-9" points="28.07 45.93 25.25 48.39 23.54 51.81 22.89 54.76 24.05 56.46 26.14 55.57 24.93 60.02 24.47 64.77 26.76 65.12 27.33 60.02 27.85 53.63 29.76 65.1 32.72 65.3 31.18 60.02 29.62 55.83 31.01 56.65 32.36 55.83 33.04 53.8 32.54 49.75 31.01 47.55 28.07 45.93"/><polygon class="cls-6" points="28.07 45.93 25.25 48.39 23.54 51.81 22.89 54.76 24.05 56.46 26.14 55.56 24.93 60.01 24.47 64.77 26.76 65.12 27.33 60.01 27.85 53.63 29.76 65.1 32.72 65.3 31.18 60.01 29.62 55.83 31.01 56.65 32.36 55.83 33.04 53.8 32.54 49.75 31.01 47.55 28.07 45.93"/><polygon class="cls-8" points="36.87 35.5 35.94 37.75 39.78 37.33 40.25 36.1 44.78 37.9 47.38 42.19 37.34 46.18 29.18 46.06 33.96 35.41 36.87 35.5"/><polygon class="cls-8" points="21.07 37.79 21.3 36.98 23.99 36.13 28.26 46.38 19 48.13 13.1 46.93 13.51 45.34 14.35 41.76 13.47 39.99 17.81 38.06 21.07 37.79"/><polygon class="cls-9" points="18.77 111.27 21.22 111.72 22.08 113.6 23.09 111.86 22.82 116.08 21.56 116.49 16.5 118.09 13.46 117.12 12.9 116.23 14.31 113.59 18.77 111.27"/><polygon class="cls-6" points="18.77 111.27 21.22 111.72 22.08 113.6 23.09 111.86 22.82 116.08 21.56 116.49 16.5 118.09 13.46 117.12 12.9 116.23 14.31 113.59 18.77 111.27"/><path class="cls-9" d="M29.46,112.58c-.05,.2,1.45-.04,1.45-.04l1.07,.18,1.33,3.64,.57,1.67,.17,1.3-.87,1.08h-2.7l-1.05-1.49-.67-1.48-.14-3.94,.83-.93Z"/><path class="cls-6" d="M29.46,112.58c-.05,.2,1.45-.04,1.45-.04l1.07,.18,1.33,3.64,.57,1.67,.17,1.3-.87,1.08h-2.7l-1.05-1.49-.67-1.48-.14-3.94,.83-.93Z"/><path class="cls-10" d="M18.46,109.93c-.96-3.51-2.12-6.98-2.57-10.6-.04-1.01-.59-3.29-.09-4.07,.57-.38,.94,.28,.85,.8,.05,1.97,.34,3.9,.72,5.82,.55,2.63,1.39,5.19,2.09,7.78,.11,.38-.21,.64-.53,.64-.21,0-.4-.11-.47-.37"/><path class="cls-10" d="M23.09,111.09c-.27,0-.53-.23-.52-.51,.29-4.52,.47-9.19,1.61-13.57,.38-.46,1.16,.08,.84,.59-.64,3.38-1.03,6.8-1.26,10.24-.2,.7,.23,3.26-.65,3.26,0,0-.01,0-.02,0"/><path class="cls-10" d="M29.83,110.18c-.27-.07-.44-.36-.36-.63,.76-3,1.63-6.03,1.75-9.14,0-.28,.24-.52,.52-.52,1.18,.06,.07,3.61,.03,4.43-.21,.58-.6,3.5-1.15,5-.04,.04-.07,.09-.09,.14-.04,.09-.1,.18-.13,.27-.02,.05-.03,.11-.04,.16-.12,.2-.25,.32-.39,.32-.04,0-.09-.01-.13-.03"/><path class="cls-10" d="M31.69,112.82c-.63-.47,1.09-1.85,1.33-2.48,1.99-2.99,3.9-6.1,4.74-9.62,.04-.25,.26-.44,.51-.44,1.45-.13-1,4.79-1.28,5.47-.53,.82-3.82,7.19-5.06,7.2-.1,0-.18-.04-.26-.13"/><path class="cls-10" d="M32.7,108.74c-.97-.17-2.89-3.03-1.41-3.4,.73,.01,.45,1.26,.99,1.77,.64,1.19,1.98,.36,2.19,1.21,.01,.47-.33,.61-.73,.61-.36,0-.77-.11-1.03-.2"/><path class="cls-10" d="M31.29,113.02s.02-.09,.04-.14c.04-.13,.07-.26,.11-.4,.02-.07,.04-.14,.06-.22,.04-.06,.08-.12,.12-.18,.01-.01,.02-.02,.03-.04,.12,.03,.26,.06,.41,.08,.48,.63,.04,.91-.52,.91-.08,0-.15,0-.23-.01"/><path class="cls-10" d="M30.53,109.46s0,0,0,.01c-.05,.09-.1,.18-.13,.27-.04,.13-.06,.25-.09,.38-.04,.11-.08,.23-.12,.34-.05,.12-.12,.24-.17,.36-.04,.09-.08,.18-.13,.27-.02,.04-.05,.08-.08,.12,0,0,.01-.02,.02-.02-.07,.09-.14,.19-.19,.29-.43-1.37,.29-2.94,.9-2.01"/><path class="cls-10" d="M33.55,108.85c-.52-.42,0-1.1,.57-.94,.41,0,1-.16,1.1,.4,.08,.55-.53,.65-.95,.63-.08,0-.16,0-.24,0-.05,0-.09,0-.14,0-.12,0-.24-.02-.34-.09"/><path class="cls-10" d="M31.16,106.73c-.28-.03-.46-.28-.48-.55-.1-.35-.06-.85,.39-.91,.49-.05,.61,.35,.64,.75,.13,.33-.13,.71-.48,.71-.02,0-.04,0-.07,0m-.45-.43s0,.03,0,.04c-.01-.07-.02-.14,0-.21,0,0,0,.02,0,.03,0,.04,0,.09,0,.14"/><path class="cls-10" d="M30.78,106.18c-.07-.53-.42-1.57,.38-1.66,.52,.01,.54,.49,.55,.89,.01,.22,.07,.43,.1,.64,0,.33-.26,.52-.53,.52-.22,0-.44-.12-.5-.39m.95-.37c-.04-.07-.09-.13-.16-.17,.07,.04,.12,.1,.16,.17m-.24-.21s-.07-.03-.1-.03c.04,0,.07,.02,.1,.03"/><path class="cls-10" d="M28.26,118.82c-.57-1.37-.26-2.87-.18-4.28,.13-1.56,.16-3.21,.97-4.6,.17-.27,.32-.69,.64-.79,.54-.15,.89,.51,.49,.89-.83,1.22-.94,2.71-1.03,4.14-.06,.73-.13,1.45-.17,2.18,0-.02,0-.05,0-.07-.16,1.85,.34,3.32,2.43,3.49,.67,.01,.67,1.01,0,1.03-1.31-.05-2.64-.76-3.16-2"/><path class="cls-10" d="M31.27,120.3c0-.28,.23-.52,.51-.52,2.68-.01,.64-3.01,.13-4.26-.27-.67-.6-1.51-.69-2.29,.06-.11,.08-.23,.12-.35,.04-.13,.07-.26,.11-.4,.02-.07,.04-.14,.06-.22,.02-.02,.03-.04,.04-.07,.33-.09,.74,.16,.67,.6,.11,1.13,.56,2.2,1.06,3.21,.54,1.08,1.21,2.32,.72,3.54-.15,.38-.42,.72-.77,.93-.26,.14-.82,.33-1.27,.33-.37,0-.67-.13-.69-.51"/><path class="cls-10" d="M17.99,106.64c-.94-.24-.14-1.31,.3-1.63,.7-.61,1.6-.97,2.52-1.08,.87-.11,1.79-.05,2.6,.33,.62,.26,.21,1.22-.41,.94-1.37-.59-3.18-.29-4.23,.78-.21,.24-.32,.66-.68,.66-.03,0-.06,0-.09,0"/><path class="cls-10" d="M22.34,117.03c-.27-.07-.45-.37-.36-.63,.17-.53,.33-1.08,.44-1.63,.21-1.13,.27-2.29,.29-3.43,.01-.29-.08-.63,.12-.88,.22-.28,.69-.26,.87,.06,.13,.49,.02,1.05,.03,1.57-.05,.74-.25,4.96-1.26,4.96-.04,0-.08,0-.13-.02"/><path class="cls-10" d="M12.83,116.16c-.93-.33,0-1.54,.37-2.01,1.23-1.35,2.82-2.3,4.29-3.37,.57-.34,.77-1.05,1.33-1.38,.35-.11,.71,.18,.68,.49-.03,.38-.42,.63-.62,.94-.5,.71-1.27,1.06-1.93,1.57-.82,.66-1.74,1.18-2.49,1.92-.34,.34-.7,.68-.9,1.12-.1,.31-.24,.72-.6,.72-.04,0-.08,0-.13-.02"/><path class="cls-10" d="M21.01,114.06c-1.11-.57,.54-1.96-.99-2.41-.45-.18-.94-.36-1.43-.27-.49,.3-1.04-.39-.64-.8,1.13-.81,4.22,.41,3.79,2.07,.36-.45,.63-.96,.98-1.41,.4-.54,1.24,.04,.85,.59-.64,.79-1.19,2.24-2.35,2.24-.07,0-.14,0-.22-.02m-2.19-2.94c.04-.09,.04-.19,.03-.28,0-.02-.01-.04-.02-.06l-.02-.03c.05,.12,.05,.26,0,.38"/><path class="cls-10" d="M12.46,116.74c-.28-.43-.23-1.53,.42-1.59,.36-.02,.64,.36,.52,.68-.02,.08-.03,.16-.05,.24,0,.04-.01,.07-.01,.11,.85,.69,1.97,1.06,3.02,1.35,2.19,.03,4.09-1.36,6.11-2.04,.65-.3,1.07,.71,.39,.95-2.11,.73-4.09,2.11-6.39,2.13-1.15-.16-3.27-.93-4-1.84"/><path class="cls-10" d="M16.49,116.41c-.92-.13-2-.38-2.48-1.25-.24-.39-.38-1-.02-1.35,.34-.32,.85,.16,.56,.52,.03,1.02,1.33,1.25,2.15,1.34,.83,.06,1.66-.12,2.45-.37,.86-.28,1.67-.68,2.51-.98,.4-.09,1.12-.53,1.32,.04,.05,.19-.07,.42-.28,.46-.46,.08-.89,.25-1.32,.42-1.38,.58-2.83,1.2-4.35,1.2-.18,0-.36,0-.54-.03"/><path class="cls-10" d="M28.28,113.63c.14-1.15,1.71-2.12,2.83-1.85,.44,.11,.83,.4,1.05,.79,.33,.59-.55,1.1-.9,.52-.36-.62-1.19-.23-1.61,.13-.34,.23-.34,.79-.8,.85-.02,0-.04,0-.06,0-.25,0-.49-.19-.52-.45"/><path class="cls-10" d="M28.06,113.74c-.43-.89-.37-1.4,.08-2.26,.19-.39,.43-.76,.64-1.15,.08-.14,.14-.3,.29-.38,.48-.28,1,.31,.68,.75-.25,.59-1.04,1.52-.93,2.14,.08,.21,.18,.41,.24,.62,.09,.39-.21,.64-.52,.64-.21,0-.41-.11-.48-.38"/><path class="cls-10" d="M30.3,119.11c-.69-.35-1.88-1.11-2.06-1.89-.01-.33,.43-.5,.65-.26,.37,.63,1,1.08,1.64,1.42,.67,.33,1.53,.38,2.23,.14,.41-.05,.84-.65,1.19-.24,.44,.71-1.23,1.06-1.7,1.12-.15,.02-.29,.02-.44,.02-.52,0-1.05-.1-1.53-.32"/><path class="cls-10" d="M47.99,47.72h0s.01,.05,.01,.05v.04s.03,.04,.03,.04v.04s.03,.04,.03,.04v.04s.02,.04,.02,.04v.04s.02,.03,.02,.03v.03s.02,.03,.02,.03v.03s.02,.03,.02,.03v.03s.02,.03,.02,.03v.03s.02,.03,.02,.03v.03s.01,.03,.01,.03v.03s.01,.03,.01,.03v.03s.01,.03,.01,.03v.03s0,.03,0,.03v.03s0,.03,0,.03v.03s0,.03,0,.03v.03s0,.03,0,.03v.03s0,.03,0,.03v.03s0,.02,0,.02v.03s0,.02,0,.02v.05s0,.02,0,.02c-.1-.39-.18-.79-.26-1.19"/><path class="cls-10" d="M49.63,53.93c-.66-.1-1.34-.17-1.94-.47-.58-.24-.2-1.14,.38-.89,.39,.2,.81,.27,1.23,.33h0s.03,.04,.03,.04l.03,.03,.03,.03,.03,.03,.03,.03,.03,.03,.03,.03,.03,.03,.03,.03,.03,.03,.03,.03,.03,.03,.03,.03,.03,.03,.03,.03,.03,.03,.03,.03,.03,.03,.03,.03,.03,.03,.03,.02,.03,.02,.03,.02,.03,.02,.03,.02,.03,.02,.02,.02,.03,.02,.02,.02,.02,.02,.02,.02,.02,.02,.03,.02,.02,.02,.03,.02,.03,.02,.03,.02,.03,.02,.03,.02,.03,.02,.03,.02,.03,.02,.03,.02,.03,.02,.03,.03,.03,.03,.03,.03,.03,.03,.03,.03,.03,.02c-.37-.06-.73-.17-1.09-.25"/><path class="cls-10" d="M47.72,53.54c-.28-.1-.58-.17-.86-.28-.42-.15-.41-.8,0-.95,.39-.11,.79,.16,1.17,.25,.56,.2,.37,1-.16,1-.05,0-.1,0-.15-.02"/><path class="cls-10" d="M7.92,92.84c-.1-.02-.2-.03-.3-.04,.02-.14,.04-.27,.03-.37,.21-1.5,.49-2.99,.77-4.47,1.38-6.67,3.21-13.28,5.89-19.55,.22-.8,1.43-.37,.97,.37-2.56,5.91-4.26,12.16-5.66,18.43-.36,1.94-.76,3.88-1,5.84,0,.02,0,.04-.01,.07-.22-.11-.45-.22-.69-.27"/><path class="cls-10" d="M42.17,67.09c.05-.42,.61-.6,.9-.29,.04,.05,.08,.1,.11,.15-.11,.05-.21,.11-.31,.18-.2,.14-.38,.29-.54,.46-.09-.16-.18-.32-.16-.51"/><path class="cls-10" d="M35.19,101.03c-5.7-.53-10.41-4.55-16.1-5.09-2.73-.31-5.37,.62-8.06,.93-2.57,.42-3.8-1.79-3.39-4.07,.07-.49-.02-1.43,.75-1.26,.65,.25,.25,1.02,.27,1.52-.23,1.26,.3,2.98,1.86,2.82,2.9-.26,5.74-1.33,8.69-.96,7.02,.66,13.09,6.75,20.41,4.78,.99-.19,1.68-.61,2.18-1.2,.01,.07,.03,.13,.05,.19,0,.04,0,.09,.01,.13,.03,.3,.04,.62,.09,.92-1.43,1.07-3.41,1.33-5.27,1.33-.51,0-1-.02-1.48-.05"/><path class="cls-10" d="M13.56,57.51c0-.13,.01-.26,.02-.39h0s0-.02,0-.02h0s0-.03,0-.03h0s0-.03,0-.03h0s0-.02,0-.02h0s0-.03,0-.03h0c.16-.14,.36-.2,.59-.07,.23,.14,.33,.47,.18,.71-.3,.45-.61,.89-.95,1.32,.05-.48,.12-.96,.15-1.45"/><path class="cls-10" d="M14.32,56.04s.04,.02,.06,.02c-.06,.03-.12,.06-.19,.07,.04-.03,.09-.06,.13-.1"/><path class="cls-10" d="M13.47,67.78c-.4-3.79-.12-7.64,.27-11.42,.08,0,.15-.03,.22-.07,.07-.04,.12-.08,.18-.12,0,0-.01,0-.02,.01,0,0,0,0-.01,0,0,0,0,0,.01,0,.06-.05,.13-.1,.19-.14,.07,.03,.15,.05,.23,.06,.08,0,.16,0,.24-.03-.19,2.34-.47,4.67-.47,7.02,.02,1.52-.04,3.05,.17,4.55,.05,.37-.24,.57-.52,.57-.23,0-.46-.14-.51-.44"/><path class="cls-10" d="M42.82,56.66s-.08-.04-.12-.05c-.03-.1-.06-.2-.1-.3-.03-.07-.06-.13-.09-.19,.07-.05,.13-.11,.19-.17,.1-.11,.2-.23,.3-.34,.08,.03,.16,.06,.25,.1h0s0,.03,0,.03v.02s0,.02,0,.02v.02s0,.02,0,.02v.03s0,.02,0,.02v.03s0,.03,0,.03v.03s0,.03,0,.03v.03s0,.03,0,.03v.03s0,.03,0,.03v.03s0,.03,0,.03v.02s0,.02,0,.02v.02s0,.02,0,.02v.05s0,.02,0,.02v.02s0,.02,0,.02v.14s0,.02,0,.02v.02s0,.02,0,.02v.03s0,.02,0,.02v.02s0,.02,0,.02v.02s0,.02,0,.02v.02s0,.02,0,.02v.02s0,.02,0,.02v.02s0,.02,0,.02v.02s0,0,0,0c-.14-.07-.28-.15-.41-.23"/><path class="cls-10" d="M42.6,56.3c-.03-.07-.06-.13-.1-.19,.07-.05,.13-.11,.19-.17,.03-.03,.06-.07,.09-.1-.04,.19-.09,.39-.15,.56-.01-.03-.02-.06-.03-.1"/><path class="cls-10" d="M43.07,66.25c-.22,0-.42-.15-.49-.35,.03,0,.07,.01,.1,.02,.04,0,.09,0,.13,0,.18,0,.36-.04,.53-.11,.07-.03,.14-.06,.2-.09l.04-.02v.04c0,.28-.24,.51-.52,.51h0Z"/><path class="cls-10" d="M27.66,71.1c-3.57-.1-7.21-.1-10.65-1.18-1.2-.35-2.35-.87-3.4-1.54-.63-.58,.15-1.33,.88-.67,3.79,2.19,8.31,2.22,12.56,2.34,3.81,.25,7.72-.23,11.31-1.52,1.49-.7,3.12-1.33,4.26-2.56,.01-.02,.03-.04,.05-.06,0,0,0,0,.01,0,.04,0,.09,0,.13,0,.18,0,.36-.04,.53-.11,.02,0,.04-.02,.06-.03,.25,.21,.31,.68-.2,1.08-.08,.07-.16,.14-.24,.21-.03,.02-.07,.04-.1,.06-.16,.11-.3,.23-.44,.36-3.55,2.63-8.87,3.64-13.34,3.64-.49,0-.98-.01-1.45-.04"/><path class="cls-10" d="M42.51,65.99c-.13-4.29-.32-8.59-1.09-12.81-.03-.68,1.03-.71,1.04-.02,.7,3.79,.91,7.63,1.03,11.47,.02,.44,.03,.87,.05,1.31,.01,.35-.26,.53-.52,.53-.25,0-.49-.16-.51-.48"/><path class="cls-10" d="M41.74,53.44c-.52-.4,0-.99,.22-1.41,.28-.5,.56-1,.8-1.52,.19-.41,.36-.83,.51-1.25,.23-.63,1.21-.27,.97,.36-.43,1.22-1.05,2.35-1.69,3.47-.03,.26-.28,.45-.53,.45-.1,0-.2-.03-.28-.09"/><path class="cls-10" d="M13.84,58.57c-.25-.09-.32-.27-.33-.48,.02-.15,.03-.3,.04-.45,.01-.1,.03-.19,.02-.28,.01-.16,.03-.31,.04-.47h0s0-.02,0-.02h0s0-.02,0-.02h0s0-.02,0-.02h0s0-.02,0-.02h0s0-.02,0-.02h0s0-.02,0-.02h0s0-.02,0-.02h0s0-.02,0-.02h0s0-.03,0-.03h0s0-.03,0-.03h0s0-.03,0-.03h0v-.03h0v-.05c.07-.77,.13-1.53,.16-2.3,.01-.28,.29-.49,.56-.47,.79,.15,.35,1.18,.4,1.74-.04,.6-.1,1.19-.15,1.79-.03,.46,0,1.31-.58,1.31-.06,0-.13,0-.2-.03"/><path class="cls-10" d="M13.99,54.87c-.37-.65-2.68-4.77-1.52-5.02,.26-.1,.57,.07,.65,.33,.32,1.47,.99,2.83,1.74,4.13,.26,.39-.1,.79-.47,.79-.15,0-.3-.07-.4-.23m-1.17-4.05c.13-.05,.24-.15,.29-.28-.06,.12-.16,.22-.29,.28"/><path class="cls-10" d="M23.51,56.71c-1.69-.56-1.38-2.74-.97-4.08,.6-1.95,1.77-3.68,3.15-5.18,.49-.51,2.8-2.94,3.12-1.4,0,.26-.2,.45-.43,.52-.38,.19-.73,.45-1.05,.73-1.3,1.18-2.41,2.58-3.2,4.15-.5,.76-1.8,4.98,.25,4.14,1.75-1.21,2.62-3.8,3.03-5.8h0c.08-.38,.15-.75,.21-1.14,.1-.66,1.11-.53,1.03,.14-.2,1.2-.4,2.28-.8,3.41-.67,1.62-1.91,4.53-3.98,4.53-.11,0-.23,0-.35-.03"/><path class="cls-10" d="M27.4,49.8s0,0,0,.01c0,0,0,0,0-.01"/><path class="cls-10" d="M27.4,49.79s0,0,0,0c0,0,0,0,0,.01,0,0,0-.01,0-.01"/><path class="cls-10" d="M30.76,56.74c-2.57-.8-2.97-5.79-2.98-8.08,.02-.67,1.02-.68,1.04,0,0,1.7,.22,3.44,.73,5.07,1.08,3.25,3.41,2.45,2.97-.79-.09-1.9-.78-3.78-1.98-5.25-.56-.56-1.44-1.49-2.31-1.25-.59,.26-1.01-.62-.46-.92,.98-.47,2.04,.15,2.8,.77,1.08,.88,1.79,2.13,2.32,3.4,.58,1.51,1.04,4.24,.43,5.76-.34,.79-1.12,1.4-1.97,1.4-.19,0-.38-.03-.57-.09"/><path class="cls-10" d="M25.05,65.67c-.81-.2-1.27-.74-1.08-1.59,.09-.65,.19-1.29,.26-1.94,.28-2.97,1.07-5.87,2.07-8.67,.18-.49,.31-1.01,.53-1.49,.32-.55,1.18-.12,.92,.46-.35,.93-.65,1.88-.98,2.82-1.05,3-1.46,6.12-1.82,9.25,.36,.24,.84,.26,1.26,.27,.68,.01,.68,1.01,0,1.03-.03,0-.07,0-.1,0-.36,0-.73-.05-1.08-.15"/><path class="cls-10" d="M26.24,65.37c-.08-4.81,.46-9.66,1.44-14.37,.25-.59,1.16-.26,.98,.34-.05,.14-.07,.28-.09,.36-.56,2.95-.96,5.97-1.18,8.95-.1,1.53-.16,3.06-.13,4.59,.05,.37-.24,.57-.53,.57-.23,0-.46-.14-.5-.43"/><path class="cls-10" d="M29.59,65.11c-.88-3.02-1.38-6.16-1.63-9.29-.08-1.08-.12-2.16-.18-3.24-.09-.29-.06-.66,.23-.83,.24-.15,.57-.05,.71,.18,.12,.23,.08,.51,.1,.76,.12,2.68,.31,5.36,.82,8,.25,1.4,.52,2.79,.95,4.15,.11,.39-.21,.64-.52,.64-.2,0-.4-.11-.48-.37"/><path class="cls-10" d="M32.3,64.64c-.76-1.66-1.29-3.38-1.82-5.12-.29-.94-.58-1.88-.82-2.83-.07-.48-.43-1.05-.24-1.51,.21-.39,.85-.31,.95,.12,.08,.34,.17,.67,.26,1,.49,1.85,1.08,3.77,1.68,5.58,.28,.8,.59,1.59,.94,2.36,.17,.4-.17,.71-.5,.71-.18,0-.36-.09-.46-.31"/><path class="cls-10" d="M30.09,64.52c.85,0,1.74,0,2.54-.3,.25-.13,.56-.06,.71,.19,.55,1.21-2.58,1.12-3.27,1.15-.65-.05-.64-1.02,.03-1.03"/><path class="cls-10" d="M13.56,57.51c.02-.26,.02-.52,.02-.78h0c.01-.06,.02-.11,.03-.16,.06-.09,.13-.17,.21-.23h0s0,.02,0,.02h0s0,.02,0,.02h0s0,.03,0,.03h0s0,.03,0,.03h0s0,.03,0,.03h0s0,.03,0,.03h0s0,.03,0,.03h0s0,.02,0,.02h0s0,.03,0,.03h0s0,.03,0,.03h0s0,.03,0,.03h0s0,.03,0,.03h0s0,.03,0,.03h0s0,.03,0,.03h0s0,.03,0,.03h0s0,.03,0,.03h0s0,.03,0,.03h0s0,.03,0,.03h0s0,.03,0,.03h0s0,.03,0,.03h0s0,.03,0,.03h0s0,.03,0,.03h0s0,.03,0,.03h0s0,.03,0,.03h0s0,.03,0,.03h0s0,.03,0,.03h0s0,.03,0,.03h0s0,.03,0,.03h0s0,.03,0,.03h0s0,.03,0,.03h0s0,.03,0,.03h0v.04s0,.01,0,.01h0s0,.03,0,.03h0s0,.03,0,.03h0s0,.03,0,.03v.02h0s0,.03,0,.03h0s0,.03,0,.03h0s0,.03,0,.03v.02s0,.01,0,.01h0s0,.03,0,.03v.02s0,.02,0,.02h0s0,.03,0,.03h0s0,.03,0,.03v.02s0,.01,0,.01v.02s0,.02,0,.02v.02s0,.02,0,.02h0s0,.03,0,.03v.02s0,.01,0,.01v.02s0,.01,0,.01h0s0,.03,0,.03h0v.03h0s0,.03,0,.03h0v.03h0s0,.03,0,.03h0s0,.02,0,.02h0v.02h0s0,.02,0,.02h0v.02h0v.02h0s0,.02,0,.02h0s0,.02,0,.02h0s0,.02,0,.02h0s0,.02,0,.02h0s0,.02,0,.02h0s0,.02,0,.02h0s0,.02,0,.02h0s0,.02,0,.02h0s0,.02,0,.02h0s0,.02,0,.02h0s0,.02,0,.02h0s0,.02,0,.02h0s0,.02,0,.02h0s0,.02,0,.02h0s0,.02,0,.02c-.04,.05-.09,.1-.13,.16,.04-.33,.08-.66,.1-1"/><path class="cls-10" d="M13.87,55.89v.02s0,.02,0,.02v.02s0,.01,0,.01h0v.03h0s0,.03,0,.03h0s0,.03,0,.03h0s0,.02,0,.02h0s0,.03,0,.03h0s0,.02,0,.02h0s0,.02,0,.02h0s0,.02,0,.02h0s0,.02,0,.02h0s0,.02,0,.02h0s0,.02,0,.02h0c.01-.11,.02-.22,.03-.34"/><path class="cls-10" d="M46.51,41.81c-.16-.34-.31-.69-.48-1.03,0,.02,.02,.03,.02,.05-.65-1.39-1.76-2.51-3.02-3.36-.51-.34-1.08-.6-1.66-.8-.48-.22-1.41-.09-1.35-.83,.04-.36,.49-.57,.79-.36,.86,.14,1.69,.5,2.45,.92,.92,.56,1.75,1.27,2.47,2.07,.33,.37,.61,.76,.86,1.17h0s0,.05,0,.05v.04s.01,.04,.01,.04v.04s.01,.04,.01,.04v.04s.01,.04,.01,.04v.04s.01,.04,.01,.04v.04s.01,.04,.01,.04v.04s.01,.04,.01,.04v.04s.01,.04,.01,.04v.04s.01,.04,.01,.04v.03s.01,.04,.01,.04v.03s.01,.04,.01,.04v.04s.01,.04,.01,.04v.04s0,.04,0,.04v.04s0,.04,0,.04v.04s0,.04,0,.04v.04s0,.04,0,.04v.04s0,.04,0,.04v.04s0,.04,0,.04v.04s0,.04,0,.04v.04s0,.04,0,.04v.03s0,.04,0,.04v.03s0,.03,0,.03v.03s0,.03,0,.03v.03s0,.03,0,.03v.03s0,.03,0,.03v.03s0,.03,0,.03v.03s0,.03,0,.03v.03s0,.03,0,.03v.03s0,.03,0,.03v.03s0,.03,0,.03v.03s0,.03,0,.03v.03s0,.03,0,.03v.03s0,.03,0,.03v.03s0,.03,0,.03v.03s0,.03,0,.03v.03s0,.03,0,.03v.03s0,.03,0,.03v.07s0,.02,0,.02v.07s0,.02,0,.02v.05s0,.02,0,.02v.02s0,.02,0,.02v.04s0,.02,0,.02v.02s0,.02,0,.02v.02s0,.01,0,.01c-.12-.26-.24-.51-.36-.77"/><path class="cls-10" d="M29.94,46.77c-.57,.09-.86-.22-.87-.52,0-.31,.28-.62,.86-.51,2.26,.28,4.55,.04,6.78-.39,3.41-.66,6.68-1.87,9.67-3.62,.16-.09,.32-.09,.45-.03v.02s0,.03,0,.03v.03s0,.03,0,.03v.03s0,.03,0,.03v.03s0,.03,0,.03v.03s0,.03,0,.03v.03s0,.03,0,.03v.03s0,.03,0,.03v.03s0,.03,0,.03v.07s0,.02,0,.02v.07s0,.02,0,.02v.05s0,.02,0,.02v.02s0,.02,0,.02v.06s0,.02,0,.02v.05s0,.02,0,.02v.03s0,.01,0,.01h0c-4.49,2.54-9.66,4.22-14.86,4.22-.68,0-1.37-.03-2.06-.09"/><path class="cls-10" d="M25.83,47.14h0s0,0,0,0h0s0,0,0,0h0s0,0,0,0h0s0,0,0,0h0s0,0,0,0h0s0,0,0,0h0s0,0,0,0h0s0,0,0,0h0s0,0,0,0h0s0,0,0,0h0s0,0,0,0h0s0,0,0,0h0s0,0,0,0h0s0,0,0,0h0s0-.01,0-.01h0s0-.01,0-.01h0s0-.01,0-.01h0s0-.01,0-.01h0s0-.01,0-.01h0s0-.01,0-.01h0s0-.01,0-.01h0s0-.01,0-.01h0s0-.01,0-.01h0s0,0,0,0h0s0-.01,0-.01h0s0,0,0,0h0s0,0,0,0h0s0,0,0,0h0s0,0,0,0h0s0,0,0,0h0s0,0,0,0h0s0,0,0,0h0s0,0,0,0h0s0,0,0,0h0s0,0,0,0h0s0,0,0,0h0s0,0,0,0h0s0,0,0,0h0s0,0,0,0h0s0,0,0,0h0s0,0,0,0h0s0,0,0,0h0s0-.01,0-.01h0s0-.01,0-.01h0s0-.01,0-.01h0s0-.01,0-.01h0s0-.01,0-.01h0s0-.01,0-.01h0s0-.01,0-.01h0s0-.01,0-.01h0s0-.01,0-.01h0s0-.02,0-.02h0s0-.02,0-.02h0s0-.02,0-.02h0s0-.02,0-.02h0s0-.02,0-.02h0s.01-.02,.01-.02h0s0-.02,0-.02h0s.01-.02,.01-.02h0s0-.02,0-.02h0s0-.02,0-.02h0s0-.02,0-.02h0s0-.02,0-.02h0s0-.02,0-.02h0s0-.02,0-.02h0s0-.02,0-.02h0s0-.02,0-.02h0s0-.02,0-.02h0s0-.02,0-.02h.01s0-.02,0-.02h.01s0-.02,0-.02h.01s.01-.02,.01-.02h0s.01-.02,.01-.02h.01s.01-.02,.01-.02h0s.01-.02,.01-.02h.01s0-.02,0-.02h.01s0-.02,0-.02h0s.01-.02,.01-.02h.01s0-.02,0-.02h.01s.01-.02,.01-.02h.01s.01-.02,.01-.02h0s.01-.02,.01-.02h.01s0-.02,0-.02h0s.01-.02,.01-.02h0s0-.01,0-.01h.01s0-.01,0-.01h0s.01-.01,.01-.01h0c.6-.03,1.56-.75,1.88,.04,.22,.67-1.36,1.02-3.11,1.2h0Z"/><path class="cls-10" d="M46.79,58.27c-.18-.02-.35-.13-.41-.36-.49-2.26-.26-4.61,.21-6.85,.32-1.28,.56-2.69,1.18-3.88h0s.01,.05,.01,.05v.03s.03,.03,.03,.03l.02,.03v.04s.03,.03,.03,.03l.02,.04v.04s.03,.04,.03,.04l.02,.04v.04s.03,.04,.03,.04v.04s.03,.04,.03,.04v.04s.03,.04,.03,.04v.04s.03,.04,.03,.04v.04s.03,.04,.03,.04v.04s.02,.04,.02,.04v.03s.02,.04,.02,.04v.03s.02,.03,.02,.03v.03s.02,.03,.02,.03v.03s.02,.03,.02,.03v.03s.02,.03,.02,.03v.03s.01,.03,.01,.03v.03s.01,.03,.01,.03v.03s.01,.03,.01,.03v.03s0,.03,0,.03v.03s0,.03,0,.03v.03s0,.03,0,.03v.03s0,.03,0,.03v.03s0,.03,0,.03v.03s0,.03,0,.03v.02c-.64,1.84-.94,3.8-1.09,5.73-.04,1.03,0,2.07,.22,3.08,.12,.39-.21,.65-.53,.65-.02,0-.04,0-.06,0"/><path class="cls-10" d="M49.51,54.94c-.28-.03-.49-.29-.46-.57,.03-.28,.29-.48,.57-.45,.28,.03,.49,.29,.46,.57-.03,.26-.26,.46-.52,.46-.02,0-.04,0-.06,0"/><path class="cls-10" d="M47.31,58.45c-.12-.01-.23-.07-.35-.19-.26-.33,0-.67,.26-.89,.4-.48,.73-1.03,1.06-1.56,.36-.61,.66-1.1,.88-1.73,.18-.48,.93-.4,1,.11-.23,1.17-1.05,2.19-1.67,3.2-.26,.35-.67,1.06-1.13,1.06-.02,0-.03,0-.05,0"/><path class="cls-10" d="M47.06,58.51s-.1-.02-.15-.04c-1.56-.56-3.1-1.38-4.45-2.31h0s0-.02,0-.02v-.02s0-.02,0-.02v-.05s0-.02,0-.02v-.07s0-.02,0-.02v-.02s0-.03,0-.03v-.02s0-.02,0-.02v-.02s0-.02,0-.02v-.02s0-.02,0-.02v-.02s0-.02,0-.02v-.02s0-.02,0-.02v-.02s0-.02,0-.02v-.02s0-.02,0-.02v-.02s0-.02,0-.02v-.02s0-.02,0-.02v-.02s0-.03,0-.03v-.03s.01-.03,.01-.03v-.03s.01-.03,.01-.03v-.03s.01-.03,.01-.03v-.03s.01-.03,.01-.03v-.02s.01-.02,.01-.02v-.02s.01-.02,.01-.02v-.02s.01-.02,.01-.02v-.02s.01-.02,.01-.02h0c.44,.27,.9,.69,1.18,.82,1.09,.72,2.29,1.24,3.51,1.71,.56,.22,.32,1-.18,1-.02,0-.04,0-.06,0"/><path class="cls-10" d="M28.07,46.03c-.13-.17-.26-.35-.38-.54h0s0-.01,0-.01h0s0-.01,0-.01h0s0-.01,0-.01h0s0-.02,0-.02h0v-.02h0s0-.01,0-.01h0v-.02h0s0-.02,0-.02h0s0-.02,0-.02h0s0-.02,0-.02h0s0-.02,0-.02h0s0-.02,0-.02h0s0-.02,0-.02h0s0-.02,0-.02h0s0-.02,0-.02h0s0-.02,0-.02h0s0-.02,0-.02h0s0-.02,0-.02h0s0-.02,0-.02h0s0-.02,0-.02h0s0-.02,0-.02h0s0-.02,0-.02h0s0-.02,0-.02h0s0-.02,0-.02h0s0-.02,0-.02h0s-.01-.02-.01-.02h0s-.01-.02-.01-.02h-.01s-.01-.02-.01-.02h-.01s-.01-.02-.01-.02h-.01s-.01-.02-.01-.02h-.01s-.01-.02-.01-.02h-.01s-.01-.02-.01-.02h-.01s-.01-.02-.01-.02h-.01s-.01-.02-.01-.02h-.01s-.01-.02-.01-.02h-.01s-.01-.02-.01-.02h-.01s-.01-.02-.01-.02h-.01s-.01-.02-.01-.02h0c-1.79-2.7-3.44-6.02-3.79-9.09,.12-.59,1.08-.46,1.02,.15,.38,2.07,1.16,3.92,2.08,5.78,.69,1.31,1.48,2.57,2.36,3.76,.3,.39-.05,.84-.43,.84-.13,0-.27-.06-.39-.2"/><path class="cls-10" d="M28.45,45.88c-.56-.43,.15-1.05,.35-1.45,1.08-1.77,2.08-3.59,2.93-5.49,.55-1.16,.86-2.37,1.29-3.53,.35-.51,1.14-.02,.9,.5-.72,2.53-1.85,4.92-3.15,7.2-.5,.9-1.02,1.79-1.59,2.65-.09,.14-.26,.21-.42,.21-.11,0-.21-.03-.3-.09"/><path class="cls-10" d="M26.94,39.18c-.89-.1-2.28-.14-3-.67-.33-.42,.19-1.02,.65-.76,1.02,.32,2.08,.41,3.14,.44,1.43,.03,2.86-.14,4.24-.45,.37-.12,.9-.25,1.05,.24,.08,.26-.07,.57-.35,.64-1.5,.4-3.06,.59-4.62,.59-.37,0-.75-.01-1.12-.03"/><path class="cls-10" d="M29.51,44.44c.85,.02,1.71-.08,2.56-.16,4.79-.51,10.09-.95,13.84-4.27,.33-.37,.91,.13,.57,.51-4.22,3.86-11.42,4.34-16.93,4.68,0,0-.01,0-.02,0-.48,0-.51-.74-.02-.76"/><path class="cls-10" d="M27.83,45.44s-.09,0-.13,0h0v-.02h0v-.02h0s0-.02,0-.02h0s0-.02,0-.02h0s0-.02,0-.02h0s0-.02,0-.02h0s0-.02,0-.02h0s0-.02,0-.02h0s0-.02,0-.02h0s0-.02,0-.02h0s0-.02,0-.02h0s0-.02,0-.02h0s0-.02,0-.02h0s0-.02,0-.02h0s0-.02,0-.02h0s0-.02,0-.02h0s0-.02,0-.02h0s0-.02,0-.02h0s0-.02,0-.02h-.01s0-.02,0-.02h0s0-.02,0-.02h-.01s-.01-.02-.01-.02h-.01s-.01-.02-.01-.02h-.01s-.01-.02-.01-.02h-.01s-.01-.02-.01-.02h-.01s-.01-.02-.01-.02h-.01s-.01-.02-.01-.02h-.01s-.01-.02-.01-.02h-.01s-.01-.02-.01-.02h-.01s-.01-.02-.01-.02h-.01s-.01-.02-.01-.02h-.01s-.01-.02-.01-.02h-.01s-.01-.02-.01-.02h-.01s-.01-.02-.01-.02h-.01s-.01-.02-.01-.02h-.01s-.01-.02-.01-.02h-.01s-.01-.02-.01-.02h-.02s-.02-.02-.02-.02h-.02s-.02-.03-.02-.03h-.02s0-.02,0-.02c.3,0,.59,.02,.88,.04,.48,.05,.43,.76-.03,.76-.01,0-.03,0-.04,0"/><path class="cls-10" d="M14.51,92.97c-.21-.01-.37-.2-.36-.4,.07-1.3,.19-2.6,.36-3.88,.59-4.58,1.6-9.08,2.71-13.56,.43-1.76,.87-3.51,1.36-5.25,.04-.47,.8-.42,.76,.07-1.3,4.92-2.57,9.87-3.46,14.89-.45,2.58-.83,5.17-.97,7.78-.01,.2-.18,.36-.38,.36,0,0-.02,0-.02,0"/><path class="cls-10" d="M21.15,93.31c.02-1.39,.05-2.78,.08-4.17,.09-5.09,.22-10.19,.92-15.24,.17-1.18,.27-2.37,.51-3.54,.35-.54,.91-.05,.68,.48-.88,5.64-1.25,11.33-1.32,17.03-.03,1.39-.05,2.78-.08,4.17-.12,.5,.29,1.62-.43,1.68-.22-.01-.36-.2-.36-.4"/><path class="cls-10" d="M27.7,94.5c-.08-7.87-.76-15.76-.34-23.63-.08-.58,.76-.76,.78-.13-.45,6.63,.13,13.27,.24,19.9,.02,1.27,.03,2.54,.09,3.8,.02,.26-.19,.4-.39,.4-.18,0-.35-.11-.37-.34"/><path class="cls-10" d="M34.2,95.75c-.57-8.42-1.51-16.81-2.24-25.22-.06-.37,.48-.6,.7-.26,.18,.73,.14,1.52,.25,2.27,.37,3.95,.76,7.89,1.12,11.84,.26,3.04,.54,6.08,.79,9.12-.06,.55,.49,2.58-.21,2.6,0,0-.02,0-.03,0-.19,0-.37-.15-.38-.35"/><path class="cls-10" d="M39.62,96.79c-.2-.01-.38-.2-.36-.4,.28-2.19,.38-4.48,.38-6.66-.04-4.46-.39-8.92-.98-13.35-.31-2.13-.68-4.28-1.33-6.33-.45-.72,.42-1.21,.63-.48,0-.03,0-.06-.02-.1,1.98,6.51,2.27,13.44,2.47,20.2-.06,.79,.05,7.13-.73,7.13-.02,0-.04,0-.06-.01"/><path class="cls-10" d="M43.06,74.38c-.43-2.29-1.12-4.52-1.67-6.78-.02-.63,.96-.67,1.03-.08,1.22,4.26,2.1,8.6,2.83,12.96,.65,4.02,1.39,8.1,.97,12.19-.01,.22-.06,.61-.15,1.09-.03,0-.06-.01-.09-.02-.18-.03-.37-.01-.55,0-.14,.01-.28,.03-.42,.06,.98-6.5-.87-13.05-1.95-19.43"/><path class="cls-10" d="M41.1,100.19c-.45-.03-.63-.66-.26-.92,.46-.3,.92-.61,1.33-.98,1.32-1.14,2.27-2.64,2.78-4.3,.14-.41,.19-1.13,.81-1,.27,.06,.45,.35,.38,.62-.2,.77-.47,1.53-.82,2.25-.66,1.39-1.68,2.6-2.89,3.56-.31,.25-.64,.46-.97,.68-.09,.06-.19,.1-.3,.1-.02,0-.04,0-.05,0"/><path class="cls-10" d="M48.43,50.28c-.16-.45-.29-.91-.4-1.37v-.04s0-.02,0-.02v-.02s0-.03,0-.03v-.02s0-.03,0-.03v-.03s0-.03,0-.03v-.03s0-.03,0-.03v-.03s0-.03,0-.03v-.03s0-.03,0-.03v-.03s0-.03,0-.03v-.03s-.01-.03-.01-.03v-.03s-.01-.03-.01-.03v-.03s-.01-.03-.01-.03v-.03s-.01-.03-.01-.03v-.03s-.02-.03-.02-.03v-.03s-.02-.03-.02-.03v-.03s-.02-.03-.02-.03v-.03s-.02-.03-.02-.03v-.04s-.02-.04-.02-.04v-.04s-.03-.04-.03-.04v-.04s-.03-.04-.03-.04v-.04s-.02-.01-.02-.01c-.23-1.18-.41-2.38-.69-3.54-.13-1.47-.51-2.91-.6-4.39-.07-.91-.16-1.82-.23-2.73h.04s.05,0,.05,0h.05s.05,0,.05,0h.05s.05,0,.05,0h.05s.05,0,.05,0h.05s.05,0,.05,0h.05s.05,0,.05,0h.05s.04,0,.04,0h.05s.05,0,.05,0h.04s.04,0,.04,0h.04s.04,0,.04,0h.04s.04,0,.04,0h0c.06,.88,.11,1.76,.21,2.63,.13,1.56,.48,3.09,.65,4.65,.47,1.77,.58,3.65,1.18,5.37,.28,.45-.05,.88-.4,.88-.17,0-.35-.1-.45-.36"/><path class="cls-10" d="M50.5,54.17l-.03-.02-.03-.03-.03-.03-.03-.03-.03-.03-.03-.03-.03-.02-.03-.02-.03-.02-.03-.02-.03-.02-.03-.02-.03-.02-.03-.02-.03-.02-.03-.02-.03-.02-.02-.02-.02-.02-.02-.02-.03-.02-.02-.02-.03-.02-.02-.02-.03-.02-.03-.02-.03-.02-.03-.02-.03-.02-.03-.02-.03-.02-.03-.03-.03-.03-.03-.03-.03-.03-.03-.03-.03-.03-.03-.03-.03-.03-.03-.03-.03-.03-.03-.03-.03-.03-.03-.03-.03-.03-.03-.03-.03-.03-.03-.03-.03-.03-.03-.03h0c.19,.03,.39,.05,.58,.09,1.11,.33,2.33,.35,3.42-.03,1.1-.77,2.03-2.94,2.27-4.24,.48-2.6-.99-4.99-1.88-7.35-.48-1.42-1.23-2.72-1.73-4.13,0-.03-.02-.05-.03-.08h.02s.07,0,.07,0h.07s.06-.01,.06-.01h.06s.06-.01,.06-.01h.06s.06,0,.06,0h.06s.06,0,.06,0h.06s.05,0,.05,0h.11s.05,0,.05,0h.05s.06,0,.06,0h.06s.02,0,.02,0c.86,2.04,1.74,4.07,2.56,6.13,.91,2.17,1.5,4.11,.83,6.45-.58,1.5-1.21,3.21-2.62,4.13-.81,.34-1.72,.37-2.59,.39-.15,0-.29-.02-.43-.05"/><path class="cls-10" d="M46.69,42.69s-.03-.07-.05-.11h0s0-.03,0-.03v-.02s0-.02,0-.02v-.04s0-.02,0-.02v-.02s0-.02,0-.02v-.05s0-.02,0-.02v-.17s0-.02,0-.02v-.05s0-.03,0-.03v-.05s0-.03,0-.03v-.03s0-.03,0-.03v-.03s0-.03,0-.03v-.03s0-.03,0-.03v-.03s0-.03,0-.03v-.03s0-.03,0-.03v-.03s0-.03,0-.03v-.03s0-.03,0-.03v-.03s0-.03,0-.03v-.03s0-.03,0-.03v-.03s0-.03,0-.03v-.03s0-.03,0-.03v-.03s0-.03,0-.03v-.03s0-.03,0-.03v-.03s0-.04,0-.04v-.04s0-.04,0-.04v-.04s0-.04,0-.04v-.04s0-.04,0-.04v-.04s0-.04,0-.04v-.04s0-.04,0-.04v-.04s0-.04,0-.04v-.04s0-.04,0-.04v-.04s-.01-.04-.01-.04v-.04s-.01-.04-.01-.04v-.04s-.01-.03-.01-.03v-.03s-.01-.04-.01-.04v-.04s-.01-.04-.01-.04v-.04s-.01-.04-.01-.04v-.04s-.01-.04-.01-.04v-.04s-.01-.04-.01-.04v-.04s-.01-.04-.01-.04v-.04s-.01-.04-.01-.04v-.04s-.01-.04-.01-.04v-.04s-.01-.04-.01-.04v-.03s0,0,0,0c.5,.84,.87,1.76,1.29,2.65,.17,.4-.17,.71-.51,.71-.18,0-.36-.09-.45-.31"/><path class="cls-10" d="M46.64,42.65h0v-.05s0-.02,0-.02v-.05s0-.02,0-.02v-.02s0-.02,0-.02v-.02s0-.02,0-.02v-.07s0-.02,0-.02v-.17s0-.02,0-.02v-.05s0-.03,0-.03v-.03s0-.03,0-.03v-.03s0-.03,0-.03v-.03s0-.03,0-.03v-.03s0-.03,0-.03v-.03s0-.03,0-.03v-.03s0-.03,0-.03v-.02c.33,.15,.49,.68,.07,.92-.02,0-.03,.02-.05,.03h0Z"/><path class="cls-10" d="M48.03,48.8v-.02s0-.03,0-.03v-.03s0-.03,0-.03v-.03s0-.03,0-.03v-.03s0-.03,0-.03v-.03s0-.03,0-.03v-.03s-.01-.03-.01-.03v-.03s-.01-.03-.01-.03v-.03s-.01-.03-.01-.03v-.03s-.01-.03-.01-.03v-.03s-.01-.03-.01-.03v-.03s-.02-.03-.02-.03v-.03s-.02-.03-.02-.03v-.03s-.02-.03-.02-.03v-.03s-.02-.03-.02-.03v-.04s-.02-.04-.02-.04v-.04s-.03-.04-.03-.04v-.04s-.03-.04-.03-.04v-.04s-.03-.04-.03-.04v-.04s-.03-.04-.03-.04l-.02-.04v-.04s-.03-.04-.03-.04v-.04s-.03-.03-.03-.03l-.02-.04v-.03s-.03-.03-.03-.03v-.03s-.03-.03-.03-.03v-.03s-.03-.03-.03-.03h0c.15-.29,.32-.56,.51-.81,.03-.02,.06-.03,.08-.04,0,.04,.01,.07,.02,.11,.05,.26,.12,.51,.18,.77,.04,.15,.08,.3,.12,.45-.17,.38-.31,.76-.45,1.15v-.02Z"/><path class="cls-10" d="M40.07,36.35c-.84-.1-.58-1.2,.24-1.02,.84,0,.75,1.04-.04,1.04-.06,0-.13,0-.2-.02"/><path class="cls-10" d="M36.49,35.88c-.82-.1-1.65-.1-2.48-.03-.28,.02-.53-.22-.54-.49-.02-.29,.21-.52,.49-.54,.61-.02,2.61-.18,3.01,.21,.3,.33,.02,.86-.4,.86-.03,0-.06,0-.09,0"/><path class="cls-10" d="M23.42,34.99c.11,.1,.18,.23,.16,.41-.01,.14-.09,.27-.2,.36,.02-.26,.03-.51,.03-.77"/><path class="cls-10" d="M45.26,36.23c-.18-.14-.41-.19-.63-.26-.26-.1-.49-.25-.76-.31-.5-.1-1.07,.05-1.51-.27-.39-.26-.62-.72-.59-1.19,.06-.67-.04-1.43,.35-2,1.19-1.37,2.89-1.28,3.48-3.34,.3-.8,.56-1.61,.88-2.4,.21-.7,.29-1.45,.63-2.11,.25-.58,1.81-1.25,1.91-.29-.03,.73-1.05,.29-1.16,1.01-.16,.44-.26,.89-.35,1.34-.22,.73-.53,1.44-.77,2.17-.48,1.61-1.26,2.7-2.82,3.43-.4,.23-.88,.48-1.08,.9-.02,.47-.24,1.21,0,1.62,.16,.15,.37,.14,.59,.13,.14,0,.28,0,.41,.03,.45,.04,.78,.23,1.14,.39,.22,.07,.45,.13,.65,.25,.4-.28,.52-.8,.4-1.25-.34-.27-.71-.56-1.15-.66-.78-.16-.55-1.67,1.19-.51,.77,.47,1.08,.91,.95,1.83-.04,.63-.69,1.61-1.39,1.61-.13,0-.26-.03-.38-.1"/><path class="cls-10" d="M49.01,28.05c-.64-.18-1.64-1.82-.54-1.97,.61,0,.41,.83,.87,1.05,.79-.06,.83-.5,.7-1.17-.11-.52,.01-1.75-.81-1.59-.32,.08-.63,.21-.96,.26-.57,0-.67-.82-.12-.95,1.29-.48,2.41-.44,2.71,1.12,.1,.42,.12,.84,.17,1.27,.05,.34,.11,.71-.07,1.03-.23,.62-.93,.99-1.59,.99-.13,0-.25-.01-.37-.04"/><path class="cls-10" d="M52.35,29.59c-.93-.22-1.61-1.26-1.26-2.17,.14-.39,.75-.38,.9,0,.1,.24-.07,.48,.01,.72,.14,.4,.66,.66,1.03,.37,.05-.88,.21-1.75,.22-2.63-.36-.28-.82-.52-1.24-.63-.2,.43-.5,.8-.68,1.24-.25,.35-.3,1-.82,1.03-.27,0-.49-.22-.49-.48,0-.21,.14-.37,.21-.56,.27-.56,.59-1.1,.9-1.65,.39-.76,1.22-.59,1.82-.23,.39,.14,.72,.39,1.05,.64,.47,.6,.12,1.54,.08,2.24-.02,1.28-.11,2.14-1.54,2.14-.06,0-.13,0-.19,0"/><path class="cls-10" d="M54.52,31.42c-.53-.21-.99-.66-.99-1.25-.06-.44-.08-.92,.23-1.28-.47,.41-1.1-.28-.66-.72,.55-.32,2.03-1.75,2.6-1.17,.52,.81,1.78,1.63,1.25,2.72-.31,.42-.74,.72-1.05,1.15-.28,.36-.56,.65-.96,.65-.13,0-.27-.03-.42-.1m0-1.94c-.14,.22-.02,.52,0,.76,.06,.14,.24,.22,.38,.29,.39-.44,.76-.89,1.19-1.29,.03-.16-.09-.27-.18-.39-.21-.34-.49-.62-.75-.91-.37,.23-.75,.46-1.09,.73,.04,0,.08-.01,.12-.01,.4,0,.65,.52,.34,.83"/><path class="cls-10" d="M51.2,36.44c-.57,0-1.05-.32-1.6-.39-.37-.03-.89,0-.9-.51,.06-.75,1.04-.43,1.51-.37,.4,.17,.8,.32,1.25,.33,.19,.03,.34-.07,.51-.15,.42-.18,.84-.34,1.23-.58,.25-.22,.54-.4,.79-.61,.16-.21,.36-.39,.52-.59,.08-.14,.15-.3,.28-.4,.35-.21,.87-.55,1.2-.12,.14,.2,.11,.44,.16,.67,.12,.36,.21,.78,.56,.97,.2-.79,.39-1.67,.27-2.49-.25-.26-.6-.38-.83-.67-.34-.16-.84-.32-.93-.73-.04-.55,.56-.7,.93-.36,.18,.14,.4,.18,.58,.3,.24,.26,.56,.41,.82,.65,.44,.3,.45,.85,.45,1.33,.02,.52-.12,1.03-.19,1.55-.07,.38-.08,.83-.4,1.1-.88,.88-1.94-.31-2.14-1.2-.65,.81-1.48,1.49-2.46,1.88-.43,.18-.85,.43-1.31,.43-.1,0-.19,0-.3-.03"/><path class="cls-10" d="M47.34,37.54h-.04s-.04,0-.04,0h-.04s-.04,0-.04,0h-.04s-.04,0-.04,0h-.05s-.05,0-.05,0h-.05s-.05,0-.05,0h-.05s-.05,0-.05,0h-.05s-.05,0-.05,0h-.05s-.05,0-.05,0h-.05s-.05,0-.05,0h-.05s-.05,0-.05,0h-.05s-.04,0-.04,0c-.08-.95-.16-1.9-.2-2.85,.27-.69,1.13-.32,.96,.37,.12,.84,.18,1.68,.24,2.52h0Z"/><path class="cls-10" d="M51.41,35.77c.29-.5,1.1-.12,.88,.42,.19,.45,.38,.91,.57,1.36h-.02s-.06,0-.06,0h-.05s-.06,0-.06,0h-.06s-.05,0-.05,0h-.16s-.06,0-.06,0h-.06s-.06,0-.06,0h-.06s-.06,0-.06,0h-.06s-.06,.01-.06,.01h-.06s-.07,.01-.07,.01h-.02c-.2-.59-.76-1.2-.42-1.82"/><path class="cls-10" d="M13.26,59.65c-.55-.51-4.54-2.72-2.96-3.41,.55-.13,.77,.57,1.16,.79,.76,.66,1.61,1.22,2.43,1.8,.43,.32,.1,.93-.33,.93-.1,0-.2-.03-.3-.11"/><path class="cls-10" d="M14.35,40.29s-.06-.05-.09-.08c-.05-.04-.11-.09-.16-.13-.15-.11-.3-.24-.5-.26h-.01s.05-.05,.07-.07c1.52-1.17,3.24-2.08,5.06-2.7,.16,.07,.32,.13,.49,.19,.2,.08,.39,.15,.59,.22,.1,.03,.2,.07,.3,.1,.07,.02,.14,.05,.22,.06-1.86,.53-3.66,1.31-5.24,2.37-.19,.13-.38,.26-.57,.4-.05-.04-.1-.08-.16-.12"/><path class="cls-10" d="M20.58,37.48s.03,0,.04,0c.04,0,.08-.03,.11-.05,0,0,0,0,.01,0h0c.14-.02,.27-.1,.34-.22,.07-.12,.09-.28,.03-.4,.01-.05,.02-.11,.01-.17-.01-.08-.03-.16-.06-.24,.98-.26,2.01-.54,2.98-.4,.61,.43,.05,1.11-.57,.99-.99,.12-1.98,.32-2.96,.58,.03-.02,.04-.06,.05-.09"/><path class="cls-10" d="M21.03,36.4h0s0,0,0,.01c0,0,0,0,0-.01"/><path class="cls-10" d="M22.74,48.29c-3.25,.44-6.66,.05-9.78-.93,.07-.34,.14-.68,.22-1.02,3.83,1.24,8.18,1.59,12.03,.27,.81-.26,1.61-.55,2.39-.91,0,0,.01,0,.02,0h0s0,.02,0,.02h0s0,.02,0,.02h0s0,.02,0,.02h0s0,.02,0,.02h0s0,.02,0,.02h0s0,.02,0,.02h0s0,.02,0,.02h0s0,.02,0,.02h0s0,.02,0,.02h0s0,.02,0,.02h0s0,.02,0,.02h0s0,.02,0,.02h0s0,.02,0,.02h0s0,.02,0,.02h0s0,.02,0,.02h0s0,.03,0,.03h0s0,.02,0,.02h0s0,.03,0,.03h0s0,.02,0,.02h0s0,.02,0,.02h0s0,.02,0,.02h0s0,.02,0,.02h0s0,.02,0,.02h0s0,.02,0,.02h0s0,.02,0,.02h0s0,.02,0,.02h0s0,.02,0,.02h0s0,.03,0,.03h0s0,.03,0,.03h0s0,.03,0,.03h0s0,.03,0,.03h0s0,.03,0,.03h0s0,.03,0,.03h0s0,.02,0,.02h0s0,.02,0,.02h0s0,.02,0,.02h0s0,.02,0,.02h0s0,.02,0,.02h0s0,.02,0,.02h0s0,.02,0,.02h0s0,.02,0,.02h0s0,.02,0,.02h0s0,.02,0,.02h0s0,.01,0,.01h0s0,.01,0,.01h0s0,.01,0,.01h0s0,.01,0,.01h0s0,.01,0,.01h0s0,.01,0,.01h0s0,.01,0,.01h0s0,.01,0,.01h0s0,0,0,0h0s0,.01,0,.01h0s0,.01,0,.01h0s0,0,0,0h0s0,.01,0,.01h0s0,.01,0,.01h0s0,.01,0,.01h0s0,.01,0,.01h0s0,.01,0,.01h0s0,.01,0,.01h0s0,.01,0,.01h0s0,.01,0,.01h0s0,.01,0,.01h0s0,.01,0,.01h0s0,.01,0,.01h0s0,.01,0,.01h0s0,.01,0,.01h0s0,.01,0,.01h0s0,.01,0,.01h0s0,.01,0,.01h0s0,.01,0,.01h0s0,.01,0,.01h0s0,.01,0,.01h0s0,.01,0,.01h0s0,.01,0,.01h0s0,.01,0,.01h0s0,.01,0,.01h0s0,.01,0,.01h0s0,.01,0,.01h0s0,.01,0,.01h0s0,.01,0,.01h0s0,.01,0,.01h0s0,.01,0,.01h0s0,.01,0,.01h0s0,.01,0,.01h0s0,0,0,0h0s0,0,0,0c-1.05,.37-2.18,.69-2.99,.88-.47,.11-.82,.19-.99,.21"/><path class="cls-10" d="M27.49,44.6h0s.02,0,.02,0h.01s.01,.01,.01,.01h.02s.01,.01,.01,.01h.01s.01,.01,.01,.01h.01s.01,.01,.01,.01h.01s.01,.01,.01,.01h.01s.01,.01,.01,.01h.01s.01,.01,.01,.01h.01s.01,.01,.01,.01h.01s.01,.01,.01,.01h.01s.01,.01,.01,.01h.01s.01,.01,.01,.01h.01s.01,.01,.01,.01h.01s.01,.01,.01,.01h.01s.01,.01,.01,.01h.01s.01,.01,.01,.01h.01s0,.01,0,.01h.01s.01,.01,.01,.01h.01s0,.01,0,.01h.01s.01,.02,.01,.02h0s0,.02,0,.02h0s0,.02,0,.02h0s0,.02,0,.02h0s0,.02,0,.02h0s0,.02,0,.02h0s0,.02,0,.02h0s0,.02,0,.02h0s0,.02,0,.02h0s0,.02,0,.02h0s0,.02,0,.02h0s0,.01,0,.01h0s0,.01,0,.01h0s0,.01,0,.01h0s0,.01,0,.01h0s0,.01,0,.01h0s0,.01,0,.01h0v.02h0s0,.02,0,.02c-.21-.19-.42-.38-.64-.57"/><path class="cls-10" d="M21.26,46.47c-1.82,.1-3.65-.1-5.45-.39-.81-.16-1.66-.28-2.45-.55,.06-.25,.12-.49,.18-.74,.09,.04,.18,.07,.27,.08,3.12,.77,6.51,1.21,9.66,.49,.64-.13,1.28-.29,1.91-.44,.62-.15,1.24-.3,1.87-.43h0s.02,.01,.02,.01h.02s.02,.02,.02,.02h.02s.02,.02,.02,.02h.02s.02,.02,.02,.02h.02s.02,.02,.02,.02h.02s.02,.02,.02,.02h.02s.01,.01,.01,.01h.02s.01,.01,.01,.01h.01s.02,.01,.02,.01h.01s.01,.01,.01,.01h.01s.01,.01,.01,.01h.01s.01,.01,.01,.01h.01s.01,.01,.01,.01h.01s.01,.01,.01,.01h.01s.01,.01,.01,.01h.01s.01,.01,.01,.01h.01s.01,.01,.01,.01h.01s.01,.01,.01,.01h.01s.01,.01,.01,.01h.01s.01,.01,.01,.01h.01s.01,.01,.01,.01h.01s.01,.01,.01,.01h.01s.01,.01,.01,.01h.01s.01,.01,.01,.01h.01s.01,.01,.01,.01h0s.01,.02,.01,.02h0s0,.02,0,.02h0s.01,.02,.01,.02h0s0,.02,0,.02h0s0,.02,0,.02h0s0,.02,0,.02h0s0,.02,0,.02h0s0,.02,0,.02h0s0,.02,0,.02h0s0,.02,0,.02h0s0,.02,0,.02h0s0,.02,0,.02h0s0,.01,0,.01h0s0,.01,0,.01h0s0,.01,0,.01h0s0,0,0,0c-2.3,.41-4.52,1.19-6.86,1.37"/><path class="cls-10" d="M10.36,41c-.31-.69-.61-1.37-.94-2.04-.1,.46-.19,.95-.5,1.32-.54,.59-1.57,.66-2.13,.07-.43-.54-.24-1.27-.22-1.9,.1-.48-.17-1.05,.19-1.45,1.26-1.05,2.71-.88,3.2,.79,.33,.82,.78,1.58,1.09,2.41,.18,.32,.4,.8-.04,1.02-.07,.03-.14,.05-.21,.05-.18,0-.36-.1-.44-.26m-2.82-3.39c.1,.7-.14,1.41,0,2.1,.1,.07,.22,.11,.35,.08,.52-.07,.52-.75,.61-1.15-.07-.33,.14-.68,.5-.66-.13-.48-.37-.67-.67-.67-.23,0-.5,.12-.78,.3"/><path class="cls-10" d="M4.58,42.62c-.86-.18-.82-1.22-.92-1.91-.05-.37-.21-.73-.22-1.11-.06-.57,.47-.86,.95-.98,.44-.17,.97-.32,1.41-.07,.31,.18,.6,.43,.93,.58,.26,0,.49,.19,.5,.45,.03,.43-.47,.62-.82,.46-.97-.42-.87-.93-1.99-.41,.2,.67,.2,1.38,.38,2.04,.69,.06,.95-.25,.89-.92-.03-.63,.92-.69,.97-.06,.13,1.2-.6,1.96-1.7,1.96-.12,0-.25,0-.38-.03"/><path class="cls-10" d="M5.88,42.79c-.14-.39-.51-.82-.25-1.24,.14-.22,.46-.28,.67-.13,.14,.09,.21,.25,.21,.41,.09,.22,.2,.43,.29,.65,.13,.37-.18,.63-.48,.63-.18,0-.36-.09-.44-.32m.58-.75s.04-.09,.05-.13c0-.02,0-.04,0-.06h0c0,.05-.02,.12-.05,.18"/><path class="cls-10" d="M8.04,41.75c-.26-.37-.69-.63-.83-1.07-.21-.71,.83-.99,.95-.25,.29,.38,1.07,.86,.57,1.36-.09,.08-.21,.12-.32,.12-.14,0-.27-.05-.36-.16"/><path class="cls-10" d="M2.45,44.53s.02,0,.03,0c0,0-.02,0-.02,0t0,0"/><path class="cls-10" d="M2.53,44.51c-.05,0-.11-.01-.16-.01-.19-.09-.31-.24-.37-.44,0-.06,0-.12,0-.18,0-.14-.01-.29-.02-.43,0-.02,0-.03,0-.05,0-.48-.05-.93-.07-1.41-.19-.97,.79-1.37,1.56-1.6,.49-.55,1.21,.27,.68,.74-.38,.26-.89,.29-1.27,.57-.01,.66,.11,1.29,.06,1.94,.36,.04,.57-.23,.71-.52,.2-.25,.25-.53,.19-.84-.04-.63,.92-.69,.97-.06,.12,.75-.29,1.69-.96,2.13-.14-.01-.27,0-.4,.05,0,0-.01,0-.02,0h0c-.09,.01-.17,.02-.26,.03-.09,.02-.18,.05-.28,.07-.01,0-.02,0-.03,0-.02,0-.04,0-.05,0-.03,0-.06,0-.09,0-.06,0-.11,0-.16,.01,0,0-.01,0-.02,0"/><path class="cls-10" d="M4.47,44.84c-.06-.16-.17-.31-.31-.4-.08-.19-.24-.34-.33-.53-.43-.75,.77-1.26,.9-.38,.69,.8,.35,1.36-.06,1.36-.07,0-.14-.02-.21-.05"/><path class="cls-10" d="M3.62,44.33c-.06,0-.12,.02-.17,.05,0,0-.01,0-.02,0h0c-.09,.01-.17,.02-.25,.03-.09,.02-.18,.05-.27,.07,.14-.25,.49-.31,.72-.16"/><path class="cls-10" d="M2,44.14c0-.09,0-.18,0-.26-.01-.33-.04-.66-.05-.99,.33-.11,.64-.06,.72,.39,.04,.41-.4,.49-.66,.67,0,.07,0,.13,0,.2,0,0,0,0,0,0"/><path class="cls-10" d="M6.4,50.02s-.03-.01-.04-.02h0s-.01-.02-.01-.02h-.02s-.01-.03-.01-.03h-.01s-.01-.03-.01-.03h-.01s-.01-.03-.01-.03h-.01s-.01-.02-.01-.02h-.01s-.01-.02-.01-.02h-.01s-.01-.02-.01-.02h-.01s-.01-.02-.01-.02h-.01s-.01-.02-.01-.02h-.01s-.01-.02-.01-.02h-.01s0-.02,0-.02h-.01s0-.01,0-.01h-.01s0-.01,0-.01h0s0-.01,0-.01h0s0-.01,0-.01h0s0,0,0,0h0s0,0,0,0h0s0,0,0,0h0s0,0,0,0h0s0,0,0,0h0s0,0,0,0h0s0,0,0,0h-.01s0,0,0,0h0s-.01,0-.01,0h-.01s0,0,0,0h-.01s-.01,0-.01,0h-.01s-.01,0-.01,0h-.01s-.01,0-.01,0h-.01s-.01,0-.01,0h-.01s-.01,0-.01,0h-.01s-.01,0-.01,0h-.01s-.01,0-.01,0h-.02s-.01,0-.01,0h-.1s-.01,0-.01,0h-.03s-.01,0-.01,0h-.01s-.01,0-.01,0h-.02s-.01,0-.01,0c-.02,0-.03-.02-.05-.03,0,0,0,0,0,0-.02-.03-.05-.04-.08-.05-.01,0-.03,0-.04-.01-.66-.38-1.18-.91-1.43-1.74-.22-.42-.37-.85-.5-1.3,.05-.04,.08-.09,.11-.14,.01-.03,.03-.05,.05-.08h0s0,0,.01,0c.03,0,.05-.01,.08-.02,.06,0,.12-.01,.18-.02,.1,0,.2,0,.3,0,0,0,0,0,0,0,.07,.08,.16,.14,.26,.18,.13,.4,.3,.8,.49,1.18,.15,.45,.44,.84,.86,1.07,.33,.17,.69,.29,1.03,.45,.54,.18,.34,.94-.15,.94-.05,0-.11,0-.17-.03"/><polyline class="cls-10" points="5.32 49.54 5.32 49.54 5.32 49.54 5.32 49.54"/><path class="cls-10" d="M3.33,44.4s-.05,0-.08,0c.02,0,.05,0,.08,0"/><path class="cls-10" d="M11.23,43.11c-1-.14-1.54-1.29-.82-2.06,.47-.49,1.13-.74,1.64-1.18,.17-.59,1.1-.34,.96,.26-.31,.8-1.33,.99-1.89,1.58-.28,.4,.42,.55,.71,.47,.35-.16,.84-.46,1.09,.01,.25,.65-.68,.97-1.32,.97-.14,0-.26-.01-.36-.04"/><path class="cls-10" d="M11.3,49.04c-.67-.62,.49-1.28,.86-1.73,.25-.38,.4-.81,.6-1.21,.53-1.03,.48-2.21,.9-3.27,.1-.52,.4-1.03,.24-1.56-.24-.35-.54-.77-.96-.88-.49,.77-1.54-.07-.76-.6,1.04-1.2,2.94,.82,2.74,2-.13,.85-.48,1.65-.66,2.48-.09,.86-.33,1.68-.72,2.46-.27,.54-.46,1.14-.95,1.53-.38,.21-.6,.88-1.02,.88-.08,0-.17-.02-.27-.08"/><path class="cls-10" d="M6.22,49.87h-.01s-.01-.02-.01-.02h-.01s-.01-.02-.01-.02h-.01s-.01-.02-.01-.02h-.01s-.01-.02-.01-.02h-.01s-.01-.02-.01-.02h-.01s-.01-.02-.01-.02h0s0-.01,0-.01h0s0-.01,0-.01h0s0-.01,0-.01h0s0,0,0,0h0s0,0,0,0h0s0,0,0,0h0s0,0,0,0h0s0,0,0,0h0s0,0,0,0h0s0,0,0,0h0s0,0,0,0h0s-.01,0-.01,0h0s-.01,0-.01,0h-.01s-.01,0-.01,0h-.01s-.01,0-.01,0h-.01s-.01,0-.01,0h-.01s-.01,0-.01,0h-.01s-.01,0-.01,0h-.01s-.01,0-.01,0h-.01s-.01,0-.01,0h-.01s-.01,0-.01,0h-.01s-.01,0-.01,0h-.11s-.01,0-.01,0h-.01s-.01,0-.01,0h-.01s-.01,0-.01,0h-.01s-.01,0-.01,0h-.02s-.01,0-.01,0h-.01s-.02-.02-.03-.03c-.02-.03-.05-.04-.08-.05-.02,0-.04-.01-.06-.02,.13-.18,.25-.35,.38-.53,.21-.17,.51-.16,.69,.04,.21,.24,.09,.54-.1,.83h0Z"/><polyline class="cls-10" points="5.25 49.57 5.25 49.57 5.24 49.58 5.25 49.57"/><polyline class="cls-10" points="5.25 49.57 5.25 49.57 5.25 49.57 5.25 49.57"/><polyline class="cls-10" points="5.25 49.57 5.25 49.57 5.25 49.57 5.25 49.57"/><polyline class="cls-10" points="5.32 49.54 5.33 49.54 5.32 49.54"/><path class="cls-10" d="M10.79,49.25s0-.05,.01-.08c0-.06,.01-.13,.02-.2,0-.04,0-.08,.01-.12,0-.06,.02-.12,.02-.18,0-.03,.01-.07,.02-.1,0-.03,0-.05,0-.08,.12-.14,.26-.27,.37-.4,.21-.31,.64-.59,.95-.24,.42,.56-.4,.96-.67,1.37,0,.02,0,.03-.01,.05h0s0-.02,0-.02h0s0-.02,0-.02h0s0-.02,0-.02h0s0-.01,0-.01h0s0-.01,0-.01h0s0,0,0,0h0s0,0,0,0h0s0,0,0,0h-.01s0,0,0,0h0s-.01,0-.01,0h0s-.01,0-.01,0h-.04s-.01,0-.01,0h-.01s-.01,0-.01,0h-.01s-.01,0-.01,0h-.01s-.01,0-.01,0h-.01s-.01,0-.01,0h-.01s-.01,0-.01,0h-.01s-.01,0-.01,0h-.01s-.01,0-.01,0h-.01s-.01,0-.01,0h-.01s-.01,0-.01,0h-.01s-.01,0-.01,0h-.01s-.01,0-.01,0h-.01s-.01,0-.01,0h-.01s-.01,0-.01,0h-.01s-.01,0-.01,0h-.01s-.01,0-.01,0h-.01s-.01,0-.01,0h-.01s-.01,0-.01,0h-.01s-.01,0-.01,0h-.01s-.01,0-.01,0h-.01s-.01,0-.01,0h-.01s-.01,0-.01,0h0s0-.02,0-.03"/><path class="cls-10" d="M1.02,47.16c-1.43-.32-1.04-1.34-.45-2.27,.3-.39,.06-1.14,.7-1.17,1.15,.23-.02,1.84-.27,2.43,.39,.21,.8-.19,1.05-.45,.15-.22,.22-.53,.51-.61,.43-.11,.77,.29,1.09,.51,.2,.12,.38,.26,.52,.44,.56,.71-.46,1.42-.79,.56-.16-.15-.35-.24-.51-.38-.38,.49-.99,.96-1.64,.96-.07,0-.14,0-.22-.02"/><path class="cls-10" d="M1.33,44.63c-.55-.08-.52-.67-.19-1,.19-.21,.49-.18,.75-.24,.11-.04,.23-.07,.35-.03,.4,.09,.49,.69,.12,.88-.16,.08-.34,.12-.52,.14-.08,.16-.26,.25-.44,.25-.02,0-.04,0-.06,0"/><path class="cls-10" d="M5.9,49.44h.01s.01,0,.01,0h.01s.01,0,.01,0h.01s.01,0,.01,0h.01s.01,0,.01,0h.01s.01,0,.01,0h.01s.01,0,.01,0h.01s.01,0,.01,0h.01s.01,0,.01,0h.01s.01,0,.01,0h.01s.01,0,.01,0h.01s.01,0,.01,0h.01s.01,0,.01,0h.04s.01,0,.01,0h.01s.01,0,.01,0h.02s.01,0,.01,0h.01s.01,0,.01,0h.01s.01,0,.01,0h.01s.01,0,.01,0h0s.01,0,.01,0h.01s0,0,0,0h0s.01,0,.01,0h0s0,0,0,0h0s0,0,0,0h0s0,0,0,0h0s0,0,0,0h0s0,0,0,0h0s0,0,0,0h.01s0,0,0,0h.01s.01,.01,.01,.01h.01s.01,.01,.01,.01h.01s0,.01,0,.01h.01s.01,.02,.01,.02h.01s.01,.02,.01,.02h.01s.01,.02,.01,.02h.01s.01,.02,.01,.02h.01s.01,.02,.01,.02h.01s.01,.02,.01,.02h.02s.01,.02,.01,.02h.02s.02,.02,.02,.02h.02s.02,.02,.02,.02h.02s.02,.03,.02,.03h0c-.33-.07-.65-.16-.95-.27"/><path class="cls-10" d="M2.85,58.06l-.06-.08-.06-.07-.06-.07-.06-.07-.06-.07-.06-.07-.06-.07-.06-.07-.07-.07-.07-.07-.08-.07-.05-.04c.19-.54,.43-1.06,.64-1.59,.87-2.06,1.8-4.11,2.86-6.08h.02s.02-.01,.02-.01h.02s.02-.01,.02-.01h.01s.02-.01,.02-.01h.02s.01,0,.01,0h.01s.01,0,.01,0h.01s.01,0,.01,0h.01s.01,0,.01,0h.01s.01,0,.01,0h.01s.01,0,.01,0h.01s.01,0,.01,0h.01s.01,0,.01,0h.01s.01,0,.01,0h.01s.01,0,.01,0h.01s.01,0,.01,0h.01s.01,0,.01,0h.01s.01,0,.01,0h.01s.01,0,.01,0h.01s.01,0,.01,0h.01s.01,0,.01,0h.01s.01,0,.01,0h.01s.01,0,.01,0h.01s.01,0,.01,0h.01s.01,0,.01,0h.01s.01,0,.01,0h.04s.01,0,.01,0h.01s.01,0,.01,0h.01s.01,0,.01,0h.01s.01,0,.01,0h.01s.01,0,.01,0h.01s.01,0,.01,0h.01s0,0,0,0h.01s0,0,0,0h0s0,0,0,0h0s0,0,0,0h0s0,0,0,0h0s0,0,0,0h0s0,0,0,0h0s.01,0,.01,0h0s0,0,0,0h0s.01,0,.01,0h0s.01,.01,.01,.01h.01s.01,.01,.01,.01h.01s.01,.01,.01,.01h.01s.01,.02,.01,.02h.01s.01,.02,.01,.02h.01s.01,.02,.01,.02h.01s.01,.02,.01,.02h.01s0,.01,0,.01c-.16,.31-.39,.63-.48,.86-.68,1.25-1.25,2.55-1.85,3.84-.5,1.26-1.14,2.48-1.51,3.78h0Z"/><path class="cls-10" d="M8.93,60.59c-.03-.21-.09-.41-.16-.6,.17-.85,.33-1.69,.54-2.53,.25-1.79,.44-3.6,.89-5.35,.26-1.13,.6-2.27,.67-3.43,0,0,0,0,0,0,0-.02,0-.04,.01-.07h.01s.01,0,.01,0h.01s.01,0,.01,0h.01s.01,0,.01,0h.01s.01,0,.01,0h.01s.01,0,.01,0h.01s.01,0,.01,0h.01s.01,0,.01,0h.01s.01,0,.01,0h.01s.01-.01,.01-.01h.01s.01,0,.01,0h.01s.01,0,.01,0h.01s.01,0,.01,0h.01s.01,0,.01,0h.01s.01-.01,.01-.01h.01s.01,0,.01,0h.01s.01,0,.01,0h.01s.01-.01,.01-.01h.01s.01,0,.01,0h.01s.01,0,.01,0h.01s.01,0,.01,0h.01s.01,0,.01,0h.01s.01,0,.01,0h.01s.01,0,.01,0h.01s.01,0,.01,0h.01s.01,0,.01,0h.01s.01,0,.01,0h.01s.01,0,.01,0h.01s.01,0,.01,0h.01s.01,0,.01,0h.01s.01,0,.01,0h.01s.01,0,.01,0h.01s.01,0,.01,0h.01s.01,0,.01,0h.01s.01,0,.01,0h.01s.01,0,.01,0h.01s0,0,0,0h.01s.01,0,.01,0h.01s.01,0,.01,0h.02s0,0,0,0h.01s0,0,0,0h0s0,0,0,0h0s0,0,0,0h0s0,0,0,0h.01s0,.01,0,.01h0s0,.02,0,.02h0s0,.02,0,.02h0s0,.02,0,.02c-.14,1.7-.62,3.39-.99,5.07-.41,1.98-.52,3.98-1.02,5.95-.06,.17-.12,.53-.2,.96-.04,.04-.08,.09-.13,.13-.02,.02-.04,.04-.06,.05-.03,.02-.05,.03-.08,.05-.02,.01-.04,.02-.07,.03-.01,0-.03,0-.04,.01,0,0-.01,0-.02,0h-.02c-.11,0-.23-.02-.34-.04"/><path class="cls-10" d="M8.93,60.59c-.02-.12-.04-.24-.08-.35,.05-.03,.1-.05,.16-.06,.31-.03,.47,.1,.53,.31-.02,.02-.04,.03-.06,.04-.03,.02-.05,.03-.08,.05-.02,.01-.04,.02-.07,.03-.01,0-.03,0-.04,.01,0,0-.01,0-.02,0h-.02c-.11,0-.23-.02-.34-.04"/><path class="cls-10" d="M11.55,58.46c.12,.03,.27,.02,.39,0,.02,0,.05,0,.07-.01h.02v.1c0,.13,0,.27,.02,.4-.17-.16-.33-.32-.5-.49"/><path class="cls-10" d="M10.19,57.07c-.34-.33-.93-1-.28-1.33,.29-.13,.48,.04,.64,.24,0,.03-.01,.06-.02,.09-.02,.1-.03,.21-.04,.32,0,.03,0,.06-.01,.09-.04,.05-.09,.1-.16,.13,.06-.03,.11-.08,.15-.13-.01,.12-.03,.24-.02,.36,0,.01,0,.03,0,.04-.01,.06-.03,.13-.04,.19-.01,.08-.02,.17,0,.24-.08-.08-.15-.16-.23-.24"/><path class="cls-10" d="M11.62,60.24l-.03-.07-.03-.07-.03-.06-.03-.06-.03-.06-.03-.06-.03-.06-.03-.05-.03-.05-.03-.05-.03-.04-.03-.04-.03-.04-.03-.04-.03-.03-.03-.03-.03-.03-.03-.03-.03-.02c.12-.23,.25-.46,.38-.68,.04-.07,.07-.14,.11-.21,.01,0,.02,0,.03,.01,.13,.04,.28,.02,.41,0,.02,0,.05,0,.07-.01h.02v.1c0,.2,.01,.39,.03,.58,0,.09,.01,.18,.02,.26-.14,.26-.29,.55-.45,.85h0Z"/><path class="cls-10" d="M11.62,59.53c-.61-.19-.24-.86-.13-1.28,.06-.46,.49-.96,.94-.56,.37,.44-.16,1.02-.21,1.5-.06,.21-.26,.35-.47,.35-.04,0-.08,0-.13-.02"/><path class="cls-10" d="M5.53,65.82c-1.6-.11-2.42-1.49-3.15-2.8-.98-1.48-1.06-3.14-.52-4.79,.07-.45,.2-.89,.36-1.32l.05,.04,.08,.07,.07,.07,.07,.07,.06,.07,.06,.07,.06,.07,.06,.07,.06,.07,.06,.07,.06,.07,.06,.08h0c-.08,.28-.14,.55-.19,.82-.45,1.35-.37,2.75,.44,3.95,1.09,2.03,2.06,3.09,4.39,1.78,.02-.02,.05-.03,.07-.05-.02,.09-.02,.18-.01,.27,0,.08,.03,.15,.06,.21,.03,.06,.09,.11,.14,.15,0,.04,0,.09,0,.13,0,.07,.02,.14,.06,.2-.51,.28-1.04,.51-1.61,.58-.15,.02-.3,.02-.45,.02-.04,0-.08,0-.13,0-.07,0-.14,0-.21,0"/><path class="cls-10" d="M6.78,65.09c-.04-.25,.23-.46,.46-.39,.21-.09,.48-.02,.55,.22,.08,.31-.24,.5-.55,.5-.22,0-.43-.1-.47-.33m.7-.13s0,0,0-.01t0,0s-.04-.09-.07-.13c.03,.04,.06,.09,.07,.14"/><path class="cls-10" d="M6.62,64.81c.32-.17,.64-.32,.9-.58,1.56-1.46,2.58-3.35,3.59-5.2l.03,.02,.03,.03,.03,.03,.03,.03,.03,.04,.03,.04,.03,.04,.03,.04,.03,.04,.03,.05,.03,.05,.03,.05,.03,.06,.03,.06,.03,.06,.03,.06,.03,.06,.03,.07,.03,.07h0c-1.28,2.36-3.33,5.7-5,5.71-.34-.14-.4-.62-.1-.83"/><path class="cls-10" d="M24.54,36.45c-.56-.19-1.07-.42-1.54-.68,0,0-.02-.02-.02-.02-.04-.04-.09-.07-.13-.11-.04-.03-.08-.06-.12-.09-.07-.05-.15-.09-.22-.14-.06-.07-.12-.13-.2-.18-.05-.04-.1-.06-.15-.09-.07-.06-.15-.11-.23-.14-.05-.02-.1-.04-.15-.05-1.28-1.03-2.16-2.35-2.76-3.84,0-.33,0-.66,0-.99,.06-.11,.09-.23,.1-.37,.03-.66,.06-1.31,.09-1.97,.37,2.34,1.19,4.62,3.04,6.22,.79,.66,1.73,1.15,2.7,1.5,.55,.22,.31,1-.19,1-.06,0-.13-.01-.21-.04"/><path class="cls-10" d="M22.1,35.11s.01,0,.02,0t0,0s-.01,0-.02,0"/><path class="cls-10" d="M37.01,31.27c-.08-.04-.15-.1-.2-.18,.02-.03,.03-.06,.04-.09,.12-.28,.22-.57,.33-.86,.06-.15,.12-.29,.18-.44,.08-.21,.15-.43,.21-.64,.14-.52,.27-1.05,.31-1.58,.02-.22,.02-.44-.03-.66,0-.01,0-.03-.01-.04,.03-.18,.06-.35,.09-.53,0,.23,0,.45,0,.68,0,.02,0,.05,0,.07,0,.36,0,.72,0,1.08,0,.1,0,.2,0,.3,0,.12-.01,.23-.02,.35-.03,.29-.06,.57-.09,.86-.01,.09-.03,.17-.04,.26-.08,.4-.19,.8-.25,1.21-.01,.07-.01,.14,0,.21-.08,.04-.17,.07-.26,.07-.08,0-.16-.02-.23-.05"/><path class="cls-10" d="M38.16,24.53c.01,.31,.02,.63,.02,.94-.07,.06-.13,.14-.17,.22,.06-.39,.11-.77,.15-1.16"/><path class="cls-10" d="M28.13,36.98c-1.58-.12-3.16-.44-4.66-.96-.55-.15-.47-1.03,.16-1.01,.98,.29,1.95,.6,2.96,.74,3.46,.7,7.38-.58,9.45-3.48,0,0,0-.01,.01-.02,.04-.04,.08-.08,.12-.12,.28-.35,.51-.73,.68-1.14,.09-.21,.17-.42,.25-.64,.18-.06,.39,0,.53,.11-.04,.19-.08,.39-.12,.58-.03,.16,0,.31,.08,.44-.53,1.37-1.47,2.5-2.63,3.37-.1,.03-.2,.09-.28,.13-.11,.06-.2,.14-.3,.21-.08,.06-.17,.13-.25,.21-1.74,1.04-3.83,1.57-5.81,1.57-.07,0-.13,0-.2,0"/><path class="cls-10" d="M17.13,38.11c-.62-.11-.4-.76-.37-1.2,.06-.82-.04-1.64-.2-2.44-.44-1.83-1.08-3.62-1.58-5.44,.24,.14,.51,.21,.78,.21,.11,0,.21,0,.32-.03,.72,2.45,1.78,4.85,1.74,7.43-.06,.51,.08,1.48-.64,1.48-.01,0-.03,0-.04,0"/><path class="cls-10" d="M23.39,8.24c.72-.32,5.14-1.56,4.84-.09-.13,.42-.52,.39-.9,.36-.18-.01-.35-.03-.5,0-1.4,.11-2.67,.46-3.91,1.06-4.07,2.15-6.49,6.62-7.38,10.96-.24,1.07-.33,2.17-.31,3.27-.4,.05-.76,.26-1.02,.57-.26-6.29,3.13-13.65,9.18-16.14"/><path class="cls-10" d="M39.12,36.57c-.04-2.42,.88-4.67,1.59-6.96,.12,.04,.24,.06,.37,.06,.07,0,.14,0,.22-.02,.19-.04,.38-.13,.54-.26-.48,1.67-1.06,3.32-1.46,5-.16,.8-.26,1.62-.21,2.44,0,.1,.03,.22,.04,.34-.1,.06-.18,.15-.26,.24-.01,.01-.02,.03-.03,.04-.02,.02-.04,.04-.06,.05-.04,.03-.08,.07-.12,.1,0,0,.01,0,.01-.01,0,0,.01,0,.02-.01,0,0,0,0,0,0,0,0,0,0,0,0,0,0,0,0,0,0,0,0,.01,0,.02-.01,0,0,0,0,0,0,0,0,0,0,0,0,0,0,0,0,0,0,0,0,0,0,.01,0,0,0,0,0,.01,0,0,0,0,0,.01-.01h0s0,0,0,0c0,0-.02,.01-.02,.02-.06,.05-.13,.1-.19,.15-.02,.01-.05,.03-.07,.04-.05,.02-.1,.04-.15,.06-.03,0-.05,0-.08,.01-.21-.31-.15-.9-.19-1.26"/><path class="cls-10" d="M39.74,37.62s-.01,0-.02,.01c0,0,.01-.01,.02-.02,0,0,0,0,0,0,0,0,0,0,0,0h0s0,0,0,0c-.01,0-.02,.02-.03,.03,0,0,.02-.01,.02-.02"/><path class="cls-10" d="M39.78,37.59s0,0,0,0c0,0,0,0,0,0,0,0,0,0,.01-.01"/><path class="cls-10" d="M39.83,37.55s-.01,.01-.02,.02c0,0,.01-.01,.02-.02"/><path class="cls-10" d="M39.94,37.45s0,0-.01,.01c0,0,0,0,.01-.01"/><path class="cls-10" d="M42.02,23.92c-.1-.04-.22-.06-.32-.06,.03-1.14-.06-2.28-.31-3.38-.89-4.34-3.31-8.81-7.38-10.96-1.24-.6-2.51-.95-3.91-1.06-.15-.03-.32-.02-.5,0-.38,.03-.77,.06-.9-.36-.3-1.47,4.12-.23,4.84,.09,6.17,2.54,9.57,10.14,9.16,16.51,0,.02,0,.04,0,.06-.11-.36-.31-.68-.67-.83"/><path class="cls-10" d="M37.58,37.62c-.06-.55,.51-.6,.92-.66,.27-.06,.53-.16,.8-.19,.41-.09,.77,.19,.79,.51-.05,.04-.09,.09-.13,.14-.01,.01-.02,.03-.03,.04-.02,.02-.04,.04-.06,.05-.04,.03-.08,.07-.12,.1,.02-.01,.03-.02,.04-.04,0,0,0,0,0,0,0,0,0,0,0,0,0,0,0,0,0,0,0,0,0,0,0,0,0,0,0,0,0,0,0,0,.02-.01,.03-.02t0,0s.01,0,.02-.01c0,0-.01,0-.02,.01-.07,.05-.13,.11-.2,.16-.02,.01-.05,.02-.07,.04-.04,.02-.07,.03-.11,.05,0,0-.01,0-.02,0-.09,.01-.17,.03-.26,.06-.01,0-.02,0-.03,0-.06,.01-.12,.03-.17,.05-.07,.02-.14,.04-.21,.05-.18,.04-.4,.09-.6,.09-.27,0-.51-.09-.57-.43"/><path class="cls-10" d="M39.77,37.59s-.02,.02-.03,.03c0,0,0,0,0,0,0,0-.01,0-.02,.01,0,0,0,0,0,0,0,0,0,0,0,0,0,0,0,0,0,0,0,0,0,0-.01,0,.02-.01,.03-.03,.05-.04"/><path class="cls-10" d="M39.82,37.55s0,0-.01,.01c0,0,.01,0,.01-.01"/><path class="cls-10" d="M39.85,37.53s0,0,0,0c0,0,0,0-.01,0,0,0,0,0,.01-.01"/><path class="cls-10" d="M20.68,38.3c-.42-.06-.83-.17-1.26-.13-.49,0-.95-.15-1.43-.2-.11,0-.22,.02-.32,.03-.28,.05-.53,.1-.71-.27-.25-.78,.84-.87,1.37-.76,.54,.1,1.08,.18,1.63,.16,.28,0,.53,.11,.8,.13,.04-.04,.08-.08,.12-.12-.02,.11,0,.23,.04,.33,.03,.07,.07,.14,.1,.2,.02,.04,.04,.08,.06,.12,.04,.08,.1,.14,.16,.2,.02,.05,.04,.09,.06,.14-.16,.1-.34,.16-.54,.16-.02,0-.05,0-.07,0"/><path class="cls-10" d="M22.85,35.64s-.08-.06-.12-.09c-.07-.05-.15-.09-.22-.14-.06-.06-.12-.13-.2-.18-.05-.04-.1-.06-.16-.09-.07-.06-.15-.11-.23-.14,0,0,0,0-.01,0,.06-.24,.24-.44,.52-.44,.56,.06,.58,.55,.43,1.08h0"/><path class="cls-10" d="M22.1,35.11s.01,0,.02,0c0,0,0,0,0,0,0,0-.01,0-.02,0"/><path class="cls-10" d="M36.04,38.52c-.11-.03-.22-.1-.35-.21,.06-.13,.08-.27,.1-.4,0,0,0,0,0-.01,.02-.05,.04-.1,.06-.15,.03-.03,.06-.07,.09-.1,.06-.02,.11-.05,.17-.09,.05-.04,.1-.08,.15-.13,.02,.02,.04,.05,.07,.07,.54-.34,1.15-.52,1.79-.43,.68,0,.68,1.02,0,1.03-.47-.1-.79,.05-1.1,.21-.24,.12-.47,.24-.75,.24-.07,0-.14,0-.22-.02"/><path class="cls-10" d="M33.96,34.83c.17-.45,.85-.39,.98,.04-.09,.03-.18,.08-.25,.12-.11,.06-.2,.14-.3,.21-.11,.08-.24,.17-.32,.28,0,.01-.02,.02-.02,.03-.09-.29-.12-.54-.09-.69"/><path class="cls-10" d="M20.71,36.7c-1.28-2.3-1.86-4.89-2.12-7.48-.2-2-.55-4.08,.05-6.04,.19-.81,1.02-1.07,1.68-1.4,.1-.03,.19-.08,.27-.13,0,0,0,0,0,0,0,0,0,0,0,0,.05,0,.11-.02,.16-.02,.02,0,.03,0,.05,0,.06,.01,.13,.02,.2,.02,.01,0,.02,0,.04,0,.15,0,.29-.04,.44-.08,.12-.02,.24-.04,.35-.07,.08-.02,.17-.04,.25-.07-.02,.04-.03,.08-.05,.12-.32,.79-1.18,1.12-1.89,1.47-.98,.26-.77,2.85-.75,3.68,.18,2.06,.37,4.16,.89,6.17,.33,1.15,.76,2.27,1.33,3.32,.23,.4-.12,.77-.47,.77-.16,0-.31-.07-.42-.25"/><path class="cls-10" d="M16.19,30.06c-2.08-1.14-2.9-4.06-1.69-6.1,.42-.66,.93-1.41,1.74-1.57,.28,0,.52,.23,.52,.51,.01,.32-.27,.45-.51,.57-1.6,1.18-1.65,3.65-.34,5.07,.23,.26,.5,.46,.8,.63,.58,.34,.06,1.22-.52,.89"/><path class="cls-10" d="M16.82,30.21c-1-.07-.88-1.29,.01-1.07,.87,.07,.84,1.17-.01,1.07"/><path class="cls-10" d="M16.8,29.86c-.46-2.24-.77-4.53-.83-6.81,0-.67,1.03-.68,1.04,0,0,.42,.03,.85,.06,1.26,.12,1.66,.35,3.33,.67,4.96,.04,.23,.15,.49,.02,.71-.21,.38-.85,.31-.95-.12"/><path class="cls-10" d="M36.52,36.77c1.28-2.3,1.86-4.89,2.12-7.48,.2-2,.55-4.08-.05-6.04-.19-.81-1.02-1.07-1.68-1.4-1.14-.4-.91-1.71-.94-2.67-.03-1.27-.1-2.53-.22-3.79-.04-.53-.08-1.56-.89-1.21-.21,.12-.32,.4-.22,.63,.09,.59,.13,1.22,.17,1.8,.05,.76,.09,1.53,.11,2.29,.04,.9-.1,1.86,.28,2.71,.32,.79,1.18,1.12,1.89,1.47,.98,.26,.77,2.85,.75,3.68-.18,2.06-.37,4.16-.89,6.17-.33,1.15-.76,2.27-1.33,3.32-.33,.57,.55,1.1,.9,.52"/><path class="cls-10" d="M41.04,30.13c2.08-1.14,2.9-4.06,1.69-6.1-.42-.66-.93-1.41-1.74-1.57-.28,0-.52,.23-.52,.51-.01,.32,.27,.45,.51,.57,1.6,1.18,1.65,3.65,.34,5.07-.23,.26-.5,.46-.8,.63-.58,.34-.06,1.22,.52,.89"/><path class="cls-10" d="M40.42,30.27c1-.07,.88-1.29-.01-1.06-.87,.07-.84,1.17,.01,1.06"/><path class="cls-10" d="M40.43,29.93c.46-2.24,.77-4.53,.83-6.81,0-.67-1.03-.68-1.04,0,0,.42-.03,.85-.06,1.26-.12,1.66-.35,3.33-.67,4.96-.04,.23-.15,.49-.02,.71,.21,.38,.85,.31,.95-.12"/><path class="cls-10" d="M24.85,21.59c-.36-.25-.2-.88,.25-.92,.68-.06,1.37-.1,2.06-.14,1.37-.12,2.78,0,4.1-.4,.48-.25,.8-.78,1.09-1.18,.88-1.27,1.59-2.51,2.08-3.93,.09-.25,.16-.5,.21-.76,.18-.64,1.18-.38,1,.27-.22,1.09-1.2,3.25-2.28,4.81-.03,.04-.06,.09-.09,.13-.54,.76-1.1,1.36-1.6,1.6-1.34,.48-2.81,.36-4.22,.47-.47,.02-.94,.05-1.4,.08-.13,0-.27,.01-.41,.03-.12,.02-.25,.03-.36,.03-.15,0-.29-.02-.42-.11"/><path class="cls-10" d="M19.52,22.33c.2-.47,.82-.54,1.24-.75,1.42-.56,2.95-.72,4.45-.96,.68-.07,.81,.91,.14,1.02-1.7,.25-3.54,.46-5.06,1.27,.02-.01,.04-.02,.06-.04,0,0,0,0,0,0-.36,.31-.97-.08-.82-.54"/><path class="cls-10" d="M34.93,20.02c0-.08,0-.16,0-.24,0,0,0-.01,0-.02,0-.03,0-.07,0-.1,0-.06,0-.12,0-.19,.25,.1,.47,.26,.35,.56-.06,.14-.2,.23-.35,.23,0-.08,0-.16,0-.24"/><path class="cls-10" d="M33.03,19.73c-.12,0-.23-.02-.33-.11-.26-.25-.01-.71,.33-.64,.18,.01,.37,.04,.54,.08,0,0-.01,.02-.02,.03-.06,.08-.12,.15-.18,.23-.08,.1-.15,.21-.22,.32-.02,.04-.05,.07-.07,.11-.02,0-.04,0-.06,0"/><path class="cls-10" d="M28.26,28.61c-1.42-.42-.95-1.45-.52-2.46,.18-.34-.01-1,.52-1.03,.97,.18-.18,1.87-.21,2.44,0,.19,.26,.25,.41,.31,.48,.14,.28,.86-.2,.73"/><path class="cls-10" d="M35.5,38.33c-.8-.58-.13-1.7,.23-2.36,0,0,0,0,0,0,.24-.45,.98-.26,.97,.25-.05,.39-.37,.68-.46,1.07,.85-.45,1.39,.56,.6,.89-.43,.12-.9,.42-1.33,.15"/><path class="cls-10" d="M20.96,38c-.22-.17-.26-.46-.12-.68,.05-.07,.03-.16,.02-.24-.04-.19-.16-.37-.16-.57,0-.28,.24-.51,.52-.51,.46,0,.55,.5,.65,.84,.19,.55-.19,1.61-.9,1.16"/><path class="cls-10" d="M24.1,27.25c-2.16-.06-3.4-1.75-2.5-3.76,1.01-2.24,4.48-2.28,5.18,.16,.29,1.1-.03,2.35-.94,3.07-.45,.37-1.16,.75-1.74,.54m.36-.7c2.34-.46,2.22-4.14-.39-3.98-1.46,.06-2.51,1.9-1.72,3.15,.39,.54,1.11,.71,1.74,.77,.13,0,.27-.02,.38,.06"/><path class="cls-10" d="M23.69,25.8c-.82-.38-1-1.74-.22-2.25,.24-.13,.53-.16,.8-.2,.73,.04,1.31,.77,1.18,1.49-.07,.5-.47,1.06-1.03,1.01-.23,.11-.51,.05-.73-.05"/><path class="cls-10" d="M32.92,27.25c-2.16-.06-3.4-1.75-2.5-3.76,1.01-2.24,4.48-2.28,5.18,.16,.29,1.1-.03,2.35-.94,3.07-.45,.37-1.16,.75-1.74,.54m.36-.7c2.34-.46,2.22-4.14-.39-3.98-1.46,.06-2.51,1.9-1.72,3.15,.39,.54,1.11,.71,1.74,.77,.13,0,.27-.02,.38,.06"/><path class="cls-10" d="M32.51,25.8c-.82-.38-1-1.74-.22-2.25,.24-.13,.53-.16,.8-.2,.73,.04,1.31,.77,1.18,1.49-.07,.5-.47,1.06-1.03,1.01-.23,.11-.51,.05-.73-.05"/><path class="cls-10" d="M28.71,31.72c-.77-.22-1.51-.52-2.26-.8-.42,0-.53-.66-.11-.77,.36-.04,.69,.22,1.02,.3,.63,.18,1.22,.56,1.88,.55,1.01-.15,1.92-.9,2.67-1.53,.27-.21,.57-.71,.93-.37,.48,.49-.86,1.23-1.17,1.55-.76,.5-1.6,1.11-2.53,1.11-.15,0-.29-.01-.44-.05"/><path class="cls-8" d="M25.61,18.45c-.22-.42-1.29-.48-2.39-.12-1.11,.36-1.83,.99-1.61,1.41,.22,.42,1.29,.48,2.39,.12,1.11-.36,1.83-.99,1.61-1.41"/><path class="cls-10" d="M22.36,20.37c-1.41-.18-1.15-1.3-.16-1.8,.91-.52,2.12-.9,3.24-.63,.51,.11,.78,.55,.66,.94-.13,.48-.72,.74-1.22,.96-.23,.16-.57,.21-.84,.31-.53,.16-1.1,.27-1.67,.22m.47-.6c.56-.04,1.08-.24,1.6-.4,.25-.17,.6-.25,.82-.47,.54-.67-1.19-.43-1.56-.29-.62,.1-2.59,1.23-.86,1.16"/><path class="cls-7" d="M22.36,20.38c-1.41-.18-1.15-1.3-.16-1.8,.91-.52,2.12-.9,3.24-.63,.51,.11,.78,.55,.66,.94-.13,.48-.72,.74-1.22,.96-.23,.16-.57,.2-.84,.31-.53,.16-1.1,.27-1.67,.22Zm.47-.6c.56-.04,1.08-.24,1.6-.4,.25-.17,.6-.25,.82-.47,.54-.67-1.19-.43-1.56-.29-.62,.1-2.59,1.23-.86,1.16Z"/><path class="cls-8" d="M31.35,18.24c-.29,.39,.32,1.1,1.35,1.57,1.03,.47,2.1,.53,2.39,.14,.29-.4-.32-1.1-1.35-1.57-1.03-.47-2.1-.53-2.39-.14"/><path class="cls-10" d="M34.61,20.36c1.41-.18,1.15-1.3,.16-1.8-.91-.52-2.12-.9-3.24-.63-.51,.11-.78,.54-.66,.94,.13,.48,.72,.74,1.22,.96,.23,.16,.57,.21,.84,.31,.53,.16,1.1,.27,1.67,.22m-.47-.6c-.56-.04-1.08-.24-1.6-.4-.25-.17-.6-.25-.82-.47-.54-.67,1.19-.44,1.56-.29,.62,.1,2.59,1.23,.86,1.16"/><path class="cls-7" d="M34.61,20.36c1.41-.18,1.15-1.3,.16-1.8-.91-.52-2.12-.9-3.24-.63-.51,.11-.78,.55-.66,.94,.13,.48,.72,.74,1.22,.96,.23,.16,.57,.2,.84,.31,.53,.16,1.1,.27,1.67,.22Zm-.47-.6c-.56-.04-1.08-.24-1.6-.4-.25-.17-.6-.25-.82-.47-.54-.67,1.19-.43,1.56-.29,.62,.1,2.59,1.23,.86,1.16Z"/></g><g><path class="cls-1" d="M7.05,13.74s-2.91-4.38-1.74-12.09C5.52,.22,6.62,.22,7.44,.35c.74,.12,4.15,.79,8.42,3.25l1.12,10.96-9.94-.82Z"/><path class="cls-1" d="M49.76,13.74s2.91-4.38,1.74-12.09c-.22-1.42-1.32-1.42-2.14-1.29-.74,.12-4.15,.79-8.42,3.25l-6.37,5.36,10.31,6.23,4.87-1.45Z"/><path class="cls-4" d="M14.21,6.83c-2.56-2.41-4.85-3.02-5.21-3.08-.39-.06-.94-.17-.98,.52-.19,3.12,1.5,5.86,1.5,5.86l4.2,2.16,.48-5.45Z"/><path class="cls-4" d="M47.28,10.13s1.7-2.74,1.5-5.86c-.04-.69-.58-.58-.98-.52-.36,.06-2.65,.68-5.21,3.08v5.08l4.68-1.78Z"/><path class="cls-1" d="M51.45,22.28c0,9.25-10.33,15.14-23.07,15.14S5.31,31.53,5.31,22.28,15.64,3.92,28.38,3.92s23.07,9.11,23.07,18.36Z"/><ellipse class="cls-2" cx="19.48" cy="13.5" rx="2.03" ry="2.02"/><ellipse class="cls-10" cx="19.48" cy="13.42" rx="1.14" ry="1.14"/><ellipse class="cls-2" cx="37.26" cy="13.5" rx="2.03" ry="2.02"/><ellipse class="cls-10" cx="37.26" cy="13.42" rx="1.14" ry="1.14"/><path class="cls-3" d="M30.7,17.07c.05-1.11-.45-1.93-.45-1.93,.66-.48,1.13-1.21,1.13-1.21-.43-.31-1.97-.41-1.97-.41-.56-1.11-1.03-1.61-1.03-1.61-.65,.62-1.09,1.61-1.09,1.61,0,0-1.55,.1-1.97,.41,0,0,.48,.73,1.13,1.21,0,0-.5,.82-.45,1.93,0,0,1.37-.14,2.3-.88,.81,.6,1.75,.86,2.4,.88Z"/><ellipse class="cls-2" cx="14.93" cy="16.17" rx="2.06" ry=".98"/><ellipse class="cls-2" cx="41.68" cy="16.17" rx="2.06" ry=".98"/><path class="cls-11" d="M23.91,20.38s2.8,.34,4.44-3.23c0,0,1.22,3.72,4.51,3.23v12.47s-.16,4.01-.16,4.01l-3.16,.7-5.36-.38-.28-10.88v-5.91Z"/><path class="cls-5" d="M21.51,17.06s.15,3.32,2.83,3.32,3.74-2.26,3.97-4.12"/><path class="cls-5" d="M35.12,17.06s-.15,3.32-2.83,3.32-3.74-2.26-3.97-4.12"/><path class="cls-5" d="M23.91,20.38s-.04,13.12,.17,16.72"/><path class="cls-5" d="M32.86,20.38s.04,13.12-.17,16.72"/><path class="cls-5" d="M32.59,37.16s-4.37,.99-8.4,.01"/><path class="cls-2" d="M41.92,7.52c.7,.89,.26,1.58-.15,1.86-3.46,2.36-10.55-.41-12.38-3.88-.13-.24-.2-1.08,.64-1.4l6.66,3.08,5.23,.34"/><path class="cls-2" d="M14.85,7.52l3.66-1.58,8.22-1.84c.85,.32,.77,1.16,.64,1.4-1.88,3.57-8.86,6.27-12.38,3.88-.41-.28-.85-.97-.15-1.86"/><path class="cls-3" d="M27.44,4.8s.97-.38,1.99,0l1.07,.07-.55-.95c-1.6-.38-3.12,0-3.12,0l-.86,.91,1.47-.03Z"/><path class="cls-4" d="M25.97,2.79s.49,.76,.88,1.54c.11,.23,.11,.49-.01,.71-1.49,2.83-8.48,5.67-11.47,3.62-.37-.26-.57-.69-.52-1.14,.26-2.09,1-3.87,1-3.87l5.03-.87h5.09Z"/><path class="cls-4" d="M40.91,3.66s.74,1.77,1,3.87c.06,.45-.15,.88-.52,1.14-2.99,2.04-9.98-.8-11.47-3.62-.12-.22-.12-.49-.01-.71,.39-.78,.88-1.54,.88-1.54h4.09s6.03,.87,6.03,.87Z"/><ellipse class="cls-2" cx="20.9" cy="3.34" rx="5.07" ry="1.95" transform="translate(-.22 1.95) rotate(-5.31)"/><ellipse class="cls-2" cx="35.86" cy="3.34" rx="1.95" ry="5.07" transform="translate(29.21 38.74) rotate(-84.69)"/><path class="cls-3" d="M42.31,8.64s3.92,1.28,7.4,7c0,0,.39-.9-.38-2.38-2.02-3.9-5.67-5.99-7.54-6.58l.52,1.96Z"/><path class="cls-3" d="M14.43,8.64s-3.92,1.28-7.4,7c0,0-.39-.9,.38-2.38,2.02-3.9,5.67-5.99,7.54-6.58l-.52,1.96Z"/><ellipse class="cls-4" cx="20.92" cy="3.32" rx="3.9" ry="1.21" transform="translate(-.22 1.95) rotate(-5.31)"/><ellipse class="cls-4" cx="35.85" cy="3.32" rx="1.21" ry="3.9" transform="translate(29.22 38.7) rotate(-84.69)"/></g><g><polygon class="cls-8" points="10.46 51.95 10.92 49.04 12.49 47.31 13.57 45.72 13.76 43.49 14.32 41.77 14.08 40.97 13.07 40.1 10.97 41.13 9.78 38.01 9.29 37.05 8.17 36.69 7.2 37.28 6.75 39.63 5.54 38.66 3.84 39.08 3.84 40.52 2.76 40.97 2.4 41.77 2.4 43.09 1.07 44.01 .74 46.27 1.07 46.86 2.62 46.16 3.15 46.01 4.32 48.56 6.22 49.57 3.71 54.23 2.55 57.44 1.91 59.95 2.08 61.62 3.22 63.53 4.31 65.05 5.1 65.2 5.98 65.27 9.17 63.56 12.05 58.55 10.29 56.63 9.88 55.76 10.46 51.95"/><polygon class="cls-8" points="53.83 40.62 51.97 36.03 53.55 35.51 55.79 33.9 56.15 35.11 57.35 35.38 57.73 34.29 57.78 32.35 55.98 31.08 56.31 30.07 56.68 29.11 55.51 27.68 53.91 28.72 54.01 25.55 52.35 24.81 50.93 26.86 50.5 24.81 49.6 23.72 47.59 24.31 47.12 26.2 45.76 30 44.4 31.55 42.63 32.72 42.37 34.1 43.22 35.45 44.55 35.65 46.95 35.65 47.07 39.76 48.01 48.16 48.01 50.33 47.09 52.27 47.67 52.97 49.87 53.52 52.1 54.27 53.4 53.6 54.3 52.66 54.83 52.4 56.21 49.31 55.42 46.13 53.83 40.62"/><path class="cls-10" d="M47.96,47.74h0s.01,.05,.01,.05v.04s.03,.04,.03,.04v.04s.03,.04,.03,.04v.04s.02,.04,.02,.04v.04s.02,.03,.02,.03v.03s.02,.03,.02,.03v.03s.02,.03,.02,.03v.03s.02,.03,.02,.03v.03s.02,.03,.02,.03v.03s.01,.03,.01,.03v.03s.01,.03,.01,.03v.03s.01,.03,.01,.03v.03s0,.03,0,.03v.03s0,.03,0,.03v.03s0,.03,0,.03v.03s0,.03,0,.03v.03s0,.03,0,.03v.03s0,.02,0,.02v.03s0,.02,0,.02v.05s0,.02,0,.02c-.1-.39-.18-.79-.26-1.19"/><path class="cls-10" d="M49.6,53.94c-.66-.1-1.34-.17-1.94-.47-.58-.24-.2-1.14,.38-.89,.39,.2,.81,.27,1.23,.33h0s.03,.04,.03,.04l.03,.03,.03,.03,.03,.03,.03,.03,.03,.03,.03,.03,.03,.03,.03,.03,.03,.03,.03,.03,.03,.03,.03,.03,.03,.03,.03,.03,.03,.03,.03,.03,.03,.03,.03,.03,.03,.03,.03,.02,.03,.02,.03,.02,.03,.02,.03,.02,.03,.02,.02,.02,.03,.02,.02,.02,.02,.02,.02,.02,.02,.02,.03,.02,.02,.02,.03,.02,.03,.02,.03,.02,.03,.02,.03,.02,.03,.02,.03,.02,.03,.02,.03,.02,.03,.02,.03,.03,.03,.03,.03,.03,.03,.03,.03,.03,.03,.02c-.37-.06-.73-.17-1.09-.25"/><path class="cls-10" d="M47.69,53.55c-.28-.1-.58-.17-.86-.28-.42-.15-.41-.8,0-.95,.39-.11,.79,.16,1.17,.25,.56,.2,.37,1-.16,1-.05,0-.1,0-.15-.02"/><path class="cls-10" d="M12.79,50.83c.13-.05,.24-.15,.29-.28-.06,.12-.16,.22-.29,.28"/><path class="cls-10" d="M46.76,58.28c-.18-.02-.35-.13-.41-.36-.49-2.26-.26-4.61,.21-6.85,.32-1.28,.56-2.69,1.18-3.88h0s.01,.05,.01,.05v.03s.03,.03,.03,.03l.02,.03v.04s.03,.03,.03,.03l.02,.04v.04s.03,.04,.03,.04l.02,.04v.04s.03,.04,.03,.04v.04s.03,.04,.03,.04v.04s.03,.04,.03,.04v.04s.03,.04,.03,.04v.04s.03,.04,.03,.04v.04s.02,.04,.02,.04v.03s.02,.04,.02,.04v.03s.02,.03,.02,.03v.03s.02,.03,.02,.03v.03s.02,.03,.02,.03v.03s.02,.03,.02,.03v.03s.01,.03,.01,.03v.03s.01,.03,.01,.03v.03s.01,.03,.01,.03v.03s0,.03,0,.03v.03s0,.03,0,.03v.03s0,.03,0,.03v.03s0,.03,0,.03v.03s0,.03,0,.03v.03s0,.03,0,.03v.02c-.64,1.84-.94,3.8-1.09,5.73-.04,1.03,0,2.07,.22,3.08,.12,.39-.21,.65-.53,.65-.02,0-.04,0-.06,0"/><path class="cls-10" d="M49.48,54.96c-.28-.03-.49-.29-.46-.57,.03-.28,.29-.48,.57-.45,.28,.03,.49,.29,.46,.57-.03,.26-.26,.46-.52,.46-.02,0-.04,0-.06,0"/><path class="cls-10" d="M47.28,58.46c-.12-.01-.23-.07-.35-.19-.26-.33,0-.67,.26-.89,.4-.48,.73-1.03,1.06-1.56,.36-.61,.66-1.1,.88-1.73,.18-.48,.93-.4,1,.11-.23,1.17-1.05,2.19-1.67,3.2-.26,.35-.67,1.06-1.13,1.06-.02,0-.03,0-.05,0"/><path class="cls-10" d="M48.4,50.29c-.16-.45-.29-.91-.4-1.37v-.04s0-.02,0-.02v-.02s0-.03,0-.03v-.02s0-.03,0-.03v-.03s0-.03,0-.03v-.03s0-.03,0-.03v-.03s0-.03,0-.03v-.03s0-.03,0-.03v-.03s0-.03,0-.03v-.03s-.01-.03-.01-.03v-.03s-.01-.03-.01-.03v-.03s-.01-.03-.01-.03v-.03s-.01-.03-.01-.03v-.03s-.02-.03-.02-.03v-.03s-.02-.03-.02-.03v-.03s-.02-.03-.02-.03v-.03s-.02-.03-.02-.03v-.04s-.02-.04-.02-.04v-.04s-.03-.04-.03-.04v-.04s-.03-.04-.03-.04v-.04s-.02-.01-.02-.01c-.23-1.18-.41-2.38-.69-3.54-.13-1.47-.51-2.91-.6-4.39-.07-.91-.16-1.82-.23-2.73h.04s.05,0,.05,0h.05s.05,0,.05,0h.05s.05,0,.05,0h.05s.05,0,.05,0h.05s.05,0,.05,0h.05s.05,0,.05,0h.05s.04,0,.04,0h.05s.05,0,.05,0h.04s.04,0,.04,0h.04s.04,0,.04,0h.04s.04,0,.04,0h0c.06,.88,.11,1.76,.21,2.63,.13,1.56,.48,3.09,.65,4.65,.47,1.77,.58,3.65,1.18,5.37,.28,.45-.05,.88-.4,.88-.17,0-.35-.1-.45-.36"/><path class="cls-10" d="M50.47,54.18l-.03-.02-.03-.03-.03-.03-.03-.03-.03-.03-.03-.03-.03-.02-.03-.02-.03-.02-.03-.02-.03-.02-.03-.02-.03-.02-.03-.02-.03-.02-.03-.02-.03-.02-.02-.02-.02-.02-.02-.02-.03-.02-.02-.02-.03-.02-.02-.02-.03-.02-.03-.02-.03-.02-.03-.02-.03-.02-.03-.02-.03-.02-.03-.03-.03-.03-.03-.03-.03-.03-.03-.03-.03-.03-.03-.03-.03-.03-.03-.03-.03-.03-.03-.03-.03-.03-.03-.03-.03-.03-.03-.03-.03-.03-.03-.03-.03-.03-.03-.03h0c.19,.03,.39,.05,.58,.09,1.11,.33,2.33,.35,3.42-.03,1.1-.77,2.03-2.94,2.27-4.24,.48-2.6-.99-4.99-1.88-7.35-.48-1.42-1.23-2.72-1.73-4.13,0-.03-.02-.05-.03-.08h.02s.07,0,.07,0h.07s.06-.01,.06-.01h.06s.06-.01,.06-.01h.06s.06,0,.06,0h.06s.06,0,.06,0h.06s.05,0,.05,0h.11s.05,0,.05,0h.05s.06,0,.06,0h.06s.02,0,.02,0c.86,2.04,1.74,4.07,2.56,6.13,.91,2.17,1.5,4.11,.83,6.45-.58,1.5-1.21,3.21-2.62,4.13-.81,.34-1.72,.37-2.59,.39-.15,0-.29-.02-.43-.05"/><path class="cls-10" d="M46.66,42.7s-.03-.07-.05-.11h0s0-.03,0-.03v-.02s0-.02,0-.02v-.04s0-.02,0-.02v-.02s0-.02,0-.02v-.05s0-.02,0-.02v-.17s0-.02,0-.02v-.05s0-.03,0-.03v-.05s0-.03,0-.03v-.03s0-.03,0-.03v-.03s0-.03,0-.03v-.03s0-.03,0-.03v-.03s0-.03,0-.03v-.03s0-.03,0-.03v-.03s0-.03,0-.03v-.03s0-.03,0-.03v-.03s0-.03,0-.03v-.03s0-.03,0-.03v-.03s0-.03,0-.03v-.03s0-.03,0-.03v-.03s0-.03,0-.03v-.03s0-.03,0-.03v-.03s0-.04,0-.04v-.04s0-.04,0-.04v-.04s0-.04,0-.04v-.04s0-.04,0-.04v-.04s0-.04,0-.04v-.04s0-.04,0-.04v-.04s0-.04,0-.04v-.04s0-.04,0-.04v-.04s-.01-.04-.01-.04v-.04s-.01-.04-.01-.04v-.04s-.01-.03-.01-.03v-.03s-.01-.04-.01-.04v-.04s-.01-.04-.01-.04v-.04s-.01-.04-.01-.04v-.04s-.01-.04-.01-.04v-.04s-.01-.04-.01-.04v-.04s-.01-.04-.01-.04v-.04s-.01-.04-.01-.04v-.04s-.01-.04-.01-.04v-.04s-.01-.04-.01-.04v-.03s0,0,0,0c.5,.84,.87,1.76,1.29,2.65,.17,.4-.17,.71-.51,.71-.18,0-.36-.09-.45-.31"/><path class="cls-10" d="M46.61,42.66h0v-.05s0-.02,0-.02v-.05s0-.02,0-.02v-.02s0-.02,0-.02v-.02s0-.02,0-.02v-.07s0-.02,0-.02v-.17s0-.02,0-.02v-.05s0-.03,0-.03v-.03s0-.03,0-.03v-.03s0-.03,0-.03v-.03s0-.03,0-.03v-.03s0-.03,0-.03v-.03s0-.03,0-.03v-.03s0-.03,0-.03v-.02c.33,.15,.49,.68,.07,.92-.02,0-.03,.02-.05,.03h0Z"/><path class="cls-10" d="M48,48.81v-.02s0-.03,0-.03v-.03s0-.03,0-.03v-.03s0-.03,0-.03v-.03s0-.03,0-.03v-.03s0-.03,0-.03v-.03s-.01-.03-.01-.03v-.03s-.01-.03-.01-.03v-.03s-.01-.03-.01-.03v-.03s-.01-.03-.01-.03v-.03s-.01-.03-.01-.03v-.03s-.02-.03-.02-.03v-.03s-.02-.03-.02-.03v-.03s-.02-.03-.02-.03v-.03s-.02-.03-.02-.03v-.04s-.02-.04-.02-.04v-.04s-.03-.04-.03-.04v-.04s-.03-.04-.03-.04v-.04s-.03-.04-.03-.04v-.04s-.03-.04-.03-.04l-.02-.04v-.04s-.03-.04-.03-.04v-.04s-.03-.03-.03-.03l-.02-.04v-.03s-.03-.03-.03-.03v-.03s-.03-.03-.03-.03v-.03s-.03-.03-.03-.03h0c.15-.29,.32-.56,.51-.81,.03-.02,.06-.03,.08-.04,0,.04,.01,.07,.02,.11,.05,.26,.12,.51,.18,.77,.04,.15,.08,.3,.12,.45-.17,.38-.31,.76-.45,1.15v-.02Z"/><path class="cls-10" d="M45.23,36.24c-.18-.14-.41-.19-.63-.26-.26-.1-.49-.25-.76-.31-.5-.1-1.07,.05-1.51-.27-.39-.26-.62-.72-.59-1.19,.06-.67-.04-1.43,.35-2,1.19-1.37,2.89-1.28,3.48-3.34,.3-.8,.56-1.61,.88-2.4,.21-.7,.29-1.45,.63-2.11,.25-.58,1.81-1.25,1.91-.29-.03,.73-1.05,.29-1.16,1.01-.16,.44-.26,.89-.35,1.34-.22,.73-.53,1.44-.77,2.17-.48,1.61-1.26,2.7-2.82,3.43-.4,.23-.88,.48-1.08,.9-.02,.47-.24,1.21,0,1.62,.16,.15,.37,.14,.59,.13,.14,0,.28,0,.41,.03,.45,.04,.78,.23,1.14,.39,.22,.07,.45,.13,.65,.25,.4-.28,.52-.8,.4-1.25-.34-.27-.71-.56-1.15-.66-.78-.16-.55-1.67,1.19-.51,.77,.47,1.08,.91,.95,1.83-.04,.63-.69,1.61-1.39,1.61-.13,0-.26-.03-.38-.1"/><path class="cls-10" d="M48.98,28.07c-.64-.18-1.64-1.82-.54-1.97,.61,0,.41,.83,.87,1.05,.79-.06,.83-.5,.7-1.17-.11-.52,.01-1.75-.81-1.59-.32,.08-.63,.21-.96,.26-.57,0-.67-.82-.12-.95,1.29-.48,2.41-.44,2.71,1.12,.1,.42,.12,.84,.17,1.27,.05,.34,.11,.71-.07,1.03-.23,.62-.93,.99-1.59,.99-.13,0-.25-.01-.37-.04"/><path class="cls-10" d="M52.32,29.6c-.93-.22-1.61-1.26-1.26-2.17,.14-.39,.75-.38,.9,0,.1,.24-.07,.48,.01,.72,.14,.4,.66,.66,1.03,.37,.05-.88,.21-1.75,.22-2.63-.36-.28-.82-.52-1.24-.63-.2,.43-.5,.8-.68,1.24-.25,.35-.3,1-.82,1.03-.27,0-.49-.22-.49-.48,0-.21,.14-.37,.21-.56,.27-.56,.59-1.1,.9-1.65,.39-.76,1.22-.59,1.82-.23,.39,.14,.72,.39,1.05,.64,.47,.6,.12,1.54,.08,2.24-.02,1.28-.11,2.14-1.54,2.14-.06,0-.13,0-.19,0"/><path class="cls-10" d="M54.49,31.43c-.53-.21-.99-.66-.99-1.25-.06-.44-.08-.92,.23-1.28-.47,.41-1.1-.28-.66-.72,.55-.32,2.03-1.75,2.6-1.17,.52,.81,1.78,1.63,1.25,2.72-.31,.42-.74,.72-1.05,1.15-.28,.36-.56,.65-.96,.65-.13,0-.27-.03-.42-.1m0-1.94c-.14,.22-.02,.52,0,.76,.06,.14,.24,.22,.38,.29,.39-.44,.76-.89,1.19-1.29,.03-.16-.09-.27-.18-.39-.21-.34-.49-.62-.75-.91-.37,.23-.75,.46-1.09,.73,.04,0,.08-.01,.12-.01,.4,0,.65,.52,.34,.83"/><path class="cls-10" d="M51.17,36.45c-.57,0-1.05-.32-1.6-.39-.37-.03-.89,0-.9-.51,.06-.75,1.04-.43,1.51-.37,.4,.17,.8,.32,1.25,.33,.19,.03,.34-.07,.51-.15,.42-.18,.84-.34,1.23-.58,.25-.22,.54-.4,.79-.61,.16-.21,.36-.39,.52-.59,.08-.14,.15-.3,.28-.4,.35-.21,.87-.55,1.2-.12,.14,.2,.11,.44,.16,.67,.12,.36,.21,.78,.56,.97,.2-.79,.39-1.67,.27-2.49-.25-.26-.6-.38-.83-.67-.34-.16-.84-.32-.93-.73-.04-.55,.56-.7,.93-.36,.18,.14,.4,.18,.58,.3,.24,.26,.56,.41,.82,.65,.44,.3,.45,.85,.45,1.33,.02,.52-.12,1.03-.19,1.55-.07,.38-.08,.83-.4,1.1-.88,.88-1.94-.31-2.14-1.2-.65,.81-1.48,1.49-2.46,1.88-.43,.18-.85,.43-1.31,.43-.1,0-.19,0-.3-.03"/><path class="cls-10" d="M47.31,37.55h-.04s-.04,0-.04,0h-.04s-.04,0-.04,0h-.04s-.04,0-.04,0h-.05s-.05,0-.05,0h-.05s-.05,0-.05,0h-.05s-.05,0-.05,0h-.05s-.05,0-.05,0h-.05s-.05,0-.05,0h-.05s-.05,0-.05,0h-.05s-.05,0-.05,0h-.05s-.04,0-.04,0c-.08-.95-.16-1.9-.2-2.85,.27-.69,1.13-.32,.96,.37,.12,.84,.18,1.68,.24,2.52h0Z"/><path class="cls-10" d="M51.38,35.78c.29-.5,1.1-.12,.88,.42,.19,.45,.38,.91,.57,1.36h-.02s-.06,0-.06,0h-.05s-.06,0-.06,0h-.06s-.05,0-.05,0h-.16s-.06,0-.06,0h-.06s-.06,0-.06,0h-.06s-.06,0-.06,0h-.06s-.06,.01-.06,.01h-.06s-.07,.01-.07,.01h-.02c-.2-.59-.76-1.2-.42-1.82"/><path class="cls-10" d="M10.33,41.01c-.31-.69-.61-1.37-.94-2.04-.1,.46-.19,.95-.5,1.32-.54,.59-1.57,.66-2.13,.07-.43-.54-.24-1.27-.22-1.9,.1-.48-.17-1.05,.19-1.45,1.26-1.05,2.71-.88,3.2,.79,.33,.82,.78,1.58,1.09,2.41,.18,.32,.4,.8-.04,1.02-.07,.03-.14,.05-.21,.05-.18,0-.36-.1-.44-.26m-2.82-3.39c.1,.7-.14,1.41,0,2.1,.1,.07,.22,.11,.35,.08,.52-.07,.52-.75,.61-1.15-.07-.33,.14-.68,.5-.66-.13-.48-.37-.67-.67-.67-.23,0-.5,.12-.78,.3"/><path class="cls-10" d="M4.55,42.63c-.86-.18-.82-1.22-.92-1.91-.05-.37-.21-.73-.22-1.11-.06-.57,.47-.86,.95-.98,.44-.17,.97-.32,1.41-.07,.31,.18,.6,.43,.93,.58,.26,0,.49,.19,.5,.45,.03,.43-.47,.62-.82,.46-.97-.42-.87-.93-1.99-.41,.2,.67,.2,1.38,.38,2.04,.69,.06,.95-.25,.89-.92-.03-.63,.92-.69,.97-.06,.13,1.2-.6,1.96-1.7,1.96-.12,0-.25,0-.38-.03"/><path class="cls-10" d="M5.85,42.8c-.14-.39-.51-.82-.25-1.24,.14-.22,.46-.28,.67-.13,.14,.09,.21,.25,.21,.41,.09,.22,.2,.43,.29,.65,.13,.37-.18,.63-.48,.63-.18,0-.36-.09-.44-.32m.58-.75s.04-.09,.05-.13c0-.02,0-.04,0-.06h0c0,.05-.02,.12-.05,.18"/><path class="cls-10" d="M8.01,41.76c-.26-.37-.69-.63-.83-1.07-.21-.71,.83-.99,.95-.25,.29,.38,1.07,.86,.57,1.36-.09,.08-.21,.12-.32,.12-.14,0-.27-.05-.36-.16"/><path class="cls-10" d="M2.42,44.54s.02,0,.03,0c0,0-.02,0-.02,0t0,0"/><path class="cls-10" d="M2.5,44.52c-.05,0-.11-.01-.16-.01-.19-.09-.31-.24-.37-.44,0-.06,0-.12,0-.18,0-.14-.01-.29-.02-.43,0-.02,0-.03,0-.05,0-.48-.05-.93-.07-1.41-.19-.97,.79-1.37,1.56-1.6,.49-.55,1.21,.27,.68,.74-.38,.26-.89,.29-1.27,.57-.01,.66,.11,1.29,.06,1.94,.36,.04,.57-.23,.71-.52,.2-.25,.25-.53,.19-.84-.04-.63,.92-.69,.97-.06,.12,.75-.29,1.69-.96,2.13-.14-.01-.27,0-.4,.05,0,0-.01,0-.02,0h0c-.09,.01-.17,.02-.26,.03-.09,.02-.18,.05-.28,.07-.01,0-.02,0-.03,0-.02,0-.04,0-.05,0-.03,0-.06,0-.09,0-.06,0-.11,0-.16,.01,0,0-.01,0-.02,0"/><path class="cls-10" d="M4.44,44.85c-.06-.16-.17-.31-.31-.4-.08-.19-.24-.34-.33-.53-.43-.75,.77-1.26,.9-.38,.69,.8,.35,1.36-.06,1.36-.07,0-.14-.02-.21-.05"/><path class="cls-10" d="M3.59,44.34c-.06,0-.12,.02-.17,.05,0,0-.01,0-.02,0h0c-.09,.01-.17,.02-.25,.03-.09,.02-.18,.05-.27,.07,.14-.25,.49-.31,.72-.16"/><path class="cls-10" d="M1.97,44.15c0-.09,0-.18,0-.26-.01-.33-.04-.66-.05-.99,.33-.11,.64-.06,.72,.39,.04,.41-.4,.49-.66,.67,0,.07,0,.13,0,.2,0,0,0,0,0,0"/><path class="cls-10" d="M6.37,50.03s-.03-.01-.04-.02h0s-.01-.02-.01-.02h-.02s-.01-.03-.01-.03h-.01s-.01-.03-.01-.03h-.01s-.01-.03-.01-.03h-.01s-.01-.02-.01-.02h-.01s-.01-.02-.01-.02h-.01s-.01-.02-.01-.02h-.01s-.01-.02-.01-.02h-.01s-.01-.02-.01-.02h-.01s-.01-.02-.01-.02h-.01s0-.02,0-.02h-.01s0-.01,0-.01h-.01s0-.01,0-.01h0s0-.01,0-.01h0s0-.01,0-.01h0s0,0,0,0h0s0,0,0,0h0s0,0,0,0h0s0,0,0,0h0s0,0,0,0h0s0,0,0,0h0s0,0,0,0h-.01s0,0,0,0h0s-.01,0-.01,0h-.01s0,0,0,0h-.01s-.01,0-.01,0h-.01s-.01,0-.01,0h-.01s-.01,0-.01,0h-.01s-.01,0-.01,0h-.01s-.01,0-.01,0h-.01s-.01,0-.01,0h-.01s-.01,0-.01,0h-.02s-.01,0-.01,0h-.1s-.01,0-.01,0h-.03s-.01,0-.01,0h-.01s-.01,0-.01,0h-.02s-.01,0-.01,0c-.02,0-.03-.02-.05-.03,0,0,0,0,0,0-.02-.03-.05-.04-.08-.05-.01,0-.03,0-.04-.01-.66-.38-1.18-.91-1.43-1.74-.22-.42-.37-.85-.5-1.3,.05-.04,.08-.09,.11-.14,.01-.03,.03-.05,.05-.08h0s0,0,.01,0c.03,0,.05-.01,.08-.02,.06,0,.12-.01,.18-.02,.1,0,.2,0,.3,0,0,0,0,0,0,0,.07,.08,.16,.14,.26,.18,.13,.4,.3,.8,.49,1.18,.15,.45,.44,.84,.86,1.07,.33,.17,.69,.29,1.03,.45,.54,.18,.34,.94-.15,.94-.05,0-.11,0-.17-.03"/><polyline class="cls-10" points="5.29 49.55 5.29 49.55 5.29 49.55 5.29 49.55"/><path class="cls-10" d="M3.3,44.41s-.05,0-.08,0c.02,0,.05,0,.08,0"/><path class="cls-10" d="M11.2,43.12c-1-.14-1.54-1.29-.82-2.06,.47-.49,1.13-.74,1.64-1.18,.17-.59,1.1-.34,.96,.26-.31,.8-1.33,.99-1.89,1.58-.28,.4,.42,.55,.71,.47,.35-.16,.84-.46,1.09,.01,.25,.65-.68,.97-1.32,.97-.14,0-.26-.01-.36-.04"/><path class="cls-10" d="M11.27,49.05c-.67-.62,.49-1.28,.86-1.73,.25-.38,.4-.81,.6-1.21,.53-1.03,.48-2.21,.9-3.27,.1-.52,.4-1.03,.24-1.56-.24-.35-.54-.77-.96-.88-.49,.77-1.54-.07-.76-.6,1.04-1.2,2.94,.82,2.74,2-.13,.85-.48,1.65-.66,2.48-.09,.86-.33,1.68-.72,2.46-.27,.54-.46,1.14-.95,1.53-.38,.21-.6,.88-1.02,.88-.08,0-.17-.02-.27-.08"/><path class="cls-10" d="M6.19,49.88h-.01s-.01-.02-.01-.02h-.01s-.01-.02-.01-.02h-.01s-.01-.02-.01-.02h-.01s-.01-.02-.01-.02h-.01s-.01-.02-.01-.02h-.01s-.01-.02-.01-.02h0s0-.01,0-.01h0s0-.01,0-.01h0s0-.01,0-.01h0s0,0,0,0h0s0,0,0,0h0s0,0,0,0h0s0,0,0,0h0s0,0,0,0h0s0,0,0,0h0s0,0,0,0h0s0,0,0,0h0s-.01,0-.01,0h0s-.01,0-.01,0h-.01s-.01,0-.01,0h-.01s-.01,0-.01,0h-.01s-.01,0-.01,0h-.01s-.01,0-.01,0h-.01s-.01,0-.01,0h-.01s-.01,0-.01,0h-.01s-.01,0-.01,0h-.01s-.01,0-.01,0h-.01s-.01,0-.01,0h-.11s-.01,0-.01,0h-.01s-.01,0-.01,0h-.01s-.01,0-.01,0h-.01s-.01,0-.01,0h-.02s-.01,0-.01,0h-.01s-.02-.02-.03-.03c-.02-.03-.05-.04-.08-.05-.02,0-.04-.01-.06-.02,.13-.18,.25-.35,.38-.53,.21-.17,.51-.16,.69,.04,.21,.24,.09,.54-.1,.83h0Z"/><polyline class="cls-10" points="5.22 49.58 5.22 49.58 5.21 49.59 5.22 49.58"/><polyline class="cls-10" points="5.22 49.58 5.22 49.58 5.22 49.58 5.22 49.58"/><polyline class="cls-10" points="5.22 49.58 5.22 49.58 5.22 49.58 5.22 49.58"/><polyline class="cls-10" points="5.29 49.55 5.3 49.55 5.29 49.55"/><path class="cls-10" d="M10.76,49.26s0-.05,.01-.08c0-.06,.01-.13,.02-.2,0-.04,0-.08,.01-.12,0-.06,.02-.12,.02-.18,0-.03,.01-.07,.02-.1,0-.03,0-.05,0-.08,.12-.14,.26-.27,.37-.4,.21-.31,.64-.59,.95-.24,.42,.56-.4,.96-.67,1.37,0,.02,0,.03-.01,.05h0s0-.02,0-.02h0s0-.02,0-.02h0s0-.02,0-.02h0s0-.01,0-.01h0s0-.01,0-.01h0s0,0,0,0h0s0,0,0,0h0s0,0,0,0h-.01s0,0,0,0h0s-.01,0-.01,0h0s-.01,0-.01,0h-.04s-.01,0-.01,0h-.01s-.01,0-.01,0h-.01s-.01,0-.01,0h-.01s-.01,0-.01,0h-.01s-.01,0-.01,0h-.01s-.01,0-.01,0h-.01s-.01,0-.01,0h-.01s-.01,0-.01,0h-.01s-.01,0-.01,0h-.01s-.01,0-.01,0h-.01s-.01,0-.01,0h-.01s-.01,0-.01,0h-.01s-.01,0-.01,0h-.01s-.01,0-.01,0h-.01s-.01,0-.01,0h-.01s-.01,0-.01,0h-.01s-.01,0-.01,0h-.01s-.01,0-.01,0h-.01s-.01,0-.01,0h-.01s-.01,0-.01,0h-.01s-.01,0-.01,0h-.01s-.01,0-.01,0h0s0-.02,0-.03"/><path class="cls-10" d="M.98,47.17c-1.43-.32-1.04-1.34-.45-2.27,.3-.39,.06-1.14,.7-1.17,1.15,.23-.02,1.84-.27,2.43,.39,.21,.8-.19,1.05-.45,.15-.22,.22-.53,.51-.61,.43-.11,.77,.29,1.09,.51,.2,.12,.38,.26,.52,.44,.56,.71-.46,1.42-.79,.56-.16-.15-.35-.24-.51-.38-.38,.49-.99,.96-1.64,.96-.07,0-.14,0-.22-.02"/><path class="cls-10" d="M1.3,44.64c-.55-.08-.52-.67-.19-1,.19-.21,.49-.18,.75-.24,.11-.04,.23-.07,.35-.03,.4,.09,.49,.69,.12,.88-.16,.08-.34,.12-.52,.14-.08,.16-.26,.25-.44,.25-.02,0-.04,0-.06,0"/><path class="cls-10" d="M5.87,49.45h.01s.01,0,.01,0h.01s.01,0,.01,0h.01s.01,0,.01,0h.01s.01,0,.01,0h.01s.01,0,.01,0h.01s.01,0,.01,0h.01s.01,0,.01,0h.01s.01,0,.01,0h.01s.01,0,.01,0h.01s.01,0,.01,0h.01s.01,0,.01,0h.01s.01,0,.01,0h.04s.01,0,.01,0h.01s.01,0,.01,0h.02s.01,0,.01,0h.01s.01,0,.01,0h.01s.01,0,.01,0h.01s.01,0,.01,0h0s.01,0,.01,0h.01s0,0,0,0h0s.01,0,.01,0h0s0,0,0,0h0s0,0,0,0h0s0,0,0,0h0s0,0,0,0h0s0,0,0,0h0s0,0,0,0h.01s0,0,0,0h.01s.01,.01,.01,.01h.01s.01,.01,.01,.01h.01s0,.01,0,.01h.01s.01,.02,.01,.02h.01s.01,.02,.01,.02h.01s.01,.02,.01,.02h.01s.01,.02,.01,.02h.01s.01,.02,.01,.02h.01s.01,.02,.01,.02h.02s.01,.02,.01,.02h.02s.02,.02,.02,.02h.02s.02,.02,.02,.02h.02s.02,.03,.02,.03h0c-.33-.07-.65-.16-.95-.27"/><path class="cls-10" d="M2.82,58.07l-.06-.08-.06-.07-.06-.07-.06-.07-.06-.07-.06-.07-.06-.07-.06-.07-.07-.07-.07-.07-.08-.07-.05-.04c.19-.54,.43-1.06,.64-1.59,.87-2.06,1.8-4.11,2.86-6.08h.02s.02-.01,.02-.01h.02s.02-.01,.02-.01h.01s.02-.01,.02-.01h.02s.01,0,.01,0h.01s.01,0,.01,0h.01s.01,0,.01,0h.01s.01,0,.01,0h.01s.01,0,.01,0h.01s.01,0,.01,0h.01s.01,0,.01,0h.01s.01,0,.01,0h.01s.01,0,.01,0h.01s.01,0,.01,0h.01s.01,0,.01,0h.01s.01,0,.01,0h.01s.01,0,.01,0h.01s.01,0,.01,0h.01s.01,0,.01,0h.01s.01,0,.01,0h.01s.01,0,.01,0h.01s.01,0,.01,0h.01s.01,0,.01,0h.01s.01,0,.01,0h.01s.01,0,.01,0h.04s.01,0,.01,0h.01s.01,0,.01,0h.01s.01,0,.01,0h.01s.01,0,.01,0h.01s.01,0,.01,0h.01s.01,0,.01,0h.01s0,0,0,0h.01s0,0,0,0h0s0,0,0,0h0s0,0,0,0h0s0,0,0,0h0s0,0,0,0h0s0,0,0,0h0s.01,0,.01,0h0s0,0,0,0h0s.01,0,.01,0h0s.01,.01,.01,.01h.01s.01,.01,.01,.01h.01s.01,.01,.01,.01h.01s.01,.02,.01,.02h.01s.01,.02,.01,.02h.01s.01,.02,.01,.02h.01s.01,.02,.01,.02h.01s0,.01,0,.01c-.16,.31-.39,.63-.48,.86-.68,1.25-1.25,2.55-1.85,3.84-.5,1.26-1.14,2.48-1.51,3.78h0Z"/><path class="cls-10" d="M8.9,60.6c-.03-.21-.09-.41-.16-.6,.17-.85,.33-1.69,.54-2.53,.25-1.79,.44-3.6,.89-5.35,.26-1.13,.6-2.27,.67-3.43,0,0,0,0,0,0,0-.02,0-.04,.01-.07h.01s.01,0,.01,0h.01s.01,0,.01,0h.01s.01,0,.01,0h.01s.01,0,.01,0h.01s.01,0,.01,0h.01s.01,0,.01,0h.01s.01,0,.01,0h.01s.01,0,.01,0h.01s.01-.01,.01-.01h.01s.01,0,.01,0h.01s.01,0,.01,0h.01s.01,0,.01,0h.01s.01,0,.01,0h.01s.01-.01,.01-.01h.01s.01,0,.01,0h.01s.01,0,.01,0h.01s.01-.01,.01-.01h.01s.01,0,.01,0h.01s.01,0,.01,0h.01s.01,0,.01,0h.01s.01,0,.01,0h.01s.01,0,.01,0h.01s.01,0,.01,0h.01s.01,0,.01,0h.01s.01,0,.01,0h.01s.01,0,.01,0h.01s.01,0,.01,0h.01s.01,0,.01,0h.01s.01,0,.01,0h.01s.01,0,.01,0h.01s.01,0,.01,0h.01s.01,0,.01,0h.01s.01,0,.01,0h.01s.01,0,.01,0h.01s.01,0,.01,0h.01s0,0,0,0h.01s.01,0,.01,0h.01s.01,0,.01,0h.02s0,0,0,0h.01s0,0,0,0h0s0,0,0,0h0s0,0,0,0h0s0,0,0,0h.01s0,.01,0,.01h0s0,.02,0,.02h0s0,.02,0,.02h0s0,.02,0,.02c-.14,1.7-.62,3.39-.99,5.07-.41,1.98-.52,3.98-1.02,5.95-.06,.17-.12,.53-.2,.96-.04,.04-.08,.09-.13,.13-.02,.02-.04,.04-.06,.05-.03,.02-.05,.03-.08,.05-.02,.01-.04,.02-.07,.03-.01,0-.03,0-.04,.01,0,0-.01,0-.02,0h-.02c-.11,0-.23-.02-.34-.04"/><path class="cls-10" d="M8.9,60.6c-.02-.12-.04-.24-.08-.35,.05-.03,.1-.05,.16-.06,.31-.03,.47,.1,.53,.31-.02,.02-.04,.03-.06,.04-.03,.02-.05,.03-.08,.05-.02,.01-.04,.02-.07,.03-.01,0-.03,0-.04,.01,0,0-.01,0-.02,0h-.02c-.11,0-.23-.02-.34-.04"/><path class="cls-10" d="M11.52,58.47c.12,.03,.27,.02,.39,0,.02,0,.05,0,.07-.01h.02v.1c0,.13,0,.27,.02,.4-.17-.16-.33-.32-.5-.49"/><path class="cls-10" d="M10.16,57.08c-.34-.33-.93-1-.28-1.33,.29-.13,.48,.04,.64,.24,0,.03-.01,.06-.02,.09-.02,.1-.03,.21-.04,.32,0,.03,0,.06-.01,.09-.04,.05-.09,.1-.16,.13,.06-.03,.11-.08,.15-.13-.01,.12-.03,.24-.02,.36,0,.01,0,.03,0,.04-.01,.06-.03,.13-.04,.19-.01,.08-.02,.17,0,.24-.08-.08-.15-.16-.23-.24"/><path class="cls-10" d="M11.59,60.25l-.03-.07-.03-.07-.03-.06-.03-.06-.03-.06-.03-.06-.03-.06-.03-.05-.03-.05-.03-.05-.03-.04-.03-.04-.03-.04-.03-.04-.03-.03-.03-.03-.03-.03-.03-.03-.03-.02c.12-.23,.25-.46,.38-.68,.04-.07,.07-.14,.11-.21,.01,0,.02,0,.03,.01,.13,.04,.28,.02,.41,0,.02,0,.05,0,.07-.01h.02v.1c0,.2,.01,.39,.03,.58,0,.09,.01,.18,.02,.26-.14,.26-.29,.55-.45,.85h0Z"/><path class="cls-10" d="M11.59,59.54c-.61-.19-.24-.86-.13-1.28,.06-.46,.49-.96,.94-.56,.37,.44-.16,1.02-.21,1.5-.06,.21-.26,.35-.47,.35-.04,0-.08,0-.13-.02"/><path class="cls-10" d="M5.5,65.83c-1.6-.11-2.42-1.49-3.15-2.8-.98-1.48-1.06-3.14-.52-4.79,.07-.45,.2-.89,.36-1.32l.05,.04,.08,.07,.07,.07,.07,.07,.06,.07,.06,.07,.06,.07,.06,.07,.06,.07,.06,.07,.06,.07,.06,.08h0c-.08,.28-.14,.55-.19,.82-.45,1.35-.37,2.75,.44,3.95,1.09,2.03,2.06,3.09,4.39,1.78,.02-.02,.05-.03,.07-.05-.02,.09-.02,.18-.01,.27,0,.08,.03,.15,.06,.21,.03,.06,.09,.11,.14,.15,0,.04,0,.09,0,.13,0,.07,.02,.14,.06,.2-.51,.28-1.04,.51-1.61,.58-.15,.02-.3,.02-.45,.02-.04,0-.08,0-.13,0-.07,0-.14,0-.21,0"/><path class="cls-10" d="M6.75,65.1c-.04-.25,.23-.46,.46-.39,.21-.09,.48-.02,.55,.22,.08,.31-.24,.5-.55,.5-.22,0-.43-.1-.47-.33m.7-.13s0,0,0-.01t0,0s-.04-.09-.07-.13c.03,.04,.06,.09,.07,.14"/><path class="cls-10" d="M6.59,64.83c.32-.17,.64-.32,.9-.58,1.56-1.46,2.58-3.35,3.59-5.2l.03,.02,.03,.03,.03,.03,.03,.03,.03,.04,.03,.04,.03,.04,.03,.04,.03,.04,.03,.05,.03,.05,.03,.05,.03,.06,.03,.06,.03,.06,.03,.06,.03,.06,.03,.07,.03,.07h0c-1.28,2.36-3.33,5.7-5,5.71-.34-.14-.4-.62-.1-.83"/></g></svg>