<?xml version="1.0" encoding="UTF-8"?><svg id="_レイヤー_7" xmlns="http://www.w3.org/2000/svg" viewBox="0 0 58 124.3"><defs><style>.cls-1{fill:#88c0dd;}.cls-1,.cls-2,.cls-3,.cls-4,.cls-5{stroke:#040000;stroke-linecap:round;stroke-linejoin:round;stroke-width:.6px;}.cls-2,.cls-6{fill:#fff;}.cls-3,.cls-7{fill:#e9da21;}.cls-4{fill:#025999;}.cls-8{fill:#040000;}.cls-9{fill:#ce8a0d;}.cls-10{fill:#be8c14;}.cls-11{fill:#125ba1;}.cls-12{fill:#070002;}.cls-5,.cls-13{fill:none;}.cls-13{stroke:#070002;stroke-miterlimit:10;stroke-width:.19px;}</style></defs><g><path class="cls-10" d="M42.27,118.41c-.42-1.05-1.62-1.92-3.09-2.46-.59-.25-2.5-.99-2.46-1.41-.14-.76-.82-1.24-1.66-1.46-1.54-.74-3.79-.81-5.43-.04-.03,.06-.07,.12-.1,.18-.09,.2-.17,.41-.24,.62-.09,.25-.17,.5-.34,.73-.12,.17-.28,.33-.43,.49-.09,.09-.18,.18-.28,.26-.27,.2-.59,.31-.95,.34-.07,0-.14,0-.21,0-.09,0-.18,0-.27,0-.08,0-.15,0-.22-.01-.03,0-.06,0-.09,0-.03,0-.06,0-.09,0,0,0,0,0-.01,0-.03,0-.05,0-.08-.01-.03,0-.05,0-.08-.01-.03,0-.07-.01-.1-.02-.02,0-.03,0-.04-.01,0,0-.02,0-.03,0-.05-.01-.09-.03-.14-.05,0,0,0,0,0,0,0,0,0,0,0,0-.04-.02-.08-.03-.12-.05-.01,0-.03-.01-.04-.02-.03-.02-.07-.04-.1-.05,0,0-.02-.01-.03-.02-.04-.02-.08-.05-.11-.08,0,0-.02-.01-.02-.02-.03-.02-.06-.04-.08-.07-.07-.06-.14-.13-.19-.2,0-.02-.02-.03-.03-.04-.09-.14-.16-.29-.23-.44,0-.01-.01-.03-.02-.04-.02-.03-.04-.06-.06-.1,0,0,0,0,0,0-.02-.02-.03-.05-.05-.07h0c-.11-.14-.22-.28-.34-.41-.03-.03-.07-.06-.1-.09-.07-.02-.14-.04-.21-.06,0,0,0,0,0,0-.04-.01-.08-.02-.12-.03-.03,0-.06-.02-.09-.02,0,0,0,0-.01,0-.11-.03-.21-.05-.32-.08h0s-.01,0-.02,0c0,0,0,0,0,0-.04,0-.09-.01-.13-.02-.03,0-.05,0-.08-.01-.02,0-.04,0-.06,0t0,0s-.02,0-.04,0c-.04,0-.08,0-.13,0-.09,0-.18,0-.27-.01,0,0-.02,0-.02,0h-.02c-.14,0-.29,0-.43,0h-.03c-.11,0-.23,.01-.34,.02,0,0,0,0-.01,0-.01,0-.03,0-.04,0,0,0,0,0,0,0-.05,0-.1,.02-.15,.02,0,0,0,0,0,0-.09,.02-.17,.05-.26,.08-.06,.02-.12,.05-.18,.07-.15,.06-.29,.12-.44,.18-.09,.05-.19,.1-.28,.15-.02,.01-.05,.03-.07,.04-.04,.02-.08,.04-.12,.06,0,0,0,0-.01,0,0,0-.01,0-.02,.01-.12,.06-.24,.12-.35,.19-.01,0-.02,.01-.03,.02-.02,.01-.04,.02-.06,.03,0,0-.02,.01-.03,.02-.02,.01-.03,.02-.05,.04h0s-.07,.05-.11,.08c-.01,.01-.03,.02-.04,.03-.05,.03-.09,.07-.14,.1-.2,.14-.4,.25-.63,.35-.2,.08-.41,.14-.62,.19-.07,.02-.14,.03-.22,.05-.4,.08-.82,.14-1.23,.16-.13,0-.25,0-.37,0-.05,0-.1,0-.15,0h-.02s-.05,0-.08,0c-.06,0-.11,0-.17-.01-.03,0-.07,0-.1,0-.07,0-.15-.02-.22-.02-.33-.04-.66-.13-.98-.22-.36-.1-.67-.27-.92-.5-.25,.02-.49,.05-.73,.1-5.17,.58-7.93,3.17-2.38,4.83,.47,.49,1.27,.86,2.21,1.14,.47,.35,.88,.74,1.53,.98,.2,.07,.4,.14,.6,.2,.17,.16,.36,.31,.56,.45,1.62,1.15,4,1.82,6.4,1.91,.29,.01,.57,.02,.86,.02,2.13,0,4.24-.35,6.02-1.07,1-.37,1.89-.89,3.01-1.12,1.16-.19,2.35-.14,3.54-.1,.63,.02,1.25,.05,1.87,.03,.48-.01,.97-.08,1.44-.2,.52-.05,1.01-.19,1.41-.42,1.59-.64,2.55-1.82,1.95-3.01"/><polygon class="cls-6" points="17.92 103.48 19.63 107.28 17.8 108.78 14.36 108.69 12.7 109.24 11.82 111.32 13.93 112.26 18.27 113.07 23.46 113.26 24.32 111 23.68 107.59 22.32 104.58 21.01 102.48 17.92 103.48"/><polygon class="cls-6" points="31.98 105.43 30.86 106.69 28.87 111.32 28.87 116.58 30.07 118.37 31.48 118.89 33.51 118.37 33.58 116.39 32.25 111.32 31.98 109.48 33.51 107.59 31.98 105.43"/><path class="cls-11" d="M44.12,74.57s.83,3.56-.14,11.47c-.97,7.91-3.72,12.34-3.72,12.34l-4.75,7.57s-2.01,1.47-2.72,1.32c-.71-.15-1.97-1.45-1.97-1.45l1.15-1.99,1.31-4.68,.61-6.44-1.36-7.34-2.23-1.97-2.3,1.13s-3.47,4.89-4.76,9.82c-1.29,4.92-.33,9.32-.33,9.32l-5.12,1.1s-2.51-5.51-3.42-7.03c-.91-1.52-2.37-7.05-2.37-7.05,0,0-.25-1.18-.33-6.14-.08-4.96,4.01-11.81,4.01-11.81h20.26l8.17,1.83Z"/><path class="cls-6" d="M44.12,74.57l1.93-15.24-.19-4.9,1.09,6.09s2.72-3.11,6.81-1.19c1.31,.62,.86,4.68,.86,4.68l1.39-.97,1.3-2.84-.64-4.89-4.96-12.56-3.87-6.13s-5.35-5.68-14.18-2.54c-8.83,3.14-9.99-2.62-9.99-2.62,0,0-3.65-1.24-6.73,0-3.07,1.25-6.97,5.21-6.97,5.21l-6.84,6.4-.58,2.96,2.32,3.67,2.47,1.95,2.9-.62,4.37-1.31,.67,3.89,.15,4.52,.3,14.6,14.14,2.01,14.28-.17Z"/><path class="cls-13" d="M44.12,74.57l1.93-15.24-.19-4.9,1.09,6.09s2.72-3.11,6.81-1.19c1.31,.62,.86,4.68,.86,4.68l1.39-.97,1.3-2.84-.64-4.89-4.96-12.56-3.87-6.13s-5.35-5.68-14.18-2.54c-8.83,3.14-9.99-2.62-9.99-2.62,0,0-3.65-1.24-6.73,0-3.07,1.25-6.97,5.21-6.97,5.21l-6.84,6.4-.58,2.96,2.32,3.67,2.47,1.95,2.9-.62,4.37-1.31,.67,3.89,.15,4.52,.3,14.6,14.14,2.01,14.28-.17Z"/><polygon class="cls-6" points="9.78 45.42 10.45 43.21 11.41 34.33 11.53 29.99 14.01 29.99 15.38 29.78 16.25 28.35 15.99 26.89 14.16 25.65 12.76 24.01 11.36 20 10.88 18 8.8 17.38 7.88 18.53 7.43 20.69 5.97 18.53 4.26 19.31 4.36 22.66 2.71 21.56 1.5 23.08 1.89 24.1 2.24 25.16 .37 26.5 .43 28.55 .82 29.7 2.05 29.42 2.43 28.14 4.73 29.84 6.37 30.39 4.45 35.24 2.81 41.07 1.99 44.43 3.04 47.21 5.78 47.81 8.31 47.1 9.78 45.42"/><path class="cls-6" d="M26.77,37.48l2.61,3.6,1.52,1.65,3.33-3.23,1.08-2.28,2.82-2.38,1.53-2.13,2.84-1.65,.7-2.08-.08-3.14-2.55-1.82-.37-3.12,1.84-1.9-.92-2.77s-1.19-3.76-2.88-4.23c-1.69-.48-3.37-.95-3.37-.95l-4.27-.44h-1.89l-2.77,.73-2.3,1.07-2.67,1.13-1.55,2.16-1.18,3.27,1.81,.21,.92,1.83-.15,3.52-1.4,.28-1.59,1.37-.26,2.8,1.54,1.86,1.87,.61s1.06,3.37,2.28,4.21c1.22,.84,3.51,1.81,3.51,1.81"/><polygon class="cls-7" points="40.57 24.02 43.2 25.3 43.64 23.06 43.2 19.95 41.39 19.67 40.01 20.64 40.57 24.02"/><polygon class="cls-13" points="40.57 24.02 43.2 25.3 43.64 23.06 43.2 19.95 41.39 19.67 40.01 20.64 40.57 24.02"/><polygon class="cls-7" points="18.25 25.3 20.98 24.36 20.98 20.63 20.06 19.19 17.96 19.67 17.58 22.95 18.25 25.3"/><polygon class="cls-13" points="18.25 25.3 20.98 24.36 20.98 20.63 20.06 19.19 17.96 19.67 17.58 22.95 18.25 25.3"/><path class="cls-7" d="M16.01,57.87l-1.29,2.01-.26,4.47,1.26,8.15,7.06,3.42s6.05,1.88,12.46,.98c6.41-.9,10.79-3.27,10.79-3.27,0,0,.87-5.2,.92-8.1,.05-2.9-.9-6.19-.9-6.19,0,0-4.71,1.83-9.46,2.18-4.75,.35-8.86,1.17-14.72-1.23l-5.86-2.4Z"/><path class="cls-13" d="M16.01,57.87l-1.29,2.01-.26,4.47,1.26,8.15,7.06,3.42s6.05,1.88,12.46,.98c6.41-.9,10.79-3.27,10.79-3.27,0,0,.87-5.2,.92-8.1,.05-2.9-.9-6.19-.9-6.19,0,0-4.71,1.83-9.46,2.18-4.75,.35-8.86,1.17-14.72-1.23l-5.86-2.4Z"/><path class="cls-11" d="M11.67,111.1s4.1,1.65,4.1,1.65l3.08,.32,4,.29v.99l-1.53,.82-2.54,.18-2.86-.51-2.67-.98-1.56-1.38-.03-1.38Z"/><polygon class="cls-11" points="31.64 70.75 49.26 71.93 49.81 73.21 49.26 74.66 31.64 73.9 30.95 72.93 30.95 71.93 31.64 70.75"/><polygon class="cls-11" points="40.39 110.9 42.76 111.04 44.12 118.27 42.8 118.89 40.77 119.09 38.87 117.9 40.39 110.9"/><polygon class="cls-6" points="40.1 110.77 42.54 110.79 42.45 91.6 42.45 74.97 39.66 75.57 40.07 92.02 40.1 103.83 40.1 110.77"/><polygon class="cls-6" points="42.54 65.87 36.02 68.12 33.29 71.19 32.52 72.93 34.63 75.4 38.13 75.4 40.77 75.4 42.22 74.87 42.58 73.61 46.16 71.33 46.95 68.73 52.59 64.79 54.32 62.99 54.58 60.96 53.76 59.34 52.37 58.69 49.94 58.69 47.47 60.3 45.21 63.15 42.54 65.87"/><path class="cls-8" d="M18.25,30.07h0s0,0,0,0h.01s.01,0,.01,0h0s.01,0,.01,0h.01s.01,0,.01,0h.01s0,0,0,0h.01s.01,0,.01,0h0s.01,0,.01,0h0s0,0,0,0h0s0,0,0,0h0s.01,0,.01,0h0s0,0,0,0h0s0,0,0,0h.01s0,0,0,0h0s0,.01,0,.01h0s0,0,0,0h0s0,.01,0,.01h0s0,0,0,0h0s0,.01,0,.01h0s0,0,0,0h0s0,.01,0,.01h0s0,0,0,0h0s0,0,0,0h0s0,.01,0,.01h0s0,0,0,0h0s0,.01,0,.01h0s0,.01,0,.01h0s0,.01,0,.01h0s0,.01,0,.01h0s0,.01,0,.01h0s0,.01,0,.01h0s0,.01,0,.01h0s0,.01,0,.01h0s0,.01,0,.01h0s0,.01,0,.01h0s0,.01,0,.01h0s0,.01,0,.01h0s0,.01,0,.01h0s0,.01,0,.01h0s0,.01,0,.01h0s0,.01,0,.01h0s0,.01,0,.01h0s0,.01,0,.01h0s0,.01,0,.01h0s0,.01,0,.01h0s0,.01,0,.01h0s0,.01,0,.01h0s0,.01,0,.01h0s0,.01,0,.01h0s0,.01,0,.01h0s0,.01,0,.01h0s0,.01,0,.01h0s0,.02,0,.02h0s0,.01,0,.01h0s0,.02,0,.02h0s0,.02,0,.02h0s0,.02,0,.02h0s0,.02,0,.02h0s0,.02,0,.02h0s0,.02,0,.02h0s0,.02,0,.02h0s0,.02,0,.02h0s0,.02,0,.02h0s0,.02,0,.02h0s0,.02,0,.02h0s0,.02,0,.02h0s0,.02,0,.02h0s0,.02,0,.02h0s0,.02,0,.02h0s0,.02,0,.02h0s0,.02,0,.02h0s0,.02,0,.02h0s0,.02,0,.02h0s0,.02,0,.02h0s0,.02,0,.02h0s0,.01,0,.01c-.43-.27-.84-.61-1.18-.99"/><path class="cls-8" d="M26.16,37.3h0s.01,0,.01,0h.01s.01,0,.01,0h.01s.01,0,.01,0h.01s.01,0,.01,0h.01s.01,0,.01,0h.01s.01,0,.01,0h.01s.01,0,.01,0h.01s0,0,0,0h0s0,0,0,0h0s0,0,0,0h0s0,0,0,0h0s0,0,0,0h0s0,0,0,0h0s0,0,0,0h0s0,0,0,0h0s0,0,0,0h0s0,0,0,0h0s0,0,0,0h0s0,0,0,0h0s0,0,0,0h0s0,0,0,0h0s0,0,0,0h0s0,0,0,0h0s0,0,0,0h0s0,0,0,0h0s0,0,0,0h0s0,0,0,0h0s0,0,0,0h0s0,0,0,0h0s0,0,0,0h0s0,0,0,0h0s0,0,0,0h0s0,0,0,0h.01s0,0,0,0h0s0,0,0,0h0s.01,0,.01,0h0s.01,0,.01,0h0s.01,0,.01,0h0s.01,0,.01,0h0s0,0,0,0h0s0,0,0,0h0s0,0,0,0h0s0,0,0,0h0s0,0,0,0h0s0,0,0,0h0s0,0,0,0h0s0,0,0,0h0s0,0,0,0h0s0,0,0,0h0s0,0,0,0h0s0,0,0,0h0s.01,0,.01,0h0s.01,0,.01,0h.01s.01,0,.01,0h.01s.01,0,.01,0h.02s.02,0,.02,0h.02s.02,.01,.02,.01h.02s.02,.01,.02,.01h.02s.02,.02,.02,.02h.02s.02,.02,.02,.02h.02s.02,.02,.02,.02h.02s.02,.02,.02,.02h.02s.02,.02,.02,.02h.03s.01,.02,.01,.02c-.5-.13-.99-.28-1.46-.47"/><path class="cls-8" d="M35,37.39h0s0,0,0,0h0s0-.01,0-.01h0s0,0,0,0h0s0-.01,0-.01h0s0,0,0,0h0s0,0,0,0h0s0-.01,0-.01h0s0-.01,0-.01h0s0,0,0,0h0s0-.01,0-.01h0s0,0,0,0h.01s0,0,0,0h0s0-.01,0-.01h.01s0,0,0,0h0s0,0,0,0h0s0,0,0,0h0s0,0,0,0h0s0,0,0,0h0s0,0,0,0h0s0,0,0,0h.01s0,0,0,0h0s.01,0,.01,0h0s0,0,0,0c-.14,.08-.28,.15-.43,.21h0Z"/><path class="cls-8" d="M34.27,38.44c.21-.32,.41-.64,.61-.97h0s0,0,0,0h0s0-.01,0-.01h0s0-.01,0-.01h0s0-.01,0-.01h0s0-.01,0-.01h0s0-.01,0-.01h0s0,0,0,0h0s0-.01,0-.01h0s0,0,0,0h0s0,0,0,0h0s0-.01,0-.01h0s0-.01,0-.01h0s0,0,0,0h0s0-.01,0-.01h0s0,0,0,0h0s0,0,0,0h0s0-.01,0-.01h0s0,0,0,0h0s0,0,0,0h0s0-.01,0-.01h.01s0,0,0,0h0s0-.01,0-.01h0s0,0,0,0h0s0,0,0,0h.01s0,0,0,0h0s0-.01,0-.01h.01s0,0,0,0h0s.01,0,.01,0h0s0,0,0,0h0s0,0,0,0h0s.01,0,.01,0h0s0,0,0,0h.01s0,0,0,0h.01s0,0,0,0h.01s0,0,0,0h.01s0,0,0,0h0s.01,0,.01,0h0s0,0,0,0h.01s0,0,0,0h0s.01,0,.01,0h0s0,0,0,0h0s.01,0,.01,0h0s0,0,0,0h0s0,0,0,0h0s0,0,0,0h.01s0,0,0,0h.01s0,0,0,0h0s.01,0,.01,0h0s0,0,0,0h.01s.01,0,.01,0h0s0,0,0,0h.01s.01,0,.01,0h.01s0,0,0,0h.01s0,0,0,0h.01s0,0,0,0h.01s.01,0,.01,0h0s.01,0,.01,0h.01s0,0,0,0h0s0,0,0,0h0s0,0,0,0h.01s0,0,0,0h.02s0,0,0,0h.02s0,0,0,0h.02s0,0,0,0h0s0,0,0,0h0s0,0,0,0h.02s0,0,0,0h0s0,0,0,0h0s0,0,0,0h0s0,0,0,0h.02s0,0,0,0h0s0,0,0,0h.02s0,.02-.01,.03c-.06,.04-.12,.08-.17,.12-.19,.13-.37,.28-.53,.44-.17,.17-.37,.39-.47,.63-.04,.04-.08,.08-.12,.12-.09,.1-.14,.23-.15,.37-.29,.12-.59,.23-.87,.37,0,0,0,0,0,0-.08,.02-.15,.05-.23,.07,.18-.24,.35-.48,.51-.73"/><path class="cls-8" d="M27.63,38.39c-.17,0-.35,0-.53,0-.11-.01-.21-.02-.32-.02-.08,0-.16,0-.24-.01-.13-.33-.23-.68-.29-1.03h.02s.01,0,.01,0h.01s.01,0,.01,0h.01s0,0,0,0h.01s0,0,0,0h0s0,0,0,0h0s0,0,0,0h0s0,0,0,0h0s0,0,0,0h0s0,0,0,0h0s0,0,0,0h0s0,0,0,0h0s0,0,0,0h0s0,0,0,0h0s0,0,0,0h0s0,0,0,0h0s0,0,0,0h0s0,0,0,0h0s0,0,0,0h0s0,0,0,0h0s0,0,0,0h0s0,0,0,0h0s0,0,0,0h0s0,0,0,0h0s0,0,0,0h0s0,0,0,0h0s0,0,0,0h0s0,0,0,0h0s0,0,0,0h0s0,0,0,0h0s0,0,0,0h.01s0,0,0,0h0s.01,0,.01,0h0s.01,0,.01,0h0s0,0,0,0h.01s0,0,0,0h.01s0,0,0,0h.01s0,0,0,0h0s0,0,0,0h0s0,0,0,0h0s0,0,0,0h0s0,0,0,0h0s0,0,0,0h0s0,0,0,0h0s0,0,0,0h0s0,0,0,0h0s0,0,0,0h0s0,0,0,0h0s0,0,0,0h.01s.01,0,.01,0h.01s.01,0,.01,0h.01s.01,0,.01,0h.02s.02,0,.02,0h.02s.02,.01,.02,.01h.02s.02,.01,.02,.01h0c.09,.25,.2,.5,.32,.73-.02,0-.03,0-.05,0"/><path class="cls-8" d="M39.31,33.43h0s0-.01,0-.01h0s0-.02,0-.02h0s0-.02,0-.02h0s0-.02,0-.02h0s0-.02,0-.02h0s0-.02,0-.02h0s0-.02,0-.02h0s0-.02,0-.02h0s0-.02,0-.02h0s0-.02,0-.02h0s0-.02,0-.02h0s0-.02,0-.02h0s0-.02,0-.02h0s0-.02,0-.02h0s0-.02,0-.02h0s0-.02,0-.02h0s0-.02,0-.02h0s0-.02,0-.02h0s0-.02,0-.02h0s0-.02,0-.02h0s0-.02,0-.02h0s0-.02,0-.02h0s0-.02,0-.02h0s0-.02,0-.02h0s0-.02,0-.02h0s0-.02,0-.02h0s0-.02,0-.02h0s0-.02,0-.02h0s0-.02,0-.02h0s0-.02,0-.02h0s0-.02,0-.02h0s0-.02,0-.02h0s0-.02,0-.02h0s0-.02,0-.02h0s0-.02,0-.02h0s0-.02,0-.02h0s0-.02,0-.02h0s0-.02,0-.02h.01s.01-.02,.01-.02h.01s.01-.02,.01-.02h.01s.01-.02,.01-.02h.01s.01-.01,.01-.01h.01s.01-.01,.01-.01h.01s.01-.01,.01-.01h.01s.01-.01,.01-.01h.01s.01-.01,.01-.01h.01s.01,0,.01,0h.01s.01,0,.01,0h.02s0,0,0,0c.36,.1,.72,.21,1.08,.32-.01,.01-.03,.02-.04,.03-.24,.22-.47,.44-.69,.68-.09-.04-.18-.06-.29-.05-.09,0-.17,.02-.25,.06-.2-.03-.37-.08-.51-.13"/><path class="cls-8" d="M18.66,30.95c0-.21,.13-.4,.31-.48h0s0,0,0,0h0s0,.01,0,.01h0s0,.01,0,.01h0s0,.01,0,.01h0s0,.01,0,.01h0s0,.01,0,.01h0s0,.01,0,.01h0s0,.01,0,.01h0s0,.01,0,.01h0s0,.01,0,.01h0s0,.01,0,.01h0s0,.02,0,.02h0s0,.02,0,.02h0s0,.01,0,.01h0s0,.02,0,.02h0s0,.02,0,.02h0s0,.02,0,.02h0s0,.02,0,.02h0s0,.02,0,.02h0s0,.02,0,.02h0s0,.02,0,.02h0s0,.02,0,.02h0s0,.02,0,.02h0s0,.02,0,.02h0s0,.02,0,.02h0s0,.02,0,.02h0s0,.02,0,.02h0s0,.02,0,.02h0s0,.02,0,.02h0s0,.02,0,.02h0s0,.02,0,.02h0s0,.02,0,.02h0s0,.02,0,.02h0s0,.02,0,.02h0s0,.02,0,.02h0s0,.02,0,.02h0s0,.02,0,.02h0s0,.02,0,.02h0s0,.03,0,.03h0s0,.03,0,.03h0s0,.03,0,.03h0s0,.03,0,.03h0s0,.03,0,.03c-.09,.12-.23,.19-.39,.19-.28,0-.51-.24-.51-.52"/><path class="cls-8" d="M17.58,30.69c.43-.13,.87-.24,1.31-.29h0s0,.01,0,.01h0s0,.01,0,.01h0s0,.01,0,.01h0s0,.01,0,.01h0s0,.01,0,.01h0s0,.01,0,.01h0s0,.01,0,.01h0s0,.01,0,.01h0s0,.01,0,.01h0s0,.01,0,.01h0s0,.01,0,.01h0s0,.01,0,.01h0s0,.01,0,.01h0s0,.01,0,.01h0s0,.01,0,.01h0s0,.01,0,.01h0s0,.02,0,.02h0s0,.01,0,.01h0s0,.02,0,.02h0s0,.02,0,.02h0s0,.02,0,.02h0s0,.02,0,.02h0s0,.02,0,.02h0s0,.02,0,.02h0s0,.02,0,.02h0s0,.02,0,.02h0s0,.02,0,.02h0s0,.02,0,.02h0s0,.02,0,.02h0s0,.02,0,.02h0s0,.02,0,.02h0s0,.02,0,.02h0s0,.02,0,.02h0s0,.02,0,.02h0s0,.02,0,.02h0s0,.02,0,.02h0s0,.02,0,.02h0s0,.02,0,.02h0s0,.02,0,.02h0s0,.02,0,.02h0s0,.02,0,.02h0s0,.02,0,.02h0s0,.02,0,.02h0s0,.02,0,.02h0s0,.03,0,.03h0s0,.03,0,.03h0s0,.03,0,.03h0s0,.03,0,.03h0s0,.03,0,.03h0s0,.03,0,.03v.02s.02,.01,.02,.01v.02s.02,.02,.02,.02v.02s.02,.02,.02,.02c-.07,0-.15,0-.23-.02-.51,.04-1.01,.14-1.49,.27-.12-.32-.23-.65-.34-.97"/><path class="cls-8" d="M20.28,32.04c-.17-.06-.33-.14-.5-.23-.03-.02-.06-.04-.09-.05-.03-.02-.06-.04-.09-.06,0,0-.02-.02-.03-.02-.04-.03-.08-.06-.12-.08,0,0,0,0-.01-.01-.02-.02-.03-.04-.06-.06h0s0-.01,0-.01h0s0-.02,0-.02h0s0-.02,0-.02h0s0-.02,0-.02h0s0-.02,0-.02h0s0-.02,0-.02h0s0-.02,0-.02h0s0-.02,0-.02h0s0-.02,0-.02h0s0-.02,0-.02h0s0-.02,0-.02h0s0-.02,0-.02h0s0-.02,0-.02h0s0-.02,0-.02h0s0-.02,0-.02h0s0-.02,0-.02h0s0-.02,0-.02h0s0-.02,0-.02h0s0-.02,0-.02h0s0-.01,0-.01h0s0-.02,0-.02h0s0-.01,0-.01h0s0-.02,0-.02h0s0-.01,0-.01h0s0-.01,0-.01h0s0-.01,0-.01h0s0-.01,0-.01h0s0-.01,0-.01h0s0-.01,0-.01h0s0-.01,0-.01h0s0-.01,0-.01h0s0-.01,0-.01h0s0-.01,0-.01h0s0-.01,0-.01h0s0-.01,0-.01h0s0-.01,0-.01h0s0-.01,0-.01h0s0-.01,0-.01h0s0-.01,0-.01h0s0-.01,0-.01h0s0-.01,0-.01h0s0-.01,0-.01h0s0-.01,0-.01h0s0-.01,0-.01h0s0-.01,0-.01h0s0-.01,0-.01h0s0-.01,0-.01h0s0,0,0,0h0s0-.01,0-.01h0s0-.01,0-.01h0s0,0,0,0h0s0,0,0,0h0s0-.01,0-.01h0s0,0,0,0h0s0-.01,0-.01h0s0,0,0,0h0s0,0,0,0h0s0,0,0,0h0s0,0,0,0h0s0-.01,0-.01h0s0,0,0,0h0s0,0,0,0h0s0,0,0,0h0s0,0,0,0h-.01s0,0,0,0h-.01s0,0,0,0h-.01s-.01,0-.01,0h0s-.01,0-.01,0h0s-.01,0-.01,0h0s-.01,0-.01,0h0s-.01,0-.01,0h0c-.94-1.05-1.47-2.46-1.06-3.85,.49-1.32,1.63-2.77,3.14-2.75,.33,0,.49,.26,.49,.52,0,.26-.16,.52-.49,.52-1.04,0-1.79,1.1-2.16,1.99-.35,1.01,.16,2.08,.81,2.85,.46,.53,1.05,.93,1.69,1.19,.54,.22,.29,1-.19,1-.07,0-.13-.02-.21-.05"/><path class="cls-8" d="M39.38,32.46c-.15-.68,.73-.71,1.13-.98,.49-.25,.96-.55,1.37-.92,1.81-1.51,.94-4.87-.96-5.9-.34-.2-.92-.15-.92-.68,0-.27,.22-.5,.47-.52,3.43,.59,4.74,6.27,1.69,8.2-.43,.26-1.56,1.15-2.26,1.15-.24,0-.42-.1-.52-.35"/><path class="cls-8" d="M30.42,38.71c-.31-.01-.62-.04-.93-.07-.17-.08-.34-.15-.53-.17-.17-.02-.34-.04-.51-.05-.09,0-.18-.01-.27-.02-.07,0-.14,0-.21,0-.12-.03-.24-.05-.36-.08h-.01s-.03-.02-.03-.02h-.02s-.02-.02-.02-.02h-.02s-.02-.02-.02-.02h-.02s-.02-.02-.02-.02h-.02s-.02-.02-.02-.02h-.02s-.02-.02-.02-.02h-.02s-.02-.01-.02-.01h-.02s-.02-.01-.02-.01h-.02s-.02,0-.02,0h-.01s-.01,0-.01,0h-.01s-.01,0-.01,0h-.01s0,0,0,0h-.01s0,0,0,0h0s0,0,0,0h0s0,0,0,0h0s0,0,0,0h0s0,0,0,0h0s0,0,0,0h0s0,0,0,0h0s0,0,0,0h0s0,0,0,0h0s0,0,0,0h0s0,0,0,0h0s0,0,0,0h-.01s0,0,0,0h-.01s0,0,0,0h0s-.01,0-.01,0h0s-.01,0-.01,0h0s0,0,0,0h0s0,0,0,0h0s0,0,0,0h0s0,0,0,0h0s0,0,0,0h0s0,0,0,0h0s0,0,0,0h0s0,0,0,0h0s0,0,0,0h0s0,0,0,0h0s0,0,0,0h0s0,0,0,0h0s0,0,0,0h0s0,0,0,0h0s0,0,0,0h0s0,0,0,0h0s0,0,0,0h0s0,0,0,0h0s0,0,0,0h0s0,0,0,0h0s0,0,0,0h0s0,0,0,0h0s0,0,0,0h0s0,0,0,0h0s0,0,0,0h0s0,0,0,0h0s0,0,0,0h0s0,0,0,0h0s-.01,0-.01,0h-.01s-.01,0-.01,0h-.01s-.01,0-.01,0h-.01s-.01,0-.01,0h-.01s-.01,0-.01,0h-.01s-.01,0-.01,0h-.01s-.01,0-.01,0h-.01s0,0,0,0c-2.95-1.15-5.32-3.44-5.64-6.97-.23-1.27-.33-2.55-.38-3.83,.03-.84-.25-1.84,.13-2.61,.35-.38,1-.01,.86,.49,.07,3.24-.09,7.02,1.98,9.7,2.15,2.39,5.55,3.14,8.61,3.09,5.05-.31,7.86-4.78,8.1-9.58,.08-.77,.14-1.53,.19-2.29,.2-.68-.29-2.22,.61-2.35,.27,0,.52,.24,.51,.52-.07,1.78-.19,3.57-.42,5.34-.21,2.11-.96,4.06-2.12,5.64-.06,.08-.12,.16-.19,.25-.3,.38-.63,.74-.98,1.07-.15,.09-.27,.2-.4,.31-.09,.07-.17,.15-.26,.22,0,0-.02,.01-.02,.02-.01,0-.02,0-.04,.01-.1,.03-.2,.08-.29,.14-.09,.06-.18,.12-.26,.18-.19,.13-.37,.28-.53,.44-.02,.02-.04,.04-.06,.06-.04,.02-.08,.05-.13,.07h0s0,0,0,0h0s-.01,0-.01,0h0s0,0,0,0h0s0,0,0,0h0s0,0,0,0h-.01s0,0,0,0h0s0,0,0,0h0s-.01,0-.01,0h0s0,.01,0,.01h0s0,0,0,0h0s0,.01,0,.01h0s0,0,0,0h0s0,0,0,0h0s0,.01,0,.01h0s0,.01,0,.01h0s0,0,0,0h0s0,.01,0,.01h0s0,0,0,0h0s0,.01,0,.01h0s0,0,0,0h0s0,.01,0,.01h0s0,.01,0,.01h0s0,0,0,0h0c-1.13,.53-2.38,.81-3.74,.82-.27,0-.55-.01-.83-.04"/><path class="cls-8" d="M17.98,25.88c-.36-.23-.23-.74-.42-1.09-.38-1.15-.63-2.39-.36-3.6-.09-2.05,1.82-3.27,3.45-1.9,1.25,1.16,.72,3.73,.83,5.34-.03,.28-.3,.48-.57,.44-.31-.04-.49-.36-.43-.66-.03-.86-.01-1.77-.02-2.63-.05-.51-.03-1.07-.3-1.52-.38-.51-1.2-.74-1.64-.19-.39,.59-.25,1.4-.41,2.08,0,.86,.22,1.71,.5,2.51,.22,.49,.24,1.28-.31,1.28-.09,0-.19-.02-.31-.06"/><path class="cls-8" d="M43.01,25.84c-.79-.28-.02-1.37-.1-1.98,0-.98-.03-1.98-.13-2.96-.05-.82-1.31-1.23-1.77-.54-.57,.98-.28,2.19-.2,3.26,.02,.42,.45,.66,.43,1.08-.06,.54-.81,.63-1.01,.13-.35-.52-.48-1.13-.5-1.75-.09-1.21-.23-2.6,.64-3.57,.69-.74,1.9-.65,2.68-.1,.8,.6,.83,1.72,.83,2.64,.01,.72,.31,3.79-.76,3.79-.04,0-.07,0-.11-.01"/><path class="cls-8" d="M17.4,19.29h0c.04-.12,.11-.22,.2-.28,0,0-.01,0-.02,0,0,0-.02,.02-.03,.02,.58-.81,.61-1.94,1.07-2.84,.53-1.31,1.37-2.54,2.57-3.29,.8-.54,1.74-.8,2.61-1.2,1.56-.77,3.22-1.48,4.95-1.62,.03,0,.05,0,.07,0,.12,0,.23,0,.35,0,.06,0,.13,0,.19,0,.09,0,.17,0,.26,0,.08,0,.17,0,.25-.01,.22,.02,.43,.04,.65,.08,1.36,.22,2.72,.45,4.09,.55,1.93-.02,3.94,.45,5.28,1.96,1.28,1.41,1.78,3.32,2.28,5.12,.07,.57,.69,1.55-.06,1.85-.26,.07-.57-.09-.63-.36-.24-1.1-.55-2.19-.91-3.25-.3-.9-.71-1.77-1.31-2.51-1.67-2.04-4.14-1.63-6.44-1.95-2.04-.31-4.14-.79-6.14,0-1.15,.43-2.24,1.02-3.38,1.47-.82,.3-1.62,.67-2.27,1.27-1.16,1.09-1.7,2.69-2.12,4.18-.19,.55-.39,1.36-1.05,1.46-.31,0-.59-.34-.49-.66"/><path class="cls-8" d="M28.97,10.62c0-.17,0-.35-.02-.52,.08,0,.15,0,.23,0,.06,0,.13,0,.19,0,.09,0,.17,0,.26,0,.11,0,.21-.01,.32-.02,.01,0,.03,0,.04,0,.02,.16,.02,.32,0,.48,0,.33-.26,.5-.51,.5-.23,0-.47-.14-.5-.44"/><path class="cls-8" d="M28.97,10.6s0,0,0,.01h0s0-.01,0-.01Z"/><path class="cls-8" d="M35.47,36.93c.32-.49,.83-.38,.93,.05-.09,.06-.18,.12-.26,.18-.19,.13-.37,.28-.53,.44-.03,.03-.06,.06-.09,.09h0s-.01,0-.01,0h-.01s0,0,0,0h0s-.01,0-.01,0h0s-.01,0-.01,0h0s-.01,0-.01,0h0s0,0,0,0h0s0,0,0,0h0s0,0,0,0h-.01s0,0,0,0h0s0,0,0,0h0s0,0,0,0h0s-.01,0-.01,0h0s0,0,0,0h0s0,0,0,0h0s0,.01,0,.01h0s0,0,0,0h0s0,0,0,0h0s0,.01,0,.01h0s0,0,0,0h0s0,.01,0,.01h0s0,.01,0,.01h0s0,0,0,0h0s0,.01,0,.01h0s0,0,0,0h0s0,0,0,0h0s0,.01,0,.01h0s0,0,0,0h0s0,0,0,0h0s0,.01,0,.01h0s0,.01,0,.01h0s0,0,0,0h0s0,.01,0,.01h0s0,.01,0,.01h0s0,.01,0,.01h0s0,.01,0,.01h0c.21-.35,.41-.71,.59-1.08"/><path class="cls-8" d="M27.35,38.2h-.02s-.02-.01-.02-.01h-.02s-.02-.01-.02-.01h-.02s-.02,0-.02,0h-.01s-.01,0-.01,0h-.01s-.01,0-.01,0h-.01s0,0,0,0h-.01s0,0,0,0h0s-.01,0-.01,0h0s0,0,0,0h0s0,0,0,0h0s0,0,0,0h0s0,0,0,0h0s0,0,0,0h0s0,0,0,0h0s0,0,0,0h0s0,0,0,0h0s0,0,0,0h0s0,0,0,0h0s-.01,0-.01,0h0s-.01,0-.01,0h0s0,0,0,0h-.01s0,0,0,0h-.01s0,0,0,0h0s0,0,0,0h-.01s0,0,0,0h0s0,0,0,0h0s0,0,0,0h0s0,0,0,0h0s0,0,0,0h0s0,0,0,0h0s0,0,0,0h0s0,0,0,0h0s0,0,0,0h0s0,0,0,0h0s0,0,0,0h0s0,0,0,0h0s0,0,0,0h0s0,0,0,0h0s0,0,0,0h0s0,0,0,0h0s0,0,0,0h0s0,0,0,0h0s0,0,0,0h0s0,0,0,0h0s0,0,0,0h0s0,0,0,0h0s0,0,0,0h0s0,0,0,0h0s0,0,0,0h0s0,0,0,0h0s-.01,0-.01,0h0s-.01,0-.01,0h-.01s-.01,0-.01,0h-.01s-.01,0-.01,0h0c-.01-.07-.02-.13-.03-.19,0-.28,.23-.52,.51-.52,.58,0,.48,.67,.63,1.06h0s0,0,0,0Z"/><path class="cls-8" d="M39.47,32.91c.18,.05,.36,.1,.54,.15h-.02s-.01,0-.01,0h-.01s-.01,0-.01,0h-.01s-.01,.01-.01,.01h-.01s-.01,.01-.01,.01h-.01s-.01,.01-.01,.01h-.01s-.01,.01-.01,.01h-.01s-.01,.01-.01,.01h-.01s-.01,.01-.01,.01h-.01s-.01,.01-.01,.01h-.01s-.01,.02-.01,.02h-.01s0,.02,0,.02h-.01s0,.02,0,.02h0s0,.02,0,.02h0s0,.02,0,.02h0s0,.02,0,.02h0s0,.02,0,.02h0s0,.02,0,.02h0s0,.02,0,.02h0s0,.02,0,.02h0s0,.02,0,.02h0s0,.02,0,.02h0s0,.02,0,.02h0s0,.02,0,.02h0s0,.02,0,.02h0s0,.02,0,.02h0s0,.02,0,.02h0s0,.02,0,.02h0s0,.02,0,.02h0s0,.02,0,.02h0s0,.02,0,.02h0s0,.02,0,.02h0s0,.02,0,.02h0s0,.02,0,.02h0s0,.02,0,.02h0s0,.02,0,.02h0s0,.02,0,.02h0s0,.02,0,.02h0s0,.02,0,.02h0s0,.02,0,.02h0s0,.02,0,.02h0s0,.02,0,.02h0s0,.02,0,.02h0s0,.02,0,.02h0s0,.02,0,.02h0s0,.02,0,.02h0s0,.02,0,.02h0s0,.02,0,.02h0s0,.02,0,.02c-1.08-.41-.55-1.36,.16-1.06m.19,.2s-.06-.09-.09-.13c-.03-.03-.07-.06-.11-.08,.08,.05,.15,.12,.2,.21"/><path class="cls-8" d="M19.6,31.7s-.02-.01-.03-.02c-.04-.03-.08-.05-.12-.08,0,0-.01,0-.02-.01-.02-.02-.03-.04-.05-.06h0s0-.01,0-.01h0s0-.02,0-.02h0s0-.02,0-.02h0s0-.02,0-.02h0s0-.02,0-.02h0s0-.02,0-.02h0s0-.02,0-.02h0s0-.02,0-.02h0s0-.02,0-.02h0s0-.02,0-.02h0s0-.02,0-.02h0s0-.02,0-.02h0s0-.02,0-.02h0s0-.02,0-.02h0s0-.02,0-.02h0s0-.02,0-.02h0s0-.02,0-.02h0s0-.02,0-.02h0s0-.01,0-.01h0s0-.02,0-.02h0s0-.01,0-.01h0s0-.01,0-.01h0s0-.02,0-.02h0s0-.01,0-.01h0s0-.01,0-.01h0s0-.01,0-.01h0s0-.01,0-.01h0s0-.01,0-.01h0s0-.01,0-.01h0s0-.01,0-.01h0s0-.01,0-.01h0c.06-.03,.13-.04,.19-.04,.28,0,.51,.24,.51,.52,0,.08-.02,.16-.05,.22,0,0-.02-.01-.03-.02"/><path class="cls-8" d="M19.7,31.76s-.06-.04-.09-.06c0,0-.02-.01-.03-.02-.04-.03-.08-.06-.12-.08,0,0-.01,0-.02-.01-.02-.02-.03-.04-.05-.05h0s0-.01,0-.01h0s0-.02,0-.02h0s0-.02,0-.02h0s0-.02,0-.02h0s0-.02,0-.02h0s0-.02,0-.02h0s0-.02,0-.02h0s0-.02,0-.02h0s0-.02,0-.02h0s0-.02,0-.02h0s0-.02,0-.02h0s0-.02,0-.02h0s0-.02,0-.02h0s0-.02,0-.02h0s0-.02,0-.02h0s0-.02,0-.02h0s0-.02,0-.02h0s0-.02,0-.02h0s0-.02,0-.02h0s0-.01,0-.01h0s0-.02,0-.02h0s0-.01,0-.01h0s0-.02,0-.02h0s0-.01,0-.01h0s0-.01,0-.01h0s0-.01,0-.01h0s0-.01,0-.01h0s0-.01,0-.01h0s0-.01,0-.01h0s0-.01,0-.01h0s0-.01,0-.01h0s0-.01,0-.01h0s0-.01,0-.01h0s0-.01,0-.01h0s0-.01,0-.01h0s0-.01,0-.01h0s0-.01,0-.01h0c.28-.04,.57-.06,.86-.05,.6,.16,.54,.77,.13,.98-.06-.04-.12-.08-.18-.12"/><path class="cls-8" d="M26.58,16.69c-.17-.13-.19-.37-.07-.54,.21-.25,.58-.19,.86-.23,1.06-.04,2.12-.16,3.18-.2,1.05-.02,2.1-.06,3.15,.02,.37,.08,1.1-.08,1.07,.5-.14,.59-.88,.22-1.29,.24-.61-.04-1.22-.03-1.84-.02-1.48-.01-2.95,.16-4.42,.23-.22,0-.45,.15-.64,0"/><path class="cls-8" d="M26.21,18.81c.08-.63,.93-.36,1.36-.44,.84-.02,1.64-.07,2.47-.14,1.45-.21,2.91-.27,4.36-.35,.48,0,.49,.77,0,.76-1.93,.05-3.83,.32-5.75,.45-.63,.04-1.26,.04-1.89,.07-.25,.09-.56-.06-.56-.35"/><path class="cls-8" d="M35.28,32.36c-.64-.74-1.44-1.49-2.41-1.7-.2,0-.38-.17-.38-.38,.25-1.31,3.06,1.04,3.38,1.61,.3,.39-.3,.86-.59,.47"/><path class="cls-8" d="M25.28,32.57c-.42-.39,.19-.83,.46-1.1,.7-.57,1.34-1.33,2.23-1.58,.81-.31,1.06,.7,.33,.72-.92,.19-1.67,1.13-2.37,1.74-.14,.23-.4,.42-.65,.23"/><path class="cls-8" d="M30.94,34.92c-.82-.09-1.45-.73-1.76-1.48-.43-.12-.32-.79,.13-.76,.65-.04,1.26-.39,1.85-.63,.53-.25,.98-.47,1.46-.74,.27-.13,.54-.4,.86-.28,.68,.44,.65,1.57,.5,2.28-.29,1.37-1.84,1.78-3.04,1.6m.69-.73c1.39-.02,1.97-1.03,1.57-2.33-1.05,.59-2.1,1.12-3.24,1.49,.31,.65,.99,.92,1.67,.84"/><path class="cls-8" d="M42.02,110.64c-.05-2.16-.18-4.31-.06-6.47,.07-1.91,.2-3.82,.16-5.73-.29-6.89-.13-13.78-.33-20.66,.02-.52-.09-1.09,.1-1.59,.29-.52,1.13-.16,.93,.42,.06,4.66,.13,9.31,.13,13.97,.05,4.53,.35,9.06,.03,13.6-.11,2.16,.01,4.32,.06,6.47,0,.33-.26,.51-.52,.51s-.5-.16-.5-.51"/><path class="cls-8" d="M41.43,111.48h0v-.05s0-.02,0-.02v-.06s0-.02,0-.02v-.04s0-.02,0-.02v-.02s0-.02,0-.02v-.02s0-.02,0-.02v-.02s0-.02,0-.02v-.02s0-.02,0-.02v-.03s0-.03,0-.03v-.03s0-.02,0-.02v-.03s0-.03,0-.03v-.02s0-.03,0-.03v-.03s0-.02,0-.02v-.03s0-.02,0-.02v-.02s0-.02,0-.02v-.02s0-.02,0-.02v-.02s0-.02,0-.02v-.02s0-.02,0-.02v-.02s0-.02,0-.02v-.02s0-.02,0-.02v-.02s0-.01,0-.01v-.02s0-.01,0-.01h0s0-.03,0-.03h0s0-.03,0-.03c.19,0,.38-.04,.56-.1,.62-.25,1.01,.68,.4,.96-.31,.12-.64,.18-.96,.18-.03,0-.06,0-.09,0"/><path class="cls-8" d="M38.81,118.26c-.26-.04-.46-.28-.44-.54,.07-.02,.15-.05,.22-.07,.1-.03,.21-.07,.31-.1,.03,0,.05,0,.08-.01h0s.03,0,.03,0h.03s.03,0,.03,0h.03s.03,0,.03,0h.03s.03,0,.03,0h.03s.03,0,.03,0h.03s.03,0,.03,0h.02s.02,0,.02,0h.02s.02,0,.02,0h.02s.02,0,.02,0h0c-.01,.08-.03,.16-.04,.24-.04,.26-.26,.45-.51,.45-.02,0-.05,0-.07,0"/><path class="cls-8" d="M43.56,117.95c-.36-1.91-.71-3.84-1.1-5.74-.06-.51-.31-1.04-.21-1.55,.18-.49,.96-.36,.98,.16,.46,2.35,.9,4.65,1.34,6.99,.04,.37-.23,.58-.51,.58-.22,0-.45-.14-.5-.44m-.36-6.91s.02-.07,.03-.11h0s0-.04,0-.07v-.02c0,.06-.01,.13-.03,.19"/><path class="cls-8" d="M40.69,119.69c-.74-.11-1.44-.46-1.95-1.01-.16-.18-.37-.35-.41-.6-.02-.15,.02-.28,.1-.38,.06-.02,.11-.04,.16-.05,.1-.03,.21-.07,.31-.1,.03,0,.05,0,.08-.01h0s.02,0,.02,0h.03s.02,0,.02,0c.08,.04,.15,.1,.21,.2,.37,.46,.88,.81,1.46,.91,.85,.19,1.75-.05,2.47-.53,.3-.17,.46-.48,.8-.49,.13,0,.27,.06,.36,.15,.19,.19,.21,.55,0,.73-.59,.53-1.3,.94-2.07,1.13-.31,.08-.63,.12-.95,.12-.22,0-.44-.02-.65-.06"/><path class="cls-8" d="M42.02,76.74c-.3-.19-.32-.63-.22-.93,0-.41,.35-.81,.77-.64,.4,.16,.33,.69,.32,1.04,0,.32-.32,.6-.62,.6-.08,0-.17-.02-.25-.07"/><path class="cls-8" d="M41.92,75.89c-.29-.36-.13-.89-.18-1.32-.03-.33,.17-.67,.52-.66,.57,.02,.51,.58,.51,1.01-.02,.34,.15,.78-.17,1.02-.1,.07-.21,.11-.32,.11-.13,0-.25-.05-.35-.15"/><path class="cls-8" d="M39.82,111.1s-.04-.08-.07-.12c-.03-.06-.06-.13-.08-.19,0-.02,0-.04,0-.07-.05-2.16-.18-4.31-.06-6.47,.07-1.91,.2-3.82,.16-5.73-.29-6.89-.13-13.78-.33-20.66,.02-.53-.09-1.09,.1-1.59,.29-.52,1.13-.16,.93,.42,.06,4.66,.13,9.31,.13,13.97,.05,4.53,.35,9.06,.03,13.6-.11,2.16,.01,4.32,.06,6.47,0,.33-.26,.51-.52,.51-.13,0-.25-.04-.35-.13"/><path class="cls-8" d="M40.13,111.23c-.59-.25-.78-1.1,0-1.2,.34,0,.45,.38,.8,.4,.09,.02,.19,.02,.29,.02h0s0,.03,0,.03h0s0,.03,0,.03h0s0,.03,0,.03v.02s0,.02,0,.02v.02s0,.02,0,.02v.02s0,.02,0,.02v.02s0,.02,0,.02v.02s0,.02,0,.02v.02s0,.02,0,.02v.02s0,.02,0,.02v.02s0,.02,0,.02v.03s0,.02,0,.02v.03s0,.03,0,.03v.03s0,.03,0,.03v.02s0,.03,0,.03v.03s0,.02,0,.02v.02s0,.02,0,.02v.02s0,.02,0,.02v.02s0,.02,0,.02v.02s0,.02,0,.02v.02s0,.02,0,.02v.02s0,.02,0,.02v.06s0,.02,0,.02v.02s0,.02,0,.02h0c-.34,0-.67-.08-.98-.24"/><path class="cls-8" d="M39.09,117.58h-.02s-.02,0-.02,0h-.02s-.02,0-.02,0h-.02s-.03,0-.03,0h-.03s-.03,0-.03,0h-.03s0,0,0,0c.01,0,.02,0,.03-.01,.07-.01,.14-.02,.22-.04,0,.02,0,.05-.01,.07h-.01Z"/><path class="cls-8" d="M40.35,111.39c-.13-.09-.29-.13-.43-.19,0,0-.01,0-.02-.01-.02-.01-.03-.03-.05-.04-.03-.06-.07-.11-.1-.17-.04-.08-.07-.17-.11-.25,0-.04-.02-.08-.03-.12,.06-.09,.15-.16,.27-.21,.21-.06,.38,.02,.5,.13,.25,.25,.12,.58,.04,.89-.02-.01-.05-.03-.07-.04"/><path class="cls-8" d="M39.54,77.15c-.25-.28-.13-.7-.17-1.04,0-.24-.06-.48,.1-.7,.3-.42,.94-.12,.91,.33,0,.35,.01,.7,.03,1.04,.02,.3-.26,.52-.53,.52-.12,0-.25-.05-.34-.15m.81-1.26s.02-.07,.03-.1c0,.03-.01,.07-.03,.1"/><path class="cls-8" d="M40.79,111.38c-.4-.06-1.04-.04-1.04-.59,.05-.87,1.05-.39,1.57-.39,.45,.02,1.08-.28,1.21,.39,.04,.85-1.21,.65-1.75,.59"/><path class="cls-8" d="M38.69,118.51c-.28-.04-.47-.3-.44-.58,.17-1.34,.38-2.68,.64-4.02,.17-.89,.37-1.77,.56-2.66,.07-.38,.1-.93,.6-.93,.65,.07,.51,.64,.4,1.11-.15,.73-.32,1.46-.46,2.17-.2,.98-.38,1.96-.52,2.95-.08,.51-.15,1.02-.21,1.53-.04,.28-.3,.48-.57,.44"/><path class="cls-8" d="M41.23,75.06s.08-.06,.12-.1c.05-.03,.09-.06,.13-.09,.17-.12,.34-.26,.49-.4,.12-.11,.19-.26,.21-.42,2.1,.09,4.2,.12,6.3,.14,.66,.01,.67,1.02,0,1.04-2.42-.02-4.84-.06-7.25-.18"/><path class="cls-8" d="M48.95,72.5c-1.28-.13-2.56-.24-3.84-.34,.03-.03,.06-.06,.1-.09,.21-.2,.42-.41,.61-.63,.06-.07,.11-.16,.13-.25,1.05,.09,2.09,.2,3.14,.28,.62,.08,.54,1.03-.06,1.03-.03,0-.05,0-.08,0"/><path class="cls-8" d="M48.3,75.08c-.15-.42,.14-.61,.45-.79,.34-.36,.64-.93,.41-1.42-.09-.22-.29-.37-.45-.52-.16-.23-.13-.55,.09-.73,.71-.45,1.38,.78,1.45,1.38,.07,.53-.1,1.04-.37,1.49-.2,.36-.69,.9-1.12,.9-.17,0-.33-.09-.46-.31"/><path class="cls-8" d="M47.82,74.94c-1-.75-.67-2.45,.22-3.15,.63-.56,1.44,.22,.76,.77-.49,.17-.8,1.22-.36,1.56,.43,.33,.1,.93-.32,.93-.1,0-.2-.03-.31-.11"/><path class="cls-8" d="M32.05,74.33c-.51,.08-.79-.63-.37-.93,.16-.11,.35-.11,.54-.11,.06,0,.13,0,.19,0,.3,0,.59,.02,.89,.04-.13,.1-.19,.3-.15,.46,.02,.09,.06,.17,.11,.25,.04,.06,.1,.1,.16,.13,.12,.08,.29,.07,.41,0,0,0,0,0,0,0,0,.02-.02,.04-.03,.06-.02,.05-.03,.1-.03,.15-.57-.04-1.15-.06-1.73-.05"/><path class="cls-8" d="M32.09,71.21c-.63-.09-.6-1.03,.05-1.05,.13,0,.26,.05,.39,.05,.7,.05,1.4,.1,2.1,.15-.08,.04-.15,.09-.2,.14-.05,.05-.11,.09-.16,.14-.06,0-.12,.03-.17,.07-.06,.04-.11,.11-.15,.16-.08,.1-.16,.21-.22,.33-.02,.04-.04,.08-.05,.12-.53-.04-1.06-.08-1.59-.12"/><path class="cls-8" d="M31.7,74.43c-1.76-.68-1.55-3.53,.08-4.25,.26-.13,.58,0,.69,.27,.21,.57-.37,.64-.64,.97-.49,.57-.53,1.76,.27,2.06,.54,.23,.3,1-.19,1-.07,0-.13-.01-.21-.04"/><path class="cls-8" d="M15.24,72.39c-.5-1.38-1.03-4.81-1.19-8.18l.08,.03,.16,.06,.16,.06,.16,.06,.15,.06,.15,.06,.15,.06,.04,.02c.06,.92,.14,1.83,.21,2.73,.19,1.64,.4,3.2,.9,4.73,.13,.39-.2,.67-.51,.67-.19,0-.38-.1-.46-.35"/><path class="cls-8" d="M44.96,74.78c-.17-.13-.22-.27-.21-.42,.26-.01,.53-.02,.79-.04,.12,0,.24-.02,.36-.02-.16,.31-.35,.58-.64,.58-.09,0-.19-.03-.3-.09"/><path class="cls-8" d="M46.05,71.64c-.09,0-.17,0-.26,0,.23-.92,.35-1.86,.42-2.81,0,0,.01,0,.02-.01,.34-.22,.67-.44,.99-.68,.02-.02,.05-.03,.07-.05-.06,1.21-.19,2.41-.46,3.58-.26,0-.52-.01-.78-.02"/><path class="cls-8" d="M29.93,77.62c-3.66-.23-7.26-1.16-10.61-2.66-1.34-.67-2.82-1.23-3.91-2.3-.31-.41,.15-1.01,.62-.78,.19,.12,.31,.3,.5,.42,7.34,4.59,16.04,5.43,24.13,2.95,0,.03,0,.05,.01,.08-.02,.12-.03,.25-.05,.37-.06,0-.12,.03-.17,.06-.11,.07-.17,.17-.2,.29-.02,.08-.01,.17,0,.25-.04,.04-.07,.1-.08,.16-2.79,.78-5.67,1.22-8.55,1.22-.56,0-1.12-.02-1.69-.05"/><path class="cls-8" d="M41.76,75.54c0-.22,.02-.44-.01-.65,.44-.15,.88-.32,1.32-.49,.41,0,.82-.02,1.24-.03,.41,0,.81-.02,1.22-.05-.56,.39-1.43,.71-1.73,.9-.67,.27-1.35,.51-2.03,.74,0-.14,0-.28,0-.42"/><path class="cls-8" d="M17.33,105.03c-3.09-4.75-5.28-10.14-5.99-15.82-.46-3.58,.06-7.22,1.11-10.65,.72-2.16,1.5-4.33,2.62-6.3,.24-.61,1.13-.56,1.07,.18-2.26,4.18-3.83,8.89-3.94,13.69,0,4.85,1.42,9.59,3.47,13.92,.77,1.52,1.62,2.97,2.52,4.41,.26,.39-.1,.8-.46,.8-.15,0-.29-.07-.39-.23"/><path class="cls-8" d="M22.49,104.43c-.63-3.79-.68-7.4,.63-11.06,1.26-3.75,2.6-7.85,5.95-10.21,.39-.37,1.24-.52,1.24,.24-.02,.45-.51,.44-.76,.69-2.6,1.9-3.86,4.98-4.89,7.95-.87,2.39-1.6,4.89-1.6,7.46,0,1.58,.23,3.16,.44,4.72,.07,.38-.23,.61-.52,.61-.21,0-.42-.13-.48-.41"/><path class="cls-8" d="M17.46,105.08c-.23-1.6,4.46-1.84,5.47-1.41,.62,.22,.28,1.21-.34,.98-.73-.24-1.53-.13-2.28-.05-.57,.09-1.17,.14-1.69,.41-.21,.09-.29,.32-.51,.4-.05,.02-.1,.03-.16,.03-.21,0-.42-.14-.49-.35"/><path class="cls-8" d="M30.83,105.82c-.26-.18-.28-.54-.09-.78,.26-.45,.48-.93,.67-1.37,.88-2.09,1.48-4.31,1.81-6.56,.49-3.83,.28-10.11-2.59-12.94-.27-.24-.59-.29-.9-.42-.38-.25-.23-.89,.21-.95,.33-.04,.64,.15,.93,.3,2.19,1.45,2.89,4.61,3.32,7.08,.59,4.16,.16,8.38-1.23,12.31-.39,1.1-.82,2.2-1.41,3.2-.09,.15-.25,.22-.42,.22-.1,0-.21-.03-.29-.09"/><path class="cls-8" d="M32.67,107.94c-1.08-.21-2.31-1.28-2.07-2.49,.07-.27,.33-.46,.6-.4,.27,.06,.46,.34,.39,.62-.05,.59,.64,1.05,1.12,1.22,1.19,.24,1.99-1.03,2.68-1.82,1.84-2.5,3.46-5.16,4.93-7.9,0,.11,0,.21-.01,.32,0,.17,0,.35,0,.52,0,.08,.02,.15,.05,.22,0,.15,0,.3,0,.45,0,.08,0,.17,0,.25,0,.08,0,.15,.02,.23,0,.01,0,.02,0,.03-.26,.46-.53,.91-.79,1.35-1.32,1.93-3.99,7.42-6.59,7.42-.12,0-.23-.01-.34-.03"/><path class="cls-8" d="M42.49,94.6c0-.23-.01-.47-.02-.7,0-.18-.02-.36-.04-.55-.02-.17-.09-.33-.2-.44,.52-1.55,.89-3.14,1.07-4.74,.45-3.22,.57-6.48,.64-9.73,.03-1.11-.03-2.21,.03-3.32-.06-.19,0-.41,.15-.54,.22-.2,.61-.16,.77,.11,.19,.37,.04,.82,.06,1.22,0,.74,.02,1.49,0,2.23-.07,3.84-.22,7.69-.86,11.48-.28,1.89-.86,3.7-1.61,5.44,0-.15,0-.3,0-.46"/><path class="cls-8" d="M28.9,83.61c-.56-.95-.89-2.03-1.21-3.08-.32-1.19-.72-2.41-.74-3.65,.05-.25,.28-.44,.54-.41,.42,.02,.49,.47,.5,.81,.24,1.67,.7,3.18,1.28,4.73,.14,.35,.29,.71,.49,1.04,.26,.39-.1,.8-.46,.8-.15,0-.29-.07-.4-.23"/><path class="cls-8" d="M29.7,109.18c-.25-.13-.35-.45-.22-.7,.3-.59,.58-1.18,.84-1.79,.21-.52,.49-1.7,1.23-1.04,.35,.4-.29,1.26-.41,1.72-.29,.45-.59,1.87-1.22,1.87-.07,0-.14-.02-.22-.06"/><path class="cls-8" d="M32.28,113.92c-.26-1.43-1.2-3.07-.61-4.47,.36-.72,.62-1.55,1.13-2.18,.3-.23,.79,.02,.79,.4-.05,.44-.38,.8-.53,1.21-.97,1.56-.41,2.32-.01,3.93,.06,.41,.33,.78,.18,1.18-.08,.18-.27,.27-.45,.27-.21,0-.42-.12-.48-.35"/><path class="cls-8" d="M29.36,118.29c-.69-.73-1.03-4.1-1.07-5.2-.22-2.06,.42-2.59,1-4.33,.1-.6,1.07-.49,1.01,.15-.12,.84-.65,1.53-.89,2.32-.34,1.9,.07,3.87,.47,5.73,.03-.06,.07-.11,.1-.17,.01,.07,.03,.15,.04,.22,.02,.1,.03,.2,.05,.3,0,.08,.02,.15,.03,.23,0,.06,.02,.12,.03,.18,.01,.09,.02,.19,.07,.27,.02,.04,.05,.08,.08,.11,0,0,0,.02,0,.03-.17,.15-.35,.25-.56,.25-.11,0-.22-.03-.35-.08"/><path class="cls-8" d="M30.37,119.28c-.58-.27-1.98-1.6-.72-1.88,.57,.04,.74,.92,1.37,1.02,2.46,.41,2.28-1.36,1.72-3.13-.12-.46-.24-.91-.39-1.36-.22-.63,.76-.97,.97-.33,.4,1.53,1.19,3.16,.57,4.72-.44,.82-1.37,1.2-2.28,1.2-.43,0-.85-.08-1.22-.25"/><path class="cls-8" d="M19.38,107.56c-.46-.27-.58-.94-.88-1.35-.22-.48-.65-.9-.69-1.44v.07c-.05-.62,.88-.75,1.01-.15,.15,.29,.31,.54,.46,.82,.25,.44,.49,.89,.73,1.33,.19,.34-.12,.75-.46,.75-.06,0-.11-.01-.17-.03"/><path class="cls-8" d="M22.35,113.62c-.08-.38,.25-.59,.57-.66,1.42-1,.53-4.55,0-5.93-.42-.87-.92-1.72-1.18-2.66-.04-.63,.87-.75,1.02-.14,.32,.98,.9,1.83,1.25,2.8,.54,1.66,.91,3.49,.51,5.23-.14,.57-.37,1.15-.87,1.48-.21,.15-.52,.3-.8,.3-.23,0-.43-.11-.5-.41"/><path class="cls-8" d="M11.65,111.3c-.72-.35-.05-1.28,.17-1.78,.3-.49,.74-.9,1.27-1.11,1.03-.36,2.15-.33,3.23-.28,.57,.04,1.16,.06,1.65-.29,.36-.22,.73-.46,1.02-.78,.08-.17,.31-.39,.48-.36,1.58,.4-.68,1.95-1.31,2.22-.71,.34-1.48,.29-2.26,.25-.54-.03-1.07-.06-1.59,.03-2.19,.1-1.57,2.12-2.49,2.12-.05,0-.11,0-.17-.02"/><path class="cls-8" d="M18.26,115.71c-2.29-.25-8.25-1.66-7.09-4.97,.13-.52,.98-.46,1,.12-.01,.28-.14,.53-.14,.81,.53,2.02,5.3,3.04,7.14,3.05,1.17-.02,2.44-.14,3.41-.87,.57-.27,.78-1.45,1.48-1.13,.56,.32,.11,.94-.18,1.3-1.11,1.36-2.9,1.74-4.59,1.74-.35,0-.69-.02-1.03-.04"/><path class="cls-8" d="M31.85,118.89c-.51-.23-.73-.87-1.15-1.24-.51-.56-1.04-.99-1.65-1.39-.18-.13-.24-.36-.11-.55,.47-.74,2.6,1.71,2.92,2.16,.25-.46,.8-2.89,1.44-2.47,.18,.09,.26,.33,.16,.51-.27,.51-.43,.98-.64,1.51-.26,.47-.27,1.48-.94,1.48-.01,0-.03,0-.04,0"/><path class="cls-8" d="M15.08,112.25c-.41-.18-.26-.71-.34-1.07-.11-.71-.17-1.45-.45-2.13-.14-.38,.39-.69,.64-.37,0,0,0,0,0,0-.02-.02-.04-.04-.06-.06,.02,.02,.04,.04,.06,.06,.36,.71,.41,1.55,.54,2.33,.4-.46,2.51-3.39,3.07-2.57,.12,.18,.06,.41-.11,.53-.86,.63-1.52,1.44-2.18,2.27-.32,.31-.56,1-1.05,1-.04,0-.08,0-.13-.01"/><path class="cls-8" d="M14.94,108.7s0,0,0,0c.02,.03,.04,.06,.05,.09-.01-.03-.03-.05-.05-.08"/><path class="cls-8" d="M23.72,113.85c-2.87-.52-5.81-.19-8.64-.96-1.15-.36-2.56-.58-3.37-1.55-.25-.49,.54-.83,.71-.32,1.9,1.17,4.24,1.47,6.41,1.63,1.28,.09,2.56,.1,3.84,.25,.44,.15,1.58-.04,1.5,.64-.04,.18-.2,.3-.37,.3-.02,0-.05,0-.08,0"/><path class="cls-8" d="M30.75,84.19c-.03-2.33,.09-4.66,0-6.98-.01-.2,.13-.38,.32-.4,.37-.04,.47,.34,.44,.65,.03,1.44,0,2.89-.01,4.32,0,.79-.01,1.58,0,2.37,0,.1-.03,.2-.09,.28-.07,.09-.17,.12-.27,.12-.19,0-.38-.14-.39-.36"/><path class="cls-8" d="M20.92,75.2c-.48-2.65-.63-5.35-.77-8.04,0-.32-.01-.65-.02-.97l.27,.04,.3,.05,.17,.03c.08,2.3,.24,4.6,.5,6.89,.08,.62,.17,1.24,.29,1.86,.04,.2-.1,.41-.3,.45-.02,0-.05,0-.07,0-.17,0-.34-.13-.37-.31"/><path class="cls-8" d="M27.26,76.55c-.26-3.33-.5-6.66-.69-10l.29-.02,.34-.03h.13c.11,1.87,.21,3.76,.37,5.64,.11,1.46,.19,2.91,.32,4.37,.02,.26-.18,.39-.38,.39-.18,0-.35-.11-.37-.35"/><path class="cls-8" d="M33.95,76.48c-.06-.81-.12-1.62-.19-2.43,.03,.03,.07,.06,.11,.08,.13,.09,.26,.18,.41,.23,.06,.02,.12,.04,.19,.06,0,0,.02,0,.03,.01,.03,0,.05,.02,.08,.03,.06,.66,.1,1.32,.13,1.98,.02,.26-.18,.39-.38,.39-.18,0-.36-.11-.37-.35"/><path class="cls-8" d="M33.14,66.58h.14s.26,.02,.26,.02h.27s.09,.02,.09,.02c.11,1.35,.22,2.71,.33,4.06-.15,.14-.29,.3-.43,.45-.08,.09-.17,.19-.25,.29-.13-1.61-.27-3.22-.41-4.83"/><path class="cls-8" d="M39.66,75.57c0-.15,0-.31-.01-.46,0,0,0,0,0,0,.05,0,.09,0,.14,.01,.21,0,.4-.05,.6-.13,0,.18,0,.36,.01,.53,.02,.26-.18,.39-.38,.39-.18,0-.36-.11-.37-.35"/><path class="cls-8" d="M39.99,66.75h.03s.16,0,.16,0h.09s0,.02,0,.03c-.04,.02-.08,.05-.12,.07-.05-.04-.1-.08-.16-.11"/><path class="cls-8" d="M4.51,48.05c-1.18-.42-2.16-1.29-2.75-2.4-.47-.53,.32-1.25,.77-.69,.46,.79,1.03,1.52,1.87,1.92,1.19,.64,2.68,.54,3.81-.18,.25-.18,.47-.41,.64-.67,.16-.35,.46-.71,.86-.47,.65,.48-.17,1.26-.53,1.67-.83,.74-1.95,1.13-3.06,1.13-.55,0-1.1-.1-1.62-.29"/><path class="cls-8" d="M7.62,51.7c-2.59-.32-4.38-2.58-5.44-4.84-.37-.79-.76-1.59-1-2.44-.1-.63,.82-.85,.99-.22,1.25,3.63,3.49,7.43,7.84,6.39,1.4-.29,2.75-.88,3.94-1.69,.53-.4,1.15,.4,.62,.82-.9,.65-1.91,1.12-2.94,1.5-.97,.33-1.99,.57-3.01,.57-.34,0-.67-.03-1.01-.09"/><path class="cls-8" d="M15.4,58.14c-1.01-1.68-.63-3.67-.99-5.52-.65-3.34-1.16-6.68-1.98-9.97-.09-.66,.92-.81,1.01-.14,.82,3.28,1.33,6.61,1.97,9.93,.28,1.23,.16,2.5,.34,3.73,.11,.51,.3,.99,.53,1.45,.23,.4-.13,.78-.47,.78-.15,0-.31-.07-.41-.25"/><path class="cls-8" d="M46.05,59.33c-.44-.06-.48-.53-.41-.89,.03-.51,.04-1.02,.05-1.53,.03-.87-.07-1.83,.35-2.62,.04,.1,.09,.19,.15,.28,.05,.12,.1,.24,.15,.36,0,.02,.02,.05,.03,.07,0,.09,0,.19,.02,.28,.07,.36,.18,.71,.32,1.05-.02,.84,.02,1.68-.08,2.51,0,.28-.25,.49-.51,.49-.02,0-.04,0-.07,0"/><path class="cls-8" d="M46.33,54.74s.01,.02,.02,.02c0,0,0,0,0,0,0,0-.01-.02-.02-.03"/><polyline class="cls-8" points="46.27 54.68 46.28 54.68 46.27 54.68"/><polyline class="cls-8" points="46.27 54.68 46.27 54.68 46.27 54.68"/><path class="cls-8" d="M46.27,54.68h0s0,0,0,0Z"/><path class="cls-8" d="M43.88,34.64s0,0,0,0c0,0,0,0,0,0-.33-.15-.66-.29-.99-.41-1.01-.36-2.07-.57-3.12-.78-.59-.13-.51-1.02,.1-1.03,1.07,.21,2.14,.42,3.17,.78,.31,.1,.61,.22,.91,.35,0,.06,0,.13,0,.19,0,.08,0,.16,0,.24,0,.05,0,.1,0,.15-.02,.17-.04,.34-.05,.51,0,0,0-.01,0-.02,0,0,0,.01,0,.02h0s0,0,0,0h0s0,0,0,.01"/><path class="cls-8" d="M11.05,35.93c-.2-.2-.19-.53,0-.73,.43-.45,.98-.94,1.42-1.34,1.29-1.12,2.65-2.22,4.24-2.87,.63-.25,1.28-.47,1.95-.59,.39-.12,.93-.06,.94,.47-.01,.54-.52,.51-.9,.58-.4,.09-.79,.21-1.17,.34-1.65,.57-3.04,1.7-4.35,2.83-.47,.43-.96,.86-1.4,1.32-.1,.1-.23,.15-.36,.15s-.27-.05-.36-.15"/><path class="cls-8" d="M29.8,51.21c-.24-1.78-.13-3.57-.05-5.35,.01-.47,0-.94-.03-1.41-.05-.61-.15-1.41,.51-1.72,1.5-1.01,2.75-2.4,3.79-3.89,.34-.49,.7-1.11,.88-1.66,.06-.18,.08-.25,.18-.36,.42-.43,1.06,.12,.82,.59-.88,2.39-3.11,4.83-5.18,6.23,.14,1.75-.03,3.49-.05,5.23,0,.73,.07,1.46,.15,2.19,.04,.37-.24,.58-.52,.58-.23,0-.45-.14-.49-.44"/><path class="cls-8" d="M30.53,42.96c-1.84-1.37-3.14-3.35-4.42-5.23-.09-.27,.07-.6,.35-.66,.47-.12,.67,.39,.9,.7,.24,.34,.48,.68,.73,1.02,.72,.97,1.45,1.94,2.33,2.76,.24,.21,.48,.41,.74,.59,.42,.33,.1,.93-.32,.93-.1,0-.2-.03-.31-.11"/><path class="cls-8" d="M32.32,46.32c-.28-.16-.34-.59-.1-.82,.46-.48,1.16,.21,.76,.69-.1,.12-.25,.19-.4,.19-.09,0-.17-.02-.25-.07"/><path class="cls-8" d="M32.25,50.03c-.34-.43,.2-1.06,.67-.77,.52,.34,.16,.98-.27,.98-.13,0-.27-.06-.4-.21"/><path class="cls-8" d="M15.07,65.9l-.15-.06-.15-.06-.15-.06-.16-.06-.16-.06-.16-.06-.08-.03c-.16-3.51,.09-6.95,1.22-7.97,.27-.15,.65,.02,.73,.32,.13,.35-.16,.51-.32,.75-.72,2.35-.74,4.84-.59,7.3l-.04-.02Z"/><path class="cls-8" d="M47.22,68.14s.08-.06,.12-.09c0,.04,0,.08,0,.12h-.07s-.12,.02-.12,.02c.02-.02,.05-.04,.07-.05"/><path class="cls-8" d="M45.6,59.51c-.13-.66,.89-.87,1.01-.19,0,0,0-.01,0-.02,.24,.67,.4,1.34,.51,2.03-.17,.22-.35,.44-.52,.66-.12,.05-.24,.12-.32,.23-.02,.02-.04,.05-.06,.07-.1-.95-.26-1.89-.6-2.77"/><path class="cls-8" d="M30.51,62.42c-3.78-.09-7.57-.75-11.1-2.16-1-.47-3.17-1.25-3.68-2.2-.15-.57,.61-.92,.92-.42,1.66,1.21,3.59,1.89,5.52,2.47,4.03,1.24,8.27,1.39,12.44,1.29,3.14-.04,6.08-1.23,9.1-1.97,.65-.21,1.29-.46,1.97-.53,.65-.06,.78,.94,.11,1.03-.75,.09-1.36,.37-2.06,.57-2.52,.59-4.96,1.59-7.56,1.83-1.05,.1-2.11,.14-3.17,.14-.83,0-1.66-.02-2.49-.06"/><path class="cls-8" d="M20.69,67.59l-.3-.05-.27-.04c-.07-2.18-.21-4.38,.08-6.52,.36-1.92,1.46-.82,.84-.38,.06-.03,.11-.08,.14-.14-.62,1.44-.3,3.08-.38,4.61,.01,.85,.03,1.7,.06,2.54l-.18-.03Z"/><path class="cls-8" d="M26.53,67.14c-.03-1.81-.4-3.8,.34-5.5,.3-.36,.88,.1,.59,.48-.45,1.46-.25,3-.2,4.5,.02,.39,.05,.79,.07,1.18h-.13s-.34,.04-.34,.04l-.28,.02c-.01-.24-.03-.48-.04-.73"/><path class="cls-8" d="M33.81,67.92h-.27s-.26-.03-.26-.03h-.14c-.16-1.84-.31-3.68-.46-5.52,0-.56,.8-.51,.76,.05,.16,1.83,.31,3.66,.46,5.5h-.09Z"/><path class="cls-8" d="M39.73,66.67c-.09-.01-.18,0-.27,0-.03-.93-.07-1.86-.14-2.79-.03-.79-.11-1.59-.68-2.17-.18-.37,.31-.74,.6-.45,.15,.16,.27,.36,.4,.54,.54,.96,.39,2.15,.51,3.21,.02,.6,.05,1.19,.07,1.79-.02,.02-.05,.03-.07,.04-.12-.1-.26-.17-.42-.19"/><path class="cls-8" d="M11.36,35.11c.01-.12,.03-.24,.04-.36,.05-.33,.12-.65,.18-.98,0,0,0,0,0,0,.02-.09,.02-.18,.02-.27,.17-.17,.35-.34,.53-.5,0,.04-.02,.08-.03,.12-.02,.02-.03,.04-.04,.06-.03,.05-.04,.1-.05,.15-.02,.11-.04,.23-.06,.34,0-.02,0-.03,0-.05-.06,.33-.1,.67-.11,1.01,0,.06,0,.12,0,.19-.12,.15-.24,.29-.36,.44-.03,.05-.08,.09-.12,.12,0-.09,.01-.17,.02-.26"/><path class="cls-8" d="M16.4,30.09s-.09,.09-.14,.13c0,0-.02,.02-.03,.03-.03,.01-.06,.02-.09,.03-.11,.02-.23,.03-.34,.04h0s-.04,0-.06,0c.22-.09,.44-.17,.66-.23"/><path class="cls-8" d="M15.79,30.32s-.02,0-.03,0c0,0,.02,0,.03,0"/><path class="cls-8" d="M9.81,44.03c-.16-.4-.18-1,.36-1.05,.32-.02,.46,.2,.54,.45-.04,.11-.07,.22-.1,.33-.05,.21-.11,.41-.16,.62-.05,.24-.1,.48-.15,.72-.03,.18-.06,.36-.09,.54,0,.02-.01,.04-.02,.06,0,.03,0,.05-.01,.08-.11-.58-.23-1.16-.38-1.74"/><path class="cls-8" d="M11.43,29.46c-.13-.98,.19-1.46,.99-1.96,1.82-1.24,2.06,.38,1.25,.55-.45,.11-.84,.42-1.2,.71-.12,.48,0,1.04,.41,1.34,.21-.13,.45-.19,.68-.27,.37-.16,.72-.37,1.19-.41,.13-.04,.28-.03,.43-.03,.23,0,.46,.02,.62-.14,.25-.43,0-1.23,0-1.73-.22-.45-.72-.71-1.13-.96-1.62-.78-2.44-1.95-2.94-3.67-.25-.78-.57-1.54-.8-2.32-.1-.48-.2-.97-.37-1.43-.11-.77-1.18-.29-1.21-1.08,.1-1.03,1.73-.3,1.99,.31,.36,.7,.44,1.5,.66,2.25,.33,.85,.61,1.71,.92,2.57,.62,2.2,2.39,2.11,3.63,3.57,.41,.62,.31,1.43,.37,2.14,.03,.36-.09,.72-.32,1h0s0,0,0,0h0s0,0,0,0c0,0,0,0,0,0h0c-.1,.09-.19,.17-.28,.26,0,0,0,0,0,0-.06,.05-.12,.08-.18,.11-.11,.02-.22,.03-.33,.04h0c-.06,0-.12,0-.18,.02-.05,.01-.09,.03-.12,.07-.03,0-.07,0-.1,.01-.22,0-.44,0-.66,.05-.28,.06-.53,.22-.79,.33-.23,.08-.46,.13-.65,.27-.13,.08-.27,.11-.4,.11-.74,0-1.41-1.04-1.45-1.72"/><path class="cls-8" d="M15.79,30.32h0s-.02,0-.03,0c0,0,.02,0,.03,0"/><path class="cls-8" d="M7.33,21.31c-.18-.34-.12-.74-.07-1.1,.05-.45,.07-.91,.18-1.36,.31-1.67,1.48-1.71,2.83-1.2,.57,.14,.47,1.02-.12,1.02-.34-.05-.66-.19-1-.28-.85-.17-.73,1.14-.84,1.7-.13,.71-.09,1.18,.73,1.25,.48-.24,.27-1.12,.91-1.12,1.14,.16,.09,1.92-.57,2.11-.12,.03-.25,.05-.38,.05-.69,0-1.42-.4-1.66-1.06"/><path class="cls-8" d="M4.08,21.68c-.04-.75-.41-1.75,.09-2.39,.34-.27,.68-.53,1.09-.68,.63-.39,1.49-.57,1.9,.25,.32,.59,.65,1.16,.93,1.77,.08,.2,.22,.37,.22,.59,0,.28-.23,.52-.51,.52-.54-.03-.59-.73-.85-1.1-.19-.47-.5-.87-.71-1.32-.44,.12-.91,.38-1.29,.68,0,.94,.17,1.87,.23,2.81,.38,.31,.92,.03,1.07-.39,.08-.26-.09-.52,.01-.77,.15-.41,.79-.42,.94,0,.37,.98-.34,2.09-1.31,2.33-.07,0-.14,0-.2,0-1.49,0-1.59-.92-1.61-2.29"/><path class="cls-8" d="M3.19,26.03c-.42,0-.71-.31-1-.69-.32-.46-.77-.78-1.09-1.23-.55-1.16,.77-2.04,1.31-2.91,.59-.62,2.14,.91,2.71,1.25,.46,.46-.2,1.2-.69,.77,.32,.38,.3,.9,.24,1.37,0,.64-.48,1.11-1.03,1.34-.16,.07-.3,.1-.44,.1h0Zm-1.02-2.86c-.09,.13-.22,.25-.19,.42,.45,.43,.84,.91,1.24,1.38,.14-.07,.33-.16,.4-.31,.02-.26,.14-.58,0-.81-.32-.32-.06-.88,.36-.88,.04,0,.08,0,.12,.02-.36-.3-.75-.53-1.14-.78-.28,.31-.57,.62-.79,.98"/><path class="cls-8" d="M5.42,30.87c-1.02-.42-1.89-1.14-2.57-2.01-.2,.95-1.31,2.22-2.23,1.28-.33-.29-.34-.77-.41-1.18-.08-.55-.22-1.1-.2-1.65,0-.51,.02-1.1,.47-1.42,.27-.25,.6-.42,.86-.7,.19-.13,.42-.18,.6-.32,.38-.37,1.01-.21,.97,.38-.09,.44-.61,.61-.97,.78-.24,.3-.61,.43-.87,.71-.13,.88,.07,1.82,.28,2.67,.37-.21,.46-.65,.59-1.04,.06-.24,.02-.5,.17-.71,.34-.45,.89-.1,1.25,.13,.14,.11,.21,.28,.3,.43,.17,.22,.38,.41,.54,.64,.26,.23,.56,.43,.82,.66,.4,.25,.85,.43,1.29,.62,.17,.09,.33,.2,.53,.16,.47-.01,.88-.16,1.3-.35,.49-.07,1.51-.41,1.57,.39,0,.54-.54,.52-.93,.55-.58,.08-1.07,.43-1.67,.42-.11,.03-.21,.04-.31,.04-.49,0-.92-.27-1.37-.46"/><path class="cls-8" d="M8.98,46.01c.63-1.84,.74-3.85,1.23-5.74,.18-1.66,.54-3.3,.68-4.97,.2-1.84,.22-3.69,.47-5.52-.18-.74,.72-1.14,1-.4-.05,1.24-.16,2.49-.27,3.74-.01,.02-.03,.04-.04,.06-.03,.05-.04,.1-.06,.15-.02,.11-.04,.23-.06,.34,0-.02,0-.03,0-.05-.06,.33-.1,.67-.11,1.01,0,.17,0,.34,0,.51,0,.17,0,.35,.01,.52,0,.04,.02,.08,.04,.12-.13,1.43-.47,2.84-.6,4.27-.5,2.16-.69,4.41-1.41,6.52-.11,.27-.3,.38-.47,.38-.36,0-.71-.46-.42-.94"/><path class="cls-8" d="M2.77,46.21c-.12-.09-.24-.17-.36-.26-.15-.1-.3-.23-.48-.28-.03,0-.06-.01-.1-.02-.02-.01-.04-.02-.05-.04-.01,0-.03-.02-.04-.02-.54-2.35,.06-4.34,.96-6.54,1.04-2.7,2.18-5.34,3.26-8.02-.23-.58,.61-.99,.92-.45,.36,.69-.3,1.38-.47,2.04-.52,1.51-1.3,2.9-1.8,4.42-.92,2.52-2.46,5.08-1.96,7.86,.08,.45,.23,.98,.44,1.54-.11-.08-.21-.16-.32-.24"/><path class="cls-8" d="M34,75.43c-1.58-1.44-2.77-3.05-.99-4.93,.89-.95,1.9-1.78,2.92-2.57-.02,.01-.04,.03-.05,.04,.54-.4,1.14,.39,.62,.82-1.09,.9-2.27,1.76-3.12,2.9-.63,.87,.11,1.77,.72,2.39,.36,.4,.77,.89,1.35,.89,.67,.01,.67,1.02,0,1.04-.54,.01-1.03-.23-1.44-.57"/><path class="cls-8" d="M36.06,75.82c-.53-.13-.9-.55-1.1-1.05-.34-.76-.68-1.57-.69-2.42,.01-.68,.57-1.15,1.04-1.55,.42-.3,.8-.77,1.33-.85,.28,0,.51,.24,.51,.52,0,.3-.24,.45-.47,.56-.33,.23-.64,.48-.94,.75-.72,.54-.42,.94-.22,1.68,.12,.34,.26,.68,.42,1,.1,.29,.38,.4,.65,.41,.42,.02,.98-.27,1.15,.31,.16,.88-1.16,.78-1.69,.64"/><path class="cls-8" d="M37.55,75.74c-.74-.38-.92-1.95-.91-2.72,.02-.91,.77-1.55,1.43-2.06,.28-.17,.52-.45,.85-.48,.54,0,.7,.77,.21,.99-.49,.33-.98,.68-1.33,1.17-.32,.6-.03,1.36,.12,1.98,.12,.45,.74,.25,1.06,.17,.26-.09,.55,.1,.63,.36,.19,.92-1.54,.9-2.05,.59"/><path class="cls-8" d="M39.95,75.95c-1.51-.17-1.42-2.68-.61-3.57,.32-.34,.74-.55,1.1-.84,.17-.21,.49-.24,.7-.07,.75,.85-.85,1.17-1.15,1.77-.2,.31-.35,1.61,.11,1.68,.44,.06,.88-.06,1.3-.19,.25-.1,.57-.19,.66-.49,.02-.31,.18-.63,.53-.63,.84,.08,.47,1.22,.04,1.6-.67,.57-1.81,.83-2.67,.73"/><path class="cls-8" d="M41.1,73.79c.04-.63,.56-.48,.97-.57,1.22-.32,2.51-.85,3.25-1.95,.35-.55,.6-1.17,.74-1.81,.05-.41,.1-.89,.64-.85,.28,.04,.47,.3,.44,.58-.11,.84-.39,1.65-.8,2.38-.38,.66-.91,1.19-1.53,1.6-.54,.39-3.66,1.9-3.7,.6"/><path class="cls-8" d="M35.89,68.88c-1.43-1.28,3.46-2.23,4.18-2.55,1.06-.39,2.14-.8,3-1.56,.65-.6,1.13-1.34,1.69-2.02,.77-.93,1.53-1.88,2.36-2.76,.31-.25,.55-.69,.96-.73,.43-.02,.69,.58,.36,.89-1.07,.97-1.95,2.13-2.88,3.24-.71,.85-1.31,1.81-2.21,2.47-1.25,.92-2.74,1.4-4.21,1.84-.79,.25-1.6,.47-2.35,.84-.08,.05-.17,.08-.22,.16-.13,.25-.47,.32-.7,.19"/><path class="cls-8" d="M46.51,69.43c-.26-.11-.37-.42-.27-.68,.29-.59,1.01-.78,1.49-1.18,0,0,0,0,0,0,0,0,0,0-.01,.01,.02-.01,.04-.03,.06-.04,0,0,0,0,0,0,0,0-.01,.01-.02,.01,0,0,0,0,.01,0,0,0,0,0-.01,.01,1.66-1.25,5.99-3.71,6.49-5.59,.27-1.29-.34-2.54-1.69-2.76-1.15-.14-2.4-.17-3.46,.35-.22,.11-.43,.25-.62,.41-.16,.21-.41,.36-.68,.25-.26-.11-.38-.42-.27-.68,.81-1.12,2.34-1.42,3.63-1.44,1.04-.03,2.14,.06,3,.71,1.21,.92,1.52,2.84,.79,4.16-.83,1.44-2.26,2.37-3.55,3.34-1.07,.75-2.1,1.46-3.14,2.18,.03-.02,.06-.04,.09-.07-.36,.25-.72,.48-1.09,.71-.18,.24-.4,.44-.72,.31"/><path class="cls-8" d="M50.44,41.28c-.68-1.32-1.56-2.66-2.5-3.76-1.2-1.45-2.94-2.49-4.67-3.09-.94-.34-1.9-.61-2.86-.88-.49-.14-1.42-.38-.99-1.08,.21-.28,.54-.22,.8-.07,.85,.28,1.72,.5,2.56,.78,2.98,.87,5.35,2.53,7.08,5.16,.51,.75,.99,1.52,1.41,2.33,.17,.26,.15,.63-.14,.8-.23,.14-.57,.06-.7-.19"/><path class="cls-8" d="M54.13,64.23c-.4-.16-.41-.8,0-.96,.28-.12,.57-.25,.82-.43,2.56-1.67,2.28-3.81,1.39-6.39-.71-1.92-1.24-3.91-2.03-5.81-.89-1.99-1.6-4.05-2.41-6.08-.49-1.1-.92-2.23-1.44-3.31-.2-.32-.38-.8,.03-1.04,.3-.18,.69,.01,.76,.35,.25,.49,.48,.99,.69,1.51,.48,1.18,1.02,2.33,1.45,3.52,1.04,2.95,2.45,5.78,3.3,8.8,.81,2.39,2.14,5.24,.6,7.6-.48,.75-2.27,2.42-3.16,2.24"/><path class="cls-8" d="M46.52,59.81c-.29-.66-.03-1.37-.16-2.04-.47-.91-1-1.81-1.13-2.86-.17-.65,.81-.93,.98-.28,.11,.96,.6,1.78,1.04,2.61,.4,.74-.09,1.62,.3,2.36,.87,.67-.54,1.69-1.03,.21"/><path class="cls-8" d="M45.47,55.23c-.4-.28-.29-.97-.39-1.41-.07-.35-.02-.82,.41-.88,.71-.05,.56,.75,.65,1.22,.02,.21,.07,.41,.09,.61,0,.39-.44,.65-.77,.45"/><path class="cls-8" d="M44.45,54.67c-.34-.36-.03-.73,.25-1,.2-.24,.38-.49,.56-.75,.82-1.31,1.52-2.7,2.03-4.17,.26-.82,.55-1.64,.76-2.48,.02-.27,.24-.49,.51-.49,.43,0,.6,.47,.46,.83-.44,1.57-.92,3.13-1.65,4.59-.35,.63-2.07,4.39-2.91,3.47"/><path class="cls-8" d="M30.49,29.05c-.69-.16-.95-.96-.76-1.6,.09-.37,.28-.69,.41-1.05,.09-.21,.05-.46,.18-.65,.26-.34,.73-.04,.67,.3,.03,.63-.99,1.88-.34,2.24,.12,.04,.24,.04,.36,.04,.32-.02,.5,.43,.27,.65-.1,.09-.23,.12-.36,.12-.14,0-.29-.03-.42-.06"/><path class="cls-8" d="M26.4,28.42c-2.12-.06-3.34-1.76-2.45-3.79,.99-2.25,4.4-2.3,5.09,.16,.29,1.11-.03,2.37-.93,3.09-.44,.38-1.14,.76-1.71,.54m.36-.71c2.3-.47,2.18-4.17-.39-4.01-1.44,.06-2.47,1.91-1.69,3.18,.38,.54,1.09,.71,1.71,.77,.12,0,.26-.03,.37,.06"/><path class="cls-8" d="M25.99,26.96c-.81-.38-.98-1.76-.22-2.27,.23-.13,.52-.16,.78-.2,.72,.04,1.29,.77,1.16,1.5-.07,.5-.46,1.06-1.01,1.02-.22,.11-.5,.05-.71-.05"/><path class="cls-8" d="M35.06,28.42c-2.12-.06-3.34-1.76-2.45-3.79,.99-2.25,4.4-2.3,5.09,.16,.29,1.11-.03,2.37-.93,3.09-.44,.38-1.14,.76-1.71,.54m.36-.71c2.3-.47,2.18-4.17-.39-4.01-1.44,.06-2.47,1.91-1.69,3.18,.38,.54,1.09,.71,1.71,.77,.12,0,.26-.03,.37,.06"/><path class="cls-8" d="M34.65,26.96c-.81-.38-.98-1.76-.22-2.27,.23-.13,.52-.16,.78-.2,.72,.04,1.29,.77,1.16,1.5-.07,.5-.46,1.06-1.01,1.02-.22,.11-.5,.05-.71-.05"/><path class="cls-6" d="M27.78,20.64c-.21-.53-1.27-.6-2.35-.15-1.09,.45-1.79,1.25-1.58,1.78,.21,.53,1.27,.6,2.35,.15,1.09-.45,1.79-1.25,1.58-1.78"/><path class="cls-12" d="M24.58,23.06c-1.39-.22-1.13-1.64-.16-2.28,.9-.66,2.08-1.13,3.18-.79,.5,.14,.77,.69,.65,1.19-.13,.61-.71,.93-1.2,1.21-.23,.2-.56,.26-.83,.39-.52,.2-1.08,.34-1.64,.28m.46-.76c.55-.05,1.06-.3,1.57-.51,.25-.22,.59-.32,.81-.59,.53-.85-1.17-.55-1.54-.37-.61,.13-2.54,1.55-.84,1.47"/><path class="cls-6" d="M33.41,20.37c-.28,.5,.31,1.39,1.33,1.98,1.01,.6,2.07,.68,2.35,.18,.28-.5-.31-1.39-1.32-1.98-1.02-.6-2.07-.68-2.35-.18"/><path class="cls-12" d="M36.61,23.05c1.39-.22,1.13-1.64,.16-2.28-.9-.66-2.08-1.13-3.18-.79-.5,.14-.77,.69-.65,1.19,.13,.61,.71,.93,1.2,1.21,.23,.2,.56,.26,.83,.39,.52,.2,1.08,.34,1.64,.28m-.46-.76c-.55-.05-1.06-.3-1.57-.51-.25-.22-.59-.32-.81-.59-.53-.85,1.17-.55,1.54-.37,.61,.13,2.54,1.55,.84,1.47"/></g><g><path class="cls-1" d="M9.19,13.84s-2.86-4.41-1.71-12.18c.21-1.43,1.3-1.43,2.1-1.3,.73,.12,4.07,.8,8.27,3.27l1.1,11.04-9.76-.82Z"/><path class="cls-1" d="M51.14,13.84s2.86-4.41,1.71-12.18c-.21-1.43-1.3-1.43-2.1-1.3-.73,.12-4.07,.8-8.27,3.27l-6.26,5.4,10.13,6.28,4.79-1.46Z"/><path class="cls-4" d="M16.22,6.88c-2.51-2.42-4.77-3.05-5.12-3.1-.39-.06-.92-.17-.96,.52-.19,3.15,1.48,5.9,1.48,5.9l4.13,2.17,.47-5.49Z"/><path class="cls-4" d="M48.71,10.2s1.67-2.76,1.48-5.9c-.04-.7-.57-.59-.96-.52-.35,.06-2.6,.68-5.12,3.1v5.12l4.6-1.8Z"/><path class="cls-1" d="M52.8,22.44c0,9.32-10.15,15.25-22.66,15.25S7.48,31.76,7.48,22.44,17.62,3.94,30.14,3.94s22.66,9.17,22.66,18.49Z"/><ellipse class="cls-2" cx="21.39" cy="13.6" rx="2" ry="2.03"/><ellipse class="cls-8" cx="21.39" cy="13.52" rx="1.12" ry="1.14"/><ellipse class="cls-2" cx="38.87" cy="13.6" rx="2" ry="2.03"/><ellipse class="cls-8" cx="38.87" cy="13.52" rx="1.12" ry="1.14"/><path class="cls-3" d="M32.42,17.19c.05-1.12-.44-1.94-.44-1.94,.65-.48,1.11-1.22,1.11-1.22-.42-.31-1.94-.41-1.94-.41-.55-1.12-1.01-1.62-1.01-1.62-.64,.62-1.07,1.62-1.07,1.62,0,0-1.52,.1-1.94,.41,0,0,.47,.73,1.11,1.22,0,0-.49,.83-.44,1.94,0,0,1.35-.14,2.26-.89,.8,.6,1.72,.86,2.36,.89Z"/><ellipse class="cls-2" cx="16.93" cy="16.28" rx="2.02" ry=".99"/><ellipse class="cls-2" cx="43.2" cy="16.28" rx="2.02" ry=".99"/><path class="cls-9" d="M25.75,20.53s2.75,.34,4.36-3.25c0,0,1.2,3.75,4.43,3.25v12.56s-.15,4.04-.15,4.04l-3.1,.71-5.27-.39-.27-10.96v-5.96Z"/><path class="cls-5" d="M23.39,17.18s.15,3.34,2.78,3.34,3.68-2.28,3.9-4.15"/><path class="cls-5" d="M36.76,17.18s-.15,3.34-2.78,3.34-3.68-2.28-3.9-4.15"/><path class="cls-5" d="M25.75,20.53s-.04,13.22,.17,16.84"/><path class="cls-5" d="M34.54,20.53s.04,13.22-.17,16.84"/><path class="cls-5" d="M34.28,37.43s-4.29,.99-8.26,.01"/><path class="cls-2" d="M43.44,7.58c.69,.89,.25,1.59-.15,1.87-3.4,2.38-10.36-.41-12.16-3.91-.12-.24-.2-1.09,.63-1.41l6.54,3.1,5.13,.35"/><path class="cls-2" d="M16.85,7.58l3.6-1.59,8.08-1.86c.83,.32,.76,1.17,.63,1.41-1.85,3.59-8.7,6.32-12.16,3.91-.4-.28-.83-.98-.15-1.87"/><path class="cls-3" d="M29.22,4.83s.95-.38,1.95,0l1.05,.07-.54-.95c-1.57-.38-3.06,0-3.06,0l-.84,.91,1.44-.03Z"/><path class="cls-4" d="M27.78,2.8s.48,.77,.86,1.55c.11,.23,.1,.49-.01,.72-1.46,2.85-8.33,5.71-11.27,3.65-.37-.26-.56-.7-.51-1.15,.26-2.11,.99-3.89,.99-3.89l4.94-.88h5Z"/><path class="cls-4" d="M42.45,3.68s.73,1.78,.99,3.89c.05,.45-.14,.89-.51,1.15-2.93,2.06-9.81-.8-11.27-3.65-.11-.22-.12-.49-.01-.72,.38-.79,.86-1.55,.86-1.55h4.02s5.92,.88,5.92,.88Z"/><ellipse class="cls-2" cx="22.8" cy="3.37" rx="4.98" ry="1.96" transform="translate(-.22 2.2) rotate(-5.49)"/><ellipse class="cls-2" cx="37.49" cy="3.37" rx="1.96" ry="4.98" transform="translate(30.55 40.36) rotate(-84.51)"/><path class="cls-3" d="M43.82,8.7s3.85,1.29,7.27,7.05c0,0,.38-.91-.37-2.4-1.99-3.92-5.57-6.04-7.41-6.63l.51,1.98Z"/><path class="cls-3" d="M16.44,8.7s-3.85,1.29-7.27,7.05c0,0-.38-.91,.37-2.4,1.99-3.92,5.57-6.04,7.41-6.63l-.51,1.98Z"/><ellipse class="cls-4" cx="22.81" cy="3.34" rx="3.83" ry="1.22" transform="translate(-.21 2.19) rotate(-5.48)"/><ellipse class="cls-4" cx="37.47" cy="3.34" rx="1.22" ry="3.83" transform="translate(30.57 40.32) rotate(-84.52)"/></g><g><polygon class="cls-6" points="9.78 45.42 10.45 43.21 11.41 34.33 11.53 29.99 14.01 29.99 15.38 29.78 16.25 28.35 15.99 26.89 14.16 25.65 12.76 24.01 11.36 20 10.88 18 8.8 17.38 7.88 18.53 7.43 20.69 5.97 18.53 4.26 19.31 4.36 22.66 2.71 21.56 1.5 23.08 1.89 24.1 2.24 25.16 .37 26.5 .43 28.55 .82 29.7 2.05 29.42 2.43 28.14 4.73 29.84 6.37 30.39 4.45 35.24 2.81 41.07 1.99 44.43 3.04 47.21 5.78 47.81 8.31 47.1 9.78 45.42"/><path class="cls-8" d="M4.51,48.05c-1.18-.42-2.16-1.29-2.75-2.4-.47-.53,.32-1.25,.77-.69,.46,.79,1.03,1.52,1.87,1.92,1.19,.64,2.68,.54,3.81-.18,.25-.18,.47-.41,.64-.67,.16-.35,.46-.71,.86-.47,.65,.48-.17,1.26-.53,1.67-.83,.74-1.95,1.13-3.06,1.13-.55,0-1.1-.1-1.62-.29"/><path class="cls-8" d="M11.36,35.11c.01-.12,.03-.24,.04-.36,.05-.33,.12-.65,.18-.98,0,0,0,0,0,0,.02-.09,.02-.18,.02-.27,.17-.17,.35-.34,.53-.5,0,.04-.02,.08-.03,.12-.02,.02-.03,.04-.04,.06-.03,.05-.04,.1-.05,.15-.02,.11-.04,.23-.06,.34,0-.02,0-.03,0-.05-.06,.33-.1,.67-.11,1.01,0,.06,0,.12,0,.19-.12,.15-.24,.29-.36,.44-.03,.05-.08,.09-.12,.12,0-.09,.01-.17,.02-.26"/><path class="cls-8" d="M16.4,30.09s-.09,.09-.14,.13c0,0-.02,.02-.03,.03-.03,.01-.06,.02-.09,.03-.11,.02-.23,.03-.34,.04h0s-.04,0-.06,0c.22-.09,.44-.17,.66-.23"/><path class="cls-8" d="M15.79,30.32s-.02,0-.03,0c0,0,.02,0,.03,0"/><path class="cls-8" d="M9.81,44.03c-.16-.4-.18-1,.36-1.05,.32-.02,.46,.2,.54,.45-.04,.11-.07,.22-.1,.33-.05,.21-.11,.41-.16,.62-.05,.24-.1,.48-.15,.72-.03,.18-.06,.36-.09,.54,0,.02-.01,.04-.02,.06,0,.03,0,.05-.01,.08-.11-.58-.23-1.16-.38-1.74"/><path class="cls-8" d="M11.43,29.46c-.13-.98,.19-1.46,.99-1.96,1.82-1.24,2.06,.38,1.25,.55-.45,.11-.84,.42-1.2,.71-.12,.48,0,1.04,.41,1.34,.21-.13,.45-.19,.68-.27,.37-.16,.72-.37,1.19-.41,.13-.04,.28-.03,.43-.03,.23,0,.46,.02,.62-.14,.25-.43,0-1.23,0-1.73-.22-.45-.72-.71-1.13-.96-1.62-.78-2.44-1.95-2.94-3.67-.25-.78-.57-1.54-.8-2.32-.1-.48-.2-.97-.37-1.43-.11-.77-1.18-.29-1.21-1.08,.1-1.03,1.73-.3,1.99,.31,.36,.7,.44,1.5,.66,2.25,.33,.85,.61,1.71,.92,2.57,.62,2.2,2.39,2.11,3.63,3.57,.41,.62,.31,1.43,.37,2.14,.03,.36-.09,.72-.32,1h0s0,0,0,0h0s0,0,0,0c0,0,0,0,0,0h0c-.1,.09-.19,.17-.28,.26,0,0,0,0,0,0-.06,.05-.12,.08-.18,.11-.11,.02-.22,.03-.33,.04h0c-.06,0-.12,0-.18,.02-.05,.01-.09,.03-.12,.07-.03,0-.07,0-.1,.01-.22,0-.44,0-.66,.05-.28,.06-.53,.22-.79,.33-.23,.08-.46,.13-.65,.27-.13,.08-.27,.11-.4,.11-.74,0-1.41-1.04-1.45-1.72"/><path class="cls-8" d="M15.79,30.32h0s-.02,0-.03,0c0,0,.02,0,.03,0"/><path class="cls-8" d="M7.33,21.31c-.18-.34-.12-.74-.07-1.1,.05-.45,.07-.91,.18-1.36,.31-1.67,1.48-1.71,2.83-1.2,.57,.14,.47,1.02-.12,1.02-.34-.05-.66-.19-1-.28-.85-.17-.73,1.14-.84,1.7-.13,.71-.09,1.18,.73,1.25,.48-.24,.27-1.12,.91-1.12,1.14,.16,.09,1.92-.57,2.11-.12,.03-.25,.05-.38,.05-.69,0-1.42-.4-1.66-1.06"/><path class="cls-8" d="M4.08,21.68c-.04-.75-.41-1.75,.09-2.39,.34-.27,.68-.53,1.09-.68,.63-.39,1.49-.57,1.9,.25,.32,.59,.65,1.16,.93,1.77,.08,.2,.22,.37,.22,.59,0,.28-.23,.52-.51,.52-.54-.03-.59-.73-.85-1.1-.19-.47-.5-.87-.71-1.32-.44,.12-.91,.38-1.29,.68,0,.94,.17,1.87,.23,2.81,.38,.31,.92,.03,1.07-.39,.08-.26-.09-.52,.01-.77,.15-.41,.79-.42,.94,0,.37,.98-.34,2.09-1.31,2.33-.07,0-.14,0-.2,0-1.49,0-1.59-.92-1.61-2.29"/><path class="cls-8" d="M3.19,26.03c-.42,0-.71-.31-1-.69-.32-.46-.77-.78-1.09-1.23-.55-1.16,.77-2.04,1.31-2.91,.59-.62,2.14,.91,2.71,1.25,.46,.46-.2,1.2-.69,.77,.32,.38,.3,.9,.24,1.37,0,.64-.48,1.11-1.03,1.34-.16,.07-.3,.1-.44,.1h0Zm-1.02-2.86c-.09,.13-.22,.25-.19,.42,.45,.43,.84,.91,1.24,1.38,.14-.07,.33-.16,.4-.31,.02-.26,.14-.58,0-.81-.32-.32-.06-.88,.36-.88,.04,0,.08,0,.12,.02-.36-.3-.75-.53-1.14-.78-.28,.31-.57,.62-.79,.98"/><path class="cls-8" d="M5.42,30.87c-1.02-.42-1.89-1.14-2.57-2.01-.2,.95-1.31,2.22-2.23,1.28-.33-.29-.34-.77-.41-1.18-.08-.55-.22-1.1-.2-1.65,0-.51,.02-1.1,.47-1.42,.27-.25,.6-.42,.86-.7,.19-.13,.42-.18,.6-.32,.38-.37,1.01-.21,.97,.38-.09,.44-.61,.61-.97,.78-.24,.3-.61,.43-.87,.71-.13,.88,.07,1.82,.28,2.67,.37-.21,.46-.65,.59-1.04,.06-.24,.02-.5,.17-.71,.34-.45,.89-.1,1.25,.13,.14,.11,.21,.28,.3,.43,.17,.22,.38,.41,.54,.64,.26,.23,.56,.43,.82,.66,.4,.25,.85,.43,1.29,.62,.17,.09,.33,.2,.53,.16,.47-.01,.88-.16,1.3-.35,.49-.07,1.51-.41,1.57,.39,0,.54-.54,.52-.93,.55-.58,.08-1.07,.43-1.67,.42-.11,.03-.21,.04-.31,.04-.49,0-.92-.27-1.37-.46"/><path class="cls-8" d="M8.98,46.01c.63-1.84,.74-3.85,1.23-5.74,.18-1.66,.54-3.3,.68-4.97,.2-1.84,.22-3.69,.47-5.52-.18-.74,.72-1.14,1-.4-.05,1.24-.16,2.49-.27,3.74-.01,.02-.03,.04-.04,.06-.03,.05-.04,.1-.06,.15-.02,.11-.04,.23-.06,.34,0-.02,0-.03,0-.05-.06,.33-.1,.67-.11,1.01,0,.17,0,.34,0,.51,0,.17,0,.35,.01,.52,0,.04,.02,.08,.04,.12-.13,1.43-.47,2.84-.6,4.27-.5,2.16-.69,4.41-1.41,6.52-.11,.27-.3,.38-.47,.38-.36,0-.71-.46-.42-.94"/><path class="cls-8" d="M2.77,46.21c-.12-.09-.24-.17-.36-.26-.15-.1-.3-.23-.48-.28-.03,0-.06-.01-.1-.02-.02-.01-.04-.02-.05-.04-.01,0-.03-.02-.04-.02-.54-2.35,.06-4.34,.96-6.54,1.04-2.7,2.18-5.34,3.26-8.02-.23-.58,.61-.99,.92-.45,.36,.69-.3,1.38-.47,2.04-.52,1.51-1.3,2.9-1.8,4.42-.92,2.52-2.46,5.08-1.96,7.86,.08,.45,.23,.98,.44,1.54-.11-.08-.21-.16-.32-.24"/></g></svg>