<?xml version="1.0" encoding="UTF-8"?><svg id="_レイヤー_5" xmlns="http://www.w3.org/2000/svg" viewBox="0 0 62 130.3"><defs><style>.cls-1{fill:#040000;}.cls-2{fill:#e9da21;}.cls-3{fill:#fff;}.cls-4{fill:#c68f00;}.cls-5{fill:#070002;}.cls-6{fill:#1961ad;}.cls-7{stroke-width:.16px;}.cls-7,.cls-8{fill:none;stroke:#070002;stroke-miterlimit:10;}.cls-8{stroke-width:.19px;}</style></defs><path class="cls-4" d="M44.19,124.46c-.43-1.04-1.65-1.9-3.15-2.44-.6-.25-2.55-.98-2.51-1.4-.14-.75-.84-1.23-1.69-1.45-1.57-.74-3.87-.8-5.54-.04-.03,.06-.07,.12-.1,.18-.09,.2-.17,.41-.25,.61-.09,.25-.18,.49-.34,.72-.13,.17-.29,.33-.44,.48-.09,.09-.18,.18-.29,.26-.27,.2-.61,.3-.97,.34-.07,0-.14,0-.22,0-.09,0-.18,0-.27,0-.08,0-.15,0-.23,0-.03,0-.06,0-.09,0-.03,0-.06,0-.09,0,0,0,0,0-.01,0-.03,0-.05,0-.08,0-.03,0-.05,0-.08-.01-.03,0-.07-.01-.1-.02-.02,0-.03,0-.05-.01-.01,0-.02,0-.03,0-.05-.01-.1-.03-.14-.05,0,0,0,0,0,0,0,0,0,0-.01,0-.04-.02-.08-.03-.12-.05-.01,0-.03-.01-.04-.02-.03-.02-.07-.03-.1-.05-.01,0-.02,0-.03-.02-.04-.02-.08-.05-.12-.08,0,0-.02-.01-.03-.02-.03-.02-.06-.04-.08-.07-.07-.06-.14-.13-.19-.2-.01-.01-.02-.03-.03-.04-.1-.14-.17-.29-.24-.44,0-.01-.01-.03-.02-.04-.02-.03-.04-.06-.06-.1,0,0,0,0,0,0-.02-.02-.03-.04-.05-.07h0c-.11-.14-.23-.27-.35-.41-.03-.03-.07-.06-.1-.09-.07-.02-.14-.04-.22-.06,0,0,0,0,0,0-.04-.01-.08-.02-.12-.03-.03,0-.06-.01-.09-.02,0,0,0,0-.01,0-.11-.03-.22-.05-.33-.08h0s-.01,0-.02,0c0,0,0,0,0,0-.04,0-.09-.01-.13-.02-.03,0-.05,0-.08-.01-.02,0-.04,0-.06,0t0,0s-.03,0-.04,0c-.04,0-.09,0-.13,0-.09,0-.19,0-.28-.01,0,0-.02,0-.02,0h-.02c-.15,0-.3,0-.44,0h-.03c-.12,0-.23,.01-.35,.02,0,0,0,0-.01,0-.02,0-.03,0-.05,0,0,0,0,0,0,0-.05,0-.1,.01-.15,.02,0,0,0,0,0,0-.09,.02-.18,.05-.27,.08-.06,.02-.12,.05-.19,.07-.15,.06-.3,.12-.45,.18-.1,.05-.19,.1-.29,.15-.02,.01-.05,.02-.07,.04-.04,.02-.08,.04-.12,.06,0,0,0,0-.01,0,0,0-.02,0-.02,.01-.12,.06-.24,.12-.36,.19-.01,0-.02,.01-.03,.02-.02,0-.04,.02-.06,.03,0,0-.02,.01-.03,.02-.02,.01-.03,.02-.05,.03t0,0s-.07,.05-.11,.07c-.01,0-.03,.02-.04,.03-.05,.03-.09,.06-.14,.1-.21,.14-.41,.25-.65,.35-.2,.08-.41,.14-.63,.19-.07,.02-.15,.03-.22,.05-.41,.08-.84,.14-1.26,.15-.13,0-.25,0-.38,0-.05,0-.11,0-.16,0h-.02s-.06,0-.08,0c-.06,0-.11,0-.17,0-.04,0-.07,0-.11,0-.07,0-.15-.01-.22-.02-.34-.04-.67-.13-1-.22-.36-.1-.69-.27-.94-.49-.26,.02-.51,.05-.74,.1-5.28,.57-8.09,3.14-2.43,4.79,.48,.49,1.29,.85,2.26,1.13,.48,.35,.9,.73,1.56,.97,.2,.07,.41,.14,.62,.2,.18,.16,.37,.31,.57,.45,1.66,1.14,4.09,1.8,6.54,1.9,.29,.01,.59,.02,.88,.02,2.17,0,4.33-.34,6.15-1.06,1.03-.36,1.93-.88,3.07-1.11,1.18-.19,2.4-.14,3.61-.1,.64,.02,1.28,.04,1.91,.03,.49-.01,.99-.08,1.47-.2,.53-.05,1.03-.19,1.44-.42,1.62-.63,2.6-1.81,1.99-2.99"/><path class="cls-6" d="M21.93,70.14s5.99,3.61,8.42,3.29c2.43-.32,7.77-2.99,7.77-2.99l6.43,2.99,.45,2.85-.45,7.12-3.03,14.33-3,7.87-3.3,7.51h-2.05l-2.01-1.88,1.68-5.35,1.35-9.13-.12-7.95-1.31-4.8-1.67-3.7-1.19,1.02-2.55,10.66,.28,4.29-1.03,14.07,.36,1.87-1.24,.7-.55-3.27-1.6-.85-1.14-.4-1.48,.76-2.1-4.42-3.1-13.11-.28-6.28,.49-8.8,6-6.41Z"/><polygon class="cls-6" points="14.2 38 14.94 36.97 18.75 36.15 23.21 35.93 24.96 35 27.08 54.68 27.23 59.2 24.93 77.27 23.6 78.5 21.55 78.5 16.29 76.97 13.06 74.66 14.28 64.77 15.41 58.13 14.53 54.53 9.82 63.15 6.29 66.06 3.98 65.79 1.83 64.11 1.83 61.48 14.2 38"/><polygon class="cls-6" points="36.9 78.64 34.4 68.8 32.31 57.43 34.19 47.12 37.88 34.86 40.32 39.15 42.39 39.99 44.72 39.25 46.68 34.41 50.12 37.52 60.63 48.38 59.63 52.37 55.34 54.39 52.63 54.24 46.68 50.88 44.88 57.27 46.16 64.72 47.96 70.98 45.1 74.6 40.77 77.85 37.93 79.01 36.9 78.64"/><polygon class="cls-3" points="10.65 55.28 11.27 51.22 11.76 48.1 13.45 46.25 14.6 44.55 14.81 42.17 15.41 40.33 15.15 39.48 14.07 38.54 11.81 39.64 10.54 36.31 10.01 35.28 8.81 34.91 7.77 35.53 7.28 38.05 5.99 37 4.17 37.45 4.17 38.99 3.01 39.48 2.62 40.33 2.62 41.74 1.19 42.72 .84 45.14 1.19 45.77 2.86 45.03 3.42 44.86 4.68 47.58 6.72 48.66 1.98 58.56 2.73 62.44 5.46 64.11 8.08 62.44 10.65 55.28"/><polygon class="cls-3" points="51.78 48.51 51.1 46.32 50.12 37.52 49.99 33.21 47.47 33.21 46.07 33 45.17 31.58 45.45 30.14 47.31 28.91 48.74 27.29 50.17 23.31 50.66 21.32 52.78 20.71 53.72 21.85 54.18 23.99 55.67 21.85 57.42 22.62 57.32 25.95 59 24.86 60.23 26.36 59.84 27.37 59.49 28.42 61.39 29.75 61.33 31.78 60.93 32.93 59.67 32.65 59.29 31.38 56.94 33.06 55.27 33.61 57.23 38.42 58.9 44.19 59.74 47.53 58.67 50.28 55.87 50.88 53.28 50.18 51.78 48.51"/><path class="cls-2" d="M46.31,34.93l-1.82,4.57-2.01,.76-2.84-1.99-2.47-4.77-12.21,1.5-1.75,.93-6.64,.38-1.75-2.73-.92-4.17,.87-2.95,1.19-3.63,.76-5.7s1.94-6.9,4.07-8.54c2.13-1.64,4.91-3.26,4.91-3.26l3.79-.42,4.36,1.3,2.03,1.93,3.19,.46,2.99,2.49,2.22,5.18s.39,6.56,.21,8.04c-.18,1.48-.73,7.47-.73,7.47l.73,2.75,1.82,.42Z"/><path class="cls-8" d="M46.31,34.93l-1.82,4.57-2.01,.76-2.84-1.99-2.47-4.77-12.21,1.5-1.75,.93-6.64,.38-1.75-2.73-.92-4.17,.87-2.95,1.19-3.63,.76-5.7s1.94-6.9,4.07-8.54c2.13-1.64,4.91-3.26,4.91-3.26l3.79-.42,4.36,1.3,2.03,1.93,3.19,.46,2.99,2.49,2.22,5.18s.39,6.56,.21,8.04c-.18,1.48-.73,7.47-.73,7.47l.73,2.75,1.82,.42Z"/><polygon class="cls-3" points="41.13 22.08 43.17 22.83 44.28 26.02 42.91 28.64 40.01 29.41 37.73 33.64 36.67 38.97 31 45.17 28.18 42.84 25.59 38.57 24.76 34.52 22.47 32.52 20.93 29.86 18.64 29.23 18.05 27.89 19.92 25.67 20.46 22.83 21.69 17.38 24.19 14.06 26.88 12.75 30.21 12.75 32.36 13.05 34.51 14.31 36.35 13.73 38.16 15.67 40.11 22.26 41.13 22.08"/><polygon class="cls-2" points="26.01 39.37 30.58 45.17 32.47 43.57 36.34 39.7 31.87 57.66 35.08 71.73 31.61 72.93 28 72.93 25.58 72.58 27.68 58.13 26.22 49.65 26.01 39.37"/><polygon class="cls-8" points="26.01 39.37 30.58 45.17 32.47 43.57 36.34 39.7 31.87 57.66 35.08 71.73 31.61 72.93 28 72.93 25.58 72.58 27.68 58.13 26.22 49.65 26.01 39.37"/><polygon class="cls-2" points="14.38 114 16.09 115.6 19.82 116.52 25.73 113.41 24.82 119.33 24.01 121.73 22.74 121.2 22.68 119.73 19.82 120.31 16.2 119.67 11.53 117.58 10.54 116.15 10.54 115.16 14.38 114"/><polygon class="cls-8" points="14.38 114 16.09 115.6 19.82 116.52 25.73 113.41 24.82 119.33 24.01 121.73 22.74 121.2 22.68 119.73 19.82 120.31 16.2 119.67 11.53 117.58 10.54 116.15 10.54 115.16 14.38 114"/><polygon class="cls-2" points="31.01 115.87 32.51 119.94 33.48 120.55 34.73 119.69 35.12 123.49 33.85 124.88 31.87 124.44 31.01 122.31 30.56 120.55 29.62 120.24 30.34 117.01 31.01 115.87"/><polygon class="cls-8" points="31.01 115.87 32.51 119.94 33.48 120.55 34.73 119.69 35.12 123.49 33.85 124.88 31.87 124.44 31.01 122.31 30.56 120.55 29.62 120.24 30.34 117.01 31.01 115.87"/><polygon class="cls-3" points="31.71 112.88 34.62 113.56 33.82 115.87 34.48 119.29 33.48 120.55 31.86 119.33 31.01 115.87 31.71 112.88"/><polygon class="cls-3" points="20.92 109.17 23.08 108.65 25.69 110.36 25.73 113.41 20.42 116.52 15 115.12 13.95 114.13 18.7 112.88 21.02 111.61 20.92 109.17"/><polygon class="cls-3" points="14.53 66.57 7.83 64.97 6.77 72.59 4.66 83.84 5 85.62 6.39 86.27 15.57 87.14 15.41 78.29 15.19 76.05 13.06 74.66 14.03 68.07 14.53 66.57"/><polygon class="cls-2" points="53.09 37.56 50.5 37.45 50.51 39.72 53.51 39.72 53.09 37.56"/><polygon class="cls-8" points="53.09 37.56 50.5 37.45 50.51 39.72 53.51 39.72 53.09 37.56"/><path class="cls-1" d="M47.46,47.39c-.04-.37-.08-.74-.12-1.11,.11-.37,.23-.74,.34-1.11,.35-.71,1.34-.11,.92,.56-.17,.58-.35,1.17-.53,1.75-.2-.07-.41-.1-.62-.09"/><path class="cls-1" d="M49.97,38.04c-1.21-1.03-2.16-2.36-3.43-3.32,0-.36,0-.72,0-1.08,.25,.06,.49,.15,.72,.29,1.26,1.01,2.23,2.31,3.45,3.37,.37,.37,.01,.9-.4,.9-.12,0-.24-.05-.35-.16"/><path class="cls-1" d="M46.54,34.67c.59,.07,.36,.86,0,1.65,0-.55,0-1.1,0-1.65"/><path class="cls-1" d="M57.22,53.38c-.07-.15-.16-.3-.27-.43,2.05-.94,3.24-1.75,3.04-5.17-.16,.23-.32,.44-.49,.64,0-.24-.01-.48-.03-.72-.01-.17-.02-.35-.03-.52,0-.03,0-.07,0-.1,0-.06,0-.12,0-.18,0-.05,0-.11,0-.16,.11-.18,.22-.36,.32-.54,.12-.42,.56-.82,.98-.49,.48,.53,.25,1.37,.33,2.02,.18,2.62-.52,4.93-3.2,5.94-.17,.04-.33,.1-.48,.17-.03-.15-.09-.3-.15-.45"/><path class="cls-1" d="M51.83,48.97c-.51-.63,.29-1.27,.73-.79-.11,.26-.08,.55-.05,.82,.02,.16,.05,.31,.08,.47,.01,.07,.03,.14,.04,.21-.29-.2-.56-.44-.8-.71"/><path class="cls-1" d="M54.07,40.18c-1.36-.25-2.07-1.85-1.62-3.07,.46-1.07,1.62-1.91,2.82-1.68,2.44,.52,2.53,4.15,.07,4.7-.15,.13-.34,.18-.54,.18-.25,0-.52-.07-.74-.12m.58-.96c.06,.01,.13,.02,.19,.02h.01c.14,0,.27-.04,.37-.13,0,0,.02-.02,.02-.02,.12-.04,.23-.11,.33-.16,.92-.67,.59-2.29-.55-2.5-.75-.09-1.44,.53-1.66,1.2-.13,.79,.33,1.56,1.19,1.62,0,0,.02-.02,.03-.02,.02,0,.04,0,.06,.01"/><path class="cls-1" d="M51.46,40.21c-1.38-.16-1.55-.3-1.69-1.66-.12-.58-.43-1.82,.56-1.68,.63,.18,1.31,.27,1.96,.19,.69-.39,1.15,.68,.42,.95-.65,.2-1.33,.08-1.99,0,.07,.35,.13,.7,.17,1.05,.58,.15,1.18,.16,1.78,.15,.44,0,.95-.24,1.35,0,.36,.25,.2,.88-.25,.92-.77,.08-1.54,.17-2.32,.06"/><path class="cls-1" d="M56.47,38.77c-.18-.23-.12-.54,.09-.72,.05-.04,.09-.07,.14-.11-.16-.49-.38-.94-.56-1.42-.35,.15-.83-.1-.8-.48,0-.4,.34-.5,.67-.55,.27-.15,.64-.16,.84,.12,.24,.41,.38,.87,.57,1.3,.16,.49,.58,1.1,.21,1.59-.3,.31-.8,.73-1.17,.28"/><path class="cls-1" d="M54.06,38.11c-.12-.35,.14-.49,.43-.59,.25-.18,.63-.02,.63,.3,0,.16-.11,.3-.25,.36-.26,.14-.66,.28-.81-.07"/><path class="cls-1" d="M54.36,39.48c-.22-.06-.34-.31-.25-.52,.05-.29,.15-.57,.25-.84,.04-.09,.05-.18,.07-.27,.07-.3,.5-.39,.68-.14,.24,.36-.2,.94-.24,1.35-.02,.26-.23,.52-.51,.44m.4-1.18c-.09,0-.17-.05-.19-.07,.06,.04,.12,.07,.19,.07"/><path class="cls-1" d="M53.8,38.31c-.14-.1-.19-.29-.12-.45,.06-.13,.16-.2,.29-.22,.16-.06,.31-.13,.47-.17,.49-.12,.69,.59,.2,.73-.28,.06-.57,.31-.84,.11"/><path class="cls-1" d="M31.95,58.33c-.28-.04-.47-.32-.42-.59,.11-.88,.27-1.76,.44-2.64,.19-.97,.39-1.94,.6-2.91,1.2-5.84,3.12-11.5,4.37-17.32,.1-.34,.11-.72,.26-1.04,.25-.41,.93-.26,.96,.22-.95,4.94-2.52,9.75-3.72,14.63-.48,2-.93,4.02-1.34,6.04-.21,1.06-.42,2.12-.55,3.19-.03,.25-.27,.43-.52,.43-.03,0-.05,0-.08,0m5.78-23.73c.12-.02,.23-.08,.3-.18-.08,.09-.18,.15-.3,.18"/><path class="cls-1" d="M36.17,78.63c-1.65-6.82-3.21-13.67-4.54-20.57-.14-.72,1-.88,1.03-.13,.81,3.99,1.59,7.98,2.52,11.95,.66,2.84,1.33,5.68,2.01,8.52,.09,.38-.22,.62-.53,.62-.21,0-.42-.12-.48-.39"/><path class="cls-1" d="M46.75,68.87c-.71-2.73-1.31-5.5-1.79-8.28-.18-1.49-.67-3.05-.27-4.54,.78-3.26,1.59-6.5,2.56-9.72,.28-.55,.37-2.26,1.15-2.12,.28,.04,.47,.32,.42,.59-1.23,3.78-2.2,7.64-3.12,11.51-.33,1.34,.13,2.74,.29,4.08,.32,1.86,.7,3.71,1.12,5.55,.21,.9,.42,1.79,.66,2.69,.09,.38-.22,.62-.53,.62-.21,0-.42-.12-.48-.38"/><path class="cls-1" d="M37.47,79.43c-.44-.07-1.03-.22-1.13-.72-.04-.3,.23-.58,.54-.56,.58,.2,.74,.4,1.41,.16,2.88-1.05,6.96-3.79,8.41-6.49,.4-.46,.51-1.87,1.26-1.65,.27,.08,.43,.38,.34,.65-1.02,3-3.59,5.04-6.19,6.71-1.42,.82-2.92,1.9-4.62,1.9h-.02Zm-.09-.79s0-.07-.01-.1c-.02-.07-.04-.13-.09-.18,.06,.08,.09,.18,.1,.28"/><path class="cls-1" d="M47.08,70.41c-.03-.67-.93-2.46,.27-2.46,.28,.05,.49,.33,.42,.61,.05,.55,.23,1.08,.32,1.62,.1,.38-.22,.62-.53,.62-.22,0-.43-.12-.48-.39"/><path class="cls-1" d="M26.88,57.94c-.05-.28-.1-.55-.14-.83,0,0,0-.01,0-.02,0,0,0,.02,0,.03-.93-5.59-1.15-11.27-1.68-16.9-.08-1.35-.32-2.71-.5-4.05,.03-.03,.05-.06,.06-.1,0-.01,.01-.03,.02-.05,.01-.04,.02-.08,.01-.12,0-.05-.01-.1-.02-.14-.02-.08-.05-.16-.07-.24-.03-.1-.06-.2-.1-.3,0-.02-.01-.04-.02-.05-.01-.1-.02-.2-.03-.29,.16-.54,1.02-.43,1.02,.14,1.24,7.26,1.1,14.7,2.35,21.96,0-.01,0-.02,0-.04,.02,.38,.26,.81,.06,1.17-.09,.16-.26,.23-.43,.23-.23,0-.47-.14-.52-.39"/><path class="cls-1" d="M23.16,78.4c.09-.73,.7-.24,.92-.8,.25-.42,.27-.93,.33-1.4,.12-1.25,.24-2.49,.39-3.73,.52-4.7,1.46-9.33,2.11-14.01,0-.45,.26-1.04,.81-.81,.49,.24,.2,.79,.18,1.19-.72,5.01-1.71,9.99-2.22,15.03-.31,1.5,.14,4.33-1.57,5.01-.1,.03-.21,.05-.32,.05-.32,0-.64-.16-.63-.54"/><path class="cls-1" d="M22.32,79.11c-1.83-.11-3.59-.66-5.25-1.42h0s-.01-.02-.01-.02h0s-.01-.02-.01-.02h-.01s-.01-.02-.01-.02h-.01s-.01-.02-.01-.02h-.01s-.01-.02-.01-.02h-.01s-.01-.02-.01-.02h-.01s-.01-.02-.01-.02h-.01s-.01-.02-.01-.02h-.01s-.02-.02-.02-.02h-.02s-.02-.02-.02-.02h-.02s-.02-.02-.02-.02h-.02s-.02-.02-.02-.02h-.02s-.02-.02-.02-.02h-.02s-.02-.02-.02-.02h-.02s-.03-.02-.03-.02h-.03s-.03-.02-.03-.02h-.03s-.03-.02-.03-.02h-.03s-.04-.01-.04-.01h-.04c-.14-.07-.28-.14-.41-.22-.69-.41-3.52-1.68-3.14-2.6,.11-.26,.44-.36,.69-.25,.66,.62,1.41,1.14,2.22,1.56,1.91,1.06,3.98,1.94,6.17,2.18,.48,.04,.96,.08,1.43,0,.66-.14,.9,.84,.24,1-.29,.06-.58,.08-.88,.08-.14,0-.28,0-.42-.01m-8.49-4.23c.02-.07,.01-.15,0-.22,.02,.07,.02,.14,0,.22"/><path class="cls-1" d="M14.91,58.44c-.35-.43-.24-1.12-.39-1.62-.36-2.29-.99-4.53-1.62-6.76-.19-.55,.48-1,.89-.57,.18,.2,.12,.49,.22,.72,.62,2.11,1.18,4.24,1.53,6.42,.08,.45,.15,.91,.22,1.36,.05,.32-.24,.56-.54,.56-.11,0-.22-.04-.32-.12"/><path class="cls-1" d="M14.52,56.82s0,.01,0,.02c0,0,0-.01,0-.02"/><path class="cls-1" d="M12.69,75.13c-.3-.74,.09-1.54,.14-2.3,.16-1.11,.29-2.22,.41-3.33,.41-3.73,.95-7.45,1.51-11.17-.03-.74,1.02-.89,1.07-.1-.71,4.57-1.3,9.16-1.83,13.76-.08,.89-.32,1.78-.38,2.67,.19,.4-.15,.74-.49,.74-.17,0-.33-.08-.43-.27"/><path class="cls-1" d="M39.28,47.27c-.83-.48-4.21-2.04-2.32-3.06,.84-.32,1.73-.56,2.52-1.01,.47-.26,.73-.54,.56-1.09-.1-.68-.21-1.36-.3-2.05-.05-.48-.18-.93-.1-1.39,.17-.6,1.14-.39,1.02,.23,.35,4.08,1.69,4.57-3,6.15,.68,.57,1.46,.92,2.19,1.35,.48,.3,.17,.95-.28,.95-.09,0-.18-.02-.28-.08"/><path class="cls-1" d="M32.74,59.35c-.44-.37,.02-.84,.27-1.16,1.28-1.77,2.48-3.59,3.56-5.49,.89-1.62,1.74-3.26,2.47-4.96,.27-.44,.27-1.35,.97-1.27,.67,.2,.38,.72,.21,1.14-.69,1.71-1.55,3.34-2.41,4.97-1.18,2.15-2.51,4.22-3.96,6.2-.19,.28-.45,.69-.78,.69-.1,0-.21-.04-.32-.13"/><path class="cls-1" d="M24.55,35.52c-.03-.1-.06-.21-.1-.3-.03-.08-.06-.17-.14-.22-.03-.02-.07-.03-.11-.03-.01-.01-.02-.03-.04-.04-.02-.02-.04-.05-.06-.07,.09-.18,.28-.3,.49-.3,.28,0,.51,.26,.5,.53,0,.28-.25,.49-.53,.5,0-.02-.01-.04-.02-.07"/><path class="cls-1" d="M21.54,42.69h-.06s-.06-.01-.06-.01h-.06s-.06-.01-.06-.01h-.07s-.07,0-.07,0h-.07s-.07,0-.07,0h-.07s-.07,0-.07,0h-.07s-.07,0-.07,0h-.15s-.07,0-.07,0h-.03c.17-.6,.42-1.39,.71-2.49,.33-.9,.9-3.38,1.62-4.77,.03,.04,.05,.08,.08,.12,.06,.09,.12,.17,.18,.25,.05,.06,.1,.14,.16,.19,.04,.04,.09,.07,.14,.08,.02,.02,.03,.04,.05,.06,.04,.05,.1,.08,.16,.1-.32,.75-.54,1.55-.8,2.31-.44,1.38-.85,2.8-1.23,4.21h0Z"/><path class="cls-1" d="M24.45,35.22c-.03-.08-.06-.17-.14-.22-.03-.02-.07-.03-.11-.03-.01-.01-.02-.03-.04-.04-.04-.05-.1-.1-.15-.15,0-.02,0-.03-.01-.05-.02-.04-.05-.08-.09-.1,.02-.04,.02-.09,.02-.14,0-.04,0-.08-.01-.12,.5-.04,1.1,.06,1.03,.63-.05,.27-.23,.37-.44,.41-.02-.06-.04-.13-.07-.19"/><path class="cls-1" d="M23.82,46.12c-3.35-2.55-3.78-1.93-3.12-4.22h.03s.07,0,.07,0h.07s.07,0,.07,0h.07s.07,0,.07,0h.07s.07,0,.07,0h.07s.07,0,.07,0h.07s.07,0,.07,0h.07s.06,.01,.06,.01h.06s.06,.01,.06,.01h0c-.11,.41-.21,.81-.31,1.22,.66,.57,1.45,.98,2.16,1.49,.39,.36,1.39,.75,.93,1.39-.1,.12-.25,.18-.4,.18-.12,0-.24-.04-.33-.12"/><path class="cls-1" d="M20.43,47.89c-.14-.25-.03-.56,.22-.69,.66-.37,1.31-.75,1.95-1.14,.58-.27,1.19-.89,1.84-.89,.28,.06,.47,.31,.43,.59-.04,.21-.22,.39-.43,.42-.63,.33-1.22,.71-1.83,1.07-.49,.29-.98,.58-1.47,.85-.07,.04-.16,.06-.24,.06-.19,0-.37-.1-.47-.27"/><path class="cls-1" d="M27.07,60.46c-.6-.2-1.48-1.95-1.89-2.54-.45-.77-.87-1.55-1.28-2.33-1.24-2.41-2.43-4.85-3.44-7.37-.24-.45,.18-1,.67-.78,.16,.07,.27,.22,.29,.39,.1,.31,.24,.61,.37,.91,.62,1.44,1.28,2.86,1.96,4.27,.88,1.76,1.77,3.52,2.81,5.2,.31,.5,.65,.98,1.02,1.44,.26,.32-.03,.81-.42,.81-.03,0-.06,0-.1,0"/><path class="cls-1" d="M24.56,36.19c-.1-.49-.33-.96-.37-1.45,.02-.63,.98-.66,1.04-.03,.1,.42,.25,.83,.35,1.25,.09,.38-.22,.62-.52,.62-.21,0-.42-.12-.49-.39"/><path class="cls-1" d="M22.72,36.28c-.63-.52,.08-1.03,.6-1.22,.31-.13,.6-.33,.92-.44-.04,.02-.08,.05-.11,.08,.03-.03,.07-.06,.11-.08,.09-.03,.17-.05,.26-.06,.42,0,.66,.56,.38,.84-.26,.23-.63,.31-.93,.49-.18,.09-.36,.17-.54,.26-.09,.13-.25,.2-.41,.2-.1,0-.2-.03-.28-.08"/><path class="cls-1" d="M24.25,34.62s0,0-.01,0t0,0s.01,0,.02,0"/><path class="cls-1" d="M30.1,45.5c-1.24-1.3-2.27-2.62-3.29-4.06-.49-.69-.96-1.4-1.42-2.11-.15-.28-.42-.52-.44-.85,0-.53,.76-.66,.98-.23,1.07,1.66,2.19,3.33,3.45,4.86,.47,.58,.96,1.15,1.49,1.69,.35,.37-.01,.86-.41,.86-.12,0-.25-.05-.36-.17"/><path class="cls-1" d="M30.64,45.65c-.41-.06-.57-.59-.29-.88,.55-.52,1.17-.96,1.72-1.49,1-.95,1.91-2,2.73-3.1,.47-.64,.94-1.28,1.38-1.94,.36-.56,1.25,0,.88,.55-1.36,2.02-2.79,3.89-4.59,5.53-.36,.32-.74,.62-1.11,.94-.2,.15-.36,.41-.63,.41-.03,0-.06,0-.09,0"/><path class="cls-1" d="M29.2,73.76c-1.37-.15-2.7-.61-3.98-1.13-.62-.29-.16-1.23,.46-.92,.87,.39,1.81,.63,2.73,.89,1.39,.39,2.8-.09,4.14-.49,.63-.19,1.24-.42,1.85-.69,.26-.11,.57,.05,.67,.3,.22,.8-1.02,.87-1.53,1.14-1.29,.4-2.62,.9-3.99,.9-.12,0-.23,0-.35-.01"/><path class="cls-1" d="M51.78,48.98c-.2-.14-.42-.33-.35-.61,.26-.67,.7-.45,1.09-.11-.07,.23-.05,.49-.01,.73,.02,.16,.05,.31,.08,.47,.02,.12,.04,.23,.07,.35-.32-.25-.61-.53-.88-.83m.62-.28s.04-.09,.05-.14c-.01,.05-.03,.09-.05,.14"/><path class="cls-1" d="M59.48,47.7c-.01-.17-.02-.35-.03-.52,0-.03,0-.07,0-.1,0-.06,0-.12,0-.18h0c.13-.19,.25-.38,.36-.58,.29-.6,1.23-.17,.94,.44-.3,.52-.72,1.12-1.22,1.7-.01-.25-.02-.51-.03-.76"/><path class="cls-1" d="M59.4,52.08c-.47-.41,.12-.9,.24-1.33,.38-1.09,.52-2.26,.5-3.41,.06-.51-.34-1.08,.04-1.47,.19-.17,.49-.19,.69-.02,.22,.18,.18,.46,.24,.7,.26,.75-.14,5.64-1.38,5.64-.11,0-.22-.03-.33-.11"/><path class="cls-1" d="M54.97,54.23c-1.19-.21-3.07-1.78-3.39-2.95-.18-.59-.33-2.43-.02-2.93,.29-.35,.85-.14,.91,.25,0,.04,0,.08,0,.12,0,.02,0,.04,0,.06,0,0,0,0,0,0-.14,2.04-.04,2.74,1.69,3.96,1.47,1.21,3.44-.06,4.68-1.03,.38-.26,.75-.94,1.26-.54,.21,.18,.25,.51,.06,.73-1.27,1.25-2.96,2.37-4.8,2.37-.13,0-.26,0-.39-.02"/><path class="cls-1" d="M54.24,55.03c-1.61-.2-3.03-1.12-4.46-1.81-.81-.4-1.59-.85-2.36-1.32-.42-.27-.93-.49-1.19-.93-.19-.52,.48-.93,.87-.53,.34,.31,.76,.52,1.15,.76,1.04,.64,2.14,1.18,3.23,1.74,2,.89,2.81,1.65,4.88,.31,.23-.16,.57-.11,.73,.12,.16,.22,.11,.57-.12,.72-.8,.49-1.7,.94-2.67,.94-.02,0-.03,0-.05,0"/><path class="cls-1" d="M2.66,63.29c-.38-.39-.58-.91-.78-1.41-.13-.36-.34-.71-.37-1.1,.02-.65,1.01-.65,1.04,0,.18,.33,.44,1.28,.8,1.74,.66,.74,1.79,1.01,2.74,.73,1.11-.42,1.67-1.6,2.36-2.49,.43-.62,.86-1.25,1.24-1.9,.14-.24,.49-.3,.72-.16,.24,.15,.31,.48,.16,.71-.37,.65-.79,1.26-1.22,1.87-.74,1.01-1.41,2.2-2.56,2.79-.46,.21-.96,.31-1.46,.31-.99,0-1.99-.38-2.67-1.09"/><path class="cls-1" d="M5.27,66.52c-1.87-.35-4.58-1.55-4.22-3.82,.05-.57,.15-1.13,.28-1.68,.05-.36,.25-.79,.69-.71,.37,.07,.53,.45,.38,.74-.15,.55-.23,1.05-.3,1.6-.27,1.05,.55,1.71,1.39,2.18,1.04,.5,2.47,1.14,3.46,.24,.89-.74,1.7-1.56,2.48-2.41,.44-.51,1.23,.14,.8,.66-.34,.38-.7,.76-1.06,1.12-.97,.93-1.99,2.13-3.39,2.13-.16,0-.33-.02-.5-.05m-3.83-5.52s.02,.03,.02,.04c-.02-.04-.04-.09-.04-.13,0,0,0,.02,0,.03h0s.01,.04,.02,.06"/><path class="cls-1" d="M9.82,63.15c-.56-.27-.12-.86-.12-1.31,.07-.69,.1-1.38,.1-2.06,.01-.29-.03-.58,.03-.87,.18-.57,1.04-.42,1.02,.17-.02,.99-.01,1.97-.13,2.95-.04,.43-.17,1.17-.66,1.17-.07,0-.15-.02-.24-.05m.53-3.57s.09,0,.12-.02c-.04,.01-.08,.02-.12,.02"/><path class="cls-1" d="M10.31,62.94c-.28-.05-.47-.31-.42-.59,.03-.14,.11-.27,.24-.35-.06,.04-.12,.09-.16,.16,1.55-2.49,2.9-5.11,3.96-7.84,.22-.64,1.19-.34,.99,.31-.35,.97-.78,1.88-1.21,2.81-.81,1.72-1.7,3.41-2.72,5.02-.12,.23-.3,.49-.58,.49-.03,0-.07,0-.1-.01"/><path class="cls-1" d="M49.6,37.89c-.55-.56-1.11-1.1-1.64-1.67-.65-.71-1.3-1.63-2.4-1.45-.87,.14-1.25-.18-1.28-.5-.03-.28,.21-.56,.61-.54,.9,.06,1.9-.11,2.62,.57,.99,.92,1.86,1.97,2.85,2.9,.34,.37,0,.86-.4,.86-.13,0-.26-.05-.37-.17"/><path class="cls-1" d="M14.22,38.34c-.58-.34-.07-.94,.17-1.33,.18-.33,.48-.74,.91-.54,.47,.27,.29,.67,.02,1.01-.22,.32-.42,.92-.84,.92-.08,0-.16-.02-.25-.07"/><path class="cls-1" d="M14.92,37.16c-.51-.88,.91-1,1.48-1.14,1.07-.22,2.16-.31,3.25-.4,1.04-.08,2.07-.14,3.11-.21,.28-.02,.53,.23,.53,.5,.01,.28-.23,.52-.51,.53-1.17,.08-2.34,.14-3.5,.24-.99,.07-1.97,.19-2.94,.4-.33,.02-.7,.27-1.02,.27-.14,0-.28-.05-.4-.18"/><path class="cls-1" d="M20.58,109.82h0s-.02,0-.03,0c0,0,0,0,0,0-.03-.03-.05-.06-.07-.09-.03-.04-.06-.09-.09-.13-.05-.07-.11-.18-.2-.22,0,0,0,0,0,0h0s.01-.02,.01-.02l.02-.02,.02-.02,.02-.02,.02-.02,.02-.02,.02-.02,.02-.02,.02-.03,.02-.03,.02-.03,.02-.03,.02-.03v-.03s.03-.03,.03-.03h0c.06,.14,.13,.29,.19,.43,.07,.14,.06,.28,.01,.39h-.05"/><path class="cls-1" d="M17.18,77.82h0s0-.02,0-.02h0s0-.02,0-.02h0s0-.02,0-.02h0s0-.02,0-.02h0s0-.02,0-.02h0s-.01-.02-.01-.02h0s0-.02,0-.02h-.01s-.01-.02-.01-.02h-.01s-.01-.02-.01-.02h-.01s-.01-.02-.01-.02h-.01s-.01-.02-.01-.02h-.01s-.01-.02-.01-.02h-.01s-.01-.02-.01-.02h-.01s-.01-.02-.01-.02h-.01s-.02-.02-.02-.02h-.01s-.02-.02-.02-.02h-.02s-.02-.02-.02-.02h-.02s-.02-.02-.02-.02h-.02s-.02-.02-.02-.02h-.02s-.02-.02-.02-.02h-.02s-.02-.02-.02-.02h-.03s-.03-.02-.03-.02h-.03s-.03-.02-.03-.02h-.03s-.03-.01-.03-.01h-.04s-.04,0-.04,0h-.09s-.05,0-.05,0h-.03s.01-.07,.02-.11h0s0,0,0,0c0-.02,0-.05,.01-.07,0,.02,0,.03,0,.05,.06-.6,1.03-.59,1.04,.05-.03,.18-.06,.36-.1,.53h0Z"/><path class="cls-1" d="M16.24,77.26s0,0,0,0c0,0,0,.01,0,.02h0s0-.01,0-.01"/><path class="cls-1" d="M26.22,111.13c0-4.81,.25-9.61,.53-14.41,.25-4.11,.69-8.24,1.77-12.23,.35-1.04,1.17-4.31,2.24-4.57,.55-.03,.76,.7,.3,.97-3.27,6.5-3.1,14.61-3.58,21.73-.11,2.82-.24,5.65-.22,8.48,.01,.34-.26,.51-.53,.51s-.51-.16-.51-.49"/><path class="cls-1" d="M25.73,113.41c-.59-.69,.77-1.08,.56-1.87-.16-.89-3.33-2.81-4.24-2.4-.37,.07-.74,.4-1.09,.63-.04,0-.07,.02-.11,.02,0,0,0,0,0,0-.04,0-.08,0-.11,.02,0,0-.02,0-.03,0-.04,0-.08,0-.12,0h0s-.02,0-.03,0c0,0,0,0,0,0-.03-.03-.05-.06-.07-.09-.03-.04-.06-.09-.09-.13-.05-.07-.11-.18-.2-.22,0,0,0,0,0,0h0s.01-.02,.01-.02v-.02s.03-.02,.03-.02l.02-.02,.02-.02,.02-.02,.02-.02,.02-.03,.02-.03,.02-.03,.02-.03,.02-.03,.02-.03v-.03s.03-.03,.03-.03v-.03s.03-.03,.03-.03v-.03s.03-.03,.03-.03v-.03s.02-.03,.02-.03v-.03s.03-.03,.03-.03h0c.91-.64,2.03-.98,3.1-.46,1.29,.54,2.61,1.33,3.48,2.43,.38,.67,.26,1.52-.17,2.13-.19,.27-.52,.68-.86,.68-.11,0-.23-.04-.34-.15"/><path class="cls-1" d="M31.04,111.53c-.26-.06-.46-.35-.38-.62,.85-2.74,1.58-5.52,2.1-8.35,1.13-6.47,1.89-18.19-3.28-22.96-.27-.57-.6-1.53-.15-2.06,.37-.3,.97,.05,.84,.52-.02,.09,0,.18,0,.27,.03,1.23,1.48,1.66,1.91,2.74,2.3,4.41,2.66,9.53,2.49,14.4-.15,3.43-.61,6.84-1.41,10.18-.35,1.55-.78,3.08-1.23,4.6-.18,.45-.18,1.29-.78,1.29-.04,0-.08,0-.12-.01"/><path class="cls-1" d="M34.81,113.87c-.26-.1-.4-.41-.29-.67,.27-.61,.52-1.24,.77-1.86,1.66-4.37,4-8.45,5.46-12.9,.91-2.81,1.47-5.72,2.08-8.61,.97-4.64,1.8-9.35,1.75-14.1,0-.32-.04-.65,0-.97,.12-.59,1.09-.45,1.02,.16,.2,5.87-1.02,11.67-2.23,17.39-.98,5.97-3.56,11.44-6.09,16.89-.36,.84-.7,1.69-1.04,2.53-.32,.52-.56,2.16-1.25,2.16-.06,0-.12-.01-.18-.03"/><path class="cls-1" d="M31.42,112.5c-.34-.43-.94-1.09-.5-1.63,.3-.34,.91-.11,.91,.34-.02,.1,.06,.19,.12,.27,.79,1.33,1.7,1.22,3.09,1.23,.67-.03,.7,1.03,.03,1.03-.09,0-.18,0-.27,0-1.26,0-2.65-.06-3.37-1.25m-.1-.76c.12,0,.24-.05,.33-.13-.09,.08-.2,.12-.33,.13"/><path class="cls-1" d="M20.58,109.82h0s-.02,0-.03,0c0,0,0,0,0,0-.03-.03-.05-.06-.07-.09-.03-.04-.06-.09-.09-.13-.03-.05-.07-.11-.11-.15,.07-.01,.14-.01,.22,0,.25,.05,.43,.18,.53,.33-.06,.01-.11,.03-.17,.04h0s-.08,0-.11,.02c0,0-.02,0-.03,0-.04,0-.08,0-.12,0"/><path class="cls-1" d="M15.49,76.55h.04s.04,0,.04,0h.03s.03,0,.03,0h.03s.03,.01,.03,.01h.03s.02,.02,.02,.02h.02s.02,.02,.02,.02h.02s.02,.02,.02,.02h.02s.02,.02,.02,.02h.02s.02,.02,.02,.02h.02s.02,.02,.02,.02h.02s.02,.02,.02,.02h.02s.01,.02,.01,.02h.01s.01,.02,.01,.02h.01s.01,.02,.01,.02h.01s.01,.02,.01,.02h.01s.01,.02,.01,.02h.01s.01,.02,.01,.02h.01s.01,.02,.01,.02h.01s.01,.02,.01,.02h0c-.23-.09-.46-.19-.69-.29"/><path class="cls-1" d="M20.47,109.71s-.06-.09-.09-.13c-.04-.05-.08-.12-.13-.17-4.75-10.15-5.92-21.75-4.93-32.83h.03s.05-.02,.05-.02h.05s.04,0,.04,0h.04s.04,0,.04,0h.03s.03,.01,.03,.01h.03s.03,.01,.03,.01h.03s.03,.02,.03,.02h.02s.02,.02,.02,.02h.02s.02,.02,.02,.02h.02s.02,.02,.02,.02h.02s.02,.02,.02,.02h.02s.02,.02,.02,.02h.02s.02,.02,.02,.02h.01s.01,.02,.01,.02h.01s.01,.02,.01,.02h.01s.01,.02,.01,.02h.01s.01,.02,.01,.02h.01s.01,.02,.01,.02h.01s.01,.02,.01,.02h.01s.01,.02,.01,.02h.01s.01,.02,.01,.02h.01s0,.02,0,.02h.01s.01,.02,.01,.02h0s0,.02,0,.02h0s0,.02,0,.02h0s0,.02,0,.02h0s0,.02,0,.02h0s0,.02,0,.02h0c-.12,1-.2,1.98-.22,2.99-.12,4.86,.1,9.74,.77,14.55,.46,3.18,1.19,6.19,2.24,9.17,.63,1.82,1.31,3.62,2.13,5.36h0s-.01,.03-.01,.03v.03s-.03,.03-.03,.03v.03s-.03,.03-.03,.03l-.02,.03-.02,.03v.03s-.03,.03-.03,.03l-.02,.02-.02,.02-.02,.02v.02s-.03,.02-.03,.02v.02s-.03,.01-.03,.01h-.01s-.01,.03-.01,.03h-.01s-.01,.02-.01,.02h-.01s0,.02,0,.02h-.01s0,.02,0,.02h0s-.01,.01-.01,.01h0s-.01,.02-.01,.02h0s-.01,.01-.01,.01h-.01s0,.02,0,.02h-.01s-.01,.01-.01,.01h-.01s-.01,.01-.01,.01h-.01s-.01,.01-.01,.01h-.01s0,.01,0,.01h-.01s-.01,.01-.01,.01h-.01s-.01,.01-.01,.01h-.01s-.01,.01-.01,.01h-.01s-.01,.01-.01,.01h-.01s-.01,.01-.01,.01h-.01s-.01,.01-.01,.01h-.01s-.01,.01-.01,.01h-.01s-.01,.01-.01,.01h-.01s-.01,.01-.01,.01h-.01s-.01,.01-.01,.01h-.01s-.01,.01-.01,.01h0s-.03-.04-.05-.06"/><path class="cls-1" d="M20.92,109.17c.13-.13,.26-.25,.4-.36h0s-.01,.04-.01,.04v.03s-.02,.03-.02,.03v.03s-.02,.03-.02,.03v.03s-.02,.03-.02,.03v.03s-.02,.03-.02,.03v.03s-.03,.03-.03,.03v.03s-.03,.03-.03,.03l-.02,.03-.02,.03-.02,.03-.02,.03-.02,.03-.02,.02-.02,.02v.02s-.03,.02-.03,.02h-.01s-.01,.03-.01,.03h-.01s-.01,.02-.01,.02h-.01s-.01,.02-.01,.02h-.01s0,.02,0,.02h0s-.01,.02-.01,.02h0s-.01,.02-.01,.02h0s0,.02,0,.02h-.01s0,.01,0,.01h-.01s0,.01,0,.01h-.01s-.01,.01-.01,.01h-.01s0,.01,0,.01h-.01s-.01,.01-.01,.01h-.01s-.01,.01-.01,.01h-.01s-.01,.01-.01,.01h-.01c-.03-.18,.03-.37,.19-.48"/><path class="cls-1" d="M33.24,120.97c-1.74-.28-2.26-3.65-2.53-5.1,.1-1.17,.44-2.33,.72-3.47,.21-.6,1.15-.32,.99,.3-.23,1.05-.57,2.1-.67,3.18,.27,1.21,.55,3.16,1.47,4,1.14,.45,.03-3.7,0-4.25,.03-.82,.39-1.6,.71-2.34,.25-.62,1.22-.24,.97,.38-.29,.67-.56,1.24-.64,1.92,.23,1.34,.62,2.72,.47,4.09-.13,.69-.72,1.41-1.49,1.28"/><path class="cls-1" d="M28.98,120.71c.03-1.12,.36-2.21,.71-3.27,.32-.88,.56-1.85,1.12-2.62,.29-.33,.9-.09,.89,.35,.01,.24-.23,.45-.29,.65-.3,.64-.53,1.31-.75,1.98-.32,.99-.6,1.89-.64,2.88,.02,.67-1.03,.7-1.04,.03"/><path class="cls-1" d="M33.25,125.41c-.75-.07-1.43-.54-1.97-1.04-.85-.84-.82-2.15-1.15-3.21-.41,.61-1.3,0-.86-.59,1.66-1.69,1.92,.45,2.19,1.74,0-.01,0-.02,0-.02,.15,.98,.54,1.56,1.47,1.98,.47,.32,.93-.13,1.28-.42,.34-.28,.67-.95,1.19-.58,.56,.45-.16,1.03-.49,1.34-.46,.4-1,.81-1.64,.81"/><path class="cls-1" d="M35,123.93c-.27-.09-.39-.45-.29-.68,.03-.29,0-.58-.02-.86-.15-1.95-.71-3.83-1.22-5.71,0-.27,.22-.52,.51-.53,.5-.01,.54,.53,.66,.88,.16,.54,.32,1.09,.46,1.64,.26,.98,.42,1.96,.56,2.96,.03,.64,.51,2.55-.65,2.29"/><path class="cls-1" d="M20.62,111.46c-.07-.59-.13-1.19-.24-1.77-.08-.26-.1-.55,.14-.74,.3-.26,.82-.03,.84,.35,.15,.66,.21,1.33,.29,1.99,.09,.66-.92,.82-1.03,.16"/><path class="cls-1" d="M25.52,113.99c-.68-.11-.37-.91-.45-1.38-.05-.74-.14-1.47-.2-2.2-.01-.23-.06-.46-.05-.69,.08-.63,1.06-.55,1.04,.08,.07,1.02,.22,2.03,.27,3.05,.02,.45,.04,1.19-.61,1.13"/><path class="cls-1" d="M19.22,116.72c-1.58-.24-3.25-.52-4.62-1.38-.41-.28-.81-.8-.57-1.3,.32-.6,1.1-.66,1.68-.9,1.28-.42,2.54-.88,3.81-1.36,.61-.15,1.92-1.1,2.09-.01,0,.27-.23,.5-.5,.51-.33,.11-.66,.25-.99,.38-1.65,.64-3.33,1.19-4.99,1.78,.05,.04,.11,.09,.17,.13,.1,.06,.21,.12,.32,.18,0,0,0,0,0,0-.01,0-.02-.01-.04-.02,.89,.44,1.87,.63,2.83,.84,2.61,.79,4.4-1.22,6.53-2.3,.59-.33,1.1,.57,.51,.9-1.98,1-3.81,2.89-6.21,2.57"/><path class="cls-1" d="M23.86,121.97c-.26-.11-.39-.41-.28-.67,.29-.67,.56-1.36,.79-2.05,.47-1.32,.71-2.7,.82-4.09,.02-.37,.05-.74,.03-1.11-.05-.3-.1-.66,.22-.83,.77-.32,.85,.59,.83,1.12-.04,1.76-.32,3.56-.9,5.19-.25,.73-.53,1.44-.83,2.15-.11,.26-.42,.39-.68,.28"/><path class="cls-1" d="M18.81,120.86c-1.81-.16-3.45-.96-5.1-1.63-1.26-.56-2.83-.92-3.6-2.15-.45-.88-.29-2.29,.82-2.58,1.19-.4,2.41-.75,3.61-1.12,.37-.1,.74-.23,1.12-.26,.69,0,.72,1.02,.02,1.03-1.42,.31-2.8,.83-4.2,1.24-.31,.07-.58,.22-.55,.58-.06,.48,.22,.89,.62,1.13,1.47,.87,3.14,1.36,4.7,2.06,2.11,.84,3.86,.98,5.95-.03,.26-.12,.58,.03,.68,.29,.23,.76-.87,.84-1.37,1.07-.86,.33-1.78,.46-2.69,.37"/><path class="cls-1" d="M23.59,122.14c-1.46-.26-1.69-.75-1.39-2.15-.86-.58,.51-1.58,.97-.75,.25,.54-.04,1.14-.05,1.7,.23,.1,.49,.13,.73,.2,.66,.18,.39,1.16-.27,.99"/><path class="cls-1" d="M48.43,34.23c-.2-.15-.44-.2-.67-.27-.27-.1-.52-.27-.81-.32-.54-.11-1.13,.06-1.6-.29-.42-.28-.66-.77-.62-1.26,.06-.71-.04-1.51,.38-2.13,1.27-1.45,3.08-1.36,3.71-3.54,.32-.84,.6-1.7,.94-2.54,.23-.74,.31-1.54,.67-2.24,.26-.61,1.93-1.33,2.03-.31-.03,.78-1.12,.3-1.23,1.07-.17,.46-.27,.94-.37,1.42-.23,.78-.56,1.53-.82,2.3-.51,1.7-1.34,2.87-3,3.63-.42,.25-.93,.51-1.16,.95-.02,.5-.26,1.29,0,1.72,.17,.15,.4,.15,.63,.14,.15,0,.3-.01,.44,.03,.48,.04,.83,.25,1.21,.41,.23,.08,.48,.13,.69,.27,.43-.29,.55-.85,.42-1.33-.37-.29-.76-.59-1.22-.7-.83-.17-.58-1.78,1.27-.54,.82,.5,1.15,.97,1.01,1.94-.04,.67-.73,1.71-1.48,1.71-.14,0-.27-.03-.41-.11"/><path class="cls-1" d="M52.43,25.56c-.68-.19-1.75-1.93-.58-2.09,.65,0,.44,.88,.93,1.12,.84-.07,.88-.54,.75-1.24-.11-.56,.01-1.86-.86-1.69-.35,.08-.67,.22-1.03,.27-.6,0-.71-.87-.12-1.01,1.37-.51,2.56-.47,2.89,1.19,.11,.44,.13,.9,.18,1.35,.05,.37,.11,.75-.07,1.1-.25,.65-.99,1.06-1.69,1.06-.13,0-.27-.01-.39-.04"/><path class="cls-1" d="M55.99,27.19c-.99-.23-1.72-1.33-1.34-2.31,.15-.41,.8-.41,.96,0,.11,.25-.07,.51,.01,.77,.15,.42,.71,.7,1.09,.39,.06-.93,.22-1.86,.23-2.79-.39-.3-.87-.55-1.32-.67-.21,.45-.53,.85-.72,1.31-.27,.37-.32,1.06-.87,1.09-.28,0-.52-.23-.52-.52,0-.22,.15-.39,.23-.59,.29-.6,.63-1.17,.95-1.75,.42-.81,1.3-.63,1.94-.24,.42,.15,.76,.41,1.11,.68,.51,.64,.12,1.63,.09,2.37-.02,1.36-.12,2.27-1.64,2.27-.07,0-.14,0-.21,0"/><path class="cls-1" d="M58.74,29.23c-.14,0-.28-.03-.45-.1-.56-.23-1.05-.7-1.06-1.33-.07-.47-.09-.98,.24-1.36-.5,.43-1.18-.3-.7-.76,.59-.34,2.17-1.86,2.77-1.24,.56,.86,1.9,1.73,1.34,2.88-.33,.44-.79,.77-1.11,1.22-.3,.38-.6,.69-1.03,.69h0Zm-.44-2.16c-.15,.23-.02,.55,0,.81,.07,.15,.26,.24,.4,.31,.41-.47,.81-.94,1.27-1.37,.04-.17-.09-.29-.19-.42-.22-.36-.52-.66-.8-.97-.4,.25-.8,.48-1.16,.78,.04,0,.08-.01,.12-.01,.42,0,.69,.55,.36,.88"/><path class="cls-1" d="M54.75,34.45c-.61,0-1.12-.34-1.71-.42-.4-.03-.94,0-.95-.54,.07-.8,1.11-.46,1.6-.39,.43,.18,.85,.34,1.33,.35,.2,.04,.36-.07,.54-.16,.44-.19,.9-.36,1.31-.61,.27-.23,.57-.42,.84-.65,.17-.23,.38-.41,.56-.63,.09-.15,.16-.32,.3-.43,.37-.23,.93-.58,1.28-.13,.16,.21,.12,.47,.18,.71,.13,.39,.22,.83,.6,1.03,.21-.84,.42-1.77,.29-2.64-.26-.28-.64-.41-.89-.71-.36-.17-.9-.34-.99-.78-.04-.59,.6-.74,.99-.38,.19,.15,.42,.19,.62,.32,.26,.27,.6,.44,.87,.69,.47,.32,.48,.9,.48,1.41,.02,.55-.12,1.1-.21,1.64-.08,.41-.08,.88-.42,1.17-.94,.93-2.07-.32-2.28-1.27-.69,.86-1.58,1.58-2.62,1.99-.46,.19-.9,.46-1.4,.46-.1,0-.21-.01-.32-.04"/><path class="cls-1" d="M51.92,49.6c-.73-2.09-.93-4.33-1.44-6.47-.14-1.56-.55-3.09-.64-4.66-.15-1.97-.38-3.95-.46-5.92,.29-.73,1.21-.34,1.02,.39,.26,1.81,.28,3.65,.48,5.47,.14,1.66,.51,3.28,.7,4.93,.42,1.58,.57,3.24,.99,4.81-.12,.26-.09,.55-.05,.83,.02,.16,.05,.31,.08,.47,.03,.14,.06,.29,.09,.43-.08,.05-.18,.08-.27,.08-.18,0-.37-.11-.48-.38"/><path class="cls-1" d="M59.48,47.7c-.01-.17-.02-.35-.03-.52,0-.03,0-.07,0-.1,0-.06,0-.12,0-.18,0-.11,0-.22-.03-.33,0-.02,0-.04-.01-.07-.11-2.22-1.31-4.3-2.09-6.36-.51-1.5-1.31-2.89-1.84-4.38-.18-.66-.85-1.34-.48-2.02,.31-.53,1.17-.13,.93,.45,1.11,2.65,2.28,5.28,3.33,7.95,.75,1.78,1.29,3.41,1.18,5.21-.28,.3-.55,.61-.82,.92-.03,.04-.07,.07-.1,.11,0-.23-.01-.45-.03-.68"/><path class="cls-1" d="M11.06,39.42c-.33-.73-.65-1.46-1-2.18-.1,.49-.21,1.02-.53,1.41-.58,.63-1.68,.7-2.29,.07-.46-.58-.26-1.35-.24-2.02,.1-.51-.18-1.12,.21-1.55,1.35-1.12,2.9-.94,3.43,.84,.35,.87,.84,1.69,1.17,2.57,.19,.34,.43,.85-.04,1.09-.07,.04-.15,.05-.23,.05-.19,0-.38-.1-.47-.28m-3.02-3.61c.11,.74-.15,1.51,0,2.24,.11,.08,.24,.12,.37,.08,.55-.08,.55-.8,.65-1.23-.08-.35,.16-.73,.54-.7-.14-.51-.4-.71-.72-.71-.25,0-.53,.12-.83,.32"/><path class="cls-1" d="M4.87,41.15c-.92-.19-.88-1.31-.98-2.03-.06-.4-.22-.78-.23-1.18-.07-.6,.5-.92,1.02-1.05,.47-.18,1.04-.34,1.51-.08,.33,.2,.64,.45,.99,.62,.28-.01,.52,.2,.54,.48,.03,.46-.5,.66-.88,.49-1.04-.45-.93-.99-2.14-.43,.22,.71,.21,1.47,.41,2.18,.74,.06,1.02-.27,.95-.98-.04-.67,.99-.74,1.04-.07,.14,1.28-.64,2.09-1.82,2.09-.13,0-.27,0-.41-.03"/><path class="cls-1" d="M6.27,41.34c-.15-.42-.54-.88-.27-1.32,.16-.24,.49-.29,.72-.14,.15,.1,.23,.27,.23,.44,.1,.23,.21,.46,.31,.69,.14,.4-.19,.68-.51,.68-.19,0-.38-.1-.47-.34m.62-.79s.04-.09,.05-.13c0-.02,0-.04,0-.06h0c0,.06-.02,.13-.06,.2"/><path class="cls-1" d="M8.58,40.22c-.28-.39-.74-.67-.89-1.14-.23-.76,.89-1.06,1.02-.27,.31,.4,1.14,.92,.61,1.45-.1,.08-.22,.13-.35,.13-.15,0-.29-.06-.39-.17"/><path class="cls-1" d="M2.59,43.18s.02,0,.03,0c0,0-.02,0-.03,0t0,0"/><path class="cls-1" d="M2.68,43.16c-.06,0-.12-.01-.17-.02-.21-.09-.34-.26-.4-.47,0-.06,0-.13,0-.19,0-.15-.01-.31-.02-.46,0-.02,0-.04,0-.06,0-.51-.05-1-.08-1.5-.21-1.04,.85-1.46,1.67-1.71,.53-.59,1.29,.29,.73,.78-.41,.28-.96,.3-1.37,.6-.01,.7,.11,1.38,.07,2.06,.39,.05,.61-.24,.76-.55,.22-.26,.26-.57,.2-.89-.04-.67,.99-.74,1.04-.07,.13,.8-.31,1.8-1.03,2.27-.15-.01-.29,0-.43,.05,0,0-.01,0-.02,0-.09,.01-.18,.02-.27,.04-.1,.02-.2,.05-.3,.07-.01,0-.02,0-.04,0-.02,0-.04,0-.06,0-.03,0-.07,0-.1,0-.06,0-.12,0-.18,.01,0,0-.02,0-.02,0"/><path class="cls-1" d="M4.76,43.51c-.06-.17-.18-.33-.33-.43-.09-.2-.26-.36-.35-.56-.46-.8,.82-1.34,.96-.4,.74,.86,.37,1.45-.06,1.45-.07,0-.15-.02-.22-.05"/><path class="cls-1" d="M3.85,42.97c-.06,0-.13,.03-.19,.05,0,0-.02,0-.02,0h0c-.09,.01-.18,.02-.27,.04-.1,.02-.19,.05-.29,.07,.15-.27,.53-.33,.77-.17"/><path class="cls-1" d="M2.11,42.77c0-.09,0-.19,0-.28-.01-.35-.04-.71-.06-1.06,.35-.12,.68-.07,.77,.42,.04,.44-.43,.52-.71,.72,0,.07,0,.14,.01,.21,0,0,0,0,0,0"/><path class="cls-1" d="M6.83,49.04s-.03-.01-.05-.02h0s-.01-.02-.01-.02h-.02s-.01-.03-.01-.03h-.01s-.01-.03-.01-.03h-.01s-.01-.03-.01-.03h-.01s-.01-.03-.01-.03h-.01s-.01-.02-.01-.02h-.01s-.01-.02-.01-.02h-.01s-.01-.02-.01-.02h-.01s-.01-.02-.01-.02h-.01s-.01-.02-.01-.02h-.01s-.01-.02-.01-.02h-.01s-.01-.02-.01-.02h0s-.01-.01-.01-.01h-.01s0-.01,0-.01h0s0-.01,0-.01h0s0-.01,0-.01h0s0,0,0,0h0s0,0,0,0h-.01s0,0,0,0h0s0,0,0,0h0s0,0,0,0h0s-.01,0-.01,0h0s-.01,0-.01,0h-.01s-.01,0-.01,0h-.01s-.01,0-.01,0h-.01s-.01,0-.01,0h-.01s-.01,0-.01,0h-.01s-.01,0-.01,0h-.01s-.01,0-.01,0h-.01s-.01,0-.01,0h-.01s-.01,0-.01,0h-.01s-.01,0-.01,0h-.01s-.01,0-.01,0h-.04s-.01,0-.01,0h-.05s-.01,0-.01,0h-.02s-.01,0-.01,0h-.02s-.01,0-.01,0h-.01s-.01,0-.01,0h-.01s-.01,0-.01,0h-.01c-.8-.41-1.42-.99-1.71-1.96-.24-.44-.4-.91-.54-1.39,.05-.04,.09-.09,.12-.15,.02-.03,.03-.06,.05-.08t0,0s0,0,.01,0c.03,0,.06-.01,.08-.02,.06,0,.13-.02,.19-.02,.1,0,.21,0,.32,0h0c.08,.08,.17,.15,.27,.19,.14,.43,.32,.85,.52,1.26,.16,.48,.47,.89,.93,1.15,.36,.18,.74,.31,1.11,.48,.58,.19,.36,1-.16,1-.06,0-.12,0-.18-.03"/><path class="cls-1" d="M3.53,43.05s-.05,0-.08,.01c.03,0,.05,0,.08-.01"/><path class="cls-1" d="M12,41.67c-1.07-.15-1.64-1.37-.88-2.2,.5-.52,1.21-.79,1.76-1.26,.18-.63,1.18-.36,1.03,.28-.34,.85-1.43,1.06-2.03,1.68-.3,.43,.45,.59,.76,.5,.38-.17,.9-.5,1.17,.01,.27,.7-.73,1.03-1.42,1.03-.15,0-.28-.02-.39-.05"/><path class="cls-1" d="M12.07,47.99c-.72-.66,.52-1.37,.92-1.84,.26-.4,.43-.86,.64-1.29,.57-1.1,.52-2.36,.96-3.49,.11-.56,.43-1.09,.25-1.66-.25-.37-.58-.82-1.02-.94-.53,.83-1.65-.07-.81-.64,1.12-1.28,3.15,.87,2.93,2.13-.14,.91-.51,1.76-.7,2.65-.09,.92-.35,1.79-.77,2.62-.29,.57-.49,1.21-1.02,1.63-.4,.22-.64,.94-1.09,.94-.09,0-.18-.03-.29-.09"/><path class="cls-1" d="M6.63,48.88h-.01s-.01-.02-.01-.02h-.01s-.01-.02-.01-.02h-.01s-.01-.02-.01-.02h-.01s-.01-.02-.01-.02h-.01s-.01-.02-.01-.02h-.01s-.01-.02-.01-.02h-.01s0-.01,0-.01h0s-.01-.01-.01-.01h0s-.01-.01-.01-.01h0s0-.01,0-.01h0s0,0,0,0h0s0,0,0,0h0s0,0,0,0h0s0,0,0,0h0s0,0,0,0h0s0,0,0,0h-.01s-.01,0-.01,0h-.01s-.01,0-.01,0h-.01s-.01,0-.01,0h-.01s-.01,0-.01,0h-.01s-.01,0-.01,0h-.01s-.01,0-.01,0h-.01s-.01,0-.01,0h-.01s-.01,0-.01,0h-.01s-.01,0-.01,0h-.02s-.01,0-.01,0h-.02s-.01,0-.01,0h-.01s-.01,0-.01,0h-.07s-.01,0-.01,0h-.01s-.01,0-.01,0h-.01s-.01,0-.01,0h-.01s-.01,0-.01,0h-.01s-.01,0-.01,0h-.01s-.01,0-.01,0h-.01s-.01,0-.01,0h-.01s-.01,0-.01,0h-.01s-.01,0-.01,0h-.01s-.01,0-.01,0h-.01s-.01,0-.01,0h-.02s-.01,0-.01,0h-.02s-.02,0-.02,0h-.02s-.02,0-.02,0h-.02s-.02,0-.02,0h-.02s-.02,0-.02,0h-.02s-.02,0-.02,0h0c.18-.25,.35-.49,.53-.74,.22-.18,.54-.17,.73,.05,.22,.26,.1,.58-.11,.89h0Z"/><path class="cls-1" d="M11.24,48.03c.11-.43,.5-.71,.77-1.05,.23-.33,.68-.63,1.02-.26,.45,.59-.43,1.03-.72,1.47,0,.02,0,.04-.01,.05h0s0-.02,0-.02h0s0-.03,0-.03h0s0-.02,0-.02h0s0-.02,0-.02h0s0-.01,0-.01h0s0,0,0,0h0s0,0,0,0h-.01s0,0,0,0h-.01s-.01,0-.01,0h-.01s-.01,0-.01,0h-.01s-.01,0-.01,0h-.05s-.01,0-.01,0h-.01s-.01,0-.01,0h-.01s-.01,0-.01,0h-.01s-.01,0-.01,0h-.01s-.01,0-.01,0h-.01s-.01,0-.01,0h-.01s-.01,0-.01,0h-.01s-.01,0-.01,0h-.01s-.01,0-.01,0h-.01s-.01,0-.01,0h-.01s-.01,0-.01,0h-.01s-.01,0-.01,0h-.01s-.01,0-.01,0h-.01s-.01,0-.01,0h-.01s-.01,0-.01,0h-.01s-.01,0-.01,0h-.01s-.01,0-.01,0h-.01s-.01,0-.01,0h-.01s-.01,0-.01,0h-.01s-.01,0-.01,0h-.01s-.01,0-.01,0h-.01s-.01,0-.01,0h-.01s-.01,0-.01,0h-.01s-.01,0-.01,0h-.01s-.01,0-.01,0h-.01s-.01,0-.01,0h-.01s-.01,0-.01,0h-.01s-.01,0-.01,0h-.01s-.01,0-.01,0h-.01s-.01,0-.01,0h-.01s-.01,0-.01,0h-.01s-.01,0-.01,0h-.01s-.01,0-.01,0h-.01s-.01,0-.01,0h-.01s-.01,0-.01,0h0c.02-.1,.03-.21,.05-.32"/><path class="cls-1" d="M1.05,45.99c-1.53-.34-1.12-1.43-.48-2.42,.32-.42,.06-1.22,.75-1.25,1.24,.24-.02,1.96-.29,2.59,.42,.23,.85-.2,1.13-.48,.16-.24,.23-.57,.55-.65,.47-.11,.82,.31,1.17,.54,.21,.12,.41,.28,.56,.46,.6,.76-.5,1.51-.85,.6-.17-.16-.37-.25-.55-.41-.41,.52-1.06,1.02-1.75,1.02-.08,0-.15,0-.23-.02"/><path class="cls-1" d="M1.39,43.29c-.59-.09-.55-.72-.21-1.06,.21-.23,.53-.19,.8-.26,.12-.05,.24-.07,.37-.04,.43,.1,.52,.74,.12,.94-.18,.09-.36,.13-.56,.15-.09,.17-.28,.27-.47,.27-.02,0-.04,0-.06,0"/><path class="cls-1" d="M6.29,48.42h.01s.01,0,.01,0h.01s.01,0,.01,0h.01s.01,0,.01,0h.01s.01,0,.01,0h.01s.01,0,.01,0h.01s.01,0,.01,0h.01s.01,0,.01,0h.01s.01,0,.01,0h.01s.01,0,.01,0h.01s.01,0,.01,0h.02s.01,0,.01,0h.11s.01,0,.01,0h.02s.01,0,.01,0h.01s.01,0,.01,0h.01s.01,0,.01,0h.01s.01,0,.01,0h.01s0,0,0,0h.01s0,0,0,0h0s.01,0,.01,0h0s0,0,0,0h.01s0,0,0,0h0s0,0,0,0h0s.01,0,.01,0h0s.01,0,.01,0h.01s.01,0,.01,0h.01s.01,.01,.01,.01h.01s.01,.01,.01,.01h.01s.01,.02,.01,.02h.01s.01,.02,.01,.02h.01s.01,.02,.01,.02h.01s.02,.02,.02,.02h.01s.01,.02,.01,.02h.02s.01,.02,.01,.02h.02s.02,.02,.02,.02h.02s.02,.02,.02,.02h.02s.02,.02,.02,.02h.02s.02,.03,.02,.03h.02s0,.02,0,.02c-.35-.08-.69-.18-1.01-.3"/><path class="cls-1" d="M3.02,57.62l-.06-.08-.06-.08-.06-.08-.06-.08-.06-.08-.06-.08-.07-.08-.07-.08-.07-.08-.08-.08-.08-.08-.05-.04c.21-.57,.46-1.13,.68-1.7,.94-2.2,1.92-4.38,3.06-6.49h.02s.02-.01,.02-.01h.02s.02-.01,.02-.01h.02s.02-.01,.02-.01h.02s.02-.01,.02-.01h.02s.02,0,.02,0h.01s.01-.01,.01-.01h.01s.01,0,.01,0h.01s.01,0,.01,0h.01s.01,0,.01,0h.01s.01,0,.01,0h.01s.01,0,.01,0h.01s.01,0,.01,0h.01s.01,0,.01,0h.01s.01,0,.01,0h.01s.01,0,.01,0h.01s.01,0,.01,0h.01s.01,0,.01,0h.01s.01,0,.01,0h.01s.01,0,.01,0h.01s.01,0,.01,0h.01s.01,0,.01,0h.01s.01,0,.01,0h.01s.01,0,.01,0h.01s.01,0,.01,0h.04s.01,0,.01,0h.01s.01,0,.01,0h.01s.01,0,.01,0h.01s.01,0,.01,0h.01s.01,0,.01,0h.01s.01,0,.01,0h.01s.01,0,.01,0h.01s.01,0,.01,0h.01s0,0,0,0h0s0,0,0,0h.01s0,0,0,0h.01s0,0,0,0h0s0,0,0,0h0s.01,0,.01,0h0s.01,0,.01,0h.01s.01,.01,.01,.01h.01s.01,.01,.01,.01h.01s.01,.01,.01,.01h.01s.01,.02,.01,.02h.01s.01,.02,.01,.02h.01s.01,.02,.01,.02h.01s.02,.02,.02,.02h.01s.01,.02,.01,.02h.02s0,.01,0,.01c-.17,.33-.42,.67-.51,.91-.73,1.33-1.34,2.72-1.99,4.09-.54,1.35-1.22,2.64-1.62,4.03h-.01Z"/><path class="cls-1" d="M9.53,60.32c-.04-.22-.09-.44-.17-.64,.18-.9,.35-1.81,.57-2.7,.27-1.91,.47-3.83,.95-5.71,.28-1.23,.66-2.47,.72-3.73h0s.01,0,.01,0h.01s.01,0,.01,0h.01s.01-.01,.01-.01h.01s.01,0,.01,0h.01s.01-.01,.01-.01h.01s.01,0,.01,0h.01s.01,0,.01,0h.01s.01-.01,.01-.01h.01s.01,0,.01,0h.01s.01,0,.01,0h.01s.01-.01,.01-.01h.01s.01,0,.01,0h.01s.01-.01,.01-.01h.01s.01-.01,.01-.01h.01s.01-.01,.01-.01h.01s.01-.01,.01-.01h.01s.01-.01,.01-.01h.01s.01,0,.01,0h.01s.01-.01,.01-.01h.01s.01-.01,.01-.01h.01s.01,0,.01,0h.01s.01-.01,.01-.01h.01s.01,0,.01,0h.01s.01,0,.01,0h.01s.01,0,.01,0h.01s.01,0,.01,0h.01s.01,0,.01,0h.01s.01,0,.01,0h.01s.01,0,.01,0h.01s.01,0,.01,0h.01s.01,0,.01,0h.01s.01,0,.01,0h.01s.01,0,.01,0h.01s.01,0,.01,0h.01s.01,0,.01,0h.01s.01,0,.01,0h.01s.01,0,.01,0h.01s.01,0,.01,0h.05s.01,0,.01,0h0s.01,0,.01,0h0s0,0,0,0h0s0,.01,0,.01h.01s0,.01,0,.01h0s0,.02,0,.02h.01s0,.02,0,.02h.01s0,.02,0,.02c-.16,1.81-.66,3.61-1.06,5.4-.44,2.12-.55,4.25-1.09,6.34-.06,.19-.13,.56-.21,1.03-.04,.05-.09,.1-.14,.14-.02,.02-.04,.04-.07,.05-.03,.02-.06,.03-.09,.05-.02,.01-.05,.02-.07,.03-.01,0-.03,0-.04,.01,0,0-.01,0-.02,0h-.02c-.12,0-.25-.02-.37-.04"/><path class="cls-1" d="M9.53,60.32c-.02-.13-.05-.25-.08-.37,.05-.03,.1-.05,.17-.06,.34-.04,.5,.11,.57,.33-.02,.02-.04,.03-.06,.05-.03,.02-.06,.03-.09,.05-.02,.01-.05,.02-.07,.03-.01,0-.03,0-.04,.01,0,0-.01,0-.02,0,0,0-.01,0-.02,0-.12,0-.25-.02-.37-.04"/><path class="cls-1" d="M12.33,58.04c.13,.04,.29,.02,.42,0,.02,0,.05,0,.07-.01h.02s0,.07,0,.11c0,.14,0,.28,.02,.43-.18-.17-.36-.35-.53-.52"/><path class="cls-1" d="M10.88,56.56c-.37-.35-1-1.06-.3-1.41,.31-.14,.51,.04,.68,.26,0,.03-.01,.06-.02,.09-.02,.11-.03,.22-.04,.34,0,.03,0,.07-.01,.1-.04,.06-.1,.1-.17,.14,.06-.03,.12-.08,.17-.14-.01,.13-.03,.25-.02,.38,0,.01,0,.03,0,.04-.02,.07-.03,.13-.04,.2-.01,.09-.02,.18,0,.26-.08-.09-.17-.17-.25-.26"/><path class="cls-1" d="M12.41,59.94l-.03-.07-.03-.07-.03-.07-.03-.07-.04-.06-.04-.06-.04-.06-.04-.06-.04-.05-.04-.05-.04-.05-.04-.05-.04-.04-.03-.04-.03-.04-.03-.03-.03-.03-.03-.03-.03-.02c.13-.24,.27-.49,.4-.73,.04-.08,.08-.15,.11-.23,.01,0,.02,0,.03,.01,.14,.04,.3,.03,.44,0,.02,0,.05,0,.07-.01h.02s0,.07,0,.11c0,.21,.01,.42,.03,.62,0,.09,.01,.19,.02,.28-.15,.28-.31,.58-.48,.91h0Z"/><path class="cls-1" d="M12.41,59.18c-.65-.21-.26-.92-.14-1.36,.06-.49,.52-1.03,1-.6,.39,.47-.17,1.08-.23,1.61-.07,.23-.28,.38-.51,.38-.05,0-.09,0-.14-.02"/><path class="cls-1" d="M1.95,57.8c.08-.49,.22-.95,.38-1.41l.05,.04,.08,.08,.08,.08,.07,.08,.07,.08,.07,.08,.06,.08,.06,.08,.06,.08,.06,.08,.06,.08,.06,.08h.01c-.08,.3-.15,.58-.21,.87-.47,1.39-.4,2.83,.38,4.08-.14-.02-.27-.03-.41-.02-.18,.01-.37,.06-.54,.14-.04,.02-.09,.04-.13,.07-.78-1.45-.8-3.05-.28-4.64"/><path class="cls-1" d="M11.87,58.66l.03,.02,.03,.03,.03,.03,.03,.03,.04,.04,.03,.04,.04,.04,.04,.05,.04,.05,.04,.05,.04,.05,.04,.06,.04,.06,.03,.06,.04,.06,.04,.07,.03,.07,.03,.07,.03,.07h0c-.45,.84-1,1.79-1.59,2.69-.19-.01-.38,.02-.56,.1-.25,.11-.49,.27-.73,.41,0,0-.01,0-.02,0-.12,0-.24,0-.36,.03,1.02-1.29,1.81-2.75,2.6-4.19"/><path class="cls-1" d="M56.04,51.71c-.68-.04-1.34-.27-1.93-.6-.99-.58-1.79-1.48-2.39-2.42-.22-.38,.16-.86,.59-.75,.32,.05,.38,.42,.57,.62,.39,.52,.74,.9,1.21,1.3,2.59,2.15,5.17-.34,5.5-3.07,.07-.67,1.1-.57,1.04,.09-.28,2.32-2.01,4.86-4.59,4.83"/><path class="cls-1" d="M54.52,54.96c-1.06,.07-1.03-1.27,.03-1.03,1.44,.27,2.85-.42,3.89-1.36,.26-.24,.48-.51,.68-.81,.16-.23,.5-.28,.73-.12,.57,.46-.16,1.08-.48,1.46-1.25,1.25-3.03,2.13-4.84,1.85"/><path class="cls-1" d="M40.07,29.81c-.67-.13-.49-1.12,.18-1.01,.78,.08,1.72-.04,2.29-.63,.96-1.04,1.19-2.63,.62-3.92-.35-.79-1.08-1.58-2.02-1.47-.92,.26-1.03-1.03-.08-1.03,4.81-.05,4.65,8.86-.99,8.06"/><path class="cls-1" d="M20.86,30.72c-1.37-.22-2.72-1.14-3.27-2.41-.15-.44-.4-1.16,.28-1.26,.77-.02,.51,.97,.95,1.35,.58,.66,1.33,1.2,2.22,1.31,.67,.12,.49,1.12-.18,1.01"/><path class="cls-1" d="M29.57,36.87c-1.12,.03-2.16-.41-3.16-.85-.82-.36-1.68-.72-2.38-1.3-3.3-2.28-4.61-6.45-4.35-10.3-.14-.81,.96-1.08,1.05-.22-.01,.23-.02,.47-.02,.7-.1,2.61,.57,5.35,2.23,7.42,1.29,1.56,3.07,2.5,4.95,3.2,.55,.21,1.13,.33,1.73,.32,.67,.03,.64,1.05-.04,1.03"/><path class="cls-1" d="M28.93,36.5c-.18-.98,1.11-.6,1.69-.72,.69-.09,1.38-.19,2.06-.35,2.54-.62,3.41-1.32,5.03-3.3,.9-1.08,1.36-2.4,1.85-3.68,.08-.61,.26-1.2,.46-1.78,.27-.93,.37-1.9,.41-2.87,.07-.6-.56-1.77,.43-1.83,.36,.02,.51,.37,.48,.69,.22,.96,.1,1.97-.03,2.92-.1,.91-.47,1.76-.67,2.66-.04,.65-.43,1.21-.59,1.83-.59,1.63-1.7,3-2.91,4.23-1.77,1.88-5.15,2.52-7.66,2.54,.02,0,.03,0,.05,0,0,0,.02,0,.03,0-.26,.06-.54-.07-.62-.33"/><path class="cls-1" d="M16.75,28.14c-.18-.49,.33-.69,.7-.83,2.63-1.07,2.77-6.76,3.63-9.22,.71-2.56,2.54-5.09,5.23-5.82,2.12-.54,4.47-.6,6.49,.33,.58,.3,1.3,.52,1.67,1.09,.46,.29,.17,1.04-.37,.94-.32-.02-.42-.33-.62-.51-.74-.47-1.53-.8-2.37-1.01-1.74-.37-3.61-.21-5.26,.42-1.24,.59-2.21,1.66-2.92,2.81-1.12,2.04-1.33,4.39-1.85,6.61-.58,2.14-1.23,4.76-3.64,5.48-.26,.11-.57-.05-.67-.3"/><path class="cls-1" d="M40.61,23.26c-2.04-.98-1.92-4-2.55-5.87-.49-1.57-1.24-3.62-3.28-2.86-.53,.59-1.36-.2-.77-.73,.89-.62,2.24-.58,3.14,0,2.03,1.65,2.03,4.57,2.75,6.87,.22,.62,.47,1.4,1.14,1.66,.61,.29,.17,1.21-.44,.93m-6.1-9.53s-.06-.02-.09-.02h0s-.05,0-.07,0c-.02,0-.05,0-.07,0,.01,0,.02,0,.03,0,.07,0,.13,0,.19,.03"/><path class="cls-1" d="M43.89,34.52c-1.18-3.08-.25-6.75,.03-9.94,.23-2.32,.27-4.66-.1-6.96-.67-3.51-2.62-9.06-6.96-9.07-.47,.03-1.16,.23-1.19-.46,.05-.65,.9-.54,1.37-.57,5.7,.2,8.01,8.27,8.08,12.93,.06,1.92-.09,3.83-.34,5.73-.2,1.98-.96,6.5,.22,8.08,.5-.11,1.21-.79,1.54-.07,.2,.55-.47,.73-.85,.92-.67,.39-1.47,.09-1.8-.59m-7.52-25.93s.1-.04,.14-.07c-.04,.03-.09,.05-.14,.07"/><path class="cls-1" d="M41.2,40.26c-1.06-.48-1.82-1.47-2.42-2.42-.47-.66-2.82-5.64-.76-5.05,.37,.22,.16,.65,.25,.98,.17,.87,.48,1.68,.83,2.48,.84,1.93,2.94,4.53,5.13,2.63,1.06-1.23,1.34-2.92,1.71-4.44,.08-.27,.39-.42,.65-.33,.3,.09,.43,.42,.33,.7-.2,.97-.44,1.95-.79,2.85-.67,2.16-2.68,3.57-4.92,2.61"/><path class="cls-1" d="M45.8,34.4c0-.29,.25-.5,.54-.5s.51,.26,.5,.53c-.01,.29-.25,.5-.54,.5s-.51-.26-.5-.53"/><path class="cls-1" d="M45.97,34.6c-.46-.48,.32-1.2,.77-.7,.47,.49-.33,1.2-.78,.68h.01"/><path class="cls-1" d="M16.63,36.96c-.47-.23-.59-.85-.87-1.25-.27-.49-.53-.99-.77-1.49-.9-1.85-1.71-3.91-1.34-5.99,.25-1.35,1.02-2.52,1.54-3.78,.35-.91,.53-1.88,.64-2.85,.27-4.24,.81-8.73,3.57-12.17,2.97-3.74,8.34-6.45,13.07-4.44,1.47,.55,2.75,1.5,3.8,2.65,.53,.72-.47,1.28-1,.45-2.15-2.29-5.64-3.39-8.68-2.41-3.8,1.19-6.96,4.13-8.31,7.84,0,0,0,0,0,0,0,0,0,0,.02-.05-1.37,3.18-1.08,6.68-1.74,10.01-.39,2.1-2.1,3.83-1.97,6.04,.05,1.32,.53,2.53,1.06,3.71,.43,.93,.9,1.83,1.41,2.72,.4,.44,.27,1.18-.43,1.04"/><polygon class="cls-3" points="7.83 64.97 10.26 65.56 12.33 58.04 15.59 46.47 19.05 35.95 17.26 36.28 16.34 37.08 11.85 50.73 9.01 60.47 7.83 64.97"/><path class="cls-1" d="M8.96,58.9c1.84-6.49,3.92-12.9,6.13-19.28,.41-.73,.67-3.25,1.48-3.3,.53,.01,.61,.59,.39,.96-1.39,4.26-2.91,8.48-4.24,12.76-1.67,5.28-3.21,10.6-4.58,15.97-.07,0-.14,0-.21,0-.15,0-.31,0-.46,0-.13,0-.27,0-.4,0,.6-2.37,1.22-4.74,1.89-7.1"/><path class="cls-1" d="M10.17,66.05c-.15,0-.3,0-.45,0,.15-.61,.3-1.22,.46-1.83,1.7-6.48,3.48-12.95,5.48-19.35,.7-1.55,2.47-9.42,3.75-9.47,.51,0,.71,.7,.27,.95-3.46,8.99-5.83,18.36-8.37,27.63-.18,.69-.36,1.39-.53,2.08-.2,0-.41,0-.61-.01"/><path class="cls-1" d="M13.03,66.79c-1.59-.43-3.3-.66-4.82-1.16-.78-1.66,2.14-.42,2.84-.35,.75,.17,1.5,.36,2.26,.53,.65,.16,.37,1.18-.28,.99"/><path class="cls-1" d="M15.35,87.61c-2.47-.2-4.91-.31-7.37-.57-2.1-.27-4.27-.48-3.68-3.17,.35-3.8,1.16-7.54,1.89-11.28,.36-1.87,.68-3.74,.92-5.63,.2-.63-.14-1.86,.73-1.99,.81,.07,.4,.95,.39,1.46-.23,1.94-.55,3.87-.91,5.79-.76,4-1.66,7.99-2.01,12.06-.46,1.71,1.83,1.54,2.96,1.76,2.41,.24,4.82,.37,7.22,.55,.66,.07,.53,1.12-.14,1.02"/><path class="cls-1" d="M13.57,66.78c-.48-.19-.99-.28-1.46-.49-.59-.34-.04-1.22,.53-.89,.45,.15,.9,.27,1.34,.43,.62,.25,.21,1.22-.41,.95"/><path class="cls-1" d="M16.55,36.7c-.77-.72,.51-1.3,1.13-1.41,.61-.09,2.07-.57,2.1,.41-.06,.54-.64,.44-1.03,.45-.48,.05-.97,.14-1.41,.35-.13,.3-.53,.39-.79,.2"/><path class="cls-1" d="M30.33,27.35c-.7-.16-.97-.95-.78-1.58,.09-.37,.29-.69,.42-1.04,.09-.21,.06-.45,.18-.65,.27-.34,.75-.04,.68,.3,.03,.63-1.02,1.86-.34,2.22,.12,.04,.25,.04,.37,.03,.33-.02,.51,.43,.27,.65-.1,.09-.23,.12-.37,.12-.15,0-.3-.03-.43-.06"/><path class="cls-1" d="M26.14,26.73c-2.16-.06-3.41-1.75-2.5-3.75,1.01-2.24,4.49-2.28,5.2,.16,.29,1.1-.03,2.35-.95,3.06-.45,.37-1.16,.75-1.75,.54m.37-.7c2.34-.46,2.22-4.14-.4-3.97-1.47,.06-2.52,1.9-1.73,3.15,.39,.54,1.11,.71,1.75,.77,.13,0,.27-.02,.38,.06"/><path class="cls-1" d="M25.73,25.28c-.83-.38-1-1.74-.22-2.25,.24-.13,.53-.16,.8-.2,.74,.04,1.32,.77,1.18,1.49-.07,.5-.47,1.05-1.03,1.01-.23,.11-.52,.05-.73-.05"/><path class="cls-1" d="M34.99,26.73c-2.16-.06-3.41-1.75-2.5-3.75,1.01-2.24,4.49-2.28,5.2,.16,.29,1.1-.03,2.35-.95,3.06-.45,.37-1.16,.75-1.75,.54m.37-.7c2.34-.46,2.22-4.14-.4-3.97-1.47,.06-2.52,1.9-1.73,3.15,.39,.54,1.11,.71,1.75,.77,.13,0,.27-.02,.38,.06"/><path class="cls-1" d="M34.57,25.28c-.83-.38-1-1.74-.22-2.25,.24-.13,.53-.16,.8-.2,.74,.04,1.32,.77,1.18,1.49-.07,.5-.47,1.05-1.03,1.01-.23,.11-.52,.05-.73-.05"/><path class="cls-1" d="M31.27,31.21c-.7-.13-1.4-.46-2.09-.58-.22-.05-.51-.02-.61-.27-.24-1.05,1.64-.19,2.11-.09,.82,.38,1.2,.12,1.81-.44,.38-.34,.79-.65,1.13-1.03,.3-.39,.92,.08,.61,.46-.69,.65-1.96,2.11-2.95,1.96"/><path class="cls-1" d="M31.1,32.75c-.59-.03-1.78-.17-1.94-.83,0-.21,.17-.38,.38-.38,.17,0,.28,.13,.43,.2,.31,.16,.66,.22,1,.25,2.26,.19,2.24-1.53,2.91-1.16,.59,.47-.42,1.19-.81,1.44-.6,.36-1.28,.54-1.98,.48"/><path class="cls-3" d="M31.94,19.59c-.11,.42,.76,.7,1.96,.63,1.2-.07,2.26-.46,2.38-.87,.11-.42-.77-.7-1.96-.63-1.2,.07-2.26,.46-2.38,.88"/><path class="cls-5" d="M35.98,19.85c1.3-.71,.57-1.45-.59-1.43-1.1-.02-2.43,.19-3.4,.85-.45,.29-.53,.73-.24,.98,.33,.31,1.01,.26,1.59,.22,.29,.03,.64-.08,.95-.12,.58-.09,1.17-.25,1.7-.52m-.7-.26c-.56,.2-1.15,.27-1.71,.35-.32-.03-.69,.06-.99-.01-.81-.28,.97-.81,1.39-.86,.65-.18,3.02-.14,1.31,.52"/><path class="cls-7" d="M35.98,19.85c1.3-.71,.57-1.45-.59-1.43-1.1-.02-2.43,.19-3.4,.85-.45,.29-.53,.73-.24,.98,.33,.31,1.01,.26,1.59,.22,.29,.03,.64-.08,.95-.12,.58-.09,1.17-.25,1.7-.52Zm-.7-.26c-.56,.2-1.15,.27-1.71,.35-.32-.03-.69,.06-.99-.01-.81-.28,.97-.81,1.39-.86,.65-.18,3.02-.14,1.32,.52Z"/><path class="cls-3" d="M24.51,19.16c-.26,.35,.47,.89,1.63,1.21,1.16,.31,2.31,.28,2.57-.07,.26-.35-.47-.89-1.63-1.21-1.16-.31-2.31-.28-2.57,.07"/><path class="cls-5" d="M28.25,20.68c1.49-.26,1.07-1.18-.04-1.52-1.04-.36-2.37-.58-3.53-.27-.53,.13-.77,.52-.59,.84,.2,.39,.86,.56,1.42,.71,.26,.11,.63,.13,.94,.19,.58,.09,1.2,.14,1.8,.05m-.57-.46c-.6,.01-1.18-.11-1.75-.21-.29-.12-.68-.16-.94-.32-.66-.52,1.22-.46,1.63-.37,.68,.04,2.91,.82,1.06,.9"/><path class="cls-7" d="M28.25,20.68c1.49-.26,1.07-1.18-.04-1.52-1.04-.36-2.37-.58-3.53-.27-.53,.13-.77,.52-.59,.84,.2,.39,.86,.56,1.42,.71,.26,.11,.63,.13,.94,.19,.58,.09,1.2,.14,1.8,.05Zm-.57-.46c-.6,.01-1.18-.11-1.75-.21-.29-.12-.68-.16-.94-.32-.66-.52,1.22-.46,1.63-.37,.68,.04,2.91,.82,1.06,.9Z"/></svg>