<?xml version="1.0" encoding="utf-8"?>
<!-- Generator: Adobe Illustrator 26.5.0, SVG Export Plug-In . SVG Version: 6.00 Build 0)  -->
<svg version="1.1" id="_レイヤー_9" xmlns="http://www.w3.org/2000/svg" xmlns:xlink="http://www.w3.org/1999/xlink" x="0px"
	 y="0px" viewBox="0 0 64.9 138.2" style="enable-background:new 0 0 64.9 138.2;" xml:space="preserve">
<style type="text/css">
	.st0{fill:none;}
	.st1{clip-path:url(#SVGID_00000106107077773243193930000015143969126429575333_);fill:#0068B6;}
	.st2{clip-path:url(#SVGID_00000129171188883407419830000016717082150234947728_);fill:#0068B6;}
	.st3{clip-path:url(#SVGID_00000039104607778350062790000013879392710897393792_);fill:#0068B6;}
	.st4{clip-path:url(#SVGID_00000016790013819062641350000015837844862345486775_);fill:#0068B6;}
	.st5{clip-path:url(#SVGID_00000071556917440550361650000008095985656100734377_);fill:#0068B6;}
	.st6{clip-path:url(#SVGID_00000126320220975530375320000009811571155289481914_);fill:#0068B6;}
	.st7{clip-path:url(#SVGID_00000009560149426972924040000008400195575135608970_);fill:#0068B6;}
	.st8{clip-path:url(#SVGID_00000054259091220652096390000017558742555152402328_);fill:#0068B6;}
	.st9{clip-path:url(#SVGID_00000066479208355279407390000002082102581453778836_);fill:#0068B6;}
	.st10{clip-path:url(#SVGID_00000126295371096240001510000004370762270086362549_);fill:#0068B6;}
	.st11{clip-path:url(#SVGID_00000090286086895888211280000009124712112877858228_);fill:#0068B6;}
	.st12{clip-path:url(#SVGID_00000147209916089404890140000012453557210656651169_);fill:#0068B6;}
	.st13{clip-path:url(#SVGID_00000111169510793921392330000009009376214046614972_);fill:#0068B6;}
	.st14{fill:#C68F00;}
	.st15{fill:none;stroke:#040000;stroke-width:1.412;stroke-linecap:round;stroke-miterlimit:10;}
	.st16{fill:#1961AD;}
	.st17{fill:#040000;}
	.st18{fill:#E9DA21;}
	.st19{fill:none;stroke:#040000;stroke-width:0.185;stroke-miterlimit:10;}
	.st20{fill:none;stroke:#040000;stroke-width:0.978;stroke-miterlimit:10;}
	.st21{fill:#FFFFFF;}
	.st22{fill:url(#SVGID_00000139993948355619588800000012703787785276522679_);}
	.st23{fill:#88C0DD;stroke:#040000;stroke-width:0.5999;stroke-linecap:round;stroke-linejoin:round;stroke-miterlimit:10;}
	.st24{fill:#025999;stroke:#040000;stroke-width:0.5999;stroke-linecap:round;stroke-linejoin:round;stroke-miterlimit:10;}
	.st25{fill:#FFFFFF;stroke:#040000;stroke-width:0.5999;stroke-linecap:round;stroke-linejoin:round;stroke-miterlimit:10;}
	.st26{fill:#E9DA21;stroke:#040000;stroke-width:0.5999;stroke-linecap:round;stroke-linejoin:round;stroke-miterlimit:10;}
	.st27{fill:none;stroke:#040000;stroke-width:0.5999;stroke-linecap:round;stroke-linejoin:round;stroke-miterlimit:10;}
	.st28{fill:#FFFFFF;stroke:#040000;stroke-width:0.5999;stroke-linecap:round;stroke-linejoin:round;stroke-miterlimit:9.9998;}
	.st29{fill:#025999;stroke:#040000;stroke-width:0.5999;stroke-linecap:round;stroke-linejoin:round;stroke-miterlimit:9.9998;}
</style>
<pattern  y="138.2" width="28.8" height="28.8" patternUnits="userSpaceOnUse" id="SVGID_0000006145744139725316227" viewBox="2.2 -30.9 28.8 28.8" style="overflow:visible;">
	<g>
		<rect x="2.2" y="-30.9" class="st0" width="28.8" height="28.8"/>
		<g>
			<rect x="2.2" y="-30.9" class="st0" width="28.8" height="28.8"/>
			<g>
				<g>
					<defs>
						<rect id="SVGID_1_" x="2.2" y="-30.9" width="28.8" height="28.8"/>
					</defs>
					<clipPath id="SVGID_00000016067382109884557650000013024150282201142950_">
						<use xlink:href="#SVGID_1_"  style="overflow:visible;"/>
					</clipPath>
					<path style="clip-path:url(#SVGID_00000016067382109884557650000013024150282201142950_);fill:#0068B6;" d="M31,0
						c1.2,0,2.2-1,2.2-2.2s-1-2.2-2.2-2.2s-2.2,1-2.2,2.2C28.8-0.9,29.8,0,31,0"/>
				</g>
				<g>
					<defs>
						<rect id="SVGID_00000024719706621337712250000005923403586709642138_" x="2.2" y="-30.9" width="28.8" height="28.8"/>
					</defs>
					<clipPath id="SVGID_00000030450976429370137710000010492187144117137842_">
						<use xlink:href="#SVGID_00000024719706621337712250000005923403586709642138_"  style="overflow:visible;"/>
					</clipPath>
					<path style="clip-path:url(#SVGID_00000030450976429370137710000010492187144117137842_);fill:#0068B6;" d="M16.6,0
						c1.2,0,2.2-1,2.2-2.2s-1-2.2-2.2-2.2s-2.2,1-2.2,2.2C14.4-0.9,15.4,0,16.6,0"/>
				</g>
				<g>
					<defs>
						<rect id="SVGID_00000091697669492435062930000017984453636022824583_" x="2.2" y="-30.9" width="28.8" height="28.8"/>
					</defs>
					<clipPath id="SVGID_00000073711448430449967600000002106670030075041440_">
						<use xlink:href="#SVGID_00000091697669492435062930000017984453636022824583_"  style="overflow:visible;"/>
					</clipPath>
					<path style="clip-path:url(#SVGID_00000073711448430449967600000002106670030075041440_);fill:#0068B6;" d="M31-14.4
						c1.2,0,2.2-1,2.2-2.2s-1-2.2-2.2-2.2s-2.2,1-2.2,2.2C28.8-15.3,29.8-14.4,31-14.4"/>
				</g>
				<g>
					<defs>
						<rect id="SVGID_00000099650878894018835040000008974935941892565420_" x="2.2" y="-30.9" width="28.8" height="28.8"/>
					</defs>
					<clipPath id="SVGID_00000176724848441778198060000013077493798690025125_">
						<use xlink:href="#SVGID_00000099650878894018835040000008974935941892565420_"  style="overflow:visible;"/>
					</clipPath>
					<path style="clip-path:url(#SVGID_00000176724848441778198060000013077493798690025125_);fill:#0068B6;" d="M16.6-14.4
						c1.2,0,2.2-1,2.2-2.2s-1-2.2-2.2-2.2s-2.2,1-2.2,2.2C14.4-15.3,15.4-14.4,16.6-14.4"/>
				</g>
				<g>
					<defs>
						<rect id="SVGID_00000129186570033072527540000002504190269429729965_" x="2.2" y="-30.9" width="28.8" height="28.8"/>
					</defs>
					<clipPath id="SVGID_00000080185305760257691760000009894135475735420587_">
						<use xlink:href="#SVGID_00000129186570033072527540000002504190269429729965_"  style="overflow:visible;"/>
					</clipPath>
					<path style="clip-path:url(#SVGID_00000080185305760257691760000009894135475735420587_);fill:#0068B6;" d="M9.4-7.2
						c1.2,0,2.2-1,2.2-2.2s-1-2.2-2.2-2.2s-2.2,1-2.2,2.2C7.2-8.1,8.2-7.2,9.4-7.2"/>
				</g>
				<g>
					<defs>
						<rect id="SVGID_00000016768263171437336480000010179640006154757004_" x="2.2" y="-30.9" width="28.8" height="28.8"/>
					</defs>
					<clipPath id="SVGID_00000023268254050524571770000000723427120516189600_">
						<use xlink:href="#SVGID_00000016768263171437336480000010179640006154757004_"  style="overflow:visible;"/>
					</clipPath>
					<path style="clip-path:url(#SVGID_00000023268254050524571770000000723427120516189600_);fill:#0068B6;" d="M23.8-7.2
						c1.2,0,2.2-1,2.2-2.2s-1-2.2-2.2-2.2s-2.2,1-2.2,2.2C21.6-8.1,22.6-7.2,23.8-7.2"/>
				</g>
				<g>
					<defs>
						<rect id="SVGID_00000020372498499324001960000018018957959306578839_" x="2.2" y="-30.9" width="28.8" height="28.8"/>
					</defs>
					<clipPath id="SVGID_00000062167874546795521370000009430608893220276368_">
						<use xlink:href="#SVGID_00000020372498499324001960000018018957959306578839_"  style="overflow:visible;"/>
					</clipPath>
					<path style="clip-path:url(#SVGID_00000062167874546795521370000009430608893220276368_);fill:#0068B6;" d="M9.4-21.6
						c1.2,0,2.2-1,2.2-2.2c0-1.2-1-2.2-2.2-2.2s-2.2,1-2.2,2.2C7.2-22.5,8.2-21.6,9.4-21.6"/>
				</g>
				<g>
					<defs>
						<rect id="SVGID_00000142142551831691720990000015647005981717136830_" x="2.2" y="-30.9" width="28.8" height="28.8"/>
					</defs>
					<clipPath id="SVGID_00000070809005869494343850000007459881821028036764_">
						<use xlink:href="#SVGID_00000142142551831691720990000015647005981717136830_"  style="overflow:visible;"/>
					</clipPath>
					<path style="clip-path:url(#SVGID_00000070809005869494343850000007459881821028036764_);fill:#0068B6;" d="M23.8-21.6
						c1.2,0,2.2-1,2.2-2.2c0-1.2-1-2.2-2.2-2.2s-2.2,1-2.2,2.2C21.6-22.5,22.6-21.6,23.8-21.6"/>
				</g>
				<g>
					<defs>
						<rect id="SVGID_00000041258138416961391920000012284639605012557468_" x="2.2" y="-30.9" width="28.8" height="28.8"/>
					</defs>
					<clipPath id="SVGID_00000168080837851288430470000017783873940259663488_">
						<use xlink:href="#SVGID_00000041258138416961391920000012284639605012557468_"  style="overflow:visible;"/>
					</clipPath>
					<path style="clip-path:url(#SVGID_00000168080837851288430470000017783873940259663488_);fill:#0068B6;" d="M2.2,0
						c1.2,0,2.2-1,2.2-2.2s-1-2.2-2.2-2.2C1-4.3,0-3.3,0-2.1S1,0,2.2,0"/>
				</g>
				<g>
					<defs>
						<rect id="SVGID_00000096057613364765428750000008818248851112905907_" x="2.2" y="-30.9" width="28.8" height="28.8"/>
					</defs>
					<clipPath id="SVGID_00000171680547688944104080000002213515898071412378_">
						<use xlink:href="#SVGID_00000096057613364765428750000008818248851112905907_"  style="overflow:visible;"/>
					</clipPath>
					<path style="clip-path:url(#SVGID_00000171680547688944104080000002213515898071412378_);fill:#0068B6;" d="M2.2-14.4
						c1.2,0,2.2-1,2.2-2.2s-1-2.2-2.2-2.2S0-17.8,0-16.6C0-15.3,1-14.4,2.2-14.4"/>
				</g>
				<g>
					<defs>
						<rect id="SVGID_00000131362845206862148250000009448830752556382615_" x="2.2" y="-30.9" width="28.8" height="28.8"/>
					</defs>
					<clipPath id="SVGID_00000143609316323332152870000012117184614700086405_">
						<use xlink:href="#SVGID_00000131362845206862148250000009448830752556382615_"  style="overflow:visible;"/>
					</clipPath>
					<path style="clip-path:url(#SVGID_00000143609316323332152870000012117184614700086405_);fill:#0068B6;" d="M31-28.8
						c1.2,0,2.2-1,2.2-2.2c-0.1-1.1-1-2.1-2.2-2.1s-2.2,1-2.2,2.2C28.8-29.7,29.8-28.8,31-28.8"/>
				</g>
				<g>
					<defs>
						<rect id="SVGID_00000155134914984672606180000017721692858308569791_" x="2.2" y="-30.9" width="28.8" height="28.8"/>
					</defs>
					<clipPath id="SVGID_00000117671898754384314700000011966563556038030470_">
						<use xlink:href="#SVGID_00000155134914984672606180000017721692858308569791_"  style="overflow:visible;"/>
					</clipPath>
					<path style="clip-path:url(#SVGID_00000117671898754384314700000011966563556038030470_);fill:#0068B6;" d="M16.6-28.8
						c1.2,0,2.2-1,2.2-2.2s-1-2.2-2.2-2.2s-2.2,1-2.2,2.2C14.4-29.7,15.4-28.8,16.6-28.8"/>
				</g>
				<g>
					<defs>
						<rect id="SVGID_00000160167109844769073750000017478160315651284118_" x="2.2" y="-30.9" width="28.8" height="28.8"/>
					</defs>
					<clipPath id="SVGID_00000159453332703640019470000010826251583808185731_">
						<use xlink:href="#SVGID_00000160167109844769073750000017478160315651284118_"  style="overflow:visible;"/>
					</clipPath>
					<path style="clip-path:url(#SVGID_00000159453332703640019470000010826251583808185731_);fill:#0068B6;" d="M2.2-28.8
						c1.2,0,2.2-1,2.2-2.2c-0.1-1.1-1-2.1-2.2-2.1S0-32.1,0-30.9C0-29.7,1-28.8,2.2-28.8"/>
				</g>
			</g>
		</g>
	</g>
</pattern>
<g>
	<g>
		<path class="st14" d="M50.5,130c-0.5-1.4-2.1-2.6-4-3.3c-0.8-0.3-3.2-1.3-3.2-1.9c-0.2-1-1.1-1.7-2.1-2c-2.1-1.1-5.3-1.1-7.4,0.2
			c-0.5,0.3-0.9,0.6-1.2,1c0.1,0.2,0.1,0.3,0.1,0.5c0.1,0.6-0.4,1.1-1,1.3c-0.2,0.1-0.4,0.1-0.7,0.1c-0.1,0-0.3,0-0.4,0
			c-0.2,0.1-0.4,0.1-0.5,0.1l0,0H30c-0.2,0-0.4,0-0.6-0.1c-0.1,0-0.1-0.1-0.2-0.1s-0.1-0.1-0.1-0.1l0,0l0,0c-0.1,0-0.1-0.1-0.2-0.1
			l0,0c0,0-0.1,0-0.1-0.1c-0.2-0.2-0.4-0.4-0.5-0.6l0,0l0,0c0,0,0-0.1-0.1-0.1c0,0,0-0.1-0.1-0.1l0,0v-0.1v-0.1v-0.1v-0.1
			c0-0.1,0-0.1,0-0.2s0-0.1,0-0.2c0,0,0,0,0-0.1c-0.1-0.1-0.2-0.3-0.2-0.4l0,0c0,0,0,0,0-0.1l0,0l0,0l-0.1-0.2
			c0-0.1-0.1-0.2-0.1-0.3l0,0l0,0c-0.1,0-0.2,0-0.3,0h-0.1h-0.1l0,0c-0.1,0-0.1,0-0.2,0l0,0l0,0l0,0c0,0,0,0-0.1,0c0,0,0,0-0.1,0
			l0,0c0,0,0,0-0.1,0c0,0,0,0-0.1,0l0,0h-0.1c-0.1,0-0.1-0.1-0.2-0.1c-1.1,0.2-2.1,0.5-3,0.7c-0.3,0.1-0.6,0.2-0.8,0.3
			c-1.7,0.2-3.2,0.8-4.7,1.1c-1.2,0.4-2.9,0.3-4.3,0.6c-6.7,0.8-10.3,4.3-3.1,6.5c0.6,0.7,1.6,1.2,2.9,1.5c0.6,0.5,1.1,1,2,1.3
			c0.3,0.1,0.5,0.2,0.8,0.3c0.2,0.2,0.5,0.4,0.7,0.6c2.1,1.5,5.2,2.5,8.3,2.6c0.4,0,0.7,0,1.1,0c2.8,0,5.5-0.5,7.8-1.5
			c1.3-0.5,2.4-1.2,3.9-1.5s3-0.2,4.6-0.1c0.8,0,1.6,0.1,2.4,0c0.6,0,1.3-0.1,1.9-0.3c0.7-0.1,1.3-0.3,1.8-0.6
			C50,133.2,51.3,131.6,50.5,130"/>
		<line class="st15" x1="9.3" y1="30.7" x2="25.3" y2="59.3"/>
		<path class="st16" d="M10.4,32.8c-0.6-0.3-1.1-0.6-1.7-0.9c-0.2-0.1-0.4-0.2-0.5-0.4C8.1,31.3,8.1,31.2,8,31
			c-0.2-1.2-0.8-2.2-1.4-3.2c-0.6-1.1-1.1-2.1-1.7-3.2c-0.7-1.3-1.4-2.5-2.3-3.6c-0.3-0.3-0.6-0.8-0.3-1.1c0.1-0.1,0.2-0.2,0.3-0.3
			c0.3-0.2,0.6-0.4,0.9-0.5C3.7,19,4,18.8,4.2,18.9c0.5,0.1,0.5,0.8,0.5,1.3c0,0.6,0.3,1.1,0.7,1.6C5.6,22,5.9,22.2,6,22.4
			c0.3,0.4,0.3,0.9,0.4,1.4c0.6,2.8,3.3,4.8,4.3,7.5c0.2,0.4,0.2,0.9,0,1.3c-0.3,0.4-1,0.4-1.1-0.1"/>
		<path class="st17" d="M10.7,32.3c-1.6-0.9-2-1.7-2.7-3.3c-0.5-1.1-1.1-2.2-1.7-3.2c-0.6-1.2-1.2-2.3-1.9-3.5
			c-0.2-0.4-0.8-1-0.9-1.4c-0.4-0.3-0.4-0.6,0.1-1c0.2-0.9,0.5-0.9,0.8,0c0.2,0.2,0.6,1.5,0.8,1.8c0.6,1,1,2,1.4,3.1
			c0.5,1.1,1.2,2,1.9,3c0.4,0.5,0.8,1.1,1.1,1.6c0.2,0.3,0.4,0.6,0.5,1c0.4,0.4,0.4,0.9,0.1,1.4c-0.4-0.5-1.1,0.2-0.7,0.7
			c0.5,0.5,1.2,0.7,1.8,0.1c0.8-0.9-0.1-2.5-0.6-3.3c-0.6-1-1.4-2-2.1-2.9c-0.8-1.2-1.1-2.4-1.7-3.7c-0.4-1.1-1.2-2.6-1.6-3.3
			c-0.3-0.5,0-0.7-0.6-1.1C4,17.9,3,18.5,2.5,19c-0.9,0.9-0.6,1.4,0.1,2.4c1.5,2.2,2.7,4.5,3.9,6.9c0.5,1,0.7,2.5,1.3,3.4
			c0.5,0.7,1.6,1.1,2.3,1.5C10.7,33.5,11.2,32.7,10.7,32.3"/>
		<line class="st15" x1="10.1" y1="24.6" x2="19.5" y2="56"/>
		<path class="st16" d="M10.7,26.9c-0.5-0.4-0.9-0.9-1.4-1.3c-0.1-0.2-0.3-0.3-0.4-0.5c-0.1-0.2-0.1-0.4-0.1-0.6
			c0-1.2-0.3-2.3-0.6-3.5s-0.7-2.3-1-3.5c-0.4-1.4-0.8-2.8-1.4-4c-0.2-0.4-0.4-0.9-0.1-1.2c0.1-0.1,0.3-0.2,0.4-0.2
			c0.3-0.1,0.7-0.2,1-0.3c0.2-0.1,0.5-0.2,0.7-0.1c0.5,0.2,0.3,0.9,0.2,1.4c-0.1,0.6,0,1.2,0.3,1.7c0.2,0.3,0.4,0.5,0.5,0.8
			C9.1,16,9,16.5,9,17c0,2.9,2.2,5.4,2.6,8.2c0.1,0.4,0,1-0.3,1.3s-1,0.2-1-0.3"/>
		<path class="st17" d="M11.1,26.5c-1.9-1.7-1.7-3.2-2.4-5.6c-0.4-1.5-0.8-3-1.3-4.5c0-0.1-1.6-4.1,0.2-3.3C7.3,13,8,15.1,8,15
			c0.3,1.2,0.5,2.3,0.7,3.4c0.2,0.9,0.5,1.7,0.9,2.6c0.3,0.7,0.6,1.3,0.8,2c0.2,0.4,0.3,0.8,0.4,1.2c0.2,0.6,0.2,1.2-0.1,1.9
			c-0.3-0.6-1.1-0.1-0.8,0.5s1,0.9,1.6,0.5c0.9-0.5,0.6-1.9,0.4-2.7c-0.6-2.7-2-4.9-2.4-7.6c-0.1-0.9-0.3-1.7-0.5-2.6
			c0.1,0.3-0.3-2.1-0.4-2.2c-1.3-1.6-3.5-0.4-3.4,1.3c0.1,1.4,1.1,3,1.5,4.4s0.9,2.9,1.2,4.3c0.7,2.9,0.2,3.2,2.4,5.2
			C10.8,27.6,11.5,26.9,11.1,26.5"/>
		<path class="st18" d="M46.7,58.5H15.3c-1.7,0-3.2-1.4-3.2-3.2V28.5c0-1.5,1.1-2.8,2.6-3.1c8.2-1.4,15.1-3.5,32.5-0.1
			c1.5,0.3,2.6,1.6,2.6,3.1v27C49.8,57.1,48.4,58.5,46.7,58.5"/>
		<path class="st19" d="M46.7,58.5H15.3c-1.7,0-3.2-1.4-3.2-3.2V28.5c0-1.5,1.1-2.8,2.6-3.1c8.2-1.4,15.1-3.5,32.5-0.1
			c1.5,0.3,2.6,1.6,2.6,3.1v27C49.8,57.1,48.4,58.5,46.7,58.5z"/>
		<path class="st20" d="M46.7,58.5H15.3c-1.7,0-3.2-1.4-3.2-3.2V28.5c0-1.5,1.1-2.8,2.6-3.1c8.2-1.4,15.1-3.5,32.5-0.1
			c1.5,0.3,2.6,1.6,2.6,3.1v27C49.8,57.1,48.4,58.5,46.7,58.5z"/>
		<path class="st21" d="M15.4,41.4l1.1,8.3l0.2,1.9l0.2,1l-2,4.8l-3,7H13l5.6-5.2l3.1-5.8l0.5-2.5l0.9-5.1l-0.7-7.9l-0.7-4.2
			l1.7,3.5l1.8,3.5l1.7,0.4l3,1.1l2.2-0.6l-0.8,2.3v1.7l1.1,0.6l0.9-0.5v-2.2l-0.4-1.6l1.7-0.5l1.6-0.4l1.4-1.5l1.9-1.1l0.9-1.7
			l0.7-1.2l-0.3,6.9l0.5,3.5l0.1,3.5l0.4,0.7l2,3c0,0,1.9,1.5,3.5,2.1c1.6,0.7,2.2,1.1,2.2,1.1l1.3-1.4L48,52.5l-1.4-2.8l0.5-4.6
			l0.4-1.7L48,40l0.2-3.7l-0.4-2.7l1.5,0.7l2,2.1l0.6,0.3v-1.3l1.3,0.8l2.2,0.5l3-0.9l-0.3-1.1v-0.4l1-0.3l0.5,0.5l0.7,1.2l0.7,2.5
			l1.8,2.4l1.2,2.9c0,0,0.6,2.8,0.6,3.8s-1.3,4.4-1.3,4.4s-2.2,3.4-4,3.8c-1.7,0.4-8.2-0.6-8.2-0.6l-1.1,2l2.1,7l0.7,9.1
			c0,0-1.3,9.8-1.6,10.6c-0.4,0.8-2.4,4.6-2.4,4.6l-1.6,1.6c0,0-8.7,3.2-9.6,3.5s-9.5,0.8-9.5,0.8l-5.3-0.8l-5.6-3.1l-3.3-6.9
			c0,0-2.1-5.5-2-7.5c0.2-2-0.8-7.3,0.5-10.9c0.3-1-1.2-0.5-1.2-0.5l-1.5,0.8l-2.7,1l-2.6-0.1c0,0-2.1-1.2-2.1-1.3s-1.5-1.9-1.5-1.9
			l-0.4-3l1.4-3.8l1.4-1.9l2-5.2l1.2-2.9l1.3,1l1.1,0.2l3.9-1.3l-0.3-1.1l1.4-0.9L15.4,41.4z"/>
		
			<pattern  id="SVGID_00000074423770694346128010000012093145003676790696_" xlink:href="#SVGID_0000006145744139725316227" patternTransform="matrix(0.7376 0 0 0.7376 -2108.5112 -1320.5748)">
		</pattern>
		<path style="fill:url(#SVGID_00000074423770694346128010000012093145003676790696_);" d="M15.4,41.4l1.1,8.3l0.2,1.9l0.2,1l-2,4.8
			l-3,7H13l5.6-5.2l3.1-5.8l0.5-2.5l0.9-5.1l-0.7-7.9l-0.7-4.2l1.7,3.5l1.8,3.5l1.7,0.4l3,1.1l2.2-0.6l-0.8,2.3v1.7l1.1,0.6l0.9-0.5
			v-2.2l-0.4-1.6l1.7-0.5l1.6-0.4l1.4-1.5l1.9-1.1l0.9-1.7l0.7-1.2l-0.3,6.9l0.5,3.5l0.1,3.5l0.4,0.7l2,3c0,0,1.9,1.5,3.5,2.1
			c1.6,0.7,2.2,1.1,2.2,1.1l1.3-1.4L48,52.5l-1.4-2.8l0.5-4.6l0.4-1.7L48,40l0.2-3.7l-0.4-2.7l1.5,0.7l2,2.1l0.6,0.3v-1.3l1.3,0.8
			l2.2,0.5l3-0.9l-0.3-1.1v-0.4l1-0.3l0.5,0.5l0.7,1.2l0.7,2.5l1.8,2.4l1.2,2.9c0,0,0.6,2.8,0.6,3.8s-1.3,4.4-1.3,4.4
			s-2.2,3.4-4,3.8c-1.7,0.4-8.2-0.6-8.2-0.6l-1.1,2l2.1,7l0.7,9.1c0,0-1.3,9.8-1.6,10.6c-0.4,0.8-2.4,4.6-2.4,4.6l-1.6,1.6
			c0,0-8.7,3.2-9.6,3.5s-9.5,0.8-9.5,0.8l-5.3-0.8l-5.6-3.1l-3.3-6.9c0,0-2.1-5.5-2-7.5c0.2-2-0.8-7.3,0.5-10.9
			c0.3-1-1.2-0.5-1.2-0.5l-1.5,0.8l-2.7,1l-2.6-0.1c0,0-2.1-1.2-2.1-1.3s-1.5-1.9-1.5-1.9l-0.4-3l1.4-3.8l1.4-1.9l2-5.2l1.2-2.9
			l1.3,1l1.1,0.2l3.9-1.3l-0.3-1.1l1.4-0.9L15.4,41.4z"/>
		<path class="st19" d="M15.4,41.4l1.1,8.3l0.2,1.9l0.2,1l-2,4.8l-3,7H13l5.6-5.2l3.1-5.8l0.5-2.5l0.9-5.1l-0.7-7.9l-0.7-4.2
			l1.7,3.5l1.8,3.5l1.7,0.4l3,1.1l2.2-0.6l-0.8,2.3v1.7l1.1,0.6l0.9-0.5v-2.2l-0.4-1.6l1.7-0.5l1.6-0.4l1.4-1.5l1.9-1.1l0.9-1.7
			l0.7-1.2l-0.3,6.9l0.5,3.5l0.1,3.5l0.4,0.7l2,3c0,0,1.9,1.5,3.5,2.1c1.6,0.7,2.2,1.1,2.2,1.1l1.3-1.4L48,52.5l-1.4-2.8l0.5-4.6
			l0.4-1.7L48,40l0.2-3.7l-0.4-2.7l1.5,0.7l2,2.1l0.6,0.3v-1.3l1.3,0.8l2.2,0.5l3-0.9l-0.3-1.1v-0.4l1-0.3l0.5,0.5l0.7,1.2l0.7,2.5
			l1.8,2.4l1.2,2.9c0,0,0.6,2.8,0.6,3.8s-1.3,4.4-1.3,4.4s-2.2,3.4-4,3.8c-1.7,0.4-8.2-0.6-8.2-0.6l-1.1,2l2.1,7l0.7,9.1
			c0,0-1.3,9.8-1.6,10.6c-0.4,0.8-2.4,4.6-2.4,4.6l-1.6,1.6c0,0-8.7,3.2-9.6,3.5s-9.5,0.8-9.5,0.8l-5.3-0.8l-5.6-3.1l-3.3-6.9
			c0,0-2.1-5.5-2-7.5c0.2-2-0.8-7.3,0.5-10.9c0.3-1-1.2-0.5-1.2-0.5l-1.5,0.8l-2.7,1l-2.6-0.1c0,0-2.1-1.2-2.1-1.3s-1.5-1.9-1.5-1.9
			l-0.4-3l1.4-3.8l1.4-1.9l2-5.2l1.2-2.9l1.3,1l1.1,0.2l3.9-1.3l-0.3-1.1l1.4-0.9L15.4,41.4z"/>
		<path class="st21" d="M27.4,10.7c0,0,0.4,2.1,2.9,2.9c2.5,0.9,3.7,1.1,3.7,1.1l2.1-0.6l2.6,1l1.5,0.1v7.4L38,24.1l-1.5-0.3
			l-1.6,0.3l-1.8-0.3l-1.6,0.3l-1.3-0.3l-1.4-0.1l-1.2,0.4l-1.5-0.2l-1.6-0.5l-1.3,0.4l-0.6-2.5l-0.4-4.7l2.5-2.3L27.4,10.7z"/>
		<polygon class="st21" points="5.9,47.4 7,48.3 6.5,49.3 8.8,49.5 11.2,48.6 12.3,47.6 13.8,46 15.1,42.1 15.7,40.2 15.7,38.9 
			14.4,37.9 12.1,39.5 10.8,36.1 10.3,35.1 9.1,34.7 8,35.3 7.5,37.9 6.2,36.8 4.4,37.3 4.4,38.8 3.3,39.3 2.9,40.2 2.9,41.6 
			1.9,41.9 0.4,44.5 0.7,45.1 1.9,45.1 2.7,44.3 4,44.6 		"/>
		<polygon class="st21" points="47.5,30.1 50.5,28.5 51.7,26.8 53,23.2 53.4,21.4 55.3,20.9 56.2,21.9 56.6,23.9 57.9,21.9 
			59.9,22.8 59.9,25.7 61.8,24.7 62.8,26.4 62.3,27.9 61.7,28.5 63.8,29.3 63.8,31.8 63.4,33.4 62.5,33.2 61.7,31.2 59.3,33.2 
			58.2,34.2 58.5,35.7 56.9,36.6 53.7,36.2 51.9,35.4 52.4,33.7 50.1,33.9 47.5,33.2 47.3,31.4 		"/>
		<polygon class="st21" points="20.3,18.2 20.7,19.6 20.9,24.7 19.7,23.9 18.6,21.8 18.9,20 		"/>
		<polygon class="st21" points="42.4,17.9 43.4,18.6 44.5,20 44.5,22.6 42.4,25.5 41.3,24.5 42.1,22.4 42.4,20.6 42.1,19.1 		"/>
		<polygon class="st21" points="33.5,118.8 36,120 34.1,123.1 32.8,122.5 32.6,120.5 		"/>
		<polygon class="st21" points="23,115.2 24.5,115.3 25.9,116.7 25.3,118.8 20.5,118 21.1,116.8 22,115.3 		"/>
		<path class="st16" d="M42.7,14l-0.5-2.9l-0.7-1.7c0,0-4.5-0.3-7.5-0.7s-9.7-1.9-9.7-1.9l-2.7,1.1l-2.4,2.5V13l0.8,1.9v2.8l0.4,1.4
			l0.4,5.7l-0.7,1.9l0.2,1.2l-0.1,3.7l1.6,2.7l1.1,2.6l1.6,3.7l2.6,0.4l2.3,1.1l1.9-0.3l1.5,0.2h1.6l1.3-1.1l1.2-0.3l0.7-1.3
			l1.6-0.7l0.9-1.1l0.7-1.8l0.7-1.3l0.1-1.1l-0.2-2.9l0.2-2.4l0.1-2.5L41,24l0.8-2.1l0.2-2.5l-0.5-2.3L42.7,14z M37.8,23.9l-1.5-0.3
			l-1.6,0.3l-1.8-0.3l-1.6,0.3L30,23.6l-1.4-0.1l-1.2,0.4L26,23.6l-1.6-0.5l-1.3,0.4L22.5,21l-0.4-3.8l2.5-3.1l2.5-3.7
			c0,0,1,2.4,3.5,3.3c2.5,0.9,3.1,0.8,3.1,0.8l2.1-0.6l2.6,1l1.5,0.1v7.4L37.8,23.9z"/>
		<polygon class="st16" points="18.5,118.9 21.2,117.9 26.3,118.8 27,121.4 25.1,126 18.6,125.9 13.8,122.4 14.7,120.5 17.2,119.4 
					"/>
		<polygon class="st16" points="31.9,122.6 34,122.9 34.8,122.8 36.3,127.4 37.3,128.9 37.2,130.7 35.3,131.3 33.1,131.2 
			31.7,129.2 31.6,127.8 31.8,124.9 		"/>
		<path class="st18" d="M21.1,117.2l0.8-1.6l2.2-0.4l1.8,1.6l0.4,1.7l0.9-2.2l0.7-4.8v-5.9l3.5-10.3l1.7-0.6l0.8,1l0.6,2.6
			c0,0,0.5,5.1,0,9.2c-0.5,4-0.8,6.6-0.8,6.6l-1.1,1.7l-0.4,2l1.1,1.6l2.2,0.6l1.7-0.6l1.4-3.1l1.6-3.7l3.9-9.6l2.6-8.1l1.1-6.3
			L46,90.1l-5.8,2.2c0,0-4.1,2-10.7,1.5c-6.6-0.4-10.6-2.3-10.6-2.3L18,90.7l-0.6,3l0.8,9.7l1.5,8.2l0.7,4.7L21.1,117.2z"/>
		<path class="st19" d="M21.1,117.2l0.8-1.6l2.2-0.4l1.8,1.6l0.4,1.7l0.9-2.2l0.7-4.8v-5.9l3.5-10.3l1.7-0.6l0.8,1l0.6,2.6
			c0,0,0.5,5.1,0,9.2c-0.5,4-0.8,6.6-0.8,6.6l-1.1,1.7l-0.4,2l1.1,1.6l2.2,0.6l1.7-0.6l1.4-3.1l1.6-3.7l3.9-9.6l2.6-8.1l1.1-6.3
			L46,90.1l-5.8,2.2c0,0-4.1,2-10.7,1.5c-6.6-0.4-10.6-2.3-10.6-2.3L18,90.7l-0.6,3l0.8,9.7l1.5,8.2l0.7,4.7L21.1,117.2z"/>
		<polygon class="st18" points="42.3,31.6 44.9,32.3 48.4,33.1 48.1,37.1 46.5,49.7 50.7,54.8 50.1,56.3 48.5,56 46.4,54.8 
			44.9,53.7 42.4,50.7 40.8,40.8 40.8,37 42.1,33.5 		"/>
		<polygon class="st19" points="42.3,31.6 44.9,32.3 48.4,33.1 48.1,37.1 46.5,49.7 50.7,54.8 50.1,56.3 48.5,56 46.4,54.8 
			44.9,53.7 42.4,50.7 40.8,40.8 40.8,37 42.1,33.5 		"/>
		<polygon class="st18" points="32,42 32.9,42.5 32.9,45.7 31.6,46.4 31.1,45.6 31,44.2 		"/>
		<polygon class="st19" points="32,42 32.9,42.5 32.9,45.7 31.6,46.4 31.1,45.6 31,44.2 		"/>
		<polygon class="st18" points="14.9,36.7 18,34.8 20.9,33.6 22.3,36.1 23.2,43.7 21.6,52.2 19.2,58.5 15.6,62.3 12.5,64.6 
			11.9,63.4 14.1,60.7 16.9,52.6 16.1,45.9 15.7,40.2 		"/>
		<polygon class="st19" points="14.9,36.7 18,34.8 20.9,33.6 22.3,36.1 23.2,43.7 21.6,52.2 19.2,58.5 15.6,62.3 12.5,64.6 
			11.9,63.4 14.1,60.7 16.9,52.6 16.1,45.9 15.7,40.2 		"/>
		<path class="st17" d="M55.4,36.7c-1.3-0.2-2.8-0.5-3.6-1.6c-0.2-0.5,0.4-0.9,0.8-0.6c0.8,0.7,1.9,1,3,1.2c1.2,0.1,2.3-0.3,3.2-1.1
			c0.3-0.3,0.6-0.8,1-0.6c1,0.8-1.2,1.9-1.8,2.2c-0.7,0.3-1.4,0.5-2.2,0.5C55.7,36.8,55.6,36.8,55.4,36.7"/>
		<path class="st17" d="M52.5,38.8c-0.1,0-0.2,0-0.3,0c0,0-0.1,0-0.1-0.1c-0.4-1.2-0.8-3.1-0.5-4.3c0.2-0.4,1-0.3,1,0.3
			c0,0.3,0,0.7,0,1l0,0l0,0c0.1,1,0.3,1.9,0.6,2.8c0.1,0.2,0.1,0.3,0,0.4C52.9,38.9,52.7,38.9,52.5,38.8"/>
		<path class="st17" d="M51.6,34.4L51.6,34.4C51.6,34.4,51.6,34.5,51.6,34.4C51.6,34.5,51.6,34.5,51.6,34.4
			C51.6,34.5,51.6,34.5,51.6,34.4"/>
		<path class="st17" d="M60.7,38.6c-0.4-1.4-0.8-2.7-1.5-4c-0.3-0.1-0.6,0.1-0.8,0.1c-0.3,0-0.5-0.2-0.5-0.5c0-0.1,0.1-0.2,0.1-0.3
			l0,0l0,0l0,0l0,0l0,0l0,0l0,0l0,0l0,0l0,0l0,0l0,0l0,0l0,0l0,0l0,0l0,0l0,0l0,0l0,0l0,0l0,0l0,0l0,0l0,0l0,0l0,0
			c0.1,0,0.2,0,0.3,0c0.6,0,1,0.3,1.2,0.8c0.6,1.3,1,2.6,1.4,4c0.1,0.4-0.2,0.6-0.5,0.6C61,38.9,60.8,38.8,60.7,38.6"/>
		<path class="st17" d="M52.5,38.8c-0.1,0-0.2,0-0.3,0l0,0c0-0.1,0.1-0.2,0.1-0.2c0.3-0.4,0.9-0.2,0.9,0.3c0,0,0,0,0,0.1
			C53,38.9,52.7,38.9,52.5,38.8"/>
		<path class="st17" d="M61.8,39.9c-0.3-0.5-0.7-0.9-0.9-1.3c-0.2-0.5,0.6-0.9,0.9-0.5l0,0c1.1,1.3,2,2.8,2.6,4.4l0,0l0,0l0,0h-0.1
			L64,42.4l0,0h-0.1h-0.1h-0.1h-0.1h-0.1h-0.1h-0.1h-0.1h-0.1H63h-0.1l0,0C62.8,41.6,62.3,40.8,61.8,39.9"/>
		<path class="st17" d="M53.8,50.2c-2-2-2.8-5-2.5-7.8c0.1-0.8,0.5-3.7,1.3-4c0.3-0.1,0.7,0.2,0.6,0.6c-0.1,0.2-0.2,0.4-0.3,0.7
			c-0.8,2.6-1,5.5,0.3,8c0.3,0.7,0.8,1.3,1.3,1.8c0.4,0.4,0,0.9-0.4,0.9C54,50.4,53.9,50.3,53.8,50.2"/>
		<path class="st17" d="M60.4,54.6C59.9,54,61,53.5,61.3,53c0.6-0.6,1.1-1.4,1.4-2.1c1.6-3,1.5-6,0.3-8.9l0,0h0.1h0.1h0.1h0.1h0.1
			h0.1h0.1h0.1h0.1H64h0.1h0.1h0.1h0.1h0.1l0,0l0,0c1,2.5,1.2,5.2,0.2,7.9c-0.3,0.8-0.7,1.7-1.2,2.4c-0.5,0.9-1.2,1.7-2,2.4
			c-0.1,0.1-0.2,0.1-0.4,0.1C60.6,54.7,60.5,54.7,60.4,54.6"/>
		<path class="st17" d="M55.6,55.4c-1.5-0.1-2.9-0.3-4.4-0.5c0.1-0.1,0.1-0.1,0.2-0.2c0.2-0.2,0.2-0.5,0.2-0.8
			c2.8,0.5,5.8,0.9,8.5,0c0.4-0.2,0.8-0.8,1.2-0.4c0.2,0.2,0.2,0.5,0,0.7c-1.1,1-2.8,1.1-4.4,1.1C56.5,55.4,56,55.4,55.6,55.4"/>
		<path class="st17" d="M47.7,32.8c-0.2-0.2-0.4-0.4-0.5-0.6l0,0l0,0l0,0l0,0l0,0l0,0l0,0l0,0l0,0l0,0l0,0l0,0l0,0l0,0l0,0l0,0l0,0
			l0,0l0,0l0,0l0,0l0,0l0,0l0,0l0,0l0,0l0,0l0,0l0,0l0,0l0,0l0,0l0,0l0,0l0,0l0,0l0,0l0,0l0,0l0,0l0,0l0,0l0,0l0,0l0,0l0,0l0,0l0,0
			l0,0l0,0l0,0l0,0l0,0l0,0l0,0l0,0l0,0l0,0l0,0l0,0l0,0l0,0l0,0l0,0l0,0l0,0l0,0l0,0l0,0l0,0l0,0l0,0l0,0l0,0l0,0l0,0l0,0l0,0l0,0
			l0,0l0,0l0,0l0,0l0,0l0,0l0,0l0,0l0,0l0,0l0,0l0,0l0,0l0,0l0,0l0,0l0,0l0,0l0,0l0,0l0,0l0,0l0,0l0,0l0,0l0,0l0,0l0,0l0,0l0,0l0,0
			l0,0l0,0l0,0l0,0l0,0l0,0l0,0l0,0l0,0l0,0l0,0l0,0l0,0l0,0l0,0l0,0l0,0l0,0l0,0l0,0l0,0l0,0l0,0l0,0l0,0l0,0l0,0l0,0l0,0l0,0l0,0
			l0,0l0,0l0,0l0,0l0,0l0,0l0,0l0,0l0,0l0,0l0,0l0,0l0,0l0,0l0,0l0,0l0,0l0,0l0,0l0,0l0,0l0,0l0,0l0,0l0,0l0,0l0,0l0,0l0,0l0,0l0,0
			l0,0l0,0l0,0l0,0l0,0l0,0l0,0l0,0l0,0l0,0l0,0l0,0l0,0l0,0l0,0l0,0l0,0l0,0l0,0l0,0l0,0l0,0l0,0l0,0l0,0l0,0l0,0l0,0l0,0l0,0l0,0
			l0,0l0,0l0,0l0,0l0,0l0,0l0,0l0,0l0,0l0,0l0,0l0,0l0,0l0,0l0,0l0,0l0,0l0,0l0,0l0,0l0,0l0,0l0,0l0,0l0,0l0,0l0,0l0,0l0,0l0,0l0,0
			l0,0l0,0l0,0l0,0l0,0l0,0l0,0l0,0l0,0l0,0l0,0l0,0l0,0l0,0l0,0l0,0C48.3,33,48,33,47.7,32.8"/>
		<path class="st17" d="M57.7,34L57.7,34L57.7,34L57.7,34L57.7,34L57.7,34L57.7,34L57.7,34L57.7,34L57.7,34L57.7,34L57.7,34L57.7,34
			L57.7,34L57.7,34L57.7,34L57.7,34L57.7,34L57.7,34L57.7,34L57.7,34L57.7,34L57.7,34L57.7,34L57.7,34L57.7,34L57.7,34L57.7,34
			L57.7,34L57.7,34L57.7,34L57.7,34L57.7,34L57.7,34L57.7,34L57.7,34L57.7,34L57.7,34L57.7,34L57.7,34L57.7,34L57.7,34L57.7,34
			L57.7,34L57.7,34L57.7,34L57.7,34L57.7,34L57.7,34L57.7,34L57.7,34L57.7,34L57.7,34L57.7,34L57.7,34L57.7,34L57.7,34L57.7,34
			L57.7,34L57.7,34L57.7,34L57.7,34L57.7,34L57.7,34L57.7,34L57.7,34L57.7,34L57.7,34L57.7,34L57.7,34L57.7,34L57.7,34L57.7,34
			L57.7,34L57.7,34L57.7,34L57.7,34L57.7,34L57.7,34L57.7,34L57.7,34L57.7,34L57.7,34L57.7,34L57.7,34L57.7,34L57.7,34L57.7,34
			L57.7,34L57.7,34L57.7,34L57.7,34c0,0-0.1,0.1-0.2,0.1C58.7,33.7,58.2,34,57.7,34L57.7,34z"/>
		<path class="st17" d="M53,35.7c-0.2-0.2-0.6-0.3-0.9-0.2c0-0.5-0.1-0.9-0.1-1.4l0,0l0,0l0,0l0,0l0,0l0,0l0,0l0,0l0,0l0,0l0,0l0,0
			l0,0l0,0l0,0l0,0l0,0l0,0l0,0l0,0l0,0l0,0l0,0l0,0l0,0l0,0l0,0l0,0l0,0l0,0l0,0l0,0l0,0l0,0l0,0l0,0l0,0l0,0l0,0l0,0l0,0l0,0l0,0
			l0,0l0,0l0,0l0,0l0,0l0,0l0,0l0,0l0,0l0,0l0,0l0,0l0,0l0,0l0,0l0,0l0,0l0,0l0,0l0,0l0,0l0,0l0,0l0,0l0,0l0,0l0,0l0,0l0,0l0,0l0,0
			l0,0l0,0l0,0l0,0l0,0l0,0l0,0l0,0l0,0l0,0l0,0l0,0l0,0l0,0l0,0l0,0l0,0l0,0l0,0l0,0l0,0l0,0l0,0l0,0l0,0l0,0l0,0l0,0l0,0l0,0l0,0
			l0,0l0,0l0,0c0.1,0.6,0.1,1.3,0.1,1.9C53.1,35.9,53,35.8,53,35.7"/>
		<path class="st17" d="M58.1,35.3c-0.1-0.4-0.4-0.8-0.5-1.3l0,0l0,0l0,0l0,0l0,0l0,0l0,0l0,0l0,0l0,0l0,0l0,0l0,0l0,0l0,0l0,0l0,0
			l0,0l0,0l0,0l0,0l0,0l0,0l0,0l0,0l0,0l0,0l0,0l0,0l0,0l0,0l0,0l0,0l0,0l0,0l0,0l0,0l0,0l0,0l0,0l0,0l0,0l0,0l0,0l0,0l0,0l0,0l0,0
			l0,0l0,0l0,0l0,0l0,0l0,0l0,0l0,0l0,0l0,0l0,0l0,0l0,0l0,0l0,0c0,0,0,0,0,0.1c0.2,0.5,0.4,0.9,0.6,1.4h-0.1
			c-0.2,0-0.4,0.1-0.5,0.1C58.3,35.2,58.2,35.3,58.1,35.3L58.1,35.3"/>
		<path class="st17" d="M17.7,90.6c-3-3-4.3-7.2-5.3-11.3c-1.3-5.5-1.3-11.2-0.2-16.6l0,0c0,0.1,0,0.2,0,0.3
			c0.1,0.1,0.1,0.3,0.2,0.4l0,0c0,0.1,0.1,0.1,0.1,0.2c0,0.1,0.1,0.2,0.1,0.2c0,0.1,0.1,0.1,0.1,0.2c0.1,0.1,0.1,0.1,0.2,0.1
			c-1.2,7.3-0.3,14.8,2.6,21.6c0.4,0.9,1,1.7,1.5,2.5c0.4,0.5,0.8,1.1,1.2,1.6c0.2,0.3-0.1,0.8-0.4,0.8
			C17.8,90.6,17.7,90.6,17.7,90.6"/>
		<path class="st17" d="M48.3,88.3c-0.2-0.2-0.3-0.5-0.1-0.7c0.4-0.7,0.9-1.3,1.3-2c0.5-0.8,0.9-1.5,1.3-2.3
			c1.2-3.2,1.4-6.6,1.5-9.9c0.2-5.4-0.7-10.9-2.4-16.1c0-0.2-0.1-0.3-0.1-0.5c0-0.1,0-0.2-0.1-0.3c0.1-0.1,0.2-0.3,0.3-0.4V56
			l0.1-0.1l0,0c0.1-0.1,0.1-0.1,0.2-0.2c2.8,7.5,3.6,15.7,2.5,23.6c-0.3,2.1-0.8,4.2-2,6c-0.6,1-1.2,2-1.8,2.9
			c-0.1,0.1-0.3,0.2-0.4,0.2C48.5,88.4,48.4,88.4,48.3,88.3"/>
		<path class="st17" d="M28.2,93.8c-3.5-0.3-7.2-1-10.2-3c-0.3-0.3-0.6-0.6-0.9-0.9c-0.3-0.6,0.5-1.1,0.9-0.6c0.8,1,1.9,1.5,3,2
			c7.2,2.8,15.9,1.7,22.9-1.2c1.6-0.7,3.2-1.4,4.4-2.8c0.4-0.5,1.2,0.2,0.8,0.7c-0.3,0.4-0.7,0.7-1.1,1c-5,3.4-12,4.8-18.2,4.8
			C29.3,93.8,28.7,93.8,28.2,93.8"/>
		<path class="st17" d="M22.1,36.3c-0.1-0.1-0.2-0.2-0.3-0.3c0-0.1-0.1-0.1-0.1-0.2c-0.1-0.1-0.1-0.2-0.2-0.3l0,0
			c0-0.1-0.1-0.1-0.1-0.2c0-0.2,0.1-0.3,0.1-0.5c0.1-0.4,0.1-0.7,0.1-1.1c0-0.3,0.1-0.6,0.1-1c0.1,0.1,0.2,0.2,0.2,0.3
			c0.1,1.1,0.3,2.3,0.4,3.5C22.2,36.5,22.2,36.4,22.1,36.3"/>
		<path class="st17" d="M46.4,46.5c0.4-2,0.8-4,1-6c0.3-2,0.5-4,0.5-6.1c0.1-1.4-3.8-2.3-5-2.4c-0.3,0-0.6-0.1-1-0.1
			c-0.7,0-0.7-1,0-1c2.1,0.2,5.5,0.8,6.8,2.6c0.5,2.7-0.2,5.6-0.5,8.3c-0.3,2.2-0.8,4.3-1.2,6.5c-0.2,0-0.3,0-0.5,0s-0.4,0-0.6,0.1
			C46.1,47.8,46.2,47.2,46.4,46.5"/>
		<path class="st17" d="M41.3,49.1c-0.8-3.9-1.2-8-1.1-12c0-0.5,0-0.9,0-1.3c0.1-0.6,1-0.6,1,0.1c-0.1,1,0,2,0,3
			c0,2.8,0.3,5.6,0.8,8.4c0.2,0.6,0.2,1.5,0.4,2.3c-0.2,0-0.4,0-0.6,0.1c-0.2,0-0.3,0-0.5,0C41.3,49.4,41.3,49.2,41.3,49.1"/>
		<path class="st17" d="M50.6,59.5c-0.1,0-0.2-0.1-0.2-0.1c0-0.1-0.1-0.2-0.1-0.4l0,0l0,0l0,0c0-0.1,0-0.1-0.1-0.2v0.1
			c0-0.1,0-0.1-0.1-0.2c0-0.1,0-0.2,0-0.3s0-0.1,0-0.2c0.2,0.1,0.5,0.2,0.7,0.3c0.1,0,0.3,0.1,0.4,0.3c0.2,0.3-0.1,0.8-0.4,0.8
			C50.7,59.6,50.7,59.5,50.6,59.5"/>
		<path class="st17" d="M50.2,58.9C50.3,58.9,50.3,59,50.2,58.9C50.3,59,50.3,58.9,50.2,58.9"/>
		<path class="st17" d="M50.4,58c-0.2-0.1-0.3-0.3-0.5-0.4c0,0,0,0,0-0.1c0-0.3-0.1-0.5-0.1-0.8c0-0.1,0-0.2-0.1-0.3
			c0.1-0.1,0.1-0.1,0.2-0.2c0.4,0.3,0.8,0.7,1.2,1s0.1,0.9-0.3,0.9C50.6,58.1,50.5,58.1,50.4,58"/>
		<path class="st17" d="M19.6,113.4c-2-7.6-3-15.6-2.3-23.4c0.1-0.6,1-0.5,1,0.1c0,0.2-0.1,0.4-0.1,0.5c-0.4,5.7,0,11.5,1.1,17.1
			c0.4,1.8,0.8,3.6,1.2,5.4c0.1,0.4-0.2,0.6-0.5,0.6C19.9,113.7,19.7,113.6,19.6,113.4"/>
		<path class="st17" d="M27,117.2c-0.4-0.2-0.3-0.6-0.2-0.9c0.2-0.7,0.5-1.4,0.5-2.2c0-2.4,0.2-4.7,0.4-7.1c0.5-4,0.9-8.3,3-11.8
			c0.6-1.2,1.5-1.3,2.7-1.2c0.5,0,0.6,0.5,0.4,0.8c-0.1,0-0.1,0-0.2,0c-0.1,0-0.3,0.1-0.4,0.2c-0.2,0-0.5,0-0.7,0
			c-0.9-0.1-1.4,1.6-1.8,2.3c-1.3,3.2-1.6,6.6-2,9.9c-0.2,2-0.4,4-0.4,6.1c0,1.2-0.2,2.3-0.6,3.4c-0.1,0.3-0.3,0.6-0.6,0.6
			C27.1,117.3,27,117.2,27,117.2"/>
		<path class="st17" d="M20.5,116.4c-0.4-0.4-0.4-1.2-0.6-1.7c0-0.6-0.6-2,0.3-2.1c0.3,0,0.6,0.3,0.5,0.7c0,0.4,0.1,0.9,0.2,1.3
			c0.1,0.5,0.2,0.9,0.4,1.4c0.1,0.3-0.2,0.7-0.5,0.7C20.6,116.5,20.5,116.5,20.5,116.4"/>
		<path class="st17" d="M33.2,94.7c-0.4-0.6,0.6-1.2,0.9-0.5l0,0c0.1,0.1,0.1,0.3,0.2,0.4c-0.2,0-0.5,0-0.7,0.1
			c-0.1,0-0.2,0.1-0.3,0.1C33.3,94.9,33.3,94.8,33.2,94.7"/>
		<path class="st17" d="M34.1,94.2L34.1,94.2L34.1,94.2L34.1,94.2"/>
		<path class="st17" d="M35.4,119.9c-2.3-0.4-4.3-1.3-3.3-3.9c0.2-1,0.6-2,1.3-2.9c0,0,0,0,0,0.1c0.1,0.4,0.2,0.7,0.5,1
			c-0.5,0.7-0.7,1.6-0.8,2.4c-0.2,0.8-0.2,1.4,0.7,1.8c0.9,0.3,2.3,1,2.9,0.1c0.3-0.4,0.6-0.8,0.8-1.2c0.3-0.4,0.4-1.4,1.1-1.2
			c0.8,0.4-0.1,1.3-0.3,1.9c-0.5,0.9-1.3,2-2.4,2C35.7,119.9,35.6,119.9,35.4,119.9"/>
		<path class="st17" d="M38.1,116L38.1,116c0-0.5,0.4-0.8,0.6-1.3c0.4-0.7,0.7-1.4,1.1-2c1.6-3.3,3-6.6,4.2-10
			c1.6-4.3,2.4-8.9,3-13.4c0.1-0.7,1.1-0.5,1,0.1c-0.7,5.7-2,11.3-4.1,16.6c-1.2,3.1-2.5,6.1-4.1,9c-0.3,0.4-0.6,1.5-1.1,1.5
			C38.3,116.4,38.1,116.2,38.1,116"/>
		<path class="st17" d="M32.1,121.9c-0.3-0.1-0.4-0.4-0.4-0.6c0.2-0.8,0.5-1.5,0.7-2.3c0.1-0.3,0.2-0.8,0.6-0.8
			c0.9,0.1,0.3,1.2,0.2,1.8C32.9,120.5,32.9,122,32.1,121.9C32.2,121.9,32.1,121.9,32.1,121.9"/>
		<path class="st17" d="M34.6,122.2c-0.7-0.3-0.1-1.1,0.1-1.4c0.4-0.5,0.4-1.4,1.2-1.5c0.3,0,0.5,0.2,0.5,0.5s-0.3,0.5-0.4,0.9
			c-0.3,0.4-0.5,1.6-1.1,1.6C34.7,122.2,34.6,122.2,34.6,122.2"/>
		<path class="st17" d="M32.9,123.1c-0.5-0.3-1.1-0.6-1.3-1.2c0-0.3,0.2-0.5,0.5-0.5c0.4,0,0.6,0.5,0.9,0.7c0.4,0.4,0.7,0.1,1-0.1
			c0.2-0.2,0.5-0.5,0.9-0.2c0.7,0.6-0.6,1.5-1.2,1.6c-0.1,0-0.1,0-0.2,0C33.3,123.3,33.1,123.2,32.9,123.1"/>
		<path class="st17" d="M34.1,131.5c-3.5-0.3-3-2.1-2.9-4.9c0.2-2.3-1.2-2.3,0.1-4.9c0.2-0.6,1.1-0.7,1.1,0
			c-0.2,0.6-0.6,1.1-0.6,1.7c-0.2,0.6,0.4,1.2,0.4,1.8c0.1,1.3-0.1,2.6,0,3.9c0.1,1.3,2.3,1.4,3.3,1.1c0.6-0.1,1.2-1.2,1.8-0.7
			c0.5,0.6-0.5,1.1-0.9,1.4c-0.6,0.3-1.2,0.5-1.9,0.5C34.4,131.5,34.3,131.5,34.1,131.5"/>
		<path class="st17" d="M37.1,130.2c-0.5-0.2-0.3-0.6-0.2-1c-0.1-0.9-0.8-1.5-1.2-2.3c-0.6-1.5-1.2-3.1-1.4-4.7c0.1-0.5,0.9-0.5,1,0
			c0.4,1.4,0.7,2.8,1.3,4.2c0.3,0.7,0.9,1.2,1.1,2c0.2,0.5,0.3,1.8-0.4,1.8C37.3,130.2,37.2,130.2,37.1,130.2"/>
		<path class="st17" d="M26.1,118c-0.1-0.2-0.1-0.4-0.1-0.6c-0.1-0.7-0.6-1.3-1.2-1.7c-1-0.6-2.8-0.4-3.1,0.9
			c-0.2,0.6-1.1,0.4-1-0.3c0.3-1.6,2.1-2.2,3.6-1.9c1.1,0.2,2,1.1,2.5,2.1c0.4-0.4,1.1,0,0.9,0.5c-0.2,0.4-0.6,1.2-1.1,1.2
			C26.3,118.2,26.2,118.1,26.1,118"/>
		<path class="st17" d="M33.6,114.1c-0.3,0-0.5-0.3-0.4-0.6c0.2-1.1,0.3-2.2,0.5-3.3c0.4-5,0.9-10.1-0.4-15
			c-0.6-0.9,0.4-1.5,0.8-0.8c1.6,4.9,1,10.4,0.6,15.5c-0.1,1.3-0.3,2.5-0.5,3.8C34.1,113.9,33.9,114.1,33.6,114.1L33.6,114.1"/>
		<path class="st17" d="M49.8,55.9c-0.5-0.5,0.2-0.9,0.4-1.3c0.2-0.3,0.2-0.9,0.7-0.9c0.3,0,0.5,0.2,0.5,0.5
			c-0.1,0.5-0.6,1.8-1.2,1.8l0,0C50.1,56,49.9,56,49.8,55.9"/>
		<path class="st17" d="M49.6,56.7c-0.7-1.8,1.4-1.8,0.9-0.6c0,0.1,0,0.2,0.1,0.3c0.1,0.4-0.2,0.6-0.5,0.6
			C49.8,57.1,49.6,57,49.6,56.7"/>
		<path class="st17" d="M51.4,54.9c-0.3,0-0.5-0.3-0.4-0.6c0.1-0.4,0.5-0.5,0.8-0.4c0.8,0.1,0.6,1-0.1,1
			C51.6,54.9,51.5,54.9,51.4,54.9"/>
		<path class="st17" d="M41.6,49.6c0-0.3,0.2-0.5,0.5-0.5s0.5,0.2,0.5,0.5s-0.2,0.5-0.5,0.5S41.6,49.9,41.6,49.6"/>
		<path class="st17" d="M49.5,56.5c-2.9-0.6-7.1-4-8-6.9c0.1-0.7,0.9-0.6,1.1,0c1.1,2.3,3.2,4,5.4,5.2c0.6,0.3,1.1,0.5,1.7,0.6
			c0.6,0.1,0.4,1-0.1,1C49.6,56.5,49.5,56.5,49.5,56.5"/>
		<path class="st17" d="M50.1,54.8c-1.3-0.8-2.3-2-3.1-3.2c-0.3-0.6-1.1-1.5-0.9-2.1c0.2-0.4,0.9-0.3,0.9,0.2
			c0.2,0.5,0.5,0.9,0.8,1.4c0.6,0.8,1.2,1.6,1.9,2.2c0.3,0.4,0.9,0.5,1.1,1c0.1,0.3-0.2,0.7-0.5,0.7C50.3,54.9,50.2,54.9,50.1,54.8
			 M47.1,50c0-0.1,0.1-0.2,0-0.3C47.1,49.8,47.1,49.9,47.1,50"/>
		<path class="st17" d="M42.9,50.9c-0.6-0.1-1.7-0.7-1.5-1.4c0.1-0.3,0.4-0.4,0.7-0.3c0.1,0.1,0.2,0.2,0.3,0.3
			c0.1,0.2,0.3,0.3,0.5,0.3c1.1,0.3,2.7,0.1,3.1-1.1c0.1-0.3,0.2-0.8,0.7-0.7c0.3,0,0.5,0.3,0.4,0.6c-0.2,1.6-1.8,2.4-3.3,2.4
			C43.5,51,43.2,50.9,42.9,50.9"/>
		<path class="st17" d="M31.6,46.2c-0.8-0.3-0.9-1.1-0.7-1.8c0.2-0.8,0.3-1.7,0.6-2.5c0.2-0.3,0.6-0.2,0.7,0.1
			c-0.2,1.1-0.7,2.2-0.7,3.3c0.2,0.3,0.7,0.3,1,0.2c0.3-0.2,0.2-0.6,0.3-0.9l0,0c0.1-0.8,0-1.6-0.2-2.4c0-0.2,0.1-0.4,0.3-0.4
			c0.6,0,0.5,0.9,0.6,1.3c0.1,1.3,0.2,3.2-1.3,3.2C32.2,46.3,31.9,46.2,31.6,46.2"/>
		<path class="st17" d="M31.3,65.2c0.2-6.3,0.1-12.7,0.5-19c0.1-0.5,0.9-0.4,0.8,0.1c-0.4,5.5-0.3,10.9-0.5,16.4c0,0.8,0,1.7,0,2.5
			c0,0.2-0.2,0.4-0.4,0.4S31.3,65.4,31.3,65.2"/>
		<path class="st17" d="M54.5,39.8c-0.2-0.5-1.5-4-0.9-4.1c0.2-0.1,0.6,0.1,0.6,0.3c0.2,1.2,0.5,2.4,1,3.5c0.1,0.3-0.1,0.5-0.4,0.5
			C54.7,40,54.6,39.9,54.5,39.8"/>
		<path class="st17" d="M56.2,40c-0.4-1.2-0.8-2.4-1-3.6c0-0.5,0.7-0.5,0.8,0c0.3,1.1,0.6,2.3,1,3.3c0.1,0.3-0.1,0.5-0.4,0.5
			C56.4,40.3,56.3,40.2,56.2,40"/>
		<path class="st17" d="M57.7,39.7c-0.1-0.8-0.3-1.5-0.4-2.3c0-0.4-0.5-1.4,0.2-1.5c0.6,0,0.4,0.7,0.5,1.1c0.2,0.9,0.3,1.7,0.5,2.6
			c0,0.3-0.2,0.4-0.4,0.4C57.9,40,57.7,39.9,57.7,39.7"/>
		<path class="st17" d="M59,38.9c-0.1-1-0.3-1.9-0.5-2.9c0-0.2-0.1-0.4-0.1-0.5c0.2-0.4,0.7-0.3,0.8,0.1c0.2,0.9,0.4,1.8,0.5,2.8
			c0,0.3,0.2,0.8-0.3,0.9l0,0C59.2,39.2,59.1,39.1,59,38.9"/>
		<path class="st17" d="M55.6,40.4c-1.1-0.2-2-0.7-2.9-1.3c-0.4-0.2-0.3-0.7,0.1-0.8c0.3,0.1,0.6,0.4,0.9,0.5
			c0.9,0.5,1.8,0.9,2.9,0.8c1.2-0.1,2.4-0.6,3.3-1.4c0.3-0.2,0.6-0.8,1-0.4c0.4,0.5-0.5,0.9-0.8,1.2c-1.1,0.9-2.4,1.4-3.8,1.4
			C56.1,40.5,55.8,40.4,55.6,40.4"/>
		<path class="st17" d="M43.8,102.7c-1.9-2.9-2.8-7.9-2.1-11.4c0.3-0.4,0.8,0,0.6,0.4c-0.3,2.6,0,5.4,0.8,7.9
			c0.3,0.9,0.7,1.8,1.2,2.6c0.2,0.3-0.1,0.6-0.3,0.6C44,102.8,43.9,102.8,43.8,102.7"/>
		<path class="st17" d="M44.5,101.2c-1.5-3.1-1.7-6.7-1.3-10c0.1-0.5,0.8-0.4,0.8,0.1c-0.3,2.1-0.2,4.3,0.2,6.5
			c0.2,1.1,0.5,2.1,1.1,3.1c0.2,0.3-0.1,0.6-0.4,0.6C44.7,101.4,44.5,101.3,44.5,101.2"/>
		<path class="st17" d="M18,99.7c-0.3-0.3,0-0.6,0.2-0.8c0.4-0.6,0.8-1.3,1.2-2c0.8-1.5,1.4-3.1,1.8-4.8c0-0.5,0.8-0.5,0.8,0
			c-0.2,0.9-0.5,1.7-0.7,2.6c-0.5,1.5-1.3,2.9-2.2,4.3c-0.2,0.3-0.4,0.8-0.8,0.8C18.1,99.8,18.1,99.8,18,99.7"/>
		<path class="st17" d="M17.9,102.1c-0.2-0.2-0.1-0.5,0.1-0.6c0.3-0.4,0.6-0.7,0.9-1.1c1.6-2.4,2.9-5.1,3.5-7.9
			c0.1-0.5,0.8-0.3,0.7,0.1c-0.2,1-0.5,2-0.9,3c-0.3,0.8-3,6.6-4.1,6.6C18.1,102.2,18,102.2,17.9,102.1"/>
		<path class="st17" d="M37.6,116.4c-1.6-0.2-3.5-1-4-2.6c0-0.4,0.6-0.5,0.8-0.1c0.2,0.5,0.6,0.9,1.1,1.2c0.8,0.5,1.8,0.9,2.8,0.8
			c0.3,0,0.5,0.2,0.5,0.4c0,0.2-0.2,0.4-0.8,0.4C37.9,116.5,37.8,116.5,37.6,116.4"/>
		<path class="st17" d="M20,113.1c0.3-1.1,1.2-2,2.2-2.3c1.3-0.3,2.7-0.2,4,0.3c0.7,0.3,1.3,0.8,1.9,1.3c0.3,0.3-0.2,0.9-0.5,0.5
			c-0.1-0.1-0.2-0.2-0.3-0.3l0,0c-1.4-1.2-3.5-1.6-5.2-1c-0.6,0.3-1,0.9-1.3,1.5c0,0.2-0.2,0.4-0.4,0.4
			C20.1,113.5,19.9,113.4,20,113.1"/>
		<path class="st17" d="M13.7,122.2c-0.3-0.1-0.4-0.4-0.3-0.7c0.3-1,1-1.7,2-2.1c1.2-0.7,2.6-1,3.9-1.2c0.4-0.1,0.6-0.6,0.8-0.8
			c0.2-0.2,0.3-0.5,0.2-0.8c0-0.3,0-0.6,0.3-0.7c0.3-0.2,0.6,0,0.7,0.2c0.1,0.7,0,1.5-0.4,2s-0.8,1.1-1.5,1.2
			c-1.5,0.2-3,0.7-4.2,1.5c-0.6,0.3-0.6,1.5-1.2,1.5C13.9,122.2,13.8,122.2,13.7,122.2"/>
		<path class="st17" d="M25.7,125.1c-0.3-0.1-0.4-0.4-0.3-0.7c0.2-0.6,0.4-1.2,0.5-1.8c0.3-1.2,0.3-2.5,0-3.8
			c-1.5,0.5-2.3,0.1-2.9-0.3s-1.1-0.8-2-0.5c-0.3,0.4-1,0.1-0.9-0.4c0.2-0.6,1-0.7,1.5-0.7c0.9-0.1,1.6,0.5,2.3,1
			c0.4,0.2,0.9,0.2,1.4,0.1c0.8-0.2,1.4-0.3,1.7,0.9c0.3,1.5,0.1,3.1-0.2,4.6c-0.2,0.5-0.2,1.7-0.9,1.7
			C25.9,125.2,25.8,125.2,25.7,125.1"/>
		<path class="st17" d="M20.9,126.4c-2.5-0.3-5-1.4-6.9-3.2c-0.3-0.3-0.7-0.5-0.8-1c0-0.3,0.3-0.5,0.6-0.5s0.4,0.3,0.6,0.5
			c2,2.1,5,3.4,8,3.2l0,0c0.8-0.1,1.6-0.2,2.3-0.4c0.5,0,1.3-0.6,1.6-0.1c0.4,0.8-0.9,0.9-1.4,1.1c-1,0.2-2.1,0.4-3.2,0.4
			C21.5,126.4,21.2,126.4,20.9,126.4"/>
		<path class="st17" d="M25.5,118.4c-0.7-0.3-0.2-1.1-0.1-1.6c0.1-0.6,0.6-1.2,1.1-0.6c0.1,0.2,0.1,0.5-0.1,0.6
			c-0.2,0.5-0.1,1.5-0.8,1.5C25.6,118.5,25.5,118.4,25.5,118.4"/>
		<path class="st17" d="M22.7,125.2c-2.2-0.1-4.3-0.9-6.3-2c-0.9-0.6-1.9-1.1-2.6-1.9c-0.2-0.5,0.5-0.7,0.7-0.3
			c2.8,2.1,6.2,3.7,9.7,3.4l0,0l0,0l0,0l0,0c0.6,0,1.1-0.1,1.7-0.1c0.2,0,0.4,0.1,0.4,0.3c0,0.2-0.1,0.4-0.3,0.4
			c-0.9,0.1-1.8,0.2-2.7,0.2C23.1,125.2,22.9,125.2,22.7,125.2 M14.1,121.6h0.1C14.2,121.6,14.1,121.6,14.1,121.6L14.1,121.6"/>
		<path class="st17" d="M24.2,124.4L24.2,124.4L24.2,124.4z"/>
		<polyline class="st17" points="24.2,124.4 24.2,124.4 24.2,124.4 		"/>
		<path class="st17" d="M58.8,34L58.8,34L58.8,34L58.8,34L58.8,34L58.8,34L58.8,34L58.8,34L58.8,34L58.8,34L58.8,34L58.8,34L58.8,34
			L58.8,34L58.8,34L58.8,34L58.8,34L58.8,34L58.8,34L58.8,34L58.8,34L58.8,34L58.8,34L58.8,34L58.8,34L58.8,34L58.8,34L58.8,34
			C58.2,34,58.6,34,58.8,34"/>
		<path class="st17" d="M50.8,34.1c-0.2-0.2-0.5-0.2-0.7-0.3c-0.3-0.1-0.5-0.3-0.8-0.3c-0.2,0-0.4,0-0.6,0l0,0l0,0l0,0l0,0l0,0l0,0
			l0,0l0,0l0,0l0,0l0,0l0,0l0,0l0,0l0,0l0,0l0,0l0,0l0,0l0,0l0,0l0,0l0,0l0,0l0,0l0,0l0,0l0,0l0,0l0,0l0,0l0,0l0,0l0,0l0,0l0,0l0,0
			l0,0l0,0l0,0l0,0l0,0l0,0l0,0l0,0l0,0l0,0l0,0l0,0l0,0l0,0l0,0l0,0l0,0l0,0l0,0l0,0l0,0l0,0l0,0l0,0l0,0l0,0l0,0l0,0l0,0l0,0l0,0
			l0,0l0,0l0,0l0,0l0,0l0,0l0,0l0,0l0,0l0,0l0,0l0,0l0,0l0,0l0,0l0,0l0,0l0,0l0,0l0,0l0,0l0,0l0,0l0,0l0,0l0,0l0,0l0,0l0,0l0,0l0,0
			l0,0l0,0l0,0l0,0l0,0l0,0l0,0l0,0l0,0l0,0l0,0l0,0l0,0l0,0l0,0l0,0l0,0l0,0l0,0l0,0l0,0l0,0l0,0l0,0l0,0l0,0l0,0l0,0l0,0l0,0l0,0
			l0,0l0,0l0,0l0,0l0,0l0,0l0,0l0,0l0,0l0,0l0,0l0,0l0,0l0,0l0,0l0,0l0,0l0,0l0,0l0,0l0,0l0,0l0,0l0,0l0,0l0,0l0,0l0,0l0,0l0,0l0,0
			l0,0l0,0l0,0l0,0l0,0l0,0l0,0l0,0l0,0l0,0l0,0l0,0l0,0l0,0l0,0l0,0l0,0l0,0l0,0l0,0l0,0l0,0l0,0l0,0l0,0l0,0l0,0l0,0l0,0l0,0l0,0
			l0,0l0,0l0,0l0,0l0,0l0,0l0,0l0,0l0,0l0,0l0,0l0,0l0,0l0,0l0,0l0,0l0,0l0,0l0,0l0,0l0,0l0,0l0,0l0,0l0,0l0,0l0,0l0,0l0,0l0,0l0,0
			l0,0l0,0l0,0l0,0l0,0l0,0l0,0l0,0l0,0l0,0l0,0l0,0l0,0l0,0l0,0l0,0l0,0l0,0l0,0l0,0l0,0l0,0l0,0l0,0l0,0l0,0l0,0
			c-1.6-1.1-1.7-1.4-1.7-1.6c0.1-0.7,0-1.6,0.4-2.2c1.3-1.5,3.2-1.4,3.8-3.7c0.3-0.9,0.6-1.8,1-2.6c0.2-0.8,0.3-1.6,0.7-2.3
			c0.3-0.6,2-1.4,2.1-0.3c0,0.8-1.2,0.3-1.3,1.1c-0.2,0.5-0.3,1-0.4,1.5c-0.2,0.8-0.6,1.6-0.8,2.4c-0.5,1.8-1.4,3-3.1,3.8
			c-0.4,0.3-1,0.5-1.2,1c0,0.5-0.3,1.3,0,1.8c0.2,0.2,0.4,0.2,0.6,0.1c0.2,0,0.3,0,0.5,0c0.5,0,0.9,0.3,1.2,0.4
			c0.2,0.1,0.5,0.1,0.7,0.3c0.4-0.3,0.6-0.9,0.4-1.4c-0.4-0.3-0.8-0.6-1.3-0.7c-0.9-0.2-0.6-1.8,1.3-0.6c0.8,0.5,1.2,1,1,2
			c0,0.7-0.8,1.8-1.5,1.8C51.1,34.3,51,34.2,50.8,34.1"/>
		<path class="st17" d="M55,25.1c-0.7-0.2-1.8-2-0.6-2.2c0.7,0,0.5,0.9,1,1.2c0.9-0.1,0.9-0.6,0.8-1.3c-0.1-0.6,0-1.9-0.9-1.8
			c-0.4,0.1-0.7,0.2-1.1,0.3c-0.6,0-0.7-0.9-0.1-1.1c1.4-0.5,2.6-0.5,3,1.2c0.1,0.5,0.1,0.9,0.2,1.4c0.1,0.4,0.1,0.8-0.1,1.1
			c-0.3,0.7-1,1.1-1.7,1.1C55.2,25.2,55.1,25.2,55,25.1"/>
		<path class="st17" d="M58.6,26.8c-1-0.2-1.8-1.4-1.4-2.4c0.2-0.4,0.8-0.4,1,0c0.1,0.3-0.1,0.5,0,0.8c0.2,0.4,0.7,0.7,1.1,0.4
			c0.1-1,0.2-1.9,0.2-2.9c-0.4-0.3-0.9-0.6-1.4-0.7c-0.2,0.5-0.5,0.9-0.7,1.4c-0.3,0.4-0.3,1.1-0.9,1.1c-0.3,0-0.5-0.2-0.5-0.5
			c0-0.2,0.2-0.4,0.2-0.6c0.3-0.6,0.6-1.2,1-1.8c0.4-0.8,1.3-0.7,2-0.3c0.4,0.2,0.8,0.4,1.1,0.7c0.5,0.7,0.1,1.7,0.1,2.5
			c0,1.4-0.1,2.4-1.7,2.4C58.8,26.8,58.7,26.8,58.6,26.8"/>
		<path class="st17" d="M61,28.8c-0.6-0.2-1.1-0.7-1.1-1.4c-0.1-0.5-0.1-1,0.2-1.4c-0.5,0.5-1.2-0.3-0.7-0.8
			c0.6-0.4,2.2-1.9,2.8-1.3c0.6,0.9,2,1.8,1.4,3c-0.3,0.5-0.8,0.8-1.1,1.3c-0.3,0.4-0.6,0.7-1.1,0.7C61.3,28.9,61.2,28.9,61,28.8
			 M61,26.7c-0.2,0.2,0,0.6,0,0.8c0.1,0.2,0.3,0.2,0.4,0.3c0.4-0.5,0.8-1,1.3-1.4c0-0.2-0.1-0.3-0.2-0.4c-0.2-0.4-0.5-0.7-0.8-1
			c-0.4,0.3-0.8,0.5-1.2,0.8h0.1C61.1,25.8,61.3,26.4,61,26.7"/>
		<path class="st17" d="M57.3,34.4c-0.6,0-1.2-0.4-1.8-0.4c-0.4,0-1,0-1-0.6c0.1-0.8,1.1-0.5,1.6-0.4c0.4,0.2,0.9,0.4,1.4,0.4
			c0.2,0,0.4-0.1,0.6-0.2c0.5-0.2,0.9-0.4,1.4-0.6c0.3-0.2,0.6-0.4,0.9-0.7c0.2-0.2,0.4-0.4,0.6-0.7c0.1-0.2,0.2-0.3,0.3-0.4
			c0.4-0.2,1-0.6,1.3-0.1c0.2,0.2,0.1,0.5,0.2,0.7c0.1,0.4,0.2,0.9,0.6,1.1c0.2-0.9,0.4-1.8,0.3-2.7c-0.3-0.3-0.7-0.4-0.9-0.7
			c-0.4-0.2-0.9-0.4-1-0.8c0-0.6,0.6-0.8,1-0.4c0.2,0.2,0.4,0.2,0.6,0.3c0.3,0.3,0.6,0.5,0.9,0.7c0.5,0.3,0.5,0.9,0.5,1.5
			s-0.1,1.1-0.2,1.7c-0.1,0.4-0.1,0.9-0.4,1.2c-1,1-2.1-0.3-2.3-1.3c-0.6,0.8-1.5,1.5-2.4,1.9l0,0l0,0l0,0l0,0l0,0l0,0l0,0l0,0l0,0
			l0,0l0,0l0,0l0,0l0,0l0,0l0,0l0,0l0,0l0,0l0,0l0,0l0,0l0,0l0,0l0,0l0,0l0,0l0,0l0,0l0,0l0,0l0,0l0,0l0,0l0,0l0,0l0,0l0,0l0,0l0,0
			l0,0l0,0l0,0l0,0l0,0l0,0l0,0l0,0l0,0l0,0l0,0l0,0l0,0l0,0l0,0l0,0l0,0l0,0l0,0l0,0l0,0l0,0l0,0l0,0l0,0l0,0l0,0l0,0l0,0l0,0l0,0
			l0,0l0,0l0,0l0,0l0,0l0,0l0,0l0,0l0,0l0,0l0,0l0,0l0,0l0,0l0,0l0,0l0,0l0,0l0,0l0,0l0,0c0,0,0,0-0.1,0
			C57.6,34.4,57.5,34.4,57.3,34.4"/>
		<path class="st17" d="M51.8,32.4c0.3-0.8,1.2-0.4,1,0.4c0.1,0.6,0.1,1.1,0.2,1.7l0,0l0,0l0,0l0,0l0,0l0,0l0,0l0,0l0,0l0,0l0,0l0,0
			l0,0l0,0l0,0l0,0l0,0l0,0l0,0l0,0l0,0l0,0l0,0l0,0l0,0l0,0l0,0l0,0l0,0l0,0l0,0l0,0l0,0l0,0l0,0l0,0l0,0l0,0l0,0l0,0l0,0l0,0l0,0
			l0,0l0,0l0,0l0,0l0,0l0,0l0,0l0,0l0,0l0,0l0,0l0,0l0,0l0,0l0,0l0,0l0,0l0,0l0,0l0,0l0,0l0,0l0,0l0,0l0,0l0,0l0,0l0,0l0,0l0,0l0,0
			l0,0l0,0l0,0l0,0l0,0l0,0l0,0l0,0l0,0l0,0l0,0l0,0l0,0l0,0l0,0l0,0l0,0l0,0l0,0l0,0l0,0l0,0l0,0l0,0l0,0l0,0l0,0l0,0l0,0l0,0l0,0
			l0,0l0,0l0,0C51.9,33.9,51.9,33.1,51.8,32.4"/>
		<path class="st17" d="M57.6,33.6c0.3-0.5,1.1-0.2,1,0.4l0,0l0,0l0,0l0,0l0,0l0,0l0,0l0,0l0,0l0,0l0,0l0,0l0,0l0,0l0,0l0,0l0,0l0,0
			l0,0l0,0l0,0l0,0l0,0l0,0l0,0l0,0l0,0l0,0l0,0l0,0l0,0l0,0l0,0l0,0l0,0l0,0l0,0l0,0l0,0l0,0l0,0l0,0l0,0l0,0l0,0l0,0l0,0l0,0l0,0
			l0,0l0,0l0,0l0,0l0,0l0,0l0,0l0,0l0,0l0,0l0,0l0,0l0,0l0,0C57.4,34.2,57.4,33.9,57.6,33.6"/>
		<path class="st17" d="M51.8,36.8c-1-1.2-2.3-2.2-3.7-3c-0.7-0.4,0-1.4,0.6-0.8l-0.1-0.1c1.5,0.9,2.9,1.9,4,3.2
			c0.3,0.4-0.1,0.8-0.4,0.8C52,37,51.9,36.9,51.8,36.8"/>
		<path class="st17" d="M11.2,53.8c-0.6-0.5,0.2-1.2,0.3-1.7c0.4-1.2,0.7-2.5,0.8-3.8c-1.3,1-2.9,2.1-4.7,1.7
			c-0.9-0.2-1.9-0.5-2.5-1.3c-0.1-0.2,0-0.5,0.2-0.6c0.1,0,0.1-0.1,0.2-0.1h0.1c0.1,0,0.2,0.1,0.3,0.1c0.1,0.1,0.2,0.2,0.3,0.3
			c0.3,0.2,0.6,0.4,0.9,0.5c1.8,0.8,3.5-0.5,4.8-1.6c0.7-0.6,1.2-0.4,1.4,0.1c0,0.1,0,0.3,0,0.4c0,0.3,0,0.6,0,0.9
			c0,0.1,0,0.3,0,0.4l0,0c-0.2,1.3-0.8,4.6-1.8,4.7C11.4,53.8,11.3,53.8,11.2,53.8 M5.9,49c0.1-0.1,0.2-0.2,0.2-0.3
			C6.1,48.8,6,48.9,5.9,49"/>
		<path class="st17" d="M3,54.1c-0.8-0.3,0-1.6,0.1-2.2c0.2-0.7,2.2-5.4,2.8-3.2l0,0c0,0,0,0,0-0.1C6,49,5.6,49.1,5.4,49.4
			c-0.5,0.8-0.9,1.6-1.3,2.5c-0.2,0.6-0.4,1.2-0.6,1.9c0,0.2-0.2,0.3-0.4,0.4C3.1,54.1,3,54.1,3,54.1"/>
		<path class="st17" d="M6.3,66.4c-3.5,0-6.8-3.4-6.2-7c0.4-2,1.3-3.8,2.3-5.5c0.2-0.3,0.3-0.7,0.8-0.7c1.1,0.4-0.2,1.5-0.4,2.1
			c-0.9,2-2.2,4.1-1.4,6.3c0.6,2,2.5,3.6,4.6,3.7c2.3,0.1,4.5-1.2,6.2-2.7v0.1c0,0.1,0,0.2,0,0.3c0.1,0.1,0.1,0.3,0.2,0.4l0,0
			c0,0.1,0.1,0.1,0.1,0.2v0.1C11,65.1,9,66.1,6.9,66.3C6.7,66.4,6.5,66.4,6.3,66.4L6.3,66.4z"/>
		<path class="st17" d="M11.3,61c-0.9-0.1-0.4-1.4-0.4-2c0.1-1.9,0-3.8,0-5.7c0-0.6,1-0.7,1-0.1c0,0.8,0,1.6,0,2.4
			c0,1.6,0,3.3-0.1,4.9v0.1c0,0.1-0.1,0.1-0.1,0.2C11.6,60.9,11.5,60.9,11.3,61L11.3,61L11.3,61"/>
		<path class="st17" d="M7.5,65.6L7.5,65.6L7.5,65.6L7.5,65.6L7.5,65.6"/>
		<path class="st17" d="M7.6,65.5L7.6,65.5L7.6,65.5"/>
		<path class="st17" d="M7.6,65.5L7.6,65.5L7.6,65.5"/>
		<path class="st17" d="M7.6,65.5L7.6,65.5L7.6,65.5L7.6,65.5"/>
		<path class="st17" d="M7.6,65.5L7.6,65.5L7.6,65.5"/>
		<path class="st17" d="M7.6,65.5L7.6,65.5L7.6,65.5L7.6,65.5"/>
		<path class="st17" d="M7.7,65.4C7.7,65.4,7.7,65.5,7.7,65.4C7.7,65.5,7.7,65.4,7.7,65.4"/>
		<path class="st17" d="M5.3,49.2c-0.1,0-0.2,0-0.4,0c0.2-0.4,0.4-0.8,0.6-1.2h0.1c0.1,0.1,0.3,0.1,0.4,0.2l0,0
			c0.2,0.1,0.3,0.2,0.4,0.2c0,0,0.1,0,0.1,0.1c-0.1,0.3-0.3,0.5-0.4,0.7c0,0.1-0.1,0.1-0.1,0.2C5.8,49.3,5.5,49.2,5.3,49.2"/>
		<path class="st17" d="M11.1,47.7c0,0,0.1,0,0.1-0.1c0.3-0.2,0.5-0.3,0.8-0.5l0,0c0,0,0.1,0,0.1-0.1l0.1-0.1c0,0.4-0.1,0.9-0.2,1.3
			c-0.2,0.1-0.4,0.3-0.7,0.4c-0.2,0.1-0.4,0.2-0.5,0.3C11,48.5,11.1,48.1,11.1,47.7"/>
		<path class="st17" d="M5.1,53.9c-0.2,0-0.4-0.2-0.3-0.4c0.2-0.9,0.4-1.8,0.8-2.7c0.2-0.4,0.5-1.4,0.9-1.5c0.2,0,0.4,0.1,0.4,0.3
			S6.7,50,6.7,50.2c-0.5,0.9-0.8,1.9-1,2.9c-0.1,0.3-0.1,0.8-0.4,0.8C5.2,53.9,5.2,53.9,5.1,53.9"/>
		<path class="st17" d="M6.5,53.9c-0.6-0.2,0-1.2,0.1-1.6c0.3-0.9,0.6-1.7,1-2.6c0.2-0.3,0.7-0.2,0.7,0.1c-0.1,0.4-0.4,0.9-0.5,1.3
			c-0.3,0.8-0.6,1.6-0.8,2.5c0,0.2-0.2,0.3-0.3,0.3C6.6,54,6.5,54,6.5,53.9"/>
		<path class="st17" d="M8.3,53.6C8.1,53.5,8,53.3,8,53.1c0.3-1,0.7-2.1,0.9-3.1c0-0.7,1.1-0.4,0.7,0.2l0.1-0.1l0,0l0,0
			c-0.2,1-0.5,2-0.8,2.9c-0.1,0.2-0.2,0.6-0.4,0.6C8.4,53.6,8.4,53.6,8.3,53.6"/>
		<path class="st17" d="M9.6,53.7c-0.2-0.1-0.3-0.3-0.2-0.5c0.3-0.9,0.6-1.9,0.8-2.8c0.1-0.4,0.2-0.7,0.3-1.1c0-0.2,0.1-0.5,0.4-0.5
			c0.4,0,0.5,0.4,0.4,0.7c-0.1,0.6-0.3,1.2-0.5,1.8c-0.1,0.5-0.3,1-0.4,1.5c-0.1,0.3-0.2,1-0.6,1C9.8,53.7,9.7,53.7,9.6,53.7"/>
		<path class="st17" d="M6.6,54.3c-0.8,0.1-3.3,0.2-3.4-0.8v0.1c-0.1-0.4,0.4-0.6,0.7-0.3c0.3,0.2,0.7,0.2,1.1,0.3
			c1,0.1,2.1-0.1,3.2-0.2c0.5-0.1,1-0.2,1.6-0.2c0.5-0.1,0.9-0.1,1.3-0.3c0.2-0.1,0.5,0,0.5,0.2c0.2,0.7-1.1,0.7-1.5,0.8
			c-0.6,0.1-1.2,0.2-1.8,0.2c-0.5,0.1-1,0.2-1.6,0.2C6.6,54.3,6.6,54.3,6.6,54.3"/>
		<path class="st17" d="M14.5,37.9L14.5,37.9c0-0.1,0-0.2-0.1-0.3s-0.2-0.3-0.3-0.3c0.3-0.3,0.7-0.6,1.1-0.9c0,0.1,0,0.2,0,0.2
			c0,0.2,0.1,0.4,0.1,0.6c0,0.1,0,0.2,0.1,0.2v0.1c-0.3,0.2-0.5,0.5-0.8,0.7C14.5,38,14.5,37.9,14.5,37.9"/>
		<path class="st17" d="M21.8,34.1c-0.1,0-0.1,0-0.2,0c0-0.1,0-0.2,0-0.3c0-0.2,0-0.4,0.1-0.6c0.1,0,0.3,0,0.4,0H22
			C22.6,33.2,22.4,34.1,21.8,34.1L21.8,34.1"/>
		<path class="st17" d="M22,33.1L22,33.1L22,33.1"/>
		<path class="st17" d="M14.2,37.8c-2.1-0.8,4-4.2,4.9-4.3h0.1v0.1v0.1v0.1v0.1V34v0.1v0.1v0.1v0.1v0.1v0.1l0,0
			c-0.2,0-0.4,0.1-0.5,0.2l-0.1,0.1c-1.3,0.5-2.5,1.4-3.5,2.3C14.8,37.3,14.7,37.8,14.2,37.8L14.2,37.8"/>
		<path class="st17" d="M15.1,41.3c0.1-0.1,0.1-0.3,0.2-0.4c0-0.3,0.1-0.6,0-0.9c0-0.2,0-0.4-0.1-0.6c0-0.2-0.1-0.4-0.2-0.5
			c-0.1-0.1-0.1-0.2-0.2-0.2c-0.1,0-0.1-0.1-0.2-0.1c-0.1,0-0.1,0-0.2,0c-0.1-0.3-0.1-0.5-0.2-0.8c-0.1-0.8,1-0.8,1.1-0.1
			c0.8,3.4,1.4,6.9,1.5,10.4c0,0.6,0,1.3,0,1.9l0,0l-0.3,0.1l-0.3,0.1l-0.3,0.1h-0.1C15.9,47.3,15.6,44.2,15.1,41.3"/>
		<path class="st17" d="M16.1,50.9c0-0.6,0-1.3,0-1.9h0.1l0.3-0.1l0.3-0.1l0.3-0.1v0.1c0,0.2,0,0.4,0,0.5c0,0.2,0,0.4,0,0.5
			s0,0.2,0,0.2c0,0.1,0,0.2,0.1,0.3l0,0c0,0.1,0,0.1,0,0.2v0.1c0,0.2,0,0.4-0.2,0.5c-0.2,0.3-0.3,0.3-0.4,0.3
			C16.3,51.4,16,51.2,16.1,50.9"/>
		<path class="st17" d="M17.7,53.6C15.3,52.8,16,50,17,51.4c0,0.5,0.3,1,0.8,1.2c1.3,0.5,2.2,0.1,2.9-0.4v0.1l0.1,0.2l0.1,0.1
			l0.1,0.1l0.1,0.1l0.1,0.1l0.1,0.1l0,0c-0.7,0.4-1.5,0.7-2.3,0.7C18.5,53.9,18.1,53.8,17.7,53.6 M16.8,52c0.1-0.1,0.2-0.2,0.2-0.3
			C17,51.8,16.9,51.9,16.8,52"/>
		<path class="st17" d="M19,34.5L19,34.5v-0.2v-0.1v-0.1V34v-0.1v-0.1v-0.1c0.6-0.2,1.8-0.7,2.1,0L21,33.8l0,0l0,0
			c-0.1,0-0.1,0-0.2,0s-0.2,0.1-0.3,0.1l0,0l0,0l0,0c-0.3,0.1-0.5,0.2-0.7,0.3c-0.1,0-0.1,0-0.2,0.1C19.2,34.5,19.1,34.5,19,34.5
			L19,34.5z"/>
		<path class="st17" d="M23,49.8l-0.2-0.1l-0.2-0.1l-0.3-0.1L22,49.4c0,0,0,0,0-0.1c0.6-4.1,0.7-8.4-0.2-12.5c-0.2-0.6,0.8-1,1-0.3
			c0.9,4.2,0.9,8.5,0.2,12.7C23.1,49.4,23,49.6,23,49.8L23,49.8z"/>
		<path class="st17" d="M21.6,52.2c-0.7-0.4,0-1.2,0.1-1.7c0.2-0.8,0.4-1.5,0.5-2.3l0.2,0.1l0.3,0.1l0.2,0.1l0.2,0.1l0,0
			c-0.2,1.2-0.6,3.7-1.4,3.7C21.7,52.2,21.7,52.2,21.6,52.2"/>
		<path class="st17" d="M20.9,53.5l-0.1-0.1l-0.1-0.1l-0.1-0.1l-0.1-0.1l-0.1-0.2l-0.1-0.2v-0.1l0.1-0.1c0.6-0.5,1-1,1.4-0.6
			C22.3,52.5,21.4,53.1,20.9,53.5C21.1,53.4,21,53.4,20.9,53.5L20.9,53.5z"/>
		<path class="st17" d="M22.3,37.4c-0.4-0.3-0.4-0.9-0.5-1.4c0-0.6-0.8-2.1,0.3-2.1c0.7,0.1,0.5,1,0.7,1.6c0.1,0.4,0.1,0.8,0.2,1.2
			C23.3,37,22.7,37.6,22.3,37.4"/>
		<path class="st17" d="M18,34.8c-0.9-1,1.5-1.5,2.2-1.6c0.5,0,1.5-0.3,1.6,0.4c0,0.3-0.2,0.5-0.5,0.5c-0.6,0-1.1,0-1.7,0.2
			C19,34.4,18.5,35.1,18,34.8"/>
		<path class="st17" d="M21.6,35.9c-0.3-0.6-0.6-1.2-0.7-1.8c0-0.4,0.4-0.7,0.8-0.5c0.5,0.5,0.5,1.3,0.9,1.9
			C22.8,36,21.9,36.5,21.6,35.9"/>
		<path class="st17" d="M13.1,62.2c-0.5-0.3-0.2-0.8,0-1.2c0.8-1.7,1.4-3.5,2.1-5.2c0.5-1.2,0.9-2.3,1.1-3.6c0.3-0.5,1.1-0.2,1,0.4
			c-0.3,2-1.2,3.8-1.9,5.6c-0.5,1.3-1,2.5-1.6,3.7l0,0c0,0,0,0-0.1,0S13.6,62,13.5,62c0,0,0,0-0.1,0s-0.1,0-0.2,0
			C13.3,62.3,13.2,62.3,13.1,62.2"/>
		<path class="st17" d="M13.1,63.4L13.1,63.4L13.1,63.4L13.1,63.4L13.1,63.4"/>
		<path class="st17" d="M13.3,62.4L13.3,62.4L13.3,62.4C13.3,62.5,13.3,62.5,13.3,62.4c-0.1,0.1-0.1,0.1-0.1,0.1l0,0h-0.1
			c0,0-0.1,0-0.1,0.1s-0.1,0.1-0.1,0.2l0,0c-0.1,0.1-0.1,0.2,0,0.3l0,0c0,0,0,0,0,0.1l0,0C12.7,62.9,12.9,62.5,13.3,62.4"/>
		<path class="st17" d="M20.8,52.9c0.1-0.5,0.9-0.6,1,0c0,0.1,0,0.1,0,0.2c-0.1,0.1-0.2,0.1-0.3,0.2l0,0l0,0l0,0l0,0l0,0l0,0l0,0
			l0,0l0,0l0,0c-0.1,0.1-0.2,0.1-0.3,0.2c-0.2,0.1-0.5,0.1-0.7,0.2l0,0C20.6,53.4,20.7,53.2,20.8,52.9"/>
		<path class="st17" d="M11.5,63.7c0.2-1,0.8-2.1,1.4-1.7c0.2,0.2,0.2,0.4,0.2,0.6c0,0-0.1,0-0.1,0.1s-0.1,0.1-0.1,0.2l0,0L12.8,63
			c-0.2,0.3-0.3,0.7-0.4,1.1c2.2-1.9,4.6-3.7,6.4-6.1c0.7-1.5,1.3-3,1.9-4.6c0.1-0.3,0.2-0.7,0.5-0.9S22,52.6,22,53
			c-0.3,0.9-0.7,1.8-1,2.7c-0.5,1.2-0.9,2.5-1.7,3.5c-1.6,1.9-3.5,3.5-5.4,5.1c-0.5,0.4-1,1-1.7,1.1l0,0
			C11.4,65.4,11.3,64.5,11.5,63.7"/>
		<path class="st17" d="M11.1,39.1c-0.3-0.7-0.6-1.5-1-2.2c-0.1,0.5-0.2,1-0.5,1.4C9,39,7.9,39,7.3,38.4c-0.5-0.6-0.3-1.4-0.2-2
			c0.1-0.5-0.2-1.1,0.2-1.6c1.3-1.1,2.9-0.9,3.4,0.8c0.4,0.9,0.8,1.7,1.2,2.6c0.2,0.3,0.4,0.9,0,1.1c-0.1,0-0.1,0.1-0.2,0.1
			C11.4,39.4,11.2,39.3,11.1,39.1 M8.1,35.5c0.1,0.7-0.2,1.5,0,2.2c0.1,0.1,0.2,0.1,0.4,0.1C9,37.7,9,37,9.1,36.6
			c-0.1-0.3,0.2-0.7,0.5-0.7c-0.1-0.5-0.4-0.7-0.7-0.7C8.7,35.1,8.4,35.3,8.1,35.5"/>
		<path class="st17" d="M5,40.8c-0.9-0.2-0.9-1.3-1-2c-0.1-0.4-0.2-0.8-0.2-1.2c-0.1-0.6,0.5-0.9,1-1.1c0.5-0.2,1-0.3,1.5-0.1
			c0.3,0.2,0.6,0.5,1,0.6c0.3,0,0.5,0.2,0.5,0.5c0,0.5-0.5,0.7-0.9,0.5c-1-0.4-0.9-1-2.1-0.4C5,38.4,5,39.1,5.2,39.8
			c0.7,0.1,1-0.3,0.9-1c0-0.7,1-0.7,1-0.1c0.1,1.3-0.6,2.1-1.8,2.1C5.2,40.9,5.1,40.9,5,40.8"/>
		<path class="st17" d="M6.4,41c-0.1-0.4-0.5-0.9-0.3-1.3c0.2-0.2,0.5-0.3,0.7-0.1C6.9,39.7,7,39.8,7,40c0.1,0.2,0.2,0.5,0.3,0.7
			c0.2,0.4-0.2,0.7-0.5,0.7C6.6,41.4,6.4,41.3,6.4,41 M7,40.2L7,40.2c0-0.1,0-0.1,0-0.2l0,0C7,40.1,7,40.2,7,40.2"/>
		<path class="st17" d="M8.6,39.9c-0.3-0.4-0.7-0.7-0.9-1.1c-0.2-0.8,0.9-1.1,1-0.3C9,38.9,9.8,39.4,9.3,40
			c-0.1,0.1-0.2,0.1-0.3,0.1C8.9,40.1,8.7,40,8.6,39.9"/>
		<path class="st17" d="M2.7,42.9L2.7,42.9L2.7,42.9L2.7,42.9"/>
		<path class="st17" d="M2.8,42.9c-0.1,0-0.1,0-0.2,0c-0.2-0.1-0.3-0.3-0.4-0.5c0-0.1,0-0.1,0-0.2c0-0.2,0-0.3,0-0.5c0,0,0,0,0-0.1
			c0-0.5,0-1-0.1-1.5c-0.2-1,0.8-1.5,1.7-1.7c0.5-0.6,1.3,0.3,0.7,0.8c-0.4,0.3-1,0.3-1.4,0.6c0,0.7,0.1,1.4,0.1,2.1
			c0.4,0,0.6-0.2,0.8-0.6c0.2-0.3,0.3-0.6,0.2-0.9c0-0.7,1-0.7,1-0.1c0.1,0.8-0.3,1.8-1,2.3c-0.1,0-0.3,0-0.4,0.1l0,0
			c-0.1,0-0.2,0-0.3,0s-0.2,0.1-0.3,0.1l0,0c0,0,0,0-0.1,0H3C2.9,42.8,2.9,42.8,2.8,42.9L2.8,42.9"/>
		<path class="st17" d="M4.9,43.2c-0.1-0.2-0.2-0.3-0.3-0.4c-0.1-0.2-0.3-0.4-0.3-0.6c-0.5-0.8,0.8-1.3,1-0.4
			c0.7,0.9,0.4,1.5-0.1,1.5C5,43.3,4.9,43.2,4.9,43.2"/>
		<path class="st17" d="M4,42.7c-0.1,0-0.1,0-0.2,0.1l0,0l0,0c-0.1,0-0.2,0-0.3,0s-0.2,0-0.3,0.1C3.3,42.6,3.7,42.5,4,42.7"/>
		<path class="st17" d="M2.2,42.5c0-0.1,0-0.2,0-0.3c0-0.4,0-0.7-0.1-1.1C2.4,41,2.8,41,2.9,41.5c0,0.4-0.4,0.5-0.7,0.7
			C2.2,42.3,2.2,42.4,2.2,42.5L2.2,42.5"/>
		<path class="st17" d="M6.9,48.8C6.9,48.8,6.9,48.7,6.9,48.8L6.9,48.8L6.9,48.8L6.9,48.8L6.9,48.8L6.9,48.8L6.9,48.8L6.9,48.8
			L6.9,48.8L6.9,48.8L6.9,48.8L6.9,48.8L6.9,48.8L6.9,48.8L6.9,48.8L6.9,48.8L6.9,48.8L6.9,48.8L6.9,48.8L6.9,48.8L6.9,48.8
			L6.9,48.8L6.9,48.8L6.9,48.8L6.9,48.8L6.9,48.8L6.9,48.8L6.9,48.8L6.9,48.8L6.9,48.8L6.9,48.8L6.9,48.8L6.9,48.8L6.9,48.8
			L6.9,48.8L6.9,48.8L6.9,48.8L6.9,48.8L6.9,48.8L6.9,48.8L6.9,48.8L6.9,48.8L6.9,48.8L6.9,48.8L6.9,48.8L6.9,48.8L6.9,48.8
			L6.9,48.8L6.9,48.8L6.9,48.8L6.9,48.8L6.9,48.8L6.9,48.8L6.9,48.8L6.9,48.8L6.9,48.8L6.9,48.8L6.9,48.8L6.9,48.8L6.9,48.8
			L6.9,48.8L6.9,48.8L6.9,48.8L6.9,48.8L6.9,48.8L6.9,48.8L6.9,48.8L6.9,48.8L6.9,48.8L6.9,48.8L6.9,48.8L6.9,48.8L6.9,48.8
			L6.9,48.8L6.9,48.8L6.9,48.8L6.9,48.8L6.9,48.8L6.9,48.8L6.9,48.8L6.9,48.8L6.9,48.8L6.9,48.8L6.9,48.8L6.9,48.8L6.9,48.8
			L6.9,48.8c-0.9-0.5-1.5-1.1-1.8-2.1C4,45.9,3.8,45.4,3.7,45c0,0,0.1-0.1,0.1-0.2v-0.1l0,0l0,0h0.1c0.1,0,0.1,0,0.2,0
			c0.1,0,0.2,0,0.3,0l0,0c0.1,0.1,0.2,0.2,0.3,0.2c0.1,0.4,0.3,0.9,0.5,1.3c0.2,0.5,0.5,0.9,0.9,1.2c0.4,0.2,0.7,0.3,1.1,0.5
			c0.6,0.2,0.4,1-0.2,1C7,48.8,7,48.8,6.9,48.8"/>
		<path class="st17" d="M3.6,42.7L3.6,42.7L3.6,42.7"/>
		<path class="st17" d="M12,41.4c-1.1-0.2-1.6-1.4-0.9-2.2c0.5-0.5,1.2-0.8,1.7-1.3c0.2-0.6,1.2-0.4,1,0.3c-0.3,0.9-1.4,1.1-2,1.7
			c-0.3,0.4,0.4,0.6,0.8,0.5c0.4-0.2,0.9-0.5,1.2,0c0.3,0.7-0.7,1-1.4,1C12.3,41.4,12.1,41.4,12,41.4"/>
		<path class="st17" d="M12.1,47.7c-0.7-0.7,0.5-1.4,0.9-1.9c0.3-0.4,0.4-0.9,0.6-1.3c0.6-1.1,0.5-2.4,1-3.5
			c0.1-0.6,0.4-1.1,0.3-1.7c-0.2-0.4-0.6-0.8-1-0.9c-0.5,0.8-1.6-0.1-0.8-0.6c1.1-1.3,3.1,0.9,2.9,2.1c-0.1,0.9-0.5,1.8-0.7,2.7
			c-0.1,0.9-0.3,1.8-0.8,2.6c-0.3,0.6-0.5,1.2-1,1.6c-0.4,0.2-0.6,0.9-1.1,0.9C12.3,47.8,12.2,47.8,12.1,47.7"/>
		<path class="st17" d="M6.7,48.6L6.7,48.6L6.7,48.6L6.7,48.6L6.7,48.6L6.7,48.6L6.7,48.6L6.7,48.6L6.7,48.6L6.7,48.6L6.7,48.6
			L6.7,48.6L6.7,48.6L6.7,48.6L6.7,48.6L6.7,48.6L6.7,48.6L6.7,48.6L6.7,48.6L6.7,48.6L6.7,48.6L6.7,48.6L6.7,48.6L6.7,48.6
			L6.7,48.6L6.7,48.6L6.7,48.6L6.7,48.6L6.7,48.6L6.7,48.6L6.7,48.6L6.7,48.6L6.7,48.6L6.7,48.6L6.7,48.6L6.7,48.6L6.7,48.6
			L6.7,48.6L6.7,48.6L6.7,48.6L6.7,48.6L6.7,48.6L6.7,48.6L6.7,48.6L6.7,48.6L6.7,48.6L6.7,48.6L6.7,48.6L6.7,48.6L6.7,48.6
			L6.7,48.6L6.7,48.6L6.7,48.6L6.7,48.6L6.7,48.6L6.7,48.6L6.7,48.6L6.7,48.6L6.7,48.6L6.7,48.6L6.7,48.6L6.7,48.6L6.7,48.6
			L6.7,48.6L6.7,48.6L6.7,48.6L6.7,48.6L6.7,48.6L6.7,48.6L6.7,48.6L6.7,48.6L6.7,48.6L6.7,48.6L6.7,48.6L6.7,48.6L6.7,48.6
			L6.7,48.6L6.7,48.6L6.7,48.6L6.7,48.6L6.7,48.6L6.7,48.6L6.7,48.6L6.7,48.6L6.7,48.6L6.7,48.6L6.7,48.6L6.7,48.6L6.7,48.6
			L6.7,48.6L6.7,48.6L6.7,48.6L6.7,48.6L6.7,48.6L6.7,48.6L6.7,48.6L6.7,48.6L6.7,48.6L6.7,48.6C6.8,48.3,7,48,7.1,47.8
			c0.2-0.2,0.5-0.2,0.7,0C7,48,6.9,48.3,6.7,48.6L6.7,48.6z"/>
		<path class="st17" d="M11.3,47.7c0.1-0.4,0.5-0.7,0.8-1.1c0.2-0.3,0.7-0.6,1-0.3c0.4,0.6-0.4,1-0.7,1.5c0,0,0,0,0,0.1l0,0l0,0l0,0
			l0,0l0,0l0,0l0,0l0,0l0,0l0,0l0,0l0,0l0,0l0,0l0,0l0,0l0,0l0,0l0,0l0,0l0,0l0,0l0,0l0,0l0,0l0,0l0,0l0,0l0,0l0,0l0,0l0,0l0,0l0,0
			l0,0l0,0l0,0l0,0l0,0l0,0l0,0l0,0l0,0l0,0l0,0l0,0l0,0l0,0l0,0l0,0l0,0l0,0l0,0l0,0l0,0l0,0l0,0l0,0l0,0l0,0l0,0l0,0l0,0l0,0l0,0
			l0,0l0,0l0,0l0,0l0,0l0,0l0,0l0,0l0,0l0,0l0,0l0,0l0,0l0,0l0,0l0,0l0,0l0,0l0,0l0,0l0,0l0,0l0,0l0,0l0,0l0,0l0,0l0,0l0,0l0,0l0,0
			C11.3,48,11.3,47.8,11.3,47.7"/>
		<path class="st17" d="M1.2,45.7c-1.5-0.3-1.1-1.4-0.5-2.4C1,42.9,0.8,42.1,1.4,42c1.2,0.2,0,2-0.3,2.6c0.5,0.2,0.9-0.2,1.2-0.5
			c0.2-0.2,0.2-0.6,0.5-0.7c0.5,0,0.8,0.4,1.2,0.6c0.2,0.1,0.4,0.3,0.6,0.5c0.6,0.8-0.5,1.5-0.8,0.6c-0.2-0.2-0.4-0.3-0.5-0.4
			c-0.4,0.5-1.1,1-1.7,1C1.3,45.7,1.3,45.7,1.2,45.7"/>
		<path class="st17" d="M1.5,43c-0.6-0.1-0.6-0.7-0.2-1.1c0.2-0.2,0.5-0.2,0.8-0.3c0.1,0,0.2-0.1,0.4,0c0.4,0.1,0.5,0.8,0.1,1
			c-0.2,0.1-0.4,0.1-0.6,0.2C2,42.9,1.8,43,1.5,43C1.6,43,1.5,43,1.5,43"/>
		<path class="st17" d="M6.4,48.1L6.4,48.1L6.4,48.1L6.4,48.1L6.4,48.1L6.4,48.1L6.4,48.1L6.4,48.1L6.4,48.1L6.4,48.1L6.4,48.1
			L6.4,48.1L6.4,48.1L6.4,48.1L6.4,48.1L6.4,48.1L6.4,48.1L6.4,48.1L6.4,48.1L6.4,48.1L6.4,48.1L6.4,48.1L6.4,48.1L6.4,48.1
			L6.4,48.1L6.4,48.1L6.4,48.1L6.4,48.1L6.4,48.1L6.4,48.1L6.4,48.1L6.4,48.1L6.4,48.1L6.4,48.1L6.4,48.1L6.4,48.1L6.4,48.1
			L6.4,48.1L6.4,48.1L6.4,48.1L6.4,48.1L6.4,48.1L6.4,48.1L6.4,48.1L6.4,48.1L6.4,48.1L6.4,48.1L6.4,48.1L6.4,48.1L6.4,48.1
			L6.4,48.1L6.4,48.1L6.4,48.1L6.4,48.1L6.4,48.1L6.4,48.1L6.4,48.1L6.4,48.1L6.4,48.1L6.4,48.1L6.4,48.1L6.4,48.1L6.4,48.1
			L6.4,48.1L6.4,48.1L6.4,48.1L6.4,48.1L6.4,48.1L6.4,48.1L6.4,48.1L6.4,48.1L6.4,48.1L6.4,48.1L6.4,48.1L6.4,48.1L6.4,48.1
			L6.4,48.1L6.4,48.1L6.4,48.1L6.4,48.1L6.4,48.1L6.4,48.1L6.4,48.1L6.4,48.1L6.4,48.1L6.4,48.1L6.4,48.1L6.4,48.1
			C7,48.3,6.7,48.3,6.4,48.1"/>
		<path class="st17" d="M6.2,49.5c-0.2-0.1-0.4-0.2-0.7-0.2c0.2-0.3,0.4-0.7,0.5-1l0,0l0,0l0,0l0,0l0,0l0,0l0,0l0,0l0,0l0,0l0,0l0,0
			l0,0l0,0l0,0l0,0l0,0l0,0l0,0l0,0l0,0l0,0l0,0l0,0l0,0l0,0l0,0l0,0l0,0l0,0l0,0l0,0l0,0l0,0l0,0l0,0l0,0l0,0l0,0l0,0l0,0l0,0l0,0
			l0,0l0,0l0,0l0,0l0,0l0,0l0,0l0,0l0,0l0,0l0,0l0,0l0,0l0,0l0,0l0,0l0,0l0,0l0,0l0,0l0,0l0,0l0,0l0,0l0,0l0,0l0,0l0,0l0,0l0,0l0,0
			l0,0l0,0l0,0l0,0l0,0l0,0l0,0l0,0l0,0l0,0l0,0l0,0l0,0l0,0l0,0l0,0l0,0l0,0l0,0l0,0l0,0l0,0l0,0l0,0c-0.2,0.3-0.4,0.7-0.5,0.9
			c-0.1,0.1-0.1,0.3-0.2,0.4C6.4,49.6,6.3,49.6,6.2,49.5"/>
		<path class="st17" d="M11.6,47.2L11.6,47.2L11.6,47.2L11.6,47.2L11.6,47.2L11.6,47.2L11.6,47.2L11.6,47.2L11.6,47.2h0.1l0,0l0,0
			l0,0l0,0l0,0l0,0l0,0l0,0l0,0l0,0l0,0l0,0l0,0l0,0l0,0l0,0l0,0l0,0l0,0l0,0l0,0l0,0l0,0l0,0l0,0l0,0l0,0l0,0l0,0l0,0l0,0l0,0l0,0
			l0,0l0,0l0,0l0,0l0,0l0,0l0,0l0,0l0,0l0,0l0,0l0,0l0,0l0,0l0,0l0,0l0,0l0,0l0,0l0,0l0,0l0,0l0,0l0,0l0,0l0,0l0,0l0,0l0,0l0,0l0,0
			l0,0l0,0l0,0l0,0l0,0l0,0l0,0l0,0l0,0l0,0l0,0l0,0l0,0l0,0l0,0l0,0l0,0l0,0l0,0l0,0l0,0l0,0l0,0c0,0.4-0.1,0.8-0.1,1.2
			c0,0,0,0-0.1,0c-0.1,0.1-0.2,0.1-0.3,0.2c-0.1,0.1-0.2,0.1-0.3,0.2c-0.1,0-0.1,0.1-0.2,0.1h-0.1c-0.1,0-0.1,0.1-0.2,0.1
			C11.5,48.3,11.6,47.8,11.6,47.2"/>
		<path class="st17" d="M22.1,17.1c-0.2-0.3-0.1-0.6,0.2-0.8c0.4-0.4,0.8-0.8,1.2-1.2c1-1.1,1.8-2.3,2.5-3.6
			c0.2-0.4,0.4-0.8,0.5-1.2c0.1-0.2,0.2-0.4,0.4-0.5c0.8-0.1,0.7,0.7,0.4,1.2c-0.7,1.5-1.5,2.8-2.5,4.1c-0.6,0.7-1.3,1.4-2,2
			C22.6,17.4,22.3,17.3,22.1,17.1 M26.5,10.5c0-0.1,0-0.1,0-0.2C26.5,10.4,26.5,10.4,26.5,10.5"/>
		<path class="st17" d="M22.4,22.9c-0.3-1.9-0.4-3.8-0.5-5.7c-0.2-0.9,1.1-1,1-0.1c0.1,1.9,0.3,3.8,0.5,5.6
			C23.5,23.5,22.5,23.6,22.4,22.9"/>
		<path class="st17" d="M35.2,24.3c-0.5,0-1-0.1-1.5-0.2c-0.7-0.1-1.4,0.1-2.1,0.1c-0.9,0.1-1.8-0.3-2.6-0.4c-0.5,0-0.9,0.1-1.3,0.2
			c-0.8,0.1-1.6,0-2.4-0.1c-0.5-0.1-1-0.2-1.6-0.1c-0.3,0.1-0.6,0.2-0.9,0c-0.2-0.1-0.3-0.5-0.2-0.7c0.2-0.4,1.2-0.4,1.6-0.4
			c0.8,0,1.5,0.2,2.3,0.3c0.9,0.1,1.8-0.4,2.8-0.2c0.6,0.1,1.1,0.3,1.7,0.3c0.7,0,1.4-0.1,2-0.2c0.7,0,1.4,0.1,2.1,0.2
			c0.6,0,1.2-0.1,1.7-0.1c0.5-0.1,0.9,0,1.3,0.1c0.7,0,1.2-1.1,1.8-0.4c0.5,0.8-1.1,1.4-1.7,1.5c-0.4,0-0.8-0.1-1.2-0.1
			C36.4,24.2,35.8,24.3,35.2,24.3"/>
		<path class="st17" d="M39.9,23.4c-0.7-0.1-0.4-0.9-0.4-1.4c0.1-1.6,0.2-3.2,0.2-4.8c0.1-0.6-0.3-1.9,0.3-2.1
			c0.3-0.1,0.6,0,0.7,0.3c0.1,1.6,0,3.3-0.1,4.9c0,0.6-0.1,1.2-0.1,1.8C40.5,22.6,40.6,23.5,39.9,23.4"/>
		<path class="st17" d="M33.3,15c-1.8-0.1-3.4-0.9-4.8-2c-0.7-0.6-1.9-1.7-1.9-2.6v0.1c0-0.3,0.2-0.5,0.5-0.5c0.5,0,0.8,1,1.2,1.3
			c0.8,0.8,1.6,1.5,2.5,2c1.5,0.8,3.4,0.8,5,0.4c0.3-0.1,0.6,0.1,0.6,0.4c0.2,0.6-0.8,0.8-1.8,0.9c-0.1,0-0.1,0-0.2,0
			c-0.4,0-0.7,0-1,0C33.4,15,33.3,15,33.3,15"/>
		<path class="st17" d="M40,16.1c-0.7-0.2-1.4-0.3-2.1-0.6l0,0l0,0c-1.1-0.4-2.2-1-3-1.9c-0.6-0.6-1.9-2-2-2.8
			c0-0.3,0.3-0.5,0.6-0.4c0.4,0.1,0.5,0.5,0.7,0.8c1,1.5,2.4,2.8,4.2,3.4c0.6,0.2,1.3,0.4,1.9,0.5c0.6,0.2,0.4,1-0.1,1
			C40.1,16.1,40,16.1,40,16.1"/>
		<path class="st17" d="M20.8,33c-1.1-1.7-0.9-4.2-0.9-6.1c0-1.1,0.6-2.1,0.5-3.3c-0.2-2-0.3-4-0.7-5.9C19.5,16,20,16.2,19,14.5
			c-1.1-2.9,0.8-5.9,3.3-7.4c0.5-0.3,1-0.7,1.5-0.9c0.5-0.1,0.8,0.5,0.5,0.8c-2.5,1.4-5,3.4-4.6,6.5c0.4,1.6,1.2,1.7,0.9,3.7
			c0.1,1,0.4,2,0.4,3.1c0.1,1.4,0.4,2.9,0.3,4.3c-0.1,0.8-0.4,1.5-0.5,2.3c0,0.9,0,1.7,0.1,2.6l0,0l0,0c0.1,0.9,0.1,1.9,0.5,2.7
			c0.2,0.3,0.4,0.7,0.1,1C21.3,33.3,20.9,33.3,20.8,33"/>
		<path class="st17" d="M29.4,42.3c-0.6-0.1-1-0.6-1.6-0.8c-0.8-0.3-1.8-0.1-2.6-0.6c-1-0.6-1.4-1.8-1.8-2.8
			c-0.3-0.8-0.8-1.4-1.3-2.1c-0.4-0.6-0.5-1.4-0.7-2.1c-0.1-0.3-0.4-0.7-0.4-1c0-0.6,0.9-0.7,1-0.1c0,0,0-0.1-0.1-0.1
			c0.4,0.7,0.6,1.4,0.8,2.2c0.2,0.7,0.7,1.2,1.1,1.8c0.8,1.1,1,2.8,2.2,3.5c1.9,0.4,1.8,0,3.5,1.1c0.9,0,1.8-0.5,2.8-0.2
			c1.2,0.5,2.3-0.4,3.4-0.7c1-0.1,1.3-0.9,1.8-1.7c0.6-0.6,1.5-0.7,2.1-1.3c0.3-0.5,0.3-1.1,0.5-1.6c0.3-0.7,0.9-1.1,1.1-1.8
			c0.7-2-0.6-4,0.1-6c0.4-1.2,0.7-2.6-0.3-3.6c-0.5-0.8,0.6-1.6,1.4,0.2c1,1.9-0.6,3.9-0.1,5.9c0.4,1.6,0.4,3.3-0.5,4.7
			c-0.6,0.6-0.8,1.5-1,2.3c-0.4,1.1-1.8,1.3-2.5,2.1c-0.3,0.5-0.6,1-1,1.3c-0.5,0.3-1.1,0.4-1.6,0.6c-0.7,0.3-1.4,0.6-2.2,0.7
			c-0.7,0.1-1.3-0.3-1.9-0.2C30.8,42.1,30.1,42.4,29.4,42.3"/>
		<path class="st17" d="M41.2,24.5c-1.4-0.2,0.5-2.9,0.4-3.8c0.1-0.9-0.4-1.8-0.2-2.7c0.7-2.3,1.3-4.9,0.1-7.1
			c-0.1-0.4-0.5-0.6-0.5-1c0-0.3,0.3-0.5,0.6-0.4c0.7,0.3,1,1.4,1.2,2c0.7,2.2,0.2,4.4-0.4,6.5c-0.1,0.6,0.2,1.3,0.2,1.9
			c0.2,1.1-0.3,2.3-0.7,3.3C41.6,23.6,41.8,24.5,41.2,24.5 M41.5,10.5L41.5,10.5c-0.1,0-0.1,0-0.2-0.1
			C41.3,10.5,41.3,10.5,41.5,10.5L41.5,10.5C41.4,10.5,41.4,10.5,41.5,10.5"/>
		<path class="st17" d="M20,25c-2.2-1.3-2.5-4.5-1.3-6.6c0.3-0.5,0.9-1.5,1.6-1.3c0.3,0.1,0.4,0.4,0.3,0.7c-0.1,0.2-0.3,0.3-0.5,0.5
			c-0.7,0.8-1.2,2-1.1,3.1s0.5,2.2,1.5,2.8C21.1,24.5,20.5,25.4,20,25"/>
		<path class="st17" d="M41.8,25.2c-0.3-0.6,0.6-0.8,0.9-1.3c1.1-1.3,1.5-3.2,0.9-4.8c-0.2-0.5-0.6-1-1.1-1.2
			c-0.2,0.1-0.4,0-0.6-0.2c-0.4-0.6,0.3-1,0.8-0.8c2.7,1.1,2.5,5.1,1.1,7.2C43.5,24.6,42.4,26.1,41.8,25.2"/>
		<path class="st17" d="M43.5,9.9c-0.7-0.4-1.4-0.8-2-1.2c-1.1-0.7-2.2-1.2-3.2-1.9c-0.4-0.4,0.1-1.1,0.6-0.8
			c0.1,0.1,0.2,0.2,0.4,0.3c1.6,0.9,3.2,1.8,4.8,2.9C44.7,9.4,44.1,10.3,43.5,9.9"/>
		<path class="st17" d="M23.8,15.5c-0.1-0.5,0.7-0.6,0.8-0.1c0,0,0,0.1,0.1,0.1l0,0c-0.1,0.1-0.1,0.1-0.2,0.2c0,0.1-0.1,0.1-0.1,0.2
			c0,0,0,0.1-0.1,0.1c0,0-0.1,0-0.1,0.1l-0.1,0.1C24,15.9,23.8,15.7,23.8,15.5"/>
		<path class="st17" d="M24.5,14.6c-0.2-0.4,0.2-0.6,0.5-0.8c0.4-0.2,0.8-0.4,1.2-0.6l0,0l0,0l0,0l0,0l0,0l0,0l0,0l0,0l0,0l0,0l0,0
			l0,0c-0.1,0.2-0.3,0.4-0.4,0.7c-0.1,0.1-0.1,0.2-0.2,0.3c0,0.1-0.1,0.1-0.1,0.2l0,0c0,0,0,0,0,0.1l0,0l0,0
			c-0.2,0.1-0.4,0.3-0.6,0.3C24.7,14.8,24.6,14.8,24.5,14.6"/>
		<path class="st17" d="M26.2,13.3L26.2,13.3L26.2,13.3z"/>
		<polyline class="st17" points="26.2,13.3 26.2,13.3 26.2,13.3 		"/>
		<path class="st17" d="M37.9,15.5L37.9,15.5c-0.2,0-0.2-0.1-0.3-0.1c0,0,0,0-0.1,0l-0.1-0.1c-0.1,0-0.1-0.1-0.2-0.1l0,0l0,0
			c0.2-0.2,0.3-0.4,0.6-0.2C38,15.1,38,15.3,37.9,15.5C38,15.5,38,15.5,37.9,15.5C38,15.5,37.9,15.5,37.9,15.5"/>
		<path class="st17" d="M37.8,15.5L37.8,15.5L37.8,15.5L37.8,15.5"/>
		<path class="st17" d="M37.2,15.3L37.2,15.3L37.2,15.3L37.2,15.3"/>
		<path class="st17" d="M33.4,15.1c-0.1-0.2-0.2-0.4-0.2-0.6c0.1-0.1,0.2-0.2,0.4-0.2c0.3,0,0.4,0.3,0.6,0.5
			c0.1,0.1,0.3,0.2,0.4,0.3c0,0,0,0-0.1,0s-0.1,0-0.2,0c-0.1,0-0.2,0-0.2,0C33.9,15.1,33.7,15,33.4,15.1L33.4,15.1"/>
		<path class="st17" d="M30.9,23.1c-1.7-0.3-0.6-2.1-0.5-3.2c0-0.5,0.8-0.5,0.8,0c0,0.3-0.1,0.5-0.1,0.8c-0.1,0.5-0.3,1-0.3,1.5
			c0.1,0.3,0.6,0.3,0.8,0.3c0.5,0,0.5,0.8,0,0.8C31.3,23.2,31.1,23.1,30.9,23.1"/>
		<path class="st17" d="M27.1,21.7c-2.1-0.1-3.4-1.8-2.5-3.8c1-2.2,4.5-2.3,5.2,0.2c0.3,1.1,0,2.4-0.9,3.1
			C28.4,21.5,27.6,21.9,27.1,21.7 M27.4,21c2.3-0.5,2.2-4.2-0.4-4c-1.5,0.1-2.5,1.9-1.7,3.2c0.4,0.5,1.1,0.7,1.7,0.8
			C27.2,20.9,27.3,20.9,27.4,21"/>
		<path class="st17" d="M26.7,20.2c-0.8-0.4-1-1.7-0.2-2.3c0.2-0.1,0.5-0.2,0.8-0.2c0.7,0,1.3,0.8,1.2,1.5c-0.1,0.5-0.5,1.1-1,1
			C27.2,20.4,26.9,20.3,26.7,20.2"/>
		<path class="st17" d="M35.8,21.7c-2.1-0.1-3.4-1.8-2.5-3.8c1-2.2,4.5-2.3,5.2,0.2c0.3,1.1,0,2.4-0.9,3.1
			C37.1,21.5,36.4,21.9,35.8,21.7 M36.2,21c2.3-0.5,2.2-4.2-0.4-4c-1.5,0.1-2.5,1.9-1.7,3.2c0.4,0.5,1.1,0.7,1.7,0.8
			C36,20.9,36.1,20.9,36.2,21"/>
		<path class="st17" d="M35.4,20.2c-0.8-0.4-1-1.7-0.2-2.3c0.2-0.1,0.5-0.2,0.8-0.2c0.7,0,1.3,0.8,1.2,1.5c-0.1,0.5-0.5,1.1-1,1
			C35.9,20.4,35.6,20.3,35.4,20.2"/>
		<polygon class="st21" points="31.6,25.5 33.3,26.4 34.3,29.3 34.1,33.2 33,35 31.4,35.6 29.8,34.7 29.1,32.6 28.9,28.9 29.6,26.9 
			30.5,26 		"/>
		<path class="st17" d="M31.9,25.1c2.5,0.5,3.7,5.7,2.2,8.9c-0.6,1.4-2,1.8-2.9,1.9C27.2,34.9,27.6,24.4,31.9,25.1 M31.5,26.1
			c-3.2,0-3.1,8.4-0.2,8.7c0.1,0.1,0.2,0.1,0.2,0.1l0,0l0,0c0.1,0,0.2,0,0.2,0h0.1c0.1,0,0.2,0,0.3-0.1c0.1,0,0.2-0.1,0.3-0.2
			c0.2-0.2,0.4-0.4,0.5-0.6c0.2-0.1,0.3-0.3,0.4-0.5C34.9,30.9,33.8,26.1,31.5,26.1L31.5,26.1"/>
		<path class="st21" d="M28,14.2c-0.2-0.5-1.3-0.6-2.4-0.2c-1.1,0.4-1.8,1.2-1.6,1.8c0.2,0.5,1.3,0.6,2.4,0.2
			C27.5,15.6,28.2,14.8,28,14.2"/>
		<path class="st17" d="M24.8,16.6c-1.4-0.2-1.1-1.6-0.2-2.3s2.1-1.1,3.2-0.8c0.5,0.1,0.8,0.7,0.7,1.2c-0.1,0.6-0.7,0.9-1.2,1.2
			c-0.2,0.2-0.6,0.3-0.8,0.4C25.9,16.6,25.3,16.7,24.8,16.6 M25.2,15.9c0.6,0,1.1-0.3,1.6-0.5c0.3-0.2,0.6-0.3,0.8-0.6
			c0.5-0.8-1.2-0.5-1.6-0.4C25.5,14.6,23.5,16,25.2,15.9"/>
		<path class="st21" d="M33.7,14c-0.3,0.5,0.3,1.4,1.3,2s2.1,0.7,2.4,0.2c0.3-0.5-0.3-1.4-1.3-2C35.1,13.5,34,13.5,33.7,14"/>
		<path class="st17" d="M37,16.6c1.4-0.2,1.1-1.6,0.2-2.3c-0.9-0.7-2.1-1.1-3.2-0.8c-0.5,0.1-0.8,0.7-0.7,1.2
			c0.1,0.6,0.7,0.9,1.2,1.2c0.2,0.2,0.6,0.3,0.8,0.4C35.8,16.6,36.4,16.7,37,16.6 M36.5,15.9c-0.6,0-1.1-0.3-1.6-0.5
			c-0.3-0.2-0.6-0.3-0.8-0.6c-0.5-0.8,1.2-0.5,1.6-0.4C36.3,14.6,38.2,16,36.5,15.9"/>
	</g>
	<g>
		<path class="st23" d="M11,15.2c0,0-2.9-4.4-1.7-12.1c0.2-1.4,1.3-1.4,2.1-1.3c0.7,0.1,4.1,0.8,8.4,3.3l1.1,11L11,15.2z"/>
		<path class="st23" d="M53.5,15.2c0,0,2.9-4.4,1.7-12.1c-0.2-1.4-1.3-1.4-2.1-1.3c-0.7,0.1-4.1,0.8-8.4,3.3l-6.4,5.3l10.3,6.2
			L53.5,15.2z"/>
		<path class="st24" d="M18.1,8.2c-2.5-2.4-4.8-3-5.2-3.1s-0.9-0.2-1,0.5c-0.2,3.1,1.5,5.9,1.5,5.9l4.2,2.2L18.1,8.2z"/>
		<path class="st24" d="M51,11.6c0,0,1.7-2.7,1.5-5.9c0-0.7-0.6-0.6-1-0.5s-2.6,0.7-5.2,3.1v5.1L51,11.6z"/>
		<path class="st23" d="M55.1,23.7c0,9.3-10.3,15.2-23,15.2s-23-5.9-23-15.2s10.3-18.4,23-18.4S55.1,14.5,55.1,23.7z"/>
		<circle class="st25" cx="23.3" cy="14.9" r="2"/>
		<circle class="st17" cx="23.3" cy="14.9" r="1.1"/>
		<circle class="st25" cx="41" cy="14.9" r="2"/>
		<circle class="st17" cx="41" cy="14.9" r="1.1"/>
		<path class="st26" d="M34.5,18.5c0-1.1-0.4-1.9-0.4-1.9c0.7-0.5,1.1-1.2,1.1-1.2c-0.4-0.3-2-0.4-2-0.4c-0.6-1.1-1-1.6-1-1.6
			C31.6,14,31.1,15,31.1,15s-1.5,0.1-2,0.4c0,0,0.5,0.7,1.1,1.2c0,0-0.5,0.8-0.4,1.9c0,0,1.4-0.1,2.3-0.9
			C32.9,18.2,33.8,18.5,34.5,18.5z"/>
		<ellipse class="st25" cx="18.8" cy="17.6" rx="2" ry="1"/>
		<ellipse class="st25" cx="45.4" cy="17.6" rx="2" ry="1"/>
		<path class="st27" d="M25.3,18.5c0,0,0.2,3.3,2.8,3.3s3.7-2.3,3.9-4.1"/>
		<path class="st27" d="M38.9,18.5c0,0-0.2,3.3-2.8,3.3s-3.7-2.3-3.9-4.1"/>
		<path class="st27" d="M36.4,38.7c0,0-4.3,1-8.4,0"/>
		<path class="st25" d="M45.7,8.9c0.7,0.9,0.3,1.6-0.1,1.9c-3.5,2.4-10.6-0.4-12.4-3.9c-0.1-0.2-0.2-1.1,0.6-1.4l6.6,3.1L45.7,8.9"
			/>
		<path class="st25" d="M18.7,8.9l3.7-1.5l8.2-1.8c0.8,0.3,0.8,1.2,0.6,1.4c-1.9,3.6-8.8,6.3-12.3,3.9C18.5,10.5,18,9.8,18.7,8.9"/>
		<path class="st26" d="M31.2,6.2c0,0,1-0.4,2,0l1.1,0.1l-0.5-0.9c-1.6-0.4-3.1,0-3.1,0l-0.9,0.9L31.2,6.2z"/>
		<path class="st24" d="M29.8,4.2c0,0,0.5,0.8,0.9,1.5c0.1,0.2,0.1,0.5,0,0.7c-1.5,2.8-8.4,5.7-11.4,3.6c-0.4-0.3-0.6-0.7-0.5-1.1
			c0.3-2.1,1-3.9,1-3.9l5-0.9L29.8,4.2L29.8,4.2z"/>
		<path class="st24" d="M44.7,5.1c0,0,0.7,1.8,1,3.9c0.1,0.4-0.1,0.9-0.5,1.1c-3,2-9.9-0.8-11.4-3.6c-0.1-0.2-0.1-0.5,0-0.7
			c0.4-0.8,0.9-1.5,0.9-1.5h4.1L44.7,5.1z"/>
		
			<ellipse transform="matrix(0.9956 -9.344902e-02 9.344902e-02 0.9956 -0.3408 2.3296)" class="st28" cx="24.7" cy="4.8" rx="5" ry="2"/>
		
			<ellipse transform="matrix(9.344902e-02 -0.9956 0.9956 9.344902e-02 31.2034 43.8369)" class="st28" cx="39.7" cy="4.8" rx="2" ry="5"/>
		<path class="st26" d="M46,10.1c0,0,3.9,1.3,7.4,7c0,0,0.4-0.9-0.4-2.4c-2-3.9-5.6-6-7.5-6.6L46,10.1z"/>
		<path class="st26" d="M18.3,10.1c0,0-3.9,1.3-7.4,7c0,0-0.4-0.9,0.4-2.4c2-3.9,5.6-6,7.5-6.6L18.3,10.1z"/>
		
			<ellipse transform="matrix(0.9956 -9.344900e-02 9.344900e-02 0.9956 -0.3304 2.3378)" class="st29" cx="24.8" cy="4.7" rx="3.9" ry="1.2"/>
		
			<ellipse transform="matrix(9.344900e-02 -0.9956 0.9956 9.344900e-02 31.1718 43.7057)" class="st29" cx="39.6" cy="4.7" rx="1.2" ry="3.9"/>
	</g>
	<g>
		<polygon class="st21" points="47.5,30.1 50.5,28.5 51.7,26.8 53,23.2 53.4,21.4 55.3,20.9 56.2,21.9 56.6,23.9 57.9,21.9 
			59.9,22.8 59.9,25.7 61.8,24.7 62.8,26.4 62.3,27.9 61.7,28.5 63.8,29.3 63.8,31.8 63.4,33.4 62.5,33.2 61.7,31.2 59.3,33.2 
			58.2,34.2 58.5,35.7 56.9,36.6 53.7,36.2 51.9,35.4 52.4,33.7 50.1,33.9 47.5,33.2 47.3,31.4 		"/>
		<path class="st17" d="M55.4,36.7c-1.3-0.2-2.8-0.5-3.6-1.6c-0.2-0.5,0.4-0.9,0.8-0.6c0.8,0.7,1.9,1,3,1.2c1.2,0.1,2.3-0.3,3.2-1.1
			c0.3-0.3,0.6-0.8,1-0.6c1,0.8-1.2,1.9-1.8,2.2c-0.7,0.3-1.4,0.5-2.2,0.5C55.7,36.8,55.6,36.8,55.4,36.7"/>
		<path class="st17" d="M51.6,34.4L51.6,34.4C51.6,34.4,51.6,34.5,51.6,34.4C51.6,34.5,51.6,34.5,51.6,34.4
			C51.6,34.5,51.6,34.5,51.6,34.4"/>
		<path class="st17" d="M47.7,32.8c-0.2-0.2-0.4-0.4-0.5-0.6l0,0l0,0l0,0l0,0l0,0l0,0l0,0l0,0l0,0l0,0l0,0l0,0l0,0l0,0l0,0l0,0l0,0
			l0,0l0,0l0,0l0,0l0,0l0,0l0,0l0,0l0,0l0,0l0,0l0,0l0,0l0,0l0,0l0,0l0,0l0,0l0,0l0,0l0,0l0,0l0,0l0,0l0,0l0,0l0,0l0,0l0,0l0,0l0,0
			l0,0l0,0l0,0l0,0l0,0l0,0l0,0l0,0l0,0l0,0l0,0l0,0l0,0l0,0l0,0l0,0l0,0l0,0l0,0l0,0l0,0l0,0l0,0l0,0l0,0l0,0l0,0l0,0l0,0l0,0l0,0
			l0,0l0,0l0,0l0,0l0,0l0,0l0,0l0,0l0,0l0,0l0,0l0,0l0,0l0,0l0,0l0,0l0,0l0,0l0,0l0,0l0,0l0,0l0,0l0,0l0,0l0,0l0,0l0,0l0,0l0,0l0,0
			l0,0l0,0l0,0l0,0l0,0l0,0l0,0l0,0l0,0l0,0l0,0l0,0l0,0l0,0l0,0l0,0l0,0l0,0l0,0l0,0l0,0l0,0l0,0l0,0l0,0l0,0l0,0l0,0l0,0l0,0l0,0
			l0,0l0,0l0,0l0,0l0,0l0,0l0,0l0,0l0,0l0,0l0,0l0,0l0,0l0,0l0,0l0,0l0,0l0,0l0,0l0,0l0,0l0,0l0,0l0,0l0,0l0,0l0,0l0,0l0,0l0,0l0,0
			l0,0l0,0l0,0l0,0l0,0l0,0l0,0l0,0l0,0l0,0l0,0l0,0l0,0l0,0l0,0l0,0l0,0l0,0l0,0l0,0l0,0l0,0l0,0l0,0l0,0l0,0l0,0l0,0l0,0l0,0l0,0
			l0,0l0,0l0,0l0,0l0,0l0,0l0,0l0,0l0,0l0,0l0,0l0,0l0,0l0,0l0,0l0,0l0,0l0,0l0,0l0,0l0,0l0,0l0,0l0,0l0,0l0,0l0,0l0,0l0,0l0,0l0,0
			l0,0l0,0l0,0l0,0l0,0l0,0l0,0l0,0l0,0l0,0l0,0l0,0l0,0l0,0l0,0l0,0C48.3,33,48,33,47.7,32.8"/>
		<path class="st17" d="M57.7,34L57.7,34L57.7,34L57.7,34L57.7,34L57.7,34L57.7,34L57.7,34L57.7,34L57.7,34L57.7,34L57.7,34L57.7,34
			L57.7,34L57.7,34L57.7,34L57.7,34L57.7,34L57.7,34L57.7,34L57.7,34L57.7,34L57.7,34L57.7,34L57.7,34L57.7,34L57.7,34L57.7,34
			L57.7,34L57.7,34L57.7,34L57.7,34L57.7,34L57.7,34L57.7,34L57.7,34L57.7,34L57.7,34L57.7,34L57.7,34L57.7,34L57.7,34L57.7,34
			L57.7,34L57.7,34L57.7,34L57.7,34L57.7,34L57.7,34L57.7,34L57.7,34L57.7,34L57.7,34L57.7,34L57.7,34L57.7,34L57.7,34L57.7,34
			L57.7,34L57.7,34L57.7,34L57.7,34L57.7,34L57.7,34L57.7,34L57.7,34L57.7,34L57.7,34L57.7,34L57.7,34L57.7,34L57.7,34L57.7,34
			L57.7,34L57.7,34L57.7,34L57.7,34L57.7,34L57.7,34L57.7,34L57.7,34L57.7,34L57.7,34L57.7,34L57.7,34L57.7,34L57.7,34L57.7,34
			L57.7,34L57.7,34L57.7,34L57.7,34c0,0-0.1,0.1-0.2,0.1C58.7,33.7,58.2,34,57.7,34L57.7,34z"/>
		<path class="st17" d="M53,35.7c-0.2-0.2-0.6-0.3-0.9-0.2c0-0.5-0.1-0.9-0.1-1.4l0,0l0,0l0,0l0,0l0,0l0,0l0,0l0,0l0,0l0,0l0,0l0,0
			l0,0l0,0l0,0l0,0l0,0l0,0l0,0l0,0l0,0l0,0l0,0l0,0l0,0l0,0l0,0l0,0l0,0l0,0l0,0l0,0l0,0l0,0l0,0l0,0l0,0l0,0l0,0l0,0l0,0l0,0l0,0
			l0,0l0,0l0,0l0,0l0,0l0,0l0,0l0,0l0,0l0,0l0,0l0,0l0,0l0,0l0,0l0,0l0,0l0,0l0,0l0,0l0,0l0,0l0,0l0,0l0,0l0,0l0,0l0,0l0,0l0,0l0,0
			l0,0l0,0l0,0l0,0l0,0l0,0l0,0l0,0l0,0l0,0l0,0l0,0l0,0l0,0l0,0l0,0l0,0l0,0l0,0l0,0l0,0l0,0l0,0l0,0l0,0l0,0l0,0l0,0l0,0l0,0l0,0
			l0,0l0,0l0,0c0.1,0.6,0.1,1.3,0.1,1.9C53.1,35.9,53,35.8,53,35.7"/>
		<path class="st17" d="M58.1,35.3c-0.1-0.4-0.4-0.8-0.5-1.3l0,0l0,0l0,0l0,0l0,0l0,0l0,0l0,0l0,0l0,0l0,0l0,0l0,0l0,0l0,0l0,0l0,0
			l0,0l0,0l0,0l0,0l0,0l0,0l0,0l0,0l0,0l0,0l0,0l0,0l0,0l0,0l0,0l0,0l0,0l0,0l0,0l0,0l0,0l0,0l0,0l0,0l0,0l0,0l0,0l0,0l0,0l0,0l0,0
			l0,0l0,0l0,0l0,0l0,0l0,0l0,0l0,0l0,0l0,0l0,0l0,0l0,0l0,0l0,0c0,0,0,0,0,0.1c0.2,0.5,0.4,0.9,0.6,1.4h-0.1
			c-0.2,0-0.4,0.1-0.5,0.1C58.3,35.2,58.2,35.3,58.1,35.3L58.1,35.3"/>
		<path class="st17" d="M58.8,34L58.8,34L58.8,34L58.8,34L58.8,34L58.8,34L58.8,34L58.8,34L58.8,34L58.8,34L58.8,34L58.8,34L58.8,34
			L58.8,34L58.8,34L58.8,34L58.8,34L58.8,34L58.8,34L58.8,34L58.8,34L58.8,34L58.8,34L58.8,34L58.8,34L58.8,34L58.8,34L58.8,34
			C58.2,34,58.6,34,58.8,34"/>
		<path class="st17" d="M50.8,34.1c-0.2-0.2-0.5-0.2-0.7-0.3c-0.3-0.1-0.5-0.3-0.8-0.3c-0.2,0-0.4,0-0.6,0l0,0l0,0l0,0l0,0l0,0l0,0
			l0,0l0,0l0,0l0,0l0,0l0,0l0,0l0,0l0,0l0,0l0,0l0,0l0,0l0,0l0,0l0,0l0,0l0,0l0,0l0,0l0,0l0,0l0,0l0,0l0,0l0,0l0,0l0,0l0,0l0,0l0,0
			l0,0l0,0l0,0l0,0l0,0l0,0l0,0l0,0l0,0l0,0l0,0l0,0l0,0l0,0l0,0l0,0l0,0l0,0l0,0l0,0l0,0l0,0l0,0l0,0l0,0l0,0l0,0l0,0l0,0l0,0l0,0
			l0,0l0,0l0,0l0,0l0,0l0,0l0,0l0,0l0,0l0,0l0,0l0,0l0,0l0,0l0,0l0,0l0,0l0,0l0,0l0,0l0,0l0,0l0,0l0,0l0,0l0,0l0,0l0,0l0,0l0,0l0,0
			l0,0l0,0l0,0l0,0l0,0l0,0l0,0l0,0l0,0l0,0l0,0l0,0l0,0l0,0l0,0l0,0l0,0l0,0l0,0l0,0l0,0l0,0l0,0l0,0l0,0l0,0l0,0l0,0l0,0l0,0l0,0
			l0,0l0,0l0,0l0,0l0,0l0,0l0,0l0,0l0,0l0,0l0,0l0,0l0,0l0,0l0,0l0,0l0,0l0,0l0,0l0,0l0,0l0,0l0,0l0,0l0,0l0,0l0,0l0,0l0,0l0,0l0,0
			l0,0l0,0l0,0l0,0l0,0l0,0l0,0l0,0l0,0l0,0l0,0l0,0l0,0l0,0l0,0l0,0l0,0l0,0l0,0l0,0l0,0l0,0l0,0l0,0l0,0l0,0l0,0l0,0l0,0l0,0l0,0
			l0,0l0,0l0,0l0,0l0,0l0,0l0,0l0,0l0,0l0,0l0,0l0,0l0,0l0,0l0,0l0,0l0,0l0,0l0,0l0,0l0,0l0,0l0,0l0,0l0,0l0,0l0,0l0,0l0,0l0,0l0,0
			l0,0l0,0l0,0l0,0l0,0l0,0l0,0l0,0l0,0l0,0l0,0l0,0l0,0l0,0l0,0l0,0l0,0l0,0l0,0l0,0l0,0l0,0l0,0l0,0l0,0l0,0l0,0
			c-1.6-1.1-1.7-1.4-1.7-1.6c0.1-0.7,0-1.6,0.4-2.2c1.3-1.5,3.2-1.4,3.8-3.7c0.3-0.9,0.6-1.8,1-2.6c0.2-0.8,0.3-1.6,0.7-2.3
			c0.3-0.6,2-1.4,2.1-0.3c0,0.8-1.2,0.3-1.3,1.1c-0.2,0.5-0.3,1-0.4,1.5c-0.2,0.8-0.6,1.6-0.8,2.4c-0.5,1.8-1.4,3-3.1,3.8
			c-0.4,0.3-1,0.5-1.2,1c0,0.5-0.3,1.3,0,1.8c0.2,0.2,0.4,0.2,0.6,0.1c0.2,0,0.3,0,0.5,0c0.5,0,0.9,0.3,1.2,0.4
			c0.2,0.1,0.5,0.1,0.7,0.3c0.4-0.3,0.6-0.9,0.4-1.4c-0.4-0.3-0.8-0.6-1.3-0.7c-0.9-0.2-0.6-1.8,1.3-0.6c0.8,0.5,1.2,1,1,2
			c0,0.7-0.8,1.8-1.5,1.8C51.1,34.3,51,34.2,50.8,34.1"/>
		<path class="st17" d="M55,25.1c-0.7-0.2-1.8-2-0.6-2.2c0.7,0,0.5,0.9,1,1.2c0.9-0.1,0.9-0.6,0.8-1.3c-0.1-0.6,0-1.9-0.9-1.8
			c-0.4,0.1-0.7,0.2-1.1,0.3c-0.6,0-0.7-0.9-0.1-1.1c1.4-0.5,2.6-0.5,3,1.2c0.1,0.5,0.1,0.9,0.2,1.4c0.1,0.4,0.1,0.8-0.1,1.1
			c-0.3,0.7-1,1.1-1.7,1.1C55.2,25.2,55.1,25.2,55,25.1"/>
		<path class="st17" d="M58.6,26.8c-1-0.2-1.8-1.4-1.4-2.4c0.2-0.4,0.8-0.4,1,0c0.1,0.3-0.1,0.5,0,0.8c0.2,0.4,0.7,0.7,1.1,0.4
			c0.1-1,0.2-1.9,0.2-2.9c-0.4-0.3-0.9-0.6-1.4-0.7c-0.2,0.5-0.5,0.9-0.7,1.4c-0.3,0.4-0.3,1.1-0.9,1.1c-0.3,0-0.5-0.2-0.5-0.5
			c0-0.2,0.2-0.4,0.2-0.6c0.3-0.6,0.6-1.2,1-1.8c0.4-0.8,1.3-0.7,2-0.3c0.4,0.2,0.8,0.4,1.1,0.7c0.5,0.7,0.1,1.7,0.1,2.5
			c0,1.4-0.1,2.4-1.7,2.4C58.8,26.8,58.7,26.8,58.6,26.8"/>
		<path class="st17" d="M61,28.8c-0.6-0.2-1.1-0.7-1.1-1.4c-0.1-0.5-0.1-1,0.2-1.4c-0.5,0.5-1.2-0.3-0.7-0.8
			c0.6-0.4,2.2-1.9,2.8-1.3c0.6,0.9,2,1.8,1.4,3c-0.3,0.5-0.8,0.8-1.1,1.3c-0.3,0.4-0.6,0.7-1.1,0.7C61.3,28.9,61.2,28.9,61,28.8
			 M61,26.7c-0.2,0.2,0,0.6,0,0.8c0.1,0.2,0.3,0.2,0.4,0.3c0.4-0.5,0.8-1,1.3-1.4c0-0.2-0.1-0.3-0.2-0.4c-0.2-0.4-0.5-0.7-0.8-1
			c-0.4,0.3-0.8,0.5-1.2,0.8h0.1C61.1,25.8,61.3,26.4,61,26.7"/>
		<path class="st17" d="M57.3,34.4c-0.6,0-1.2-0.4-1.8-0.4c-0.4,0-1,0-1-0.6c0.1-0.8,1.1-0.5,1.6-0.4c0.4,0.2,0.9,0.4,1.4,0.4
			c0.2,0,0.4-0.1,0.6-0.2c0.5-0.2,0.9-0.4,1.4-0.6c0.3-0.2,0.6-0.4,0.9-0.7c0.2-0.2,0.4-0.4,0.6-0.7c0.1-0.2,0.2-0.3,0.3-0.4
			c0.4-0.2,1-0.6,1.3-0.1c0.2,0.2,0.1,0.5,0.2,0.7c0.1,0.4,0.2,0.9,0.6,1.1c0.2-0.9,0.4-1.8,0.3-2.7c-0.3-0.3-0.7-0.4-0.9-0.7
			c-0.4-0.2-0.9-0.4-1-0.8c0-0.6,0.6-0.8,1-0.4c0.2,0.2,0.4,0.2,0.6,0.3c0.3,0.3,0.6,0.5,0.9,0.7c0.5,0.3,0.5,0.9,0.5,1.5
			s-0.1,1.1-0.2,1.7c-0.1,0.4-0.1,0.9-0.4,1.2c-1,1-2.1-0.3-2.3-1.3c-0.6,0.8-1.5,1.5-2.4,1.9l0,0l0,0l0,0l0,0l0,0l0,0l0,0l0,0l0,0
			l0,0l0,0l0,0l0,0l0,0l0,0l0,0l0,0l0,0l0,0l0,0l0,0l0,0l0,0l0,0l0,0l0,0l0,0l0,0l0,0l0,0l0,0l0,0l0,0l0,0l0,0l0,0l0,0l0,0l0,0l0,0
			l0,0l0,0l0,0l0,0l0,0l0,0l0,0l0,0l0,0l0,0l0,0l0,0l0,0l0,0l0,0l0,0l0,0l0,0l0,0l0,0l0,0l0,0l0,0l0,0l0,0l0,0l0,0l0,0l0,0l0,0l0,0
			l0,0l0,0l0,0l0,0l0,0l0,0l0,0l0,0l0,0l0,0l0,0l0,0l0,0l0,0l0,0l0,0l0,0l0,0l0,0l0,0l0,0c0,0,0,0-0.1,0
			C57.6,34.4,57.5,34.4,57.3,34.4"/>
		<path class="st17" d="M51.8,32.4c0.3-0.8,1.2-0.4,1,0.4c0.1,0.6,0.1,1.1,0.2,1.7l0,0l0,0l0,0l0,0l0,0l0,0l0,0l0,0l0,0l0,0l0,0l0,0
			l0,0l0,0l0,0l0,0l0,0l0,0l0,0l0,0l0,0l0,0l0,0l0,0l0,0l0,0l0,0l0,0l0,0l0,0l0,0l0,0l0,0l0,0l0,0l0,0l0,0l0,0l0,0l0,0l0,0l0,0l0,0
			l0,0l0,0l0,0l0,0l0,0l0,0l0,0l0,0l0,0l0,0l0,0l0,0l0,0l0,0l0,0l0,0l0,0l0,0l0,0l0,0l0,0l0,0l0,0l0,0l0,0l0,0l0,0l0,0l0,0l0,0l0,0
			l0,0l0,0l0,0l0,0l0,0l0,0l0,0l0,0l0,0l0,0l0,0l0,0l0,0l0,0l0,0l0,0l0,0l0,0l0,0l0,0l0,0l0,0l0,0l0,0l0,0l0,0l0,0l0,0l0,0l0,0l0,0
			l0,0l0,0l0,0C51.9,33.9,51.9,33.1,51.8,32.4"/>
		<path class="st17" d="M57.6,33.6c0.3-0.5,1.1-0.2,1,0.4l0,0l0,0l0,0l0,0l0,0l0,0l0,0l0,0l0,0l0,0l0,0l0,0l0,0l0,0l0,0l0,0l0,0l0,0
			l0,0l0,0l0,0l0,0l0,0l0,0l0,0l0,0l0,0l0,0l0,0l0,0l0,0l0,0l0,0l0,0l0,0l0,0l0,0l0,0l0,0l0,0l0,0l0,0l0,0l0,0l0,0l0,0l0,0l0,0l0,0
			l0,0l0,0l0,0l0,0l0,0l0,0l0,0l0,0l0,0l0,0l0,0l0,0l0,0l0,0C57.4,34.2,57.4,33.9,57.6,33.6"/>
	</g>
</g>
</svg>
