<?xml version="1.0" encoding="UTF-8"?><svg id="_レイヤー_9" xmlns="http://www.w3.org/2000/svg" viewBox="0 0 63.56 131.99"><defs><style>.cls-1{fill:#88c0dd;}.cls-1,.cls-2,.cls-3,.cls-4,.cls-5{stroke-width:.6px;}.cls-1,.cls-2,.cls-3,.cls-4,.cls-5,.cls-6,.cls-7,.cls-8{stroke-linecap:round;}.cls-1,.cls-2,.cls-3,.cls-4,.cls-5,.cls-6,.cls-7,.cls-8,.cls-9{stroke:#040000;}.cls-1,.cls-2,.cls-3,.cls-4,.cls-5,.cls-7,.cls-8{stroke-linejoin:round;}.cls-2,.cls-10{fill:#fff;}.cls-3,.cls-9{fill:#e9da21;}.cls-4,.cls-11{fill:#025999;}.cls-12,.cls-7{fill:#040000;}.cls-13{fill:#ce8a0d;}.cls-5,.cls-6,.cls-8{fill:none;}.cls-6,.cls-7,.cls-8{stroke-width:.98px;}.cls-6,.cls-9{stroke-miterlimit:10;}.cls-9{stroke-width:.18px;}</style></defs><g><path class="cls-13" d="M46.58,126.11c-.49-1.05-1.87-1.92-3.57-2.46-.68-.25-2.88-.99-2.84-1.41-.16-.76-.95-1.24-1.92-1.46-1.78-.74-4.39-.81-6.27-.04-.04,.06-.08,.12-.11,.18-.11,.2-.2,.41-.28,.62-.1,.25-.2,.5-.39,.73-.14,.17-.33,.33-.5,.49-.1,.09-.2,.18-.33,.26-.31,.2-.69,.31-1.1,.34-.08,0-.16,0-.24,0-.1,0-.21,0-.31,0-.09,0-.17,0-.26,0-.03,0-.07,0-.1,0-.03,0-.07,0-.1,0,0,0,0,0-.01,0-.03,0-.06,0-.09-.01-.03,0-.06,0-.09-.01-.04,0-.08-.01-.11-.02-.02,0-.03,0-.05-.01-.01,0-.02,0-.03,0-.05-.01-.11-.03-.16-.05,0,0,0,0,0,0,0,0,0,0-.01,0-.05-.02-.09-.03-.13-.05-.01,0-.03-.01-.04-.02-.04-.02-.08-.03-.11-.05-.01,0-.02-.01-.03-.02-.05-.02-.09-.05-.13-.08,0,0-.02-.01-.03-.02-.03-.02-.06-.04-.1-.07-.08-.06-.16-.13-.22-.2-.01-.01-.02-.03-.03-.04-.11-.14-.19-.29-.27-.44,0-.01-.02-.03-.02-.04-.02-.03-.04-.06-.07-.1,0,0,0,0,0,0-.02-.02-.04-.04-.06-.07,0,0,0,0,0,0-.12-.14-.26-.28-.4-.41-.04-.03-.08-.06-.11-.09-.08-.02-.16-.04-.24-.06,0,0,0,0,0,0-.05-.01-.09-.02-.14-.03-.03,0-.07-.02-.1-.02,0,0-.01,0-.02,0-.12-.03-.25-.05-.37-.08,0,0,0,0,0,0,0,0-.01,0-.02,0,0,0,0,0,0,0-.05,0-.1-.01-.15-.02-.03,0-.06,0-.09-.01-.02,0-.04,0-.06,0,0,0,0,0,0,0-.01,0-.03,0-.04,0-.05,0-.1,0-.15,0-.11,0-.21,0-.32-.01,0,0-.02,0-.03,0,0,0-.01,0-.02,0-.17,0-.33,0-.5,0,0,0,0,0,0,0h-.02s0,0,0,0c-.13,0-.27,.01-.4,.02,0,0,0,0-.01,0-.02,0-.03,0-.05,0,0,0,0,0,0,0-.06,0-.11,.01-.17,.02,0,0,0,0,0,0-.1,.02-.2,.05-.3,.08-.07,.02-.14,.05-.21,.07-.17,.06-.34,.12-.51,.18-.11,.05-.22,.1-.32,.15-.03,.01-.06,.03-.08,.04-.05,.02-.09,.04-.14,.06,0,0,0,0-.01,0,0,0-.02,0-.03,.01,0,0,0,0,0,0-.14,.06-.28,.12-.41,.19-.01,0-.02,.01-.04,.02-.02,.01-.04,.02-.07,.03-.01,0-.02,.01-.03,.02-.02,.01-.04,.02-.06,.03,0,0,0,0,0,0-.04,.03-.08,.05-.12,.08-.02,.01-.03,.02-.05,.03-.05,.03-.1,.07-.16,.1-.23,.14-.46,.25-.73,.35-.23,.08-.47,.14-.71,.19h0c-.08,.02-.16,.03-.25,.05-.46,.09-.95,.14-1.42,.16h0c-.14,0-.29,0-.43,0-.06,0-.12,0-.18,0,0,0-.01,0-.02,0-.03,0-.06,0-.1,0-.06,0-.13,0-.19-.01-.04,0-.08,0-.12,0-.08,0-.17-.01-.25-.02-.39-.04-.76-.13-1.13-.22-.41-.1-.78-.27-1.06-.5-.29,.02-.57,.05-.84,.1-5.97,.58-9.16,3.16-2.75,4.82,.54,.49,1.46,.86,2.55,1.13,.54,.35,1.02,.74,1.77,.97,.23,.07,.46,.14,.7,.2,.2,.16,.42,.31,.64,.45,1.88,1.14,4.63,1.81,7.4,1.91,.33,.01,.66,.02,.99,.02,2.46,0,4.9-.35,6.96-1.07,1.16-.37,2.18-.89,3.48-1.11,1.34-.19,2.71-.15,4.09-.1,.72,.02,1.45,.04,2.16,.03,.55-.01,1.12-.08,1.67-.2,.6-.05,1.17-.19,1.63-.42,1.83-.64,2.94-1.82,2.26-3.01Z"/><polygon class="cls-9" points="16.98 18.22 12.18 19.22 9.24 22.15 8.34 25.28 8.81 28.76 10.53 44.21 16.2 45.66 26.85 41.64 51.12 38.84 54.27 33.95 53.16 22.65 51.24 18.56 49.42 17.41 40.97 15.89 16.98 18.22"/><polygon class="cls-11" points="32.21 112.43 37.9 112.96 37.9 115.72 38.96 120.34 38.96 123.26 37.19 125.09 34.83 125.52 32.1 124.91 30.63 122.23 30.56 115.66 30.63 113.89 32.21 112.43"/><polygon class="cls-11" points="25.03 109.02 26.6 112.43 26.42 116.13 25.03 120.94 22.34 121.56 19.85 121.56 8.71 118.46 6.46 116.75 6.46 113.44 7.98 112.15 10.17 111.77 13.13 110.77 16 110.03 18.69 108.23 25.03 109.02"/><path class="cls-11" d="M20.25,32.2l22.51,.29-.05,1.46,3.82,.6,2.71,3.86,.97-1.63,4.07,.77,4.55-1.21s1.44,2.08,1.68,3.17,.82,2.57,.82,2.57c0,0,1.92,8.48,1.8,8.93s-3.2,4.86-3.2,4.86l-2.05,1.1-2.17,.76-3.07-.44-2.19-1.18-1.14,.87,1.81,4.79,.21,6.42-1.73,6.37-.46,10.33-1.01,4.74v3.02s-.56,6.26-1.7,9.71-3.48,6.72-3.48,6.72l-.87,.96-1.07,2.93-1.78,1.31-1.32,.34h-2.54l-2.71-1.96-1.14-2.2,.57-2.46s1.47-6.42,1.47-8.42-.6-6.68-.6-6.68l-.68-3.29-.81,.34-.92,2.75-1.34,3.6-1.42,5.13v1.98l.46,4.32-1.77,4.04-3.39-1.74h-4.21l-3.51,.75-1.65-1.85-1.03-2.87,.42-2.83-.8-4.12,.35-8.95-.21-2.18,.66-1.71-.14-9.71,.46-2.48s-1.11-6.31-.85-7.41c0,0-2.8,2.33-4.4,2.72-1.61,.38-3.74,.32-3.74,.32,0,0-2.65-1.21-3.37-3.48s-.52-5.21-.52-5.21l.94-3.16,2.19-3.58s.86-2.87,1.37-3.37,1.41,.45,2.57,.54,3.29-.09,3.29-.09l3.12-1.78,1.61-3.09,.22-2.56,.82-1.85-1.52-1.67-.6-.88,3.51-2.49,1.98-.34-.35-3.47,.53-1.01Z"/><path class="cls-10" d="M16.45,13.78s5.47-3.48,14.31-3.19c8.83,.3,11.71,1.63,11.71,1.63l2.48,1.56s2.12,5.69,1.38,9.93c-.75,4.24-3.27,7.44-3.27,7.44l-2.17,1.55-3.15,2.06-4.44,1.06-4.9-.14-3.32-.38s-4.98-1.5-7.56-6.45c-2.58-4.94-2.33-8.7-2.33-8.7l.69-5.32,.57-1.06Z"/><path class="cls-11" d="M16.91,13.26s1.69-4.52,5.28-6.63c3.59-2.11,7.43-2.46,7.43-2.46h4.05l4.43,1.63,4.45,3.9,2.39,3.56-5.35-1.75-9.04-.93-6.03,.61-4.78,1.04-2.84,1.04Z"/><polygon class="cls-9" points="12.77 87.14 18.7 86.81 22.17 86.97 25.5 87.56 28.56 88.46 31.71 90.14 30.87 91.78 26.46 89.78 22.4 89.12 18.94 88.68 15.91 88.82 12.94 89.73 12.77 88.68 12.77 87.14"/><path class="cls-9" d="M32.57,89.61l.13,1.99,3.04,.78,3.23,.6s3.63-.2,4.4-.33,1.73-.37,1.73-.37l2.94-1.13v-1.89s-3.51,.77-3.51,.77l-3.93,.96-2.93-.24-4.2-.56-.91-.56Z"/><polygon class="cls-11" points="15.78 15.62 15.24 22.62 17.35 28.5 15.19 27.92 13.07 25.28 12.44 21.26 13.07 18.55 14.23 17.04 15.78 15.62"/><path class="cls-11" d="M46.14,15.59l1.72,1.38,1.56,3.71s-.17,3.88-.64,4.32-1.83,2.4-1.83,2.4l-1.77,1,1.35-5.93-.36-5.48-.02-1.38Z"/><polygon class="cls-9" points="14.7 40.55 15.03 38.49 19.16 36.54 20.01 37.79 19.75 45.64 18.78 52.29 14.7 63.44 13.76 63.39 12.81 55.97 14.7 40.55"/><polygon class="cls-9" points="42.78 34.41 41.92 36.55 41.62 37.27 43.05 44.47 44.71 50.19 47.41 56.33 49.78 58.42 50.38 56.7 47.62 44.88 46.58 36.44 46.23 34.93 44.62 34.26 42.78 34.41"/><polygon class="cls-10" points="3.85 52.29 5.08 50.9 4.59 47.78 4.02 47.59 2.41 48.82 1.31 47.7 1.94 44.82 2.91 43.83 2.91 42.42 3.84 41.24 4.88 41.08 5.31 39.54 6.8 38.9 7.71 38.77 8.4 36.82 10.27 36.36 11.46 36.73 12.39 37.74 13.65 40.8 14.9 40.41 16.38 41.11 17 42.42 16.7 44.36 15.65 46.65 14.4 49.23 14.58 54.06 13.34 59.82 8.79 62.75 4.07 63.39 .58 61.01 3.85 52.29"/><path class="cls-10" d="M48.78,47.77l.45-9.35-.1-2.94-2.61-.91-.63-2.74,2.01-1.6,1.54-1.25,1.11-3.98,.97-1.62,2.29-.61,1.02,.76,.49,2.15,.77-2.16,3.1,.8-.48,3.31,1.27-1.42,1.88,1.83v1.23s-.81,.84-.81,.84l1.59,1.33,.07,2.03-1.04,1.72-1.36-.28-.41-1.27-1.6,1.77,2.18,4.11,1.66,6.39-6.14,4.12c-5-.14-4.71-1.22-7.25-2.26Z"/><g><path class="cls-8" d="M46.47,20.03c.53,8.82-5.69,15.83-15.58,15.83-9.24,0-16-6.68-15.58-15.83,.4-8.73,6.98-15.83,15.58-15.83s15.05,7.1,15.58,15.83Z"/><path class="cls-8" d="M17.2,28.53c-2.8-.57-4.87-3.51-4.77-6.98,.08-2.76,1.51-5.09,3.51-6.14"/><path class="cls-8" d="M44.62,28.53c2.8-.57,4.87-3.51,4.77-6.98-.08-2.76-1.51-5.09-3.51-6.14"/><path class="cls-8" d="M16.7,13.87s4.99-3.33,13.86-3.33,14.39,3.16,14.39,3.16"/><ellipse class="cls-6" cx="22.1" cy="18.31" rx="2.9" ry="2.12" transform="translate(-2.84 32.51) rotate(-69.3)"/><circle class="cls-6" cx="22.35" cy="26.42" r="1.23"/></g><g><path class="cls-8" d="M58.2,35.6s.77,.48,1.27,1.63,2.81,8.41,2.81,8.41c0,0-7.92,8.66-13.39,1.84,0,0-.41-4.52,.34-9.06,0,0-.72-.64,.05-2.56"/><path class="cls-8" d="M50.71,53.42s-.86-1.63-1.26-5.35"/><path class="cls-8" d="M62.24,46.3s1.61,4.05,.17,6.5c-1.27,2.16-5.64,7.32-11.97,3.24"/><g><path class="cls-8" d="M53.6,35.86s4.17,1.41,6.25-1.91c0,0,.78,1.55,1.89,1.24s1.12-2.97,1.06-3.22-.16-1.31-1.46-1.66"/><path class="cls-8" d="M58.46,29.73s.31,1.65,1.83,1.13,2.1-2.35,1.38-3.28c-.61-.79-1.45-1.45-2.41-1.23"/><path class="cls-8" d="M55.96,28.16s.67,1.06,1.86,.43c1.37-.71,1.86-3.08,1.13-4.09-.83-1.13-2.6-1.67-3.69,.51"/><path class="cls-8" d="M52.41,27.09s.61,1.06,2.15,.17c1.3-.74,.71-4.35-.76-4.42-1.57-.07-2.82-.16-3.75,3.54-.47,1.89-.59,2.9-1.82,3.57s-2.06,1.06-2.18,2.87,1.34,2.3,2.36,2.59,2.35,.61,2.86-.81c.29-.82,.05-1.86-1.2-2.45"/></g></g><g><g><path class="cls-8" d="M14.35,44s-1.88,.88-2.34-.86c-.52-1.95,2.62-3.29,3.89-2.41s1.65,1.74,.37,4.46c-.9,1.91-.79,2.92-2.35,4.08"/><path class="cls-8" d="M8.78,50.79s-4.19,1.41-4.19-2.32c0-1.34-.79-.82-1.43-.32s-2.01,1.05-1.75-1.17c.24-2.09,.44-2.61,1.41-2.68"/><path class="cls-8" d="M4.68,40.77s-.75,.44-1.19,.71-.87,1.21-.67,2.55,1.15,2.06,2.2,1.4c.86-.54,.98-1.76,.98-1.76"/><path class="cls-8" d="M7.58,38.76c-.44-.14-1.24-.18-2.31,.64-.41,.31-.68,1.09-.48,2.42s1.15,2.06,2.2,1.4c.86-.54,.98-1.76,.98-1.76"/><path class="cls-8" d="M10.87,39.22s-.41,1.15-1.38,1.46c-1.18,.38-1.92-.56-1.79-1.91,.13-1.34,.6-2.03,1.07-2.23,1.98-.84,2.74,.25,2.74,.25,1.04,1.16,1.56,2.98,2.18,3.75"/></g><path class="cls-8" d="M14.11,49.12s.83,.97,.52,2.01-.14,2.59-.44,4.9-.62,3.67-.62,3.67c0,0-4.83,3.86-8.03,3.71-3.19-.15-4.79-1.65-4.79-3.26s1.14-4.02,2.07-5.09,1-2.17,1-2.51c0-.53,.17-1.5,1.59-2.01"/><path class="cls-8" d="M13.4,59.89s.77,3.93-.23,5.67-3.69,4.29-7.62,4.15c-3.94-.13-5.96-4.85-4.79-9.29"/></g><g><path class="cls-8" d="M19.91,31.83s-.7,3.17,.58,4.51,6.25,2.78,10.58,2.78,9.14-1.13,10.75-2.58c.88-.8,.79-3.73,.26-4.61"/><path class="cls-8" d="M19.59,48.66s8.39-3.2,23.75-1.63c0,0,.41,12.27-.39,22.58,0,0-11.1,6.2-21.49,1.39,0,0-3.48-11.11-1.87-22.33Z"/><path class="cls-8" d="M19.55,52.04s6.9-2.76,23.61-1.81"/><path class="cls-8" d="M19.55,59.17s11.23,.35,23.87-1.63"/><path class="cls-8" d="M20.34,65.59s13.03,2.82,22.88-2.46"/><path class="cls-8" d="M42.56,34.42s4-1.04,4.28,1.9,.58,11.52,2.82,18.14c.78,2.31,.88,2.81,.18,3.65-.46,.55-.86,.27-1.84-1.17-.98-1.44-5.43-8.24-6.2-20.04"/><path class="cls-8" d="M14.63,40.24s-.27-1.49,1.58-2.45,3.81-2.42,3.79,.36c-.12,13.91-3.81,22.08-4.68,23.83s-1.01,1.72-1.63,2.57"/><line class="cls-8" x1="31.07" y1="39.12" x2="31.16" y2="46.59"/><path class="cls-8" d="M25.83,47.25s-.06,9.97,.68,11.91"/><path class="cls-8" d="M36.22,46.87s-.36,9.02,.29,11.49"/><path class="cls-8" d="M26.16,54.7s4.37-.03,9.96-.45"/><circle class="cls-7" cx="23.91" cy="54.91" r=".07"/><circle class="cls-7" cx="22.53" cy="55.07" r=".07"/><circle class="cls-7" cx="21.14" cy="55.23" r=".07"/><path class="cls-8" d="M12.73,66.22s-.57,6.13,1.57,9.84,8.63,5.07,16.75,4.33c8.12-.74,18.06-1.58,19.72-9.88,1.66-8.3-.93-12.42-.93-12.42"/><path class="cls-8" d="M46.95,35.74s1.38,.65,1.83,1.67"/><path class="cls-8" d="M30.86,72.82s-.01,6.21,.18,7.58"/></g><g><path class="cls-8" d="M49.6,74.07s.54,7.9-1.03,13.16c-.55,1.85-.54,4.18-.52,5.1,.08,3.12-1.19,10.48-3.91,15.07-.8,1.35-1.92,2.58-2.25,3.78s-1.31,3.74-4.81,3.42-5.41-1.81-5.29-4.11,1.64-6.07,1.76-9.15c.12-3.08-.65-8.98-.98-10.83-.34-1.93-1.84-.31-2.02-9.7"/><path class="cls-8" d="M31.82,89.39s-.55,2.2-.88,2.8-3.67,8.43-3.18,11.18,.99,4.83-1.19,8.25"/><path class="cls-8" d="M15.29,110.6s-2.52-1.46-2.36-5.65c.16-4.19-1.54-5.18-.13-14.45,0,0-.47-1.49,.17-3.57,.64-2.08-1.02-6.45,.43-12.46"/><path class="cls-8" d="M12.93,87.53s3.74-1.65,10.13-.59c4.39,.73,8.47,3.01,8.47,3.01"/><path class="cls-8" d="M12.93,89.56s3.65-1.57,9.87-.56c4.28,.7,8.25,2.86,8.25,2.86"/><path class="cls-8" d="M48.04,91.43c-1.61,.64-4.4,1.44-8.31,1.42-2.54-.01-5.06-.54-6.75-.99"/><path class="cls-8" d="M48.18,89.21c-1.47,.63-4.35,1.56-8.52,1.56-2.73,0-5.65-.6-7.28-1.04"/><path class="cls-8" d="M32.12,112.15s-1.62,1.24-1.56,3.41-.03,6.44,.59,7.76c.67,1.44,1.89,2.95,5.33,1.93s2.66-5.05,2.13-6.39c-.66-1.69-1.23-3.25-.7-4.25"/><path class="cls-8" d="M26.37,111.77s.32,2.2,.23,3.35-.48,6.01-3.35,6.44c-2.87,.44-7.84-1.32-10.08-1.93s-7.53-.74-6.98-4.58,4.49-3.09,6.04-3.63,3.18-.74,4.12-.77c1.24-.03,5.65-1.87,10.02,1.13Z"/></g><g><path class="cls-8" d="M47.37,16.44c3.03,.69,5.41,3.19,5.88,6.36"/><path class="cls-8" d="M9.6,36.28l-1.04-10.06c-.2-3.17,1.56-6.01,4.23-7.34"/></g></g><g><path class="cls-1" d="M10.39,13.77s-2.9-4.39-1.74-12.12c.21-1.43,1.31-1.42,2.13-1.29,.74,.12,4.13,.8,8.38,3.26l1.12,10.98-9.89-.82Z"/><path class="cls-1" d="M52.89,13.77s2.9-4.39,1.74-12.12c-.21-1.43-1.31-1.42-2.13-1.29-.74,.12-4.13,.8-8.38,3.26l-6.34,5.37,10.26,6.24,4.85-1.45Z"/><path class="cls-4" d="M17.52,6.85c-2.55-2.41-4.83-3.03-5.18-3.09-.39-.06-.93-.17-.97,.52-.19,3.13,1.5,5.87,1.5,5.87l4.18,2.16,.48-5.47Z"/><path class="cls-4" d="M50.42,10.15s1.69-2.74,1.5-5.87c-.04-.69-.58-.58-.97-.52-.36,.06-2.64,.68-5.18,3.09v5.09l4.66-1.79Z"/><path class="cls-1" d="M54.57,22.33c0,9.27-10.28,15.18-22.96,15.18s-22.96-5.9-22.96-15.18S18.94,3.93,31.62,3.93s22.96,9.13,22.96,18.4Z"/><circle class="cls-2" cx="22.76" cy="13.53" r="2.02"/><circle class="cls-12" cx="22.76" cy="13.45" r="1.14"/><circle class="cls-2" cx="40.46" cy="13.53" r="2.02"/><circle class="cls-12" cx="40.46" cy="13.45" r="1.14"/><path class="cls-3" d="M33.92,17.11c.05-1.11-.44-1.93-.44-1.93,.65-.48,1.13-1.21,1.13-1.21-.42-.31-1.96-.41-1.96-.41-.55-1.12-1.03-1.62-1.03-1.62-.65,.62-1.09,1.62-1.09,1.62,0,0-1.54,.1-1.96,.41,0,0,.47,.73,1.13,1.21,0,0-.49,.82-.44,1.93,0,0,1.37-.14,2.29-.88,.81,.6,1.74,.86,2.39,.88Z"/><ellipse class="cls-2" cx="18.23" cy="16.21" rx="2.05" ry=".98"/><ellipse class="cls-2" cx="44.85" cy="16.21" rx="2.05" ry=".98"/><path class="cls-13" d="M27.17,20.43s2.78,.34,4.42-3.24c0,0,1.21,3.73,4.49,3.24v12.5s-.16,4.02-.16,4.02l-3.14,.7-5.34-.38-.28-10.91v-5.93Z"/><path class="cls-5" d="M24.78,17.1s.15,3.33,2.81,3.33,3.73-2.27,3.95-4.13"/><path class="cls-5" d="M38.33,17.1s-.15,3.33-2.81,3.33-3.73-2.27-3.95-4.13"/><path class="cls-5" d="M27.17,20.43s-.04,13.16,.17,16.76"/><path class="cls-5" d="M36.07,20.43s.04,13.16-.17,16.76"/><path class="cls-5" d="M35.81,37.25s-4.34,.99-8.36,.01"/><path class="cls-2" d="M45.08,7.54c.69,.89,.25,1.58-.15,1.86-3.44,2.37-10.5-.41-12.32-3.89-.13-.24-.2-1.08,.64-1.41l6.62,3.09,5.2,.34"/><path class="cls-2" d="M18.15,7.54l3.64-1.58,8.18-1.85c.84,.32,.77,1.16,.64,1.41-1.87,3.57-8.82,6.29-12.32,3.89-.4-.28-.84-.97-.15-1.86"/><path class="cls-3" d="M30.68,4.81s.96-.38,1.98,0l1.06,.07-.54-.95c-1.59-.38-3.1,0-3.1,0l-.85,.91,1.46-.03Z"/><path class="cls-4" d="M29.22,2.79s.49,.76,.87,1.55c.11,.23,.11,.49-.01,.71-1.48,2.83-8.44,5.68-11.41,3.63-.37-.26-.57-.7-.52-1.14,.26-2.1,1-3.88,1-3.88l5.01-.87h5.06Z"/><path class="cls-4" d="M44.08,3.67s.74,1.78,1,3.88c.06,.45-.15,.89-.52,1.14-2.97,2.05-9.93-.8-11.41-3.63-.12-.22-.12-.49-.01-.71,.38-.78,.87-1.55,.87-1.55h4.07s6,.87,6,.87Z"/><ellipse class="cls-2" cx="24.18" cy="3.35" rx="5.05" ry="1.95" transform="translate(-.21 2.27) rotate(-5.36)"/><ellipse class="cls-2" cx="39.06" cy="3.35" rx="1.95" ry="5.05" transform="translate(32.07 41.93) rotate(-84.64)"/><path class="cls-3" d="M45.47,8.66s3.9,1.28,7.37,7.02c0,0,.39-.91-.37-2.39-2.01-3.9-5.64-6.01-7.5-6.6l.51,1.97Z"/><path class="cls-3" d="M17.74,8.66s-3.9,1.28-7.37,7.02c0,0-.39-.91,.37-2.39,2.01-3.9,5.64-6.01,7.5-6.6l-.51,1.97Z"/><ellipse class="cls-4" cx="24.19" cy="3.33" rx="3.88" ry="1.21" transform="translate(-.2 2.28) rotate(-5.36)"/><ellipse class="cls-4" cx="39.04" cy="3.33" rx="1.21" ry="3.88" transform="translate(32.09 41.89) rotate(-84.64)"/></g></svg>