<?xml version="1.0" encoding="UTF-8"?><svg id="_レイヤー_8" xmlns="http://www.w3.org/2000/svg" viewBox="0 0 58 114.3"><defs><style>.cls-1{fill:#88c0dd;}.cls-1,.cls-2,.cls-3,.cls-4,.cls-5{stroke:#040000;stroke-linecap:round;stroke-linejoin:round;stroke-width:.6px;}.cls-2,.cls-6{fill:#fff;}.cls-3,.cls-7{fill:#e9da21;}.cls-4{fill:#025999;}.cls-8{fill:#040000;}.cls-9{fill:#be8c14;}.cls-10{fill:#125ba1;}.cls-11{fill:#070002;}.cls-12{stroke-width:.16px;}.cls-12,.cls-5,.cls-13{fill:none;}.cls-12,.cls-13{stroke:#070002;stroke-miterlimit:10;}.cls-13{stroke-width:.19px;}</style></defs><g><path class="cls-9" d="M42.19,108.47c-.43-1.04-1.64-1.9-3.13-2.44-.6-.25-2.53-.98-2.49-1.4-.14-.75-.83-1.23-1.68-1.45-1.56-.73-3.85-.8-5.5-.04-.03,.06-.07,.12-.1,.18-.09,.2-.17,.4-.25,.61-.09,.25-.18,.49-.34,.72-.12,.17-.29,.33-.44,.48-.09,.09-.18,.18-.29,.26-.27,.2-.6,.3-.96,.34-.07,0-.14,0-.21,0-.09,0-.18,0-.27,0-.08,0-.15,0-.23,0-.03,0-.06,0-.09,0-.03,0-.06,0-.09,0,0,0,0,0-.01,0-.03,0-.05,0-.08,0-.03,0-.05,0-.08-.01-.03,0-.07-.01-.1-.02-.02,0-.03,0-.05-.01-.01,0-.02,0-.03,0-.05-.01-.1-.03-.14-.05,0,0,0,0,0,0,0,0,0,0-.01,0-.04-.02-.08-.03-.12-.05-.01,0-.03-.01-.04-.02-.03-.02-.07-.03-.1-.05-.01,0-.02,0-.03-.02-.04-.02-.08-.05-.12-.08,0,0-.02-.01-.03-.02-.03-.02-.06-.04-.08-.07-.07-.06-.14-.13-.19-.2-.01-.01-.02-.03-.03-.04-.1-.14-.16-.29-.24-.44,0-.01-.01-.03-.02-.04-.02-.03-.04-.06-.06-.1,0,0,0,0,0,0-.02-.02-.03-.04-.05-.07h0c-.11-.14-.23-.27-.35-.41-.03-.03-.07-.06-.1-.09-.07-.02-.14-.04-.21-.06,0,0,0,0,0,0-.04-.01-.08-.02-.12-.03-.03,0-.06-.01-.09-.02,0,0,0,0-.01,0-.11-.03-.22-.05-.33-.08h0s-.01,0-.02,0c0,0,0,0,0,0-.04,0-.09-.01-.13-.02-.03,0-.05,0-.08-.01-.02,0-.04,0-.06,0t0,0s-.03,0-.04,0c-.04,0-.09,0-.13,0-.09,0-.19,0-.28-.01,0,0-.02,0-.02,0h-.02c-.15,0-.29,0-.44,0h-.03c-.12,0-.23,.01-.35,.02,0,0,0,0-.01,0-.02,0-.03,0-.05,0,0,0,0,0,0,0-.05,0-.1,.01-.15,.02,0,0,0,0,0,0-.09,.02-.18,.05-.26,.08-.06,.02-.12,.05-.19,.07-.15,.06-.3,.12-.44,.18-.1,.05-.19,.1-.28,.15-.02,.01-.05,.02-.07,.04-.04,.02-.08,.04-.12,.06,0,0,0,0-.01,0,0,0-.02,0-.02,.01-.12,.06-.24,.12-.36,.19-.01,0-.02,.01-.03,.02-.02,0-.04,.02-.06,.03,0,0-.02,.01-.03,.02-.02,.01-.03,.02-.05,.03h0s-.07,.05-.11,.08c-.01,0-.03,.02-.04,.03-.05,.03-.09,.06-.14,.1-.21,.14-.4,.25-.64,.35-.2,.08-.41,.14-.63,.19-.07,.02-.14,.03-.22,.05-.41,.08-.83,.14-1.25,.15-.13,0-.25,0-.37,0-.05,0-.11,0-.16,0h-.02s-.06,0-.08,0c-.06,0-.11,0-.17-.01-.04,0-.07,0-.11,0-.07,0-.15-.01-.22-.02-.34-.04-.67-.13-.99-.21-.36-.1-.68-.27-.93-.49-.25,.02-.5,.05-.74,.1-5.24,.57-8.04,3.14-2.41,4.78,.48,.49,1.28,.85,2.24,1.12,.48,.35,.89,.73,1.55,.97,.2,.07,.41,.14,.61,.2,.17,.16,.36,.31,.57,.45,1.65,1.13,4.06,1.8,6.49,1.89,.29,.01,.58,.02,.87,.02,2.16,0,4.3-.34,6.11-1.06,1.02-.36,1.91-.88,3.05-1.1,1.17-.19,2.38-.14,3.59-.1,.64,.02,1.27,.04,1.9,.03,.48-.01,.98-.08,1.46-.19,.53-.05,1.03-.19,1.43-.42,1.61-.63,2.58-1.8,1.98-2.98"/><polygon class="cls-10" points="17.34 90.57 19.47 99.36 17.58 101.15 13.94 103.87 12.99 104.65 13.56 106.2 17.01 107.59 19.23 107.26 23.68 104.87 23.68 100.07 24.59 92.55 17.34 90.57"/><polygon class="cls-10" points="31.81 96.07 28.27 103.6 28.98 103.86 29.26 107.36 30.78 109.43 33.66 109.43 34.89 109.19 34.42 107.31 32.43 101.86 35.51 97.81 31.81 96.07"/><path class="cls-7" d="M41.64,65.06l1.62,3.61s3.09,15.18,2.94,17.64c-.15,2.46-.31,13.54-.31,13.54l-1.96,.61-3.84-.61h-7.62l-1.8-.23-1.69-2.1-1.59-.18-.11-1.06-2.69-.55-3.03-1.94-.96-1.08-2.94,.25-2.05,1.74-2.59-1.28-.99-.71-.72-.8-2.76,.8-2.5-1.72,2.13-9.78,3.12-9.62,3.03-7.65,27.32,1.13Z"/><path class="cls-13" d="M41.64,65.06l1.62,3.61s3.09,15.18,2.94,17.64c-.15,2.46-.31,13.54-.31,13.54l-1.96,.61-3.84-.61h-7.62l-1.8-.23-1.69-2.1-1.59-.18-.11-1.06-2.69-.55-3.03-1.94-.96-1.08-2.94,.25-2.05,1.74-2.59-1.28-.99-.71-.72-.8-2.76,.8-2.5-1.72,2.13-9.78,3.12-9.62,3.03-7.65,27.32,1.13Z"/><path class="cls-6" d="M22.79,36.52l5.69,5.27,4.76-5.34,8.77,25.69,.48,4.8-7.04,3.41s-6.05,1.38-9.41,0c-3.36-1.38-7.12-2.05-7.12-2.05l-5.37-2.67,1.3-9.59,5.6-18.7,2.35-.8Z"/><polygon class="cls-6" points="6.17 47.34 4.94 45.16 3.82 42.73 2.74 42.84 1.26 43.5 .38 42.95 1.26 40.78 2.52 39.9 2.52 38.65 2.87 37.88 3.9 37.45 3.9 36.07 5.52 35.67 6.67 36.6 7.1 34.35 8.03 33.79 9.1 34.13 9.57 35.05 10.7 38.03 12.71 37.04 13.67 37.88 13.9 38.65 13.37 40.29 13.18 42.42 12.36 44.57 11.09 45.91 10.94 46.65 8.7 47.88 6.17 47.34"/><polygon class="cls-6" points="46.71 32.44 44.37 32.44 43.08 32.24 42.25 30.91 42.5 29.57 44.22 28.42 45.55 26.91 46.87 23.2 47.33 21.35 49.3 20.78 50.17 21.84 50.6 23.84 51.98 21.84 53.6 22.56 53.5 25.66 55.06 24.65 56.2 26.05 55.84 26.99 55.51 27.97 57.28 29.21 57.22 31.1 56.85 32.17 55.69 31.9 55.16 30.15 51.41 32.86 52.01 34.81 49.51 35.19 46.51 33.88 46.71 32.44"/><polygon class="cls-6" points="29.72 12.65 32.82 12.65 35.59 14.81 37.7 18.7 38.45 23.75 39.47 23.58 41.06 25.56 40.19 29.47 37.59 30.87 35.59 34.24 33.24 35.71 28.48 41.78 25.21 39.32 22.36 35.28 19.42 32.28 18.91 24.88 19.16 22.1 21.04 17.52 23.81 15.06 26.85 12.71 29.72 12.65"/><polygon class="cls-6" points="16.49 23.86 17.09 30.1 15.4 27.69 15.16 25.56 15.59 23.88 16.49 23.86"/><path class="cls-10" d="M18.91,31.92l3.45,3.36s1.09,8.61,1.58,10.09c.49,1.48,3.65,11.64,3.65,11.64l-1.55,7.82,3.69,1.66v1.79l-7.64-2.43-9.77-3.31-.05-5.53-4.1,4.21-2.37,1.34-2.1-.34-1.29-1.94-1.55-2.95,2.15-6.12,.29-2.97,1.08-1.14,3.03,.79,3.6-.64,.27-1.76,2.05-2.36,.56-3.18,.83-2.84,1.96-3.39,1.38-1.67,.84-.11Z"/><polygon class="cls-10" points="46.54 34.44 51.31 34.63 52.01 34.81 51.83 33.39 53.35 33.25 54.59 33.84 55.84 38.48 56.81 42.32 57.36 46.03 55.84 49.26 53.81 51.49 51.95 51.6 45.18 49.63 44.34 53.59 45.79 62.02 38.23 64.9 33.36 66.83 30.67 59.03 32.05 50.44 33.24 39.91 33.24 35.71 37.06 32.23 37.59 31.46 39.27 33.84 43.26 33.25 46.53 37.16 46.54 34.44"/><path class="cls-6" d="M54.42,37.91c0,.37-.3,.66-.66,.66s-.67-.29-.67-.66,.3-.66,.67-.66,.66,.3,.66,.66"/><path class="cls-6" d="M40.44,38.57c0,.36-.3,.66-.66,.66s-.67-.3-.67-.66,.3-.66,.67-.66,.66,.3,.66,.66"/><path class="cls-6" d="M17.17,38.82c0,.37-.3,.66-.66,.66s-.67-.29-.67-.66,.3-.66,.67-.66,.66,.3,.66,.66"/><path class="cls-6" d="M37.91,46.03c0,.36-.3,.66-.66,.66s-.67-.3-.67-.66,.3-.66,.67-.66,.66,.29,.66,.66"/><path class="cls-6" d="M20.31,46.46c0,.37-.3,.66-.66,.66s-.67-.29-.67-.66,.3-.66,.67-.66,.66,.3,.66,.66"/><path class="cls-6" d="M8.74,50.27c0,.36-.3,.66-.66,.66s-.67-.3-.67-.66,.3-.66,.67-.66,.66,.3,.66,.66"/><polygon class="cls-10" points="23.47 23.27 26.85 24.76 27.38 26.29 25.93 28.19 23.64 28.8 20.4 26.66 19.51 25.12 20.23 23.54 23.47 23.27"/><polygon class="cls-10" points="33.33 23.27 29.95 24.76 29.42 26.29 30.87 28.19 33.16 28.8 36.4 26.66 37.29 25.12 36.57 23.54 33.33 23.27"/><path class="cls-8" d="M13.54,65.61c-.28-.03-.48-.3-.44-.58,.07-.83,.16-1.65,.27-2.47h.03s.02,0,.02,0h.02s.02,0,.02,0h.02s.02,0,.02,0h.02s.02,0,.02,0h.02s.02,0,.02,0h.02s.02,0,.02,0h.02s.02,0,.02,0h.02s.02,0,.02,0h.02s.02,0,.02,0h.02s.02,0,.02,0h.02s.02,0,.02,0h.02s.02,0,.02,0h.02s.02,0,.02,0h.02s.02,.01,.02,.01h.02s.02,0,.02,0h.02s.02,.01,.02,.01h.02s.02,.01,.02,.01h.02s.02,.01,.02,.01h.02s.02,.01,.02,.01h.02s.02,.01,.02,.01h.02s.02,.01,.02,.01h.02s.02,.01,.02,.01h.02s.02,.02,.02,.02h.02s.02,.01,.02,.01h.02s.02,.01,.02,.01h.02s.02,.01,.02,.01h.02s.02,.01,.02,.01h.02s.02,.01,.02,.01h.01s.02,.01,.02,.01h.01s.01,.01,.01,.01h.01c-.07,.58-.13,1.17-.19,1.75-.02,.4-.05,1-.55,1-.03,0-.05,0-.08,0"/><path class="cls-8" d="M42.14,66.78c-.22-.22-.14-.58-.18-.85-.06-.87-.13-1.73-.2-2.6h0s.02-.01,.02-.01h.02s.02-.01,.02-.01h.02s.02-.01,.02-.01h.02s.02-.01,.02-.01h.01s.02-.01,.02-.01h.02s.01-.01,.01-.01h.02s.02,0,.02,0h.01s.02-.01,.02-.01h.01s.02,0,.02,0h.01s.02,0,.02,0h.01s.02,0,.02,0h.01s.01,0,.01,0h.01s.01,0,.01,0h.01s.01,0,.01,0h.01s.01,0,.01,0h.01s.01,0,.01,0h.01s.01,0,.01,0h.01s.01,0,.01,0h.01s.01,0,.01,0h.01s.02,0,.02,0h.01s.02,0,.02,0h.02s.01,0,.01,0h.02s.02-.01,.02-.01h.02s.01,0,.01,0h.02s.01,0,.01,0h.02s.01-.01,.01-.01h.02s.01-.01,.01-.01h.01s.02,0,.02,0h.01s.01-.01,.01-.01h.01s.01-.01,.01-.01h.01s.01-.01,.01-.01h.01s.01,0,.01,0h.01s.01-.01,.01-.01h.01s.01,0,.01,0h.01s.01-.01,.01-.01h.01c.07,.87,.15,1.74,.21,2.62,.02,.28,.04,.55,.06,.83,.02,.3-.26,.51-.53,.51-.13,0-.25-.04-.35-.15"/><path class="cls-8" d="M29.74,71.54c-2.77-.12-5.4-1.09-8.06-1.8-1.7-.46-8.13-2.59-8.48-4.24,.01-.29,.23-.52,.53-.52,.21,0,.4,.13,.48,.31,.23,.24,.5,.44,.77,.62,2.42,1.37,5.04,2.33,7.7,3.03,2.97,.86,5.96,1.79,9.08,1.58,3.43-.42,6.67-1.97,9.57-3.75,.23-.15,.43-.29,.64-.47,.51-.41,1.17,.41,.63,.81-.7,.56-1.49,1-2.27,1.44-2.94,1.56-6.18,3.02-9.57,3.02-.34,0-.68-.01-1.02-.05"/><path class="cls-8" d="M5.99,91.91c-.28-.04-.48-.3-.44-.58,.19-2.31,.67-4.44,1.2-6.65,1.49-6.65,3.65-13.12,6.25-19.42,.39-.89,1.43-.2,.88,.59-2.71,6.51-4.85,13.19-6.36,20.07-.43,1.84-.79,3.68-.95,5.56-.02,.26-.27,.44-.52,.44-.02,0-.04,0-.07,0m7.65-26.05c.08-.01,.15-.05,.21-.1-.06,.05-.13,.08-.21,.1"/><path class="cls-8" d="M45.16,100.36c.06-.5,.1-1.01,.14-1.5,.16-2.91,.14-5.83,.21-8.74,.21-7.95-1.25-15.82-3.34-23.44-.01-.62,.95-.72,1.03-.08,.03,.33,.15,.65,.23,.98,2.45,8.35,3.43,17.07,3.05,25.75-.04,1.78-.03,3.57-.14,5.35-.06,.29-.03,.83-.08,1.32-.01,.02-.02,.05-.03,.07-.1,.12-.2,.24-.31,.35-.05,0-.09,.02-.14,.03-.2,.04-.41,.09-.58,.19-.04-.08-.05-.17-.04-.27"/><path class="cls-8" d="M42.93,100.77c-.28,0-.55-.02-.82-.02-.54,.03-1-.26-1.48-.43-1.32-.08-2.64,.12-3.94,.29-2.04,.04-7.17,.18-7.91-2.14-.08-.15-.09-.38-.27-.45-.12-.01-.25,0-.37,0-.38,0-.78,0-1.04-.31-.22-.26-.16-.68-.44-.89-1.23-.42-2.63-.03-3.38-1.41-.72-.71-1.7-1.09-2.43-1.8-.25-.17-.48-.39-.75-.52-.65,.02-1.29,.22-1.91,.39-.64,.36-1.07,1.05-1.69,1.43-1.28,.91-2.73,0-3.59-1.03-1.12,.23-1.53-.52-1.73-1.48-1.4,.17-2.5,1.18-3.96,.38-.45-.17-.79-.51-1.17-.8-.38-.21-.46-.81-.01-.99,.41-.17,.66,.19,.93,.41,1.52,1.44,2.65,0,4.26-.02,.91,.03,.93,.86,1.2,1.5,.8-.18,1.2,.24,1.61,.67,.35,.36,.71,.72,1.35,.71,.88-.13,1.33-1.08,2.04-1.52,.68-.41,1.52-.52,2.3-.65,1.1-.18,1.81,.89,2.64,1.41,.8,.47,1.59,.97,2.11,1.77,1.15,.61,3.08-.01,3.42,1.72,3.37-.07-.67,2.41,6.95,2.61,.96,.09,1.9-.03,2.85-.14,.78-.1,1.56-.19,2.35-.17,.79-.15,1.34,.36,2.06,.45,.3-.02,.6,0,.91,.02,.69,.04,1.38,.08,1.99-.24,.78-.38,1.34,.71,.46,.95-.56,.27-1.18,.33-1.8,.33-.24,0-.48,0-.72-.02"/><path class="cls-8" d="M30.14,109.47c-.56-.6-1.14-1.27-1.41-2.06-.19-1.11-.05-2.25-.07-3.38-.36,.16-.82,0-.92-.4-.13-.67,.46-1.23,.69-1.83,.42-.85,.78-1.75,1.32-2.52,.31-.34,.93-.12,.92,.35,0,.16-.07,.3-.19,.39-.51,.89-.91,1.84-1.39,2.75,1.32,.12-.05,4.03,.95,4.97,.33,.43,.62,.94,1.1,1.21,1.02,.21,2.09,.16,3.1-.02-.32-2.08-2.77-5.27-2.2-7.32,.3-.59,.78-1.08,1.14-1.63,.4-.53,1.23,.1,.82,.63-1.29,1.68-1.22,1.4-.58,3.43,.41,1.45,2.22,4.04,1.74,5.42-.42,.64-1.51,.63-2.37,.63-.22,0-.43,0-.61,0-.72,0-1.53-.06-2.05-.62"/><path class="cls-8" d="M19.21,99.74c-.13-.1-.19-.25-.21-.4-.17-.83-.38-1.65-.59-2.47-.27-1.05-.53-2.1-.76-3.16-.05-.24-.14-.52,0-.75,.29-.49,1.03-.19,.98,.36,.4,1.89,.94,3.74,1.35,5.62,.19,.43-.03,.92-.42,.92-.1,0-.22-.03-.34-.11"/><path class="cls-8" d="M12.53,105.56c-.4-1.72,1.49-2.53,2.57-3.45,.74-.55,1.49-1.09,2.26-1.6,.63-.36,1.19-.8,1.6-1.41,.46-.71,1.45,.09,.8,.65-.5,.76-1.24,1.27-2.01,1.73-1.27,.89-2.55,1.78-3.74,2.77-.74,.53-.35,.78-.54,1.42-.09,.17-.27,.25-.44,.25-.22,0-.45-.13-.5-.37"/><path class="cls-8" d="M16.22,107.9c-1.31-.35-2.6-.98-3.55-1.96-.32-.53,.46-1.07,.84-.59,.71,.61,1.52,1.1,2.41,1.39,1.2,.52,2.36,.22,3.47-.36,1.23-.56,2.42-1.21,3.6-1.88,.41-2.17,.13-4.4,.29-6.59,0,0,0,.02,0,.03,.05-.77,.16-1.54,.28-2.31,.02-.3,.29-.53,.59-.49,.28,.04,.48,.3,.44,.58-.17,1.02-.28,2.05-.33,3.09,0-.01,0-.02,0-.04,0,0,0,0,0-.01-.02,1.91,.11,3.84-.22,5.73,.21,.44-.19,1.2-.31,1.67-.28,.5-1.1,.18-.94-.38-1.66,.79-3.65,2.24-5.57,2.24-.34,0-.67-.04-1-.14"/><path class="cls-8" d="M13.56,104.25c0-.21,.17-.38,.38-.38s.38,.17,.38,.38-.17,.38-.38,.38-.38-.17-.38-.38"/><path class="cls-8" d="M16.85,106.2c-1.11-.18-2.57-.52-3.02-1.67-.08-.36-.02-1.03,.41-1.12,.21-.03,.4,.13,.43,.33,.02,.25-.23,.51-.02,.74,.54,.64,1.47,.84,2.25,.98,1.37,.04,2.6-.71,3.85-1.18,.81-.36,1.6-.75,2.4-1.11,.19-.1,.44,0,.52,.19,.08,.19-.01,.41-.2,.5-.8,.36-1.58,.75-2.38,1.11-1.3,.5-2.62,1.25-4.04,1.25-.06,0-.12,0-.18,0"/><path class="cls-8" d="M31.86,108.73c-1.36-.06-1.95-1.51-2.41-2.59-.22-.66-.61-1.41-.43-2.1,.1-.18,.34-.24,.52-.14,.26,.14,.16,.5,.23,.72,.25,1.05,.65,2.06,1.3,2.92,.44,.63,1.35,.46,2.14,.29,.72-.16,1.35-.32,1.44,.14,.03,.21-.12,.39-.33,.43-.75,.13-1.49,.34-2.26,.34-.07,0-.13,0-.2,0"/><path class="cls-8" d="M13.5,62.58h.01s.02,0,.02,0h.02s.02,0,.02,0h.02s.02,0,.02,0h.02s.02,0,.02,0h.02s.02,0,.02,0h.02s.02,0,.02,0h.02s.02,0,.02,0h.02s.02,0,.02,0h.02s.02,0,.02,0h.02s.02,0,.02,0h.02s.02,.01,.02,.01h.02s.02,.01,.02,.01h.02s.02,.01,.02,.01h.02s.02,.01,.02,.01h.02s.02,.01,.02,.01h.02s.02,.01,.02,.01h.02s.02,.01,.02,.01h.02s.02,.01,.02,.01h.02s.02,.02,.02,.02h.02s.02,.01,.02,.01h.02s.02,.02,.02,.02h.02s.02,.01,.02,.01h.02s.02,.01,.02,.01h.02s.02,.01,.02,.01h.02s.02,.01,.02,.01h.01s.02,.01,.02,.01h.01s0,0,0,0c-.29-.1-.57-.2-.86-.3"/><path class="cls-8" d="M14.5,63.03l-.02-.02-.02-.02h-.02s-.02-.03-.02-.03h-.02s-.02-.02-.02-.02h-.02s-.02-.02-.02-.02h-.02s-.02-.02-.02-.02h-.02s-.02-.02-.02-.02h-.02s-.02-.02-.02-.02h-.02s-.02-.02-.02-.02h-.02s-.02-.02-.02-.02h-.02s-.02-.01-.02-.01h-.02s-.02-.02-.02-.02h-.02s-.02-.01-.02-.01h-.02s-.02-.01-.02-.01h-.02s-.02-.01-.02-.01h-.02s-.02-.01-.02-.01h-.02s-.02-.01-.02-.01h-.02s-.02-.01-.02-.01h-.02s-.02,0-.02,0h-.02s-.02,0-.02,0h-.02s-.02,0-.02,0h-.02s-.02,0-.02,0h-.02s-.02,0-.02,0h-.02s-.02,0-.02,0h-.02s-.02,0-.02,0h-.02s-.02,0-.02,0h-.02s-.01,0-.01,0h-.02s-.01,0-.01,0h-.02s-.01,0-.01,0h-.01s-.02,0-.02,0h-.03s-.01,0-.01,0h-.01s0,0,0,0c0-.04,.02-.07,.02-.11h.02s.02,0,.02,0h.02s.02,0,.02,0h.02s.02,0,.02,0h.02s.02,0,.02,0h.02s.02,0,.02,0h.02s.02,0,.02,0h.02s.02,0,.02,0h.02s.02,0,.02,0h.02s.02,0,.02,0h.02s.02,.01,.02,.01h.02s.02,.01,.02,.01h.02s.02,.01,.02,.01h.02s.02,.01,.02,.01h.02s.02,.01,.02,.01h.02s.02,.01,.02,.01h.02s.02,.01,.02,.01h.02s.02,.01,.02,.01h.02s.02,.01,.02,.01h.02s.02,.01,.02,.01h.02s.02,.01,.02,.01h.02s.02,.01,.02,.01h.02s.02,.01,.02,.01h.02s.02,.01,.02,.01h.01s.02,.01,.02,.01h.01s.02,.01,.02,.01h.01s.01,.01,.01,.01h.02s.01,.01,.01,.01h.01s.01,.01,.01,.01h.01s.01,.01,.01,.01h.01s.01,.01,.01,.01h.01s.01,.01,.01,.01h.01s0,.06-.01,.08h0Z"/><polygon class="cls-8" points="42.67 63 42.68 62.99 42.68 63 42.67 63 42.66 63 42.67 63"/><path class="cls-8" d="M14.35,63.85h-.01s-.01-.01-.01-.01h-.02s-.02-.01-.02-.01h-.01s-.02-.01-.02-.01h-.01s-.02-.01-.02-.01h-.02s-.02-.01-.02-.01h-.02s-.02-.01-.02-.01h-.02s-.02-.01-.02-.01h-.02s-.02-.01-.02-.01h-.02s-.02-.01-.02-.01h-.02s-.02-.01-.02-.01h-.02s-.02-.01-.02-.01h-.02s-.02-.01-.02-.01h-.02s-.02-.01-.02-.01h-.02s-.02-.01-.02-.01h-.02s-.02-.01-.02-.01h-.02s-.02-.01-.02-.01h-.02s-.02-.01-.02-.01h-.02s-.02,0-.02,0h-.02s-.02,0-.02,0h-.02s-.02,0-.02,0h-.02s-.02,0-.02,0h-.02s-.02,0-.02,0h-.02s-.02,0-.02,0h-.02s-.02,0-.02,0h-.02s-.02,0-.02,0h-.02s-.02,0-.02,0h-.02s-.02,0-.02,0h-.02s-.02,0-.02,0h-.02s-.02,0-.02,0h-.02s-.02,0-.02,0h-.01c.03-.19,.05-.39,.08-.58,.01-.12,.03-.25,.05-.37h.02s.01,0,.01,0h.01s.01,0,.01,0h.02s.01,0,.01,0h.06s.02,0,.02,0h.03s.02,0,.02,0h.02s.02,0,.02,0h.02s.02,0,.02,0h.02s.02,0,.02,0h.02s.02,0,.02,0h.02s.02,0,.02,0h.02s.02,0,.02,0h.02s.02,0,.02,0h.02s.02,.01,.02,.01h.02s.02,.01,.02,.01h.02s.02,.01,.02,.01h.02s.02,.01,.02,.01h.02s.02,.01,.02,.01h.02s.02,.01,.02,.01h.02s.02,.01,.02,.01h.02s.02,.01,.02,.01h.02s.02,.02,.02,.02h.02s.02,.02,.02,.02h.02s.02,.02,.02,.02h.02s.02,.02,.02,.02h.02s.02,.02,.02,.02h.02s.02,.02,.02,.02h.02s.02,.02,.02,.02h.02s.02,.03,.02,.03l.02,.02,.02,.02h0c-.06,.31-.1,.62-.14,.93h-.01Z"/><path class="cls-8" d="M41.68,63.38c0-.07,0-.14-.01-.21h.01s.03-.02,.03-.02h.03s.03-.02,.03-.02h.03s.03-.02,.03-.02h.03s.03-.02,.03-.02h.03s.03-.02,.03-.02h.03s.03-.02,.03-.02h.03s.03-.02,.03-.02h.03s.03-.01,.03-.01h.03s.03-.01,.03-.01h.03s.03-.01,.03-.01h.02s.03-.01,.03-.01h.02s.03-.01,.03-.01h.03s.02-.01,.02-.01h.02s.02,0,.02,0h.02s.02,0,.02,0h.02s.02,0,.02,0h.02s.03,0,.03,0h.02s.03,0,.03,0h.03s.02,0,.02,0h.01s0,.09,.01,.13c.02,.3,.04,.61,.07,.91h0s-.01,0-.01,0h-.01s-.01,.01-.01,.01h-.01s-.01,.01-.01,.01h-.01s-.01,.01-.01,.01h-.02s-.01,.01-.01,.01h-.01s-.02,.01-.02,.01h-.01s-.01,0-.01,0h-.01s-.01,.01-.01,.01h-.01s-.01,0-.01,0h-.01s-.01,.01-.01,.01h-.02s-.01,0-.01,0h-.02s-.01,.01-.01,.01h-.02s-.02,0-.02,0h-.01s-.02,.01-.02,.01h-.02s-.01,0-.01,0h-.02s-.01,0-.01,0h-.01s-.02,0-.02,0h-.01s-.01,0-.01,0h-.01s-.02,0-.02,0h-.01s-.01,0-.01,0h-.01s-.01,0-.01,0h-.01s-.01,0-.01,0h-.01s-.01,0-.01,0h-.02s-.01,0-.01,0h-.01s-.02,0-.02,0h-.01s-.02,0-.02,0h-.01s-.01,.01-.01,.01h-.02s-.02,0-.02,0h-.01s-.02,0-.02,0h-.02s-.02,.01-.02,.01h-.01s-.02,.01-.02,.01h-.02s-.02,.01-.02,.01h-.02s-.02,.01-.02,.01h-.02s-.02,.01-.02,.01h-.02s-.02,.01-.02,.01h0c-.03-.3-.05-.61-.07-.92m.51-.23s.03,0,.05,0h0s.06,0,.08-.02c-.04,.01-.09,.02-.13,.02"/><path class="cls-8" d="M32.4,66.01c-.79-2.09-1.57-4.22-2.02-6.41v-.03s.03-.03,.03-.03v-.03s.03-.03,.03-.03v-.03s.02-.02,.02-.02v-.02s.02-.02,.02-.02v-.02s.02-.02,.02-.02v-.02s.02-.02,.02-.02v-.02s.02-.02,.02-.02v-.02s.02-.02,.02-.02v-.02s.02-.02,.02-.02v-.02s.02-.02,.02-.02v-.02s.02-.02,.02-.02v-.02s.02-.02,.02-.02v-.02s.03-.02,.03-.02v-.02s.03-.02,.03-.02l.02-.02,.02-.02,.02-.02,.02-.02,.02-.02,.02-.02,.02-.02,.02-.02,.02-.02,.02-.02,.02-.02,.02-.02,.02-.02,.02-.02,.02-.02,.02-.02,.02-.02,.02-.02,.02-.02,.02-.02,.02-.02,.02-.02,.02-.02,.02-.02,.02-.02,.02-.02,.02-.02h0c.02,.28,.06,.57,.14,.85,.33,1.5,.83,3.08,1.31,4.5,.09,.67,1.21,2.13,.41,2.52-.06,.03-.13,.04-.2,.04-.2,0-.4-.12-.48-.31"/><path class="cls-8" d="M45.1,62.3c-.24-2.39-.6-4.76-.97-7.13v-.02s.02-.02,.02-.02v-.02s.02-.02,.02-.02v-.02s.02-.02,.02-.02v-.02s.02-.02,.02-.02v-.02s.02-.02,.02-.02v-.02s.02-.02,.02-.02v-.02s.01-.02,.01-.02v-.02s.01-.02,.01-.02v-.02s.01-.02,.01-.02v-.02s.01-.02,.01-.02v-.02s.01-.02,.01-.02v-.02s.01-.02,.01-.02v-.02s.01-.02,.01-.02v-.02s.01-.02,.01-.02v-.02s0-.02,0-.02v-.02s.01-.02,.01-.02v-.02s0-.02,0-.02v-.02s0-.02,0-.02v-.02s0-.02,0-.02v-.02s0-.02,0-.02v-.02s.01-.03,.01-.03v-.03s0-.03,0-.03v-.03s.01-.03,.01-.03v-.03s.01-.03,.01-.03v-.03s.01-.04,.01-.04v-.04s.01-.04,.01-.04v-.03s.01-.04,.01-.04v-.04s.01-.04,.01-.04v-.04s.01-.04,.01-.04v-.03s.01-.03,.01-.03v-.03s.01-.03,.01-.03v-.03s0-.03,0-.03v-.03s.01-.03,.01-.03v-.03s.01-.03,.01-.03v-.03s.01-.04,.01-.04v-.03s.01-.04,.01-.04v-.04s.01-.04,.01-.04v-.04s.02-.04,.02-.04v-.04s.02-.04,.02-.04v-.04s.02-.05,.02-.05v-.05s.03-.05,.03-.05v-.05s.03-.05,.03-.05v-.05s.03-.05,.03-.05l.02-.05,.02-.05,.02-.05,.02-.05v-.03c.02,.05,.02,.11,0,.18,.5,3.16,1.01,6.33,1.34,9.51,.05,.36-.24,.57-.53,.57-.23,0-.46-.13-.5-.43"/><path class="cls-8" d="M32.99,67.24c-.34-.17-.36-.57-.49-.88-.25-.88,1.01-.94,1.06-.08,3.97-1.35,7.78-3.13,11.63-4.79,.61-.26,1.02,.69,.4,.95-1.26,.54-2.52,1.11-3.77,1.66-1.73,.76-3.49,1.45-5.24,2.16-.98,.29-2.06,1.04-3.11,1.04-.16,0-.32-.02-.48-.06"/><path class="cls-8" d="M25.16,66.81c-.88-.21,.19-2.2,.23-2.85,.26-.99,.51-1.99,.75-2.99,.24-.62,.7-3.31,1.25-4.85h.02s.02,0,.02,0h.02s.02,0,.02,0h.02s.02,0,.02,0h.02s.02,0,.02,0h.02s.02,0,.02,0h.02s.02,0,.02,0h.02s.02,0,.02,0h.02s.02,0,.02,0h.02s.02,0,.02,0h.02s.02,0,.02,0h.02s.02,0,.02,0h.02s.02,0,.02,0h.02s.02,0,.02,0h.02s.02,0,.02,0h.02s.02,0,.02,0h.02s.02,0,.02,0h.02s.02,0,.02,0h.02s.02,0,.02,0h.02s.02,0,.02,0h.02s.02,0,.02,0h.02s.02,0,.02,0h.02s.02,0,.02,0h.02s.02,0,.02,0h.02s.02,0,.02,0h.02s.02,.01,.02,.01h.02s.02,.01,.02,.01h.02s.02,.01,.02,.01h.02s.02,.02,.02,.02c0,0,0,.02,.01,.03,.01,.03,.03,.06,.04,.09-.75,2.44-1.25,4.95-1.91,7.41-.2,.78-.41,1.56-.62,2.34-.04,.32-.24,.65-.56,.65-.05,0-.1,0-.15-.02"/><path class="cls-8" d="M11.73,62.98c-.29-.04-.47-.3-.44-.58,.17-1.84,.45-3.67,.75-5.5v-.02s.01-.02,.01-.02v-.02s.01-.02,.01-.02v-.02s.01-.02,.01-.02v-.02s.01-.02,.01-.02v-.02s.01-.02,.01-.02v-.02s.02-.02,.02-.02v-.02s.01-.02,.01-.02v-.02s.01-.03,.01-.03v-.03s.02-.03,.02-.03v-.03s.02-.03,.02-.03v-.03s.02-.04,.02-.04v-.04s.02-.04,.02-.04v-.04s.02-.04,.02-.04v-.04s.02-.05,.02-.05v-.05s.02-.05,.02-.05v-.02s.01,0,.01,0h0s0-.02,0-.02h0s0-.02,0-.02h0s0-.02,0-.02h0s0-.02,0-.02h0s0-.02,0-.02h0s0-.02,0-.02h0s0-.02,0-.02h0s0-.02,0-.02h0s0-.02,0-.02h0s0-.02,0-.02h0s0-.02,0-.02h0s0-.02,0-.02h0s0-.02,0-.02h0s0-.02,0-.02h0s0-.02,0-.02h0s0-.02,0-.02h0s0-.02,0-.02h0s0-.02,0-.02h0s0-.02,0-.02h0s0-.02,0-.02h0s0-.02,0-.02h0s0-.02,0-.02h0s0-.02,0-.02h0s0-.02,0-.02h0s0-.02,0-.02h0s0-.02,0-.02h0s0-.02,0-.02h0s0-.02,0-.02h0s0-.02,0-.02h0s0-.02,0-.02h0s0-.02,0-.02h0s0-.02,0-.02h0s0-.02,0-.02h0s0-.02,0-.02h0s0-.02,0-.02h0s0-.02,0-.02h0s0-.02,0-.02h0s0-.02,0-.02h0s0-.02,0-.02h0s0-.02,0-.02h0s0-.02,0-.02h0s0-.02,0-.02h0s0-.02,0-.02h0s0-.02,0-.02h0s0-.02,0-.02h0s0-.02,0-.02h0s0-.02,0-.02h0s0-.03,0-.03h0s0-.03,0-.03h0s0-.03,0-.03h0s0-.03,0-.03h0s0-.03,0-.03h0s.01-.03,.01-.03h0s.01-.03,.01-.03h.01s0-.03,0-.03h.01s.01-.03,.01-.03h.01s.01-.03,.01-.03h.01s.01-.03,.01-.03h.01s.01-.03,.01-.03v-.02s.03-.02,.03-.02l.02-.02,.02-.02,.02-.02,.02-.02,.02-.02,.02-.02,.02-.02,.02-.02,.02-.02,.02-.02,.02-.02,.02-.02,.02-.02,.02-.02,.02-.02h.02s.02-.03,.02-.03h.02s.02-.03,.02-.03h0c-.17,1.02-.33,2.04-.53,3.06-.28,1.69-.52,3.39-.68,5.1-.02,.26-.27,.44-.52,.44-.02,0-.04,0-.07,0"/><path class="cls-8" d="M28.91,68.62c-2.98-1.2-6.11-1.98-9.17-2.95-1.8-.54-3.6-1.19-5.38-1.82h0s-.01,0-.01,0h-.02s-.01-.01-.01-.01h-.02s-.02-.01-.02-.01h-.02s-.01-.01-.01-.01h-.02s-.02-.01-.02-.01h-.02s-.02-.01-.02-.01h-.02s-.02-.01-.02-.01h-.02s-.02-.01-.02-.01h-.02s-.02-.02-.02-.02h-.02s-.02-.01-.02-.01h-.02s-.02-.01-.02-.01h-.02s-.02-.01-.02-.01h-.02s-.02-.01-.02-.01h-.02s-.02-.01-.02-.01h-.02s-.02-.01-.02-.01h-.02s-.02,0-.02,0h-.02s-.02-.01-.02-.01h-.02s-.02,0-.02,0h-.02s-.02,0-.02,0h-.02s-.02,0-.02,0h-.02s-.02,0-.02,0h-.02s-.02,0-.02,0h-.02s-.02,0-.02,0h-.02s-.02,0-.02,0h-.02s-.02,0-.02,0h-.02s-.02,0-.02,0h-.02s-.02,0-.02,0c-.5-.18-.99-.35-1.48-.51-.94-.34-.23-1.4,.6-.88,3.34,1.17,6.67,2.35,10.07,3.34,2.24,.64,4.47,1.32,6.63,2.18,.54,.22,.29,.99-.19,.99-.07,0-.14-.01-.21-.05"/><path class="cls-8" d="M29.65,66.95c-.93-.38-1.85-.76-2.75-1.19-.47-.32-1.35-.41-1.44-1.05,0-.28,.23-.51,.52-.51,1.36,.56,2.68,1.3,4.08,1.81,.55,.22,.29,.99-.19,.99-.07,0-.14-.01-.21-.05"/><path class="cls-8" d="M29.14,68.52c-.19-.29,.06-.57,.15-.83,.2-.44,.2-1.34,.9-1.18,.75,.27,.15,1.17,.02,1.68-.07,.32-.37,.58-.65,.58-.15,0-.3-.07-.42-.25"/><path class="cls-8" d="M14.51,63.93h-.01s-.01-.01-.01-.01h-.01s-.01-.01-.01-.01h-.01s-.01-.01-.01-.01h-.01s-.01-.01-.01-.01h-.01s-.02-.01-.02-.01h-.01s-.01-.01-.01-.01h-.02s-.01-.01-.01-.01h-.02s-.01-.01-.01-.01h-.02s-.02-.01-.02-.01h-.02s-.02-.01-.02-.01h-.02s-.02-.01-.02-.01h-.02s-.02-.01-.02-.01h-.02s-.02-.01-.02-.01h-.02s-.02-.01-.02-.01h-.02s-.02-.01-.02-.01h-.02s-.02-.01-.02-.01h-.02s-.02-.01-.02-.01h-.02s-.02-.01-.02-.01h-.02s-.02-.01-.02-.01h-.02s-.02-.01-.02-.01h-.02s-.02-.01-.02-.01h-.02s-.02-.01-.02-.01h-.02s-.02,0-.02,0h-.02s-.02,0-.02,0h-.02s-.02,0-.02,0h-.02s-.02,0-.02,0h-.02s-.02,0-.02,0h-.02s-.02,0-.02,0h-.02s-.02,0-.02,0h-.02s-.02,0-.02,0h-.02s-.02,0-.02,0h0c.07-.28,.21-.53,.56-.53,.28,0,.52,.23,.52,.51-.03,.13-.05,.26-.08,.39h-.01Z"/><path class="cls-8" d="M41.85,63.31c.33-.26,.84,0,.84,.41-.01,.07-.01,.17,0,.25h-.01s-.01,0-.01,0h0s-.03,0-.03,0h-.03s-.02,0-.02,0h-.03s-.02,0-.02,0h-.02s-.02,0-.02,0h-.02s-.02,0-.02,0h-.02s-.02,0-.02,0h-.02s-.03,0-.03,0h-.03s-.02,.01-.02,.01h-.03s-.02,.01-.02,.01h-.03s-.03,.01-.03,.01h-.03s-.03,.01-.03,.01h-.03s-.03,.02-.03,.02h-.03s-.03,.02-.03,.02h-.03s-.03,.02-.03,.02h-.03s-.03,.02-.03,.02h-.03s-.03,.02-.03,.02h-.03s-.03,.02-.03,.02h-.03s-.03,.02-.03,.02h-.03s-.01,.02-.01,.02c-.03-.34-.1-.71,.18-.93"/><path class="cls-8" d="M19.65,65.06c-.21-.03-.35-.22-.33-.43,.16-1.22,.34-2.44,.53-3.66,.59-3.67,1.29-7.33,1.84-11h.01s.01,0,.01,0h.01s.01,0,.01,0h.01s0,0,0,0h.01s0,0,0,0h0s0,0,0,0h0s0,0,0,0h0s0,.01,0,.01h0s0,.01,0,.01h0s0,.01,0,.01h0s0,.01,0,.01h0s0,.01,0,.01h0s0,.02,0,.02h0s0,.02,0,.02h0s0,.02,0,.02h0s0,.02,0,.02h0s0,.02,0,.02h0s0,.02,0,.02h0s0,.02,0,.02h0s0,.02,0,.02h0s0,.02,0,.02h0s0,.02,0,.02h0s0,.02,0,.02h0s0,.02,0,.02h0s0,.02,0,.02h0s0,.02,0,.02h0s0,.02,0,.02h0s0,.02,0,.02h.01s.01,.02,.01,.02h.01s.01,.02,.01,.02h.01s.01,.02,.01,.02h.01s.01,.02,.01,.02h.01s.01,.02,.01,.02h0s.01,.02,.01,.02h.01s0,.02,0,.02h.01s.01,.02,.01,.02h0s0,.02,0,.02h.01s0,.02,0,.02h.01s0,.02,0,.02h0c-.1,.69-.2,1.38-.31,2.07-.46,2.85-1.03,5.68-1.46,8.53-.18,1.17-.36,2.34-.51,3.51-.02,.19-.19,.33-.38,.33-.02,0-.03,0-.05,0"/><path class="cls-8" d="M37.49,65.1c-.88-3.71-1.49-7.47-2.07-11.24-.2-1.27-.41-2.54-.57-3.82h0s.01-.01,.01-.01h.01s.01-.01,.01-.01h.01s.01-.01,.01-.01h.01s.01-.01,.01-.01h.01s.01-.01,.01-.01h.01s.01-.01,.01-.01h.01s.01-.01,.01-.01h.01s.01-.01,.01-.01h.01s.01-.01,.01-.01h.01s.01-.01,.01-.01h.01s.01-.01,.01-.01h.01s.01-.01,.01-.01h.01s.01-.01,.01-.01h.01s.01-.01,.01-.01h.01s.01-.01,.01-.01h.01s.01-.01,.01-.01h.01s.02-.01,.02-.01h.02s.02-.01,.02-.01h.02s.02-.01,.02-.01h.02s.02-.01,.02-.01h.02s.02-.02,.02-.02h.02s.02-.02,.02-.02h.02s.02-.02,.02-.02h.02s.03-.02,.03-.02h.03s0-.01,0-.01c.56,4.29,1.27,8.57,2.11,12.82,.16,.8,.34,1.59,.53,2.39,.08,.28-.16,.47-.39,.47-.15,0-.3-.08-.35-.27"/><path class="cls-8" d="M30.24,59.86v-.02s.03-.03,.03-.03l.02-.03,.02-.03,.02-.03,.02-.03v-.03s.03-.03,.03-.03v-.03s.03-.03,.03-.03v-.03s.03-.03,.03-.03v-.02s.02-.03,.02-.03v-.02s.02-.02,.02-.02v-.02s.02-.02,.02-.02v-.02s.02-.02,.02-.02v-.02s.02-.02,.02-.02v-.02s.02-.02,.02-.02v-.02s.02-.02,.02-.02v-.02s.02-.02,.02-.02v-.02s.02-.02,.02-.02v-.02s.02-.02,.02-.02v-.02s.03-.02,.03-.02v-.02s.03-.02,.03-.02l.02-.02,.02-.02,.02-.02,.02-.02,.02-.02,.02-.02,.02-.02,.02-.02,.02-.02,.02-.02,.02-.02,.02-.02,.02-.02,.02-.02,.02-.02,.02-.02,.02-.02,.02-.02,.02-.02,.02-.02,.02-.02,.02-.02,.02-.02,.02-.02,.02-.02,.02-.02,.02-.02,.02-.02,.02-.02,.02-.02c-.02,.15-.03,.29-.04,.43h0s-.04,.06-.04,.06l-.04,.06-.04,.05-.04,.05-.04,.05-.04,.05-.04,.05-.04,.05-.04,.05-.04,.05-.04,.05-.04,.05-.04,.05-.04,.05-.04,.04-.04,.04-.04,.04-.04,.04-.03,.04-.03,.04-.03,.03-.02,.03-.02,.03-.02,.03-.02,.02v.02s-.03,.02-.03,.02v.02s-.02,0-.02,0c0-.03-.01-.07-.02-.1"/><path class="cls-8" d="M44.57,53.2v-.04s.02-.04,.02-.04v-.03s.04,.02,.05,.03l-.03,.04-.04,.07v-.02Z"/><path class="cls-8" d="M27.48,56.58c-.07-.16-.14-.32-.2-.48h.02s.02,0,.02,0h.02s.02,0,.02,0h.02s.02,0,.02,0h.02s.02,0,.02,0h.02s.02,0,.02,0h.02s.02,0,.02,0h.02s.02,0,.02,0h.02s.02,0,.02,0h.02s.02,0,.02,0h.02s.02,0,.02,0h.02s.02,0,.02,0h.02s.02,0,.02,0h.02s.02,0,.02,0h.02s.02,0,.02,0h.02s.02,0,.02,0h.02s.02,0,.02,0h.02s.02,0,.02,0h.02s.02,0,.02,0h.02s.02,0,.02,0h.02s.02,0,.02,0h.02s.02,0,.02,0h.02s.02,0,.02,0h.02s.02,0,.02,0h.02s.02,0,.02,0h.02s.02,0,.02,0h.02s.02,0,.02,0h.02s.02,0,.02,0h.02s.02,0,.02,0h.02s.02,.01,.02,.01h.02s.02,.01,.02,.01h.02s.02,.02,.02,.02c0,0,0,.02,0,.03,.01,.03,.02,.06,.04,.09h-.01s-.02,0-.02,0h-.02s-.02,0-.02,0h-.02s-.02,0-.02,0h-.02s-.02,0-.02,0h-.02s-.02,0-.02,0h-.02s-.02,.01-.02,.01h-.02s-.02,.01-.02,.01h-.02s-.02,.01-.02,.01h-.02s-.02,.01-.02,.01h-.02s-.02,.01-.02,.01h-.02s-.02,.01-.02,.01h-.02s-.02,.01-.02,.01h-.02s-.02,.01-.02,.01h-.02s-.02,.02-.02,.02h-.02s-.02,.02-.02,.02h-.03s-.03,.02-.03,.02h-.03s-.03,.02-.03,.02h-.03s-.03,.02-.03,.02h-.03s-.03,.02-.03,.02h-.02s-.02,.01-.02,.01h-.02s-.01,.01-.01,.01c-.02-.03-.04-.07-.06-.11"/><path class="cls-8" d="M27.84,56.18h.01s.02,0,.02,0h.02s.02,0,.02,0h.02s.02,0,.02,0h.02s.02,0,.02,0h.02s.02,0,.02,0h.02s.02,0,.02,0h.02s.02,0,.02,0h.02s.02,0,.02,0h.02s.02,0,.02,0h.02s.02,0,.02,0h.02s.02,0,.02,0h.02s.02,.01,.02,.01h.02s.02,.01,.02,.01h.02s.02,.01,.02,.01h.02s.02,.02,.02,.02c0,0,0,.02,0,.03,.01,.03,.03,.06,.04,.09h-.01s-.02,0-.02,0h-.02s-.02,0-.02,0h-.02s-.02,0-.02,0h-.02s-.02,0-.02,0h-.02s-.02,0-.02,0h-.02s-.02,.01-.02,.01h-.02s-.02,.01-.02,.01h-.02s-.02,.01-.02,.01h-.02s-.02,.01-.02,.01h-.02s-.02,.01-.02,.01h-.02s-.02,.01-.02,.01h-.02s-.02,.01-.02,.01h-.02s-.02,.01-.02,.01h-.02s-.02,.02-.02,.02h-.02s-.03,.02-.03,.02h-.03s-.03,.02-.03,.02h-.03s-.03,.02-.03,.02h-.03s-.03,.02-.03,.02h-.03s-.03,.02-.03,.02h-.02s-.02,.02-.02,.02h-.02c.09-.2,.19-.38,.28-.5"/><path class="cls-8" d="M14.63,54.39c-.83-2.39-1.81-4.8-1.92-7.34,.12-.8,1.23-.53,1.03,.25,.17,1.73,.69,3.41,1.25,5.06,.15,.68,.67,1.34,.59,2.04-.08,.2-.28,.31-.48,.31s-.4-.1-.47-.31"/><path class="cls-8" d="M12.53,55.13c.24-1.4,.47-2.67,.79-4.01,.1-.33,.11-.75,.42-.96,.38-.24,.9,.15,.77,.58-.43,1.51-.71,3.07-.97,4.62h0s-.02,.01-.02,.01h-.02s-.02,.03-.02,.03l-.02,.02h-.02s-.02,.03-.02,.03l-.02,.02-.02,.02-.02,.02-.02,.02-.02,.02-.02,.02-.02,.02-.02,.02-.02,.02-.02,.02-.02,.02-.02,.02-.02,.02v.02s-.03,.02-.03,.02v.02s-.03,.01-.03,.01h-.01s-.01,.03-.01,.03h-.01s-.01,.03-.01,.03h-.01s-.01,.03-.01,.03h-.01s0,.03,0,.03h-.01s-.01,.03-.01,.03h0s-.01,.03-.01,.03h0s0,.03,0,.03h0s0,.03,0,.03h0s0,.03,0,.03h0s0,.03,0,.03h0s0,.02,0,.02h0s0,.02,0,.02h0s0,.02,0,.02h0s0,.02,0,.02h0s0,.02,0,.02h0s0,.02,0,.02h0s0,.02,0,.02h0s0,.02,0,.02h0s0,.02,0,.02h0s0,.02,0,.02h0s0,.02,0,.02h0s0,.02,0,.02h0s0,.02,0,.02h0s0,.02,0,.02h0s0,.02,0,.02h0s0,.02,0,.02h0s0,.02,0,.02h0s0,.02,0,.02h0s0,.02,0,.02h0s0,.02,0,.02h0s0,.02,0,.02h0s0,.02,0,.02h0s0,.02,0,.02h0s0,.02,0,.02h0s0,.02,0,.02h0s0,.02,0,.02h0s0,.02,0,.02h0s0,.02,0,.02h0s0,.02,0,.02h0s0,.02,0,.02h0s0,.02,0,.02h0s0,.02,0,.02h0s0,.02,0,.02h0s0,.02,0,.02h0s0,.02,0,.02h0s0,.02,0,.02h0s0,.02,0,.02h0s0,.02,0,.02h0s0,.02,0,.02h0s0,.02,0,.02h0s0,.02,0,.02h0s0,.02,0,.02h0s0,.02,0,.02h0s0,.02,0,.02h0s0,.02,0,.02h0s0,.02,0,.02h0s0,.02,0,.02h0s0,.02,0,.02h0s0,.02,0,.02h0s0,.02,0,.02h0s0,.02,0,.02h0s0,.02,0,.02h0s0,.02,0,.02h0s0,.02,0,.02h0s0,.02,0,.02h0s0,.02,0,.02h0s0,.01,0,.01c.12-.68,.24-1.36,.36-2.04"/><path class="cls-8" d="M12.02,56.98v-.02s.01-.02,.01-.02v-.02s.01-.02,.01-.02v-.02s.01-.02,.01-.02v-.02s.01-.02,.01-.02v-.02s.01-.02,.01-.02v-.02s.01-.02,.01-.02v-.02s.01-.02,.01-.02v-.02s.01-.02,.01-.02v-.02s.01-.02,.01-.02v-.02s.02-.03,.02-.03v-.02s.02-.03,.02-.03v-.03s.02-.03,.02-.03v-.03s.02-.04,.02-.04v-.04s.02-.04,.02-.04v-.04s.02-.04,.02-.04v-.04s.02-.05,.02-.05v-.05s.02-.05,.02-.05v-.05s.02-.05,.02-.05v-.05s.02-.05,.02-.05v-.05s.02-.05,.02-.05v-.05s.02-.05,.02-.05v-.05s.02-.05,.02-.05v-.05s.02-.05,.02-.05v-.05s.02-.05,.02-.05v-.05s.02-.05,.02-.05v-.05s.02-.05,.02-.05v-.05s.02-.05,.02-.05v-.05s.02-.05,.02-.05v-.05s.01-.05,.01-.05v-.05s.01-.04,.01-.04v-.04s.01-.04,.01-.04v-.04s.01-.04,.01-.04v-.04s.01-.04,.01-.04v-.04s.01-.04,.01-.04v-.04s.01-.04,.01-.04v-.02c.17-.27,.33-.55,.49-.82,.14-.24,.47-.32,.71-.18,.25,.14,.32,.46,.19,.7-.48,.86-1.02,1.69-1.57,2.5-.11,.16-.22,.32-.35,.49h0Z"/><path class="cls-8" d="M22.44,50.83l-.03-.03-.03-.03-.03-.03-.03-.03-.03-.03-.03-.03-.03-.03-.03-.03-.03-.03-.03-.03-.03-.03-.03-.02-.03-.02-.03-.02-.03-.02-.03-.02h-.03s-.03-.03-.03-.03h-.02s-.02-.02-.02-.02h-.02s-.02-.01-.02-.01h-.02s0,0,0,0c.02-.1,.03-.2,.04-.31h0s0,0,0,0h0s0,.01,0,.01h0s0,.01,0,.01h0s0,.01,0,.01h0s0,.01,0,.01h0s0,.02,0,.02h0s0,.02,0,.02h0s0,.02,0,.02h0s0,.02,0,.02h0s0,.02,0,.02h0s0,.02,0,.02h0s0,.02,0,.02h0s0,.02,0,.02h0s0,.02,0,.02h0s0,.02,0,.02h0s0,.02,0,.02h0s0,.02,0,.02h0s0,.02,0,.02h0s0,.02,0,.02h0s0,.02,0,.02h.01s.01,.02,.01,.02h.01s.01,.02,.01,.02h.01s.01,.02,.01,.02h.01s.01,.02,.01,.02h.01s.01,.02,.01,.02h0s.01,.02,.01,.02h.01s0,.02,0,.02h.01s.01,.02,.01,.02h0s.01,.02,.01,.02h0s0,.02,0,.02h0s0,.02,0,.02h0s0,.02,0,.02h0s0,.02,0,.02h0s0,.01,0,.01h.01s0,.01,0,.01h0s0,.01,0,.01h0s0,.01,0,.01h0s0,.01,0,.01h0s-.01,.08-.02,.12l-.03-.03Z"/><polyline class="cls-8" points="34.74 50.1 34.75 50.1 34.76 50.09 34.77 50.09 34.77 50.09 34.75 50.1 34.75 50.1 34.74 50.1"/><polygon class="cls-8" points="35.4 49.77 35.42 49.76 35.44 49.76 35.46 49.75 35.49 49.74 35.5 49.73 35.5 49.74 35.49 49.74 35.47 49.75 35.44 49.76 35.42 49.77 35.4 49.77 35.39 49.78 35.4 49.77"/><path class="cls-8" d="M30.26,59.85h0s.01-.02,.01-.02v-.02s.03-.02,.03-.02l.02-.02,.02-.03,.02-.03,.02-.03,.03-.03,.03-.04,.03-.04,.03-.04,.04-.04,.04-.04,.04-.05,.04-.04,.04-.05,.04-.05,.04-.05,.04-.05,.04-.05,.04-.05,.04-.05,.04-.05,.04-.05,.04-.05,.04-.05,.04-.05,.04-.06c0,.19,0,.38,0,.58h0s-.02,.02-.02,.02l-.02,.02-.02,.02-.02,.02-.02,.02-.02,.02-.02,.02-.02,.02-.02,.02-.02,.02-.02,.02-.02,.02-.02,.02-.02,.02-.02,.02-.02,.02-.02,.02-.02,.02-.02,.02-.02,.02-.02,.02-.02,.02-.02,.02-.02,.02-.02,.02-.02,.02-.02,.02v.02s-.03,.02-.03,.02v.02s-.03,.02-.03,.02v.02s-.02,.02-.02,.02v.02s-.02,.02-.02,.02v.02s-.02,.02-.02,.02v.02s-.02,.02-.02,.02v.02s-.02,.02-.02,.02v.02s-.02,.02-.02,.02v.02s-.02,.02-.02,.02v.02s-.02,.02-.02,.02v.02s-.02,.02-.02,.02v.02s-.02,.03-.02,.03v.02s-.03,.03-.03,.03v.03s-.03,.03-.03,.03c-.04-.2-.08-.4-.12-.61"/><path class="cls-8" d="M44.07,54.6v-.02s0-.02,0-.02v-.02s0-.02,0-.02v-.02s0-.02,0-.02v-.02s.01-.02,.01-.02v-.02s0-.02,0-.02v-.03s.01-.03,.01-.03v-.03s.01-.03,.01-.03v-.03s.01-.03,.01-.03v-.03s.02-.03,.02-.03v-.03s.02-.03,.02-.03v-.03s.02-.03,.02-.03v-.03s.02-.03,.02-.03v-.03s.02-.03,.02-.03v-.04s.02-.04,.02-.04v-.04s.03-.04,.03-.04v-.04s.03-.04,.03-.04l.02-.05,.02-.05,.02-.05,.02-.05,.03-.06,.03-.06h0c-.13,.46-.26,.91-.39,1.29h0Z"/><path class="cls-8" d="M43.98,55.05h0s0-.02,0-.02h0s0-.03,0-.03h0s0-.03,0-.03h0s0-.03,0-.03h0s0-.03,0-.03v-.02s0-.02,0-.02h0s0-.03,0-.03v-.02s0-.02,0-.02v-.02s0-.02,0-.02v-.02s0-.02,0-.02v-.02s0-.02,0-.02v-.02s0-.02,0-.02v-.02s0-.02,0-.02v-.02s0-.02,0-.02v-.02s0-.02,0-.02v-.02s0-.02,0-.02v-.02s0-.02,0-.02v-.02s0-.02,0-.02v-.02s.01-.03,.01-.03v-.03s.01-.03,.01-.03v-.03s.01-.03,.01-.03v-.03s.01-.03,.01-.03v-.03s.02-.03,.02-.03v-.03s.02-.03,.02-.03v-.03s.02-.03,.02-.03v-.03s.02-.03,.02-.03v-.03s.02-.03,.02-.03v-.04s.02-.04,.02-.04v-.04s.03-.04,.03-.04l.02-.04,.02-.04,.02-.05,.02-.05,.02-.05,.02-.05,.03-.05,.03-.06,.03-.06,.04-.07,.04-.07,.05-.07,.03-.04c.08,.07,.14,.18,.15,.32v.03s-.03,.05-.03,.05l-.02,.05-.02,.05-.02,.05-.02,.05v.05s-.03,.05-.03,.05v.05s-.03,.05-.03,.05v.05s-.02,.04-.02,.04v.05s-.02,.04-.02,.04v.04s-.02,.04-.02,.04v.04s-.02,.04-.02,.04v.04s-.01,.04-.01,.04v.04s-.01,.03-.01,.03v.04s-.01,.03-.01,.03v.03s-.01,.03-.01,.03v.03s-.01,.03-.01,.03v.03s-.01,.03-.01,.03v.03s-.01,.04-.01,.04v.03s-.01,.04-.01,.04v.04s-.01,.03-.01,.03v.04s-.01,.04-.01,.04v.03s-.01,.04-.01,.04v.03s-.01,.04-.01,.04v.03s-.01,.03-.01,.03v.03s-.01,.03-.01,.03v.03s-.01,.03-.01,.03v.03s-.01,.03-.01,.03v.02s0,.02,0,.02v.02s0,.02,0,.02v.02s0,.02,0,.02v.02s0,.02,0,.02v.02s-.01,.02-.01,.02v.02s0,.02,0,.02v.02s0,.02,0,.02v.02s-.01,.02-.01,.02v.02s-.01,.02-.01,.02v.02s-.01,.02-.01,.02v.02s-.01,.02-.01,.02v.02s-.01,.02-.01,.02v.02s-.01,.02-.01,.02v.02s-.01,.02-.01,.02v.02s-.02,.02-.02,.02v.02s-.02,.02-.02,.02v.02s-.02,.02-.02,.02v.02s-.02,.02-.02,.02v.02s-.02,.02-.02,.02v.02s-.02,.02-.02,.02v.02c-.06-.33-.11-.65-.16-.98"/><path class="cls-8" d="M27.54,56.58h.01s.02-.01,.02-.01h.02s.02-.01,.02-.01h.03s.03-.02,.03-.02h.03s.03-.02,.03-.02h.03s.03-.02,.03-.02h.03s.03-.02,.03-.02h.02s.02-.02,.02-.02h.02s.02-.02,.02-.02h.02s.02-.01,.02-.01h.02s.02-.01,.02-.01h.02s.02-.01,.02-.01h.02s.02-.01,.02-.01h.02s.02-.01,.02-.01h.02s.02-.01,.02-.01h0s.02,.1,.04,.15c.01,.06,.03,.11,.04,.17-.09,.06-.2,.09-.31,.09-.15,0-.29-.06-.39-.2"/><path class="cls-8" d="M28.33,57.16h-.02s-.02-.02-.02-.02h-.02s-.02-.01-.02-.01h-.02s-.02-.01-.02-.01h-.02s-.02,0-.02,0h-.02s-.02,0-.02,0h-.02s-.02,0-.02,0h-.02s-.02,0-.02,0h-.02s-.02,0-.02,0h-.02s-.02,0-.02,0h-.02s-.02,0-.02,0h-.02s-.02,0-.02,0h-.02s-.02,0-.02,0h-.02s-.02,0-.02,0h-.02s-.02,0-.02,0h-.02s-.02,0-.02,0h-.02s-.02,0-.02,0h-.02s-.02,0-.02,0h-.02s-.02,0-.02,0h-.02s-.02,0-.02,0h-.02s-.02,0-.02,0h-.02s-.02,0-.02,0h-.02s-.02,0-.02,0h-.02s-.02,0-.02,0h-.02s-.02,0-.02,0h-.02s-.02,0-.02,0h-.02s-.02,0-.02,0h-.02s-.02,0-.02,0h-.02c.05-.15,.11-.29,.16-.41h.02s.02-.01,.02-.01h.02s.03-.02,.03-.02h.03s.03-.02,.03-.02h.03s.03-.02,.03-.02h.03s.03-.02,.03-.02h.03s.03-.02,.03-.02h.02s.02-.02,.02-.02h.02s.02-.02,.02-.02h.02s.02-.01,.02-.01h.02s.02-.01,.02-.01h.02s.02-.01,.02-.01h.02s.02-.01,.02-.01h.02s.02-.01,.02-.01h.02s0,0,0,0c.01,.05,.03,.1,.04,.15,.04,.18,.07,.35,.12,.53,0,0,0,0,0,0,0,0,0,0,0,0h0s.02,.08,.03,.13h-.02Z"/><path class="cls-8" d="M12.17,57.06h0s0-.01,0-.01h0s0-.02,0-.02h0s0-.02,0-.02h0s0-.02,0-.02h0s0-.02,0-.02h0s0-.02,0-.02h0s0-.02,0-.02h0s0-.02,0-.02h0s0-.01,0-.01v.02s-.01,.05-.01,.05v.05s-.02,.05-.02,.05v.04s-.02,.04-.02,.04v.04s-.02,.04-.02,.04v.04s-.02,.04-.02,.04v.03s-.02,.03-.02,.03v.03s-.02,.03-.02,.03v.02s-.02,.03-.02,.03v.02s-.01,.02-.01,.02v.02s-.02,.02-.02,.02v.02s-.01,.02-.01,.02v.02s-.01,.02-.01,.02v.02s-.01,.02-.01,.02v.02s-.01,.02-.01,.02v.02s-.01,.02-.01,.02h0c.04-.22,.08-.46,.12-.69"/><path class="cls-8" d="M22.36,51.49h0s0-.02,0-.02h0s0-.02,0-.02h-.01s0-.02,0-.02h-.01s-.01-.02-.01-.02h0s0-.02,0-.02h-.01s0-.02,0-.02h-.01s-.01-.02-.01-.02h-.01s-.01-.02-.01-.02h-.01s-.01-.02-.01-.02h-.01s-.01-.02-.01-.02h-.01s0-.02,0-.02h-.01s0-.02,0-.02h0s0-.02,0-.02h0s0-.02,0-.02h0s0-.02,0-.02h0s0-.02,0-.02h0s0-.02,0-.02h0s0-.02,0-.02h0s0-.02,0-.02h0s0-.02,0-.02h0s0-.02,0-.02h0s0-.02,0-.02h0s0-.02,0-.02h0s0-.02,0-.02h0s0-.02,0-.02h0s0-.02,0-.02h0s0-.01,0-.01h0s0-.01,0-.01h0s0-.01,0-.01h0s0-.01,0-.01h0s0-.01,0-.01h0s0-.01,0-.01h0s0-.01,0-.01h0s0,0,0,0h0s-.01,0-.01,0h0s-.01,0-.01,0h-.01s-.01,0-.01,0h-.01s0,0,0,0c.03-.2,.06-.4,.09-.6h.02s.02,.01,.02,.01h.02s.02,.02,.02,.02h.02s.03,.02,.03,.02h.03s.03,.03,.03,.03l.03,.02,.03,.02,.03,.02,.03,.02,.03,.02,.03,.03,.03,.03,.03,.03,.03,.03,.03,.03,.03,.03,.03,.03,.03,.03,.03,.03,.03,.03,.03,.03-.11,.74"/><path class="cls-8" d="M34.77,50.25c0-.08-.02-.16-.03-.25h0s.02-.02,.02-.02h.02s.02-.02,.02-.02h.02s.02-.02,.02-.02h.02s.02-.02,.02-.02h.02s.02-.02,.02-.02h.02s.02-.02,.02-.02h.02s.02-.02,.02-.02h.02s.02-.02,.02-.02h.02s.02-.02,.02-.02h.02s.02-.02,.02-.02h.02s.02-.02,.02-.02h.02s.02-.02,.02-.02h.02s.02-.02,.02-.02h.02s.02-.02,.02-.02h.02s.02-.02,.02-.02h.02s.02-.02,.02-.02h.02s.02-.02,.02-.02h.02s.02-.01,.02-.01h.02s.02-.02,.02-.02h.02s.01-.01,.01-.01c0,.02,0,.05-.02,.07,.04,.29,.07,.57,.11,.86h0s-.03,.01-.03,.01h-.03s-.02,.02-.02,.02h-.02s-.02,.02-.02,.02h-.02s-.02,.02-.02,.02h-.02s-.02,.02-.02,.02h-.02s-.02,.02-.02,.02h-.02s-.02,.01-.02,.01h-.02s-.02,.01-.02,.01h-.02s-.01,.01-.01,.01h-.01s-.01,.01-.01,.01h-.01s-.01,.01-.01,.01h-.01s-.01,.01-.01,.01h-.01s-.01,.01-.01,.01h-.01s-.01,.01-.01,.01h-.01s-.01,.01-.01,.01h-.01s-.01,.01-.01,.01h-.01s-.01,.01-.01,.01h-.01s-.01,.01-.01,.01h-.01s-.01,.01-.01,.01h-.01s-.01,.01-.01,.01h-.01s-.01,.01-.01,.01h-.01s-.01,.01-.01,.01h-.01s-.01,.01-.01,.01h-.01s-.01,.01-.01,.01h-.01s0,0,0,0c-.03-.22-.05-.44-.08-.66"/><path class="cls-8" d="M43.58,33.93c-.12-.09-.25-.16-.39-.23-.23-.1-.48-.17-.74-.18-.08-.06-.16-.12-.24-.17-.06-.09-.12-.17-.18-.25,0-.1-.01-.19-.02-.28,.36,.15,.7,.32,1.04,.51,.34,.2,.66,.43,.98,.67-.15-.04-.29-.06-.44-.06"/><path class="cls-8" d="M48,42.29s.06-.03,.09-.05c0,.03,.01,.06,.02,.08-.03,0-.07-.02-.1-.03"/><path class="cls-8" d="M46.02,33.99h.04s.05,0,.05,0h.05s.05,0,.05,0h.05s.05,0,.05,0h.05s.05,0,.05,0h.05s.05,0,.05,0h.05s.05,0,.05,0h.05s.04,0,.04,0h.05s.05,0,.05,0h.04s.04,0,.04,0h.04s.04,0,.04,0h.04s.04,0,.04,0h0c.01,.15,.02,.3,.03,.45-.03,0-.07,0-.1,0-.28,.02-.55,.1-.79,.23-.02,0-.05,.01-.07,.02-.02-.25-.04-.5-.07-.75"/><path class="cls-8" d="M51.5,34.16s-.02-.06-.03-.08h.02s.07,0,.07,0h.07s.06-.01,.06-.01h.06s.06-.01,.06-.01h.06s.06,0,.06,0h.06s.06,0,.06,0h.06s.06,0,.06,0h.05s.06,0,.06,0h.05s.06,0,.06,0h.06s.06,0,.06,0h.02c.11,.27,.23,.54,.34,.81-.23,.05-.46,.12-.68,.19,0,0,0,0,0,0-.1,0-.2,0-.3,.01-.12-.29-.24-.59-.35-.89"/><path class="cls-8" d="M45.04,33.15c-.18-.14-.41-.18-.62-.26-.25-.1-.49-.25-.76-.31-.5-.1-1.06,.05-1.5-.27-.1-.07-.19-.15-.26-.24-.01-.04-.02-.08-.03-.11-.06-.23-.16-.44-.29-.63,0-.07,0-.13,0-.2,.06-.66-.04-1.42,.35-2,1.18-1.36,2.88-1.28,3.47-3.33,.3-.79,.56-1.6,.88-2.39,.21-.7,.29-1.45,.63-2.1,.25-.57,1.8-1.25,1.9-.29-.03,.73-1.05,.28-1.15,1.01-.16,.43-.26,.89-.35,1.34-.22,.73-.53,1.44-.77,2.16-.48,1.6-1.25,2.69-2.8,3.42-.39,.23-.87,.47-1.08,.89-.02,.47-.24,1.21,0,1.62,.16,.15,.37,.14,.59,.13,.14,0,.28,0,.41,.03,.45,.04,.78,.23,1.13,.38,.22,.07,.45,.13,.65,.25,.4-.28,.51-.8,.39-1.25-.34-.27-.71-.56-1.14-.66-.77-.16-.54-1.67,1.19-.51,.76,.47,1.07,.91,.95,1.82-.04,.63-.68,1.61-1.39,1.61-.13,0-.26-.03-.38-.1"/><path class="cls-8" d="M48.77,25c-.63-.18-1.63-1.82-.54-1.97,.61,0,.41,.83,.87,1.05,.79-.06,.83-.5,.7-1.16-.11-.52,.01-1.75-.81-1.59-.32,.08-.63,.21-.96,.26-.56,0-.66-.82-.12-.95,1.29-.48,2.4-.44,2.7,1.12,.1,.41,.12,.84,.17,1.27,.05,.34,.11,.71-.07,1.03-.23,.61-.93,.99-1.58,.99-.13,0-.25-.01-.37-.04"/><path class="cls-8" d="M52.1,26.53c-.92-.22-1.61-1.25-1.25-2.17,.14-.39,.75-.38,.9,0,.1,.24-.07,.48,.01,.72,.14,.4,.66,.66,1.02,.37,.05-.88,.21-1.75,.22-2.62-.36-.28-.82-.52-1.23-.63-.2,.43-.49,.8-.67,1.23-.25,.35-.3,.99-.81,1.02-.26,0-.49-.22-.49-.48,0-.21,.14-.37,.21-.55,.27-.56,.59-1.1,.89-1.65,.39-.76,1.21-.59,1.81-.23,.39,.14,.71,.39,1.04,.63,.47,.6,.12,1.53,.08,2.23-.02,1.28-.11,2.13-1.54,2.13-.06,0-.13,0-.19,0"/><path class="cls-8" d="M54.26,28.35c-.53-.21-.99-.66-.99-1.25-.06-.44-.08-.92,.23-1.28-.46,.41-1.1-.28-.66-.71,.55-.32,2.03-1.75,2.59-1.17,.52,.81,1.78,1.62,1.25,2.71-.31,.41-.74,.72-1.04,1.14-.28,.36-.56,.65-.96,.65-.13,0-.27-.03-.42-.1m0-1.93c-.14,.22-.02,.51,0,.76,.06,.14,.24,.22,.38,.29,.38-.44,.76-.89,1.19-1.29,.03-.16-.09-.27-.18-.39-.21-.34-.49-.62-.75-.91-.37,.23-.75,.45-1.09,.73,.04,0,.08-.01,.12-.01,.39,0,.64,.52,.34,.83"/><path class="cls-8" d="M50.95,33.36c-.57,0-1.05-.32-1.6-.39-.37-.03-.88,0-.89-.51,.06-.75,1.03-.43,1.5-.37,.4,.17,.8,.32,1.24,.33,.19,.03,.34-.07,.5-.15,.41-.18,.84-.34,1.23-.58,.25-.22,.53-.4,.78-.61,.16-.21,.36-.38,.52-.59,.08-.14,.15-.3,.28-.4,.35-.21,.87-.54,1.19-.12,.14,.2,.11,.44,.16,.67,.12,.36,.2,.78,.56,.97,.2-.79,.39-1.66,.27-2.48-.25-.26-.6-.38-.83-.66-.34-.16-.84-.32-.93-.73-.04-.55,.56-.7,.93-.36,.18,.14,.4,.18,.58,.3,.24,.26,.56,.41,.82,.65,.44,.3,.45,.84,.45,1.32,.02,.52-.12,1.03-.19,1.54-.07,.38-.08,.83-.4,1.1-.88,.87-1.93-.3-2.13-1.19-.65,.81-1.48,1.48-2.45,1.87-.43,.18-.84,.43-1.31,.43-.1,0-.19,0-.29-.03"/><path class="cls-8" d="M47.11,34.46h-.04s-.04,0-.04,0h-.04s-.04,0-.04,0h-.04s-.04,0-.04,0h-.05s-.05,0-.05,0h-.05s-.05,0-.05,0h-.05s-.05,0-.05,0h-.05s-.05,0-.05,0h-.05s-.05,0-.05,0h-.05s-.05,0-.05,0h-.05s-.05,0-.05,0h-.05s-.04,0-.04,0c-.08-.95-.16-1.9-.2-2.84,.27-.69,1.13-.32,.95,.37,.12,.83,.18,1.67,.24,2.52h0Z"/><path class="cls-8" d="M51.16,32.69c.29-.5,1.09-.12,.87,.42,.19,.45,.38,.91,.57,1.36h-.02s-.06,0-.06,0h-.05s-.06,0-.06,0h-.06s-.05,0-.05,0h-.16s-.06,0-.06,0h-.06s-.06,0-.06,0h-.06s-.06,0-.06,0h-.06s-.06,.01-.06,.01h-.06s-.07,.01-.07,.01h-.02c-.2-.59-.75-1.2-.42-1.81"/><path class="cls-8" d="M14.26,37.2s-.06-.05-.09-.08c-.05-.04-.11-.09-.16-.13-.15-.11-.3-.24-.49-.26,0,0,0,0,0,0,0,0,0,0,0,0,.03-.02,.05-.04,.07-.06,.51-.39,1.04-.75,1.59-1.09-.02,.05-.04,.11-.05,.16-.08,.3-.07,.63-.08,.95,0,.06,0,.13,0,.19-.02,0-.03,.02-.04,.03-.19,.13-.38,.26-.57,.4-.05-.04-.1-.08-.16-.12"/><path class="cls-8" d="M12.88,44.26c.07-.34,.14-.68,.22-1.02,.17,.05,.33,.1,.5,.16-.05,.09-.1,.19-.15,.28-.07,.13-.14,.27-.2,.4-.04,.08-.08,.17-.11,.25-.09-.03-.17-.05-.26-.08"/><path class="cls-8" d="M13.53,43.61s0,.01,0,.02c0,0,0,0,0,0,0,0,0-.01,.01-.02"/><path class="cls-8" d="M13.28,42.44c.06-.25,.12-.49,.18-.74,.09,.04,.18,.07,.27,.08,.12,.03,.23,.06,.35,.08-.02,.05-.03,.1-.05,.15,0,0,0,0,0-.01,0,0,0,.01,0,.02,0,0,0,0,0,0,0,0,0,.01,0,.02,0,0,0,0,0,.01h0s0,0,0,0c0,0,0,0,0,0,0,0,0,0,0,0h0s-.02,.05-.03,.08c-.05,.14-.09,.27-.14,.41,0,.02-.01,.03-.02,.05-.19-.05-.37-.1-.55-.16"/><path class="cls-8" d="M10.28,37.91c-.3-.68-.61-1.36-.93-2.04-.1,.46-.19,.95-.5,1.32-.54,.59-1.56,.66-2.13,.07-.42-.54-.24-1.26-.22-1.89,.1-.48-.17-1.05,.19-1.45,1.25-1.05,2.7-.88,3.19,.79,.33,.82,.78,1.58,1.09,2.4,.18,.32,.4,.8-.04,1.02-.07,.03-.14,.05-.21,.05-.18,0-.36-.1-.44-.26m-2.81-3.38c.1,.69-.14,1.41,0,2.09,.1,.07,.22,.11,.35,.08,.52-.07,.51-.75,.6-1.15-.07-.33,.14-.68,.5-.66-.13-.48-.37-.67-.67-.67-.23,0-.5,.12-.77,.3"/><path class="cls-8" d="M4.53,39.53c-.86-.18-.82-1.22-.91-1.9-.05-.37-.21-.73-.22-1.1-.06-.56,.46-.86,.94-.98,.44-.17,.97-.32,1.41-.08,.31,.19,.6,.43,.92,.58,.26,0,.48,.19,.5,.45,.03,.43-.47,.62-.82,.46-.97-.42-.87-.93-1.99-.41,.2,.67,.2,1.37,.38,2.04,.69,.06,.95-.25,.89-.92-.03-.63,.92-.69,.97-.06,.13,1.2-.59,1.95-1.7,1.95-.12,0-.25,0-.38-.03"/><path class="cls-8" d="M5.83,39.7c-.14-.39-.5-.82-.25-1.24,.14-.22,.46-.28,.67-.13,.14,.09,.21,.25,.21,.41,.09,.22,.2,.43,.29,.64,.13,.37-.18,.63-.48,.63-.18,0-.36-.09-.44-.32"/><path class="cls-8" d="M7.98,38.65c-.26-.37-.69-.63-.83-1.07-.21-.71,.83-.99,.95-.25,.29,.37,1.06,.86,.57,1.36-.09,.08-.21,.12-.32,.12-.14,0-.27-.05-.36-.16"/><path class="cls-8" d="M2.41,41.43s.02,0,.03,0c0,0-.02,0-.02,0t0,0"/><path class="cls-8" d="M2.49,41.41c-.05,0-.11-.01-.16-.01-.19-.09-.31-.24-.37-.44,0-.06,0-.12,0-.18,0-.14-.01-.29-.02-.43,0-.02,0-.03,0-.05,0-.48-.05-.93-.07-1.4-.19-.97,.79-1.37,1.56-1.6,.49-.55,1.2,.27,.68,.73-.38,.26-.89,.28-1.27,.56-.01,.65,.11,1.29,.06,1.93,.36,.05,.57-.23,.71-.52,.2-.24,.25-.53,.19-.83-.04-.63,.92-.69,.97-.06,.12,.74-.29,1.68-.96,2.12-.14-.01-.27,0-.4,.05,0,0-.02,0-.02,0h0c-.09,.01-.17,.02-.25,.03-.09,.02-.18,.05-.28,.07-.01,0-.02,0-.03,0-.02,0-.04,0-.05,0-.03,0-.06,0-.09,0-.06,0-.11,0-.16,.01,0,0-.01,0-.02,0"/><path class="cls-8" d="M4.42,41.74c-.06-.16-.17-.31-.31-.4-.08-.19-.24-.34-.32-.53-.42-.75,.76-1.26,.9-.38,.69,.8,.35,1.35-.06,1.35-.07,0-.14-.02-.21-.05"/><path class="cls-8" d="M3.58,41.23c-.06,0-.12,.02-.17,.05,0,0-.01,0-.02,0h0c-.09,.01-.17,.02-.25,.03-.09,.02-.18,.05-.27,.07,.13-.25,.49-.31,.72-.16"/><path class="cls-8" d="M1.96,41.04c0-.09,0-.18,0-.26-.01-.33-.04-.66-.05-.99,.33-.11,.64-.06,.72,.39,.04,.41-.4,.48-.66,.67,0,.07,0,.13,0,.2,0,0,0,0,0,0"/><path class="cls-8" d="M6.35,46.91s-.03-.01-.04-.02h0s-.01-.02-.01-.02h-.02s-.01-.03-.01-.03h-.01s-.01-.03-.01-.03h-.01s-.01-.03-.01-.03h-.01s-.01-.02-.01-.02h-.01s-.01-.02-.01-.02h-.01s-.01-.02-.01-.02h-.01s-.01-.02-.01-.02h-.01s-.01-.02-.01-.02h-.01s-.01-.02-.01-.02h-.01s0-.02,0-.02h-.01s0-.01,0-.01h-.01s0-.01,0-.01h0s0-.01,0-.01h0s0-.01,0-.01h0s0,0,0,0h0s0,0,0,0h0s0,0,0,0h0s0,0,0,0h0s0,0,0,0h0s0,0,0,0h0s0,0,0,0h-.01s0,0,0,0h0s-.01,0-.01,0h-.01s0,0,0,0h-.01s-.01,0-.01,0h-.01s-.01,0-.01,0h-.01s-.01,0-.01,0h-.01s-.01,0-.01,0h-.01s-.01,0-.01,0h-.01s-.01,0-.01,0h-.01s-.01,0-.01,0h-.02s-.01,0-.01,0h-.1s-.01,0-.01,0h-.03s-.01,0-.01,0h-.01s-.01,0-.01,0h-.02s-.01,0-.01,0c-.02,0-.03-.02-.05-.03,0,0,0,0,0,0-.02-.03-.05-.04-.08-.05-.01,0-.03,0-.04-.01-.66-.38-1.17-.9-1.42-1.74-.22-.41-.37-.85-.5-1.3,.05-.04,.08-.09,.11-.14,.01-.03,.03-.05,.05-.08t0,0s0,0,.01,0c.03,0,.05-.01,.08-.02,.06,0,.12-.01,.18-.02,.1,0,.2,0,.29,0,0,0,0,0,0,0,.07,.08,.16,.14,.25,.18,.13,.4,.3,.79,.48,1.18,.15,.45,.44,.84,.86,1.07,.33,.17,.69,.29,1.03,.45,.53,.18,.34,.94-.15,.94-.05,0-.11,0-.17-.03"/><path class="cls-8" d="M3.29,41.3s-.05,0-.08,0c.02,0,.05,0,.08,0"/><path class="cls-8" d="M11.15,40.01c-.99-.14-1.53-1.29-.82-2.06,.47-.49,1.13-.74,1.64-1.18,.17-.59,1.1-.34,.96,.26-.31,.8-1.33,.99-1.88,1.57-.28,.4,.42,.55,.7,.47,.35-.15,.84-.46,1.08,.01,.25,.65-.68,.96-1.32,.96-.14,0-.26-.01-.36-.04"/><path class="cls-8" d="M11.22,45.92c-.67-.62,.48-1.28,.86-1.72,.25-.38,.4-.81,.6-1.21,.53-1.03,.48-2.2,.89-3.26,.11-.52,.4-1.02,.24-1.55-.23-.35-.54-.77-.95-.88-.49,.77-1.53-.07-.76-.6,1.04-1.2,2.93,.82,2.73,1.99-.13,.85-.48,1.64-.65,2.47-.03,.29-.08,.56-.14,.84,0,0,0,0,0,.01,0,0,0,0,0,0,0,0,0,.02-.01,.03,0,0,0,0,0,0,0,0,0,0,0,.01h0s-.02,.05-.03,.08c-.05,.14-.1,.27-.14,.41-.02,.07-.05,.13-.07,.2-.01,.05-.02,.1-.02,.15h0s0,0,0,0h0s0,0,0,0c0,0,0,0,0,0h0c-.09,.24-.19,.47-.3,.7-.27,.54-.46,1.13-.95,1.52-.38,.21-.59,.87-1.02,.87-.08,0-.17-.02-.27-.08"/><path class="cls-8" d="M14.03,42.02s0,0,0,.01c0,0,0,0,0-.01"/><path class="cls-8" d="M6.17,46.75h-.01s-.01-.02-.01-.02h-.01s-.01-.02-.01-.02h-.01s-.01-.02-.01-.02h-.01s-.01-.02-.01-.02h-.01s-.01-.02-.01-.02h-.01s-.01-.02-.01-.02h0s0-.01,0-.01h0s0-.01,0-.01h0s0-.01,0-.01h0s0,0,0,0h0s0,0,0,0h0s0,0,0,0h0s0,0,0,0h0s0,0,0,0h0s0,0,0,0h0s0,0,0,0h0s0,0,0,0h0s-.01,0-.01,0h0s-.01,0-.01,0h-.01s-.01,0-.01,0h-.01s-.01,0-.01,0h-.01s-.01,0-.01,0h-.01s-.01,0-.01,0h-.01s-.01,0-.01,0h-.01s-.01,0-.01,0h-.01s-.01,0-.01,0h-.01s-.01,0-.01,0h-.01s-.01,0-.01,0h-.11s-.01,0-.01,0h-.01s-.01,0-.01,0h-.01s-.01,0-.01,0h-.01s-.01,0-.01,0h-.02s-.01,0-.01,0h-.01s-.02-.02-.03-.03c-.02-.03-.05-.04-.08-.05-.02,0-.04-.01-.06-.02,.13-.18,.25-.35,.38-.53,.2-.17,.51-.16,.68,.04,.21,.24,.09,.54-.1,.83h0Z"/><path class="cls-8" d="M10.72,46.13s0-.05,.01-.08c0-.06,.01-.13,.02-.2,0-.04,0-.08,.01-.12,0-.06,.02-.12,.02-.18,0-.03,.01-.07,.02-.1,0-.03,0-.05,0-.08,.12-.14,.26-.26,.37-.4,.21-.31,.63-.59,.95-.24,.42,.56-.4,.96-.67,1.37,0,.02,0,.03-.01,.05h0s0-.02,0-.02h0s0-.02,0-.02h0s0-.02,0-.02h0s0-.01,0-.01h0s0-.01,0-.01h0s0,0,0,0h0s0,0,0,0h0s0,0,0,0h-.01s0,0,0,0h0s-.01,0-.01,0h0s-.01,0-.01,0h-.04s-.01,0-.01,0h-.01s-.01,0-.01,0h-.01s-.01,0-.01,0h-.01s-.01,0-.01,0h-.01s-.01,0-.01,0h-.01s-.01,0-.01,0h-.01s-.01,0-.01,0h-.01s-.01,0-.01,0h-.01s-.01,0-.01,0h-.01s-.01,0-.01,0h-.01s-.01,0-.01,0h-.01s-.01,0-.01,0h-.01s-.01,0-.01,0h-.01s-.01,0-.01,0h-.01s-.01,0-.01,0h-.01s-.01,0-.01,0h-.01s-.01,0-.01,0h-.01s-.01,0-.01,0h-.01s-.01,0-.01,0h-.01s-.01,0-.01,0h-.01s-.01,0-.01,0h-.01s-.01,0-.01,0h0s0-.02,0-.03"/><path class="cls-8" d="M.98,44.05c-1.42-.32-1.04-1.34-.45-2.26,.3-.39,.06-1.14,.7-1.17,1.15,.22-.02,1.84-.27,2.42,.39,.21,.79-.19,1.05-.45,.15-.22,.21-.53,.51-.61,.43-.11,.76,.29,1.08,.51,.2,.12,.38,.26,.52,.43,.56,.71-.46,1.41-.79,.56-.16-.15-.35-.23-.51-.38-.38,.48-.99,.95-1.63,.95-.07,0-.14,0-.21-.02"/><path class="cls-8" d="M1.29,41.53c-.55-.08-.52-.67-.19-1,.19-.21,.49-.18,.74-.24,.11-.05,.22-.07,.34-.03,.4,.09,.49,.69,.12,.88-.16,.08-.34,.12-.52,.14-.08,.16-.26,.25-.44,.25-.02,0-.04,0-.06,0"/><path class="cls-8" d="M5.84,46.32h.01s.01,0,.01,0h.01s.01,0,.01,0h.01s.01,0,.01,0h.01s.01,0,.01,0h.01s.01,0,.01,0h.01s.01,0,.01,0h.01s.01,0,.01,0h.01s.01,0,.01,0h.01s.01,0,.01,0h.01s.01,0,.01,0h.01s.01,0,.01,0h.01s.01,0,.01,0h.03s.01,0,.01,0h.01s.01,0,.01,0h.02s.01,0,.01,0h.01s.01,0,.01,0h.01s.01,0,.01,0h.01s.01,0,.01,0h0s.01,0,.01,0h.01s0,0,0,0h0s0,0,0,0h.01s0,0,0,0h0s0,0,0,0h0s0,0,0,0h0s0,0,0,0h0s0,0,0,0h0s0,0,0,0h0s0,0,0,0h.01s.01,.01,.01,.01h.01s.01,.01,.01,.01h.01s.01,.01,.01,.01h.01s.01,.02,.01,.02h.01s.01,.02,.01,.02h.01s.01,.02,.01,.02h.01s.01,.02,.01,.02h.01s.01,.02,.01,.02h.01s.01,.02,.01,.02h.02s.01,.02,.01,.02h.02s.02,.02,.02,.02h.01s.02,.02,.02,.02h.02s.01,.03,.01,.03h0c-.33-.07-.65-.16-.94-.27"/><path class="cls-8" d="M5.87,47.38c-.26-.02-.53-.03-.8-.04,.16-.31,.32-.61,.48-.91h.02s.02-.01,.02-.01h.02s.02-.01,.02-.01h.02s.02-.01,.02-.01h.01s.02,0,.02,0h.01s.01,0,.01,0h.01s.01,0,.01,0h.01s.01,0,.01,0h.01s.01,0,.01,0h.01s.01,0,.01,0h.01s.01,0,.01,0h.01s.01,0,.01,0h.01s.01,0,.01,0h.01s.01,0,.01,0h.01s.01,0,.01,0h.01s.01,0,.01,0h.01s.01,0,.01,0h.01s.01,0,.01,0h.01s.01,0,.01,0h.01s.01,0,.01,0h.01s.01,0,.01,0h.01s.01,0,.01,0h.01s.01,0,.01,0h.01s.01,0,.01,0h.01s.01,0,.01,0h.03s.01,0,.01,0h.01s.01,0,.01,0h.01s.01,0,.01,0h0s.01,0,.01,0h.01s0,0,0,0h.01s.01,0,.01,0h0s.01,0,.01,0h.01s0,0,0,0h.01s0,0,0,0h0s0,0,0,0h0s0,0,0,0h0s0,0,0,0h0s0,0,0,0h0s0,0,0,0h0s0,0,0,0h.01s.01,0,.01,0h0s.01,.01,.01,.01h.01s.01,.01,.01,.01h.01s.01,.01,.01,.01h.01s.01,.02,.01,.02h.01s.01,.02,.01,.02h.01s.01,.02,.01,.02h.01s.01,.02,.01,.02h.01s0,.01,0,.01c-.16,.31-.39,.62-.47,.85-.01,.02-.03,.05-.04,.07-.09,0-.17-.02-.26-.03"/><path class="cls-8" d="M10.78,45.56s0,0,0,0c0-.02,0-.04,.01-.07h0s.01,0,.01,0h.01s.01,0,.01,0h.01s.01,0,.01,0h.01s.01,0,.01,0h.01s.01,0,.01,0h.01s.01,0,.01,0h.01s.01,0,.01,0h.01s.01,0,.01,0h.01s.01,0,.01,0h.01s.01,0,.01,0h.01s.01,0,.01,0h.01s.01,0,.01,0h.01s.01-.01,.01-.01h.01s.01,0,.01,0h.01s.01,0,.01,0h.01s.01,0,.01,0h.01s.01,0,.01,0h.01s.01,0,.01,0h.01s.01,0,.01,0h.01s.01-.01,.01-.01h.01s.01,0,.01,0h.01s.01-.01,.01-.01h.01s.01,0,.01,0h.01s.01,0,.01,0h.01s.01,0,.01,0h.01s.01,0,.01,0h.01s.01,0,.01,0h.01s.01,0,.01,0h.01s.01,0,.01,0h.01s.01,0,.01,0h.01s.01,0,.01,0h.01s.01,0,.01,0h.01s.01,0,.01,0h.01s.01,0,.01,0h.01s.01,0,.01,0h.01s.01,0,.01,0h.01s.01,0,.01,0h.01s0,0,0,0h.03s0,0,0,0h.02s.01,0,.01,0h0s0,0,0,0h0s.01,0,.01,0h0s0,.01,0,.01h0s0,.02,0,.02h0s0,.02,0,.02h0s0,.02,0,.02h0c-.04,.5-.11,1-.2,1.5-.12,.06-.24,.13-.36,.19-.07,.04-.13,.07-.2,.11-.17,.07-.35,.14-.52,.21,.12-.57,.23-1.14,.26-1.72"/><path class="cls-8" d="M30.18,60.36c.16-3.52,1.11-7.02,1.44-10.54,.66-4.83,.91-9.69,1.21-14.54,.02-.01,.04-.03,.06-.04,.07-.06,.14-.11,.22-.17,.15-.11,.31-.22,.47-.33t0,0s.05-.04,.08-.05h0c.08-.06,.17-.12,.25-.17-.33,5.34-.59,10.7-1.34,16-.35,2.56-.73,5.12-1.15,7.68-.07,.35-.14,.69-.18,1.04v.02s-.04,.02-.04,.02l-.02,.02-.02,.02-.02,.02-.02,.02-.02,.02-.02,.02-.02,.02-.02,.02-.02,.02-.02,.02-.02,.02-.02,.02-.02,.02-.02,.02-.02,.02-.02,.02-.02,.02-.02,.02-.02,.02-.02,.02-.02,.02-.02,.02-.02,.02-.02,.02-.02,.02-.02,.02v.02s-.03,.02-.03,.02v.02s-.03,.02-.03,.02v.02s-.02,.02-.02,.02v.02s-.02,.02-.02,.02v.02s-.02,.02-.02,.02v.02s-.02,.02-.02,.02v.02s-.02,.02-.02,.02v.02s-.02,.02-.02,.02v.02s-.02,.02-.02,.02v.02s-.02,.02-.02,.02v.02s-.02,.02-.02,.02v.02s-.02,.02-.02,.02v.03s-.03,.03-.03,.03v.03s-.03,.03-.03,.03v.03s-.03,.03-.03,.03l-.02,.03v.03s-.03,.03-.03,.03l-.02,.03-.02,.03-.02,.03-.02,.03v.02c-.03-.12-.05-.24-.07-.36"/><path class="cls-8" d="M43.11,56.87c-.26-.07-.45-.36-.36-.63,.59-1.8,1.08-3.63,1.49-5.47,.46-1.74,.56-3.59,1.02-5.31,.36-.48,1.15-.02,.89,.53-.17,1.19-.37,2.37-.59,3.55-.14,.47-.57,2.82-1.09,4.74h0s-.03,.07-.03,.07l-.03,.06-.02,.05-.02,.05-.02,.05-.02,.05-.02,.04-.02,.04v.04s-.03,.04-.03,.04v.04s-.02,.04-.02,.04v.03s-.02,.03-.02,.03v.03s-.02,.03-.02,.03v.03s-.02,.03-.02,.03v.03s-.02,.03-.02,.03v.03s-.02,.03-.02,.03v.03s-.01,.03-.01,.03v.03s-.01,.03-.01,.03v.03s-.01,.03-.01,.03v.02s-.01,.02-.01,.02v.02s0,.02,0,.02v.02s0,.02,0,.02v.02s0,.02,0,.02v.02s0,.02,0,.02h0c-.28,.8-.56,1.34-.84,1.34-.04,0-.08-.01-.13-.04"/><path class="cls-8" d="M43.75,54.5c-.09-.6,.53-.8,.85-.56v.03s-.02,.04-.02,.04v.04s-.01,.02-.01,.02h0s-.04,.08-.04,.08l-.04,.07-.03,.06-.03,.06-.03,.06-.02,.05-.02,.05-.02,.05-.02,.05-.02,.04-.02,.04v.04s-.03,.04-.03,.04v.04s-.02,.04-.02,.04v.03s-.02,.03-.02,.03v.03s-.02,.03-.02,.03v.03s-.02,.03-.02,.03v.03s-.02,.03-.02,.03v.03s-.02,.03-.02,.03v.03s-.01,.03-.01,.03v.03s-.01,.03-.01,.03v.03s-.01,.03-.01,.03v.03s-.01,.02-.01,.02v.02s0,.02,0,.02v.02s0,.02,0,.02v.02s0,.02,0,.02v.02s0,.02,0,.02v.02s0,.02,0,.02v.02s0,.02,0,.02v.02s0,.02,0,.02v.02s0,.02,0,.02v.02s0,.02,0,.02v.02s0,.02,0,.02v.02s0,.02,0,.02v.02s0,.02,0,.02h0s0,.03,0,.03h0s0,.03,0,.03h0s0,.03,0,.03h0s0,.03,0,.03h0s0,.03,0,.03h0s0,.02,0,.02c-.08-.51-.16-1.01-.23-1.52"/><path class="cls-8" d="M28.33,57.16h-.02s-.02-.02-.02-.02h-.02s-.02-.01-.02-.01h-.02s-.02-.01-.02-.01h-.02s-.02,0-.02,0h-.02s-.02,0-.02,0h-.02s-.02,0-.02,0h-.02s-.02,0-.02,0h-.02s-.02,0-.02,0h-.02s-.02,0-.02,0h-.02s-.02,0-.02,0h-.02s-.02,0-.02,0h-.02s-.02,0-.02,0h-.02s-.02,0-.02,0h-.02s-.02,0-.02,0h-.02s-.02,0-.02,0h-.02s-.02,0-.02,0h-.02s-.02,0-.02,0h-.02s-.02,0-.02,0h-.02s-.02,0-.02,0h-.02s-.02,0-.02,0h-.02s-.02,0-.02,0h-.02s-.02,0-.02,0h-.02s-.02,0-.02,0h-.02s-.02,0-.02,0h-.02s-.02,0-.02,0h-.02s-.02,0-.02,0h-.02s-.02,0-.02,0h-.02s-.02,0-.02,0h-.02s-.02,0-.02,0h-.02s-.02,0-.02,0h-.02s0,0,0,0c-2.37-5.71-4.01-11.61-4.99-17.69-.03-.69-.59-3.13-.73-4.85,.04,.04,.09,.07,.13,.11,.11,.09,.22,.17,.35,.22,.07,.03,.15,.05,.22,.06,0,0,0,0,0,0,.02,0,.04,.01,.06,.01,.05,.02,.09,.04,.14,.06,.08,.03,.16,.06,.24,.08,.72,5.85,1.95,11.66,3.86,17.24,.49,1.4,1.05,2.77,1.6,4.15,.01,.05,.03,.11,.04,.16,.04,.18,.07,.35,.12,.53,0,0,0,0,0,0,.01,.04,.02,.09,.04,.13h-.02Z"/><path class="cls-8" d="M28.33,57.16h-.02s-.02-.02-.02-.02h-.02s-.02-.01-.02-.01h-.02s-.02-.01-.02-.01h-.02s-.02,0-.02,0h-.02s-.02,0-.02,0h-.02s-.02,0-.02,0h-.02s-.02,0-.02,0h-.02s-.02,0-.02,0h-.02s-.02,0-.02,0h-.02s-.02,0-.02,0h-.02s-.02,0-.02,0h-.02s-.02,0-.02,0h-.02s-.02,0-.02,0h-.02s-.02,0-.02,0h-.01c.11-.14,.23-.21,.34-.18,.03,0,.07,0,.1,0,.01,.06,.03,.12,.04,.17,0,0,0,0,0,0,0,0,0,0,0,0h0s.02,.08,.03,.12h-.02Z"/><path class="cls-8" d="M36.74,31.26c.06-.11,.13-.22,.19-.34,.06-.12,.13-.23,.19-.35,.03-.07,.06-.13,.09-.2,.23,.06,.4,.26,.4,.5,0,.28-.24,.51-.52,.51-.13,0-.25-.05-.34-.13"/><path class="cls-8" d="M42.11,39.83c-1.59-2.99-3.25-6.07-5.29-8.72,.04-.06,.07-.13,.11-.19,.06-.12,.13-.23,.18-.35,.04-.07,.07-.15,.1-.22,.3,0,.49,.31,.7,.5,1.75,2.24,3.08,4.77,4.45,7.26,.21,.52,.74,1.03,.7,1.61-.06,.24-.29,.37-.51,.37-.17,0-.34-.08-.43-.25"/><path class="cls-8" d="M31.76,51.81c-.15-.33,.1-.64,.41-.74,.7-.35,1.37-.76,2.06-1.14,2.1-1.2,4.28-2.36,6.12-3.93-1.56-1.63-3.73-2.6-5.33-4.21-.8-.91,.01-1.51,.99-1.41,.59-.02,1.19,0,1.79,.03,1.44,.07,2.91,.13,4.23-.45,.13-.08,.24-.19,.29-.34,.19-.37,.78-.34,.93,.05,.03,1.93-3.49,1.85-5.74,1.76-.58-.02-1.07-.04-1.4-.03,1.06,.92,2.24,1.68,3.36,2.51,1.65,1.15,3,2.2,.63,3.6-1.66,1.24-3.46,2.26-5.27,3.26-.69,.37-1.36,.78-2.06,1.14-.17,.11-.38,.2-.57,.2s-.36-.08-.45-.3"/><path class="cls-8" d="M14.16,39.01c0-.13-.01-.26-.03-.39-.02-.23-.05-.48-.25-.64-.04-.03-.08-.05-.12-.07,0-.01-.02-.03-.03-.04h0c1.1-2.08,2.18-4.2,3.64-6.06,1.03-1.17,1.73-1.39,2.1-1.26,0,0,0,.02,0,.03,.05,.13,.1,.27,.15,.4-.03,.13-.03,.26,0,.38-.08,.08-.19,.14-.34,.16-1.89,1.17-3.36,4.56-4.48,6.52-.22,.41-.43,.82-.65,1.23,0-.09,0-.18,0-.27"/><path class="cls-8" d="M15.73,46.61c-.56-.66,.68-1.25,1.05-1.69,1.17-1.02,2.48-2,3.62-3.02-1.79-.32-3.6-.58-5.39-.89-.23-.07-.61-.12-.98-.19,.02-.09,.03-.17,.04-.26,.03-.26,.06-.52,.08-.77,.2,.05,.4,.09,.57,.13,1.62,.33,3.26,.52,4.88,.82,.62,.14,1.27,.14,1.86,.37,1.04,.79-.63,1.71-1.17,2.25-.93,.78-1.91,1.54-2.83,2.34-.42,.25-.86,1.07-1.37,1.07-.12,0-.23-.04-.36-.14"/><path class="cls-8" d="M25.58,52.45c-2.93-.98-5.59-2.57-8.04-4.42-.43-.41-2.06-1.27-1.7-1.91,.36-.6,.8-.24,1.13,.15,1.81,1.47,3.7,2.78,5.75,3.87,1.06,.52,2.16,.95,3.27,1.37,.55,.23,.3,.99-.19,.99-.07,0-.14-.01-.21-.04"/><path class="cls-8" d="M27.75,42.19c-1.29-.94-6.09-5.6-5.9-7.08,.08-.19,.24-.29,.41-.31,0,0,.02,0,.02,0,0,0,0,0,0,0,.02,0,.04,0,.06,.01,.05,.02,.09,.04,.14,.06,.08,.03,.16,.06,.23,.08,.07,.07,.12,.17,.14,.29,1.21,2.08,2.88,3.78,4.63,5.37,.3,.26,.6,.51,.91,.75,.43,.32,.09,.92-.33,.92-.1,0-.2-.03-.3-.11"/><path class="cls-8" d="M27.68,42.25c-.28-.33,.03-.73,.31-.9,.54-.47,1.05-.98,1.51-1.5,1.3-1.4,2.34-3.01,3.38-4.59,0,0,.02-.01,.02-.02,.07-.06,.14-.11,.22-.17,.02-.01,.03-.02,.05-.04,.31-.06,.65,.16,.64,.5-.45,1.06-1.24,2.02-1.89,2.98-.74,.97-1.53,1.92-2.39,2.79-.39,.28-.93,1.13-1.46,1.13-.13,0-.27-.05-.4-.19"/><path class="cls-8" d="M49.11,35.26c-.92-.02-1.81-.21-2.69-.46-.27-.02-.48-.24-.48-.51s.24-.51,.52-.51c.78,.14,1.54,.42,2.35,.44,1.14,.03,2.38,.16,3.45-.33,.57-.16,1.18-1.19,1.75-.69,.55,.68-.58,1.15-1.04,1.47-.88,.52-1.89,.6-2.9,.6-.32,0-.63,0-.94-.01"/><path class="cls-8" d="M48.63,48.89c-.81-2.69-1.53-5.4-1.69-8.19-.46-1.91-.79-3.8-1.09-5.73-.03-.27-.12-.57,.02-.82,.27-.46,1.02-.23,.96,.3,.02,.28,.07,.55,.12,.82,.28,1.88,.68,3.74,1.07,5.59,.07,.94,.1,1.89,.33,2.81,.35,1.66,.79,3.3,1.28,4.93,.1,.39-.21,.64-.52,.64-.2,0-.4-.11-.48-.37"/><path class="cls-8" d="M56.84,45.59c-.11-1.28-.33-2.49-.69-3.7-.39-1.09-.6-2.21-.72-3.36-.28-1.63-.61-3.37-1.61-4.73-.37-.37-1.52,.04-2,.12-.28,0-.52-.23-.52-.51,.06-.67,.95-.6,1.44-.72,1.28-.25,1.94,.27,2.45,1.37,.87,1.77,1.2,3.74,1.43,5.68,.44,1.9,1.14,3.75,1.23,5.72,.01,.14-.02,.27-.1,.38-.1,.13-.25,.19-.4,.19-.25,0-.5-.16-.52-.44"/><path class="cls-8" d="M51.78,52.2c-1.62-.3-3.2-.78-4.73-1.41-.76-.28-1.53-.56-2.23-.98-.34-.24-.25-.81,.16-.92,.3-.09,.5,.15,.74,.25,1.43,.65,2.93,1.22,4.42,1.65,.77,.14,1.55,.48,2.32,.42,1.74-.46,2.97-1.69,3.72-3.29,.31-.63,.57-1.27,.71-1.92,.06-.4,.1-.96,.66-.9,1.03,.19-.05,2.31-.27,2.91-.78,1.77-2.04,3.32-3.91,3.98-.37,.17-.76,.27-1.16,.27-.15,0-.29-.01-.44-.05"/><path class="cls-8" d="M7.07,48.1c-.8-.25-2.84-.39-3.01-1.35,0-.28,.24-.51,.52-.51,.24,0,.37,.18,.57,.27,.39,.19,.83,.28,1.25,.38,1.61,.55,2.8,.25,3.65-.05,.84-.29,1.35-.59,1.6-.07,.11,.26-.02,.57-.28,.67-.64,.26-1.29,.51-1.97,.65-.4,.08-.8,.13-1.2,.13-.38,0-.76-.04-1.13-.13"/><path class="cls-8" d="M10.13,52.35c-.3-.12-.38-.47-.25-.75,.23-.69,.4-1.41,.56-2.12,.19-.86,.23-1.74,.35-2.61,.12-.59,1.04-.51,1.03,.1-.15,1.48-.34,2.96-.78,4.39-.11,.39-.24,1.04-.69,1.04-.07,0-.14-.01-.22-.04"/><path class="cls-8" d="M2.21,51.72c-.04-1.49,.56-3,1.24-4.27,.28-.41,.39-1.16,.97-1.22,.52,0,.65,.61,.34,.95-.29,.52-.56,1.06-.81,1.6-.45,.91-.72,1.92-.71,2.93,0,.33-.26,.5-.52,.5s-.51-.17-.52-.5m2.39-4.5c.08-.03,.15-.08,.2-.14-.05,.06-.12,.11-.2,.14"/><path class="cls-8" d="M3.93,62.86c-1.56-.73-2.95-3.34-3.2-5-.14-1.69,.52-3.33,.93-4.95,.27-.59,.42-2.36,1.39-1.69,.35,.35-.04,.77-.12,1.14-.28,.79-.5,1.6-.71,2.42-.24,1.05-.64,2.13-.43,3.22,.37,1.4,1.15,2.82,2.25,3.77,1.66,.86,3.58-.92,4.8-1.9,1.52-1.33,2.67-2.98,3.7-4.69v.02s0,.04,0,.04v.04s-.01,.04-.01,.04v.04s-.01,.04-.01,.04v.04s-.01,.04-.01,.04v.04s-.01,.04-.01,.04v.05s-.01,.04-.01,.04v.05s-.01,.05-.01,.05v.05s-.02,.05-.02,.05v.05s-.02,.05-.02,.05v.05s-.02,.05-.02,.05v.05s-.02,.05-.02,.05v.05s-.02,.05-.02,.05v.05s-.02,.05-.02,.05v.05s-.02,.05-.02,.05v.05s-.02,.05-.02,.05v.05s-.02,.05-.02,.05v.05s-.02,.05-.02,.05v.05s-.02,.05-.02,.05v.05s-.02,.05-.02,.05v.05s-.02,.05-.02,.05v.04s-.02,.04-.02,.04v.04s-.02,.04-.02,.04v.04s-.02,.04-.02,.04v.03s-.02,.03-.02,.03v.03s-.02,.03-.02,.03v.03s-.02,.02-.02,.02v.02s-.01,.02-.01,.02v.02s-.01,.02-.01,.02v.02s-.01,.02-.01,.02v.02s-.01,.02-.01,.02v.02s-.01,.02-.01,.02v.02s-.01,.02-.01,.02v.02s-.01,.02-.01,.02v.02s-.01,.02-.01,.02v.02s-.01,.02-.01,.02v.02s-.01,.01-.01,.01c-1.54,2.1-4.45,5.14-7.13,5.14-.32,0-.64-.04-.96-.14"/><path class="cls-8" d="M9.51,57.53c-.27-.04-.49-.3-.44-.58,.13-.8,.23-1.61,.33-2.42,.08-.65,.16-1.3,.2-1.95,.02-.41,.07-1.02,.6-1.02,.36,0,.63,.4,.47,.73-.09,.82-.14,1.65-.26,2.47-.1,.78-.2,1.56-.32,2.33-.04,.25-.26,.44-.51,.44-.02,0-.05,0-.07,0"/><path class="cls-8" d="M38.74,33.49c0-.28,.24-.51,.52-.51s.52,.23,.52,.51-.24,.51-.52,.51-.52-.23-.52-.51"/><path class="cls-8" d="M46.17,37.85c-.61-.83-1.16-1.7-1.75-2.55-.89-1.35-1.17-1.6-2.82-1.46-.86,.03-1.72,.08-2.57,.14-.59,0-.7-.87-.13-1.01,1.24-.03,4.14-.52,5.05,.21,1.07,.87,1.69,2.17,2.49,3.27,.18,.26,.36,.52,.54,.77,.3,.38-.06,.83-.43,.83-.14,0-.27-.06-.38-.2"/><path class="cls-8" d="M10.68,37.86c-.25-.81,1.02-.89,1.52-1.19,1.15-.49,2.32-1.02,3.35-1.72,.31-.2,.71,.04,.77,.36,0,0,0,0,0,0,0-.04-.02-.07-.03-.11,.01,.04,.02,.07,.03,.11-.03,.05-.06,.1-.09,.14-.06,.1-.12,.2-.17,.3-.03,.05-.06,.1-.09,.16-.42,.32-1.07,.55-1.46,.81-.4,.21-.8,.4-1.2,.58-.04-.04-.07-.08-.12-.11-.14-.11-.31-.18-.49-.21-.28-.05-.57,.09-.78,.27-.16,.13-.29,.26-.43,.41,0,0,0,0,0,0,0,0,0,0,0,0h0s0,0-.01,.02h0s0,0,0,0c0,0-.02,.02-.02,.03,0,0,.02-.02,.02-.03-.13,.14-.25,.28-.38,.42-.01,.01-.03,.03-.04,.04-.15-.02-.28-.1-.38-.3"/><path class="cls-8" d="M4.7,53.7c-.59-.3-3.35-2.09-1.68-2.5,.36-.01,.55,.46,.8,.61,.65,.58,1.38,1.17,2.3,1.19,.98,.1,1.8-.19,2.45-.48,.85-.38,1.41-.75,1.68-.27,.49,.88-1.88,1.45-2.48,1.63-.44,.1-.91,.16-1.38,.16-.58,0-1.15-.09-1.68-.34"/><path class="cls-8" d="M49.63,42.4c-3.65-.51-2.44-2.59-1.43-1.55,1.45,.84,3.34,.71,4.9,.22,.76-.26,1.5-.6,2.17-1.04,.13-.1,.29-.18,.46-.15,1.73,.79-1.96,2.05-2.59,2.26-.75,.23-1.53,.34-2.32,.34-.39,0-.79-.03-1.18-.08"/><path class="cls-8" d="M22.48,51.59h0s0-.01,0-.01h0s0-.01,0-.01h0s0-.01,0-.01h-.01s0-.01,0-.01h0s-.01-.01-.01-.01h0s0-.02,0-.02h0s-.01-.02-.01-.02h0s0-.02,0-.02h0s0-.02,0-.02h0s-.01-.02-.01-.02h0s-.01-.02-.01-.02h-.01s0-.02,0-.02h-.01s-.01-.02-.01-.02h-.01s-.01-.02-.01-.02h-.01s-.01-.02-.01-.02h-.01s-.01-.02-.01-.02h-.01s0-.02,0-.02h-.01s0-.02,0-.02h0s0-.02,0-.02h0s0-.02,0-.02h0s0-.02,0-.02h0s0-.02,0-.02h0s0-.02,0-.02h0s0-.02,0-.02h0s0-.02,0-.02h0s0-.02,0-.02h0s0-.02,0-.02h0s0-.02,0-.02h0s0-.02,0-.02h0s0-.02,0-.02h0s0-.02,0-.02h0s0-.02,0-.02h0s0-.02,0-.02h0s0-.02,0-.02h0s0-.01,0-.01h0s0-.01,0-.01h0s0-.01,0-.01h0s0,0,0,0c.02-.15,.04-.3,.06-.45,.12-.57,1-.3,.73,.24-.05,.3-.09,.61-.14,.91h0Z"/><path class="cls-8" d="M34.84,50.24c.29-.27,.7,0,.66,.36h-.01s-.02,.01-.02,.01h-.02s-.02,.02-.02,.02h-.02s-.01,.01-.01,.01h0s-.02,.01-.02,.01h-.02s-.02,.02-.02,.02h-.02s-.02,.02-.02,.02h-.02s-.02,.02-.02,.02h-.02s-.02,.02-.02,.02h-.02s-.02,.02-.02,.02h-.02s-.02,.02-.02,.02h-.02s-.02,.02-.02,.02h-.02s-.02,.02-.02,.02h-.02s-.02,.02-.02,.02h-.02s-.02,.02-.02,.02h-.02s-.02,.02-.02,.02h-.02s-.02,.02-.02,.02h-.02s-.02,.02-.02,.02h-.02s-.02,.02-.02,.02h-.02s-.02,.02-.02,.02h-.01s0,.01,0,.01h-.01s0,0,0,0c-.04-.26-.08-.53,.1-.72"/><path class="cls-8" d="M53.21,38.74c-1.32-.6-.31-2.61,.97-2.05,.62,.35,.88,1.3,.38,1.86-.12,.16-.34,.28-.53,.2-.12,.05-.25,.07-.38,.07-.15,0-.3-.03-.44-.08m.15-1.03c-.04,.19,.04,.37,.3,.36,.1-.02,.21-.05,.32,0,.18-.21,.03-.61-.2-.71h-.01c-.21,0-.36,.18-.4,.36"/><path class="cls-8" d="M36.48,46.98c-.8-.62-.09-2,.84-1.98,.78,.01,1.35,1.01,.85,1.65-.21,.26-.62,.6-.96,.43-.08,.05-.16,.08-.25,.08-.17,0-.34-.08-.47-.17m.78-1.22c-.2,.09-.49,.41-.31,.63,.07,.02,.16,.01,.22,.06,.15-.1,.35-.13,.42-.31,.04-.17-.12-.38-.3-.38,0,0-.02,0-.03,0"/><path class="cls-8" d="M39.55,39.6c-.08,0-.16-.02-.23-.07,.02,.01,.04,.02,.06,.04-1.36-.55-.45-2.58,.87-1.91,1.1,.57,.77,1.99-.45,2.04-.1,0-.19-.04-.26-.1m.1-1.29c-.22,.09-.24,.45-.01,.55,.09,.04,.1,.04,.16,.09h.01c.16,0,.36-.14,.37-.3-.07-.17-.24-.35-.44-.35-.03,0-.07,0-.1,.02"/><path class="cls-8" d="M16.53,39.74c-.62,.23-1.22-.49-1.12-1.08,.08-.52,.61-.91,1.13-.89,.59,.01,1.16,.54,1.05,1.15-.06,.36-.43,.89-.83,.89-.08,0-.16-.02-.24-.06m-.13-1.2c-.25,.05-.33,.45-.05,.49,.08,0,.16,.03,.22,.07,.39-.16,.29-.58-.06-.58-.04,0-.08,0-.12,.01"/><path class="cls-8" d="M19.42,47.32c-1.26,.22-1.41-1.69-.14-1.84,.92-.15,1.53,.96,.9,1.64-.13,.13-.34,.27-.53,.27-.08,0-.16-.02-.23-.08m-.08-1.08c-.14,.01-.26,.2-.16,.32,.09,.07,.21,.05,.3,.13,.01,0,.03-.01,.03-.01,.28-.09,.16-.44-.08-.44-.03,0-.06,0-.09,.01"/><path class="cls-8" d="M8.11,51.31c-.34,.12-.72-.11-.92-.37-.63-.82,.4-1.96,1.31-1.58,.58,.24,.85,1.06,.52,1.59-.14,.2-.41,.44-.68,.44-.08,0-.16-.02-.23-.07m-.23-.75c.1,.05,.23,.02,.31,.1,.31-.06,.25-.53-.01-.61-.02,0-.03,0-.05,0-.26,0-.53,.34-.25,.51"/><path class="cls-8" d="M20.22,35.59c-1.92-3.97-2.57-8.74-1.61-13.05,.65-2.64,1.68-5.31,3.73-7.19,2.12-2.05,4.95-3.87,8.02-3.55-.01,0-.03,0-.04-.01,.62,.2,.35,1.14-.28,.99-.57,.01-1.13,.06-1.69,.17-1.09,.22-2.11,.71-3.03,1.32-1.76,1.21-3.38,2.67-4.32,4.61-1.82,3.65-2.22,7.83-1.35,11.79,.32,1.44,.7,2.88,1.35,4.2,.53,.64-.25,1.4-.78,.73"/><path class="cls-8" d="M20.17,35.65c-2.59-2.88-3.68-6.78-4.13-10.54,0-.56-.34-2.03,.27-2.28,.4-.18,.84,.23,.7,.64,.01,3.01,.76,6.04,2.08,8.75,.51,.97,1.05,1.92,1.81,2.71,.47,.47-.24,1.19-.73,.73"/><path class="cls-8" d="M17.11,30.45c-2.31-.96-3.21-3.95-2.24-6.15,.28-.63,.77-1.36,1.51-1.45,.28,0,.52,.23,.52,.51,0,.24-.18,.45-.41,.5-.86,.57-.99,1.77-.96,2.71,.1,1.17,.75,2.32,1.82,2.86,.77,.18,.52,1.26-.24,1.02"/><path class="cls-8" d="M38.03,23.94c-.29-3.27-1.2-7.19-3.75-9.47-.86-.7-1.82-1.47-2.96-1.57-.21-.02-.43,.01-.64,0-.65-.09-.54-1.08,.11-1.02,2.61-.16,5.25,2.44,6.33,4.62,1.02,2.06,1.64,4.31,1.88,6.59,.02,.45,.25,1.18-.38,1.29-.27,.04-.56-.16-.58-.44m-7-11.97c-.07-.05-.15-.08-.24-.09,.09,0,.17,.04,.24,.09"/><path class="cls-8" d="M37.06,30.83c-.05-.54,.46-.59,.87-.64,1.07-.22,1.98-1.07,2.36-2.08,.24-.78,.15-1.62,.02-2.4-.12-.63-.45-1.21-.92-1.65-.36-.43-1.2-.04-1.32-.72-.06-.74,.87-.62,1.34-.45,1.41,.61,1.98,2.25,2.04,3.68,.17,1.46-.43,2.93-1.61,3.82-.47,.43-2.59,1.48-2.79,.45"/><path class="cls-8" d="M28.25,37.03c-.06-.83,1.2-.57,1.73-.77,2.1-.45,4.1-1.53,5.57-3.09,1.32-1.63,1.75-3.71,2.17-5.7,.11-.61,.19-1.23,.27-1.85,.19-.63,1.14-.38,1.02,.26-.52,3.43-1.19,7.41-4.37,9.43-1.24,.86-2.63,1.51-4.1,1.87-.56,.13-1.13,.22-1.71,.28-.28,.03-.54-.16-.58-.44"/><path class="cls-8" d="M28.34,37.52c-2.31-.25-4.78-.58-6.71-1.97-.93-.65-2.58-2.53-2.72-3.63,.03-.25,.25-.46,.51-.46,.31,0,.48,.25,.54,.51,.18,.35,.4,.68,.6,.97,1.55,2.48,4.33,3.14,7.05,3.47,.33,.04,.65,.08,.98,.1,.31-.05,.65,.1,.7,.44,.06,.54-.54,.66-.95,.57"/><path class="cls-8" d="M41.06,25.56c-.27-.04-.49-.3-.44-.58,.17-.97,.33-1.94,.4-2.92,.12-2.17-.22-4.46-.88-6.48-.88-2.62-3.07-4.62-5.43-5.91-.97-.49-2.07-.52-3.14-.46-.31,.09-.72,.02-.8-.33-.19-1.05,1.77-.65,2.39-.68,2.54,.25,5.08,2.49,6.58,4.44,1.73,2.38,2.19,5.42,2.32,8.28,.02,1.07-.09,2.14-.26,3.2-.14,.5,0,1.49-.75,1.45"/><path class="cls-8" d="M31.9,8.81c0-.28-.24-.51-.52-.51-.46,.01-1.24-.16-1.27,.51,0,.28,.24,.51,.52,.51,.46,0,1.24,.16,1.27-.51"/><path class="cls-8" d="M15.03,25.12c.84-.2,.23-1.51,.31-2.13-.13-1.75,.05-3.45,.39-5.15,.72-5.2,5.92-9.03,11.09-8.68,.43,.05,.89,.05,1.27,.26,1,.19,1.03-1.1-.36-1.18-5.91-.93-12.16,3.44-13,9.38-.46,2.17-.58,4.41-.32,6.61,0,.4,.1,.96,.63,.89"/><path class="cls-8" d="M23.3,8.77c0-.28,.24-.51,.52-.51s.52,.23,.52,.51-.24,.51-.52,.51-.52-.23-.52-.51"/><path class="cls-8" d="M27.71,32.91c-.24-.01-.48-.08-.72-.05-.49,0-.5-.71-.02-.77,.67,.02,1.36,.16,2.01-.11,.4-.13,.77-.32,1.13-.54,.28-.17,.69-.54,.95-.13,.26,.55-.62,.75-.95,1.01-.73,.38-1.55,.66-2.38,.59"/><path class="cls-8" d="M28.21,30.13c-.7-.16-.96-.95-.77-1.58,.09-.37,.29-.69,.42-1.04,.09-.21,.06-.45,.18-.65,.26-.34,.74-.04,.68,.3,.03,.63-1.01,1.86-.34,2.22,.12,.04,.25,.04,.37,.03,.33-.02,.51,.43,.27,.65-.1,.09-.23,.12-.37,.12-.14,0-.29-.03-.42-.06"/><path class="cls-8" d="M26.42,17.02c1.67-.11,3.35-.1,5.02-.13,.25,0,.37,.19,.37,.38s-.12,.38-.37,.38c-2.17,.04-4.42-.02-6.53,.32-.93-.81,1.01-.94,1.51-.95"/><path class="cls-8" d="M24.9,19.73c-.47-.68,.56-.69,.99-.73,1.77-.21,3.55-.21,5.32-.3,.21-.01,.38,.18,.38,.38,0,.21-.18,.38-.38,.38-.67,.03-1.35,.06-2.03,.08-1.02,.03-2.04,.08-3.05,.2-.14,0-.29,.02-.45,.05-.14,.03-.28,.05-.41,.05s-.26-.03-.38-.11"/><path class="cls-8" d="M23.48,32.73c-.17-.1-.25-.35-.14-.52,.4-.59,.9-1.11,1.4-1.63,.37-.35,2.07-2.08,2.12-.78-.06,.25-.34,.26-.51,.4-.68,.47-1.2,1.02-1.74,1.63-.31,.23-.55,.94-.95,.94-.06,0-.12-.01-.18-.05"/><path class="cls-8" d="M33.23,32.12c-.68-.55-1.45-1.04-2.15-1.54-.26-.18-.54-.34-.82-.5-.29-.2-.12-.7,.23-.68,.65,.21,1.18,.7,1.75,1.07,.51,.37,1.05,.7,1.52,1.12,.27,.26,0,.65-.28,.65-.09,0-.18-.03-.25-.11"/><path class="cls-8" d="M39.12,31.3c-1.29-.6-.57-2.9,.85-2.49,1.38,.32,1.47,2.71-.13,2.61-.07,.03-.15,.04-.22,.04-.18,0-.35-.07-.5-.15m.61-1.17s.04-.01,.06-.02c0,0,0-.01,.01-.02,.03-.05,.07-.09,.12-.12-.09,0-.17,.07-.19,.15"/><path class="cls-8" d="M16.29,31.31s0,0,0,0c-1.85-.08-1.35-2.71,.36-2.5,.59,.08,.82,.63,.94,1.13,.19,.65-.33,1.42-.99,1.42-.1,0-.2-.02-.3-.05"/><path class="cls-8" d="M32.54,29.13c-1.02-.03-1.96-.68-2.61-1.42-.95-.92-1.14-2.21-.19-3.19,.58-.63,1.45-.78,2.22-1.04,.68-.22,1.4-.34,2.11-.41,.81-.09,1.67-.26,2.45,.06,.45,.2,.77,.63,.94,1.08,.07,.19,.1,.38,.09,.56-.04,0-.09,0-.14,0-.07,0-.14,0-.21,0-.01,0-.02,0-.03,0-.03,0-.06-.01-.09-.02-.05-.01-.1-.03-.15-.05-.05-.02-.1-.05-.14-.07,0-.04-.01-.08-.02-.11-.12-.3-.3-.61-.63-.72-.6-.18-1.23-.05-1.84,.02-1.04,.07-2.05,.34-3.02,.68-1.39,.38-1.9,1.69-.78,2.72,.62,.72,1.49,1.29,2.47,1.16,.05,0,.11-.01,.16-.02,.06,0,.12-.02,.17-.02,0,.02,.02,.05,.03,.07,.01,.03,.02,.06,.03,.1,0,.04,.02,.08,.03,.12,0,.17,.01,.33,.04,.49,0,0,0,.01,0,.02-.05,0-.1,0-.15-.03-.23,.03-.46,.04-.69,.04h-.05"/><path class="cls-8" d="M30.5,27.21s0,0,0,0c0,0,0,0,0,0,0,0,0,0,0,0h0"/><path class="cls-8" d="M31.28,24.49s0,0,0,0c-.01,0-.02,0-.03,0,0,0,.02,0,.03,0"/><path class="cls-8" d="M32.82,28.84c-.06-.45,.53-.45,.79-.57,.3-.1,.59-.24,.85-.41,.63-.48,1.19-1.06,1.69-1.67,.41-.47,.8-1.08,.6-1.72-.24-.39,.31-.77,.6-.46,.06,.06,.1,.14,.12,.2,.45,1.34-.67,2.46-1.53,3.34-.51,.52-1.01,1-1.68,1.28-.4,.12-1.29,.67-1.44,0"/><path class="cls-8" d="M24.27,29.09c1.02-.03,1.96-.68,2.61-1.42,.95-.92,1.14-2.21,.19-3.19-.58-.63-1.45-.78-2.22-1.04-.68-.22-1.4-.34-2.11-.41-.81-.09-1.67-.26-2.45,.06-.45,.2-.77,.63-.94,1.09-.07,.19-.1,.38-.09,.55,.04,0,.09,0,.14,0,.07,0,.14,0,.21,0,.01,0,.02,0,.03,0,.03,0,.06-.01,.09-.02,.05-.01,.1-.03,.15-.05,.05-.02,.1-.05,.14-.07,0-.04,.01-.08,.02-.11,.12-.3,.3-.61,.63-.72,.6-.18,1.23-.05,1.84,.02,1.04,.07,2.05,.34,3.02,.68,1.39,.38,1.9,1.69,.78,2.72-.62,.72-1.49,1.29-2.47,1.16-.05,0-.11-.01-.16-.02-.06,0-.12-.02-.17-.02,0,.02-.02,.05-.03,.07-.01,.03-.02,.06-.03,.1,0,.04-.02,.08-.03,.12,0,.17-.01,.33-.04,.49,0,0,0,.01,0,.02,.05,0,.1,0,.15-.03,.23,.03,.46,.04,.69,.04h.05"/><path class="cls-8" d="M26.31,27.16s0,0,0,0c0,0,0,0,0,0,0,0,0,0,0,0,0,0,0,0,0,0"/><path class="cls-8" d="M25.53,24.44s0,0,0,0c.01,0,.02,0,.03,0,0,0-.02,0-.03,0"/><path class="cls-8" d="M23.99,28.79c.06-.45-.53-.45-.79-.57-.3-.1-.59-.24-.85-.41-.63-.48-1.19-1.06-1.69-1.67-.41-.47-.8-1.08-.6-1.72,.24-.39-.31-.77-.6-.46-.06,.06-.1,.14-.12,.2-.45,1.34,.67,2.46,1.53,3.34,.51,.52,1.01,1,1.68,1.28,.4,.12,1.29,.67,1.44,0"/><path class="cls-8" d="M27.81,26.05c-.18,.02-.3,.04-.43,.05-.49,0-.5-.74,0-.76,.64-.1,1.29-.1,1.93-.11,.19,0,.36,.14,.38,.33,.05,.49-.52,.44-.86,.48-.33,0-.71,.17-1.02,.01"/><path class="cls-8" d="M36.82,24.6s-.02-.02-.02-.03c0,0,0,0,0,0l.02,.03c-.26-.38,.22-.66,.5-.84,.28-.15,.54-.4,.85-.48,.41-.05,.58,.45,.29,.7-.29,.23-.72,.8-1.12,.71-.06,.04-.14,.07-.21,.07-.12,0-.24-.06-.31-.16h0Z"/><path class="cls-6" d="M29.82,21.68c-.11,.47,.76,.8,1.95,.72s2.25-.52,2.36-1c.11-.47-.76-.79-1.95-.72-1.19,.08-2.25,.52-2.36,1"/><path class="cls-11" d="M33.84,21.98c1.29-.81,.56-1.65-.59-1.63-1.1-.02-2.41,.22-3.37,.97-.45,.34-.53,.83-.24,1.12,.33,.35,1,.3,1.57,.25,.29,.03,.63-.09,.94-.13,.57-.11,1.16-.28,1.69-.59m-.7-.3c-.56,.23-1.14,.3-1.7,.4-.32-.03-.69,.06-.99-.01-.8-.32,.96-.93,1.38-.98,.64-.2,3-.16,1.31,.59"/><path class="cls-12" d="M33.84,21.98c1.29-.81,.56-1.65-.59-1.63-1.1-.02-2.41,.22-3.37,.97-.45,.34-.53,.83-.24,1.12,.33,.35,1,.3,1.57,.25,.29,.03,.63-.09,.94-.13,.57-.11,1.16-.28,1.69-.59Zm-.7-.3c-.56,.23-1.14,.3-1.7,.4-.32-.03-.69,.06-.99-.01-.8-.32,.96-.93,1.38-.98,.64-.2,3-.16,1.31,.59Z"/><path class="cls-6" d="M22.45,21.19c-.26,.4,.47,1.02,1.62,1.38,1.15,.36,2.29,.32,2.55-.08,.26-.4-.47-1.02-1.62-1.37-1.15-.36-2.29-.32-2.55,.08"/><path class="cls-11" d="M26.16,22.92c1.48-.29,1.06-1.34-.04-1.73-1.03-.42-2.35-.66-3.51-.31-.53,.15-.76,.59-.58,.96,.2,.45,.85,.64,1.41,.81,.26,.13,.63,.15,.93,.22,.58,.11,1.19,.16,1.79,.06m-.57-.53c-.6,.01-1.17-.13-1.74-.24-.29-.14-.67-.19-.93-.37-.66-.59,1.21-.52,1.62-.42,.67,.04,2.89,.94,1.05,1.03"/><path class="cls-12" d="M26.16,22.92c1.48-.29,1.06-1.34-.04-1.73-1.03-.41-2.35-.66-3.51-.31-.53,.15-.76,.59-.58,.96,.2,.45,.85,.64,1.41,.81,.26,.13,.63,.15,.93,.22,.58,.11,1.19,.16,1.79,.06Zm-.57-.53c-.6,.01-1.17-.13-1.74-.24-.29-.14-.67-.19-.93-.37-.66-.59,1.21-.52,1.62-.42,.67,.04,2.89,.94,1.05,1.03Z"/></g><g><path class="cls-1" d="M6.67,13.7S3.77,9.33,4.93,1.64C5.15,.22,6.25,.22,7.07,.35c.74,.12,4.13,.79,8.38,3.24l1.12,10.92-9.9-.82Z"/><path class="cls-1" d="M49.2,13.7s2.9-4.37,1.74-12.06c-.21-1.42-1.32-1.42-2.13-1.29-.74,.12-4.13,.79-8.38,3.24l-6.35,5.34,10.27,6.21,4.85-1.44Z"/><path class="cls-4" d="M13.8,6.81c-2.55-2.4-4.83-3.02-5.19-3.07-.39-.06-.93-.17-.97,.52-.19,3.11,1.5,5.84,1.5,5.84l4.19,2.15,.48-5.44Z"/><path class="cls-4" d="M46.74,10.1s1.69-2.73,1.5-5.84c-.04-.69-.58-.58-.97-.52-.36,.06-2.64,.67-5.19,3.07v5.07l4.66-1.78Z"/><path class="cls-1" d="M50.89,22.21c0,9.22-10.29,15.1-22.98,15.1S4.94,31.44,4.94,22.21,15.22,3.91,27.91,3.91s22.98,9.08,22.98,18.3Z"/><ellipse class="cls-2" cx="19.05" cy="13.46" rx="2.02" ry="2.01"/><ellipse class="cls-8" cx="19.05" cy="13.38" rx="1.14" ry="1.13"/><ellipse class="cls-2" cx="36.76" cy="13.46" rx="2.02" ry="2.01"/><ellipse class="cls-8" cx="36.76" cy="13.38" rx="1.14" ry="1.13"/><path class="cls-3" d="M30.22,17.02c.05-1.1-.45-1.92-.45-1.92,.66-.48,1.13-1.2,1.13-1.2-.42-.31-1.97-.41-1.97-.41-.55-1.11-1.03-1.61-1.03-1.61-.65,.62-1.09,1.61-1.09,1.61,0,0-1.54,.1-1.97,.41,0,0,.47,.72,1.13,1.2,0,0-.49,.82-.45,1.92,0,0,1.37-.14,2.29-.88,.81,.59,1.74,.86,2.39,.88Z"/><ellipse class="cls-2" cx="14.52" cy="16.12" rx="2.05" ry=".98"/><ellipse class="cls-2" cx="41.15" cy="16.12" rx="2.05" ry=".98"/><path class="cls-5" d="M21.07,17.01s.15,3.31,2.81,3.31,3.73-2.26,3.95-4.11"/><path class="cls-5" d="M34.63,17.01s-.15,3.31-2.81,3.31-3.73-2.26-3.95-4.11"/><path class="cls-5" d="M32.11,37.05s-4.35,.98-8.37,.01"/><path class="cls-2" d="M41.39,7.5c.69,.88,.25,1.58-.15,1.85-3.45,2.35-10.51-.41-12.33-3.87-.13-.24-.2-1.08,.64-1.4l6.63,3.07,5.21,.34"/><path class="cls-2" d="M14.44,7.5l3.65-1.57,8.19-1.84c.84,.32,.77,1.16,.64,1.4-1.87,3.56-8.83,6.26-12.33,3.87-.4-.28-.84-.97-.15-1.85"/><path class="cls-3" d="M26.98,4.78s.96-.38,1.98,0l1.06,.07-.54-.94c-1.59-.38-3.1,0-3.1,0l-.86,.9,1.46-.03Z"/><path class="cls-4" d="M25.52,2.78s.49,.76,.87,1.54c.11,.22,.11,.49-.01,.71-1.48,2.82-8.45,5.65-11.42,3.61-.37-.25-.57-.69-.52-1.14,.26-2.09,1-3.85,1-3.85l5.01-.87h5.07Z"/><path class="cls-4" d="M40.39,3.65s.74,1.77,1,3.85c.06,.44-.15,.88-.52,1.14-2.98,2.04-9.94-.79-11.42-3.61-.12-.22-.12-.49-.01-.71,.38-.78,.87-1.54,.87-1.54h4.08s6,.87,6,.87Z"/><ellipse class="cls-2" cx="20.47" cy="3.33" rx="5.05" ry="1.94" transform="translate(-.22 1.91) rotate(-5.32)"/><ellipse class="cls-2" cx="35.36" cy="3.33" rx="1.94" ry="5.05" transform="translate(28.76 38.24) rotate(-84.68)"/><path class="cls-3" d="M41.78,8.61s3.91,1.27,7.37,6.98c0,0,.39-.9-.38-2.37-2.01-3.88-5.65-5.98-7.51-6.56l.51,1.96Z"/><path class="cls-3" d="M14.02,8.61s-3.91,1.27-7.37,6.98c0,0-.39-.9,.38-2.37,2.01-3.88,5.65-5.98,7.51-6.56l-.51,1.96Z"/><ellipse class="cls-4" cx="20.48" cy="3.31" rx="3.88" ry="1.2" transform="translate(-.22 1.91) rotate(-5.32)"/><ellipse class="cls-4" cx="35.35" cy="3.31" rx="1.2" ry="3.88" transform="translate(28.77 38.2) rotate(-84.68)"/></g><g><polygon class="cls-6" points="46.71 32.44 44.37 32.44 43.08 32.24 42.25 30.91 42.5 29.57 44.22 28.42 45.55 26.91 46.87 23.2 47.33 21.35 49.3 20.78 50.17 21.84 50.6 23.84 51.98 21.84 53.6 22.56 53.5 25.66 55.06 24.65 56.2 26.05 55.84 26.99 55.51 27.97 57.28 29.21 57.22 31.1 56.85 32.17 55.69 31.9 55.16 30.15 51.41 32.86 52.01 34.81 49.51 35.19 46.51 33.88 46.71 32.44"/><path class="cls-8" d="M46.02,33.99h.04s.05,0,.05,0h.05s.05,0,.05,0h.05s.05,0,.05,0h.05s.05,0,.05,0h.05s.05,0,.05,0h.05s.05,0,.05,0h.05s.04,0,.04,0h.05s.05,0,.05,0h.04s.04,0,.04,0h.04s.04,0,.04,0h.04s.04,0,.04,0h0c.01,.15,.02,.3,.03,.45-.03,0-.07,0-.1,0-.28,.02-.55,.1-.79,.23-.02,0-.05,.01-.07,.02-.02-.25-.04-.5-.07-.75"/><path class="cls-8" d="M51.5,34.16s-.02-.06-.03-.08h.02s.07,0,.07,0h.07s.06-.01,.06-.01h.06s.06-.01,.06-.01h.06s.06,0,.06,0h.06s.06,0,.06,0h.06s.06,0,.06,0h.05s.06,0,.06,0h.05s.06,0,.06,0h.06s.06,0,.06,0h.02c.11,.27,.23,.54,.34,.81-.23,.05-.46,.12-.68,.19,0,0,0,0,0,0-.1,0-.2,0-.3,.01-.12-.29-.24-.59-.35-.89"/><path class="cls-8" d="M45.04,33.15c-.18-.14-.41-.18-.62-.26-.25-.1-.49-.25-.76-.31-.5-.1-1.06,.05-1.5-.27-.1-.07-.19-.15-.26-.24-.01-.04-.02-.08-.03-.11-.06-.23-.16-.44-.29-.63,0-.07,0-.13,0-.2,.06-.66-.04-1.42,.35-2,1.18-1.36,2.88-1.28,3.47-3.33,.3-.79,.56-1.6,.88-2.39,.21-.7,.29-1.45,.63-2.1,.25-.57,1.8-1.25,1.9-.29-.03,.73-1.05,.28-1.15,1.01-.16,.43-.26,.89-.35,1.34-.22,.73-.53,1.44-.77,2.16-.48,1.6-1.25,2.69-2.8,3.42-.39,.23-.87,.47-1.08,.89-.02,.47-.24,1.21,0,1.62,.16,.15,.37,.14,.59,.13,.14,0,.28,0,.41,.03,.45,.04,.78,.23,1.13,.38,.22,.07,.45,.13,.65,.25,.4-.28,.51-.8,.39-1.25-.34-.27-.71-.56-1.14-.66-.77-.16-.54-1.67,1.19-.51,.76,.47,1.07,.91,.95,1.82-.04,.63-.68,1.61-1.39,1.61-.13,0-.26-.03-.38-.1"/><path class="cls-8" d="M48.77,25c-.63-.18-1.63-1.82-.54-1.97,.61,0,.41,.83,.87,1.05,.79-.06,.83-.5,.7-1.16-.11-.52,.01-1.75-.81-1.59-.32,.08-.63,.21-.96,.26-.56,0-.66-.82-.12-.95,1.29-.48,2.4-.44,2.7,1.12,.1,.41,.12,.84,.17,1.27,.05,.34,.11,.71-.07,1.03-.23,.61-.93,.99-1.58,.99-.13,0-.25-.01-.37-.04"/><path class="cls-8" d="M52.1,26.53c-.92-.22-1.61-1.25-1.25-2.17,.14-.39,.75-.38,.9,0,.1,.24-.07,.48,.01,.72,.14,.4,.66,.66,1.02,.37,.05-.88,.21-1.75,.22-2.62-.36-.28-.82-.52-1.23-.63-.2,.43-.49,.8-.67,1.23-.25,.35-.3,.99-.81,1.02-.26,0-.49-.22-.49-.48,0-.21,.14-.37,.21-.55,.27-.56,.59-1.1,.89-1.65,.39-.76,1.21-.59,1.81-.23,.39,.14,.71,.39,1.04,.63,.47,.6,.12,1.53,.08,2.23-.02,1.28-.11,2.13-1.54,2.13-.06,0-.13,0-.19,0"/><path class="cls-8" d="M54.26,28.35c-.53-.21-.99-.66-.99-1.25-.06-.44-.08-.92,.23-1.28-.46,.41-1.1-.28-.66-.71,.55-.32,2.03-1.75,2.59-1.17,.52,.81,1.78,1.62,1.25,2.71-.31,.41-.74,.72-1.04,1.14-.28,.36-.56,.65-.96,.65-.13,0-.27-.03-.42-.1m0-1.93c-.14,.22-.02,.51,0,.76,.06,.14,.24,.22,.38,.29,.38-.44,.76-.89,1.19-1.29,.03-.16-.09-.27-.18-.39-.21-.34-.49-.62-.75-.91-.37,.23-.75,.45-1.09,.73,.04,0,.08-.01,.12-.01,.39,0,.64,.52,.34,.83"/><path class="cls-8" d="M50.95,33.36c-.57,0-1.05-.32-1.6-.39-.37-.03-.88,0-.89-.51,.06-.75,1.03-.43,1.5-.37,.4,.17,.8,.32,1.24,.33,.19,.03,.34-.07,.5-.15,.41-.18,.84-.34,1.23-.58,.25-.22,.53-.4,.78-.61,.16-.21,.36-.38,.52-.59,.08-.14,.15-.3,.28-.4,.35-.21,.87-.54,1.19-.12,.14,.2,.11,.44,.16,.67,.12,.36,.2,.78,.56,.97,.2-.79,.39-1.66,.27-2.48-.25-.26-.6-.38-.83-.66-.34-.16-.84-.32-.93-.73-.04-.55,.56-.7,.93-.36,.18,.14,.4,.18,.58,.3,.24,.26,.56,.41,.82,.65,.44,.3,.45,.84,.45,1.32,.02,.52-.12,1.03-.19,1.54-.07,.38-.08,.83-.4,1.1-.88,.87-1.93-.3-2.13-1.19-.65,.81-1.48,1.48-2.45,1.87-.43,.18-.84,.43-1.31,.43-.1,0-.19,0-.29-.03"/><path class="cls-8" d="M47.11,34.46h-.04s-.04,0-.04,0h-.04s-.04,0-.04,0h-.04s-.04,0-.04,0h-.05s-.05,0-.05,0h-.05s-.05,0-.05,0h-.05s-.05,0-.05,0h-.05s-.05,0-.05,0h-.05s-.05,0-.05,0h-.05s-.05,0-.05,0h-.05s-.05,0-.05,0h-.05s-.04,0-.04,0c-.08-.95-.16-1.9-.2-2.84,.27-.69,1.13-.32,.95,.37,.12,.83,.18,1.67,.24,2.52h0Z"/><path class="cls-8" d="M51.16,32.69c.29-.5,1.09-.12,.87,.42,.19,.45,.38,.91,.57,1.36h-.02s-.06,0-.06,0h-.05s-.06,0-.06,0h-.06s-.05,0-.05,0h-.16s-.06,0-.06,0h-.06s-.06,0-.06,0h-.06s-.06,0-.06,0h-.06s-.06,.01-.06,.01h-.06s-.07,.01-.07,.01h-.02c-.2-.59-.75-1.2-.42-1.81"/><path class="cls-8" d="M49.11,35.26c-.92-.02-1.81-.21-2.69-.46-.27-.02-.48-.24-.48-.51s.24-.51,.52-.51c.78,.14,1.54,.42,2.35,.44,1.14,.03,2.38,.16,3.45-.33,.57-.16,1.18-1.19,1.75-.69,.55,.68-.58,1.15-1.04,1.47-.88,.52-1.89,.6-2.9,.6-.32,0-.63,0-.94-.01"/></g></svg>