<?xml version="1.0" encoding="UTF-8"?><svg id="_レイヤー_9" xmlns="http://www.w3.org/2000/svg" xmlns:xlink="http://www.w3.org/1999/xlink" viewBox="0 0 72.7 133.34"><defs><style>.cls-1,.cls-2,.cls-3,.cls-4,.cls-5,.cls-6{fill:none;}.cls-2,.cls-7,.cls-8,.cls-9,.cls-10,.cls-11,.cls-3,.cls-4,.cls-5,.cls-12,.cls-6,.cls-13,.cls-14{stroke:#040000;}.cls-2,.cls-8,.cls-9,.cls-10,.cls-11,.cls-3,.cls-4,.cls-5,.cls-6,.cls-14{stroke-linecap:round;}.cls-2,.cls-4,.cls-12,.cls-13,.cls-14{stroke-miterlimit:10;}.cls-2,.cls-6,.cls-14{stroke-width:.76px;}.cls-7,.cls-8,.cls-9,.cls-10,.cls-11,.cls-3,.cls-5,.cls-6{stroke-linejoin:round;}.cls-7,.cls-10,.cls-15,.cls-13{fill:#e9da21;}.cls-7,.cls-12,.cls-13{stroke-width:.18px;}.cls-8{fill:#88c0dd;}.cls-8,.cls-9,.cls-10,.cls-11,.cls-3{stroke-width:.6px;}.cls-9,.cls-16,.cls-14{fill:#fff;}.cls-11,.cls-17{fill:#025999;}.cls-18{fill:#040000;}.cls-19{fill:#ce8a0d;}.cls-4,.cls-5{stroke-width:.98px;}.cls-12{fill:url(#Unnamed_Pattern_13);}</style><pattern id="Unnamed_Pattern_13" x="0" y="0" width="28.8" height="28.8" patternTransform="translate(-2834.96 -2373.05) scale(.74)" patternUnits="userSpaceOnUse" viewBox="0 0 28.8 28.8"><g><rect class="cls-1" x="0" y="0" width="28.8" height="28.8"/><g><path class="cls-17" d="M28.8,30.96c1.19,0,2.16-.97,2.16-2.16s-.97-2.16-2.16-2.16-2.16,.97-2.16,2.16,.97,2.16,2.16,2.16Z"/><path class="cls-17" d="M14.4,30.96c1.19,0,2.16-.97,2.16-2.16s-.97-2.16-2.16-2.16-2.16,.97-2.16,2.16,.97,2.16,2.16,2.16Z"/><path class="cls-17" d="M28.8,16.56c1.19,0,2.16-.97,2.16-2.16s-.97-2.16-2.16-2.16-2.16,.97-2.16,2.16,.97,2.16,2.16,2.16Z"/><path class="cls-17" d="M14.4,16.56c1.19,0,2.16-.97,2.16-2.16s-.97-2.16-2.16-2.16-2.16,.97-2.16,2.16,.97,2.16,2.16,2.16Z"/><path class="cls-17" d="M7.2,23.76c1.19,0,2.16-.97,2.16-2.16s-.97-2.16-2.16-2.16-2.16,.97-2.16,2.16,.97,2.16,2.16,2.16Z"/><path class="cls-17" d="M21.6,23.76c1.19,0,2.16-.97,2.16-2.16s-.97-2.16-2.16-2.16-2.16,.97-2.16,2.16,.97,2.16,2.16,2.16Z"/><path class="cls-17" d="M7.2,9.36c1.19,0,2.16-.97,2.16-2.16s-.97-2.16-2.16-2.16-2.16,.97-2.16,2.16,.97,2.16,2.16,2.16Z"/><path class="cls-17" d="M21.6,9.36c1.19,0,2.16-.97,2.16-2.16s-.97-2.16-2.16-2.16-2.16,.97-2.16,2.16,.97,2.16,2.16,2.16Z"/></g><g><path class="cls-17" d="M0,30.96c1.19,0,2.16-.97,2.16-2.16s-.97-2.16-2.16-2.16-2.16,.97-2.16,2.16,.97,2.16,2.16,2.16Z"/><path class="cls-17" d="M0,16.56c1.19,0,2.16-.97,2.16-2.16s-.97-2.16-2.16-2.16-2.16,.97-2.16,2.16,.97,2.16,2.16,2.16Z"/></g><g><path class="cls-17" d="M28.8,2.16c1.19,0,2.16-.97,2.16-2.16s-.97-2.16-2.16-2.16-2.16,.97-2.16,2.16,.97,2.16,2.16,2.16Z"/><path class="cls-17" d="M14.4,2.16c1.19,0,2.16-.97,2.16-2.16s-.97-2.16-2.16-2.16-2.16,.97-2.16,2.16,.97,2.16,2.16,2.16Z"/></g><path class="cls-17" d="M0,2.16c1.19,0,2.16-.97,2.16-2.16S1.19-2.16,0-2.16-2.16-1.19-2.16,0-1.19,2.16,0,2.16Z"/></g></pattern></defs><g><path class="cls-19" d="M53.39,127.46c-.52-1.05-2.01-1.92-3.82-2.46-.73-.25-3.09-.99-3.04-1.41-.17-.76-1.01-1.24-2.05-1.46-1.91-.74-4.7-.81-6.72-.04-.04,.06-.08,.12-.12,.18-.11,.2-.21,.41-.3,.62-.11,.25-.21,.5-.42,.73-.15,.17-.35,.33-.54,.49-.11,.09-.22,.18-.35,.26-.33,.2-.74,.31-1.17,.34-.09,0-.17,0-.26,0-.11,0-.22,0-.33,0-.09,0-.18,0-.27,0-.04,0-.07,0-.11,0-.04,0-.07,0-.11,0,0,0,0,0-.01,0-.03,0-.07,0-.1-.01-.03,0-.07,0-.1-.01-.04,0-.08-.01-.12-.02-.02,0-.04,0-.05-.01-.01,0-.02,0-.04,0-.06-.01-.12-.03-.17-.05,0,0,0,0,0,0,0,0,0,0-.01,0-.05-.02-.1-.03-.14-.05-.02,0-.03-.01-.05-.02-.04-.02-.08-.03-.12-.05-.01,0-.02-.01-.03-.02-.05-.02-.1-.05-.14-.08-.01,0-.02-.01-.03-.02-.04-.02-.07-.04-.1-.07-.09-.06-.17-.13-.23-.2-.01-.01-.02-.03-.03-.04-.12-.14-.2-.29-.29-.44,0-.01-.02-.03-.03-.04-.02-.03-.05-.06-.07-.1,0,0,0,0,0,0-.02-.02-.04-.04-.06-.07,0,0,0,0,0,0-.13-.14-.27-.28-.42-.41-.04-.03-.08-.06-.12-.09-.09-.02-.17-.04-.26-.06,0,0,0,0,0,0-.05-.01-.1-.02-.15-.03-.04,0-.07-.02-.11-.02,0,0-.01,0-.02,0-.13-.03-.27-.05-.4-.08,0,0,0,0,0,0,0,0-.02,0-.02,0,0,0,0,0,0,0-.05,0-.11-.01-.16-.02-.03,0-.06,0-.1-.01-.02,0-.05,0-.07,0,0,0,0,0,0,0-.02,0-.03,0-.05,0-.05,0-.1,0-.16,0-.11,0-.23,0-.34-.01,0,0-.02,0-.03,0,0,0-.01,0-.02,0-.18,0-.36,0-.54,0,0,0,0,0,0,0h-.03s0,0,0,0c-.14,0-.28,.01-.43,.02,0,0,0,0-.01,0-.02,0-.04,0-.06,0,0,0,0,0,0,0-.06,0-.12,.01-.18,.02,0,0,0,0,0,0-.11,.02-.22,.05-.32,.08-.08,.02-.15,.05-.23,.07-.18,.06-.36,.12-.54,.18-.12,.05-.23,.1-.35,.15-.03,.01-.06,.03-.09,.04-.05,.02-.1,.04-.15,.06,0,0-.01,0-.02,0,0,0-.02,0-.03,.01,0,0,0,0,0,0-.15,.06-.29,.12-.44,.19-.01,0-.03,.01-.04,.02-.02,.01-.05,.02-.07,.03-.01,0-.02,.01-.03,.02-.02,.01-.04,.02-.06,.03,0,0,0,0,0,0-.04,.03-.09,.05-.13,.08-.02,.01-.04,.02-.05,.03-.06,.03-.11,.07-.17,.1-.25,.14-.49,.25-.79,.35-.25,.08-.5,.14-.77,.19h0c-.09,.02-.18,.03-.27,.05-.5,.09-1.01,.14-1.52,.16h0c-.16,0-.31,0-.46,0-.06,0-.13,0-.19,0,0,0-.01,0-.02,0-.03,0-.07,0-.1,0-.07,0-.14,0-.21-.01-.04,0-.09,0-.13,0-.09,0-.18-.01-.27-.02-.41-.04-.81-.13-1.21-.22-.44-.1-.83-.27-1.14-.5-.31,.02-.61,.05-.9,.1-6.4,.58-9.81,3.16-2.95,4.82,.58,.49,1.57,.86,2.74,1.13,.58,.35,1.09,.74,1.89,.97,.25,.07,.5,.14,.75,.2,.21,.16,.44,.31,.69,.45,2.01,1.14,4.96,1.81,7.93,1.91,.35,.01,.71,.02,1.07,.02,2.63,0,5.25-.35,7.46-1.07,1.24-.37,2.34-.89,3.73-1.11,1.43-.19,2.91-.15,4.38-.1,.78,.02,1.55,.04,2.32,.03,.59-.01,1.2-.08,1.79-.2,.64-.05,1.25-.19,1.74-.42,1.96-.64,3.15-1.82,2.42-3.01Z"/><polygon class="cls-16" points="56.32 61.63 55.79 60.01 55.68 59.28 54.7 51.6 54.46 46.05 54.3 39.05 55.7 39.45 57.34 38.64 59.55 40.49 60.9 36.91 61.47 35.8 62.94 34.98 64.13 35.65 64.36 38.77 65.74 37.65 67.68 38.14 67.68 39.79 68.9 40.31 69.95 40.82 69.8 43.17 70.95 44.18 72.22 46.71 71.19 47.24 69.67 45.79 68.32 46.3 67.12 49.02 65.52 50.55 66.95 53.27 68.14 56.02 69.73 60.01 70.1 65.16 69.27 67.17 68.46 68.65 66.35 69.87 63.95 69.48 61.27 66.68 58.82 62.38 57.69 62.67 56.97 62.67 56.32 61.63"/><polygon class="cls-16" points="5.48 39.48 7.66 34.19 5.9 32.94 3.22 30.93 2.72 32.43 1.51 32.8 .86 31.6 .86 29.08 3.2 27.36 2.22 26.49 1.93 24.8 3.8 23.3 5.6 24.94 5.29 20.99 7.53 20.35 9.26 22.71 9.29 20.69 9.9 19.15 12.84 19.55 13.35 21.61 15.09 26.46 16.39 27.84 18.74 29.08 19.21 31.64 18.79 32.82 15.48 33.45 13.96 33.09 13.55 37 14.87 36.58 17.21 34.61 21.24 33.52 18.1 54.16 17.83 51.72 10.27 55.54 5.74 55.54 2.89 51.67 2.58 48.36 3.95 42.56 5.02 40.84 5.48 39.48"/><path class="cls-16" d="M28.55,20.04l-.72,.16-1.18,5.08-2.08-1.86-.76,1.42c-.06,2.55,.78,3.67,1.76,4.54l1.63-.26,1.68,5.65-3-.12,.9,7.53,3.7,4.28,5.29,1.33,5.5-1.33,4.71-4.4,1.01-3.7,.15-1.18-4.97-.44,2.05-2.52,1.26-4.22s3.46-.76,3.95-3.21-.82-4.03-.82-4.03l-2.07,2.52-1.33-5.41-5.91-1.15h-4.9l-5.84,1.32Z"/><polygon class="cls-16" points="22.07 100.16 26.09 99.41 30.64 100.64 33.11 102.5 31.45 108.86 27.94 108.03 24.31 109.42 22.76 104.92 22.07 100.16"/><polygon class="cls-16" points="40.1 106.49 43.33 107.83 46.33 107.53 48.17 107.16 43.57 114.65 40.97 114.65 38.67 112.38 40.1 106.49"/><path class="cls-15" d="M27.89,20.07l-1.24,5.21-2.68-3.68-2.28-1.2-.09-2.1,.97-2.32v-3.18l.48-1.95,3.25-1.27,2.44-3.15,3.51-.77,1.27,.54,3.52-2.08,2.77-.26,3.67,1.84,4.67,.99,1.96,1.59,.36,2.31,1.44,1.64,.62,2-1.33,2.85c.74,2.35,.74,3.73-.14,3.93l-2.09,.5-2.49,4.19-.84-5.63-7.2-1.36-6.66,.16-3.89,1.19Z"/><polygon class="cls-16" points="23.89 18.47 28.55 16.52 31.36 17.09 34.92 16.35 37.59 15.39 38.52 16.47 41.97 15.63 48.88 18.22 49.15 21.37 40.58 18.72 33.53 18.72 27.38 20.23 23.97 21.61 23.89 18.47"/><path class="cls-7" d="M25.88,34.65c-.04,2.51,.56,5.23,1.76,8.15,1.34,1.98,2.63,3.64,3.69,3.87,1.74,1.12,3.98,1.28,6.4,1.11l4.99-2.71,3.57-4.58,.96-3.78,.61,.02-.81,7.94-3.48,8.15-3.78,3.09-3.88,1.01-4.59-.46-3.57-2.99-1.7-4.21-.49-5.54v-6.67l.3-2.41Z"/><path class="cls-16" d="M25.41,33.4l-3.81-.4-1.7,6.13-1.41,10.75-1.14,6.17,1.07,10.78,5.02,12.48,6.97,3.01,9.64,1.68,6.01-.37,6.52-3.37,2.1-6.75,2.6-5.98,.89-4.47-1.67-.53-1.46-6.98-.56-6.44-.18-10.05-1.37-.9-4.69-1.49-2.18,11.29-2.48,4.89-3.78,3.09-3.28,.95-5.19-.4s-3.3-2.37-4.38-4.79c-1.08-2.41-1.39-9.66-1.39-9.66l-.17-8.63Z"/><path class="cls-12" d="M25.41,33.4l-3.81-.4-1.7,6.13-1.41,10.75-1.14,6.17,1.07,10.78,5.02,12.48,6.97,3.01,9.64,1.68,6.01-.37,6.52-3.37,2.1-6.75,2.6-5.98,.89-4.47-1.67-.53-1.46-6.98-.56-6.44-.18-10.05-1.37-.9-4.69-1.49-2.18,11.29-2.48,4.89-3.78,3.09-3.28,.95-5.19-.4s-3.3-2.37-4.38-4.79c-1.08-2.41-1.39-9.66-1.39-9.66l-.17-8.63Z"/><path class="cls-17" d="M22.07,100.16l4.02-.75,5.2,1.55,1.83,1.54s2.86-6.59,4.28-7.69l1.42-1.1,1.54,4.01-.25,8.77,3.23,1.34,4.47-.67,3.43-9.64,1.53-10.65-.18-6.6-5.3,2.74s-5.6,.97-8.21,.63-8.65-1.31-8.65-1.31l-6.89-3.01-1.12,4.32-1.04,4.58s-.41,8.72,.7,11.95Z"/><polygon class="cls-13" points="24.31 109.42 26.29 108.03 30.13 108.55 31.62 109.84 31.29 116.72 28.55 116.34 25.79 115.18 24.31 109.42"/><polygon class="cls-13" points="38.67 112.38 41.89 114.65 43.57 114.65 39.14 120.25 37.46 119.68 37.03 117.33 38.67 112.38"/><path class="cls-17" d="M25.79,115.18s1.07-.55,2.05,.45c1.25,1.29,3.49,.38,3.49,.38l.03,5.38-.6,1.84-1.89,.97-5.77-.4-3.75-1.96s-2.42-1.41-1.53-2.93,5.58-2.53,5.58-2.53l2.38-1.2Z"/><path class="cls-17" d="M36.55,118.3s1.04,1.66,1.81,1.8,1.35,.69,1.35,.69l2.18,4.46,.19,2.48-1.77,.71-2.76,.37-1.48-1.93-.19-3.83-.56-2.01,1.23-2.74Z"/><polygon class="cls-13" points="59.29 50.57 65.69 51.15 67.29 53.79 65.01 54.97 61.97 55.42 60.28 54.97 59.29 50.57"/><path class="cls-6" d="M33.76,31.47s3.42-.8,6.88-2.39c0,0,.61,1.72-1.27,2.64s-2.27,.97-2.88,1.22-1.65,.44-2.73-1.46Z"/><line class="cls-6" x1="38.82" y1="30.23" x2="39.16" y2="31.6"/><g><path class="cls-5" d="M10.72,33.22s-1.54,.48-2.17,.51c-.73,.04-2.98-.29-4.9-2.93-.1-.14-.38-.25-.64-.32,0,0-.29,2.32-1.21,2.28s-.97-2.03-1.01-2.74-.01-1.21,.68-1.67,1.64-1.09,1.64-1.09"/><path class="cls-5" d="M4.79,25.66s.35,.7,.16,1.13-.73,1.72-2.23,.08c-1.31-1.43-.71-1.94-.13-2.65s.76-1.19,1.63-.53,1.53,1.19,1.53,1.19"/><path class="cls-5" d="M7.97,23.66s.09,.9-.32,1.24-1.65,1.39-2.1-1.06c-.4-2.16-.48-2.79,1.04-3.41,.97-.39,1.2-.31,1.76,.78,.59,1.16,.92,1.59,.92,1.59"/><path class="cls-5" d="M11.71,22.36s-.31,1.11-.83,1.23c-.72,.17-1.91,.04-1.7-2.18,.2-2.08,.64-2.41,2.12-2.22,1.26,.16,1.66,.75,1.91,1.95,.32,1.56,1.45,4.44,1.45,4.44,1.02,2.6,2.58,2.35,3.96,3.75,.75,.76,.94,3.55-.61,3.47-1.98-.1-2.94,1.6-3.75,.08-.49-.91-.65-2,1.63-2.85"/><path class="cls-5" d="M7.84,33.98c-.56,1.24-1.12,2.45-1.63,3.74-1.26,3.16-2.47,5.82-2.47,5.82-1.1,2.92-1.97,5.99-.51,8.96,.63,1.27,1.64,2.34,2.94,2.92,1.46,.66,3.06,.56,4.56,.08,1.69-.54,5.2-2.25,6.59-3.74"/><path class="cls-5" d="M13.96,31.84c-.23,1.76-.3,3.63-.48,5.32-.87,8.34-2.55,14.12-2.55,14.12"/></g><g><g><path class="cls-5" d="M64.71,50.55s2.55,.03,3.29-3.7c0-.69,1.58-1.19,1.58-1.19,0,0,1.08,1.79,2.13,1.29s.15-.73-.45-2.76c-.25-.47-1.42-.76-1.42-.76"/><path class="cls-5" d="M57.57,41.71s1.58,.97,2.21-.15-1.18-1.7-1.85-2.3c-.94-.84-1.9-.32-2.45,.99-.45,1.07,.55,2.85,1.14,5.64,.68,3.17,3.03,3.98,3.03,3.98"/><path class="cls-5" d="M60.02,54.43c.52,3.16,.97,6.75,1.62,9.14"/><path class="cls-5" d="M57.69,60.3c1.44,2.94,4.01,7.94,6.27,9.18,3,1.64,5.63-2.34,6-3.72,.51-1.92,.91-3.86-2.9-11.92"/><path class="cls-5" d="M59.43,40.29s1.59-3.42,1.83-3.98,.89-1.94,2.6-1.03c.63,.33,.61,3.43,.22,3.69-1.14,.75-1.92,.11-2.07-1.57"/><path class="cls-5" d="M64.45,38.58s1.13-.73,1.63-.95c.61-.27,2.04,.3,1.95,.66-.27,1.09-.49,2.88-.67,3.05s-2.29,.66-2.07-1.73"/><path class="cls-5" d="M67.96,40c.56-.35,2.03,.45,1.99,.83-.12,1.11-.09,2.51-.17,2.74-.1,.33-2.24,.61-2.24-2.06"/><line class="cls-5" x1="65.54" y1="41.17" x2="65.05" y2="42.08"/><line class="cls-5" x1="63.72" y1="39.3" x2="62.42" y2="40.81"/><line class="cls-5" x1="67.68" y1="42.69" x2="66.91" y2="44.29"/></g><path class="cls-5" d="M59.08,50.38s3.69,1.05,6.78,.38c0,0,.89,1.45,1.43,2.87,0,0-3.59,3.85-7.44,.54l-.77-3.79Z"/></g><g><path class="cls-5" d="M31.23,115.98s1.09,3.54-.61,7.59c0,0-4.96,2.02-9.63-.67-3.46-1.99-3.71-2.89-2.94-4.07s4.14-2.11,5.84-2.57c1.02-.28,1.78-1.98,3.11-1.21s0,1.48,4.22,.93Z"/><path class="cls-5" d="M36.81,118.32s.4,2.94,2.62,1.52"/><path class="cls-5" d="M37.07,117.6s-1.1,2.08-1.54,3.27,.16,1.93,.28,2.59c.2,1.15-.41,5.11,2.52,5.37s4.15-.98,3.97-2.06c-.29-1.83-1.94-2.65-2.96-6.78,0,0,14.38-13.51,13.24-39.74"/><path class="cls-2" d="M18.18,119.18s1.68,2.02,6.41,3.12,6.17,.92,6.17,.92"/><path class="cls-5" d="M36.81,118.32s6.6-14.12,1.86-24.38c0,0-3.64-2.18-4.84-6.34"/><path class="cls-5" d="M47.76,107.1s-4.13,1.98-7.63-.62"/><path class="cls-5" d="M43.81,114.42s-3.13,1.09-4.9-1.74"/><path class="cls-5" d="M38.02,93.99s-6.38,6.14-6.96,22.29"/><path class="cls-5" d="M23.57,79.19s-6.18,13.89,2.26,35.77"/><path class="cls-5" d="M22.07,100.64s4.81-3.58,11.34,1.81"/><path class="cls-5" d="M23.98,109.54s3.59-3.29,7.72,0"/></g><g><path class="cls-4" d="M26.8,26c.56,5.36,2.55,14.04,9.65,10.89,6.71,3.63,9.34-5.6,10.06-11.39"/><path class="cls-4" d="M24.75,23.28c-.7,.48-1.3,1.33-1.11,2.85,.41,3.24,3.68,3.52,3.68,3.52"/><path class="cls-4" d="M48.25,23.07c.84,.42,1.7,1.28,1.47,3.06-.41,3.24-3.68,3.52-3.68,3.52"/><path class="cls-2" d="M36.5,25.15s-.17,.69-.5,1.34c-.36,.7-.07,1.25,.77,1.35"/><path class="cls-5" d="M38.16,15.46c-.72-.04-1.05-.04-1.74-.03"/><path class="cls-5" d="M28.84,16.48c-2.45,.66-4.22,1.48-4.87,2,0,0-.73,2.12,0,3.14,2-1.57,14.31-5.98,25,0,.72-1.46,0-3.14,0-3.14-2.49-1.39-5.07-2.22-7.59-2.66"/><path class="cls-5" d="M48.74,21.61s-.8,2.32-2.27,4.1c0,0-.12-3.7-1.27-5.78"/><path class="cls-5" d="M24.44,21.61s.8,2.32,2.27,4.1c0,0,.12-3.7,1.27-5.78"/><path class="cls-4" d="M39.8,12.52s-6.39,7.37-11.81,3.4"/><path class="cls-5" d="M43.72,10.21s3.2,.27,1.34,3.13-6.91,3.1-6.91,3.1l.3-2.58"/><path class="cls-5" d="M24.44,22.21s-4.75-1.82-2.18-5.77c.66-1.01-.37-3.92,.99-5.49s3.41-1.36,3.41-1.36c0,0,.54-2.66,2.81-3.5s3.79-.04,4.29,.26c0,0,1.42-2.56,4.85-2.56s3.31,1.68,5.49,1.97c2.18,.28,5.72,1.38,6.02,2.79s.14,2.09,.97,2.88,1.95,2.89,.59,4.76c-1.36,1.87,2.38,4.88-2.69,5.43"/><path class="cls-14" d="M30.77,21.04s3.14,.83,3.56,.18-1.35-1.26-2.51-1.56c-2.9-.76-3.57-.33-3.75-.03s.94,1.03,2.7,1.42Z"/><path class="cls-14" d="M42.12,21.04s-3.14,.83-3.56,.18,1.35-1.26,2.51-1.56c2.9-.76,3.57-.33,3.75-.03s-.94,1.03-2.7,1.42Z"/></g><g><path class="cls-5" d="M16.39,46.47s.88,4.59,1.65,6.49"/><path class="cls-5" d="M20.74,33.54s-3.71-.04-7.18,3.93"/><path class="cls-5" d="M59.21,55.92s-1.48,4.44-2.42,5.93"/><path class="cls-5" d="M47.99,36.88c-1.21,18.96-9.93,20.24-13.08,20.04s-7.32-1.1-8.62-7.2c-1.29-6.1-.38-15.98-.38-15.98,0,0-2.05-.88-4.64-.34,0,0-.76,2.96-1.11,5.18-.95,6.01-2.18,15.12-2.69,17.47-.3,1.37,.33,9.54,1.9,13.47s2.9,7.15,3.42,8.37,1.13,1.67,3.25,2.7,16.84,6.93,26.54-.33c0,0,.13-3.29,2.87-8.26s2.72-10.33,2.72-10.33c-.15,1.39-1.2,1.14-1.2,1.14-3.04-2.93-2.68-23.95-2.68-23.95,0,0-6.73-3.49-7.66-1.67"/><path class="cls-5" d="M42.25,36.57s.87,.84,5.62,1.06"/><path class="cls-5" d="M25.79,35.41s.11,11.61,9.13,12.38,12.35-9.93,12.35-9.93"/><path class="cls-2" d="M21.27,60.15s1.58,4.34,10.42,4.75"/><path class="cls-2" d="M38.21,65.29s6.02,1.42,11.34-.39"/><path class="cls-2" d="M35,68.13s.1,3.44,.25,5.19,0,4.26,0,4.26"/><path class="cls-5" d="M26.03,34.12s1.97,.78,3.22,.71"/><path class="cls-5" d="M26.03,37.1s2.87,3.26,5.34,3.87c2.02,.5,2.39,1.26,2.39,1.26"/><path class="cls-5" d="M37.54,42.61s.52-.92,1.56-1,4.82-.74,7.3-1.96"/><line class="cls-5" x1="54.31" y1="39.3" x2="55.79" y2="39.66"/></g><g><circle class="cls-18" cx="32.17" cy="24.8" r="1.23"/><circle class="cls-2" cx="32.17" cy="24.8" r="2.41"/><circle class="cls-18" cx="41.01" cy="24.8" r="1.23"/><circle class="cls-2" cx="41.01" cy="24.8" r="2.41"/></g></g><g><path class="cls-8" d="M15.2,13.77s-2.9-4.39-1.74-12.12c.21-1.43,1.31-1.42,2.13-1.29,.74,.12,4.13,.8,8.38,3.26l1.12,10.98-9.89-.82Z"/><path class="cls-8" d="M57.7,13.77s2.9-4.39,1.74-12.12c-.21-1.43-1.31-1.42-2.13-1.29-.74,.12-4.13,.8-8.38,3.26l-6.34,5.37,10.26,6.24,4.85-1.45Z"/><path class="cls-11" d="M22.33,6.85c-2.55-2.41-4.83-3.03-5.18-3.09-.39-.06-.93-.17-.97,.52-.19,3.13,1.5,5.87,1.5,5.87l4.18,2.16,.48-5.47Z"/><path class="cls-11" d="M55.23,10.15s1.69-2.74,1.5-5.87c-.04-.69-.58-.58-.97-.52-.36,.06-2.64,.68-5.18,3.09v5.09l4.66-1.79Z"/><path class="cls-8" d="M59.38,22.33c0,9.27-10.28,15.18-22.96,15.18s-22.96-5.9-22.96-15.18S23.74,3.93,36.42,3.93s22.96,9.13,22.96,18.4Z"/><circle class="cls-9" cx="27.56" cy="13.53" r="2.02"/><circle class="cls-18" cx="27.56" cy="13.45" r="1.14"/><circle class="cls-9" cx="45.26" cy="13.53" r="2.02"/><circle class="cls-18" cx="45.26" cy="13.45" r="1.14"/><path class="cls-10" d="M38.73,17.11c.05-1.11-.44-1.93-.44-1.93,.65-.48,1.13-1.21,1.13-1.21-.42-.31-1.96-.41-1.96-.41-.55-1.12-1.03-1.62-1.03-1.62-.65,.62-1.09,1.62-1.09,1.62,0,0-1.54,.1-1.96,.41,0,0,.47,.73,1.13,1.21,0,0-.49,.82-.44,1.93,0,0,1.37-.14,2.29-.88,.81,.6,1.74,.86,2.39,.88Z"/><ellipse class="cls-9" cx="23.04" cy="16.21" rx="2.05" ry=".98"/><ellipse class="cls-9" cx="49.65" cy="16.21" rx="2.05" ry=".98"/><path class="cls-19" d="M31.98,20.43s2.78,.34,4.42-3.24c0,0,1.21,3.73,4.49,3.24v12.5s-.16,4.02-.16,4.02l-3.14,.7-5.34-.38-.28-10.91v-5.93Z"/><path class="cls-3" d="M29.59,17.1s.15,3.33,2.81,3.33,3.73-2.27,3.95-4.13"/><path class="cls-3" d="M43.13,17.1s-.15,3.33-2.81,3.33-3.73-2.27-3.95-4.13"/><path class="cls-3" d="M31.98,20.43s-.04,13.16,.17,16.76"/><path class="cls-3" d="M40.88,20.43s.04,13.16-.17,16.76"/><path class="cls-3" d="M40.61,37.25s-4.34,.99-8.36,.01"/><path class="cls-9" d="M49.89,7.54c.69,.89,.25,1.58-.15,1.86-3.44,2.37-10.5-.41-12.32-3.89-.13-.24-.2-1.08,.64-1.41l6.62,3.09,5.2,.34"/><path class="cls-9" d="M22.96,7.54l3.64-1.58,8.18-1.85c.84,.32,.77,1.16,.64,1.41-1.87,3.57-8.82,6.29-12.32,3.89-.4-.28-.84-.97-.15-1.86"/><path class="cls-10" d="M35.49,4.81s.96-.38,1.98,0l1.06,.07-.54-.95c-1.59-.38-3.1,0-3.1,0l-.85,.91,1.46-.03Z"/><path class="cls-11" d="M34.03,2.79s.49,.76,.87,1.55c.11,.23,.11,.49-.01,.71-1.48,2.83-8.44,5.68-11.41,3.63-.37-.26-.57-.7-.52-1.14,.26-2.1,1-3.88,1-3.88l5.01-.87h5.06Z"/><path class="cls-11" d="M48.89,3.67s.74,1.78,1,3.88c.06,.45-.15,.89-.52,1.14-2.97,2.05-9.93-.8-11.41-3.63-.12-.22-.12-.49-.01-.71,.38-.78,.87-1.55,.87-1.55h4.07s6,.87,6,.87Z"/><ellipse class="cls-9" cx="28.99" cy="3.35" rx="5.05" ry="1.95" transform="translate(-.19 2.72) rotate(-5.36)"/><ellipse class="cls-9" cx="43.87" cy="3.35" rx="1.95" ry="5.05" transform="translate(36.43 46.71) rotate(-84.64)"/><path class="cls-10" d="M50.28,8.66s3.9,1.28,7.37,7.02c0,0,.39-.91-.37-2.39-2.01-3.9-5.64-6.01-7.5-6.6l.51,1.97Z"/><path class="cls-10" d="M22.54,8.66s-3.9,1.28-7.37,7.02c0,0-.39-.91,.37-2.39,2.01-3.9,5.64-6.01,7.5-6.6l-.51,1.97Z"/><ellipse class="cls-11" cx="29" cy="3.33" rx="3.88" ry="1.21" transform="translate(-.18 2.72) rotate(-5.36)"/><ellipse class="cls-11" cx="43.85" cy="3.33" rx="1.21" ry="3.88" transform="translate(36.44 46.67) rotate(-84.64)"/></g><g><path class="cls-16" d="M5.2,39.5l2.17-5.29-1.75-1.25-2.69-2.02-.5,1.5-1.21,.37-.65-1.2v-2.52l2.34-1.72-.98-.86-.29-1.69,1.87-1.5,1.8,1.64-.31-3.95,2.24-.64,1.73,2.36,.03-2.02,.61-1.53,2.94,.4,.51,2.06,1.74,4.86,1.31,1.38,2.34,1.24,.48,2.56-.42,1.18-3.31,.63-1.52-.37-.41,3.91,1.32-.41,2.34-1.98,4.03-1.09s-2.71,4.91-3.16,7.65-.24,10.55-.24,10.55h0l-7.56,3.82H5.46s-2.86-3.87-2.86-3.87l-.31-3.31,1.37-5.8,1.07-1.71,.46-1.37Z"/><g><path class="cls-5" d="M10.43,33.25s-1.54,.48-2.17,.51c-.73,.04-2.98-.29-4.9-2.93-.1-.14-.38-.25-.64-.32,0,0-.29,2.32-1.21,2.28s-.97-2.03-1.01-2.74-.01-1.21,.68-1.67,1.64-1.09,1.64-1.09"/><path class="cls-5" d="M4.5,25.68s.35,.7,.16,1.13-.73,1.72-2.23,.08c-1.31-1.43-.71-1.94-.13-2.65s.76-1.19,1.63-.53,1.53,1.19,1.53,1.19"/><path class="cls-5" d="M7.68,23.68s.09,.9-.32,1.24-1.65,1.39-2.1-1.06c-.4-2.16-.48-2.79,1.04-3.41,.97-.39,1.2-.31,1.76,.78,.59,1.16,.92,1.59,.92,1.59"/><path class="cls-5" d="M11.42,22.39s-.31,1.11-.83,1.23c-.72,.17-1.91,.04-1.7-2.18,.2-2.08,.64-2.41,2.12-2.22,1.26,.16,1.66,.75,1.91,1.95,.32,1.56,1.45,4.44,1.45,4.44,1.02,2.6,2.58,2.35,3.96,3.75,.75,.76,.94,3.55-.61,3.47-1.98-.1-2.94,1.6-3.75,.08-.49-.91-.65-2,1.63-2.85"/><path class="cls-5" d="M7.55,34.01c-.56,1.24-1.12,2.45-1.63,3.74-1.26,3.16-2.47,5.82-2.47,5.82-1.1,2.92-1.97,5.99-.51,8.96,.63,1.27,1.64,2.34,2.94,2.92,1.46,.66,3.06,.56,4.56,.08,1.69-.54,5.2-2.25,6.59-3.74"/><path class="cls-5" d="M13.67,31.87c-.23,1.76-.3,3.63-.48,5.32-.87,8.34-2.55,14.12-2.55,14.12"/></g><g><path class="cls-5" d="M16.1,46.5s.88,4.59,1.65,6.49"/><path class="cls-5" d="M20.45,33.57s-3.71-.04-7.18,3.93"/></g></g></svg>