<?xml version="1.0" encoding="UTF-8"?><svg id="_レイヤー_9" xmlns="http://www.w3.org/2000/svg" viewBox="0 0 62.19 121.13"><defs><style>.cls-1,.cls-2,.cls-3,.cls-4,.cls-5,.cls-6,.cls-7,.cls-8,.cls-9,.cls-10,.cls-11,.cls-12{stroke:#040000;}.cls-1,.cls-2,.cls-3,.cls-4,.cls-5,.cls-6,.cls-7,.cls-8,.cls-9,.cls-12{stroke-linecap:round;}.cls-1,.cls-6,.cls-7,.cls-8,.cls-9{fill:none;}.cls-1,.cls-7,.cls-10,.cls-11,.cls-12{stroke-miterlimit:10;}.cls-1,.cls-9,.cls-12{stroke-width:.76px;}.cls-2{fill:#88c0dd;}.cls-2,.cls-3,.cls-4,.cls-5,.cls-6{stroke-width:.6px;}.cls-2,.cls-3,.cls-4,.cls-5,.cls-6,.cls-8,.cls-9{stroke-linejoin:round;}.cls-3,.cls-13,.cls-11,.cls-12{fill:#fff;}.cls-4,.cls-14,.cls-10{fill:#e9da21;}.cls-5,.cls-15{fill:#025999;}.cls-16{fill:#040000;}.cls-17{fill:#ce8a0d;}.cls-7,.cls-8{stroke-width:.98px;}.cls-10,.cls-11{stroke-width:.18px;}</style></defs><g><path class="cls-17" d="M47.75,115.25c-.47-1.05-1.81-1.92-3.46-2.46-.66-.25-2.79-.99-2.75-1.41-.16-.76-.92-1.24-1.86-1.46-1.73-.74-4.25-.81-6.08-.04-.04,.06-.08,.12-.11,.18-.1,.2-.19,.41-.27,.62-.1,.25-.19,.5-.38,.73-.14,.17-.32,.33-.49,.49-.1,.09-.2,.18-.32,.26-.3,.2-.67,.31-1.06,.34-.08,0-.16,0-.24,0-.1,0-.2,0-.3,0-.08,0-.17,0-.25,0-.03,0-.06,0-.1,0-.03,0-.07,0-.1,0,0,0,0,0-.01,0-.03,0-.06,0-.09-.01-.03,0-.06,0-.09-.01-.04,0-.07-.01-.11-.02-.02,0-.03,0-.05-.01-.01,0-.02,0-.03,0-.05-.01-.11-.03-.16-.05,0,0,0,0,0,0,0,0,0,0-.01,0-.04-.02-.09-.03-.13-.05-.01,0-.03-.01-.04-.02-.04-.02-.07-.03-.11-.05-.01,0-.02-.01-.03-.02-.04-.02-.09-.05-.13-.08,0,0-.02-.01-.03-.02-.03-.02-.06-.04-.09-.07-.08-.06-.15-.13-.21-.2-.01-.01-.02-.03-.03-.04-.11-.14-.18-.29-.26-.44,0-.01-.02-.03-.02-.04-.02-.03-.04-.06-.07-.1,0,0,0,0,0,0-.02-.02-.04-.04-.06-.07,0,0,0,0,0,0-.12-.14-.25-.28-.38-.41-.04-.03-.07-.06-.11-.09-.08-.02-.16-.04-.24-.06,0,0,0,0,0,0-.04-.01-.09-.02-.13-.03-.03,0-.06-.02-.1-.02,0,0-.01,0-.02,0-.12-.03-.24-.05-.36-.08,0,0,0,0,0,0,0,0-.01,0-.02,0,0,0,0,0,0,0-.05,0-.1-.01-.15-.02-.03,0-.06,0-.09-.01-.02,0-.04,0-.06,0,0,0,0,0,0,0-.01,0-.03,0-.04,0-.05,0-.09,0-.14,0-.1,0-.2,0-.31-.01,0,0-.02,0-.03,0,0,0-.01,0-.02,0-.16,0-.32,0-.48,0,0,0,0,0,0,0h-.02s0,0,0,0c-.13,0-.26,.01-.39,.02,0,0,0,0-.01,0-.02,0-.03,0-.05,0,0,0,0,0,0,0-.06,0-.11,.01-.17,.02,0,0,0,0,0,0-.1,.02-.2,.05-.29,.08-.07,.02-.14,.05-.21,.07-.17,.06-.33,.12-.49,.18-.11,.05-.21,.1-.31,.15-.03,.01-.05,.03-.08,.04-.04,.02-.09,.04-.13,.06,0,0,0,0-.01,0,0,0-.02,0-.03,.01,0,0,0,0,0,0-.13,.06-.27,.12-.4,.19-.01,0-.02,.01-.04,.02-.02,.01-.04,.02-.06,.03-.01,0-.02,.01-.03,.02-.02,.01-.04,.02-.05,.03,0,0,0,0,0,0-.04,.03-.08,.05-.12,.08-.02,.01-.03,.02-.05,.03-.05,.03-.1,.07-.15,.1-.23,.14-.45,.25-.71,.35-.22,.08-.45,.14-.69,.19h0c-.08,.02-.16,.03-.24,.05-.45,.09-.92,.14-1.38,.16h0c-.14,0-.28,0-.41,0-.06,0-.12,0-.18,0,0,0-.01,0-.02,0-.03,0-.06,0-.09,0-.06,0-.13,0-.19-.01-.04,0-.08,0-.12,0-.08,0-.16-.01-.25-.02-.37-.04-.74-.13-1.09-.22-.4-.1-.76-.27-1.03-.5-.28,.02-.55,.05-.81,.1-5.79,.58-8.88,3.16-2.67,4.82,.53,.49,1.42,.86,2.47,1.13,.53,.35,.99,.74,1.71,.97,.22,.07,.45,.14,.68,.2,.19,.16,.4,.31,.62,.45,1.82,1.14,4.48,1.81,7.17,1.91,.32,.01,.64,.02,.96,.02,2.38,0,4.75-.35,6.75-1.07,1.13-.37,2.12-.89,3.37-1.11,1.29-.19,2.63-.15,3.96-.1,.7,.02,1.4,.04,2.1,.03,.53-.01,1.09-.08,1.62-.2,.58-.05,1.13-.19,1.58-.42,1.78-.64,2.85-1.82,2.19-3.01Z"/><path class="cls-14" d="M24.48,103.95c-.42,.12-3.91,1.57-3.91,1.57h-2.78s-2.29,.74-2.29,.74l-.83,1.59,.97,2.15,3.58,2.06,5.49,.5,1.02,1.17,1.31-1.93,.8-3.95-3.37-3.9Z"/><polygon class="cls-14" points="34.42 105.05 32.67 107.85 31.99 110.69 32.81 110.69 33.2 113.14 34.17 114.91 35.98 115.69 37.5 115.45 37.82 113.14 36.85 109.22 35.61 106.74 34.42 105.05"/><polygon class="cls-13" points="19.57 88.51 20.94 98.59 22.94 104.54 22.3 105.52 22.45 106.69 24.48 107.19 27.51 106.47 27.51 102.46 28.07 95.7 29.89 90.09 19.57 88.51"/><polygon class="cls-13" points="36.96 94.2 35.27 101.1 34.17 105.52 34.42 107.71 35.5 109.22 36.42 108.94 36.42 107.71 38.11 105.52 40.83 100.58 43.95 95.46 36.96 94.2"/><path class="cls-15" d="M23.55,59.89l-6.6,1.35-7.12,5.29-3.51,4.87-3.19,6.43-2,6.26-.71,8.67s1.08,1.73,3.71,1.68c1.31-.02,2.31-1.3,2.31-1.3,0,0,1.58,.83,2.93,.47s2.65-2.17,2.65-2.17c0,0,1.43,.97,2.68,.75s3.04-1.62,3.04-1.62c0,0,1.83,1.39,3.11,1.49,1.59,.13,3.41-.78,3.41-.78,0,0,1.9,1.98,2.41,2.18s3.45,0,3.45,0l.3,.9,1.71,1.43,3.15,.61s2.61,1.82,3.58,1.97,2.52,.05,2.52,.05l1.91,1.27,2.17,.2,2.51-.68,1.34,.79,2.47,.16,2.44-1.6,1.97,.69,2.98-.88,.97-2.27,1.18-1.37,.3-7.02-.92-5.61-1.9-6.95-1.06-2.41-4.06-6.19-2.77-2.66-4.27-3.34-2.51-1.39-18.16,.24-2.41,.49Z"/><polygon class="cls-15" points="21.49 52.88 33.5 54.68 39.86 54.71 46.04 53.75 45.57 60.3 39.86 62.57 36.62 63.89 33.03 63.89 28 63.06 22.58 60.89 21.35 60.26 21.35 54.71 21.49 52.88"/><path class="cls-15" d="M14.81,37.86l5.28-4.08,5.6-.71,7.24,2.39,7.42-1.08,5.25,1.67,7.66,4.4-2.72,6.57,1.06,7.47-2.09,2.6-1.43,.99-1.8-.93-.23-3.4-5.91,.96s-8.13,.01-11.14-.5-7.5-1.33-7.5-1.33l-.69-3.9-4.06,2.55-1.98-.71,.76-2.23-.16-2.6-1.25-1.07,.7-7.06Z"/><polygon class="cls-10" points="31.67 36.35 35.71 37.22 35.7 40.47 37.41 44.53 37.62 48.17 36.75 48.99 35.03 47.27 36.16 53.75 36.39 58.02 34.13 58.19 34.05 52.15 33.6 45.79 32.75 55.67 32.02 57.88 29.67 57.78 30.49 56.25 32.11 46.69 31.96 45.58 29.79 48.73 28.58 48.59 28.58 47.04 28.73 44.31 31.47 39.57 31.67 36.35"/><path class="cls-10" d="M39.86,7.49l-4.04-1.72-3.23-.73-3.91,.39-4.15,2.3-2.9,3.22-1.37,4.54-3.27,5.83-1.46,7.11,3.26,3.06v2.35l-1.31,4.16-.46,4.08,.53,1.21,2.22,.26,.34,1.91-.94,3.42,.6,3.44,.8,.25,2.65-1.23,1.31,2.22,.56-3.4-1.56-2.01,.74-2.81,.27-2.25-1.48-2.3-.34-2.57,.82-4.52,1,1.6v-3.25l1.16-2.19,16.58-.16,.34,1.85-1.94,4.67,1.6-.99,2.29-2.04,.77,8.28-1.23,2.18v3.08l.18,2.51-1.22,1.26-.46,1.56,1.02,2.32,.46-2.22,1.09-.66,2.47,1.56,.77-.51,.61-1.71-.18-5.94,1.89-6.89-.64-2.64-.71-1.93,.84-.84s2.57-.92,1.9-3.9c-.67-2.98-1.49-7.77-1.49-7.77l-3.46-5.69-.9-3.21-1.66-2.68-1.55-1.18-3.2-.69Z"/><path class="cls-11" d="M39.86,13.38l2.4,4.06,1.15,5.41s.49,4.72-1.43,7.03c-1.91,2.31-3.43,3.33-3.43,3.33l-1.44,2.31-3.79,1.09-2.43-.99-3-3.54-2.45-2.74-.91-3.55,.29-3.45,.86-2.14,2.68-1.15,2.84-.54,3.49,.13,.52,.31,1.92-1.54,1.61-2.41,1.13-1.63Z"/><polygon class="cls-11" points="45.88 21.28 46.26 27.15 47.94 24.52 47.52 22.34 45.88 21.28"/><polygon class="cls-11" points="22.07 20.85 22.07 24.6 22.3 27.58 20.18 25.76 19.66 22.58 22.07 20.85"/><polygon class="cls-13" points="55.7 47.4 57.59 46.38 58.77 43.82 59.29 43.98 60.84 44.67 61.35 44.08 60.84 41.81 59.51 40.88 59.51 39.56 59.15 38.76 58.08 38.3 58.08 36.85 56.38 36.43 55.18 37.41 54.72 35.04 53.76 34.45 52.64 34.81 52.15 35.78 50.96 38.91 48.87 37.88 47.86 38.76 47.62 39.56 48.17 41.29 48.37 43.53 49.44 45.13 50.84 47.67 53.89 48.59 55.69 48.04 55.7 47.4"/><polygon class="cls-13" points="15.33 33.31 17.73 33.31 19.05 33.11 19.9 31.75 19.64 30.36 17.88 29.18 16.15 27.62 15.17 23.81 14.32 22.27 12.32 21.69 11.42 22.77 11.36 24.47 9.95 22.4 8.29 23.15 8.38 26.34 6.79 25.29 5.62 26.74 5.99 27.7 6.33 28.72 4.52 29.99 4.58 31.94 4.96 33.04 6.15 32.77 6.51 31.55 8.74 33.17 10.33 33.69 10.03 34.55 14.78 34.35 15.33 33.31"/><polygon class="cls-15" points="19.85 14.33 17.13 13.38 15.37 12.96 14.11 15.15 14.11 18.41 15.63 18.41 19.11 17.03 15.69 19.9 15.15 22.08 15.81 25.76 17.97 24.03 19.76 18.03 19.85 14.33"/><polygon class="cls-15" points="47.17 16.13 49.38 14.12 52.4 13.38 53.73 17.44 53.54 18.96 50.4 18 52.4 20.93 53.22 22.85 52.03 25.41 50.22 24.16 48.63 21.13 47.17 16.13"/><path class="cls-13" d="M27.78,32.64s3.59,4.13,5.25,4.12,2.9-.54,2.9-.54l2.79-2.9,1.91,1.51,.03,2.78s0,2.39-1.08,2.87-2.26,.51-2.26,.51l-1.94-.88-2.34-3.34-.74,1.81-1.41,1.71-2.21-.11-2.03-1.49-.34-2.63,.71-2.75,.77-.66Z"/><path class="cls-15" d="M10.03,34.55s2.26,.55,3.08,.21,2.13-.76,2.13-.76l-1.23,10.5,1.13,1.2,.37,2.78-.86,1.97-3.09,1.22-2.07,.12-2.58-2.32s-1.29-3.62-.75-5.79c.55-2.17,2.48-6.44,2.48-6.44l1.37-2.7Z"/><path class="cls-15" d="M50.43,46.92l2.94,1.19,2.56-.26,2.07,5.2,1.26,3.2s.43,1.96-.55,3.22c-.97,1.26-1.8,1.99-1.8,1.99h-1.69l-2.03-.93-3.25-4.09,1.99-1.73-1.48-6.24-.04-1.54Z"/><path class="cls-11" d="M21.31,60.15s2.62,6.25,5.59,6.74,5.13-1.2,5.13-1.2l2.15-1.04s3.77,2.55,4.25,2.33,1.78,.46,1.78,.46l2.06-1.14,2.91-3.71,.61-2.45-4.18,2.31s-5.7,1.79-8.98,1.18c-3.28-.61-8.79-2.15-8.79-2.15l-2.54-1.31Z"/><path class="cls-9" d="M32.38,29.55s2.28,.85,3.42,.44,2.65-2.28,2.65-2.28c0,0-1.17-1.08-2.04-.13-.62,.68,.66,1.47,.66,1.47"/><g><g><path class="cls-8" d="M12.68,33.24s-1.26,.39-1.77,.42c-.6,.03-2.42-.23-3.99-2.39-.08-.11-.31-.21-.52-.26,0,0-.24,1.89-.98,1.86s-.79-1.66-.83-2.23,0-.98,.56-1.36,1.34-.89,1.34-.89"/><path class="cls-8" d="M7.85,27.08s.28,.57,.13,.92-.59,1.4-1.82,.06c-1.07-1.17-.58-1.58-.11-2.16s.62-.97,1.33-.43,1.24,.97,1.24,.97"/><path class="cls-8" d="M10.44,25.45s.07,.73-.26,1.01-1.35,1.13-1.71-.86c-.32-1.76-.39-2.27,.85-2.78,.79-.32,.97-.25,1.43,.64,.48,.94,.75,1.29,.75,1.29"/><path class="cls-8" d="M13.48,24.39s-.25,.91-.67,1c-.59,.14-1.56,.03-1.38-1.77,.16-1.69,.52-1.96,1.72-1.81,1.02,.13,1.35,.61,1.56,1.59,.26,1.27,1.18,3.61,1.18,3.61,.83,2.12,2.1,1.91,3.22,3.05,.61,.62,.76,2.89-.5,2.83-1.61-.08-2.39,1.3-3.05,.07-.4-.74-.53-1.63,1.33-2.32"/><path class="cls-8" d="M14.49,50.71c-4.71,2.09-6.35,.96-7.79-1.84-1.55-3.03-.24-5.71,.24-7.05s3.39-7.97,3.39-7.97"/><path class="cls-8" d="M15.32,32.12s-.76,10.88-2.42,16.13"/></g><path class="cls-8" d="M10.1,34.5s2.28,.98,5.03-.52"/></g><g><g><path class="cls-8" d="M55.34,47.53s2.13,.02,2.74-3.08c0-.58,1.32-.99,1.32-.99,0,0,.9,1.49,1.78,1.07s.13-.61-.38-2.3c-.21-.39-1.18-.64-1.18-.64"/><path class="cls-8" d="M49.39,40.17s1.32,.81,1.84-.13-.98-1.42-1.54-1.92c-.78-.7-1.58-.27-2.04,.83-.37,.89,.46,2.37,.95,4.7,.56,2.64,2.53,3.32,2.53,3.32"/><path class="cls-8" d="M50.63,46.9c.86,2.83,1.31,8.37,2.15,11.47"/><path class="cls-8" d="M50.13,56.66s1.6,2.92,4.02,4.43,4.65-1.16,4.95-2.31c.48-1.8,1.2-2.08-3.46-11.22"/><path class="cls-8" d="M50.94,38.98s1.33-2.85,1.53-3.32,.74-1.62,2.17-.86c.53,.28,.51,2.86,.19,3.07-.95,.62-1.6,.09-1.73-1.31"/><path class="cls-8" d="M55.12,37.56s.94-.61,1.36-.79c.5-.22,1.7,.25,1.63,.55-.22,.91-.41,2.4-.55,2.54s-1.91,.55-1.72-1.44"/><path class="cls-8" d="M58.04,38.74c.47-.29,1.69,.38,1.66,.69-.1,.93-.08,2.09-.14,2.29-.09,.28-1.86,.51-1.86-1.72"/><line class="cls-8" x1="56.03" y1="39.72" x2="55.62" y2="40.47"/><line class="cls-8" x1="54.52" y1="38.16" x2="53.43" y2="39.42"/><line class="cls-8" x1="57.81" y1="40.98" x2="57.17" y2="42.32"/></g><path class="cls-8" d="M50.96,47.42s1.68,.63,2.47,.85c1.36,.39,2.26-.36,2.26-.36"/></g><g><path class="cls-8" d="M34.47,38.57s3.65,4.77,3.23,9.06c-.42,4.29-4.12-2.55-4.49-7.45"/><path class="cls-8" d="M32.21,38.57s-4.13,4.77-3.71,9.06c.42,4.29,4.34-2.55,4.71-7.45"/><path class="cls-8" d="M33.44,42.76s-.34,10.57-1.72,15.61c0,0-1.62,.1-2.4-.46,0,0,2.32-5.56,3.03-13.53"/><path class="cls-8" d="M34.41,45.46s1.69,5.37,2.06,12.45c0,0-1.13,.6-2.19,.6,0,0-.1-10.78-.71-13.97"/><path class="cls-8" d="M30.48,54.24c-5.29-.61-9.18-1.7-9.18-1.7l.22,7.3c13.5,8.5,24.12,.3,24.12,.3l.52-6.59c-3.21,.9-6.47,1.15-9.9,1.07"/><path class="cls-8" d="M34.14,54.56c-.75-.04-.9-.09-1.62-.16"/><path class="cls-8" d="M23.06,33.26c-3.21,.6-5.94,2.46-8.2,4.6"/><path class="cls-8" d="M27.42,33.32c-.82-.14-1.66-.19-2.5-.19"/><path class="cls-8" d="M13.95,44.53s1.58,.65,1.58,2.91c0,1.85-.66,3.03-.66,3.03,0,0,.85,1.75,1.88,1.05s2.26-2.02,2.26-2.02"/><path class="cls-8" d="M45.89,56.95s1.48,1.53,2.65,.88,3.4-3.58,3.4-3.58"/><path class="cls-8" d="M28.15,32.77s1.94,3.63,5.23,3.67c3.6,.04,5.43-3.14,5.43-3.14"/><path class="cls-8" d="M27.74,32.82s-3.46,4.55-.15,6.82c3.58,2.46,5.8-3.2,5.8-3.2"/><path class="cls-8" d="M39.35,33.5s3.46,4.55,.15,6.82c-3.58,2.46-5.8-3.2-5.8-3.2"/><path class="cls-8" d="M43.22,35.15c.45,.15,.89,.32,1.32,.5"/><path class="cls-8" d="M40.06,34.54c.33-.02,.67,.02,1,.07"/><line class="cls-1" x1="31.26" y1="60.26" x2="34.9" y2="62.57"/><line class="cls-1" x1="34.86" y1="60.38" x2="30.93" y2="62.44"/><line class="cls-1" x1="31.39" y1="58.38" x2="35.03" y2="60.27"/><line class="cls-1" x1="34.99" y1="58.48" x2="31.06" y2="60.17"/></g><g><path class="cls-8" d="M20.33,92.05s-.26,4.82,2.57,12.49c0,0-1.42,.97-3.43,.95-2.12-.03-5.54,.45-4.61,3.05,1.24,3.49,7.75,4.18,10.02,4.02,1.41,2.37,1.76-.02,1.76-.02,0,0,1.38-4.01,.73-6.3-.54-1.88,.25-10.67,1.05-12.33"/><path class="cls-8" d="M35.88,96.09c-.3,4.31-1.12,7.17-1.48,8.48s-1.2,2.05-1.73,3.17c-.33,.7-1,2.59-.68,3.15,0,0,.7-.05,1-.2,0,0-.37,5.11,3.19,5.04,0,0,1.66,.04,1.41-2-.25-2.04-1.41-5.73-1.41-5.73,4.71-5.96,5.68-9.97,5.68-9.97"/><path class="cls-8" d="M45.71,60.22s16.73,7.34,15.74,32.39c-.1,2.61-1.31,3.42-2.42,4.02s-11.8,5.74-26.72-2.29c-14.16-7.63-21.7-2.25-25.53-1.35-2.44,.57-5.54,.35-6.31-1.46-.72-1.68,2-26.6,21.08-31.5"/><path class="cls-8" d="M21.25,60.25s3.04,6.78,6.39,6.9c3.35,.13,6.5-3.19,6.5-3.19"/><path class="cls-8" d="M45.88,60.38s-2.77,6.78-5.83,6.9c-3.05,.13-5.92-3.19-5.92-3.19"/><path class="cls-7" d="M33.8,105.91s.71,3.92,1.81,4.15c.81,.17,.96-.73,.96-.73"/><path class="cls-7" d="M22.33,104.94s-.8,1.17,.26,1.94c1.16,.83,4.83-.4,4.83-.4"/><path class="cls-7" d="M6.35,93.02c-.41,.99-1.73,1.6-3.2,1.42-1.68-.21-2.91-1.38-2.76-2.62,.02-.14,.05-.27,.1-.4"/><path class="cls-7" d="M11.91,91.27c-.14,.95-1,1.85-2.23,2.27-1.31,.45-2.65,.22-3.3-.54"/><path class="cls-7" d="M17.74,90.36c-.3,.79-1.29,1.48-2.57,1.72-1.36,.26-2.63-.06-3.15-.78"/><path class="cls-7" d="M23.85,91.38c-.48,.49-1.61,.75-2.91,.65-1.39-.11-2.53-.61-2.86-1.22"/><path class="cls-7" d="M29.78,93.44c-.61,.39-1.78,.38-3-.06-1.31-.47-2.27-1.29-2.41-2.01"/><path class="cls-7" d="M35.43,96.17c-.64,.33-1.8,.2-2.98-.35-1.26-.59-2.14-1.5-2.2-2.23"/><path class="cls-7" d="M41.1,98.19c-.61,.39-1.78,.37-3-.07-1.31-.47-2.27-1.29-2.4-2.01"/><path class="cls-7" d="M47.45,99.21c-.53,.54-1.68,.78-2.97,.59-1.37-.21-2.47-.85-2.74-1.57"/><path class="cls-7" d="M53.85,98.79c-.38,.72-1.43,1.27-2.73,1.39-1.38,.13-2.61-.29-3.05-1.01"/><path class="cls-7" d="M60.13,96.35c-.16,.97-1.05,2.11-2.32,2.53-1.36,.45-2.87,.39-3.54-.41"/></g><g><path class="cls-8" d="M22.55,27.6c-1-.31-2.57-1.15-2.85-3.34-.27-2.09,1.28-3.23,2.37-3.41"/><path class="cls-8" d="M46.18,27.03c1.62-1.1,2.47-3.92,.84-5.39-.32-.29-.7-.49-1.1-.63"/><path class="cls-1" d="M33.86,23.23s-.17,.69-.5,1.34c-.36,.7-.07,1.25,.77,1.35"/><path class="cls-7" d="M39.5,13.38s5.69,6.92,3.55,13.79c-1.13,3.64-3.61,7.16-9,7.24-4.36,.07-7.02-2.14-8.49-4.74"/><path class="cls-8" d="M39.7,12.71s-2.08,5.29-4.33,6.25l-.97-.55s-.88,.14-1.78,0-5.83,.87-6.48,1.4-1.03,1.15-1.3,2.18-.48,3.61,0,5.15c.48,1.54,.96,2.61,.24,4.08s-.61,2.73-.29,3.92c0,0-1.97-.8-1.58-3.92,.14-1.1-.25-2.9-.86-5.07s-.62-3.8,0-5.95"/><path class="cls-8" d="M42.16,29.39s.98,3.71-1.95,7.16c0,0,3.71-1.64,4.1-3.47s-.06-2.1,1.01-4.14c1.07-2.05,1.1-6.61,0-8.79"/><path class="cls-8" d="M20.26,21.75s-2.58-11.78,7.16-15.91c6.55-2.78,12.29,1.5,12.29,1.5,10.09,.64,6.91,13.86,6.91,13.86"/><path class="cls-8" d="M47.21,16.68s5.69,3.34,5.68,5.1-.34,4.67-1.97,3.17-3.71-7.51-3.71-7.51"/><path class="cls-8" d="M47.21,16.09s2.61-3.06,4.92-2.32,1.32,5.19,1.32,5.19c0,0-2.21-.08-5.84-2.22"/><path class="cls-8" d="M19.76,16.4s-5.21,3.14-5.65,1.63-.24-5.33,1.58-5.19,4.57,1.78,4.57,1.78"/><path class="cls-8" d="M19.76,16.4s-4.27,3.41-4.44,5.01c-.17,1.6-.13,4.63,.77,4.21,1.36-.63,3.16-4.26,3.88-8.38"/><path class="cls-8" d="M51.34,25.26s1.08,4.1,.61,5.56-.95,1.69-1.56,1.96-1,.88-.64,1.86,1.08,2.48,.76,3.97"/><path class="cls-8" d="M48.37,41.55s.79,5.68,.55,8.3c-.24,2.62-.55,3.72-2.36,2.46s-2.83-.37-2.88,2.42c0,0-1.71-3.58-.46-4.51s1.54-1,.88-3.61-.13-2.79,.53-3.75,1.3-1.43-.32-9.67"/><path class="cls-8" d="M23.4,33.48c-1.23,7.31-.63,7.05,.02,8.01s1.49,1.14,.53,3.75-.38,3.74,.86,4.68-.71,4.51-.71,4.51c-.05-2.79-.67-3.28-2.63-2.26-1.72,.89-2.54,0-2.36-2.62,.05-.7,1-4.39,.96-5.01s-.26-.99-1.59-1.17-1.89-1.26-1.24-4.29,1.45-6.08,1.45-6.08"/><path class="cls-8" d="M46.6,26.98s-.03,1.75-1.56,2.57"/><line class="cls-8" x1="16.65" y1="25.21" x2="16.03" y2="27.35"/><path class="cls-12" d="M29.52,17.42s-1.92,.73-2.17,.06,.85-1.22,1.55-1.48c1.78-.66,2.18-.21,2.28,.09s-.59,1-1.67,1.33Z"/><path class="cls-12" d="M38.46,17.42s1.92,.73,2.17,.06-.85-1.22-1.55-1.48c-1.78-.66-2.18-.21-2.28,.09s.59,1,1.67,1.33Z"/></g><g><g><circle class="cls-16" cx="29.47" cy="22.95" r="1.23"/><circle class="cls-1" cx="29.47" cy="22.95" r="2.41"/><circle class="cls-16" cx="38.3" cy="22.95" r="1.23"/><circle class="cls-1" cx="38.3" cy="22.95" r="2.41"/></g><line class="cls-12" x1="26.78" y1="20.94" x2="27.42" y2="21.52"/><line class="cls-12" x1="41.08" y1="20.94" x2="40.44" y2="21.52"/></g></g><g><path class="cls-2" d="M12.4,13.77s-2.9-4.39-1.74-12.12c.21-1.43,1.31-1.42,2.13-1.29,.74,.12,4.13,.8,8.38,3.26l1.12,10.98-9.89-.82Z"/><path class="cls-2" d="M54.9,13.77s2.9-4.39,1.74-12.12c-.21-1.43-1.31-1.42-2.13-1.29-.74,.12-4.13,.8-8.38,3.26l-6.34,5.37,10.26,6.24,4.85-1.45Z"/><path class="cls-5" d="M19.53,6.85c-2.55-2.41-4.83-3.03-5.18-3.09-.39-.06-.93-.17-.97,.52-.19,3.13,1.5,5.87,1.5,5.87l4.18,2.16,.48-5.47Z"/><path class="cls-5" d="M52.44,10.15s1.69-2.74,1.5-5.87c-.04-.69-.58-.58-.97-.52-.36,.06-2.64,.68-5.18,3.09v5.09l4.66-1.79Z"/><path class="cls-2" d="M56.59,22.33c0,9.27-10.28,15.18-22.96,15.18s-22.96-5.9-22.96-15.18S20.95,3.93,33.63,3.93s22.96,9.13,22.96,18.4Z"/><circle class="cls-3" cx="24.77" cy="13.53" r="2.02"/><circle class="cls-16" cx="24.77" cy="13.45" r="1.14"/><circle class="cls-3" cx="42.47" cy="13.53" r="2.02"/><circle class="cls-16" cx="42.47" cy="13.45" r="1.14"/><path class="cls-4" d="M35.94,17.11c.05-1.11-.44-1.93-.44-1.93,.65-.48,1.13-1.21,1.13-1.21-.42-.31-1.96-.41-1.96-.41-.55-1.12-1.03-1.62-1.03-1.62-.65,.62-1.09,1.62-1.09,1.62,0,0-1.54,.1-1.96,.41,0,0,.47,.73,1.13,1.21,0,0-.49,.82-.44,1.93,0,0,1.37-.14,2.29-.88,.81,.6,1.74,.86,2.39,.88Z"/><ellipse class="cls-3" cx="20.24" cy="16.21" rx="2.05" ry=".98"/><ellipse class="cls-3" cx="46.86" cy="16.21" rx="2.05" ry=".98"/><path class="cls-6" d="M26.79,17.1s.15,3.33,2.81,3.33,3.73-2.27,3.95-4.13"/><path class="cls-6" d="M40.34,17.1s-.15,3.33-2.81,3.33-3.73-2.27-3.95-4.13"/><path class="cls-6" d="M37.82,37.25s-4.34,.99-8.36,.01"/><path class="cls-3" d="M47.1,7.54c.69,.89,.25,1.58-.15,1.86-3.44,2.37-10.5-.41-12.32-3.89-.13-.24-.2-1.08,.64-1.41l6.62,3.09,5.2,.34"/><path class="cls-3" d="M20.17,7.54l3.64-1.58,8.18-1.85c.84,.32,.77,1.16,.64,1.41-1.87,3.57-8.82,6.29-12.32,3.89-.4-.28-.84-.97-.15-1.86"/><path class="cls-4" d="M32.69,4.81s.96-.38,1.98,0l1.06,.07-.54-.95c-1.59-.38-3.1,0-3.1,0l-.85,.91,1.46-.03Z"/><path class="cls-5" d="M31.23,2.79s.49,.76,.87,1.55c.11,.23,.11,.49-.01,.71-1.48,2.83-8.44,5.68-11.41,3.63-.37-.26-.57-.7-.52-1.14,.26-2.1,1-3.88,1-3.88l5.01-.87h5.06Z"/><path class="cls-5" d="M46.1,3.67s.74,1.78,1,3.88c.06,.45-.15,.89-.52,1.14-2.97,2.05-9.93-.8-11.41-3.63-.12-.22-.12-.49-.01-.71,.38-.78,.87-1.55,.87-1.55h4.07s6,.87,6,.87Z"/><ellipse class="cls-3" cx="26.19" cy="3.35" rx="5.05" ry="1.95" transform="translate(-.2 2.46) rotate(-5.36)"/><ellipse class="cls-3" cx="41.07" cy="3.35" rx="1.95" ry="5.05" transform="translate(33.9 43.93) rotate(-84.64)"/><path class="cls-4" d="M47.48,8.66s3.9,1.28,7.37,7.02c0,0,.39-.91-.37-2.39-2.01-3.9-5.64-6.01-7.5-6.6l.51,1.97Z"/><path class="cls-4" d="M19.75,8.66s-3.9,1.28-7.37,7.02c0,0-.39-.91,.37-2.39,2.01-3.9,5.64-6.01,7.5-6.6l-.51,1.97Z"/><ellipse class="cls-5" cx="26.21" cy="3.33" rx="3.88" ry="1.21" transform="translate(-.2 2.46) rotate(-5.36)"/><ellipse class="cls-5" cx="41.06" cy="3.33" rx="1.21" ry="3.88" transform="translate(33.91 43.89) rotate(-84.64)"/></g><g><polygon class="cls-13" points="14.88 33.48 17.27 33.48 18.6 33.27 19.45 31.91 19.19 30.52 17.42 29.35 15.7 27.79 14.71 23.97 13.87 22.44 11.86 21.85 10.97 22.94 10.91 24.63 9.49 22.57 7.83 23.31 7.93 26.5 6.34 25.46 5.17 26.9 5.54 27.87 5.87 28.88 4.07 30.16 4.12 32.1 4.5 33.2 5.7 32.93 6.06 31.71 8.29 33.33 9.87 33.85 9.58 34.72 14.33 34.52 14.88 33.48"/><g><g><path class="cls-8" d="M12.22,33.4s-1.26,.39-1.77,.42c-.6,.03-2.42-.23-3.99-2.39-.08-.11-.31-.21-.52-.26,0,0-.24,1.89-.98,1.86s-.79-1.66-.83-2.23,0-.98,.56-1.36,1.34-.89,1.34-.89"/><path class="cls-8" d="M7.39,27.24s.28,.57,.13,.92-.59,1.4-1.82,.06c-1.07-1.17-.58-1.58-.11-2.16s.62-.97,1.33-.43,1.24,.97,1.24,.97"/><path class="cls-8" d="M9.98,25.61s.07,.73-.26,1.01-1.35,1.13-1.71-.86c-.32-1.76-.39-2.27,.85-2.78,.79-.32,.97-.25,1.43,.64,.48,.94,.75,1.29,.75,1.29"/><path class="cls-8" d="M13.03,24.56s-.25,.91-.67,1c-.59,.14-1.56,.03-1.38-1.77,.16-1.69,.52-1.96,1.72-1.81,1.02,.13,1.35,.61,1.56,1.59,.26,1.27,1.18,3.61,1.18,3.61,.83,2.12,2.1,1.91,3.22,3.05,.61,.62,.76,2.89-.5,2.83-1.61-.08-2.39,1.3-3.05,.07-.4-.74-.53-1.63,1.33-2.32"/></g><path class="cls-8" d="M9.64,34.67s2.28,.98,5.03-.52"/></g></g></svg>