<?xml version="1.0" encoding="UTF-8"?><svg id="_レイヤー_5" xmlns="http://www.w3.org/2000/svg" viewBox="0 0 62 130.3"><defs><style>.cls-1{fill:#88c0dd;}.cls-1,.cls-2,.cls-3,.cls-4,.cls-5{stroke:#040000;stroke-linecap:round;stroke-linejoin:round;stroke-width:.6px;}.cls-2,.cls-6{fill:#fff;}.cls-3,.cls-7{fill:#e9da21;}.cls-4{fill:#025999;}.cls-8{fill:#040000;}.cls-9{fill:#ce8a0d;}.cls-10{fill:#c68f00;}.cls-11{fill:#070002;}.cls-12{fill:#1961ad;}.cls-13{stroke-width:.16px;}.cls-13,.cls-5,.cls-14{fill:none;}.cls-13,.cls-14{stroke:#070002;stroke-miterlimit:10;}.cls-14{stroke-width:.19px;}</style></defs><g><path class="cls-10" d="M44.23,124.47c-.43-1.04-1.65-1.9-3.14-2.44-.6-.25-2.54-.98-2.5-1.4-.14-.75-.83-1.23-1.69-1.45-1.57-.73-3.86-.8-5.53-.04-.03,.06-.07,.12-.1,.18-.09,.2-.17,.41-.25,.61-.09,.25-.18,.49-.34,.72-.12,.17-.29,.33-.44,.48-.09,.09-.18,.18-.29,.26-.27,.2-.61,.3-.97,.34-.07,0-.14,0-.22,0-.09,0-.18,0-.27,0-.08,0-.15,0-.23,0-.03,0-.06,0-.09,0-.03,0-.06,0-.09,0,0,0,0,0-.01,0-.03,0-.05,0-.08,0-.03,0-.05,0-.08-.01-.03,0-.07-.01-.1-.02-.02,0-.03,0-.05-.01-.01,0-.02,0-.03,0-.05-.01-.1-.03-.14-.05,0,0,0,0,0,0,0,0,0,0-.01,0-.04-.02-.08-.03-.12-.05-.01,0-.03-.01-.04-.02-.03-.02-.07-.03-.1-.05-.01,0-.02,0-.03-.02-.04-.02-.08-.05-.12-.08,0,0-.02-.01-.03-.02-.03-.02-.06-.04-.08-.07-.07-.06-.14-.13-.19-.2-.01-.01-.02-.03-.03-.04-.1-.14-.16-.29-.24-.44,0-.01-.01-.03-.02-.04-.02-.03-.04-.06-.06-.1,0,0,0,0,0,0-.02-.02-.03-.04-.05-.07h0c-.11-.14-.23-.27-.35-.41-.03-.03-.07-.06-.1-.09-.07-.02-.14-.04-.22-.06,0,0,0,0,0,0-.04-.01-.08-.02-.12-.03-.03,0-.06-.01-.09-.02,0,0,0,0-.01,0-.11-.03-.22-.05-.33-.08h0s-.01,0-.02,0c0,0,0,0,0,0-.04,0-.09-.01-.13-.02-.03,0-.05,0-.08-.01-.02,0-.04,0-.06,0t0,0s-.03,0-.04,0c-.04,0-.09,0-.13,0-.09,0-.19,0-.28-.01,0,0-.02,0-.02,0h-.02c-.15,0-.29,0-.44,0h-.03c-.12,0-.23,.01-.35,.02,0,0,0,0-.01,0-.02,0-.03,0-.05,0,0,0,0,0,0,0-.05,0-.1,.01-.15,.02,0,0,0,0,0,0-.09,.02-.18,.05-.27,.08-.06,.02-.12,.05-.19,.07-.15,.06-.3,.12-.44,.18-.1,.05-.19,.1-.29,.15-.02,.01-.05,.02-.07,.04-.04,.02-.08,.04-.12,.06,0,0,0,0-.01,0,0,0-.02,0-.02,.01-.12,.06-.24,.12-.36,.19-.01,0-.02,.01-.03,.02-.02,0-.04,.02-.06,.03,0,0-.02,.01-.03,.02-.02,.01-.03,.02-.05,.03t0,0s-.07,.05-.11,.07c-.01,0-.03,.02-.04,.03-.05,.03-.09,.06-.14,.1-.21,.14-.41,.25-.65,.35-.2,.08-.41,.14-.63,.19-.07,.02-.14,.03-.22,.05-.41,.08-.83,.14-1.25,.15-.13,0-.25,0-.37,0-.05,0-.11,0-.16,0h-.02s-.06,0-.08,0c-.06,0-.11,0-.17,0-.04,0-.07,0-.11,0-.07,0-.15-.01-.22-.02-.34-.04-.67-.13-.99-.21-.36-.1-.69-.27-.94-.49-.25,.02-.5,.05-.74,.1-5.26,.57-8.07,3.14-2.43,4.78,.48,.49,1.29,.85,2.25,1.12,.48,.35,.9,.73,1.56,.97,.2,.07,.41,.14,.62,.2,.18,.16,.37,.31,.57,.45,1.65,1.14,4.08,1.8,6.52,1.89,.29,.01,.58,.02,.88,.02,2.17,0,4.32-.34,6.14-1.06,1.02-.36,1.92-.88,3.07-1.1,1.18-.19,2.39-.14,3.6-.1,.64,.02,1.27,.04,1.91,.03,.49-.01,.99-.08,1.47-.2,.53-.05,1.03-.19,1.43-.42,1.62-.63,2.59-1.81,1.99-2.98"/><path class="cls-12" d="M22.03,70.21s5.97,3.6,8.4,3.29c2.43-.32,7.75-2.99,7.75-2.99l6.41,2.99,.45,2.85-.45,7.12-3.02,14.31-2.99,7.86-3.29,7.5h-2.05l-2-1.88,1.67-5.35,1.34-9.11-.12-7.94-1.31-4.79-1.67-3.69-1.19,1.02-2.54,10.65,.28,4.28-1.03,14.06,.36,1.86-1.24,.7-.55-3.27-1.6-.84-1.14-.4-1.48,.76-2.1-4.42-3.1-13.1-.28-6.27,.49-8.79,5.98-6.4Z"/><polygon class="cls-12" points="14.33 38.11 15.07 37.08 18.86 36.26 23.31 36.04 25.06 35.11 27.18 54.77 27.33 59.28 25.03 77.33 23.7 78.56 21.66 78.56 16.41 77.03 13.2 74.73 14.41 64.84 15.54 58.21 14.65 54.62 9.96 63.23 6.43 66.13 4.13 65.87 1.99 64.18 1.99 61.56 14.33 38.11"/><polygon class="cls-12" points="36.96 78.7 34.48 68.87 32.39 57.52 34.27 47.22 37.95 34.97 40.38 39.26 42.44 40.1 44.76 39.35 46.72 34.53 50.15 37.63 60.64 48.48 59.63 52.46 55.36 54.48 52.65 54.33 46.72 50.97 44.93 57.36 46.2 64.79 48 71.05 45.14 74.67 40.83 77.92 38 79.07 36.96 78.7"/><polygon class="cls-6" points="10.78 55.36 11.41 51.31 11.89 48.2 13.58 46.35 14.73 44.65 14.94 42.27 15.54 40.44 15.28 39.58 14.2 38.65 11.95 39.75 10.68 36.42 10.15 35.39 8.95 35.02 7.91 35.64 7.43 38.15 6.14 37.11 4.32 37.56 4.32 39.1 3.17 39.58 2.78 40.44 2.78 41.84 1.36 42.82 1 45.24 1.36 45.86 3.02 45.13 3.58 44.96 4.84 47.68 6.87 48.76 2.14 58.64 2.89 62.52 5.61 64.18 8.23 62.52 10.78 55.36"/><polygon class="cls-6" points="51.81 48.61 51.13 46.42 50.15 37.63 50.02 33.33 47.5 33.33 46.11 33.11 45.22 31.7 45.49 30.25 47.35 29.03 48.77 27.41 50.2 23.43 50.69 21.45 52.8 20.84 53.75 21.97 54.2 24.12 55.69 21.97 57.43 22.75 57.33 26.07 59.01 24.98 60.24 26.48 59.84 27.49 59.49 28.54 61.39 29.87 61.33 31.9 60.93 33.04 59.68 32.76 59.3 31.49 56.95 33.18 55.29 33.72 57.24 38.53 58.91 44.29 59.74 47.62 58.68 50.38 55.88 50.97 53.31 50.27 51.81 48.61"/><polygon class="cls-6" points="41.19 22.21 43.22 22.96 44.33 26.15 42.97 28.76 40.07 29.53 37.79 33.75 36.74 39.07 31.09 45.27 28.27 42.94 25.69 38.67 24.86 34.63 22.58 32.63 21.04 29.97 18.75 29.35 18.17 28.01 20.03 25.79 20.57 22.96 21.8 17.51 24.3 14.19 26.98 12.89 30.29 12.89 32.44 13.19 34.58 14.44 36.42 13.87 38.22 15.8 40.17 22.38 41.19 22.21"/><polygon class="cls-7" points="26.11 39.47 30.66 45.27 32.55 43.67 36.4 39.8 31.95 57.74 35.15 71.8 31.7 73 28.09 73 25.67 72.65 27.77 58.21 26.31 49.74 26.11 39.47"/><polygon class="cls-14" points="26.11 39.47 30.66 45.27 32.55 43.67 36.4 39.8 31.95 57.74 35.15 71.8 31.7 73 28.09 73 25.67 72.65 27.77 58.21 26.31 49.75 26.11 39.47"/><polygon class="cls-7" points="14.51 114.02 16.22 115.62 19.93 116.54 25.83 113.43 24.92 119.34 24.11 121.74 22.85 121.21 22.78 119.75 19.93 120.32 16.32 119.68 11.67 117.6 10.68 116.17 10.68 115.18 14.51 114.02"/><polygon class="cls-14" points="14.51 114.02 16.22 115.62 19.93 116.54 25.83 113.43 24.92 119.34 24.11 121.74 22.85 121.21 22.78 119.75 19.93 120.32 16.32 119.68 11.67 117.6 10.68 116.17 10.68 115.18 14.51 114.02"/><polygon class="cls-7" points="31.09 115.89 32.59 119.96 33.56 120.56 34.8 119.7 35.19 123.5 33.93 124.89 31.95 124.45 31.09 122.32 30.65 120.56 29.71 120.25 30.43 117.02 31.09 115.89"/><polygon class="cls-14" points="31.09 115.89 32.59 119.96 33.56 120.56 34.8 119.7 35.19 123.5 33.93 124.89 31.95 124.45 31.09 122.32 30.65 120.56 29.71 120.25 30.43 117.02 31.09 115.89"/><polygon class="cls-6" points="31.79 112.9 34.69 113.57 33.89 115.89 34.56 119.31 33.56 120.56 31.95 119.34 31.09 115.89 31.79 112.9"/><polygon class="cls-6" points="21.03 109.19 23.19 108.67 25.79 110.39 25.83 113.43 20.54 116.54 15.12 115.14 14.08 114.14 18.82 112.9 21.13 111.63 21.03 109.19"/><polygon class="cls-6" points="14.66 66.64 7.98 65.04 6.92 72.65 4.81 83.89 5.15 85.67 6.53 86.32 15.7 87.19 15.54 78.35 15.31 76.12 13.2 74.73 14.16 68.14 14.66 66.64"/><polygon class="cls-7" points="53.11 37.66 50.53 37.56 50.54 39.83 53.53 39.83 53.11 37.66"/><polygon class="cls-14" points="53.11 37.66 50.53 37.56 50.54 39.83 53.53 39.83 53.11 37.66"/><path class="cls-8" d="M47.49,47.49c-.04-.37-.08-.74-.12-1.11,.11-.37,.23-.74,.34-1.11,.35-.7,1.33-.11,.92,.56-.17,.58-.35,1.16-.53,1.75-.2-.07-.41-.1-.61-.09"/><path class="cls-8" d="M50,38.15c-1.21-1.03-2.15-2.36-3.42-3.31,0-.36,0-.72,0-1.08,.25,.06,.49,.15,.72,.29,1.25,1.01,2.23,2.31,3.44,3.37,.37,.37,.01,.9-.39,.9-.12,0-.24-.05-.35-.16"/><path class="cls-8" d="M46.59,34.78c.59,.07,.36,.86,0,1.65,0-.55,0-1.1,0-1.65"/><path class="cls-8" d="M57.23,53.47c-.07-.15-.16-.3-.27-.43,2.05-.94,3.23-1.74,3.03-5.17-.16,.23-.32,.44-.49,.64,0-.24-.01-.48-.03-.72-.01-.17-.02-.35-.03-.52,0-.03,0-.07,0-.1,0-.06,0-.12,0-.18,0-.05,0-.11,0-.16,.11-.18,.22-.36,.32-.54,.12-.42,.56-.82,.98-.49,.48,.53,.25,1.37,.33,2.02,.18,2.62-.52,4.92-3.19,5.93-.16,.04-.33,.1-.48,.17-.03-.15-.09-.3-.15-.45"/><path class="cls-8" d="M51.86,49.06c-.51-.63,.29-1.27,.72-.79-.11,.26-.08,.55-.05,.82,.02,.16,.05,.31,.08,.47,.01,.07,.03,.14,.04,.21-.29-.2-.56-.44-.79-.7"/><path class="cls-8" d="M54.09,40.29c-1.36-.25-2.06-1.84-1.62-3.07,.46-1.06,1.62-1.91,2.82-1.68,2.43,.52,2.53,4.14,.07,4.7-.15,.13-.34,.18-.53,.18-.25,0-.52-.07-.74-.12m.58-.96c.06,.01,.13,.02,.19,.02h.01c.13,0,.27-.04,.37-.13,0,0,.02-.02,.02-.02,.12-.04,.23-.11,.33-.16,.92-.67,.59-2.28-.55-2.5-.74-.09-1.44,.52-1.65,1.2-.13,.79,.33,1.56,1.18,1.62,0,0,.02-.02,.03-.02,.02,0,.04,0,.06,.01"/><path class="cls-8" d="M51.49,40.32c-1.38-.16-1.55-.3-1.69-1.65-.12-.58-.43-1.82,.56-1.68,.63,.18,1.31,.27,1.96,.19,.69-.39,1.15,.68,.42,.95-.64,.2-1.33,.08-1.98,0,.07,.35,.12,.69,.17,1.04,.57,.15,1.18,.16,1.77,.15,.44,0,.95-.24,1.35,0,.36,.25,.2,.88-.25,.92-.77,.08-1.54,.17-2.31,.06"/><path class="cls-8" d="M56.48,38.87c-.18-.23-.12-.54,.09-.72,.05-.04,.09-.07,.14-.11-.16-.49-.38-.94-.56-1.42-.35,.15-.83-.1-.8-.48,0-.4,.34-.5,.67-.55,.27-.15,.64-.16,.83,.12,.24,.41,.37,.86,.57,1.29,.16,.49,.58,1.1,.21,1.59-.29,.31-.79,.73-1.16,.28"/><path class="cls-8" d="M54.08,38.22c-.12-.35,.14-.49,.43-.59,.25-.18,.63-.02,.63,.3,0,.16-.11,.3-.25,.36-.26,.14-.66,.28-.81-.07"/><path class="cls-8" d="M54.38,39.59c-.22-.06-.34-.31-.25-.52,.05-.29,.15-.57,.25-.84,.04-.09,.05-.18,.07-.27,.07-.3,.49-.39,.68-.14,.24,.36-.2,.94-.24,1.34-.02,.26-.23,.52-.51,.44m.4-1.17c-.09,0-.17-.05-.19-.07,.06,.04,.12,.07,.19,.07"/><path class="cls-8" d="M53.82,38.42c-.13-.1-.19-.29-.12-.45,.06-.13,.16-.2,.28-.22,.15-.06,.31-.13,.47-.17,.49-.12,.68,.59,.2,.73-.27,.06-.57,.31-.84,.11"/><path class="cls-8" d="M32.03,58.41c-.28-.04-.47-.32-.42-.59,.11-.88,.27-1.76,.44-2.63,.19-.97,.39-1.94,.6-2.91,1.19-5.83,3.11-11.48,4.36-17.3,.1-.34,.11-.72,.26-1.04,.25-.41,.93-.26,.96,.22-.95,4.93-2.52,9.73-3.71,14.61-.48,2-.93,4.01-1.33,6.03-.21,1.06-.42,2.12-.55,3.19-.03,.25-.27,.43-.52,.43-.03,0-.05,0-.08,0m5.77-23.7c.12-.02,.23-.08,.3-.18-.08,.09-.18,.15-.3,.18"/><path class="cls-8" d="M36.24,78.69c-1.65-6.82-3.2-13.66-4.53-20.54-.14-.72,.99-.88,1.03-.13,.81,3.98,1.58,7.98,2.51,11.94,.66,2.84,1.32,5.67,2,8.51,.09,.38-.22,.62-.53,.62-.21,0-.42-.12-.48-.39"/><path class="cls-8" d="M46.79,68.94c-.7-2.73-1.31-5.5-1.78-8.27-.18-1.49-.67-3.05-.27-4.53,.78-3.26,1.59-6.5,2.55-9.7,.28-.55,.37-2.26,1.14-2.12,.28,.04,.47,.32,.42,.59-1.22,3.78-2.19,7.64-3.12,11.5-.32,1.34,.13,2.73,.29,4.07,.32,1.86,.7,3.71,1.12,5.55,.21,.9,.42,1.79,.65,2.68,.09,.38-.22,.62-.53,.62-.21,0-.42-.12-.48-.38"/><path class="cls-8" d="M37.53,79.49c-.44-.07-1.03-.22-1.12-.72-.04-.3,.23-.58,.53-.56,.58,.2,.74,.4,1.41,.16,2.87-1.05,6.94-3.79,8.38-6.48,.4-.46,.5-1.87,1.26-1.65,.27,.08,.43,.38,.34,.64-1.02,3-3.58,5.04-6.17,6.71-1.41,.82-2.91,1.9-4.61,1.9h-.02Zm-.09-.79s0-.07-.01-.1c-.02-.07-.04-.13-.09-.18,.06,.08,.09,.18,.1,.28"/><path class="cls-8" d="M47.12,70.48c-.03-.67-.92-2.45,.27-2.46,.28,.05,.49,.33,.42,.61,.05,.55,.23,1.08,.31,1.62,.1,.38-.22,.62-.53,.62-.22,0-.42-.12-.48-.39"/><path class="cls-8" d="M26.97,58.03c-.05-.28-.1-.55-.14-.83,0,0,0-.01,0-.02,0,0,0,.02,0,.03-.92-5.58-1.14-11.25-1.68-16.88-.08-1.35-.32-2.7-.5-4.05,.03-.03,.05-.06,.06-.1,0-.01,.01-.03,.02-.05,.01-.04,.02-.08,.01-.12,0-.05-.01-.1-.02-.14-.02-.08-.05-.16-.07-.24-.03-.1-.06-.2-.1-.3,0-.02-.01-.04-.02-.05-.01-.1-.02-.2-.03-.29,.16-.54,1.01-.42,1.01,.14,1.24,7.26,1.1,14.68,2.35,21.94,0-.01,0-.02,0-.04,.02,.38,.26,.81,.06,1.17-.09,.16-.26,.23-.43,.23-.23,0-.47-.14-.51-.39"/><path class="cls-8" d="M23.26,78.46c.09-.73,.7-.24,.91-.8,.25-.42,.27-.93,.33-1.4,.12-1.25,.24-2.48,.39-3.73,.52-4.69,1.45-9.32,2.11-14,0-.45,.26-1.04,.81-.8,.49,.24,.2,.79,.18,1.19-.72,5.01-1.71,9.98-2.22,15.02-.31,1.5,.14,4.33-1.56,5.01-.1,.03-.21,.05-.32,.05-.32,0-.64-.16-.63-.53"/><path class="cls-8" d="M22.42,79.17c-1.82-.11-3.58-.66-5.24-1.42h0s-.01-.02-.01-.02h0s-.01-.02-.01-.02h-.01s-.01-.02-.01-.02h-.01s-.01-.02-.01-.02h-.01s-.01-.02-.01-.02h-.01s-.01-.02-.01-.02h-.01s-.01-.02-.01-.02h-.01s-.01-.02-.01-.02h-.01s-.02-.02-.02-.02h-.02s-.02-.02-.02-.02h-.02s-.02-.02-.02-.02h-.02s-.02-.02-.02-.02h-.02s-.02-.02-.02-.02h-.02s-.02-.02-.02-.02h-.02s-.03-.02-.03-.02h-.03s-.03-.02-.03-.02h-.03s-.03-.02-.03-.02h-.03s-.04-.01-.04-.01h-.04c-.14-.07-.28-.14-.41-.21-.69-.41-3.51-1.68-3.13-2.6,.11-.25,.44-.36,.69-.25,.66,.62,1.4,1.14,2.22,1.56,1.91,1.06,3.96,1.94,6.16,2.18,.47,.04,.96,.08,1.43,0,.66-.14,.9,.84,.24,1-.29,.06-.58,.08-.87,.08-.14,0-.28,0-.41-.01m-8.47-4.23c.02-.07,.01-.15,0-.21,.02,.07,.02,.14,0,.21"/><path class="cls-8" d="M15.03,58.52c-.35-.43-.24-1.11-.38-1.62-.36-2.29-.99-4.52-1.61-6.75-.18-.55,.48-1,.89-.57,.18,.2,.12,.49,.22,.72,.62,2.11,1.18,4.24,1.52,6.41,.08,.45,.15,.91,.22,1.36,.05,.32-.24,.56-.53,.56-.11,0-.22-.04-.32-.12"/><path class="cls-8" d="M14.65,56.9s0,.01,0,.02c0,0,0-.01,0-.02"/><path class="cls-8" d="M12.82,75.19c-.3-.74,.09-1.54,.14-2.3,.16-1.1,.28-2.22,.41-3.32,.41-3.73,.95-7.44,1.5-11.15-.03-.74,1.02-.89,1.07-.1-.71,4.57-1.3,9.15-1.82,13.75-.08,.89-.32,1.78-.37,2.67,.19,.4-.15,.73-.49,.73-.16,0-.33-.08-.43-.27"/><path class="cls-8" d="M39.34,47.37c-.83-.48-4.2-2.04-2.31-3.05,.84-.32,1.73-.56,2.51-1.01,.46-.26,.73-.54,.56-1.09-.1-.68-.21-1.36-.3-2.05-.05-.48-.18-.93-.1-1.38,.17-.6,1.14-.39,1.02,.23,.35,4.08,1.68,4.57-2.99,6.14,.68,.57,1.45,.92,2.19,1.34,.48,.3,.17,.95-.28,.95-.09,0-.18-.02-.28-.08"/><path class="cls-8" d="M32.82,59.43c-.44-.37,.02-.84,.27-1.16,1.27-1.76,2.47-3.59,3.55-5.48,.88-1.62,1.73-3.26,2.47-4.95,.27-.44,.26-1.35,.97-1.27,.67,.2,.38,.72,.21,1.14-.68,1.71-1.54,3.34-2.4,4.96-1.17,2.15-2.51,4.21-3.95,6.2-.19,.28-.45,.68-.78,.68-.1,0-.21-.04-.32-.13"/><path class="cls-8" d="M24.65,35.63c-.03-.1-.06-.21-.1-.3-.03-.08-.06-.17-.14-.22-.03-.02-.07-.03-.11-.03-.01-.01-.02-.03-.04-.04-.02-.02-.04-.05-.06-.07,.09-.18,.28-.3,.49-.3,.28,0,.51,.26,.5,.53,0,.28-.25,.49-.53,.5,0-.02-.01-.04-.02-.07"/><path class="cls-8" d="M21.65,42.79h-.06s-.06-.01-.06-.01h-.06s-.06-.01-.06-.01h-.07s-.07,0-.07,0h-.07s-.07,0-.07,0h-.07s-.07,0-.07,0h-.07s-.07,0-.07,0h-.15s-.07,0-.07,0h-.03c.17-.6,.42-1.39,.71-2.48,.33-.9,.9-3.38,1.61-4.77,.03,.04,.05,.08,.08,.12,.06,.09,.12,.17,.18,.25,.05,.06,.1,.14,.16,.19,.04,.04,.09,.07,.14,.08,.02,.02,.03,.04,.05,.06,.04,.05,.1,.08,.16,.1-.32,.74-.53,1.54-.79,2.31-.44,1.38-.85,2.8-1.22,4.2h0Z"/><path class="cls-8" d="M24.55,35.33c-.03-.08-.06-.17-.14-.22-.03-.02-.07-.03-.11-.03-.01-.01-.02-.03-.04-.04-.04-.05-.1-.1-.15-.15,0-.02,0-.03-.01-.05-.02-.04-.05-.08-.09-.1,.02-.04,.02-.09,.02-.14,0-.04,0-.08-.01-.12,.49-.04,1.1,.06,1.03,.63-.05,.27-.23,.37-.44,.41-.02-.06-.04-.13-.07-.19"/><path class="cls-8" d="M23.92,46.21c-3.34-2.55-3.77-1.92-3.11-4.21h.03s.07,0,.07,0h.07s.07,0,.07,0h.07s.07,0,.07,0h.07s.07,0,.07,0h.07s.07,0,.07,0h.07s.07,0,.07,0h.07s.06,.01,.06,.01h.06s.06,.01,.06,.01h0c-.11,.41-.21,.81-.31,1.22,.66,.57,1.45,.98,2.15,1.49,.39,.36,1.38,.75,.92,1.39-.1,.12-.25,.18-.4,.18-.12,0-.24-.04-.33-.12"/><path class="cls-8" d="M20.54,47.99c-.13-.25-.03-.56,.22-.69,.66-.37,1.3-.75,1.95-1.14,.58-.27,1.19-.88,1.84-.89,.28,.06,.47,.31,.42,.59-.04,.21-.22,.39-.43,.42-.63,.33-1.22,.71-1.83,1.07-.49,.29-.98,.58-1.47,.85-.07,.04-.15,.06-.24,.06-.19,0-.37-.1-.47-.27"/><path class="cls-8" d="M27.16,60.54c-.6-.2-1.48-1.95-1.88-2.53-.45-.77-.87-1.54-1.28-2.33-1.24-2.41-2.42-4.85-3.43-7.36-.24-.45,.18-1,.67-.78,.16,.07,.27,.22,.29,.39,.1,.31,.24,.61,.37,.91,.62,1.44,1.27,2.86,1.96,4.27,.87,1.76,1.76,3.52,2.8,5.19,.31,.5,.65,.98,1.01,1.44,.25,.32-.03,.81-.42,.81-.03,0-.06,0-.1,0"/><path class="cls-8" d="M24.66,36.3c-.1-.48-.33-.96-.37-1.45,.02-.63,.98-.65,1.03-.03,.1,.42,.25,.83,.35,1.24,.09,.38-.22,.62-.52,.62-.21,0-.42-.12-.49-.39"/><path class="cls-8" d="M22.83,36.39c-.63-.52,.08-1.03,.6-1.22,.31-.13,.6-.33,.91-.44-.04,.02-.08,.05-.11,.08,.03-.03,.07-.06,.11-.08,.09-.03,.17-.05,.26-.06,.42,0,.66,.56,.38,.84-.26,.23-.63,.31-.92,.49-.18,.09-.36,.17-.54,.26-.09,.13-.25,.2-.41,.2-.1,0-.2-.03-.28-.08"/><path class="cls-8" d="M24.35,34.73s0,0-.01,0t0,0s.01,0,.02,0"/><path class="cls-8" d="M30.18,45.6c-1.24-1.3-2.26-2.62-3.28-4.05-.49-.69-.96-1.4-1.42-2.11-.15-.28-.42-.52-.44-.85,0-.53,.76-.66,.97-.23,1.07,1.66,2.19,3.32,3.44,4.85,.47,.58,.96,1.15,1.48,1.69,.35,.37-.01,.86-.4,.86-.12,0-.25-.05-.36-.17"/><path class="cls-8" d="M30.72,45.75c-.41-.06-.57-.59-.28-.88,.55-.52,1.17-.96,1.71-1.49,1-.95,1.9-2,2.73-3.1,.47-.64,.93-1.28,1.37-1.94,.36-.56,1.24,0,.87,.55-1.36,2.02-2.78,3.89-4.58,5.52-.36,.32-.74,.62-1.1,.94-.2,.15-.36,.41-.63,.41-.03,0-.06,0-.09,0"/><path class="cls-8" d="M29.29,73.83c-1.37-.15-2.7-.61-3.96-1.13-.62-.29-.16-1.23,.46-.92,.87,.39,1.81,.63,2.72,.89,1.39,.39,2.8-.09,4.13-.48,.63-.19,1.24-.42,1.84-.68,.26-.11,.57,.05,.67,.3,.22,.79-1.02,.87-1.52,1.14-1.29,.4-2.62,.9-3.98,.9-.12,0-.23,0-.35-.01"/><path class="cls-8" d="M51.81,49.08c-.2-.14-.42-.33-.35-.61,.26-.67,.7-.45,1.09-.11-.07,.23-.05,.49-.01,.73,.02,.16,.05,.31,.08,.47,.02,.12,.04,.23,.07,.35-.32-.25-.61-.53-.88-.83m.62-.28s.04-.09,.05-.14c-.01,.05-.03,.09-.05,.14"/><path class="cls-8" d="M59.48,47.8c-.01-.17-.02-.35-.03-.52,0-.03,0-.07,0-.1,0-.06,0-.12,0-.18h0c.13-.19,.25-.38,.35-.58,.29-.6,1.22-.17,.94,.44-.3,.52-.72,1.12-1.21,1.7-.01-.25-.02-.51-.03-.76"/><path class="cls-8" d="M59.4,52.17c-.47-.41,.12-.9,.24-1.33,.38-1.09,.52-2.26,.5-3.41,.06-.51-.34-1.08,.04-1.47,.19-.17,.49-.19,.69-.02,.22,.18,.18,.46,.24,.7,.26,.75-.14,5.63-1.38,5.63-.11,0-.22-.03-.33-.11"/><path class="cls-8" d="M54.99,54.31c-1.19-.21-3.06-1.78-3.38-2.95-.18-.59-.33-2.42-.02-2.93,.29-.35,.85-.14,.91,.25,0,.04,0,.08,0,.12,0,.02,0,.04,0,.06,0,0,0,0,0,0-.14,2.03-.04,2.74,1.68,3.95,1.46,1.21,3.43-.06,4.67-1.03,.38-.26,.74-.94,1.26-.54,.21,.18,.25,.51,.06,.72-1.27,1.25-2.95,2.37-4.79,2.37-.13,0-.26,0-.39-.02"/><path class="cls-8" d="M54.26,55.12c-1.6-.2-3.02-1.12-4.45-1.81-.81-.4-1.59-.85-2.35-1.32-.42-.27-.93-.49-1.18-.93-.19-.52,.48-.93,.87-.53,.33,.31,.75,.52,1.14,.76,1.04,.64,2.14,1.18,3.22,1.74,2,.89,2.8,1.65,4.87,.31,.23-.16,.56-.11,.72,.12,.16,.22,.11,.57-.12,.72-.8,.49-1.7,.94-2.66,.94-.02,0-.03,0-.05,0"/><path class="cls-8" d="M2.82,63.37c-.38-.39-.58-.91-.77-1.41-.13-.36-.34-.71-.37-1.1,.02-.65,1-.65,1.04,0,.18,.33,.44,1.27,.8,1.73,.66,.74,1.79,1,2.74,.73,1.11-.42,1.66-1.6,2.35-2.49,.43-.62,.86-1.25,1.23-1.9,.14-.24,.49-.3,.72-.16,.24,.15,.31,.48,.16,.71-.37,.64-.79,1.26-1.22,1.87-.74,1.01-1.4,2.2-2.55,2.79-.46,.21-.96,.31-1.46,.31-.99,0-1.98-.38-2.66-1.09"/><path class="cls-8" d="M5.42,66.59c-1.86-.35-4.57-1.55-4.21-3.81,.05-.57,.14-1.13,.28-1.68,.05-.36,.25-.79,.68-.71,.37,.07,.53,.45,.37,.74-.15,.55-.23,1.05-.29,1.6-.26,1.05,.55,1.71,1.39,2.17,1.03,.5,2.47,1.14,3.45,.24,.89-.74,1.7-1.56,2.47-2.41,.44-.51,1.23,.14,.79,.66-.34,.38-.7,.75-1.06,1.12-.96,.92-1.98,2.13-3.38,2.13-.16,0-.33-.02-.5-.05m-3.82-5.52s.02,.03,.02,.04c-.02-.04-.04-.09-.04-.13,0,0,0,.02,0,.03h0s.01,.04,.02,.06"/><path class="cls-8" d="M9.96,63.23c-.55-.27-.12-.86-.12-1.3,.07-.68,.1-1.37,.1-2.06,.01-.29-.03-.58,.03-.87,.18-.57,1.04-.42,1.02,.17-.02,.98-.01,1.97-.13,2.95-.04,.43-.17,1.16-.66,1.16-.07,0-.15-.02-.24-.05m.53-3.57s.09,0,.12-.02c-.04,.01-.08,.02-.12,.02"/><path class="cls-8" d="M10.45,63.01c-.28-.05-.47-.31-.42-.59,.03-.14,.11-.27,.24-.35-.06,.04-.12,.09-.16,.16,1.55-2.48,2.89-5.11,3.95-7.83,.22-.63,1.18-.34,.99,.31-.35,.97-.77,1.88-1.21,2.81-.81,1.72-1.69,3.41-2.71,5.02-.12,.23-.3,.49-.58,.49-.03,0-.07,0-.1-.01"/><path class="cls-8" d="M49.63,38c-.55-.56-1.11-1.1-1.64-1.67-.65-.71-1.3-1.63-2.39-1.45-.87,.14-1.24-.18-1.28-.5-.03-.28,.21-.56,.61-.54,.89,.06,1.89-.11,2.62,.57,.99,.92,1.85,1.97,2.84,2.9,.34,.37,0,.86-.4,.86-.13,0-.26-.05-.37-.17"/><path class="cls-8" d="M14.35,38.45c-.58-.34-.07-.94,.16-1.33,.18-.33,.48-.74,.9-.53,.47,.27,.29,.67,.02,1.01-.22,.32-.42,.92-.84,.92-.08,0-.16-.02-.25-.07"/><path class="cls-8" d="M15.05,37.27c-.51-.88,.9-1,1.48-1.14,1.07-.22,2.16-.31,3.24-.4,1.03-.08,2.07-.14,3.1-.21,.28-.02,.52,.23,.53,.5,.01,.28-.23,.52-.51,.52-1.16,.08-2.33,.14-3.49,.24-.99,.07-1.97,.19-2.94,.4-.33,.02-.69,.27-1.02,.27-.14,0-.28-.05-.4-.18"/><path class="cls-8" d="M20.69,109.84h0s-.02,0-.03,0c0,0,0,0,0,0-.03-.03-.05-.06-.07-.09-.03-.04-.06-.09-.09-.13-.05-.07-.11-.18-.2-.22,0,0,0,0,0,0h0s.01-.02,.01-.02l.02-.02,.02-.02,.02-.02,.02-.02,.02-.02,.02-.02,.02-.02,.02-.03,.02-.03,.02-.03,.02-.03,.02-.03v-.03s.03-.03,.03-.03h0c.06,.14,.13,.29,.19,.43,.07,.14,.06,.28,.01,.39h-.05"/><path class="cls-8" d="M17.3,77.88h0s0-.02,0-.02h0s0-.02,0-.02h0s0-.02,0-.02h0s0-.02,0-.02h0s0-.02,0-.02h0s-.01-.02-.01-.02h0s0-.02,0-.02h-.01s-.01-.02-.01-.02h-.01s-.01-.02-.01-.02h-.01s-.01-.02-.01-.02h-.01s-.01-.02-.01-.02h-.01s-.01-.02-.01-.02h-.01s-.01-.02-.01-.02h-.01s-.01-.02-.01-.02h-.01s-.02-.02-.02-.02h-.01s-.02-.02-.02-.02h-.02s-.02-.02-.02-.02h-.02s-.02-.02-.02-.02h-.02s-.02-.02-.02-.02h-.02s-.02-.02-.02-.02h-.02s-.02-.02-.02-.02h-.03s-.03-.02-.03-.02h-.03s-.03-.02-.03-.02h-.03s-.03-.01-.03-.01h-.04s-.04,0-.04,0h-.09s-.05,0-.05,0h-.03s.01-.07,.02-.11h0s0,0,0,0c0-.02,0-.05,.01-.07,0,.02,0,.03,0,.05,.06-.6,1.03-.59,1.03,.05-.03,.18-.06,.36-.1,.53h0Z"/><path class="cls-8" d="M16.36,77.32s0,0,0,0c0,0,0,.01,0,.02h0s0-.01,0-.01"/><path class="cls-8" d="M26.31,111.15c0-4.8,.25-9.6,.52-14.39,.25-4.11,.68-8.23,1.76-12.21,.34-1.04,1.17-4.3,2.23-4.56,.55-.03,.76,.7,.3,.97-3.26,6.49-3.09,14.6-3.57,21.71-.11,2.82-.24,5.64-.22,8.47,.01,.34-.26,.51-.53,.51s-.5-.16-.51-.48"/><path class="cls-8" d="M25.83,113.43c-.59-.69,.76-1.08,.56-1.87-.16-.89-3.33-2.8-4.23-2.4-.37,.07-.74,.4-1.09,.63-.04,0-.07,.02-.11,.02,0,0,0,0,0,0-.04,0-.08,0-.11,.02,0,0-.02,0-.03,0-.04,0-.08,0-.12,0h0s-.02,0-.03,0c0,0,0,0,0,0-.03-.03-.05-.06-.07-.09-.03-.04-.06-.09-.09-.13-.05-.07-.11-.18-.2-.22,0,0,0,0,0,0h0s.01-.02,.01-.02v-.02s.03-.02,.03-.02l.02-.02,.02-.02,.02-.02,.02-.02,.02-.03,.02-.03,.02-.03,.02-.03,.02-.03,.02-.03v-.03s.03-.03,.03-.03v-.03s.03-.03,.03-.03v-.03s.03-.03,.03-.03v-.03s.02-.03,.02-.03v-.03s.03-.03,.03-.03h0c.91-.64,2.02-.98,3.09-.46,1.29,.54,2.6,1.33,3.47,2.43,.37,.67,.26,1.52-.17,2.13-.19,.27-.52,.68-.86,.68-.11,0-.23-.04-.34-.15"/><path class="cls-8" d="M31.12,111.55c-.26-.06-.46-.35-.38-.62,.85-2.74,1.58-5.52,2.1-8.34,1.12-6.46,1.89-18.16-3.27-22.94-.27-.57-.6-1.53-.15-2.06,.37-.3,.97,.05,.84,.52-.02,.09,0,.18,0,.27,.03,1.23,1.48,1.66,1.91,2.73,2.29,4.41,2.65,9.52,2.48,14.38-.15,3.42-.61,6.83-1.4,10.17-.35,1.55-.78,3.07-1.23,4.59-.18,.45-.18,1.29-.78,1.29-.04,0-.08,0-.12-.01"/><path class="cls-8" d="M34.88,113.89c-.26-.1-.4-.41-.29-.67,.27-.61,.52-1.24,.76-1.86,1.65-4.36,3.99-8.45,5.45-12.88,.91-2.81,1.47-5.71,2.07-8.6,.97-4.63,1.79-9.34,1.75-14.08,0-.32-.04-.65,0-.97,.12-.59,1.08-.45,1.02,.16,.2,5.87-1.02,11.66-2.22,17.37-.98,5.96-3.55,11.43-6.07,16.87-.36,.84-.7,1.68-1.04,2.53-.32,.52-.55,2.15-1.25,2.15-.06,0-.12-.01-.18-.03"/><path class="cls-8" d="M31.5,112.52c-.34-.42-.94-1.09-.5-1.62,.3-.34,.9-.11,.9,.34-.02,.1,.06,.19,.12,.27,.79,1.33,1.69,1.22,3.08,1.23,.67-.03,.7,1.03,.03,1.03-.09,0-.18,0-.27,0-1.26,0-2.64-.06-3.36-1.24m-.1-.76c.12,0,.24-.05,.33-.13-.09,.08-.2,.12-.33,.13"/><path class="cls-8" d="M20.69,109.84h0s-.02,0-.03,0c0,0,0,0,0,0-.03-.03-.05-.06-.07-.09-.03-.04-.06-.09-.09-.13-.03-.05-.07-.11-.11-.15,.07-.01,.14-.01,.22,0,.25,.05,.43,.18,.52,.33-.06,.01-.11,.03-.17,.04h0s-.08,0-.11,.02c0,0-.02,0-.03,0-.04,0-.08,0-.12,0"/><path class="cls-8" d="M15.62,76.61h.04s.04,0,.04,0h.03s.03,0,.03,0h.03s.03,.01,.03,.01h.03s.02,.02,.02,.02h.02s.02,.02,.02,.02h.02s.02,.02,.02,.02h.02s.02,.02,.02,.02h.02s.02,.02,.02,.02h.02s.02,.02,.02,.02h.02s.02,.02,.02,.02h.02s.01,.02,.01,.02h.01s.01,.02,.01,.02h.01s.01,.02,.01,.02h.01s.01,.02,.01,.02h.01s.01,.02,.01,.02h.01s.01,.02,.01,.02h.01s.01,.02,.01,.02h.01s.01,.02,.01,.02h0c-.23-.09-.46-.19-.69-.29"/><path class="cls-8" d="M20.58,109.74s-.06-.09-.09-.13c-.04-.05-.08-.12-.13-.17-4.74-10.14-5.9-21.73-4.92-32.8h.03s.05-.02,.05-.02h.05s.04,0,.04,0h.04s.04,0,.04,0h.03s.03,.01,.03,.01h.03s.03,.01,.03,.01h.03s.03,.02,.03,.02h.02s.02,.02,.02,.02h.02s.02,.02,.02,.02h.02s.02,.02,.02,.02h.02s.02,.02,.02,.02h.02s.02,.02,.02,.02h.02s.02,.02,.02,.02h.01s.01,.02,.01,.02h.01s.01,.02,.01,.02h.01s.01,.02,.01,.02h.01s.01,.02,.01,.02h.01s.01,.02,.01,.02h.01s.01,.02,.01,.02h.01s.01,.02,.01,.02h.01s.01,.02,.01,.02h.01s0,.02,0,.02h.01s.01,.02,.01,.02h0s0,.02,0,.02h0s0,.02,0,.02h0s0,.02,0,.02h0s0,.02,0,.02h0s0,.02,0,.02h0c-.12,1-.2,1.98-.22,2.98-.12,4.85,.1,9.73,.77,14.54,.46,3.17,1.19,6.18,2.24,9.16,.63,1.82,1.31,3.62,2.13,5.35h0s-.01,.03-.01,.03v.03s-.03,.03-.03,.03v.03s-.03,.03-.03,.03l-.02,.03-.02,.03v.03s-.03,.03-.03,.03l-.02,.02-.02,.02-.02,.02v.02s-.03,.02-.03,.02v.02s-.03,.01-.03,.01h-.01s-.01,.03-.01,.03h-.01s-.01,.02-.01,.02h-.01s0,.02,0,.02h-.01s0,.02,0,.02h0s-.01,.01-.01,.01h0s-.01,.02-.01,.02h0s-.01,.01-.01,.01h-.01s0,.02,0,.02h-.01s-.01,.01-.01,.01h-.01s-.01,.01-.01,.01h-.01s-.01,.01-.01,.01h-.01s0,.01,0,.01h-.01s-.01,.01-.01,.01h-.01s-.01,.01-.01,.01h-.01s-.01,.01-.01,.01h-.01s-.01,.01-.01,.01h-.01s-.01,.01-.01,.01h-.01s-.01,.01-.01,.01h-.01s-.01,.01-.01,.01h-.01s-.01,.01-.01,.01h-.01s-.01,.01-.01,.01h-.01s-.01,.01-.01,.01h-.01s-.01,.01-.01,.01h0s-.03-.04-.05-.06"/><path class="cls-8" d="M21.03,109.19c.13-.13,.26-.25,.4-.36h0s-.01,.04-.01,.04v.03s-.02,.03-.02,.03v.03s-.02,.03-.02,.03v.03s-.02,.03-.02,.03v.03s-.02,.03-.02,.03v.03s-.03,.03-.03,.03v.03s-.03,.03-.03,.03l-.02,.03-.02,.03-.02,.03-.02,.03-.02,.03-.02,.02-.02,.02v.02s-.03,.02-.03,.02h-.01s-.01,.03-.01,.03h-.01s-.01,.02-.01,.02h-.01s-.01,.02-.01,.02h-.01s0,.02,0,.02h0s-.01,.02-.01,.02h0s-.01,.02-.01,.02h0s0,.02,0,.02h-.01s0,.01,0,.01h-.01s0,.01,0,.01h-.01s-.01,.01-.01,.01h-.01s0,.01,0,.01h-.01s-.01,.01-.01,.01h-.01s-.01,.01-.01,.01h-.01s-.01,.01-.01,.01h-.01c-.03-.18,.03-.37,.18-.48"/><path class="cls-8" d="M33.32,120.98c-1.73-.28-2.26-3.65-2.52-5.1,.1-1.17,.44-2.33,.72-3.46,.21-.6,1.15-.32,.99,.3-.23,1.05-.57,2.1-.67,3.18,.27,1.21,.55,3.16,1.46,4,1.13,.45,.03-3.7,0-4.24,.03-.82,.39-1.6,.71-2.34,.25-.62,1.22-.24,.96,.38-.29,.67-.56,1.24-.64,1.92,.23,1.34,.62,2.72,.47,4.09-.13,.69-.71,1.4-1.49,1.28"/><path class="cls-8" d="M29.07,120.72c.03-1.12,.36-2.21,.71-3.27,.32-.88,.56-1.85,1.12-2.61,.29-.33,.9-.09,.89,.35,.01,.24-.23,.45-.29,.65-.3,.64-.52,1.31-.75,1.98-.32,.99-.6,1.89-.64,2.88,.02,.67-1.02,.7-1.04,.03"/><path class="cls-8" d="M33.32,125.42c-.75-.07-1.43-.54-1.97-1.04-.85-.84-.82-2.14-1.15-3.21-.41,.61-1.29,0-.86-.59,1.66-1.69,1.91,.45,2.18,1.74,0-.01,0-.02,0-.02,.15,.98,.54,1.55,1.46,1.97,.47,.32,.92-.13,1.28-.42,.34-.28,.67-.95,1.19-.58,.56,.45-.16,1.03-.49,1.34-.46,.4-1,.81-1.64,.81"/><path class="cls-8" d="M35.08,123.94c-.27-.09-.39-.44-.29-.68,.03-.29,0-.58-.02-.86-.15-1.95-.71-3.83-1.21-5.7,0-.27,.22-.52,.51-.53,.5-.01,.54,.52,.65,.88,.16,.54,.31,1.09,.46,1.64,.25,.98,.42,1.96,.55,2.96,.03,.63,.51,2.55-.65,2.29"/><path class="cls-8" d="M20.73,111.48c-.07-.59-.13-1.18-.24-1.77-.08-.26-.1-.55,.14-.74,.3-.26,.82-.03,.84,.35,.15,.65,.21,1.33,.29,1.99,.09,.66-.92,.82-1.03,.16"/><path class="cls-8" d="M25.62,114c-.68-.11-.37-.91-.44-1.38-.05-.73-.14-1.47-.2-2.2-.01-.23-.06-.46-.05-.68,.08-.63,1.05-.55,1.03,.08,.07,1.02,.22,2.03,.27,3.05,.02,.45,.04,1.19-.61,1.13"/><path class="cls-8" d="M19.33,116.73c-1.58-.24-3.24-.52-4.61-1.38-.41-.28-.8-.8-.57-1.3,.32-.6,1.1-.66,1.67-.9,1.28-.42,2.54-.88,3.8-1.35,.61-.15,1.92-1.1,2.08-.01,0,.27-.23,.5-.5,.51-.33,.11-.66,.25-.99,.38-1.64,.64-3.32,1.19-4.98,1.78,.05,.04,.11,.09,.17,.13,.1,.06,.21,.12,.32,.18,0,0,0,0,0,0-.01,0-.02-.01-.04-.02,.89,.44,1.86,.63,2.82,.84,2.6,.78,4.39-1.22,6.51-2.3,.59-.33,1.1,.57,.51,.9-1.98,1-3.8,2.89-6.19,2.57"/><path class="cls-8" d="M23.96,121.98c-.26-.11-.39-.41-.28-.67,.29-.67,.55-1.35,.79-2.04,.47-1.31,.71-2.69,.82-4.08,.02-.37,.05-.74,.03-1.11-.05-.3-.1-.66,.22-.83,.77-.32,.85,.59,.82,1.12-.04,1.75-.32,3.56-.9,5.18-.25,.73-.52,1.44-.83,2.15-.11,.26-.42,.39-.68,.28"/><path class="cls-8" d="M18.92,120.87c-1.81-.16-3.44-.96-5.09-1.63-1.26-.56-2.82-.92-3.59-2.15-.45-.88-.29-2.28,.81-2.58,1.19-.4,2.4-.74,3.6-1.12,.37-.1,.74-.23,1.12-.26,.69,0,.72,1.02,.02,1.03-1.42,.31-2.8,.83-4.19,1.24-.31,.07-.58,.22-.55,.58-.06,.48,.22,.89,.62,1.13,1.47,.87,3.13,1.36,4.69,2.05,2.11,.84,3.85,.97,5.93-.03,.26-.12,.57,.03,.68,.29,.23,.76-.87,.84-1.36,1.07-.86,.33-1.77,.46-2.69,.37"/><path class="cls-8" d="M23.7,122.15c-1.46-.26-1.68-.75-1.39-2.14-.86-.58,.51-1.58,.97-.75,.25,.54-.04,1.14-.05,1.7,.23,.1,.49,.13,.73,.2,.65,.18,.39,1.16-.27,.99"/><path class="cls-8" d="M48.46,34.34c-.2-.15-.44-.2-.67-.27-.27-.1-.52-.27-.81-.32-.53-.11-1.13,.06-1.6-.29-.41-.28-.66-.76-.62-1.26,.06-.71-.04-1.51,.37-2.12,1.26-1.45,3.07-1.36,3.7-3.54,.32-.84,.6-1.7,.94-2.54,.23-.74,.31-1.54,.67-2.23,.26-.61,1.92-1.33,2.03-.31-.03,.78-1.12,.3-1.23,1.07-.17,.46-.27,.94-.37,1.42-.23,.78-.56,1.53-.82,2.3-.51,1.7-1.34,2.86-2.99,3.63-.42,.25-.93,.5-1.15,.95-.02,.5-.26,1.29,0,1.72,.17,.15,.4,.15,.63,.14,.15,0,.3-.01,.44,.03,.48,.04,.83,.25,1.21,.41,.23,.08,.48,.13,.69,.27,.43-.29,.55-.85,.42-1.33-.37-.29-.76-.59-1.22-.7-.83-.17-.58-1.78,1.27-.54,.82,.49,1.14,.97,1.01,1.94-.04,.67-.73,1.71-1.48,1.71-.14,0-.27-.03-.41-.11"/><path class="cls-8" d="M52.45,25.69c-.68-.19-1.74-1.93-.58-2.09,.65,0,.44,.88,.93,1.11,.84-.07,.88-.53,.75-1.24-.11-.56,.01-1.86-.86-1.69-.34,.08-.67,.22-1.02,.27-.6,0-.71-.87-.12-1.01,1.37-.51,2.56-.46,2.88,1.19,.11,.44,.13,.9,.18,1.34,.05,.37,.11,.75-.07,1.09-.25,.65-.99,1.05-1.69,1.05-.13,0-.26-.01-.39-.04"/><path class="cls-8" d="M56,27.31c-.98-.23-1.71-1.33-1.34-2.3,.15-.41,.8-.41,.96,0,.11,.25-.07,.51,.01,.77,.15,.42,.7,.7,1.09,.39,.06-.93,.22-1.86,.23-2.79-.38-.3-.87-.55-1.32-.67-.21,.45-.52,.85-.72,1.31-.27,.37-.32,1.05-.87,1.09-.28,0-.52-.23-.52-.51,0-.22,.15-.39,.23-.59,.29-.6,.63-1.17,.95-1.75,.42-.81,1.29-.63,1.94-.24,.42,.15,.76,.41,1.11,.68,.5,.64,.12,1.63,.09,2.37-.02,1.36-.12,2.27-1.64,2.27-.07,0-.14,0-.21,0"/><path class="cls-8" d="M58.75,29.35c-.14,0-.28-.03-.45-.1-.56-.23-1.05-.7-1.05-1.33-.07-.46-.09-.98,.24-1.35-.5,.43-1.17-.3-.7-.76,.59-.34,2.16-1.86,2.77-1.24,.55,.86,1.89,1.73,1.33,2.88-.33,.44-.79,.77-1.11,1.22-.3,.38-.6,.69-1.02,.69h0Zm-.44-2.16c-.15,.23-.02,.55,0,.8,.07,.15,.26,.24,.4,.31,.41-.47,.81-.94,1.27-1.37,.04-.17-.09-.29-.19-.42-.22-.36-.52-.66-.8-.97-.4,.25-.8,.48-1.16,.78,.04,0,.08-.01,.12-.01,.42,0,.69,.55,.36,.88"/><path class="cls-8" d="M54.77,34.57c-.61,0-1.12-.34-1.7-.42-.4-.03-.94,0-.95-.54,.07-.8,1.1-.46,1.6-.39,.43,.18,.85,.34,1.33,.35,.2,.04,.36-.07,.54-.16,.44-.19,.9-.36,1.31-.61,.27-.23,.57-.42,.84-.65,.17-.22,.38-.41,.55-.63,.09-.15,.16-.32,.3-.43,.37-.22,.93-.58,1.27-.13,.15,.21,.12,.47,.17,.71,.13,.39,.22,.83,.6,1.03,.21-.84,.41-1.77,.29-2.64-.26-.28-.64-.41-.89-.71-.36-.17-.89-.34-.99-.78-.04-.59,.6-.74,.99-.38,.19,.15,.42,.19,.62,.32,.26,.27,.59,.44,.87,.69,.46,.32,.48,.9,.48,1.41,.02,.55-.12,1.09-.21,1.64-.08,.41-.08,.88-.42,1.17-.93,.93-2.06-.32-2.27-1.27-.69,.86-1.57,1.58-2.61,1.99-.46,.19-.9,.46-1.4,.46-.1,0-.21-.01-.31-.04"/><path class="cls-8" d="M51.95,49.69c-.73-2.09-.93-4.32-1.43-6.46-.14-1.56-.54-3.08-.64-4.65-.15-1.97-.37-3.95-.46-5.91,.29-.73,1.2-.34,1.02,.39,.26,1.81,.27,3.64,.48,5.46,.14,1.65,.51,3.28,.69,4.92,.42,1.58,.57,3.24,.99,4.81-.12,.26-.09,.55-.05,.83,.02,.16,.05,.31,.08,.47,.03,.14,.06,.29,.09,.43-.08,.05-.18,.08-.27,.08-.18,0-.37-.11-.48-.38"/><path class="cls-8" d="M59.48,47.8c-.01-.17-.02-.35-.03-.52,0-.03,0-.07,0-.1,0-.06,0-.12,0-.18,0-.11,0-.22-.03-.33,0-.02,0-.04-.01-.07-.11-2.21-1.31-4.3-2.09-6.35-.51-1.5-1.3-2.88-1.83-4.38-.18-.65-.85-1.34-.48-2.02,.31-.53,1.17-.13,.93,.45,1.11,2.65,2.27,5.27,3.33,7.94,.74,1.78,1.29,3.41,1.17,5.2-.28,.3-.55,.61-.82,.91-.03,.04-.07,.07-.1,.11,0-.23-.01-.45-.03-.68"/><path class="cls-8" d="M11.19,39.52c-.33-.73-.65-1.46-1-2.18-.1,.49-.21,1.02-.53,1.41-.58,.63-1.68,.7-2.28,.07-.46-.58-.25-1.35-.24-2.02,.1-.51-.18-1.12,.21-1.55,1.34-1.12,2.89-.94,3.42,.84,.35,.87,.84,1.68,1.17,2.56,.19,.34,.43,.85-.04,1.09-.07,.04-.15,.05-.23,.05-.19,0-.38-.1-.47-.28m-3.01-3.61c.11,.74-.15,1.5,0,2.23,.11,.08,.24,.12,.37,.08,.55-.08,.55-.8,.65-1.23-.08-.35,.16-.73,.54-.7-.14-.51-.4-.71-.72-.71-.25,0-.53,.12-.83,.32"/><path class="cls-8" d="M5.03,41.26c-.92-.19-.88-1.3-.98-2.03-.06-.4-.22-.78-.23-1.18-.07-.6,.5-.92,1.01-1.05,.47-.18,1.04-.34,1.51-.08,.33,.2,.64,.45,.99,.62,.28-.01,.52,.2,.54,.48,.03,.46-.5,.66-.88,.49-1.04-.45-.93-.99-2.13-.43,.22,.71,.21,1.47,.41,2.18,.74,.06,1.02-.27,.95-.98-.04-.67,.98-.74,1.03-.07,.13,1.28-.64,2.08-1.82,2.08-.13,0-.27,0-.41-.03"/><path class="cls-8" d="M6.42,41.44c-.15-.42-.54-.88-.27-1.32,.15-.23,.49-.29,.72-.14,.15,.1,.23,.27,.23,.43,.1,.23,.21,.45,.31,.69,.13,.4-.19,.67-.51,.67-.19,0-.38-.1-.47-.34m.61-.79s.04-.09,.05-.13c0-.02,0-.04,0-.06h0c0,.06-.02,.13-.06,.2"/><path class="cls-8" d="M8.72,40.32c-.28-.39-.74-.67-.89-1.14-.23-.76,.89-1.06,1.01-.26,.31,.4,1.14,.92,.61,1.45-.1,.08-.22,.13-.35,.13-.14,0-.29-.06-.39-.17"/><path class="cls-8" d="M2.75,43.28s.02,0,.03,0c0,0-.02,0-.03,0t0,0"/><path class="cls-8" d="M2.84,43.26c-.06,0-.12-.01-.17-.02-.21-.09-.33-.25-.4-.47,0-.06,0-.13,0-.19,0-.15-.01-.31-.02-.46,0-.02,0-.04,0-.06,0-.51-.05-.99-.08-1.5-.21-1.04,.85-1.46,1.67-1.71,.52-.59,1.29,.29,.73,.78-.41,.28-.96,.3-1.36,.6-.01,.7,.11,1.37,.07,2.06,.39,.05,.61-.24,.76-.55,.22-.26,.26-.57,.2-.89-.04-.67,.98-.74,1.04-.07,.13,.79-.31,1.8-1.02,2.27-.15-.01-.29,0-.43,.05,0,0-.01,0-.02,0-.09,.01-.18,.02-.27,.04-.1,.02-.2,.05-.3,.07-.01,0-.02,0-.04,0-.02,0-.04,0-.06,0-.03,0-.07,0-.1,0-.06,0-.12,0-.17,.01,0,0-.02,0-.02,0"/><path class="cls-8" d="M4.91,43.61c-.06-.17-.18-.33-.33-.43-.09-.2-.25-.36-.35-.56-.45-.8,.82-1.34,.96-.4,.73,.86,.37,1.45-.06,1.45-.07,0-.15-.02-.22-.05"/><path class="cls-8" d="M4,43.08c-.06,0-.13,.03-.19,.05,0,0-.02,0-.02,0h0c-.09,.01-.18,.02-.27,.04-.1,.02-.19,.05-.29,.07,.14-.27,.53-.33,.77-.17"/><path class="cls-8" d="M2.27,42.87c0-.09,0-.19,0-.28-.01-.35-.04-.71-.06-1.06,.35-.12,.68-.07,.77,.42,.04,.44-.42,.52-.71,.72,0,.07,0,.14,.01,.21,0,0,0,0,0,0"/><path class="cls-8" d="M6.97,49.14s-.03-.01-.05-.02h0s-.01-.02-.01-.02h-.02s-.01-.03-.01-.03h-.01s-.01-.03-.01-.03h-.01s-.01-.03-.01-.03h-.01s-.01-.03-.01-.03h-.01s-.01-.02-.01-.02h-.01s-.01-.02-.01-.02h-.01s-.01-.02-.01-.02h-.01s-.01-.02-.01-.02h-.01s-.01-.02-.01-.02h-.01s-.01-.02-.01-.02h-.01s-.01-.02-.01-.02h0s-.01-.01-.01-.01h-.01s0-.01,0-.01h0s0-.01,0-.01h0s0-.01,0-.01h0s0,0,0,0h0s0,0,0,0h-.01s0,0,0,0h0s0,0,0,0h0s0,0,0,0h0s-.01,0-.01,0h0s-.01,0-.01,0h-.01s-.01,0-.01,0h-.01s-.01,0-.01,0h-.01s-.01,0-.01,0h-.01s-.01,0-.01,0h-.01s-.01,0-.01,0h-.01s-.01,0-.01,0h-.01s-.01,0-.01,0h-.01s-.01,0-.01,0h-.01s-.01,0-.01,0h-.01s-.01,0-.01,0h-.04s-.01,0-.01,0h-.05s-.01,0-.01,0h-.02s-.01,0-.01,0h-.02s-.01,0-.01,0h-.01s-.01,0-.01,0h-.01s-.01,0-.01,0h-.01c-.79-.41-1.42-.99-1.71-1.96-.24-.44-.4-.91-.54-1.38,.05-.04,.09-.09,.12-.15,.02-.03,.03-.06,.05-.08t0,0s0,0,.01,0c.03,0,.06-.01,.08-.02,.06,0,.13-.02,.19-.02,.1,0,.21,0,.31,0h0c.08,.08,.17,.15,.27,.19,.14,.43,.32,.85,.52,1.26,.16,.48,.47,.89,.92,1.15,.36,.18,.74,.31,1.1,.48,.57,.19,.36,1-.16,1-.06,0-.12,0-.18-.03"/><path class="cls-8" d="M3.69,43.15s-.05,0-.08,.01c.03,0,.05,0,.08-.01"/><path class="cls-8" d="M12.13,41.77c-1.07-.15-1.64-1.37-.88-2.2,.5-.52,1.21-.79,1.75-1.26,.18-.63,1.18-.36,1.03,.28-.34,.85-1.42,1.05-2.02,1.68-.3,.42,.45,.59,.75,.5,.38-.17,.9-.5,1.16,.01,.27,.69-.73,1.03-1.41,1.03-.15,0-.28-.02-.39-.05"/><path class="cls-8" d="M12.2,48.09c-.71-.66,.52-1.37,.92-1.84,.26-.4,.43-.86,.64-1.29,.57-1.1,.52-2.36,.96-3.49,.11-.56,.43-1.09,.25-1.66-.25-.37-.58-.82-1.02-.94-.53,.83-1.64-.07-.81-.64,1.12-1.28,3.14,.87,2.92,2.13-.14,.91-.51,1.76-.7,2.64-.09,.92-.35,1.79-.77,2.62-.28,.57-.49,1.21-1.02,1.63-.4,.22-.64,.93-1.09,.93-.09,0-.18-.03-.29-.09"/><path class="cls-8" d="M6.78,48.97h-.01s-.01-.02-.01-.02h-.01s-.01-.02-.01-.02h-.01s-.01-.02-.01-.02h-.01s-.01-.02-.01-.02h-.01s-.01-.02-.01-.02h-.01s-.01-.02-.01-.02h-.01s0-.01,0-.01h0s-.01-.01-.01-.01h0s-.01-.01-.01-.01h0s0-.01,0-.01h0s0,0,0,0h0s0,0,0,0h0s0,0,0,0h0s0,0,0,0h0s0,0,0,0h0s0,0,0,0h-.01s-.01,0-.01,0h-.01s-.01,0-.01,0h-.01s-.01,0-.01,0h-.01s-.01,0-.01,0h-.01s-.01,0-.01,0h-.01s-.01,0-.01,0h-.01s-.01,0-.01,0h-.01s-.01,0-.01,0h-.01s-.01,0-.01,0h-.02s-.01,0-.01,0h-.02s-.01,0-.01,0h-.01s-.01,0-.01,0h-.07s-.01,0-.01,0h-.01s-.01,0-.01,0h-.01s-.01,0-.01,0h-.01s-.01,0-.01,0h-.01s-.01,0-.01,0h-.01s-.01,0-.01,0h-.01s-.01,0-.01,0h-.01s-.01,0-.01,0h-.01s-.01,0-.01,0h-.01s-.01,0-.01,0h-.01s-.01,0-.01,0h-.02s-.01,0-.01,0h-.02s-.02,0-.02,0h-.02s-.02,0-.02,0h-.02s-.02,0-.02,0h-.02s-.02,0-.02,0h-.02s-.02,0-.02,0h0c.17-.25,.35-.49,.53-.74,.22-.18,.54-.17,.73,.05,.22,.26,.1,.58-.11,.89h0Z"/><path class="cls-8" d="M11.37,48.13c.11-.43,.5-.71,.77-1.05,.23-.33,.68-.63,1.02-.26,.45,.59-.43,1.03-.71,1.46,0,.02,0,.04-.01,.05h0s0-.02,0-.02h0s0-.03,0-.03h0s0-.02,0-.02h0s0-.02,0-.02h0s0-.01,0-.01h0s0,0,0,0h0s0,0,0,0h-.01s0,0,0,0h-.01s-.01,0-.01,0h-.01s-.01,0-.01,0h-.01s-.01,0-.01,0h-.05s-.01,0-.01,0h-.01s-.01,0-.01,0h-.01s-.01,0-.01,0h-.01s-.01,0-.01,0h-.01s-.01,0-.01,0h-.01s-.01,0-.01,0h-.01s-.01,0-.01,0h-.01s-.01,0-.01,0h-.01s-.01,0-.01,0h-.01s-.01,0-.01,0h-.01s-.01,0-.01,0h-.01s-.01,0-.01,0h-.01s-.01,0-.01,0h-.01s-.01,0-.01,0h-.01s-.01,0-.01,0h-.01s-.01,0-.01,0h-.01s-.01,0-.01,0h-.01s-.01,0-.01,0h-.01s-.01,0-.01,0h-.01s-.01,0-.01,0h-.01s-.01,0-.01,0h-.01s-.01,0-.01,0h-.01s-.01,0-.01,0h-.01s-.01,0-.01,0h-.01s-.01,0-.01,0h-.01s-.01,0-.01,0h-.01s-.01,0-.01,0h-.01s-.01,0-.01,0h-.01s-.01,0-.01,0h-.01s-.01,0-.01,0h-.01s-.01,0-.01,0h-.01s-.01,0-.01,0h-.01s-.01,0-.01,0h-.01s-.01,0-.01,0h-.01s-.01,0-.01,0h0c.02-.1,.03-.21,.05-.32"/><path class="cls-8" d="M1.22,46.09c-1.53-.34-1.11-1.43-.48-2.42,.32-.42,.06-1.22,.75-1.25,1.23,.24-.02,1.96-.29,2.59,.41,.23,.85-.2,1.13-.48,.16-.24,.23-.57,.55-.65,.46-.11,.82,.31,1.16,.54,.21,.12,.41,.28,.56,.46,.6,.75-.49,1.51-.85,.6-.17-.16-.37-.25-.54-.41-.4,.52-1.06,1.02-1.75,1.02-.08,0-.15,0-.23-.02"/><path class="cls-8" d="M1.55,43.39c-.59-.09-.55-.72-.21-1.06,.21-.23,.53-.19,.8-.26,.12-.05,.24-.07,.37-.04,.43,.1,.52,.74,.12,.94-.17,.09-.36,.13-.56,.15-.09,.17-.28,.27-.47,.27-.02,0-.04,0-.06,0"/><path class="cls-8" d="M6.43,48.52h.01s.01,0,.01,0h.01s.01,0,.01,0h.01s.01,0,.01,0h.01s.01,0,.01,0h.01s.01,0,.01,0h.01s.01,0,.01,0h.01s.01,0,.01,0h.01s.01,0,.01,0h.01s.01,0,.01,0h.01s.01,0,.01,0h.02s.01,0,.01,0h.11s.01,0,.01,0h.02s.01,0,.01,0h.01s.01,0,.01,0h.01s.01,0,.01,0h.01s.01,0,.01,0h.01s0,0,0,0h.01s0,0,0,0h0s.01,0,.01,0h0s0,0,0,0h.01s0,0,0,0h0s0,0,0,0h0s.01,0,.01,0h0s.01,0,.01,0h.01s.01,0,.01,0h.01s.01,.01,.01,.01h.01s.01,.01,.01,.01h.01s.01,.02,.01,.02h.01s.01,.02,.01,.02h.01s.01,.02,.01,.02h.01s.02,.02,.02,.02h.01s.01,.02,.01,.02h.02s.01,.02,.01,.02h.02s.02,.02,.02,.02h.02s.02,.02,.02,.02h.02s.02,.02,.02,.02h.02s.02,.03,.02,.03h.02s0,.02,0,.02c-.35-.08-.69-.18-1.01-.3"/><path class="cls-8" d="M3.18,57.7l-.06-.08-.06-.08-.06-.08-.06-.08-.06-.08-.06-.08-.07-.08-.07-.08-.07-.08-.08-.08-.08-.08-.05-.04c.21-.57,.46-1.13,.68-1.7,.93-2.2,1.92-4.38,3.05-6.48h.02s.02-.01,.02-.01h.02s.02-.01,.02-.01h.02s.02-.01,.02-.01h.02s.02-.01,.02-.01h.02s.02,0,.02,0h.01s.01-.01,.01-.01h.01s.01,0,.01,0h.01s.01,0,.01,0h.01s.01,0,.01,0h.01s.01,0,.01,0h.01s.01,0,.01,0h.01s.01,0,.01,0h.01s.01,0,.01,0h.01s.01,0,.01,0h.01s.01,0,.01,0h.01s.01,0,.01,0h.01s.01,0,.01,0h.01s.01,0,.01,0h.01s.01,0,.01,0h.01s.01,0,.01,0h.01s.01,0,.01,0h.01s.01,0,.01,0h.01s.01,0,.01,0h.01s.01,0,.01,0h.04s.01,0,.01,0h.01s.01,0,.01,0h.01s.01,0,.01,0h.01s.01,0,.01,0h.01s.01,0,.01,0h.01s.01,0,.01,0h.01s.01,0,.01,0h.01s.01,0,.01,0h.01s0,0,0,0h0s0,0,0,0h.01s0,0,0,0h.01s0,0,0,0h0s0,0,0,0h0s.01,0,.01,0h0s.01,0,.01,0h.01s.01,.01,.01,.01h.01s.01,.01,.01,.01h.01s.01,.01,.01,.01h.01s.01,.02,.01,.02h.01s.01,.02,.01,.02h.01s.01,.02,.01,.02h.01s.02,.02,.02,.02h.01s.01,.02,.01,.02h.02s0,.01,0,.01c-.17,.33-.42,.67-.51,.91-.73,1.33-1.34,2.72-1.98,4.09-.53,1.34-1.21,2.64-1.61,4.03h-.01Z"/><path class="cls-8" d="M9.67,60.4c-.04-.22-.09-.44-.17-.64,.18-.9,.35-1.8,.57-2.7,.27-1.91,.47-3.83,.95-5.7,.28-1.23,.66-2.46,.72-3.73h0s.01,0,.01,0h.01s.01,0,.01,0h.01s.01-.01,.01-.01h.01s.01,0,.01,0h.01s.01-.01,.01-.01h.01s.01,0,.01,0h.01s.01,0,.01,0h.01s.01-.01,.01-.01h.01s.01,0,.01,0h.01s.01,0,.01,0h.01s.01-.01,.01-.01h.01s.01,0,.01,0h.01s.01-.01,.01-.01h.01s.01-.01,.01-.01h.01s.01-.01,.01-.01h.01s.01-.01,.01-.01h.01s.01-.01,.01-.01h.01s.01,0,.01,0h.01s.01-.01,.01-.01h.01s.01-.01,.01-.01h.01s.01,0,.01,0h.01s.01-.01,.01-.01h.01s.01,0,.01,0h.01s.01,0,.01,0h.01s.01,0,.01,0h.01s.01,0,.01,0h.01s.01,0,.01,0h.01s.01,0,.01,0h.01s.01,0,.01,0h.01s.01,0,.01,0h.01s.01,0,.01,0h.01s.01,0,.01,0h.01s.01,0,.01,0h.01s.01,0,.01,0h.01s.01,0,.01,0h.01s.01,0,.01,0h.01s.01,0,.01,0h.01s.01,0,.01,0h.05s.01,0,.01,0h0s.01,0,.01,0h0s0,0,0,0h0s0,.01,0,.01h.01s0,.01,0,.01h0s0,.02,0,.02h.01s0,.02,0,.02h.01s0,.02,0,.02c-.15,1.81-.66,3.61-1.05,5.39-.44,2.11-.55,4.24-1.09,6.34-.06,.19-.13,.56-.21,1.02-.04,.05-.09,.1-.14,.14-.02,.02-.04,.04-.07,.05-.03,.02-.06,.03-.09,.05-.02,.01-.05,.02-.07,.03-.01,0-.03,0-.04,.01,0,0-.01,0-.02,0h-.02c-.12,0-.25-.02-.37-.04"/><path class="cls-8" d="M9.67,60.4c-.02-.13-.05-.25-.08-.37,.05-.03,.1-.05,.17-.06,.33-.04,.5,.11,.57,.33-.02,.02-.04,.03-.06,.05-.03,.02-.06,.03-.09,.05-.02,.01-.05,.02-.07,.03-.01,0-.03,0-.04,.01,0,0-.01,0-.02,0,0,0-.01,0-.02,0-.12,0-.25-.02-.37-.04"/><path class="cls-8" d="M12.46,58.13c.13,.04,.29,.02,.42,0,.02,0,.05,0,.07-.01h.02s0,.07,0,.11c0,.14,0,.28,.02,.43-.18-.17-.36-.35-.53-.52"/><path class="cls-8" d="M11.02,56.65c-.37-.35-1-1.06-.3-1.41,.31-.14,.51,.04,.68,.26,0,.03-.01,.06-.02,.09-.02,.11-.03,.22-.04,.34,0,.03,0,.07-.01,.1-.04,.06-.1,.1-.17,.14,.06-.03,.12-.08,.17-.14-.01,.13-.03,.25-.02,.38,0,.01,0,.03,0,.04-.02,.07-.03,.13-.04,.2-.01,.09-.02,.18,0,.26-.08-.09-.17-.17-.25-.26"/><path class="cls-8" d="M12.55,60.02l-.03-.07-.03-.07-.03-.07-.03-.07-.04-.06-.04-.06-.04-.06-.04-.06-.04-.05-.04-.05-.04-.05-.04-.05-.04-.04-.03-.04-.03-.04-.03-.03-.03-.03-.03-.03-.03-.02c.13-.24,.27-.49,.4-.73,.04-.08,.08-.15,.11-.23,.01,0,.02,0,.03,.01,.14,.04,.3,.03,.44,0,.02,0,.05,0,.07-.01h.02s0,.07,0,.11c0,.21,.01,.42,.03,.62,0,.09,.01,.19,.02,.28-.15,.28-.31,.58-.48,.9h0Z"/><path class="cls-8" d="M12.54,59.26c-.65-.21-.26-.92-.14-1.36,.06-.49,.52-1.03,1-.6,.39,.47-.17,1.08-.23,1.6-.07,.22-.28,.38-.5,.38-.05,0-.09,0-.13-.02"/><path class="cls-8" d="M2.11,57.88c.08-.48,.22-.95,.38-1.41l.05,.04,.08,.08,.08,.08,.07,.08,.07,.08,.07,.08,.06,.08,.06,.08,.06,.08,.06,.08,.06,.08,.06,.08h.01c-.08,.3-.15,.58-.21,.87-.47,1.38-.4,2.83,.38,4.07-.14-.02-.27-.03-.41-.02-.18,.01-.37,.06-.54,.14-.04,.02-.09,.04-.13,.07-.78-1.45-.8-3.05-.28-4.63"/><path class="cls-8" d="M12,58.74l.03,.02,.03,.03,.03,.03,.03,.03,.04,.04,.03,.04,.04,.04,.04,.05,.04,.05,.04,.05,.04,.05,.04,.06,.04,.06,.03,.06,.04,.06,.04,.07,.03,.07,.03,.07,.03,.07h0c-.45,.84-1,1.79-1.59,2.68-.19-.01-.38,.02-.56,.1-.25,.11-.49,.27-.73,.41,0,0-.01,0-.02,0-.12,0-.24,0-.36,.03,1.02-1.29,1.81-2.74,2.6-4.18"/><path class="cls-8" d="M56.06,51.8c-.68-.04-1.34-.27-1.93-.6-.99-.58-1.78-1.48-2.38-2.42-.22-.38,.16-.86,.58-.75,.32,.05,.38,.42,.57,.62,.39,.52,.74,.9,1.21,1.3,2.58,2.15,5.16-.34,5.49-3.06,.07-.66,1.09-.57,1.03,.09-.28,2.31-2,4.86-4.57,4.82"/><path class="cls-8" d="M54.54,55.05c-1.06,.07-1.03-1.27,.03-1.03,1.44,.26,2.84-.41,3.88-1.36,.26-.24,.48-.51,.67-.81,.16-.23,.5-.28,.72-.12,.57,.46-.16,1.08-.47,1.46-1.25,1.25-3.03,2.13-4.83,1.85"/><path class="cls-8" d="M40.13,29.92c-.67-.13-.49-1.12,.18-1.01,.78,.08,1.72-.04,2.28-.63,.96-1.04,1.18-2.63,.62-3.91-.35-.79-1.07-1.57-2.02-1.47-.92,.26-1.02-1.03-.08-1.03,4.8-.05,4.64,8.85-.98,8.05"/><path class="cls-8" d="M20.97,30.84c-1.37-.22-2.71-1.14-3.27-2.41-.15-.44-.4-1.16,.28-1.26,.76-.02,.51,.97,.95,1.35,.58,.65,1.33,1.2,2.21,1.31,.67,.12,.49,1.12-.18,1.01"/><path class="cls-8" d="M29.65,36.98c-1.12,.03-2.15-.41-3.15-.85-.82-.36-1.68-.72-2.37-1.3-3.29-2.28-4.6-6.45-4.34-10.28-.14-.81,.96-1.08,1.05-.22-.01,.23-.02,.47-.02,.7-.1,2.61,.57,5.34,2.23,7.41,1.29,1.56,3.07,2.49,4.93,3.2,.55,.21,1.13,.33,1.72,.32,.67,.03,.64,1.04-.04,1.03"/><path class="cls-8" d="M29.02,36.61c-.18-.98,1.11-.6,1.69-.71,.69-.09,1.38-.19,2.05-.35,2.53-.62,3.4-1.32,5.01-3.3,.89-1.07,1.36-2.4,1.85-3.68,.08-.61,.26-1.19,.46-1.78,.27-.93,.37-1.9,.41-2.87,.07-.6-.56-1.77,.42-1.82,.36,.02,.51,.37,.48,.69,.22,.95,.1,1.97-.03,2.92-.1,.91-.47,1.76-.67,2.65-.04,.65-.43,1.2-.59,1.83-.59,1.63-1.69,3-2.9,4.23-1.77,1.87-5.14,2.51-7.64,2.54,.02,0,.03,0,.05,0,0,0,.02,0,.03,0-.26,.06-.53-.07-.62-.33"/><path class="cls-8" d="M16.87,28.26c-.18-.48,.33-.69,.7-.83,2.62-1.07,2.77-6.76,3.62-9.2,.71-2.55,2.53-5.08,5.21-5.81,2.12-.54,4.45-.6,6.47,.33,.58,.3,1.29,.52,1.66,1.09,.46,.29,.17,1.04-.37,.94-.32-.02-.42-.33-.62-.51-.74-.46-1.52-.8-2.37-1.01-1.73-.37-3.6-.21-5.25,.41-1.24,.59-2.2,1.66-2.91,2.81-1.11,2.04-1.32,4.39-1.85,6.61-.58,2.13-1.23,4.75-3.63,5.48-.26,.11-.57-.05-.67-.3"/><path class="cls-8" d="M40.66,23.38c-2.03-.98-1.91-3.99-2.54-5.87-.49-1.56-1.23-3.62-3.27-2.86-.53,.59-1.36-.2-.76-.73,.89-.62,2.23-.58,3.13,0,2.03,1.65,2.02,4.56,2.74,6.86,.22,.62,.47,1.4,1.14,1.66,.61,.29,.17,1.21-.44,.93m-6.08-9.52s-.06-.02-.09-.02h0s-.05,0-.07,0c-.02,0-.05,0-.07,0,.01,0,.02,0,.03,0,.07,0,.13,0,.19,.03"/><path class="cls-8" d="M43.94,34.63c-1.17-3.08-.25-6.74,.03-9.93,.23-2.32,.27-4.65-.1-6.95-.67-3.51-2.62-9.05-6.94-9.06-.47,.03-1.16,.23-1.18-.46,.05-.65,.89-.54,1.37-.57,5.68,.2,7.99,8.26,8.05,12.91,.06,1.91-.09,3.83-.34,5.73-.2,1.98-.96,6.49,.22,8.07,.5-.11,1.21-.79,1.54-.07,.2,.55-.47,.73-.85,.92-.67,.39-1.46,.09-1.79-.59m-7.5-25.9s.1-.04,.13-.07c-.04,.03-.09,.05-.13,.07"/><path class="cls-8" d="M41.25,40.37c-1.05-.48-1.82-1.47-2.42-2.42-.47-.65-2.82-5.64-.76-5.05,.37,.22,.16,.65,.25,.98,.17,.86,.48,1.68,.83,2.48,.84,1.93,2.94,4.52,5.12,2.62,1.06-1.23,1.34-2.92,1.7-4.44,.08-.27,.39-.42,.65-.33,.3,.09,.43,.42,.32,.7-.2,.96-.44,1.95-.79,2.84-.67,2.15-2.67,3.56-4.9,2.61"/><path class="cls-8" d="M45.85,34.51c0-.29,.25-.5,.54-.5s.51,.26,.5,.53c-.01,.29-.25,.5-.54,.5s-.51-.26-.5-.53"/><path class="cls-8" d="M46.01,34.71c-.46-.48,.32-1.19,.76-.7,.47,.49-.33,1.2-.78,.68h.01"/><polygon class="cls-6" points="7.98 65.04 10.4 65.64 12.46 58.13 15.71 46.57 19.17 36.06 17.38 36.38 16.46 37.18 11.98 50.82 9.16 60.55 7.98 65.04"/><path class="cls-8" d="M9.1,58.98c1.83-6.48,3.91-12.89,6.12-19.26,.4-.73,.67-3.24,1.48-3.3,.53,.01,.61,.59,.39,.95-1.38,4.26-2.91,8.47-4.23,12.74-1.67,5.28-3.21,10.59-4.57,15.95-.07,0-.14,0-.21,0-.15,0-.3,0-.46,0-.13,0-.26,0-.4,0,.6-2.37,1.21-4.74,1.89-7.09"/><path class="cls-8" d="M10.31,66.12c-.15,0-.3,0-.45,0,.15-.61,.3-1.22,.46-1.83,1.7-6.47,3.47-12.93,5.46-19.33,.7-1.54,2.46-9.41,3.74-9.45,.51,0,.71,.7,.27,.95-3.45,8.98-5.81,18.34-8.34,27.6-.18,.69-.36,1.39-.53,2.08-.2,0-.41,0-.61-.01"/><path class="cls-8" d="M13.16,66.87c-1.58-.43-3.29-.66-4.81-1.16-.78-1.66,2.13-.42,2.83-.35,.75,.17,1.5,.36,2.25,.53,.65,.16,.37,1.18-.28,.99"/><path class="cls-8" d="M15.47,87.66c-2.46-.2-4.9-.31-7.35-.57-2.1-.26-4.26-.48-3.67-3.17,.35-3.8,1.16-7.53,1.88-11.27,.36-1.86,.68-3.74,.92-5.62,.2-.63-.14-1.85,.73-1.99,.81,.07,.4,.95,.39,1.46-.23,1.94-.55,3.86-.9,5.78-.76,4-1.66,7.98-2,12.04-.46,1.7,1.82,1.53,2.96,1.76,2.4,.24,4.81,.37,7.2,.55,.66,.07,.53,1.12-.14,1.02"/><path class="cls-8" d="M13.7,66.85c-.48-.19-.99-.28-1.46-.49-.59-.34-.04-1.22,.52-.89,.45,.15,.9,.27,1.34,.43,.62,.25,.21,1.21-.4,.95"/><path class="cls-8" d="M16.67,36.81c-.76-.72,.5-1.3,1.13-1.41,.61-.09,2.07-.57,2.09,.41-.06,.54-.63,.44-1.03,.45-.48,.05-.97,.14-1.41,.35-.13,.3-.53,.39-.78,.2"/><path class="cls-8" d="M30.41,27.47c-.7-.16-.96-.95-.78-1.58,.09-.37,.29-.69,.42-1.04,.09-.21,.06-.45,.18-.65,.27-.34,.75-.04,.68,.3,.03,.63-1.01,1.86-.34,2.22,.12,.04,.25,.04,.37,.03,.33-.02,.51,.43,.27,.65-.1,.09-.23,.12-.37,.12-.14,0-.3-.03-.43-.06"/><path class="cls-8" d="M26.24,26.85c-2.16-.06-3.4-1.75-2.5-3.75,1.01-2.23,4.48-2.28,5.18,.16,.29,1.1-.03,2.34-.94,3.06-.45,.37-1.16,.75-1.74,.54m.36-.7c2.34-.46,2.22-4.13-.4-3.97-1.46,.06-2.52,1.9-1.72,3.14,.39,.54,1.11,.71,1.74,.77,.13,0,.27-.02,.38,.06"/><path class="cls-8" d="M25.83,25.4c-.82-.38-1-1.74-.22-2.24,.24-.13,.53-.16,.8-.2,.73,.04,1.31,.77,1.18,1.48-.07,.49-.47,1.05-1.03,1.01-.23,.11-.51,.05-.73-.05"/><path class="cls-8" d="M35.06,26.85c-2.16-.06-3.4-1.75-2.5-3.75,1.01-2.23,4.48-2.28,5.18,.16,.29,1.1-.03,2.34-.94,3.06-.45,.37-1.16,.75-1.74,.54m.36-.7c2.34-.46,2.22-4.13-.4-3.97-1.46,.06-2.52,1.9-1.72,3.14,.39,.54,1.11,.71,1.74,.77,.13,0,.27-.02,.38,.06"/><path class="cls-8" d="M34.64,25.4c-.82-.38-1-1.74-.22-2.24,.24-.13,.53-.16,.8-.2,.73,.04,1.31,.77,1.18,1.48-.07,.49-.47,1.05-1.03,1.01-.23,.11-.51,.05-.73-.05"/><path class="cls-8" d="M31.35,31.32c-.7-.13-1.39-.46-2.09-.58-.22-.05-.51-.02-.61-.27-.24-1.05,1.63-.19,2.1-.09,.82,.38,1.2,.12,1.8-.44,.38-.34,.79-.65,1.13-1.03,.3-.39,.91,.08,.61,.46-.69,.65-1.96,2.11-2.95,1.95"/><path class="cls-8" d="M31.19,32.86c-.59-.03-1.78-.17-1.93-.83,0-.21,.17-.38,.38-.38,.17,0,.28,.13,.43,.2,.31,.16,.66,.22,1,.25,2.25,.19,2.23-1.53,2.9-1.16,.58,.47-.41,1.19-.8,1.44-.59,.36-1.28,.54-1.98,.48"/><path class="cls-6" d="M32.02,19.72c-.11,.42,.76,.7,1.96,.63,1.19-.07,2.26-.46,2.37-.87,.11-.41-.76-.7-1.96-.63-1.2,.07-2.26,.46-2.37,.87"/><path class="cls-11" d="M36.05,19.98c1.29-.71,.57-1.45-.59-1.42-1.1-.02-2.42,.19-3.39,.85-.45,.29-.53,.73-.24,.98,.33,.31,1.01,.26,1.58,.22,.29,.03,.63-.08,.94-.12,.58-.09,1.17-.24,1.7-.51m-.7-.26c-.56,.2-1.14,.26-1.71,.35-.32-.03-.69,.06-.99-.01-.8-.28,.97-.81,1.39-.86,.65-.18,3.01-.14,1.31,.52"/><path class="cls-13" d="M36.05,19.98c1.29-.71,.57-1.45-.59-1.42-1.1-.02-2.42,.19-3.39,.85-.45,.29-.53,.73-.24,.98,.33,.31,1.01,.26,1.58,.22,.29,.03,.63-.08,.94-.12,.58-.09,1.17-.24,1.7-.51Zm-.7-.26c-.56,.2-1.14,.26-1.71,.35-.32-.03-.69,.06-.99-.01-.8-.28,.97-.81,1.39-.86,.65-.18,3.01-.14,1.31,.52Z"/><path class="cls-6" d="M24.61,19.29c-.26,.35,.47,.89,1.62,1.2,1.16,.31,2.3,.28,2.56-.07,.26-.35-.47-.89-1.62-1.2-1.16-.31-2.3-.28-2.56,.07"/><path class="cls-11" d="M28.34,20.8c1.48-.26,1.06-1.18-.04-1.52-1.04-.36-2.36-.58-3.52-.27-.53,.13-.77,.52-.59,.84,.2,.39,.86,.56,1.42,.71,.26,.11,.63,.13,.93,.19,.58,.09,1.2,.14,1.8,.05m-.57-.46c-.6,.01-1.18-.11-1.75-.21-.29-.12-.67-.16-.93-.32-.66-.52,1.21-.45,1.63-.37,.68,.04,2.91,.82,1.05,.9"/><path class="cls-13" d="M28.34,20.8c1.48-.26,1.06-1.18-.04-1.52-1.04-.36-2.36-.58-3.52-.27-.53,.13-.77,.52-.59,.84,.2,.39,.86,.56,1.42,.71,.26,.11,.63,.13,.93,.19,.58,.09,1.2,.14,1.8,.05Zm-.57-.46c-.6,.01-1.18-.11-1.75-.21-.29-.12-.67-.16-.93-.32-.66-.52,1.21-.45,1.63-.37,.68,.04,2.91,.82,1.05,.9Z"/></g><g><path class="cls-1" d="M8.74,13.71s-2.91-4.37-1.74-12.07c.22-1.42,1.32-1.42,2.14-1.29,.74,.12,4.15,.79,8.42,3.24l1.13,10.93-9.94-.82Z"/><path class="cls-1" d="M51.47,13.71s2.91-4.37,1.74-12.07c-.22-1.42-1.32-1.42-2.14-1.29-.74,.12-4.15,.79-8.42,3.24l-6.37,5.34,10.32,6.21,4.88-1.44Z"/><path class="cls-4" d="M15.91,6.82c-2.56-2.4-4.85-3.02-5.21-3.07-.39-.06-.94-.17-.98,.52-.19,3.12,1.51,5.85,1.51,5.85l4.2,2.15,.48-5.44Z"/><path class="cls-4" d="M48.99,10.11s1.7-2.73,1.51-5.85c-.04-.69-.58-.58-.98-.52-.36,.06-2.65,.67-5.21,3.07v5.07l4.69-1.78Z"/><path class="cls-1" d="M53.16,22.22c0,9.23-10.33,15.11-23.08,15.11S7,31.45,7,22.22,17.33,3.91,30.08,3.91s23.08,9.09,23.08,18.32Z"/><ellipse class="cls-2" cx="21.17" cy="13.47" rx="2.03" ry="2.01"/><ellipse class="cls-8" cx="21.17" cy="13.39" rx="1.14" ry="1.13"/><ellipse class="cls-2" cx="38.97" cy="13.47" rx="2.03" ry="2.01"/><ellipse class="cls-8" cx="38.97" cy="13.39" rx="1.14" ry="1.13"/><path class="cls-3" d="M32.4,17.03c.05-1.1-.45-1.92-.45-1.92,.66-.48,1.13-1.2,1.13-1.2-.43-.31-1.97-.41-1.97-.41-.56-1.11-1.03-1.61-1.03-1.61-.65,.62-1.09,1.61-1.09,1.61,0,0-1.55,.1-1.97,.41,0,0,.48,.72,1.13,1.2,0,0-.5,.82-.45,1.92,0,0,1.37-.14,2.3-.88,.81,.59,1.75,.86,2.4,.88Z"/><ellipse class="cls-2" cx="16.63" cy="16.13" rx="2.06" ry=".98"/><ellipse class="cls-2" cx="43.38" cy="16.13" rx="2.06" ry=".98"/><path class="cls-9" d="M25.61,20.33s2.8,.34,4.44-3.22c0,0,1.22,3.72,4.51,3.22v12.44s-.16,4-.16,4l-3.16,.7-5.36-.38-.28-10.86v-5.9Z"/><path class="cls-5" d="M23.21,17.02s.15,3.31,2.83,3.31,3.74-2.26,3.97-4.11"/><path class="cls-5" d="M36.83,17.02s-.15,3.31-2.83,3.31-3.74-2.26-3.97-4.11"/><path class="cls-5" d="M25.61,20.33s-.04,13.09,.17,16.68"/><path class="cls-5" d="M34.56,20.33s.04,13.09-.17,16.68"/><path class="cls-5" d="M34.29,37.08s-4.37,.98-8.41,.01"/><path class="cls-2" d="M43.62,7.51c.7,.89,.26,1.58-.15,1.85-3.46,2.36-10.55-.41-12.38-3.87-.13-.24-.2-1.08,.64-1.4l6.66,3.07,5.23,.34"/><path class="cls-2" d="M16.55,7.51l3.66-1.57,8.22-1.84c.85,.32,.77,1.16,.64,1.4-1.88,3.56-8.87,6.26-12.38,3.87-.41-.28-.85-.97-.15-1.85"/><path class="cls-3" d="M29.14,4.79s.97-.38,1.99,0l1.07,.07-.55-.94c-1.6-.38-3.12,0-3.12,0l-.86,.9,1.47-.03Z"/><path class="cls-4" d="M27.67,2.78s.49,.76,.88,1.54c.11,.22,.11,.49-.01,.71-1.49,2.82-8.48,5.65-11.47,3.61-.37-.25-.57-.69-.52-1.14,.26-2.09,1-3.86,1-3.86l5.03-.87h5.09Z"/><path class="cls-4" d="M42.62,3.65s.74,1.77,1,3.86c.06,.44-.15,.88-.52,1.14-2.99,2.04-9.99-.79-11.47-3.61-.12-.22-.12-.49-.01-.71,.39-.78,.88-1.54,.88-1.54h4.09s6.03,.87,6.03,.87Z"/><ellipse class="cls-2" cx="22.6" cy="3.34" rx="5.07" ry="1.95" transform="translate(-.21 2.1) rotate(-5.29)"/><ellipse class="cls-2" cx="37.56" cy="3.34" rx="1.95" ry="5.07" transform="translate(30.78 40.43) rotate(-84.71)"/><path class="cls-3" d="M44.01,8.62s3.93,1.27,7.4,6.98c0,0,.39-.9-.38-2.37-2.02-3.89-5.67-5.98-7.54-6.56l.52,1.96Z"/><path class="cls-3" d="M16.13,8.62s-3.93,1.27-7.4,6.98c0,0-.39-.9,.38-2.37,2.02-3.89,5.67-5.98,7.54-6.56l-.52,1.96Z"/><ellipse class="cls-4" cx="22.62" cy="3.31" rx="3.9" ry="1.21" transform="translate(-.21 2.1) rotate(-5.3)"/><ellipse class="cls-4" cx="37.55" cy="3.31" rx="1.21" ry="3.9" transform="translate(30.79 40.39) rotate(-84.7)"/></g><g><polygon class="cls-6" points="10.62 55.47 11.24 51.42 11.73 48.31 13.42 46.46 14.56 44.76 14.77 42.38 15.37 40.55 15.11 39.7 14.03 38.76 11.78 39.86 10.51 36.53 9.98 35.5 8.78 35.13 7.75 35.75 7.27 38.27 5.97 37.22 4.15 37.67 4.15 39.21 3 39.7 2.61 40.55 2.61 41.95 1.19 42.93 .84 45.35 1.19 45.98 2.85 45.24 3.41 45.07 4.67 47.79 6.7 48.87 1.97 58.75 2.72 62.63 5.45 64.29 8.06 62.63 10.62 55.47"/><polygon class="cls-6" points="51.65 48.72 50.96 46.53 49.98 37.74 49.86 33.44 47.34 33.44 45.94 33.22 45.05 31.81 45.32 30.36 47.18 29.14 48.61 27.52 50.03 23.54 50.53 21.56 52.64 20.95 53.58 22.08 54.04 24.23 55.52 22.08 57.27 22.86 57.16 26.18 58.84 25.09 60.07 26.59 59.68 27.6 59.33 28.65 61.23 29.98 61.17 32.01 60.77 33.15 59.51 32.87 59.13 31.6 56.79 33.29 55.12 33.83 57.07 38.64 58.74 44.41 59.58 47.73 58.51 50.49 55.72 51.08 53.14 50.38 51.65 48.72"/><polygon class="cls-7" points="52.95 37.77 50.36 37.67 50.37 39.94 53.37 39.94 52.95 37.77"/><polygon class="cls-14" points="52.95 37.77 50.36 37.67 50.37 39.94 53.37 39.94 52.95 37.77"/><path class="cls-8" d="M51.69,49.17c-.51-.63,.29-1.27,.72-.79-.11,.26-.08,.55-.05,.82,.02,.16,.05,.31,.08,.47,.01,.07,.03,.14,.04,.21-.29-.2-.56-.44-.79-.7"/><path class="cls-8" d="M53.92,40.4c-1.36-.25-2.06-1.84-1.62-3.07,.46-1.06,1.62-1.91,2.82-1.68,2.43,.52,2.53,4.14,.07,4.7-.15,.13-.34,.18-.53,.18-.25,0-.52-.07-.74-.12m.58-.96c.06,.01,.13,.02,.19,.02h.01c.13,0,.27-.04,.37-.13,0,0,.02-.02,.02-.02,.12-.04,.23-.11,.33-.16,.92-.67,.59-2.28-.55-2.5-.74-.09-1.44,.52-1.65,1.2-.13,.79,.33,1.56,1.18,1.62,0,0,.02-.02,.03-.02,.02,0,.04,0,.06,.01"/><path class="cls-8" d="M51.32,40.43c-1.38-.16-1.55-.3-1.69-1.65-.12-.58-.43-1.82,.56-1.68,.63,.18,1.31,.27,1.96,.19,.69-.39,1.15,.68,.42,.95-.64,.2-1.33,.08-1.98,0,.07,.35,.12,.69,.17,1.04,.57,.15,1.18,.16,1.77,.15,.44,0,.95-.24,1.35,0,.36,.25,.2,.88-.25,.92-.77,.08-1.54,.17-2.31,.06"/><path class="cls-8" d="M56.32,38.98c-.18-.23-.12-.54,.09-.72,.05-.04,.09-.07,.14-.11-.16-.49-.38-.94-.56-1.42-.35,.15-.83-.1-.8-.48,0-.4,.34-.5,.67-.55,.27-.15,.64-.16,.83,.12,.24,.41,.37,.86,.57,1.29,.16,.49,.58,1.1,.21,1.59-.29,.31-.79,.73-1.16,.28"/><path class="cls-8" d="M53.91,38.33c-.12-.35,.14-.49,.43-.59,.25-.18,.63-.02,.63,.3,0,.16-.11,.3-.25,.36-.26,.14-.66,.28-.81-.07"/><path class="cls-8" d="M54.22,39.7c-.22-.06-.34-.31-.25-.52,.05-.29,.15-.57,.25-.84,.04-.09,.05-.18,.07-.27,.07-.3,.49-.39,.68-.14,.24,.36-.2,.94-.24,1.34-.02,.26-.23,.52-.51,.44m.4-1.17c-.09,0-.17-.05-.19-.07,.06,.04,.12,.07,.19,.07"/><path class="cls-8" d="M53.66,38.53c-.13-.1-.19-.29-.12-.45,.06-.13,.16-.2,.28-.22,.15-.06,.31-.13,.47-.17,.49-.12,.68,.59,.2,.73-.27,.06-.57,.31-.84,.11"/><path class="cls-8" d="M51.64,49.19c-.2-.14-.42-.33-.35-.61,.26-.67,.7-.45,1.09-.11-.07,.23-.05,.49-.01,.73,.02,.16,.05,.31,.08,.47,.02,.12,.04,.23,.07,.35-.32-.25-.61-.53-.88-.83m.62-.28s.04-.09,.05-.14c-.01,.05-.03,.09-.05,.14"/><path class="cls-8" d="M59.32,47.91c-.01-.17-.02-.35-.03-.52,0-.03,0-.07,0-.1,0-.06,0-.12,0-.18h0c.13-.19,.25-.38,.35-.58,.29-.6,1.22-.17,.94,.44-.3,.52-.72,1.12-1.21,1.7-.01-.25-.02-.51-.03-.76"/><path class="cls-8" d="M2.66,63.48c-.38-.39-.58-.91-.77-1.41-.13-.36-.34-.71-.37-1.1,.02-.65,1-.65,1.04,0,.18,.33,.44,1.27,.8,1.73,.66,.74,1.79,1,2.74,.73,1.11-.42,1.66-1.6,2.35-2.49,.43-.62,.86-1.25,1.23-1.9,.14-.24,.49-.3,.72-.16,.24,.15,.31,.48,.16,.71-.37,.64-.79,1.26-1.22,1.87-.74,1.01-1.4,2.2-2.55,2.79-.46,.21-.96,.31-1.46,.31-.99,0-1.98-.38-2.66-1.09"/><path class="cls-8" d="M5.26,66.7c-1.86-.35-4.57-1.55-4.21-3.81,.05-.57,.14-1.13,.28-1.68,.05-.36,.25-.79,.68-.71,.37,.07,.53,.45,.37,.74-.15,.55-.23,1.05-.29,1.6-.26,1.05,.55,1.71,1.39,2.17,1.03,.5,2.47,1.14,3.45,.24,.89-.74,1.7-1.56,2.47-2.41,.44-.51,1.23,.14,.79,.66-.34,.38-.7,.75-1.06,1.12-.96,.92-1.98,2.13-3.38,2.13-.16,0-.33-.02-.5-.05m-3.82-5.52s.02,.03,.02,.04c-.02-.04-.04-.09-.04-.13,0,0,0,.02,0,.03h0s.01,.04,.02,.06"/><path class="cls-8" d="M9.79,63.34c-.55-.27-.12-.86-.12-1.3,.07-.68,.1-1.37,.1-2.06,.01-.29-.03-.58,.03-.87,.18-.57,1.04-.42,1.02,.17-.02,.98-.01,1.97-.13,2.95-.04,.43-.17,1.16-.66,1.16-.07,0-.15-.02-.24-.05m.53-3.57s.09,0,.12-.02c-.04,.01-.08,.02-.12,.02"/><path class="cls-8" d="M48.3,34.45c-.2-.15-.44-.2-.67-.27-.27-.1-.52-.27-.81-.32-.53-.11-1.13,.06-1.6-.29-.41-.28-.66-.76-.62-1.26,.06-.71-.04-1.51,.37-2.12,1.26-1.45,3.07-1.36,3.7-3.54,.32-.84,.6-1.7,.94-2.54,.23-.74,.31-1.54,.67-2.23,.26-.61,1.92-1.33,2.03-.31-.03,.78-1.12,.3-1.23,1.07-.17,.46-.27,.94-.37,1.42-.23,.78-.56,1.53-.82,2.3-.51,1.7-1.34,2.86-2.99,3.63-.42,.25-.93,.5-1.15,.95-.02,.5-.26,1.29,0,1.72,.17,.15,.4,.15,.63,.14,.15,0,.3-.01,.44,.03,.48,.04,.83,.25,1.21,.41,.23,.08,.48,.13,.69,.27,.43-.29,.55-.85,.42-1.33-.37-.29-.76-.59-1.22-.7-.83-.17-.58-1.78,1.27-.54,.82,.49,1.14,.97,1.01,1.94-.04,.67-.73,1.71-1.48,1.71-.14,0-.27-.03-.41-.11"/><path class="cls-8" d="M52.28,25.8c-.68-.19-1.74-1.93-.58-2.09,.65,0,.44,.88,.93,1.11,.84-.07,.88-.53,.75-1.24-.11-.56,.01-1.86-.86-1.69-.34,.08-.67,.22-1.02,.27-.6,0-.71-.87-.12-1.01,1.37-.51,2.56-.46,2.88,1.19,.11,.44,.13,.9,.18,1.34,.05,.37,.11,.75-.07,1.09-.25,.65-.99,1.05-1.69,1.05-.13,0-.26-.01-.39-.04"/><path class="cls-8" d="M55.84,27.42c-.98-.23-1.71-1.33-1.34-2.3,.15-.41,.8-.41,.96,0,.11,.25-.07,.51,.01,.77,.15,.42,.7,.7,1.09,.39,.06-.93,.22-1.86,.23-2.79-.38-.3-.87-.55-1.32-.67-.21,.45-.52,.85-.72,1.31-.27,.37-.32,1.05-.87,1.09-.28,0-.52-.23-.52-.51,0-.22,.15-.39,.23-.59,.29-.6,.63-1.17,.95-1.75,.42-.81,1.29-.63,1.94-.24,.42,.15,.76,.41,1.11,.68,.5,.64,.12,1.63,.09,2.37-.02,1.36-.12,2.27-1.64,2.27-.07,0-.14,0-.21,0"/><path class="cls-8" d="M58.59,29.46c-.14,0-.28-.03-.45-.1-.56-.23-1.05-.7-1.05-1.33-.07-.46-.09-.98,.24-1.35-.5,.43-1.17-.3-.7-.76,.59-.34,2.16-1.86,2.77-1.24,.55,.86,1.89,1.73,1.33,2.88-.33,.44-.79,.77-1.11,1.22-.3,.38-.6,.69-1.02,.69h0Zm-.44-2.16c-.15,.23-.02,.55,0,.8,.07,.15,.26,.24,.4,.31,.41-.47,.81-.94,1.27-1.37,.04-.17-.09-.29-.19-.42-.22-.36-.52-.66-.8-.97-.4,.25-.8,.48-1.16,.78,.04,0,.08-.01,.12-.01,.42,0,.69,.55,.36,.88"/><path class="cls-8" d="M54.61,34.68c-.61,0-1.12-.34-1.7-.42-.4-.03-.94,0-.95-.54,.07-.8,1.1-.46,1.6-.39,.43,.18,.85,.34,1.33,.35,.2,.04,.36-.07,.54-.16,.44-.19,.9-.36,1.31-.61,.27-.23,.57-.42,.84-.65,.17-.22,.38-.41,.55-.63,.09-.15,.16-.32,.3-.43,.37-.22,.93-.58,1.27-.13,.15,.21,.12,.47,.17,.71,.13,.39,.22,.83,.6,1.03,.21-.84,.41-1.77,.29-2.64-.26-.28-.64-.41-.89-.71-.36-.17-.89-.34-.99-.78-.04-.59,.6-.74,.99-.38,.19,.15,.42,.19,.62,.32,.26,.27,.59,.44,.87,.69,.46,.32,.48,.9,.48,1.41,.02,.55-.12,1.09-.21,1.64-.08,.41-.08,.88-.42,1.17-.93,.93-2.06-.32-2.27-1.27-.69,.86-1.57,1.58-2.61,1.99-.46,.19-.9,.46-1.4,.46-.1,0-.21-.01-.31-.04"/><path class="cls-8" d="M51.78,49.8c-.73-2.09-.93-4.32-1.43-6.46-.14-1.56-.54-3.08-.64-4.65-.15-1.97-.37-3.95-.46-5.91,.29-.73,1.2-.34,1.02,.39,.26,1.81,.27,3.64,.48,5.46,.14,1.65,.51,3.28,.69,4.92,.42,1.58,.57,3.24,.99,4.81-.12,.26-.09,.55-.05,.83,.02,.16,.05,.31,.08,.47,.03,.14,.06,.29,.09,.43-.08,.05-.18,.08-.27,.08-.18,0-.37-.11-.48-.38"/><path class="cls-8" d="M59.32,47.91c-.01-.17-.02-.35-.03-.52,0-.03,0-.07,0-.1,0-.06,0-.12,0-.18,0-.11,0-.22-.03-.33,0-.02,0-.04-.01-.07-.11-2.21-1.31-4.3-2.09-6.35-.51-1.5-1.3-2.88-1.83-4.38-.18-.65-.85-1.34-.48-2.02,.31-.53,1.17-.13,.93,.45,1.11,2.65,2.27,5.27,3.33,7.94,.74,1.78,1.29,3.41,1.17,5.2-.28,.3-.55,.61-.82,.91-.03,.04-.07,.07-.1,.11,0-.23-.01-.45-.03-.68"/><path class="cls-8" d="M11.03,39.63c-.33-.73-.65-1.46-1-2.18-.1,.49-.21,1.02-.53,1.41-.58,.63-1.68,.7-2.28,.07-.46-.58-.25-1.35-.24-2.02,.1-.51-.18-1.12,.21-1.55,1.34-1.12,2.89-.94,3.42,.84,.35,.87,.84,1.68,1.17,2.56,.19,.34,.43,.85-.04,1.09-.07,.04-.15,.05-.23,.05-.19,0-.38-.1-.47-.28m-3.01-3.61c.11,.74-.15,1.5,0,2.23,.11,.08,.24,.12,.37,.08,.55-.08,.55-.8,.65-1.23-.08-.35,.16-.73,.54-.7-.14-.51-.4-.71-.72-.71-.25,0-.53,.12-.83,.32"/><path class="cls-8" d="M4.86,41.37c-.92-.19-.88-1.3-.98-2.03-.06-.4-.22-.78-.23-1.18-.07-.6,.5-.92,1.01-1.05,.47-.18,1.04-.34,1.51-.08,.33,.2,.64,.45,.99,.62,.28-.01,.52,.2,.54,.48,.03,.46-.5,.66-.88,.49-1.04-.45-.93-.99-2.13-.43,.22,.71,.21,1.47,.41,2.18,.74,.06,1.02-.27,.95-.98-.04-.67,.98-.74,1.03-.07,.13,1.28-.64,2.08-1.82,2.08-.13,0-.27,0-.41-.03"/><path class="cls-8" d="M6.25,41.55c-.15-.42-.54-.88-.27-1.32,.15-.23,.49-.29,.72-.14,.15,.1,.23,.27,.23,.43,.1,.23,.21,.45,.31,.69,.13,.4-.19,.67-.51,.67-.19,0-.38-.1-.47-.34m.61-.79s.04-.09,.05-.13c0-.02,0-.04,0-.06h0c0,.06-.02,.13-.06,.2"/><path class="cls-8" d="M8.56,40.43c-.28-.39-.74-.67-.89-1.14-.23-.76,.89-1.06,1.01-.26,.31,.4,1.14,.92,.61,1.45-.1,.08-.22,.13-.35,.13-.14,0-.29-.06-.39-.17"/><path class="cls-8" d="M2.59,43.39s.02,0,.03,0c0,0-.02,0-.03,0t0,0"/><path class="cls-8" d="M2.67,43.37c-.06,0-.12-.01-.17-.02-.21-.09-.33-.25-.4-.47,0-.06,0-.13,0-.19,0-.15-.01-.31-.02-.46,0-.02,0-.04,0-.06,0-.51-.05-.99-.08-1.5-.21-1.04,.85-1.46,1.67-1.71,.52-.59,1.29,.29,.73,.78-.41,.28-.96,.3-1.36,.6-.01,.7,.11,1.37,.07,2.06,.39,.05,.61-.24,.76-.55,.22-.26,.26-.57,.2-.89-.04-.67,.98-.74,1.04-.07,.13,.79-.31,1.8-1.02,2.27-.15-.01-.29,0-.43,.05,0,0-.01,0-.02,0-.09,.01-.18,.02-.27,.04-.1,.02-.2,.05-.3,.07-.01,0-.02,0-.04,0-.02,0-.04,0-.06,0-.03,0-.07,0-.1,0-.06,0-.12,0-.17,.01,0,0-.02,0-.02,0"/><path class="cls-8" d="M4.74,43.72c-.06-.17-.18-.33-.33-.43-.09-.2-.25-.36-.35-.56-.45-.8,.82-1.34,.96-.4,.73,.86,.37,1.45-.06,1.45-.07,0-.15-.02-.22-.05"/><path class="cls-8" d="M3.84,43.19c-.06,0-.13,.03-.19,.05,0,0-.02,0-.02,0h0c-.09,.01-.18,.02-.27,.04-.1,.02-.19,.05-.29,.07,.14-.27,.53-.33,.77-.17"/><path class="cls-8" d="M2.1,42.98c0-.09,0-.19,0-.28-.01-.35-.04-.71-.06-1.06,.35-.12,.68-.07,.77,.42,.04,.44-.42,.52-.71,.72,0,.07,0,.14,.01,.21,0,0,0,0,0,0"/><path class="cls-8" d="M6.81,49.25s-.03-.01-.05-.02h0s-.01-.02-.01-.02h-.02s-.01-.03-.01-.03h-.01s-.01-.03-.01-.03h-.01s-.01-.03-.01-.03h-.01s-.01-.03-.01-.03h-.01s-.01-.02-.01-.02h-.01s-.01-.02-.01-.02h-.01s-.01-.02-.01-.02h-.01s-.01-.02-.01-.02h-.01s-.01-.02-.01-.02h-.01s-.01-.02-.01-.02h-.01s-.01-.02-.01-.02h0s-.01-.01-.01-.01h-.01s0-.01,0-.01h0s0-.01,0-.01h0s0-.01,0-.01h0s0,0,0,0h0s0,0,0,0h-.01s0,0,0,0h0s0,0,0,0h0s0,0,0,0h0s-.01,0-.01,0h0s-.01,0-.01,0h-.01s-.01,0-.01,0h-.01s-.01,0-.01,0h-.01s-.01,0-.01,0h-.01s-.01,0-.01,0h-.01s-.01,0-.01,0h-.01s-.01,0-.01,0h-.01s-.01,0-.01,0h-.01s-.01,0-.01,0h-.01s-.01,0-.01,0h-.01s-.01,0-.01,0h-.04s-.01,0-.01,0h-.05s-.01,0-.01,0h-.02s-.01,0-.01,0h-.02s-.01,0-.01,0h-.01s-.01,0-.01,0h-.01s-.01,0-.01,0h-.01c-.79-.41-1.42-.99-1.71-1.96-.24-.44-.4-.91-.54-1.38,.05-.04,.09-.09,.12-.15,.02-.03,.03-.06,.05-.08t0,0s0,0,.01,0c.03,0,.06-.01,.08-.02,.06,0,.13-.02,.19-.02,.1,0,.21,0,.31,0h0c.08,.08,.17,.15,.27,.19,.14,.43,.32,.85,.52,1.26,.16,.48,.47,.89,.92,1.15,.36,.18,.74,.31,1.1,.48,.57,.19,.36,1-.16,1-.06,0-.12,0-.18-.03"/><path class="cls-8" d="M3.52,43.26s-.05,0-.08,.01c.03,0,.05,0,.08-.01"/><path class="cls-8" d="M11.96,41.88c-1.07-.15-1.64-1.37-.88-2.2,.5-.52,1.21-.79,1.75-1.26,.18-.63,1.18-.36,1.03,.28-.34,.85-1.42,1.05-2.02,1.68-.3,.42,.45,.59,.75,.5,.38-.17,.9-.5,1.16,.01,.27,.69-.73,1.03-1.41,1.03-.15,0-.28-.02-.39-.05"/><path class="cls-8" d="M12.04,48.2c-.71-.66,.52-1.37,.92-1.84,.26-.4,.43-.86,.64-1.29,.57-1.1,.52-2.36,.96-3.49,.11-.56,.43-1.09,.25-1.66-.25-.37-.58-.82-1.02-.94-.53,.83-1.64-.07-.81-.64,1.12-1.28,3.14,.87,2.92,2.13-.14,.91-.51,1.76-.7,2.64-.09,.92-.35,1.79-.77,2.62-.28,.57-.49,1.21-1.02,1.63-.4,.22-.64,.93-1.09,.93-.09,0-.18-.03-.29-.09"/><path class="cls-8" d="M6.62,49.08h-.01s-.01-.02-.01-.02h-.01s-.01-.02-.01-.02h-.01s-.01-.02-.01-.02h-.01s-.01-.02-.01-.02h-.01s-.01-.02-.01-.02h-.01s-.01-.02-.01-.02h-.01s0-.01,0-.01h0s-.01-.01-.01-.01h0s-.01-.01-.01-.01h0s0-.01,0-.01h0s0,0,0,0h0s0,0,0,0h0s0,0,0,0h0s0,0,0,0h0s0,0,0,0h0s0,0,0,0h-.01s-.01,0-.01,0h-.01s-.01,0-.01,0h-.01s-.01,0-.01,0h-.01s-.01,0-.01,0h-.01s-.01,0-.01,0h-.01s-.01,0-.01,0h-.01s-.01,0-.01,0h-.01s-.01,0-.01,0h-.01s-.01,0-.01,0h-.02s-.01,0-.01,0h-.02s-.01,0-.01,0h-.01s-.01,0-.01,0h-.07s-.01,0-.01,0h-.01s-.01,0-.01,0h-.01s-.01,0-.01,0h-.01s-.01,0-.01,0h-.01s-.01,0-.01,0h-.01s-.01,0-.01,0h-.01s-.01,0-.01,0h-.01s-.01,0-.01,0h-.01s-.01,0-.01,0h-.01s-.01,0-.01,0h-.01s-.01,0-.01,0h-.02s-.01,0-.01,0h-.02s-.02,0-.02,0h-.02s-.02,0-.02,0h-.02s-.02,0-.02,0h-.02s-.02,0-.02,0h-.02s-.02,0-.02,0h0c.17-.25,.35-.49,.53-.74,.22-.18,.54-.17,.73,.05,.22,.26,.1,.58-.11,.89h0Z"/><path class="cls-8" d="M11.21,48.24c.11-.43,.5-.71,.77-1.05,.23-.33,.68-.63,1.02-.26,.45,.59-.43,1.03-.71,1.46,0,.02,0,.04-.01,.05h0s0-.02,0-.02h0s0-.03,0-.03h0s0-.02,0-.02h0s0-.02,0-.02h0s0-.01,0-.01h0s0,0,0,0h0s0,0,0,0h-.01s0,0,0,0h-.01s-.01,0-.01,0h-.01s-.01,0-.01,0h-.01s-.01,0-.01,0h-.05s-.01,0-.01,0h-.01s-.01,0-.01,0h-.01s-.01,0-.01,0h-.01s-.01,0-.01,0h-.01s-.01,0-.01,0h-.01s-.01,0-.01,0h-.01s-.01,0-.01,0h-.01s-.01,0-.01,0h-.01s-.01,0-.01,0h-.01s-.01,0-.01,0h-.01s-.01,0-.01,0h-.01s-.01,0-.01,0h-.01s-.01,0-.01,0h-.01s-.01,0-.01,0h-.01s-.01,0-.01,0h-.01s-.01,0-.01,0h-.01s-.01,0-.01,0h-.01s-.01,0-.01,0h-.01s-.01,0-.01,0h-.01s-.01,0-.01,0h-.01s-.01,0-.01,0h-.01s-.01,0-.01,0h-.01s-.01,0-.01,0h-.01s-.01,0-.01,0h-.01s-.01,0-.01,0h-.01s-.01,0-.01,0h-.01s-.01,0-.01,0h-.01s-.01,0-.01,0h-.01s-.01,0-.01,0h-.01s-.01,0-.01,0h-.01s-.01,0-.01,0h-.01s-.01,0-.01,0h-.01s-.01,0-.01,0h-.01s-.01,0-.01,0h-.01s-.01,0-.01,0h0c.02-.1,.03-.21,.05-.32"/><path class="cls-8" d="M1.05,46.2c-1.53-.34-1.11-1.43-.48-2.42,.32-.42,.06-1.22,.75-1.25,1.23,.24-.02,1.96-.29,2.59,.41,.23,.85-.2,1.13-.48,.16-.24,.23-.57,.55-.65,.46-.11,.82,.31,1.16,.54,.21,.12,.41,.28,.56,.46,.6,.75-.49,1.51-.85,.6-.17-.16-.37-.25-.54-.41-.4,.52-1.06,1.02-1.75,1.02-.08,0-.15,0-.23-.02"/><path class="cls-8" d="M1.39,43.5c-.59-.09-.55-.72-.21-1.06,.21-.23,.53-.19,.8-.26,.12-.05,.24-.07,.37-.04,.43,.1,.52,.74,.12,.94-.17,.09-.36,.13-.56,.15-.09,.17-.28,.27-.47,.27-.02,0-.04,0-.06,0"/><path class="cls-8" d="M6.27,48.63h.01s.01,0,.01,0h.01s.01,0,.01,0h.01s.01,0,.01,0h.01s.01,0,.01,0h.01s.01,0,.01,0h.01s.01,0,.01,0h.01s.01,0,.01,0h.01s.01,0,.01,0h.01s.01,0,.01,0h.01s.01,0,.01,0h.02s.01,0,.01,0h.11s.01,0,.01,0h.02s.01,0,.01,0h.01s.01,0,.01,0h.01s.01,0,.01,0h.01s.01,0,.01,0h.01s0,0,0,0h.01s0,0,0,0h0s.01,0,.01,0h0s0,0,0,0h.01s0,0,0,0h0s0,0,0,0h0s.01,0,.01,0h0s.01,0,.01,0h.01s.01,0,.01,0h.01s.01,.01,.01,.01h.01s.01,.01,.01,.01h.01s.01,.02,.01,.02h.01s.01,.02,.01,.02h.01s.01,.02,.01,.02h.01s.02,.02,.02,.02h.01s.01,.02,.01,.02h.02s.01,.02,.01,.02h.02s.02,.02,.02,.02h.02s.02,.02,.02,.02h.02s.02,.02,.02,.02h.02s.02,.03,.02,.03h.02s0,.02,0,.02c-.35-.08-.69-.18-1.01-.3"/><path class="cls-8" d="M3.01,57.81l-.06-.08-.06-.08-.06-.08-.06-.08-.06-.08-.06-.08-.07-.08-.07-.08-.07-.08-.08-.08-.08-.08-.05-.04c.21-.57,.46-1.13,.68-1.7,.93-2.2,1.92-4.38,3.05-6.48h.02s.02-.01,.02-.01h.02s.02-.01,.02-.01h.02s.02-.01,.02-.01h.02s.02-.01,.02-.01h.02s.02,0,.02,0h.01s.01-.01,.01-.01h.01s.01,0,.01,0h.01s.01,0,.01,0h.01s.01,0,.01,0h.01s.01,0,.01,0h.01s.01,0,.01,0h.01s.01,0,.01,0h.01s.01,0,.01,0h.01s.01,0,.01,0h.01s.01,0,.01,0h.01s.01,0,.01,0h.01s.01,0,.01,0h.01s.01,0,.01,0h.01s.01,0,.01,0h.01s.01,0,.01,0h.01s.01,0,.01,0h.01s.01,0,.01,0h.01s.01,0,.01,0h.01s.01,0,.01,0h.04s.01,0,.01,0h.01s.01,0,.01,0h.01s.01,0,.01,0h.01s.01,0,.01,0h.01s.01,0,.01,0h.01s.01,0,.01,0h.01s.01,0,.01,0h.01s.01,0,.01,0h.01s0,0,0,0h0s0,0,0,0h.01s0,0,0,0h.01s0,0,0,0h0s0,0,0,0h0s.01,0,.01,0h0s.01,0,.01,0h.01s.01,.01,.01,.01h.01s.01,.01,.01,.01h.01s.01,.01,.01,.01h.01s.01,.02,.01,.02h.01s.01,.02,.01,.02h.01s.01,.02,.01,.02h.01s.02,.02,.02,.02h.01s.01,.02,.01,.02h.02s0,.01,0,.01c-.17,.33-.42,.67-.51,.91-.73,1.33-1.34,2.72-1.98,4.09-.53,1.34-1.21,2.64-1.61,4.03h-.01Z"/><path class="cls-8" d="M9.5,60.51c-.04-.22-.09-.44-.17-.64,.18-.9,.35-1.8,.57-2.7,.27-1.91,.47-3.83,.95-5.7,.28-1.23,.66-2.46,.72-3.73h0s.01,0,.01,0h.01s.01,0,.01,0h.01s.01-.01,.01-.01h.01s.01,0,.01,0h.01s.01-.01,.01-.01h.01s.01,0,.01,0h.01s.01,0,.01,0h.01s.01-.01,.01-.01h.01s.01,0,.01,0h.01s.01,0,.01,0h.01s.01-.01,.01-.01h.01s.01,0,.01,0h.01s.01-.01,.01-.01h.01s.01-.01,.01-.01h.01s.01-.01,.01-.01h.01s.01-.01,.01-.01h.01s.01-.01,.01-.01h.01s.01,0,.01,0h.01s.01-.01,.01-.01h.01s.01-.01,.01-.01h.01s.01,0,.01,0h.01s.01-.01,.01-.01h.01s.01,0,.01,0h.01s.01,0,.01,0h.01s.01,0,.01,0h.01s.01,0,.01,0h.01s.01,0,.01,0h.01s.01,0,.01,0h.01s.01,0,.01,0h.01s.01,0,.01,0h.01s.01,0,.01,0h.01s.01,0,.01,0h.01s.01,0,.01,0h.01s.01,0,.01,0h.01s.01,0,.01,0h.01s.01,0,.01,0h.01s.01,0,.01,0h.01s.01,0,.01,0h.05s.01,0,.01,0h0s.01,0,.01,0h0s0,0,0,0h0s0,.01,0,.01h.01s0,.01,0,.01h0s0,.02,0,.02h.01s0,.02,0,.02h.01s0,.02,0,.02c-.15,1.81-.66,3.61-1.05,5.39-.44,2.11-.55,4.24-1.09,6.34-.06,.19-.13,.56-.21,1.02-.04,.05-.09,.1-.14,.14-.02,.02-.04,.04-.07,.05-.03,.02-.06,.03-.09,.05-.02,.01-.05,.02-.07,.03-.01,0-.03,0-.04,.01,0,0-.01,0-.02,0h-.02c-.12,0-.25-.02-.37-.04"/><path class="cls-8" d="M9.5,60.51c-.02-.13-.05-.25-.08-.37,.05-.03,.1-.05,.17-.06,.33-.04,.5,.11,.57,.33-.02,.02-.04,.03-.06,.05-.03,.02-.06,.03-.09,.05-.02,.01-.05,.02-.07,.03-.01,0-.03,0-.04,.01,0,0-.01,0-.02,0,0,0-.01,0-.02,0-.12,0-.25-.02-.37-.04"/><path class="cls-8" d="M10.85,56.76c-.37-.35-1-1.06-.3-1.41,.31-.14,.51,.04,.68,.26,0,.03-.01,.06-.02,.09-.02,.11-.03,.22-.04,.34,0,.03,0,.07-.01,.1-.04,.06-.1,.1-.17,.14,.06-.03,.12-.08,.17-.14-.01,.13-.03,.25-.02,.38,0,.01,0,.03,0,.04-.02,.07-.03,.13-.04,.2-.01,.09-.02,.18,0,.26-.08-.09-.17-.17-.25-.26"/><path class="cls-8" d="M1.95,57.99c.08-.48,.22-.95,.38-1.41l.05,.04,.08,.08,.08,.08,.07,.08,.07,.08,.07,.08,.06,.08,.06,.08,.06,.08,.06,.08,.06,.08,.06,.08h.01c-.08,.3-.15,.58-.21,.87-.47,1.38-.4,2.83,.38,4.07-.14-.02-.27-.03-.41-.02-.18,.01-.37,.06-.54,.14-.04,.02-.09,.04-.13,.07-.78-1.45-.8-3.05-.28-4.63"/><path class="cls-8" d="M55.89,51.91c-.68-.04-1.34-.27-1.93-.6-.99-.58-1.78-1.48-2.38-2.42-.22-.38,.16-.86,.58-.75,.32,.05,.38,.42,.57,.62,.39,.52,.74,.9,1.21,1.3,2.58,2.15,5.16-.34,5.49-3.06,.07-.66,1.09-.57,1.03,.09-.28,2.31-2,4.86-4.57,4.82"/></g></svg>