<?xml version="1.0" encoding="UTF-8"?><svg id="_レイヤー_1" xmlns="http://www.w3.org/2000/svg" viewBox="0 0 62 126.3"><defs><style>.cls-1{fill:#88c0dd;}.cls-1,.cls-2,.cls-3,.cls-4,.cls-5{stroke:#040000;stroke-linecap:round;stroke-linejoin:round;stroke-width:.6px;}.cls-2,.cls-6{fill:#fff;}.cls-3,.cls-7{fill:#e9da21;}.cls-4{fill:#025999;}.cls-8{fill:#040000;}.cls-9{fill:#c68f00;}.cls-10{fill:#070002;}.cls-11{fill:#1961ad;}.cls-5,.cls-12{fill:none;}.cls-12{stroke:#070002;stroke-miterlimit:10;stroke-width:.19px;}</style></defs><g><path class="cls-9" d="M44.34,120.41c-.43-1.05-1.65-1.92-3.14-2.46-.6-.25-2.54-.99-2.5-1.42-.14-.76-.83-1.24-1.68-1.46-1.57-.74-3.86-.81-5.52-.04-.03,.06-.07,.12-.1,.18-.09,.2-.17,.41-.25,.62-.09,.25-.18,.5-.34,.73-.12,.17-.29,.33-.44,.49-.09,.09-.18,.18-.29,.26-.27,.2-.6,.31-.96,.34-.07,0-.14,0-.21,0-.09,0-.18,0-.27,0-.08,0-.15,0-.23-.01-.03,0-.06,0-.09,0-.03,0-.06,0-.09,0,0,0,0,0-.01,0-.03,0-.05,0-.08-.01-.03,0-.05,0-.08-.01-.03,0-.07-.01-.1-.02-.02,0-.03,0-.05-.01-.01,0-.02,0-.03,0-.05-.01-.1-.03-.14-.05,0,0,0,0,0,0,0,0,0,0-.01,0-.04-.02-.08-.03-.12-.05-.01,0-.03-.01-.04-.02-.03-.02-.07-.04-.1-.05-.01,0-.02-.01-.03-.02-.04-.02-.08-.05-.12-.08,0,0-.02-.01-.03-.02-.03-.02-.06-.04-.08-.07-.07-.06-.14-.13-.19-.2-.01-.02-.02-.03-.03-.04-.1-.14-.16-.29-.24-.44,0-.01-.01-.03-.02-.04-.02-.03-.04-.06-.06-.1,0,0,0,0,0,0-.02-.02-.03-.05-.05-.07h0c-.11-.14-.23-.28-.35-.41-.03-.03-.07-.06-.1-.09-.07-.02-.14-.04-.21-.06,0,0,0,0,0,0-.04-.01-.08-.02-.12-.03-.03,0-.06-.02-.09-.02,0,0,0,0-.01,0-.11-.03-.22-.05-.33-.08,0,0-.01,0-.02,0,0,0,0,0,0,0-.04,0-.09-.01-.13-.02-.03,0-.05,0-.08-.01-.02,0-.04,0-.06,0t0,0s-.03,0-.04,0c-.04,0-.09,0-.13,0-.09,0-.19,0-.28-.01,0,0-.02,0-.02,0h-.02c-.15,0-.29,0-.44,0h-.03c-.12,0-.23,.01-.35,.02,0,0,0,0-.01,0-.02,0-.03,0-.05,0,0,0,0,0,0,0-.05,0-.1,.02-.15,.02,0,0,0,0,0,0-.09,.02-.18,.05-.26,.08-.06,.02-.12,.05-.19,.07-.15,.06-.3,.12-.44,.18-.1,.05-.19,.1-.29,.15-.02,.01-.05,.03-.07,.04-.04,.02-.08,.04-.12,.06,0,0,0,0-.01,0,0,0-.02,0-.02,.01-.12,.06-.24,.12-.36,.19-.01,0-.02,.01-.03,.02-.02,.01-.04,.02-.06,.03,0,0-.02,.01-.03,.02-.02,.01-.03,.02-.05,.04h0s-.07,.05-.11,.08c-.01,.01-.03,.02-.04,.03-.05,.03-.09,.07-.14,.1-.21,.14-.41,.25-.65,.35-.2,.08-.41,.14-.63,.2-.07,.02-.14,.03-.22,.05-.41,.09-.83,.14-1.25,.16h0c-.13,0-.25,0-.37,0-.05,0-.11,0-.16,0h-.02s-.06,0-.08,0c-.06,0-.11,0-.17-.01-.04,0-.07,0-.11,0-.07,0-.15-.02-.22-.02-.34-.04-.67-.13-.99-.22-.36-.1-.69-.27-.93-.5-.25,.02-.5,.05-.74,.1-5.25,.58-8.06,3.17-2.42,4.83,.48,.49,1.29,.86,2.25,1.14,.48,.35,.9,.74,1.55,.98,.2,.07,.41,.14,.61,.21,.17,.16,.36,.31,.57,.45,1.65,1.15,4.07,1.82,6.51,1.92,.29,.01,.58,.02,.87,.02,2.16,0,4.31-.35,6.12-1.07,1.02-.37,1.92-.89,3.06-1.12,1.18-.19,2.39-.14,3.6-.1,.64,.02,1.27,.04,1.9,.03,.48-.01,.99-.08,1.47-.2,.53-.05,1.03-.19,1.43-.42,1.61-.64,2.59-1.82,1.99-3.02"/><path class="cls-6" d="M18.4,34.34l20.48,1.23,5.27,2.4,7.8,5.42v12.1l-6.46,5.17,.58,5.46-1.38,4.44-.8,2.82s-4.81,1.64-8.44,1.5c-3.63-.14-8.8-.52-8.8-.52l-6.48-1.02-3.13-1.79s-1.9-.76-1.86-4.54c.04-3.78,.26-10.26,.26-10.26l-1.48,.1-2.31,2.08-2.59-2.08-1.75-4.81,1.84-11.8,5.17-3.94,4.06-1.95Z"/><polygon class="cls-7" points="18.12 24.26 22.35 26.67 41.58 25.39 43.83 24.26 43.13 11.86 42.52 9.87 38.88 8.55 30.86 7.46 24.62 8.36 19.04 10.52 18.12 14.22 18.12 24.26"/><polygon class="cls-12" points="18.12 24.26 22.35 26.67 41.58 25.39 43.83 24.26 43.13 11.86 42.52 9.87 38.88 8.55 30.86 7.46 24.62 8.36 19.04 10.52 18.12 14.22 18.12 24.26"/><polygon class="cls-6" points="50.59 52.4 50.1 49.25 48.42 47.39 47.27 45.67 47.06 43.26 46.47 41.41 46.72 40.55 47.8 39.61 50.05 40.71 51.32 37.35 51.84 36.31 53.04 35.93 54.07 36.56 54.56 39.11 55.85 38.05 57.66 38.51 57.66 40.06 58.81 40.55 59.2 41.41 59.2 42.83 60.62 43.82 60.97 46.27 60.62 46.9 58.96 46.15 58.4 45.98 57.15 48.73 55.12 49.82 57.8 54.85 59.04 58.31 59.73 61.03 59.54 62.83 58.32 64.88 57.16 66.53 56.32 66.69 55.37 66.77 51.97 64.92 48.84 58.37 50.03 57.26 51.21 56.5 50.59 52.4"/><polygon class="cls-6" points="4.69 39.74 6.64 34.88 4.98 34.33 2.64 32.63 2.26 33.91 1.01 34.2 .61 33.04 .55 30.99 2.44 29.65 2.09 28.58 1.7 27.57 2.93 26.05 4.6 27.15 4.5 23.79 6.24 23.01 7.73 25.18 8.18 23.01 9.12 21.86 11.23 22.48 11.72 24.49 13.15 28.5 14.57 30.14 16.42 31.38 16.69 32.84 15.8 34.27 14.41 34.49 11.9 34.49 11.77 38.83 10.79 47.72 10.43 48.91 10.9 52.24 10.94 53.5 8.62 54.25 6.51 54.19 4.99 53.86 3.93 53.34 3.64 52.21 2.2 48.93 3.03 45.57 4.69 39.74"/><polygon class="cls-6" points="22.43 20.64 21.87 16.91 24.74 15.3 29.85 16.04 36.54 15.2 39.13 15.74 40.3 18.05 39.54 20.96 40.69 25.97 40.73 22.75 43.15 24.16 43.99 25.97 43.7 27.95 42.36 29.96 40.5 30.36 39.7 31.1 38.25 33.47 36.82 35.56 34.33 36.83 31.47 40.44 28.88 37.19 27.38 36.47 23.57 33.71 20.97 30.29 18.4 28.8 18.12 26.67 18.29 24.46 20.21 23.15 21.22 26.97 22.43 20.64"/><path class="cls-11" d="M18.4,23.33l1.77,.07s2.95-2.65,4.81-3.03c1.86-.37,3.98-.79,3.98-.79h4.47l3.38,.39,3.44,1.92,3.61,2.03-1.35-3.12-2.84-1.69-6.79-1.75h-4.88l-5.38,1.57-3.11,1.71-1.12,2.68Z"/><polygon class="cls-11" points="43.58 22.09 45.91 18.99 47.41 19.74 43.95 24.59 43.58 22.09"/><polygon class="cls-6" points="46.04 18.47 46.66 19.74 47.96 19.42 47.96 18 46.04 18.47"/><path class="cls-11" d="M17.84,72.31l8.04,1.78,10.5,1.11,7.09-1.53,1.77,4.2,.81,11.35-1.8,12.92-4.49-.95-4.48-1.31-5.73-2.02-3.29-.18h-4.4l-6.39,1.17s-.99-1.74-1.13-2.6c-.14-.87-.43-9.92-.43-9.92l.81-4.63,1.87-5.63,1.23-3.75Z"/><polygon class="cls-6" points="27.12 79.64 30.46 78.37 34.02 79 36.74 81.86 37.34 85.32 36.14 88.59 33.14 91.05 29.57 91.05 26.84 90.09 24.69 88.22 23.88 86.17 24.4 82.78 26.38 80.58 27.12 79.64"/><polygon class="cls-7" points="34.04 99.37 37.78 100.79 41.03 101.97 39.15 107.14 37.34 110.44 35.74 113.39 33.52 114.62 31 113.85 30.57 110.18 32.14 106.2 33.14 103.26 34.04 99.37"/><polygon class="cls-12" points="34.04 99.37 37.78 100.79 41.03 101.97 39.15 107.14 37.34 110.44 35.74 113.39 33.52 114.62 31 113.85 30.57 110.18 32.14 106.2 33.14 103.26 34.04 99.37"/><polygon class="cls-7" points="28.06 97.68 27.48 101.56 28.06 104.85 26.77 109.24 25.7 110.1 23.37 108.77 22.31 108.44 20.13 109.09 18.74 107.5 17.48 103.89 17.74 101.2 17.09 98.45 20.61 97.68 25.79 97.44 28.06 97.68"/><polygon class="cls-12" points="28.06 97.68 27.48 101.56 28.06 104.85 26.77 109.24 25.7 110.1 23.37 108.77 22.31 108.44 20.13 109.09 18.74 107.5 17.48 103.89 17.74 101.2 17.09 98.45 20.61 97.68 25.79 97.44 28.06 97.68"/><path class="cls-6" d="M20.35,109.68c.11-.03,3.26,.72,3.26,.72l2.01-.72-2.49-1.48-2.78,1.48Z"/><path class="cls-12" d="M20.35,109.68c.11-.03,3.26,.72,3.26,.72l2.01-.72-2.49-1.48-2.78,1.48Z"/><polygon class="cls-11" points="20.13 109.09 23.12 110.58 26.51 110.1 26.1 114.94 24.89 117.02 22.1 117.62 18.38 117.21 15.3 116.09 13.23 115.15 13.23 112.55 14.74 111.36 16.34 110.58 19.63 110.1 20.13 109.09"/><polygon class="cls-11" points="30.65 114.13 31.83 114.53 34.04 114.62 35.21 118.98 36.04 120.41 35.74 121.33 34.22 121.6 31.6 121.79 30.84 120.44 30.57 115.59 30.65 114.13"/><path class="cls-11" d="M22.68,32.93l2.27,2.4-.32,9.92,1.36,8.25,1.69,6.93-4.71-.21h-2.8s-2.53-7.41-2.52-14.33c.01-6.92,1.14-10.31,1.14-10.31l3.89-2.63Z"/><path class="cls-11" d="M38.25,34.02l-2.12,1.79s.97,1.2,1.36,3.78c.39,2.57,.76,7.78,.76,7.78v6.68l-1.25,7.3,6.99-1.14,1.21-6.15,.3-7.85-1.16-6.97-1.67-3.28-1.86-1.3-2.56-.63Z"/><path class="cls-8" d="M17.04,74.72c-.42-.08-.46-.4-.43-.75h.06s.07,.02,.07,.02l.07,.02,.07,.02,.07,.02,.07,.02,.06,.02,.06,.02,.06,.02,.06,.02,.05,.02,.05,.02,.05,.02,.05,.02,.04,.02,.04,.02,.04,.02,.04,.02h0c-.07,.25-.21,.44-.51,.44-.02,0-.04,0-.06,0"/><path class="cls-8" d="M44.02,75.21h.05s.08-.02,.08-.02l.08-.02,.09-.02,.09-.02,.1-.02,.1-.02,.1-.02,.11-.02,.11-.03h0c-.06,.23-.29,.36-.52,.36-.15,0-.3-.06-.4-.18"/><path class="cls-8" d="M14.38,98.34c-.5-.81-.38-1.97-.57-2.9-.1-.92-.18-1.84-.24-2.69-.43-6.2,.55-12.52,2.92-18.27,.26-.54,1.13-.21,.96,.38-.1,.23-.21,.45-.29,.69-2.04,5.37-2.97,11.27-2.57,16.99,.06,.93,.14,1.84,.24,2.77,.09,.86,.2,1.71,.37,2.56,.06,.32-.23,.59-.53,.59-.11,0-.21-.03-.3-.11"/><path class="cls-8" d="M42.75,102.28c-.34-.03-.64-.07-.81-.06-4.4-.52-8.26-3.03-12.6-3.83-4.24-.89-8.65-.43-12.81,.66-.63,.17-1.54,.57-2-.11-.17-.39-.37-1.02,.06-1.31,.47-.27,.85,.19,.8,.64,5.54-1.59,11.58-2.03,17.08-.11,2.79,.86,5.43,2.2,8.29,2.83,1.14,.23,2.31,.3,3.48,.27,.28,0,.52,.24,.52,.52,.01,.44-.49,.55-1.09,.55-.31,0-.64-.03-.94-.06"/><path class="cls-8" d="M44.26,102.15c-.27-.04-.5-.31-.44-.59,.73-3.67,1.35-7.36,1.67-11.09,.53-5.13-.09-10.31-1.5-15.25h0s.08-.02,.08-.02l.08-.02,.08-.02,.09-.02,.09-.02,.1-.02,.1-.02,.1-.02,.11-.02,.11-.03h.04c2.1,6.54,2.07,13.59,.98,20.33-.27,1.84-.59,3.68-.94,5.51-.13,.45-.06,1.28-.68,1.28-.02,0-.04,0-.06,0"/><path class="cls-8" d="M33.53,99.37c0-.28,.24-.52,.52-.52s.52,.24,.52,.52-.24,.52-.52,.52-.52-.24-.52-.52"/><path class="cls-8" d="M30.21,113.09c-.91-6.91,2.95-6.67,3.01-13.9,.22-.56,1.1-.3,.99,.29-.03,1.7-.23,3.41-.85,5-.58,1.59-1.69,2.96-2.05,4.63-.24,1.27-.26,2.59-.08,3.84,.05,.37-.24,.58-.53,.58-.23,0-.46-.13-.5-.43"/><path class="cls-8" d="M34.67,114.34c-.48-.6,.86-1.28,1.1-1.86,.58-.9,.76-1.99,1.27-2.93,.64-1.19,1.38-2.32,1.98-3.54,.4-.81,.75-1.64,1.08-2.48,.32-.52,.64-2.41,1.26-2.34,.8,.08,.44,.88,.24,1.36-.93,2.66-2.24,5.13-3.67,7.54-.41,.82-.63,1.72-1.04,2.54-.29,.45-1.17,1.9-1.84,1.9-.13,0-.26-.06-.37-.19m7-12.21s0,0,0,0c.02-.02,.03-.03,.05-.04h0s.03-.03,.04-.05h0s.02-.03,.04-.05c0,0,0,0,0-.01-.04,.06-.08,.12-.14,.16"/><path class="cls-8" d="M30.65,114.13c-.43-.49-.86-1.77,.24-1.55,.15,.06,.26,.2,.3,.35,.21,.89,1.16,1.26,1.99,1.18,.63-.04,1.22-.3,1.72-.67,.53-.41,1.17,.42,.63,.82-.7,.55-1.67,.9-2.61,.9-.88,0-1.72-.3-2.28-1.03"/><path class="cls-8" d="M30.03,118.7c0-1.38-.47-2.8,.03-4.14,.22-.45,.36-1.34,1.03-1.2,.79,.29,.08,1.06-.06,1.57-.35,.9-.05,1.89-.03,2.81,.08,.86,.05,1.73,.18,2.59,.38,1.6,2.54,.83,3.69,.73,1.6-.16,.24-1.49-.21-2.17-.88-1.26-.75-2.84-1.15-4.26-.18-.64,.83-.93,1-.28,.33,1.17,.3,2.43,.76,3.56,.42,.82,1.23,1.45,1.38,2.39,.27,2.13-2.82,1.94-4.24,2.04-2.2-.09-2.39-1.84-2.39-3.63"/><path class="cls-8" d="M25.31,110.15c-.8-.22-1.37-.88-2.15-1.16-.59-.22-1.21,.05-1.81,.32-.82,.37-1.62,.74-2.3-.13-1.45-1.99-2.3-4.63-1.95-7.08,0,0,0,.01,0,.02h0c.19-1.31-.47-2.59-.46-3.86,.07-.32,.49-.49,.76-.31,.35,.21,.22,.64,.33,.97,0-.01,0-.02,0-.03,.24,1.1,.53,2.21,.4,3.35,0-.02,0-.05,0-.07-.2,1.31-.04,2.61,.44,3.85,.34,.91,.69,1.86,1.35,2.59,.25,.17,.76-.08,1.29-.33,.44-.21,.89-.42,1.23-.39,1.23-.16,2.1,.85,3.15,1.28,.59,.16,.41,1.02-.12,1.02-.05,0-.1,0-.15-.02"/><path class="cls-8" d="M25.4,109.14c1.78,0,2-3.3,2.2-4.6,.06-.7-.25-1.35-.42-2.02-.3-1.26,.02-2.57,.24-3.82,.05-.22,.1-.43,.15-.64,.18-.65,1.17-.38,1,.28-.27,1.11-.48,2.25-.48,3.39,.12,1.01,.68,1.94,.53,2.98-.3,2.03-.61,5.46-3.28,5.47-.64-.08-.59-1.04,.05-1.04m.48,.32c-.03-.09-.09-.16-.16-.22,0,0-.01,0-.02-.01,.08,.06,.14,.14,.18,.23"/><path class="cls-8" d="M21.79,110.68c-.74-.27-1.66-.5-2.12-1.18-.14-.33,.12-.74,.48-.73,.25-.01,.37,.19,.54,.31,.83,.5,1.79,.77,2.76,.85,.79,.1,1.37-.1,1.82-.31,.57-.26,.94-.52,1.23-.15,.47,.8-.8,1.09-1.34,1.31-.45,.14-.92,.2-1.38,.2-.68,0-1.36-.12-2-.3"/><path class="cls-8" d="M24.44,117.51c-.5-.41,.07-.91,.31-1.28,.17-.26,.32-.52,.46-.79,.78-1.37,.82-2.95,.68-4.48-.01-.56-.37-1.79,.59-1.65,.29,.08,.43,.38,.37,.66,.03,.4,.07,.8,.09,1.2,.06,1.23,.12,2.5-.34,3.66-.2,.52-1.13,2.8-1.89,2.8-.09,0-.18-.03-.27-.11"/><path class="cls-8" d="M19.67,117.76c-1.93-.1-3.69-.91-5.4-1.75-1.88-.61-1.94-1.15-1.54-3,.4-2.28,3-2.99,4.98-3.19,.6,0,1.18-.09,1.7-.41,.24-.1,.43-.32,.7-.33,.53,0,.7,.73,.24,.98-1.29,.89-2.18,.68-3.59,.93-2.17,.5-3.22,1.19-3.2,3.57,.81,.42,1.71,.71,2.52,1.15,2.7,1.36,5.83,1.16,8.75,.83,.66-.09,.81,.93,.14,1.03-1.2,.14-2.41,.24-3.62,.24-.57,0-1.13-.02-1.7-.07"/><path class="cls-8" d="M25.47,116.49c-2.19-.25-4.33-.13-6.49-.48-1.4-.31-2.78-.74-4.14-1.21-.44-.15-.87-.32-1.3-.48-.22-.09-.49-.14-.63-.35-.09-.15-.06-.34,.06-.47,.34-.3,.74,.15,1.1,.2,2.12,.75,4.22,1.57,6.48,1.73,1.68,.08,3.35,.15,5.03,.3,.46,.05,.4,.76-.04,.76-.02,0-.04,0-.07,0"/><path class="cls-8" d="M32.82,120.97c-.86-.08-1.8-.22-2.42-.87-.46-.41,.24-1.04,.57-.51,1.04,.85,2.64,.66,3.86,.45,.39-.03,1.01-.43,1.2,.1,.05,.2-.06,.42-.27,.47-.84,.21-1.7,.37-2.57,.37-.12,0-.25,0-.37-.01"/><path class="cls-8" d="M31.03,40.79c-.92-.85-1.63-1.9-2.42-2.88-.25-.32-.51-.63-.78-.94-.09-.1-.14-.22-.14-.36,0-.28,.24-.52,.52-.52,.44,0,.87,.82,1.18,1.13,.71,.89,1.38,1.82,2.17,2.64,1.05-1.14,1.76-2.42,2.62-3.66,.34-.58,1.24-.06,.89,.52-.74,1.09-1.42,2.22-2.24,3.25-.31,.42-.78,.98-1.31,.98-.16,0-.33-.05-.49-.18"/><path class="cls-8" d="M25.44,42.6c-.99-.29-.17-2.56-.06-3.32,.19-.78,.4-1.55,.66-2.31,.19-.45,.32-1.29,.98-1.14,.28,.06,.43,.38,.36,.64-.14,.28-.27,.56-.37,.86-.46,1.39-.84,2.82-1.01,4.27,1.83-.45,3.63-1.07,5.36-1.83,.62-.26,1.02,.68,.4,.96-1.44,.68-2.98,1.13-4.49,1.62-.46,.12-.94,.31-1.42,.31-.14,0-.28-.02-.41-.06m1.44-5.75s.02,0,.04,0c-.06,0-.11,0-.17-.01,.04,.01,.09,.02,.13,.02"/><path class="cls-8" d="M35.67,42.51c-1.03-.39-2.04-.89-3.08-1.28-.42-.18-1.19-.16-1.12-.79,.04-.3,.36-.52,.65-.43,1.37,.35,2.62,1.05,3.95,1.55,.55,.24,.3,1-.19,1-.07,0-.14-.01-.21-.04"/><path class="cls-8" d="M36.25,42.57c-.78-.16-.28-1.2-.33-1.7,.07-1.04,.05-2.09-.02-3.13,.03-.54-.32-1.63,.03-2.02,.34-.35,.96-.04,.88,.44,.12,1.49,.25,2.99,.16,4.49-.02,.5-.07,.99-.14,1.49-.03,.26-.26,.45-.52,.45-.02,0-.05,0-.07,0"/><path class="cls-8" d="M30.07,55.24c-.1-.1-.14-.23-.15-.37-.05-.81-.05-1.63-.06-2.44,0-1.01,0-2.03,.02-3.05,.05-2.63,.07-5.27,.18-7.9,.07-.44-.09-1.06,.33-1.35,.24-.15,.57-.06,.71,.19,.14,.2,0,.55,.02,.74-.12,1.97-.11,3.94-.16,5.91-.04,2.03-.08,4.07-.05,6.1,0,.6,.02,1.2,.05,1.8,.02,.3-.26,.52-.54,.52-.13,0-.25-.05-.35-.15m.94-14.28c.06-.06,.11-.14,.13-.22-.03,.08-.07,.16-.13,.22"/><path class="cls-8" d="M31.69,55.19c-.1-.1-.14-.23-.15-.37-.06-1.38-.05-2.77-.02-4.15,.07-3.35,0-6.8,.25-10.12,0-.51,.61-.82,.95-.4,.11,.14,.13,.3,.09,.46-.04,.25-.04,.49-.06,.72-.13,2.02-.13,4.04-.16,6.06,0,1.87-.06,3.75-.07,5.62,0,.6,.02,1.2,.05,1.8,.02,.3-.26,.52-.54,.52-.13,0-.25-.05-.35-.15m.97-14.33c.07-.06,.12-.14,.14-.23-.03,.09-.08,.17-.14,.23"/><path class="cls-8" d="M30.28,55.46c-.5-.13-.49-.87,0-1,.56-.05,1.11-.08,1.67-.1,.68,0,.68,1.03,0,1.04-.27,0-.52,.01-.76,.03-.21,.02-.42,.04-.64,.04-.09,0-.19,0-.28-.01"/><path class="cls-8" d="M36.89,61.96c-.64-.21-.25-.94-.19-1.41,.34-1.73,.6-3.49,.77-5.25,.42-4.27,.57-8.49,0-12.73-.24-1.83-.47-3.7-1.27-5.38-.15-.34-.51-.62-.42-1.02,.11-.5,.89-.52,1.01,0,1.21,1.93,1.44,4.28,1.74,6.49,.61,4.82,.37,9.69-.23,14.49-.2,1.49-.44,2.98-.77,4.45-.05,.23-.28,.38-.51,.38-.04,0-.09,0-.13-.02"/><path class="cls-8" d="M43.97,60.64c-.72-.26-.16-1.1-.13-1.62,.17-.85,.29-1.71,.39-2.57,.38-4.01,.73-8.07,.49-12.1-.23-4.07-1.31-9.22-6.09-9.87-.53,.09-1.01-.31-.67-.83,.27-.33,.75-.19,1.12-.16,7.66,1.7,6.83,11.66,6.61,17.76-.17,2.58-.31,5.16-.77,7.71-.18,.54-.09,1.68-.82,1.68-.03,0-.07,0-.11,0"/><path class="cls-8" d="M36.67,61.49c0-.51,.55-.53,.92-.6,1.07-.21,2.14-.4,3.22-.59,.95-.18,1.88-.36,2.81-.64,.27-.08,.56,.09,.64,.36,.08,.28-.09,.56-.36,.64-1.47,.43-2.98,.67-4.48,.94-.55,.1-1.11,.21-1.66,.31-.14,.05-.31,.08-.47,.08-.31,0-.59-.12-.6-.51"/><path class="cls-8" d="M19.48,59.96c-1.76-4.27-2.4-8.91-2.43-13.51-.01-4.37-.3-12.07,4.83-13.66,.29-.08,.59-.14,.9-.17,.28,0,.52,.24,.52,.52,0,.46-.46,.53-.82,.57-3.51,.75-4.11,5.26-4.32,8.26-.18,4.01-.13,8.08,.63,12.03,.3,1.47,.7,2.93,1.18,4.35,.14,.41,.3,.81,.47,1.21,.17,.39-.17,.71-.51,.71-.18,0-.35-.09-.44-.31"/><path class="cls-8" d="M27.09,60.19c-2.15-6.48-3.97-18.29-2.34-24.88,.19-.52,1.02-.38,1.01,.18-.04,.27-.15,.54-.18,.81-1.08,6.25,.06,12.65,1.18,18.81,.32,1.59,.74,3.15,1.28,4.68,.17,.4-.18,.72-.51,.72-.18,0-.35-.09-.44-.31"/><path class="cls-8" d="M26.82,60.83c-.21-.01-.41-.02-.6,0-1.65-.04-3.3-.12-4.94-.25-.17-.04-.38-.03-.61-.03-.49,0-1.03,.02-1.17-.42-.14-.52,.43-.74,.85-.64,.8,.04,1.59,.1,2.39,.16,1.64,.08,3.28,.19,4.92,.13,.45-.02,.69,.59,.37,.89-.23,.15-.51,.19-.8,.19-.13,0-.27,0-.4-.02"/><path class="cls-8" d="M46.14,39.96c-.69-.58-1.42-1.13-2.22-1.55-.2-.08-.42-.18-.48-.42-.04-1.8,2.79,.73,3.33,1.14,.43,.33,.09,.94-.33,.94-.1,0-.2-.03-.31-.11"/><path class="cls-8" d="M46.59,60.51c-.15,0-.3-.07-.4-.2-.17-.22-.13-.56,.09-.73,.77-.56,1.5-1.18,2.2-1.79,.71-.64,1.44-1.29,2.12-1.96,0,0-.02,.01-.02,.02,0,0,0,0,0,0,.44-.45,1.17,.19,.78,.68-.31,.34-.66,.64-1,.96-1.1,1.01-2.22,2.02-3.43,2.9-.1,.07-.21,.1-.32,.1h0Z"/><path class="cls-8" d="M45.51,56.57c-.25-.11-.39-.42-.28-.68,1.26-2.67,2.27-5.47,3.16-8.25,.36-.48,1.15,0,.88,.54-.48,1.69-1.08,3.33-1.73,4.96-.43,1.06-.89,2.11-1.36,3.15-.09,.2-.28,.32-.48,.32-.07,0-.13-.01-.2-.04"/><path class="cls-8" d="M42.98,74.21h-.02s-.02-.03-.02-.03h-.02s-.02-.02-.02-.02h-.02s-.02-.02-.02-.02h-.02s-.02-.02-.02-.02h-.01s-.02-.02-.02-.02h-.01s-.01-.02-.01-.02h-.01s-.01-.02-.01-.02h-.01s-.01-.02-.01-.02h-.01s-.01-.02-.01-.02h-.01s-.01-.02-.01-.02h-.01s-.01-.02-.01-.02c.68-1.36,1.27-2.77,1.8-4.2,.43-1.2,.92-2.39,1.22-3.63,.14-1.02-.21-2.05-.21-3.09-.09-1.45-.22-2.89-.37-4.34-.04-.6-.14-1.2-.14-1.79,.06-.63,1.05-.61,1.05,.04,.1,1.98,.39,3.96,.49,5.95,.21,2.36,.54,3.16-.43,5.47-.58,1.66-1.2,3.31-1.93,4.92-.04,.05-.07,.11-.1,.18-.06,.07-.12,.14-.18,.21-.03,.03-.06,.06-.08,.09-.09,.06-.17,.12-.26,.17,0,0-.01,0-.02,.01-.03,.02-.07,.03-.1,.05-.09,.04-.18,.09-.27,.13-.05,.02-.09,.05-.14,.07t0,0h0Z"/><path class="cls-8" d="M42.94,74.18h-.02s-.02-.02-.02-.02h-.02s-.02-.02-.02-.02h-.02s-.02-.02-.02-.02h-.02s-.01-.02-.01-.02h-.02s-.01-.02-.01-.02h-.01s-.01-.02-.01-.02h-.01s-.01-.02-.01-.02h-.01s-.01-.02-.01-.02h-.01s0-.01,0-.01c.1,.04,.19,.11,.26,.2h-.01Z"/><path class="cls-8" d="M17.16,71.83c.07-.22,.29-.35,.51-.35,.04,.02,.07,.04,.11,.06,.04,.03,.08,.06,.12,.07v.02s-.03,.04-.03,.04l-.02,.04-.02,.04-.02,.04-.02,.05-.02,.05-.03,.05-.02,.04-.02,.04-.02,.04-.02,.04-.02,.04-.02,.04-.02,.04-.02,.04-.02,.03-.02,.03-.02,.03-.02,.03-.02,.02c-.24-.2-.34-.4-.27-.58"/><path class="cls-8" d="M11.99,38.85c-.28,0-.52-.24-.52-.52,0-.22,.14-.41,.33-.48-.05,.02-.1,.05-.14,.08,1.99-1.72,4.05-3.79,6.77-4.13,.57-.01,1.69-.38,1.78,.45-.02,.53-.5,.53-.92,.52-.09,0-.18,0-.26,0-.6,.04-1.19,.16-1.76,.35-1.49,.61-2.75,1.7-3.98,2.73-.22,.2-.44,.39-.66,.58-.2,.16-.36,.41-.65,.41h0Z"/><path class="cls-8" d="M11.67,37.93s-.02,.02-.04,.03c.01-.01,.02-.02,.04-.03"/><path class="cls-8" d="M11.17,58.42c-.8-.06-.26-1.82-.37-2.42,.02-2.72-.23-5.45-.76-8.12-.02-.66,1.03-.7,1.04-.02,.33,1.57,.54,3.16,.65,4.76,.11,1.56,.16,3.13,.07,4.7-.01,.43,.01,1.11-.55,1.11-.03,0-.05,0-.08,0"/><path class="cls-8" d="M10.61,59.2c-1.38-1.03-2.38-2.54-3.01-4.13-.37-.63,.43-1.28,.87-.64,.58,1.56,1.52,3.17,2.97,4.05,1.13-.85,2.24-1.72,3.37-2.56,.53-.41,1.17,.42,.63,.82-.99,.74-1.97,1.5-2.96,2.25-.33,.32-.7,.52-1.08,.52-.26,0-.53-.09-.8-.31"/><path class="cls-8" d="M16.51,59.14c-1.42-2.42-2.43-5.06-3.14-7.77-.14-.77-.55-1.56-.44-2.34,.27-.59,1.1-.28,1.01,.33,.6,2.61,1.43,5.31,2.62,7.69,.27,.53,.55,1.05,.84,1.57,.24,.4-.12,.78-.48,.78-.16,0-.31-.07-.42-.25"/><path class="cls-8" d="M17.2,72.4s-.04-.03-.07-.05h0s0,0,0,0c0,0,0,0,0,0,0,0,0,0-.01,0,0,0,0,0,0,0,0,0,0,0,0,0-.08-.06-.16-.12-.24-.17-.05-.04-.1-.08-.16-.11,0,0,0,0,0,0-2.08-1.93-2.03-3.99-1.95-6.84,.04-1.92,.13-3.83,.22-5.74,.13-.69-.1-2.6,.32-2.97,.97-.45,.83,.66,.8,1.27-.11,3.7-.56,7.45-.17,11.15,.22,.98,.87,1.78,1.59,2.45,.02,.02,.04,.04,.06,.05,.09,.08,.18,.17,.28,.25h0l-.02,.04-.02,.04-.02,.04-.02,.05-.02,.05-.02,.04-.03,.05-.02,.04-.02,.04-.02,.04-.02,.04-.02,.04-.02,.04-.02,.04-.02,.03-.02,.03-.02,.03-.02,.03-.02,.03-.02,.03-.02,.03-.02,.02c-.06-.04-.11-.07-.16-.11"/><path class="cls-8" d="M17.13,72.35h0s0,0,0,0c0,0,.02,.01,.02,.02,0,0-.01-.01-.02-.02"/><path class="cls-8" d="M43.47,73.67c-.27-.14-.35-.48-.2-.74,0,0,0,0,0,0h.01s.01,.02,.01,.02h.01s.01,.02,.01,.02h.01s.01,.02,.01,.02h.01s.01,.02,.01,.02h.01s.01,.02,.01,.02h.02s.02,.02,.02,.02h.02s.02,.02,.02,.02h.02s.02,.02,.02,.02h.02s.02,.02,.02,.02h.02s.02,.02,.02,.02h.02s.02,.02,.02,.02h.02s.02,.02,.02,.02h.02s.02,.02,.02,.02h.02s.02,.03,.02,.03h.02s.02,.02,.02,.02h.02s.02,.03,.02,.03h.02s.02,.03,.02,.03h.02s.02,.03,.02,.03h.02s.02,.03,.02,.03h.02s.02,.03,.02,.03h.02s.02,.03,.02,.03l.02,.02,.02,.02,.02,.02h0c-.06,.08-.13,.16-.2,.23,0,0-.01,.01-.02,.02-.03,0-.06,.01-.09,.01h-.02c-.08,0-.16-.02-.25-.05"/><path class="cls-8" d="M34.06,75.47c-1.56,.13-14.47-1.38-16.68-3.01l.02-.02,.02-.03,.02-.03,.02-.03,.02-.03,.02-.04,.02-.04,.02-.04,.02-.04,.02-.04,.02-.04,.02-.05,.02-.05,.02-.05,.02-.05,.02-.05,.02-.05,.02-.05,.02-.04,.02-.04,.02-.04,.02-.03s.03,.02,.04,.02c.03,.02,.05,.04,.07,.06,.6,.22,1.23,.44,1.82,.61,4.31,1.13,8.77,1.82,13.22,2.11,3.35,.15,6.85,.05,9.92-1.42,.12-.06,.26-.06,.38-.02h0s.01,.01,.01,.01h.01s.01,.02,.01,.02h.01s.01,.02,.01,.02h.01s.01,.02,.01,.02h.02s.02,.02,.02,.02h.02s.02,.02,.02,.02h.02s.02,.02,.02,.02h.02s.02,.02,.02,.02h.02s.02,.02,.02,.02h.01s.04,.06,.05,.09c.28,.85-1.05,.94-1.59,1.23-1.76,.66-3.62,.92-5.5,1-.47,.02-.95,.03-1.42,.03-.35,0-.71,0-1.06-.01"/><path class="cls-8" d="M17.43,72.55s-.05-.03-.08-.05l.02-.03,.02-.03,.02-.03,.02-.03,.02-.03,.02-.03,.02-.04,.02-.04,.02-.04,.02-.04,.02-.04,.02-.04,.02-.05,.02-.05,.02-.05,.02-.05,.02-.05,.02-.05,.02-.04,.02-.04s.03,.02,.04,.03c.42,.29,.18,.85-.21,.94-.06-.05-.13-.09-.2-.13"/><path class="cls-8" d="M17.67,72.71c-.07-.06-.16-.11-.24-.16-.08-.05-.16-.1-.23-.15-.02-.02-.04-.03-.07-.05h0s0,0,0,0c0,0,0,0,0,0-.08-.06-.17-.12-.25-.18-.04-.03-.08-.06-.12-.09,.08-.17,.26-.3,.46-.3,.43,0,.6,.45,.52,.81,0,.04-.01,.09-.02,.13-.02,0-.04-.02-.05-.02"/><path class="cls-8" d="M17.12,72.34s0,0,0,0c0,0,0,0,0,0,0,0,0,0,0,0,0,0,.02,.01,.02,.02-.01,0-.02-.02-.03-.02"/><path class="cls-8" d="M44.18,72.34c.17,0,.3,.04,.39,.12-.05,.11-.1,.22-.15,.33-.03,.06-.05,.11-.07,.17-.02,.06-.05,.12-.06,.18,0,0,0,.01,0,.02-.01,.02-.03,.04-.04,.06-.12,.17-.25,.33-.39,.48,0,0,0,0,0,0-.12-.56-.29-1.2,.33-1.35"/><path class="cls-8" d="M43.66,73.61c0-.36,.33-.55,.63-.5,0,0,0,.02,0,.02,0,0,0,.01,0,.02-.01,.02-.03,.04-.04,.06-.12,.17-.25,.33-.39,.48-.04,.04-.08,.09-.13,.13,0,0,0,0,0,.01-.03-.07-.05-.14-.06-.22"/><path class="cls-8" d="M12.95,49.51c-.19-.74-.33-1.48-.45-2.24-.05-.34-.1-.68-.09-1.02,.06-.51,.81-.61,.99-.13,.12,1.04,.27,2.09,.55,3.12,.1,.39-.21,.65-.52,.65-.2,0-.4-.11-.48-.37m-.42-2.86s-.07-.09-.09-.15v.02s0,0,0,0c.02,.05,.05,.09,.08,.13"/><path class="cls-8" d="M11.55,39.26c.01-.12,.03-.24,.04-.36,.06-.33,.12-.65,.19-.98,0,0,0,0,0,0,.02-.09,.03-.18,.02-.27,.38-.37,.8-.74,1.16-1.05h0c-.02,.11-.02,.21,.01,.3,0,.08,0,.17,.03,.25,0,0,0,0-.01,.01-.18,.14-.1,.4,0,.57,.03,.05,.06,.1,.09,.16-.5,.48-.97,.99-1.4,1.53-.04,.05-.08,.09-.13,.12,0-.09,.01-.18,.02-.26"/><path class="cls-8" d="M15.78,34.65c-.06,0-.13,0-.2,0,.68-.32,1.37-.52,2.07-.63-.15,.1-.31,.2-.46,.31-.11,.08-.23,.15-.33,.23-.09,.02-.18,.05-.27,.07-.02,0-.04,0-.06,0-.14,0-.28,.01-.43,.02-.01,0-.02,0-.03,0-.1,0-.2,0-.29,0"/><path class="cls-8" d="M11.26,55.99c-.05,0-.11,0-.16,0-.03-.02-.05-.03-.08-.04-.06-.03-.12-.05-.18-.07,0-.12,0-.25,0-.37,0-2.46-.25-4.95-.87-7.33-.16-.4-.19-1,.37-1.05,.48-.04,.56,.46,.64,.82,.17,.64,.32,1.29,.43,1.95,.31,1.97,.53,3.98,.47,5.98-.14,.03-.29,.06-.43,.1,0,0-.01,0-.02,0-.06,0-.11,0-.17,0"/><path class="cls-8" d="M7.54,54.75c-.22-.64,.77-.98,.98-.34,.17,.48,.39,.96,.65,1.42-.07-.03-.14-.05-.21-.06-.21-.04-.4-.05-.6,.04-.08,.04-.16,.08-.23,.14-.02,0-.04,0-.05,0-.23-.45-.41-.87-.53-1.21"/><path class="cls-8" d="M49.46,51.06s-.02-.08-.03-.13c-.02-.21-.05-.42-.08-.62,0,.01,0,.02,0,.03-.02-.14-.04-.28-.06-.41-.02-.09-.03-.19-.07-.27,0-.09-.02-.18-.06-.25,.18,0,.36,.07,.46,.23,.19,.49,0,1.03-.14,1.55,0-.04-.02-.08-.02-.12"/><path class="cls-8" d="M47.75,57.3s.03-.04,.04-.06c0,0,.02,0,.02,0,0,.05,.01,.1,.02,.15-.02-.03-.05-.06-.08-.08"/><path class="cls-8" d="M48.55,59.51c-.05-.27-.1-.54-.15-.81,0-.05-.02-.1-.03-.15,.16-.13,.32-.27,.48-.41,.08-.07,.16-.15,.25-.23,0,0,0,0,0,.01,.06,.13,.11,.27,.21,.37,.02,.02,.04,.03,.06,.04,.03,.08,.06,.16,.09,.24,.02,.04,.03,.08,.05,.13,0,0,0,.02,0,.03,.01,.06,.03,.11,.04,.16-.32,.28-.64,.56-.98,.82-.01-.07-.02-.14-.04-.21"/><path class="cls-8" d="M50.45,56.9s0,0,0,0c0-.03-.01-.05-.01-.07h0c-.02-.08-.03-.16-.05-.25,.2-.26,.53-.43,.82-.2,.25,.19,.27,.59,.03,.8-.2,.23-.41,.46-.62,.69-.05-.32-.11-.65-.17-.97"/><path class="cls-8" d="M45.82,39.6c.09-.19,.18-.39,.27-.58,.06-.14,.13-.27,.19-.41,.46,.29,.91,.61,1.34,.96-.15,.04-.27,.12-.37,.22-.17,.03-.34,.13-.46,.28-.04,.05-.08,.11-.1,.16-.28-.22-.57-.43-.87-.62"/><path class="cls-8" d="M11.63,33.6c-.13-.98,.19-1.46,1.01-1.96,1.85-1.24,2.09,.38,1.27,.55-.46,.11-.85,.42-1.22,.71-.13,.48,0,1.05,.42,1.34,.21-.13,.46-.19,.69-.27,.38-.16,.73-.37,1.21-.41,.13-.04,.29-.03,.44-.03,.23,0,.46,.02,.63-.14,.25-.43,0-1.23,0-1.74-.22-.45-.73-.71-1.15-.96-1.65-.78-2.48-1.95-2.98-3.67-.26-.78-.58-1.54-.82-2.32-.1-.48-.2-.97-.37-1.44-.11-.78-1.2-.29-1.23-1.08,.1-1.03,1.76-.3,2.02,.31,.37,.7,.45,1.51,.67,2.26,.34,.85,.62,1.71,.94,2.57,.63,2.2,2.43,2.11,3.69,3.58,.41,.62,.32,1.43,.37,2.15,.04,.5-.21,.99-.62,1.27-.47,.35-1.06,.19-1.6,.29-.29,.06-.54,.22-.81,.33-.23,.08-.47,.13-.66,.27-.14,.08-.27,.11-.41,.11-.75,0-1.44-1.04-1.48-1.72"/><path class="cls-8" d="M7.46,25.44c-.18-.34-.12-.74-.07-1.11,.05-.45,.07-.91,.18-1.36,.32-1.67,1.51-1.72,2.87-1.2,.58,.14,.48,1.02-.12,1.02-.35-.05-.68-.19-1.02-.28-.87-.17-.74,1.14-.86,1.71-.14,.71-.09,1.18,.75,1.25,.49-.24,.27-1.12,.93-1.13,1.16,.16,.1,1.92-.58,2.11-.13,.03-.26,.05-.39,.05-.7,0-1.44-.41-1.69-1.07"/><path class="cls-8" d="M4.15,25.82c-.04-.75-.42-1.75,.09-2.39,.35-.27,.69-.53,1.11-.68,.64-.39,1.52-.57,1.93,.25,.32,.59,.66,1.16,.95,1.77,.08,.2,.22,.37,.23,.6,0,.28-.24,.52-.52,.52-.55-.03-.6-.73-.87-1.1-.19-.47-.51-.87-.72-1.33-.45,.12-.93,.38-1.31,.68,.01,.94,.18,1.88,.23,2.82,.39,.31,.94,.03,1.09-.39,.09-.26-.09-.52,.01-.77,.16-.41,.8-.42,.95,0,.38,.98-.35,2.09-1.33,2.33-.07,0-.14,0-.21,0-1.52,0-1.62-.92-1.64-2.29"/><path class="cls-8" d="M3.24,30.17c-.42,0-.72-.31-1.02-.7-.32-.46-.78-.78-1.11-1.23-.56-1.17,.78-2.04,1.33-2.91,.6-.62,2.18,.91,2.76,1.25,.47,.46-.21,1.2-.7,.77,.33,.38,.31,.9,.24,1.37,0,.64-.49,1.11-1.05,1.34-.16,.07-.31,.1-.44,.1h0Zm-1.03-2.86c-.1,.13-.22,.25-.19,.42,.46,.43,.86,.91,1.27,1.38,.14-.07,.33-.16,.4-.31,.02-.26,.14-.58,0-.81-.32-.32-.06-.89,.36-.89,.04,0,.08,0,.12,.02-.36-.3-.76-.54-1.16-.79-.28,.31-.58,.62-.8,.98"/><path class="cls-8" d="M5.51,35.01c-1.04-.42-1.92-1.14-2.61-2.01-.21,.96-1.33,2.22-2.27,1.28-.34-.29-.35-.77-.42-1.18-.08-.55-.22-1.1-.21-1.66,0-.51,.02-1.1,.48-1.42,.28-.25,.61-.42,.87-.7,.19-.13,.43-.18,.61-.32,.39-.37,1.03-.21,.99,.38-.1,.44-.62,.61-.99,.78-.24,.3-.62,.43-.88,.71-.13,.89,.07,1.82,.29,2.67,.38-.21,.47-.65,.6-1.04,.06-.24,.02-.5,.17-.72,.34-.45,.9-.1,1.27,.13,.15,.11,.21,.28,.3,.43,.17,.22,.39,.41,.55,.64,.27,.23,.57,.43,.83,.66,.41,.25,.87,.43,1.31,.62,.18,.09,.33,.2,.54,.16,.47-.01,.9-.16,1.33-.35,.5-.07,1.53-.41,1.6,.39,0,.54-.55,.52-.95,.55-.59,.08-1.09,.43-1.7,.42-.11,.03-.21,.04-.31,.04-.49,0-.94-.27-1.39-.46"/><path class="cls-8" d="M9.13,50.17c.64-1.84,.76-3.85,1.25-5.75,.18-1.67,.55-3.31,.69-4.98,.2-1.84,.22-3.69,.48-5.52-.19-.74,.73-1.14,1.01-.4-.08,1.98-.31,3.99-.46,5.97-.1,1.58-.5,3.12-.64,4.7-.5,2.16-.7,4.42-1.43,6.53-.11,.27-.3,.39-.48,.39-.37,0-.72-.46-.42-.94"/><path class="cls-8" d="M4.63,54.54c-1.49-.98-2.17-2.81-2.78-4.42-.7-2.51-.08-4.59,.89-6.91,1.05-2.7,2.21-5.35,3.32-8.03-.23-.58,.62-.99,.93-.45,.37,.69-.3,1.38-.48,2.04-.53,1.51-1.32,2.91-1.83,4.42-.94,2.52-2.5,5.08-1.99,7.87,.25,1.39,1.24,3.72,2.4,4.55,1.16,.41,2.45,.39,3.62,.03,.65-.12,1.33-.15,1.93-.46,.62-.27,1.02,.7,.4,.96-.65,.32-1.36,.4-2.06,.5-.54,.11-1.06,.29-1.61,.31-.92-.02-1.89-.06-2.74-.42"/><path class="cls-8" d="M50.03,40.68c-.47-.24-.23-.75-.04-1.1,.33-.89,.82-1.71,1.17-2.59,.52-1.8,2.07-1.98,3.41-.85,.39,.43,.1,1.05,.21,1.57,.02,.68,.22,1.46-.24,2.04-.6,.64-1.7,.57-2.28-.07-.32-.4-.43-.93-.53-1.43-.35,.73-.67,1.46-1,2.2-.09,.18-.28,.28-.47,.28-.08,0-.16-.02-.23-.05m2.7-2.78c.1,.43,.09,1.16,.64,1.24,.14,.03,.26,0,.37-.09,.14-.74-.12-1.51,0-2.26-.3-.2-.58-.33-.83-.33-.32,0-.58,.21-.72,.72h.04c.36,0,.58,.37,.5,.71"/><path class="cls-8" d="M54.66,40.13c.05-.68,1.07-.61,1.03,.07-.07,.72,.21,1.06,.95,.99,.2-.72,.19-1.48,.41-2.2-1.2-.56-1.09-.01-2.13,.44-.38,.17-.91-.03-.88-.5,.02-.28,.26-.5,.54-.48,.35-.17,.66-.43,.99-.63,.47-.26,1.04-.1,1.51,.08,.51,.13,1.08,.45,1.01,1.06,0,.41-.18,.79-.23,1.19-.1,.74-.06,1.86-.98,2.05-.14,.02-.27,.03-.41,.03-1.18,0-1.95-.81-1.82-2.11"/><path class="cls-8" d="M55.02,42.73c-.32,0-.64-.28-.51-.68,.09-.24,.21-.46,.31-.7,0-.17,.08-.34,.23-.44,.23-.16,.56-.1,.72,.14,.27,.45-.12,.91-.27,1.33-.09,.24-.28,.34-.47,.34Zm-.2-1.34s0,.04,0,.06c.01,.04,.03,.09,.05,.14-.04-.07-.05-.14-.06-.21h0Z"/><path class="cls-8" d="M52.45,41.3c-.53-.54,.3-1.06,.61-1.47,.13-.8,1.24-.5,1.01,.27-.15,.47-.61,.76-.89,1.15-.1,.12-.24,.18-.38,.18-.12,0-.25-.04-.35-.13"/><path class="cls-8" d="M59.12,44.25s.02,0,.03,0c0,0,0,0,0,0,0,0-.02,0-.03,0"/><path class="cls-8" d="M58.87,44.22s-.06,0-.1,0h-.06s-.02,0-.04,0c-.1-.02-.2-.06-.3-.07-.09-.02-.18-.03-.27-.04h0s-.02,0-.02-.01c-.14-.06-.28-.07-.43-.06-.71-.48-1.16-1.49-1.02-2.29,.05-.68,1.07-.61,1.03,.07-.06,.33-.01,.64,.2,.9,.15,.31,.37,.61,.76,.56-.05-.69,.08-1.38,.07-2.08-.4-.3-.95-.33-1.36-.61-.56-.5,.2-1.38,.73-.79,.82,.25,1.87,.67,1.67,1.72-.03,.51-.08,1-.08,1.51,0,.02,0,.04,0,.06-.01,.15-.02,.31-.02,.46,0,.06,0,.13,0,.19-.06,.22-.19,.38-.4,.48-.06,0-.12,0-.17,.02,0,0-.01,0-.02,0-.06,0-.11-.01-.18-.02"/><path class="cls-8" d="M56.71,43.18c.14-.95,1.41-.4,.96,.41-.09,.2-.26,.37-.35,.57-.16,.1-.27,.26-.33,.43-.07,.04-.15,.05-.22,.05-.43,0-.79-.6-.06-1.46"/><path class="cls-8" d="M58.38,44.14c-.09-.02-.18-.03-.27-.04h0s-.01,0-.02,0c-.06-.03-.12-.04-.19-.05,.24-.16,.62-.1,.77,.17-.1-.02-.19-.05-.29-.07"/><path class="cls-8" d="M59.63,43.62c-.28-.2-.74-.28-.7-.73,.09-.49,.42-.54,.77-.42-.02,.36-.04,.71-.06,1.07,0,.09,0,.19-.01,.28,0,0,0,0,0,0,0-.07,0-.14,0-.21"/><path class="cls-8" d="M54.59,49.19c.36-.17,.75-.3,1.1-.48,.45-.25,.76-.67,.92-1.16,.2-.42,.38-.84,.52-1.27,.11-.04,.2-.11,.27-.19h0c.1,0,.21-.01,.31,0,.07,0,.13,.01,.19,.02,.03,0,.06,.01,.08,.02,0,0,0,0,.01,0t0,0s.03,.06,.05,.08c.03,.06,.07,.11,.12,.15-.14,.48-.3,.95-.54,1.4-.29,.98-.91,1.56-1.71,1.98h-.01s-.01,0-.01,0h-.03s-.01,0-.01,0h-.01s-.01,0-.01,0h-.02s-.01,0-.01,0h-.13s-.01,0-.01,0h-.02s-.01,0-.01,0h-.01s-.01,0-.01,0h-.01s-.01,0-.01,0h-.01s-.01,0-.01,0h-.01s-.01,0-.01,0h-.01s-.01,0-.01,0h-.01s-.01,0-.01,0h-.01s-.01,0-.01,0h-.01s-.01,0-.01,0h0s-.01,0-.01,0h-.01s0,0,0,0h0s0,0,0,0h0s0,0,0,0h0s0,0,0,0h0s0,0,0,0h0s0,.01,0,.01h-.01s0,.01,0,.01h0s0,.01,0,.01h-.01s0,.01,0,.01h-.01s-.01,.02-.01,.02h-.01s-.01,.02-.01,.02h-.01s-.01,.02-.01,.02h-.01s-.01,.02-.01,.02h-.01s-.01,.02-.01,.02h-.01s-.01,.02-.01,.02h-.01s-.01,.02-.01,.02h-.01s-.01,.03-.01,.03h-.02s-.01,.03-.01,.03h-.01s-.02,.03-.02,.03h-.01s-.01,.03-.01,.03l-.02,.02-.02,.02h0s-.03,.02-.05,.02c-.06,.02-.12,.03-.18,.03-.52,0-.73-.82-.16-1.01"/><path class="cls-8" d="M58.21,44.12s.05,0,.08,.01c-.03,0-.05,0-.08-.01"/><path class="cls-8" d="M47.99,41.73c.27-.51,.78-.18,1.16-.01,.3,.08,1.05-.08,.75-.51-.6-.63-1.68-.84-2.02-1.7-.15-.64,.85-.92,1.03-.28,.54,.47,1.25,.74,1.75,1.27,.76,.83,.19,2.07-.88,2.22-.1,.03-.24,.05-.38,.05-.69,0-1.68-.34-1.41-1.04"/><path class="cls-8" d="M48.34,48.25c-.52-.42-.73-1.06-1.01-1.64-.41-.83-.67-1.72-.76-2.64-.19-.9-.56-1.76-.7-2.67-.22-1.27,1.8-3.44,2.92-2.15,.83,.57-.29,1.48-.81,.64-.44,.12-.77,.57-1.02,.95-.18,.57,.14,1.11,.25,1.68,.44,1.14,.39,2.42,.96,3.52,.21,.43,.38,.9,.64,1.31,.4,.48,1.63,1.19,.92,1.86-.11,.06-.2,.09-.29,.09-.45,0-.69-.72-1.09-.94"/><path class="cls-8" d="M55.01,49.11c.19-.22,.51-.23,.73-.05,.18,.25,.35,.49,.53,.75h-.02s-.02-.01-.02-.01h-.02s-.02,0-.02,0h-.02s-.02,0-.02,0h-.02s-.02,0-.02,0h-.02s-.01,0-.01,0h-.02s-.01,0-.01,0h-.01s-.01,0-.01,0h-.01s-.01,0-.01,0h-.01s-.01,0-.01,0h-.01s-.01,0-.01,0h-.01s-.01,0-.01,0h-.01s-.01,0-.01,0h-.01s-.01,0-.01,0h-.01s-.01,0-.01,0h-.01s-.01,0-.01,0h-.01s-.01,0-.01,0h-.04s-.01,0-.01,0h-.05s-.01,0-.01,0h-.02s-.01,0-.01,0h-.01s-.01,0-.01,0h-.01s-.01,0-.01,0h-.01s-.01,0-.01,0h-.01s-.01,0-.01,0h-.01s-.01,0-.01,0h-.01s-.01,0-.01,0h-.01s-.01,0-.01,0h-.01s-.01,0-.01,0h-.01s-.01,0-.01,0h-.01s-.01,0-.01,0h0s-.01,0-.01,0h0s0,0,0,0h0s0,0,0,0h0s0,0,0,0h0s0,0,0,0h0s0,0,0,0h0s-.01,.01-.01,.01h0s0,.01,0,.01h-.01s0,.01,0,.01h0s-.01,.01-.01,.01h-.01s-.01,.02-.01,.02h-.01s-.01,.02-.01,.02h-.01s-.01,.02-.01,.02h-.01s-.01,.02-.01,.02h-.01s-.01,.02-.01,.02h-.01s-.01,.03-.01,.03h-.01s0,.02,0,.02c-.21-.32-.33-.64-.11-.9"/><path class="cls-8" d="M50.58,49.47h-.01s-.01,0-.01,0h-.01s-.01,0-.01,0h-.01s-.01,0-.01,0h-.01s-.01,0-.01,0h-.01s-.01,0-.01,0h-.01s-.01,0-.01,0h-.01s-.01,0-.01,0h-.01s-.01,0-.01,0h-.01s-.01,0-.01,0h-.01s-.01,0-.01,0h-.01s-.01,0-.01,0h-.01s-.01,0-.01,0h-.01s-.01,0-.01,0h-.01s-.01,0-.01,0h-.01s-.01,0-.01,0h-.01s-.01,0-.01,0h-.01s-.01,0-.01,0h-.01s-.01,0-.01,0h-.01s-.01,0-.01,0h-.01s-.01,0-.01,0h-.01s-.01,0-.01,0h-.01s-.01,0-.01,0h-.01s-.01,0-.01,0h-.01s-.01,0-.01,0h-.01s-.01,0-.01,0h-.01s-.01,0-.01,0h-.01s-.01,0-.01,0h-.01s-.01,0-.01,0h-.01s-.01,0-.01,0h-.01s-.01,0-.01,0h-.01s-.01,0-.01,0h-.01s-.01,0-.01,0h-.01s-.01,0-.01,0h-.01s-.01,0-.01,0h-.01s-.01,0-.01,0h-.04s-.01,0-.01,0h-.01s-.01,0-.01,0h-.01s0,0,0,0h-.01s0,0,0,0h0s0,0,0,0h0s0,.01,0,.01h0s0,.01,0,.01h0s0,.02,0,.02h0s0,.02,0,.02h0s0,.03,0,.03v.02s-.01,0-.01,0c0-.02,0-.04-.01-.05-.29-.44-1.16-.88-.71-1.48,.34-.38,.79-.07,1.01,.26,.27,.34,.66,.62,.77,1.06,.01,.11,.03,.22,.04,.33h0Z"/><path class="cls-8" d="M58.7,46.07c-.17,.16-.38,.24-.54,.41-.36,.92-1.45,.16-.85-.61,.15-.19,.35-.34,.56-.47,.34-.24,.7-.67,1.16-.55,.32,.08,.39,.41,.54,.66,.28,.28,.71,.71,1.12,.48-.26-.63-1.52-2.37-.28-2.62,.69,.03,.43,.84,.75,1.26,.63,1,1.04,2.1-.48,2.44-.08,.01-.15,.02-.23,.02-.69,0-1.34-.51-1.74-1.03"/><path class="cls-8" d="M59.82,44.09c-.19-.02-.38-.06-.56-.15-.4-.2-.3-.85,.12-.95,.13-.04,.25-.01,.37,.04,.27,.07,.59,.03,.8,.26,.35,.35,.38,.99-.2,1.08-.02,0-.04,0-.06,0-.19,0-.38-.1-.47-.27"/><path class="cls-8" d="M54.47,49.83h.02s.02-.03,.02-.03h.02s.02-.03,.02-.03h.02s.02-.03,.02-.03h.02s.02-.02,.02-.02h.02s.01-.02,.01-.02h.02s.01-.02,.01-.02h.01s.02-.02,.02-.02h.01s.01-.02,.01-.02h.01s.01-.02,.01-.02h.01s.01-.02,.01-.02h.01s.01-.02,.01-.02h.01s.01-.01,.01-.01h.01s.01-.01,.01-.01h.01s0-.01,0-.01h0s.01,0,.01,0h0s.01,0,.01,0h0s0,0,0,0h0s0,0,0,0h0s0,0,0,0h0s0,0,0,0h.01s0,0,0,0h.01s.01,0,.01,0h.01s.01,0,.01,0h.01s.01,0,.01,0h.01s.01,0,.01,0h.01s.01,0,.01,0h.01s.01,0,.01,0h.01s.01,0,.01,0h.05s.01,0,.01,0h.04s.01,0,.01,0h.02s.01,0,.01,0h.02s.01,0,.01,0h.01s.01,0,.01,0h.01s.01,0,.01,0h.01s.01,0,.01,0h.01s.01,0,.01,0h.01s.01,0,.01,0h.01s.01,0,.01,0h.01s.01,0,.01,0c-.32,.12-.66,.22-1.01,.3h0Z"/><path class="cls-8" d="M57.1,54.77c-.64-1.39-1.25-2.79-1.98-4.13-.09-.25-.34-.59-.51-.92h0s.01-.01,.01-.01h.01s.01-.02,.01-.02h.02s.01-.02,.01-.02h.01s.01-.02,.01-.02h.01s.01-.02,.01-.02h.01s.01-.02,.01-.02h.01s.01-.01,.01-.01h.01s.01-.01,.01-.01h.01s.01-.01,.01-.01h0s.01-.01,.01-.01h0s.01,0,.01,0h0s.01,0,.01,0h0s0,0,0,0h.01s0,0,0,0h0s0,0,0,0h.01s.01,0,.01,0h0s.01,0,.01,0h.01s.01,0,.01,0h.01s.01,0,.01,0h.01s.01,0,.01,0h.01s.01,0,.01,0h.02s.01,0,.01,0h.04s.01,0,.01,0h.04s.01,0,.01,0h.02s.01,0,.01,0h.01s.01,0,.01,0h.01s.01,0,.01,0h.01s.01,0,.01,0h.01s.01,0,.01,0h.01s.01,0,.01,0h.01s.01,0,.01,0h.01s.01,0,.01,0h.01s.01,0,.01,0h.01s.01,0,.01,0h.01s.01,0,.01,0h.01s.01,0,.01,0h.01s.01,0,.01,0h.01s.01,0,.01,0h.01s.01,0,.01,0h.01s.01,0,.01,0h.01s.01,.01,.01,.01h.01s.02,.01,.02,.01h.02s.02,.01,.02,.01h.02s.02,.01,.02,.01h.02s.02,.01,.02,.01h.02s.02,.01,.02,.01h0c1.13,2.12,2.12,4.33,3.05,6.55,.22,.57,.47,1.14,.68,1.72l-.05,.04-.08,.08-.08,.08-.07,.08-.07,.08-.07,.08-.06,.08-.06,.08-.06,.08-.06,.08-.06,.08-.06,.08h0c-.4-1.39-1.08-2.7-1.61-4.06"/><path class="cls-8" d="M51.86,61.59s-.01,0-.02,0c-.01,0-.03,0-.04-.01-.02-.01-.05-.02-.07-.03-.03-.02-.06-.03-.09-.05-.02-.02-.05-.04-.07-.06-.05-.05-.09-.09-.13-.14-.08-.46-.14-.85-.21-1.04-.53-2.11-.65-4.27-1.09-6.4-.26-1.19-.57-2.39-.79-3.59-.02-.11-.03-.23-.05-.34-.01-.06-.02-.13-.04-.19-.07-.44-.13-.89-.17-1.34h0s0-.02,0-.02h0s0-.02,0-.02h0s0-.02,0-.02h.01s0-.02,0-.02h0s0-.01,0-.01h0s0,0,0,0h0s0,0,0,0h.01s.01,0,.01,0h0s.01,0,.01,0h.03s.01,0,.01,0h.02s.01,0,.01,0h.01s.01,0,.01,0h.01s.01,0,.01,0h.01s.01,0,.01,0h.01s.01,0,.01,0h.01s.01,0,.01,0h.01s.01,0,.01,0h.01s.01,0,.01,0h.01s.01,0,.01,0h.01s.01,0,.01,0h.01s.01,0,.01,0h.01s.01,.01,.01,.01h.01s.01,0,.01,0h.01s.01,.01,.01,.01h.01s.01,.01,.01,.01h.01s.01,.01,.01,.01h.01s.01,.01,.01,.01h.01s.01,.01,.01,.01h.01s.01,.01,.01,.01h.01s.01,.01,.01,.01h.01s.01,.01,.01,.01h.01s.01,.01,.01,.01h.01s.01,.01,.01,.01h.01s.01,.01,.01,.01h.01s.01,.01,.01,.01h.01s.01,.01,.01,.01h.01s.01,.01,.01,.01h.01s.01,.01,.01,.01h.01s.01,.01,.01,.01h.01s.01,.01,.01,.01h.01s.01,.01,.01,.01h.01s.01,.01,.01,.01h.01s.01,.01,.01,.01h.01s.01,.01,.01,.01h.01s.01,.01,.01,.01h.01s.01,0,.01,0h0c.06,1.28,.43,2.53,.71,3.78,.47,1.89,.68,3.83,.95,5.76,.22,.9,.4,1.81,.57,2.72-.08,.21-.14,.43-.17,.65-.12,.02-.24,.04-.37,.04,0,0-.01,0-.02,0"/><path class="cls-8" d="M51.85,61.59s-.01,0-.02,0c-.01,0-.03,0-.04-.01-.03-.01-.05-.02-.07-.03-.03-.02-.06-.03-.09-.05-.02-.02-.04-.03-.06-.05,.07-.22,.23-.37,.57-.33,.07,.01,.12,.04,.17,.06-.03,.12-.06,.25-.08,.38-.12,.02-.24,.03-.37,.04,0,0-.01,0-.02,0"/><path class="cls-8" d="M48.93,59.35s0-.07,0-.11h.02s.05,0,.07,.01c.13,.02,.29,.04,.42,0-.18,.18-.35,.35-.53,.53,0-.14,.01-.29,.02-.43"/><path class="cls-8" d="M50.64,57.76c0-.07-.02-.14-.04-.2,0-.01,0-.03,0-.04,0-.13,0-.25-.02-.38,.04,.06,.1,.1,.17,.14-.07-.04-.12-.09-.17-.14,0-.03,0-.07-.01-.1-.01-.11-.03-.23-.05-.34,0-.03-.01-.06-.02-.09,.17-.22,.37-.4,.68-.26,.7,.35,.07,1.07-.3,1.43-.08,.09-.17,.18-.25,.26,.01-.09,0-.18,0-.26"/><path class="cls-8" d="M48.88,60.26c0-.09,.02-.19,.02-.28,.02-.21,.02-.42,.03-.63v-.11h.02s.05,0,.07,.01c.14,.02,.31,.04,.44,0,.01,0,.02,0,.03-.01,.04,.08,.08,.15,.11,.23,.13,.24,.27,.49,.4,.74l-.03,.02-.03,.03-.03,.03-.03,.04-.04,.04-.03,.04-.03,.04-.04,.05-.04,.05-.04,.05-.04,.06-.04,.06-.04,.06-.04,.06-.04,.06-.03,.07-.03,.07-.03,.07-.03,.07h0c-.18-.32-.34-.63-.48-.91"/><path class="cls-8" d="M48.74,60.04c-.02-.2-.12-.41-.2-.62-.04-.24-.09-.48-.13-.72,0-.02,0-.04-.01-.06,.02-.08,.06-.15,.12-.22,.48-.43,.94,.12,1,.61,.13,.45,.51,1.17-.14,1.38-.05,.01-.09,.02-.14,.02-.22,0-.43-.15-.5-.38"/><path class="cls-8" d="M55.51,67.18c-.16,0-.32,0-.48-.02-.61-.07-1.17-.32-1.71-.62,.04-.07,.05-.14,.06-.22,0-.05,0-.1,0-.15,.06-.04,.12-.1,.15-.16,.03-.07,.06-.15,.07-.23,0-.1,0-.2-.02-.29,.03,.02,.05,.04,.08,.06,2.48,1.41,3.52,.26,4.68-1.92,.86-1.29,.95-2.8,.47-4.25-.05-.3-.12-.58-.2-.87h.01s.06-.1,.06-.1l.06-.08,.06-.08,.06-.08,.06-.08,.06-.08,.07-.08,.07-.08,.07-.08,.08-.08,.08-.08,.05-.04c.17,.46,.3,.93,.38,1.42,.58,1.78,.49,3.57-.56,5.16-.79,1.41-1.66,2.89-3.36,3.01-.07,0-.14,0-.22,0-.04,0-.09,0-.13,0"/><path class="cls-8" d="M53.45,66.21c.07-.26,.36-.34,.59-.24,.25-.08,.54,.15,.49,.42-.04,.25-.26,.36-.5,.36-.32,0-.67-.2-.58-.54m.33,.05c.01-.06,.04-.11,.08-.15-.03,.04-.06,.09-.07,.14,0,0,0,0,0,0,0,0,0,.01,0,.02"/><path class="cls-8" d="M49.26,60.85h0s.03-.08,.03-.08l.03-.07,.03-.07,.04-.07,.04-.06,.04-.06,.04-.06,.04-.06,.03-.06,.04-.05,.04-.05,.04-.05,.03-.04,.03-.04,.04-.04,.03-.04,.03-.03,.03-.03,.03-.02c1.08,2,2.16,4.02,3.83,5.6,.28,.28,.62,.44,.96,.62,.32,.23,.26,.75-.11,.9-1.78-.01-3.97-3.61-5.33-6.14"/><path class="cls-8" d="M27.32,86.65c-.52-.44,.13-.96,.37-1.36,.25-.37,.47-.76,.67-1.15,.36-.48,.36-1.46,1.06-1.53,.28,0,.52,.24,.52,.52-.21,.57-1.5,3.64-2.37,3.64-.09,0-.18-.03-.25-.1"/><path class="cls-8" d="M31.26,82.5c-.18-.11-.41,.03-.59-.14-.15-.11-.23-.31-.2-.49,.27-.95,1.62-.29,1.9,.34,.57,1.01,.13,2.23,.5,3.3,.13,.47,.65,.67,1.09,.68,.68,0,.68,1.03,0,1.04-3.44-.27-1.61-3.86-2.7-4.74"/><path class="cls-8" d="M30.09,91.77c-.17-.01-.31-.13-.38-.27-5.58-.77-8.22-5.72-4.82-10.31,.06-.04,.1-.09,.15-.14,.02-.03,.05-.05,.07-.08,.07-.08,.13-.15,.19-.23,.01-.02,.03-.03,.04-.05,0,0,0,0,0,0,.11-.12,.25-.25,.32-.4,2.29-2.29,6.04-3.3,8.88-1.45,1.54,.97,2.81,2.52,3.1,4.35,.89,4.92-2.28,8.59-7.14,8.59-.13,0-.27,0-.41,0m-2.68-11.59c-2.49,1.63-4.16,5.46-2.03,8,1.02,1.2,2.4,1.88,3.92,2.19,.41,.13,.95,.04,1.27,.37,4.26-.06,6.8-3.18,6.04-7.38-.33-1.95-1.93-3.52-3.74-4.18-.55-.19-1.11-.28-1.67-.28h0c-1.34,0-2.69,.5-3.79,1.28"/><path class="cls-8" d="M25.32,80.69c.11-.05,.23-.1,.34-.14,.07-.03,.14-.06,.21-.09t0,0c-.19,.09-.38,.17-.57,.26,0,0,.01-.02,.02-.03"/><path class="cls-8" d="M44.27,75.74s0,0,0,0c-.31-.57-.47-1.23-.77-1.81-.19-.29-.2-.77,.24-.8,.44-.27,.63,.25,.72,.59,.2,.64,.48,1.25,.57,1.92,.06,.49-.68,.6-.76,.1"/><path class="cls-8" d="M16.65,75.19c-.21-.06-.31-.27-.27-.47,.13-.52,.27-1.03,.4-1.56,.15-.44,.2-.99,.49-1.35,.21-.18,.57-.04,.61,.23,.02,.09,0,.19-.04,.27-.19,.54-.33,1.09-.46,1.64-.08,.32-.18,.64-.25,.97-.05,.2-.28,.32-.47,.27"/><path class="cls-8" d="M16.95,74.83c-.19-.08-.28-.31-.2-.5,.25-.68,.43-1.28,.71-1.93,.19-.66,1.1-.32,.72,.26-.29,.66-.47,1.3-.72,1.97-.07,.2-.32,.28-.5,.2"/><path class="cls-8" d="M43.2,23.34c0-.21,0-.42,0-.63,0-.12,0-.25-.01-.37,0-.05,0-.1,0-.16,0-.07,0-.15-.02-.22,.27-.38,.53-.77,.79-1.16,.13-.15,.27-.39,.43-.65,.13-.18,.26-.36,.39-.54l.45-.61s.03-.04,.05-.07c.05-.03,.1-.06,.14-.07,.43-.1,.8,.43,.54,.79-.84,1.24-1.64,2.52-2.53,3.73-.08,.11-.15,.21-.23,.32,0-.12,0-.24,0-.36"/><path class="cls-8" d="M43.67,25.34c-.63-.34-.09-1.02,.19-1.41,.34-.48,.7-.93,1.06-1.39,.71-.92,1.43-1.83,2.14-2.76,.24-.25,.38-.67,.74-.77,.43-.1,.8,.43,.54,.79-.26,.36-.54,.72-.82,1.07-.88,1.13-1.77,2.26-2.63,3.4-.34,.32-.49,1.12-.99,1.12-.07,0-.15-.02-.23-.05m.66-.74c-.03-.05-.07-.1-.12-.13,.05,.04,.09,.08,.12,.13"/><path class="cls-8" d="M44.7,20.74c-.34-.17-.33-.48-.21-.76,.09-.13,.18-.25,.28-.38,.13-.18,.27-.36,.4-.54,.23-.28,.46-.56,.7-.84,.44-.51,1.22,.15,.79,.67-.37,.43-.74,.87-1.08,1.32-.17,.26-.35,.58-.65,.58-.07,0-.15-.02-.23-.06"/><path class="cls-8" d="M45.98,18.71c-.3-.33-.05-.78,.32-.91,.54-.21,1.34-1.26,1.85-.6,.37,.61-.46,.91-.85,1.19-.28,.16-.64,.48-.97,.48-.12,0-.25-.05-.36-.17"/><path class="cls-8" d="M47.44,18.41c.04-.53-.21-1.59,.64-1.5,.67,.15,.33,1.1,.4,1.6-.05,.5,.18,1.44-.57,1.44-.74-.1-.41-1.03-.46-1.54"/><path class="cls-8" d="M47.06,20.09c-.34-.07-.67-.2-.92-.43-.31-.25-.6-.93-.03-1.04,.44-.05,.37,.47,.72,.6,.14,.07,.29,.1,.43,.14,.44,.12,.31,.75-.09,.75-.04,0-.07,0-.11-.02"/><path class="cls-8" d="M47.68,18.92c-.08-.02-.14-.06-.19-.12-.01-.01-.02-.02-.04-.03-.29,.05-.45-.16-.46-.38,0-.2,.12-.39,.39-.38,.29-.04,.57,.12,.72,.36,.16,.25-.06,.57-.33,.57-.03,0-.07,0-.1-.02"/><path class="cls-8" d="M21.13,30.76c-2.45-.32-3.9-2.38-3.78-4.78,.15-1.62,1.52-3.18,3.14-3.44,.41-.07,.64,.22,.65,.51,0,.27-.17,.55-.56,.52-1.04,.22-1.88,1.18-2.15,2.19-.15,1.12,.2,2.39,1.04,3.17,.51,.44,1.16,.68,1.82,.8,.64,.1,.54,1.03-.06,1.03-.03,0-.05,0-.08,0"/><path class="cls-8" d="M40.17,31.05c-.39-.21-.31-.85,.12-.95,.75-.14,1.53-.36,2.02-.98,.54-.66,1-1.44,1.05-2.31,.08-1.31-.55-2.81-1.77-3.38-.41-.15-1.14-.05-1.15-.66,0-.28,.24-.52,.52-.52,2.54,.16,3.93,3.22,3.29,5.49-.42,1.26-1.24,2.52-2.5,3.04-.39,.11-.83,.33-1.25,.33-.11,0-.22-.02-.33-.05"/><path class="cls-8" d="M30.2,37.47c-1.44-.29-2.91-.59-4.25-1.21-1.66-.92-3.31-2.12-4.2-3.85-.94-1.74-1.07-3.76-1.32-5.68-.12-1.02-.22-2.05-.23-3.07-.06-.54,.11-1.24,.79-.94,.41,.24,.19,.76,.25,1.14,.05,1.45,.22,2.89,.42,4.32,.21,1.53,.49,3.1,1.39,4.38,1.41,1.87,3.53,3.12,5.8,3.55,.86,.2,1.6,.44,2.46,.39,.28,0,.52,.24,.52,.52-.04,.43-.37,.54-.74,.54-.31,0-.65-.07-.89-.08"/><path class="cls-8" d="M28.74,37.45c-.67,0-.68-1.04,0-1.04,1.04,.06,2.09,.09,3.13-.01,2.2-.14,4.2-.64,5.6-2.47,2.55-2.74,2.83-7.36,2.83-10.94-.07-.5,.69-.81,.97-.31,.25,2.78-.17,5.67-.96,8.35-.46,1.62-1.45,3.02-2.63,4.2-1.82,1.93-4.54,2.26-7.13,2.26-.62,0-1.23-.02-1.81-.04"/><path class="cls-8" d="M40.32,27.52c-.11-.09-.17-.21-.19-.31-.17-.8-.37-1.6-.55-2.41-.2-.91-.36-1.83-.61-2.72-.06-.31-.33-.62-.14-.94,.15-.25,.46-.32,.71-.19,.3,.2,.34,.61,.45,.92,.34,1.32,.57,2.68,.9,4.01,.09,.38,.18,.77,.26,1.16,.06,.33-.23,.59-.53,.59-.11,0-.21-.03-.3-.11"/><path class="cls-8" d="M21.21,29.59c-.81-.2-.27-1.23-.29-1.8,.12-1.07,.26-2.14,.45-3.21,.13-.72,.27-1.45,.42-2.17,.14-.44,.07-1.22,.69-1.24,.8,.06,.41,.95,.33,1.42-.29,1.41-.54,2.83-.73,4.25-.09,.77-.19,1.53-.29,2.3-.03,.26-.27,.45-.52,.45-.02,0-.05,0-.07,0"/><path class="cls-8" d="M19.35,23.24c.02-.6,.87-.6,1.23-.96,2.61-2.17,5.93-3.24,9.29-3.43,4.27-.51,8.34,.84,11.81,3.3,.29,.25,.74,.42,.83,.83,.07,.44-.49,.78-.83,.48-.3-.26-.63-.49-.95-.71-1.9-1.24-3.89-2.2-6.09-2.69-3.11-.54-6.4-.25-9.38,.75-.92,.32-1.83,.72-2.64,1.27-.49,.26-1.97,1.67-2.77,1.67-.25,0-.44-.14-.51-.5"/><path class="cls-8" d="M19.2,21.05c-.79-.84,2.84-2.29,3.43-2.58,4.08-1.64,8.66-2.14,12.96-1.12,2.19,.52,4.42,1.21,6.26,2.54,.51,.32,.12,1.17-.48,.92-1.07-.78-2.29-1.31-3.53-1.75-5.22-1.86-11.14-1.52-16.1,.96-.46,.24-.92,.49-1.34,.78-.1,.07-.21,.16-.32,.24-.03,.01-.07,.02-.1,.04-.02,0-.03,.02-.05,.02-.04,.02-.08,.04-.11,.06-.06,.03-.11,.06-.16,.09-.03,0-.06,0-.09,0-.13,0-.25-.06-.37-.2"/><path class="cls-8" d="M42.95,23.71c-.48-.17-.27-.64-.3-1.01-.12-.78-.57-1.55-1.25-1.96-.88-.38-.09-1.9,1.31-.24,.36,.42,.64,.9,.82,1.42,.2,.53,.37,1.81-.4,1.81-.06,0-.12,0-.18-.02"/><path class="cls-8" d="M19.04,23.43c-.05-.06-.1-.13-.14-.19,.04-.03,.08-.05,.12-.08,.08-.05,.16-.11,.23-.17,.02-.01,.04-.02,.05-.04,.15-.09,.31-.18,.47-.27,.02,.03,.04,.05,.06,.08,.33,.38-.04,.86-.42,.86-.13,0-.26-.05-.37-.19"/><path class="cls-8" d="M18.74,22.93l.06-.03s-.04,.03-.05,.04c0,0,0,0,0,0"/><path class="cls-8" d="M19.32,20.5s0,0,0,0c0,0-.02,.02-.02,.02,.41-.4,.97,.06,.87,.49,0,0-.01,0-.02,0-.05,.01-.11,.03-.16,.05-.02,0-.03,.02-.05,.02-.04,.02-.08,.04-.12,.06-.21,.11-.42,.23-.62,.36-.11,.07-.22,.13-.33,.2-.09,.06-.18,.12-.27,.18,.06-.53,.31-1.04,.72-1.39"/><path class="cls-8" d="M18.21,23.76c-.38-1.28,.57-3.2,1.73-3.78,.28-.04,.55,.13,.6,.42,.05,.26-.11,.47-.32,.59-.24,.23-.44,.49-.62,.77-.27,.46-.51,.97-.44,1.51,.03,.23,.1,.36,0,.57-.09,.18-.27,.27-.46,.27-.22,0-.44-.12-.49-.35"/><path class="cls-8" d="M17.79,24.02c-.07-.54-.13-1.08-.17-1.62h0s.01-.02,.01-.02h.01s.01-.02,.01-.02h.01s.01-.02,.01-.02h.01s.01-.02,.01-.02h.01s.01-.02,.01-.02h.01s.01-.02,.01-.02h.01s.01-.02,.01-.02h.01s.01-.02,.01-.02h.01s.01-.02,.01-.02h.01s0-.02,0-.02h.01s.01-.02,.01-.02h0s.01-.02,.01-.02h0s.01-.02,.01-.02h0s.01-.02,.01-.02h0s.01-.02,.01-.02h.01s0-.02,0-.02h.01s0-.02,0-.02h0s.01-.02,.01-.02h0s0-.02,0-.02h0s0-.02,0-.02h0s0-.02,0-.02h0s0-.02,0-.02h0s0-.02,0-.02h0s0-.02,0-.02h0s0-.02,0-.02h0s0-.02,0-.02h0s0-.02,0-.02h0s0-.02,0-.02h0s0-.02,0-.02h0s0-.02,0-.02h0s0-.02,0-.02h0s0-.02,0-.02h0s0-.02,0-.02h0s0-.02,0-.02h0s0-.02,0-.02h0s0-.02,0-.02h0s0-.02,0-.02h0s0-.02,0-.02h0s0-.02,0-.02h0s0-.02,0-.02h0s0-.02,0-.02h0s0-.02,0-.02h0s0-.02,0-.02h0s0-.02,0-.02h0s0-.02,0-.02h0s0-.02,0-.02h0s0-.02,0-.02h0s0-.02,0-.02h0s0-.02,0-.02h0s0-.02,0-.02h0s0-.02,0-.02h0s0-.02,0-.02h0s0-.02,0-.02h0s0-.02,0-.02h0s0-.02,0-.02h0s0-.02,0-.02h0s0-.03,0-.03h0s0-.03,0-.03h0c.05,.86,.14,1.72,.24,2.59,.05,.37-.24,.58-.53,.58-.23,0-.46-.13-.5-.43"/><path class="cls-8" d="M43.15,24.16c.04-3.73-.05-7.5-.59-11.21l.2,.02,.3,.02,.3,.02,.26,.02c.39,2.85,.52,5.75,.57,8.62,.01,.7,.02,1.39,0,2.08,.02,.39-.02,.94-.53,.94-.27,0-.53-.24-.52-.52"/><path class="cls-8" d="M28.03,32.92c-.97-.5,.83-1.4,1.29-1.56,1.11-.36,2.3-.16,3.43-.38,2.08-.35,2.35-1.78,2.91-1.36,.59,.56-.88,1.37-1.29,1.62-1.94,1.13-4.36-.01-5.96,1.57,.03-.03,.05-.05,.06-.09-.07,.13-.2,.21-.34,.21-.03,0-.07,0-.1-.01"/><path class="cls-8" d="M20.85,22.22c-.71-.09-1.33-.7-1.31-1.43-.01-.3,.07-.73,.44-.73,.28,0,.47,.32,.34,.56-.13,.52,.38,.91,.86,.86,.11,0,.24-.03,.38-.06,.32-.08,.64-.15,.77,.21,.09,.31-.2,.5-.48,.52-.25,.06-.5,.1-.75,.1-.08,0-.16,0-.24-.02"/><path class="cls-8" d="M24.31,20.86c-.91-.15-1.96-1.18-1.27-2.1,.38-.51,1.11,.14,.57,.53-.13,.42,.43,.66,.73,.8,.24,0,.44,.2,.41,.44-.03,.2-.2,.33-.39,.33-.01,0-.03,0-.04,0"/><path class="cls-8" d="M27.23,20c-.68-.19-1-.94-1.01-1.6,0-.23,.01-.49,.2-.64,.15-.13,.38-.12,.52,.02,.13,.13,.14,.34,.04,.48-.01,.14,.01,.28,.04,.42,.05,.24,.17,.49,.41,.58,.44,.13,.31,.75-.09,.75-.03,0-.07,0-.11-.02"/><path class="cls-8" d="M31.68,19.75c-.86-.31-1.8-1.22-1.83-2.18,0-.63,.97-.51,.77,.1,.14,.59,.71,1.12,1.26,1.34,.44,.13,.31,.75-.09,.75-.04,0-.07,0-.11-.02"/><path class="cls-8" d="M34.82,20.02c-.62-.36-1.07-1.02-1.16-1.72-.03-.34,0-.89,.45-.91,.3-.01,.49,.35,.32,.6-.07,.55,.33,1.1,.78,1.38,.36,.22,.14,.72-.19,.72-.06,0-.13-.02-.19-.06"/><path class="cls-8" d="M37.62,20.77c-.52-.49-.85-1.22-.74-1.94,.02-.29,.06-.68,.39-.77,.34-.11,.63,.33,.4,.6-.14,.57,.05,1.17,.49,1.56,.27,.27,.02,.65-.28,.65h0c-.09,0-.18-.03-.26-.11"/><path class="cls-8" d="M40.19,22.08c-.29-.6-.57-1.16-.49-1.83,.06-.36,.11-.88,.51-1.02,.42-.15,.72,.43,.35,.68-.26,.61,.02,1.24,.29,1.78,.17,.3-.09,.58-.35,.58-.12,0-.23-.05-.31-.19"/><path class="cls-8" d="M19.26,11.49h0s0-.02,0-.02h0s0-.02,0-.02h0s0-.02,0-.02h0s0-.02,0-.02h0s0-.02,0-.02h0s0-.03,0-.03h0s0-.03,0-.03h0s0-.03,0-.03h0s0-.03,0-.03h0s0-.03,0-.03v-.02s-.01-.02-.01-.02v-.02s-.01-.02-.01-.02v-.02s-.01-.02-.01-.02v-.02s-.02-.02-.02-.02v-.02s-.02-.02-.02-.02v-.02s-.02-.02-.02-.02v-.02s-.02-.02-.02-.02v-.02s-.03-.02-.03-.02v-.02s-.03-.02-.03-.02v-.02s-.03-.02-.03-.02l-.02-.02-.02-.02-.02-.02-.02-.02-.02-.02-.02-.02-.02-.02h-.02s-.02-.03-.02-.03h-.02s0-.02,0-.02c0,0,0,0,.01,0,.4,0,.61,.42,.48,.77,0,0,0,.01,0,.02h0Z"/><path class="cls-8" d="M43.36,13.45l-.3-.02-.3-.02-.2-.02c-.13-.87-.27-1.73-.45-2.59-.3-.79,.94-1.12,1.01-.26,.2,.97,.37,1.95,.5,2.93l-.26-.02Z"/><path class="cls-8" d="M19.24,11.45h0s0-.02,0-.02h0s0-.02,0-.02h0s0-.02,0-.02h0s0-.03,0-.03h0s0-.03,0-.03h0s0-.03,0-.03h0s0-.03,0-.03h0s0-.03,0-.03v-.02s-.01-.02-.01-.02v-.02s-.01-.02-.01-.02v-.02s-.02-.02-.02-.02v-.02s-.02-.02-.02-.02v-.02s-.02-.02-.02-.02v-.02s-.02-.02-.02-.02v-.02s-.02-.02-.02-.02v-.02s-.03-.02-.03-.02v-.02s-.03-.02-.03-.02l-.02-.02v-.02s-.03-.02-.03-.02l-.02-.02-.02-.02-.02-.02-.02-.02-.02-.02-.02-.02h-.02s-.02-.03-.02-.03h-.02s-.02-.03-.02-.03h-.02s-.02-.03-.02-.03h-.02c.62-.96,3.66-1.93,4.26-2.04,6.59-1.61,13.74-1.56,20.01,1.21,.61,.26,.22,1.22-.4,.96-.42-.17-.85-.34-1.27-.5,0,0,0,0-.01,0-.13-.06-.27-.11-.41-.14-.05-.02-.1-.04-.15-.05-6.01-2.16-12.76-1.85-18.83-.07-.7,.26-1.38,.56-2,.97-.21,.12-.41,.37-.64,.46h0Z"/><path class="cls-8" d="M41.77,10.72s-.04-.06-.06-.08c-.11-.14-.27-.26-.44-.34-.11-.05-.23-.1-.35-.13,.5-.08,1-.15,1.5-.21,.32-.08,.7,.06,.75,.43,.04,.27-.16,.56-.44,.58-.23,.02-.45,.05-.68,.08-.07-.13-.16-.24-.28-.33"/><path class="cls-8" d="M41.7,10.67s.02,.01,.03,.02c0,0-.02-.01-.03-.02"/><path class="cls-8" d="M41.66,10.63s.02,.02,.03,.03c0,0,0,0,0,0-.01-.01-.02-.02-.03-.03"/><path class="cls-8" d="M19.36,11.59h0s0,0,0,0h0s0,0,0,0h0s0,0,0,0h0s0-.01,0-.01h0s0-.01,0-.01h0s0-.02,0-.02h0s0-.02,0-.02h0s0-.02,0-.02h0s0-.02,0-.02h0s0-.02,0-.02h0s0-.02,0-.02h0s0-.02,0-.02h0s0-.02,0-.02h0s0-.02,0-.02h0s0-.03,0-.03h0s0-.03,0-.03h0s0-.03,0-.03v-.02s-.01-.02-.01-.02v-.02s-.01-.02-.01-.02v-.02s-.01-.02-.01-.02v-.02s-.01-.02-.01-.02v-.02s-.02-.02-.02-.02v-.02s-.02-.02-.02-.02v-.02s-.02-.02-.02-.02v-.02s-.02-.02-.02-.02v-.02s0,0,0,0c.43-.13,.88-.16,1.33-.16-.14,.08-.25,.16-.37,.28,.03-.03,.05-.05,.08-.08-.07,.07-.14,.13-.22,.19-.09,.07-.18,.13-.27,.19-.09,.06-.17,.13-.24,.21h0Z"/><path class="cls-8" d="M19.62,11.42s0,0,0,0c-.02,.01-.03,.02-.05,.03,.01,0,.03-.02,.04-.03"/><path class="cls-8" d="M18.08,13.54l.12-.03,.29-.08,.29-.08,.29-.08,.11-.03c-.31,1.99-.52,4-.63,6-.03,.71-.04,1.42-.02,2.12h0s0,.03,0,.03h0s0,.03,0,.03h0s0,.03,0,.03h0s0,.02,0,.02h0s0,.02,0,.02h0s0,.02,0,.02h0s0,.02,0,.02h0s0,.02,0,.02h0s0,.02,0,.02h0s0,.02,0,.02h0s0,.02,0,.02h0s0,.02,0,.02h0s0,.02,0,.02h0s0,.02,0,.02h0s0,.02,0,.02h0s0,.02,0,.02h0s0,.02,0,.02h0s0,.02,0,.02h0s0,.02,0,.02h0s0,.02,0,.02h0s0,.02,0,.02h0s0,.02,0,.02h0s0,.02,0,.02h0s0,.02,0,.02h0s0,.02,0,.02h0s0,.02,0,.02h0s0,.02,0,.02h0s0,.02,0,.02h0s0,.02,0,.02h0s0,.02,0,.02h0s0,.02,0,.02h0s0,.02,0,.02h0s0,.02,0,.02h0s0,.02,0,.02h0s0,.02,0,.02h0s0,.02,0,.02h0s0,.02,0,.02h0s0,.02,0,.02h-.01s0,.02,0,.02h-.01s0,.02,0,.02h-.01s0,.02,0,.02h-.01s-.01,.02-.01,.02h-.01s-.01,.02-.01,.02h-.01s-.01,.02-.01,.02h0s-.01,.02-.01,.02h-.01s-.01,.02-.01,.02h0s-.01,.02-.01,.02h-.01s-.01,.02-.01,.02h-.01s-.01,.02-.01,.02h-.01s-.01,.02-.01,.02h-.01s-.01,.02-.01,.02h-.01s-.01,.02-.01,.02h-.01s-.01,.02-.01,.02h-.01s-.01,.02-.01,.02h-.01s-.01,.02-.01,.02h-.01s-.01,.02-.01,.02h-.01s-.01,.02-.01,.02h-.01s-.01,.02-.01,.02h0c-.11-2.99,.13-5.99,.57-8.95"/><path class="cls-8" d="M18.15,13.38c.19-.63,.24-3.19,1.01-3.08h0s.02,.02,.02,.02l.02,.02,.02,.02,.02,.02,.02,.02,.02,.02,.02,.02,.02,.02v.02s.03,.02,.03,.02v.02s.03,.02,.03,.02v.02s.03,.02,.03,.02v.02s.03,.02,.03,.02v.02s.02,.02,.02,.02v.02s.02,.02,.02,.02v.02s.02,.02,.02,.02v.02s.02,.02,.02,.02v.02s.01,.02,.01,.02v.02s.01,.02,.01,.02v.02s0,.02,0,.02v.02s.01,.02,.01,.02v.02s0,.01,0,.01h0s0,.03,0,.03h0s0,.03,0,.03h0s0,.03,0,.03h0s0,.03,0,.03h0s0,.03,0,.03h0s0,.02,0,.02h0s0,.02,0,.02h0s0,.02,0,.02h0c-.02,.12-.05,.23-.07,.35,0,.02-.01,.03-.02,.05-.04,.11-.06,.23-.06,.35-.11,.6-.22,1.21-.31,1.81l-.11,.03-.29,.08-.29,.08-.29,.08-.12,.03c.03-.21,.06-.42,.1-.62"/><path class="cls-8" d="M19.17,11.05c-.28-.26-.28-.54-.1-.8h.02s.02,.03,.02,.03h.02s.02,.03,.02,.03l.02,.02,.02,.02,.02,.02,.02,.02,.02,.02,.02,.02,.02,.02,.02,.02,.02,.02v.02s.03,.02,.03,.02v.02s.03,.02,.03,.02v.02s.03,.02,.03,.02v.02s.02,.02,.02,.02v.02s.02,.02,.02,.02v.02s.02,.02,.02,.02v.02s.02,.02,.02,.02v.02s.02,.02,.02,.02v.02s.01,.02,.01,.02v.02s.01,.02,.01,.02v.02s.01,.02,.01,.02v.02s0,.01,0,.01h0s0,.03,0,.03h0s0,.03,0,.03h0s0,.03,0,.03h0s0,.03,0,.03h0s0,.03,0,.03h0s0,.02,0,.02h0s0,.02,0,.02c-.06,.02-.12,.04-.18,.03-.08,0-.16-.03-.24-.09"/><path class="cls-8" d="M19.4,10.58v.02s.02,.02,.02,.02v.02s.02,.02,.02,.02v.02s.02,.02,.02,.02v.02s.02,.02,.02,.02v.02s.02,.02,.02,.02v.02s.01,.02,.01,.02v.02s.01,.02,.01,.02v.02s0,.02,0,.02v.02s0,.02,0,.02h0s0,.03,0,.03h0s0,.03,0,.03h0s0,.03,0,.03h0s0,.03,0,.03h0s0,.03,0,.03h0s0,.02,0,.02h0s0,.02,0,.02h0s0,.02,0,.02h0s0,.02,0,.02h0s0,.02,0,.02h0s0,.02,0,.02h0s0,.02,0,.02h0s0,.01,0,.01h0s0,.01,0,.01h0s0,.01,0,.01h0s0,0,0,0h0s0,0,0,0c-.07,.08-.14,.18-.18,.29-.01,.03-.02,.07-.03,.1-.44-.08-.63-.85-.09-1.06"/><path class="cls-8" d="M39.94,19.24c-.41-.11-.42-.56-.3-.89,.34-1.58-1.31-2.58-2.69-2.66-.97,0-1.93,.24-2.88,.39-.86,.21-1.75,.29-2.63,.22-.36,.05-.79-.09-.79-.52,0-.28,.23-.52,.52-.52,2.45,.31,4.9-1.23,7.27-.28,1.26,.45,2.33,1.59,2.27,3,0,.49-.06,1.42-.76,1.26"/><path class="cls-8" d="M21.98,19.24c.41-.11,.42-.56,.3-.89-.34-1.58,1.31-2.58,2.69-2.66,.97,0,1.93,.24,2.88,.39,.86,.21,1.75,.29,2.63,.22,.36,.05,.79-.09,.79-.52,0-.28-.23-.52-.52-.52-2.45,.31-4.9-1.23-7.27-.28-1.26,.45-2.33,1.59-2.27,3,0,.49,.06,1.42,.76,1.26"/><path class="cls-8" d="M25.47,35.72c-.42-.19-.15-.67,.02-.94,.19-.22,.23-.66,.59-.65,.39,.02,.5,.46,.26,.73-.27,.31-.36,1.06-.87,.87m.59-.83c-.09,0-.18-.05-.16-.05,.05,.03,.11,.05,.16,.05"/><path class="cls-8" d="M37.07,34.87c-.19-.27-.66-.32-.68-.7,.13-.77,.92-.16,1.22,.15,.35,.36-.18,.89-.54,.54"/><path class="cls-8" d="M28.89,35.53c-.19-.05-.33-.27-.27-.47,.08-.26,.2-.59,.52-.59,.33,0,.51,.43,.27,.65-.06,.24-.24,.5-.53,.41"/><path class="cls-8" d="M32.35,35.34c-.04-.24-.16-.47-.03-.7,.19-.33,.74-.21,.73,.19-.03,.2,.12,.41,0,.6-.15,.29-.63,.23-.7-.09"/><path class="cls-8" d="M34.11,35.25c-.03-.07-.08-.11-.14-.15-.41-.35,.11-.92,.51-.59,.71,.52,.11,1.29-.37,.74m.32-.76s-.11-.06-.17-.07h0s-.02,0-.03,0c.07,0,.14,.03,.2,.07"/><path class="cls-8" d="M30.82,28.95c-.7-.16-.96-.96-.78-1.6,.09-.37,.29-.69,.42-1.05,.09-.21,.06-.46,.18-.65,.26-.34,.75-.04,.68,.3,.03,.63-1.01,1.88-.34,2.25,.12,.04,.25,.04,.37,.04,.33-.02,.51,.43,.27,.65-.1,.09-.23,.12-.37,.12-.14,0-.3-.03-.43-.06"/><path class="cls-8" d="M26.66,28.32c-2.15-.06-3.4-1.77-2.49-3.79,1.01-2.26,4.47-2.3,5.17,.16,.29,1.11-.03,2.37-.94,3.09-.45,.38-1.16,.76-1.74,.54m.36-.71c2.33-.47,2.21-4.18-.39-4.01-1.46,.06-2.51,1.92-1.72,3.18,.39,.54,1.11,.71,1.74,.78,.13,0,.27-.03,.38,.06"/><path class="cls-8" d="M26.25,26.85c-.82-.38-.99-1.76-.22-2.27,.24-.13,.53-.16,.79-.2,.73,.04,1.31,.78,1.18,1.5-.07,.5-.47,1.06-1.03,1.02-.22,.11-.51,.05-.72-.05"/><path class="cls-8" d="M35.46,28.32c-2.15-.06-3.4-1.77-2.49-3.79,1.01-2.26,4.47-2.3,5.17,.16,.29,1.11-.03,2.37-.94,3.09-.45,.38-1.16,.76-1.74,.54m.36-.71c2.33-.47,2.21-4.18-.39-4.01-1.46,.06-2.51,1.92-1.72,3.18,.39,.54,1.11,.71,1.74,.78,.13,0,.27-.03,.38,.06"/><path class="cls-8" d="M35.05,26.85c-.82-.38-.99-1.76-.22-2.27,.24-.13,.53-.16,.79-.2,.73,.04,1.31,.78,1.18,1.5-.07,.5-.47,1.06-1.03,1.02-.22,.11-.51,.05-.72-.05"/><path class="cls-6" d="M25.12,19.62c-.29,.5,.32,1.39,1.35,1.99,1.03,.6,2.1,.68,2.39,.18,.29-.5-.32-1.39-1.35-1.99-1.03-.6-2.1-.68-2.39-.18"/><path class="cls-10" d="M28.38,22.3c1.41-.22,1.15-1.65,.16-2.28-.91-.66-2.12-1.13-3.23-.79-.51,.14-.78,.69-.66,1.19,.13,.61,.72,.94,1.22,1.21,.23,.2,.57,.26,.84,.39,.53,.2,1.09,.34,1.66,.28m-.47-.76c-.56-.05-1.08-.3-1.59-.51-.25-.22-.6-.32-.82-.59-.54-.85,1.19-.55,1.56-.37,.62,.13,2.59,1.56,.86,1.47"/><path class="cls-6" d="M36.81,19.62c.29,.5-.32,1.39-1.35,1.99-1.03,.6-2.1,.68-2.39,.18-.29-.5,.32-1.39,1.35-1.99,1.03-.6,2.1-.68,2.39-.18"/><path class="cls-10" d="M35.22,22.02c.28-.13,.61-.19,.84-.39,.5-.28,1.09-.61,1.22-1.22,.12-.5-.15-1.05-.66-1.19-1.12-.34-2.32,.13-3.23,.79-.98,.64-1.25,2.06,.16,2.28,.57,.06,1.14-.07,1.66-.28m-.34-1.94c.37-.18,2.1-.48,1.56,.37-.22,.27-.57,.37-.82,.59-.52,.21-1.03,.46-1.59,.51-1.73,.09,.23-1.33,.86-1.47"/></g><g><path class="cls-1" d="M10.5,13.85s-2.91-4.42-1.74-12.2c.22-1.44,1.32-1.43,2.14-1.3,.74,.12,4.14,.8,8.41,3.27l1.12,11.05-9.93-.82Z"/><path class="cls-1" d="M53.15,13.85s2.91-4.42,1.74-12.2c-.22-1.44-1.32-1.43-2.14-1.3-.74,.12-4.14,.8-8.41,3.27l-6.36,5.4,10.3,6.28,4.87-1.46Z"/><path class="cls-4" d="M17.65,6.89c-2.55-2.43-4.85-3.05-5.2-3.11-.39-.06-.93-.17-.98,.52-.19,3.15,1.5,5.91,1.5,5.91l4.2,2.17,.48-5.5Z"/><path class="cls-4" d="M50.67,10.21s1.69-2.76,1.5-5.91c-.04-.7-.58-.59-.98-.52-.36,.06-2.65,.68-5.2,3.11v5.12l4.68-1.8Z"/><path class="cls-1" d="M54.84,22.46c0,9.33-10.32,15.27-23.04,15.27s-23.04-5.94-23.04-15.27S19.07,3.95,31.8,3.95s23.04,9.18,23.04,18.51Z"/><ellipse class="cls-2" cx="22.91" cy="13.61" rx="2.03" ry="2.03"/><circle class="cls-8" cx="22.91" cy="13.53" r="1.14"/><ellipse class="cls-2" cx="40.67" cy="13.61" rx="2.03" ry="2.03"/><circle class="cls-8" cx="40.67" cy="13.53" r="1.14"/><path class="cls-3" d="M34.11,17.21c.05-1.12-.45-1.94-.45-1.94,.66-.48,1.13-1.22,1.13-1.22-.43-.31-1.97-.41-1.97-.41-.55-1.12-1.03-1.62-1.03-1.62-.65,.62-1.09,1.62-1.09,1.62,0,0-1.54,.1-1.97,.41,0,0,.47,.73,1.13,1.22,0,0-.49,.83-.45,1.94,0,0,1.37-.14,2.3-.89,.81,.6,1.74,.87,2.4,.89Z"/><ellipse class="cls-2" cx="18.37" cy="16.3" rx="2.05" ry=".99"/><ellipse class="cls-2" cx="45.08" cy="16.3" rx="2.05" ry=".99"/><path class="cls-5" d="M24.94,17.2s.15,3.35,2.82,3.35,3.74-2.28,3.96-4.15"/><path class="cls-5" d="M38.53,17.2s-.15,3.35-2.82,3.35-3.74-2.28-3.96-4.15"/><path class="cls-5" d="M36,37.47s-4.36,.99-8.39,.01"/><path class="cls-2" d="M45.31,7.58c.7,.89,.26,1.59-.15,1.87-3.46,2.38-10.54-.42-12.36-3.91-.13-.24-.2-1.09,.64-1.41l6.65,3.1,5.22,.35"/><path class="cls-2" d="M18.29,7.58l3.66-1.59,8.21-1.86c.85,.32,.77,1.17,.64,1.41-1.88,3.6-8.85,6.33-12.36,3.91-.41-.28-.85-.98-.15-1.87"/><path class="cls-3" d="M30.86,4.83s.97-.38,1.99,0l1.07,.07-.54-.95c-1.6-.38-3.11,0-3.11,0l-.86,.91,1.46-.03Z"/><path class="cls-4" d="M29.4,2.81s.49,.77,.87,1.55c.11,.23,.11,.49-.01,.72-1.48,2.85-8.47,5.71-11.45,3.65-.37-.26-.57-.7-.52-1.15,.26-2.11,1-3.9,1-3.9l5.02-.88h5.08Z"/><path class="cls-4" d="M44.31,3.68s.74,1.79,1,3.9c.06,.45-.15,.89-.52,1.15-2.98,2.06-9.97-.8-11.45-3.65-.12-.22-.12-.49-.01-.72,.39-.79,.87-1.55,.87-1.55h4.09s6.02,.88,6.02,.88Z"/><ellipse class="cls-2" cx="24.33" cy="3.37" rx="5.07" ry="1.97" transform="translate(-.21 2.3) rotate(-5.38)"/><ellipse class="cls-2" cx="39.27" cy="3.37" rx="1.97" ry="5.07" transform="translate(32.23 42.15) rotate(-84.62)"/><path class="cls-3" d="M45.7,8.71s3.92,1.29,7.39,7.06c0,0,.39-.91-.38-2.4-2.02-3.93-5.66-6.04-7.53-6.63l.51,1.98Z"/><path class="cls-3" d="M17.87,8.71s-3.92,1.29-7.39,7.06c0,0-.39-.91,.38-2.4,2.02-3.93,5.66-6.04,7.53-6.63l-.51,1.98Z"/><ellipse class="cls-4" cx="24.35" cy="3.34" rx="3.9" ry="1.22" transform="translate(-.21 2.3) rotate(-5.38)"/><ellipse class="cls-4" cx="39.25" cy="3.34" rx="1.22" ry="3.9" transform="translate(32.25 42.11) rotate(-84.62)"/></g><g><polygon class="cls-6" points="50.86 52.67 50.38 49.52 48.69 47.66 47.54 45.94 47.33 43.53 46.74 41.68 46.99 40.82 48.08 39.88 50.32 40.98 51.59 37.62 52.12 36.58 53.31 36.2 54.35 36.83 54.83 39.38 56.12 38.32 57.94 38.78 57.94 40.33 59.09 40.82 59.47 41.68 59.47 43.1 60.89 44.09 61.24 46.54 60.89 47.17 59.24 46.42 58.68 46.25 57.42 49 55.39 50.09 58.07 55.12 59.31 58.58 60 61.3 59.82 63.1 58.59 65.15 57.44 66.8 56.59 66.96 55.65 67.04 52.24 65.19 49.11 58.64 50.3 57.53 51.48 56.77 50.86 52.67"/><polygon class="cls-6" points="4.97 40.01 6.92 35.15 5.25 34.6 2.91 32.9 2.53 34.18 1.28 34.47 .88 33.31 .82 31.26 2.72 29.92 2.37 28.85 1.97 27.84 3.2 26.32 4.88 27.42 4.77 24.06 6.52 23.28 8 25.45 8.45 23.28 9.39 22.13 11.5 22.75 12 24.76 13.42 28.77 14.84 30.41 16.7 31.65 16.97 33.11 16.08 34.54 14.68 34.76 12.17 34.76 12.04 39.1 11.06 47.99 10.7 49.18 11.18 52.51 11.21 53.77 8.89 54.52 6.78 54.46 5.26 54.13 4.2 53.61 3.91 52.48 2.47 49.2 3.3 45.84 4.97 40.01"/><path class="cls-8" d="M46.86,60.78c-.15,0-.3-.07-.4-.2-.17-.22-.13-.56,.09-.73,.77-.56,1.5-1.18,2.2-1.79,.71-.64,1.44-1.29,2.12-1.96,0,0-.02,.01-.02,.02,0,0,0,0,0,0,.44-.45,1.17,.19,.78,.68-.31,.34-.66,.64-1,.96-1.1,1.01-2.22,2.02-3.43,2.9-.1,.07-.21,.1-.32,.1h0Z"/><path class="cls-8" d="M11.94,38.2s-.02,.02-.04,.03c.01-.01,.02-.02,.04-.03"/><path class="cls-8" d="M11.44,58.69c-.8-.06-.26-1.82-.37-2.42,.02-2.72-.23-5.45-.76-8.12-.02-.66,1.03-.7,1.04-.02,.33,1.57,.54,3.16,.65,4.76,.11,1.56,.16,3.13,.07,4.7-.01,.43,.01,1.11-.55,1.11-.03,0-.05,0-.08,0"/><path class="cls-8" d="M12.8,46.93s-.07-.09-.09-.15v.02s0,0,0,0c.02,.05,.05,.09,.08,.13"/><path class="cls-8" d="M11.54,56.26c-.05,0-.11,0-.16,0-.03-.02-.05-.03-.08-.04-.06-.03-.12-.05-.18-.07,0-.12,0-.25,0-.37,0-2.46-.25-4.95-.87-7.33-.16-.4-.19-1,.37-1.05,.48-.04,.56,.46,.64,.82,.17,.64,.32,1.29,.43,1.95,.31,1.97,.53,3.98,.47,5.98-.14,.03-.29,.06-.43,.1,0,0-.01,0-.02,0-.06,0-.11,0-.17,0"/><path class="cls-8" d="M7.82,55.02c-.22-.64,.77-.98,.98-.34,.17,.48,.39,.96,.65,1.42-.07-.03-.14-.05-.21-.06-.21-.04-.4-.05-.6,.04-.08,.04-.16,.08-.23,.14-.02,0-.04,0-.05,0-.23-.45-.41-.87-.53-1.21"/><path class="cls-8" d="M49.74,51.33s-.02-.08-.03-.13c-.02-.21-.05-.42-.08-.62,0,.01,0,.02,0,.03-.02-.14-.04-.28-.06-.41-.02-.09-.03-.19-.07-.27,0-.09-.02-.18-.06-.25,.18,0,.36,.07,.46,.23,.19,.49,0,1.03-.14,1.55,0-.04-.02-.08-.02-.12"/><path class="cls-8" d="M48.82,59.78c-.05-.27-.1-.54-.15-.81,0-.05-.02-.1-.03-.15,.16-.13,.32-.27,.48-.41,.08-.07,.16-.15,.25-.23,0,0,0,0,0,.01,.06,.13,.11,.27,.21,.37,.02,.02,.04,.03,.06,.04,.03,.08,.06,.16,.09,.24,.02,.04,.03,.08,.05,.13,0,0,0,.02,0,.03,.01,.06,.03,.11,.04,.16-.32,.28-.64,.56-.98,.82-.01-.07-.02-.14-.04-.21"/><path class="cls-8" d="M50.72,57.17s0,0,0,0c0-.03-.01-.05-.01-.07h0c-.02-.08-.03-.16-.05-.25,.2-.26,.53-.43,.82-.2,.25,.19,.27,.59,.03,.8-.2,.23-.41,.46-.62,.69-.05-.32-.11-.65-.17-.97"/><path class="cls-8" d="M11.9,33.87c-.13-.98,.19-1.46,1.01-1.96,1.85-1.24,2.09,.38,1.27,.55-.46,.11-.85,.42-1.22,.71-.13,.48,0,1.05,.42,1.34,.21-.13,.46-.19,.69-.27,.38-.16,.73-.37,1.21-.41,.13-.04,.29-.03,.44-.03,.23,0,.46,.02,.63-.14,.25-.43,0-1.23,0-1.74-.22-.45-.73-.71-1.15-.96-1.65-.78-2.48-1.95-2.98-3.67-.26-.78-.58-1.54-.82-2.32-.1-.48-.2-.97-.37-1.44-.11-.78-1.2-.29-1.23-1.08,.1-1.03,1.76-.3,2.02,.31,.37,.7,.45,1.51,.67,2.26,.34,.85,.62,1.71,.94,2.57,.63,2.2,2.43,2.11,3.69,3.58,.41,.62,.32,1.43,.37,2.15,.04,.5-.21,.99-.62,1.27-.47,.35-1.06,.19-1.6,.29-.29,.06-.54,.22-.81,.33-.23,.08-.47,.13-.66,.27-.14,.08-.27,.11-.41,.11-.75,0-1.44-1.04-1.48-1.72"/><path class="cls-8" d="M7.73,25.71c-.18-.34-.12-.74-.07-1.11,.05-.45,.07-.91,.18-1.36,.32-1.67,1.51-1.72,2.87-1.2,.58,.14,.48,1.02-.12,1.02-.35-.05-.68-.19-1.02-.28-.87-.17-.74,1.14-.86,1.71-.14,.71-.09,1.18,.75,1.25,.49-.24,.27-1.12,.93-1.13,1.16,.16,.1,1.92-.58,2.11-.13,.03-.26,.05-.39,.05-.7,0-1.44-.41-1.69-1.07"/><path class="cls-8" d="M4.42,26.09c-.04-.75-.42-1.75,.09-2.39,.35-.27,.69-.53,1.11-.68,.64-.39,1.52-.57,1.93,.25,.32,.59,.66,1.16,.95,1.77,.08,.2,.22,.37,.23,.6,0,.28-.24,.52-.52,.52-.55-.03-.6-.73-.87-1.1-.19-.47-.51-.87-.72-1.33-.45,.12-.93,.38-1.31,.68,.01,.94,.18,1.88,.23,2.82,.39,.31,.94,.03,1.09-.39,.09-.26-.09-.52,.01-.77,.16-.41,.8-.42,.95,0,.38,.98-.35,2.09-1.33,2.33-.07,0-.14,0-.21,0-1.52,0-1.62-.92-1.64-2.29"/><path class="cls-8" d="M3.51,30.44c-.42,0-.72-.31-1.02-.7-.32-.46-.78-.78-1.11-1.23-.56-1.17,.78-2.04,1.33-2.91,.6-.62,2.18,.91,2.76,1.25,.47,.46-.21,1.2-.7,.77,.33,.38,.31,.9,.24,1.37,0,.64-.49,1.11-1.05,1.34-.16,.07-.31,.1-.44,.1h0Zm-1.03-2.86c-.1,.13-.22,.25-.19,.42,.46,.43,.86,.91,1.27,1.38,.14-.07,.33-.16,.4-.31,.02-.26,.14-.58,0-.81-.32-.32-.06-.89,.36-.89,.04,0,.08,0,.12,.02-.36-.3-.76-.54-1.16-.79-.28,.31-.58,.62-.8,.98"/><path class="cls-8" d="M5.78,35.28c-1.04-.42-1.92-1.14-2.61-2.01-.21,.96-1.33,2.22-2.27,1.28-.34-.29-.35-.77-.42-1.18-.08-.55-.22-1.1-.21-1.66,0-.51,.02-1.1,.48-1.42,.28-.25,.61-.42,.87-.7,.19-.13,.43-.18,.61-.32,.39-.37,1.03-.21,.99,.38-.1,.44-.62,.61-.99,.78-.24,.3-.62,.43-.88,.71-.13,.89,.07,1.82,.29,2.67,.38-.21,.47-.65,.6-1.04,.06-.24,.02-.5,.17-.72,.34-.45,.9-.1,1.27,.13,.15,.11,.21,.28,.3,.43,.17,.22,.39,.41,.55,.64,.27,.23,.57,.43,.83,.66,.41,.25,.87,.43,1.31,.62,.18,.09,.33,.2,.54,.16,.47-.01,.9-.16,1.33-.35,.5-.07,1.53-.41,1.6,.39,0,.54-.55,.52-.95,.55-.59,.08-1.09,.43-1.7,.42-.11,.03-.21,.04-.31,.04-.49,0-.94-.27-1.39-.46"/><path class="cls-8" d="M9.4,50.44c.64-1.84,.76-3.85,1.25-5.75,.18-1.67,.55-3.31,.69-4.98,.2-1.84,.22-3.69,.48-5.52-.19-.74,.73-1.14,1.01-.4-.08,1.98-.31,3.99-.46,5.97-.1,1.58-.5,3.12-.64,4.7-.5,2.16-.7,4.42-1.43,6.53-.11,.27-.3,.39-.48,.39-.37,0-.72-.46-.42-.94"/><path class="cls-8" d="M4.9,54.81c-1.49-.98-2.17-2.81-2.78-4.42-.7-2.51-.08-4.59,.89-6.91,1.05-2.7,2.21-5.35,3.32-8.03-.23-.58,.62-.99,.93-.45,.37,.69-.3,1.38-.48,2.04-.53,1.51-1.32,2.91-1.83,4.42-.94,2.52-2.5,5.08-1.99,7.87,.25,1.39,1.24,3.72,2.4,4.55,1.16,.41,2.45,.39,3.62,.03,.65-.12,1.33-.15,1.93-.46,.62-.27,1.02,.7,.4,.96-.65,.32-1.36,.4-2.06,.5-.54,.11-1.06,.29-1.61,.31-.92-.02-1.89-.06-2.74-.42"/><path class="cls-8" d="M50.3,40.95c-.47-.24-.23-.75-.04-1.1,.33-.89,.82-1.71,1.17-2.59,.52-1.8,2.07-1.98,3.41-.85,.39,.43,.1,1.05,.21,1.57,.02,.68,.22,1.46-.24,2.04-.6,.64-1.7,.57-2.28-.07-.32-.4-.43-.93-.53-1.43-.35,.73-.67,1.46-1,2.2-.09,.18-.28,.28-.47,.28-.08,0-.16-.02-.23-.05m2.7-2.78c.1,.43,.09,1.16,.64,1.24,.14,.03,.26,0,.37-.09,.14-.74-.12-1.51,0-2.26-.3-.2-.58-.33-.83-.33-.32,0-.58,.21-.72,.72h.04c.36,0,.58,.37,.5,.71"/><path class="cls-8" d="M54.93,40.4c.05-.68,1.07-.61,1.03,.07-.07,.72,.21,1.06,.95,.99,.2-.72,.19-1.48,.41-2.2-1.2-.56-1.09-.01-2.13,.44-.38,.17-.91-.03-.88-.5,.02-.28,.26-.5,.54-.48,.35-.17,.66-.43,.99-.63,.47-.26,1.04-.1,1.51,.08,.51,.13,1.08,.45,1.01,1.06,0,.41-.18,.79-.23,1.19-.1,.74-.06,1.86-.98,2.05-.14,.02-.27,.03-.41,.03-1.18,0-1.95-.81-1.82-2.11"/><path class="cls-8" d="M55.29,43c-.32,0-.64-.28-.51-.68,.09-.24,.21-.46,.31-.7,0-.17,.08-.34,.23-.44,.23-.16,.56-.1,.72,.14,.27,.45-.12,.91-.27,1.33-.09,.24-.28,.34-.47,.34Zm-.2-1.34s0,.04,0,.06c.01,.04,.03,.09,.05,.14-.04-.07-.05-.14-.06-.21h0Z"/><path class="cls-8" d="M52.73,41.57c-.53-.54,.3-1.06,.61-1.47,.13-.8,1.24-.5,1.01,.27-.15,.47-.61,.76-.89,1.15-.1,.12-.24,.18-.38,.18-.12,0-.25-.04-.35-.13"/><path class="cls-8" d="M59.39,44.52s.02,0,.03,0c0,0,0,0,0,0,0,0-.02,0-.03,0"/><path class="cls-8" d="M59.14,44.49s-.06,0-.1,0h-.06s-.02,0-.04,0c-.1-.02-.2-.06-.3-.07-.09-.02-.18-.03-.27-.04h0s-.02,0-.02-.01c-.14-.06-.28-.07-.43-.06-.71-.48-1.16-1.49-1.02-2.29,.05-.68,1.07-.61,1.03,.07-.06,.33-.01,.64,.2,.9,.15,.31,.37,.61,.76,.56-.05-.69,.08-1.38,.07-2.08-.4-.3-.95-.33-1.36-.61-.56-.5,.2-1.38,.73-.79,.82,.25,1.87,.67,1.67,1.72-.03,.51-.08,1-.08,1.51,0,.02,0,.04,0,.06-.01,.15-.02,.31-.02,.46,0,.06,0,.13,0,.19-.06,.22-.19,.38-.4,.48-.06,0-.12,0-.17,.02,0,0-.01,0-.02,0-.06,0-.11-.01-.18-.02"/><path class="cls-8" d="M56.98,43.45c.14-.95,1.41-.4,.96,.41-.09,.2-.26,.37-.35,.57-.16,.1-.27,.26-.33,.43-.07,.04-.15,.05-.22,.05-.43,0-.79-.6-.06-1.46"/><path class="cls-8" d="M58.65,44.41c-.09-.02-.18-.03-.27-.04h0s-.01,0-.02,0c-.06-.03-.12-.04-.19-.05,.24-.16,.62-.1,.77,.17-.1-.02-.19-.05-.29-.07"/><path class="cls-8" d="M59.91,43.89c-.28-.2-.74-.28-.7-.73,.09-.49,.42-.54,.77-.42-.02,.36-.04,.71-.06,1.07,0,.09,0,.19-.01,.28,0,0,0,0,0,0,0-.07,0-.14,0-.21"/><path class="cls-8" d="M54.87,49.46c.36-.17,.75-.3,1.1-.48,.45-.25,.76-.67,.92-1.16,.2-.42,.38-.84,.52-1.27,.11-.04,.2-.11,.27-.19h0c.1,0,.21-.01,.31,0,.07,0,.13,.01,.19,.02,.03,0,.06,.01,.08,.02,0,0,0,0,.01,0t0,0s.03,.06,.05,.08c.03,.06,.07,.11,.12,.15-.14,.48-.3,.95-.54,1.4-.29,.98-.91,1.56-1.71,1.98h-.01s-.01,0-.01,0h-.03s-.01,0-.01,0h-.01s-.01,0-.01,0h-.02s-.01,0-.01,0h-.13s-.01,0-.01,0h-.02s-.01,0-.01,0h-.01s-.01,0-.01,0h-.01s-.01,0-.01,0h-.01s-.01,0-.01,0h-.01s-.01,0-.01,0h-.01s-.01,0-.01,0h-.01s-.01,0-.01,0h-.01s-.01,0-.01,0h-.01s-.01,0-.01,0h0s-.01,0-.01,0h-.01s0,0,0,0h0s0,0,0,0h0s0,0,0,0h0s0,0,0,0h0s0,0,0,0h0s0,.01,0,.01h-.01s0,.01,0,.01h0s0,.01,0,.01h-.01s0,.01,0,.01h-.01s-.01,.02-.01,.02h-.01s-.01,.02-.01,.02h-.01s-.01,.02-.01,.02h-.01s-.01,.02-.01,.02h-.01s-.01,.02-.01,.02h-.01s-.01,.02-.01,.02h-.01s-.01,.02-.01,.02h-.01s-.01,.03-.01,.03h-.02s-.01,.03-.01,.03h-.01s-.02,.03-.02,.03h-.01s-.01,.03-.01,.03l-.02,.02-.02,.02h0s-.03,.02-.05,.02c-.06,.02-.12,.03-.18,.03-.52,0-.73-.82-.16-1.01"/><path class="cls-8" d="M58.48,44.39s.05,0,.08,.01c-.03,0-.05,0-.08-.01"/><path class="cls-8" d="M48.26,42c.27-.51,.78-.18,1.16-.01,.3,.08,1.05-.08,.75-.51-.6-.63-1.68-.84-2.02-1.7-.15-.64,.85-.92,1.03-.28,.54,.47,1.25,.74,1.75,1.27,.76,.83,.19,2.07-.88,2.22-.1,.03-.24,.05-.38,.05-.69,0-1.68-.34-1.41-1.04"/><path class="cls-8" d="M48.61,48.52c-.52-.42-.73-1.06-1.01-1.64-.41-.83-.67-1.72-.76-2.64-.19-.9-.56-1.76-.7-2.67-.22-1.27,1.8-3.44,2.92-2.15,.83,.57-.29,1.48-.81,.64-.44,.12-.77,.57-1.02,.95-.18,.57,.14,1.11,.25,1.68,.44,1.14,.39,2.42,.96,3.52,.21,.43,.38,.9,.64,1.31,.4,.48,1.63,1.19,.92,1.86-.11,.06-.2,.09-.29,.09-.45,0-.69-.72-1.09-.94"/><path class="cls-8" d="M55.28,49.38c.19-.22,.51-.23,.73-.05,.18,.25,.35,.49,.53,.75h-.02s-.02-.01-.02-.01h-.02s-.02,0-.02,0h-.02s-.02,0-.02,0h-.02s-.02,0-.02,0h-.02s-.01,0-.01,0h-.02s-.01,0-.01,0h-.01s-.01,0-.01,0h-.01s-.01,0-.01,0h-.01s-.01,0-.01,0h-.01s-.01,0-.01,0h-.01s-.01,0-.01,0h-.01s-.01,0-.01,0h-.01s-.01,0-.01,0h-.01s-.01,0-.01,0h-.01s-.01,0-.01,0h-.01s-.01,0-.01,0h-.04s-.01,0-.01,0h-.05s-.01,0-.01,0h-.02s-.01,0-.01,0h-.01s-.01,0-.01,0h-.01s-.01,0-.01,0h-.01s-.01,0-.01,0h-.01s-.01,0-.01,0h-.01s-.01,0-.01,0h-.01s-.01,0-.01,0h-.01s-.01,0-.01,0h-.01s-.01,0-.01,0h-.01s-.01,0-.01,0h-.01s-.01,0-.01,0h0s-.01,0-.01,0h0s0,0,0,0h0s0,0,0,0h0s0,0,0,0h0s0,0,0,0h0s0,0,0,0h0s-.01,.01-.01,.01h0s0,.01,0,.01h-.01s0,.01,0,.01h0s-.01,.01-.01,.01h-.01s-.01,.02-.01,.02h-.01s-.01,.02-.01,.02h-.01s-.01,.02-.01,.02h-.01s-.01,.02-.01,.02h-.01s-.01,.02-.01,.02h-.01s-.01,.03-.01,.03h-.01s0,.02,0,.02c-.21-.32-.33-.64-.11-.9"/><path class="cls-8" d="M50.85,49.74h-.01s-.01,0-.01,0h-.01s-.01,0-.01,0h-.01s-.01,0-.01,0h-.01s-.01,0-.01,0h-.01s-.01,0-.01,0h-.01s-.01,0-.01,0h-.01s-.01,0-.01,0h-.01s-.01,0-.01,0h-.01s-.01,0-.01,0h-.01s-.01,0-.01,0h-.01s-.01,0-.01,0h-.01s-.01,0-.01,0h-.01s-.01,0-.01,0h-.01s-.01,0-.01,0h-.01s-.01,0-.01,0h-.01s-.01,0-.01,0h-.01s-.01,0-.01,0h-.01s-.01,0-.01,0h-.01s-.01,0-.01,0h-.01s-.01,0-.01,0h-.01s-.01,0-.01,0h-.01s-.01,0-.01,0h-.01s-.01,0-.01,0h-.01s-.01,0-.01,0h-.01s-.01,0-.01,0h-.01s-.01,0-.01,0h-.01s-.01,0-.01,0h-.01s-.01,0-.01,0h-.01s-.01,0-.01,0h-.01s-.01,0-.01,0h-.01s-.01,0-.01,0h-.01s-.01,0-.01,0h-.01s-.01,0-.01,0h-.01s-.01,0-.01,0h-.01s-.01,0-.01,0h-.04s-.01,0-.01,0h-.01s-.01,0-.01,0h-.01s0,0,0,0h-.01s0,0,0,0h0s0,0,0,0h0s0,.01,0,.01h0s0,.01,0,.01h0s0,.02,0,.02h0s0,.02,0,.02h0s0,.03,0,.03v.02s-.01,0-.01,0c0-.02,0-.04-.01-.05-.29-.44-1.16-.88-.71-1.48,.34-.38,.79-.07,1.01,.26,.27,.34,.66,.62,.77,1.06,.01,.11,.03,.22,.04,.33h0Z"/><path class="cls-8" d="M58.98,46.34c-.17,.16-.38,.24-.54,.41-.36,.92-1.45,.16-.85-.61,.15-.19,.35-.34,.56-.47,.34-.24,.7-.67,1.16-.55,.32,.08,.39,.41,.54,.66,.28,.28,.71,.71,1.12,.48-.26-.63-1.52-2.37-.28-2.62,.69,.03,.43,.84,.75,1.26,.63,1,1.04,2.1-.48,2.44-.08,.01-.15,.02-.23,.02-.69,0-1.34-.51-1.74-1.03"/><path class="cls-8" d="M60.09,44.36c-.19-.02-.38-.06-.56-.15-.4-.2-.3-.85,.12-.95,.13-.04,.25-.01,.37,.04,.27,.07,.59,.03,.8,.26,.35,.35,.38,.99-.2,1.08-.02,0-.04,0-.06,0-.19,0-.38-.1-.47-.27"/><path class="cls-8" d="M54.74,50.1h.02s.02-.03,.02-.03h.02s.02-.03,.02-.03h.02s.02-.03,.02-.03h.02s.02-.02,.02-.02h.02s.01-.02,.01-.02h.02s.01-.02,.01-.02h.01s.02-.02,.02-.02h.01s.01-.02,.01-.02h.01s.01-.02,.01-.02h.01s.01-.02,.01-.02h.01s.01-.02,.01-.02h.01s.01-.01,.01-.01h.01s.01-.01,.01-.01h.01s0-.01,0-.01h0s.01,0,.01,0h0s.01,0,.01,0h0s0,0,0,0h0s0,0,0,0h0s0,0,0,0h0s0,0,0,0h.01s0,0,0,0h.01s.01,0,.01,0h.01s.01,0,.01,0h.01s.01,0,.01,0h.01s.01,0,.01,0h.01s.01,0,.01,0h.01s.01,0,.01,0h.01s.01,0,.01,0h.05s.01,0,.01,0h.04s.01,0,.01,0h.02s.01,0,.01,0h.02s.01,0,.01,0h.01s.01,0,.01,0h.01s.01,0,.01,0h.01s.01,0,.01,0h.01s.01,0,.01,0h.01s.01,0,.01,0h.01s.01,0,.01,0h.01s.01,0,.01,0c-.32,.12-.66,.22-1.01,.3h0Z"/><path class="cls-8" d="M57.37,55.04c-.64-1.39-1.25-2.79-1.98-4.13-.09-.25-.34-.59-.51-.92h0s.01-.01,.01-.01h.01s.01-.02,.01-.02h.02s.01-.02,.01-.02h.01s.01-.02,.01-.02h.01s.01-.02,.01-.02h.01s.01-.02,.01-.02h.01s.01-.01,.01-.01h.01s.01-.01,.01-.01h.01s.01-.01,.01-.01h0s.01-.01,.01-.01h0s.01,0,.01,0h0s.01,0,.01,0h0s0,0,0,0h.01s0,0,0,0h0s0,0,0,0h.01s.01,0,.01,0h0s.01,0,.01,0h.01s.01,0,.01,0h.01s.01,0,.01,0h.01s.01,0,.01,0h.01s.01,0,.01,0h.02s.01,0,.01,0h.04s.01,0,.01,0h.04s.01,0,.01,0h.02s.01,0,.01,0h.01s.01,0,.01,0h.01s.01,0,.01,0h.01s.01,0,.01,0h.01s.01,0,.01,0h.01s.01,0,.01,0h.01s.01,0,.01,0h.01s.01,0,.01,0h.01s.01,0,.01,0h.01s.01,0,.01,0h.01s.01,0,.01,0h.01s.01,0,.01,0h.01s.01,0,.01,0h.01s.01,0,.01,0h.01s.01,0,.01,0h.01s.01,0,.01,0h.01s.01,.01,.01,.01h.01s.02,.01,.02,.01h.02s.02,.01,.02,.01h.02s.02,.01,.02,.01h.02s.02,.01,.02,.01h.02s.02,.01,.02,.01h0c1.13,2.12,2.12,4.33,3.05,6.55,.22,.57,.47,1.14,.68,1.72l-.05,.04-.08,.08-.08,.08-.07,.08-.07,.08-.07,.08-.06,.08-.06,.08-.06,.08-.06,.08-.06,.08-.06,.08h0c-.4-1.39-1.08-2.7-1.61-4.06"/><path class="cls-8" d="M52.13,61.86s-.01,0-.02,0c-.01,0-.03,0-.04-.01-.02-.01-.05-.02-.07-.03-.03-.02-.06-.03-.09-.05-.02-.02-.05-.04-.07-.06-.05-.05-.09-.09-.13-.14-.08-.46-.14-.85-.21-1.04-.53-2.11-.65-4.27-1.09-6.4-.26-1.19-.57-2.39-.79-3.59-.02-.11-.03-.23-.05-.34-.01-.06-.02-.13-.04-.19-.07-.44-.13-.89-.17-1.34h0s0-.02,0-.02h0s0-.02,0-.02h0s0-.02,0-.02h.01s0-.02,0-.02h0s0-.01,0-.01h0s0,0,0,0h0s0,0,0,0h.01s.01,0,.01,0h0s.01,0,.01,0h.03s.01,0,.01,0h.02s.01,0,.01,0h.01s.01,0,.01,0h.01s.01,0,.01,0h.01s.01,0,.01,0h.01s.01,0,.01,0h.01s.01,0,.01,0h.01s.01,0,.01,0h.01s.01,0,.01,0h.01s.01,0,.01,0h.01s.01,0,.01,0h.01s.01,0,.01,0h.01s.01,.01,.01,.01h.01s.01,0,.01,0h.01s.01,.01,.01,.01h.01s.01,.01,.01,.01h.01s.01,.01,.01,.01h.01s.01,.01,.01,.01h.01s.01,.01,.01,.01h.01s.01,.01,.01,.01h.01s.01,.01,.01,.01h.01s.01,.01,.01,.01h.01s.01,.01,.01,.01h.01s.01,.01,.01,.01h.01s.01,.01,.01,.01h.01s.01,.01,.01,.01h.01s.01,.01,.01,.01h.01s.01,.01,.01,.01h.01s.01,.01,.01,.01h.01s.01,.01,.01,.01h.01s.01,.01,.01,.01h.01s.01,.01,.01,.01h.01s.01,.01,.01,.01h.01s.01,.01,.01,.01h.01s.01,.01,.01,.01h.01s.01,.01,.01,.01h.01s.01,0,.01,0h0c.06,1.28,.43,2.53,.71,3.78,.47,1.89,.68,3.83,.95,5.76,.22,.9,.4,1.81,.57,2.72-.08,.21-.14,.43-.17,.65-.12,.02-.24,.04-.37,.04,0,0-.01,0-.02,0"/><path class="cls-8" d="M52.13,61.86s-.01,0-.02,0c-.01,0-.03,0-.04-.01-.03-.01-.05-.02-.07-.03-.03-.02-.06-.03-.09-.05-.02-.02-.04-.03-.06-.05,.07-.22,.23-.37,.57-.33,.07,.01,.12,.04,.17,.06-.03,.12-.06,.25-.08,.38-.12,.02-.24,.03-.37,.04,0,0-.01,0-.02,0"/><path class="cls-8" d="M49.21,59.62s0-.07,0-.11h.02s.05,0,.07,.01c.13,.02,.29,.04,.42,0-.18,.18-.35,.35-.53,.53,0-.14,.01-.29,.02-.43"/><path class="cls-8" d="M50.91,58.03c0-.07-.02-.14-.04-.2,0-.01,0-.03,0-.04,0-.13,0-.25-.02-.38,.04,.06,.1,.1,.17,.14-.07-.04-.12-.09-.17-.14,0-.03,0-.07-.01-.1-.01-.11-.03-.23-.05-.34,0-.03-.01-.06-.02-.09,.17-.22,.37-.4,.68-.26,.7,.35,.07,1.07-.3,1.43-.08,.09-.17,.18-.25,.26,.01-.09,0-.18,0-.26"/><path class="cls-8" d="M49.16,60.53c0-.09,.02-.19,.02-.28,.02-.21,.02-.42,.03-.63v-.11h.02s.05,0,.07,.01c.14,.02,.31,.04,.44,0,.01,0,.02,0,.03-.01,.04,.08,.08,.15,.11,.23,.13,.24,.27,.49,.4,.74l-.03,.02-.03,.03-.03,.03-.03,.04-.04,.04-.03,.04-.03,.04-.04,.05-.04,.05-.04,.05-.04,.06-.04,.06-.04,.06-.04,.06-.04,.06-.03,.07-.03,.07-.03,.07-.03,.07h0c-.18-.32-.34-.63-.48-.91"/><path class="cls-8" d="M49.01,60.31c-.02-.2-.12-.41-.2-.62-.04-.24-.09-.48-.13-.72,0-.02,0-.04-.01-.06,.02-.08,.06-.15,.12-.22,.48-.43,.94,.12,1,.61,.13,.45,.51,1.17-.14,1.38-.05,.01-.09,.02-.14,.02-.22,0-.43-.15-.5-.38"/><path class="cls-8" d="M55.78,67.45c-.16,0-.32,0-.48-.02-.61-.07-1.17-.32-1.71-.62,.04-.07,.05-.14,.06-.22,0-.05,0-.1,0-.15,.06-.04,.12-.1,.15-.16,.03-.07,.06-.15,.07-.23,0-.1,0-.2-.02-.29,.03,.02,.05,.04,.08,.06,2.48,1.41,3.52,.26,4.68-1.92,.86-1.29,.95-2.8,.47-4.25-.05-.3-.12-.58-.2-.87h.01s.06-.1,.06-.1l.06-.08,.06-.08,.06-.08,.06-.08,.06-.08,.07-.08,.07-.08,.07-.08,.08-.08,.08-.08,.05-.04c.17,.46,.3,.93,.38,1.42,.58,1.78,.49,3.57-.56,5.16-.79,1.41-1.66,2.89-3.36,3.01-.07,0-.14,0-.22,0-.04,0-.09,0-.13,0"/><path class="cls-8" d="M53.72,66.48c.07-.26,.36-.34,.59-.24,.25-.08,.54,.15,.49,.42-.04,.25-.26,.36-.5,.36-.32,0-.67-.2-.58-.54m.33,.05c.01-.06,.04-.11,.08-.15-.03,.04-.06,.09-.07,.14,0,0,0,0,0,0,0,0,0,.01,0,.02"/><path class="cls-8" d="M49.53,61.12h0s.03-.08,.03-.08l.03-.07,.03-.07,.04-.07,.04-.06,.04-.06,.04-.06,.04-.06,.03-.06,.04-.05,.04-.05,.04-.05,.03-.04,.03-.04,.04-.04,.03-.04,.03-.03,.03-.03,.03-.02c1.08,2,2.16,4.02,3.83,5.6,.28,.28,.62,.44,.96,.62,.32,.23,.26,.75-.11,.9-1.78-.01-3.97-3.61-5.33-6.14"/></g></svg>