<?xml version="1.0" encoding="UTF-8"?><svg id="_レイヤー_9" xmlns="http://www.w3.org/2000/svg" viewBox="0 0 63.56 131.99"><defs><style>.cls-1{fill:#025999;}.cls-2{fill:#fff;}.cls-3{fill:#ce8a0d;}.cls-4,.cls-5,.cls-6{stroke-linecap:round;stroke-width:.98px;}.cls-4,.cls-5,.cls-6,.cls-7{stroke:#040000;}.cls-4,.cls-6{fill:none;}.cls-4,.cls-7{stroke-miterlimit:10;}.cls-5{fill:#040000;}.cls-5,.cls-6{stroke-linejoin:round;}.cls-7{fill:#e9da21;stroke-width:.18px;}</style></defs><path class="cls-3" d="M46.64,126.11c-.49-1.05-1.87-1.92-3.57-2.46-.68-.25-2.88-.99-2.84-1.41-.16-.76-.95-1.24-1.92-1.46-1.78-.74-4.39-.81-6.27-.04-.04,.06-.08,.12-.11,.18-.11,.2-.2,.41-.28,.62-.1,.25-.2,.5-.39,.73-.14,.17-.33,.33-.5,.49-.1,.09-.2,.18-.33,.26-.31,.2-.69,.31-1.1,.34-.08,0-.16,0-.24,0-.1,0-.21,0-.31,0-.09,0-.17,0-.26,0-.03,0-.07,0-.1,0-.03,0-.07,0-.1,0,0,0,0,0-.01,0-.03,0-.06,0-.09-.01-.03,0-.06,0-.09-.01-.04,0-.08-.01-.11-.02-.02,0-.03,0-.05-.01-.01,0-.02,0-.03,0-.05-.01-.11-.03-.16-.05,0,0,0,0,0,0,0,0,0,0-.01,0-.05-.02-.09-.03-.13-.05-.01,0-.03-.01-.04-.02-.04-.02-.08-.03-.11-.05-.01,0-.02-.01-.03-.02-.05-.02-.09-.05-.13-.08,0,0-.02-.01-.03-.02-.03-.02-.06-.04-.1-.07-.08-.06-.16-.13-.22-.2-.01-.01-.02-.03-.03-.04-.11-.14-.19-.29-.27-.44,0-.01-.02-.03-.02-.04-.02-.03-.04-.06-.07-.1,0,0,0,0,0,0-.02-.02-.04-.04-.06-.07,0,0,0,0,0,0-.12-.14-.26-.28-.4-.41-.04-.03-.08-.06-.11-.09-.08-.02-.16-.04-.24-.06,0,0,0,0,0,0-.05-.01-.09-.02-.14-.03-.03,0-.07-.02-.1-.02,0,0-.01,0-.02,0-.12-.03-.25-.05-.37-.08,0,0,0,0,0,0,0,0-.01,0-.02,0,0,0,0,0,0,0-.05,0-.1-.01-.15-.02-.03,0-.06,0-.09-.01-.02,0-.04,0-.06,0,0,0,0,0,0,0-.01,0-.03,0-.04,0-.05,0-.1,0-.15,0-.11,0-.21,0-.32-.01,0,0-.02,0-.03,0,0,0-.01,0-.02,0-.17,0-.33,0-.5,0,0,0,0,0,0,0h-.02s0,0,0,0c-.13,0-.27,.01-.4,.02,0,0,0,0-.01,0-.02,0-.03,0-.05,0,0,0,0,0,0,0-.06,0-.11,.01-.17,.02,0,0,0,0,0,0-.1,.02-.2,.05-.3,.08-.07,.02-.14,.05-.21,.07-.17,.06-.34,.12-.51,.18-.11,.05-.22,.1-.32,.15-.03,.01-.06,.03-.08,.04-.05,.02-.09,.04-.14,.06,0,0,0,0-.01,0,0,0-.02,0-.03,.01,0,0,0,0,0,0-.14,.06-.28,.12-.41,.19-.01,0-.02,.01-.04,.02-.02,.01-.04,.02-.07,.03-.01,0-.02,.01-.03,.02-.02,.01-.04,.02-.06,.03,0,0,0,0,0,0-.04,.03-.08,.05-.12,.08-.02,.01-.03,.02-.05,.03-.05,.03-.1,.07-.16,.1-.23,.14-.46,.25-.73,.35-.23,.08-.47,.14-.71,.19h0c-.08,.02-.16,.03-.25,.05-.46,.09-.95,.14-1.42,.16h0c-.14,0-.29,0-.43,0-.06,0-.12,0-.18,0,0,0-.01,0-.02,0-.03,0-.06,0-.1,0-.06,0-.13,0-.19-.01-.04,0-.08,0-.12,0-.08,0-.17-.01-.25-.02-.39-.04-.76-.13-1.13-.22-.41-.1-.78-.27-1.06-.5-.29,.02-.57,.05-.84,.1-5.97,.58-9.16,3.16-2.75,4.82,.54,.49,1.46,.86,2.55,1.13,.54,.35,1.02,.74,1.77,.97,.23,.07,.46,.14,.7,.2,.2,.16,.42,.31,.64,.45,1.88,1.14,4.63,1.81,7.4,1.91,.33,.01,.66,.02,.99,.02,2.46,0,4.9-.35,6.96-1.07,1.16-.37,2.18-.89,3.48-1.11,1.34-.19,2.71-.15,4.09-.1,.72,.02,1.45,.04,2.16,.03,.55-.01,1.12-.08,1.67-.2,.6-.05,1.17-.19,1.63-.42,1.83-.64,2.94-1.82,2.26-3.01Z"/><polygon class="cls-7" points="17.04 18.22 12.24 19.22 9.3 22.15 8.41 25.28 8.87 28.76 10.59 44.21 16.26 45.66 26.92 41.64 51.18 38.84 54.33 33.95 53.23 22.65 51.3 18.56 49.48 17.41 41.04 15.89 17.04 18.22"/><polygon class="cls-1" points="32.27 112.43 37.96 112.96 37.96 115.72 39.02 120.34 39.02 123.26 37.25 125.09 34.89 125.52 32.16 124.91 30.69 122.23 30.62 115.66 30.69 113.89 32.27 112.43"/><polygon class="cls-1" points="25.1 109.02 26.66 112.43 26.48 116.13 25.09 120.94 22.4 121.56 19.91 121.56 8.77 118.46 6.52 116.75 6.52 113.44 8.04 112.15 10.23 111.77 13.19 110.77 16.06 110.03 18.75 108.23 25.1 109.02"/><path class="cls-1" d="M20.31,32.2l22.51,.29-.05,1.46,3.82,.6,2.71,3.86,.97-1.63,4.07,.77,4.55-1.21s1.44,2.08,1.68,3.17,.82,2.57,.82,2.57c0,0,1.92,8.48,1.8,8.93s-3.2,4.86-3.2,4.86l-2.05,1.1-2.17,.76-3.07-.44-2.19-1.18-1.14,.87,1.81,4.79,.21,6.42-1.73,6.37-.46,10.33-1.01,4.74v3.02s-.56,6.26-1.7,9.71-3.48,6.72-3.48,6.72l-.87,.96-1.07,2.93-1.78,1.31-1.32,.34h-2.54l-2.71-1.96-1.14-2.2,.57-2.46s1.47-6.42,1.47-8.42-.6-6.68-.6-6.68l-.68-3.29-.81,.34-.92,2.75-1.34,3.6-1.42,5.13v1.98l.46,4.32-1.77,4.04-3.39-1.74h-4.21l-3.51,.75-1.65-1.85-1.03-2.87,.42-2.83-.8-4.12,.35-8.95-.21-2.18,.66-1.71-.14-9.71,.46-2.48s-1.11-6.31-.85-7.41c0,0-2.8,2.33-4.4,2.72-1.61,.38-3.74,.32-3.74,.32,0,0-2.65-1.21-3.37-3.48s-.52-5.21-.52-5.21l.94-3.16,2.19-3.58s.86-2.87,1.37-3.37,1.41,.45,2.57,.54,3.29-.09,3.29-.09l3.12-1.78,1.61-3.09,.22-2.56,.82-1.85-1.52-1.67-.6-.88,3.51-2.49,1.98-.34-.35-3.47,.53-1.01Z"/><path class="cls-2" d="M16.51,13.78s5.47-3.48,14.31-3.19c8.83,.3,11.71,1.63,11.71,1.63l2.48,1.56s2.12,5.69,1.38,9.93c-.75,4.24-3.27,7.44-3.27,7.44l-2.17,1.55-3.15,2.06-4.44,1.06-4.9-.14-3.32-.38s-4.98-1.5-7.56-6.45c-2.58-4.94-2.33-8.7-2.33-8.7l.69-5.32,.57-1.06Z"/><path class="cls-1" d="M16.98,13.26s1.69-4.52,5.28-6.63c3.59-2.11,7.43-2.46,7.43-2.46h4.05l4.43,1.63,4.45,3.9,2.39,3.56-5.35-1.75-9.04-.93-6.03,.61-4.78,1.04-2.84,1.04Z"/><polygon class="cls-7" points="12.83 87.14 18.77 86.81 22.24 86.97 25.56 87.56 28.62 88.46 31.77 90.14 30.93 91.78 26.53 89.78 22.46 89.12 19 88.68 15.97 88.82 13.01 89.73 12.83 88.68 12.83 87.14"/><path class="cls-7" d="M32.64,89.61l.13,1.99,3.04,.78,3.23,.6s3.63-.2,4.4-.33,1.73-.37,1.73-.37l2.94-1.13v-1.89s-3.51,.77-3.51,.77l-3.93,.96-2.93-.24-4.2-.56-.91-.56Z"/><polygon class="cls-1" points="15.84 15.62 15.31 22.62 17.41 28.5 15.26 27.92 13.13 25.28 12.51 21.26 13.13 18.55 14.29 17.04 15.84 15.62"/><path class="cls-1" d="M46.21,15.59l1.72,1.38,1.56,3.71s-.17,3.88-.64,4.32-1.83,2.4-1.83,2.4l-1.77,1,1.35-5.93-.36-5.48-.02-1.38Z"/><polygon class="cls-7" points="14.76 40.55 15.1 38.49 19.22 36.54 20.07 37.79 19.81 45.64 18.84 52.29 14.76 63.44 13.83 63.39 12.87 55.97 14.76 40.55"/><polygon class="cls-7" points="42.84 34.41 41.98 36.55 41.68 37.27 43.12 44.47 44.78 50.19 47.48 56.33 49.84 58.42 50.44 56.7 47.68 44.88 46.64 36.44 46.3 34.93 44.68 34.26 42.84 34.41"/><polygon class="cls-2" points="3.91 52.29 5.14 50.9 4.65 47.78 4.08 47.59 2.48 48.82 1.38 47.7 2 44.82 2.97 43.83 2.97 42.42 3.9 41.24 4.94 41.08 5.38 39.54 6.87 38.9 7.77 38.77 8.46 36.82 10.33 36.36 11.52 36.73 12.45 37.74 13.71 40.8 14.97 40.41 16.45 41.11 17.06 42.42 16.77 44.36 15.71 46.65 14.46 49.23 14.64 54.06 13.4 59.82 8.85 62.75 4.13 63.39 .64 61.01 3.91 52.29"/><path class="cls-2" d="M48.84,47.77l.45-9.35-.1-2.94-2.61-.91-.63-2.74,2.01-1.6,1.54-1.25,1.11-3.98,.97-1.62,2.29-.61,1.02,.76,.49,2.15,.77-2.16,3.1,.8-.48,3.31,1.27-1.42,1.88,1.83v1.23s-.81,.84-.81,.84l1.59,1.33,.07,2.03-1.04,1.72-1.36-.28-.41-1.27-1.6,1.77,2.18,4.11,1.66,6.39-6.14,4.12c-5-.14-4.71-1.22-7.25-2.26Z"/><g><path class="cls-6" d="M46.53,20.03c.53,8.82-5.69,15.83-15.58,15.83-9.24,0-16-6.68-15.58-15.83,.4-8.73,6.98-15.83,15.58-15.83s15.05,7.1,15.58,15.83Z"/><path class="cls-6" d="M17.26,28.53c-2.8-.57-4.87-3.51-4.77-6.98,.08-2.76,1.51-5.09,3.51-6.14"/><path class="cls-6" d="M44.68,28.53c2.8-.57,4.87-3.51,4.77-6.98-.08-2.76-1.51-5.09-3.51-6.14"/><path class="cls-6" d="M16.77,13.87s4.99-3.33,13.86-3.33,14.39,3.16,14.39,3.16"/><ellipse class="cls-4" cx="22.16" cy="18.31" rx="2.9" ry="2.12" transform="translate(-2.8 32.57) rotate(-69.3)"/><circle class="cls-4" cx="22.42" cy="26.42" r="1.23"/></g><g><path class="cls-6" d="M58.27,35.6s.77,.48,1.27,1.63,2.81,8.41,2.81,8.41c0,0-7.92,8.66-13.39,1.84,0,0-.41-4.52,.34-9.06,0,0-.72-.64,.05-2.56"/><path class="cls-6" d="M50.77,53.42s-.86-1.63-1.26-5.35"/><path class="cls-6" d="M62.3,46.3s1.61,4.05,.17,6.5c-1.27,2.16-5.64,7.32-11.97,3.24"/><g><path class="cls-6" d="M53.66,35.86s4.17,1.41,6.25-1.91c0,0,.78,1.55,1.89,1.24s1.12-2.97,1.06-3.22-.16-1.31-1.46-1.66"/><path class="cls-6" d="M58.53,29.73s.31,1.65,1.83,1.13,2.1-2.35,1.38-3.28c-.61-.79-1.45-1.45-2.41-1.23"/><path class="cls-6" d="M56.02,28.16s.67,1.06,1.86,.43c1.37-.71,1.86-3.08,1.13-4.09-.83-1.13-2.6-1.67-3.69,.51"/><path class="cls-6" d="M52.48,27.09s.61,1.06,2.15,.17c1.3-.74,.71-4.35-.76-4.42-1.57-.07-2.82-.16-3.75,3.54-.47,1.89-.59,2.9-1.82,3.57s-2.06,1.06-2.18,2.87,1.34,2.3,2.36,2.59,2.35,.61,2.86-.81c.29-.82,.05-1.86-1.2-2.45"/></g></g><g><g><path class="cls-6" d="M14.41,44s-1.88,.88-2.34-.86c-.52-1.95,2.62-3.29,3.89-2.41s1.65,1.74,.37,4.46c-.9,1.91-.79,2.92-2.35,4.08"/><path class="cls-6" d="M8.85,50.79s-4.19,1.41-4.19-2.32c0-1.34-.79-.82-1.43-.32s-2.01,1.05-1.75-1.17c.24-2.09,.44-2.61,1.41-2.68"/><path class="cls-6" d="M4.74,40.77s-.75,.44-1.19,.71-.87,1.21-.67,2.55,1.15,2.06,2.2,1.4c.86-.54,.98-1.76,.98-1.76"/><path class="cls-6" d="M7.64,38.76c-.44-.14-1.24-.18-2.31,.64-.41,.31-.68,1.09-.48,2.42s1.15,2.06,2.2,1.4c.86-.54,.98-1.76,.98-1.76"/><path class="cls-6" d="M10.94,39.22s-.41,1.15-1.38,1.46c-1.18,.38-1.92-.56-1.79-1.91s.6-2.03,1.07-2.23c1.98-.84,2.74,.25,2.74,.25,1.04,1.16,1.56,2.98,2.18,3.75"/></g><path class="cls-6" d="M14.17,49.12s.83,.97,.52,2.01-.14,2.59-.44,4.9-.62,3.67-.62,3.67c0,0-4.83,3.86-8.03,3.71-3.19-.15-4.79-1.65-4.79-3.26s1.14-4.02,2.07-5.09,1-2.17,1-2.51c0-.53,.17-1.5,1.59-2.01"/><path class="cls-6" d="M13.46,59.89s.77,3.93-.23,5.67-3.69,4.29-7.62,4.15c-3.94-.13-5.96-4.85-4.79-9.29"/></g><g><path class="cls-6" d="M19.97,31.83s-.7,3.17,.58,4.51,6.25,2.78,10.58,2.78,9.14-1.13,10.75-2.58c.88-.8,.79-3.73,.26-4.61"/><path class="cls-6" d="M19.65,48.66s8.39-3.2,23.75-1.63c0,0,.41,12.27-.39,22.58,0,0-11.1,6.2-21.49,1.39,0,0-3.48-11.11-1.87-22.33Z"/><path class="cls-6" d="M19.62,52.04s6.9-2.76,23.61-1.81"/><path class="cls-6" d="M19.62,59.17s11.23,.35,23.87-1.63"/><path class="cls-6" d="M20.4,65.59s13.03,2.82,22.88-2.46"/><path class="cls-6" d="M42.62,34.42s4-1.04,4.28,1.9,.58,11.52,2.82,18.14c.78,2.31,.88,2.81,.18,3.65-.46,.55-.86,.27-1.84-1.17-.98-1.44-5.43-8.24-6.2-20.04"/><path class="cls-6" d="M14.69,40.24s-.27-1.49,1.58-2.45,3.81-2.42,3.79,.36c-.12,13.91-3.81,22.08-4.68,23.83s-1.01,1.72-1.63,2.57"/><line class="cls-6" x1="31.13" y1="39.12" x2="31.22" y2="46.59"/><path class="cls-6" d="M25.89,47.25s-.06,9.97,.68,11.91"/><path class="cls-6" d="M36.29,46.87s-.36,9.02,.29,11.49"/><path class="cls-6" d="M26.23,54.7s4.37-.03,9.96-.45"/><circle class="cls-5" cx="23.98" cy="54.91" r=".07"/><circle class="cls-5" cx="22.59" cy="55.07" r=".07"/><circle class="cls-5" cx="21.2" cy="55.23" r=".07"/><path class="cls-6" d="M12.79,66.22s-.57,6.13,1.57,9.84,8.63,5.07,16.75,4.33c8.12-.74,18.06-1.58,19.72-9.88s-.93-12.42-.93-12.42"/><path class="cls-6" d="M47.01,35.74s1.38,.65,1.83,1.67"/><path class="cls-6" d="M30.93,72.82s-.01,6.21,.18,7.58"/></g><g><path class="cls-6" d="M49.66,74.07s.54,7.9-1.03,13.16c-.55,1.85-.54,4.18-.52,5.1,.08,3.12-1.19,10.48-3.91,15.07-.8,1.35-1.92,2.58-2.25,3.78s-1.31,3.74-4.81,3.42-5.41-1.81-5.29-4.11,1.64-6.07,1.76-9.15c.12-3.08-.65-8.98-.98-10.83-.34-1.93-1.84-.31-2.02-9.7"/><path class="cls-6" d="M31.88,89.39s-.55,2.2-.88,2.8-3.67,8.43-3.18,11.18,.99,4.83-1.19,8.25"/><path class="cls-6" d="M15.35,110.6s-2.52-1.46-2.36-5.65c.16-4.19-1.54-5.18-.13-14.45,0,0-.47-1.49,.17-3.57,.64-2.08-1.02-6.45,.43-12.46"/><path class="cls-6" d="M12.99,87.53s3.74-1.65,10.13-.59c4.39,.73,8.47,3.01,8.47,3.01"/><path class="cls-6" d="M12.99,89.56s3.65-1.57,9.87-.56c4.28,.7,8.25,2.86,8.25,2.86"/><path class="cls-6" d="M48.11,91.43c-1.61,.64-4.4,1.44-8.31,1.42-2.54-.01-5.06-.54-6.75-.99"/><path class="cls-6" d="M48.24,89.21c-1.47,.63-4.35,1.56-8.52,1.56-2.73,0-5.65-.6-7.28-1.04"/><path class="cls-6" d="M32.18,112.15s-1.62,1.24-1.56,3.41-.03,6.44,.59,7.76c.67,1.44,1.89,2.95,5.33,1.93s2.66-5.05,2.13-6.39c-.66-1.69-1.23-3.25-.7-4.25"/><path class="cls-6" d="M26.44,111.77s.32,2.2,.23,3.35-.48,6.01-3.35,6.44c-2.87,.44-7.84-1.32-10.08-1.93s-7.53-.74-6.98-4.58,4.49-3.09,6.04-3.63,3.18-.74,4.12-.77c1.24-.03,5.65-1.87,10.02,1.13Z"/></g><g><path class="cls-6" d="M47.44,16.44c3.03,.69,5.41,3.19,5.88,6.36"/><path class="cls-6" d="M9.66,36.28l-1.04-10.06c-.2-3.17,1.56-6.01,4.23-7.34"/></g></svg>