<?xml version="1.0" encoding="UTF-8"?><svg id="_レイヤー_9" xmlns="http://www.w3.org/2000/svg" xmlns:xlink="http://www.w3.org/1999/xlink" viewBox="0 0 61.51 126.23"><defs><style>.cls-1,.cls-2,.cls-3{fill:none;}.cls-4{clip-path:url(#clippath);}.cls-2{stroke-width:.22px;}.cls-2,.cls-3{stroke:#040000;stroke-miterlimit:10;}.cls-5{fill:#040000;}.cls-6{fill:#e9da21;}.cls-7{fill:#fff;}.cls-8{fill:#c68f00;}.cls-9{fill:#1961ad;}.cls-3{stroke-width:.19px;}.cls-10{fill:url(#Unnamed_Pattern_8);}</style><clipPath id="clippath"><rect class="cls-1" width="28.8" height="28.8"/></clipPath><pattern id="Unnamed_Pattern_8" x="0" y="0" width="28.8" height="28.8" patternTransform="translate(1563.38 1587.91) scale(.96 -.96)" patternUnits="userSpaceOnUse" viewBox="0 0 28.8 28.8"><g><rect class="cls-1" width="28.8" height="28.8"/><g class="cls-4"><path class="cls-7" d="M28.8-2.16C29.99-2.16,30.96-1.19,30.96,0s-.97,2.16-2.16,2.16S26.64,1.19,26.64,0s.97-2.16,2.16-2.16"/><path class="cls-7" d="M14.4-2.16C15.59-2.16,16.56-1.19,16.56,0s-.97,2.16-2.16,2.16S12.24,1.19,12.24,0s.97-2.16,2.16-2.16"/><path class="cls-7" d="M28.8,12.24c1.19,0,2.16,.97,2.16,2.16s-.97,2.16-2.16,2.16-2.16-.97-2.16-2.16,.97-2.16,2.16-2.16"/><path class="cls-7" d="M14.4,12.24c1.19,0,2.16,.97,2.16,2.16s-.97,2.16-2.16,2.16-2.16-.97-2.16-2.16,.97-2.16,2.16-2.16"/><path class="cls-7" d="M7.2,5.04c1.19,0,2.16,.97,2.16,2.16s-.97,2.16-2.16,2.16-2.16-.97-2.16-2.16,.97-2.16,2.16-2.16"/><path class="cls-7" d="M21.6,5.04c1.19,0,2.16,.97,2.16,2.16s-.97,2.16-2.16,2.16-2.16-.97-2.16-2.16,.97-2.16,2.16-2.16"/><path class="cls-7" d="M7.2,19.44c1.19,0,2.16,.97,2.16,2.16s-.97,2.16-2.16,2.16-2.16-.97-2.16-2.16,.97-2.16,2.16-2.16"/><path class="cls-7" d="M21.6,19.44c1.19,0,2.16,.97,2.16,2.16s-.97,2.16-2.16,2.16-2.16-.97-2.16-2.16,.97-2.16,2.16-2.16"/><path class="cls-7" d="M0-2.16C1.19-2.16,2.16-1.19,2.16,0S1.19,2.16,0,2.16-2.16,1.19-2.16,0-1.19-2.16,0-2.16"/><path class="cls-7" d="M0,12.24c1.19,0,2.16,.97,2.16,2.16s-.97,2.16-2.16,2.16-2.16-.97-2.16-2.16,.97-2.16,2.16-2.16"/><path class="cls-7" d="M28.8,26.64c1.19,0,2.16,.97,2.16,2.16s-.97,2.16-2.16,2.16-2.16-.97-2.16-2.16,.97-2.16,2.16-2.16"/><path class="cls-7" d="M14.4,26.64c1.19,0,2.16,.97,2.16,2.16s-.97,2.16-2.16,2.16-2.16-.97-2.16-2.16,.97-2.16,2.16-2.16"/><path class="cls-7" d="M0,26.64c1.19,0,2.16,.97,2.16,2.16s-.97,2.16-2.16,2.16-2.16-.97-2.16-2.16,.97-2.16,2.16-2.16"/></g></g></pattern></defs><path class="cls-5" d="M58.94,40.17s-.02,0-.03,0c0,0,.02,0,.03,0t0,0"/><path class="cls-5" d="M59.42,39.75v-.28c.02-.35,.05-.71,.07-1.06-.35-.12-.68-.07-.76,.42-.04,.44,.42,.52,.7,.72,0,.07,0,.14-.01,.21,0,0,0,0,0,0"/><path class="cls-5" d="M58,40.04s.05,0,.08,.01c-.03,0-.05-.01-.08-.01"/><path class="cls-5" d="M60.13,40.28c.58-.09,.55-.72,.2-1.07-.21-.23-.52-.19-.79-.26-.12-.05-.24-.07-.37-.04-.43,.1-.52,.74-.12,.94,.17,.09,.36,.13,.55,.15,.09,.17,.28,.27,.47,.27,.02,0,.04,0,.06,0"/><path class="cls-8" d="M45.08,120.08c-.43-1.09-1.67-2.01-3.17-2.57-.61-.26-2.57-1.03-2.53-1.48-.14-.79-.84-1.29-1.69-1.52-1.28-.63-3.04-.79-4.55-.41-.03,.04-.05,.09-.08,.13-.03,.06-.06,.13-.08,.19-.05,.15-.08,.29-.11,.44,0-.01,0-.03,0-.04-.05,.28-.13,.54-.24,.81-.09,.23-.23,.47-.44,.65-.19,.17-.44,.3-.7,.39-.34,.12-.7,.21-1.07,.21h-.06c-.13,0-.25,0-.37-.03-.13,.04-.26,.05-.39,.05-.17,0-.34-.03-.51-.08-.09,0-.17-.01-.25-.02,0-.03-.01-.06-.02-.09-.02-.01-.04-.02-.05-.03-.02-.01-.04-.02-.06-.04-.02-.01-.04-.03-.06-.04-.02-.01-.03-.02-.04-.04-.02-.02-.04-.03-.06-.05-.01-.01-.03-.03-.04-.04-.02-.02-.03-.03-.05-.05-.03-.03-.05-.06-.07-.1-.01,0-.02-.01-.04-.02,0,0,0,0,0,0-.25-.13-.46-.3-.65-.48-.04-.04-.09-.09-.13-.13-.02-.02-.03-.04-.05-.06-.02-.03-.05-.05-.07-.08-.04-.04-.08-.09-.11-.13-.01-.01-.02-.02-.03-.04-.02-.03-.05-.06-.07-.09,0,0,0,0,0,0-.01-.01-.02-.03-.04-.04-.06-.06-.12-.12-.19-.18-.02-.01-.03-.02-.05-.04h0s-.05-.03-.07-.05c-.03-.02-.07-.04-.1-.05,0,0-.01,0-.02,0h0s-.06-.02-.08-.03c0,0,0,0,0,0-.03-.01-.06-.02-.1-.03h0s-.02,0-.04,0c-.07-.02-.15-.04-.22-.05-.12-.02-.25-.04-.38-.06-.07,0-.15,0-.22-.01,0,0,0,0,0,0,0,0-.01,0-.02,0-.09,0-.18,0-.27,0-.1,0-.21,.01-.31,.02,0,0,0,0,0,0-.1,.02-.2,.03-.3,.05,0,0,0,0,0,0,0,0,0,0-.01,0-.22,.06-.43,.12-.64,.18-.08,.02-.16,.04-.24,.07,0,0,0,0,0,0h0c-.11,.03-.22,.06-.33,.08-.04,.01-.08,.02-.13,.03-.07,.01-.14,.03-.21,.04-.04,0-.09,.02-.13,.03-.07,.01-.14,.03-.21,.04-.05,0-.1,.02-.15,.03-.1,.02-.2,.03-.31,.05,0,0,0,0,0,0-.13,.02-.26,.04-.39,.06-.06,0-.12,.02-.19,.02-.08,.01-.16,.02-.24,.03-.05,0-.1,.01-.15,.02-.09,0-.17,.02-.26,.02-.06,0-.11,0-.17,.01-.1,0-.2,.01-.31,.02-.36,.02-.73,.02-1.09,.03-.33,.09-.65,.18-.98,.25-.95,.33-2.31,.24-3.41,.45-5.31,.6-8.15,3.31-2.45,5.04,.48,.51,1.3,.9,2.27,1.18,.49,.37,.91,.77,1.57,1.02,.2,.07,.41,.14,.62,.21,.18,.17,.37,.33,.57,.47,1.67,1.2,4.12,1.9,6.58,2,.29,.01,.59,.02,.88,.02,2.19,0,4.36-.36,6.2-1.12,1.03-.38,1.94-.93,3.1-1.16,1.19-.2,2.41-.15,3.64-.11,.64,.02,1.29,.05,1.93,.04,.49-.01,1-.08,1.49-.21,.53-.05,1.04-.2,1.45-.44,1.63-.66,2.62-1.9,2.01-3.15"/><path class="cls-9" d="M50.83,51.84l-2.09,2.66-1.35,1.2-.06,4.81-1.68,14.64,2.39,.37-.94,3.44-1.89-.04-1.5,.3-5.95,.52c-13.01,1.02-23.03-5.04-23.03-5.04l.05-1.36v-7.18s1.1-14.41,1.1-14.41l-5.11,2.56-2.91-3.92,3.47-1.03-1.01-5.58,1-5.59,.37-3.7,2.14-1.88,1.23-1.17,1.37-.56,1.87-.2,1.54-.07,1.91,.42,2.8,.16,.6,1.14s1.67,3.82,6.32,3.12c4.66-.7,4.87-2.85,4.87-2.85h2.07l1.76,.34,1.63,.69h2.08l2.46,1.9,.69,4.63,2.24,4.79,1.57,6.88Z"/><path class="cls-10" d="M50.83,51.84l-2.09,2.66-1.35,1.2-.06,4.81-1.68,14.64,2.39,.37-.94,3.44-1.89-.04-1.5,.3-5.95,.52c-13.01,1.02-23.03-5.04-23.03-5.04l.05-1.36v-7.18s1.1-14.41,1.1-14.41l-5.11,2.56-2.91-3.92,3.47-1.03-1.01-5.58,1-5.59,.37-3.7,2.14-1.88,1.23-1.17,1.37-.56,1.87-.2,1.54-.07,1.91,.42,2.8,.16,.6,1.14s1.67,3.82,6.32,3.12c4.66-.7,4.87-2.85,4.87-2.85h2.07l1.76,.34,1.63,.69h2.08l2.46,1.9,.69,4.63,2.24,4.79,1.57,6.88Z"/><polygon class="cls-7" points="49.84 46.75 49.72 45.02 48.05 43.18 46.92 41.49 46.71 39.11 46.12 37.29 46.38 36.44 47.45 35.5 49.67 36.6 50.92 33.28 51.44 32.26 52.63 31.88 53.65 32.5 54.12 35.01 55.4 33.97 57.19 34.42 57.19 35.95 58.33 36.44 58.71 37.29 58.71 38.69 60.23 40.02 61.32 42.14 60.97 42.76 59.79 42.76 58.69 41.24 56.68 44.51 54.94 45.43 56.53 48.45 57.62 50.99 59.55 54.99 59.3 58.2 58.72 59.89 57.98 61.16 57.19 61.9 55.32 62.54 52.55 61.3 48.86 55.09 50.83 52.9 50.54 50.54 49.84 46.75"/><polygon class="cls-7" points="5.48 33.9 6.52 31.03 4.94 29.9 2.84 27.77 2.35 29.9 1.19 30.17 .82 29.1 .9 26.25 3.08 25.38 2.11 24.53 1.57 23.69 2.79 21.86 4.66 22.7 4.19 19.76 6.19 18.86 7.56 20.87 7.98 18.86 8.86 17.8 10.81 18.37 11.27 20.23 12.59 23.95 13.91 25.46 16.67 27.38 16.93 28.73 16.36 30.31 14.38 30.56 11.63 31.12 11.82 33.55 10.41 41.74 10.41 43.86 11.2 49.25 10.63 49.94 6.59 50.41 5.1 50.06 3.83 49.4 2.78 47.83 2.19 45.7 1.94 43.08 3.2 39.75 5.48 33.9"/><polygon class="cls-7" points="19.31 106.64 20.38 104.94 21.71 104.65 24.03 106.17 24.04 108.46 19.55 107.46 19.31 106.64"/><polygon class="cls-7" points="30.86 109.08 33.31 110.01 32.91 110.9 31.77 113.19 30.72 113.02 30 111.97 30.86 109.08"/><path class="cls-7" d="M21.12,14.92l4.49,1.63,3.45,.5,1.06-.5,2.96-.15,2.9,1.08,4.11-1.42,.66,2.48,1.51,.69,.99,1.11,.26,2.24-.88,2.43-2.7,1.4-2.12,4.02-.96,1.09s-.93,3.23-4.91,3.42c-3.98,.19-5.38-1.06-5.38-1.06l-1.44-2.09-2-1.75-2.3-3.99-2.4-1.6-.78-1.86,.23-1.85,.55-1.08,1.93-.39s.5-1.88,.76-4.35"/><path class="cls-6" d="M24.57,3.52l-1.96,1.11-1.96,1.1-2.33,2.7-1.35,3.8-.46,4.51,1.14,3,1.66-.39,1.06-.07,1.08-.3,2.32,.08s2.07-.83,3.66-.42c1.59,.42,3.17,.02,3.17,.02l1.98-.46,3.58,.77,1.96-.42s1.23-.35,2.74-.75c.22,1.36,2.28,1.79,2.28,1.79l.67,.91,.67-.87,.66-1.19,.22-5.53-1-4.13-3-3.84-4.71-1.83-2.76-.6-4.34,.06-2.47,1.28-2.53-.34Z"/><path class="cls-6" d="M17.3,76.1l-1.96,7.58v8.71l2.27,10.56,.74,3.84,.61,.2,2.31-2.4,2.95,1.41,.07,2.36,1.8-2.09,.65-5.71,.51-5.46,2.15-8.52,1.47-.69,.89,.44,1.37,3.37-.4,8.49-1.62,4.99-.48,.7-.62,4.47,1.3,1.05,1.9,.94,2.32-.5,1.56-3.78,1.75-3.15s4.3-12.97,5.49-18.45c1.19-5.48,.67-5.54,.67-5.54l-6.2,.91h-6.12l-7.45-1-7.92-2.74Z"/><path class="cls-3" d="M17.3,76.1l-1.96,7.58v8.71l2.27,10.56,.74,3.84,.61,.2,2.31-2.4,2.95,1.41,.07,2.36,1.8-2.09,.65-5.71,.51-5.46,2.15-8.52,1.47-.69,.89,.44,1.37,3.37-.4,8.49-1.62,4.99-.48,.7-.62,4.47,1.3,1.05,1.9,.94,2.32-.5,1.56-3.78,1.75-3.15s4.3-12.97,5.49-18.45c1.19-5.48,.67-5.54,.67-5.54l-6.2,.91h-6.12l-7.45-1-7.92-2.74Z"/><polygon class="cls-9" points="15.69 109.72 17.49 109.12 19.86 107.74 24.87 109.01 25.07 112.6 23.86 115.97 21 116.88 14.87 115.1 12.11 112.6 12.97 110.72 15.69 109.72"/><polygon class="cls-9" points="30.05 112.25 31.51 113.33 32.05 113 33.57 117.49 34.73 119.07 33.85 120.28 32.86 120.92 29.77 120.41 29.23 118.99 29.7 115.96 29.77 112.07 30.05 112.25"/><path class="cls-5" d="M30.52,35.84c2.44-.03,5.15-1.22,6.4-3.38h0s-.01,0-.01,0h-.01s-.01-.01-.01-.01h-.01s-.02-.02-.02-.02h-.01s-.02-.02-.02-.02h-.02s-.02-.02-.02-.02h-.02s-.02-.02-.02-.02h-.02s-.02-.02-.02-.02h-.02s-.02-.02-.02-.02h-.02s-.02-.02-.02-.02h-.02s-.02-.03-.02-.03h-.02s-.02-.03-.02-.03h-.02s-.02-.02-.02-.02h-.02s-.02-.03-.02-.03h-.02s-.02-.03-.02-.03h-.02s-.02-.03-.02-.03h-.02s-.02-.03-.02-.03h-.02s-.02-.03-.02-.03h-.02s-.02-.03-.02-.03h-.02s-.02-.03-.02-.03l-.02-.02h-.02s-.02-.03-.02-.03h-.02s-.02-.03-.02-.03h-.02s-.02-.03-.02-.03h-.01c-.18,.25-.34,.5-.55,.74-1.38,1.53-3.54,2.24-5.57,2.12-2.13-.18-3.91-1.74-4.94-3.54-.09-.17-.16-.36-.22-.54-.25-.62-1.21-.22-.95,.4,1.06,2.57,3.65,4.72,6.5,4.72,.07,0,.14,0,.21,0"/><path class="cls-5" d="M11.62,35.35c.99-1.25,2.23-2.33,3.49-3.3,2-1.36,4.54-1.33,6.8-.77,.92,.19,1.82,.45,2.73,.63,.7-.03,.65-1.03-.03-1.07-3.87-.98-7.65-1.91-10.96,1.04-.24,.27-1.15,.98-1.88,1.71,0,.09,0,.18-.02,.27,0,0,0,0,0,0-.07,.33-.13,.65-.19,.98-.01,.12-.03,.24-.04,.36,0,.09-.01,.17-.02,.26,.05-.03,.09-.07,.13-.12"/><path class="cls-5" d="M11.7,53.59c.32-2.59,.08-5.23-.32-7.8-.11-.65-.26-1.3-.43-1.93-.08-.36-.16-.86-.64-.82-.55,.05-.53,.65-.37,1.05,.62,2.37,.88,4.84,.87,7.29,0,.62-.03,1.25-.1,1.87-.09,.31,.03,.68,.38,.75,.03,0,.07,.01,.1,.01,.24,0,.47-.17,.51-.41"/><path class="cls-5" d="M11.18,54.76c1.82-.67,3.71-1.59,5.08-2.97,.19-.56-.55-.91-.93-.5-1.28,1.07-2.76,1.85-4.31,2.46-1.23-.77-2.04-2.14-2.53-3.47-.21-.63-1.2-.29-.97,.34,.46,1.37,2.03,4.15,3.65,4.15h.01Z"/><path class="cls-5" d="M17.61,56.65c.26-.09,.42-.39,.32-.66-.25-.66-.47-1.33-.71-2-1.33-3.59-2.76-7.16-3.55-10.92-.12-.39-.03-.91-.39-1.19-.34-.24-.85,.04-.81,.46,.19,.96,.4,1.92,.66,2.87,.69,2.76,1.72,5.41,2.73,8.07,.22,.61,.44,1.22,.65,1.83,.26,.48,.27,1.55,.93,1.55,.05,0,.1,0,.16-.02"/><path class="cls-5" d="M46.33,55.26c1.29-2.4,2.26-4.99,2.86-7.64,.08-.68,.53-1.43,.27-2.1-.15-.24-.49-.29-.72-.14-.35,.28-.21,.81-.37,1.2-.44,2.16-1.12,4.27-2.01,6.28-.28,.67-.61,1.31-.95,1.94-.2,.4,.15,.74,.49,.74,.17,0,.33-.08,.43-.28m2.25-9.2s-.05-.1-.06-.15c0,.05,.03,.11,.06,.15"/><path class="cls-5" d="M47.88,57.23v-.02s0-.02,0-.02v-.09h0v-.03h0v-.03h0v-.03h0v-.03h0v-.02h0v-.02h0v-.02h0v-.02h0v-.02h0s0-.02,0-.02h0v-.02h0v-.03h0v-.03h0v-.03h0v-.03h0v-.03h0v-.03h0v-.03h0v-.03h0v-.03h0v-.06h0v-.09s0-.02,0-.02v-.03s0-.02,0-.02v-.05s0-.02,0-.02v-.09s0-.02,0-.02v-.04s0-.02,0-.02v-.07s0-.02,0-.02v-.02s0-.02,0-.02h0v-.03h0v-.03h0s0-.03,0-.03h0s0-.03,0-.03h0v-.03h0v-.03h0v-.03h0s0-.03,0-.03h0v-.03h0s0-.03,0-.03h0v-.03h0v-.03h0v-.03h0v-.06s0-.01,0-.01v-.03s0-.02,0-.02v-.05s0-.02,0-.02v-.02s0-.02,0-.02v-.04s0,0,0,0c-.01-.02-.03-.04-.04-.06-.23-.38-.86-.25-.93,.18,0,.57,.54,1.01,.81,1.49,.06,.07,.11,.14,.17,.22h0Z"/><path class="cls-5" d="M45.48,78.96c.03-.09,.06-.19,.09-.28,.05-.22,.11-.45,.2-.66,1.16-4.04,1.68-8.23,1.82-12.44,.13-4.32,.51-8.68,0-12.98-.18-.4-.82-.36-.95,.06-.01,.09-.01,.18-.01,.27,0,.05,.03,.09,.04,.13-.02-.04-.04-.08-.04-.13,0,.34,.08,.69,.07,1.04,.23,3.28,.04,6.57-.06,9.85-.13,2.61-.22,5.22-.56,7.81-.21,1.6-.59,3.18-.97,4.75,0,.12,0,.24-.02,.37-.01,.08-.04,.17-.06,.25-.04,.16-.09,.32-.18,.45-.1,.39-.2,.79-.35,1.17-.14,.39,.19,.68,.52,.68,.19,0,.38-.1,.46-.34"/><path class="cls-5" d="M46.62,52.93s0-.02,0-.03c0,.01,0,.02,0,.03h0Z"/><path class="cls-5" d="M14.73,74.71c.83-.14,.35-1.35,.46-1.94,0-.09,0-.17,0-.26,0-.03,0-.05,0-.08-.01-.17,0-.31,.02-.47,.02-1.66,.05-3.31,.07-4.97,.08-4.83,.28-9.68,1.28-14.41,.15-.49-.56-.87-.89-.46-.35,.85-.35,1.84-.57,2.74-.67,4.01-.75,8.07-.85,12.12-.03,1.79-.04,3.59-.08,5.38,0,.62,0,1.24,.02,1.86,0,.27,.26,.48,.52,.48,.01,0,.02,0,.03,0m1.78-22.01s-.01,.02-.02,.03c.02-.04,.04-.08,.05-.12,0,.01,0,.03-.01,.04,0,0,0,0,0,0,0,.02-.02,.04-.02,.06"/><path class="cls-5" d="M32.53,80.27s-.03,0-.04,0c-.31-.07-.62-.13-.93-.21-.12-.03-.23-.06-.35-.06-.12,0-.21,.02-.32,.05-.06,.02-.12,.04-.17,.08-1.48-.16-2.95-.4-4.4-.71-1.97-.35-3.95-.73-5.81-1.48-2.17-.89-4.38-1.77-6.28-3.16-.57-.37,.03-1.23,.58-.86,.49,.33,.98,.67,1.49,.97,3.36,1.83,6.99,3.1,10.79,3.62,2.48,.54,5.02,.81,7.56,.8,.74,0,1.49-.02,2.25-.05,.14,.02,.28,.04,.42,.05,.11,.02,.23,.04,.34,.04,.09,0,.18,0,.27-.02,.33-.01,.65-.06,.97-.17,1.89-.12,3.78-.33,5.62-.65,.66-.3,1.36,.29,.75,.86-3.17,.73-6.51,.85-9.76,.96-.32,0-.63,.01-.94,.01-.67,0-1.34-.02-2.01-.06"/><path class="cls-5" d="M15.79,75.92c-.16-.1-.32-.2-.48-.3,0,0-.02-.01-.03-.02-.1-.07-.2-.14-.3-.19,0-.03,0-.05,0-.08-.19-.52,.53-.92,.88-.5,.22,.3,.15,.7,.2,1.06,0,.07,0,.15,.01,.22-.09-.06-.19-.12-.28-.18"/><path class="cls-5" d="M44.39,79.58c.12-.01,.23-.03,.35-.04-.03-.16-.05-.31-.08-.47-.14-.21-.43-.3-.66-.18-.24,.12-.34,.42-.25,.66,0,.04,0,.08,.01,.12,.21-.04,.42-.07,.63-.1"/><path class="cls-5" d="M43.69,79.8s0,0-.01,0c0,0,0,0,.01,0"/><path class="cls-5" d="M43.45,79.27c-.09-.64,.87-.8,1.01-.19,.06,.18,.12,.36,.17,.55-.04,0-.09,.01-.13,.02-.13,.02-.27,.05-.4,.07,0,0-.02,0-.03,0-.04,0-.09,.01-.13,.02,0,0,.01,0,.02,0-.06,0-.12,.02-.19,.03-.06,.01-.11,.02-.16,.03h0c-.05-.18-.11-.36-.16-.54"/><path class="cls-5" d="M45.52,78.84c.05-.21,.1-.42,.16-.63-.2-.01-.4,.07-.47,.29-.07,.22,.04,.48,.26,.55,.01-.07,.03-.14,.05-.21"/><path class="cls-5" d="M46.68,74.68s.02-.03,.02-.04c0-.02,0-.04,.01-.06-.11,0-.22-.02-.34-.03-.3-.09-.65,.11-.62,.44,.02,.31,.32,.41,.67,.45,.06-.26,.12-.53,.25-.76"/><path class="cls-5" d="M15.3,72.96s0-.04,0-.06c0-.03-.02-.06-.02-.09-.01-.05-.03-.11-.04-.16-.01-.06-.03-.15-.04-.22,0-.11-.01-.2,0-.3-.08-.05-.17-.1-.25-.15-.46-.31-.97,.39-.49,.72,.3,.17,.6,.34,.91,.5-.02-.08-.04-.16-.05-.24"/><path class="cls-5" d="M45.42,77.27c.2,0,.4-.15,.43-.35,.04-.22-.1-.45-.31-.5-.15,.02-.29,.04-.44,.06,0,.09-.01,.18-.03,.27-.01,.09-.04,.17-.06,.25-.03,.13-.07,.25-.13,.37,.18-.03,.35-.07,.53-.1"/><path class="cls-5" d="M32.48,80.26c-.08-.02-.15-.03-.23-.05,.03-.2,.21-.37,.42-.37,.24,0,.44,.18,.45,.42,0,.05,0,.1-.02,.15-.2-.05-.41-.1-.61-.15"/><path class="cls-5" d="M32.48,80.26s-.1-.02-.15-.03c0-.04,.01-.09,.02-.13-.05-.38,.46-.63,.73-.36,.17,.2,.16,.45,.11,.7-.24-.06-.47-.11-.71-.17"/><path class="cls-5" d="M28.59,79.89s0-.03,0-.04c.13-.39,.72-.36,.83,.03,.01,.07,.02,.15,.03,.22-.29-.07-.57-.14-.86-.21"/><path class="cls-5" d="M15.31,75.61s-.02-.01-.03-.02c-.1-.07-.21-.15-.32-.2-.08-.04-.15-.08-.24-.12-.01-.04-.02-.09-.02-.13,0-.28,.24-.52,.52-.52s.51,.23,.51,.52c0,.23-.16,.44-.38,.5-.01-.01-.03-.02-.05-.03"/><path class="cls-5" d="M15.79,75.92c-.16-.1-.32-.2-.48-.3,0,0-.02-.01-.03-.02-.07-.05-.14-.1-.22-.14,.24-.58,1.13-.27,.98,.43,0,.07,0,.13-.01,.2-.08-.05-.17-.11-.25-.16"/><path class="cls-5" d="M31.47,37.49c2.56-.18,4.99-1.55,6.61-3.52,.01-.03,.02-.07,.03-.1,.01-.04,.02-.08,.03-.12,0-.03,0-.06,0-.09,0,0,0,0,0-.01,0,0,0-.02,0-.03,0,0,0-.02,0-.03,0,0,0-.01,0-.02,0,0,0,0,0-.01,0,0,0,0-.01-.01,0,0-.01-.01-.02-.02-.01-.01-.03-.02-.05-.03-.02-.01-.05-.03-.07-.04-.02,0-.03-.01-.05-.02-.02,0-.03,0-.05-.01-.04,0-.07,0-.11,0,0,0-.01,0-.02,0h0c-.08,.04-.15,.09-.24,.12-.03,.01-.05,.02-.08,.03-.6,.78-1.45,1.4-2.26,1.92-1.69,1.08-3.74,1.46-5.71,1.12-2.28-.36-4.5-1.49-5.95-3.29-.3-.39-.55-.8-.77-1.24-.09-.18-.32-.26-.51-.17-.19,.09-.26,.32-.17,.51,.34,.68,.76,1.33,1.28,1.88,1.99,2.07,4.87,3.19,7.73,3.19,.14,0,.27,0,.4,0"/><path class="cls-5" d="M38.12,33.92s0,0,0,.01c0,0,0,0,0-.01"/><path class="cls-5" d="M38.15,33.66s0,.01,0,.02c0,0,0-.01,0-.02"/><path class="cls-5" d="M28.47,79.86s0-.01,0-.02c-.12-.38,.4-.67,.65-.36,.1,.17,.12,.37,.13,.58-.26-.06-.52-.13-.79-.2m.71,.02s.03-.1,.03-.15c0,.05-.01,.11-.03,.15"/><path class="cls-5" d="M47.43,79.27c.47-.51,1.44-3.47,.92-4.03-.14-.17-.37-.2-.58-.23-.49-.07-.97-.16-1.45-.27-.21-.02-.39,.16-.4,.35-.06,.6,1.4,.54,1.83,.68-.07,1-.43,1.98-.81,2.9-.28,.07-.55-.02-.82-.11-.26-.08-.53-.17-.79-.11-.29,.13-.27,.61,.05,.7,.43,.1,.91,.3,1.37,.3,.24,0,.46-.05,.67-.19"/><path class="cls-5" d="M37.96,78.21c2.51-.04,5-.4,7.43-1,.47-.13,.29-.86-.2-.73-1.85,.46-3.77,.78-5.62,.9-3.13,.22-6.28,.03-9.38-.44-1.94-.28-3.91-.54-5.78-1.17-2.26-.75-4.44-1.53-6.67-2.32-.94-.37-1.84-.82-2.8-1.13-.45-.18-.76,.5-.3,.7,.29,.11,.58,.21,.87,.32,1.75,.78,3.56,1.43,5.38,2.02,2.07,.76,4.15,1.54,6.34,1.89,3.16,.54,6.36,.99,9.58,.99,.38,0,.76,0,1.14-.02"/><path class="cls-5" d="M47.69,56.09c1.24-.88,2.37-1.91,3.37-3.06,.24-.21,.22-.61-.03-.79-.32-.25-.68-.02-.87,.27-.45,.5-1,1.06-1.47,1.48-.52,.46-1.06,.9-1.62,1.3-.43,.32-.1,.93,.33,.93,.1,0,.2-.03,.3-.11"/><path class="cls-5" d="M37.56,32.42c.04-.14,0-.28-.07-.39h0c-.13-.02-.27-.03-.4-.06-.12-.03-.27-.06-.36-.14,0,0-.02-.02-.03-.03-.14,.06-.26,.17-.31,.3-.08,.06-.15,.12-.23,.18h.01s.02,.03,.02,.03l.02,.02,.02,.02,.02,.02,.02,.02,.02,.02,.02,.02,.02,.02,.02,.02,.02,.02,.02,.02,.02,.02,.02,.02,.02,.02,.02,.02,.02,.02,.02,.02,.02,.02,.02,.02,.02,.02,.02,.02,.02,.02,.02,.02,.02,.02,.02,.02,.02,.02,.02,.02,.02,.02,.02,.02,.02,.02,.02,.02,.02,.02h.02s.02,.03,.02,.03h.02s.02,.03,.02,.03h.02s.02,.03,.02,.03h.02s.02,.02,.02,.02h.02s.01,.02,.01,.02h.01s.01,.02,.01,.02h0c.19-.17,.36-.36,.51-.57"/><path class="cls-5" d="M38.5,32.09s0,0,0,0c-.06,0-.11,0-.17,0,.03,.02,.07,.03,.1,.04,.02-.01,.05-.03,.07-.04"/><path class="cls-5" d="M38.5,32.09c-.07,0-.13,0-.2,0-.06,0-.12,0-.19,0,.05,.05,.1,.09,.17,.13,.07-.04,.14-.08,.22-.12"/><path class="cls-5" d="M39.16,32.32s-.03,.02-.04,.02c.03,0,.05,0,.08,0-.01,0-.03-.02-.04-.03"/><path class="cls-5" d="M39.19,32.7c-.19-.12-.45-.1-.6,.03-.06,.14-.13,.27-.21,.39,.03,0,.06,.01,.09,.02,.19,.03,.39,.05,.58,.09,.08,.02,.16,.03,.24,.05,.09-.24,.08-.45-.1-.59"/><path class="cls-5" d="M46.62,36c.12-.15,.28-.24,.46-.28,.1-.1,.23-.17,.37-.22-2.5-2.03-5.54-2.96-8.95-3.42-.07,0-.14,0-.2,0-.11,0-.21,0-.32-.01-.17,0-.33-.02-.5-.04-.13-.01-.27-.03-.4-.06-.01,0-.03,0-.04,0-.65,.17-.45,1.11,.33,1.02,3.6,.42,6.65,1.22,9.15,3.19,.03-.06,.06-.11,.1-.16"/><path class="cls-5" d="M43.64,49.47c.22-.24,.27-.83-.14-.91-.19-.04-.42,.09-.45,.29-.01,.11-.02,.2-.04,.3-.03,.23,.18,.41,.39,.41,.08,0,.17-.03,.24-.09"/><path class="cls-5" d="M43.55,50.25c.01-.44,.48-1.35-.24-1.39-.54,.07-.36,.85-.51,1.23-.06,.28,.17,.45,.39,.45,.16,0,.31-.09,.36-.3"/><path class="cls-5" d="M34.66,49.26c1.59,.61,3.3,1.12,5,.76,1.08-.18,2.16-.4,3.23-.65,.23-.06,.52-.09,.64-.32,.18-.45-.29-.68-.65-.47-.6,.16-1.21,.28-1.81,.4-2.43,.56-3.67,.54-6.01-.38-.51-.28-1.03-.2-1.14,.44-.03,.41-.3,1.33,.34,1.36,.56-.07,.28-.77,.4-1.14"/><path class="cls-5" d="M38.65,51.93c.64-.05,4.97-.86,4.79-1.56,0-.3-.39-.46-.62-.28-.53,.22-1.16,.43-1.69,.56-2.28,.66-4.34,.89-6.43-.43-.12-.08-.24-.15-.36-.24-.41-.28-.84,.34-.43,.63,1.2,.83,2.65,1.35,4.12,1.35,.21,0,.42,0,.62-.03"/><path class="cls-5" d="M13.46,31.19c.2-.15,.43-.2,.66-.27,.27-.1,.52-.27,.81-.33,.53-.11,1.13,.06,1.59-.29,.41-.28,.66-.77,.62-1.27-.06-.71,.04-1.52-.37-2.13-1.26-1.46-3.06-1.37-3.68-3.56-.32-.85-.6-1.71-.93-2.55-.22-.75-.3-1.54-.67-2.24-.26-.61-1.91-1.33-2.01-.31,.03,.78,1.11,.3,1.22,1.07,.17,.46,.27,.95,.37,1.43,.23,.78,.56,1.54,.81,2.31,.51,1.71,1.33,2.88,2.97,3.65,.42,.25,.93,.51,1.15,.96,.02,.5,.26,1.29,0,1.73-.16,.15-.4,.15-.63,.14-.15,0-.3-.01-.43,.03-.48,.04-.83,.25-1.2,.41-.23,.08-.48,.14-.69,.27-.42-.29-.54-.85-.42-1.33,.36-.29,.75-.59,1.21-.71,.82-.17,.58-1.78-1.26-.55-.81,.5-1.14,.97-1.01,1.95,.04,.68,.73,1.71,1.47,1.71,.13,0,.27-.03,.41-.11"/><path class="cls-5" d="M9.5,22.49c.67-.19,1.73-1.94,.58-2.1-.65,0-.44,.89-.92,1.12-.83-.07-.88-.54-.74-1.24,.11-.56,0-1.87,.85-1.7,.34,.08,.67,.22,1.02,.28,.6,0,.7-.88,.12-1.02-1.36-.51-2.54-.47-2.86,1.2-.11,.44-.13,.9-.18,1.35-.05,.37-.11,.76,.07,1.1,.25,.66,.98,1.06,1.68,1.06,.13,0,.26-.02,.39-.05"/><path class="cls-5" d="M5.97,24.12c.98-.23,1.7-1.34,1.33-2.32-.15-.41-.8-.41-.95,0-.1,.25,.07,.51-.01,.77-.15,.42-.7,.7-1.08,.39-.06-.94-.22-1.86-.23-2.8,.38-.3,.86-.55,1.31-.67,.21,.45,.52,.85,.72,1.32,.26,.37,.32,1.06,.86,1.09,.28,0,.51-.24,.51-.52,0-.22-.15-.39-.23-.59-.29-.6-.62-1.17-.95-1.76-.41-.81-1.29-.63-1.92-.24-.42,.15-.76,.41-1.1,.68-.5,.64-.12,1.64-.09,2.38,.02,1.37,.12,2.28,1.63,2.28,.07,0,.13,0,.21,0"/><path class="cls-5" d="M3.23,26.17c.13,0,.28-.03,.44-.1,.56-.23,1.04-.7,1.05-1.34,.07-.47,.09-.98-.24-1.36,.49,.43,1.17-.3,.7-.76-.58-.34-2.15-1.86-2.75-1.24-.55,.86-1.88,1.73-1.33,2.89,.33,.44,.79,.77,1.11,1.22,.3,.38,.6,.69,1.02,.69h0Zm.43-2.17c.15,.23,.02,.55,0,.81-.07,.15-.26,.24-.4,.31-.41-.47-.81-.95-1.26-1.37-.03-.17,.1-.29,.19-.42,.22-.36,.52-.66,.8-.97,.39,.25,.79,.49,1.15,.78-.04-.01-.08-.02-.12-.02-.42,0-.68,.56-.36,.88"/><path class="cls-5" d="M7.19,31.41c.61,0,1.11-.34,1.69-.42,.4-.03,.94,0,.95-.54-.07-.8-1.1-.46-1.59-.39-.43,.18-.85,.34-1.32,.35-.2,.04-.36-.07-.53-.16-.44-.19-.89-.36-1.3-.62-.27-.23-.57-.42-.83-.65-.17-.23-.38-.41-.55-.63-.09-.15-.16-.32-.3-.43-.37-.23-.92-.58-1.27-.13-.15,.21-.12,.47-.17,.71-.12,.39-.22,.83-.59,1.04-.21-.84-.41-1.77-.28-2.65,.26-.28,.64-.41,.88-.71,.36-.17,.89-.34,.99-.78,.04-.59-.6-.74-.98-.38-.19,.15-.42,.19-.61,.32-.26,.27-.59,.44-.87,.69C.02,26.35,0,26.93,0,27.44c-.02,.56,.12,1.1,.2,1.65,.08,.41,.08,.89,.42,1.18,.93,.93,2.05-.33,2.26-1.28,.69,.87,1.57,1.58,2.6,2,.46,.19,.9,.46,1.39,.46,.1,0,.21-.01,.31-.04"/><path class="cls-5" d="M10,46.61c.73-2.1,.92-4.34,1.43-6.49,.14-1.57,.54-3.1,.64-4.67,.15-1.98,.37-3.97,.46-5.94-.28-.74-1.2-.35-1.01,.39-.25,1.82-.27,3.66-.48,5.49-.14,1.66-.51,3.29-.69,4.95-.5,1.89-.61,3.88-1.25,5.72-.3,.48,.05,.94,.42,.94,.18,0,.37-.11,.48-.38"/><path class="cls-5" d="M8.96,50.5c.7-.1,1.41-.18,2.06-.5,.61-.26,.21-1.21-.4-.95-.6,.31-1.27,.33-1.92,.45-1.17,.36-2.46,.37-3.61-.03-1.16-.82-2.15-3.13-2.4-4.52-.51-2.77,1.05-5.32,1.98-7.83,.51-1.51,1.3-2.9,1.83-4.4,.18-.66,.84-1.34,.48-2.03-.31-.53-1.16-.13-.93,.45-1.1,2.66-2.26,5.3-3.31,7.98-.96,2.31-1.58,4.38-.88,6.87,.61,1.6,1.28,3.42,2.77,4.4,.85,.36,1.82,.39,2.73,.41,.55-.02,1.07-.2,1.61-.31"/><path class="cls-5" d="M50.54,36.39c.32-.73,.65-1.46,1-2.19,.1,.49,.21,1.02,.53,1.42,.57,.64,1.67,.71,2.27,.07,.45-.58,.25-1.35,.24-2.03-.1-.51,.18-1.13-.21-1.56-1.34-1.12-2.88-.94-3.4,.85-.35,.88-.83,1.69-1.16,2.58-.19,.35-.43,.85,.04,1.09,.07,.04,.15,.05,.23,.05,.19,0,.38-.1,.47-.28m3-3.62c-.11,.75,.15,1.51,0,2.25-.11,.08-.24,.12-.37,.08-.55-.08-.55-.8-.64-1.23,.08-.35-.15-.73-.54-.7,.14-.51,.4-.72,.72-.72,.25,0,.53,.12,.83,.32"/><path class="cls-5" d="M56.68,38.13c.91-.19,.87-1.31,.97-2.04,.06-.4,.22-.78,.23-1.18,.07-.61-.5-.93-1.01-1.05-.47-.18-1.03-.34-1.5-.08-.33,.2-.64,.46-.98,.62-.28-.01-.52,.21-.54,.48-.03,.46,.5,.67,.87,.5,1.03-.45,.93-.99,2.12-.44-.21,.71-.21,1.47-.41,2.19-.73,.06-1.01-.27-.95-.99,.04-.67-.98-.74-1.03-.07-.13,1.29,.63,2.09,1.81,2.09,.13,0,.26-.01,.4-.03"/><path class="cls-5" d="M55.29,38.32c.15-.42,.54-.88,.27-1.33-.15-.24-.49-.3-.72-.14-.15,.1-.23,.27-.23,.44-.1,.23-.21,.46-.31,.69-.13,.4,.19,.68,.51,.68,.19,0,.38-.1,.47-.34m-.61-.8s-.04-.09-.05-.13c0-.02,0-.04,0-.06h0c0,.06,.02,.13,.06,.2"/><path class="cls-5" d="M53,37.2c.28-.39,.74-.67,.88-1.15,.23-.76-.88-1.06-1.01-.27-.31,.4-1.13,.92-.6,1.46,.1,.08,.22,.13,.35,.13,.14,0,.29-.06,.38-.17"/><path class="cls-5" d="M58.85,40.15c.06,0,.11-.01,.17-.02,.2-.09,.33-.26,.4-.47,0-.06,0-.13,0-.19,0-.16,.01-.31,.02-.46,0-.02,0-.04,0-.06,0-.51,.05-1,.08-1.51,.2-1.04-.84-1.47-1.66-1.71-.52-.59-1.28,.29-.72,.79,.41,.28,.95,.3,1.35,.61,.01,.7-.11,1.38-.07,2.07-.38,.05-.6-.24-.76-.55-.21-.26-.26-.57-.2-.9,.04-.67-.98-.74-1.03-.07-.13,.8,.31,1.81,1.02,2.28,.14-.01,.29,0,.43,.06,0,0,.01,0,.02,0,.09,.01,.18,.02,.27,.04,.1,.02,.2,.05,.3,.07,.01,0,.02,0,.04,0,.02,0,.04,0,.06,0,.03,0,.07,0,.1,0,.06,0,.12,0,.17,.02,0,0,.01,0,.02,0"/><path class="cls-5" d="M56.79,40.5c.06-.17,.18-.33,.33-.43,.09-.2,.25-.36,.35-.57,.45-.8-.81-1.35-.96-.4-.73,.86-.37,1.45,.06,1.45,.07,0,.15-.02,.22-.05"/><path class="cls-5" d="M57.69,39.96c.06,0,.12,.03,.18,.05,0,0,.01,0,.02,0h0c.09,.01,.18,.02,.27,.04,.1,.02,.19,.05,.29,.07-.14-.27-.53-.33-.76-.17"/><path class="cls-5" d="M54.74,46.05s.03-.01,.05-.02h0s.01-.02,.01-.02l.02-.02v-.02s.03-.01,.03-.01v-.02s.03-.01,.03-.01v-.02s.03-.01,.03-.01h.01s.01-.03,.01-.03h.01s.01-.02,.01-.02h.01s.01-.02,.01-.02h.01s.01-.02,.01-.02h.01s.01-.02,.01-.02h.01s.01-.02,.01-.02h.01s0-.02,0-.02h.01s0-.02,0-.02h0s.01-.01,.01-.01h0s0-.01,0-.01h0s0-.01,0-.01h0s0,0,0,0h0s0,0,0,0h0s0,0,0,0h0s0,0,0,0h0s0,0,0,0h0s0,0,0,0h.01s.01,0,.01,0h0s.01,0,.01,0h.01s.01,0,.01,0h.01s.01,0,.01,0h.01s.01,0,.01,0h.01s.01,0,.01,0h.01s.01,0,.01,0h.01s.01,0,.01,0h.01s.01,0,.01,0h.01s.01,0,.01,0h.01s.01,0,.01,0h.01s.01,0,.01,0h.02s0,0,0,0h.05s.01,0,.01,0h.02s.01,0,.01,0h.02s.01,0,.01,0h.01s.01,0,.01,0h.01s.01,0,.01,0h.01c.79-.41,1.41-.99,1.7-1.97,.24-.44,.4-.91,.53-1.39-.05-.04-.09-.09-.12-.15-.02-.03-.03-.06-.05-.08t0,0s0,0-.01,0c-.03,0-.06-.01-.08-.02-.06,0-.13-.02-.19-.02-.1,0-.21,0-.31,0h0c-.08,.08-.17,.15-.27,.19-.14,.43-.32,.85-.52,1.27-.16,.48-.47,.9-.92,1.15-.35,.18-.74,.31-1.1,.48-.57,.19-.36,1.01,.16,1.01,.06,0,.12-.01,.18-.03"/><path class="cls-5" d="M49.61,38.65c1.06-.15,1.63-1.38,.88-2.21-.5-.52-1.2-.79-1.75-1.26-.18-.63-1.17-.36-1.02,.28,.33,.85,1.42,1.06,2.01,1.69,.3,.43-.45,.59-.75,.51-.38-.17-.89-.5-1.16,.01-.27,.7,.72,1.03,1.41,1.03,.15,0,.28-.02,.38-.05"/><path class="cls-5" d="M49.54,45c.71-.66-.52-1.38-.91-1.85-.26-.4-.43-.87-.64-1.3-.57-1.1-.51-2.37-.96-3.5-.11-.56-.43-1.1-.25-1.67,.25-.38,.57-.82,1.02-.95,.52,.83,1.64-.07,.81-.64-1.11-1.29-3.12,.88-2.91,2.14,.14,.91,.51,1.76,.7,2.66,.09,.92,.35,1.8,.76,2.63,.28,.58,.49,1.22,1.01,1.63,.4,.22,.63,.94,1.08,.94,.09,0,.18-.03,.29-.09"/><path class="cls-5" d="M54.93,45.89h.01s.01-.02,.01-.02h.01s.01-.02,.01-.02h.01s.01-.02,.01-.02h.01s.01-.02,.01-.02h.01s.01-.02,.01-.02h.01s.01-.02,.01-.02h0s0-.02,0-.02h0s.01-.01,.01-.01h0s.01-.01,.01-.01h0s0-.01,0-.01h0s0,0,0,0h0s0,0,0,0h0s0,0,0,0h0s0,0,0,0h0s0,0,0,0h0s0,0,0,0h0s.01,0,.01,0h.01s0,0,0,0h.01s.01,0,.01,0h.01s.01,0,.01,0h.01s.01,0,.01,0h.01s.01,0,.01,0h.01s.01,0,.01,0h.01s.01,0,.01,0h.01s.01,0,.01,0h.02s.01,0,.01,0h.02s.01,0,.01,0h.01s.01,0,.01,0h.07s.01,0,.01,0h.01s.01,0,.01,0h.01s.01,0,.01,0h.01s.01,0,.01,0h.01s.01,0,.01,0h.01s.01,0,.01,0h.01s.01,0,.01,0h.01s.01,0,.01,0h.01s.01,0,.01,0h.01s.01,0,.01,0h.01s.01,0,.01,0h.01s.01,0,.01,0h.02s.01,0,.01,0h.02s.02,0,.02,0h.02s.02,0,.02,0h.02s.02,.01,.02,.01h.02s.02,0,.02,0h0c-.17-.25-.35-.49-.53-.74-.22-.18-.54-.17-.73,.05-.22,.26-.1,.58,.11,.89h0Z"/><path class="cls-5" d="M50.36,45.04c-.11-.43-.5-.71-.77-1.05-.22-.33-.67-.64-1.01-.26-.44,.6,.42,1.03,.71,1.47,0,.02,0,.04,0,.05h0s0-.02,0-.02h0s0-.03,0-.03h0s0-.02,0-.02h0s0-.02,0-.02h0s0-.01,0-.01h0s0,0,0,0h0s0,0,0,0h.01s0,0,0,0h.01s.01,0,.01,0h.01s0,0,0,0h.01s.01,0,.01,0h.04s.01,0,.01,0h.01s.01,0,.01,0h.01s.01,0,.01,0h.01s.01,0,.01,0h.01s.01,0,.01,0h.01s.01,0,.01,0h.01s.01,0,.01,0h.01s.01,0,.01,0h.01s.01,0,.01,0h.01s.01,0,.01,0h.01s.01,0,.01,0h.01s.01,0,.01,0h.01s.01,0,.01,0h.01s.01,0,.01,0h.01s.01,0,.01,0h.01s.01,0,.01,0h.01s.01,0,.01,0h.01s.01,0,.01,0h.01s.01,0,.01,0h.01s.01,0,.01,0h.01s.01,0,.01,0h.01s.01,0,.01,0h.01s.01,0,.01,0h.01s.01,0,.01,0h.01s.01,0,.01,0h.01s.01,0,.01,0h.01s.01,0,.01,0h.01s.01,0,.01,0h.01s.01,0,.01,0h.01s.01,0,.01,0h.01s.01,0,.01,0h.01s.01,0,.01,0h.01s.01,0,.01,0h.01s.01,0,.01,0h.01s.01,0,.01,0h.01c-.02-.1-.03-.21-.04-.32"/><path class="cls-5" d="M60.46,42.99c1.52-.34,1.11-1.43,.48-2.43-.31-.42-.06-1.22-.74-1.26-1.23,.24,.02,1.97,.28,2.6-.41,.23-.85-.2-1.12-.48-.16-.24-.23-.57-.54-.65-.46-.12-.81,.31-1.16,.55-.21,.12-.4,.28-.56,.47-.6,.76,.49,1.52,.85,.6,.17-.16,.37-.25,.54-.41,.4,.52,1.05,1.03,1.74,1.03,.08,0,.15,0,.23-.02"/><path class="cls-5" d="M55.27,45.43h-.01s-.01,0-.01,0h-.01s-.01,0-.01,0h-.01s-.01,0-.01,0h-.01s-.01,0-.01,0h-.01s-.01,0-.01,0h-.01s-.01,0-.01,0h-.01s-.01,0-.01,0h-.01s-.01,0-.01,0h-.01s-.01,0-.01,0h-.01s-.01,0-.01,0h-.02s-.01,0-.01,0h-.11s-.01,0-.01,0h-.02s-.01,0-.01,0h-.01s-.01,0-.01,0h-.01s-.01,0-.01,0h-.01s-.01,0-.01,0h0s0,0,0,0h-.01s0,0,0,0h0s-.01,0-.01,0h0s0,0,0,0h-.01s0,0,0,0h0s0,0,0,0h0s-.01,0-.01,0h0s0,.01,0,.01h-.01s-.01,.01-.01,.01h-.01s0,.01,0,.01h-.01s-.01,.01-.01,.01h-.01s-.01,.02-.01,.02h-.01s-.01,.02-.01,.02h-.01s-.01,.02-.01,.02h-.01s-.01,.02-.01,.02h-.01s-.01,.02-.01,.02h-.01s-.01,.02-.01,.02h-.01s-.02,.02-.02,.02h-.02s-.02,.03-.02,.03h-.02s-.01,.02-.01,.02h-.02s-.02,.03-.02,.03h-.02s0,.02,0,.02c.35-.08,.69-.18,1.01-.3"/><path class="cls-5" d="M58.51,54.66l.06-.08,.06-.08,.06-.08,.06-.08,.06-.08,.06-.08,.07-.08,.07-.08,.07-.08,.08-.08,.08-.08,.05-.04c-.21-.57-.45-1.14-.68-1.71-.93-2.21-1.91-4.4-3.04-6.51h-.02s-.02-.01-.02-.01h-.02s-.02-.01-.02-.01h-.01s-.02-.01-.02-.01h-.02s-.02-.01-.02-.01h-.01s-.01-.01-.01-.01h-.01s-.01-.01-.01-.01h-.01s-.01,0-.01,0h-.01s-.01,0-.01,0h-.01s-.01,0-.01,0h-.01s-.01,0-.01,0h-.01s-.01,0-.01,0h-.01s-.01,0-.01,0h-.01s-.01,0-.01,0h-.01s-.01,0-.01,0h-.01s-.01,0-.01,0h-.01s-.01,0-.01,0h-.01s-.01,0-.01,0h-.01s-.01,0-.01,0h-.02s-.01,0-.01,0h-.01s-.01,0-.01,0h-.01s-.01,0-.01,0h-.01s-.01,0-.01,0h-.02s-.01,0-.01,0h-.04s-.01,0-.01,0h-.04s-.01,0-.01,0h-.02s-.01,0-.01,0h-.01s-.01,0-.01,0h-.01s-.01,0-.01,0h-.01s-.01,0-.01,0h0s-.01,0-.01,0h0s0,0,0,0h0s-.01,0-.01,0h0s-.01,0-.01,0h0s0,0,0,0h0s0,0,0,0h0s0,0,0,0h-.01s0,0,0,0h-.01s-.01,.01-.01,.01h-.01s-.01,.01-.01,.01h-.01s-.01,.01-.01,.01h-.01s-.01,.02-.01,.02h-.01s-.01,.02-.01,.02h-.01s-.01,.02-.01,.02h-.01s-.01,.02-.01,.02h-.01s-.02,.02-.02,.02h0c.17,.34,.41,.67,.5,.92,.73,1.33,1.33,2.73,1.97,4.11,.53,1.35,1.21,2.65,1.6,4.05h.01Z"/><path class="cls-5" d="M52.05,57.37c.04-.22,.09-.44,.17-.64-.18-.91-.35-1.81-.57-2.71-.27-1.92-.47-3.85-.94-5.73-.28-1.24-.66-2.48-.71-3.75h0s-.01,0-.01,0h-.01s-.01-.01-.01-.01h-.01s-.01-.01-.01-.01h-.01s-.01-.01-.01-.01h-.01s-.01-.01-.01-.01h-.01s-.01-.01-.01-.01h-.01s-.01-.01-.01-.01h-.01s-.01-.01-.01-.01h-.01s-.01-.01-.01-.01h-.01s-.01-.01-.01-.01h-.01s-.01-.01-.01-.01h-.01s-.01-.01-.01-.01h-.01s-.01-.01-.01-.01h-.01s-.01-.01-.01-.01h-.01s-.01-.01-.01-.01h-.01s-.01-.01-.01-.01h-.01s-.01-.01-.01-.01h-.01s-.01-.01-.01-.01h-.01s-.01-.01-.01-.01h-.01s-.01-.01-.01-.01h-.01s-.01-.01-.01-.01h-.01s-.01-.01-.01-.01h-.01s-.01-.01-.01-.01h-.01s-.01-.01-.01-.01h-.01s-.01-.01-.01-.01h-.01s-.01,0-.01,0h-.01s-.01,0-.01,0h-.01s-.01,0-.01,0h-.01s-.01,0-.01,0h-.01s-.01,0-.01,0h-.01s-.01,0-.01,0h-.01s-.01,0-.01,0h-.01s-.01,0-.01,0h-.01s-.01,0-.01,0h-.01s-.01,0-.01,0h-.01s-.01,0-.01,0h-.01s-.01,0-.01,0h0s-.01,0-.01,0h-.05s0,0,0,0h0s-.01,0-.01,0h0s0,0,0,0h0s0,.01,0,.01h-.01s0,.01,0,.01h0s0,.02,0,.02h-.01s0,.03,0,.03h-.01s0,.02,0,.02c.15,1.82,.66,3.62,1.05,5.42,.44,2.12,.55,4.27,1.08,6.37,.06,.19,.13,.57,.21,1.03,.04,.05,.09,.1,.14,.14,.02,.02,.04,.04,.07,.05,.03,.02,.06,.04,.08,.05,.02,.01,.05,.02,.07,.03,.01,0,.03,0,.04,.01,0,0,.01,0,.02,0h.02c.12,0,.24-.02,.37-.04"/><path class="cls-5" d="M52.05,57.37c.02-.13,.05-.25,.08-.38-.05-.03-.1-.05-.17-.06-.33-.04-.5,.11-.56,.33,.02,.02,.04,.03,.06,.05,.03,.02,.06,.04,.08,.05,.02,.01,.05,.02,.07,.03,.01,0,.03,0,.04,.01,0,0,.01,0,.02,0,0,0,.01,0,.02,0,.12,0,.24-.02,.37-.04"/><path class="cls-5" d="M49.28,55.09c-.13,.04-.29,.02-.42,0-.02,0-.05,0-.07-.01h-.02s0,.07,0,.11c0,.14,0,.29-.01,.43,.18-.17,.35-.35,.53-.52"/><path class="cls-5" d="M50.72,53.6c.37-.35,.99-1.07,.3-1.42-.3-.14-.51,.04-.68,.26,0,.03,.01,.06,.02,.09,.02,.11,.03,.22,.04,.34,0,.03,0,.07,.01,.1,.04,.06,.1,.1,.17,.14-.06-.03-.12-.08-.17-.14,.01,.13,.03,.26,.02,.38,0,.01,0,.03,0,.04,.02,.07,.03,.14,.04,.2,.01,.09,.02,.18,0,.26,.08-.09,.17-.17,.25-.26"/><path class="cls-5" d="M49.19,56.99l.03-.07,.03-.07,.03-.07,.03-.07,.04-.07,.03-.06,.04-.06,.03-.06,.04-.05,.03-.05,.04-.05,.03-.05,.04-.04,.03-.04,.03-.04,.03-.03,.03-.03,.03-.03,.03-.03c-.13-.24-.27-.49-.4-.73-.04-.08-.07-.15-.11-.23-.01,0-.02,0-.03,.01-.14,.04-.3,.03-.44,0-.02,0-.05,0-.07-.01h-.02s0,.07,0,.11c0,.21-.01,.42-.03,.63,0,.09-.01,.19-.02,.28,.14,.28,.31,.59,.48,.91h0Z"/><path class="cls-5" d="M49.2,56.23c.65-.21,.26-.92,.13-1.37-.06-.49-.52-1.03-1-.6-.39,.47,.17,1.09,.23,1.61,.07,.23,.28,.38,.5,.38,.04,0,.09,0,.13-.02"/><path class="cls-5" d="M55.66,62.96c1.7-.12,2.57-1.6,3.35-2.99,1.04-1.58,1.13-3.36,.56-5.13-.08-.49-.22-.95-.38-1.41l-.05,.04-.08,.08-.08,.08-.07,.08-.07,.08-.07,.08-.06,.08-.06,.08-.06,.08-.06,.08-.06,.08-.06,.08h0c.08,.3,.15,.58,.2,.88,.48,1.44,.4,2.94-.46,4.23-1.16,2.17-2.19,3.31-4.67,1.91-.03-.02-.05-.04-.08-.06,.02,.1,.02,.19,.02,.29,0,.08-.04,.16-.07,.23-.03,.07-.09,.12-.15,.16,0,.05,0,.1,0,.14,0,.08-.02,.15-.06,.21,.54,.3,1.1,.55,1.71,.62,.16,.02,.32,.03,.48,.02,.04,0,.09,0,.13,0,.07,0,.15,0,.22,0"/><path class="cls-5" d="M54.34,62.18c.05-.27-.24-.5-.49-.42-.23-.1-.51-.02-.58,.23-.08,.33,.26,.54,.58,.54,.24,0,.46-.11,.5-.36m-.75-.14s0-.01,0-.02c0,0,0,0,0,0,.01-.05,.04-.1,.07-.14-.03,.04-.06,.1-.07,.15"/><path class="cls-5" d="M54.51,61.89c-.34-.18-.68-.34-.96-.62-1.66-1.57-2.74-3.58-3.82-5.57l-.03,.02-.03,.03-.03,.03-.03,.03-.03,.04-.03,.04-.04,.04-.03,.05-.04,.05-.03,.05-.04,.06-.04,.06-.03,.06-.04,.06-.03,.06-.03,.07-.03,.07-.03,.07-.03,.07h0c1.36,2.53,3.54,6.1,5.32,6.11,.36-.15,.42-.66,.11-.89"/><path class="cls-5" d="M27.08,80.11c.24-.13,.49-.26,.73-.39,.04,.04,.09,.08,.14,.11,.07,.04,.14,.09,.22,.13,.04,.05,.09,.1,.13,.15-.41,.03-.82,.05-1.24,.07,0-.02,0-.04,0-.06"/><path class="cls-5" d="M29.98,79.61s-.01-.06-.02-.1c.03,0,.05,.01,.08,.02,.09,.02,.17,.03,.26,.03,.01,0,.03,0,.04,0,.04,0,.08,0,.13-.01,.04,0,.08,0,.12,0,.2,0,.41-.02,.61-.03,.2-.01,.41-.03,.61-.05,.18,0,.35,0,.53,0,.29,0,.57,0,.86-.01-1.09,.21-2.18,.38-3.28,.5,.06-.1,.08-.23,.07-.35"/><path class="cls-5" d="M15.55,79.3s0-.02,.01-.03c0,0,.01,0,.02,0,.09,.01,.19,.01,.28,.01,.17,0,.35,0,.53-.03,.12-.01,.25-.04,.36-.1,.02,0,.04,.01,.07,.02-.01,0-.03,0-.04-.01,.08,.03,.15,.05,.23,.08,0,.04,0,.07-.01,.11-.01,.07-.02,.15-.03,.22-.48-.08-.95-.17-1.42-.27"/><polyline class="cls-5" points="15.86 79.16 15.86 79.16 15.85 79.16 15.86 79.16"/><path class="cls-5" d="M36.57,105.36c.03-.07,.07-.15,.1-.22,.05-.1,.09-.21,.13-.32,.03-.09,.07-.17,.1-.27,0-.01,.01-.03,.02-.04,0,0,.02,0,.03,0,0,0,0,0,0,0,.08,0,.16,0,.24,0,0,0-.01,0-.02,0,0,0,.01,0,.02,0,0,.01,.02,.03,.03,.04,0-.01-.02-.03-.03-.04h0c.05,.08,.11,.16,.16,.23,0,0,0,0,0,0,0,.04,.01,.08,.02,.11,0,0,0,.01,0,.02,0,.01,0,.02,0,.04-.04,.07-.08,.15-.13,.21-.16,.09-.32,.16-.47,.26,0,0,0,0,0,0-.01,0-.03,0-.04,0-.05,0-.1-.03-.15-.05"/><path class="cls-5" d="M36.01,109c-.14-.01-.29-.01-.44-.02-.09-.04-.19-.08-.28-.13-.04-.04-.07-.08-.11-.11,0,0-.01-.01-.02-.02,0-.02,.01-.03,.02-.04,.06,.02,.12,.04,.18,.05,.15,.09,.32,.16,.5,.17,.12,.01,.23,.01,.35,.01-.02,.04-.04,.08-.05,.12-.05-.01-.1-.02-.15-.02"/><path class="cls-5" d="M36.67,105.14c.05-.1,.09-.21,.13-.32,.03-.08,.06-.16,.09-.24,.22,.06,.41,.27,.39,.55-.17,.1-.35,.18-.52,.28,0,0,0,0,0,0-.08,0-.16,.02-.23,.04,.05-.1,.1-.21,.15-.31"/><path class="cls-5" d="M30.1,108.42h0s-.02,0-.03,.01c0,0,.02,0,.03-.01"/><path class="cls-5" d="M29.41,107.44c-.22-1.15,.38-3.12,.78-3.94,.16-.57,1.06-.42,1.01,.18-.12,.47-.39,.89-.5,1.36-.17,.64-.27,1.3-.3,1.96-.02,.03-.03,.05-.05,.08-.14,.22-.26,.46-.4,.69-.15-.16-.33-.27-.54-.33"/><path class="cls-5" d="M30.99,103.58c-.32-.09-.41-.33-.41-.62,.03,0,.06,0,.09,0,.13,0,.26-.02,.39-.06,.13-.04,.25-.09,.37-.14,.05,0,.09,.01,.14,.01,.02,0,.05,0,.07,0-.01,.13-.03,.27-.05,.4-.04,.24-.27,.41-.51,.41-.03,0-.07,0-.1,0"/><path class="cls-5" d="M29.81,85.89c-.39-.11-1.01-.08-.97-.65,.02-.28,.27-.5,.55-.48,.78,0,1.19,.36,1.44,.86-.12,.07-.23,.15-.33,.25-.2,.19-.35,.42-.45,.66-.06-.22-.14-.43-.23-.64"/><path class="cls-5" d="M30.5,104.05c-.44-.22-.28-.74,0-1.03,.01-.02,.03-.04,.04-.06,.05,0,.09,0,.14,0,.13,0,.26-.02,.39-.06,.13-.04,.25-.09,.37-.15,.02,0,.05,0,.07,0,.15,.21,.15,.52-.07,.7-.18,.26-.39,.64-.71,.64-.07,0-.15-.02-.23-.06"/><path class="cls-5" d="M31.35,110.05c-1.18-.51-2.2-1.68-1.88-3.02,.05-.67,1.06-.61,1.03,.07-.02,.39-.14,.82,.17,1.14,.94,1.3,2.97,1.47,4.27,.63,.07-.05,.14-.12,.2-.2,.07,.03,.14,.05,.22,.06,.15,.09,.31,.15,.5,.17,.13,.01,.25,.01,.38,.01-.18,.4-.68,.8-.99,.98-.65,.34-1.38,.51-2.12,.51-.61,0-1.22-.12-1.78-.35"/><path class="cls-5" d="M25.81,103.32c.03-.25,.04-.51,.06-.77,.02-.31,.05-.62,.05-.94,0-.13-.02-.26-.05-.38,.08-.95,.16-1.91,.26-2.86,.39-3.1,.85-6.21,1.78-9.21,.31-.79,1.11-4.06,1.92-4.1,.28-.03,.53,.2,.55,.48,.01,.16-.06,.31-.17,.41-.14,.25-.25,.52-.34,.73-.52,1.25-.92,2.55-1.29,3.85-.73,2.79-1.17,5.66-1.48,8.53-.09,.94-.18,1.89-.24,2.83-.12,.56,.21,1.67-.62,1.7-.19-.01-.35-.13-.42-.28"/><path class="cls-5" d="M16.04,79.45c-.12-.01-.24-.03-.36-.04,0-.04,.02-.09,.02-.13,.05,0,.1,0,.16,0,.17,0,.35,0,.53-.03,.11-.01,.22-.04,.32-.08,0,.08,0,.17-.03,.25,0,.04,0,.08-.01,.12-.21-.04-.42-.07-.63-.1"/><polyline class="cls-5" points="15.86 79.16 15.86 79.16 15.85 79.16 15.86 79.16"/><path class="cls-5" d="M25.24,107.52c-.76-.56,.77-1.33,.71-3.29,.02-.38-.1-.75-.11-1.13,.02-.65,1.06-.61,1.03,.04,.21,.97,.13,2.01-.23,2.94-.23,.45-.52,1.52-1.11,1.52-.09,0-.19-.02-.29-.08"/><path class="cls-5" d="M29.61,111.73c-.65-.26-.17-1.01-.09-1.48,.25-.56,.24-1.94,1.14-1.63,.65,.39-.06,1.22-.11,1.77-.18,.45-.16,1.37-.75,1.37-.06,0-.12,0-.18-.03"/><path class="cls-5" d="M32.14,112.81c-.68-.42,.09-1.14,.29-1.63,.2-.37,.41-.74,.59-1.12,.02-.27,.29-.47,.55-.45,.98,.21,.17,1.26-.08,1.78-.33,.41-.54,1.47-1.13,1.47-.07,0-.15-.02-.23-.05"/><path class="cls-5" d="M30.28,113.17c-.59-.34-1.7-2.36-.31-2.2,.62,.25,.37,1.79,1.67,1.45,.35-.21,.71-.65,1.1-.23,.19,.22,.16,.54-.05,.73-.35,.38-.85,.58-1.36,.58-.37,0-.74-.11-1.05-.33"/><path class="cls-5" d="M29.09,119.85c-.96-1.37-.15-3.49-.25-5.08,0-.57-.06-1.13-.03-1.69,.06-.65,.3-1.27,.42-1.91,.17-.89,1.34-.44,.97,.4-.1,.49-.26,.97-.34,1.47-.05,.69,.05,1.38,.02,2.08,0,.92-.19,1.94-.2,2.84,.02,.4-.04,.88,.2,1.22,.34,.37-.02,.86-.41,.86-.13,0-.26-.05-.36-.18"/><path class="cls-5" d="M34.04,118.69c-.03-.72-.53-1.25-.89-1.82-.5-.94-.56-2.04-.87-3.04-.09-.47-.58-1.16,.07-1.42,.8-.19,.81,.94,1.01,1.45,.24,.81,.31,1.69,.67,2.46,.42,.63,.92,1.24,1.02,2.01,.18,.5-.17,.85-.5,.85-.21,0-.42-.14-.49-.48"/><path class="cls-5" d="M31.23,120.87c-.71-.09-1.41-.33-1.92-.84-.53-.38,.07-1.27,.64-.81,.7,.7,1.83,.77,2.75,.54,.51-.16,1.09-.35,1.4-.82,.07-.15,.14-.29,.3-.37,.39-.21,.89,.22,.72,.63-.57,1.21-2.02,1.69-3.32,1.69-.19,0-.39-.01-.57-.03"/><path class="cls-5" d="M24.44,107.6v-.02s-.03-.02-.03-.02v-.02s-.02-.02-.02-.02v-.02s-.02-.02-.02-.02v-.02s-.02-.01-.02-.01h0c.13-.18,.27-.35,.38-.54,.02,.3-.04,.57-.27,.7v-.02Z"/><path class="cls-5" d="M24.92,108.28l-.04-.05-.04-.05-.04-.05-.03-.05-.03-.05-.03-.04-.03-.04-.03-.04-.03-.04-.02-.03-.02-.03-.02-.03-.02-.03-.02-.03-.02-.03-.02-.02-.02-.02v-.02s-.03-.02-.03-.02v-.02s-.03-.02-.03-.02v-.02s-.02-.02-.02-.02v-.02s-.02-.02-.02-.02h-.01s-.01-.03-.01-.03h0c.05-.08,.11-.15,.16-.23,.01,0,.02,.01,.04,.02,.37-.23,.55-.8,1.03-.79,.44,.01,.66,.63,.31,.9-.26,.26-.58,.68-.95,.91h0Z"/><path class="cls-5" d="M18.68,106.77c.03-.17,.06-.34,.1-.51,.09-.24,.18-.48,.27-.72,.03-.07,.06-.13,.08-.2,0-.02,.01-.04,.01-.06,0-.01,0-.02,.01-.03,.11,.34,.25,.66,.39,.98,.01,.02,.02,.04,.03,.07h0s0,.02,0,.02h0s0,.02,0,.02h0s0,.02,0,.02h0s0,.02,0,.02h0s0,.02,0,.02h0s0,.02,0,.02h0s0,.02,0,.02h0s0,.02,0,.02h0s0,.02,0,.02h0s0,.02,0,.02h0s0,.02,0,.02h0s0,.02,0,.02h0s0,.02,0,.02h0s0,.02,0,.02h0s0,.02,0,.02h0s0,.02,0,.02h0s0,.02,0,.02h0s0,.02,0,.02h0s0,.02,0,.02h0s0,.02,0,.02h0s0,.02,0,.02h0s0,.02,0,.02h0s0,.02,0,.02h0s0,.02,0,.02h0s0,.02,0,.02h0s0,.02,0,.02h0s0,.02,0,.02h0s0,.02,0,.02h0s0,.02,0,.02h-.01s0,.02,0,.02h0s-.01,.02-.01,.02h0s0,.01,0,.01c-.02,0-.04,0-.06,0-.14,0-.29-.06-.39-.2"/><path class="cls-5" d="M24.81,108.12l-.03-.05-.03-.05-.03-.04-.03-.04-.03-.04-.03-.04-.02-.03-.02-.03-.02-.03-.02-.03-.02-.03-.02-.02-.02-.02-.02-.02v-.02s-.03-.02-.03-.02v-.02s-.03-.02-.03-.02v-.02s-.02-.02-.02-.02v-.02s-.02-.02-.02-.02v-.02s-.02-.01-.02-.01v-.02s-.02-.01-.02-.01h0s-.01-.03-.01-.03h0s0-.02,0-.02h0s0-.02,0-.02h0s0-.02,0-.02h0s0-.02,0-.02h0s0-.02,0-.02h0s0-.02,0-.02h0s0-.02,0-.02h0s0-.02,0-.02h0s0-.02,0-.02h0s0-.02,0-.02h0s0-.02,0-.02h0s0-.02,0-.02h0s0-.02,0-.02h0s0-.02,0-.02h0s0-.02,0-.02h0s0-.02,0-.02h0s0-.02,0-.02h0s0-.02,0-.02h0s0-.02,0-.02h0s0-.02,0-.02h0s0-.02,0-.02h0s0-.02,0-.02h0s0-.02,0-.02h0c-.11-.47-.29-.92-.66-1.23-.56-.44-1.33-.72-2.05-.6-.5,.09-.85,.28-1.1,.57h0s-.01,.01-.01,.01h-.01s-.01,.02-.01,.02h-.01s-.01,.02-.01,.02h-.01s-.01,.02-.01,.02h-.01s-.01,.02-.01,.02h-.01s-.01,.02-.01,.02h-.01s-.01,.02-.01,.02h-.01s-.01,.02-.01,.02h-.01s-.01,.02-.01,.02h-.01s-.01,.02-.01,.02h-.01s-.01,.02-.01,.02h-.01s-.01,.02-.01,.02h-.01s-.01,.02-.01,.02h-.01s-.01,.02-.01,.02h-.01s-.01,.02-.01,.02h-.01s-.01,.02-.01,.02h-.01s-.01,.02-.01,.02h0s-.01,.02-.01,.02h-.01s0,.02,0,.02h0s0,.02,0,.02h0s0,.02,0,.02h0s0,.02,0,.02h0s0,.02,0,.02h0s0,.02,0,.02h0s0,.02,0,.02h0s0,.02,0,.02h0s0,.02,0,.02h0s0,.02,0,.02h0s0,.02,0,.02h0s0,.02,0,.02h0s0,.02,0,.02h0s0,.02,0,.02h0s0,.02,0,.02h0s0,.02,0,.02h0s0,.02,0,.02h0s0,.02,0,.02h0s0,.02,0,.02h0s0,.02,0,.02h0s0,.02,0,.02h0s0,.02,0,.02h0s0,.02,0,.02h0s0,.02,0,.02h0s0,.02,0,.02h0s0,.02,0,.02h0s0,.02,0,.02h0s0,.02,0,.02h0s0,.02,0,.02h0s0,.02,0,.02h0s0,.02,0,.02h0s0,.02,0,.02h0s0,.02,0,.02h0s0,.02,0,.02h0s0,.02,0,.02h0s0,.02,0,.02h0s0,.02,0,.02h0s0,.02,0,.02h-.01s0,.02,0,.02h0s-.01,.02-.01,.02h0s0,.02,0,.02h0s0,0,0,0c-.17-.03-.34-.14-.41-.3,.03-.14,.05-.29,.08-.43,.09-.24,.18-.49,.27-.73,.03-.06,.06-.13,.08-.2,0-.02,0-.04,.01-.05,0,0,0-.01,0-.02,1.32-1.81,4.6-1.41,5.54,.77,.16,.43,.32,.88,.31,1.34-.03,.23-.05,.56-.15,.8l-.03-.05Z"/><path class="cls-5" d="M18.68,106.77c.04-.24,.09-.47,.15-.71,.02-.08,.05-.16,.08-.24,.02-.04,.04-.08,.06-.12,.04-.06,.07-.13,.1-.19,.24,.42,.55,.83,.15,1.21-.09,.07-.2,.1-.31,.1-.08,0-.15-.02-.22-.05"/><path class="cls-5" d="M17.39,103.19c-.58-1.56-1.18-3.12-1.56-4.74-.89-3.97-1.12-8.04-.95-12.09,.03-2.39,.28-4.79,.98-7.08h0c.18,0,.35,0,.53-.03,.12-.01,.25-.04,.36-.1,.02,0,.04,.02,.07,.02,.05,.02,.09,.03,.14,.05-.1,.34-.21,.69-.29,1.04-.61,2.23-.73,4.54-.76,6.84-.15,3.58,.12,7.15,.84,10.65,.21,1.11,.58,2.18,.96,3.24,.03,.21,.11,.41,.17,.61,.04,.14,.08,.28,.13,.41,.04,.11,.1,.22,.17,.32,0,.01,0,.03,.01,.04,0,.03,0,.06,0,.09,0,.1,.03,.2,.07,.29-.02,.02-.04,.04-.06,.07s-.04,.05-.06,.07c-.06,.06-.12,.11-.18,.17-.08,.07-.17,.13-.25,.19-.03,.02-.06,.03-.09,.05-.07-.04-.14-.08-.22-.11"/><path class="cls-5" d="M16.78,79.16s.03,0,.04,.01c-.01,0-.03,0-.04-.01"/><path class="cls-5" d="M19.2,106.66c.03-.29,.08-.57,.07-.86,.07-.53,.78-.57,.99-.15h0s-.02,.01-.02,.01h-.01s-.01,.02-.01,.02h-.01s-.01,.02-.01,.02h-.01s-.01,.02-.01,.02h-.01s-.01,.02-.01,.02h-.01s-.01,.02-.01,.02h-.01s-.01,.02-.01,.02h-.01s-.01,.02-.01,.02h-.01s-.01,.02-.01,.02h-.01s-.01,.02-.01,.02h-.01s-.01,.02-.01,.02h-.01s-.01,.02-.01,.02h-.01s-.01,.02-.01,.02h-.01s-.01,.02-.01,.02h-.01s-.01,.02-.01,.02h-.01s-.01,.02-.01,.02h-.01s-.01,.02-.01,.02h-.01s-.01,.02-.01,.02h-.01s-.01,.02-.01,.02h-.01s-.01,.02-.01,.02h-.01s-.01,.02-.01,.02h-.01s-.01,.02-.01,.02h-.01s0,.02,0,.02h-.01s-.01,.02-.01,.02h0s0,.02,0,.02h0s0,.02,0,.02h0s0,.02,0,.02h0s0,.02,0,.02h0s0,.02,0,.02h0s0,.02,0,.02h0s0,.02,0,.02h0s0,.02,0,.02h0s0,.02,0,.02h0s0,.02,0,.02h0s0,.02,0,.02h0s0,.02,0,.02h0s0,.02,0,.02h0s0,.02,0,.02h0s0,.02,0,.02h0s0,.02,0,.02h0s0,.02,0,.02h0s0,.02,0,.02h0s0,.02,0,.02h0s0,.02,0,.02h0s0,.02,0,.02h0s0,.02,0,.02h0s0,.02,0,.02h0s0,.02,0,.02h0s0,.02,0,.02h0s0,.02,0,.02h0s0,.02,0,.02h0s0,.02,0,.02h0s0,.02,0,.02h0s0,.02,0,.02h0s0,.02,0,.02h0s0,.02,0,.02h0s0,.02,0,.02h-.01s0,.02,0,.02h0s0,.02,0,.02h-.01s0,.02,0,.02h0s0,.02,0,.02c0-.09,.02-.17,.03-.26"/><path class="cls-5" d="M24.71,107.99l-.03-.04-.03-.04-.02-.04-.03-.03-.02-.03-.02-.03-.02-.03-.02-.03-.02-.02-.02-.02-.02-.02v-.02s-.03-.02-.03-.02v-.02s-.03-.02-.03-.02v-.02s-.02-.02-.02-.02v-.02s-.02-.02-.02-.02v-.02s-.02-.01-.02-.01v-.02s-.02-.01-.02-.01h0s0-.03,0-.03h0s0-.02,0-.02h0s0-.02,0-.02h-.01s0-.02,0-.02h0s0-.02,0-.02h0s0-.02,0-.02h0s0-.02,0-.02h0s0-.02,0-.02h0s0-.02,0-.02h0s0-.02,0-.02h0s0-.02,0-.02h0s0-.02,0-.02h0s0-.02,0-.02h0s0-.02,0-.02h0s0-.01,0-.01c.08-.04,.17-.06,.27-.05,.45,.07,.51,.53,.38,.9v-.02Z"/><path class="cls-5" d="M24.74,108.03l-.03-.04-.03-.04-.03-.04-.03-.03-.03-.03-.02-.03-.02-.03-.02-.03-.02-.03-.02-.02-.02-.02-.02-.02v-.02s-.03-.02-.03-.02v-.02s-.02-.02-.02-.02v-.02s-.02-.02-.02-.02v-.02s-.02-.02-.02-.02v-.02s-.02-.01-.02-.01v-.02s-.02-.01-.02-.01h-.01s0-.03,0-.03h-.01s0-.02,0-.02h-.01s0-.02,0-.02h0s0-.02,0-.02h0s0-.02,0-.02h0s0-.02,0-.02h0s0-.02,0-.02h0s0-.02,0-.02h0s0-.02,0-.02h0s0-.02,0-.02h0s0-.02,0-.02h0s0-.02,0-.02h0s0-.02,0-.02h0s0-.02,0-.02h0s0-.02,0-.02h0s0-.02,0-.02h0s0-.02,0-.02h0s0-.02,0-.02h0s0-.02,0-.02h0s0-.02,0-.02h0s0-.02,0-.02h0s0-.02,0-.02h0s0-.02,0-.02h0s0-.02,0-.02h0s0-.02,0-.02h0s0-.02,0-.02c.07-.3,.22-.57,.6-.52,.58,.09,.44,.74,.33,1.15-.02,.14-.04,.3-.07,.46v-.02Z"/><path class="cls-5" d="M19.23,105.86c.01-.33,.09-.68,.47-.73,.42-.01,.55,.22,.57,.51h0s-.01,0-.01,0h-.02s-.01,.02-.01,.02h-.01s-.01,.02-.01,.02h-.01s-.01,.02-.01,.02h-.01s-.01,.02-.01,.02h-.01s-.01,.02-.01,.02h-.01s-.01,.02-.01,.02h-.01s-.01,.02-.01,.02h-.01s0,.02,0,.02h-.01s-.01,.02-.01,.02h-.01s-.01,.02-.01,.02h-.01s-.01,.02-.01,.02h-.01s-.01,.02-.01,.02h-.01s-.01,.02-.01,.02h-.01s-.01,.02-.01,.02h-.01s-.01,.02-.01,.02h-.01s-.01,.02-.01,.02h-.01s-.01,.02-.01,.02h-.01s-.01,.02-.01,.02h-.01s-.01,.02-.01,.02h-.01s-.01,.02-.01,.02h-.01s-.01,.02-.01,.02h-.01s-.01,.02-.01,.02h-.01s-.01,.02-.01,.02h0s0,.02,0,.02h0s0,.02,0,.02h0s0,.02,0,.02h0s0,.02,0,.02h0s0,.02,0,.02h0s0,.02,0,.02h0s0,.02,0,.02h0s0,.02,0,.02h0s0,.02,0,.02h0s0,.02,0,.02h0s0,.02,0,.02h0s0,.02,0,.02h0s0,.02,0,.02h0s0,.02,0,.02h0s0,.02,0,.02h0s0,.02,0,.02h0s0,.02,0,.02h0s0,.02,0,.02h0s0,.02,0,.02h0s0,.02,0,.02h0s0,.02,0,.02h0s0,.02,0,.02h0s0,.02,0,.02h0s0,.02,0,.02h0s0,.02,0,.02h0s0,.02,0,.02h0s0,.02,0,.02h0s0,.02,0,.02h0s0,.02,0,.02h0s0,.02,0,.02h0s0,.02,0,.02h0s0,.02,0,.02h0s0,.02,0,.02h0s0,.02,0,.02h0s0,.02,0,.02h0s0,.02,0,.02h0s0,.02,0,.02h0s0,.02,0,.02h0c.02-.35,.03-.7,.07-1.06"/><path class="cls-5" d="M27.32,80.12c0-.05,.01-.1,.03-.15,.16-.08,.31-.17,.47-.25,.04,.04,.09,.08,.14,.11,.06,.04,.11,.07,.18,.11,.03,.06,.05,.13,.05,.2,0,.24-.21,.42-.45,.42s-.43-.21-.42-.45"/><path class="cls-5" d="M28.91,85.6c-.49-.5-.6-1.26-.84-1.9-.28-.89-.48-1.8-.68-2.72-.03-.29-.17-.63-.18-.94,.2-.11,.41-.21,.61-.32,.04,.04,.09,.08,.14,.11,.04,.03,.08,.05,.12,.08,0,.01,0,.03,0,.04,0,.07,.02,.13,.03,.17,.27,1.35,.56,2.7,1.02,4,.09,.26,.18,.52,.31,.76,.19,.17,.26,.45,.09,.66-.09,.1-.21,.15-.33,.15-.1,0-.2-.03-.28-.1"/><path class="cls-5" d="M31.01,79.74c.02-.09,.08-.16,.14-.22,.01,0,.03,0,.04,0,.15-.01,.3-.02,.46-.04,.08,.05,.15,.12,.19,.22,0,.03,0,.06,0,.1-.1,0-.2,.03-.29,.04-.06,.01-.12,.02-.17,.04-.11,.01-.22,.03-.32,.08-.03,.01-.05,.03-.08,.04,0-.09,.02-.18,.03-.27"/><path class="cls-5" d="M36.67,105.14c.05-.1,.09-.21,.13-.32,.03-.09,.07-.17,.1-.26,0-.01,.01-.03,.02-.04h0s.07,.09,.09,.15c.1,.29-.1,.5-.43,.65,.03-.06,.05-.12,.08-.18"/><path class="cls-5" d="M30.91,102.94c.05,0,.1-.02,.15-.04,.13-.04,.25-.09,.37-.15,.05,0,.09,.01,.14,.01,.03,0,.06,0,.1,0,.06,.08,.1,.18,.16,.27-.04,.05-.07,.1-.1,.16-.03,.05-.05,.1-.07,.16-.08,.1-.16,.21-.23,.32-.03,.05-.06,.1-.09,.16-.25-.26-.48-.56-.43-.89"/><path class="cls-5" d="M25.84,103.1c.02-.18,.03-.37,.04-.55,.02-.24,.04-.49,.05-.73,.21,.22,.39,.45,.55,.71,.19,.34-.11,.65-.4,.65-.08,0-.17-.02-.24-.08"/><path class="cls-5" d="M17.54,102.51c.11-.24,.24-.47,.39-.68,.02,.06,.04,.12,.06,.19,.05,.12,.11,.23,.18,.33,0,.04,0,.08,0,.12,0,.1,.03,.2,.07,.29-.02,.02-.04,.04-.06,.07-.02,.02-.04,.05-.06,.07-.06,.06-.12,.11-.18,.17-.04,.03-.08,.06-.11,.09-.25-.06-.45-.34-.3-.64"/><path class="cls-5" d="M24.11,106.71s.06-.09,.09-.14h0s.01,.02,.01,.02v.02s.02,.02,.02,.02v.02s.03,.02,.03,.02v.02s.03,.02,.03,.02v.02s.03,.02,.03,.02c-.07,.04-.16,.08-.27,.09,.02-.04,.03-.07,.05-.11"/><path class="cls-5" d="M23.98,107.48c-.06-.04-.12-.08-.16-.13,.07-.13,.12-.28,.18-.42,.03-.08,.07-.15,.11-.22,.03-.05,.06-.09,.09-.14h0s.01,.03,.01,.03h.01s.01,.03,.01,.03v.02s.03,.02,.03,.02v.02s.03,.02,.03,.02v.02s.03,.02,.03,.02v.02s.03,.02,.03,.02l.02,.02,.02,.02,.02,.03,.02,.03,.02,.03,.03,.03,.03,.03,.03,.03,.03,.04,.03,.04,.03,.04,.04,.04,.04,.05,.04,.05,.04,.05,.04,.05h0c-.15,.12-.32,.19-.49,.2-.01,0-.02,0-.03,0-.1,0-.21-.02-.32-.08"/><path class="cls-5" d="M18.97,106.34h0s0-.02,0-.02h.01s0-.02,0-.02h.01s0-.02,0-.02h0s0-.02,0-.02h0s.01-.02,.01-.02h0s0-.02,0-.02h0s0-.02,0-.02h0s0-.02,0-.02h0s0-.02,0-.02h0s0-.02,0-.02h0s0-.02,0-.02h0s0-.02,0-.02h0s0-.02,0-.02h0s0-.02,0-.02h0s0-.02,0-.02h0s0-.02,0-.02h0s0-.02,0-.02h0s0-.02,0-.02h0s0-.02,0-.02h0s0-.02,0-.02h0s0-.02,0-.02h0s0-.02,0-.02h0s0-.02,0-.02h0s0-.02,0-.02h0s0-.02,0-.02h0s0-.02,0-.02h0s0-.02,0-.02h0s0-.02,0-.02h0s0-.02,0-.02h0s0-.02,0-.02h0s0-.02,0-.02h0c.14,.34-.12,.64-.42,.69h0Z"/><path class="cls-5" d="M24.22,107.63c-.79-.14-.31-.86-.42-1.35-.01-.05-.03-.1-.04-.16h.01s0,.02,0,.02h0s0,.02,0,.02h0s0,.02,0,.02h0s0,.02,0,.02h0s0,.02,0,.02h0s0,.02,0,.02h0s0,.02,0,.02h0s0,.02,0,.02h0s0,.02,0,.02h0s0,.02,0,.02h0s0,.02,0,.02h0s0,.02,0,.02h0s0,.02,0,.02h0s0,.02,0,.02h0s0,.02,0,.02h0s0,.02,0,.02h0s0,.02,0,.02h0s.01,.02,.01,.02h0s0,.02,0,.02h0s0,.02,0,.02h0s0,.02,0,.02h.01s.01,.02,.01,.02h0s.01,.02,.01,.02h.01s.01,.02,.01,.02h0s.01,.03,.01,.03h.01s.01,.03,.01,.03h.01s.01,.03,.01,.03v.02s.03,.02,.03,.02v.02s.03,.02,.03,.02v.02s.03,.02,.03,.02v.02s.03,.02,.03,.02l.02,.02,.02,.02,.02,.03,.02,.03,.02,.03,.02,.03,.03,.03,.03,.03,.03,.04,.03,.04,.03,.04,.04,.04,.04,.05,.04,.05c-.08,.2-.21,.35-.46,.37,0,0-.02,0-.03,0-.01,0-.02,0-.04,0"/><path class="cls-5" d="M18.95,106.36h0s0-.01,0-.01h.01s0-.02,0-.02h0s0-.02,0-.02h0s0-.02,0-.02h0s0-.02,0-.02h0s0-.02,0-.02h0s0-.02,0-.02h0s0-.02,0-.02h0s0-.02,0-.02h0s0-.02,0-.02h0s0-.02,0-.02h0s0-.02,0-.02h0s0-.02,0-.02h0s0-.02,0-.02h0s0-.02,0-.02h0s0-.02,0-.02h0s0-.02,0-.02h0s0-.02,0-.02h0s0-.02,0-.02h0s0-.02,0-.02h0s0-.02,0-.02h0s0-.02,0-.02h0s0-.02,0-.02h0s0-.02,0-.02h0s0-.02,0-.02h0s0-.02,0-.02h0s0-.02,0-.02h0s0-.02,0-.02h0s0-.02,0-.02h0s0-.02,0-.02h0s0-.02,0-.02h0s0-.02,0-.02h0s0-.02,0-.02h0s0-.02,0-.02h0s0-.02,0-.02h0s0-.02,0-.02h0s0-.02,0-.02h0s0-.02,0-.02h0s0-.02,0-.02h0s0-.02,0-.02h0s0-.02,0-.02h0s0-.02,0-.02h.01s0-.02,0-.02h0s.01-.03,.01-.03h.01s.01-.02,.01-.02h0s.01-.03,.01-.03h.01s.01-.02,.01-.02h.01s.01-.02,.01-.02h.01s.01-.02,.01-.02h.01s0-.02,0-.02h.01s.01-.02,.01-.02h.01s0-.02,0-.02h.01s.01-.02,.01-.02h.01s.01-.02,.01-.02h.01s.01-.02,.01-.02h.01s.01-.02,.01-.02h.01s.01-.02,.01-.02h.01s.01-.02,.01-.02h.01s.01-.02,.01-.02h.01s0-.01,0-.01c-.21,.27-.35,.61-.44,1.03-.1,.18-.25,.27-.42,.27,0,0-.02,0-.03,0-.02,0-.04,0-.05,0"/><path class="cls-5" d="M18.99,108.14c0-.62,0-1.24,.02-1.85h0s0-.02,0-.02h0s0-.02,0-.02h0s0-.02,0-.02h0s0-.02,0-.02h0s0-.02,0-.02h0s0-.02,0-.02h0s0-.02,0-.02h0s0-.02,0-.02h0s0-.02,0-.02h0s0-.02,0-.02h0s0-.02,0-.02h0s0-.02,0-.02h0s0-.02,0-.02h0s0-.02,0-.02h0s0-.02,0-.02h0s0-.02,0-.02h0s0-.02,0-.02h0s0-.02,0-.02h0s0-.02,0-.02h0s0-.02,0-.02h0s0-.02,0-.02h0s0-.02,0-.02h0s0-.02,0-.02h0s0-.02,0-.02h0s0-.02,0-.02h0s0-.02,0-.02h0s0-.02,0-.02h0s0-.02,0-.02h0s0-.02,0-.02h0s0-.02,0-.02h0s0-.02,0-.02h0s0-.02,0-.02h0s0-.02,0-.02h0s0-.02,0-.02h0s0-.02,0-.02h0s0-.02,0-.02h0s0-.02,0-.02h0s0-.03,0-.03h.01s0-.02,0-.02h0s.01-.02,.01-.02h.01s.01-.03,.01-.03h.01s.01-.02,.01-.02h.01s.01-.02,.01-.02h.01s.01-.02,.01-.02h.01s.01-.02,.01-.02h.01s.01-.02,.01-.02h.01s.01-.02,.01-.02h.01s0-.02,0-.02h.01s.01-.02,.01-.02h.01s.01-.02,.01-.02h.01s.01-.02,.01-.02h.01s.01-.02,.01-.02h0s.01-.02,.01-.02h.01s.01-.02,.01-.02h.01s.01-.02,.01-.02h.01s.01-.02,.01-.02h.01s.01-.02,.01-.02h.01s.01-.02,.01-.02h.01s.01-.02,.01-.02h.01s.01-.02,.01-.02h.01s0-.01,0-.01c.03,.05,.05,.11,.06,.17,.04,.56-.06,1.12-.06,1.69-.03,.12-.03,.28-.02,.46h0s-.01,.01-.01,.01h-.01s-.01,.02-.01,.02h-.01s-.01,.02-.01,.02h-.01s-.01,.02-.01,.02h-.01s-.01,.03-.01,.03h-.01s-.01,.03-.01,.03h-.01s-.01,.03-.01,.03v.02s-.03,.01-.03,.01v.02s-.03,.01-.03,.01v.02s-.03,.02-.03,.02v.02s-.03,.01-.03,.01v.02s-.03,.02-.03,.02v.02s-.03,.01-.03,.01h-.01s-.01,.03-.01,.03h-.01s-.01,.03-.01,.03h0s-.01,.02-.01,.02h0c-.13,.05-.25,.11-.36,.19-.09,.07-.16,.15-.21,.25h0s0,0,0,0h0s0,0,0,0h0s0,0,0,0h0s0,0,0,0Z"/><path class="cls-5" d="M24.01,108.67h-.03s-.01,0-.01,0h-.04s-.01,0-.01,0h-.01s-.01,0-.01,0h-.01s-.01,0-.01,0h-.01s-.01,0-.01,0h-.01s-.01,0-.01,0h-.01s-.01,0-.01,0h-.01s-.01,0-.01,0h-.01s0,0,0,0h-.01s-.01,0-.01,0h-.01s0,0,0,0h-.01s0,0,0,0h0s0,0,0,0h0s0,0,0,0h0s0,0,0,0h0s0,0,0,0h0s0,0,0,0h0s0,0,0,0h0s0,0,0,0h0s0,0,0,0h0s0,0,0,0h0s0,0,0,0h0s0,0,0,0h0s0,0,0,0h0s0,0,0,0h0s0,0,0,0h0s0,0,0,0h0s0,0,0,0h0s0,0,0,0h0s0,0,0,0h0s0,0,0,0h0s0,0,0,0h0s0,0,0,0h0s0,0,0,0h0s0,0,0,0h0s0,0,0,0h0s0,0,0,0h0c.06-.78,.06-1.95,.52-2.23h0s0,.01,0,.01h0s0,.02,0,.02h0s0,.02,0,.02h0s0,.02,0,.02h0s0,.02,0,.02h0s0,.02,0,.02h0s0,.02,0,.02h0s0,.02,0,.02h0s.01,.02,.01,.02h0s0,.02,0,.02h.01s0,.02,0,.02h0s.01,.02,.01,.02h0s0,.02,0,.02h.01s.01,.02,.01,.02h0s.01,.03,.01,.03h.01s.01,.03,.01,.03v.02s.02,.01,.02,.01v.02s.03,.01,.03,.01v.02s.03,.02,.03,.02v.02s.03,.02,.03,.02v.02s.03,.02,.03,.02l.02,.02,.02,.02,.02,.02,.02,.03,.02,.03,.02,.03,.02,.03,.03,.03,.03,.04,.03,.04,.03,.04v.02s0,.02,0,.02c-.12,.31-.1,.92-.15,1.45h0s-.01,0-.01,0h-.01s-.01,0-.01,0h-.01s-.01,0-.01,0h-.01s-.01,0-.01,0h-.01s-.01,0-.01,0h-.01s-.01,0-.01,0h-.01s-.01,0-.01,0h-.01s-.01,0-.01,0h-.01s0,0,0,0h0s-.01,0-.01,0h0s0,0,0,0h-.01s0,0,0,0h-.01s0,0,0,0h-.01s0,0,0,0h-.01s-.01,0-.01,0h-.01s-.01,0-.01,0h-.01s-.01,0-.01,0h-.04s-.01,0-.01,0Z"/><path class="cls-5" d="M24.08,107.73c-.64-.08-.45-.81-.39-1.25,.01-.12,.02-.26,.05-.39h0s.01,.02,.01,.02h0s0,.02,0,.02h.01s0,.02,0,.02h0s0,.02,0,.02h0s0,.02,0,.02h0s0,.02,0,.02h0s0,.02,0,.02h0s0,.02,0,.02h0s0,.02,0,.02h0s0,.02,0,.02h0s0,.02,0,.02h0s0,.02,0,.02h0s0,.02,0,.02h0s0,.02,0,.02h0s0,.02,0,.02h0s0,.02,0,.02h0s0,.02,0,.02h0s0,.02,0,.02h0s0,.02,0,.02h0s0,.02,0,.02h0s0,.02,0,.02h0s0,.02,0,.02h0s0,.02,0,.02h0s.01,.02,.01,.02h0s.01,.02,.01,.02h.01s.01,.02,.01,.02h.01s.01,.03,.01,.03h.01s.01,.03,.01,.03h.01s.01,.03,.01,.03v.02s.02,.02,.02,.02v.02s.03,.02,.03,.02v.02s.03,.02,.03,.02l.02,.02,.02,.02,.02,.02,.02,.03,.02,.03,.02,.03,.02,.03,.03,.03,.03,.03,.03,.04,.03,.04,.03,.04v.02c-.03,.3-.14,.58-.47,.6h-.03s-.03,0-.05,0"/><path class="cls-5" d="M19.37,107.97h0s0,.01,0,.01h0s0,.01,0,.01h0s0,.01,0,.01h0s0,.01,0,.01h0s0,.01,0,.01h0s0,.01,0,.01h0s0,.01,0,.01h0s0,0,0,0h0s0,0,0,0h0s0,0,0,0h0s0,0,0,0h0s0,0,0,0h0s0,0,0,0h0s0,0,0,0h0s0,0,0,0h0s0,0,0,0h0s0,0,0,0h0s0,0,0,0h0s0,0,0,0h0s0,0,0,0h0s0,0,0,0h0s0,0,0,0h0s0,0,0,0h0c.08-.06,.16-.11,.25-.15"/><path class="cls-5" d="M19,108.14c-.02-.16,0-.33,0-.47,0-.33,0-.66,0-.99,0-.12,0-.25,0-.37h0s0-.02,0-.02h0s0-.02,0-.02h0s0-.02,0-.02h0s0-.02,0-.02h0s0-.02,0-.02h0s0-.02,0-.02h0s0-.02,0-.02h0s0-.02,0-.02h0s0-.02,0-.02h0s0-.02,0-.02h0s0-.02,0-.02h0s0-.02,0-.02h0s0-.02,0-.02h0s0-.02,0-.02h0s0-.02,0-.02h0s0-.02,0-.02h0s0-.02,0-.02h0s0-.02,0-.02h0s0-.02,0-.02h0s0-.02,0-.02h0s0-.02,0-.02h0s0-.02,0-.02h0s0-.02,0-.02h0s0-.02,0-.02h0s0-.02,0-.02h0s0-.02,0-.02h0s0-.02,0-.02h0s0-.02,0-.02h0s0-.02,0-.02h0s0-.02,0-.02h0s0-.02,0-.02h0s0-.02,0-.02h0s0-.02,0-.02h0s0-.02,0-.02h0s0-.02,0-.02h0s0-.02,0-.02h0s0-.02,0-.02h0s0-.02,0-.02h0s0-.03,0-.03h0s.01-.02,.01-.02h.01s0-.03,0-.03h.01s.01-.02,.01-.02h.01s.01-.02,.01-.02h.01s.01-.02,.01-.02h.01s.01-.02,.01-.02h0s.01-.02,.01-.02h.01s.01-.02,.01-.02h0s.01-.02,.01-.02h.01s.01-.02,.01-.02h.01s.01-.02,.01-.02h.01s.01-.02,.01-.02h0s.01-.02,.01-.02h.01s.01-.02,.01-.02h.01s.01-.02,.01-.02h.01s.01-.02,.01-.02h.01s.01-.02,.01-.02h.01s.01-.02,.01-.02h.01s.01-.02,.01-.02h.01s.01-.02,.01-.02h.01s.01-.02,.01-.02h.01s.01-.02,.01-.02h.01s.01-.02,.01-.02h0c.02,.17,0,.36-.01,.54,0,.54,0,1.08,0,1.61,0,.05,0,.1,0,.15h0s-.01,.01-.01,.01h-.01s-.01,.02-.01,.02h-.01s-.01,.02-.01,.02h-.01s-.01,.02-.01,.02h-.01s-.01,.02-.01,.02h-.01s-.01,.03-.01,.03h-.01s-.01,.03-.01,.03h-.01s-.01,.03-.01,.03h-.01s-.01,.03-.01,.03h-.01s-.01,.03-.01,.03h-.01s-.01,.03-.01,.03v.02s-.03,.02-.03,.02v.02s-.03,.01-.03,.01v.02s-.03,.01-.03,.01h-.01s-.01,.03-.01,.03h-.01s-.01,.03-.01,.03h-.01s-.01,.02-.01,.02h0s-.01,.02-.01,.02h0s0,.02,0,.02h0s0,.02,0,.02h0s0,.02,0,.02h0s0,.02,0,.02h0s0,.02,0,.02h0s0,.02,0,.02h0s0,.02,0,.02h0s0,.02,0,.02h0s0,.02,0,.02h0s0,.02,0,.02h0s0,.02,0,.02h0s0,.02,0,.02h0s0,.02,0,.02h0s0,.02,0,.02h0s0,.02,0,.02h0s0,.01,0,.01h0s0,.01,0,.01h0s0,.01,0,.01h0s0,.01,0,.01h0s0,.01,0,.01h0s0,.01,0,.01h0s0,.01,0,.01h0s0,0,0,0h0s0,0,0,0h0s0,0,0,0h0s0,0,0,0h0s0,0,0,0h0s0,0,0,0h0s0,0,0,0h0s0,0,0,0h0s0,0,0,0h0s0,0,0,0h0s0,0,0,0h0s0,0,0,0h0s0,0,0,0h0s0,0,0,0h0s0,0,0,0h0s0,0,0,0h0s0,0,0,0h0s0,0,0,0h0s0,0,0,0h0s0,0,0,0h0s0,0,0,0h0s0,0,0,0h0s0,0,0,0h0s0,0,0,0h0s0,0,0,0h0s0,0,0,0h0s0,0,0,0h0s0,0,0,0Z"/><path class="cls-5" d="M19.37,107.96s0,0,.01,0h0s0,0,0,0h0s0,.01,0,.01h0s0,.02,0,.02h0s0,.01,0,.01h0s0,.01,0,.01h0s0,.01,0,.01h0s0,.01,0,.01h0s0,.01,0,.01h0s0,0,0,0h0s0,0,0,0h0s0,0,0,0h0s0,0,0,0h0s0,0,0,0h0s0,0,0,0h0s0,0,0,0h0s0,0,0,0h0s0,0,0,0h0s0,0,0,0h0s0,0,0,0h0s0,0,0,0h0s0,0,0,0h0s0,0,0,0c.07-.05,.15-.1,.23-.15"/><path class="cls-5" d="M18.87,107.15h0s0,0,0,0h0s0,0,0,0h0s-.03,.05-.04,.08c0-.02,0-.05,0-.07"/><path class="cls-5" d="M19.52,106.72h.01s.01-.02,.01-.02h.01s.01-.03,.01-.03h.01s.01-.03,.01-.03h.01s.02-.03,.02-.03v-.02s.03-.01,.03-.01h.01s.01-.03,.01-.03l.02-.02v-.02s.03-.01,.03-.01h.01s.01-.03,.01-.03h.02s.01-.03,.01-.03h.01s.02-.03,.02-.03h.01s.01-.03,.01-.03h.01s.01-.02,.01-.02h.01s.01-.02,.01-.02h.02s.01-.02,.01-.02h.01s.02-.02,.02-.02h0c0,.11,0,.22,0,.34-.07,0-.13,0-.19,.02-.09,.01-.18,.03-.26,.05h0Z"/><path class="cls-5" d="M23.8,108.94s-.02,0-.03,0c-.01,0-.02,0-.04,0-.29-.04-.5-.32-.45-.6,.04-.13,.08-.32,.11-.53h0s0,0,0,0h0s0,0,0,0h0s0,0,0,0h0s0,0,0,0h0s0,0,0,0h0s0,0,0,0h0s0,0,0,0h0s0,0,0,0h0s0,0,0,0h0s0,0,0,0h0s0,0,0,0h0s0,0,0,0h0s0,0,0,0h0s0,0,0,0h0s0,0,0,0h0s0,0,0,0h0s0,0,0,0h0s0,0,0,0h0s0,0,0,0h0s0,0,0,0h0s0,0,0,0h0s0,0,0,0h0s0,0,0,0h0s0,0,0,0h0s.01,0,.01,0h0s.01,0,.01,0h0s.01,0,.01,0h.01s.01,0,.01,0h0s.01,0,.01,0h.01s.01,0,.01,0h.01s.01,0,.01,0h.01s.01,0,.01,0h.01s.01,0,.01,0h.01s.01,0,.01,0h.01s.02,0,.02,0h.01s.01,0,.01,0h.01s.01,0,.01,0h.01s.01,0,.01,0h.01s.01,0,.01,0h.01s.01,0,.01,0h.01s.01,0,.01,0h.05s0,0,0,0h.02s.01,0,.01,0h0s.01,0,.01,0h.01s.01,0,.01,0h0s.01,0,.01,0h.01s0,0,0,0h.01s.01,0,.01,0h.01s.01,0,.01,0h.01s.01,0,.01,0h.01s.01,0,.01,0h.01s.01,0,.01,0h.01s.02,0,.02,0h.01s.01,0,.01,0h.01s.01,0,.01,0h.02s.01,0,.01,0c-.07,.39-.16,.73-.37,.9-.1,.03-.19,.07-.28,.11h-.02Z"/><path class="cls-5" d="M22.26,108.94s0-.02,0-.03c0-.12,0-.24,.01-.37,.05-.16,.06-.33,.01-.5,.15,0,.28-.02,.41-.03,.7-.07,1.11-.14,1.22,.4,.04,.28-.18,.56-.46,.59-.4,.05-.8,.11-1.2,.13,.01-.06,.02-.13,.01-.19"/><path class="cls-5" d="M23.65,108.8c-.09-.38,.2-.77,.6-.71,.14,.02,.25,.09,.33,.19-.11,.14-.18,.32-.2,.5-.05,0-.09,.01-.14,.02-.18,.04-.36,.11-.53,.19-.01,0-.02,0-.04,0-.01-.07-.02-.13-.03-.19"/><path class="cls-5" d="M18.78,108.11c-.05,0-.11-.01-.16-.02-.03,0-.06-.02-.09-.03-.02,0-.03-.01-.05-.02-.01,0-.03-.01-.04-.02v-.02s-.02-.02-.02-.02v-.02s-.01,0-.01,0c.13-.02,.26-.04,.39-.05,0,.03,0,.06,.01,.09,0,.04,.02,.08,.03,.11-.02,0-.04,0-.06-.01"/><path class="cls-5" d="M18.53,108.06s.04,.01,.05,.02c-.02,0-.04-.01-.05-.02"/><path class="cls-5" d="M23.75,108.98c-.11-.4,.13-.87,.6-.8,.21,0,.36,.23,.47,.55h-.06s-.05,0-.05,0h-.05s-.05,.02-.05,.02h-.04s-.04,.02-.04,.02h-.03s-.03,.03-.03,.03l-.03,.02h-.03s-.02,.03-.02,.03l-.02,.02h-.02s-.02,.03-.02,.03l-.02,.02h-.02s-.02,.03-.02,.03l-.02,.02h-.02s-.02,.03-.02,.03h-.02s-.02,.03-.02,.03l-.02,.02h-.02s-.02,.03-.02,.03c-.12-.06-.25-.08-.38-.07"/><path class="cls-5" d="M22.54,109.12s-.03,0-.05,0c-.09,0-.17-.02-.25-.04-.3-.05-.63-.06-.89-.23-.4-.22-.54-.73-.99-.87-.26-.06-.62-.11-.83,.1-.03,.03-.06,.07-.09,.11-.04,0-.06,0-.09,0,0,0,.02,0,.03,0-.02,0-.04,0-.06,0h0s-.04,0-.06,0c-.04,0-.08,0-.12,0-.01,0-.02,0-.03,0-.04,0-.08-.02-.12-.03,.02,0,.03,0,.05,.01-.09-.02-.17-.04-.26-.05-.05,0-.1-.01-.16-.02-.03,0-.06-.02-.09-.03l-.05-.02s-.03,0-.04-.02v-.02s-.02-.02-.02-.02v-.02s-.02-.02-.02-.02v-.02s-.02-.02-.02-.02v-.02s-.02-.01-.02-.01h0c.09-.12,.18-.22,.24-.33,.11-.18,.26-.32,.42-.43h0s0,0,0,0h0s0,0,0,0h0s0,0,0,0h0s0,0,0,0h0s0,0,0,0h0s0,0,0,0h0s0,0,0,0h0s0,0,0,0h0s0,0,0,0h0s0,0,0,0h0s0,0,0,0h0s0,0,0,0h0s0,0,0,0h0s0,0,0,0h0s0,0,0,0h0s0,0,0,0h0s0-.01,0-.01h0s0-.01,0-.01h0s0-.01,0-.01h0s0-.01,0-.01h0s0-.01,0-.01h0s0-.01,0-.01h0c.4-.16,.86-.17,1.28-.08,.39,.1,.77,.32,1.02,.63,.12,.13,.2,.31,.36,.4,.45,.12,1.23,0,1.24,.65-.01,.38-.31,.52-.62,.52h0Z"/><path class="cls-5" d="M18.95,108.14s.02,0,.03,0c-.01,0-.02,0-.03,0"/><path class="cls-5" d="M18.53,108.06s.04,.01,.05,.02c-.02,0-.04-.01-.05-.02"/><path class="cls-5" d="M19.38,107.81c-.39-.02-.49-.33-.51-.66h0s0,0,0,0h0s0,0,0,0h0s0,0,0,0h0s0,0,0,0h0s0,0,0,0h0s0,0,0,0h0s0,0,0,0h0s0,0,0,0h0s0,0,0,0h0s0,0,0,0h0s0,0,0,0h0s0,0,0,0h0s0,0,0,0h0s0,0,0,0h0s0,0,0,0h.01s0,0,0,0h0s0,0,0,0h0s0,0,0,0h0s0,0,0,0h0s0,0,0,0h0s0,0,0,0h0s0,0,0,0h0s0,0,0,0h0s0,0,0,0h0s0,0,0,0h0s0,0,0,0h0s0-.01,0-.01h0s0-.01,0-.01h0s0-.01,0-.01h0s0-.01,0-.01h0s0-.01,0-.01h0s0-.01,0-.01h0s0-.01,0-.01h0s0-.02,0-.02h0s0-.02,0-.02h0s0-.02,0-.02h0s0-.02,0-.02h0s0-.02,0-.02h0s0-.02,0-.02h0s0-.02,0-.02h0s0-.02,0-.02h0s0-.02,0-.02h0s0-.02,0-.02h0s0-.02,0-.02h0s0-.02,0-.02h0s0-.02,0-.02h0s0-.02,0-.02h.01s.01-.02,.01-.02h0s.01-.02,.01-.02h.01s.01-.02,.01-.02h.01s.01-.03,.01-.03h.01s.01-.03,.01-.03h.01s.01-.03,.01-.03h.01s.01-.03,.01-.03h.01s.01-.03,.01-.03v-.02s.03-.01,.03-.01h.01s.02-.03,.02-.03h.01s.01-.03,.01-.03h.02s.01-.03,.01-.03h.01s.01-.03,.01-.03h.02s.01-.03,.01-.03h.01s.01-.02,.01-.02h.01s.01-.02,.01-.02h.01s.01-.02,.01-.02h.01s.01-.02,.01-.02h.01s0-.01,0-.01c-.01,.25-.03,.49-.06,.74,.05,.38-.1,.76-.54,.77,0,0-.02,0-.02,0"/><path class="cls-5" d="M19.23,108.18h-.01s-.05,0-.08,0c-.01,0-.02,0-.03,0-.04,0-.08-.02-.12-.03,.02,0,.04,0,.06,.01-.09-.02-.17-.04-.26-.05-.05,0-.11-.01-.16-.02-.03,0-.06-.02-.09-.02,.02,0,.04,.01,.06,.02-.03-.01-.07-.02-.11-.03-.01,0-.03-.01-.04-.02v-.02s-.02-.02-.02-.02v-.02s-.02-.02-.02-.02c.31-.13,.61-.17,.83,.17,.01,.02,.02,.04,.03,.06h-.03Z"/><path class="cls-5" d="M18.95,108.14s.02,0,.03,0c-.01,0-.02,0-.03,0"/><path class="cls-5" d="M18.71,108.75v-.02s-.02-.02-.02-.02v-.02s-.02-.02-.02-.02v-.02s-.02-.02-.02-.02v-.02s-.02-.02-.02-.02v-.02s-.01-.02-.01-.02v-.02s-.02-.02-.02-.02v-.02s-.01-.02-.01-.02v-.02s-.01-.02-.01-.02v-.02s-.01-.02-.01-.02v-.02s-.01-.02-.01-.02v-.02s-.01-.02-.01-.02v-.02s-.01-.02-.01-.02v-.02s-.01-.02-.01-.02v-.02s-.01-.02-.01-.02v-.02s-.01-.02-.01-.02v-.02s-.01-.02-.01-.02v-.02s-.02-.02-.02-.02v-.02s-.02-.02-.02-.02v-.02s-.02-.02-.02-.02v-.02s-.02-.02-.02-.02v-.02s-.02-.02-.02-.02v-.02s-.02-.02-.02-.02h-.01s0-.03,0-.03h-.01s-.01-.02-.01-.02h0s-.01-.02-.01-.02h0s-.01-.02-.01-.02h-.01s0-.02,0-.02h0s0-.01,0-.01h0c.23-.25,.5-.48,.78-.66h0s0,0,0,0h0s0,0,0,0h0s0,0,0,0h0s0,0,0,0h0s0,0,0,0h0s0,0,0,0h0s0,0,0,0h0s0,0,0,0h0s0,0,0,0h0s0,0,0,0h0s0,0,0,0h0s0,0,0,0h0s0,0,0,0h0s0,0,0,0h0s0,0,0,0h0s0-.01,0-.01h0s0-.01,0-.01h0s0-.01,0-.01h0s0-.01,0-.01h0s0-.01,0-.01h0s0-.02,0-.02h0s0-.02,0-.02h0c.42-.18,.87,.3,.68,.71-.17,.31-.56,.41-.79,.66-.09,.1-.18,.19-.28,.28-.04,.02-.08,.05-.11,.08,0,0,0,0,0,0-.02,.02-.04,.03-.06,.04h0Z"/><path class="cls-5" d="M18.16,108.3s-.06-.02-.08-.03c.02,0,.05-.01,.07-.02h0s.01,.02,.01,.02v.02s.02,.02,.02,.02c0,0-.02,0-.03,0"/><path class="cls-5" d="M18.16,108.3s-.06-.02-.09-.04c0-.03,0-.05,0-.08,0,0,.01-.02,.02-.03h.01s.01,.03,.01,.03h.01s.01,.03,.01,.03v.02s.02,.02,.02,.02v.02s.02,.02,.02,.02v.02s0,0-.02-.01"/><path class="cls-5" d="M18.16,108.3s-.05-.02-.08-.03c.02-.01,.04-.02,.06-.03v.02s.02,.02,.02,.02v.02s.02,.02,.02,.02c0,0-.02,0-.03,0"/><path class="cls-5" d="M18.4,108.79l-.02-.02-.02-.02-.02-.02-.02-.02-.02-.02-.02-.02-.02-.02h-.01s-.01-.03-.01-.03h-.01s-.01-.02-.01-.02h-.01s-.01-.02-.01-.02h-.01s-.01-.02-.01-.02h-.01s-.01-.02-.01-.02h-.01s-.01-.02-.01-.02h-.01s-.01-.02-.01-.02h-.01s-.01-.02-.01-.02h-.01s0-.02,0-.02h-.01s-.01-.02-.01-.02h-.01s-.01-.02-.01-.02h-.01s-.01-.01-.01-.01h-.01s-.01-.02-.01-.02h-.01s-.01-.02-.01-.02h-.01s-.01-.02-.01-.02h-.01s-.01-.02-.01-.02h-.01s-.01-.02-.01-.02h-.01s-.01-.02-.01-.02h-.01s-.01-.02-.01-.02h-.01s-.01-.02-.01-.02h-.01s-.01-.02-.01-.02h-.01s-.01-.02-.01-.02h-.01s0-.02,0-.02h-.01s0-.02,0-.02h-.01s0-.02,0-.02h-.01s0-.01,0-.01c.08-.02,.16-.04,.24-.06,.02-.02,.03-.04,.05-.06h0s0,.01,0,.01h0s.01,.01,.01,.01h0s.01,.02,.01,.02h.01s.01,.02,.01,.02h.01s.01,.02,.01,.02h.01s.01,.02,.01,.02h.01s.01,.03,.01,.03v.02s.02,.02,.02,.02v.02s.03,.02,.03,.02v.02s.02,.02,.02,.02v.02s.02,.02,.02,.02v.02s.02,.02,.02,.02v.02s.02,.02,.02,.02v.02s.02,.02,.02,.02v.02s.02,.02,.02,.02v.02s.02,.02,.02,.02v.02s.01,.02,.01,.02v.02s.01,.02,.01,.02v.02s.01,.02,.01,.02v.02s.01,.02,.01,.02v.02s.01,.02,.01,.02v.02s.01,.02,.01,.02v.02s.02,.02,.02,.02v.02s.01,0,.01,0v-.02Z"/><path class="cls-5" d="M18.52,108.94l-.02-.02-.02-.02-.02-.02-.02-.02-.02-.02-.02-.02-.02-.02-.02-.02-.02-.02-.02-.02-.02-.02-.02-.02-.02-.02-.02-.02v-.02s-.03-.01-.03-.01h-.01s-.01-.03-.01-.03h-.01s-.01-.02-.01-.02h-.01s-.01-.02-.01-.02h-.01s-.01-.02-.01-.02h-.01s-.01-.02-.01-.02h-.01s-.01-.01-.01-.01h-.01s0-.02,0-.02h-.01s0-.02,0-.02h-.01s-.01-.01-.01-.01h0s-.01-.02-.01-.02h0s-.01-.01-.01-.01h-.01s0-.02,0-.02h-.01s-.01-.02-.01-.02h-.01s-.01-.02-.01-.02h-.01s-.01-.02-.01-.02h-.01s-.01-.02-.01-.02h-.01s-.01-.02-.01-.02h-.01s-.01-.02-.01-.02h-.01s-.01-.02-.01-.02h0c.02-.06,.06-.1,.1-.14,.19-.29,.41-.57,.68-.78,.58-.39,1.17,.47,.61,.88-.11,.1-.22,.24-.32,.38-.03,.02-.06,.04-.09,.07-.08,.08-.17,.16-.24,.24h0Z"/><path class="cls-5" d="M23.95,107.97c-.11-.43,.26-.67,.65-.69,.31-.29,.86-.03,.85,.39,.01,.4-.39,.59-.73,.63-.08,.03-.16,.04-.24,.04-.23,0-.46-.12-.52-.37"/><path class="cls-5" d="M18.87,107.53c-.94-.59-1.52-1.69-1.68-2.77-.06-.51-.06-1.02-.01-1.53,.02-.46,.08-1.12,.71-.99,.14,.04,.23,.11,.29,.21,0,0,0,.02,0,.02,.01,.11,.04,.21,.08,.31,0,.23-.06,.5-.07,.72-.09,1.07,.14,2.22,.96,2.97,.31,.21,.65,.46,.43,.88-.1,.16-.27,.26-.45,.26-.09,0-.18-.02-.26-.07"/><path class="cls-5" d="M23.77,115.75v-.03s0-.03,0-.03v-.05s0-.03,0-.03v-.02s0-.02,0-.02v-.02s0-.02,0-.02v-.02s0-.03,0-.03v-.02s0-.03,0-.03v-.03s0-.02,0-.02v-.03s0,0,0,0c.07,.14,.08,.31,.02,.45v-.03Z"/><path class="cls-5" d="M23.8,116.21v-.04s0-.05,0-.05v-.05s0-.05,0-.05v-.04s0-.04,0-.04v-.04s0-.04,0-.04v-.04s0-.03,0-.03v-.03s0-.03,0-.03v-.03s0-.03,0-.03v-.03s0-.03,0-.03v-.03s0-.02,0-.02v-.03s0-.02,0-.02v-.02s0-.02,0-.02v-.03s0-.03,0-.03v-.02s0-.03,0-.03v-.03s0-.02,0-.02v-.03s0-.02,0-.02v-.02s0-.02,0-.02v-.02s0-.02,0-.02v-.02s0-.02,0-.02v-.02s0-.02,0-.02v-.02s0-.02,0-.02h0s0-.02,0-.02h0v-.02h0s0-.02,0-.02h0s0-.02,0-.02h0s0-.01,0-.01h0s0-.02,0-.02h0c.6-1.61,1.03-3.43,.75-5.14,.05-.17,.03-.35-.05-.52-.02-.05-.06-.09-.09-.13-.04-.15-.09-.3-.15-.45h0s.02-.02,.02-.02h.02s.02-.03,.02-.03h.02s.02-.03,.02-.03h.02s.02-.03,.02-.03h.02s.01-.03,.01-.03l.02-.02h.02s.01-.03,.01-.03h.02s.02-.03,.02-.03h.02s.01-.03,.01-.03v-.02s.03-.02,.03-.02h.02s.02-.03,.02-.03l.02-.02,.02-.02,.02-.02,.02-.02h.02s.02-.03,.02-.03l.02-.02,.02-.02h.02s.02-.03,.02-.03h.02s.02-.03,.02-.03l.03-.02,.03-.02,.03-.02,.04-.02h.04s.05-.03,.05-.03h.05s.05-.02,.05-.02h.05s0,0,0,0c.29,.65,.44,1.73,.5,2.08,.15,.79-.43,5.92-1.68,6.01h0s-.02,0-.02,0c-.03,0-.06,0-.09,0"/><path class="cls-5" d="M23.79,116.07v-.05s0-.04,0-.04v-.04s0-.04,0-.04v-.04s0-.04,0-.04v-.03s0-.03,0-.03v-.03s0-.03,0-.03v-.03s0-.03,0-.03v-.03s0-.03,0-.03v-.02s0-.02,0-.02v-.02s0-.02,0-.02v-.02s0-.03,0-.03v-.02s0-.03,0-.03v-.03s0-.03,0-.03v-.02s0-.02,0-.02v-.03s0-.02,0-.02v-.02s0-.02,0-.02v-.02s0-.02,0-.02v-.02s0-.02,0-.02v-.02s0-.02,0-.02h0s0-.03,0-.03h0s0-.02,0-.02h0s0-.02,0-.02c.16,.01,.3,.08,.39,.22,.22,.3,0,.65-.32,.87v-.05Z"/><path class="cls-5" d="M20.32,116.77c-2.03,0-6.02-1.27-7.43-2.91,.04-.13,.08-.26,.12-.39,0,0,0,0,0,0,.06,0,.11,0,.17,0,.09,0,.18-.01,.27-.02,.1,0,.2-.02,.29-.03,.07,.05,.15,.1,.22,.16,.18,.13,.35,.26,.53,.37,.05,.03,.1,.06,.15,.09,.11,.08,.22,.15,.34,.22,.22,.12,.44,.22,.67,.32,.18,.08,.35,.17,.54,.23,.13,.04,.27,.07,.4,.11,.02,.01,.05,.02,.07,.03,.26,.13,.55,.28,.85,.28,1.47,.45,3.03,.6,4.26,.28,.57-.12,1.13-.29,1.66-.52,.02,0,.04-.02,.06-.02,.26-.08,.48,.05,.59,.24h0s0,.03,0,.03v.02s0,.03,0,.03v.02s0,.03,0,.03v.02s0,.02,0,.02v.02s0,.02,0,.02v.03s0,.02,0,.02v.03s0,.03,0,.03v.03s0,.03,0,.03v.03s0,.03,0,.03c-.04,.13-.13,.24-.29,.31-.92,.39-1.9,.63-2.89,.75-.04,0-.09,.02-.14,.02-.06,0-.13,.02-.19,.02-.01,0-.03,0-.04,0-.07,0-.13,0-.21,0h-.05Z"/><path class="cls-5" d="M23.86,115.95c-.29-.28-.11-.65,.09-.91,.02-.07,.04-.13,.06-.2h0s0,0,0,0h0s0,.01,0,.01h0s0,.01,0,.01h0s0,.02,0,.02h0s0,.02,0,.02h0s0,.02,0,.02h0s0,.03,0,.03h0s0,.03,0,.03v.02s0,.02,0,.02v.02s0,.02,0,.02v.02s0,.02,0,.02v.02s0,.02,0,.02v.02s0,.03,0,.03v.02s0,.02,0,.02v.03s0,.02,0,.02v.02s0,.02,0,.02v.02s0,.02,0,.02v.02s0,.02,0,.02v.03s0,.03,0,.03v.03s0,.03,0,.03v.03s0,.03,0,.03v.03s.01,.03,.01,.03v.04s0,.04,0,.04v.04s.01,.04,.01,.04v.05s.01,.05,.01,.05v.05s.01,.05,.01,.05v.04c-.1-.01-.21-.05-.33-.13"/><path class="cls-5" d="M23.54,116.25c-.09,0-.16-.02-.23-.06-.68-.43,.1-1.29,.72-1.29h0s0,.02,0,.02h0s0,.02,0,.02h0s0,.03,0,.03v.02s0,.02,0,.02v.02s0,.02,0,.02v.02s0,.02,0,.02v.02s0,.02,0,.02v.02s0,.02,0,.02v.03s0,.03,0,.03v.02s0,.03,0,.03v.02s0,.02,0,.02v.02s0,.02,0,.02v.02s0,.03,0,.03v.02s0,.02,0,.02v.03s0,.02,0,.02v.03s0,.03,0,.03v.03s0,.03,0,.03v.03s0,.03,0,.03v.04s.01,.04,.01,.04v.04s.01,.04,.01,.04v.04s.01,.05,.01,.05v.04c-.16,.13-.36,.23-.55,.25-.01,0-.03,0-.04,0,0,0,0,0-.01,0-.01,0-.02,0-.03,0h0Z"/><path class="cls-5" d="M13.59,114.29c-.1,0-.21-.03-.32-.11-.52-.41-.98-.85-1.4-1.36-.4-.36-.38-1.07,.25-1.11,.25,0,.39,.16,.51,.34,.03,.22,.14,.42,.3,.59,.16,.19,.33,.38,.51,.54,.16,.14,.34,.26,.51,.38,.06,.04,.11,.09,.17,.13,.02,.28-.2,.55-.47,.59-.01,0-.02,0-.04,0,0,0-.02,0-.02,0h0Z"/><path class="cls-5" d="M11.62,112.04c-.03-.56,.24-1.07,.58-1.49,.83-1.2,2.17-1.43,3.52-1.45,0,.06,.01,.13,.03,.19,0,.04,.02,.08,.04,.11,0,.03,0,.06-.01,.09,0,.02-.01,.04-.02,.07-.02,.06-.04,.11-.07,.17,0,.02-.01,.03-.02,.05-.07,.05-.13,.1-.2,.15-.03,.02-.07,.04-.1,.07-.05,.01-.1,.02-.14,.04,0,0,0,0,0,0-.01,0-.02,.01-.03,.02-.01,0-.03,.01-.04,.02,0,0,0,0,0,0-.16,.03-.31,.07-.46,.13-.11,.02-.22,.07-.32,.11,0,0-.02,0-.02,0-.5,.12-.95,.45-1.27,.87-.22,.12-.37,.34-.42,.59-.04,.23,0,.43,.1,.62,0,0,0,0,0,.01,0,.27-.21,.49-.46,.53-.01,0-.02,0-.04,0-.01,0-.02,0-.03,0-.46,0-.6-.5-.59-.88"/><path class="cls-5" d="M13.87,110.43c-.17,0-.33-.08-.45-.32-.12-.27,.02-.59,.29-.7,.69-.33,1.45-.49,2.18-.69,.69-.19,1.37-.4,2.05-.62h0s.01,.01,.01,.01h.01s.01,.02,.01,.02h.01s.01,.01,.01,.01h.01s.01,.02,.01,.02h.01s.01,.02,.01,.02h.01s.01,.02,.01,.02h.01s.01,.02,.01,.02h.01s.01,.02,.01,.02h.01s.01,.02,.01,.02h.01s.01,.02,.01,.02h.01s.01,.02,.01,.02h.01s.01,.02,.01,.02h.01s.01,.02,.01,.02h.01s.01,.01,.01,.01h.01s.01,.01,.01,.01h0s.01,.01,.01,.01h.01s0,.01,0,.01h.01s.01,.01,.01,.01h.01s.01,.01,.01,.01h.01s.01,.02,.01,.02h.01s.01,.02,.01,.02h.01s.01,.02,.01,.02h.01s.01,.02,.01,.02h.01s.01,.02,.01,.02h.01s.01,.02,.01,.02h.02s.02,.03,.02,.03l.02,.02,.02,.02,.02,.02,.02,.02,.02,.02,.02,.02,.02,.02v.02s.02,.01,.02,.01v.02s.02,.02,.02,.02v.02s.01,0,.01,0c-.11,.1-.22,.21-.32,.33-.01,0-.02,0-.03,0-1.19,.43-2.5,.72-3.7,1.1-.05,.01-.1,.03-.16,.05-.1,.03-.19,.07-.28,.12-.11,.05-.22,.08-.32,.1-.02,0-.03,0-.05,0-.01,0-.02,0-.03,0h0Z"/><path class="cls-5" d="M18.24,108.83c-.2-.14-.28-.43-.18-.65h.01s.01,.02,.01,.02h.01s.01,.02,.01,.02h.01s.01,.02,.01,.02h.01s.01,.02,.01,.02h.01s.01,.02,.01,.02h.01s.01,.02,.01,.02h.01s.01,.02,.01,.02h.01s.01,.01,.01,.01h0s.01,.01,.01,.01h.01s.01,.01,.01,.01h.01s.01,.01,.01,.01h.01s.01,.01,.01,.01h.01s.01,.02,.01,.02h.01s.01,.01,.01,.01h.01s.01,.01,.01,.01h.01s.01,.02,.01,.02h.01s.01,.02,.01,.02h.01s.01,.02,.01,.02h.01s.01,.02,.01,.02h.02s.01,.02,.01,.02h.02s.02,.03,.02,.03l.02,.02,.02,.02,.02,.02,.02,.02,.02,.02,.02,.02,.02,.02,.02,.02,.02,.02h.01c-.07,.09-.16,.16-.23,.24-.09,0-.19-.04-.3-.11"/><path class="cls-5" d="M23.67,114.84c.08-.07,.13-.16,.16-.25,.03-.07,.05-.15,.06-.24,0-.02,0-.05,.01-.07,.02-.1,.05-.2,.06-.29,.16-.02,.31-.04,.47-.06,.56-.03,.62,.83,.05,.87-.31,.03-.61,.08-.92,.13,.04-.02,.07-.05,.11-.08"/><path class="cls-5" d="M23.61,114.82s0,.01-.01,.02c0,0,0,0,0,0,0,0,.01-.01,.02-.02"/><path class="cls-5" d="M23.77,114.7s0,0,0,0c0,0,0,0,0,0,0,0,0,0,0-.01"/><path class="cls-5" d="M12.37,111.29c.17-.01,.28,.07,.37,.18-.05,.09-.08,.18-.1,.28-.07,.34,.07,.64,.29,.9,.16,.19,.33,.38,.51,.54,.03,.03,.07,.05,.1,.08-1.17-.78-2.18-1.7-1.17-1.98"/><path class="cls-5" d="M12.92,112.33s-.01-.03-.02-.04c0,.02,.01,.03,.02,.05,0,0,0,0,0,0"/><path class="cls-5" d="M36.96,105.52c-.43-.33-.04-.82,.18-1.11,.4-.6,.76-1.23,1.07-1.85,.64-1.32,1.2-2.68,1.7-4.06,1.21-3.64,2.24-7.34,3.11-11.07,.78-2.9,1.31-5.83,1.41-8.8,.35-.08,.69-.17,1.03-.26-.03,2.11-.25,4.21-.73,6.27-1.32,5.66-2.63,11.38-4.85,16.77-.35,.67-1.72,4.22-2.67,4.22-.09,0-.17-.03-.25-.1"/><path class="cls-5" d="M34.96,109.73c-.36-.28-.16-.7,.09-.98,.33-.52,.66-1.18,.93-1.69,.36-.64,.53-1.35,.78-2.03,.19-.39,.79-.38,.95,.02,.07,.16,.05,.35-.05,.49-.26,1.02-.73,1.97-1.24,2.89-.29,.41-.58,1.39-1.15,1.39-.1,0-.2-.03-.32-.1m2.49-4.01c.05-.02,.1-.06,.14-.1-.04,.04-.09,.07-.14,.1"/><path class="cls-5" d="M30.84,103.84c-.52-.24-.24-.78-.08-1.16,.49-1.46,.72-3,.95-4.52,.4-2.93,1.2-9.6-.65-11.95-.7-.48,.19-1.39,.72-.74,2.3,2.69,1.35,9.74,.9,13.13-.19,.79-.62,5.28-1.67,5.28-.06,0-.11-.01-.17-.04"/><path class="cls-5" d="M30.8,86.03c-.32-.04-.77-.07-.7-.51,.08-.4,.52-.3,.81-.24,.22-1.61,.17-3.25,.25-4.88,.03-.29-.01-.6,.07-.88,.19-.01,.38-.03,.57-.05,.05,0,.1,0,.16,0,.02,.07,.03,.15,0,.23-.11,1.57-.09,3.15-.2,4.73-.03,.57-.04,1.63-.75,1.63-.07,0-.14,0-.22-.03m.45-6.29s-.03-.1-.03-.15c0,.05,0,.11,.03,.15"/><path class="cls-5" d="M21.64,115.37c-1.41-.2-2.77-.59-4.14-.99-1.7-.5-3.45-1.04-4.82-2.21-.23-.2-.58-.39-.61-.73,0-.21,.17-.38,.38-.38,.22-.01,.31,.19,.45,.31,.95,.85,2.14,1.43,3.34,1.81,1.46,.48,2.95,.91,4.45,1.24,.74,.15,1.48,.26,2.23,.31,.37,.02,.74,.03,1.11,0,.29-.04,.72-.1,.77,.29,.07,.39-.47,.5-1.14,.5-.79,0-1.75-.16-2.03-.18"/><path class="cls-5" d="M25.55,103.11c-1.75-2.04-5.19-3.22-7.02-.67-.12,.16-.2,.34-.26,.52-.2,.45-.89,.15-.7-.3,.71-1.9,2.96-2.75,4.85-2.33,1.45,.31,2.78,1.26,3.74,2.34,.21,.29-.06,.6-.33,.6-.1,0-.21-.05-.29-.16"/><path class="cls-5" d="M35.09,106.16c-1.22,0-2.32-.59-3.11-1.49-.27-.35-1.2-1.15-.82-1.6,.53-.46,.75,.44,1.06,.73,.49,.56,1.03,1.13,1.74,1.4,.78,.27,1.65,.27,2.43,0,.36-.06,.65-.32,1-.28,.31,.08,.37,.56,.07,.7-.71,.29-1.47,.54-2.25,.54-.03,0-.07,0-.11,0"/><path class="cls-5" d="M27.17,80.26c-.12-.4-.37-1,.09-1.28,.75-.33,.76,.52,.91,1,.19,.64-.82,.92-.99,.27"/><path class="cls-5" d="M16.05,80.19c-.27-.07-.44-.36-.36-.63,.27-.97,.54-1.94,.91-2.87,.17-.49,.5-1.34,1.13-.82,.43,.41-.3,1.26-.36,1.72-.26,.74-.47,1.49-.68,2.24-.07,.27-.37,.43-.63,.36"/><path class="cls-5" d="M30.61,33.77c-1.73-.22-3.39-.53-4.89-1.44-2.04-1.1-3.44-2.64-4.4-4.75-.88-2.15-1.01-4.53-1.08-6.83-.01-.49-.01-.99-.06-1.48-.06-.26,.08-.53,.34-.61,.15-.04,.26-.03,.36,.01,.04,.08,.07,.16,.12,.23,.04,.11,.08,.23,.14,.34,.03,.05,.06,.09,.09,.12,0,.06,0,.13,0,.19,.05,.99,.04,1.98,.11,2.97,.16,1.64,.32,3.33,1.02,4.84,.46,.88,.99,1.78,1.7,2.48,1.12,1.09,2.54,1.93,4.04,2.4,.71,.23,1.46,.32,2.19,.44,.26,.05,.57,.01,.76,.24,.29,.31,.04,.86-.37,.86-.02,0-.04,0-.06,0"/><path class="cls-5" d="M31.07,33.76c-.67-.04-.63-1.05,.05-1.03,.51,.05,1-.12,1.49-.24,1.75-.58,3.59-1.22,4.95-2.53,2.08-2.29,2.44-5.32,2.63-8.25,.07-.81,.1-1.62,.1-2.43,.01-.22-.06-.43-.04-.64,.06-.28,.32-.47,.6-.41,.43,.08,.46,.56,.47,.91,.02,.71-.02,1.41-.06,2.11-.17,1.95-.25,3.93-.87,5.8-.81,2.38-2.25,4.34-4.6,5.34-1.5,.62-3.06,1.4-4.71,1.39"/><path class="cls-5" d="M40.02,26.61c-.06-.28,.12-.54,.39-.61,.39-.14,.66-.27,1-.46,1.19-.72,1.94-2,1.87-3.4-.02-.98-.44-1.97-1.12-2.67-.46-.34-1.01-.29-1.54-.31-.26-.08-.43-.39-.33-.65,.17-.47,.74-.38,1.13-.36,1.5,.07,2.31,1.5,2.71,2.78,.49,1.74-.02,3.71-1.41,4.9-.44,.42-.98,.73-1.54,.97-.4,.21-1.01,.41-1.17-.18m.93-7.46s.01,0,.02,0c.02,0,.04-.02,.06-.02h0c.06-.04,.13-.08,.17-.14-.06,.08-.15,.14-.24,.17"/><path class="cls-5" d="M20.77,26.42c-1.5-.41-2.93-1.42-3.37-2.97-.44-1.16-.26-2.41,.36-3.36,.07-.09,.13-.17,.2-.26,.03-.04,.07-.09,.1-.13,.58-.66,1.41-1.1,2.41-1.14,.71,.03,.63,1.11-.07,1.04-2.4,.2-2.81,3.26-1.3,4.76,.55,.54,1.26,.88,1.99,1.09,.58,.19,.37,1.01-.15,1.01-.06,0-.11,0-.17-.03"/><path class="cls-5" d="M20.28,18.87c.18-.15,.32-.32,.46-.51,.02,.05,.04,.11,.07,.16,.06,.13,.11,.27,.19,.4,.04,.11,.08,.23,.14,.34,.03,.05,.06,.09,.1,.13-.2,.2-.42,.33-.63,.38-.44,0-.67-.62-.32-.9"/><path class="cls-5" d="M40.72,19.19c-.06,0-.12,0-.19,0-.11,0-.23-.02-.34-.03,0-.03,0-.07,0-.1,.01-.16,.02-.32,.03-.49,0,0,0,0,0,0,0-.1,.01-.2,.01-.3,0-.05,0-.1,0-.16,.25,.03,.51,.04,.77,.04,.44,0,.65,.62,.31,.9-.13,.11-.28,.13-.44,.13-.06,0-.11,0-.17,0"/><path class="cls-5" d="M17.52,20.54s-.05-.04-.07-.06c.06-.08,.13-.15,.19-.23,.11-.14,.22-.28,.33-.43,.04-.05,.08-.11,.12-.16,.05,.05,.11,.11,.17,.16,.36,.37,.02,.88-.38,.88-.12,0-.24-.04-.35-.15"/><path class="cls-5" d="M43.61,20.89c-.34-.29-.17-.6,.16-1.05,.03,.06,.06,.12,.1,.17,.06,.15,.12,.29,.19,.44,.01,.03,.03,.06,.04,.09,0,.02,.01,.05,.02,.08,.03,.1,.05,.2,.11,.28-.1,.07-.21,.12-.32,.12-.1,0-.2-.03-.3-.12"/><path class="cls-5" d="M30.42,24.54c-.7-.16-.96-.96-.77-1.59,.09-.37,.29-.69,.42-1.04,.09-.21,.06-.46,.18-.65,.31-.39,.9,.07,.6,.47,.04-.05,.06-.11,.07-.17,.04,.63-1.01,1.88-.34,2.24,.12,.04,.24,.04,.37,.03,.33-.02,.51,.43,.27,.65-.21,.19-.54,.11-.79,.06"/><path class="cls-5" d="M17.29,20.97c-1.86-2.94-1.79-6.66-.97-9.94,1.07-3.46,3.6-6.74,7.09-7.98,1.02-.37,2.12-.3,3.18-.18,.53,.04,1.48,.1,1.14,.88-.19,.35-.59,.25-.91,.19-.38-.05-.77-.09-1.09-.11-.69-.06-1.39-.02-2.05,.22-2.96,1.07-5.04,3.77-6.17,6.62-.69,2.21-.91,4.61-.48,6.89,.21,1.02,.6,2,1.15,2.89,.33,.57-.54,1.1-.89,.52M26.81,3.71s-.04-.1-.05-.15c0,0,0,0,0,0,.01,.05,.02,.1,.05,.15"/><path class="cls-5" d="M43.44,20.85c-.47-.4,0-.82,.25-1.17,.44-.66,.74-1.41,.9-2.18,.72-4.07-.23-8.78-3.36-11.64-.93-.84-2.05-1.42-3.2-1.88-1.61-.74-3.33-1.14-5.08-1.24-1.48-.1-2.97,.21-4.3,.83-.42,.19-.96,.78-1.34,.2-.46-.89,1.62-1.39,2.2-1.63,1.32-.43,2.74-.54,4.12-.37,2.5,.2,4.92,1.13,7.07,2.4,2.14,1.37,3.67,3.61,4.43,6.02,.8,2.76,1.08,5.81,.19,8.58-.24,.58-1.07,2.67-1.87,2.09"/><path class="cls-5" d="M22.09,19.44c-.76-.17-1.55-.39-2.18-.86,.04,.03,.08,.06,.13,.07-.8-.42-.07-1.49,.76-.71,1.15,.56,2.44,.72,3.69,.44,.86-.2,1.66-.46,2.4-.93,.44-.23,.85-1.03,1.38-.54,.54,.68-.59,1.21-1.05,1.56-1.54,.85-3.38,1.3-5.14,.98"/><path class="cls-5" d="M28.43,19.26c-.64-.06-1.24-.27-1.86-.41-.46-.12-.5-.79-.06-.97,.49-.13,.99,.21,1.48,.27,.9,.17,1.83,.24,2.73,.05,.88-.18,1.69-.58,2.43-1.08,.35-.25,.82-.72,1.19-.25,.69,.82-2.22,2-2.82,2.18-1,.31-2.06,.36-3.09,.21"/><path class="cls-5" d="M35.57,19.35c-.89-.03-1.81-.16-2.65-.46-.32-.1-.75-.17-.74-.6,0-.28,.23-.52,.52-.52,.48,.05,.92,.31,1.41,.38,1,.2,2.09,.21,3.06,.15,.75-.04,1.59-.22,2.27-.45,.35-.12,.7-.26,1.03-.43,.33-.21,.81-.46,1.08-.02,.54,.87-2,1.48-2.58,1.66-1.1,.28-2.25,.33-3.38,.29"/><path class="cls-5" d="M26.27,23.92c-2.14-.06-3.38-1.76-2.48-3.77,1.01-2.24,4.46-2.29,5.15,.16,.29,1.1-.03,2.36-.94,3.07-.45,.38-1.15,.75-1.73,.54m.36-.71c2.33-.46,2.21-4.15-.39-3.99-1.46,.06-2.5,1.91-1.71,3.16,.39,.54,1.1,.71,1.73,.77,.13,0,.27-.03,.38,.06"/><path class="cls-5" d="M25.86,22.46c-.82-.38-.99-1.75-.22-2.25,.24-.13,.53-.16,.79-.2,.73,.04,1.31,.77,1.17,1.49-.07,.5-.47,1.06-1.03,1.01-.22,.11-.51,.05-.72-.05"/><path class="cls-5" d="M35.04,23.92c-2.14-.06-3.38-1.76-2.48-3.77,1.01-2.24,4.46-2.29,5.15,.16,.29,1.1-.03,2.36-.94,3.07-.45,.38-1.15,.75-1.73,.54m.36-.71c2.33-.46,2.21-4.15-.39-3.99-1.46,.06-2.5,1.91-1.71,3.16,.39,.54,1.1,.71,1.73,.77,.13,0,.27-.03,.38,.06"/><path class="cls-5" d="M34.63,22.46c-.82-.38-.99-1.75-.22-2.25,.24-.13,.53-.16,.79-.2,.73,.04,1.31,.77,1.17,1.49-.07,.5-.47,1.06-1.03,1.01-.22,.11-.51,.05-.72-.05"/><path class="cls-5" d="M31.7,30.58c-1.01-.03-1.9-.63-2.49-1.43-.36-.48-.82-1.09-.7-1.72-.17-.24,0-.57,.29-.6,.15,0,.29,0,.43-.03,1.25-.22,2.39-.83,3.62-1.14,.58-.12,1.13-.41,1.72-.47,.71,.21,.5,1.21,.44,1.78-.3,1.78-1.23,3.61-3.26,3.61h-.04m.49-3.94c-.97,.37-1.93,.76-2.96,.93,.3,1.15,1.38,2.27,2.62,2.25,.82-.06,1.54-.57,1.87-1.32,.35-.77,.61-1.63,.58-2.48-.7,.24-1.42,.41-2.12,.63"/><path class="cls-7" d="M26.15,17.32c-.33-.3-1.36,0-2.29,.68s-1.41,1.46-1.08,1.76c.33,.3,1.36,0,2.29-.68s1.41-1.46,1.08-1.76"/><path class="cls-5" d="M23.69,20.07c-1.38,.31-1.47-.76-.71-1.52,.7-.76,1.72-1.48,2.85-1.61,.51-.07,.9,.22,.91,.61,.02,.46-.45,.89-.86,1.24-.17,.22-.47,.37-.7,.55-.45,.32-.94,.6-1.5,.74m.26-.68c.52-.22,.94-.56,1.38-.88,.18-.24,.49-.42,.63-.68,.3-.76-1.25,.01-1.56,.26-.55,.3-2.06,1.93-.45,1.3"/><path class="cls-2" d="M23.69,20.07c-1.38,.31-1.47-.76-.71-1.52,.7-.76,1.72-1.48,2.85-1.61,.51-.07,.9,.22,.91,.61,.02,.46-.45,.89-.86,1.24-.17,.22-.47,.37-.7,.55-.45,.32-.94,.6-1.5,.74Zm.26-.68c.52-.22,.94-.56,1.38-.88,.18-.24,.49-.42,.63-.68,.3-.76-1.25,.01-1.56,.26-.55,.3-2.06,1.93-.45,1.3Z"/><path class="cls-7" d="M36.04,17.21c.33-.3,1.36,0,2.29,.68s1.41,1.46,1.08,1.76c-.33,.3-1.36,0-2.29-.68s-1.41-1.46-1.08-1.76"/><path class="cls-5" d="M37.01,19.22c-.23-.18-.53-.33-.7-.55-.4-.36-.88-.78-.85-1.24,0-.39,.39-.68,.91-.61,1.13,.13,2.15,.86,2.85,1.61,.77,.76,.68,1.84-.71,1.52-.55-.14-1.05-.43-1.49-.74m.79-1.24c-.31-.25-1.86-1.02-1.56-.26,.14,.26,.44,.44,.63,.68,.43,.31,.86,.66,1.38,.88,1.61,.63,.1-1-.45-1.3"/><path class="cls-2" d="M37.01,19.22c-.23-.18-.53-.33-.7-.55-.4-.36-.88-.78-.85-1.24,0-.39,.39-.68,.91-.61,1.13,.13,2.15,.86,2.85,1.61,.77,.76,.68,1.84-.71,1.52-.55-.14-1.05-.43-1.49-.74Zm.79-1.24c-.31-.25-1.86-1.02-1.56-.26,.14,.26,.44,.44,.63,.68,.43,.31,.86,.66,1.38,.88,1.61,.63,.1-1-.45-1.3Z"/></svg>