<?xml version="1.0" encoding="UTF-8"?><svg id="_レイヤー_8" xmlns="http://www.w3.org/2000/svg" viewBox="0 0 58 114.3"><defs><style>.cls-1{fill:#040000;}.cls-2{fill:#e9da21;}.cls-3{fill:#fff;}.cls-4{fill:#be8c14;}.cls-5{fill:#125ba1;}.cls-6{fill:#070002;}.cls-7{stroke-width:.16px;}.cls-7,.cls-8{fill:none;stroke:#070002;stroke-miterlimit:10;}.cls-8{stroke-width:.19px;}</style></defs><path class="cls-4" d="M42.19,108.49c-.43-1.03-1.64-1.89-3.13-2.43-.6-.24-2.53-.98-2.49-1.4-.14-.75-.83-1.22-1.68-1.44-1.56-.73-3.85-.8-5.5-.04-.03,.06-.07,.12-.1,.18-.09,.2-.17,.4-.25,.61-.09,.25-.18,.49-.34,.72-.12,.17-.29,.33-.44,.48-.09,.09-.18,.18-.29,.26-.27,.2-.6,.3-.96,.33-.07,0-.14,0-.21,0-.09,0-.18,0-.27,0-.08,0-.15,0-.23,0-.03,0-.06,0-.09,0-.03,0-.06,0-.09,0,0,0,0,0-.01,0-.03,0-.05,0-.08,0-.03,0-.05,0-.08-.01-.03,0-.07-.01-.1-.02-.02,0-.03,0-.05-.01-.01,0-.02,0-.03,0-.05-.01-.1-.03-.14-.05,0,0,0,0,0,0,0,0,0,0-.01,0-.04-.02-.08-.03-.12-.05-.01,0-.03-.01-.04-.02-.03-.02-.07-.03-.1-.05-.01,0-.02,0-.03-.02-.04-.02-.08-.05-.12-.08,0,0-.02-.01-.03-.02-.03-.02-.06-.04-.08-.07-.07-.06-.14-.13-.19-.2-.01-.01-.02-.03-.03-.04-.1-.14-.16-.29-.24-.44,0-.01-.01-.03-.02-.04-.02-.03-.04-.06-.06-.1,0,0,0,0,0,0-.02-.02-.03-.04-.05-.07h0c-.11-.14-.23-.27-.35-.4-.03-.03-.07-.06-.1-.09-.07-.02-.14-.04-.21-.06,0,0,0,0,0,0-.04-.01-.08-.02-.12-.03-.03,0-.06-.01-.09-.02,0,0,0,0-.01,0-.11-.03-.22-.05-.33-.08h0s-.01,0-.02,0c0,0,0,0,0,0-.04,0-.09-.01-.13-.02-.03,0-.05,0-.08-.01-.02,0-.04,0-.06,0t0,0s-.03,0-.04,0c-.04,0-.09,0-.13,0-.09,0-.19,0-.28-.01,0,0-.02,0-.02,0h-.02c-.15,0-.29,0-.44,0h-.03c-.12,0-.23,.01-.35,.02,0,0,0,0-.01,0-.02,0-.03,0-.05,0,0,0,0,0,0,0-.05,0-.1,.01-.15,.02,0,0,0,0,0,0-.09,.02-.18,.05-.26,.08-.06,.02-.12,.05-.19,.07-.15,.06-.3,.12-.44,.18-.1,.05-.19,.1-.28,.15-.02,.01-.05,.02-.07,.04-.04,.02-.08,.04-.12,.06,0,0,0,0-.01,0,0,0-.02,0-.02,.01-.12,.06-.24,.12-.36,.19-.01,0-.02,.01-.03,.02-.02,0-.04,.02-.06,.03,0,0-.02,.01-.03,.02-.02,.01-.03,.02-.05,.03h0s-.07,.05-.11,.08c-.01,0-.03,.02-.04,.03-.05,.03-.09,.06-.14,.1-.21,.14-.4,.25-.64,.35-.2,.08-.41,.14-.63,.19-.07,.02-.14,.03-.22,.05-.41,.08-.83,.14-1.25,.15-.13,0-.25,0-.37,0-.05,0-.11,0-.16,0h-.02s-.06,0-.08,0c-.06,0-.11,0-.17-.01-.04,0-.07,0-.11,0-.07,0-.15-.01-.22-.02-.34-.04-.67-.13-.99-.21-.36-.1-.68-.27-.93-.49-.25,.02-.5,.05-.74,.1-5.24,.57-8.04,3.13-2.41,4.76,.48,.49,1.28,.85,2.24,1.12,.48,.35,.89,.73,1.55,.96,.2,.07,.41,.14,.61,.2,.17,.16,.36,.31,.57,.44,1.65,1.13,4.06,1.79,6.49,1.89,.29,.01,.58,.02,.87,.02,2.16,0,4.3-.34,6.11-1.06,1.02-.36,1.91-.88,3.05-1.1,1.17-.19,2.38-.14,3.59-.1,.64,.02,1.27,.04,1.9,.03,.48-.01,.98-.08,1.46-.19,.53-.05,1.03-.19,1.43-.41,1.61-.63,2.58-1.8,1.98-2.97"/><polygon class="cls-5" points="17.34 90.65 19.47 99.41 17.58 101.19 13.94 103.91 12.99 104.69 13.56 106.23 17.01 107.61 19.23 107.29 23.68 104.9 23.68 100.12 24.59 92.62 17.34 90.65"/><polygon class="cls-5" points="31.81 96.13 28.27 103.63 28.98 103.89 29.26 107.38 30.78 109.44 33.66 109.44 34.89 109.21 34.42 107.33 32.43 101.9 35.51 97.87 31.81 96.13"/><path class="cls-2" d="M41.64,65.22l1.62,3.6s3.09,15.13,2.94,17.59c-.15,2.45-.31,13.5-.31,13.5l-1.96,.61-3.84-.61h-7.62l-1.8-.23-1.69-2.1-1.59-.18-.11-1.06-2.69-.55-3.03-1.94-.96-1.07-2.94,.25-2.05,1.73-2.59-1.27-.99-.71-.72-.79-2.76,.79-2.5-1.71,2.13-9.75,3.12-9.59,3.03-7.62,27.32,1.12Z"/><path class="cls-8" d="M41.64,65.22l1.62,3.6s3.09,15.13,2.94,17.59c-.15,2.45-.31,13.5-.31,13.5l-1.96,.61-3.84-.61h-7.62l-1.8-.23-1.69-2.1-1.59-.18-.11-1.06-2.69-.55-3.03-1.94-.96-1.07-2.94,.25-2.05,1.73-2.59-1.27-.99-.71-.72-.79-2.76,.79-2.5-1.71,2.13-9.75,3.12-9.59,3.03-7.62,27.32,1.12Z"/><path class="cls-3" d="M22.79,36.77l5.69,5.25,4.76-5.32,8.77,25.6,.48,4.78-7.04,3.4s-6.05,1.37-9.41,0c-3.36-1.38-7.12-2.04-7.12-2.04l-5.37-2.66,1.3-9.56,5.6-18.64,2.35-.8Z"/><polygon class="cls-3" points="6.17 47.55 4.94 45.39 3.82 42.96 2.74 43.07 1.26 43.73 .38 43.19 1.26 41.02 2.52 40.15 2.52 38.89 2.87 38.13 3.9 37.7 3.9 36.32 5.52 35.92 6.67 36.85 7.1 34.61 8.03 34.05 9.1 34.39 9.57 35.31 10.7 38.27 12.71 37.29 13.67 38.13 13.9 38.89 13.37 40.53 13.18 42.65 12.36 44.8 11.09 46.13 10.94 46.87 8.7 48.09 6.17 47.55"/><polygon class="cls-3" points="46.71 32.7 44.37 32.7 43.08 32.5 42.25 31.19 42.5 29.84 44.22 28.7 45.55 27.19 46.87 23.5 47.33 21.66 49.3 21.09 50.17 22.14 50.6 24.14 51.98 22.14 53.6 22.86 53.5 25.95 55.06 24.94 56.2 26.33 55.84 27.27 55.51 28.25 57.28 29.49 57.22 31.37 56.85 32.43 55.69 32.17 55.16 30.43 51.41 33.12 52.01 35.07 49.51 35.45 46.51 34.14 46.71 32.7"/><path class="cls-2" d="M40.62,25.27l-21.71,6.92-3.74-8.08s-.92-7.89,1.67-10.69c2.59-2.8,6.42-4.07,6.42-4.07l.15-2.71,2.24-2.76,2.71-.97,2.74,.44,2.15,1.42,.39,4.35s3.25,1.6,4.72,3.19c1.48,1.59,2.57,3.82,2.57,3.82l.64,5.71-.95,3.43Z"/><path class="cls-8" d="M40.62,25.27l-21.71,6.92-3.74-8.08s-.92-7.89,1.67-10.69c2.59-2.8,6.42-4.07,6.42-4.07l.15-2.71,2.24-2.76,2.71-.97,2.74,.44,2.15,1.42,.39,4.35s3.25,1.6,4.72,3.19c1.48,1.59,2.57,3.82,2.57,3.82l.64,5.71-.95,3.43Z"/><polygon class="cls-3" points="29.72 12.98 32.82 12.98 35.59 15.14 37.7 19.01 38.45 24.05 39.47 23.87 41.06 25.85 40.19 29.75 37.59 31.14 35.59 34.5 33.24 35.97 28.48 42.02 25.21 39.57 22.36 35.54 19.42 32.55 18.91 25.17 19.16 22.4 21.04 17.84 23.81 15.39 26.85 13.04 29.72 12.98"/><polygon class="cls-3" points="16.49 24.15 17.09 30.37 15.4 27.98 15.16 25.85 15.59 24.18 16.49 24.15"/><path class="cls-5" d="M18.91,32.19l3.45,3.35s1.09,8.58,1.58,10.06c.49,1.47,3.65,11.6,3.65,11.6l-1.55,7.8,3.69,1.65v1.79l-7.64-2.42-9.77-3.3-.05-5.51-4.1,4.2-2.37,1.34-2.1-.34-1.29-1.94-1.55-2.94,2.15-6.1,.29-2.96,1.08-1.14,3.03,.79,3.6-.64,.27-1.76,2.05-2.35,.56-3.17,.83-2.84,1.96-3.37,1.38-1.67,.84-.11Z"/><polygon class="cls-5" points="46.54 34.7 51.31 34.89 52.01 35.07 51.83 33.66 53.35 33.52 54.59 34.1 55.84 38.72 56.81 42.55 57.36 46.25 55.84 49.47 53.81 51.69 51.95 51.8 45.18 49.84 44.34 53.78 45.79 62.19 38.23 65.06 33.36 66.98 30.67 59.21 32.05 50.65 33.24 40.15 33.24 35.97 37.06 32.5 37.59 31.73 39.27 34.1 43.26 33.52 46.53 37.41 46.54 34.7"/><path class="cls-3" d="M54.42,38.16c0,.36-.3,.66-.66,.66s-.67-.29-.67-.66,.3-.66,.67-.66,.66,.29,.66,.66"/><path class="cls-3" d="M40.44,38.81c0,.36-.3,.66-.66,.66s-.67-.29-.67-.66,.3-.66,.67-.66,.66,.29,.66,.66"/><path class="cls-3" d="M17.17,39.07c0,.36-.3,.66-.66,.66s-.67-.29-.67-.66,.3-.66,.67-.66,.66,.29,.66,.66"/><path class="cls-3" d="M37.91,46.25c0,.36-.3,.66-.66,.66s-.67-.29-.67-.66,.3-.66,.67-.66,.66,.29,.66,.66"/><path class="cls-3" d="M20.31,46.68c0,.36-.3,.66-.66,.66s-.67-.29-.67-.66,.3-.66,.67-.66,.66,.29,.66,.66"/><path class="cls-3" d="M8.74,50.48c0,.36-.3,.66-.66,.66s-.67-.29-.67-.66,.3-.66,.67-.66,.66,.29,.66,.66"/><polygon class="cls-5" points="23.47 23.57 26.85 25.05 27.38 26.57 25.93 28.47 23.64 29.07 20.4 26.95 19.51 25.41 20.23 23.83 23.47 23.57"/><polygon class="cls-5" points="33.33 23.57 29.95 25.05 29.42 26.57 30.87 28.47 33.16 29.07 36.4 26.95 37.29 25.41 36.57 23.83 33.33 23.57"/><path class="cls-1" d="M13.54,65.77c-.28-.03-.48-.3-.44-.58,.07-.82,.16-1.64,.27-2.46h.03s.02,0,.02,0h.02s.02,0,.02,0h.02s.02,0,.02,0h.02s.02,0,.02,0h.02s.02,0,.02,0h.02s.02,0,.02,0h.02s.02,0,.02,0h.02s.02,0,.02,0h.02s.02,0,.02,0h.02s.02,0,.02,0h.02s.02,0,.02,0h.02s.02,0,.02,0h.02s.02,0,.02,0h.02s.02,.01,.02,.01h.02s.02,0,.02,0h.02s.02,.01,.02,.01h.02s.02,.01,.02,.01h.02s.02,.01,.02,.01h.02s.02,.01,.02,.01h.02s.02,.01,.02,.01h.02s.02,.01,.02,.01h.02s.02,.01,.02,.01h.02s.02,.02,.02,.02h.02s.02,.01,.02,.01h.02s.02,.01,.02,.01h.02s.02,.01,.02,.01h.02s.02,.01,.02,.01h.02s.02,.01,.02,.01h.01s.02,.01,.02,.01h.01s.01,.01,.01,.01h.01c-.07,.58-.13,1.16-.19,1.74-.02,.4-.05,.99-.55,.99-.03,0-.05,0-.08,0"/><path class="cls-1" d="M42.14,66.93c-.22-.22-.14-.58-.18-.85-.06-.86-.13-1.73-.2-2.59h0s.02-.01,.02-.01h.02s.02-.01,.02-.01h.02s.02-.01,.02-.01h.02s.02-.01,.02-.01h.01s.02-.01,.02-.01h.02s.01-.01,.01-.01h.02s.02,0,.02,0h.01s.02-.01,.02-.01h.01s.02,0,.02,0h.01s.02,0,.02,0h.01s.02,0,.02,0h.01s.01,0,.01,0h.01s.01,0,.01,0h.01s.01,0,.01,0h.01s.01,0,.01,0h.01s.01,0,.01,0h.01s.01,0,.01,0h.01s.01,0,.01,0h.01s.01,0,.01,0h.01s.02,0,.02,0h.01s.02,0,.02,0h.02s.01,0,.01,0h.02s.02-.01,.02-.01h.02s.01,0,.01,0h.02s.01,0,.01,0h.02s.01-.01,.01-.01h.02s.01-.01,.01-.01h.01s.02,0,.02,0h.01s.01-.01,.01-.01h.01s.01-.01,.01-.01h.01s.01-.01,.01-.01h.01s.01,0,.01,0h.01s.01-.01,.01-.01h.01s.01,0,.01,0h.01s.01-.01,.01-.01h.01c.07,.87,.15,1.74,.21,2.61,.02,.28,.04,.55,.06,.83,.02,.3-.26,.51-.53,.51-.13,0-.25-.04-.35-.15"/><path class="cls-1" d="M29.74,71.68c-2.77-.12-5.4-1.08-8.06-1.79-1.7-.46-8.13-2.59-8.48-4.22,.01-.28,.23-.52,.53-.52,.21,0,.4,.13,.48,.31,.23,.24,.5,.44,.77,.62,2.42,1.37,5.04,2.32,7.7,3.02,2.97,.85,5.96,1.79,9.08,1.58,3.43-.42,6.67-1.97,9.57-3.74,.23-.15,.43-.29,.64-.47,.51-.41,1.17,.41,.63,.81-.7,.56-1.49,1-2.27,1.43-2.94,1.56-6.18,3.01-9.57,3.01-.34,0-.68-.01-1.02-.05"/><path class="cls-1" d="M5.99,91.98c-.28-.04-.48-.3-.44-.58,.19-2.3,.67-4.43,1.2-6.63,1.49-6.63,3.65-13.08,6.25-19.36,.39-.89,1.43-.2,.88,.59-2.71,6.49-4.85,13.15-6.36,20-.43,1.83-.79,3.67-.95,5.54-.02,.26-.27,.44-.52,.44-.02,0-.04,0-.07,0m7.65-25.97c.08-.01,.15-.05,.21-.1-.06,.05-.13,.08-.21,.1"/><path class="cls-1" d="M45.16,100.41c.06-.5,.1-1,.14-1.5,.16-2.9,.14-5.81,.21-8.71,.21-7.93-1.25-15.77-3.34-23.37-.01-.61,.95-.71,1.03-.08,.03,.33,.15,.65,.23,.97,2.45,8.33,3.43,17.01,3.05,25.67-.04,1.78-.03,3.56-.14,5.33-.06,.29-.03,.83-.08,1.31-.01,.02-.02,.05-.03,.07-.1,.12-.2,.23-.31,.35-.05,0-.09,.02-.14,.03-.2,.04-.41,.09-.58,.19-.04-.08-.05-.17-.04-.27"/><path class="cls-1" d="M42.93,100.82c-.28,0-.55-.02-.82-.02-.54,.03-1-.26-1.48-.43-1.32-.08-2.64,.12-3.94,.29-2.04,.04-7.17,.18-7.91-2.13-.08-.15-.09-.38-.27-.45-.12-.01-.25,0-.37,0-.38,0-.78,0-1.04-.31-.22-.26-.16-.68-.44-.89-1.23-.42-2.63-.03-3.38-1.4-.72-.71-1.7-1.09-2.43-1.8-.25-.17-.48-.39-.75-.51-.65,.02-1.29,.22-1.91,.39-.64,.36-1.07,1.05-1.69,1.43-1.28,.91-2.73,0-3.59-1.03-1.12,.23-1.53-.51-1.73-1.47-1.4,.17-2.5,1.17-3.96,.38-.45-.16-.79-.51-1.17-.8-.38-.21-.46-.8-.01-.99,.41-.17,.66,.19,.93,.41,1.52,1.43,2.65,0,4.26-.02,.91,.03,.93,.86,1.2,1.5,.8-.18,1.2,.24,1.61,.67,.35,.36,.71,.71,1.35,.71,.88-.13,1.33-1.08,2.04-1.52,.68-.41,1.52-.52,2.3-.65,1.1-.18,1.81,.88,2.64,1.41,.8,.47,1.59,.97,2.11,1.76,1.15,.61,3.08-.01,3.42,1.72,3.37-.07-.67,2.4,6.95,2.6,.96,.09,1.9-.03,2.85-.14,.78-.1,1.56-.19,2.35-.17,.79-.15,1.34,.35,2.06,.45,.3-.02,.6,0,.91,.02,.69,.04,1.38,.08,1.99-.24,.78-.38,1.34,.7,.46,.95-.56,.27-1.18,.33-1.8,.33-.24,0-.48,0-.72-.02"/><path class="cls-1" d="M30.14,109.49c-.56-.6-1.14-1.27-1.41-2.05-.19-1.11-.05-2.25-.07-3.37-.36,.16-.82,0-.92-.4-.13-.67,.46-1.23,.69-1.82,.42-.85,.78-1.74,1.32-2.52,.31-.34,.93-.12,.92,.34,0,.15-.07,.3-.19,.39-.51,.89-.91,1.83-1.39,2.74,1.32,.11-.05,4.01,.95,4.95,.33,.43,.62,.94,1.1,1.21,1.02,.21,2.09,.16,3.1-.02-.32-2.08-2.77-5.25-2.2-7.29,.3-.59,.78-1.08,1.14-1.63,.4-.53,1.23,.1,.82,.62-1.29,1.67-1.22,1.4-.58,3.42,.41,1.45,2.22,4.02,1.74,5.41-.42,.63-1.51,.63-2.37,.63-.22,0-.43,0-.61,0-.72,0-1.53-.06-2.05-.62"/><path class="cls-1" d="M19.21,99.79c-.13-.1-.19-.25-.21-.4-.17-.83-.38-1.65-.59-2.47-.27-1.05-.53-2.09-.76-3.15-.05-.24-.14-.51,0-.75,.29-.49,1.03-.19,.98,.35,.4,1.88,.94,3.73,1.35,5.61,.19,.43-.03,.91-.42,.91-.1,0-.22-.03-.34-.11"/><path class="cls-1" d="M12.53,105.58c-.4-1.71,1.49-2.53,2.57-3.44,.74-.55,1.49-1.08,2.26-1.59,.63-.36,1.19-.8,1.6-1.4,.46-.71,1.45,.09,.8,.64-.5,.76-1.24,1.27-2.01,1.73-1.27,.89-2.55,1.77-3.74,2.76-.74,.53-.35,.78-.54,1.42-.09,.17-.27,.25-.44,.25-.22,0-.45-.13-.5-.37"/><path class="cls-1" d="M16.22,107.92c-1.31-.35-2.6-.98-3.55-1.95-.32-.52,.46-1.07,.84-.59,.71,.61,1.52,1.09,2.41,1.39,1.2,.52,2.36,.22,3.47-.35,1.23-.56,2.42-1.21,3.6-1.87,.41-2.17,.13-4.39,.29-6.56,0,0,0,.02,0,.03,.05-.77,.16-1.54,.28-2.3,.02-.3,.29-.53,.59-.49,.28,.04,.48,.3,.44,.58-.17,1.02-.28,2.05-.33,3.08,0-.01,0-.02,0-.04,0,0,0,0,0-.01-.02,1.91,.11,3.83-.22,5.72,.21,.44-.19,1.2-.31,1.67-.28,.5-1.1,.18-.94-.38-1.66,.79-3.65,2.23-5.57,2.23-.34,0-.67-.04-1-.14"/><path class="cls-1" d="M13.56,104.29c0-.21,.17-.38,.38-.38s.38,.17,.38,.38-.17,.38-.38,.38-.38-.17-.38-.38"/><path class="cls-1" d="M16.85,106.22c-1.11-.18-2.57-.52-3.02-1.67-.08-.35-.02-1.03,.41-1.12,.21-.03,.4,.13,.43,.32,.02,.25-.23,.51-.02,.74,.54,.63,1.47,.84,2.25,.97,1.37,.04,2.6-.71,3.85-1.17,.81-.35,1.6-.75,2.4-1.11,.19-.1,.44,0,.52,.19,.08,.19-.01,.41-.2,.49-.8,.36-1.58,.75-2.38,1.11-1.3,.5-2.62,1.25-4.04,1.25-.06,0-.12,0-.18,0"/><path class="cls-1" d="M31.86,108.75c-1.36-.06-1.95-1.51-2.41-2.58-.22-.66-.61-1.4-.43-2.1,.1-.18,.34-.24,.52-.14,.26,.14,.16,.5,.23,.72,.25,1.04,.65,2.06,1.3,2.91,.44,.63,1.35,.46,2.14,.29,.72-.16,1.35-.32,1.44,.14,.03,.21-.12,.39-.33,.42-.75,.13-1.49,.34-2.26,.34-.07,0-.13,0-.2,0"/><path class="cls-1" d="M13.5,62.74h.01s.02,0,.02,0h.02s.02,0,.02,0h.02s.02,0,.02,0h.02s.02,0,.02,0h.02s.02,0,.02,0h.02s.02,0,.02,0h.02s.02,0,.02,0h.02s.02,0,.02,0h.02s.02,0,.02,0h.02s.02,0,.02,0h.02s.02,.01,.02,.01h.02s.02,.01,.02,.01h.02s.02,.01,.02,.01h.02s.02,.01,.02,.01h.02s.02,.01,.02,.01h.02s.02,.01,.02,.01h.02s.02,.01,.02,.01h.02s.02,.01,.02,.01h.02s.02,.02,.02,.02h.02s.02,.01,.02,.01h.02s.02,.02,.02,.02h.02s.02,.01,.02,.01h.02s.02,.01,.02,.01h.02s.02,.01,.02,.01h.02s.02,.01,.02,.01h.01s.02,.01,.02,.01h.01s0,0,0,0c-.29-.1-.57-.2-.86-.3"/><path class="cls-1" d="M14.5,63.2l-.02-.02-.02-.02h-.02s-.02-.03-.02-.03h-.02s-.02-.02-.02-.02h-.02s-.02-.02-.02-.02h-.02s-.02-.02-.02-.02h-.02s-.02-.02-.02-.02h-.02s-.02-.02-.02-.02h-.02s-.02-.02-.02-.02h-.02s-.02-.02-.02-.02h-.02s-.02-.01-.02-.01h-.02s-.02-.02-.02-.02h-.02s-.02-.01-.02-.01h-.02s-.02-.01-.02-.01h-.02s-.02-.01-.02-.01h-.02s-.02-.01-.02-.01h-.02s-.02-.01-.02-.01h-.02s-.02-.01-.02-.01h-.02s-.02,0-.02,0h-.02s-.02,0-.02,0h-.02s-.02,0-.02,0h-.02s-.02,0-.02,0h-.02s-.02,0-.02,0h-.02s-.02,0-.02,0h-.02s-.02,0-.02,0h-.02s-.02,0-.02,0h-.02s-.01,0-.01,0h-.02s-.01,0-.01,0h-.02s-.01,0-.01,0h-.01s-.02,0-.02,0h-.03s-.01,0-.01,0h-.01s0,0,0,0c0-.04,.02-.07,.02-.11h.02s.02,0,.02,0h.02s.02,0,.02,0h.02s.02,0,.02,0h.02s.02,0,.02,0h.02s.02,0,.02,0h.02s.02,0,.02,0h.02s.02,0,.02,0h.02s.02,0,.02,0h.02s.02,0,.02,0h.02s.02,.01,.02,.01h.02s.02,.01,.02,.01h.02s.02,.01,.02,.01h.02s.02,.01,.02,.01h.02s.02,.01,.02,.01h.02s.02,.01,.02,.01h.02s.02,.01,.02,.01h.02s.02,.01,.02,.01h.02s.02,.01,.02,.01h.02s.02,.01,.02,.01h.02s.02,.01,.02,.01h.02s.02,.01,.02,.01h.02s.02,.01,.02,.01h.02s.02,.01,.02,.01h.01s.02,.01,.02,.01h.01s.02,.01,.02,.01h.01s.01,.01,.01,.01h.02s.01,.01,.01,.01h.01s.01,.01,.01,.01h.01s.01,.01,.01,.01h.01s.01,.01,.01,.01h.01s.01,.01,.01,.01h.01s0,.06-.01,.08h0Z"/><polygon class="cls-1" points="42.67 63.16 42.68 63.16 42.68 63.17 42.67 63.17 42.66 63.17 42.67 63.16"/><path class="cls-1" d="M14.35,64.01h-.01s-.01-.01-.01-.01h-.02s-.02-.01-.02-.01h-.01s-.02-.01-.02-.01h-.01s-.02-.01-.02-.01h-.02s-.02-.01-.02-.01h-.02s-.02-.01-.02-.01h-.02s-.02-.01-.02-.01h-.02s-.02-.01-.02-.01h-.02s-.02-.01-.02-.01h-.02s-.02-.01-.02-.01h-.02s-.02-.01-.02-.01h-.02s-.02-.01-.02-.01h-.02s-.02-.01-.02-.01h-.02s-.02-.01-.02-.01h-.02s-.02-.01-.02-.01h-.02s-.02-.01-.02-.01h-.02s-.02-.01-.02-.01h-.02s-.02,0-.02,0h-.02s-.02,0-.02,0h-.02s-.02,0-.02,0h-.02s-.02,0-.02,0h-.02s-.02,0-.02,0h-.02s-.02,0-.02,0h-.02s-.02,0-.02,0h-.02s-.02,0-.02,0h-.02s-.02,0-.02,0h-.02s-.02,0-.02,0h-.02s-.02,0-.02,0h-.02s-.02,0-.02,0h-.02s-.02,0-.02,0h-.01c.03-.19,.05-.39,.08-.58,.01-.11,.03-.24,.05-.37h.02s.01,0,.01,0h.01s.01,0,.01,0h.02s.01,0,.01,0h.06s.02,0,.02,0h.03s.02,0,.02,0h.02s.02,0,.02,0h.02s.02,0,.02,0h.02s.02,0,.02,0h.02s.02,0,.02,0h.02s.02,0,.02,0h.02s.02,0,.02,0h.02s.02,0,.02,0h.02s.02,.01,.02,.01h.02s.02,.01,.02,.01h.02s.02,.01,.02,.01h.02s.02,.01,.02,.01h.02s.02,.01,.02,.01h.02s.02,.01,.02,.01h.02s.02,.01,.02,.01h.02s.02,.01,.02,.01h.02s.02,.02,.02,.02h.02s.02,.02,.02,.02h.02s.02,.02,.02,.02h.02s.02,.02,.02,.02h.02s.02,.02,.02,.02h.02s.02,.02,.02,.02h.02s.02,.02,.02,.02h.02s.02,.03,.02,.03l.02,.02,.02,.02h0c-.06,.31-.1,.62-.14,.93h-.01Z"/><path class="cls-1" d="M41.68,63.54c0-.07,0-.14-.01-.21h.01s.03-.02,.03-.02h.03s.03-.02,.03-.02h.03s.03-.02,.03-.02h.03s.03-.02,.03-.02h.03s.03-.02,.03-.02h.03s.03-.02,.03-.02h.03s.03-.02,.03-.02h.03s.03-.01,.03-.01h.03s.03-.01,.03-.01h.03s.03-.01,.03-.01h.02s.03-.01,.03-.01h.02s.03-.01,.03-.01h.03s.02-.01,.02-.01h.02s.02,0,.02,0h.02s.02,0,.02,0h.02s.02,0,.02,0h.02s.03,0,.03,0h.02s.03,0,.03,0h.03s.02,0,.02,0h.01s0,.09,.01,.13c.02,.3,.04,.61,.07,.91h0s-.01,0-.01,0h-.01s-.01,.01-.01,.01h-.01s-.01,.01-.01,.01h-.01s-.01,.01-.01,.01h-.02s-.01,.01-.01,.01h-.01s-.02,.01-.02,.01h-.01s-.01,0-.01,0h-.01s-.01,.01-.01,.01h-.01s-.01,0-.01,0h-.01s-.01,.01-.01,.01h-.02s-.01,0-.01,0h-.02s-.01,.01-.01,.01h-.02s-.02,0-.02,0h-.01s-.02,.01-.02,.01h-.02s-.01,0-.01,0h-.02s-.01,0-.01,0h-.01s-.02,0-.02,0h-.01s-.01,0-.01,0h-.01s-.02,0-.02,0h-.01s-.01,0-.01,0h-.01s-.01,0-.01,0h-.01s-.01,0-.01,0h-.01s-.01,0-.01,0h-.02s-.01,0-.01,0h-.01s-.02,0-.02,0h-.01s-.02,0-.02,0h-.01s-.01,.01-.01,.01h-.02s-.02,0-.02,0h-.01s-.02,0-.02,0h-.02s-.02,.01-.02,.01h-.01s-.02,.01-.02,.01h-.02s-.02,.01-.02,.01h-.02s-.02,.01-.02,.01h-.02s-.02,.01-.02,.01h-.02s-.02,.01-.02,.01h0c-.03-.3-.05-.61-.07-.92m.51-.23s.03,0,.05,0h0s.06,0,.08-.02c-.04,.01-.09,.02-.13,.02"/><path class="cls-1" d="M32.4,66.17c-.79-2.08-1.57-4.21-2.02-6.39v-.03s.03-.03,.03-.03v-.03s.03-.03,.03-.03v-.03s.02-.02,.02-.02v-.02s.02-.02,.02-.02v-.02s.02-.02,.02-.02v-.02s.02-.02,.02-.02v-.02s.02-.02,.02-.02v-.02s.02-.02,.02-.02v-.02s.02-.02,.02-.02v-.02s.02-.02,.02-.02v-.02s.02-.02,.02-.02v-.02s.02-.02,.02-.02v-.02s.03-.02,.03-.02v-.02s.03-.02,.03-.02l.02-.02,.02-.02,.02-.02,.02-.02,.02-.02,.02-.02,.02-.02,.02-.02,.02-.02,.02-.02,.02-.02,.02-.02,.02-.02,.02-.02,.02-.02,.02-.02,.02-.02,.02-.02,.02-.02,.02-.02,.02-.02,.02-.02,.02-.02,.02-.02,.02-.02,.02-.02,.02-.02h0c.02,.28,.06,.57,.14,.85,.33,1.5,.83,3.07,1.31,4.49,.09,.67,1.21,2.12,.41,2.51-.06,.03-.13,.04-.2,.04-.2,0-.4-.12-.48-.31"/><path class="cls-1" d="M45.1,62.46c-.24-2.38-.6-4.74-.97-7.11v-.02s.02-.02,.02-.02v-.02s.02-.02,.02-.02v-.02s.02-.02,.02-.02v-.02s.02-.02,.02-.02v-.02s.02-.02,.02-.02v-.02s.02-.02,.02-.02v-.02s.01-.02,.01-.02v-.02s.01-.02,.01-.02v-.02s.01-.02,.01-.02v-.02s.01-.02,.01-.02v-.02s.01-.02,.01-.02v-.02s.01-.02,.01-.02v-.02s.01-.02,.01-.02v-.02s.01-.02,.01-.02v-.02s0-.02,0-.02v-.02s.01-.02,.01-.02v-.02s0-.02,0-.02v-.02s0-.02,0-.02v-.02s0-.02,0-.02v-.02s0-.02,0-.02v-.02s.01-.03,.01-.03v-.03s0-.03,0-.03v-.03s.01-.03,.01-.03v-.03s.01-.03,.01-.03v-.03s.01-.04,.01-.04v-.04s.01-.04,.01-.04v-.03s.01-.04,.01-.04v-.04s.01-.04,.01-.04v-.04s.01-.04,.01-.04v-.03s.01-.03,.01-.03v-.03s.01-.03,.01-.03v-.03s0-.03,0-.03v-.03s.01-.03,.01-.03v-.03s.01-.03,.01-.03v-.03s.01-.04,.01-.04v-.03s.01-.04,.01-.04v-.04s.01-.04,.01-.04v-.04s.02-.04,.02-.04v-.04s.02-.04,.02-.04v-.04s.02-.05,.02-.05v-.05s.03-.05,.03-.05v-.05s.03-.05,.03-.05v-.05s.03-.05,.03-.05l.02-.05,.02-.05,.02-.05,.02-.05v-.03c.02,.05,.02,.11,0,.18,.5,3.15,1.01,6.31,1.34,9.48,.05,.36-.24,.57-.53,.57-.23,0-.46-.13-.5-.43"/><path class="cls-1" d="M32.99,67.39c-.34-.17-.36-.57-.49-.87-.25-.88,1.01-.94,1.06-.08,3.97-1.35,7.78-3.12,11.63-4.77,.61-.26,1.02,.69,.4,.94-1.26,.54-2.52,1.11-3.77,1.66-1.73,.76-3.49,1.44-5.24,2.15-.98,.29-2.06,1.04-3.11,1.04-.16,0-.32-.02-.48-.06"/><path class="cls-1" d="M25.16,66.96c-.88-.21,.19-2.19,.23-2.85,.26-.99,.51-1.98,.75-2.98,.24-.61,.7-3.3,1.25-4.83h.02s.02,0,.02,0h.02s.02,0,.02,0h.02s.02,0,.02,0h.02s.02,0,.02,0h.02s.02,0,.02,0h.02s.02,0,.02,0h.02s.02,0,.02,0h.02s.02,0,.02,0h.02s.02,0,.02,0h.02s.02,0,.02,0h.02s.02,0,.02,0h.02s.02,0,.02,0h.02s.02,0,.02,0h.02s.02,0,.02,0h.02s.02,0,.02,0h.02s.02,0,.02,0h.02s.02,0,.02,0h.02s.02,0,.02,0h.02s.02,0,.02,0h.02s.02,0,.02,0h.02s.02,0,.02,0h.02s.02,0,.02,0h.02s.02,0,.02,0h.02s.02,0,.02,0h.02s.02,.01,.02,.01h.02s.02,.01,.02,.01h.02s.02,.01,.02,.01h.02s.02,.02,.02,.02c0,0,0,.02,.01,.03,.01,.03,.03,.06,.04,.09-.75,2.43-1.25,4.93-1.91,7.39-.2,.78-.41,1.56-.62,2.34-.04,.31-.24,.64-.56,.64-.05,0-.1,0-.15-.02"/><path class="cls-1" d="M11.73,63.15c-.29-.04-.47-.3-.44-.58,.17-1.84,.45-3.66,.75-5.48v-.02s.01-.02,.01-.02v-.02s.01-.02,.01-.02v-.02s.01-.02,.01-.02v-.02s.01-.02,.01-.02v-.02s.01-.02,.01-.02v-.02s.02-.02,.02-.02v-.02s.01-.02,.01-.02v-.02s.01-.03,.01-.03v-.03s.02-.03,.02-.03v-.03s.02-.03,.02-.03v-.03s.02-.04,.02-.04v-.04s.02-.04,.02-.04v-.04s.02-.04,.02-.04v-.04s.02-.05,.02-.05v-.05s.02-.05,.02-.05v-.02s.01,0,.01,0h0s0-.02,0-.02h0s0-.02,0-.02h0s0-.02,0-.02h0s0-.02,0-.02h0s0-.02,0-.02h0s0-.02,0-.02h0s0-.02,0-.02h0s0-.02,0-.02h0s0-.02,0-.02h0s0-.02,0-.02h0s0-.02,0-.02h0s0-.02,0-.02h0s0-.02,0-.02h0s0-.02,0-.02h0s0-.02,0-.02h0s0-.02,0-.02h0s0-.02,0-.02h0s0-.02,0-.02h0s0-.02,0-.02h0s0-.02,0-.02h0s0-.02,0-.02h0s0-.02,0-.02h0s0-.02,0-.02h0s0-.02,0-.02h0s0-.02,0-.02h0s0-.02,0-.02h0s0-.02,0-.02h0s0-.02,0-.02h0s0-.02,0-.02h0s0-.02,0-.02h0s0-.02,0-.02h0s0-.02,0-.02h0s0-.02,0-.02h0s0-.02,0-.02h0s0-.02,0-.02h0s0-.02,0-.02h0s0-.02,0-.02h0s0-.02,0-.02h0s0-.02,0-.02h0s0-.02,0-.02h0s0-.02,0-.02h0s0-.02,0-.02h0s0-.02,0-.02h0s0-.02,0-.02h0s0-.02,0-.02h0s0-.02,0-.02h0s0-.02,0-.02h0s0-.03,0-.03h0s0-.03,0-.03h0s0-.03,0-.03h0s0-.03,0-.03h0s0-.03,0-.03h0s.01-.03,.01-.03h0s.01-.03,.01-.03h.01s0-.03,0-.03h.01s.01-.03,.01-.03h.01s.01-.03,.01-.03h.01s.01-.03,.01-.03h.01s.01-.03,.01-.03v-.02s.03-.02,.03-.02l.02-.02,.02-.02,.02-.02,.02-.02,.02-.02,.02-.02,.02-.02,.02-.02,.02-.02,.02-.02,.02-.02,.02-.02,.02-.02,.02-.02,.02-.02h.02s.02-.03,.02-.03h.02s.02-.03,.02-.03h0c-.17,1.02-.33,2.04-.53,3.05-.28,1.69-.52,3.38-.68,5.08-.02,.25-.27,.44-.52,.44-.02,0-.04,0-.07,0"/><path class="cls-1" d="M28.91,68.77c-2.98-1.2-6.11-1.97-9.17-2.94-1.8-.54-3.6-1.18-5.38-1.81h0s-.01,0-.01,0h-.02s-.01-.01-.01-.01h-.02s-.02-.01-.02-.01h-.02s-.01-.01-.01-.01h-.02s-.02-.01-.02-.01h-.02s-.02-.01-.02-.01h-.02s-.02-.01-.02-.01h-.02s-.02-.01-.02-.01h-.02s-.02-.02-.02-.02h-.02s-.02-.01-.02-.01h-.02s-.02-.01-.02-.01h-.02s-.02-.01-.02-.01h-.02s-.02-.01-.02-.01h-.02s-.02-.01-.02-.01h-.02s-.02-.01-.02-.01h-.02s-.02,0-.02,0h-.02s-.02-.01-.02-.01h-.02s-.02,0-.02,0h-.02s-.02,0-.02,0h-.02s-.02,0-.02,0h-.02s-.02,0-.02,0h-.02s-.02,0-.02,0h-.02s-.02,0-.02,0h-.02s-.02,0-.02,0h-.02s-.02,0-.02,0h-.02s-.02,0-.02,0h-.02s-.02,0-.02,0c-.5-.17-.99-.34-1.48-.51-.94-.34-.23-1.39,.6-.88,3.34,1.17,6.67,2.34,10.07,3.33,2.24,.63,4.47,1.31,6.63,2.17,.54,.22,.29,.99-.19,.99-.07,0-.14-.01-.21-.05"/><path class="cls-1" d="M29.65,67.1c-.93-.38-1.85-.76-2.75-1.19-.47-.32-1.35-.41-1.44-1.04,0-.28,.23-.51,.52-.51,1.36,.56,2.68,1.3,4.08,1.8,.55,.22,.29,.99-.19,.99-.07,0-.14-.01-.21-.05"/><path class="cls-1" d="M29.14,68.67c-.19-.29,.06-.57,.15-.82,.2-.44,.2-1.33,.9-1.18,.75,.27,.15,1.16,.02,1.68-.07,.32-.37,.58-.65,.58-.15,0-.3-.07-.42-.25"/><path class="cls-1" d="M14.51,64.09h-.01s-.01-.01-.01-.01h-.01s-.01-.01-.01-.01h-.01s-.01-.01-.01-.01h-.01s-.01-.01-.01-.01h-.01s-.02-.01-.02-.01h-.01s-.01-.01-.01-.01h-.02s-.01-.01-.01-.01h-.02s-.01-.01-.01-.01h-.02s-.02-.01-.02-.01h-.02s-.02-.01-.02-.01h-.02s-.02-.01-.02-.01h-.02s-.02-.01-.02-.01h-.02s-.02-.01-.02-.01h-.02s-.02-.01-.02-.01h-.02s-.02-.01-.02-.01h-.02s-.02-.01-.02-.01h-.02s-.02-.01-.02-.01h-.02s-.02-.01-.02-.01h-.02s-.02-.01-.02-.01h-.02s-.02-.01-.02-.01h-.02s-.02-.01-.02-.01h-.02s-.02-.01-.02-.01h-.02s-.02,0-.02,0h-.02s-.02,0-.02,0h-.02s-.02,0-.02,0h-.02s-.02,0-.02,0h-.02s-.02,0-.02,0h-.02s-.02,0-.02,0h-.02s-.02,0-.02,0h-.02s-.02,0-.02,0h-.02s-.02,0-.02,0h0c.07-.28,.21-.53,.56-.53,.28,0,.52,.23,.52,.51-.03,.13-.05,.26-.08,.39h-.01Z"/><path class="cls-1" d="M41.85,63.47c.33-.26,.84,0,.84,.4-.01,.07-.01,.17,0,.25h-.01s-.01,0-.01,0h0s-.03,0-.03,0h-.03s-.02,0-.02,0h-.03s-.02,0-.02,0h-.02s-.02,0-.02,0h-.02s-.02,0-.02,0h-.02s-.02,0-.02,0h-.02s-.03,0-.03,0h-.03s-.02,.01-.02,.01h-.03s-.02,.01-.02,.01h-.03s-.03,.01-.03,.01h-.03s-.03,.01-.03,.01h-.03s-.03,.02-.03,.02h-.03s-.03,.02-.03,.02h-.03s-.03,.02-.03,.02h-.03s-.03,.02-.03,.02h-.03s-.03,.02-.03,.02h-.03s-.03,.02-.03,.02h-.03s-.03,.02-.03,.02h-.03s-.01,.02-.01,.02c-.03-.33-.1-.7,.18-.93"/><path class="cls-1" d="M19.65,65.22c-.21-.03-.35-.22-.33-.43,.16-1.22,.34-2.44,.53-3.65,.59-3.66,1.29-7.3,1.84-10.97h.01s.01,0,.01,0h.01s.01,0,.01,0h.01s0,0,0,0h.01s0,0,0,0h0s0,0,0,0h0s0,0,0,0h0s0,.01,0,.01h0s0,.01,0,.01h0s0,.01,0,.01h0s0,.01,0,.01h0s0,.01,0,.01h0s0,.02,0,.02h0s0,.02,0,.02h0s0,.02,0,.02h0s0,.02,0,.02h0s0,.02,0,.02h0s0,.02,0,.02h0s0,.02,0,.02h0s0,.02,0,.02h0s0,.02,0,.02h0s0,.02,0,.02h0s0,.02,0,.02h0s0,.02,0,.02h0s0,.02,0,.02h0s0,.02,0,.02h0s0,.02,0,.02h0s0,.02,0,.02h.01s.01,.02,.01,.02h.01s.01,.02,.01,.02h.01s.01,.02,.01,.02h.01s.01,.02,.01,.02h.01s.01,.02,.01,.02h0s.01,.02,.01,.02h.01s0,.02,0,.02h.01s.01,.02,.01,.02h0s0,.02,0,.02h.01s0,.02,0,.02h.01s0,.02,0,.02h0c-.1,.69-.2,1.38-.31,2.06-.46,2.84-1.03,5.66-1.46,8.5-.18,1.16-.36,2.33-.51,3.5-.02,.19-.19,.33-.38,.33-.02,0-.03,0-.05,0"/><path class="cls-1" d="M37.49,65.26c-.88-3.7-1.49-7.45-2.07-11.2-.2-1.27-.41-2.54-.57-3.81h0s.01-.01,.01-.01h.01s.01-.01,.01-.01h.01s.01-.01,.01-.01h.01s.01-.01,.01-.01h.01s.01-.01,.01-.01h.01s.01-.01,.01-.01h.01s.01-.01,.01-.01h.01s.01-.01,.01-.01h.01s.01-.01,.01-.01h.01s.01-.01,.01-.01h.01s.01-.01,.01-.01h.01s.01-.01,.01-.01h.01s.01-.01,.01-.01h.01s.01-.01,.01-.01h.01s.01-.01,.01-.01h.01s.01-.01,.01-.01h.01s.02-.01,.02-.01h.02s.02-.01,.02-.01h.02s.02-.01,.02-.01h.02s.02-.01,.02-.01h.02s.02-.02,.02-.02h.02s.02-.02,.02-.02h.02s.02-.02,.02-.02h.02s.03-.02,.03-.02h.03s0-.01,0-.01c.56,4.28,1.27,8.55,2.11,12.77,.16,.79,.34,1.59,.53,2.38,.08,.28-.16,.47-.39,.47-.15,0-.3-.08-.35-.27"/><path class="cls-1" d="M30.24,60.04v-.02s.03-.03,.03-.03l.02-.03,.02-.03,.02-.03,.02-.03v-.03s.03-.03,.03-.03v-.03s.03-.03,.03-.03v-.03s.03-.03,.03-.03v-.02s.02-.03,.02-.03v-.02s.02-.02,.02-.02v-.02s.02-.02,.02-.02v-.02s.02-.02,.02-.02v-.02s.02-.02,.02-.02v-.02s.02-.02,.02-.02v-.02s.02-.02,.02-.02v-.02s.02-.02,.02-.02v-.02s.02-.02,.02-.02v-.02s.02-.02,.02-.02v-.02s.03-.02,.03-.02v-.02s.03-.02,.03-.02l.02-.02,.02-.02,.02-.02,.02-.02,.02-.02,.02-.02,.02-.02,.02-.02,.02-.02,.02-.02,.02-.02,.02-.02,.02-.02,.02-.02,.02-.02,.02-.02,.02-.02,.02-.02,.02-.02,.02-.02,.02-.02,.02-.02,.02-.02,.02-.02,.02-.02,.02-.02,.02-.02,.02-.02,.02-.02,.02-.02c-.02,.14-.03,.29-.04,.43h0s-.04,.06-.04,.06l-.04,.06-.04,.05-.04,.05-.04,.05-.04,.05-.04,.05-.04,.05-.04,.05-.04,.05-.04,.05-.04,.05-.04,.05-.04,.05-.04,.04-.04,.04-.04,.04-.04,.04-.03,.04-.03,.04-.03,.03-.02,.03-.02,.03-.02,.03-.02,.02v.02s-.03,.02-.03,.02v.02s-.02,0-.02,0c0-.03-.01-.07-.02-.1"/><path class="cls-1" d="M44.57,53.4v-.04s.02-.04,.02-.04v-.03s.04,.02,.05,.03l-.03,.04-.04,.07v-.02Z"/><path class="cls-1" d="M27.48,56.77c-.07-.16-.14-.32-.2-.48h.02s.02,0,.02,0h.02s.02,0,.02,0h.02s.02,0,.02,0h.02s.02,0,.02,0h.02s.02,0,.02,0h.02s.02,0,.02,0h.02s.02,0,.02,0h.02s.02,0,.02,0h.02s.02,0,.02,0h.02s.02,0,.02,0h.02s.02,0,.02,0h.02s.02,0,.02,0h.02s.02,0,.02,0h.02s.02,0,.02,0h.02s.02,0,.02,0h.02s.02,0,.02,0h.02s.02,0,.02,0h.02s.02,0,.02,0h.02s.02,0,.02,0h.02s.02,0,.02,0h.02s.02,0,.02,0h.02s.02,0,.02,0h.02s.02,0,.02,0h.02s.02,0,.02,0h.02s.02,0,.02,0h.02s.02,0,.02,0h.02s.02,0,.02,0h.02s.02,0,.02,0h.02s.02,.01,.02,.01h.02s.02,.01,.02,.01h.02s.02,.02,.02,.02c0,0,0,.02,0,.03,.01,.03,.02,.06,.04,.09h-.01s-.02,0-.02,0h-.02s-.02,0-.02,0h-.02s-.02,0-.02,0h-.02s-.02,0-.02,0h-.02s-.02,0-.02,0h-.02s-.02,.01-.02,.01h-.02s-.02,.01-.02,.01h-.02s-.02,.01-.02,.01h-.02s-.02,.01-.02,.01h-.02s-.02,.01-.02,.01h-.02s-.02,.01-.02,.01h-.02s-.02,.01-.02,.01h-.02s-.02,.01-.02,.01h-.02s-.02,.02-.02,.02h-.02s-.02,.02-.02,.02h-.03s-.03,.02-.03,.02h-.03s-.03,.02-.03,.02h-.03s-.03,.02-.03,.02h-.03s-.03,.02-.03,.02h-.02s-.02,.01-.02,.01h-.02s-.01,.01-.01,.01c-.02-.03-.04-.07-.06-.11"/><path class="cls-1" d="M27.84,56.37h.01s.02,0,.02,0h.02s.02,0,.02,0h.02s.02,0,.02,0h.02s.02,0,.02,0h.02s.02,0,.02,0h.02s.02,0,.02,0h.02s.02,0,.02,0h.02s.02,0,.02,0h.02s.02,0,.02,0h.02s.02,0,.02,0h.02s.02,0,.02,0h.02s.02,.01,.02,.01h.02s.02,.01,.02,.01h.02s.02,.01,.02,.01h.02s.02,.02,.02,.02c0,0,0,.02,0,.03,.01,.03,.03,.06,.04,.09h-.01s-.02,0-.02,0h-.02s-.02,0-.02,0h-.02s-.02,0-.02,0h-.02s-.02,0-.02,0h-.02s-.02,0-.02,0h-.02s-.02,.01-.02,.01h-.02s-.02,.01-.02,.01h-.02s-.02,.01-.02,.01h-.02s-.02,.01-.02,.01h-.02s-.02,.01-.02,.01h-.02s-.02,.01-.02,.01h-.02s-.02,.01-.02,.01h-.02s-.02,.01-.02,.01h-.02s-.02,.02-.02,.02h-.02s-.03,.02-.03,.02h-.03s-.03,.02-.03,.02h-.03s-.03,.02-.03,.02h-.03s-.03,.02-.03,.02h-.03s-.03,.02-.03,.02h-.02s-.02,.02-.02,.02h-.02c.09-.2,.19-.37,.28-.49"/><path class="cls-1" d="M14.63,54.58c-.83-2.38-1.81-4.78-1.92-7.32,.12-.8,1.23-.52,1.03,.25,.17,1.73,.69,3.4,1.25,5.04,.15,.67,.67,1.34,.59,2.03-.08,.2-.28,.31-.48,.31s-.4-.1-.47-.31"/><path class="cls-1" d="M12.53,55.32c.24-1.39,.47-2.66,.79-4,.1-.33,.11-.75,.42-.96,.38-.24,.9,.15,.77,.58-.43,1.51-.71,3.06-.97,4.61h0s-.02,.01-.02,.01h-.02s-.02,.03-.02,.03l-.02,.02h-.02s-.02,.03-.02,.03l-.02,.02-.02,.02-.02,.02-.02,.02-.02,.02-.02,.02-.02,.02-.02,.02-.02,.02-.02,.02-.02,.02-.02,.02-.02,.02v.02s-.03,.02-.03,.02v.02s-.03,.01-.03,.01h-.01s-.01,.03-.01,.03h-.01s-.01,.03-.01,.03h-.01s-.01,.03-.01,.03h-.01s0,.03,0,.03h-.01s-.01,.03-.01,.03h0s-.01,.03-.01,.03h0s0,.03,0,.03h0s0,.03,0,.03h0s0,.03,0,.03h0s0,.03,0,.03h0s0,.02,0,.02h0s0,.02,0,.02h0s0,.02,0,.02h0s0,.02,0,.02h0s0,.02,0,.02h0s0,.02,0,.02h0s0,.02,0,.02h0s0,.02,0,.02h0s0,.02,0,.02h0s0,.02,0,.02h0s0,.02,0,.02h0s0,.02,0,.02h0s0,.02,0,.02h0s0,.02,0,.02h0s0,.02,0,.02h0s0,.02,0,.02h0s0,.02,0,.02h0s0,.02,0,.02h0s0,.02,0,.02h0s0,.02,0,.02h0s0,.02,0,.02h0s0,.02,0,.02h0s0,.02,0,.02h0s0,.02,0,.02h0s0,.02,0,.02h0s0,.02,0,.02h0s0,.02,0,.02h0s0,.02,0,.02h0s0,.02,0,.02h0s0,.02,0,.02h0s0,.02,0,.02h0s0,.02,0,.02h0s0,.02,0,.02h0s0,.02,0,.02h0s0,.02,0,.02h0s0,.02,0,.02h0s0,.02,0,.02h0s0,.02,0,.02h0s0,.02,0,.02h0s0,.02,0,.02h0s0,.02,0,.02h0s0,.02,0,.02h0s0,.02,0,.02h0s0,.02,0,.02h0s0,.02,0,.02h0s0,.02,0,.02h0s0,.02,0,.02h0s0,.02,0,.02h0s0,.02,0,.02h0s0,.02,0,.02h0s0,.02,0,.02h0s0,.02,0,.02h0s0,.02,0,.02h0s0,.02,0,.02h0s0,.02,0,.02h0s0,.02,0,.02h0s0,.01,0,.01c.12-.68,.24-1.36,.36-2.03"/><path class="cls-1" d="M12.02,57.16v-.02s.01-.02,.01-.02v-.02s.01-.02,.01-.02v-.02s.01-.02,.01-.02v-.02s.01-.02,.01-.02v-.02s.01-.02,.01-.02v-.02s.01-.02,.01-.02v-.02s.01-.02,.01-.02v-.02s.01-.02,.01-.02v-.02s.01-.02,.01-.02v-.02s.02-.03,.02-.03v-.02s.02-.03,.02-.03v-.03s.02-.03,.02-.03v-.03s.02-.04,.02-.04v-.04s.02-.04,.02-.04v-.04s.02-.04,.02-.04v-.04s.02-.05,.02-.05v-.05s.02-.05,.02-.05v-.05s.02-.05,.02-.05v-.05s.02-.05,.02-.05v-.05s.02-.05,.02-.05v-.05s.02-.05,.02-.05v-.05s.02-.05,.02-.05v-.05s.02-.05,.02-.05v-.05s.02-.05,.02-.05v-.05s.02-.05,.02-.05v-.05s.02-.05,.02-.05v-.05s.02-.05,.02-.05v-.05s.02-.05,.02-.05v-.05s.01-.05,.01-.05v-.05s.01-.04,.01-.04v-.04s.01-.04,.01-.04v-.04s.01-.04,.01-.04v-.04s.01-.04,.01-.04v-.04s.01-.04,.01-.04v-.04s.01-.04,.01-.04v-.02c.17-.27,.33-.54,.49-.82,.14-.24,.47-.32,.71-.18,.25,.14,.32,.46,.19,.7-.48,.86-1.02,1.68-1.57,2.49-.11,.16-.22,.32-.35,.49h0Z"/><path class="cls-1" d="M22.44,51.03l-.03-.03-.03-.03-.03-.03-.03-.03-.03-.03-.03-.03-.03-.03-.03-.03-.03-.03-.03-.03-.03-.03-.03-.02-.03-.02-.03-.02-.03-.02-.03-.02h-.03s-.03-.03-.03-.03h-.02s-.02-.02-.02-.02h-.02s-.02-.01-.02-.01h-.02s0,0,0,0c.02-.1,.03-.2,.04-.3h0s0,0,0,0h0s0,.01,0,.01h0s0,.01,0,.01h0s0,.01,0,.01h0s0,.01,0,.01h0s0,.02,0,.02h0s0,.02,0,.02h0s0,.02,0,.02h0s0,.02,0,.02h0s0,.02,0,.02h0s0,.02,0,.02h0s0,.02,0,.02h0s0,.02,0,.02h0s0,.02,0,.02h0s0,.02,0,.02h0s0,.02,0,.02h0s0,.02,0,.02h0s0,.02,0,.02h0s0,.02,0,.02h0s0,.02,0,.02h.01s.01,.02,.01,.02h.01s.01,.02,.01,.02h.01s.01,.02,.01,.02h.01s.01,.02,.01,.02h.01s.01,.02,.01,.02h0s.01,.02,.01,.02h.01s0,.02,0,.02h.01s.01,.02,.01,.02h0s.01,.02,.01,.02h0s0,.02,0,.02h0s0,.02,0,.02h0s0,.02,0,.02h0s0,.02,0,.02h0s0,.01,0,.01h.01s0,.01,0,.01h0s0,.01,0,.01h0s0,.01,0,.01h0s0,.01,0,.01h0s-.01,.08-.02,.12l-.03-.03Z"/><polyline class="cls-1" points="34.74 50.31 34.75 50.31 34.76 50.3 34.77 50.3 34.77 50.3 34.75 50.31 34.75 50.31 34.74 50.31"/><polygon class="cls-1" points="35.4 49.98 35.42 49.97 35.44 49.97 35.46 49.96 35.49 49.95 35.5 49.94 35.5 49.95 35.49 49.95 35.47 49.96 35.44 49.97 35.42 49.98 35.4 49.98 35.39 49.99 35.4 49.98"/><path class="cls-1" d="M30.26,60.03h0s.01-.02,.01-.02v-.02s.03-.02,.03-.02l.02-.02,.02-.03,.02-.03,.02-.03,.03-.03,.03-.04,.03-.04,.03-.04,.04-.04,.04-.04,.04-.05,.04-.04,.04-.05,.04-.05,.04-.05,.04-.05,.04-.05,.04-.05,.04-.05,.04-.05,.04-.05,.04-.05,.04-.05,.04-.05,.04-.06c0,.19,0,.38,0,.58h0s-.02,.02-.02,.02l-.02,.02-.02,.02-.02,.02-.02,.02-.02,.02-.02,.02-.02,.02-.02,.02-.02,.02-.02,.02-.02,.02-.02,.02-.02,.02-.02,.02-.02,.02-.02,.02-.02,.02-.02,.02-.02,.02-.02,.02-.02,.02-.02,.02-.02,.02-.02,.02-.02,.02-.02,.02v.02s-.03,.02-.03,.02v.02s-.03,.02-.03,.02v.02s-.02,.02-.02,.02v.02s-.02,.02-.02,.02v.02s-.02,.02-.02,.02v.02s-.02,.02-.02,.02v.02s-.02,.02-.02,.02v.02s-.02,.02-.02,.02v.02s-.02,.02-.02,.02v.02s-.02,.02-.02,.02v.02s-.02,.02-.02,.02v.02s-.02,.03-.02,.03v.02s-.03,.03-.03,.03v.03s-.03,.03-.03,.03c-.04-.2-.08-.4-.12-.61"/><path class="cls-1" d="M44.07,54.79v-.02s0-.02,0-.02v-.02s0-.02,0-.02v-.02s0-.02,0-.02v-.02s.01-.02,.01-.02v-.02s0-.02,0-.02v-.03s.01-.03,.01-.03v-.03s.01-.03,.01-.03v-.03s.01-.03,.01-.03v-.03s.02-.03,.02-.03v-.03s.02-.03,.02-.03v-.03s.02-.03,.02-.03v-.03s.02-.03,.02-.03v-.03s.02-.03,.02-.03v-.04s.02-.04,.02-.04v-.04s.03-.04,.03-.04v-.04s.03-.04,.03-.04l.02-.05,.02-.05,.02-.05,.02-.05,.03-.06,.03-.06h0c-.13,.46-.26,.9-.39,1.29h0Z"/><path class="cls-1" d="M43.98,55.24h0s0-.02,0-.02h0s0-.03,0-.03h0s0-.03,0-.03h0s0-.03,0-.03h0s0-.03,0-.03v-.02s0-.02,0-.02h0s0-.03,0-.03v-.02s0-.02,0-.02v-.02s0-.02,0-.02v-.02s0-.02,0-.02v-.02s0-.02,0-.02v-.02s0-.02,0-.02v-.02s0-.02,0-.02v-.02s0-.02,0-.02v-.02s0-.02,0-.02v-.02s0-.02,0-.02v-.02s0-.02,0-.02v-.02s0-.02,0-.02v-.02s.01-.03,.01-.03v-.03s.01-.03,.01-.03v-.03s.01-.03,.01-.03v-.03s.01-.03,.01-.03v-.03s.02-.03,.02-.03v-.03s.02-.03,.02-.03v-.03s.02-.03,.02-.03v-.03s.02-.03,.02-.03v-.03s.02-.03,.02-.03v-.04s.02-.04,.02-.04v-.04s.03-.04,.03-.04l.02-.04,.02-.04,.02-.05,.02-.05,.02-.05,.02-.05,.03-.05,.03-.06,.03-.06,.04-.07,.04-.07,.05-.07,.03-.04c.08,.07,.14,.18,.15,.32v.03s-.03,.05-.03,.05l-.02,.05-.02,.05-.02,.05-.02,.05v.05s-.03,.05-.03,.05v.05s-.03,.05-.03,.05v.05s-.02,.04-.02,.04v.05s-.02,.04-.02,.04v.04s-.02,.04-.02,.04v.04s-.02,.04-.02,.04v.04s-.01,.04-.01,.04v.04s-.01,.03-.01,.03v.04s-.01,.03-.01,.03v.03s-.01,.03-.01,.03v.03s-.01,.03-.01,.03v.03s-.01,.03-.01,.03v.03s-.01,.04-.01,.04v.03s-.01,.04-.01,.04v.04s-.01,.03-.01,.03v.04s-.01,.04-.01,.04v.03s-.01,.04-.01,.04v.03s-.01,.04-.01,.04v.03s-.01,.03-.01,.03v.03s-.01,.03-.01,.03v.03s-.01,.03-.01,.03v.03s-.01,.03-.01,.03v.02s0,.02,0,.02v.02s0,.02,0,.02v.02s0,.02,0,.02v.02s0,.02,0,.02v.02s-.01,.02-.01,.02v.02s0,.02,0,.02v.02s0,.02,0,.02v.02s-.01,.02-.01,.02v.02s-.01,.02-.01,.02v.02s-.01,.02-.01,.02v.02s-.01,.02-.01,.02v.02s-.01,.02-.01,.02v.02s-.01,.02-.01,.02v.02s-.01,.02-.01,.02v.02s-.02,.02-.02,.02v.02s-.02,.02-.02,.02v.02s-.02,.02-.02,.02v.02s-.02,.02-.02,.02v.02s-.02,.02-.02,.02v.02s-.02,.02-.02,.02v.02c-.06-.33-.11-.65-.16-.98"/><path class="cls-1" d="M27.54,56.77h.01s.02-.01,.02-.01h.02s.02-.01,.02-.01h.03s.03-.02,.03-.02h.03s.03-.02,.03-.02h.03s.03-.02,.03-.02h.03s.03-.02,.03-.02h.02s.02-.02,.02-.02h.02s.02-.02,.02-.02h.02s.02-.01,.02-.01h.02s.02-.01,.02-.01h.02s.02-.01,.02-.01h.02s.02-.01,.02-.01h.02s.02-.01,.02-.01h.02s.02-.01,.02-.01h0s.02,.1,.04,.14c.01,.06,.03,.11,.04,.17-.09,.06-.2,.09-.31,.09-.15,0-.29-.06-.39-.2"/><path class="cls-1" d="M28.33,57.35h-.02s-.02-.02-.02-.02h-.02s-.02-.01-.02-.01h-.02s-.02-.01-.02-.01h-.02s-.02,0-.02,0h-.02s-.02,0-.02,0h-.02s-.02,0-.02,0h-.02s-.02,0-.02,0h-.02s-.02,0-.02,0h-.02s-.02,0-.02,0h-.02s-.02,0-.02,0h-.02s-.02,0-.02,0h-.02s-.02,0-.02,0h-.02s-.02,0-.02,0h-.02s-.02,0-.02,0h-.02s-.02,0-.02,0h-.02s-.02,0-.02,0h-.02s-.02,0-.02,0h-.02s-.02,0-.02,0h-.02s-.02,0-.02,0h-.02s-.02,0-.02,0h-.02s-.02,0-.02,0h-.02s-.02,0-.02,0h-.02s-.02,0-.02,0h-.02s-.02,0-.02,0h-.02s-.02,0-.02,0h-.02s-.02,0-.02,0h-.02s-.02,0-.02,0h-.02c.05-.15,.11-.29,.16-.41h.02s.02-.01,.02-.01h.02s.03-.02,.03-.02h.03s.03-.02,.03-.02h.03s.03-.02,.03-.02h.03s.03-.02,.03-.02h.03s.03-.02,.03-.02h.02s.02-.02,.02-.02h.02s.02-.02,.02-.02h.02s.02-.01,.02-.01h.02s.02-.01,.02-.01h.02s.02-.01,.02-.01h.02s.02-.01,.02-.01h.02s.02-.01,.02-.01h.02s0,0,0,0c.01,.05,.03,.1,.04,.15,.04,.18,.07,.35,.12,.53,0,0,0,0,0,0,0,0,0,0,0,0h0s.02,.08,.03,.12h-.02Z"/><path class="cls-1" d="M12.17,57.24h0s0-.01,0-.01h0s0-.02,0-.02h0s0-.02,0-.02h0s0-.02,0-.02h0s0-.02,0-.02h0s0-.02,0-.02h0s0-.02,0-.02h0s0-.02,0-.02h0s0-.01,0-.01v.02s-.01,.05-.01,.05v.05s-.02,.05-.02,.05v.04s-.02,.04-.02,.04v.04s-.02,.04-.02,.04v.04s-.02,.04-.02,.04v.03s-.02,.03-.02,.03v.03s-.02,.03-.02,.03v.02s-.02,.03-.02,.03v.02s-.01,.02-.01,.02v.02s-.02,.02-.02,.02v.02s-.01,.02-.01,.02v.02s-.01,.02-.01,.02v.02s-.01,.02-.01,.02v.02s-.01,.02-.01,.02v.02s-.01,.02-.01,.02h0c.04-.22,.08-.45,.12-.69"/><path class="cls-1" d="M22.36,51.69h0s0-.02,0-.02h0s0-.02,0-.02h-.01s0-.02,0-.02h-.01s-.01-.02-.01-.02h0s0-.02,0-.02h-.01s0-.02,0-.02h-.01s-.01-.02-.01-.02h-.01s-.01-.02-.01-.02h-.01s-.01-.02-.01-.02h-.01s-.01-.02-.01-.02h-.01s0-.02,0-.02h-.01s0-.02,0-.02h0s0-.02,0-.02h0s0-.02,0-.02h0s0-.02,0-.02h0s0-.02,0-.02h0s0-.02,0-.02h0s0-.02,0-.02h0s0-.02,0-.02h0s0-.02,0-.02h0s0-.02,0-.02h0s0-.02,0-.02h0s0-.02,0-.02h0s0-.02,0-.02h0s0-.02,0-.02h0s0-.02,0-.02h0s0-.01,0-.01h0s0-.01,0-.01h0s0-.01,0-.01h0s0-.01,0-.01h0s0-.01,0-.01h0s0-.01,0-.01h0s0-.01,0-.01h0s0,0,0,0h0s-.01,0-.01,0h0s-.01,0-.01,0h-.01s-.01,0-.01,0h-.01s0,0,0,0c.03-.2,.06-.4,.09-.6h.02s.02,.01,.02,.01h.02s.02,.02,.02,.02h.02s.03,.02,.03,.02h.03s.03,.03,.03,.03l.03,.02,.03,.02,.03,.02,.03,.02,.03,.02,.03,.03,.03,.03,.03,.03,.03,.03,.03,.03,.03,.03,.03,.03,.03,.03,.03,.03,.03,.03,.03,.03-.11,.74"/><path class="cls-1" d="M34.77,50.45c0-.08-.02-.16-.03-.25h0s.02-.02,.02-.02h.02s.02-.02,.02-.02h.02s.02-.02,.02-.02h.02s.02-.02,.02-.02h.02s.02-.02,.02-.02h.02s.02-.02,.02-.02h.02s.02-.02,.02-.02h.02s.02-.02,.02-.02h.02s.02-.02,.02-.02h.02s.02-.02,.02-.02h.02s.02-.02,.02-.02h.02s.02-.02,.02-.02h.02s.02-.02,.02-.02h.02s.02-.02,.02-.02h.02s.02-.02,.02-.02h.02s.02-.02,.02-.02h.02s.02-.02,.02-.02h.02s.02-.01,.02-.01h.02s.02-.02,.02-.02h.02s.01-.01,.01-.01c0,.02,0,.05-.02,.07,.04,.29,.07,.57,.11,.86h0s-.03,.01-.03,.01h-.03s-.02,.02-.02,.02h-.02s-.02,.02-.02,.02h-.02s-.02,.02-.02,.02h-.02s-.02,.02-.02,.02h-.02s-.02,.02-.02,.02h-.02s-.02,.01-.02,.01h-.02s-.02,.01-.02,.01h-.02s-.01,.01-.01,.01h-.01s-.01,.01-.01,.01h-.01s-.01,.01-.01,.01h-.01s-.01,.01-.01,.01h-.01s-.01,.01-.01,.01h-.01s-.01,.01-.01,.01h-.01s-.01,.01-.01,.01h-.01s-.01,.01-.01,.01h-.01s-.01,.01-.01,.01h-.01s-.01,.01-.01,.01h-.01s-.01,.01-.01,.01h-.01s-.01,.01-.01,.01h-.01s-.01,.01-.01,.01h-.01s-.01,.01-.01,.01h-.01s-.01,.01-.01,.01h-.01s-.01,.01-.01,.01h-.01s0,0,0,0c-.03-.22-.05-.44-.08-.66"/><path class="cls-1" d="M43.58,34.19c-.12-.09-.25-.16-.39-.23-.23-.1-.48-.16-.74-.18-.08-.06-.16-.12-.24-.17-.06-.09-.12-.17-.18-.25,0-.1-.01-.19-.02-.28,.36,.15,.7,.32,1.04,.51,.34,.2,.66,.43,.98,.67-.15-.04-.29-.06-.44-.06"/><path class="cls-1" d="M48,42.52s.06-.03,.09-.05c0,.03,.01,.06,.02,.08-.03,0-.07-.02-.1-.03"/><path class="cls-1" d="M46.02,34.25h.04s.05,0,.05,0h.05s.05,0,.05,0h.05s.05,0,.05,0h.05s.05,0,.05,0h.05s.05,0,.05,0h.05s.05,0,.05,0h.05s.04,0,.04,0h.05s.05,0,.05,0h.04s.04,0,.04,0h.04s.04,0,.04,0h.04s.04,0,.04,0h0c.01,.15,.02,.3,.03,.45-.03,0-.07,0-.1,0-.28,.02-.55,.1-.79,.23-.02,0-.05,.01-.07,.02-.02-.25-.04-.5-.07-.74"/><path class="cls-1" d="M51.5,34.42s-.02-.06-.03-.08h.02s.07,0,.07,0h.07s.06-.01,.06-.01h.06s.06-.01,.06-.01h.06s.06,0,.06,0h.06s.06,0,.06,0h.06s.06,0,.06,0h.05s.06,0,.06,0h.05s.06,0,.06,0h.06s.06,0,.06,0h.02c.11,.27,.23,.54,.34,.81-.23,.05-.46,.11-.68,.19,0,0,0,0,0,0-.1,0-.2,0-.3,.01-.12-.29-.24-.59-.35-.89"/><path class="cls-1" d="M45.04,33.41c-.18-.14-.41-.18-.62-.25-.25-.1-.49-.25-.76-.3-.5-.1-1.06,.05-1.5-.27-.1-.07-.19-.15-.26-.24-.01-.04-.02-.08-.03-.11-.06-.23-.16-.44-.29-.63,0-.07,0-.13,0-.2,.06-.66-.04-1.42,.35-1.99,1.18-1.36,2.88-1.28,3.47-3.32,.3-.79,.56-1.6,.88-2.38,.21-.7,.29-1.44,.63-2.09,.25-.57,1.8-1.25,1.9-.29-.03,.73-1.05,.28-1.15,1-.16,.43-.26,.88-.35,1.33-.22,.73-.53,1.43-.77,2.16-.48,1.6-1.25,2.68-2.8,3.41-.39,.23-.87,.47-1.08,.89-.02,.47-.24,1.21,0,1.61,.16,.15,.37,.14,.59,.13,.14,0,.28,0,.41,.03,.45,.04,.78,.23,1.13,.38,.22,.07,.45,.12,.65,.25,.4-.28,.51-.8,.39-1.24-.34-.27-.71-.56-1.14-.66-.77-.15-.54-1.66,1.19-.51,.76,.46,1.07,.91,.95,1.82-.04,.63-.68,1.6-1.39,1.6-.13,0-.26-.03-.38-.1"/><path class="cls-1" d="M48.77,25.29c-.63-.18-1.63-1.81-.54-1.96,.61,0,.41,.83,.87,1.04,.79-.06,.83-.5,.7-1.16-.11-.52,.01-1.74-.81-1.58-.32,.08-.63,.21-.96,.25-.56,0-.66-.82-.12-.95,1.29-.48,2.4-.44,2.7,1.12,.1,.41,.12,.84,.17,1.26,.05,.34,.11,.71-.07,1.03-.23,.61-.93,.99-1.58,.99-.13,0-.25-.01-.37-.04"/><path class="cls-1" d="M52.1,26.82c-.92-.22-1.61-1.25-1.25-2.16,.14-.39,.75-.38,.9,0,.1,.23-.07,.47,.01,.72,.14,.4,.66,.66,1.02,.37,.05-.87,.21-1.74,.22-2.61-.36-.28-.82-.52-1.23-.63-.2,.42-.49,.8-.67,1.23-.25,.34-.3,.99-.81,1.02-.26,0-.49-.22-.49-.48,0-.21,.14-.37,.21-.55,.27-.56,.59-1.1,.89-1.64,.39-.76,1.21-.59,1.81-.23,.39,.14,.71,.39,1.04,.63,.47,.6,.12,1.53,.08,2.22-.02,1.28-.11,2.13-1.54,2.13-.06,0-.13,0-.19,0"/><path class="cls-1" d="M54.26,28.63c-.53-.21-.99-.65-.99-1.25-.06-.44-.08-.92,.23-1.27-.46,.41-1.1-.28-.66-.71,.55-.32,2.03-1.74,2.59-1.16,.52,.81,1.78,1.62,1.25,2.7-.31,.41-.74,.72-1.04,1.14-.28,.36-.56,.65-.96,.65-.13,0-.27-.03-.42-.1m0-1.93c-.14,.22-.02,.51,0,.75,.06,.14,.24,.22,.38,.29,.38-.44,.76-.88,1.19-1.28,.03-.16-.09-.27-.18-.39-.21-.34-.49-.62-.75-.91-.37,.23-.75,.45-1.09,.73,.04,0,.08-.01,.12-.01,.39,0,.64,.52,.34,.82"/><path class="cls-1" d="M50.95,33.62c-.57,0-1.05-.32-1.6-.39-.37-.03-.88,0-.89-.51,.06-.75,1.03-.43,1.5-.37,.4,.17,.8,.32,1.24,.33,.19,.03,.34-.07,.5-.15,.41-.18,.84-.34,1.23-.58,.25-.22,.53-.39,.78-.61,.16-.21,.36-.38,.52-.59,.08-.14,.15-.3,.28-.4,.35-.21,.87-.54,1.19-.12,.14,.2,.11,.44,.16,.66,.12,.36,.2,.77,.56,.97,.2-.78,.39-1.66,.27-2.48-.25-.26-.6-.38-.83-.66-.34-.16-.84-.32-.93-.73-.04-.55,.56-.69,.93-.35,.18,.14,.4,.18,.58,.3,.24,.26,.56,.41,.82,.65,.44,.3,.45,.84,.45,1.32,.02,.52-.12,1.03-.19,1.54-.07,.38-.08,.83-.4,1.1-.88,.87-1.93-.3-2.13-1.19-.65,.81-1.48,1.48-2.45,1.87-.43,.18-.84,.43-1.31,.43-.1,0-.19,0-.29-.03"/><path class="cls-1" d="M47.11,34.72h-.04s-.04,0-.04,0h-.04s-.04,0-.04,0h-.04s-.04,0-.04,0h-.05s-.05,0-.05,0h-.05s-.05,0-.05,0h-.05s-.05,0-.05,0h-.05s-.05,0-.05,0h-.05s-.05,0-.05,0h-.05s-.05,0-.05,0h-.05s-.05,0-.05,0h-.05s-.04,0-.04,0c-.08-.95-.16-1.89-.2-2.83,.27-.69,1.13-.32,.95,.37,.12,.83,.18,1.67,.24,2.51h0Z"/><path class="cls-1" d="M51.16,32.96c.29-.5,1.09-.12,.87,.42,.19,.45,.38,.9,.57,1.35h-.02s-.06,0-.06,0h-.05s-.06,0-.06,0h-.06s-.05,0-.05,0h-.16s-.06,0-.06,0h-.06s-.06,0-.06,0h-.06s-.06,0-.06,0h-.06s-.06,.01-.06,.01h-.06s-.07,.01-.07,.01h-.02c-.2-.59-.75-1.19-.42-1.81"/><path class="cls-1" d="M14.26,37.45s-.06-.05-.09-.08c-.05-.04-.11-.09-.16-.13-.15-.11-.3-.24-.49-.26,0,0,0,0,0,0,0,0,0,0,0,0,.03-.02,.05-.04,.07-.06,.51-.39,1.04-.75,1.59-1.08-.02,.05-.04,.11-.05,.16-.08,.3-.07,.63-.08,.94,0,.06,0,.13,0,.19-.02,0-.03,.02-.04,.03-.19,.12-.38,.26-.57,.4-.05-.04-.1-.08-.16-.12"/><path class="cls-1" d="M12.88,44.48c.07-.34,.14-.68,.22-1.01,.17,.05,.33,.1,.5,.16-.05,.09-.1,.19-.15,.28-.07,.13-.14,.27-.2,.4-.04,.08-.08,.17-.11,.25-.09-.03-.17-.05-.26-.08"/><path class="cls-1" d="M13.53,43.84s0,.01,0,.02c0,0,0,0,0,0,0,0,0-.01,.01-.02"/><path class="cls-1" d="M13.28,42.67c.06-.24,.12-.49,.18-.73,.09,.04,.18,.07,.27,.08,.12,.03,.23,.06,.35,.08-.02,.05-.03,.1-.05,.15,0,0,0,0,0-.01,0,0,0,.01,0,.02,0,0,0,0,0,0,0,0,0,.01,0,.02,0,0,0,0,0,.01h0s0,0,0,0c0,0,0,0,0,0,0,0,0,0,0,0h0s-.02,.05-.03,.08c-.05,.14-.09,.27-.14,.41,0,.02-.01,.03-.02,.05-.19-.05-.37-.1-.55-.16"/><path class="cls-1" d="M10.28,38.15c-.3-.68-.61-1.36-.93-2.03-.1,.46-.19,.95-.5,1.31-.54,.59-1.56,.66-2.13,.07-.42-.54-.24-1.26-.22-1.88,.1-.48-.17-1.05,.19-1.44,1.25-1.04,2.7-.87,3.19,.79,.33,.81,.78,1.57,1.09,2.39,.18,.32,.4,.79-.04,1.02-.07,.03-.14,.05-.21,.05-.18,0-.36-.1-.44-.26m-2.81-3.37c.1,.69-.14,1.4,0,2.08,.1,.07,.22,.11,.35,.08,.52-.07,.51-.74,.6-1.15-.07-.33,.14-.68,.5-.65-.13-.47-.37-.67-.67-.67-.23,0-.5,.11-.77,.3"/><path class="cls-1" d="M4.53,39.77c-.86-.18-.82-1.22-.91-1.9-.05-.37-.21-.72-.22-1.1-.06-.56,.46-.86,.94-.98,.44-.17,.97-.32,1.41-.08,.31,.18,.6,.42,.92,.58,.26,0,.48,.19,.5,.45,.03,.43-.47,.62-.82,.46-.97-.42-.87-.92-1.99-.41,.2,.66,.2,1.37,.38,2.03,.69,.06,.95-.25,.89-.92-.03-.62,.92-.69,.97-.06,.13,1.2-.59,1.95-1.7,1.95-.12,0-.25,0-.38-.03"/><path class="cls-1" d="M5.83,39.94c-.14-.39-.5-.82-.25-1.23,.14-.22,.46-.27,.67-.13,.14,.09,.21,.25,.21,.41,.09,.22,.2,.42,.29,.64,.13,.37-.18,.63-.48,.63-.18,0-.36-.09-.44-.31"/><path class="cls-1" d="M7.98,38.9c-.26-.36-.69-.63-.83-1.06-.21-.71,.83-.99,.95-.25,.29,.37,1.06,.86,.57,1.35-.09,.08-.21,.12-.32,.12-.14,0-.27-.05-.36-.16"/><path class="cls-1" d="M2.41,41.66s.02,0,.03,0c0,0-.02,0-.02,0t0,0"/><path class="cls-1" d="M2.49,41.64c-.05,0-.11-.01-.16-.01-.19-.09-.31-.24-.37-.44,0-.06,0-.12,0-.18,0-.14-.01-.29-.02-.43,0-.02,0-.03,0-.05,0-.47-.05-.93-.07-1.4-.19-.97,.79-1.37,1.56-1.59,.49-.55,1.2,.27,.68,.73-.38,.26-.89,.28-1.27,.56-.01,.65,.11,1.28,.06,1.92,.36,.05,.57-.23,.71-.51,.2-.24,.25-.53,.19-.83-.04-.62,.92-.69,.97-.06,.12,.74-.29,1.68-.96,2.12-.14-.01-.27,0-.4,.05,0,0-.02,0-.02,0h0c-.09,.01-.17,.02-.25,.03-.09,.02-.18,.05-.28,.07-.01,0-.02,0-.03,0-.02,0-.04,0-.05,0-.03,0-.06,0-.09,0-.06,0-.11,0-.16,.01,0,0-.01,0-.02,0"/><path class="cls-1" d="M4.42,41.97c-.06-.16-.17-.31-.31-.4-.08-.19-.24-.34-.32-.53-.42-.74,.76-1.25,.9-.38,.69,.8,.35,1.35-.06,1.35-.07,0-.14-.02-.21-.05"/><path class="cls-1" d="M3.58,41.47c-.06,0-.12,.02-.17,.05,0,0-.01,0-.02,0h0c-.09,.01-.17,.02-.25,.03-.09,.02-.18,.05-.27,.07,.13-.25,.49-.31,.72-.16"/><path class="cls-1" d="M1.96,41.27c0-.09,0-.17,0-.26-.01-.33-.04-.66-.05-.99,.33-.11,.64-.06,.72,.39,.04,.41-.4,.48-.66,.67,0,.07,0,.13,0,.2,0,0,0,0,0,0"/><path class="cls-1" d="M6.35,47.12s-.03-.01-.04-.02h0s-.01-.02-.01-.02h-.02s-.01-.03-.01-.03h-.01s-.01-.03-.01-.03h-.01s-.01-.03-.01-.03h-.01s-.01-.02-.01-.02h-.01s-.01-.02-.01-.02h-.01s-.01-.02-.01-.02h-.01s-.01-.02-.01-.02h-.01s-.01-.02-.01-.02h-.01s-.01-.02-.01-.02h-.01s0-.02,0-.02h-.01s0-.01,0-.01h-.01s0-.01,0-.01h0s0-.01,0-.01h0s0-.01,0-.01h0s0,0,0,0h0s0,0,0,0h0s0,0,0,0h0s0,0,0,0h0s0,0,0,0h0s0,0,0,0h0s0,0,0,0h-.01s0,0,0,0h0s-.01,0-.01,0h-.01s0,0,0,0h-.01s-.01,0-.01,0h-.01s-.01,0-.01,0h-.01s-.01,0-.01,0h-.01s-.01,0-.01,0h-.01s-.01,0-.01,0h-.01s-.01,0-.01,0h-.01s-.01,0-.01,0h-.02s-.01,0-.01,0h-.1s-.01,0-.01,0h-.03s-.01,0-.01,0h-.01s-.01,0-.01,0h-.02s-.01,0-.01,0c-.02,0-.03-.02-.05-.03,0,0,0,0,0,0-.02-.03-.05-.04-.08-.05-.01,0-.03,0-.04-.01-.66-.38-1.17-.9-1.42-1.73-.22-.41-.37-.85-.5-1.29,.05-.04,.08-.09,.11-.14,.01-.03,.03-.05,.05-.08t0,0s0,0,.01,0c.03,0,.05-.01,.08-.02,.06,0,.12-.01,.18-.02,.1,0,.2,0,.29,0,0,0,0,0,0,0,.07,.08,.16,.14,.25,.18,.13,.4,.3,.79,.48,1.18,.15,.45,.44,.83,.86,1.07,.33,.17,.69,.29,1.03,.44,.53,.18,.34,.94-.15,.94-.05,0-.11,0-.17-.03"/><path class="cls-1" d="M3.29,41.54s-.05,0-.08,0c.02,0,.05,0,.08,0"/><path class="cls-1" d="M11.15,40.25c-.99-.14-1.53-1.28-.82-2.05,.47-.49,1.13-.74,1.64-1.17,.17-.59,1.1-.33,.96,.26-.31,.79-1.33,.98-1.88,1.57-.28,.4,.42,.55,.7,.47,.35-.15,.84-.46,1.08,.01,.25,.65-.68,.96-1.32,.96-.14,0-.26-.01-.36-.04"/><path class="cls-1" d="M11.22,46.15c-.67-.62,.48-1.28,.86-1.72,.25-.38,.4-.81,.6-1.21,.53-1.02,.48-2.2,.89-3.25,.11-.52,.4-1.02,.24-1.55-.23-.35-.54-.76-.95-.88-.49,.77-1.53-.07-.76-.59,1.04-1.2,2.93,.81,2.73,1.98-.13,.85-.48,1.64-.65,2.47-.03,.28-.08,.56-.14,.84,0,0,0,0,0,.01,0,0,0,0,0,0,0,0,0,.02-.01,.03,0,0,0,0,0,0,0,0,0,0,0,.01h0s-.02,.05-.03,.08c-.05,.14-.1,.27-.14,.41-.02,.07-.05,.13-.07,.2-.01,.05-.02,.1-.02,.15h0s0,0,0,0h0s0,0,0,0c0,0,0,0,0,0h0c-.09,.24-.19,.47-.3,.7-.27,.54-.46,1.13-.95,1.52-.38,.21-.59,.87-1.02,.87-.08,0-.17-.02-.27-.08"/><path class="cls-1" d="M14.03,42.26s0,0,0,.01c0,0,0,0,0-.01"/><path class="cls-1" d="M6.17,46.97h-.01s-.01-.02-.01-.02h-.01s-.01-.02-.01-.02h-.01s-.01-.02-.01-.02h-.01s-.01-.02-.01-.02h-.01s-.01-.02-.01-.02h-.01s-.01-.02-.01-.02h0s0-.01,0-.01h0s0-.01,0-.01h0s0-.01,0-.01h0s0,0,0,0h0s0,0,0,0h0s0,0,0,0h0s0,0,0,0h0s0,0,0,0h0s0,0,0,0h0s0,0,0,0h0s0,0,0,0h0s-.01,0-.01,0h0s-.01,0-.01,0h-.01s-.01,0-.01,0h-.01s-.01,0-.01,0h-.01s-.01,0-.01,0h-.01s-.01,0-.01,0h-.01s-.01,0-.01,0h-.01s-.01,0-.01,0h-.01s-.01,0-.01,0h-.01s-.01,0-.01,0h-.01s-.01,0-.01,0h-.11s-.01,0-.01,0h-.01s-.01,0-.01,0h-.01s-.01,0-.01,0h-.01s-.01,0-.01,0h-.02s-.01,0-.01,0h-.01s-.02-.02-.03-.03c-.02-.03-.05-.04-.08-.05-.02,0-.04-.01-.06-.02,.13-.18,.25-.35,.38-.53,.2-.17,.51-.16,.68,.04,.21,.24,.09,.54-.1,.83h0Z"/><path class="cls-1" d="M10.72,46.35s0-.05,.01-.08c0-.06,.01-.13,.02-.2,0-.04,0-.08,.01-.12,0-.06,.02-.12,.02-.18,0-.03,.01-.07,.02-.1,0-.03,0-.05,0-.08,.12-.13,.26-.26,.37-.4,.21-.31,.63-.59,.95-.24,.42,.55-.4,.96-.67,1.37,0,.02,0,.03-.01,.05h0s0-.02,0-.02h0s0-.02,0-.02h0s0-.02,0-.02h0s0-.01,0-.01h0s0-.01,0-.01h0s0,0,0,0h0s0,0,0,0h0s0,0,0,0h-.01s0,0,0,0h0s-.01,0-.01,0h0s-.01,0-.01,0h-.04s-.01,0-.01,0h-.01s-.01,0-.01,0h-.01s-.01,0-.01,0h-.01s-.01,0-.01,0h-.01s-.01,0-.01,0h-.01s-.01,0-.01,0h-.01s-.01,0-.01,0h-.01s-.01,0-.01,0h-.01s-.01,0-.01,0h-.01s-.01,0-.01,0h-.01s-.01,0-.01,0h-.01s-.01,0-.01,0h-.01s-.01,0-.01,0h-.01s-.01,0-.01,0h-.01s-.01,0-.01,0h-.01s-.01,0-.01,0h-.01s-.01,0-.01,0h-.01s-.01,0-.01,0h-.01s-.01,0-.01,0h-.01s-.01,0-.01,0h-.01s-.01,0-.01,0h-.01s-.01,0-.01,0h0s0-.02,0-.03"/><path class="cls-1" d="M.98,44.28c-1.42-.32-1.04-1.33-.45-2.26,.3-.39,.06-1.14,.7-1.16,1.15,.22-.02,1.83-.27,2.42,.39,.21,.79-.19,1.05-.44,.15-.22,.21-.53,.51-.61,.43-.11,.76,.29,1.08,.51,.2,.11,.38,.26,.52,.43,.56,.7-.46,1.41-.79,.56-.16-.15-.35-.23-.51-.38-.38,.48-.99,.95-1.63,.95-.07,0-.14,0-.21-.02"/><path class="cls-1" d="M1.29,41.76c-.55-.08-.52-.67-.19-.99,.19-.21,.49-.18,.74-.24,.11-.05,.22-.07,.34-.03,.4,.09,.49,.69,.12,.88-.16,.08-.34,.12-.52,.14-.08,.16-.26,.25-.44,.25-.02,0-.04,0-.06,0"/><path class="cls-1" d="M5.84,46.54h.01s.01,0,.01,0h.01s.01,0,.01,0h.01s.01,0,.01,0h.01s.01,0,.01,0h.01s.01,0,.01,0h.01s.01,0,.01,0h.01s.01,0,.01,0h.01s.01,0,.01,0h.01s.01,0,.01,0h.01s.01,0,.01,0h.01s.01,0,.01,0h.01s.01,0,.01,0h.03s.01,0,.01,0h.01s.01,0,.01,0h.02s.01,0,.01,0h.01s.01,0,.01,0h.01s.01,0,.01,0h.01s.01,0,.01,0h0s.01,0,.01,0h.01s0,0,0,0h0s0,0,0,0h.01s0,0,0,0h0s0,0,0,0h0s0,0,0,0h0s0,0,0,0h0s0,0,0,0h0s0,0,0,0h0s0,0,0,0h.01s.01,.01,.01,.01h.01s.01,.01,.01,.01h.01s.01,.01,.01,.01h.01s.01,.02,.01,.02h.01s.01,.02,.01,.02h.01s.01,.02,.01,.02h.01s.01,.02,.01,.02h.01s.01,.02,.01,.02h.01s.01,.02,.01,.02h.02s.01,.02,.01,.02h.02s.02,.02,.02,.02h.01s.02,.02,.02,.02h.02s.01,.03,.01,.03h0c-.33-.07-.65-.16-.94-.27"/><path class="cls-1" d="M5.87,47.6c-.26-.02-.53-.03-.8-.04,.16-.31,.32-.61,.48-.91h.02s.02-.01,.02-.01h.02s.02-.01,.02-.01h.02s.02-.01,.02-.01h.01s.02,0,.02,0h.01s.01,0,.01,0h.01s.01,0,.01,0h.01s.01,0,.01,0h.01s.01,0,.01,0h.01s.01,0,.01,0h.01s.01,0,.01,0h.01s.01,0,.01,0h.01s.01,0,.01,0h.01s.01,0,.01,0h.01s.01,0,.01,0h.01s.01,0,.01,0h.01s.01,0,.01,0h.01s.01,0,.01,0h.01s.01,0,.01,0h.01s.01,0,.01,0h.01s.01,0,.01,0h.01s.01,0,.01,0h.01s.01,0,.01,0h.01s.01,0,.01,0h.01s.01,0,.01,0h.03s.01,0,.01,0h.01s.01,0,.01,0h.01s.01,0,.01,0h0s.01,0,.01,0h.01s0,0,0,0h.01s.01,0,.01,0h0s.01,0,.01,0h.01s0,0,0,0h.01s0,0,0,0h0s0,0,0,0h0s0,0,0,0h0s0,0,0,0h0s0,0,0,0h0s0,0,0,0h0s0,0,0,0h.01s.01,0,.01,0h0s.01,.01,.01,.01h.01s.01,.01,.01,.01h.01s.01,.01,.01,.01h.01s.01,.02,.01,.02h.01s.01,.02,.01,.02h.01s.01,.02,.01,.02h.01s.01,.02,.01,.02h.01s0,.01,0,.01c-.16,.31-.39,.62-.47,.85-.01,.02-.03,.05-.04,.07-.09,0-.17-.02-.26-.03"/><path class="cls-1" d="M10.78,45.78s0,0,0,0c0-.02,0-.04,.01-.07h0s.01,0,.01,0h.01s.01,0,.01,0h.01s.01,0,.01,0h.01s.01,0,.01,0h.01s.01,0,.01,0h.01s.01,0,.01,0h.01s.01,0,.01,0h.01s.01,0,.01,0h.01s.01,0,.01,0h.01s.01,0,.01,0h.01s.01,0,.01,0h.01s.01,0,.01,0h.01s.01-.01,.01-.01h.01s.01,0,.01,0h.01s.01,0,.01,0h.01s.01,0,.01,0h.01s.01,0,.01,0h.01s.01,0,.01,0h.01s.01,0,.01,0h.01s.01-.01,.01-.01h.01s.01,0,.01,0h.01s.01-.01,.01-.01h.01s.01,0,.01,0h.01s.01,0,.01,0h.01s.01,0,.01,0h.01s.01,0,.01,0h.01s.01,0,.01,0h.01s.01,0,.01,0h.01s.01,0,.01,0h.01s.01,0,.01,0h.01s.01,0,.01,0h.01s.01,0,.01,0h.01s.01,0,.01,0h.01s.01,0,.01,0h.01s.01,0,.01,0h.01s.01,0,.01,0h.01s.01,0,.01,0h.01s0,0,0,0h.03s0,0,0,0h.02s.01,0,.01,0h0s0,0,0,0h0s.01,0,.01,0h0s0,.01,0,.01h0s0,.02,0,.02h0s0,.02,0,.02h0s0,.02,0,.02h0c-.04,.5-.11,1-.2,1.49-.12,.06-.24,.13-.36,.19-.07,.04-.13,.07-.2,.11-.17,.07-.35,.14-.52,.21,.12-.57,.23-1.13,.26-1.71"/><path class="cls-1" d="M30.18,60.54c.16-3.51,1.11-6.99,1.44-10.51,.66-4.82,.91-9.66,1.21-14.49,.02-.01,.04-.03,.06-.04,.07-.06,.14-.11,.22-.17,.15-.11,.31-.22,.47-.33t0,0s.05-.04,.08-.05h0c.08-.06,.17-.12,.25-.17-.33,5.33-.59,10.66-1.34,15.95-.35,2.56-.73,5.11-1.15,7.65-.07,.34-.14,.69-.18,1.04v.02s-.04,.02-.04,.02l-.02,.02-.02,.02-.02,.02-.02,.02-.02,.02-.02,.02-.02,.02-.02,.02-.02,.02-.02,.02-.02,.02-.02,.02-.02,.02-.02,.02-.02,.02-.02,.02-.02,.02-.02,.02-.02,.02-.02,.02-.02,.02-.02,.02-.02,.02-.02,.02-.02,.02-.02,.02v.02s-.03,.02-.03,.02v.02s-.03,.02-.03,.02v.02s-.02,.02-.02,.02v.02s-.02,.02-.02,.02v.02s-.02,.02-.02,.02v.02s-.02,.02-.02,.02v.02s-.02,.02-.02,.02v.02s-.02,.02-.02,.02v.02s-.02,.02-.02,.02v.02s-.02,.02-.02,.02v.02s-.02,.02-.02,.02v.02s-.02,.02-.02,.02v.03s-.03,.03-.03,.03v.03s-.03,.03-.03,.03v.03s-.03,.03-.03,.03l-.02,.03v.03s-.03,.03-.03,.03l-.02,.03-.02,.03-.02,.03-.02,.03v.02c-.03-.12-.05-.24-.07-.36"/><path class="cls-1" d="M43.11,57.06c-.26-.07-.45-.36-.36-.63,.59-1.79,1.08-3.62,1.49-5.46,.46-1.74,.56-3.58,1.02-5.3,.36-.48,1.15-.02,.89,.53-.17,1.19-.37,2.37-.59,3.54-.14,.47-.57,2.81-1.09,4.73h0s-.03,.07-.03,.07l-.03,.06-.02,.05-.02,.05-.02,.05-.02,.05-.02,.04-.02,.04v.04s-.03,.04-.03,.04v.04s-.02,.04-.02,.04v.03s-.02,.03-.02,.03v.03s-.02,.03-.02,.03v.03s-.02,.03-.02,.03v.03s-.02,.03-.02,.03v.03s-.02,.03-.02,.03v.03s-.01,.03-.01,.03v.03s-.01,.03-.01,.03v.03s-.01,.03-.01,.03v.02s-.01,.02-.01,.02v.02s0,.02,0,.02v.02s0,.02,0,.02v.02s0,.02,0,.02v.02s0,.02,0,.02h0c-.28,.8-.56,1.34-.84,1.34-.04,0-.08-.01-.13-.04"/><path class="cls-1" d="M43.75,54.7c-.09-.6,.53-.8,.85-.56v.03s-.02,.04-.02,.04v.04s-.01,.02-.01,.02h0s-.04,.08-.04,.08l-.04,.07-.03,.06-.03,.06-.03,.06-.02,.05-.02,.05-.02,.05-.02,.05-.02,.04-.02,.04v.04s-.03,.04-.03,.04v.04s-.02,.04-.02,.04v.03s-.02,.03-.02,.03v.03s-.02,.03-.02,.03v.03s-.02,.03-.02,.03v.03s-.02,.03-.02,.03v.03s-.02,.03-.02,.03v.03s-.01,.03-.01,.03v.03s-.01,.03-.01,.03v.03s-.01,.03-.01,.03v.03s-.01,.02-.01,.02v.02s0,.02,0,.02v.02s0,.02,0,.02v.02s0,.02,0,.02v.02s0,.02,0,.02v.02s0,.02,0,.02v.02s0,.02,0,.02v.02s0,.02,0,.02v.02s0,.02,0,.02v.02s0,.02,0,.02v.02s0,.02,0,.02v.02s0,.02,0,.02v.02s0,.02,0,.02h0s0,.03,0,.03h0s0,.03,0,.03h0s0,.03,0,.03h0s0,.03,0,.03h0s0,.03,0,.03h0s0,.02,0,.02c-.08-.5-.16-1.01-.23-1.51"/><path class="cls-1" d="M28.33,57.35h-.02s-.02-.02-.02-.02h-.02s-.02-.01-.02-.01h-.02s-.02-.01-.02-.01h-.02s-.02,0-.02,0h-.02s-.02,0-.02,0h-.02s-.02,0-.02,0h-.02s-.02,0-.02,0h-.02s-.02,0-.02,0h-.02s-.02,0-.02,0h-.02s-.02,0-.02,0h-.02s-.02,0-.02,0h-.02s-.02,0-.02,0h-.02s-.02,0-.02,0h-.02s-.02,0-.02,0h-.02s-.02,0-.02,0h-.02s-.02,0-.02,0h-.02s-.02,0-.02,0h-.02s-.02,0-.02,0h-.02s-.02,0-.02,0h-.02s-.02,0-.02,0h-.02s-.02,0-.02,0h-.02s-.02,0-.02,0h-.02s-.02,0-.02,0h-.02s-.02,0-.02,0h-.02s-.02,0-.02,0h-.02s-.02,0-.02,0h-.02s-.02,0-.02,0h-.02s-.02,0-.02,0h-.02s-.02,0-.02,0h-.02s-.02,0-.02,0h-.02s0,0,0,0c-2.37-5.69-4.01-11.57-4.99-17.64-.03-.69-.59-3.12-.73-4.83,.04,.04,.09,.07,.13,.11,.11,.09,.22,.17,.35,.22,.07,.03,.15,.05,.22,.06,0,0,0,0,0,0,.02,0,.04,.01,.06,.01,.05,.02,.09,.04,.14,.06,.08,.03,.16,.06,.24,.08,.72,5.83,1.95,11.63,3.86,17.19,.49,1.39,1.05,2.76,1.6,4.13,.01,.05,.03,.11,.04,.16,.04,.17,.07,.35,.12,.52,0,0,0,0,0,0,.01,.04,.02,.09,.04,.13h-.02Z"/><path class="cls-1" d="M28.33,57.35h-.02s-.02-.02-.02-.02h-.02s-.02-.01-.02-.01h-.02s-.02-.01-.02-.01h-.02s-.02,0-.02,0h-.02s-.02,0-.02,0h-.02s-.02,0-.02,0h-.02s-.02,0-.02,0h-.02s-.02,0-.02,0h-.02s-.02,0-.02,0h-.02s-.02,0-.02,0h-.02s-.02,0-.02,0h-.02s-.02,0-.02,0h-.02s-.02,0-.02,0h-.02s-.02,0-.02,0h-.01c.11-.14,.23-.21,.34-.18,.03,0,.07,0,.1,0,.01,.06,.03,.11,.04,.17,0,0,0,0,0,0,0,0,0,0,0,0h0s.02,.08,.03,.12h-.02Z"/><path class="cls-1" d="M36.74,31.53c.06-.11,.13-.22,.19-.34,.06-.11,.13-.23,.19-.35,.03-.07,.06-.13,.09-.2,.23,.06,.4,.26,.4,.5,0,.28-.24,.51-.52,.51-.13,0-.25-.05-.34-.13"/><path class="cls-1" d="M42.11,40.07c-1.59-2.98-3.25-6.05-5.29-8.69,.04-.06,.07-.13,.11-.19,.06-.12,.13-.23,.18-.35,.04-.07,.07-.15,.1-.22,.3,0,.49,.3,.7,.49,1.75,2.24,3.08,4.76,4.45,7.23,.21,.52,.74,1.03,.7,1.6-.06,.24-.29,.37-.51,.37-.17,0-.34-.08-.43-.25"/><path class="cls-1" d="M31.76,52.01c-.15-.33,.1-.64,.41-.74,.7-.35,1.37-.76,2.06-1.13,2.1-1.19,4.28-2.35,6.12-3.92-1.56-1.63-3.73-2.59-5.33-4.2-.8-.9,.01-1.5,.99-1.41,.59-.02,1.19,0,1.79,.03,1.44,.07,2.91,.13,4.23-.45,.13-.08,.24-.19,.29-.34,.19-.37,.78-.34,.93,.05,.03,1.92-3.49,1.84-5.74,1.76-.58-.02-1.07-.04-1.4-.03,1.06,.92,2.24,1.67,3.36,2.51,1.65,1.15,3,2.2,.63,3.59-1.66,1.24-3.46,2.25-5.27,3.25-.69,.37-1.36,.78-2.06,1.14-.17,.11-.38,.2-.57,.2s-.36-.08-.45-.3"/><path class="cls-1" d="M14.16,39.25c0-.13-.01-.26-.03-.39-.02-.23-.05-.48-.25-.63-.04-.03-.08-.05-.12-.07,0-.01-.02-.03-.03-.04h0c1.1-2.07,2.18-4.19,3.64-6.04,1.03-1.17,1.73-1.39,2.1-1.25,0,0,0,.02,0,.03,.05,.13,.1,.27,.15,.4-.03,.12-.03,.26,0,.38-.08,.08-.19,.14-.34,.16-1.89,1.17-3.36,4.54-4.48,6.5-.22,.41-.43,.82-.65,1.23,0-.09,0-.18,0-.27"/><path class="cls-1" d="M15.73,46.83c-.56-.66,.68-1.24,1.05-1.69,1.17-1.02,2.48-1.99,3.62-3.01-1.79-.32-3.6-.58-5.39-.89-.23-.07-.61-.12-.98-.19,.02-.09,.03-.17,.04-.26,.03-.26,.06-.51,.08-.77,.2,.05,.4,.09,.57,.13,1.62,.33,3.26,.51,4.88,.82,.62,.14,1.27,.14,1.86,.37,1.04,.79-.63,1.7-1.17,2.24-.93,.78-1.91,1.53-2.83,2.33-.42,.25-.86,1.06-1.37,1.06-.12,0-.23-.04-.36-.14"/><path class="cls-1" d="M25.58,52.65c-2.93-.98-5.59-2.56-8.04-4.41-.43-.41-2.06-1.27-1.7-1.91,.36-.6,.8-.24,1.13,.15,1.81,1.47,3.7,2.77,5.75,3.85,1.06,.52,2.16,.95,3.27,1.36,.55,.23,.3,.99-.19,.99-.07,0-.14-.01-.21-.04"/><path class="cls-1" d="M27.75,42.43c-1.29-.94-6.09-5.58-5.9-7.05,.08-.19,.24-.29,.41-.3,0,0,.02,0,.02,0,0,0,0,0,0,0,.02,0,.04,0,.06,.01,.05,.02,.09,.04,.14,.06,.08,.03,.16,.06,.23,.08,.07,.07,.12,.17,.14,.28,1.21,2.07,2.88,3.77,4.63,5.36,.3,.26,.6,.51,.91,.75,.43,.32,.09,.92-.33,.92-.1,0-.2-.03-.3-.11"/><path class="cls-1" d="M27.68,42.48c-.28-.33,.03-.72,.31-.9,.54-.47,1.05-.98,1.51-1.49,1.3-1.39,2.34-3,3.38-4.58,0,0,.02-.01,.02-.02,.07-.06,.14-.11,.22-.17,.02-.01,.03-.02,.05-.04,.31-.06,.65,.16,.64,.5-.45,1.05-1.24,2.01-1.89,2.97-.74,.97-1.53,1.91-2.39,2.78-.39,.28-.93,1.12-1.46,1.12-.13,0-.27-.05-.4-.19"/><path class="cls-1" d="M49.11,35.52c-.92-.02-1.81-.21-2.69-.46-.27-.02-.48-.24-.48-.51s.24-.51,.52-.51c.78,.14,1.54,.41,2.35,.44,1.14,.03,2.38,.15,3.45-.33,.57-.16,1.18-1.19,1.75-.68,.55,.68-.58,1.15-1.04,1.47-.88,.52-1.89,.6-2.9,.6-.32,0-.63,0-.94-.01"/><path class="cls-1" d="M48.63,49.1c-.81-2.68-1.53-5.38-1.69-8.16-.46-1.9-.79-3.78-1.09-5.71-.03-.27-.12-.56,.02-.82,.27-.46,1.02-.23,.96,.3,.02,.28,.07,.55,.12,.82,.28,1.87,.68,3.72,1.07,5.57,.07,.94,.1,1.88,.33,2.8,.35,1.66,.79,3.29,1.28,4.91,.1,.39-.21,.64-.52,.64-.2,0-.4-.11-.48-.37"/><path class="cls-1" d="M56.84,45.81c-.11-1.27-.33-2.48-.69-3.69-.39-1.08-.6-2.21-.72-3.35-.28-1.62-.61-3.36-1.61-4.71-.37-.36-1.52,.04-2,.11-.28,0-.52-.23-.52-.51,.06-.66,.95-.6,1.44-.72,1.28-.25,1.94,.27,2.45,1.37,.87,1.76,1.2,3.73,1.43,5.66,.44,1.89,1.14,3.74,1.23,5.7,.01,.14-.02,.27-.1,.38-.1,.13-.25,.19-.4,.19-.25,0-.5-.16-.52-.44"/><path class="cls-1" d="M51.78,52.4c-1.62-.3-3.2-.78-4.73-1.4-.76-.28-1.53-.56-2.23-.98-.34-.24-.25-.81,.16-.92,.3-.09,.5,.15,.74,.25,1.43,.65,2.93,1.21,4.42,1.64,.77,.14,1.55,.48,2.32,.42,1.74-.46,2.97-1.68,3.72-3.28,.31-.63,.57-1.27,.71-1.91,.06-.4,.1-.96,.66-.9,1.03,.19-.05,2.31-.27,2.9-.78,1.76-2.04,3.3-3.91,3.96-.37,.16-.76,.27-1.16,.27-.15,0-.29-.01-.44-.05"/><path class="cls-1" d="M7.07,48.32c-.8-.25-2.84-.39-3.01-1.34,0-.28,.24-.51,.52-.51,.24,0,.37,.18,.57,.27,.39,.19,.83,.28,1.25,.38,1.61,.54,2.8,.25,3.65-.05,.84-.29,1.35-.58,1.6-.07,.11,.25-.02,.57-.28,.67-.64,.26-1.29,.5-1.97,.64-.4,.08-.8,.13-1.2,.13-.38,0-.76-.04-1.13-.13"/><path class="cls-1" d="M10.13,52.55c-.3-.12-.38-.47-.25-.75,.23-.69,.4-1.4,.56-2.12,.19-.86,.23-1.73,.35-2.6,.12-.59,1.04-.51,1.03,.1-.15,1.47-.34,2.95-.78,4.38-.11,.39-.24,1.04-.69,1.04-.07,0-.14-.01-.22-.04"/><path class="cls-1" d="M2.21,51.93c-.04-1.49,.56-2.99,1.24-4.26,.28-.4,.39-1.16,.97-1.21,.52,0,.65,.61,.34,.95-.29,.52-.56,1.05-.81,1.6-.45,.91-.72,1.91-.71,2.92,0,.33-.26,.5-.52,.5s-.51-.17-.52-.5m2.39-4.48c.08-.03,.15-.08,.2-.14-.05,.06-.12,.11-.2,.14"/><path class="cls-1" d="M3.93,63.02c-1.56-.73-2.95-3.33-3.2-4.98-.14-1.68,.52-3.32,.93-4.93,.27-.59,.42-2.35,1.39-1.69,.35,.35-.04,.76-.12,1.13-.28,.79-.5,1.6-.71,2.41-.24,1.05-.64,2.12-.43,3.21,.37,1.39,1.15,2.81,2.25,3.75,1.66,.86,3.58-.92,4.8-1.89,1.52-1.32,2.67-2.97,3.7-4.67v.02s0,.04,0,.04v.04s-.01,.04-.01,.04v.04s-.01,.04-.01,.04v.04s-.01,.04-.01,.04v.04s-.01,.04-.01,.04v.05s-.01,.04-.01,.04v.05s-.01,.05-.01,.05v.05s-.02,.05-.02,.05v.05s-.02,.05-.02,.05v.05s-.02,.05-.02,.05v.05s-.02,.05-.02,.05v.05s-.02,.05-.02,.05v.05s-.02,.05-.02,.05v.05s-.02,.05-.02,.05v.05s-.02,.05-.02,.05v.05s-.02,.05-.02,.05v.05s-.02,.05-.02,.05v.05s-.02,.05-.02,.05v.05s-.02,.05-.02,.05v.05s-.02,.05-.02,.05v.04s-.02,.04-.02,.04v.04s-.02,.04-.02,.04v.04s-.02,.04-.02,.04v.03s-.02,.03-.02,.03v.03s-.02,.03-.02,.03v.03s-.02,.02-.02,.02v.02s-.01,.02-.01,.02v.02s-.01,.02-.01,.02v.02s-.01,.02-.01,.02v.02s-.01,.02-.01,.02v.02s-.01,.02-.01,.02v.02s-.01,.02-.01,.02v.02s-.01,.02-.01,.02v.02s-.01,.02-.01,.02v.02s-.01,.02-.01,.02v.02s-.01,.01-.01,.01c-1.54,2.09-4.45,5.13-7.13,5.13-.32,0-.64-.04-.96-.14"/><path class="cls-1" d="M9.51,57.71c-.27-.04-.49-.3-.44-.58,.13-.8,.23-1.6,.33-2.41,.08-.65,.16-1.3,.2-1.95,.02-.41,.07-1.02,.6-1.02,.36,0,.63,.4,.47,.72-.09,.82-.14,1.65-.26,2.46-.1,.78-.2,1.55-.32,2.32-.04,.25-.26,.44-.51,.44-.02,0-.05,0-.07,0"/><path class="cls-1" d="M38.74,33.76c0-.28,.24-.51,.52-.51s.52,.23,.52,.51-.24,.51-.52,.51-.52-.23-.52-.51"/><path class="cls-1" d="M46.17,38.1c-.61-.83-1.16-1.7-1.75-2.54-.89-1.34-1.17-1.6-2.82-1.46-.86,.03-1.72,.08-2.57,.14-.59,0-.7-.87-.13-1.01,1.24-.03,4.14-.52,5.05,.21,1.07,.87,1.69,2.17,2.49,3.25,.18,.26,.36,.52,.54,.77,.3,.38-.06,.82-.43,.82-.14,0-.27-.06-.38-.2"/><path class="cls-1" d="M10.68,38.11c-.25-.81,1.02-.89,1.52-1.19,1.15-.49,2.32-1.01,3.35-1.72,.31-.2,.71,.04,.77,.36,0,0,0,0,0,0,0-.04-.02-.07-.03-.11,.01,.04,.02,.07,.03,.11-.03,.05-.06,.1-.09,.14-.06,.1-.12,.2-.17,.3-.03,.05-.06,.1-.09,.16-.42,.32-1.07,.55-1.46,.8-.4,.21-.8,.4-1.2,.58-.04-.04-.07-.08-.12-.11-.14-.11-.31-.18-.49-.21-.28-.05-.57,.09-.78,.27-.16,.12-.29,.26-.43,.4,0,0,0,0,0,0,0,0,0,0,0,0h0s0,0-.01,.02h0s0,0,0,0c0,0-.02,.02-.02,.03,0,0,.02-.02,.02-.03-.13,.14-.25,.28-.38,.42-.01,.01-.03,.03-.04,.04-.15-.02-.28-.1-.38-.3"/><path class="cls-1" d="M4.7,53.9c-.59-.3-3.35-2.08-1.68-2.49,.36-.01,.55,.46,.8,.61,.65,.58,1.38,1.17,2.3,1.18,.98,.1,1.8-.19,2.45-.48,.85-.37,1.41-.75,1.68-.27,.49,.88-1.88,1.45-2.48,1.63-.44,.1-.91,.16-1.38,.16-.58,0-1.15-.09-1.68-.34"/><path class="cls-1" d="M49.63,42.63c-3.65-.51-2.44-2.58-1.43-1.54,1.45,.84,3.34,.71,4.9,.22,.76-.26,1.5-.6,2.17-1.04,.13-.1,.29-.18,.46-.15,1.73,.79-1.96,2.05-2.59,2.26-.75,.23-1.53,.34-2.32,.34-.39,0-.79-.03-1.18-.08"/><path class="cls-1" d="M22.48,51.8h0s0-.01,0-.01h0s0-.01,0-.01h0s0-.01,0-.01h-.01s0-.01,0-.01h0s-.01-.01-.01-.01h0s0-.02,0-.02h0s-.01-.02-.01-.02h0s0-.02,0-.02h0s0-.02,0-.02h0s-.01-.02-.01-.02h0s-.01-.02-.01-.02h-.01s0-.02,0-.02h-.01s-.01-.02-.01-.02h-.01s-.01-.02-.01-.02h-.01s-.01-.02-.01-.02h-.01s-.01-.02-.01-.02h-.01s0-.02,0-.02h-.01s0-.02,0-.02h0s0-.02,0-.02h0s0-.02,0-.02h0s0-.02,0-.02h0s0-.02,0-.02h0s0-.02,0-.02h0s0-.02,0-.02h0s0-.02,0-.02h0s0-.02,0-.02h0s0-.02,0-.02h0s0-.02,0-.02h0s0-.02,0-.02h0s0-.02,0-.02h0s0-.02,0-.02h0s0-.02,0-.02h0s0-.02,0-.02h0s0-.02,0-.02h0s0-.01,0-.01h0s0-.01,0-.01h0s0-.01,0-.01h0s0,0,0,0c.02-.15,.04-.3,.06-.44,.12-.57,1-.3,.73,.24-.05,.3-.09,.61-.14,.91h0Z"/><path class="cls-1" d="M34.84,50.45c.29-.27,.7,0,.66,.35h-.01s-.02,.01-.02,.01h-.02s-.02,.02-.02,.02h-.02s-.01,.01-.01,.01h0s-.02,.01-.02,.01h-.02s-.02,.02-.02,.02h-.02s-.02,.02-.02,.02h-.02s-.02,.02-.02,.02h-.02s-.02,.02-.02,.02h-.02s-.02,.02-.02,.02h-.02s-.02,.02-.02,.02h-.02s-.02,.02-.02,.02h-.02s-.02,.02-.02,.02h-.02s-.02,.02-.02,.02h-.02s-.02,.02-.02,.02h-.02s-.02,.02-.02,.02h-.02s-.02,.02-.02,.02h-.02s-.02,.02-.02,.02h-.02s-.02,.02-.02,.02h-.02s-.02,.02-.02,.02h-.01s0,.01,0,.01h-.01s0,0,0,0c-.04-.25-.08-.52,.1-.72"/><path class="cls-1" d="M53.21,38.99c-1.32-.6-.31-2.61,.97-2.04,.62,.35,.88,1.3,.38,1.85-.12,.16-.34,.28-.53,.2-.12,.05-.25,.07-.38,.07-.15,0-.3-.03-.44-.08m.15-1.03c-.04,.18,.04,.37,.3,.36,.1-.02,.21-.05,.32,0,.18-.21,.03-.61-.2-.71h-.01c-.21,0-.36,.18-.4,.36"/><path class="cls-1" d="M36.48,47.2c-.8-.62-.09-1.99,.84-1.98,.78,.01,1.35,1,.85,1.64-.21,.26-.62,.59-.96,.43-.08,.05-.16,.08-.25,.08-.17,0-.34-.08-.47-.17m.78-1.22c-.2,.09-.49,.41-.31,.62,.07,.02,.16,.01,.22,.06,.15-.1,.35-.12,.42-.31,.04-.17-.12-.38-.3-.38,0,0-.02,0-.03,0"/><path class="cls-1" d="M39.55,39.84c-.08,0-.16-.02-.23-.07,.02,.01,.04,.02,.06,.04-1.36-.55-.45-2.57,.87-1.9,1.1,.56,.77,1.98-.45,2.04-.1,0-.19-.04-.26-.1m.1-1.29c-.22,.09-.24,.45-.01,.54,.09,.04,.1,.04,.16,.09h.01c.16,0,.36-.13,.37-.3-.07-.17-.24-.35-.44-.35-.03,0-.07,0-.1,.02"/><path class="cls-1" d="M16.53,39.98c-.62,.23-1.22-.49-1.12-1.08,.08-.52,.61-.91,1.13-.89,.59,.01,1.16,.54,1.05,1.14-.06,.36-.43,.89-.83,.89-.08,0-.16-.02-.24-.06m-.13-1.19c-.25,.05-.33,.44-.05,.48,.08,0,.16,.03,.22,.07,.39-.16,.29-.57-.06-.57-.04,0-.08,0-.12,.01"/><path class="cls-1" d="M19.42,47.54c-1.26,.22-1.41-1.68-.14-1.83,.92-.15,1.53,.96,.9,1.63-.13,.13-.34,.27-.53,.27-.08,0-.16-.02-.23-.08m-.08-1.08c-.14,.01-.26,.2-.16,.32,.09,.07,.21,.05,.3,.12,.01,0,.03-.01,.03-.01,.28-.09,.16-.44-.08-.44-.03,0-.06,0-.09,.01"/><path class="cls-1" d="M8.11,51.51c-.34,.11-.72-.11-.92-.37-.63-.82,.4-1.95,1.31-1.58,.58,.24,.85,1.05,.52,1.58-.14,.2-.41,.44-.68,.44-.08,0-.16-.02-.23-.07m-.23-.75c.1,.05,.23,.02,.31,.1,.31-.06,.25-.53-.01-.61-.02,0-.03,0-.05,0-.26,0-.53,.34-.25,.51"/><path class="cls-1" d="M20.22,35.84c-1.92-3.95-2.57-8.71-1.61-13,.65-2.63,1.68-5.3,3.73-7.17,2.12-2.04,4.95-3.86,8.02-3.54-.01,0-.03,0-.04-.01,.62,.2,.35,1.14-.28,.98-.57,.01-1.13,.06-1.69,.17-1.09,.22-2.11,.7-3.03,1.32-1.76,1.2-3.38,2.66-4.32,4.59-1.82,3.64-2.22,7.81-1.35,11.75,.32,1.43,.7,2.87,1.35,4.19,.53,.64-.25,1.4-.78,.73"/><path class="cls-1" d="M20.17,35.91c-2.59-2.88-3.68-6.76-4.13-10.51,0-.56-.34-2.02,.27-2.27,.4-.18,.84,.23,.7,.64,.01,3,.76,6.02,2.08,8.72,.51,.97,1.05,1.92,1.81,2.7,.47,.47-.24,1.19-.73,.72"/><path class="cls-1" d="M17.11,30.72c-2.31-.96-3.21-3.93-2.24-6.13,.28-.63,.77-1.35,1.51-1.45,.28,0,.52,.23,.52,.51,0,.24-.18,.45-.41,.5-.86,.57-.99,1.76-.96,2.7,.1,1.16,.75,2.32,1.82,2.86,.77,.18,.52,1.26-.24,1.01"/><path class="cls-1" d="M38.03,24.24c-.29-3.26-1.2-7.17-3.75-9.43-.86-.7-1.82-1.46-2.96-1.56-.21-.02-.43,.01-.64,0-.65-.09-.54-1.08,.11-1.02,2.61-.16,5.25,2.44,6.33,4.6,1.02,2.05,1.64,4.3,1.88,6.57,.02,.45,.25,1.17-.38,1.28-.27,.04-.56-.16-.58-.44m-7-11.93c-.07-.05-.15-.08-.24-.09,.09,0,.17,.04,.24,.09"/><path class="cls-1" d="M37.06,31.11c-.05-.54,.46-.59,.87-.64,1.07-.22,1.98-1.06,2.36-2.07,.24-.77,.15-1.61,.02-2.4-.12-.63-.45-1.21-.92-1.64-.36-.43-1.2-.04-1.32-.71-.06-.74,.87-.62,1.34-.45,1.41,.61,1.98,2.24,2.04,3.66,.17,1.45-.43,2.92-1.61,3.81-.47,.43-2.59,1.47-2.79,.44"/><path class="cls-1" d="M28.25,37.28c-.06-.82,1.2-.57,1.73-.77,2.1-.45,4.1-1.52,5.57-3.08,1.32-1.62,1.75-3.69,2.17-5.68,.11-.61,.19-1.23,.27-1.84,.19-.63,1.14-.38,1.02,.26-.52,3.42-1.19,7.39-4.37,9.4-1.24,.86-2.63,1.51-4.1,1.86-.56,.13-1.13,.22-1.71,.28-.28,.03-.54-.15-.58-.44"/><path class="cls-1" d="M28.34,37.77c-2.31-.25-4.78-.57-6.71-1.96-.93-.64-2.58-2.52-2.72-3.62,.03-.25,.25-.46,.51-.46,.31,0,.48,.25,.54,.51,.18,.35,.4,.68,.6,.97,1.55,2.47,4.33,3.13,7.05,3.46,.33,.04,.65,.08,.98,.1,.31-.05,.65,.1,.7,.44,.06,.54-.54,.66-.95,.57"/><path class="cls-1" d="M41.06,25.85c-.27-.04-.49-.3-.44-.58,.17-.97,.33-1.93,.4-2.91,.12-2.16-.22-4.44-.88-6.46-.88-2.61-3.07-4.6-5.43-5.89-.97-.49-2.07-.52-3.14-.46-.31,.09-.72,.02-.8-.33-.19-1.05,1.77-.64,2.39-.68,2.54,.25,5.08,2.48,6.58,4.43,1.73,2.37,2.19,5.4,2.32,8.26,.02,1.07-.09,2.14-.26,3.19-.14,.5,0,1.49-.75,1.44"/><path class="cls-1" d="M31.9,9.15c0-.28-.24-.51-.52-.51-.46,.01-1.24-.16-1.27,.5,0,.28,.24,.51,.52,.51,.46,0,1.24,.16,1.27-.5"/><path class="cls-1" d="M15.03,25.41c.84-.2,.23-1.51,.31-2.12-.13-1.74,.05-3.44,.39-5.14,.72-5.18,5.92-9,11.09-8.65,.43,.05,.89,.05,1.27,.26,1,.18,1.03-1.1-.36-1.18-5.91-.93-12.16,3.43-13,9.35-.46,2.16-.58,4.39-.32,6.59,0,.4,.1,.96,.63,.89"/><path class="cls-1" d="M23.3,9.11c0-.28,.24-.51,.52-.51s.52,.23,.52,.51-.24,.51-.52,.51-.52-.23-.52-.51"/><path class="cls-1" d="M23.48,9.55c-1.25-.99-.72-2.92-.03-4.09,1.93-3.53,7.61-4.5,9.91-.84,.43,.64,.72,1.36,.82,2.12,.03,.63,.27,2.55-.74,2.39-.63-.2-.25-.9-.25-1.36,.17-1.84-1.07-3.68-2.83-4.26-2.89-1-6.58,1.41-6.58,4.49-.07,.55,.7,.83,.41,1.36-.14,.24-.46,.32-.71,.18"/><path class="cls-1" d="M27.71,33.18c-.24-.01-.48-.08-.72-.05-.49,0-.5-.71-.02-.77,.67,.02,1.36,.16,2.01-.11,.4-.13,.77-.32,1.13-.54,.28-.17,.69-.54,.95-.13,.26,.55-.62,.75-.95,1.01-.73,.38-1.55,.65-2.38,.59"/><path class="cls-1" d="M28.21,30.4c-.7-.16-.96-.95-.77-1.58,.09-.36,.29-.68,.42-1.03,.09-.21,.06-.45,.18-.64,.26-.34,.74-.04,.68,.3,.03,.62-1.01,1.85-.34,2.21,.12,.04,.25,.04,.37,.03,.33-.02,.51,.43,.27,.64-.1,.09-.23,.12-.37,.12-.14,0-.29-.03-.42-.06"/><path class="cls-1" d="M26.42,17.34c1.67-.11,3.35-.1,5.02-.13,.25,0,.37,.19,.37,.38s-.12,.38-.37,.38c-2.17,.04-4.42-.02-6.53,.31-.93-.8,1.01-.94,1.51-.94"/><path class="cls-1" d="M24.9,20.04c-.47-.68,.56-.69,.99-.73,1.77-.21,3.55-.21,5.32-.3,.21-.01,.38,.18,.38,.38,0,.21-.18,.38-.38,.38-.67,.03-1.35,.06-2.03,.08-1.02,.03-2.04,.08-3.05,.2-.14,0-.29,.02-.45,.05-.14,.03-.28,.05-.41,.05s-.26-.03-.38-.11"/><path class="cls-1" d="M23.48,32.99c-.17-.1-.25-.34-.14-.52,.4-.59,.9-1.11,1.4-1.62,.37-.35,2.07-2.08,2.12-.78-.06,.25-.34,.26-.51,.4-.68,.47-1.2,1.02-1.74,1.62-.31,.23-.55,.94-.95,.94-.06,0-.12-.01-.18-.05"/><path class="cls-1" d="M33.23,32.38c-.68-.54-1.45-1.04-2.15-1.53-.26-.18-.54-.34-.82-.5-.29-.2-.12-.69,.23-.68,.65,.21,1.18,.7,1.75,1.06,.51,.37,1.05,.7,1.52,1.12,.27,.26,0,.65-.28,.65-.09,0-.18-.03-.25-.11"/><path class="cls-1" d="M39.12,31.57c-1.29-.6-.57-2.89,.85-2.49,1.38,.32,1.47,2.7-.13,2.6-.07,.03-.15,.04-.22,.04-.18,0-.35-.07-.5-.15m.61-1.16s.04-.01,.06-.02c0,0,0-.01,.01-.02,.03-.05,.07-.09,.12-.12-.09,0-.17,.07-.19,.15"/><path class="cls-1" d="M16.29,31.58s0,0,0,0c-1.85-.08-1.35-2.7,.36-2.49,.59,.08,.82,.63,.94,1.13,.19,.64-.33,1.42-.99,1.42-.1,0-.2-.02-.3-.05"/><path class="cls-1" d="M32.54,29.41c-1.02-.03-1.96-.68-2.61-1.42-.95-.91-1.14-2.2-.19-3.18,.58-.63,1.45-.78,2.22-1.04,.68-.22,1.4-.34,2.11-.4,.81-.09,1.67-.26,2.45,.06,.45,.2,.77,.63,.94,1.08,.07,.19,.1,.38,.09,.55-.04,0-.09,0-.14,0-.07,0-.14,0-.21,0-.01,0-.02,0-.03,0-.03,0-.06-.01-.09-.02-.05-.01-.1-.03-.15-.05-.05-.02-.1-.05-.14-.07,0-.04-.01-.08-.02-.11-.12-.3-.3-.61-.63-.71-.6-.18-1.23-.05-1.84,.02-1.04,.07-2.05,.34-3.02,.68-1.39,.38-1.9,1.68-.78,2.71,.62,.72,1.49,1.29,2.47,1.16,.05,0,.11-.01,.16-.02,.06,0,.12-.02,.17-.02,0,.02,.02,.05,.03,.07,.01,.03,.02,.06,.03,.1,0,.04,.02,.08,.03,.12,0,.16,.01,.33,.04,.49,0,0,0,.01,0,.02-.05,0-.1,0-.15-.03-.23,.03-.46,.04-.69,.04h-.05"/><path class="cls-1" d="M30.5,27.49s0,0,0,0c0,0,0,0,0,0,0,0,0,0,0,0h0"/><path class="cls-1" d="M31.28,24.78s0,0,0,0c-.01,0-.02,0-.03,0,0,0,.02,0,.03,0"/><path class="cls-1" d="M32.82,29.11c-.06-.45,.53-.44,.79-.56,.3-.1,.59-.24,.85-.41,.63-.48,1.19-1.06,1.69-1.66,.41-.46,.8-1.07,.6-1.72-.24-.39,.31-.77,.6-.46,.06,.06,.1,.14,.12,.2,.45,1.33-.67,2.45-1.53,3.33-.51,.51-1.01,.99-1.68,1.27-.4,.12-1.29,.67-1.44,0"/><path class="cls-1" d="M24.27,29.36c1.02-.03,1.96-.68,2.61-1.42,.95-.91,1.14-2.2,.19-3.18-.58-.63-1.45-.78-2.22-1.04-.68-.22-1.4-.34-2.11-.4-.81-.09-1.67-.26-2.45,.06-.45,.2-.77,.63-.94,1.08-.07,.19-.1,.37-.09,.55,.04,0,.09,0,.14,0,.07,0,.14,0,.21,0,.01,0,.02,0,.03,0,.03,0,.06-.01,.09-.02,.05-.01,.1-.03,.15-.05,.05-.02,.1-.05,.14-.07,0-.04,.01-.08,.02-.11,.12-.3,.3-.61,.63-.71,.6-.18,1.23-.05,1.84,.02,1.04,.07,2.05,.34,3.02,.68,1.39,.38,1.9,1.68,.78,2.71-.62,.72-1.49,1.29-2.47,1.16-.05,0-.11-.01-.16-.02-.06,0-.12-.02-.17-.02,0,.02-.02,.05-.03,.07-.01,.03-.02,.06-.03,.1,0,.04-.02,.08-.03,.12,0,.16-.01,.33-.04,.49,0,0,0,.01,0,.02,.05,0,.1,0,.15-.03,.23,.03,.46,.04,.69,.04h.05"/><path class="cls-1" d="M26.31,27.44s0,0,0,0c0,0,0,0,0,0,0,0,0,0,0,0,0,0,0,0,0,0"/><path class="cls-1" d="M25.53,24.73s0,0,0,0c.01,0,.02,0,.03,0,0,0-.02,0-.03,0"/><path class="cls-1" d="M23.99,29.07c.06-.45-.53-.44-.79-.56-.3-.1-.59-.24-.85-.41-.63-.48-1.19-1.06-1.69-1.66-.41-.46-.8-1.07-.6-1.72,.24-.39-.31-.77-.6-.46-.06,.06-.1,.14-.12,.2-.45,1.33,.67,2.45,1.53,3.33,.51,.51,1.01,.99,1.68,1.27,.4,.12,1.29,.67,1.44,0"/><path class="cls-1" d="M27.81,26.33c-.18,.02-.3,.04-.43,.05-.49,0-.5-.74,0-.75,.64-.1,1.29-.1,1.93-.11,.19,0,.36,.14,.38,.33,.05,.49-.52,.44-.86,.48-.33,0-.71,.17-1.02,.01"/><path class="cls-1" d="M36.82,24.89s-.02-.02-.02-.03c0,0,0,0,0,0l.02,.03c-.26-.38,.22-.66,.5-.83,.28-.15,.54-.4,.85-.48,.41-.05,.58,.45,.29,.7-.29,.23-.72,.8-1.12,.71-.06,.04-.14,.07-.21,.07-.12,0-.24-.06-.31-.15h0Z"/><path class="cls-3" d="M29.82,21.98c-.11,.47,.76,.79,1.95,.72s2.25-.52,2.36-1c.11-.47-.76-.79-1.95-.72-1.19,.08-2.25,.52-2.36,1"/><path class="cls-6" d="M33.84,22.28c1.29-.81,.56-1.65-.59-1.62-1.1-.02-2.41,.22-3.37,.97-.45,.34-.53,.83-.24,1.11,.33,.35,1,.3,1.57,.25,.29,.03,.63-.09,.94-.13,.57-.11,1.16-.28,1.69-.59m-.7-.3c-.56,.23-1.14,.3-1.7,.4-.32-.03-.69,.06-.99-.01-.8-.32,.96-.93,1.38-.98,.64-.2,3-.15,1.31,.59"/><path class="cls-7" d="M33.84,22.28c1.29-.81,.56-1.65-.59-1.62-1.1-.02-2.41,.22-3.37,.97-.45,.34-.53,.83-.24,1.11,.33,.35,1,.3,1.57,.25,.29,.03,.63-.09,.94-.13,.57-.11,1.16-.28,1.69-.59Zm-.7-.3c-.56,.23-1.14,.3-1.7,.4-.32-.03-.69,.06-.99-.01-.8-.32,.96-.93,1.38-.98,.64-.2,3-.15,1.31,.59Z"/><path class="cls-3" d="M22.45,21.49c-.26,.4,.47,1.01,1.62,1.37,1.15,.36,2.29,.32,2.55-.08,.26-.4-.47-1.01-1.62-1.37-1.15-.36-2.29-.32-2.55,.08"/><path class="cls-6" d="M26.16,23.22c1.48-.29,1.06-1.34-.04-1.73-1.03-.41-2.35-.66-3.51-.31-.53,.15-.76,.59-.58,.95,.2,.45,.85,.64,1.41,.8,.26,.13,.63,.14,.93,.22,.58,.11,1.19,.16,1.79,.06m-.57-.53c-.6,.01-1.17-.13-1.74-.24-.29-.14-.67-.19-.93-.37-.66-.59,1.21-.52,1.62-.42,.67,.04,2.89,.94,1.05,1.03"/><path class="cls-7" d="M26.16,23.22c1.48-.29,1.06-1.34-.04-1.73-1.03-.41-2.35-.66-3.51-.31-.53,.15-.76,.59-.58,.95,.2,.45,.85,.64,1.41,.8,.26,.13,.63,.14,.93,.22,.58,.11,1.19,.16,1.79,.06Zm-.57-.53c-.6,.01-1.17-.13-1.74-.24-.29-.14-.67-.19-.93-.37-.66-.59,1.21-.52,1.62-.42,.67,.04,2.89,.94,1.05,1.03Z"/></svg>