<?xml version="1.0" encoding="UTF-8"?><svg id="_レイヤー_4" xmlns="http://www.w3.org/2000/svg" viewBox="0 0 64.47 130.84"><defs><style>.cls-1{fill:#040000;}.cls-2{fill:#e9da21;}.cls-3{fill:#fff;}.cls-4{fill:#c68f00;}.cls-5{fill:#070002;}.cls-6{fill:#1961ad;}.cls-7{stroke-width:.16px;}.cls-7,.cls-8{fill:none;stroke:#070002;stroke-miterlimit:10;}.cls-8{stroke-width:.19px;}</style></defs><path class="cls-4" d="M51.89,124.98c-.59-1.04-2.25-1.91-4.29-2.45-.82-.25-3.47-.99-3.42-1.41-.19-.76-1.14-1.23-2.3-1.46-2.14-.74-5.27-.8-7.54-.04-.05,.06-.09,.12-.13,.18-.13,.2-.24,.41-.34,.61-.12,.25-.24,.49-.47,.72-.17,.17-.4,.33-.6,.49-.12,.09-.25,.18-.39,.26-.37,.2-.82,.31-1.32,.34-.1,0-.19,0-.29,0-.12,0-.25,0-.37,0-.1,0-.21,0-.31-.01-.04,0-.08,0-.12,0-.04,0-.08,0-.12,0,0,0-.01,0-.01,0-.04,0-.07,0-.11-.01-.04,0-.07,0-.11-.01-.05,0-.09-.01-.14-.02-.02,0-.04,0-.06-.01-.01,0-.03,0-.04,0-.07-.01-.13-.03-.2-.05,0,0,0,0,0,0,0,0-.01,0-.01,0-.05-.02-.11-.03-.16-.05-.02,0-.03-.01-.05-.02-.05-.02-.09-.04-.13-.05-.01,0-.03-.01-.04-.02-.05-.02-.11-.05-.16-.08-.01,0-.02-.01-.03-.02-.04-.02-.08-.04-.11-.07-.1-.06-.19-.13-.26-.2-.01-.01-.03-.03-.04-.04-.13-.14-.22-.29-.32-.44,0-.01-.02-.03-.03-.04-.03-.03-.05-.06-.08-.1h0s-.05-.05-.07-.07h0c-.15-.14-.31-.28-.48-.41-.04-.03-.09-.06-.14-.09-.1-.02-.19-.04-.29-.06t0,0c-.05-.01-.11-.02-.16-.03-.04,0-.08-.01-.12-.02,0,0-.01,0-.02,0-.15-.03-.3-.05-.45-.08h0s-.02,0-.03,0c0,0,0,0-.01,0-.06,0-.12-.01-.18-.02-.04,0-.07,0-.11-.01-.03,0-.05,0-.08,0,0,0,0,0,0,0-.02,0-.04,0-.05,0-.06,0-.12,0-.18,0-.13,0-.25,0-.38-.01-.01,0-.02,0-.03,0h-.02c-.2,0-.4,0-.6,0h-.04c-.16,0-.32,.01-.48,.02,0,0,0,0-.01,0-.02,0-.04,0-.06,0,0,0,0,0,0,0-.07,0-.14,.02-.21,.02,0,0,0,0,0,0-.12,.02-.24,.05-.36,.08-.09,.02-.17,.05-.26,.07-.21,.06-.41,.12-.61,.18-.13,.05-.26,.1-.39,.15-.03,.01-.07,.02-.1,.04-.06,.02-.11,.04-.16,.06,0,0-.01,0-.02,0-.01,0-.02,0-.03,.01h0c-.17,.06-.33,.12-.49,.19-.01,0-.03,.01-.04,.02-.03,0-.05,.02-.08,.03-.01,0-.03,.01-.04,.02-.02,.01-.05,.02-.07,.04h0s-.1,.05-.15,.08c-.02,.01-.04,.02-.06,.03-.06,.03-.12,.07-.19,.1-.28,.14-.55,.25-.88,.35-.28,.08-.56,.14-.86,.19-.1,.02-.2,.03-.3,.05-.56,.08-1.14,.14-1.71,.15-.17,0-.34,0-.51,0-.07,0-.15,0-.22,0h-.02s-.08,0-.12,0c-.08,0-.15,0-.23-.01-.05,0-.1,0-.15,0-.1,0-.2-.02-.31-.02-.46-.04-.91-.13-1.36-.22-.5-.1-.94-.27-1.28-.5-.35,.02-.69,.05-1.01,.1-7.18,.58-11.01,3.15-3.31,4.8,.65,.49,1.76,.85,3.07,1.13,.65,.35,1.22,.73,2.12,.97,.28,.07,.56,.14,.84,.2,.24,.16,.5,.31,.77,.45,2.26,1.14,5.56,1.81,8.9,1.9,.4,.01,.8,.02,1.19,.02,2.96,0,5.89-.35,8.37-1.07,1.4-.37,2.62-.89,4.18-1.11,1.61-.19,3.26-.14,4.91-.1,.87,.02,1.74,.05,2.6,.03,.66-.01,1.35-.08,2.01-.2,.72-.05,1.4-.19,1.95-.42,2.21-.63,3.54-1.81,2.71-3"/><path class="cls-2" d="M17.27,86.84l32.46-4.57s.4,5.47,.65,6.99c.25,1.52-3.03,13.18-3.03,13.18l-3.15,1.86-4.85,.11-4.49-2.36,.35-5.08-.97-4.36-1.12-.34-2.03,4.7-1.52,5.7-3.15-1.51-4.3-1.37-2.34,.3v2.31l-3.38-1.95v-4.07l.87-9.54Z"/><path class="cls-8" d="M17.27,86.84l32.46-4.57s.4,5.47,.65,6.99c.25,1.52-3.03,13.18-3.03,13.18l-3.15,1.86-4.85,.11-4.49-2.36,.35-5.08-.97-4.36-1.12-.34-2.03,4.7-1.52,5.7-3.15-1.51-4.3-1.37-2.34,.3v2.31l-3.38-1.95v-4.07l.87-9.54Z"/><path class="cls-6" d="M47.91,29.61l.12-9.05-1.4-9.77-4-6.05-3.31-2.87-4.52-.77h-3.98l-3.5,.52-2.81,1.26-2.31,1.58-2.68,3.21-1.69,4.94-1.37,9.02v5.65l1.25,6.93-3.5,1.11-5.05,2.81-3.19,10.86-1.47,.3-1.3,4.15-.97,1.05S-.03,58.46,.42,59.39c.45,.93,2.29,4.88,2.29,4.88l1.79,1.53,1.17,.84,2.41-.27,5.68-5.19-1.14,13.63,1.91,8.24,3.12,3.93s3.3,2.84,8.53,3.49c5.24,.65,9.92-.83,9.92-.83,0,0,7.96-3.19,9.89-4.21,1.92-1.03,3.51-3.6,3.51-3.6l1.3-3.53,1.41-10.16-1.04-8.93-1.13-6.32,3.03,1.13,4.58,.39,3.2-2.28,2.9-4.98-.52-5.15-2.52-3.51-2.02-3.42-4.35-3.59-6.44-1.85Z"/><polygon class="cls-3" points="23.1 14.16 20.38 22.22 20.01 25.9 22.78 27.45 24.51 30.55 26.93 32.73 23.77 33.84 26.93 35.76 32.37 37.87 37.06 35.94 41.37 32.89 41.72 32.09 39.15 31.63 40.96 29.5 42 27.02 44.44 25.63 43.71 20.93 41.72 14.16 34.81 10.79 28.64 11.04 23.1 14.16"/><polygon class="cls-8" points="23.1 14.16 20.38 22.22 20.01 25.9 22.78 27.45 24.51 30.55 26.93 32.73 23.77 33.84 26.93 35.76 32.37 37.87 37.06 35.94 41.37 32.89 41.72 32.09 39.15 31.63 40.96 29.5 42 27.02 44.44 25.63 43.71 20.93 41.72 14.16 34.81 10.79 28.64 11.04 23.1 14.16"/><polygon class="cls-3" points="7.12 49.03 5.11 47.95 3.87 45.24 3.32 45.41 1.68 46.14 1.33 45.52 1.68 43.11 3.08 42.13 3.08 40.73 3.46 39.88 4.6 39.4 4.6 37.86 6.4 37.41 7.68 38.45 8.15 35.94 9.17 35.32 10.36 35.7 10.88 36.72 12.13 40.04 14.35 38.95 15.42 39.88 15.68 40.73 15.09 42.56 14.88 44.93 13.75 46.63 12.08 48.47 8.5 50.45 6.55 50.67 7.12 49.03"/><polygon class="cls-3" points="51.34 33.66 48.87 33.66 47.5 33.45 46.63 32.05 46.89 30.61 48.72 29.4 50.11 27.79 51.51 23.85 52 21.89 54.07 21.28 55 22.41 55.44 24.53 56.9 22.41 58.61 23.18 58.51 26.47 60.16 25.39 61.36 26.87 60.98 27.87 60.63 28.92 62.5 30.24 62.44 32.24 62.05 33.38 60.82 33.1 60.44 31.84 58.14 33.51 56.51 34.05 56.89 36.06 51.99 36.12 51.34 33.66"/><polygon class="cls-2" points="23.1 14.16 25.27 14.74 26.97 14.16 28.05 13.44 30.3 14.43 32.37 13.02 34.06 14.13 37.06 13.02 38.6 14.16 40.62 14.43 41.48 14.13 40.68 11.32 38.3 9.06 34.26 7.64 31.67 7.34 27.85 8.44 25.27 9.74 23.1 12.88 23.1 14.16"/><polygon class="cls-8" points="23.1 14.16 25.27 14.74 26.97 14.16 28.05 13.44 30.3 14.43 32.37 13.02 34.06 14.13 37.06 13.02 38.6 14.16 40.62 14.43 41.48 14.13 40.68 11.32 38.3 9.06 34.26 7.64 31.67 7.34 27.85 8.44 25.27 9.74 23.1 12.88 23.1 14.16"/><polygon class="cls-3" points="20.41 100 26.42 101.15 28.33 102.07 27.79 106.8 23.22 105.04 20.13 105.08 20.41 100"/><polygon class="cls-8" points="20.41 100 26.42 101.15 28.33 102.07 27.79 106.8 23.22 105.04 20.13 105.08 20.41 100"/><polygon class="cls-3" points="35.49 102.62 38.28 104.29 41.98 104.71 39.89 111.06 37.05 110.23 34.24 108.28 35.49 102.62"/><polygon class="cls-8" points="35.49 102.62 38.28 104.29 41.98 104.71 39.89 111.06 37.05 110.23 34.24 108.28 35.49 102.62"/><polygon class="cls-3" points="20.13 105.43 22.12 104.71 27.79 106.8 27.71 114.05 25.62 114.47 22.58 113.65 21.45 111.54 20.13 105.43"/><polygon class="cls-8" points="20.13 105.43 22.12 104.71 27.79 106.8 27.71 114.05 25.62 114.47 22.58 113.65 21.45 111.54 20.13 105.43"/><polygon class="cls-3" points="34.24 108.28 36.46 110.12 39.89 111.06 35.76 117.23 34.24 117.23 32.51 116.51 32.22 114.64 33.07 112.56 34.24 108.28"/><polygon class="cls-8" points="34.24 108.28 36.46 110.12 39.89 111.06 35.76 117.23 34.24 117.23 32.51 116.51 32.22 114.64 33.07 112.56 34.24 108.28"/><polygon class="cls-6" points="32.1 115.35 33.4 117.23 35.15 117.55 35.76 119.67 37.23 122.46 37.16 124.72 34.38 124.98 32.22 124.22 31.34 121.95 31.34 118.67 30.79 116.79 32.1 115.35"/><polygon class="cls-6" points="21.81 113.02 24.23 114.47 27.71 114.05 27.18 121.39 26.19 122.31 23.96 122.31 20.41 122.78 16.7 122.46 13.09 121.1 11.37 119.56 11.98 116.68 14.97 115.35 18.03 114.69 21.81 113.02"/><path class="cls-1" d="M52.55,36.67c-.73-.23-1.82-.52-2.02-1.36,0-.28,.24-.52,.52-.52,.31,0,.44,.3,.69,.43,.79,.49,1.78,.65,2.7,.63,2.58-.14,2.92-1.72,3.6-1.1,.69,.89-1.45,1.68-2.09,1.87-.58,.18-1.18,.27-1.79,.27-.54,0-1.08-.07-1.6-.22"/><path class="cls-1" d="M51.33,40.61c-.6-1.51-.91-3.14-1-4.75-.16-.78,.79-1.37,1.08-.47,0,.26-.07,.51-.03,.77,.13,1.4,.38,2.77,.9,4.05,.17,.4-.17,.71-.51,.71-.18,0-.35-.09-.45-.31m-.26-4.67s.02,0,.03,0c.03-.01,.05-.02,.08-.04-.03,.02-.07,.04-.1,.05"/><path class="cls-1" d="M53.16,49.65c-1.29-2.45-1.81-5.23-1.7-7.98,.08-.54-.24-1.57,.55-1.65,.8,.07,.44,1.07,.49,1.6-.07,1.95,.13,3.9,.8,5.74,.22,.62,.46,1.21,.76,1.77,.23,.4-.12,.77-.48,.77-.16,0-.31-.07-.41-.25"/><path class="cls-1" d="M54.26,54.55c-.61-.07-3.5-.43-4.76-1.1,0,0,0-.02,0-.02,.04-.11,.08-.22,.12-.33,.02-.04,.03-.09,.05-.13,.03-.08,.07-.17,.1-.26,.02-.04,.03-.08,.05-.12,.02-.04,.04-.09,.05-.13,.26,.12,.52,.27,.72,.3,2.29,.69,4.67,1.06,7.03,.7,1.83-.54,3.05-2.23,4.12-3.7,1.19-1.65,1.75-3.76,1.33-5.76-.39-2.15-1.47-3.59-2.9-5.15-.62-1.22-1.28-2.44-2.1-3.54-.97,.51-1.43-.87,0-1.14,1-.02,2.43,3.2,2.94,4.07,.26,.47,.73,.78,1.06,1.21,1.04,1.27,1.71,2.82,2.02,4.42,.7,3.27-1.04,6.39-3.28,8.66-1.42,1.63-3.03,2.12-4.91,2.12-.54,0-1.09-.04-1.68-.11"/><path class="cls-1" d="M11.28,54.42c-.62-.3-.12-.95,.02-1.4,.45-1.31,.79-2.68,1.01-4.04-1.94,1.15-4.33,2.97-6.65,1.85-.53-.32-1.22-.84-1.15-1.54,0,.04-.01,.08-.01,.12,0-.64,.96-.69,1.03-.05,.88,1.31,2.7,.73,3.86,.15,.79-.4,1.55-.88,2.31-1.35,.4-.2,.75-.61,1.22-.6,.68,.12,.5,.95,.43,1.45-.15,1.04-.38,2.07-.67,3.08-.22,.51-.5,2.39-1.2,2.39-.06,0-.13-.01-.2-.05"/><path class="cls-1" d="M3.12,53.85c-.75-.25-.13-1.21-.03-1.67,.33-.95,.71-1.88,1.08-2.81,.12-.55,.78-.92,1.1-.31,.15,.36-.18,.64-.26,.98-.32,.81-.65,1.62-.94,2.44-.22,.44-.2,1.38-.82,1.38-.04,0-.09,0-.14-.01"/><path class="cls-1" d="M4.08,52.48h0s0,.02,0,.03c0-.01,0-.02,0-.03"/><path class="cls-1" d="M4.36,49.36c-.05-.13-.05-.27,0-.4,.05-.12,.13-.2,.24-.26,.6-.26,2.43-.88,2.42,.2-.09,.62-.78,.36-1.2,.49-.33,.03-.7,.28-1.02,.28-.17,0-.33-.08-.44-.31"/><path class="cls-1" d="M4.59,48.7s.02-.01,.03-.02c-.01,0-.02,.01-.04,.02,0,0-.01,0-.02,.01,0,0,.01,0,.02-.01"/><path class="cls-1" d="M5.24,66.88c-1.38-.37-2.38-1.49-3.19-2.61-1.26-1.7-2.13-3.84-1.78-5.98,.19-1.18,.68-2.28,1.23-3.33,.31-.5,.92-1.95,1.52-1.97,.29,0,.52,.24,.52,.52,0,.3-.33,.53-.44,.76-1.62,2.52-2.62,5.2-1.08,8.01,1,1.71,2.6,4.36,4.92,3.44,2.33-.92,4.21-2.73,5.87-4.56,.08-.14,.19-.24,.3-.29v.02s0,.04,0,.04v.04s0,.04,0,.04v.03s0,.04,0,.04v.03s0,.03,0,.03v.03s0,.04,0,.04v.03s0,.04,0,.04v.04s0,.04,0,.04v.04s0,.04,0,.04v.04s0,.04,0,.04v.04s0,.03,0,.03v.03s0,.03,0,.03v.03s0,.03,0,.03v.06s0,.02,0,.02v.02s0,.02,0,.02v.02s0,.02,0,.02v.02s0,.02,0,.02v.02s0,.02,0,.02v.02s0,.02,0,.02v.02s0,.02,0,.02v.02s0,.02,0,.02v.02s0,.02,0,.02v.02s-.01,.02-.01,.02v.02s0,.02,0,.02v.02s0,.02,0,.02v.02s0,.01,0,.01v.02s0,.01,0,.01h0s0,.03,0,.03h0s0,.03,0,.03h0s0,.03,0,.03h0s0,.03,0,.03h0s0,.02,0,.02h0s0,.03,0,.03h0s0,.02,0,.02h0s0,.02,0,.02h0s0,.02,0,.02h0s0,.01,0,.01c-1.84,1.92-4.64,4.44-7.14,4.44-.2,0-.4-.02-.6-.05"/><path class="cls-1" d="M10.47,60.87c-.45-.12-.4-.61-.29-.96,.18-.95,.32-1.91,.4-2.87,.1-.96,.1-1.92,.12-2.88,.05-.65,1.03-.64,1.04,.03-.04,1.72-.12,3.46-.42,5.16-.14,.5-.05,1.55-.73,1.55-.04,0-.09,0-.13-.01"/><path class="cls-1" d="M6.75,56.31c-.8-.06-1.57-.33-2.23-.79-.55-.38-2.61-2.14-1.15-2.47,.28,0,.44,.21,.54,.44,.92,1.39,2.61,2.12,4.24,1.7,.83-.17,1.62-.51,2.36-.92,.25-.14,.56-.06,.71,.18,.14,.24,.06,.57-.19,.71-1.19,.66-2.54,1.17-3.91,1.17-.12,0-.25,0-.37-.01"/><path class="cls-1" d="M54.08,41.91c-.57-.11-1.13-.31-1.67-.53-.42-.14-1.05-.46-.76-.99,.09-.15,.23-.23,.39-.26,.17-.03,.33,.04,.44,.15,1.35,.68,2.9,.92,4.33,.34,.92-.3,1.73-.86,2.46-1.48,.43-.29,.86-1.16,1.43-.66,.52,.64-.51,1.14-.89,1.55-1.32,1.13-3.04,1.97-4.8,1.97-.32,0-.63-.03-.95-.08m-1.87-.76c.05,0,.1-.03,.15-.06,0,0,0,0,0,0-.05,.03-.1,.05-.16,.06"/><path class="cls-1" d="M15.66,57.67c-.19-.33-.66-1.1-1.17-2.05v-.03s-.02-.03-.02-.03v-.03s-.02-.03-.02-.03v-.03s-.02-.03-.02-.03v-.03s-.02-.03-.02-.03v-.03s-.02-.03-.02-.03v-.03s-.02-.03-.02-.03v-.03s-.02-.03-.02-.03v-.03s-.02-.03-.02-.03v-.02s-.02-.03-.02-.03v-.03s-.02-.03-.02-.03v-.03s-.02-.02-.02-.02v-.02s-.02-.02-.02-.02v-.02s-.02-.02-.02-.02v-.02s-.02-.02-.02-.02v-.02s-.01-.02-.01-.02v-.02s-.01-.02-.01-.02v-.02s-.01-.02-.01-.02v-.02s-.01-.02-.01-.02v-.02s-.01-.02-.01-.02v-.02s-.01-.02-.01-.02v-.02s-.01-.02-.01-.02v-.02s-.01-.02-.01-.02v-.02s-.01-.02-.01-.02v-.02s-.01-.02-.01-.02v-.02s-.01-.02-.01-.02v-.02s-.01-.02-.01-.02v-.02s-.02-.02-.02-.02v-.02s-.02-.02-.02-.02v-.02s-.02-.02-.02-.02v-.02s-.02-.02-.02-.02v-.02s-.02-.02-.02-.02v-.02s-.02-.02-.02-.02v-.02s-.02-.02-.02-.02v-.02s-.02-.02-.02-.02v-.02s-.02-.02-.02-.02v-.02s-.02-.02-.02-.02v-.02s-.02-.02-.02-.02h0s-.01-.03-.01-.03h-.01s-.01-.03-.01-.03h0s-.01-.03-.01-.03h-.01s-.01-.02-.01-.02h-.01s-.01-.02-.01-.02h-.01s-.01-.02-.01-.02h-.01s-.01-.02-.01-.02h-.01s-.01-.02-.01-.02h-.01s-.01-.01-.01-.01h-.01s-.01-.01-.01-.01h-.01s-.01-.01-.01-.01h-.01s-.01-.01-.01-.01h-.01s-.01-.01-.01-.01h-.01s-.01,0-.01,0h-.01s-.01,0-.01,0h-.01s-.01,0-.01,0h-.01s0,0,0,0c-.83-1.71-1.44-3.4-.9-3.8,.95-.4,.8,1.08,1.11,1.61,.73,1.99,1.75,3.84,2.85,5.65,.24,.39-.12,.77-.48,.77-.16,0-.31-.07-.42-.25m-1.59-3.61s0,0,0,0c0,0,0,0,0,0,0,0,0,0,0,0,.01,.02,.03,.03,.05,.03h0s.03,0,.05-.02c.03-.02,.04-.07,.01-.1-.02-.02-.04-.04-.06-.07t0,0s0,0,0,0t0,0s-.04-.06-.06-.09c-.02-.03-.04-.06-.06-.09,0,0,0,0,0,0,0,0-.01-.02-.02-.02h0s-.05-.08-.08-.12c-.03-.04-.05-.08-.08-.13h0s0,0,0,0c-.05-.09-.09-.18-.12-.27,0,0,0,0,0,0,0,0,0,0,0-.01h0s0,0,0,0c0,0,0,0,0,0,0-.02-.02-.05-.02-.07,0-.02,0-.04,0-.06v-.03s0-.01,0-.02c0,0,0,0,0,0,0-.03-.01-.06-.04-.06-.03,0-.05,.02-.05,.05,0,.06,.01,.12,.03,.17,.02,.07,.05,.13,.08,.2,.03,.07,.05,.14,.09,.2,.03,.06,.06,.11,.09,.17,0,0,0,0,0,0,.01,.03,.03,.06,.04,.08,.01,.03,.03,.05,.04,.08,.03,.05,.06,.11,.09,.16,0,0,0,0,0,0,0,0,0,0,0,0,0,0,0,0,0,0,0,0,0,.01,.01,.02m-.93-3.29c.11-.07,.18-.19,.21-.32-.03,.12-.1,.24-.21,.32"/><path class="cls-1" d="M48.95,57.01c-.28-.07-.43-.36-.36-.63,.27-1.06,.53-2.11,.74-3.13,.58-2.93,.99-5.94,1.14-8.91,0-.66,1.04-.67,1.03,0-.05,1.81-.31,3.6-.53,5.39-.16,1.25-.38,2.51-.64,3.75-.22,1.07-.48,2.13-.75,3.19-.06,.23-.28,.38-.5,.38-.05,0-.09,0-.13-.02"/><path class="cls-1" d="M13.14,61.14v.03s0,.03,0,.03v.03s0,.03,0,.03v.04s0,.04,0,.04v.04s0,.04,0,.04v.04s0,.04,0,.04v.04s0,.03,0,.03v.03s0,.03,0,.03v.03s0,.03,0,.03v.11s0,.02,0,.02v.02s0,.02,0,.02v.02s0,.02,0,.02v.02s0,.02,0,.02v.02s0,.02,0,.02v.02s0,.02,0,.02v.02s0,.02,0,.02v.02s0,.02,0,.02v.02s0,.02,0,.02v.02s0,.02,0,.02v.02s-.01,.02-.01,.02v.02s0,.02,0,.02h0s0,.03,0,.03h0s0,.03,0,.03h0s0,.03,0,.03h0s0,.02,0,.02c.03-.4,.05-.8,.08-1.2"/><path class="cls-1" d="M14.54,55.82v-.03s-.01-.03-.01-.03v-.03s-.02-.03-.02-.03v-.03s-.02-.03-.02-.03v-.03s-.02-.03-.02-.03v-.03s-.02-.03-.02-.03v-.03s-.02-.03-.02-.03v-.03s-.02-.03-.02-.03v-.03s-.02-.03-.02-.03v-.03s-.02-.03-.02-.03v-.03s-.02-.03-.02-.03v-.03s-.02-.03-.02-.03v-.03s-.02-.03-.02-.03v-.03s-.02-.03-.02-.03v-.03s-.02-.03-.02-.03v-.02s-.02-.02-.02-.02v-.02s-.02-.02-.02-.02v-.02s-.02-.02-.02-.02v-.02s-.01-.02-.01-.02v-.02s-.01-.02-.01-.02v-.02s-.01-.02-.01-.02v-.02s-.01-.02-.01-.02v-.02s-.01-.02-.01-.02v-.02s-.01-.02-.01-.02v-.02s-.01-.02-.01-.02v-.02s-.01-.02-.01-.02v-.02s-.01-.02-.01-.02v-.02s-.01-.02-.01-.02v-.02s-.01-.02-.01-.02v-.02s-.02-.02-.02-.02v-.02s-.01-.02-.01-.02v-.02s-.02-.02-.02-.02v-.02s-.02-.02-.02-.02v-.02s-.02-.02-.02-.02v-.02s-.02-.02-.02-.02v-.02s-.02-.02-.02-.02v-.02s-.02-.02-.02-.02v-.02s-.02-.02-.02-.02v-.02s-.02-.01-.02-.01v-.02s-.02-.02-.02-.02v-.02s-.02-.02-.02-.02h0s.07-.04,.11-.05c.02,.04,.04,.07,.07,.11,0,0,0,0,0,0h0s0,0,0,0c0,0,0,0,0,0,0,0,0,.01,.01,.02,0,0,0,0,0,0,0,0,0,0,0,0,0,0,0,0,0,0,.01,.02,.03,.03,.05,.04h0s.03,0,.05-.02c.03-.02,.04-.07,.01-.1-.02-.02-.04-.04-.05-.07t0,0s0,0,0,0c.25,.02,.48,.24,.47,.58-.02,.45-.05,.89-.07,1.34h0Z"/><path class="cls-1" d="M36.1,89.63c-.07-.26,.09-.57,.36-.63,.64-.15,1.26-.35,1.88-.57,2.7-.94,5.3-2.39,7.66-3.95,5.45-3.02,5.35-12.48,5.22-17.97-.1-3.02-.34-6.11-.96-9.04-.15-.75-.32-1.5-.48-2.25-.04-.46-.38-.94-.18-1.38,.23-.42,.93-.28,.96,.21,.09,.31,.15,.62,.22,.93,.47,2.11,.91,4.24,1.14,6.39,.48,6.83,1.11,14.16-1.98,20.48-1.08,2.42-3.61,3.63-5.76,4.97-1.94,1.12-3.97,2.12-6.11,2.79-.39,.07-.96,.39-1.41,.39-.24,0-.44-.09-.56-.37m14.13-35.05c.09-.03,.17-.1,.23-.18-.06,.08-.14,.14-.23,.18"/><path class="cls-1" d="M33.39,90.75l-.03-.13-.03-.14-.04-.13-.04-.13-.04-.13-.04-.13-.04-.13h0c1.14-.18,2.25-.45,3.32-.83,.26-.1,.57,.06,.66,.31,.25,.77-1.67,1.24-3.7,1.5v-.06Z"/><path class="cls-1" d="M13,61.92h0s0-.02,0-.02h0s0-.02,0-.02h0s0-.02,0-.02h0s0-.02,0-.02h0s0-.02,0-.02h0s0-.02,0-.02h0s0-.02,0-.02h0s0-.03,0-.03h0s0-.03,0-.03h0s0-.03,0-.03h0s0-.03,0-.03v-.02s.01-.02,.01-.02v-.02s.01-.02,.01-.02v-.02s.01-.02,.01-.02v-.02s0-.02,0-.02v-.02s.01-.02,.01-.02v-.02s0-.02,0-.02v-.02s0-.02,0-.02v-.02s0-.02,0-.02v-.02s0-.02,0-.02v-.02s0-.02,0-.02v-.02s0-.02,0-.02v-.02s0-.02,0-.02v-.03s0-.03,0-.03v-.06s0-.03,0-.03v-.07s0-.04,0-.04v-.04s0-.04,0-.04v-.04s0-.03,0-.03v-.04s0-.03,0-.03v-.03s0-.03,0-.03v-.04s0-.03,0-.03v-.03s0-.04,0-.04v-.03s0-.03,0-.03v-.04s0-.04,0-.04v-.04s0-.02,0-.02c.47-.2,1.05,.29,.59,.84-.24,.24-.5,.5-.79,.78h0Z"/><path class="cls-1" d="M13.91,53.16h0s.01,0,.01,0h.01s.01,0,.01,0h.01s.01,0,.01,0h.01s.01,0,.01,0h.01s.01,.01,.01,.01h.01s.01,.01,.01,.01h.01s.01,.01,.01,.01h.01s.01,.02,.01,.02h.01s.01,.02,.01,.02h.01s.01,.02,.01,.02h.01s.01,.02,.01,.02h.01s.01,.02,.01,.02h0s.01,.02,.01,.02h.01s0,.02,0,.02h.01s0,.03,0,.03v.02s.02,.01,.02,.01h0s0,.03,0,.03h0s0,.03,0,.03v.02s.02,.02,.02,.02v.02s.02,.02,.02,.02v.02s.02,.02,.02,.02v.02s.02,.02,.02,.02v.02s.02,.02,.02,.02v.02s.02,.02,.02,.02v.02s.01,.02,.01,.02v.02s.01,.02,.01,.02v.02s.01,.02,.01,.02v.02s.01,.02,.01,.02v.02s.01,.02,.01,.02v.02s.01,.02,.01,.02v.02s.01,.02,.01,.02v.02s.01,.02,.01,.02v.02s.01,.02,.01,.02v.02s.01,.02,.01,.02v.02s.01,.02,.01,.02v.02s.01,.02,.01,.02v.02s.01,.02,.01,.02v.02s.01,.02,.01,.02v.02s.01,.02,.01,.02v.02s.01,.02,.01,.02v.02s.01,.02,.01,.02v.02s.01,.02,.01,.02v.02s.01,.03,.01,.03v.03s.01,.02,.01,.02v.03s.02,.03,.02,.03v.03s.01,.03,.01,.03v.03s.01,.03,.01,.03v.03s.01,.03,.01,.03v.03s.01,.03,.01,.03v.03s.01,.03,.01,.03v.03s.01,.03,.01,.03v.03s.01,.03,.01,.03v.03s.01,.03,.01,.03v.03s.01,.03,.01,.03c-.3-.61-.62-1.29-.91-1.97"/><path class="cls-1" d="M15.97,86.43c-.16,0-.31-.08-.4-.22-2.62-3.86-3.4-8.6-3.27-13.19,.02-3.76,.37-7.52,.79-11.25h0s0-.02,0-.02h0s0-.03,0-.03h0s0-.03,0-.03h0s0-.03,0-.03h0s0-.03,0-.03v-.02s.01-.02,.01-.02v-.02s.01-.02,.01-.02v-.02s.01-.02,.01-.02v-.02s0-.02,0-.02v-.02s.01-.02,.01-.02v-.02s0-.02,0-.02v-.02s0-.02,0-.02v-.02s0-.02,0-.02v-.02s0-.02,0-.02v-.02s0-.02,0-.02v-.02s0-.02,0-.02v-.03s0-.03,0-.03v-.03s0-.03,0-.03v-.13s0-.04,0-.04v-.04s0-.04,0-.04v-.04s0-.04,0-.04v-.04s0-.04,0-.04v-.03s0-.04,0-.04v-.04s0-.03,0-.03c.02-.15,.04-.31,.05-.46h0c.21-1.88,.46-3.75,.65-5.64-.02-.24,0-.43,.05-.59,.03,.05,.05,.1,.08,.14h0s0,0,0,0c0,0,0,0,0,0,0,0,0,0,0,0h0s0,0,0,0h0s0,.01,.01,.02h0s0,0,0,0c.01,.02,.03,.03,.05,.03,0,0,0,0,0,0,.02,0,.03,0,.05-.02,.03-.02,.04-.07,.01-.1-.02-.02-.04-.04-.05-.07h0s0,0,0,0h0s0,0,0,0h0s-.04-.06-.06-.09c-.02-.03-.03-.05-.05-.08,.07-.14,.16-.24,.26-.29h0s0,.02,0,.02v.02s.02,.02,.02,.02v.02s.02,.02,.02,.02v.02s.02,.02,.02,.02v.02s.02,.02,.02,.02v.02s.02,.02,.02,.02v.02s.02,.02,.02,.02v.02s.02,.02,.02,.02v.02s.01,.02,.01,.02v.02s.01,.02,.01,.02v.02s.01,.02,.01,.02v.02s.01,.02,.01,.02v.02s.01,.02,.01,.02v.02s.01,.02,.01,.02v.02s.01,.02,.01,.02v.02s.01,.02,.01,.02v.02s.01,.02,.01,.02v.02s.01,.02,.01,.02v.02s.01,.02,.01,.02v.02s.01,.02,.01,.02v.02s.01,.02,.01,.02v.02s.01,.02,.01,.02v.02s.01,.02,.01,.02v.02s.01,.02,.01,.02v.02s.01,.03,.01,.03v.02s.01,.02,.01,.02v.03s.01,.03,.01,.03v.03s.01,.03,.01,.03v.03s.01,.03,.01,.03v.03s.01,.03,.01,.03v.03s.01,.03,.01,.03v.03s.01,.03,.01,.03v.03s.01,.03,.01,.03v.03s.01,.03,.01,.03v.03s.01,.03,.01,.03v.03s.01,.03,.01,.03v.03s.01,.03,.01,.03v.03s.01,.03,.01,.03v.03s.01,.03,.01,.03v.03s.01,.03,.01,.03v.03s0,0,0,0c-.62,5.85-1.5,11.68-1.53,17.58-.03,2.62,.09,5.37,.85,7.86,.45,1.53,1.11,3.04,1.91,4.37,.23,.36,.66,.84,.18,1.2-.09,.06-.19,.09-.29,.09,0,0-.02,0-.02,0"/><path class="cls-1" d="M28.2,91.24c-.18,0-.32-.02-.41-.03-4.4-.34-11.57-2.52-13.27-7.07,.04,.03,.08,.05,.12,.06h0s-.08-.04-.12-.07c-.07-.19-.13-.39-.18-.6,.09-.25,.4-.42,.66-.31,.36,.15,.42,.59,.61,.88,.33,.62,.75,1.18,1.22,1.69,1.78,1.84,4.31,2.84,6.68,3.58,2.68,.76,5.57,1.05,8.35,.75h0s.04,.13,.04,.13l.04,.13,.03,.13,.03,.14,.03,.14,.03,.14,.02,.14v.06c-1.01,.08-2.07,.11-2.89,.11-.4,0-.74,0-1-.02"/><path class="cls-1" d="M14.52,84.13h0s-.03-.02-.05-.04c0,0,0,0-.01-.01,.02,.02,.04,.03,.06,.05,0,0,0,0,0,0,0,0,0,0,0,0"/><path class="cls-1" d="M14.14,54.65c-.24-.11-.29-.41-.43-.61-.15-.35-.48-.7-.4-1.11-.33-.52,.47-.93,.67-.35,0,0,0,0,0-.01,0-.01,0-.02-.01-.04,.24,.52,.53,1.03,.79,1.55,.14,.31-.18,.59-.48,.59-.05,0-.09,0-.14-.02"/><path class="cls-1" d="M12.81,61.97c-.48-.31,.05-.77,.24-1.09,.17-.31,.24-.52,.64-.54,.2,0,.39,.16,.39,.37,0,.23-.2,.37-.31,.55-.23,.24-.43,.76-.79,.76-.06,0-.12-.01-.18-.04"/><path class="cls-1" d="M30.04,90.44c.11-.09,.24-.08,.37-.07,.27,0,.54,0,.8-.02,.2-.16,.49-.13,.73-.19,.52-.09,1.02-.21,1.54-.29,.19-.02,.38-.08,.57-.07,.34,.03,.46,.5,.17,.69-.22,.35-.77,.3-1.13,.43-.91,.22-1.84,.22-2.77,.22-.02,0-.03,0-.05,0-.35,0-.53-.46-.24-.69"/><path class="cls-1" d="M11.09,37.75c-.04-.15-.08-.31-.14-.45-.06-.14-.15-.25-.26-.33-.01-.01-.02-.02-.04-.03,2.09-1.8,4.84-3.04,7.53-3.28,.01,.03,.02,.06,.04,.09,.05,.1,.11,.19,.18,.28-.01,.07,0,.13,0,.2,.02,.08,.05,.16,.09,.24,.03,.06,.05,.12,.08,.18-2.71,.28-5.42,1.4-7.45,3.24-.01-.04-.02-.08-.03-.12"/><path class="cls-1" d="M23.71,34.08s0,0,0,0h0s0,0,0,0h0c-.53-.2-.42-.76-.08-.95,.04,.03,.08,.06,.12,.08-.05,.04-.09,.09-.12,.15-.08,.17-.02,.39,.14,.49,.09,.05,.18,.1,.27,.14,.02,.06,.05,.11,.1,.14,.02,.02,.04,.03,.07,.05-.01,0-.03,0-.04,0-.2,0-.36-.03-.47-.11"/><path class="cls-1" d="M26.55,32.74c-.07-.06-.14-.12-.2-.18-.09-.08-.18-.16-.27-.23,.22-.1,.49-.01,.63,.19,.08,.13,.09,.27,.04,.41-.07-.06-.13-.12-.2-.18"/><path class="cls-1" d="M26.59,32.89s0,0,.01,.01c0,0,0,0-.01-.01"/><path class="cls-1" d="M40.68,33.86s-.08,.09-.13,.12c.04-.04,.08-.08,.13-.12"/><path class="cls-1" d="M38.27,31.64c.16,.07,.31,.17,.46,.29-.03,.02-.06,.04-.08,.06-.12,.08-.23,.17-.35,.25-.14,.1-.27,.21-.41,.31-.28-.39-.26-.74,.39-.91"/><path class="cls-1" d="M40.35,32.42c-.3-.02-.57-.03-.76,0-.31-.04-.69,.04-.89-.26,0,0,0,.01,.01,.02,0,0,0,.01,.01,.02-.45-.89,.46-.85,1.11-.81,.14,0,.26,.02,.36,.02,.19,.03,.43,0,.68-.03,.53-.07,1.08-.14,1.19,.44-.04,.53-.57,.63-1.16,.63-.18,0-.37-.01-.55-.02"/><path class="cls-1" d="M23.58,34.14c-.12-.15-.24-.29-.36-.44-.12-.15-.25-.31-.38-.45-.02-.02-.04-.04-.06-.05,.38-.14,.98-.04,1.29-.14,.76-.1,1.52-.29,2.21-.62,.67-.26,1.01,.84,.3,.99-.41,.19-1.88,.68-2.96,.76-.01-.02-.03-.03-.04-.05m2.4-1.04c-.02-.06-.03-.12-.03-.18,0,.04,0,.07,0,.11,0,.02,.01,.04,.02,.06h0s0,0,0,0"/><path class="cls-1" d="M16.14,101.02c-.62-1.9-.31-4.12-.33-6.13,.16-2.71,.39-5.42,.81-8.1,.16-.57,1.06-.42,1.02,.18-.24,1.19-.31,2.4-.45,3.61-.23,2.16-.41,4.46-.4,6.6,0,1.15,.07,2.29,.21,3.42,.04,.32-.25,.55-.53,.55-.12,0-.23-.04-.32-.13"/><path class="cls-1" d="M29.3,103.09c-3.44-2.22-7.76-3.33-11.77-2.27-.32,.06-.62,.25-.95,.27-.64-.06-.61-.97,.01-1.06,2.48-.87,5.21-.76,7.74-.21,.86,.18,6.47,2.07,5.68,3.14-.1,.15-.26,.22-.43,.22-.1,0-.2-.03-.29-.09"/><path class="cls-1" d="M29.81,102.83c-1.39-.09,1.82-9.1,2.42-10.02,.8-2.03,1.98-.93,1.33-.25-1.05,1.73-1.66,3.7-2.24,5.63-.38,1.39-.69,2.81-.91,4.24-.04,.24-.27,.41-.51,.41-.03,0-.06,0-.1,0"/><path class="cls-1" d="M34.7,102.39c-.81-.26-.14-1.31-.18-1.88,.2-1.53,.19-3.09,0-4.63-.17-1.26-.54-2.53-1.34-3.54-.43-.56,.5-1.16,.85-.59,1.55,2.03,1.71,4.74,1.66,7.2-.12,.69,.02,3.44-.9,3.44-.03,0-.06,0-.09,0"/><path class="cls-1" d="M46.79,103.44c-.36-.18-.32-.6-.14-.9,.73-1.75,1.32-3.56,1.83-5.39,1.13-4.78,1.73-9.87,.9-14.74-.29-.87,1.02-1,1.03-.11,.95,6.13,.06,12.56-1.96,18.4-.32,.57-.68,2.8-1.46,2.8-.07,0-.14-.02-.21-.05"/><path class="cls-1" d="M39.77,104.95c-.95-.12-1.88-.4-2.74-.83-.58-.31-3.77-1.96-2.07-2.46,.65,.04,1.25,.96,1.9,1.2,2.29,1.38,5.31,1.57,7.77,.56,.7-.3,1.39-.66,2.01-1.12,.23-.17,.56-.08,.72,.14,.37,.62-.5,.94-.91,1.21-1.53,.95-3.31,1.42-5.09,1.42-.53,0-1.06-.04-1.58-.13m-4.73-2.29c.06,0,.12-.02,.17-.04-.06,.02-.12,.04-.17,.04"/><path class="cls-1" d="M35.03,101.63s-.04,.01-.06,.02c-.04,0-.07,0-.11,0,.06-.02,.11-.02,.17-.02"/><path class="cls-1" d="M19.8,102.9c-.72-.23-4.74-1.38-3.4-2.46,.24-.12,.51-.02,.67,.18,.43,.31,1,.55,1.44,.74,.54,.39,1.97,.29,1.9,1.14-.05,.23-.27,.41-.5,.41-.04,0-.07,0-.11-.01"/><path class="cls-1" d="M28.18,103.47c-.25-.53,.35-.75,.72-.96,.37-.33,1.08-.27,1.06,.33-.01,.39-.42,.46-.68,.64-.19,.13-.44,.26-.67,.26-.17,0-.32-.07-.43-.27"/><path class="cls-1" d="M32.22,114.64c-.27-.09-.41-.39-.32-.66,.48-1.39,.92-2.79,1.31-4.2,.59-2.29,1.16-4.62,1.23-6.97-.14-.58,.35-1.27,.91-.75,.25,.37,.08,.87,.11,1.29,.08,.99-1.91,11.34-3.11,11.34-.05,0-.09-.02-.13-.05"/><path class="cls-1" d="M35.15,117.55c-.26-.29-.08-.66,.19-.86,.62-.62,1.19-1.29,1.69-1.93,2.18-2.92,3.72-6.35,4.51-9.87,.02-.27,.27-.51,.55-.48,1.25,.09-.49,3.61-.65,4.37-.99,2.61-2.32,5.12-4.12,7.26-.44,.36-1.16,1.68-1.81,1.68-.12,0-.25-.05-.36-.16m6.8-12.13s.02,0,.03,0c-.07-.01-.14-.04-.2-.07,.05,.04,.11,.05,.17,.07"/><path class="cls-1" d="M36.91,110.93c-1.34-.56-2.99-1.71-3.04-3.29,0,.02-.01,.03-.01,.05,0,.02,0,.05,0,.07,.02-.63,1.03-.62,1.03,.02,.39,1.01,1.31,1.74,2.29,2.14,.8,.33,1.66,.61,2.54,.55,.28-.02,.53,.2,.55,.48-.04,.44-.41,.59-.89,.59-.83,0-2.02-.45-2.46-.61"/><path class="cls-1" d="M34.1,117.89c-1.36-.27-2.58-1.47-2.47-2.92-.06-.63,.6-1.32,1.07-.62,.12,.45-.19,.94,.09,1.4,.89,1.81,2.76,.67,2.97,1.56,.05,.53-.39,.67-.86,.67-.29,0-.58-.05-.79-.09"/><path class="cls-1" d="M33.67,125.48c-3.01-.92-2.96-2.69-2.99-5.38-.38-2.7-1.06-2.58,.79-5.16,.2-.46,.9-.7,1.12-.13,.12,.58-1.03,1.55-1.2,2.26-.44,.84,.31,1.63,.3,2.49,.07,1.03,.05,2.06,.16,3.08,.08,.77,.84,1.21,1.42,1.61,.55,.43,1.43,.23,2.22,.02,.81-.21,1.54-.43,1.72,.07,.34,.86-2.07,1.17-3.14,1.17-.17,0-.3,0-.39-.02"/><path class="cls-1" d="M36.54,124.7c-.12-.24-.03-.58,.23-.69,.95-1.21-1.64-3.55-1.85-4.89-.65-2.35,1.04-2.2,.9-1.2-.04,2.12,2.23,3.53,2.21,5.67,.06,.54-.48,1.39-1.02,1.39-.17,0-.33-.08-.48-.28"/><path class="cls-1" d="M21.35,112.68c-1.38-3.99-2.63-8.42-1.64-12.63,.19-.39,.82-.34,.94,.08,.09,.28-.13,.62-.12,.89-.38,2.68,.05,5.4,.72,8,.31,1.12,.67,2.23,1.06,3.33,.14,.39-.19,.68-.52,.68-.19,0-.38-.1-.46-.34"/><path class="cls-1" d="M27.23,114.38c-.09-2.78-.07-5.44,.16-8.19,.2-1.22,.12-3.05,.78-4.07,1.09-.37,.74,.75,.61,1.36-.46,2.62-.55,5.33-.57,7.97,0,.95,.02,1.91,.05,2.86,0,.28-.19,.53-.48,.55-.01,0-.02,0-.03,0-.26,0-.51-.21-.52-.48"/><path class="cls-1" d="M22.08,113.8c-.3-.36-.86-.78-.64-1.3,0,.01,0,.02-.01,.03,.16-.47,.9-.42,.99,.08,.46,.57,.97,1.17,1.7,1.35,.6,.2,1.22,.11,1.83,.01,.52-.08,1.04-.16,1.53-.06,1.09,1.24-1.95,1.11-2.6,1.18h-.01c-1.07,0-2.1-.47-2.78-1.29"/><path class="cls-1" d="M21.42,112.54s0,0,0,0c0,0,0,.02,0,.03,0,0,0-.01,0-.02"/><path class="cls-1" d="M26.95,107.08c-1.55-1.07-3.52-1.71-5.4-1.78-.59,.02-1.08,.4-1.61,.54-.53-.02-.65-.76-.2-.99,2.19-1.37,5.96,.11,7.89,1.47,.4,.34,.05,.91-.36,.91-.11,0-.22-.04-.32-.13"/><path class="cls-1" d="M13.04,121.37c-.77-.39-1.74-.72-2.06-1.6-.22-1.07-.31-2.53,.59-3.31,1.54-1.05,3.21-1.92,5.04-2.21,1.04-.09,2.08-.12,2.94-.78,.66-.23,2.52-1.95,2.71-.57-.02,.54-2.05,1.25-2.56,1.67-1.42,.93-3.25,.41-4.74,1.2-1.03,.55-2.34,.86-2.96,1.83-.5,2.07,.33,2.33,2.02,3.07,4.25,2.43,7.27,1.6,11.79,.76,.28-.05,.55,.12,.61,.4,.06,.27-.12,.56-.4,.61-2.22,.41-4.46,.86-6.72,.9-.03,0-.06,0-.09,0-2.21,0-4.21-1.08-6.16-1.99"/><path class="cls-1" d="M26.19,122.31c-.53-.8,1.15-1.36,.96-2.29,0-.63-.01-1.26-.01-1.89,0-1.18-.06-2.37-.05-3.55-.07-.51,.67-.78,.94-.34,.22,2.02,.13,4.16,.12,6.22-.11,.55-.9,2.01-1.6,2.01-.13,0-.25-.05-.36-.16"/><path class="cls-1" d="M22.03,108.58c-.22-.94-.4-1.89-.52-2.85-.02-.27-.12-.56-.02-.82,.19-.39,.82-.17,.72,.26,.11,1.1,.31,2.2,.56,3.28,.05,.28-.17,.44-.38,.44-.16,0-.32-.09-.37-.3"/><path class="cls-1" d="M23.77,108.73c-.2-.93-.4-1.86-.51-2.8-.03-.28-.14-.67,.17-.84-.02,.01-.04,.03-.07,.04,.15-.14,.4-.11,.54,.04,.14,.15,.06,.35,.1,.53,.12,.97,.31,1.93,.52,2.89,.05,.28-.17,.44-.38,.44-.16,0-.32-.09-.36-.3"/><path class="cls-1" d="M25.42,109.23c-.12-.78-.23-1.56-.31-2.34,0-.33-.18-.82,.18-1.01,.27-.14,.61,.12,.54,.42,.01,.38,.06,.75,.1,1.12,.07,.56,.15,1.12,.23,1.68,.03,.2-.1,.4-.3,.44-.02,0-.04,0-.07,0-.18,0-.35-.13-.38-.31"/><path class="cls-1" d="M34.53,112.49c-.61-.2-.06-1.01-.03-1.44,.2-.62,.24-1.29,.41-1.91,.07-.1,.17-.16,.3-.16,.23-.01,.44,.21,.39,.44-.04,.48-.15,.94-.26,1.4-.09,.36-.18,.73-.28,1.09-.04,.25-.15,.58-.44,.58-.03,0-.06,0-.09-.01m.73-2.75s.06,0,.09-.02c-.03,.01-.06,.02-.09,.02"/><path class="cls-1" d="M35.79,113.09c-.25-.13-.24-.43-.1-.64,.31-.69,.55-1.41,.75-2.13,0,.01-.01,.03-.02,.04,.12-.36,.72-.3,.73,.12-.15,.79-.47,1.56-.78,2.3-.05,.2-.22,.36-.41,.36-.06,0-.11-.01-.17-.04"/><path class="cls-1" d="M36.42,110.36s-.01,.05-.02,.08c0-.03,0-.05,.02-.08"/><path class="cls-1" d="M36.62,113.92c-.39-.3,.05-.7,.21-.99,.31-.5,.59-1.01,.83-1.55,.12-.22,.17-.63,.47-.66,.2-.04,.41,.1,.44,.31-.14,.8-.68,1.56-1.07,2.27-.17,.24-.35,.7-.66,.7-.07,0-.14-.02-.22-.07"/><path class="cls-1" d="M24.62,65.89c-.06-.3,.18-.6,.48-.61,2.7,.7,5.6,.15,8.35-.05,1.9-.21,3.78-.53,5.64-.97,.52-.12,1.04-.25,1.56-.38,.43-.11,.79,.45,.52,.8-4.14,1.48-8.78,1.75-13.18,1.95-.89-.11-2.98,.21-3.38-.75"/><path class="cls-1" d="M45.26,70.7c-1.29-1.07-2.26-2.46-3.16-3.86-.35-.7-1.73-2.09-1.21-2.83,.3-.35,.9-.14,.92,.32,.01,.17,.15,.32,.22,.48,.95,1.51,1.88,3.06,3.11,4.37,.26,.27,.54,.52,.82,.77,.39,.35,.04,.9-.37,.9-.11,0-.23-.04-.33-.14m-3.93-5.84c.06,0,.12-.02,.17-.05,0,0,0,0,0,0,0,0,0,0,0,0,0,0,0,0,0,0-.06,.02-.12,.04-.18,.05"/><path class="cls-1" d="M44.73,77.96c.16-.55,.28-1.11,.35-1.61,.2-1.3,.26-2.61,.28-3.86,.14-.62-.36-2.26,.4-2.39,1-.04,.53,1.48,.64,2.11-.03,.57-.05,3.14-.37,4.9-.04,.04-.08,.07-.11,.11-.06,.06-.11,.12-.17,.18-.1,.11-.21,.22-.31,.33l.02-.02s-.02,.01-.02,.02h0s-.01,.01-.02,.02c0,0,0,0,0,0,0,0,0,0,0,0-.19,.18-.37,.35-.57,.52-.06,.05-.12,.1-.17,.15-.03-.15,0-.31,.06-.46"/><path class="cls-1" d="M20.02,73.44c-.56-.65,.57-1.27,.85-1.8,1.38-1.71,2.71-3.52,3.48-5.61,.06-.48,.6-.92,1-.48,.37,.54-.46,1.7-.66,2.27-.76,1.53-1.77,2.91-2.84,4.23-.41,.35-.9,1.5-1.5,1.5-.11,0-.22-.04-.33-.12"/><path class="cls-1" d="M20.63,79.58c-.3-1.55-.57-3.11-.75-4.67-.08-.63-.4-2.39,.77-1.76,.33,.44,.12,1.21,.27,1.76,.18,1.5,.43,3,.73,4.49,.07,.37-.23,.6-.53,.6-.22,0-.44-.13-.49-.41"/><path class="cls-1" d="M24.33,81.97c-1.15-.53-2.59-.86-3.41-1.86-.18-.49,.48-.89,.83-.55,3.83,2.5,8.74,3.01,13.11,1.86,3.32-.92,6.58-2.17,9.4-4.16,.43-.22,.77-.71,1.26-.75,.37,.04,.52,.39,.43,.68-.01,.01-.03,.03-.04,.04-.06,.06-.11,.12-.17,.18-.05,.05-.09,.1-.14,.15-4.46,3.2-9.92,5.38-15.45,5.48-1.99-.03-3.98-.35-5.83-1.08"/><path class="cls-1" d="M49.77,34.52c-.2-.15-.43-.2-.66-.27-.27-.1-.52-.27-.8-.33-.53-.11-1.13,.06-1.59-.29-.41-.28-.66-.77-.62-1.27,.06-.71-.04-1.52,.37-2.13,1.26-1.46,3.06-1.37,3.68-3.56,.32-.85,.6-1.71,.93-2.55,.23-.75,.3-1.55,.67-2.24,.26-.61,1.91-1.33,2.02-.31-.03,.78-1.11,.3-1.22,1.07-.17,.46-.27,.95-.37,1.43-.23,.78-.56,1.54-.81,2.31-.51,1.71-1.33,2.88-2.97,3.65-.42,.25-.93,.51-1.15,.96-.02,.5-.26,1.29,0,1.73,.17,.15,.4,.15,.63,.14,.15,0,.3-.01,.43,.03,.48,.04,.83,.25,1.2,.41,.23,.08,.48,.13,.69,.27,.42-.29,.54-.85,.42-1.33-.36-.29-.75-.6-1.21-.71-.82-.17-.58-1.78,1.26-.55,.81,.5,1.14,.97,1,1.95-.04,.68-.73,1.71-1.47,1.71-.14,0-.27-.03-.41-.11"/><path class="cls-1" d="M53.73,25.82c-.67-.19-1.73-1.94-.58-2.1,.65,0,.44,.89,.92,1.12,.83-.07,.88-.54,.74-1.24-.11-.56,.01-1.87-.85-1.7-.34,.08-.67,.22-1.02,.27-.6,0-.7-.88-.12-1.02,1.36-.51,2.54-.47,2.86,1.2,.11,.44,.13,.9,.18,1.35,.05,.37,.11,.76-.07,1.1-.25,.65-.98,1.06-1.68,1.06-.13,0-.26-.01-.39-.05"/><path class="cls-1" d="M57.26,27.45c-.98-.23-1.71-1.34-1.33-2.32,.15-.42,.8-.41,.95,0,.11,.25-.07,.51,.01,.77,.15,.42,.7,.7,1.08,.39,.06-.94,.22-1.86,.23-2.8-.38-.3-.86-.55-1.31-.67-.21,.45-.52,.85-.71,1.32-.27,.37-.32,1.06-.86,1.09-.28,0-.52-.24-.52-.52,0-.22,.15-.39,.22-.59,.29-.6,.62-1.17,.95-1.76,.41-.81,1.29-.63,1.92-.24,.42,.15,.76,.41,1.1,.68,.5,.64,.12,1.64,.09,2.38-.02,1.37-.12,2.28-1.63,2.28-.07,0-.14,0-.21,0"/><path class="cls-1" d="M60,29.5c-.13,0-.28-.03-.44-.1-.56-.23-1.05-.7-1.05-1.34-.07-.47-.09-.98,.24-1.36-.49,.43-1.17-.3-.7-.76,.58-.34,2.15-1.86,2.75-1.24,.55,.86,1.88,1.73,1.33,2.89-.33,.44-.79,.77-1.11,1.22-.3,.38-.6,.69-1.02,.69h0Zm-.43-2.17c-.15,.23-.02,.55,0,.81,.07,.15,.26,.24,.4,.31,.41-.47,.81-.95,1.26-1.37,.03-.17-.1-.29-.19-.42-.22-.36-.52-.66-.8-.97-.39,.25-.79,.49-1.15,.78,.04,0,.08-.01,.12-.01,.42,0,.68,.56,.36,.88"/><path class="cls-1" d="M56.04,34.74c-.61,0-1.11-.34-1.69-.42-.4-.03-.94,0-.95-.54,.07-.8,1.1-.46,1.59-.39,.43,.18,.85,.34,1.32,.35,.2,.04,.36-.07,.53-.16,.44-.19,.89-.36,1.3-.62,.27-.23,.57-.42,.83-.65,.17-.23,.38-.41,.55-.63,.09-.15,.16-.32,.3-.43,.37-.23,.92-.58,1.27-.13,.15,.21,.12,.47,.17,.71,.12,.39,.22,.83,.59,1.04,.21-.84,.41-1.77,.29-2.65-.26-.28-.64-.41-.88-.71-.36-.17-.89-.34-.98-.78-.04-.59,.6-.74,.98-.38,.19,.15,.42,.19,.61,.32,.26,.27,.59,.44,.87,.69,.46,.32,.47,.9,.48,1.41,.02,.56-.12,1.1-.2,1.65-.08,.41-.08,.88-.42,1.18-.93,.93-2.05-.33-2.26-1.28-.69,.87-1.57,1.58-2.6,2-.46,.19-.9,.46-1.39,.46-.1,0-.21-.01-.31-.04"/><path class="cls-1" d="M50.71,32.84c.28-.73,1.2-.34,1.01,.4,.15,1.06,.22,2.13,.29,3.2-.07,0-.13,0-.2,0-.28,0-.56,.01-.84,.02h0c-.11-1.21-.21-2.42-.26-3.62"/><path class="cls-1" d="M58.84,53.48c.43-.47,.86-.93,1.3-1.39-.38,.62-.84,1.17-1.45,1.59,.05-.07,.1-.13,.15-.19"/><path class="cls-1" d="M56.74,36.06c-.18-.66-.84-1.34-.48-2.03,.31-.53,1.16-.13,.93,.45,.15,.37,.31,.74,.46,1.11-.12,.06-.23,.13-.34,.2-.14,.09-.29,.18-.42,.27-.04,.02-.08,.04-.12,.06,0-.02-.01-.04-.02-.06"/><path class="cls-1" d="M11.39,39.72c-.32-.73-.65-1.46-1-2.19-.1,.49-.21,1.02-.53,1.42-.57,.64-1.67,.71-2.27,.07-.45-.58-.25-1.35-.24-2.03,.1-.51-.18-1.13,.21-1.56,1.34-1.12,2.88-.94,3.4,.85,.35,.88,.83,1.69,1.16,2.58,.19,.35,.43,.85-.04,1.09-.07,.04-.15,.05-.23,.05-.19,0-.38-.1-.47-.28m-3-3.62c.11,.75-.15,1.51,0,2.25,.11,.08,.24,.12,.37,.08,.55-.08,.55-.8,.64-1.23-.08-.35,.15-.73,.54-.7-.14-.51-.4-.72-.72-.72-.25,0-.53,.12-.82,.32"/><path class="cls-1" d="M5.25,41.46c-.92-.19-.87-1.31-.97-2.04-.06-.4-.22-.78-.23-1.18-.07-.61,.5-.93,1.01-1.05,.47-.18,1.03-.34,1.5-.08,.33,.2,.64,.46,.98,.62,.27-.01,.52,.21,.54,.48,.03,.46-.5,.67-.87,.5-1.03-.45-.93-.99-2.12-.44,.21,.71,.21,1.47,.41,2.19,.73,.06,1.01-.27,.95-.99-.04-.67,.98-.74,1.03-.07,.13,1.29-.63,2.09-1.81,2.09-.13,0-.26-.01-.4-.03"/><path class="cls-1" d="M6.64,41.65c-.15-.42-.54-.88-.27-1.33,.15-.24,.49-.3,.72-.14,.15,.1,.23,.27,.23,.44,.1,.23,.21,.46,.31,.69,.13,.4-.19,.68-.51,.68-.19,0-.38-.1-.47-.34m.61-.8s.04-.09,.05-.13c0-.02,0-.04,0-.06h0c0,.06-.02,.13-.06,.2"/><path class="cls-1" d="M8.93,40.53c-.28-.39-.74-.67-.88-1.15-.23-.76,.88-1.06,1.01-.27,.31,.4,1.13,.93,.6,1.46-.1,.08-.22,.13-.35,.13-.14,0-.29-.06-.38-.17"/><path class="cls-1" d="M2.99,43.5s.02,0,.03,0c0,0-.02,0-.03,0t0,0"/><path class="cls-1" d="M3.08,43.48c-.06,0-.12-.01-.17-.02-.2-.09-.33-.26-.4-.47,0-.06,0-.13,0-.19,0-.15-.01-.31-.02-.46,0-.02,0-.04,0-.06,0-.51-.05-1-.08-1.51-.2-1.04,.84-1.47,1.66-1.71,.52-.59,1.28,.29,.73,.79-.41,.28-.95,.3-1.35,.61-.01,.7,.11,1.38,.07,2.07,.38,.05,.6-.24,.76-.55,.21-.26,.26-.57,.2-.9-.04-.67,.98-.74,1.03-.07,.13,.8-.31,1.81-1.02,2.28-.15-.01-.29,0-.43,.06,0,0-.01,0-.02,0-.09,.01-.18,.02-.27,.04-.1,.02-.2,.05-.3,.07-.01,0-.02,0-.04,0-.02,0-.04,0-.06,0-.03,0-.07,0-.1,0-.06,0-.12,0-.17,.01,0,0-.01,0-.02,0"/><path class="cls-1" d="M5.14,43.83c-.06-.17-.18-.33-.33-.43-.09-.2-.25-.36-.35-.57-.45-.8,.81-1.35,.96-.4,.73,.86,.37,1.45-.06,1.45-.07,0-.15-.02-.22-.05"/><path class="cls-1" d="M4.23,43.29c-.06,0-.12,.03-.19,.05,0,0-.01,0-.02,0h0c-.09,.01-.18,.02-.27,.04-.1,.02-.19,.05-.29,.07,.14-.27,.53-.33,.77-.17"/><path class="cls-1" d="M2.51,43.08c0-.09,0-.19,0-.28-.01-.36-.04-.71-.06-1.06,.35-.12,.68-.07,.76,.42,.04,.44-.42,.52-.7,.72,0,.07,0,.14,.01,.21,0,0,0,0,0,0"/><path class="cls-1" d="M7.19,49.38s-.03-.01-.05-.02h0s-.01-.02-.01-.02l-.02-.02v-.02s-.03-.01-.03-.01h-.01s-.01-.03-.01-.03v-.02s-.03-.01-.03-.01h-.01s-.01-.03-.01-.03h-.01s-.01-.02-.01-.02h-.01s-.01-.02-.01-.02h-.01s-.01-.02-.01-.02h-.01s-.01-.02-.01-.02h-.01s-.01-.02-.01-.02h-.01s0-.02,0-.02h-.01s0-.02,0-.02h0s0-.01,0-.01h0s0-.01,0-.01h0s0-.01,0-.01h0s0,0,0,0h0s0,0,0,0h0s0,0,0,0h0s0,0,0,0h0s0,0,0,0h0s0,0,0,0h-.01s0,0,0,0h0s-.01,0-.01,0h-.01s0,0,0,0h-.01s-.01,0-.01,0h-.01s-.01,0-.01,0h-.01s-.01,0-.01,0h-.01s-.01,0-.01,0h-.01s-.01,0-.01,0h-.01s-.01,0-.01,0h-.01s-.01,0-.01,0h-.01s-.01,0-.01,0h-.01s-.01,0-.01,0h-.02s0,0,0,0h-.05s-.01,0-.01,0h-.02s-.01,0-.01,0h-.02s-.01,0-.01,0h-.01s-.01,0-.01,0h-.01s-.01,0-.01,0h-.01c-.79-.41-1.41-.99-1.7-1.96-.24-.44-.4-.91-.53-1.39,.05-.04,.09-.09,.12-.15,.02-.03,.03-.06,.05-.08t0,0s0,0,.01,0c.03,0,.05-.01,.08-.02,.06,0,.13-.02,.19-.02,.1,0,.21,0,.31,0h0c.08,.08,.17,.15,.27,.19,.14,.43,.32,.85,.52,1.27,.16,.48,.47,.9,.92,1.15,.35,.18,.74,.31,1.1,.48,.57,.19,.36,1.01-.16,1.01-.06,0-.12-.01-.18-.03"/><path class="cls-1" d="M3.92,43.37s-.05,0-.08,.01c.03,0,.05-.01,.08-.01"/><path class="cls-1" d="M12.32,41.99c-1.06-.15-1.63-1.38-.88-2.21,.5-.52,1.2-.8,1.74-1.26,.18-.63,1.17-.36,1.02,.28-.33,.85-1.42,1.06-2.01,1.69-.3,.43,.45,.59,.75,.51,.38-.17,.89-.5,1.16,.01,.27,.7-.72,1.04-1.41,1.04-.15,0-.28-.02-.38-.05"/><path class="cls-1" d="M12.39,48.33c-.71-.66,.52-1.38,.91-1.85,.26-.4,.43-.87,.64-1.3,.57-1.1,.51-2.37,.96-3.5,.11-.56,.43-1.1,.25-1.67-.25-.38-.57-.82-1.02-.95-.52,.83-1.64-.07-.81-.64,1.11-1.29,3.12,.88,2.91,2.14-.14,.91-.51,1.76-.7,2.66-.09,.92-.35,1.8-.76,2.63-.28,.58-.49,1.22-1.01,1.63-.23,.13-.4,.41-.59,.64-.12,.09-.23,.18-.35,.27-.05,.02-.09,.03-.14,.03-.09,0-.18-.03-.29-.09"/><path class="cls-1" d="M7,49.22h-.01s-.01-.02-.01-.02h-.01s-.01-.02-.01-.02h-.01s-.01-.02-.01-.02h-.01s-.01-.02-.01-.02h-.01s-.01-.02-.01-.02h0s-.01-.02-.01-.02h0s0-.02,0-.02h0s-.01-.01-.01-.01h0s-.01-.01-.01-.01h0s0-.01,0-.01h0s0,0,0,0h0s0,0,0,0h0s0,0,0,0h0s0,0,0,0h0s0,0,0,0h0s0,0,0,0h0s-.01,0-.01,0h0s0,0,0,0h-.01s-.01,0-.01,0h-.01s-.01,0-.01,0h-.01s-.01,0-.01,0h-.01s-.01,0-.01,0h-.01s-.01,0-.01,0h-.01s-.01,0-.01,0h-.01s-.01,0-.01,0h-.02s-.01,0-.01,0h-.02s-.01,0-.01,0h-.01s-.01,0-.01,0h-.07s-.01,0-.01,0h-.01s-.01,0-.01,0h-.02s-.01,0-.01,0h-.01s-.01,0-.01,0h-.01s-.01,0-.01,0h-.01s-.01,0-.01,0h-.01s-.01,0-.01,0h-.01s-.01,0-.01,0h-.01s-.01,0-.01,0h-.01s-.01,0-.01,0h-.01s-.01,0-.01,0h-.01s-.02,0-.02,0h-.01s-.02,0-.02,0h-.02s-.02,0-.02,0h-.02s-.02,.01-.02,.01h-.02s-.02,0-.02,0h-.02s0,0,0,0c.17-.25,.35-.5,.53-.74,.22-.18,.54-.17,.73,.05,.22,.26,.1,.58-.11,.89h0Z"/><path class="cls-1" d="M11.57,48.37c.11-.43,.5-.71,.77-1.05,.22-.33,.67-.64,1.01-.26,.44,.6-.42,1.03-.71,1.47,0,0,0,.01,0,.02,0,0-.01,0-.02,.01h0s0-.03,0-.03h0s0-.02,0-.02h0s0-.02,0-.02h0s0-.01,0-.01h0s0,0,0,0h0s0,0,0,0h-.01s0,0,0,0h-.01s0,0,0,0h-.01s0,0,0,0h0s-.01,0-.01,0h-.04s-.01,0-.01,0h-.01s-.01,0-.01,0h-.02s-.01,0-.01,0h-.01s-.01,0-.01,0h-.01s-.01,0-.01,0h-.01s-.01,0-.01,0h-.01s-.01,0-.01,0h-.01s-.01,0-.01,0h-.01s-.01,0-.01,0h-.01s-.01,0-.01,0h-.01s-.01,0-.01,0h-.01s-.01,0-.01,0h-.01s-.01,0-.01,0h-.01s-.01,0-.01,0h-.01s-.01,0-.01,0h-.01s-.01,0-.01,0h-.01s-.01,0-.01,0h-.01s-.01,0-.01,0h-.01s-.01,0-.01,0h-.01s-.01,0-.01,0h-.01s-.01,0-.01,0h-.01s-.01,0-.01,0h-.01s-.01,0-.01,0h-.01s-.01,0-.01,0h-.01s-.01,0-.01,0h-.01s-.01,0-.01,0h-.01s-.01,0-.01,0h-.01s-.01,0-.01,0h-.01s-.01,0-.01,0h-.01s-.01,0-.01,0h-.01s-.01,0-.01,0h-.01s-.01,0-.01,0h-.01s-.01,0-.01,0h-.01s-.01,0-.01,0h-.01s-.01,0-.01,0c.02-.11,.03-.21,.05-.32"/><path class="cls-1" d="M1.46,46.32c-1.52-.34-1.11-1.43-.48-2.43,.31-.42,.06-1.22,.74-1.26,1.23,.24-.02,1.97-.28,2.6,.41,.23,.85-.2,1.12-.48,.16-.24,.23-.57,.54-.65,.46-.12,.81,.31,1.15,.55,.21,.12,.4,.28,.56,.47,.6,.76-.49,1.52-.85,.6-.17-.16-.37-.25-.54-.41-.4,.52-1.05,1.03-1.74,1.03-.08,0-.15,0-.23-.02"/><path class="cls-1" d="M1.8,43.61c-.58-.09-.55-.72-.2-1.07,.21-.23,.52-.19,.79-.26,.12-.05,.24-.07,.37-.04,.43,.1,.52,.74,.12,.94-.17,.09-.36,.13-.55,.15-.09,.17-.28,.27-.47,.27-.02,0-.04,0-.06,0"/><path class="cls-1" d="M6.65,48.76h.01s.01,0,.01,0h.01s.01,0,.01,0h.01s.01,0,.01,0h.01s.01,0,.01,0h.01s.01,0,.01,0h.01s.01,0,.01,0h.01s.01,0,.01,0h.01s.01,0,.01,0h.01s.01,0,.01,0h.01s.01,0,.01,0h.02s.01,0,.01,0h.11s.01,0,.01,0h.02s.01,0,.01,0h.01s.01,0,.01,0h.01s0,0,0,0h.01s.01,0,.01,0h0s0,0,0,0h.01s0,0,0,0h0s.01,0,.01,0h0s0,0,0,0h0s0,0,0,0h0s0,0,0,0h0s0,0,0,0h0s0,0,0,0h.01s0,.01,0,.01h.01s0,.01,0,.01h.01s.01,.01,.01,.01h.01s.01,.02,.01,.02h.01s.01,.02,.01,.02h.01s.01,.02,.01,.02h.01s.01,.02,.01,.02h.01s.01,.02,.01,.02h.01s.01,.02,.01,.02h.01s.01,.02,.01,.02h.02s.02,.02,.02,.02h.02s.01,.02,.01,.02h.02s.02,.03,.02,.03h.02s0,.02,0,.02c-.35-.08-.69-.18-1.01-.3"/><path class="cls-1" d="M6.56,50.67c-.29-.05-.57-.09-.86-.12-.07,0-.13-.01-.2-.02,.28-.56,.56-1.11,.85-1.66h.02s.02-.01,.02-.01h.02s.02-.01,.02-.01h.02s.02-.01,.02-.01h.01s.01-.01,.01-.01h.02s.01-.01,.01-.01h.01s.01,0,.01,0h.01s.01,0,.01,0h.01s.01,0,.01,0h.01s.01,0,.01,0h.01s.01,0,.01,0h.01s.01,0,.01,0h.01s.01,0,.01,0h.01s.01,0,.01,0h.01s.01,0,.01,0h.01s.01,0,.01,0h.01s.01,0,.01,0h.01s.01,0,.01,0h.01s0,0,0,0h.01s.01,0,.01,0h0s.01,0,.01,0h.01s.01,0,.01,0h.01s.01,0,.01,0h.04s.01,0,.01,0h.04s.01,0,.01,0h.02s.01,0,.01,0h.02s.01,0,.01,0h.01s.01,0,.01,0h.01s0,0,0,0h.01s.01,0,.01,0h0s0,0,0,0h.01s0,0,0,0h0s0,0,0,0h.01s0,0,0,0h0s0,0,0,0h0s0,0,0,0h0s0,0,0,0h0s.01,.01,.01,.01h0s0,.01,0,.01h.01s.01,.01,.01,.01h.01s.01,.01,.01,.01h.01s.01,.02,.01,.02h.01s.01,.02,.01,.02h.01s.01,.02,.01,.02h.01s.01,.02,.01,.02h.01s.01,.02,.01,.02h.01s0,.01,0,.01c-.16,.33-.41,.67-.5,.92-.15,.27-.29,.55-.43,.83,0,0,0,0-.01,0"/><path class="cls-1" d="M11.93,47.87h0s.01,0,.01,0h.01s.01-.01,.01-.01h.01s.01-.01,.01-.01h.01s.01,0,.01,0h.01s.01-.01,.01-.01h.01s.01-.01,.01-.01h.01s.01-.01,.01-.01h.01s.01-.01,.01-.01h.01s.01-.01,.01-.01h.01s.01-.01,.01-.01h.01s.01-.01,.01-.01h.01s.01-.01,.01-.01h.01s.01-.01,.01-.01h.01s.01-.01,.01-.01h.01s.01-.01,.01-.01h.01s.01-.01,.01-.01h.01s.01-.01,.01-.01h.01s.01-.01,.01-.01h.01s.01-.01,.01-.01h.01s.01-.01,.01-.01h.01s.01-.01,.01-.01h.01s.01-.01,.01-.01h.01s.01-.01,.01-.01h.01s.01,0,.01,0h.01s.01,0,.01,0h.01s.01,0,.01,0h.01s.01-.01,.01-.01h.01s.01,0,.01,0h.01s.01,0,.01,0h.01s.01,0,.01,0h.01s.01,0,.01,0h.01s.01,0,.01,0h.01s.01,0,.01,0h.01s.01,0,.01,0h.01s.01,0,.01,0h0s.01,0,.01,0h.01s.01,0,.01,0h.01s0,0,0,0h.04s.01,0,.01,0h0s0,0,0,0h0s.01,0,.01,0h0s0,0,0,0h0s0,.01,0,.01h0s0,.02,0,.02h0s.01,.02,.01,.02h0s0,.03,0,.03h0c-.02,.23-.04,.46-.07,.68-.19,.15-.39,.31-.58,.46,.01-.01,.03-.02,.04-.03-.01,.01-.03,.02-.04,.04,0,0,0,0,0,0,0,0,0,0,0,0t0,0c-.2,.17-.4,.33-.61,.5,.09-.46,.15-.93,.17-1.4"/><path class="cls-1" d="M8.64,65.7s.08-.08,.12-.13c0,.03,.02,.06,.04,.08-.08,.05-.17,.09-.25,.14,.03-.03,.06-.06,.09-.09"/><path class="cls-1" d="M8.64,65.7c.61-.63,1.22-1.25,1.83-1.87-.61,.81-1.24,1.49-1.85,1.89,0,0,.01-.02,.02-.02"/><path class="cls-1" d="M23.7,38.41c0-.06,0-.11,0-.16,0-.05,0-.11,0-.16,0-.06,0-.11,.01-.17,0-.1,0-.19,.01-.28,0-.02,0-.05,0-.07,0-.06,0-.12,.01-.18,0-.07-.01-.14-.04-.19,.52,.36,1.06,.69,1.62,.98,0,.01,0,.02-.01,.03-.03,.08-.02,.17-.03,.26,0,.06,0,.12,0,.18,0,.11-.01,.22-.02,.32,0,.1,0,.2-.01,.29,0,.01,0,.03,0,.04-.53-.26-1.05-.55-1.55-.87"/><path class="cls-1" d="M16.28,23.42c-.02-.34-.04-.69-.06-1.03,.03-.03,.05-.06,.07-.1,.11-.2,.13-.43,.16-.65,.02-.15,.05-.3,.07-.45,.04-.27,.07-.53,.1-.8,.07-.52,.12-1.04,.17-1.55,.07-.61,.14-1.21,.22-1.81,.04-.3,.09-.6,.13-.89,.09-.4,.18-.8,.28-1.19,.03-.12,.06-.24,.08-.36,.03-.13,.06-.25,.09-.38,.04,.03,.1,0,.12-.03-.06,.34-.11,.68-.15,1.02-.17,1.43-.29,2.88-.33,4.33-.11,.08-.19,.2-.21,.34-.04,.32-.05,.65-.06,.98-.02,.33-.03,.67-.04,1.01,0,.26-.01,.53-.02,.79,0,.29,0,.58,0,.86,0,.27,0,.53,0,.79,0,.07,0,.14,0,.21-.03,.03-.05,.06-.08,.09-.06,.1-.08,.2-.08,.32,0,.26,.04,.52,.06,.77,0,.03,0,.05,0,.08,0,.05-.01,.1-.01,.15,0,.09,.02,.17,.06,.24,0,.01,0,.03,0,.04,0,0,0,.01,0,.02,0,.18,.01,.36,.03,.53,.01,.09,.03,.17,.07,.25,.03,.2,.05,.4,.08,.59,0,0,0-.02,0-.02,0,.01,0,.03,0,.04,0,.12,0,.23,.01,.35,0,.05,0,.1,0,.15-.36-1.56-.59-3.15-.75-4.69"/><path class="cls-1" d="M17.71,14.11c-.02-.06-.04-.12-.06-.18,.03-.13,.06-.26,.09-.39,.02-.09,.04-.17,.05-.26,.02-.13,.04-.26,.05-.38,0-.1,0-.19-.02-.29-.03-.09-.07-.18-.14-.24-.07-.06-.17-.1-.27-.11-.05,0-.1,0-.14,.02,0,0,0-.02,0-.03,.03-.16,.05-.32,.06-.48,.01-.14,.03-.28,.03-.42v-.03c1.12-3.54,3.14-6.68,6.6-8.81,2.15-1.56,4.72-2.09,7.34-1.95,.18,.03,.45,.01,.74,0,.71-.04,1.55-.08,1.54,.57-.08,.58-.76,.52-1.38,.47-.29-.02-.56-.05-.75-.01-1.34,0-2.63,0-3.92,.32-1.43,.42-2.77,1.26-3.94,2.14-3.34,2.35-5.19,6.14-5.89,10.08,0,0,0-.01,0-.02"/><path class="cls-1" d="M32.7,1.07c0-.13,.07-.26,.17-.35,.11-.09,.23-.13,.37-.13,.28,0,.5,.28,.48,.55,0,.14-.07,.26-.17,.36-.11,.09-.23,.13-.37,.13-.28,0-.5-.28-.48-.55"/><path class="cls-1" d="M39.39,38.22c0-.07,0-.13,0-.2,.41-.17,.82-.36,1.22-.55,0,.16,0,.32,0,.49,0,.21,0,.43,0,.64-.4,.18-.83,.37-1.28,.55,.02-.31,.04-.62,.06-.93"/><path class="cls-1" d="M48.06,29.45c.07-.33,.14-.65,.21-.98,.09,0,.18-.02,.26-.06-.08,.38-.18,.76-.29,1.14-.07,.02-.15,.04-.21,.07,.01-.05,.02-.11,.04-.16"/><path class="cls-1" d="M44.3,7.86c-1.1-1.81-2.28-3.71-4.13-4.81-1.91-.99-4.09-1.61-6.25-1.47-.1,0-.2,0-.31,.02-.36,.03-.74,.07-.88-.32-.08-.4,.1-.59,.4-.67,.03,0,.06,0,.1,0,.04,0,.08,0,.12,.01-.07-.02-.15-.02-.22,0,.27-.08,.63-.07,.97-.06,.25,0,.48,.01,.64-.02,3.3,.16,6.75,1.41,8.72,4.18,1.71,2.17,2.89,4.65,3.73,7.25-.04,.11-.07,.22-.1,.34-.07,.24-.13,.47-.15,.72-.02,.27,.15,.52,.39,.61-.08,.4-.15,.8-.22,1.21-.03,.18-.06,.37-.09,.56-.56-2.62-1.37-5.19-2.71-7.52"/><path class="cls-1" d="M40.34,49.31c-.3-4.46-.91-8.92-.9-13.39,.23-.76,1.21-.36,1.03,.36,.02,3.98,.54,7.94,.82,11.91,.03,.35,.05,.7,.08,1.05,.03,.35-.25,.54-.52,.54-.24,0-.48-.15-.51-.46"/><path class="cls-1" d="M24.25,51.01c-.28-.02-.5-.27-.48-.55,.1-1.88,.16-3.75,.19-5.63,.05-2.82,.09-5.65,0-8.47,0-.44,.63-.65,.9-.31,.11,.13,.14,.29,.12,.46,.03,1,.07,2.02,.06,3.01,0,2.06-.02,4.12-.07,6.17-.04,1.61-.09,3.22-.18,4.83-.01,.27-.25,.48-.51,.48-.01,0-.02,0-.03,0"/><path class="cls-1" d="M40.74,51.32c-.02-.12-.04-.25-.05-.37-1.17-.23-1.09-1.82,.08-1.98,1.06-.21,1.64,.89,.94,1.68,.03,.39,.18,.96-.35,1.08-.03,0-.07,.01-.1,.01-.24,0-.47-.17-.51-.41"/><path class="cls-1" d="M24.34,52.12c-.27-.02-.51-.27-.48-.55,.02-.17,.04-.33,.06-.5-1.08-.5-.41-2.01,.67-1.8,.78,.13,1.1,1.27,.39,1.71-.1,.43-.01,1.15-.62,1.15,0,0-.02,0-.03,0"/><path class="cls-1" d="M43.02,21.31h0s0-.02,0-.02h0s0-.02,0-.02h0s0-.02,0-.02h0s0-.02,0-.02h0s0-.02,0-.02h0s0-.02,0-.02h0s0-.02,0-.02h0s0-.02,0-.02h0s0-.02,0-.02h0s0-.02,0-.02h0s0-.02,0-.02h0s0-.02,0-.02h0s0-.02,0-.02h0s0-.02,0-.02h0s0-.02,0-.02h0s0-.02,0-.02h0s0-.02,0-.02h0s0-.02,0-.02h0s0-.03,0-.03h0s0-.03,0-.03h0s0-.03,0-.03h0s0-.03,0-.03h0s0-.03,0-.03h0s0-.03,0-.03h0s0-.03,0-.03h0s0-.03,0-.03h0s0-.03,0-.03h0s0-.03,0-.03h0s0-.02,0-.02h0s0-.03,0-.03h0s0-.03,0-.03h0s0-.03,0-.03h0s0-.03,0-.03h0s0-.03,0-.03v-.02s0-.01,0-.01v-.02s0-.01,0-.01h0s0-.03,0-.03h0s0-.03,0-.03h0s0-.03,0-.03h0s0-.03,0-.03h0s0-.03,0-.03h0s0-.03,0-.03h0s0-.03,0-.03h0s0-.03,0-.03h0s0-.03,0-.03h0s0-.03,0-.03h0s0-.03,0-.03h0s0-.03,0-.03h0s0-.03,0-.03v-.02s0-.01,0-.01v-.02s0-.02,0-.02h0s0-.03,0-.03v-.02s0-.02,0-.02v-.02s0-.02,0-.02v-.02s0-.02,0-.02v-.02s0-.02,0-.02v-.02s0-.02,0-.02v-.02s0-.02,0-.02v-.02s0-.02,0-.02v-.02s0-.02,0-.02v-.02s0-.02,0-.02v-.02s0-.02,0-.02v-.02s0-.02,0-.02v-.02s0-.02,0-.02v-.02s0-.02,0-.02v-.02s0-.02,0-.02v-.02s0-.02,0-.02v-.02s0-.02,0-.02v-.02s0-.03,0-.03v-.02s0-.02,0-.02v-.02s0-.02,0-.02v-.02s0-.02,0-.02v-.02s0-.02,0-.02v-.02s0-.02,0-.02v-.02s0-.02,0-.02v-.02s0-.02,0-.02v-.02s0-.02,0-.02v-.03s0-.02,0-.02v-.03s0-.02,0-.02v-.03s0-.03,0-.03v-.03s0-.03,0-.03v-.03s0-.03,0-.03v-.03s0-.03,0-.03v-.03s0-.03,0-.03v-.03s0-.03,0-.03v-.03s0-.03,0-.03v-.03s0-.03,0-.03v-.03s0-.03,0-.03v-.03s0-.03,0-.03c.06-.03,.13-.05,.21-.06,.97,0,.44,1.8,.5,2.42-.01,.23-.03,.46-.04,.69h0Z"/><path class="cls-1" d="M21.34,18.77c.02-.41,.43-.55,.73-.43h0s0,.02,0,.02v.02s-.01,.02-.01,.02v.02s-.01,.02-.01,.02v.02s-.01,.02-.01,.02v.02s-.01,.02-.01,.02v.02s-.01,.02-.01,.02v.02s-.01,.02-.01,.02v.02s-.01,.02-.01,.02v.02s-.01,.02-.01,.02v.02s-.01,.02-.01,.02v.02s-.01,.02-.01,.02v.02s-.01,.02-.01,.02v.02s-.01,.02-.01,.02v.02s-.01,.02-.01,.02v.02s-.01,.02-.01,.02v.02s-.01,.02-.01,.02v.02s-.01,.02-.01,.02v.02s-.01,.02-.01,.02v.02s-.01,.02-.01,.02v.02s-.01,.02-.01,.02v.02s-.01,.02-.01,.02v.02s-.01,.02-.01,.02v.02s-.01,.02-.01,.02v.02s-.01,.02-.01,.02v.02s-.01,.02-.01,.02v.02s-.01,.02-.01,.02v.02s-.01,.02-.01,.02v.02s-.01,.02-.01,.02v.02s-.01,.02-.01,.02v.02s-.01,.02-.01,.02v.02s0,.02,0,.02h0s0,.03,0,.03h0s0,.03,0,.03h0s0,.03,0,.03h0s0,.03,0,.03h0s0,.03,0,.03h0s0,.03,0,.03h0s0,.03,0,.03h0s0,.03,0,.03h0s0,.03,0,.03h0s0,.02,0,.02h0s0,.02,0,.02h0s0,.02,0,.02h0s0,.02,0,.02h0s0,.02,0,.02h0s0,.02,0,.02h0s0,.02,0,.02h0s0,.02,0,.02h0s0,.02,0,.02h0s0,.02,0,.02h0s0,.02,0,.02h0s0,.02,0,.02h0s0,.02,0,.02h0s0,.02,0,.02h0s0,.02,0,.02h0s0,.02,0,.02h0s0,.02,0,.02h0s0,.02,0,.02h0s0,.02,0,.02h0s0,.02,0,.02h0s0,.02,0,.02h0s0,.02,0,.02h0v.02h0s0,.02,0,.02h0s0,.02,0,.02h0s0,.02,0,.02h0s0,.02,0,.02h0s0,.02,0,.02h0s0,.02,0,.02h0c-.05-.47-.1-.95-.14-1.43"/><path class="cls-1" d="M43.81,25.43v-.02s0-.02,0-.02v-.02s0-.02,0-.02v-.02s0-.02,0-.02v-.15h0v-.03h0v-.02h0v-.02h0v-.02h0s0-.02,0-.02h0v-.02h0s0-.02,0-.02h0v-.02h0s0-.02,0-.02h0s0-.02,0-.02h0s0-.02,0-.02h0s0-.02,0-.02h0s0-.02,0-.02h0s0-.02,0-.02h0s0-.02,0-.02h0s0-.02,0-.02h0s0-.02,0-.02h0s0-.02,0-.02h0s0-.02,0-.02h0s0-.02,0-.02h0s0-.02,0-.02h0s0-.02,0-.02h0s0-.02,0-.02h0s0-.02,0-.02h0s0-.02,0-.02h0s0-.02,0-.02h0s0-.02,0-.02h0s0-.02,0-.02h0s0-.02,0-.02h0s0-.02,0-.02h0s0-.02,0-.02h0s0-.02,0-.02h0s0-.02,0-.02h0s0-.02,0-.02h0s0-.02,0-.02h0s0-.02,0-.02h0s0-.02,0-.02h0s0-.02,0-.02h0s0-.02,0-.02h0s0-.02,0-.02h0s0-.02,0-.02h0s0-.02,0-.02h0s0-.02,0-.02h0s0-.01,0-.01h0s0-.02,0-.02h0s0-.02,0-.02h0s0-.02,0-.02h0s0-.02,0-.02h0s0-.02,0-.02h0s0-.02,0-.02h0s0-.01,0-.01c.09-.08,.18-.15,.26-.23,.18-.24,.54-.3,.77-.1,.47,.46-.16,1.07-.89,1.53h0Z"/><path class="cls-1" d="M20.04,25.58c-.16-.11-.39-.26-.55-.43,0-.13,.02-.26,.03-.38,0-.13,.02-.27,.03-.4,0-.05,0-.11,.01-.16,.32-.14,.62,.16,.86,.38,.03,.02,.05,.04,.08,.06h0s0,.02,0,.02h0s0,.03,0,.03h0s0,.03,0,.03h0s0,.03,0,.03h0s0,.03,0,.03h0s0,.03,0,.03h0s0,.02,0,.02h0s0,.02,0,.02h0s0,.03,0,.03h0s0,.03,0,.03h0v.03h0s0,.02,0,.02h0s0,.02,0,.02h0s0,.02,0,.02h0v.02h0v.02h0v.02h0v.02h0v.02h0v.02h0v.02h0v.02h0v.02h0s0,.02,0,.02h0s0,.02,0,.02h0s0,.02,0,.02h0v.02h0s0,.02,0,.02h0v.02h0s0,.02,0,.02h0s0,.02,0,.02h0s0,.02,0,.02h0s0,.02,0,.02h0s0,.02,0,.02h0s0,.02,0,.02h0s0,.02,0,.02h0s0,.02,0,.02h0s0,.02,0,.02h0s0,.02,0,.02h0s0,.02,0,.02h0s0,.02,0,.02h0s0,.02,0,.02h0s0,.02,0,.02h0s0,.02,0,.02h0s0,.02,0,.02h0s0,.02,0,.02h0s0,.02,0,.02h0s0,.02,0,.02h0s0,.02,0,.02h0s0,.02,0,.02h0s0,.02,0,.02h0s0,.02,0,.02h0s0,.02,0,.02c-.17-.07-.33-.16-.49-.26"/><path class="cls-1" d="M24.2,15.29c-.71-.19-1.75-.66-1.75-1.51,.04-.28,.34-.46,.61-.4,.18,.04,.33,.17,.38,.34,.93,1.05,2.48,.56,3.43-.19,.39-.25,.6-.84,1.12-.83,.35,0,.58,.34,.83,.54,.92,.72,1.78,.59,2.56-.24,.89-1.28,1.22-.51,2.08,.24,.69,.6,1.67,.37,2.38-.08,.4-.18,.68-.58,1.07-.72,.62-.1,.78,.68,1.24,.95,.75,.52,1.94,.77,2.76,.29,.54-.39,1.14,.49,.58,.86-1.4,.86-3.5,.37-4.52-.88-1.43,1.15-3.41,1.44-4.69-.1-1.21,1.43-2.89,1.61-4.28,.33-.81,.83-1.97,1.47-3.16,1.47-.21,0-.43-.02-.64-.07"/><path class="cls-1" d="M44.82,27.23l-.04-.04-.04-.04-.04-.04-.04-.04-.04-.03-.04-.03-.04-.02-.04-.02-.04-.02h-.04s-.04-.02-.04-.02h-.04s-.04,0-.04,0h-.04s-.04,0-.04,0h-.04s-.03,0-.03,0h-.03s-.03,.02-.03,.02h-.03s-.03,.02-.03,.02h-.03s-.03,.02-.03,.02h-.03s-.03,.03-.03,.03h-.03s-.02,.02-.02,.02c.16-1.35,0-2.72-.3-4.04,0-.05-.01-.09-.02-.13h0s0-.02,0-.02h0s0-.03,0-.03h0s0-.03,0-.03h0s0-.03,0-.03h0s0-.03,0-.03h0s0-.03,0-.03h0s0-.02,0-.02c-.31-1.78-.8-3.5-1.26-5.23,0,0,0,0,0,0,0,0,0,.02,.01,.04-1.04-3.84-2.68-8.42-6.98-9.51-.76-.2-1.54-.33-2.32-.32-.12-.02-.25-.01-.39,0-.28,.01-.57,.03-.76-.18-.31-.33-.02-.91,.43-.86,.72,.01,1.45-.01,2.16,.12,2.81,.39,5.28,2.17,6.62,4.66,1.42,2.51,2.11,5.35,2.83,8.09,.59,2.52,1.33,5.17,1.01,7.76l-.04-.04ZM32.26,7.67s.02,0,.03,0h0s.04-.01,.07-.02h0s0,0,.01,0c-.03,.01-.07,.02-.11,.03"/><path class="cls-1" d="M19.65,23.43c.37-2.33,1.14-4.56,1.8-6.82,.63-1.99,1.37-3.97,2.52-5.72,.92-1.58,2.43-2.67,4.14-3.24,1.02-.38,2.07-.68,3.13-.94,.44-.12,1.18-.31,1.25,.34,.02,.28-.2,.53-.47,.55-.53,.08-1.15,.27-1.63,.4-2.64,.7-4.64,1.53-5.96,4.08-1.21,2.11-1.91,4.44-2.59,6.76h0s0,.02,0,.02v.02s-.01,.02-.01,.02v.02s-.01,.02-.01,.02v.02s-.01,.02-.01,.02v.02s-.01,.02-.01,.02v.02s-.01,.02-.01,.02v.02s-.01,.02-.01,.02v.02s-.01,.02-.01,.02v.02s-.01,.02-.01,.02v.02s-.01,.02-.01,.02v.02s-.01,.02-.01,.02v.02s-.01,.02-.01,.02v.02s-.01,.02-.01,.02v.02s-.01,.02-.01,.02v.02s0,.02,0,.02v.02s-.01,.02-.01,.02h0s0,.03,0,.03h0s0,.03,0,.03h0s0,.03,0,.03h0s0,.03,0,.03h0s0,.03,0,.03h0s0,.03,0,.03h0s0,.03,0,.03h0s0,.03,0,.03h0s0,.02,0,.02h0s0,.03,0,.03h0s0,.02,0,.02h0s0,.02,0,.02h0s0,.02,0,.02h0s0,.02,0,.02h0s0,.02,0,.02h0s0,.02,0,.02h0s0,.02,0,.02h0s0,.02,0,.02h0s0,.02,0,.02h0s0,.02,0,.02h0s0,.02,0,.02h0s0,.02,0,.02h0s0,.02,0,.02h0s0,.02,0,.02h0s0,.02,0,.02h0s0,.02,0,.02h0s0,.02,0,.02h0s0,.02,0,.02h0s0,.02,0,.02h0v.02h0v.02h0s0,.02,0,.02h0s0,.02,0,.02h0c-.08,.27-.16,.54-.24,.8-.37,1.12-.58,2.24-.66,3.36h0s0,.03,0,.03v.02s0,.02,0,.02v.02s0,.02,0,.02h0s0,.03,0,.03h0s0,.03,0,.03h0s0,.03,0,.03v.02s0,.01,0,.01v.02s0,.01,0,.01v.02s0,.02,0,.02h0s0,.03,0,.03h0s0,.03,0,.03h0s0,.03,0,.03h0s0,.03,0,.03h0s0,.03,0,.03h0s0,.03,0,.03h0s0,.03,0,.03h0s0,.03,0,.03h0s0,.03,0,.03h0s0,.03,0,.03h0s0,.02,0,.02h0s0,.02,0,.02h0s0,.03,0,.03h0s0,.03,0,.03h0s0,.03,0,.03h0s0,.02,0,.02h0s0,.02,0,.02h0s0,.02,0,.02h0v.02h0v.02h0v.02h0v.02h0v.02h0v.02h0v.02h0v.02h0v.02h0v.02h0s0,.02,0,.02h0s0,.02,0,.02h0v.02h0v.02h0v.02h0s0,.02,0,.02h0v.02h0s0,.02,0,.02h0s0,.02,0,.02h0v.02h0s0,.02,0,.02h0s0,.02,0,.02h0s0,.02,0,.02h0s0,.02,0,.02h0s0,.02,0,.02h0s0,.02,0,.02h0s0,.02,0,.02h0s0,.02,0,.02h0s0,.02,0,.02h0s0,.02,0,.02h0s0,.02,0,.02h0s0,.02,0,.02h0s0,.02,0,.02h0s0,.02,0,.02h0s0,.02,0,.02h0s0,.02,0,.02h0s0,.02,0,.02h0s0,.02,0,.02h0s0,.02,0,.02h0s0,.02,0,.02h0s0,.02,0,.02h0s0,.02,0,.02h0s0,.02,0,.02h0s0,.02,0,.02h0s0,.02,0,.02h0s0,.02,0,.02h0s0,.02,0,.02h0s0,.02,0,.02h0c.04,.63,.12,1.24,.25,1.85h-.01s-.02,0-.02,0h-.02s-.02,0-.02,0h-.02s-.02,0-.02,0h-.02s-.02,0-.02,0h-.02s-.02,0-.02,0h-.02s-.02,0-.02,0h-.02s-.02,0-.02,0h-.13s-.02,0-.02,0h-.02s-.02,0-.02,0h-.02s-.02,0-.02,0h-.02s-.02,0-.02,0h-.02s-.02,0-.02,0h-.02s-.02,0-.02,0h-.02s-.02,0-.02,0h-.02s-.02,.01-.02,.01h-.02s-.02,.01-.02,.01h-.02s-.02,.01-.02,.01h-.02s-.02,.01-.02,.01h-.02s-.02,.02-.02,.02h-.02s-.02,.02-.02,.02h-.02s-.02,.02-.02,.02h-.02s-.02,.02-.02,.02h-.02s-.02,.02-.02,.02h-.02s-.02,.02-.02,.02h-.02s-.02,.03-.02,.03h-.02s0,.02,0,.02c-.33-1.52-.39-3.1-.17-4.63"/><path class="cls-1" d="M42.63,19.09c-.07,0-.12-.02-.17-.05h0s0-.03,0-.03v-.02s0-.02,0-.02v-.02s0-.03,0-.03v-.02s0-.03,0-.03v-.02s0-.03,0-.03v-.03s0-.03,0-.03v-.03s0-.03,0-.03v-.03s0-.03,0-.03v-.03s0-.03,0-.03v-.03s0-.03,0-.03v-.03s0-.03,0-.03v-.03s0-.03,0-.03v-.03s0-.03,0-.03v-.03s0-.03,0-.03v-.03s0-.03,0-.03v-.03s0-.03,0-.03v-.03s0-.03,0-.03v-.03s0-.03,0-.03v-.03s0-.03,0-.03v-.03s0-.03,0-.03v-.03s0-.03,0-.03v-.03s0-.03,0-.03v-.03s0-.03,0-.03v-.03s0-.03,0-.03v-.03s0-.02,0-.02v-.02s0-.02,0-.02v-.02s0-.02,0-.02v-.02s-.01-.02-.01-.02v-.02s-.01-.02-.01-.02v-.02s0-.02,0-.02v-.02s-.01-.02-.01-.02v-.02s0-.02,0-.02v-.02s-.01-.02-.01-.02v-.02s-.01-.02-.01-.02v-.02s-.01-.01-.01-.01v-.02s-.01-.01-.01-.01h0s0-.03,0-.03h0s0-.03,0-.03h0s0-.02,0-.02h0s0-.02,0-.02h0s0-.02,0-.02h0s0-.02,0-.02h0s0-.06,0-.09c0-.45,.63-.65,.9-.31,.24,.34,.07,.8,.17,1.19,.04,.46,.15,1.24-.5,1.24,0,0-.01,0-.02,0"/><path class="cls-1" d="M21.36,18.98c-.03-.43-.07-.85-.07-1.28,0-.45,.63-.65,.9-.31,.05,.06,.08,.12,.1,.19h0s0,.03,0,.03v.02s0,.02,0,.02h0s0,.03,0,.03h0s0,.03,0,.03v.02s0,.01,0,.01h0s0,.03,0,.03h0s0,.03,0,.03h0s0,.03,0,.03v.02s0,.01,0,.01h0s0,.03,0,.03h0s0,.03,0,.03h0s0,.03,0,.03h0s0,.03,0,.03h0s0,.03,0,.03h0s0,.03,0,.03v.02s0,.01,0,.01v.02s0,.01,0,.01v.02s0,.01,0,.01v.02s0,.02,0,.02v.02s-.01,.01-.01,.01v.02s-.01,.02-.01,.02v.02s-.01,.02-.01,.02v.02s-.01,.02-.01,.02v.02s-.01,.02-.01,.02v.02s-.01,.02-.01,.02v.02s-.01,.02-.01,.02v.02s-.01,.02-.01,.02v.02s-.01,.02-.01,.02v.02s-.01,.02-.01,.02v.02s-.01,.02-.01,.02v.02s-.01,.02-.01,.02v.02s-.02,.02-.02,.02v.02s-.01,.02-.01,.02v.02s-.01,.02-.01,.02v.02s-.02,.02-.02,.02v.02s-.01,.02-.01,.02v.02s-.01,.02-.01,.02v.02s-.01,.02-.01,.02v.02s-.01,.02-.01,.02v.02s-.01,.02-.01,.02v.02s-.01,.02-.01,.02v.02s-.01,.02-.01,.02v.02s-.01,.02-.01,.02v.02s-.01,.02-.01,.02v.02s-.01,.02-.01,.02v.02s-.01,.02-.01,.02v.02s-.01,.02-.01,.02v.02s-.01,.02-.01,.02v.02s-.01,.02-.01,.02v.02s-.01,.02-.01,.02v.02s-.01,.02-.01,.02v.02s-.01,.02-.01,.02v.02s-.01,.02-.01,.02v.02s-.01,.02-.01,.02v.02s-.01,.02-.01,.02v.02s-.01,.01-.01,.01h0c-.15-.05-.27-.19-.29-.41"/><path class="cls-1" d="M30.85,34.64c-2.53-.33-4.9-1.76-6.63-3.6-1.49-1.72-2.15-3.98-2.37-6.2-.15-1.17-.31-2.37-.44-3.55h0s0-.01,0-.01h0v-.02h0s0-.02,0-.02h0s0-.02,0-.02h0s0-.02,0-.02h0s0-.02,0-.02h0s0-.02,0-.02h0s0-.02,0-.02h0s0-.02,0-.02h0v-.02h0s0-.02,0-.02h0s0-.02,0-.02h0s0-.02,0-.02h0s0-.02,0-.02h0s0-.02,0-.02h0s0-.02,0-.02h0s0-.02,0-.02h0s0-.02,0-.02h0s0-.02,0-.02h0s0-.02,0-.02h0s0-.02,0-.02h0s0-.02,0-.02h0s0-.02,0-.02h0s0-.02,0-.02h0s0-.02,0-.02h0s0-.02,0-.02h0s0-.02,0-.02h0s0-.02,0-.02h0s0-.03,0-.03h0s0-.03,0-.03h0s0-.02,0-.02h0s0-.03,0-.03h0s0-.03,0-.03h0s0-.03,0-.03h0s0-.03,0-.03h0s0-.03,0-.03h0s0-.03,0-.03h0s0-.03,0-.03h0s0-.03,0-.03v-.02s.01-.02,.01-.02v-.02s.01-.02,.01-.02v-.02s.01-.02,.01-.02v-.02s.01-.02,.01-.02v-.02s.01-.02,.01-.02v-.02s.01-.02,.01-.02v-.02s.01-.02,.01-.02v-.02s.01-.02,.01-.02v-.02s.01-.02,.01-.02v-.02s.01-.02,.01-.02v-.02s.01-.02,.01-.02v-.02s.01-.02,.01-.02v-.02s.01-.02,.01-.02v-.02s.01-.02,.01-.02v-.02s.01-.02,.01-.02v-.02s.01-.02,.01-.02v-.02s.01-.02,.01-.02v-.02s.01-.02,.01-.02v-.02s.01-.02,.01-.02v-.02s.01-.02,.01-.02h0s0-.03,0-.03v-.02s.01-.02,.01-.02v-.02s.01-.02,.01-.02v-.02s.02-.02,.02-.02v-.02s.01-.02,.01-.02v-.02s.01-.02,.01-.02v-.02s.01-.02,.01-.02v-.02s.01-.02,.01-.02v-.02s.01-.02,.01-.02v-.02s.01-.02,.01-.02v-.02s0,0,0,0c.16,.07,.29,.21,.3,.43,.16,1.61,.37,3.22,.57,4.83,.21,1.51,.43,3.06,1.24,4.38,.79,1.49,2.12,2.57,3.58,3.38,1.73,1.1,3.85,1.45,5.86,1.15,4.49-.69,7.68-4.11,8.11-8.62,.2-1.58,.31-3.17,.35-4.77-.04-.31-.03-.71,.25-.86v.03s0,.03,0,.03v.03s0,.03,0,.03v.03s0,.03,0,.03v.03s0,.03,0,.03v.03s0,.03,0,.03v.03s0,.03,0,.03v.03s0,.03,0,.03v.03s0,.03,0,.03v.03s0,.03,0,.03v.03s0,.03,0,.03v.03s0,.02,0,.02v.02s0,.03,0,.03v.02s0,.02,0,.02v.02s0,.02,0,.02v.02s0,.02,0,.02v.02s0,.02,0,.02v.02s0,.02,0,.02v.02s0,.02,0,.02v.02s0,.03,0,.03v.02s0,.02,0,.02v.02s0,.02,0,.02v.02s0,.02,0,.02v.02s0,.02,0,.02v.02s0,.02,0,.02v.02s0,.02,0,.02v.02s0,.02,0,.02v.02s0,.02,0,.02v.02s0,.02,0,.02v.02s0,.02,0,.02v.02s0,.02,0,.02v.02s0,.02,0,.02v.02s0,.02,0,.02v.02s0,.02,0,.02v.02s0,.02,0,.02v.02s0,.02,0,.02v.02s0,.02,0,.02v.02s0,.02,0,.02v.02s0,.01,0,.01v.02s0,.01,0,.01v.02s0,.02,0,.02h0s0,.03,0,.03v.02s0,.01,0,.01h0s0,.03,0,.03h0s0,.03,0,.03h0s0,.03,0,.03h0s0,.03,0,.03h0s0,.03,0,.03h0s0,.03,0,.03h0s0,.03,0,.03h0s0,.03,0,.03h0s0,.03,0,.03h0s0,.03,0,.03h0s0,.03,0,.03v.02s0,.01,0,.01h0s0,.03,0,.03h0s0,.03,0,.03h0s0,.03,0,.03h0s0,.03,0,.03h0s0,.03,0,.03h0s0,.03,0,.03h0s0,.03,0,.03h0s0,.02,0,.02h0s0,.03,0,.03h0s0,.03,0,.03h0s0,.03,0,.03h0s0,.03,0,.03h0s0,.03,0,.03h0s0,.03,0,.03h0s0,.03,0,.03h0s0,.02,0,.02h0s0,.02,0,.02h0s0,.02,0,.02h0s0,.02,0,.02h0s0,.02,0,.02h0s0,.02,0,.02h0s0,.02,0,.02h0s0,.02,0,.02h0s0,.02,0,.02h0s0,.02,0,.02h0s0,.02,0,.02h0s0,.02,0,.02h0s0,.02,0,.02h0s0,.02,0,.02h0s0,.02,0,.02h0s0,.02,0,.02h0s0,.02,0,.02h0s0,.02,0,.02h0s0,.02,0,.02h0s0,.02,0,.02h0c-.05,.82-.12,1.64-.22,2.46-.46,5.73-4.99,9.86-10.55,9.86-.43,0-.87-.02-1.31-.08"/><path class="cls-1" d="M41.96,27.34c-.41-.02-.62-.53-.38-.85,.29-.39,.85-.34,1.22-.62,.28-.17,.54-.35,.79-.55h0s0,.01,0,.01h0s0,.02,0,.02h0s0,.02,0,.02h0s0,.02,0,.02h0s0,.02,0,.02h0s0,.02,0,.02h0s0,.02,0,.02h0s0,.02,0,.02h0s0,.02,0,.02h0s0,.02,0,.02h0s0,.02,0,.02h0s0,.02,0,.02h0s0,.02,0,.02h0s0,.02,0,.02h0s0,.02,0,.02h0s0,.02,0,.02h0s0,.02,0,.02h0s0,.02,0,.02h0s0,.02,0,.02h0s0,.02,0,.02h0s0,.02,0,.02h0s0,.02,0,.02h0s0,.02,0,.02h0s0,.02,0,.02h0s0,.02,0,.02h0s0,.02,0,.02h0s0,.02,0,.02h0s0,.02,0,.02h0s0,.02,0,.02h0s0,.02,0,.02h0s0,.02,0,.02h0s0,.02,0,.02h0s0,.02,0,.02h0v.02h0s0,.02,0,.02h0v.02h0s0,.02,0,.02h0s0,.02,0,.02h0s0,.02,0,.02h0s0,.02,0,.02h0s0,.02,0,.02h0s0,.02,0,.02h0s0,.02,0,.02h0v.02h0s0,.02,0,.02h0s0,.02,0,.02h0s0,.02,0,.02h0s0,.02,0,.02h0s0,.02,0,.02h0s0,.02,0,.02h0v.18s0,.02,0,.02v.02s0,.02,0,.02v.02s0,.02,0,.02v.02s0,0,0,0c-.52,.32-1.09,.57-1.35,.64-.1,.11-.25,.18-.4,.18-.01,0-.02,0-.03,0"/><path class="cls-1" d="M22.56,27.33c-.72-.01-1.44-.11-2.1-.4h0s0-.02,0-.02h0s0-.02,0-.02h0s0-.02,0-.02h0s0-.02,0-.02h0s0-.02,0-.02h0s0-.02,0-.02h0s0-.02,0-.02h0s0-.02,0-.02h0s0-.02,0-.02h0s0-.02,0-.02h0s0-.02,0-.02h0s0-.02,0-.02h0s0-.02,0-.02h0s0-.02,0-.02h0s0-.02,0-.02h0s0-.02,0-.02h0s0-.02,0-.02h0s0-.02,0-.02h0s0-.02,0-.02h0s0-.02,0-.02h0s0-.02,0-.02h0s0-.02,0-.02h0v-.02h0v-.02h0v-.02h0v-.02h0s0-.02,0-.02h0s0-.02,0-.02h0v-.02h0v-.02h0v-.02h0v-.02h0v-.02h0v-.02h0v-.02h0v-.02h0s0-.02,0-.02h0v-.02h0v-.02h0s0-.02,0-.02h0s0-.02,0-.02h0s0-.02,0-.02h0s0-.03,0-.03h0s0-.03,0-.03h0s0-.03,0-.03h0s0-.02,0-.02h0s0-.02,0-.02h0s0-.03,0-.03h0s0-.02,0-.02h0s0-.03,0-.03h0s0-.03,0-.03h0s0-.03,0-.03h0s0-.02,0-.02c.27,.19,.57,.32,.89,.41,.43,.12,.87,.14,1.31,.16,.66,.05,.61,1.03-.03,1.03-.01,0-.02,0-.04,0"/><path class="cls-1" d="M43.42,23.78h0s0,.02,0,.02h0s0,.03,0,.03h0s0,.03,0,.03h0s0,.03,0,.03h0s0,.03,0,.03h0s0,.03,0,.03h0v.02c0-.06-.02-.12-.03-.17"/><path class="cls-1" d="M20.52,27.09h0s0-.02,0-.02h0s0-.02,0-.02h0s0-.02,0-.02h0s0-.02,0-.02h0s0-.02,0-.02h0s0-.02,0-.02h0s0-.02,0-.02h0s0-.02,0-.02h0s0-.02,0-.02h0s0-.02,0-.02h0s0-.02,0-.02h0s0-.02,0-.02h0s0-.02,0-.02h0s0-.02,0-.02h0s0-.02,0-.02h0s0-.02,0-.02h0s0-.02,0-.02h0s0-.02,0-.02h0s0-.02,0-.02h0s0-.02,0-.02h0s0-.02,0-.02h0s0-.02,0-.02h0s0-.02,0-.02h0s0-.02,0-.02h0s0-.02,0-.02h0s0-.02,0-.02h0s0-.02,0-.02h0s0-.02,0-.02h0v-.02h0v-.02h0s0-.02,0-.02h0v-.02h0s0-.02,0-.02h0s0-.02,0-.02h0s0-.02,0-.02h0s0-.02,0-.02h0v-.02h0s0-.02,0-.02h0s0-.02,0-.02h0v-.02h0s0-.02,0-.02h0v-.02h0v-.02h0v-.02h0v-.02h0v-.02h0v-.02h0v-.02h0s0-.02,0-.02h0v-.02h0s0-.02,0-.02h0s0-.02,0-.02h0v-.03h0s0-.03,0-.03h0s0-.03,0-.03h0s0-.03,0-.03h0s0-.02,0-.02h0s0-.02,0-.02h0s0-.03,0-.03h0s0-.03,0-.03h0s0-.03,0-.03h0s0-.03,0-.03h0s0-.03,0-.03h0s0-.03,0-.03h0s0-.03,0-.03v-.02s0-.01,0-.01v-.02s0-.02,0-.02h0s0-.03,0-.03h0s0-.03,0-.03h0s0-.03,0-.03h0s0-.03,0-.03v-.02s0-.01,0-.01v-.02s0-.02,0-.02v-.02s0-.02,0-.02v-.02s0-.01,0-.01c-.04,.59-.04,1.17,0,1.75h0Z"/><path class="cls-1" d="M21.42,21.19h0v-.02h0s0-.02,0-.02h0s0-.02,0-.02h0v-.02h0s0-.02,0-.02h0s0-.02,0-.02h0s0-.02,0-.02h0s0-.02,0-.02h0s0-.02,0-.02h0s0-.02,0-.02h0s0-.02,0-.02h0s0-.02,0-.02h0s0-.02,0-.02h0s0-.02,0-.02h0s0-.02,0-.02h0s0-.02,0-.02h0s0-.02,0-.02h0s0-.02,0-.02h0s0-.02,0-.02h0s0-.02,0-.02h0s0-.02,0-.02h0s0-.02,0-.02h0s0-.02,0-.02h0s0-.02,0-.02h0s0-.02,0-.02h0s0-.03,0-.03h0s0-.03,0-.03h0s0-.03,0-.03h0s0-.03,0-.03h0s0-.03,0-.03h0s0-.03,0-.03v-.02s0-.01,0-.01v-.02s0-.01,0-.01v-.02s.01-.02,.01-.02v-.02s.01-.01,.01-.01v-.02s.01-.02,.01-.02v-.02s.01-.02,.01-.02v-.02s.01-.02,.01-.02v-.02s.01-.02,.01-.02v-.02s.01-.02,.01-.02v-.02s.01-.02,.01-.02v-.02s.01-.02,.01-.02v-.02s.01-.02,.01-.02v-.02s.01-.02,.01-.02v-.02s.01-.02,.01-.02v-.02s.01-.02,.01-.02v-.02s.01-.02,.01-.02v-.02s.01-.02,.01-.02v-.02s.01-.02,.01-.02h0c-.12,.42-.24,.84-.37,1.26h0Z"/><path class="cls-1" d="M42.01,18.63c-.01-.16-.01-.33,0-.49h0s0,.01,0,.01h0s0,.02,0,.02h0s0,.02,0,.02h0s0,.02,0,.02h0s0,.02,0,.02h0s0,.02,0,.02h0s0,.03,0,.03h0s0,.03,0,.03v.02s.01,.02,.01,.02v.02s.01,.02,.01,.02v.02s0,.02,0,.02v.02s.01,.02,.01,.02v.02s0,.02,0,.02v.02s.01,.02,.01,.02v.02s0,.02,0,.02v.02s0,.02,0,.02v.02s0,.02,0,.02v.02s0,.03,0,.03v.03s0,.03,0,.03v.03s0,.03,0,.03v.03s0,.03,0,.03v.03s0,.03,0,.03v.03s0,.03,0,.03v.03s0,.03,0,.03v.03s0,.03,0,.03v.03s0,.03,0,.03v.03s0,.03,0,.03v.03s0,.03,0,.03v.03s0,.03,0,.03v.03s0,.03,0,.03v.03s0,.03,0,.03v.03s0,.03,0,.03v.03s0,.03,0,.03v.03s0,.03,0,.03v.03s0,.03,0,.03v.03s0,.03,0,.03v.03s0,.03,0,.03v.03s0,.03,0,.03v.03s0,.02,0,.02v.02s0,.02,0,.02v.02s0,.02,0,.02v.02s0,.02,0,.02h0c-.5-.21-.25-1.03-.37-1.49"/><path class="cls-1" d="M21.58,20.49h0s0-.03,0-.03v-.02s.01-.02,.01-.02v-.02s.01-.02,.01-.02v-.02s.01-.02,.01-.02v-.02s.01-.02,.01-.02v-.02s.01-.02,.01-.02v-.02s.01-.02,.01-.02v-.02s.01-.02,.01-.02v-.02s.01-.02,.01-.02v-.02s.01-.02,.01-.02v-.02s.01-.02,.01-.02v-.02s.01-.02,.01-.02v-.02s.01-.02,.01-.02v-.02s.01-.02,.01-.02v-.02s.01-.02,.01-.02v-.02s.01-.02,.01-.02v-.02s.01-.02,.01-.02v-.02s.01-.02,.01-.02v-.02s.01-.01,.01-.01v-.02s.01-.02,.01-.02v-.02s.01-.02,.01-.02v-.02s.01-.02,.01-.02v-.02s.01-.02,.01-.02v-.02s.01-.02,.01-.02v-.02s.01-.02,.01-.02v-.02s.01-.02,.01-.02v-.02s.02-.02,.02-.02v-.02s.01-.02,.01-.02v-.02s.01-.02,.01-.02v-.02s.01-.02,.01-.02v-.02s.01-.02,.01-.02v-.02s.01-.02,.01-.02v-.02s.01-.02,.01-.02v-.02s.01-.01,.01-.01v-.02s.01-.02,.01-.02v-.02s.01-.02,.01-.02v-.02s.01-.02,.01-.02h0s0-.03,0-.03v-.02s0-.01,0-.01v-.02s0-.01,0-.01h0s0-.03,0-.03h0s0-.03,0-.03h0s0-.03,0-.03h0s0-.03,0-.03h0s0-.03,0-.03h0s0-.03,0-.03h0s0-.03,0-.03h0s0-.03,0-.03h0s0-.03,0-.03h0s0-.03,0-.03h0s0-.03,0-.03h0s0-.03,0-.03v-.02s0-.02,0-.02v-.02s0-.01,0-.01v-.02s0-.02,0-.02v-.02s0-.02,0-.02h0c.02,.06,.03,.14,.02,.21,0,.37,.05,.73,.07,1.1,.02,.35-.25,.54-.52,.54-.07,0-.15-.01-.22-.04"/><path class="cls-1" d="M42.09,18.01c-.02-.42-.04-.85-.07-1.27-.1-.4,.37-.71,.66-.39,.12,.13,.09,.3,.11,.46,.02,.38,.04,.77,.06,1.15,.01,.26-.19,.4-.39,.4-.18,0-.36-.11-.37-.35"/><path class="cls-1" d="M42.13,21.55c-.02-1.6-.04-3.16-.04-4.72-.07-.38,.43-.64,.68-.33,.16,.22,.05,.53,.08,.79,.02,1.45,.02,2.81,.04,4.22,0,.25-.19,.39-.38,.39-.18,0-.36-.11-.37-.35"/><path class="cls-1" d="M42.62,23.07c-.57-.08-.27-.76-.28-1.14,.1-.92,.18-1.85,.24-2.77,0-.33,.46-.48,.66-.23,.21,.32,.02,.76,.04,1.12-.06,.72-.13,1.44-.2,2.16-.04,.32,0,.86-.44,.86,0,0-.01,0-.02,0"/><path class="cls-1" d="M43.1,26.64c-.19-.07-.32-.29-.24-.49,.09-.22,.33-.3,.49-.45,.03-.24,.53-.67,.77-.73,.27-.06,.51,.19,.45,.46-.05,.3-.99,1.23-1.39,1.23-.03,0-.06,0-.08-.02m.48-.24s-.05,.09-.08,.13c.04-.04,.06-.08,.08-.13t0,0"/><path class="cls-1" d="M43.34,26.43c-.18-.4,.23-.51,.47-.71-.02,.02-.04,.04-.05,.06,.27-.36,.85,0,.64,.4-.15,.2-.46,.45-.73,.45-.13,0-.25-.06-.33-.2"/><path class="cls-1" d="M21.4,20.88c-.03-.45-.07-.9-.11-1.36-.03-.5-.08-1-.08-1.51,.05-.47,.75-.44,.76,.03,.14,.09,.19,.27,.17,.44,0,.48,.02,.97,.02,1.45,.01,.37,.03,.74,.04,1.12,.04,.26-.05,.6-.36,.6h-.01c-.41,0-.41-.46-.42-.76"/><path class="cls-1" d="M32.33,37.18c.52-.14,1-.27,1.5-.43,4.28-1.5,8.43-4.7,9.76-9.12,.14-.44,.23-.89,.29-1.34h.02s.03-.02,.03-.02h.03s.03-.03,.03-.03h.03s.03-.02,.03-.02h.03s.03-.02,.03-.02h.03s.04-.01,.04-.01h.04s.04-.01,.04-.01h.04s.04,0,.04,0h.04s.04,0,.04,0h.04s.04,.02,.04,.02l.04,.02,.04,.02,.04,.02,.04,.03,.04,.03,.04,.03,.04,.04,.04,.04,.04,.04,.03,.04c-.08,.61-.21,1.21-.42,1.8-1.45,4.65-7.4,9.28-12.21,9.81-.4-.18-.37-.83,.06-.95"/><path class="cls-1" d="M32.13,38.13c-1.37-.2-2.65-.75-3.94-1.19-1.88-.6-3.54-1.76-5.01-3.04-1.83-1.77-3.08-4.12-3.62-6.6h0s.02-.02,.02-.02h.02s.02-.03,.02-.03h.02s.02-.02,.02-.02h.02s.02-.02,.02-.02h.02s.02-.02,.02-.02h.02s.02-.02,.02-.02h.02s.02-.02,.02-.02h.02s.02-.02,.02-.02h.02s.02-.01,.02-.01h.02s.02-.01,.02-.01h.02s.02-.01,.02-.01h.02s.02-.01,.02-.01h.02s.02,0,.02,0h.02s.02,0,.02,0h.02s.02,0,.02,0h.02s.02,0,.02,0h.02s.02,0,.02,0h.02s.02,0,.02,0h.02s.02,0,.02,0h.11s.02,0,.02,0h.02s.02,0,.02,0h.02s.02,0,.02,0h.02s.02,0,.02,0h.02s.02,0,.02,0h.02s.02,0,.02,0h.02s.02,0,.02,0h.01c.78,3.63,3.18,6.8,6.95,8.5,1.53,.55,3.05,1.2,4.65,1.51,.65,.03,.62,1.03,0,1.03-.02,0-.04,0-.05,0"/><path class="cls-1" d="M30.49,40.74c-1.85-.76-3.82-1.19-5.77-1.6-1.4-.27-2.84-.48-4.12-1.16-3.22-1.6-4.15-5.36-4.45-8.65-.44-3.64-.33-7.32,.11-10.95,.28-2.39,.66-4.78,1.27-7.11,.2-.54,.2-1.69,1.02-1.51,.62,.24,.19,.9,.1,1.32-.76,2.8-1.21,5.69-1.49,8.57-.4,4.28-.75,13.09,2.37,16.27,2.21,2.26,5.63,2.02,8.46,2.92,.67,.17,1.32,.4,1.98,.6,.45,.21,1.36,.3,1.17,.99-.09,.26-.4,.42-.66,.32"/><path class="cls-1" d="M32.93,40.5c-.06-.27,.12-.56,.4-.61,1.31-.26,2.62-.46,3.94-.63,1.55-.21,3.09-.4,4.6-.8,3.04-.64,4.47-2.9,5.13-5.54,.12,.1,.25,.18,.39,.25,.16,.07,.33,.11,.5,.12,.02,0,.04,0,.06,0,0,0,.02,0,.03,0-.6,2.37-1.78,4.45-4.15,5.56-2.27,1.01-4.78,1.19-7.21,1.54-1.03,.13-2.05,.32-3.08,.51-.03,0-.06,0-.1,0-.24,0-.46-.16-.51-.41"/><path class="cls-1" d="M47.53,28.34c.09-3.01,.1-6.02-.19-9.02-.25-2.52-.65-4.99-1.34-7.42-.12-.47-.24-.93-.37-1.4-.15-.4-.32-1,.25-1.13,.71-.1,.68,.83,.86,1.31,.6,2.15,1.13,4.37,1.39,6.59,.41,2.86,.49,5.76,.48,8.65-.02,1.13-.03,2.36-.1,3.6-.2,0-.41,.06-.59,.15-.15,.07-.29,.16-.42,.28-.02,.02-.04,.03-.05,.05,.04-.56,.07-1.11,.08-1.65"/><path class="cls-1" d="M31.06,28.71c.3-1.53,4.16-2.58,5.58-2.81,.49-.07,.59,.69,.1,.75-1.74,.32-3.58,.87-4.91,2.05-.07,.38-.68,.39-.77,0"/><path class="cls-1" d="M32.2,24.19c-.7-.16-.96-.96-.77-1.59,.09-.37,.29-.69,.41-1.04,.09-.21,.06-.46,.18-.65,.26-.34,.74-.04,.68,.3,.03,.63-1.01,1.87-.34,2.23,.12,.04,.24,.04,.37,.04,.33-.02,.51,.43,.27,.65-.1,.09-.23,.12-.37,.12-.14,0-.29-.03-.42-.06"/><path class="cls-1" d="M28.05,23.56c-2.15-.06-3.38-1.76-2.48-3.77,1.01-2.24,4.46-2.29,5.15,.16,.29,1.1-.03,2.36-.94,3.07-.45,.38-1.15,.76-1.73,.54m.36-.71c2.33-.46,2.21-4.15-.39-3.99-1.46,.06-2.5,1.91-1.71,3.16,.39,.54,1.1,.71,1.73,.77,.13,0,.27-.02,.38,.06"/><path class="cls-1" d="M27.64,22.1c-.82-.38-.99-1.75-.22-2.25,.24-.13,.52-.16,.79-.2,.73,.04,1.31,.77,1.17,1.49-.07,.5-.47,1.06-1.03,1.01-.22,.11-.51,.05-.72-.05"/><path class="cls-1" d="M36.82,23.56c-2.15-.06-3.38-1.76-2.48-3.77,1.01-2.24,4.46-2.29,5.15,.16,.29,1.1-.03,2.36-.94,3.07-.45,.38-1.15,.76-1.73,.54m.36-.71c2.33-.46,2.21-4.15-.39-3.99-1.46,.06-2.5,1.91-1.71,3.16,.39,.54,1.1,.71,1.73,.77,.13,0,.27-.02,.38,.06"/><path class="cls-1" d="M36.41,22.1c-.82-.38-.99-1.75-.22-2.25,.24-.13,.52-.16,.79-.2,.73,.04,1.31,.77,1.17,1.49-.07,.5-.47,1.06-1.02,1.01-.22,.11-.51,.05-.72-.05"/><path class="cls-3" d="M34.15,15.67c-.22,.52,.69,1.09,2.03,1.28,1.34,.18,2.6-.09,2.82-.61,.22-.52-.69-1.09-2.03-1.28-1.34-.18-2.6,.09-2.82,.61"/><path class="cls-5" d="M38.56,16.94c1.59-.64,.95-1.78-.34-2.01-1.21-.28-2.72-.3-3.94,.35-.56,.29-.75,.84-.49,1.23,.29,.48,1.05,.58,1.7,.66,.31,.1,.72,.04,1.07,.06,.66,0,1.35-.05,2-.29m-.72-.5c-.66,.14-1.32,.09-1.97,.07-.35-.11-.78-.08-1.09-.24-.83-.56,1.25-.85,1.73-.82,.76-.08,3.37,.51,1.34,.99"/><path class="cls-7" d="M38.56,16.94c1.59-.64,.95-1.78-.34-2.01-1.21-.28-2.72-.3-3.94,.35-.56,.29-.75,.84-.49,1.23,.29,.48,1.05,.58,1.7,.66,.31,.1,.72,.04,1.07,.06,.66,0,1.35-.05,2-.29Zm-.72-.5c-.66,.14-1.32,.09-1.97,.07-.35-.11-.78-.08-1.09-.24-.83-.56,1.25-.85,1.73-.82,.76-.08,3.37,.51,1.34,.99Z"/><path class="cls-3" d="M25.66,15.67c-.22,.52,.69,1.09,2.03,1.28,1.34,.18,2.6-.09,2.82-.61s-.69-1.09-2.03-1.28c-1.34-.18-2.6,.09-2.82,.61"/><path class="cls-5" d="M30.07,16.94c1.59-.64,.95-1.78-.34-2.01-1.21-.28-2.72-.3-3.94,.35-.56,.29-.75,.84-.49,1.23,.29,.48,1.05,.58,1.7,.66,.31,.1,.72,.04,1.07,.06,.66,0,1.35-.05,2-.29m-.72-.5c-.66,.14-1.32,.09-1.97,.07-.35-.11-.78-.08-1.09-.24-.83-.56,1.25-.85,1.73-.82,.76-.08,3.37,.51,1.34,.99"/><path class="cls-7" d="M30.07,16.94c1.59-.64,.95-1.78-.34-2.01-1.21-.28-2.72-.3-3.94,.35-.56,.29-.75,.84-.49,1.23,.29,.48,1.05,.58,1.7,.66,.31,.1,.72,.04,1.07,.06,.66,0,1.35-.05,2-.29Zm-.72-.5c-.66,.14-1.32,.09-1.97,.07-.35-.11-.78-.08-1.09-.24-.83-.56,1.25-.85,1.73-.82,.76-.08,3.37,.51,1.34,.99Z"/></svg>