<?xml version="1.0" encoding="UTF-8"?><svg id="_レイヤー_9" xmlns="http://www.w3.org/2000/svg" viewBox="0 0 61.4 130.46"><defs><style>.cls-1{fill:#88c0dd;}.cls-1,.cls-2,.cls-3,.cls-4,.cls-5{stroke-linecap:round;stroke-linejoin:round;stroke-width:.6px;}.cls-1,.cls-2,.cls-3,.cls-4,.cls-5,.cls-6,.cls-7{stroke:#040000;}.cls-2,.cls-8{fill:#fff;}.cls-3,.cls-9{fill:#e9da21;}.cls-4{fill:#025999;}.cls-10{fill:#040000;}.cls-11{fill:#c68f00;}.cls-12{fill:#1961ad;}.cls-5,.cls-6,.cls-7{fill:none;}.cls-6{stroke-width:.19px;}.cls-6,.cls-7{stroke-miterlimit:10;}.cls-7{stroke-width:.11px;}</style></defs><g><path class="cls-11" d="M46.36,124c-.47-1.15-1.81-2.11-3.46-2.7-.66-.27-2.79-1.09-2.75-1.55-.16-.83-.91-1.36-1.85-1.6-1.84-.87-4.59-.9-6.44,.14-.09,.05-.18,.09-.26,.14-.03,.06-.06,.11-.09,.17-.04,.09-.08,.18-.12,.28-.09,.32-.11,.65-.3,.95-.2,.3-.49,.55-.85,.72-.13,.06-.26,.12-.4,.16-.14,.04-.29,.07-.43,.09-.21,.04-.42,.07-.64,.09-.08,0-.17,.01-.25,.02-.04,0-.08,0-.12,0-.17,0-.35-.01-.52-.03-.01,0-.02,0-.03,0-.17-.01-.34-.03-.51-.07-.05-.01-.1-.03-.15-.05,0,0-.02,0-.03-.01-.04-.02-.08-.03-.12-.05-.01,0-.03-.01-.04-.02-.03-.02-.06-.03-.1-.05-.02-.01-.03-.02-.04-.03-.03-.02-.06-.04-.09-.06-.34-.24-.58-.57-.74-.91-.1-.21-.19-.43-.27-.65-.02-.07-.05-.14-.07-.21,0-.02-.02-.05-.02-.07-.08-.01-.16-.02-.25-.03-.03,0-.06,0-.09,0,0,0,0,0,0,0h-.11s0,0,0,0c-.04,0-.08,0-.12,.01-.04,0-.08,0-.12,.01-.16,.03-.32,.06-.47,.1,0,0-.02,0-.03,0h0c-.06,.01-.11,.03-.17,.05h0s-.03,0-.04,.01c-.04,.01-.08,.03-.12,.04-.03,.01-.06,.02-.1,.03,0,0,0,0-.01,0-.02,0-.04,.01-.07,.02,0,0,0,0,0,0h0s-.09,.03-.13,.04c-.04,.01-.08,.03-.12,.04-.09,.03-.18,.07-.27,.1-.02,0-.04,.02-.07,.02-.12,.04-.23,.09-.35,.13-.19,.08-.38,.15-.57,.23-.05,.02-.1,.04-.15,.06-.18,.07-.35,.15-.52,.22-.01,0-.02,0-.03,.01,0,0,0,0,0,0,0,0,0,0,0,0-.05,.02-.1,.04-.16,.06,0,0,0,0-.01,0-.01,0-.02,0-.04,.01-.04,.01-.08,.02-.13,.03-.02,0-.03,0-.05,.01,0,0-.01,0-.02,0-.04,0-.08,.01-.12,.02-.01,0-.02,0-.03,0h0s-.03,0-.05,0c-.04,0-.09,0-.13,0-.02,0-.04,0-.07,0-.03,0-.06,0-.09,0-.02,0-.05,0-.07,0,0,0-.02,0-.03,0-.03,0-.06,0-.08-.01-.02,0-.04,0-.07-.01-.01,0-.03,0-.04,0-.02,0-.05-.01-.07-.02-.02,0-.04-.01-.06-.02-.02,0-.03-.01-.05-.02-.02,0-.04-.01-.06-.02-.03-.01-.06-.02-.08-.04-.02,0-.04-.02-.05-.02-.03-.02-.07-.04-.1-.06,0,0-.02-.01-.03-.02,0,0-.01,0-.02-.01-.04-.03-.08-.05-.12-.08,0,0,0,0,0,0-.04-.03-.08-.07-.12-.11-.01,0-.02-.02-.03-.03-.03-.03-.05-.06-.07-.09-.02-.03-.04-.05-.06-.08-.05-.08-.1-.17-.13-.26-.65,.17-1.28,.36-1.92,.5-1.03,.35-2.52,.25-3.72,.47-5.79,.64-8.88,3.48-2.67,5.3,.53,.54,1.42,.94,2.47,1.24,.53,.39,.99,.81,1.71,1.07,.22,.08,.45,.15,.68,.22,.19,.18,.4,.34,.62,.49,1.82,1.26,4.48,2,7.17,2.1,.32,.01,.64,.02,.96,.02,2.38,0,4.75-.38,6.75-1.18,1.12-.4,2.11-.98,3.37-1.22,1.3-.21,2.63-.16,3.96-.11,.7,.03,1.4,.05,2.1,.04,.53-.01,1.09-.09,1.62-.21,.58-.06,1.13-.21,1.58-.46,1.78-.7,2.85-2,2.19-3.31"/><path class="cls-12" d="M59.21,40.85l-1.47-2.63-.69-2.04-2.53,1.49-2.37,.11-1.87-.32-1.18-.84-1.3-1.32-4.64-1.46-2.82,.1h-2.04l-1.59,.13,.33,2.72-.99,4.41-1.74,8.81-3.07,7.76-.84,1.62-.46-1.28-2.46-6.45-2.39-10.02-.55-7.47-2.23,.71-5.75,1.14-3,1.53,1.59,.71-.15,2.23-1.38,2.12-1.08,1.04-.45,1.36-.49,1.71,.49,.72-.54,1.61-4.75,.13-2.79,1.15-1.37,3.22-.7,3.64v2l.22,1.94,1.4,2.56,2.32,.89,2.29-.89,2.51-2.13,3.34-6.98,.66,2.58s.11,16.21,.39,20.49c.28,4.28,2.11,5.45,2.11,5.45l-.87,4.71-.22,7.21,1.21,7.53,3.07,7.94,2.22-1.18,2.74,.55,.37,2.44,1.73-1.65-.43-7.78,1.03-7.7,2.18-4.29,.96-1.39,1.19,.3,.55,1.66,.82,4.2-.29,6.21-1.8,7.15-1.24,4.68,1.24,1.27,1.38,.68,2.32-1.01,1.57-2.9,3.93-8.7,2.29-7.36,1.94-7.43,.81-6.39-.27-1.94,1.41-2.24,1.53-3.37-1.7-5.66-1.19-4.88v-1.92l-.85-3.71,1.21-5.03,.8-1.19,.39-.59,4.69,1.33,4.2,.24,1.5-1.13,.9-1.06,.71-2.29,.43-3.98-.44-3.55Zm-27.89,36.38l-2.85-.07,.75-6.5,.92-3.58,2.04,4.49,2,5.15-2.86,.52Z"/><polygon class="cls-8" points="6.17 47.75 5.61 48.77 7.91 49.48 11.11 48.29 12.11 47.11 13.57 45.42 14.65 43.75 14.8 42.02 15.41 40.12 15.16 38.23 13.57 37.51 11.8 38.73 10.44 35.97 9.89 34.9 8.76 34.14 7.61 35.16 7.62 37.51 5.77 36.24 3.93 37.15 3.93 38.74 2.75 39.24 2.35 40.12 2.35 41.58 1.36 41.83 .42 44.18 1.36 44.97 2.22 44.47 3.04 43.6 5.14 46.55 6.17 47.75"/><polygon class="cls-8" points="44.84 29.59 47.35 28.23 48.7 26.68 50.06 22.87 50.52 20.97 52.53 20.39 53.42 21.47 53.85 23.53 55.26 21.47 57.3 22.39 56.82 25.4 58.74 24.54 59.99 26.42 59.43 27.27 58.43 28.15 60.67 29.04 60.75 31.95 60.57 32.56 59.38 32.28 58.68 30.59 56.54 32.77 54.92 33.92 55.98 36.86 54.31 37.5 50.31 37.42 49.49 36.51 49.48 33.31 47.27 32.52 45.24 32.26 44.44 30.64 44.84 29.59"/><polygon class="cls-8" points="36.64 14.95 33.56 17.47 28.97 19.33 22.73 20.71 20.93 21.48 20.24 23.2 19.38 21.35 17.9 22.19 17.02 23.35 17.67 25.73 19.16 27.49 20.75 28.08 22.39 31.55 24.76 33.7 28.42 35.04 29.41 36.34 30.58 37.33 31.91 36.84 33.3 34.69 35.44 33.66 38.03 31.98 39.73 28.47 41.98 27.43 43.02 26.14 43.22 24.73 43.35 22.86 42.27 21.45 41.29 21.73 40.6 22.52 38.47 20.06 36.64 14.95"/><polygon class="cls-8" points="20.63 110.15 20.96 111.45 24.31 111.9 25.46 112.26 25.16 109.94 23.64 109.17 22.4 109.17 20.63 110.15"/><polygon class="cls-8" points="31.2 114.28 30.92 115.88 31.82 116.53 33.44 116.15 33.45 115.45 31.2 114.28"/><polygon class="cls-8" points="3.51 50.35 4.81 48.6 7.11 49.09 9.22 48.87 12.23 48.57 11.44 51.17 7.46 51.5 5.15 50.79 3.51 50.35"/><polygon class="cls-8" points="25.04 33.94 28.2 35.26 30.86 37.57 33.57 34.93 37.03 33.69 37.03 37.08 34.43 49.43 33.53 51.37 33.16 49.25 31.83 41.94 32.13 40.93 32.11 38.82 31.36 37.79 30.23 37.69 29.87 39.16 29.77 41.91 28.7 54.57 26.78 50.67 25.04 43.09 24.46 36.88 25.04 33.94"/><polygon class="cls-9" points="20.1 22.9 21.62 20.88 24.49 20.33 32.74 18.42 36.12 16.13 36.99 15.25 37.36 18.46 40.6 22.78 41.58 21.37 43.04 22.21 44.04 18.38 43.95 15.18 41.05 10.62 37.54 8.83 36.39 8.41 33.33 7.19 28.59 6.83 23.51 8.26 20.54 10.62 18.49 13.39 17.58 15.96 16.99 19.13 17.79 21.78 18.83 21.29 20.1 22.9"/><polygon class="cls-6" points="20.1 22.9 21.62 20.88 24.49 20.33 32.74 18.42 36.12 16.13 36.99 15.25 37.36 18.46 40.6 22.78 41.58 21.37 43.04 22.21 44.04 18.38 43.95 15.18 41.05 10.62 37.54 8.83 36.39 8.41 33.33 7.19 28.59 6.83 23.51 8.26 20.54 10.62 18.49 13.39 17.58 15.96 16.99 19.13 17.79 21.78 18.83 21.29 20.1 22.9"/><polygon class="cls-9" points="18.87 112.23 20.75 111.44 24.21 111.97 26.17 112.5 25.72 117.75 24.74 118.53 18.46 121 13.52 118.64 12.86 116.41 14.17 114.28 17.12 112.8 18.87 112.23"/><polygon class="cls-6" points="18.87 112.23 20.75 111.44 24.21 111.97 26.17 112.5 25.72 117.75 24.74 118.53 18.46 121 13.52 118.64 12.86 116.41 14.17 114.28 17.12 112.8 18.87 112.23"/><polygon class="cls-9" points="30.59 115.81 31.49 116.46 33.47 116.66 34.97 120.26 35.73 122.42 35.73 123.78 34.13 125.65 31.35 123.55 30.62 122.04 30.14 118.29 30.59 115.81"/><polygon class="cls-6" points="30.59 115.81 31.49 116.46 33.47 116.66 34.97 120.26 35.73 122.42 35.73 123.78 34.12 125.65 31.35 123.55 30.62 122.04 30.14 118.29 30.59 115.81"/><polygon class="cls-9" points="29.67 39.2 30.13 41.92 29.39 46.11 28.54 54.89 30.71 59.79 33.85 52.44 32.2 41.92 32.23 38.8 31.22 37.83 30.34 37.73 29.67 39.2"/><polygon class="cls-6" points="29.67 39.2 30.13 41.92 29.39 46.11 28.54 54.89 30.71 59.79 33.85 52.44 32.2 41.92 32.23 38.8 31.22 37.83 30.34 37.73 29.67 39.2"/><path class="cls-9" d="M31.17,76.95c.33,0,1.52-2.43,1.52-2.43l-2.48-6.44-1.08,6.19,2.03,2.68Z"/><path class="cls-6" d="M31.17,76.95c.33,0,1.52-2.43,1.52-2.43l-2.48-6.44-1.08,6.19,2.03,2.68Z"/><polygon class="cls-8" points="28.98 74.91 28.75 77.08 34.18 77.08 33.07 74.91 31.31 76.64 28.98 74.91"/><polygon class="cls-8" points="49.11 36.6 49.22 39.29 52.06 40.62 54.02 40.39 57.96 37.81 57.29 35.36 55.08 37.2 53.04 37.41 49.11 36.6"/><path class="cls-10" d="M28.47,77.43c-.66-.05-.57-1.1,.1-1.03,1.39,.02,2.78-.02,4.16-.03,.29,0,.57,0,.86-.03,.44,0,.63,.26,.61,.53-.03,.29-.32,.59-.84,.52-1.26,.03-2.52,.05-3.78,.05-.37,0-.74,0-1.11,0"/><path class="cls-10" d="M29.42,79.81c-.15,0-.29,0-.44-.01h-.01s-.01,0-.01,0h-.01s-.01,0-.01,0h-.01s-.01,0-.01,0h-.01s-.01,0-.01,0h-.01s-.01,0-.01,0h-.01s-.01,0-.01,0h-.01s-.01,0-.01,0h-.01s-.01,0-.01,0h-.01s0,0,0,0h-.01s0,0,0,0h0s0,0,0,0h0s0,0,0,0h0s0,0,0,0h0s0,0,0,0h0s0,0,0,0h0s0,0,0,0h-.01s0,0,0,0h-.04s0,0,0,0h0s0,0,0,0h0s0,0,0,0h0s0,0,0,0h0s0,0,0,0h0s0,0,0,0h0s0,0,0,0h0s0,0,0,0h0s0,0,0,0h0s0,0,0,0h0s0,0,0,0h0s0,0,0,0h0s0,0,0,0h0s0,0,0,0h0s0,0,0,0h0s0,0,0,0h0s0,0,0,0h0s0,0,0,0h0s0,0,0,0h0s0,0,0,0h0s0,0,0,0h0s0,0,0,0h0s0,0,0,0h0s0,0,0,0h0s0,0,0,0h0s0,0,0,0h0s0,0,0,0h0s0,0,0,0h0s0,0,0,0h0s0,0,0,0h0c-.09,0-.19,0-.28,0-.44-.02-.63-.64-.28-.91,.35-.18,.79-.14,1.22-.1,.26,.02,.51,.05,.74,.02,1.51,.02,3.01,.03,4.51-.04,.47-.02,1.29-.23,1.34,.47-.03,.58-.6,.57-1.13,.56-.21,0-.42-.01-.57,.02-.27,.01-.53,.02-.8,.03h-.01s-.01,0-.01,0h-.01s-.01,0-.01,0h0s0,0,0,0h0s0,0,0,0h0s0,0,0,0h-.01s0,0,0,0h0s0,0,0,0h-.11s0,0,0,0h-.01s0,0,0,0h-.02s0,0,0,0h0s0,0,0,0h-.01s0,0,0,0h0s0,0,0,0h-.01s0,0,0,0h0s0,0,0,0h0s0,0,0,0h-.01s0,0,0,0h0s0,0,0,0h0s0,0,0,0h-.01s0,0,0,0h0s0,0,0,0h0s0,0,0,0h0s0,0,0,0h0s0,0,0,0h0s0,0,0,0h0s0,0,0,0h0s0,0,0,0h0c-.3,0-.6,0-.9,0-.78,0-1.56-.01-2.34-.03"/><path class="cls-10" d="M29.37,78.81c-.04-.45-.07-.88-.06-1.32,.01-.22-.02-.49,.15-.67,.19-.2,.54-.12,.64,.13,.05,.1,.04,.23-.02,.33-.02,.42,0,.84,.04,1.26,.01,.16,.05,.32-.06,.45-.07,.1-.18,.15-.29,.15-.18,0-.37-.12-.39-.32m.1-1.45s-.06-.07-.08-.12c0,.02,.01,.03,.02,.04t0,0s.03,.05,.05,.07t0,0s0,0,0,0"/><path class="cls-10" d="M33.23,79.46c-.21,0-.37-.17-.38-.37-.03-.52-.03-1.04-.02-1.56-.15-.78,.74-.95,.76-.26-.01,.52-.01,1.04,0,1.56,.05,.28-.03,.62-.36,.63h0Z"/><path class="cls-10" d="M45.62,78.56c.04-.68,1.15-.59,1.03,.11h0s0,0,0,0h-.01s0,.01,0,.01h0s-.01,.01-.01,.01h0s-.01,.01-.01,.01h0s-.01,.02-.01,.02h-.01s0,.01,0,.01h0s0,.02,0,.02h0s0,.01,0,.01h0s0,.01,0,.01h0s0,.01,0,.01h0s0,.01,0,.01h0s0,.01,0,.01h0s0,.01,0,.01h0s0,.01,0,.01h0s0,.01,0,.01h0s0,.01,0,.01h0s0,.01,0,.01h0s0,.01,0,.01h0s0,.01,0,.01h0s0,.01,0,.01h0s0,.01,0,.01h0s0,.01,0,.01h0s0,.01,0,.01h0s0,.01,0,.01h0s0,0,0,0h0s0,.01,0,.01h0s0,0,0,0h0s0,0,0,0h0s0,0,0,0h0s0,0,0,0h0s0,0,0,0h0s0,0,0,0h0s0,0,0,0h0s0,.01,0,.01h0s0,0,0,0h0s0,.01,0,.01h0s0,.01,0,.01h0s0,.01,0,.01h0s0,.01,0,.01h0s0,.01,0,.01h0s0,.01,0,.01h0s0,.01,0,.01h0s0,.01,0,.01h0s0,.01,0,.01h0s0,.01,0,.01h0s0,.01,0,.01h0s0,.01,0,.01h0s0,.01,0,.01h0s0,.01,0,.01h0s0,.01,0,.01h0s0,.01,0,.01h0s0,.01,0,.01h0s0,.01,0,.01h0s0,0,0,0h0s0,.01,0,.01h0s0,.01,0,.01h0s0,0,0,0h0s0,0,0,0h0s0,.01,0,.01h0s0,0,0,0h0s0,0,0,0h0s0,.01,0,.01h0s0,.01,0,.01h0s0,.01,0,.01h0s0,.01,0,.01h0s0,0,0,0h0s0,0,0,0h0s0,0,0,0h0s0,0,0,0h0s0,0,0,0h0s0,0,0,0h0s0,0,0,0h0s0,0,0,0h0s0,0,0,0h0s0,0,0,0h0s0,0,0,0h0s0,0,0,0h0s0,0,0,0h0s0,0,0,0h0s0,0,0,0h0s0,0,0,0h0s0,0,0,0h0s0,0,0,0h0s0,0,0,0h0s0,0,0,0h0s0,0,0,0h0s0,0,0,0h0s0,0,0,0h0s0,0,0,0h0s0,0,0,0h0s0,0,0,0h0s0,0,0,0h0s0,0,0,0h0s0,0,0,0h0s0,0,0,0h0s0,0,0,0h0s0,0,0,0h0s0,0,0,0h0s0,0,0,0h0s0,0,0,0h0s0,0,0,0h0s0,0,0,0h0s0,0,0,0h0s0,0,0,0h0c-.03-.34-.12-.68-.11-1.02"/><path class="cls-10" d="M29.41,79.88h-.01s0,0,0,0h-.02s0,0,0,0h-.03s0,0,0,0h0s0,0,0,0h0s0,0,0,0h0s0,0,0,0h-.01s0,0,0,0h0s0,0,0,0h0s0,0,0,0h0s0,0,0,0h0s0,0,0,0h0s0,0,0,0h0s0,0,0,0h0s0,0,0,0h0s0,0,0,0h0s0,0,0,0h0s0,0,0,0h0s0,0,0,0h0s0,0,0,0h0s0,0,0,0h0s0,0,0,0h0s0,0,0,0h0s-.01,0-.01,0h0s-.01,0-.01,0h-.01s-.01,0-.01,0h-.01s-.01,0-.01,0h-.01s-.01,0-.01,0h-.01s-.01,0-.01,0h-.01s-.01,0-.01,0h-.01s-.01,0-.01,0h-.01s-.01,0-.01,0h-.01s-.01,0-.01,0h-.01s-.01,0-.01,0h-.01s-.01,0-.01,0h0s0,0,0,0h-.01s0,0,0,0h0s0,0,0,0h0s0,0,0,0h0s0,0,0,0h-.01s0,0,0,0h0s0,0,0,0h0s0,0,0,0h-.06s0,0,0,0h0s0,0,0,0h0s0,0,0,0h0s0,0,0,0h0s0,0,0,0h0s0,0,0,0h0s0,0,0,0h0s0,0,0,0h0s0,0,0,0h0s0,0,0,0h0s0,0,0,0h0s0,0,0,0h0s0,0,0,0h0s0,0,0,0h0s0,0,0,0h0s0,0,0,0h0s0,0,0,0h0s0,0,0,0h0s0,0,0,0h0s0,0,0,0h0s0,0,0,0h0s0,0,0,0h0s0,0,0,0h0s0,0,0,0h0s0,0,0,0h0s0,0,0,0h0s0,0,0,0h0s0,0,0,0h0s0,0,0,0h0s0,0,0,0h0s0,0,0,0h0s0,0,0,0h0s0,0,0,0h0s0,0,0,0h0s0,0,0,0h0s0,0,0,0h0c0-.2,.03-.4,.05-.61,.1-.82,1.34-.52,1,.25,0,.14-.01,.29-.02,.43h0Z"/><path class="cls-10" d="M32.42,79.44c.16-.34,.72-.22,.72,.17,0,.07,0,.14,0,.21h0s-.01,0-.01,0h0s0,0,0,0h0s0,0,0,0h0s0,0,0,0h-.02s0,0,0,0h-.02s0,0,0,0h-.05s0,0,0,0h-.01s0,0,0,0h0s0,0,0,0h-.03s0,0,0,0h0s0,0,0,0h-.02s0,0,0,0h-.01s0,0,0,0h0s0,0,0,0h-.01s0,0,0,0h-.01s0,0,0,0h0s0,0,0,0h0s0,0,0,0h0s0,0,0,0h0s0,0,0,0h-.01s0,0,0,0h0s0,0,0,0h-.01s0,0,0,0h0s0,0,0,0h0s0,0,0,0h0s0,0,0,0h0s0,0,0,0h-.01s0,0,0,0h0s0,0,0,0h0s0,0,0,0h-.01s0,0,0,0h0s0,0,0,0h-.01s0,0,0,0h0s0,0,0,0h0s0,0,0,0h-.01s0,0,0,0h0s0,0,0,0h-.02s0,0,0,0h0s0,0,0,0h0s0,0,0,0h0s0,0,0,0h-.02s0,0,0,0h0s0,0,0,0h-.02s0,0,0,0h-.02s0,0,0,0h0s0,0,0,0h0c0-.14,0-.28,.01-.41"/><path class="cls-10" d="M17.8,83.84h0s0,0,0,0h0s0,0,0,0h0s0,0,0,0h0s0,0,0,0h0s0,0,0,0h0s0,0,0,0h0s0,0,0,0h0s0,0,0,0h0s0,0,0,0h0s0,0,0,0h0s0,0,0,0h0s0,0,0,0h0s0,0,0,0h0s0,0,0,0h0s0,0,0,0h0s0,0,0,0h0s0,0,0,0h0s0,0,0,0h0s0,0,0,0h0s0,0,0,0h0s0,0,0,0h0s0,0,0,0h0s0,0,0,0h0s0,0,0,0h0s0,0,0,0h0s0,0,0,0h0s0,0,0,0h0s0,0,0,0h0s0,0,0,0h0s0,0,0,0h0s0,0,0,0h0s0,0,0,0h0s0,0,0,0h0s0,0,0,0h0s0,0,0,0h0s0,0,0,0h0s0,0,0,0h0s0,0,0,0h0s0,0,0,0h0s0,0,0,0h0s0,0,0,0h0s0,0,0,0h0s0,0,0,0h0s0,0,0,0h0s0,0,0,0h0s0,0,0,0h0s0,0,0,0h0s0,0,0,0h0s0,0,0,0h0s0,0,0,0h0s0,0,0,0h0s0,0,0,0h0s0,0,0,0h0s0,0,0,0h0s0,0,0,0h0s0,0,0,0h0s0,0,0,0h0s0,0,0,0h0s0,0,0,0h0s0,0,0,0h0s0,0,0,0h0s0,0,0,0h0s0,0,0,0h0s0,0,0,0h0s0,0,0,0h0s0,0,0,0h0s0,0,0,0h0s0,0,0,0h0s0,0,0,0h0s0,0,0,0h0s0,0,0,0h0s0,0,0,0h0s0,0,0,0h0s0,0,0,0h0s0,0,0,0h0s0,0,0,0h0s0,0,0,0h0s0,0,0,0h0s0,0,0,0h0s0,0,0,0h0s0,0,0,0h0s0,0,0,0h0s0,0,0,0h0s0,0,0,0h0s0,0,0,0h0s0,0,0,0h0s0,0,0,0h0s0,0,0,0h0s0,0,0,0h0s0,0,0,0h0s0,0,0,0h0s0,0,0,0h0s0,0,0,0h0s0,0,0,0h0s0,0,0,0h0s0,0,0,0h0s0,0,0,0h0s0,0,0,0h0s0,0,0,0h0s0,0,0,0h0s0,0,0,0h0s0,0,0,0h0s0,0,0,0h0s0,0,0,0h0s0,0,0,0h0s0,0,0,0h0s0,0,0,0h0s0,0,0,0h0s0,0,0,0h0s0,0,0,0h0s0,0,0,0h0s0,0,0,0h0s0,0,0,0h0s0,0,0,0h0s0,0,0,0h0s0,0,0,0h0s0,0,0,0h0s0,0,0,0h0s0,0,0,0h0l.04-.23c.26-.86,1.33-.35,.96,.45-.01,.08-.03,.17-.04,.25h0Z"/><path class="cls-10" d="M45.29,33.52s-.08-.05-.12-.08c-.08-.05-.16-.1-.25-.15h0s0,0,0,0h0s0,0,0,0h0s0,0,0,0h0s0,0,0,0h0s0,0,0,0h.01s0,0,0,0h0s0,0,0,0h0s0,0,0,0h.01s0,0,0,0h.01s0,0,0,0h0s0,0,0,0h0s0,0,0,0h0s0,0,0,0h0s0,0,0,0h0s0,0,0,0h0s0,0,0,0h0s0,0,0,0h0s0,0,0,0h0s0,0,0,0h0s0,0,0,0h0s0,0,0,0h0s0,0,0,0h0s0,0,0,0h0s0,0,0,0h0s0,0,0,0h0s0,0,0,0h0s0,0,0,0h0s0,0,0,0h0s0,0,0,0h0s0,0,0,0h0s0,0,0,0h0s0,0,0,0h0s0,0,0,0h0s0,0,0,0h0s0,0,0,0h0s0,0,0,0h0s0,0,0,0h0s0,0,0,0h0s0,0,0,0h0s0,0,0,0h0s0,0,0,0h0s0,0,0,0h0s0,0,0,0h0s0,0,0,0h0s0,0,0,0h0s0,0,0,0h0s0,0,0,0h0s0,0,0,0h0s0,0,0,0h0s0,0,0,0h0s0,0,0,0h0s0,0,0,0h0s0,0,0,0h0s0,0,0,0h0s0,0,0,0h0s0,0,0,0h0s0,0,0,0h0s0,0,0,0h0s0,0,0,0h0s0,0,0,0h0s0,0,0,0h0s0,0,0,0h0s0,0,0,0h0s0,0,0,0h0s0,0,0,0h0s0,0,0,0h0s0,0,0,0h0s0,0,0,0h0s0,0,0,0h0s0,0,0,0h0s0,0,0,0h0s0,0,0,0h0s0,0,0,0h0s0,0,0,0h0c-.12,0-.23-.02-.34-.05"/><path class="cls-10" d="M49.1,35.65h0s0,0,0,0h0s0,0,0,0h0s0,0,0,0h0s0,0,0,0h0s0,0,0,0h0s0,0,0,0h0s0,0,0,0h0s0,0,0,0h0s0,0,0,0h0s0,0,0,0h0s0,0,0,0h0s0,0,0,0h0s0,0,0,0h0s0,0,0,0h0s0,0,0,0h0s0,0,0,0h0s0,0,0,0h0s0,0,0,0h0s0,.01,0,.01h0s0,0,0,0h0s0,0,0,0h0s0,0,0,0h0s0,0,0,0h0s0,0,0,0h0s0,0,0,0h0s0,.01,0,.01h0s0,0,0,0h0s0,0,0,0h0s0,.01,0,.01h0s0,0,0,0h0s0,.01,0,.01h0s0,.01,0,.01h0s0,.01,0,.01h0s0,.01,0,.01h0v.02h0v.02h0s0,.01,0,.01h0v.02h0v.02h0v.02h0v.02h0v.02h0s0,.01,0,.01h0s0,.02,0,.02h0s0,.02,0,.02h0s0,.01,0,.01h0s0,.01,0,.01h0s0,.01,0,.01h0s0,.01,0,.01h0s0,0,0,0h0s0,.01,0,.01h0s0,.01,0,.01h0s0,.01,0,.01h0s0,.01,0,.01h0s0,.01,0,.01h0s0,.01,0,.01h0s0,.01,0,.01h0s0,.01,0,.01h0s0,.01,0,.01h0s0,0,0,0h0s0,.01,0,.01h0s0,.01,0,.01h0s0,.01,0,.01h0s0,0,0,0c-.02-.22-.04-.43-.06-.65"/><path class="cls-10" d="M14.25,56.59h0s0,0,0,0h0s0-.02,0-.02h0s0-.01,0-.01h0s0-.01,0-.01h0s0,0,0,0h0s0,0,0,0h0s0-.01,0-.01h0s0-.01,0-.01h0s0-.01,0-.01h0s0-.01,0-.01h0s0,0,0,0h0s0,0,0,0h0s0-.01,0-.01h0s0,0,0,0h0s0,0,0,0h0s0-.01,0-.01h0s0-.01,0-.01h0s0-.01,0-.01h0v-.02h0s0-.01,0-.01h0s0-.01,0-.01h0s0-.02,0-.02h0s0-.02,0-.02h0s0-.02,0-.02h0s0-.02,0-.02h0s0-.02,0-.02h0s0-.02,0-.02h0s0-.02,0-.02h0s0-.02,0-.02h0s0-.02,0-.02h0s0-.02,0-.02h0s0-.02,0-.02h0s0-.02,0-.02h0s0-.02,0-.02h0s0-.02,0-.02h0s0-.02,0-.02h0s0-.02,0-.02h0s0-.02,0-.02h0s0-.02,0-.02h0s0-.02,0-.02h0s0-.02,0-.02h0s0-.02,0-.02h0s0-.02,0-.02h0s0-.01,0-.01h0s0-.02,0-.02h0s0-.01,0-.01h0s0-.01,0-.01h0s0-.01,0-.01h0s0-.01,0-.01h0s0-.01,0-.01h0s0-.01,0-.01h0s0-.01,0-.01h0s0-.01,0-.01h0s0-.01,0-.01h0s0-.01,0-.01h0s0-.01,0-.01h0s0-.01,0-.01h0s0-.01,0-.01h0s0-.01,0-.01h0s0-.01,0-.01h0s0-.01,0-.01h0s0-.01,0-.01h0s0-.01,0-.01h0s0-.01,0-.01h0s0-.01,0-.01h0s0-.01,0-.01h0s0-.01,0-.01h0s0-.01,0-.01h0s0-.01,0-.01h0s0-.01,0-.01h0s0-.01,0-.01h0s0-.01,0-.01h0s0,0,0,0c.02-.02,.05-.04,.07-.05,.53-.41,1.16,.4,.63,.82-.12,.09-.24,.19-.37,.28h0Z"/><path class="cls-10" d="M14.99,57.58c-.1-.19-.41-.76-.77-1.52h0s0-.01,0-.01h0s0-.02,0-.02h0s0-.02,0-.02h0s0-.02,0-.02h0s0-.02,0-.02h0s0-.02,0-.02h0s0-.02,0-.02h0s0-.02,0-.02h0s0-.02,0-.02h0s0-.01,0-.01h0s0-.01,0-.01h0s0-.01,0-.01h0s0-.02,0-.02h0s0-.01,0-.01h0s0-.01,0-.01h0s0-.01,0-.01h0s0-.01,0-.01h0s0-.01,0-.01h0s0-.01,0-.01h0s0-.01,0-.01h0s0-.01,0-.01h0s0-.01,0-.01h0s0-.01,0-.01h0s0-.01,0-.01h0s0-.01,0-.01h0s0,0,0,0c-.44-.93-.94-2.05-1.29-3.05h0s0-.02,0-.02h0s0-.02,0-.02h0s0-.02,0-.02h0s0-.02,0-.02h0v-.02h0v-.02h0v-.02h0s0-.02,0-.02h0s0-.02,0-.02h0v-.02h0s0-.02,0-.02h0s0-.02,0-.02h0s0-.02,0-.02h0s0-.02,0-.02h0s0-.02,0-.02h0s0-.02,0-.02h0s0-.02,0-.02h0s0-.02,0-.02h0v-.02h0s0-.02,0-.02h0s0-.02,0-.02h0s0-.02,0-.02h0s0-.02,0-.02h0s0-.02,0-.02h0s0-.02,0-.02h0s0-.02,0-.02h0s0-.02,0-.02h0v-.02h0s0-.02,0-.02h0v-.02h0s0-.02,0-.02h0v-.02h0s0-.02,0-.02h0v-.02h0s0-.02,0-.02h0v-.02h0s0-.02,0-.02h0s0-.03,0-.03h0s0-.03,0-.03h0v-.03h0v-.03h0v-.06s0-.02,0-.02v-.03s0-.02,0-.02v-.04s0-.02,0-.02v-.04s0-.02,0-.02v-.02s0-.02,0-.02v-.02s0-.02,0-.02v-.17s0-.02,0-.02v-.02s0-.02,0-.02v-.03s0-.02,0-.02v-.03s0-.01,0-.01v-.02s0-.01,0-.01h0s0-.03,0-.03v-.02s0-.01,0-.01v-.02s0-.01,0-.01h0s0-.03,0-.03h0s0-.03,0-.03v-.02s0-.01,0-.01h0s0-.03,0-.03h0s0-.03,0-.03h0s0-.03,0-.03v-.02s0-.02,0-.02v-.02s0-.01,0-.01v-.02s0-.02,0-.02v-.02s0-.02,0-.02v-.02s.01-.02,.01-.02v-.02s0-.02,0-.02v-.02s.01-.02,.01-.02v-.02s.01-.02,.01-.02v-.02s.02-.02,.02-.02v-.02s.02-.02,.02-.02v-.02s.02-.02,.02-.02v-.02s.02-.03,.02-.03v-.02s.03-.03,.03-.03l.02-.03,.02-.03,.02-.03,.02-.03,.02-.03,.02-.03h0c.22,.1,.3,.35,.31,.59,.13,.63,.3,1.25,.51,1.85,.56,1.53,1.28,3.04,2.04,4.45,.23,.4-.12,.78-.47,.78-.16,0-.32-.07-.42-.25"/><path class="cls-10" d="M46.17,51.03c.19-.34,.58-.29,.86-.12h0s0,.01,0,.01h0s0,.01,0,.01h0s0,.01,0,.01h0s0,.01,0,.01h0s0,.01,0,.01h0s0,.01,0,.01h0s0,.01,0,.01h0s0,.01,0,.01h0s0,.01,0,.01h0s0,.01,0,.01h0s0,.01,0,.01h0s0,.01,0,.01h0s0,.01,0,.01h0s0,0,0,0h0s0,.01,0,.01h0s0,.01,0,.01h0s0,0,0,0h0s0,.01,0,.01h0s0,0,0,0h0s0,.01,0,.01h0s0,0,0,0h0s0,.01,0,.01h0s0,.01,0,.01h0s0,0,0,0h0s0,0,0,0h0s0,.02,0,.02h0s0,0,0,0h0s0,.01,0,.01h0s0,.02,0,.02h0s0,.01,0,.01h0s0,.01,0,.01h0s0,.01,0,.01h0s0,.01,0,.01h0s0,.01,0,.01h0s0,.02,0,.02h0s0,.02,0,.02h0s0,.02,0,.02h0s0,.01,0,.01h0s0,.01,0,.01h0s0,.02,0,.02h0s0,.02,0,.02h0v.02h0s0,.02,0,.02h0s0,.02,0,.02h0v.02h0v.02h0s0,.02,0,.02h0s0,.02,0,.02h0s0,.02,0,.02h0s0,.02,0,.02h0v.02h0v.02h0s0,.02,0,.02h0s0,.02,0,.02h0s0,.02,0,.02h0s0,.02,0,.02h0s0,.02,0,.02h0s0,.02,0,.02h0v.02h0v.02h0v.02h0v.02h0v.02h0v.02h0v.02h0v.02h0v.02h0v.02h0v.02h0c-.45-.17-.97-.42-.71-.95"/><path class="cls-10" d="M44.86,57.81c-.27-.05-.47-.33-.41-.6,.23-.99,.5-1.96,.74-2.95,.65-2.9,1.43-5.82,1.73-8.77,.01-.26,.21-.48,.47-.5,.6-.02,.6,.59,.52,1.02-.13,1.31-.42,2.6-.69,3.89-.08,.36-.15,.72-.23,1.08h0s0,0,0,0h0s0,.01,0,.01h0s0,.01,0,.01h0s0,.01,0,.01h0s0,.01,0,.01h0s0,.01,0,.01h0s0,.01,0,.01h0s0,.01,0,.01h0s0,.01,0,.01h0s0,.01,0,.01h0s0,.01,0,.01h0s0,0,0,0h0s0,.01,0,.01h0s0,0,0,0h0s0,0,0,0h0s0,.01,0,.01h0s0,.01,0,.01h0s0,0,0,0h0s0,0,0,0h0s0,.01,0,.01h0s0,0,0,0h0s0,.01,0,.01h0s0,.01,0,.01h0s0,.01,0,.01h0v.02h0s0,.01,0,.01h0s0,0,0,0h0s0,.02,0,.02h0s0,.01,0,.01h0s0,.01,0,.01h0s0,.01,0,.01h0c-.29,1.36-.6,2.7-.94,4.04-.17,.68-.36,1.36-.52,2.05-.05,.24-.27,.42-.51,.42-.03,0-.06,0-.1,0"/><path class="cls-10" d="M22.78,33.08s-.01,0-.02-.01c-.05-.05-.1-.09-.15-.14-.07-.07-.13-.15-.21-.22,.01-.01,.03-.02,.05-.03,.08-.05,.15-.1,.23-.16,.03,.04,.07,.08,.1,.11,0,0,.01,.02,.02,.03,.02,.06,.04,.12,.05,.17,.02,.08,.05,.15,.09,.22-.05,0-.1,.01-.15,.02,0,0,0,0,0,0"/><path class="cls-10" d="M21.46,84.72c-1.4-.17-2.62-.43-3.65-.88h0s0,0,0,0h0s0,0,0,0h0s0,0,0,0h0s0,0,0,0h0s0,0,0,0h0s0,0,0,0h0s0,0,0,0h0s0,0,0,0h0s0,0,0,0h0s0,0,0,0h0s0,0,0,0h0s0,0,0,0h0s0,0,0,0h0s0,0,0,0h0s0,0,0,0h0s0,0,0,0h0s0,0,0,0h0s0,0,0,0h0s0,0,0,0h0s0,0,0,0h0s0,0,0,0h0s0,0,0,0h0s0,0,0,0h0s0,0,0,0h0s0,0,0,0h0s0,0,0,0h0s0,0,0,0h0s0,0,0,0h0s0,0,0,0h0s0,0,0,0h0s0,0,0,0h0s0,0,0,0h0s0,0,0,0h0s0,0,0,0h0s0,0,0,0h0s0,0,0,0h0s0,0,0,0h0s0,0,0,0h0s0,0,0,0h0s0,0,0,0h0s0,0,0,0h0s0,0,0,0h0s0,0,0,0h0s0,0,0,0h0s0,0,0,0h0s0,0,0,0h0s0,0,0,0h0s0,0,0,0h0s0,0,0,0h0s0,0,0,0h0s0,0,0,0h0s0,0,0,0h0s0,0,0,0h0s0,0,0,0h0s0,0,0,0h0s0,0,0,0h0s0,0,0,0h0s0,0,0,0h0s0,0,0,0h0s0,0,0,0h0s0,0,0,0h0s0,0,0,0h0s0,0,0,0h0s0,0,0,0h0s0,0,0,0h0s0,0,0,0h0s0,0,0,0h0s0,0,0,0h0s0,0,0,0h0s0,0,0,0h0s0,0,0,0h0s0,0,0,0h0s0,0,0,0h0s0,0,0,0h0s0,0,0,0h0s0,0,0,0h0s0,0,0,0h0s0,0,0,0h0s0,0,0,0h0s0,0,0,0h0s0,0,0,0h0s0,0,0,0h0s0,0,0,0h0s0,0,0,0h0s0,0,0,0h0s0,0,0,0h0s0,0,0,0h0s0,0,0,0h0s0,0,0,0h0s0,0,0,0h0s0,0,0,0h0s0,0,0,0h0s0,0,0,0h0s0,0,0,0h0s0,0,0,0h0s0,0,0,0h0s0,0,0,0h0s0,0,0,0h0s0,0,0,0h0s0,0,0,0h0s0,0,0,0h0s0,0,0,0h0s0,0,0,0h0s0,0,0,0h0s0,0,0,0h0s0,0,0,0h0s0,0,0,0h0s0,0,0,0h0s0,0,0,0h0c-1.68-1.04-2.6-2.76-2.53-5.62,0-3.47,.08-6.92-.16-10.39-.14-2.8-.19-5.61-.06-8.42,.04-.83,.08-1.67,.13-2.5-.03-.38,.18-.7,.57-.68,.3,.02,.51,.3,.47,.59-.04,.61-.06,1.22-.1,1.84-.06,1.08-.1,2.16-.11,3.24-.07,4.33,.4,8.65,.32,12.97,.06,2.31-.53,5.68,1.18,7.45,.94,.94,2.26,1.31,3.52,1.61,.33,.07,.66,.12,.99,.16,.26,.05,.57,.01,.76,.23,.29,.3,.04,.86-.37,.86-.02,0-.04,0-.06,0"/><path class="cls-10" d="M36.61,81.68c-2.62-3.02-4.18-6.8-5.6-10.5-.48-1.5-1.21-3.05-1.26-4.63,.19-.54,1.04-.38,1,.2,.89,3.83,2.47,7.51,4.34,10.96,.66,1.11,1.33,2.23,2.2,3.19,.4,.34,.05,.91-.36,.91-.11,0-.22-.04-.32-.14"/><path class="cls-10" d="M39.19,83.34c-.67-.07-1.32-.35-1.77-.86-.43-.41-1.48-1.41-.38-1.69,.52,.02,.93,.93,1.39,1.22,1.65,.96,3.41-.68,4.73-1.56,1.79-1.45,3.68-3.09,4.45-5.32,.43-1.66-.36-3.3-.9-4.84-.88-2.28-1.42-4.66-1.7-7.08-.16-1.37-.35-2.73-.53-4.1-.04-.68-.48-2.19,.57-2.18,.72,.19,.21,1.14,.4,1.63,.43,2.92,.62,5.89,1.38,8.76,.67,2.96,2.97,6.07,1.39,9.09-.36,.7-.98,1.55-1.76,2.42h0s0,0,0,0h0s0,.01,0,.01h0s0,.01,0,.01h0s0,.01,0,.01h0s0,.01,0,.01h0s0,.01,0,.01h0s0,.01,0,.01h0s0,.01,0,.01h0s0,.01,0,.01h0s0,.01,0,.01h0s0,.01,0,.01h0s0,.01,0,.01h0s0,.01,0,.01h0s0,0,0,0h0s0,.01,0,.01h0s0,0,0,0h0s0,0,0,0h0s0,0,0,0h0s0,.01,0,.01h0s0,0,0,0h0s0,0,0,0h0s0,0,0,0h0s0,0,0,0h0s0,0,0,0h0s0,.01,0,.01h0s0,0,0,0h0s0,.01,0,.01h0s0,.01,0,.01h0s0,0,0,0h0s0,.01,0,.01h0s0,.01,0,.01h0s0,.01,0,.01h0s0,.01,0,.01h0s0,.01,0,.01h0s0,.01,0,.01h0s0,.01,0,.01h0s0,.01,0,.01h0s0,.01,0,.01h0s0,0,0,0h0s0,.01,0,.01h0s0,.01,0,.01h0s0,.01,0,.01h0s0,0,0,0h0s0,.01,0,.01h0s0,0,0,0h0s0,0,0,0h0s0,.01,0,.01h0s0,.01,0,.01h0s0,.01,0,.01h0s0,.01,0,.01h0s0,.01,0,.01h0s0,.01,0,.01h0s0,.01,0,.01h0s0,0,0,0h0s0,0,0,0h0s0,0,0,0h0s0,0,0,0h0s0,0,0,0h0s0,0,0,0h0s0,0,0,0h0s0,0,0,0c-.03,.03-.06,.06-.09,.09h0s0,0,0,0h0s0,0,0,0h0s0,0,0,0h0s0,0,0,0h0s0,0,0,0h0s0,0,0,0h0s0,0,0,0h0s0,0,0,0h0s0,0,0,0h0s0,0,0,0h0s0,0,0,0h0s0,0,0,0h0s0,0,0,0h0s0,0,0,0h0s0,0,0,0h0s0,0,0,0h0s0,0,0,0h0s0,0,0,0h0s0,0,0,0h0s0,0,0,0h0s0,0,0,0h0s0,0,0,0h0s0,0,0,0h0s0,0,0,0h0s0,0,0,0h0c-1.94,1.94-4.48,3.71-6.37,3.71-.04,0-.08,0-.12,0"/><path class="cls-10" d="M26.54,83.4c-.42-.21-.29-.67-.1-.99,.16-.41,.29-.84,.4-1.26,.82-3.99,1.44-8.01,2.33-11.99,.18-.79,.24-1.61,.42-2.39,.26-.56,1.14-.22,.96,.37-.2,1.57-.55,3.11-.87,4.65-.51,2.54-.97,5.09-1.43,7.63-.17,.66-.57,4.03-1.49,4.03-.07,0-.13-.02-.21-.05"/><path class="cls-10" d="M26.45,82.56c.01-.29,.26-.49,.54-.49s.5,.27,.49,.54c-.01,.29-.26,.49-.54,.49s-.5-.27-.49-.54"/><path class="cls-10" d="M21.59,84.65c-.34-.27-.15-.89,.3-.9,.26,0,.51-.04,.76-.07,.79-.09,1.59-.18,2.36-.39,1.35-.33,1.38-1.71,2.17-1.27,.84,.7-.91,1.89-1.51,2.14-.48,.19-2.43,.6-3.47,.6-.29,0-.5-.03-.6-.11"/><path class="cls-10" d="M36.08,40.34c-.23-.6,.48-.74,.88-.94,.39-.2,.75-.42,1.09-.64,.79-.58,2.37-1.65,2.16-2.76-.24-1.06-.58-1.98-.97-2.94,.08,0,.16,0,.24-.02,.11,.05,.24,.08,.37,.08h0c.15,0,.31-.02,.46-.04,.01,0,.03,0,.04,0,.41,1.04,.79,2.09,.93,3.19,.02,.79-.55,1.45-1.03,2.01-.36,.45-2.71,2.35-3.73,2.35-.21,0-.37-.08-.43-.28"/><path class="cls-10" d="M24.09,39.65c.15,.17,.14,.41,.04,.59-.01-.2-.02-.39-.04-.59"/><path class="cls-10" d="M22.78,33.08s-.01,0-.02-.01c-.05-.05-.1-.09-.15-.14-.07-.07-.14-.15-.21-.22,.01-.01,.03-.02,.05-.03,.08-.05,.15-.1,.23-.16,.03,.04,.07,.08,.1,.11,0,0,.01,.02,.02,.03,.02,.06,.04,.12,.05,.17,.02,.07,.05,.14,.08,.21,0,.03-.01,.07-.03,.1-.04-.02-.09-.05-.13-.08"/><path class="cls-10" d="M24.14,40.37c-.02-.25-.03-.5-.05-.75,.25,.02,.47,.19,.47,.5,0,.22-.18,.4-.4,.55,0-.1-.01-.2-.02-.31"/><path class="cls-10" d="M30.1,59.74c-.06-.08-.11-.16-.16-.25,0-.01-.01-.02-.02-.03-.01-.04-.03-.07-.04-.11-.06-.14-.12-.27-.18-.41-.05-.12-.11-.23-.17-.35-.02-.04-.04-.08-.06-.11,0,0,0,0,0-.01,.23,.21,.46,.41,.7,.6,.29,.22,.23,.57,.04,.77-.03-.03-.07-.07-.1-.1"/><path class="cls-10" d="M30.2,59.85s-.07-.07-.1-.11c-.06-.08-.11-.16-.16-.24,.24-.31,.78-.52,1.01-.81,1.35-1.19,2.47-2.49,3.57-3.87,2.19-2.7,6.17-9.35,5.95-12.8-.75-.49-1.61-.79-2.48-.99-.26-.05-.53-.1-.8-.12-.43,0-1.09,.09-1.11-.51,.06-.77,1.07-.49,1.59-.47,1.1,.2,3.1,.69,3.73,1.66,.49,1.88-.63,4.12-1.3,5.86-1.58,3.65-3.74,6.98-6.38,9.93-.87,.94-1.76,1.88-2.79,2.65-.09,.08-.19,.15-.3,.2-.15-.12-.29-.25-.43-.38"/><path class="cls-10" d="M23.15,33.36h0s-.01-.02-.02-.03c-.02-.03-.05-.06-.08-.09-.08-.07-.17-.11-.27-.17,0,0-.01,0-.02-.01-.05-.05-.1-.09-.15-.14-.09-.1-.18-.19-.28-.29,0,0,0,0,0,0-.04-.04-.07-.07-.12-.09-.01-.02-.03-.03-.04-.05,.29-.04,.59-.08,.87-.15,.28-.02,.55,.21,.55,.5,0,.26-.18,.49-.43,.53,0,0,0-.02-.02-.03"/><path class="cls-10" d="M48.5,36.65c-2.96-3.18-6.9-2.74-10.82-2.36-.13,0-.3,.02-.47,.03-.52,.06-1.12,.12-1.18-.49,0-.28,.24-.52,.52-.52,1.02-.03,2.08-.14,3.14-.22,.05,0,.1,.01,.15,.01h0c.15,0,.31-.02,.46-.04,.05,0,.09-.01,.14-.02,1.72-.11,3.43-.1,5.02,.44h0s0,0,0,0h0s0,0,0,0h0s0,0,0,0h0s0,0,0,0h0s0,0,0,0h0s0,0,0,0h0s0,0,0,0h0s0,0,0,0h0s0,0,0,0h0s0,0,0,0h0s0,0,0,0h0s0,0,0,0h0s0,0,0,0h0s0,0,0,0h0s0,0,0,0h0s0,0,0,0h0s0,0,0,0h0s0,0,0,0h0s0,0,0,0h0s0,0,0,0h0s0,0,0,0h0s0,0,0,0h0s0,0,0,0h0s0,0,0,0h0s0,0,0,0h0s0,0,0,0h0s0,0,0,0h0s0,0,0,0h0s0,0,0,0h0s0,0,0,0h0s0,0,0,0h0s0,0,0,0h0s0,0,0,0h0s0,0,0,0h0s0,0,0,0h0s0,0,0,0c.47,.18,.93,.42,1.37,.71,.41,.32,1.61,.94,2.02,1.57h0s0,0,0,0h0s0,.02,0,.02h0s0,.02,0,.02h0v.02h0s0,.01,0,.01h0s0,.02,0,.02h0v.02h0v.02h0v.02h0s0,.01,0,.01h0s0,.02,0,.02h0s0,.02,0,.02h0s0,.01,0,.01h0s0,.01,0,.01h0s0,.01,0,.01h0s0,.01,0,.01h0s0,.02,0,.02h0s0,0,0,0h0s0,.01,0,.01h0s0,.02,0,.02h0s0,.01,0,.01h0s0,.01,0,.01h0s0,.01,0,.01h0s0,.01,0,.01h0s0,.01,0,.01h0s0,.01,0,.01h0s0,.01,0,.01h0s0,.01,0,.01h0s0,.01,0,.01h0s0,.01,0,.01h0s0,.01,0,.01h0s0,.01,0,.01h0s0,.01,0,.01h0s0,.01,0,.01h0s0,.01,0,.01h0s0,.02,0,.02h0s0,.02,0,.02h0s0,.02,0,.02h0s0,.02,0,.02h0s0,.02,0,.02h0s0,.02,0,.02h0s0,.02,0,.02h0s0,.02,0,.02h0s0,.02,0,.02h0s0,.02,0,.02h0s0,.01,0,.01h0s0,.01,0,.01h0s0,.01,0,.01h0s0,.01,0,.01h0s0,.01,0,.01h0s0,.01,0,.01h0s0,.01,0,.01h0s0,.01,0,.01h0s0,.01,0,.01h0s0,.01,0,.01h0s0,.01,0,.01h0s0,.01,0,.01h0s0,.01,0,.01h0s0,0,0,0h0s0,.01,0,.01h0s0,.01,0,.01h0s0,0,0,0h0s0,.01,0,.01h0s0,.01,0,.01h0s0,.01,0,.01h0s0,0,0,0h0s0,.01,0,.01h0s0,0,0,0h0s0,0,0,0c-.08-.02-.15-.07-.21-.13"/><path class="cls-10" d="M29.34,37.09c-.5-.41-.98-.85-1.46-1.28-.25-.28-.71-.47-.66-.9,.04-.42,.63-.6,.89-.28,.49,.45,1,.91,1.49,1.34,.32,.25,.66,.73,1.1,.43,.97-.59,1.73-1.46,2.53-2.25,.47-.48,1.21,.26,.73,.73-.93,.8-2.25,2.64-3.59,2.64-.35,0-.7-.12-1.04-.43"/><path class="cls-10" d="M32.91,40.57c-.58-.53-.99-1.23-1.48-1.84-.29-.38-.6-.73-.92-1.08-.09-.11-.15-.22-.15-.37-.01-.49,.65-.68,.92-.32,.8,.84,1.43,1.82,2.17,2.71,1.39-1.63,1.84-3.83,2.32-5.86,0-.87,1.08-.94,1.07-.11-.21,1.25-1.59,7.04-3.42,7.04-.17,0-.34-.05-.52-.16"/><path class="cls-10" d="M27.73,40.59c-.77-.29-4.71-7.01-3.83-7.5,.32-.32,.9-.08,.88,.37,.77,2.2,1.97,4.24,3.3,6.08,.45-.42,.81-.93,1.16-1.43,.38-.41,.59-1.51,1.32-1.17,.71,.49-.35,1.41-.6,1.93-.47,.57-1.1,1.77-1.94,1.77-.1,0-.19-.02-.29-.05"/><path class="cls-10" d="M30.22,59.87s-.02-.02-.02-.02c-.04-.03-.07-.07-.1-.11-.06-.08-.11-.16-.16-.25,0-.01-.01-.02-.02-.03-.02-.04-.03-.07-.05-.11-.02-.06-.05-.12-.07-.18,0,0,0-.01,0-.02,.89-1.79,1.79-3.6,2.44-5.49,1.15-3.73,2.09-7.52,2.95-11.32,.62-2.56,1.04-5.05,1.14-7.66-.11-1.27,1.22-1.18,1.06-.27-.12,2.56-.44,5.1-1.05,7.59-.91,4.03-1.88,8.07-3.12,12.01-.55,1.63-1.3,3.18-2.05,4.73-.24,.38-.37,1.14-.87,1.14-.02,0-.04,0-.06,0m6.85-25.14c.09-.03,.18-.1,.24-.18-.06,.08-.14,.14-.24,.18"/><path class="cls-10" d="M30.13,59.62c-1.06-2.36-2.15-4.72-3.04-7.15-1.44-4.12-2.41-8.4-2.99-12.72,0-.11-.02-.22-.03-.34,0-.04-.01-.07-.03-.11-.26-2.03-.43-4.07-.52-6.1,.12-.83,1.18-.64,1.05,.34,.39,7.02,1.63,14.08,4.28,20.61,.73,1.7,1.46,3.39,2.23,5.07,.17,.39-.17,.71-.5,.71-.18,0-.35-.09-.45-.31"/><path class="cls-10" d="M29.58,41.81c-.64-.23-.7-.98-.68-1.57,.07-.55-.21-1.52,.44-1.76,.54-.11,.73,.38,.61,.82-.02,.52-.05,1.05,.02,1.57,.51,.15,1.07,.06,1.58-.07,.26-.16,.24-.57,.29-.85,.07-.48-.3-1.27,.4-1.4,.88-.03,.63,1.3,.58,1.87-.09,.47-.25,1-.7,1.25-.46,.2-1,.31-1.52,.31-.35,0-.69-.05-1.01-.15"/><path class="cls-10" d="M28.2,55.16c-.1-.1-.14-.23-.15-.36-.07-1.14-.03-2.29,.03-3.43,.16-3.31,.47-6.62,1.13-9.87,0-.81,1.11-.84,1.05-.02,0,.01,0,.03,0,.04,0,.01,0,.02,0,.03,0,0,0-.01,0-.02,0,0,0,0,0-.01h0c-.55,2.79-.91,5.61-1.06,8.43-.09,1.43-.18,2.88-.14,4.31,0,.17,.01,.35,.03,.52,.02,.3-.26,.51-.53,.51-.13,0-.25-.04-.35-.15"/><path class="cls-10" d="M32.88,52.23c-.28-.37-.13-.91-.21-1.34-.19-2.68-.46-5.35-.83-8.01-.04-.57-.26-1.17-.14-1.74,.22-.54,1.05-.32,.99,.25,.42,3.13,.8,6.29,1.01,9.44,.02,.35,.05,.69,.06,1.04,.01,.3-.26,.51-.53,.51-.13,0-.25-.04-.35-.15"/><path class="cls-10" d="M30.29,76.77c-.79-.8-1.38-1.83-1.9-2.82-.24-.51,.43-1.01,.83-.6,.46,.86,.97,1.72,1.58,2.49,.48-.34,.81-.99,1.06-1.46,.17-.28,.23-.67,.54-.82,.4-.19,.87,.27,.68,.68-.43,.82-1.21,2.67-2.3,2.67-.16,0-.33-.04-.5-.13"/><path class="cls-10" d="M37.53,72.37c-1.2-.32-1.44-1.79-1.71-2.82-.28-1.3,.59-1.44,1.62-1.62,2.42-.53,4.79-1.25,7.15-1.98,.32-.11,.57-.19,.87-.33,.14-.12,.35-.15,.51-.03,.73,.81-1.51,1.11-1.98,1.34-2.41,.74-4.84,1.43-7.31,1.94-.38,.18,.07,1.16,.14,1.48,.19,.51,.35,1.21,.98,1.3,1.14,.1,2.22-.29,3.3-.58,1.34-.39,2.66-.84,3.96-1.33,.45-.08,1.44-.85,1.7-.27,.2,.63-.89,.69-1.28,.92-.52,.19-1.04,.39-1.56,.57-1.76,.52-3.82,1.45-5.71,1.45-.23,0-.46-.01-.68-.04"/><path class="cls-10" d="M15.16,72.95c-.48-.08-.36-.83,.13-.75,2.29,.27,4.58,.75,6.87,.8,1.32,.02,2.12-.33,2.41-1.71,.09-.46,.22-.96,.1-1.42-.28-.22-.71-.2-1.05-.28-2.89-.45-5.8-.36-8.68-.83-.57-.1-.35-.96,.2-.73t0,0s-.02,0-.04-.01c2.26,.38,4.54,.35,6.82,.61,1.04,.14,2.16,.12,3.12,.57,1,.75,.11,3.52-.82,4.11-.75,.48-1.72,.45-2.59,.45-2.17-.15-4.32-.53-6.48-.8"/><path class="cls-10" d="M30.78,64.18c-1.48-.51-.59-2.78,.88-2.12,.49,.22,.73,.82,.62,1.33-.08,.34-.35,.86-.76,.77-.05,.04-.11,.06-.17,.08,0,0,0,0,.01,0,.01,0,.03,0,.04-.01-.07,.02-.15,.04-.22,.04-.14,0-.28-.04-.41-.08m.21-1.44c-.33,.23-.26,.75,.2,.76,.04,0,.07-.02,.12-.02,.03,0,.06,0,.08,.01,.31-.25,.13-.79-.23-.79-.05,0-.11,.01-.17,.04"/><path class="cls-10" d="M14.03,55.99c-.02-.11-.06-.21-.11-.31,0-.02-.02-.04-.03-.06,0-.04-.02-.09-.03-.13-.03-.09-.06-.17-.1-.26-.04-.08-.07-.15-.13-.21,0,0,0,0-.01-.01,.1-.08,.2-.15,.29-.23h0s0,.01,0,.01h0s0,.01,0,.01h0s0,.01,0,.01h0s0,.01,0,.01h0s0,.01,0,.01h0s0,.01,0,.01h0s0,.01,0,.01h0s0,.01,0,.01h0s0,.01,0,.01h0s0,.01,0,.01h0s0,.01,0,.01h0s0,.01,0,.01h0s0,.01,0,.01h0s0,.01,0,.01h0s0,.01,0,.01h0s0,.01,0,.01h0s0,.01,0,.01h0s0,.01,0,.01h0s0,.01,0,.01h0s0,.01,0,.01h0s0,.01,0,.01h0s0,.01,0,.01h0s0,.01,0,.01h0s0,.01,0,.01h0s0,.01,0,.01h0s0,.01,0,.01h0s0,.01,0,.01h0s0,.01,0,.01h0s0,.02,0,.02h0s0,.01,0,.01h0s0,.02,0,.02h0s0,.02,0,.02h0s0,.02,0,.02h0s0,.02,0,.02h0s0,.02,0,.02h0s0,.02,0,.02h0s0,.02,0,.02h0s0,.02,0,.02h0s0,.02,0,.02h0s0,.02,0,.02h0s0,.02,0,.02h0s0,.02,0,.02h0s0,.02,0,.02h0s0,.02,0,.02h0s0,.02,0,.02h0s0,.02,0,.02h0s0,.02,0,.02h0s0,.02,0,.02h0s0,.02,0,.02h0s0,.02,0,.02h0s0,.02,0,.02h0v.02h0v.02h0v.02h0s0,.02,0,.02h0s0,.02,0,.02h0s0,.02,0,.02h0s0,.01,0,.01h0s0,.01,0,.01h0s0,0,0,0h0s0,0,0,0h0s0,0,0,0h0s0,.01,0,.01h0s0,0,0,0h0s0,.01,0,.01h0s0,.01,0,.01h0s0,0,0,0h0s0,.01,0,.01h0s0,.01,0,.01h0s0,0,0,0h0s0,.02,0,.02h0c-.07,.06-.14,.11-.21,.16h0"/><path class="cls-10" d="M14.03,54.93h0s0,0,0,0h0s0,.01,0,.01h0s0,.01,0,.01h0s0,.01,0,.01h0s0,.01,0,.01h0s0,.01,0,.01h0s0,.01,0,.01h0s0,.01,0,.01h0s0,.01,0,.01h0s0,.01,0,.01h0s0,.01,0,.01h0s0,.01,0,.01h0s0,.01,0,.01h0s0,.01,0,.01h0s0,.01,0,.01h0s0,.02,0,.02h0s0,.02,0,.02h0s0,.01,0,.01h0s0,.02,0,.02h0s0,.02,0,.02h0s0,.02,0,.02h0s0,.02,0,.02h0s0,.02,0,.02h0s0,.02,0,.02h0s0,.02,0,.02h0s0,.01,0,.01c-.06-.12-.12-.24-.18-.37"/><path class="cls-10" d="M47.94,33.68c-.2-.15-.43-.2-.66-.27-.27-.1-.52-.27-.8-.33-.27-.06-.56-.04-.84-.06h0s0,0,0,0h0s0,0,0,0h0s0,0,0,0h0s0,0,0,0h0s0,0,0,0h0s0,0,0,0h0s0,0,0,0h0s0,0,0,0h0s0,0,0,0h0s0,0,0,0h0s0,0,0,0h0s0,0,0,0h0s0,0,0,0h0s0,0,0,0h0s0,0,0,0h0s0,0,0,0h0s0,0,0,0h0s0,0,0,0h0s0,0,0,0h0s0,0,0,0h0s0,0,0,0h0s0,0,0,0h0s0,0,0,0h0s0,0,0,0h0s0,0,0,0h0s0,0,0,0h0s0,0,0,0h0s0,0,0,0h0s0,0,0,0h0s0,0,0,0h0s0,0,0,0h0s0,0,0,0h0s0,0,0,0h0s0,0,0,0h0s0,0,0,0h0s0,0,0,0h0s0,0,0,0h0s0,0,0,0h0s0,0,0,0h0s0,0,0,0h0s0,0,0,0h0s0,0,0,0h0s0,0,0,0h0s0,0,0,0h0s0,0,0,0h0s0,0,0,0h0s0,0,0,0h0s0,0,0,0h0s0,0,0,0h0s0,0,0,0h0s0,0,0,0h0s0,0,0,0h0s0,0,0,0h0s0,0,0,0h0s0,0,0,0h0s0,0,0,0h0s0,0,0,0h0s0,0,0,0h0s0,0,0,0h0s0,0,0,0h0s0,0,0,0h0s0,0,0,0h-.01s0,0,0,0h0s0,0,0,0h0s0,0,0,0h-.01s0,0,0,0h0s0,0,0,0h0s0,0,0,0h0s0,0,0,0h0s0,0,0,0h0s0,0,0,0h0s0,0,0,0h0s0,0,0,0h0s0,0,0,0h0s0,0,0,0c-.06-.04-.13-.08-.19-.12-.04-.02-.08-.05-.11-.07-.25-.28-.38-.65-.36-1.03,.06-.71-.04-1.52,.37-2.13,1.26-1.46,3.06-1.37,3.68-3.56,.32-.85,.6-1.71,.93-2.55,.23-.75,.3-1.54,.67-2.24,.26-.61,1.91-1.33,2.02-.31-.03,.78-1.11,.3-1.22,1.07-.17,.47-.27,.95-.37,1.43-.23,.78-.56,1.54-.81,2.31-.51,1.71-1.33,2.88-2.97,3.65-.42,.25-.93,.51-1.15,.96-.02,.5-.26,1.29,0,1.73,.17,.15,.4,.15,.63,.14,.15,0,.3-.01,.43,.03,.48,.04,.83,.25,1.2,.41,.23,.08,.48,.14,.69,.27,.42-.29,.54-.85,.42-1.33-.36-.29-.75-.59-1.21-.71-.82-.17-.58-1.78,1.26-.55,.81,.5,1.14,.97,1,1.95-.04,.67-.73,1.71-1.47,1.71-.14,0-.27-.03-.41-.11"/><path class="cls-10" d="M51.9,24.98c-.67-.19-1.73-1.94-.58-2.1,.65,0,.44,.89,.92,1.12,.83-.07,.88-.54,.74-1.24-.11-.56,.01-1.87-.85-1.7-.34,.08-.67,.22-1.02,.27-.6,0-.7-.88-.12-1.02,1.36-.51,2.54-.47,2.86,1.2,.11,.44,.13,.9,.18,1.35,.05,.37,.11,.76-.07,1.1-.25,.66-.98,1.06-1.68,1.06-.13,0-.26-.02-.39-.05"/><path class="cls-10" d="M55.44,26.61c-.98-.23-1.71-1.34-1.33-2.32,.15-.41,.8-.41,.95,0,.11,.25-.07,.51,.01,.77,.15,.42,.7,.7,1.08,.39,.05-.94,.22-1.86,.23-2.8-.38-.3-.86-.55-1.31-.68-.21,.46-.52,.86-.71,1.32-.27,.37-.32,1.06-.86,1.09-.28,0-.52-.24-.52-.52,0-.22,.15-.39,.22-.59,.29-.6,.62-1.17,.95-1.76,.41-.81,1.29-.63,1.92-.24,.42,.15,.76,.41,1.1,.68,.5,.64,.12,1.64,.09,2.38-.02,1.37-.12,2.28-1.63,2.28-.07,0-.14,0-.21,0"/><path class="cls-10" d="M57.73,28.56c-.56-.23-1.05-.7-1.05-1.34-.07-.47-.09-.98,.24-1.36-.49,.43-1.17-.3-.7-.76,.58-.34,2.15-1.87,2.75-1.25,.55,.86,1.88,1.73,1.33,2.89-.33,.44-.79,.77-1.11,1.22-.3,.38-.6,.69-1.02,.69-.13,0-.28-.03-.45-.1m.01-2.07c-.15,.23-.02,.55,0,.81,.07,.15,.26,.24,.4,.31,.41-.47,.81-.95,1.26-1.37,.03-.17-.1-.29-.19-.42-.22-.36-.52-.66-.8-.97-.39,.25-.79,.49-1.15,.78,.04-.01,.08-.01,.12-.01,.42,0,.68,.56,.36,.88"/><path class="cls-10" d="M54.22,33.91c-.61,0-1.11-.34-1.69-.42-.4-.03-.94,0-.95-.54,.07-.8,1.1-.46,1.59-.39,.43,.18,.85,.34,1.32,.35,.2,.04,.36-.07,.53-.16,.44-.19,.89-.37,1.3-.62,.27-.23,.57-.42,.83-.65,.17-.23,.38-.41,.55-.63,.09-.15,.16-.32,.3-.43,.37-.23,.92-.58,1.27-.13,.15,.21,.12,.47,.17,.71,.12,.39,.22,.83,.59,1.04,.21-.84,.41-1.77,.29-2.65-.26-.28-.64-.41-.88-.71-.36-.17-.89-.34-.98-.78-.04-.59,.6-.74,.98-.38,.18,.15,.42,.19,.61,.32,.26,.27,.59,.44,.87,.69,.46,.32,.48,.9,.48,1.41,.02,.56-.12,1.1-.2,1.65-.08,.41-.09,.89-.42,1.18-.93,.93-2.05-.33-2.26-1.28-.69,.87-1.57,1.58-2.6,2-.46,.19-.9,.46-1.39,.46-.1,0-.21-.01-.31-.04"/><path class="cls-10" d="M49.28,37.17c-.04-.47-.08-.94-.12-1.42h0s0,0,0,0h0s0-.01,0-.01h0s0-.01,0-.01h0s0,0,0,0h0s0-.01,0-.01h0s0,0,0,0h0s0-.01,0-.01h0s0-.01,0-.01h0s0-.01,0-.01h0s0-.01,0-.01h0s0-.01,0-.01h0s0-.01,0-.01h0s0-.01,0-.01h0s0-.01,0-.01h0s0-.02,0-.02h0s0-.01,0-.01h0s0-.01,0-.01h0s0-.01,0-.01h0s0-.02,0-.02h0s0,0,0,0h0s0-.02,0-.02h0s0-.02,0-.02h0v-.02h0v-.02h0v-.02h0s0-.01,0-.01h0s0-.02,0-.02h0v-.02h0s0-.01,0-.01h0s0-.02,0-.02h0s0-.01,0-.01h0v-.02h0s0-.01,0-.01h0s0-.01,0-.01h0s0-.02,0-.02h0s0-.01,0-.01h0s0-.01,0-.01h0s0-.01,0-.01h0s0,0,0,0h0s0,0,0,0h0s0-.01,0-.01h0s0,0,0,0h0s0,0,0,0h0s0,0,0,0h0s0,0,0,0h0s0,0,0,0h0s0,0,0,0h0s0,0,0,0h0s0,0,0,0h0s0,0,0,0h0s0,0,0,0h0s0,0,0,0h0s0,0,0,0h0s0,0,0,0h0s0,0,0,0h0s0,0,0,0h0s0,0,0,0h0s0,0,0,0h0s0,0,0,0h0s0,0,0,0h0c-.09-1.04-.17-2.08-.21-3.11,.28-.73,1.2-.35,1.01,.39,.24,1.72,.27,3.46,.44,5.18-.33-.19-.69-.31-1.06-.41"/><path class="cls-10" d="M54.91,35.22c-.18-.66-.84-1.34-.48-2.03,.31-.53,1.16-.13,.93,.45,.33,.79,.65,1.57,.99,2.35,0,0-.02,0-.03,.01-.29,.11-.57,.23-.85,.37-.03,.01-.06,.03-.09,.04-.17-.39-.33-.79-.47-1.19"/><path class="cls-10" d="M52.87,40.92c-1.42-.07-2.95-.51-3.99-1.51-.3-.52,.4-1.06,.82-.62,.87,.65,1.95,1.01,3.01,1.09,1.5,.11,2.8-.78,3.89-1.71,.29-.26,.57-.52,.83-.81,.19-.21,.54-.19,.73,0,.2,.2,.2,.53,0,.73-.55,.59-1.16,1.13-1.83,1.59-.98,.72-2.13,1.24-3.36,1.24-.03,0-.07,0-.1,0"/><path class="cls-10" d="M51.12,37.86c-.57-.2-2.17-.58-2.43-1.08-.07-.18-.05-.34,.03-.46,.04-.05,.09-.09,.13-.14,.18-.14,.45-.16,.65,0,2.68,1.19,5.07,1.58,7.02-1.03,.41-.53,1.22,.09,.82,.63-1.2,1.58-2.63,2.36-4.35,2.36-.59,0-1.2-.09-1.86-.27"/><path class="cls-10" d="M57.16,37.75c-.19-.75-.25-1.54-.45-2.29-.13,0-.29,.03-.46,.05-.49,.08-1.05,.15-1.1-.46,0-.27,.22-.51,.49-.52,.39-.04,.77-.12,1.16-.11,.45-.03,.79,.31,.89,.72,.23,.76,.27,1.56,.46,2.33,.1,.39-.21,.65-.52,.65-.2,0-.4-.11-.48-.37"/><path class="cls-10" d="M48.7,39.14c-.12-.59-.19-1.18-.22-1.78,.06-.28,.07-.57,.11-.85,0-.02,0-.05,.01-.07,0-.01,.02-.03,.03-.04,.08-.09,.16-.18,.25-.28,0,0,.02-.02,.03-.03,.27-.03,.58,.13,.58,.5,0,.75,.06,1.5,.2,2.23,.04,.15,.03,.3-.05,.43-.09,.17-.26,.25-.44,.25-.22,0-.45-.13-.5-.37"/><path class="cls-10" d="M56,52.57c-.32-.61,.5-.83,.83-1.18,2.03-1.85,2.23-4.84,2.08-7.41-.14-1.47-.37-2.95-.85-4.36-.17-.6-.72-1.51-.57-2.11,.21-.51,1-.36,.99,.2,.2,.75,.55,1.44,.75,2.18,.92,3.45,1.33,7.9-.67,11.04-.27,.43-1.43,1.87-2.15,1.87-.16,0-.3-.07-.41-.24m2.12-14.36c.07-.02,.13-.05,.18-.1-.05,.04-.12,.08-.18,.1"/><path class="cls-10" d="M51.07,49.38c-1.35-3.23-2.12-6.74-2.26-10.25,0-.67,1.02-.68,1.03,0,0,.31,.02,.62,.04,.91,.16,2,.53,3.86,1.03,5.76,.32,1.13,.65,2.13,1.11,3.18,.17,.4-.17,.71-.5,.71-.18,0-.36-.09-.45-.31"/><path class="cls-10" d="M49.21,52.28c-.68-.2-1.35-.42-2.01-.69-.09-.04-.2-.09-.32-.14h0v-.02h0v-.02h0v-.02h0s0-.02,0-.02h0v-.02h0s0-.02,0-.02h0s0-.02,0-.02h0s0-.02,0-.02h0s0-.02,0-.02h0s0-.02,0-.02h0s0-.02,0-.02h0s0-.02,0-.02h0v-.02h0s0-.02,0-.02h0v-.02h0s0-.02,0-.02h0s0-.02,0-.02h0s0-.02,0-.02h0v-.02h0s0-.02,0-.02h0s0-.02,0-.02h0s0-.02,0-.02h0v-.02h0s0-.02,0-.02h0s0-.02,0-.02h0s0-.02,0-.02h0s0-.02,0-.02h0s0-.02,0-.02h0s0-.02,0-.02h0s0-.01,0-.01h0s0-.01,0-.01h0s0-.01,0-.01h0s0-.01,0-.01h0s0-.01,0-.01h0s0-.02,0-.02h0s0-.01,0-.01h0v-.02h0s0-.02,0-.02h0s0-.02,0-.02h0s0-.02,0-.02h0s0-.01,0-.01h0s0,0,0,0h0s0-.01,0-.01h0s0-.02,0-.02h0s0-.01,0-.01h0s0-.01,0-.01h0s0,0,0,0h0s0,0,0,0h0s0-.01,0-.01h0s0,0,0,0h0s0,0,0,0h0s0-.01,0-.01h0s0-.01,0-.01h0s0,0,0,0h0s0-.01,0-.01h0s0-.01,0-.01h0s0-.01,0-.01h0s0,0,0,0h0s0-.01,0-.01h0s0-.01,0-.01h0s0-.01,0-.01h0s0-.01,0-.01h0s0-.01,0-.01h0s0-.01,0-.01h0s0-.01,0-.01h0s0-.01,0-.01h0s0-.01,0-.01h0s0-.01,0-.01h0s0-.01,0-.01h0s.04,.02,.06,.03c.99,.47,1.92,.76,2.95,1.04,1.67,.41,3.28,.68,4.96,.59,.45-.03,.9-.08,1.33-.22,.26-.11,.57,0,.68,.28,.39,1.1-2.33,.96-2.98,.98-1.63-.06-3.25-.34-4.82-.8"/><path class="cls-10" d="M46.93,50.76h0v-.02h0s0-.01,0-.01h0s0-.01,0-.01h0v-.02h0s0,0,0,0h0v-.02h0s0-.01,0-.01h0s0-.02,0-.02h0s0-.01,0-.01h0s0,0,0,0h0s0-.02,0-.02h0s0,0,0,0h0s0,0,0,0h0s0-.01,0-.01h0s0-.01,0-.01h0s0,0,0,0h0s0-.01,0-.01h0s0-.01,0-.01h0s0-.01,0-.01h0s0-.01,0-.01h0s0-.01,0-.01h0s0-.01,0-.01h0s0-.01,0-.01h0s0-.01,0-.01h0s0-.01,0-.01h0s0-.01,0-.01h0s0-.01,0-.01h0s0-.01,0-.01h0s0-.01,0-.01c-.02,.11-.05,.23-.07,.34h0Z"/><path class="cls-10" d="M48.86,37.39c-.13-.06-.24-.14-.34-.24,.03-.21,.04-.43,.07-.64,0-.02,0-.05,.01-.07,0-.01,.02-.03,.03-.04,.08-.09,.17-.18,.25-.27,.02-.03,.05-.06,.07-.08,.16,.18,.31,.37,.45,.56,.24,.33-.05,.8-.43,.8-.04,0-.08,0-.12-.02"/><path class="cls-10" d="M48.72,36.23h0s0,0,0,0h0s0-.01,0-.01h0s0,0,0,0h0s0-.01,0-.01h0s0-.01,0-.01h0s0,0,0,0h0s0-.01,0-.01h0s0-.01,0-.01h0s0-.01,0-.01h0s0,0,0,0h0s0-.01,0-.01h0s0-.01,0-.01h0s0-.01,0-.01h0s0,0,0,0h0s0-.01,0-.01h0s0-.01,0-.01h0s0-.01,0-.01h0s0-.01,0-.01h0s0-.01,0-.01h0s0-.01,0-.01h0s0-.01,0-.01h0s0-.01,0-.01h0s0-.01,0-.01h0s0-.02,0-.02h0s0-.01,0-.01h0s0-.02,0-.02h0s0-.02,0-.02h0s0-.02,0-.02h0s0-.02,0-.02h0s0-.02,0-.02h0s0-.02,0-.02h0s0-.02,0-.02h0s0-.02,0-.02h0s0-.02,0-.02h0s0-.01,0-.01h0s0-.01,0-.01h0s0-.01,0-.01h0s0-.01,0-.01h0s0-.01,0-.01h0s0-.01,0-.01h0s0-.01,0-.01h0s0-.01,0-.01h0s0-.01,0-.01h0s0-.01,0-.01h0s0,0,0,0h0s0-.01,0-.01h0s0,0,0,0h0s0-.01,0-.01h0s0-.01,0-.01h0s0-.01,0-.01h0s0-.01,0-.01h0s0-.01,0-.01h0s0-.01,0-.01h0s0-.01,0-.01h0s0-.01,0-.01h0s0-.02,0-.02h0s0,0,0,0h0s0-.02,0-.02h0s0-.01,0-.01h0v-.02h0v-.02h0v-.02h0v-.02h0v-.02h0s0-.01,0-.01h0s0-.01,0-.01h0s0-.02,0-.02h0s0-.01,0-.01h0v-.02h0c.16,.24,.21,.5,.02,.74-.1,.1-.23,.15-.36,.15-.05,0-.1,0-.15-.02"/><path class="cls-10" d="M45.81,33.07h0s0,0,0,0h0s0,0,0,0h0s0,0,0,0h-.01s0,0,0,0h0s0,0,0,0h0s0,0,0,0h0s0,0,0,0h0s0,0,0,0h0s0,0,0,0h0s0,0,0,0h0s0,0,0,0h0s0,0,0,0h0s0,0,0,0h0s0,0,0,0h0s0,0,0,0h0s0,0,0,0h0s0,0,0,0h0s0,0,0,0h0s0,0,0,0h0s0,0,0,0h0s0,0,0,0h0s0,0,0,0h0s0,0,0,0h0s0,0,0,0h0s0,0,0,0h0s0,0,0,0h0s0,0,0,0h0s0,0,0,0h0s0,0,0,0h0s0,0,0,0h0s0,0,0,0h0s0,0,0,0h0s0,0,0,0h0s0,0,0,0h0s0,0,0,0c.12,.04,.24,.08,.36,.13h0Z"/><path class="cls-10" d="M32.25,79.79h0s0,0,0,0h.01s0,0,0,0h0s0,0,0,0h.01s0,0,0,0h0s0,0,0,0h0s0,0,0,0h0s0,0,0,0h0s0,0,0,0h0s0,0,0,0h0s0,0,0,0h0s0,0,0,0h0s0,0,0,0h.01s0,0,0,0h0s0,0,0,0h0s0,0,0,0h0s0,0,0,0h0s0,0,0,0h0s0,0,0,0h0s0,0,0,0h0s0,0,0,0h.02s0,0,0,0h0s0,0,0,0h0s0,0,0,0h.11s0,0,0,0h0s0,0,0,0h0s0,0,0,0h0s0,0,0,0h0s.01,0,.01,0h.01s.01,0,.01,0h.01s.01,0,.01,0h0c-.17,0-.33,0-.5,.01h0Z"/><path class="cls-10" d="M27.99,79.73h0s0,0,0,0h0s0,0,0,0h0s0,0,0,0h0s0,0,0,0h0s0,0,0,0h0s0,0,0,0h0s0,0,0,0h0s0,0,0,0h0s0,0,0,0h0s0,0,0,0h0s0,0,0,0h0s0,0,0,0h0s0,0,0,0h0s0,0,0,0h0s0,0,0,0h0s0,0,0,0h0s0,0,0,0h0s0,0,0,0h0s0,0,0,0h0s0,0,0,0h0s0,0,0,0h0s0,0,0,0h0s0,0,0,0h0s0,0,0,0h0s0,0,0,0h0s0,0,0,0h0s0,0,0,0h0s0,0,0,0h0s0,0,0,0h0s0,0,0,0h0s0,0,0,0h.01s0,0,0,0h.02s0,0,0,0h.01s0,0,0,0h0s0,0,0,0h0s0,0,0,0h.01s0,0,0,0h0s0,0,0,0h0s0,0,0,0h0s0,0,0,0h.01s0,0,0,0h.01s.01,0,.01,0h.01s.01,0,.01,0h.01s.01,0,.01,0h.01s.01,0,.01,0h.01s.01,0,.01,0h.01s.01,0,.01,0h.01s.01,0,.01,0h.01s.01,0,.01,0h.01s0,0,0,0c-.19,0-.38-.01-.57-.02"/><path class="cls-10" d="M37.8,110.86l-.1-.09-.1-.09-.11-.08-.11-.08-.11-.07-.12-.07-.12-.07-.05-.02c1.05-2.05,2.22-4.02,3.02-6.19,2.75-7.86,5.46-16.08,5.3-24.5,0-.02,0-.04,0-.06h0s0,0,0,0h0s0,0,0,0h0s0,0,0,0h0s0,0,0,0h0s0,0,0,0h0s0,0,0,0h0s0,0,0,0h0s0,0,0,0h0s0,0,0,0h0s0,0,0,0h0s0,0,0,0h0s0,0,0,0h0s0,0,0,0h0s0,0,0,0h0s0,0,0,0h0s0,0,0,0h0s0,0,0,0h0s0,0,0,0h0s0,0,0,0h0s0,0,0,0h0s0,0,0,0h0s0,0,0,0h0s0,0,0,0h0s0,0,0,0h0s0,0,0,0h0s0,0,0,0h0s0,0,0,0h0s0,0,0,0h0s0,0,0,0h0s0,0,0,0h0s0,0,0,0h0s0,0,0,0h0s0,0,0,0h0s0,0,0,0h0s0,0,0,0h0s0,0,0,0h0s0,0,0,0h0s0,0,0,0h0s0,0,0,0h0s0-.01,0-.01h0s0-.01,0-.01h0s0-.01,0-.01h0s0-.01,0-.01h0s0-.01,0-.01h0s0,0,0,0h0s0-.01,0-.01h0s0-.01,0-.01h0s0-.01,0-.01h0s0,0,0,0h0s0-.01,0-.01h0s0,0,0,0h0s0-.01,0-.01h0s0-.01,0-.01h0s0-.01,0-.01h0s0-.01,0-.01h0s0-.01,0-.01h0s0,0,0,0h0s0-.01,0-.01h0s0-.01,0-.01h0s0-.01,0-.01h0s0-.01,0-.01h0s0-.01,0-.01h0s0-.01,0-.01h0s0-.01,0-.01h0s0-.01,0-.01h0s0-.01,0-.01h0s0-.01,0-.01h0s0-.01,0-.01h0s0-.01,0-.01h0s0-.01,0-.01h0s0,0,0,0h0s0,0,0,0h0s0,0,0,0h0s0,0,0,0h0s0,0,0,0h0s0,0,0,0h0s0,0,0,0h0s0,0,0,0h0s0,0,0,0h0s0,0,0,0h0s0-.01,0-.01h0s0-.01,0-.01h0s0-.01,0-.01h0s0-.01,0-.01h0s0-.01,0-.01h0s0-.01,0-.01h0s0-.01,0-.01h0s0-.01,0-.01h0s0-.01,0-.01h0s0-.01,0-.01h0s0-.01,0-.01h0s0-.01,0-.01h0s0-.01,0-.01h0s0-.01,0-.01h0s0-.01,0-.01h0s0-.01,0-.01h0s0-.01,0-.01h0s0-.01,0-.01h.01s0-.01,0-.01h.01s.01-.01,.01-.01h0s.01-.01,.01-.01h0s.01-.01,.01-.01h0s0-.01,0-.01h.01s0-.01,0-.01h0s0,0,0,0c.45,3.32-.15,6.69-.72,9.97-.71,3.9-1.78,7.71-3.02,11.47-1.1,3.8-2.73,7.38-4.63,10.82l-.04-.04Z"/><path class="cls-10" d="M31.87,89.91c-1.79-.09-2.31-1.73-2.8-3.18-.65-2.25-1.24-4.63-1.12-6.98h0s0,0,0,0h0s0,0,0,0h0s0,0,0,0h0s0,0,0,0h0s0,0,0,0h0s0,0,0,0h0s0,0,0,0h0s0,0,0,0h0s0,0,0,0h0s0,0,0,0h0s0,0,0,0h0s0,0,0,0h0s0,0,0,0h0s0,0,0,0h0s0,0,0,0h0s0,0,0,0h0s0,0,0,0h0s0,0,0,0h0s0,0,0,0h0s0,0,0,0h0s0,0,0,0h0s0,0,0,0h0s0,0,0,0h0s0,0,0,0h0s0,0,0,0h0s0,0,0,0h0s0,0,0,0h0s0,0,0,0h0s0,0,0,0h0s0,0,0,0h0s0,0,0,0h0s0,0,0,0h0s0,0,0,0h0s0,0,0,0h0s0,0,0,0h0s0,0,0,0h0s0,0,0,0h0s0,0,0,0h.04s0,0,0,0h.01s0,0,0,0h0s0,0,0,0h0s0,0,0,0h0s0,0,0,0h0s0,0,0,0h0s.01,0,.01,0h0s0,0,0,0h0s.01,0,.01,0h.01s.01,0,.01,0h.01s.01,0,.01,0h.01s.01,0,.01,0h.01s.01,0,.01,0h.01s.01,0,.01,0h.01s.01,0,.01,0h.01s.01,0,.01,0h.01s.01,0,.01,0h.01s.01,0,.01,0h.01s.01,0,.01,0h0s.01,0,.01,0h0s0,0,0,0h0s0,0,0,0h0s0,0,0,0h0s0,0,0,0h0s0,0,0,0h0s0,0,0,0h0s0,0,0,0h0s0,0,0,0h0s0,0,0,0h0s0,0,0,0h0s0,0,0,0h0s0,0,0,0h0s0,0,0,0h0s0,0,0,0h0s0,0,0,0h0s0,0,0,0h0s0,0,0,0h0s0,0,0,0h.01s0,0,0,0h0s0,0,0,0h0s0,0,0,0h.02s.01,0,.01,0h.03s0,0,0,0c-.07,2.65,.7,6.28,1.89,8.5,.28,.59,1.05,.37,1.46,.76,.27,.31,0,.84-.39,.84-.02,0-.05,0-.08,0"/><path class="cls-10" d="M31.89,107.16c-.3-.12-.39-.47-.26-.75,.39-1.19,.71-2.41,.96-3.64,.52-3.5,.87-7.14,.11-10.63-.24-.8-.3-1.88-1.04-2.37-.68-.38-.04-1.34,.56-.87,1.29,.79,1.48,3.06,1.75,4.44,.42,2.87,.14,5.78-.2,8.64-.19,1.41-.54,2.8-.96,4.16-.13,.39-.23,1.06-.69,1.06-.06,0-.14-.01-.21-.04"/><path class="cls-10" d="M31.85,108.81h-.11s-.1-.02-.1-.02h-.1s-.1-.02-.1-.02h-.1s-.1-.01-.1-.01h-.1s-.09,0-.09,0h-.09s-.09,0-.09,0c.08-.25,.16-.5,.23-.74,.2-.61,.41-1.18,.58-1.78,.25-.6,1.16-.27,.97,.35-.14,.53-.33,1.05-.51,1.56-.04,.16-.12,.4-.21,.68h-.08Z"/><path class="cls-10" d="M26.89,110.79c-.3-.07-.45-.39-.36-.68,.07-.41,.11-.83,.14-1.26,.04-1.33-.02-2.67-.04-4-.03-2.6-.19-5.28,.45-7.81,.48-1.59,1.08-3.15,1.7-4.7,.5-1.17,1.01-2.38,1.81-3.38,.3-.33,.89-.09,.88,.35,.01,.26-.21,.42-.33,.62-.84,1.29-1.39,2.72-1.94,4.14-.48,1.29-1,2.58-1.31,3.93-.13,.81-.18,1.66-.22,2.47-.1,1.9-.02,3.81,.02,5.71,.02,1.11,.08,2.23-.03,3.34-.06,.45-.04,1.26-.62,1.26-.04,0-.09,0-.14-.01"/><path class="cls-10" d="M19.62,110.68c-.09-.1-.18-.19-.28-.28,0,0-.02-.02-.03-.03,.09-.07,.17-.14,.25-.22,.09-.09,.18-.21,.25-.32,.03-.04,.05-.07,.08-.11,.11,.2,.23,.41,.35,.6,.19,.32,0,.63-.28,.74-.11-.13-.23-.26-.34-.38"/><path class="cls-10" d="M26.25,111.38c-.43-.41-.91-.95-1.39-1.23-1.1-.81-2.6-.85-3.7-.05-.33,.19-.58,.52-.78,.82-.11,.11-.26,.16-.41,.15,0,0,0,0,0,0-.12-.13-.23-.26-.35-.39-.03-.04-.07-.07-.1-.11-.02-.74,1.27-1.51,1.82-1.75,1.9-.88,4.04,.06,5.34,1.53,.35-.45,1.11-.01,.88,.52-.13,.37-.49,.66-.86,.66-.15,0-.3-.05-.44-.16"/><path class="cls-10" d="M32.29,89.77c-.41-3.29-.4-6.66-.32-9.96h0s0,0,0,0h0s0,0,0,0h0s0,0,0,0h0s0,0,0,0h0s0,0,0,0h0s0,0,0,0h0s0,0,0,0h.01s0,0,0,0h0s0,0,0,0h.02s0,0,0,0h0s0,0,0,0h.01s0,0,0,0h0s0,0,0,0h0s0,0,0,0h.02s0,0,0,0h0s0,0,0,0h0s0,0,0,0h.01s0,0,0,0h.02s0,0,0,0h0s0,0,0,0h.02s0,0,0,0h0s0,0,0,0h0s0,0,0,0h.01s0,0,0,0h.02s0,0,0,0h0s0,0,0,0h0s0,0,0,0h0s0,0,0,0h0s0,0,0,0h0s0,0,0,0h0s0,0,0,0h0s0,0,0,0h0s0,0,0,0h.01s0,0,0,0h0s0,0,0,0h0s0,0,0,0h0s0,0,0,0h0s0,0,0,0h0s0,0,0,0h0s0,0,0,0h0s0,0,0,0h0s0,0,0,0h0s0,0,0,0h0s0,0,0,0h.01s0,0,0,0h.01s0,0,0,0h.03s0,0,0,0h.05s0,0,0,0h.02s0,0,0,0h0s0,0,0,0h.02s0,0,0,0h0s0,0,0,0h.01s0,0,0,0c0,2.61-.04,5.23,.12,7.84,.05,.7,.13,1.36,.22,2.05,.03,.21-.11,.4-.32,.43-.02,0-.04,0-.05,0-.18,0-.36-.14-.38-.32"/><path class="cls-10" d="M19.68,110.6c-.51-.37-.78-1.47-1.11-2.04-.77-1.83-1.42-3.72-1.99-5.63-1.88-6.35-1.26-13.17-.17-19.61h0s0,0,0,0h0s0,0,0,0h0s0,0,0,0h0s0,0,0,0h0s0,0,0,0h0s0,0,0,0h0s0,0,0,0h0s0,0,0,0h0s0,0,0,0h0s0,0,0,0h0s0,0,0,0h0s0,0,0,0h0s0,0,0,0h0s0,0,0,0h0s0,0,0,0h0s0,0,0,0h0s0,0,0,0h0s0,0,0,0h0s0,0,0,0h0s0,0,0,0h0s0,0,0,0h0s0,0,0,0h0s0,0,0,0h0s0,0,0,0h0s0,0,0,0h0s0,0,0,0h0s0,0,0,0h0s0,0,0,0h0s0,0,0,0h0s0,0,0,0h0s0,0,0,0h0s0,0,0,0h0s0,0,0,0h0s0,0,0,0h0s0,0,0,0h0s0,0,0,0h0s0,0,0,0h0s0,0,0,0h0s0,0,0,0h0s0,0,0,0h0s0,0,0,0h0s0,0,0,0h0s0,0,0,0h0s0,0,0,0h0s0,0,0,0h0s0,0,0,0h0s0,0,0,0h0s0,0,0,0h0s0,0,0,0h0s0,0,0,0h0s0,0,0,0h0s0,0,0,0h0s0,0,0,0h0s0,0,0,0h0s0,0,0,0h0s0,0,0,0h0s0,0,0,0h0s0,0,0,0h0s0,0,0,0h0s0,0,0,0h0s0,0,0,0h0s0,0,0,0h0s0,0,0,0h0s0,0,0,0h0s0,0,0,0h0s0,0,0,0h0s0,0,0,0h0s0,0,0,0h0s0,0,0,0h0s0,0,0,0h0s0,0,0,0h0s0,0,0,0h0s0,0,0,0h0s0,0,0,0h0s0,0,0,0h0s0,0,0,0h0s0,0,0,0h0s0,0,0,0h0s0,0,0,0h0s0,0,0,0h0s0,0,0,0h0s0,0,0,0h0s0,0,0,0h0s0,0,0,0h0s0,0,0,0h0s0,0,0,0h0s0,0,0,0h0s0,0,0,0h0s0,0,0,0h0s0,0,0,0h0s0,0,0,0h0s0,0,0,0h0s0,0,0,0h0s0,0,0,0h0s0,0,0,0h0s0,0,0,0h0s0,0,0,0h0s0,0,0,0h0s0,0,0,0h0s0,0,0,0h0s0,0,0,0h0s0,0,0,0h0s0,0,0,0h0s0,0,0,0h0s0,0,0,0h0s0,0,0,0h0s0,0,0,0h0s0,0,0,0h0s0,0,0,0h0s0,0,0,0h0s0,0,0,0h0s0,0,0,0h0s0,0,0,0h0s0,0,0,0h0s0,0,0,0h0s0,0,0,0h0s0,0,0,0h0s0,0,0,0h0s0,0,0,0h0s0,0,0,0h0s0,0,0,0c-.92,5.41-1.35,11-.42,16.43,.44,1.95,1.04,3.85,1.72,5.73,.29,.82,.61,1.63,.96,2.43,.23,.52,.47,1.02,.72,1.53,.17,.34-.14,.73-.48,.73-.06,0-.13-.01-.19-.04"/><path class="cls-10" d="M35.08,115.06c-.62-.5,.49-1.4,.63-1.98,.22-.47,.45-.93,.69-1.39l.05,.02,.12,.07,.12,.07,.12,.07,.11,.08,.11,.08,.1,.09,.1,.09,.04,.04c-.07,.12-.14,.25-.21,.38,0-.01,.01-.02,.02-.04-.34,.51-.93,2.53-1.7,2.53-.09,0-.19-.03-.29-.1"/><path class="cls-10" d="M33.11,115.52c-1.51-.07-3.31-1.04-3.5-2.67,.11-.91,.39-1.81,.67-2.69h.09s.09,0,.09,0h.09s.1,0,.1,0h.1s.1,.01,.1,.01h.1s.1,.02,.1,.02h.11s.11,.02,.11,.02h.08c-.32,.99-.83,2.46-.62,2.9,.82,1.47,2.93,1.71,4.35,1.03,.37-.25,.89,.15,.76,.57-.33,.73-1.84,.81-2.62,.81-.04,0-.07,0-.1,0"/><path class="cls-10" d="M36.5,112.85c-.27-.08-.42-.38-.34-.64,.14-.5,.34-.98,.59-1.43,.19-.37,.41-.72,.62-1.08,.11-.28,.43-.44,.71-.31,.74,.44-.13,1.21-.34,1.72-.16,.3-.31,.61-.44,.93-.12,.37-.21,.85-.63,.85-.05,0-.11,0-.17-.02"/><path class="cls-10" d="M30.51,111.09c-.27-.08-.42-.38-.34-.64,.3-1.27,.89-2.45,1.35-3.67h0c.15-.35,.68-.41,.89-.08,.1,.15,.12,.34,.05,.5-.24,.66-.54,1.29-.79,1.95-.2,.52-.38,1.05-.51,1.59-.05,.22-.28,.36-.5,.36-.05,0-.1,0-.15-.02"/><path class="cls-10" d="M33.32,115.98c.42-.11,.61,.12,.72,.45-.04,.04-.07,.08-.11,.12,0,0,0,0,0,0-.09,.09-.18,.18-.28,.27-.03,.02-.07,.05-.1,.08-.12,.1-.23,.21-.34,.32-.01,.01-.03,.03-.04,.04-.09-.44-.42-1.04,.14-1.28"/><path class="cls-10" d="M30.42,116.38s-.08-.05-.12-.07c-.05-.2-.12-.39-.28-.56-.05-.06-.1-.11-.16-.15,.1-.44,.22-.88,.24-1.33,0-.53,.78-.69,.99-.2,.13,.58-.13,1.2-.23,1.77-.08,.25-.14,.51-.19,.76-.08-.08-.16-.16-.25-.22"/><path class="cls-10" d="M30.86,115.84s0,0,0-.01c0,0,0,.01,0,.01,0,0,0,.02,0,.03,0,0,0-.02,0-.02"/><path class="cls-10" d="M31.77,117c-.7-.11-2.63-1.81-1.3-2.21,.6-.05,.68,.87,1.3,1.09,.77,.42,.97,.1,1.16-.22,.16-.26,.3-.52,.75-.38,.71,.42-.04,1.37-.55,1.63-.24,.12-.51,.18-.77,.18-.2,0-.4-.03-.6-.1"/><path class="cls-10" d="M33.63,116.14c-.67-.2-.33-1.36,.34-1.16,.45,.13,.43,.72,.19,1.01-.11,.11-.24,.17-.39,.17-.05,0-.1,0-.15-.02"/><path class="cls-10" d="M21.08,111.45c-.43-.23-1.31-.07-1.31-.74,.11-1.05,1.91-.13,2.44,.14,1.05,.8,1.82,.7,2.37,.6,.47-.09,.78-.17,.97,.31,.13,.83-1.1,.74-1.64,.8-.02,0-.05,0-.07,0-1.04,0-1.83-.74-2.75-1.11m-.28-.76c0-.12-.06-.24-.15-.33,.08,.09,.14,.2,.15,.33"/><path class="cls-10" d="M25.01,111.61c-.72-.15-.33-1.16-.3-1.65,.2-.65,1.2-.34,.98,.31-.09,.47,.05,1.34-.61,1.34-.03,0-.05,0-.08,0"/><path class="cls-10" d="M24.75,112.23c-.12-.16-.16-.36-.19-.56-.07-.53,.68-.79,.95-.33,.3-.15,.59-.31,.85-.53,.3-.32,.9-.08,.88,.38-.03,.43-.49,.6-.79,.82-.02,0-.03,.02-.05,.03-.14,.06-.29,.13-.42,.21-.06,.04-.13,.07-.19,.11-.17,.08-.34,.13-.51,.13-.19,0-.37-.07-.52-.26"/><path class="cls-10" d="M33.62,125.78c-1.59-.68-2.75-2.28-3.62-3.72-.4-1-.49-2.09-.94-3.09-.26-1.16,.31-2.32,.75-3.38,.16-.32,.25-.8,.7-.79,.73,.1,.49,.77,.24,1.22-.72,1.61-1,2.29-.24,3.94,.18,1.22,.56,2.14,1.4,3.06,.62,.68,1.16,1.39,1.99,1.76,.69-.77,1.05-1.89,1.08-2.91-.09-1.15-.95-2.03-1.32-3.08-.23-.64-.37-1.22-.54-1.87-.16-.65,.85-.9,1-.25,.18,.69,.34,1.4,.63,2.06,.53,1.06,1.32,2.09,1.26,3.34-.08,1.1-.76,3.73-2.15,3.73-.08,0-.16,0-.24-.03"/><path class="cls-10" d="M18.33,120.97c-1.66-.03-3.19-.83-4.59-1.64-2.73-1.63-2.03-3.71-.07-5.65,1.88-1.31,4.45-1.06,6.09-2.8,.12-.11,.27-.22,.44-.21,1.57,.47-.91,1.82-1.44,2.2-.79,.44-1.75,.52-2.58,.82-1.19,.3-2.32,.87-2.82,2.05-.7,1.01-.41,1.8,.56,2.47,4.81,3.3,7.23,1.26,11.37-1.68,.18-.09,.31-.21,.41-.36,0,.06,0,.12,0,.18,0,.23,.07,.44,.25,.59-.01,.07-.03,.14-.04,.21-.02,.07-.04,.14-.05,.2-2.25,1.62-4.61,3.6-7.47,3.6h-.05Z"/><path class="cls-10" d="M25.54,112.12c-.13-.43,.41-.81,.78-.56,.09,.1,.17,.25,.25,.43-.05,0-.09,.02-.14,.04-.15,.07-.31,.14-.45,.23-.1,.06-.22,.12-.3,.2,0,0-.01,.01-.02,.02-.04-.12-.07-.23-.11-.35"/><path class="cls-10" d="M25.65,117.07c-.27,0-.53-.25-.5-.53,.07-.81,.14-1.62,.2-2.43,.06-.71,.11-1.43,.18-2.14,0-.28,.25-.51,.53-.5,.29,0,.51,.25,.51,.53h0s0,0,0,0h0s0,.04,0,.05c-.06,.76-.13,1.51-.19,2.27-.06,.75-.12,1.5-.19,2.25-.01,.14-.06,.27-.16,.36-.09,.09-.22,.14-.35,.14,0,0,0,0-.01,0"/><path class="cls-10" d="M23.38,118.73c-.27-.79,1.07-.83,1.53-1.21,.23-.65,.24-1.25,.42-1.89,.16-.4,.75-.4,.93-.03,0,0,0,0,0,0,.15,.29-.04,.59-.05,.88-.16,.62-.14,1.42-.67,1.86-.24,.18-.53,.29-.8,.41-.26,.1-.6,.29-.9,.29-.19,0-.35-.08-.46-.32"/><path class="cls-10" d="M29.87,121.2c-.37-.75-1.09-1.48-.93-2.38,.11-.43,.18-.97,.54-1.27,.18-.09,.41-.03,.51,.15,.13,.22-.05,.42-.12,.62-.53,.92,.24,1.72,.67,2.51,.16,.29-.1,.56-.36,.56-.12,0-.24-.06-.31-.2"/><path class="cls-10" d="M18.63,119.69c-.87-.15-1.66-.55-2.44-.95-1.11-.62-2.29-1.16-3.2-2.06-.41-.32-.54-1.2,.19-1.03,.14,.06,.22,.2,.23,.34,.56,.68,1.38,1.09,2.13,1.53,1.33,.72,2.7,1.62,4.28,1.48,1.19-.13,2.4-.38,3.48-.9,.42-.24,.81,.43,.37,.66-1.27,.58-2.71,.99-4.13,.99-.31,0-.61-.02-.92-.06"/><path class="cls-10" d="M18.66,114.52c-.61-.37-1.21-.72-1.87-1-.21-.09-.4-.07-.51-.28-.32-1.43,2.34,.42,2.79,.64,.35,.22,.12,.7-.21,.7-.06,0-.13-.02-.2-.06"/><path class="cls-10" d="M20.86,113.43c-.34-.23-.69-.45-1.04-.64-.29-.22-.88-.28-.89-.73,0-.29,.39-.47,.61-.28,.62,.33,1.17,.62,1.74,1.01,.35,.22,.12,.7-.21,.7-.06,0-.13-.02-.2-.06m-1.17-1.35s0-.06,0-.09c0-.01-.01-.03-.02-.04,.01,.04,.02,.08,.02,.13m-.03-.14s-.04-.08-.07-.12c.03,.04,.06,.08,.07,.12"/><path class="cls-10" d="M32.85,118.81c-.16-.01-.31-.03-.42-.02h0c-.12-.01-.24-.02-.35-.04-.07-.01-.14-.03-.2-.06,.01,0,.03,0,.04,.01h0c-.24-.07-.35-.36-.21-.57,.19-.31,.54-.1,.81-.1,.15,.04,.34,.03,.55,.02,.39-.03,.79-.05,.86,.34-.01,.37-.31,.45-.66,.45-.14,0-.28-.01-.42-.03"/><path class="cls-10" d="M32.38,120.23c-.27-.04-.43-.35-.28-.59,.16-.23,.39-.18,.63-.12,.14,.03,.29,.07,.43,.04,.14,.02,.32-.01,.49-.05,.35-.07,.71-.14,.84,.23,.05,.2-.08,.41-.29,.46-.36,.07-.72,.12-1.09,.12-.25,0-.5-.02-.74-.09"/><path class="cls-10" d="M16.49,83.34h0s0,0,0,0h0s0,0,0,0h0s0,0,0,0h0s0,0,0,0h0s0,0,0,0h0s0,0,0,0h0s0,0,0,0h0s0,0,0,0h0s0,0,0,0h0s0,0,0,0h0s0,0,0,0h0s0,0,0,0h0s0,0,0,0h0s0,0,0,0h0s0,0,0,0h0s0,0,0,0h0s0,0,0,0h0s0,0,0,0h0s0,0,0,0h0s0,0,0,0h0s0,0,0,0h0s0,0,0,0h0s0,0,0,0h0s0,0,0,0h0s0,0,0,0h0s0,0,0,0h0s0,0,0,0h0s0,0,0,0h0s0,0,0,0h0s0,0,0,0h0s0,0,0,0h0s0,0,0,0h0s0,0,0,0h0s0,0,0,0h0s0,0,0,0h0s0,0,0,0h0s0,0,0,0h0s0,0,0,0h0s0,0,0,0h0s0,0,0,0h0s0,0,0,0h0s0,0,0,0h0s0,0,0,0h0s0,0,0,0h0s0,0,0,0h0s0,0,0,0h0s0,0,0,0h0s0,0,0,0h0s0,0,0,0h0s0,0,0,0h0s0,0,0,0h0s0,0,0,0h0s0,0,0,0h0s0,0,0,0h0s0,0,0,0h0s0,0,0,0h0s0,0,0,0h0s0,0,0,0h0s0,0,0,0h0s0,0,0,0h0s0,0,0,0h0s0,0,0,0h0s0,0,0,0h0s0,0,0,0h0s0,0,0,0h0s0,0,0,0h0s0,0,0,0h0s0,0,0,0h0s0,0,0,0h0s0,0,0,0h0s0,0,0,0h0s0,0,0,0h0s0,0,0,0h0s0,0,0,0h0s0,0,0,0h0s0,0,0,0h0s0,0,0,0h0s0,0,0,0h0s0,0,0,0h0s0,0,0,0h0s0,0,0,0h0s0,0,0,0h0s0,0,0,0h0s0,0,0,0h0s0,0,0,0h0s0,0,0,0h0s0,0,0,0h0s0,0,0,0h0s0,0,0,0h0s0,0,0,0h0s0,0,0,0h0s0,0,0,0h0s0,0,0,0h0s0,0,0,0h0s0,0,0,0h0s0,0,0,0h0s0,0,0,0h0s0,0,0,0h0s0,0,0,0h0s0,0,0,0h0s0,0,0,0h0s0,0,0,0h0s0,0,0,0h0s0,0,0,0h0s0,0,0,0h0s0,0,0,0h0s0,0,0,0h0s0,0,0,0h0s0,0,0,0h0s0,0,0,0h0c-.32-.14-.62-.29-.89-.46"/><path class="cls-10" d="M45.25,79.59h0s0,0,0,0h0s0,0,0,0h0s0,0,0,0h0s0,0,0,0h0s0,0,0,0h0s0,0,0,0h0s0,0,0,0h0s0,0,0,0h0s0,0,0,0h0s0,0,0,0h0s0,0,0,0h0s0,0,0,0h0s0,0,0,0h0s0,0,0,0h0s0,0,0,0h0s0,0,0,0h0s0,0,0,0h0s0,0,0,0h0s0,0,0,0h0s0,0,0,0h0s0,0,0,0h0s0,0,0,0h0s0,0,0,0h0s0,0,0,0h0s0,0,0,0c-.04,.04-.08,.08-.12,.12h0Z"/><path class="cls-10" d="M45.46,79.38h0s0,0,0,0h0s0,0,0,0h0s0,0,0,0h0s0,0,0,0h0s0,0,0,0h0s0-.01,0-.01h0s0,0,0,0h0s0,0,0,0h0s0-.01,0-.01h0s0-.01,0-.01h0s0-.01,0-.01h0s0,0,0,0h0s0-.01,0-.01h0s0-.01,0-.01h0s0,0,0,0h0s0-.01,0-.01h0s0-.01,0-.01h0s0,0,0,0h0s0-.01,0-.01h0s0-.01,0-.01h0s0,0,0,0h0s0-.01,0-.01h0s0-.01,0-.01h0s0-.01,0-.01h0s0-.01,0-.01h0s0-.01,0-.01h0s0-.01,0-.01h0s0-.01,0-.01h0s0-.01,0-.01h0s0-.01,0-.01h0s0-.01,0-.01h0s0-.01,0-.01h0s0-.01,0-.01h0s0-.01,0-.01h0s0-.01,0-.01h0s0,0,0,0h0s0-.01,0-.01h0s0,0,0,0h0s0-.01,0-.01h0s0,0,0,0h0s0,0,0,0h0s0,0,0,0h0s0,0,0,0h0s0,0,0,0h0s0,0,0,0h0s0,0,0,0h0s0,0,0,0h0s0-.01,0-.01h0s0-.01,0-.01h0s0-.01,0-.01h0s0-.01,0-.01h0s0-.01,0-.01h0s0-.01,0-.01h0s0-.01,0-.01h0s0-.01,0-.01h0s0-.01,0-.01h0s0-.01,0-.01h0s0-.01,0-.01h0s0-.01,0-.01h0s0-.01,0-.01h0c-.18,.2-.37,.4-.57,.6h0Z"/><path class="cls-10" d="M16.25,84.3c.17-.58-.18-1.94,.76-1.88,.47,.09,.45,.59,.36,.95-.05,.37-.01,.75-.1,1.11-.08,.25-.29,.36-.49,.36-.27,0-.54-.19-.52-.54m.3-.44c.07-.03,.14-.04,.22-.05h0c-.07,0-.15,.02-.21,.05"/><path class="cls-10" d="M12.69,51.04h0s0-.03,0-.03h0s0-.03,0-.03h0s0-.03,0-.03h0s0-.03,0-.03h0s0-.03,0-.03v-.02s0-.01,0-.01v-.02s0-.01,0-.01v-.02s0-.02,0-.02v-.02s0-.01,0-.01v-.02s0-.02,0-.02v-.02s0-.02,0-.02v-.02s.01-.02,.01-.02v-.02s0-.02,0-.02v-.02s.01-.02,.01-.02v-.02s.02-.02,.02-.02v-.02s.02-.02,.02-.02v-.02s.02-.02,.02-.02v-.02s.02-.02,.02-.02v-.03s.02-.02,.02-.02v-.03s.03-.03,.03-.03l.02-.03v-.02c-.07,.24-.15,.48-.22,.71,0,.02-.01,.03-.02,.05"/><path class="cls-10" d="M12.69,51.9h0v-.03h0s0-.03,0-.03h0s0-.03,0-.03h0s0-.03,0-.03h0s0-.03,0-.03v-.03s0-.02,0-.02v-.02s0-.02,0-.02v-.04s0-.02,0-.02v-.04s0-.02,0-.02v-.04s0-.02,0-.02v-.02s0-.02,0-.02v-.04s0-.02,0-.02v-.06s0-.02,0-.02v-.02s0-.02,0-.02v-.02s0-.02,0-.02v-.02s0-.02,0-.02v-.03s0-.02,0-.02v-.03s0-.02,0-.02h0s0-.03,0-.03h0s0-.03,0-.03h0s0-.03,0-.03h0s0-.03,0-.03h0s0-.03,0-.03h0s0-.03,0-.03h0s0-.03,0-.03h0s0-.03,0-.03v-.02s0-.01,0-.01v-.02s0-.01,0-.01v-.02s0-.02,0-.02v-.02s0-.02,0-.02v-.02s0-.02,0-.02v-.02s0,0,0,0c.03,.06,.05,.12,.07,.2,0,.34-.06,.68-.13,1.01h0Z"/><path class="cls-10" d="M12.25,49.62c.06,0,.11,.02,.15,.03h0s-.02,.04-.02,.04l-.02,.03-.02,.03-.02,.03v.03s-.03,.03-.03,.03v.03s-.02,.03-.02,.03v.03s-.02,.02-.02,.02v.02s-.02,.02-.02,.02v.02s-.02,.02-.02,.02v.02s-.01,.02-.01,.02v.02s-.01,.02-.01,.02v.02s0,.02,0,.02v.02s0,.02,0,.02v.02s0,.02,0,.02v.02s0,.02,0,.02v.02s0,.02,0,.02v.02s0,.02,0,.02v.02s0,.02,0,.02h0s0,.03,0,.03v.02s0,.01,0,.01h0s0,.03,0,.03v.02s0,.02,0,.02h0s0,.03,0,.03h0s0,.03,0,.03h0v.03h0v.03h0v.06s0,.02,0,.02v.02s0,.02,0,.02v.07s0,.02,0,.02v.02s0,.02,0,.02v.02s0,.02,0,.02v.02s0,.02,0,.02v.02s0,.02,0,.02v.02s0,.02,0,.02v.02s0,.02,0,.02v.02s0,.02,0,.02v.02s0,.02,0,.02v.02s0,.02,0,.02v.02s0,.02,0,.02v.02s0,.02,0,.02h0s0,.03,0,.04c-.02,.16-.03,.32-.04,.47-.47-1.22-.6-2.16,.13-2.12"/><path class="cls-10" d="M4.5,48.54c.12-.29,.24-.57,.37-.86,.07,.02,.13,.03,.19,.05,.09,.04,.18,.09,.26,.13,.11,.05,.22,.11,.33,.16,.05,.02,.11,.05,.16,.07,0,.03-.02,.05-.02,.08-.11,.24-.22,.48-.32,.73-.31-.14-.64-.26-.96-.36"/><path class="cls-10" d="M10.36,48.14s.05-.03,.07-.04c.03-.02,.07-.04,.1-.06,.03-.02,.06-.03,.09-.05,.15-.08,.3-.15,.46-.21,.08-.03,.17-.07,.25-.1,.05-.02,.09-.04,.14-.06-.03,.24-.06,.47-.1,.71-.09,.03-.18,.06-.28,.1-.18,.08-.36,.17-.54,.27-.08,.02-.16,.05-.24,.08-.02,0-.04,.02-.06,.02,.04-.22,.07-.43,.11-.65"/><path class="cls-10" d="M11.54,50.89c-.26-.06-.47-.34-.4-.61,.13-.49,.27-.99,.35-1.5-1.52,.86-3.34,1.38-5.04,.73-.58-.24-2.49-.8-2.52-1.47,0-.29,.16-.47,.38-.52,.16,.1,.33,.13,.51,.15,.02,0,.04,0,.06,.01,.01,.01,.02,.02,.04,.04,.65,.36,1.34,.65,2.05,.87,1.37,.48,2.56-.02,3.49-.47,1.03-.5,1.76-.94,2.07,.05,.06,.54-.06,1.07-.2,1.6v.02s-.03,.03-.03,.03v.03s-.03,.03-.03,.03v.03s-.02,.03-.02,.03v.02s-.02,.02-.02,.02v.02s-.02,.02-.02,.02v.02s-.01,.02-.01,.02v.02s-.01,.02-.01,.02v.02s-.01,.02-.01,.02v.02s0,.02,0,.02v.02s0,.02,0,.02v.02s0,.02,0,.02v.02s0,.02,0,.02v.02s0,.02,0,.02v.02s0,.02,0,.02h0s0,.03,0,.03v.02s0,.02,0,.02h0s0,.03,0,.03h0s0,.03,0,.03h0v.03h0s0,.03,0,.03h0v.03c-.06,.18-.22,.32-.4,.35-.02,0-.04,0-.06,0-.05,0-.09,0-.14-.01"/><path class="cls-10" d="M4.02,50.59c-.73-.22-.24-1.13-.2-1.65,.12-.41,.1-1.06,.61-1.17,.28-.05,.55,.13,.6,.41-.08,.67-.32,1.34-.4,2.02-.04,.21-.21,.36-.41,.4-.02,0-.04,0-.07,0-.04,0-.09,0-.13-.01"/><path class="cls-10" d="M5,51.5c-.55-.31-2.18-.7-1.82-1.55,.24-.43,.7-.3,.98,0,.38,.22,.79,.4,1.13,.55,.79,.35,1.63,.59,2.49,.6,1.23,0,2.45-.37,3.53-.94,.25-.13,.57-.01,.69,.24,.12,.26,.01,.56-.24,.69-.8,.42-1.66,.74-2.56,.9-.04,0-.08,.01-.12,.02-.26,.05-.52,.08-.78,.1-1.13,.07-2.27-.17-3.31-.62"/><path class="cls-10" d="M9.95,60.23c-.39-.14-.38-.57-.24-.89,.22-.78,.39-1.58,.53-2.38,.33-2.11,.73-4.21,1-6.33-.12-.6,.66-.84,.94-.41h0s0,.02,0,.02v.02s0,.02,0,.02v.02s0,.02,0,.02v.02s0,.02,0,.02v.02s0,.01,0,.01v.02s0,.02,0,.02h0s0,.03,0,.03v.02s0,.01,0,.01v.02s0,.01,0,.01h0s0,.03,0,.03h0v.03h0s0,.03,0,.03h0v.03h0v.12s0,.02,0,.02v.04s0,.02,0,.02v.02s0,.02,0,.02v.02s0,.02,0,.02v.02s0,.02,0,.02v.02s0,.02,0,.02v.02s0,.02,0,.02v.02s0,.02,0,.02v.02s0,.02,0,.02v.02s0,.02,0,.02v.02s0,.02,0,.02v.02s0,.02,0,.02v.02s0,.02,0,.02h0s0,.02,0,.04c-.02,.16-.03,.33-.04,.49,0,.05,0,.11-.01,.16-.07,.38-.14,.75-.19,1.12-.22,1.31-.42,2.63-.64,3.94-.14,.82-.31,1.65-.53,2.45-.06,.33-.2,.77-.53,.83-.02,0-.04,0-.05,0-.01,0-.02,0-.03,0-.06,0-.12-.01-.19-.03"/><path class="cls-10" d="M5.39,65.2c-.79-.15-1.37-.77-1.9-1.33-1.11-1.16-1.88-2.62-2.11-4.21-.31-2.2,.42-4.37,.93-6.48,.19-.82,.39-1.63,.57-2.45,.08-.42,.07-1.08,.66-1.05,.82,.15,.32,1.16,.25,1.7-.39,1.82-.95,3.6-1.28,5.43-.52,2.43,.12,4.86,1.94,6.59,.66,.73,1.27,1.05,2.23,.6,1.51-.64,2.7-1.8,3.85-2.93,0,0,.01-.01,.02-.02-.02,.07-.05,.15-.07,.22-.21,.61-.41,1.22-.58,1.84-1.09,.97-2.3,1.81-3.55,2.05-.15,.03-.31,.05-.46,.06-.16,.01-.33,0-.49,0"/><path class="cls-10" d="M8.44,63.29c.05-.48,.6-.72,.86-1.09,1.04-1.24,1.8-2.71,2.58-4.12,.52-1.06,1-2.15,1.38-3.27,.12-.28,.13-.62,.41-.79,.37-.24,.9,.16,.76,.58-.36,1.09-.77,2.16-1.27,3.2-.29,.73-4.06,7.94-4.71,5.49"/><polyline class="cls-10" points="11.11 40.55 11.11 40.55 11.11 40.55"/><path class="cls-10" d="M14.67,36.24c2.89-1.57,6.38-1.08,9.35-2.41,.52-.16,.9,.58,.46,.91-.38,.2-.76,.29-1.15,.44-3.25,1.01-6.82,.66-9.32,2.78-.19-.04-.38-.05-.57-.05-.21,0-.42,.03-.62,.1-.04,.01-.08,.03-.13,.05-.07,.01-.14,.03-.21,.04,.62-.75,1.33-1.41,2.19-1.87"/><path class="cls-10" d="M30.23,60.07c-2.1-.99-4.01-2.47-5.4-4.34-1.48-2.11-2.84-4.32-3.98-6.63-2.04-3.94-1.57-4.68,1.92-7.15-3.93,.07-4.71-.75-2.75-4.3,.41-.64,.93-2.44,1.7-2.52,.5,0,.68,.65,.3,.95-.6,.96-.99,1.88-1.48,2.87-.17,.5-.62,1.05-.53,1.59,1.31,.71,2.95,.29,4.38,.32,.66-.03,.79,.79,.24,1.08-1.05,.71-2.15,1.43-3.05,2.25-.6,.45-1.11,1.05-.86,1.85,.27,1.24,.92,2.34,1.49,3.46,1.18,2.21,2.49,4.42,4.03,6.36,.77,.87,1.67,1.6,2.62,2.26,.57,.38,1.15,.73,1.77,1.01,.61,.25,.21,1.23-.4,.95"/><path class="cls-10" d="M10.97,38.74c-.32-.73-.65-1.46-1-2.19-.1,.49-.21,1.02-.53,1.42-.57,.64-1.67,.71-2.27,.07-.45-.58-.25-1.35-.24-2.03,.1-.51-.18-1.13,.21-1.56,1.34-1.12,2.88-.94,3.4,.85,.35,.88,.83,1.69,1.16,2.58,.19,.35,.43,.85-.04,1.09-.07,.04-.15,.05-.23,.05-.19,0-.38-.1-.47-.28m-3-3.62c.11,.75-.15,1.51,0,2.25,.11,.08,.24,.12,.37,.08,.55-.08,.55-.8,.64-1.23-.08-.35,.15-.73,.54-.7-.14-.51-.4-.72-.72-.72-.25,0-.53,.12-.82,.32"/><path class="cls-10" d="M4.83,40.48c-.92-.19-.87-1.31-.97-2.04-.06-.4-.22-.78-.23-1.18-.07-.61,.49-.93,1.01-1.05,.47-.18,1.03-.34,1.5-.08,.33,.2,.64,.46,.98,.62,.27-.01,.52,.21,.54,.48,.03,.46-.5,.67-.87,.5-1.03-.45-.93-.99-2.12-.44,.21,.71,.21,1.47,.41,2.19,.73,.06,1.01-.27,.95-.99-.04-.67,.98-.74,1.03-.07,.13,1.29-.63,2.09-1.81,2.09-.13,0-.26-.01-.4-.03"/><path class="cls-10" d="M6.22,40.66c-.15-.42-.54-.88-.27-1.33,.15-.24,.49-.3,.72-.14,.15,.1,.23,.27,.23,.44,.1,.23,.21,.46,.31,.69,.13,.4-.19,.68-.51,.68-.19,0-.38-.1-.47-.34m.61-.8s.04-.09,.05-.13c0-.02,0-.04,0-.06h0c0,.06-.02,.13-.06,.2"/><path class="cls-10" d="M8.51,39.54c-.28-.39-.74-.67-.88-1.15-.23-.76,.88-1.06,1.01-.27,.31,.4,1.13,.92,.6,1.46-.1,.08-.22,.13-.35,.13-.14,0-.29-.06-.38-.17"/><path class="cls-10" d="M2.57,42.51s.02,0,.03,0c0,0-.02,0-.03,0t0,0"/><path class="cls-10" d="M2.66,42.49c-.06,0-.12-.01-.17-.02-.2-.09-.33-.26-.4-.47,0-.06,0-.13,0-.19,0-.16-.01-.31-.02-.46,0-.02,0-.04,0-.06,0-.51-.05-1-.08-1.51-.2-1.04,.84-1.47,1.66-1.71,.52-.59,1.28,.29,.73,.79-.41,.28-.95,.3-1.35,.61-.01,.7,.11,1.38,.07,2.07,.38,.05,.6-.24,.76-.55,.21-.26,.26-.57,.2-.9-.04-.67,.98-.74,1.03-.07,.13,.8-.31,1.81-1.02,2.28-.15-.01-.29,0-.43,.06,0,0-.01,0-.02,0-.09,.01-.18,.02-.27,.04-.1,.02-.2,.05-.3,.07-.01,0-.02,0-.04,0-.02,0-.04,0-.06,0-.03,0-.07,0-.1,0-.06,0-.12,0-.17,.02,0,0-.01,0-.02,0"/><path class="cls-10" d="M4.72,42.85c-.06-.17-.18-.33-.33-.43-.09-.2-.25-.36-.35-.57-.45-.8,.81-1.35,.96-.41,.73,.86,.37,1.45-.06,1.45-.07,0-.15-.02-.22-.05"/><path class="cls-10" d="M3.82,42.31c-.06,0-.12,.03-.19,.05,0,0-.01,0-.02,0h0c-.09,.01-.18,.02-.27,.04-.1,.02-.19,.05-.29,.07,.14-.27,.53-.33,.77-.17"/><path class="cls-10" d="M2.09,42.1c0-.09,0-.19,0-.28-.01-.35-.04-.71-.06-1.06,.35-.12,.68-.07,.76,.42,.04,.44-.42,.52-.7,.72,0,.07,0,.14,.01,.21,0,0,0,0,0,0"/><path class="cls-10" d="M6.77,48.4s-.03-.01-.05-.02h0s-.01-.02-.01-.02l-.02-.02v-.02s-.03-.01-.03-.01v-.02s-.03-.01-.03-.01h-.01s-.01-.03-.01-.03h-.01s-.01-.03-.01-.03h-.01s-.01-.02-.01-.02h-.01s-.01-.02-.01-.02h-.01s-.01-.02-.01-.02h-.01s-.01-.02-.01-.02h-.01s-.01-.02-.01-.02h-.01s0-.02,0-.02h-.01s0-.02,0-.02h0s0-.01,0-.01h0s0-.01,0-.01h0s0-.01,0-.01h0s0,0,0,0h0s0,0,0,0h0s0,0,0,0h0s0,0,0,0h0s0,0,0,0h0s0,0,0,0h-.01s0,0,0,0h0s-.01,0-.01,0h-.01s0,0,0,0h-.01s-.01,0-.01,0h-.01s-.01,0-.01,0h-.01s-.01,0-.01,0h-.01s-.01,0-.01,0h-.01s-.01,0-.01,0h-.01s-.01,0-.01,0h-.01s-.01,0-.01,0h-.01s-.01,0-.01,0h-.01s-.01,0-.01,0h-.02s0,0,0,0h-.05s-.01,0-.01,0h-.02s-.01,0-.01,0h-.02s-.01,0-.01,0h-.01s-.01,0-.01,0h-.01s-.01,0-.01,0h-.01c-.79-.41-1.41-.99-1.7-1.97-.24-.44-.4-.91-.53-1.39,.05-.04,.09-.09,.12-.15,.02-.03,.03-.06,.05-.08t0,0s0,0,.01,0c.03,0,.05-.01,.08-.02,.06,0,.13-.02,.19-.02,.1,0,.21,0,.31,0h0c.08,.08,.17,.15,.27,.19,.14,.43,.32,.85,.52,1.27,.16,.48,.47,.9,.92,1.15,.35,.18,.74,.31,1.1,.48,.57,.19,.36,1.01-.16,1.01-.06,0-.12-.01-.18-.03"/><path class="cls-10" d="M3.5,42.38s-.05,0-.08,.01c.03,0,.05-.01,.08-.01"/><path class="cls-10" d="M11.9,41c-1.06-.15-1.63-1.38-.88-2.21,.5-.52,1.2-.79,1.74-1.26,.18-.63,1.17-.36,1.02,.28-.33,.85-1.42,1.06-2.01,1.69-.3,.43,.45,.59,.75,.51,.38-.17,.89-.5,1.16,.01,.27,.7-.72,1.03-1.41,1.03-.15,0-.28-.02-.38-.05"/><path class="cls-10" d="M11.97,47.34c-.71-.66,.52-1.38,.91-1.85,.26-.4,.43-.87,.64-1.3,.57-1.1,.51-2.37,.96-3.5,.11-.56,.43-1.1,.25-1.67-.25-.38-.57-.82-1.02-.95-.52,.83-1.64-.07-.81-.64,1.11-1.29,3.12,.88,2.91,2.14-.14,.91-.51,1.77-.7,2.66-.09,.92-.35,1.8-.76,2.63-.28,.58-.49,1.22-1.01,1.63-.4,.22-.63,.94-1.09,.94-.09,0-.18-.03-.29-.09"/><path class="cls-10" d="M6.58,48.23h-.01s-.01-.02-.01-.02h-.01s-.01-.02-.01-.02h-.01s-.01-.02-.01-.02h-.01s-.01-.02-.01-.02h-.01s-.01-.02-.01-.02h0s-.01-.02-.01-.02h0s0-.02,0-.02h0s-.01-.01-.01-.01h0s-.01-.01-.01-.01h0s0-.01,0-.01h0s0,0,0,0h0s0,0,0,0h0s0,0,0,0h0s0,0,0,0h0s0,0,0,0h0s0,0,0,0h0s-.01,0-.01,0h0s0,0,0,0h-.01s-.01,0-.01,0h-.01s-.01,0-.01,0h-.01s-.01,0-.01,0h-.01s-.01,0-.01,0h-.01s-.01,0-.01,0h-.01s-.01,0-.01,0h-.01s-.01,0-.01,0h-.02s-.01,0-.01,0h-.01s-.01,0-.01,0h-.02s-.01,0-.01,0h-.07s-.01,0-.01,0h-.01s-.01,0-.01,0h-.02s-.01,0-.01,0h-.01s-.01,0-.01,0h-.01s-.01,0-.01,0h-.01s-.01,0-.01,0h-.01s-.01,0-.01,0h-.01s-.01,0-.01,0h-.01s-.01,0-.01,0h-.01s-.01,0-.01,0h-.01s-.01,0-.01,0h-.01s-.02,0-.02,0h-.01s-.02,0-.02,0h-.02s-.02,0-.02,0h-.02s-.02,.01-.02,.01h-.02s-.02,0-.02,0h-.02s0,0,0,0c.17-.25,.35-.5,.53-.74,.22-.18,.54-.17,.73,.05,.22,.26,.1,.58-.11,.89h0Z"/><path class="cls-10" d="M11.15,47.38c.11-.43,.5-.71,.77-1.05,.22-.33,.67-.64,1.01-.26,.44,.6-.42,1.03-.71,1.47,0,.02,0,.04,0,.05h0s0-.02,0-.02h0s0-.03,0-.03h0s0-.02,0-.02h0s0-.02,0-.02h0s0-.01,0-.01h0s0,0,0,0h0s0,0,0,0h-.01s0,0,0,0h-.01s0,0,0,0h-.01s0,0,0,0h0s-.01,0-.01,0h-.04s-.01,0-.01,0h-.01s-.01,0-.01,0h-.02s-.01,0-.01,0h-.01s-.01,0-.01,0h-.01s-.01,0-.01,0h-.01s-.01,0-.01,0h-.01s-.01,0-.01,0h-.01s-.01,0-.01,0h-.01s-.01,0-.01,0h-.01s-.01,0-.01,0h-.01s-.01,0-.01,0h-.01s-.01,0-.01,0h-.01s-.01,0-.01,0h-.01s-.01,0-.01,0h-.01s-.01,0-.01,0h-.01s-.01,0-.01,0h-.01s-.01,0-.01,0h-.01s-.01,0-.01,0h-.01s-.01,0-.01,0h-.01s-.01,0-.01,0h-.01s-.01,0-.01,0h-.01s-.01,0-.01,0h-.01s-.01,0-.01,0h-.01s-.01,0-.01,0h-.01s-.01,0-.01,0h-.01s-.01,0-.01,0h-.01s-.01,0-.01,0h-.01s-.01,0-.01,0h-.01s-.01,0-.01,0h-.01s-.01,0-.01,0h-.01s-.01,0-.01,0h-.01s-.01,0-.01,0h-.01s-.01,0-.01,0h-.01s-.01,0-.01,0h-.01s0,0,0,0c.02-.11,.03-.22,.05-.33"/><path class="cls-10" d="M1.05,45.33c-1.52-.34-1.11-1.43-.48-2.43,.31-.42,.06-1.22,.74-1.26,1.23,.24-.02,1.97-.28,2.6,.41,.23,.85-.2,1.12-.48,.16-.24,.23-.57,.54-.65,.46-.11,.81,.31,1.15,.55,.21,.12,.4,.28,.56,.47,.6,.76-.49,1.52-.85,.6-.17-.16-.37-.25-.54-.41-.4,.52-1.05,1.03-1.74,1.03-.08,0-.15,0-.23-.02"/><path class="cls-10" d="M1.38,42.62c-.58-.09-.55-.72-.2-1.07,.21-.23,.52-.19,.79-.26,.12-.05,.24-.07,.37-.04,.43,.1,.52,.74,.12,.94-.17,.09-.36,.13-.55,.15-.09,.17-.28,.27-.47,.27-.02,0-.04,0-.06,0"/><path class="cls-10" d="M6.24,47.77h.01s.01,0,.01,0h.01s.01,0,.01,0h.01s.01,0,.01,0h.01s.01,0,.01,0h.01s.01,0,.01,0h.01s.01,0,.01,0h.01s.01,0,.01,0h.01s.01,0,.01,0h.01s.01,0,.01,0h.01s.01,0,.01,0h.02s.01,0,.01,0h.11s.01,0,.01,0h.02s.01,0,.01,0h.01s.01,0,.01,0h.01s0,0,0,0h.01s.01,0,.01,0h0s0,0,0,0h.01s0,0,0,0h0s.01,0,.01,0h0s0,0,0,0h0s0,0,0,0h0s0,0,0,0h0s0,0,0,0h0s0,0,0,0h.01s0,.01,0,.01h.01s0,.01,0,.01h.01s.01,.01,.01,.01h.01s.01,.02,.01,.02h.01s.01,.02,.01,.02h.01s.01,.02,.01,.02h.01s.01,.02,.01,.02h.01s.01,.02,.01,.02h.01s.01,.02,.01,.02h.01s.01,.02,.01,.02h.02s.02,.03,.02,.03h.02s.01,.02,.01,.02h.02s.02,.03,.02,.03h.02s0,.02,0,.02c-.35-.08-.69-.18-1.01-.3"/><path class="cls-10" d="M4.05,51.71s.01-.03,.02-.05c.01,.01,.02,.03,.03,.04-.02,.03-.05,.06-.08,.09,0-.03,.02-.06,.02-.09"/><path class="cls-10" d="M6.33,48.74s0,0,.01,0c0,0-.01,0-.02,0,0,0,0,0,0,0-.27-.04-.53-.08-.8-.11,.13-.25,.26-.5,.39-.75h.02s.02-.01,.02-.01h.02s.02-.01,.02-.01h.02s.02-.01,.02-.01h.01s.02-.01,.02-.01h.01s.01-.01,.01-.01h.01s.01-.01,.01-.01h.01s.01,0,.01,0h.01s.01,0,.01,0h.01s.01,0,.01,0h.01s.01,0,.01,0h.01s.01,0,.01,0h.01s.01,0,.01,0h.01s.01,0,.01,0h.01s.01,0,.01,0h.01s.01,0,.01,0h.01s.01,0,.01,0h.01s.01,0,.01,0h.01s.01,0,.01,0h.01s.01,0,.01,0h.01s.01,0,.01,0h.01s.01,0,.01,0h.01s.01,0,.01,0h.02s.01,0,.01,0h.07s.01,0,.01,0h.01s.01,0,.01,0h0s.01,0,.01,0h.01s.01,0,.01,0h.01s0,0,0,0h.01s0,0,0,0h.01s0,0,0,0h.01s0,0,0,0h0s0,0,0,0h0s0,0,0,0h0s0,0,0,0h0s0,0,0,0h0s0,0,0,0h0s0,.01,0,.01h0s.01,.01,.01,.01h0s.01,.01,.01,.01h.01s.01,.01,.01,.01h.01s.01,.02,.01,.02h.01s.01,.02,.01,.02h.01s.01,.02,.01,.02h.01s.01,.02,.01,.02h.01s.01,.02,.01,.02h.01s0,.01,0,.01c-.15,.31-.38,.62-.48,.86-.09-.03-.18-.05-.27-.06"/><path class="cls-10" d="M6.29,48.78h0s.04,0,.06,0c-.02,0-.04,0-.06,0"/><path class="cls-10" d="M11.51,46.88h0s.01,0,.01,0h.01s.01-.01,.01-.01h.01s.01-.01,.01-.01h.01s.01-.01,.01-.01h.01s.01-.01,.01-.01h.01s.01-.01,.01-.01h.01s.01-.01,.01-.01h.01s.01-.01,.01-.01h.01s.01-.01,.01-.01h.01s.01-.01,.01-.01h.01s.01-.01,.01-.01h.01s.01-.01,.01-.01h.01s.01-.01,.01-.01h.01s.01-.01,.01-.01h.01s.01-.01,.01-.01h.01s.01-.01,.01-.01h.01s.01,0,.01,0h.01s.01-.01,.01-.01h.01s.01-.01,.01-.01h.01s.01-.01,.01-.01h.01s.01-.01,.01-.01h.01s.01-.01,.01-.01h.01s.01-.01,.01-.01h.01s.01-.01,.01-.01h.01s.01,0,.01,0h.01s.01,0,.01,0h.01s.01-.01,.01-.01h.01s.01,0,.01,0h.01s.01,0,.01,0h.01s.01,0,.01,0h.01s.01,0,.01,0h.01s.01,0,.01,0h.01s.01,0,.01,0h.01s.01,0,.01,0h.01s.01,0,.01,0h0s.01,0,.01,0h.02s.01,0,.01,0h.05s.01,0,.01,0h0s0,0,0,0h0s.01,0,.01,0h0s0,0,0,0h0s0,.01,0,.01h0s0,.02,0,.02h0s.01,.02,.01,.02h0s0,.03,0,.03h0c-.04,.51-.11,1.02-.2,1.53-.06,.03-.11,.05-.17,.08-.2,.09-.4,.19-.6,.29-.12,.06-.25,.13-.37,.19,.13-.61,.24-1.22,.26-1.85"/><path class="cls-10" d="M29.56,35.74c-.62-.12-.5-1.06,.13-1.03,.57-.09,1.14-.17,1.71-.24,2.98-.47,5.99-2.22,7.12-5.13,.42-1.06,.67-2.21,.81-3.34,.25-1.7,.07-3.99,1.8-4.95,1.71-.79,2.6,1.53,2.66,2.88,.07,2.09-1.3,3.97-3.13,4.87-.31,.13-.62,.38-.96,.34-1.36,4.35-5.88,6.39-10.14,6.6m10.71-8.95c-.06,.39-.14,.78-.23,1.17,1.64-.74,2.94-2.44,2.69-4.29-.12-.51-.37-1.77-1.03-1.73-1.41,.63-1.12,3.51-1.43,4.85"/><path class="cls-10" d="M20.34,28.62c-.86-.08-1.58-.63-2.16-1.24-1.75-1.67-2.55-5.3,.1-6.51,1.54-.52,2.15,1.64,2.29,2.78,.08,.49-.58,.79-.9,.41-.21-.29-.12-.67-.26-.99-.14-.43-.29-.89-.6-1.23-.15-.1-.34,.07-.46,.15-1.51,1.3-.51,3.63,.7,4.78,.34,.32,.71,.64,1.16,.76,.22,.05,.39,.03,.54,.21,.31,.31,.03,.91-.41,.86"/><path class="cls-10" d="M23.2,33.34c-1.2-.94-2.21-2.2-2.62-3.68-.69-2.28-.96-4.66-1.21-7.02,.03-.65,1.03-.63,1.03,.02,0-.01,0-.02,0-.04,0-.02,0-.04,0-.06,.31,2.51,.53,5.06,1.41,7.45,.43,.96,1.16,1.81,1.97,2.46,.56,.37,0,1.24-.57,.86"/><path class="cls-10" d="M29.79,35.8c-2.55-.39-5.06-1.4-7.18-2.87-.43-.46,.22-1.15,.71-.75,.48,.33,1,.62,1.51,.89,1.31,.67,2.74,1.21,4.17,1.54,.4,.14,.86,.05,1.18,.32,.31,.3,.05,.9-.39,.87"/><path class="cls-10" d="M39.87,22.78c-1.82-2.19-3.62-4.77-3.67-7.72,.04-.44,.67-.6,.92-.25,.09,.11,.11,.24,.11,.32,0,.38,.07,.76,.14,1.14,.28,1.37,.96,2.63,1.72,3.79,.49,.73,1.03,1.42,1.6,2.09,.41,.53-.39,1.16-.82,.63"/><path class="cls-10" d="M19.75,22.3c-.52-.62,.48-1.16,.88-1.53,2.11-1.61,4.86-1.52,7.35-2,.96-.2,1.92-.46,2.79-.76,1.82-.6,3.47-1.61,4.91-2.87,.45-.28,.79-1.17,1.4-.76,.35,.28,.17,.72-.12,.97-.54,.55-1.15,1.04-1.78,1.5-2.04,1.56-4.52,2.42-7.02,2.93-2,.43-4.15,.33-6.02,1.26-.43,.22-.84,.47-1.2,.79-.34,.29-.73,.91-1.21,.47"/><path class="cls-10" d="M42.84,21.96c-.26-.07-.45-.37-.36-.63,.24-.71,.46-1.43,.62-2.16,.64-2.91-.21-6.28-2.49-8.27-.84-.72-1.77-1.37-2.82-1.75-.37-.13-.88-.09-.89-.62,.05-.74,.93-.5,1.39-.3,3.98,1.63,6.24,5.27,6.05,9.55-.07,1.09-.33,2.18-.66,3.22-.14,.41-.25,1.11-.83,.96"/><path class="cls-10" d="M16.96,21.31c-1.65-6.34,3.14-13.2,9.22-14.97,3.24-.89,6.73-.55,9.74,.93,.59,.34,1.55,.61,1.76,1.31h0s0-.03,0-.04c.08,.6-.66,.81-.99,.35-.54-.39-1.15-.66-1.76-.93-5.84-2.48-11.73-.63-15.3,4.56-1.26,1.85-1.93,4.1-1.98,6.32,0,.73,.1,1.46,.29,2.16,.2,.64-.77,.96-.98,.32"/><path class="cls-10" d="M29.25,26.34c-.54-.68-.1-1.58,.04-2.32,.09-.32-.02-.88,.45-.89,.21,0,.38,.17,.38,.38-.03,.58-.22,1.13-.34,1.69-.12,.36,0,.92,.48,.85,.2-.04,.4,.13,.43,.33-.01,.78-1.17,.4-1.44-.03"/><path class="cls-10" d="M33.18,17.12c.33-.16,.68,.27,.46,.56,.05,.04,.1,.07,.15,.11-.02,.01-.04,.03-.05,.05,0,0-.02,0-.02,0-.02,0-.04,.02-.06,.03-.04,0-.07,.03-.1,.04-.03,.02-.06,.03-.09,.05-.06,.03-.11,.06-.17,.09-.04,.03-.09,.05-.13,.08-.03,.01-.05,.03-.08,.04,0,0-.01,0-.02,.01-.29-.33-.37-.81,.11-1.06"/><path class="cls-10" d="M33.77,16.92c.08-.67,.96-.3,1.34-.1,.03,.02,.06,.03,.1,.05-.06,.04-.11,.09-.17,.13-.07,.05-.14,.1-.21,.16-.11,.07-.22,.14-.34,.21-.31-.08-.7-.05-.71-.45"/><path class="cls-10" d="M39.59,22.7c-.28-.02-.56-.03-.83-.05,0,0,.01,0,.02,0,0,0,0,0,0,0-.28-.03-.56-.03-.85-.03h0s-.02-.06-.02-.06l-.02-.06-.02-.06-.02-.06-.02-.06-.02-.05-.02-.05-.03-.05-.03-.05-.03-.05-.03-.05-.02-.03c.4-.02,.8,0,1.19,.02,.31,.06,.69-.05,.96,.14,.2,.18,.06,.56-.21,.56,0,0-.01,0-.02,0"/><path class="cls-10" d="M29.47,22.7v-.1s0-.08,0-.08v-.08s0-.08,0-.08v-.08s-.01-.08-.01-.08v-.08s-.02-.07-.02-.07v-.02s.06,0,.1,0c.23,.01,.44,.03,.56,.01,.07,.01,.16,.02,.27,.02h0s-.03,.06-.03,.06l-.03,.05-.03,.05-.02,.05-.02,.05-.02,.05-.02,.05v.05s-.03,.05-.03,.05v.05s-.02,.05-.02,.05v.04s0,.02,0,.02c-.22,0-.43,0-.65,0"/><path class="cls-10" d="M19.67,22.63c-.4-.12-.2-.75,.2-.62,.72,.04,1.44,.05,2.16,.07l-.03,.03-.03,.04-.03,.04-.03,.04-.03,.04-.02,.04-.02,.04-.02,.05-.02,.05-.02,.05-.02,.05-.02,.05-.02,.05-.02,.05h0c-.68,0-1.35,0-2.01-.08"/><path class="cls-10" d="M35.9,25.82l-.02-.05-.02-.05-.02-.05-.02-.05-.02-.05-.02-.05-.02-.05-.02-.05-.02-.05-.02-.04-.02-.04-.02-.04-.02-.04h0c.17-.02,.33-.03,.5-.04,.22-.04,.5,0,.53,.27,.02,.17-.1,.35-.28,.37-.16,.01-.32,.02-.47,.03v-.03Z"/><path class="cls-10" d="M36.3,25.89c-.21,0-.32-.16-.32-.33s.11-.33,.32-.33c.35,0,.73,0,1.06-.14,.09-.91,.08-1.88-.02-2.82,.02-.04,.04-.09,.06-.13,.03-.03,.06-.07,.09-.1,.16-.02,.32-.03,.48-.06,.15,.88,.04,1.81,.08,2.69,.14,1.06-.8,1.2-1.62,1.2-.05,0-.09,0-.14,0"/><path class="cls-10" d="M37.57,22.43c-.18-.44,.37-.53,.69-.5,.05,0,.1,0,.15-.01l.02,.03,.03,.05,.03,.05,.03,.05,.02,.05,.02,.05,.02,.05,.02,.05,.02,.06,.02,.06,.02,.06,.02,.06h0c-.22,0-.44,.02-.66,.03-.05,.03-.1,.04-.15,.04-.13,0-.26-.08-.31-.2"/><path class="cls-10" d="M32.23,25.92c-1,0-1.37-.51-1.42-1.46-.06-.74-.15-1.52,.02-2.26,.11,.06,.22,.1,.35,.11,.07,0,.14,.01,.21,.02,0,.04,0,.08,.01,.11,0,.03,.01,.07,.03,.1-.16,.79,.02,1.9,.18,2.54,.44,.25,1,.23,1.54,.2,.22,0,.43-.02,.63,0,.27,0,.53-.02,.79-.04h0s.02,.05,.02,.05l.02,.04,.02,.04,.02,.04,.02,.05,.02,.04,.02,.04,.02,.05,.02,.05,.02,.05,.02,.05,.02,.05,.02,.05v.03c-.55,.04-1.12,.07-1.68,.07-.31,0-.61,0-.92-.03"/><path class="cls-10" d="M31.06,22.71c-.42,0-.85-.01-1.27-.02v-.07s.01-.05,.01-.05v-.05s.02-.05,.02-.05v-.05s.03-.05,.03-.05l.02-.05,.02-.05,.02-.05,.03-.05,.03-.05,.03-.05h0c.09-.01,.18-.02,.28-.02,.49-.02,1.08-.04,1.08,.34,0,.17-.14,.33-.32,.33h0Z"/><path class="cls-10" d="M26.48,25.92v-.03s0-.03,0-.03v-.03s0-.03,0-.03v-.03s0-.03,0-.03v-.03s0-.03,0-.03v-.03s0-.04,0-.04v-.04s0-.04,0-.04v-.04s0-.04,0-.04v-.05s0-.05,0-.05v-.05s0-.04,0-.04c.18-.01,.37-.02,.55-.03,.22-.04,.49,0,.52,.27,.02,.17-.1,.35-.28,.37-.29,.02-.57,.04-.86,.05h0Z"/><path class="cls-10" d="M27.25,25.95c-.21,0-.32-.16-.32-.33,0-.16,.1-.33,.32-.33,.35,0,.73,0,1.06-.14,.09-.87,.09-1.81,0-2.71,.03-.04,.05-.08,.08-.11,0,.01-.01,.02-.02,.03,.05-.06,.09-.13,.14-.18,.04-.02,.09-.03,.14-.05,.1,0,.2,0,.3,0,.13,.85,.03,1.76,.07,2.61,.14,1.06-.8,1.2-1.62,1.2-.05,0-.09,0-.14,0"/><path class="cls-10" d="M28.48,22.38c0-.1,.04-.18,.12-.23,.02,0,.04-.02,.06-.02,.03-.01,.05-.02,.07-.04,.23-.08,.59-.07,.91-.05v.02s.01,.07,.01,.07v.08s.02,.08,.02,.08v.08s.01,.08,.01,.08v.08s0,.08,0,.08v.08s0,.03,0,.03c-.15,0-.31,0-.46,0-.08,0-.18,.01-.28,.01-.23,0-.46-.05-.47-.33"/><path class="cls-10" d="M23.49,25.94c-1,0-1.37-.51-1.42-1.46-.06-.76-.16-1.55,.03-2.29,.15,.07,.32,.11,.49,.11,.02,0,.05,0,.07,0,0,.02,.02,.04,.03,.07,.01,.03,.02,.05,.03,.08-.21,.8-.02,1.99,.15,2.67,.44,.25,1,.23,1.54,.2,.22,0,.43-.02,.63,0,.09,0,.19,0,.28-.01l.02,.05,.02,.07,.03,.06,.03,.06,.03,.06,.03,.05,.03,.05,.03,.05,.03,.05,.03,.04,.03,.04,.03,.04,.02,.02c-.42,.02-.85,.04-1.27,.04-.31,0-.61,0-.92-.03"/><path class="cls-10" d="M22.38,22.77c-.41-.03-.82-.04-1.24-.05h0s.02-.07,.02-.07l.02-.05,.02-.05,.02-.05,.02-.05,.02-.05,.02-.05,.03-.04,.02-.04,.03-.04,.03-.04,.03-.04,.03-.04,.03-.03c.3,0,.59,.02,.89,.04,.14,0,.23,.07,.28,.16,0,.02,.01,.04,.02,.06,0,.03,.01,.07,.02,.1,0,.16-.1,.33-.31,.33h0Z"/><path class="cls-10" d="M25.88,25.91l-.03-.04-.03-.04-.03-.04-.03-.04-.03-.05-.03-.05-.03-.05-.03-.06-.03-.06-.02-.06-.02-.06-.02-.05c.15,0,.31-.01,.46-.02v.03s0,.05,0,.05v.1s0,.04,0,.04v.04s0,.04,0,.04v.04s0,.04,0,.04v.04s0,.03,0,.03v.03s0,.03,0,.03v.03s0,.03,0,.03v.03s0,.03,0,.03v.03s0,0,0,0c-.01,0-.02,0-.04,0l-.02-.02Z"/><path class="cls-10" d="M24.36,25.65c0-.21,.17-.38,.38-.38,.47,0,.94-.06,1.42-.06,.42,0,.85,0,1.27-.03,.23-.05,.48,.06,.52,.32,.03,.2-.12,.41-.33,.43-.56,.05-1.13,.03-1.69,.05-.4,.01-.79,.05-1.19,.05-.21,0-.38-.17-.38-.38"/><path class="cls-10" d="M34.12,25.99c-.38-.04-.44-.6-.09-.73,1.13-.21,2.3-.1,3.44-.25,.49-.05,.6,.68,.1,.75-1.15,.13-2.31,.09-3.45,.23"/><path class="cls-10" d="M25.57,25.86c-2.15-.06-3.38-1.76-2.48-3.77,1.01-2.24,4.46-2.29,5.15,.16,.29,1.1-.03,2.36-.94,3.07-.45,.38-1.15,.76-1.73,.54m.36-.71c2.33-.46,2.21-4.15-.39-3.99-1.46,.06-2.5,1.91-1.71,3.16,.39,.54,1.1,.71,1.73,.77,.13,0,.27-.03,.38,.06"/><path class="cls-10" d="M25.16,24.4c-.82-.38-.99-1.75-.22-2.25,.24-.13,.52-.16,.79-.2,.73,.04,1.31,.77,1.17,1.49-.07,.5-.47,1.06-1.03,1.01-.22,.11-.51,.05-.72-.05"/><path class="cls-10" d="M34.34,25.86c-2.15-.06-3.38-1.76-2.48-3.77,1.01-2.24,4.46-2.29,5.15,.16,.29,1.1-.03,2.36-.94,3.07-.45,.38-1.15,.76-1.73,.54m.36-.71c2.33-.46,2.21-4.15-.39-3.99-1.46,.06-2.5,1.91-1.71,3.16,.39,.54,1.1,.71,1.73,.77,.13,0,.27-.03,.38,.06"/><path class="cls-10" d="M33.93,24.4c-.82-.38-.99-1.75-.22-2.25,.24-.13,.52-.16,.79-.2,.73,.04,1.31,.77,1.17,1.49-.07,.5-.47,1.06-1.02,1.01-.22,.11-.51,.05-.72-.05"/><path class="cls-10" d="M30.05,31.53c-.67-.06-2.15-1.08-1.96-1.81-.42-.34-.04-.76,.41-.73,.69-.15,1.34-.4,1.98-.7,.58-.18,2.29-1.33,2.71-.87,.5,.72,.29,1.75,.07,2.54-.38,1.05-1.54,1.63-2.63,1.63-.2,0-.39-.02-.58-.06m-1.28-1.82c.4,.7,1.15,1.17,1.97,1.13,1.55-.14,2.17-1.25,1.96-2.71-1.31,.53-2.54,1.27-3.93,1.58"/><path class="cls-8" d="M27.16,18.28c-.3-.38-1.36-.2-2.35,.4-.99,.59-1.55,1.38-1.25,1.75,.31,.38,1.36,.2,2.35-.4,.99-.59,1.55-1.38,1.25-1.75"/><path class="cls-10" d="M24.43,20.91c-1.41,.13-1.4-1.05-.56-1.76,.77-.72,1.86-1.35,3.01-1.33,.52,0,.88,.37,.85,.8-.02,.51-.54,.89-.98,1.22-.19,.21-.51,.33-.75,.49-.48,.28-1,.51-1.57,.58m.32-.7c.54-.16,1-.47,1.46-.74,.21-.23,.53-.38,.7-.64,.38-.79-1.25-.18-1.58,.05-.58,.24-2.24,1.79-.57,1.34"/><path class="cls-7" d="M24.43,20.91c-1.41,.13-1.4-1.05-.56-1.76,.77-.72,1.86-1.35,3.01-1.33,.52,0,.88,.37,.85,.8-.02,.51-.54,.9-.98,1.22-.19,.21-.51,.33-.75,.49-.48,.28-1,.51-1.57,.58Zm.32-.7c.54-.16,1-.47,1.46-.74,.21-.23,.53-.38,.7-.64,.38-.79-1.25-.18-1.58,.05-.58,.24-2.24,1.79-.57,1.34Z"/><path class="cls-8" d="M33.24,18.28c.3-.38,1.36-.2,2.35,.4,.99,.59,1.55,1.38,1.25,1.75-.31,.38-1.36,.2-2.35-.4-1-.59-1.55-1.38-1.25-1.75"/><path class="cls-10" d="M34.4,20.32c-.25-.16-.56-.28-.75-.49-.44-.33-.95-.71-.97-1.22-.03-.42,.33-.8,.85-.8,1.15-.03,2.23,.61,3.01,1.33,.84,.71,.85,1.89-.56,1.76-.57-.07-1.09-.3-1.57-.58m.67-1.46c-.33-.22-1.96-.83-1.58-.05,.17,.26,.49,.41,.7,.64,.46,.28,.93,.59,1.46,.74,1.67,.45,0-1.1-.57-1.34"/><path class="cls-7" d="M34.4,20.32c-.25-.16-.56-.28-.75-.49-.44-.33-.95-.71-.97-1.22-.03-.42,.33-.8,.85-.8,1.15-.03,2.23,.61,3.01,1.33,.84,.71,.85,1.89-.56,1.76-.57-.07-1.09-.3-1.57-.58Zm.67-1.46c-.33-.22-1.96-.83-1.58-.05,.17,.26,.49,.41,.7,.64,.46,.28,.93,.59,1.46,.74,1.67,.45,0-1.1-.57-1.34Z"/></g><g><path class="cls-1" d="M8.78,13.77s-2.9-4.39-1.74-12.12c.21-1.43,1.31-1.42,2.13-1.29,.74,.12,4.13,.8,8.38,3.26l1.12,10.98-9.89-.82Z"/><path class="cls-1" d="M51.28,13.77s2.9-4.39,1.74-12.12c-.21-1.43-1.31-1.42-2.13-1.29-.74,.12-4.13,.8-8.38,3.26l-6.34,5.37,10.26,6.24,4.85-1.45Z"/><path class="cls-4" d="M15.91,6.85c-2.55-2.41-4.83-3.03-5.18-3.09-.39-.06-.93-.17-.97,.52-.19,3.13,1.5,5.87,1.5,5.87l4.18,2.16,.48-5.47Z"/><path class="cls-4" d="M48.82,10.15s1.69-2.74,1.5-5.87c-.04-.69-.58-.58-.97-.52-.36,.06-2.64,.68-5.18,3.09v5.09l4.66-1.79Z"/><path class="cls-1" d="M52.97,22.33c0,9.27-10.28,15.18-22.96,15.18S7.05,31.6,7.05,22.33,17.33,3.93,30.01,3.93s22.96,9.13,22.96,18.4Z"/><circle class="cls-2" cx="21.15" cy="13.53" r="2.02"/><circle class="cls-10" cx="21.15" cy="13.45" r="1.14"/><circle class="cls-2" cx="38.85" cy="13.53" r="2.02"/><circle class="cls-10" cx="38.85" cy="13.45" r="1.14"/><path class="cls-3" d="M32.32,17.11c.05-1.11-.44-1.93-.44-1.93,.65-.48,1.13-1.21,1.13-1.21-.42-.31-1.96-.41-1.96-.41-.55-1.12-1.03-1.62-1.03-1.62-.65,.62-1.09,1.62-1.09,1.62,0,0-1.54,.1-1.96,.41,0,0,.47,.73,1.13,1.21,0,0-.49,.82-.44,1.93,0,0,1.37-.14,2.29-.88,.81,.6,1.74,.86,2.39,.88Z"/><ellipse class="cls-2" cx="16.63" cy="16.21" rx="2.05" ry=".98"/><ellipse class="cls-2" cx="43.24" cy="16.21" rx="2.05" ry=".98"/><path class="cls-5" d="M23.17,17.1s.15,3.33,2.81,3.33,3.73-2.27,3.95-4.13"/><path class="cls-5" d="M36.72,17.1s-.15,3.33-2.81,3.33-3.73-2.27-3.95-4.13"/><path class="cls-5" d="M34.2,37.25s-4.34,.99-8.36,.01"/><path class="cls-2" d="M43.48,7.54c.69,.89,.25,1.58-.15,1.86-3.44,2.37-10.5-.41-12.32-3.89-.13-.24-.2-1.08,.64-1.41l6.62,3.09,5.2,.34"/><path class="cls-2" d="M16.55,7.54l3.64-1.58,8.18-1.85c.84,.32,.77,1.16,.64,1.41-1.87,3.57-8.82,6.29-12.32,3.89-.4-.28-.84-.97-.15-1.86"/><path class="cls-3" d="M29.07,4.81s.96-.38,1.98,0l1.06,.07-.54-.95c-1.59-.38-3.1,0-3.1,0l-.85,.91,1.46-.03Z"/><path class="cls-4" d="M27.61,2.79s.49,.76,.87,1.55c.11,.23,.11,.49-.01,.71-1.48,2.83-8.44,5.68-11.41,3.63-.37-.26-.57-.7-.52-1.14,.26-2.1,1-3.88,1-3.88l5.01-.87h5.06Z"/><path class="cls-4" d="M42.48,3.67s.74,1.78,1,3.88c.06,.45-.15,.89-.52,1.14-2.97,2.05-9.93-.8-11.41-3.63-.12-.22-.12-.49-.01-.71,.38-.78,.87-1.55,.87-1.55h4.07s6,.87,6,.87Z"/><ellipse class="cls-2" cx="22.57" cy="3.35" rx="5.05" ry="1.95" transform="translate(-.21 2.12) rotate(-5.36)"/><ellipse class="cls-2" cx="37.45" cy="3.35" rx="1.95" ry="5.05" transform="translate(30.62 40.33) rotate(-84.64)"/><path class="cls-3" d="M43.86,8.66s3.9,1.28,7.37,7.02c0,0,.39-.91-.37-2.39-2.01-3.9-5.64-6.01-7.5-6.6l.51,1.97Z"/><path class="cls-3" d="M16.13,8.66s-3.9,1.28-7.37,7.02c0,0-.39-.91,.37-2.39,2.01-3.9,5.64-6.01,7.5-6.6l-.51,1.97Z"/><ellipse class="cls-4" cx="22.59" cy="3.33" rx="3.88" ry="1.21" transform="translate(-.21 2.13) rotate(-5.36)"/><ellipse class="cls-4" cx="37.44" cy="3.33" rx="1.21" ry="3.88" transform="translate(30.63 40.29) rotate(-84.64)"/></g><g><polygon class="cls-8" points="44.84 29.59 47.35 28.23 48.7 26.68 50.06 22.87 50.52 20.97 52.53 20.39 53.42 21.47 53.85 23.53 55.26 21.47 57.3 22.39 56.82 25.4 58.74 24.54 59.99 26.42 59.43 27.27 58.43 28.15 60.67 29.04 60.75 31.95 60.57 32.56 59.38 32.28 58.68 30.59 56.54 32.77 54.92 33.92 55.98 36.86 54.31 37.5 50.31 37.42 49.49 36.51 49.48 33.31 47.27 32.52 45.24 32.26 44.44 30.64 44.84 29.59"/><polygon class="cls-8" points="49.11 36.6 49.22 39.29 52.06 40.62 54.02 40.39 57.96 37.81 57.29 35.36 55.08 37.2 53.04 37.41 49.11 36.6"/><path class="cls-10" d="M49.1,35.65h0s0,0,0,0h0s0,0,0,0h0s0,0,0,0h0s0,0,0,0h0s0,0,0,0h0s0,0,0,0h0s0,0,0,0h0s0,0,0,0h0s0,0,0,0h0s0,0,0,0h0s0,0,0,0h0s0,0,0,0h0s0,0,0,0h0s0,0,0,0h0s0,0,0,0h0s0,0,0,0h0s0,0,0,0h0s0,0,0,0h0s0,.01,0,.01h0s0,0,0,0h0s0,0,0,0h0s0,0,0,0h0s0,0,0,0h0s0,0,0,0h0s0,0,0,0h0s0,.01,0,.01h0s0,0,0,0h0s0,0,0,0h0s0,.01,0,.01h0s0,0,0,0h0s0,.01,0,.01h0s0,.01,0,.01h0s0,.01,0,.01h0s0,.01,0,.01h0v.02h0v.02h0s0,.01,0,.01h0v.02h0v.02h0v.02h0v.02h0v.02h0s0,.01,0,.01h0s0,.02,0,.02h0s0,.02,0,.02h0s0,.01,0,.01h0s0,.01,0,.01h0s0,.01,0,.01h0s0,.01,0,.01h0s0,0,0,0h0s0,.01,0,.01h0s0,.01,0,.01h0s0,.01,0,.01h0s0,.01,0,.01h0s0,.01,0,.01h0s0,.01,0,.01h0s0,.01,0,.01h0s0,.01,0,.01h0s0,.01,0,.01h0s0,0,0,0h0s0,.01,0,.01h0s0,.01,0,.01h0s0,.01,0,.01h0s0,0,0,0c-.02-.22-.04-.43-.06-.65"/><path class="cls-10" d="M47.94,33.68c-.2-.15-.43-.2-.66-.27-.27-.1-.52-.27-.8-.33-.27-.06-.56-.04-.84-.06h0s0,0,0,0h0s0,0,0,0h0s0,0,0,0h0s0,0,0,0h0s0,0,0,0h0s0,0,0,0h0s0,0,0,0h0s0,0,0,0h0s0,0,0,0h0s0,0,0,0h0s0,0,0,0h0s0,0,0,0h0s0,0,0,0h0s0,0,0,0h0s0,0,0,0h0s0,0,0,0h0s0,0,0,0h0s0,0,0,0h0s0,0,0,0h0s0,0,0,0h0s0,0,0,0h0s0,0,0,0h0s0,0,0,0h0s0,0,0,0h0s0,0,0,0h0s0,0,0,0h0s0,0,0,0h0s0,0,0,0h0s0,0,0,0h0s0,0,0,0h0s0,0,0,0h0s0,0,0,0h0s0,0,0,0h0s0,0,0,0h0s0,0,0,0h0s0,0,0,0h0s0,0,0,0h0s0,0,0,0h0s0,0,0,0h0s0,0,0,0h0s0,0,0,0h0s0,0,0,0h0s0,0,0,0h0s0,0,0,0h0s0,0,0,0h0s0,0,0,0h0s0,0,0,0h0s0,0,0,0h0s0,0,0,0h0s0,0,0,0h0s0,0,0,0h0s0,0,0,0h0s0,0,0,0h0s0,0,0,0h0s0,0,0,0h0s0,0,0,0h0s0,0,0,0h0s0,0,0,0h0s0,0,0,0h0s0,0,0,0h0s0,0,0,0h0s0,0,0,0h-.01s0,0,0,0h0s0,0,0,0h0s0,0,0,0h-.01s0,0,0,0h0s0,0,0,0h0s0,0,0,0h0s0,0,0,0h0s0,0,0,0h0s0,0,0,0h0s0,0,0,0h0s0,0,0,0h0s0,0,0,0h0s0,0,0,0c-.06-.04-.13-.08-.19-.12-.04-.02-.08-.05-.11-.07-.25-.28-.38-.65-.36-1.03,.06-.71-.04-1.52,.37-2.13,1.26-1.46,3.06-1.37,3.68-3.56,.32-.85,.6-1.71,.93-2.55,.23-.75,.3-1.54,.67-2.24,.26-.61,1.91-1.33,2.02-.31-.03,.78-1.11,.3-1.22,1.07-.17,.47-.27,.95-.37,1.43-.23,.78-.56,1.54-.81,2.31-.51,1.71-1.33,2.88-2.97,3.65-.42,.25-.93,.51-1.15,.96-.02,.5-.26,1.29,0,1.73,.17,.15,.4,.15,.63,.14,.15,0,.3-.01,.43,.03,.48,.04,.83,.25,1.2,.41,.23,.08,.48,.14,.69,.27,.42-.29,.54-.85,.42-1.33-.36-.29-.75-.59-1.21-.71-.82-.17-.58-1.78,1.26-.55,.81,.5,1.14,.97,1,1.95-.04,.67-.73,1.71-1.47,1.71-.14,0-.27-.03-.41-.11"/><path class="cls-10" d="M51.9,24.98c-.67-.19-1.73-1.94-.58-2.1,.65,0,.44,.89,.92,1.12,.83-.07,.88-.54,.74-1.24-.11-.56,.01-1.87-.85-1.7-.34,.08-.67,.22-1.02,.27-.6,0-.7-.88-.12-1.02,1.36-.51,2.54-.47,2.86,1.2,.11,.44,.13,.9,.18,1.35,.05,.37,.11,.76-.07,1.1-.25,.66-.98,1.06-1.68,1.06-.13,0-.26-.02-.39-.05"/><path class="cls-10" d="M55.44,26.61c-.98-.23-1.71-1.34-1.33-2.32,.15-.41,.8-.41,.95,0,.11,.25-.07,.51,.01,.77,.15,.42,.7,.7,1.08,.39,.05-.94,.22-1.86,.23-2.8-.38-.3-.86-.55-1.31-.68-.21,.46-.52,.86-.71,1.32-.27,.37-.32,1.06-.86,1.09-.28,0-.52-.24-.52-.52,0-.22,.15-.39,.22-.59,.29-.6,.62-1.17,.95-1.76,.41-.81,1.29-.63,1.92-.24,.42,.15,.76,.41,1.1,.68,.5,.64,.12,1.64,.09,2.38-.02,1.37-.12,2.28-1.63,2.28-.07,0-.14,0-.21,0"/><path class="cls-10" d="M57.73,28.56c-.56-.23-1.05-.7-1.05-1.34-.07-.47-.09-.98,.24-1.36-.49,.43-1.17-.3-.7-.76,.58-.34,2.15-1.87,2.75-1.25,.55,.86,1.88,1.73,1.33,2.89-.33,.44-.79,.77-1.11,1.22-.3,.38-.6,.69-1.02,.69-.13,0-.28-.03-.45-.1m.01-2.07c-.15,.23-.02,.55,0,.81,.07,.15,.26,.24,.4,.31,.41-.47,.81-.95,1.26-1.37,.03-.17-.1-.29-.19-.42-.22-.36-.52-.66-.8-.97-.39,.25-.79,.49-1.15,.78,.04-.01,.08-.01,.12-.01,.42,0,.68,.56,.36,.88"/><path class="cls-10" d="M54.22,33.91c-.61,0-1.11-.34-1.69-.42-.4-.03-.94,0-.95-.54,.07-.8,1.1-.46,1.59-.39,.43,.18,.85,.34,1.32,.35,.2,.04,.36-.07,.53-.16,.44-.19,.89-.37,1.3-.62,.27-.23,.57-.42,.83-.65,.17-.23,.38-.41,.55-.63,.09-.15,.16-.32,.3-.43,.37-.23,.92-.58,1.27-.13,.15,.21,.12,.47,.17,.71,.12,.39,.22,.83,.59,1.04,.21-.84,.41-1.77,.29-2.65-.26-.28-.64-.41-.88-.71-.36-.17-.89-.34-.98-.78-.04-.59,.6-.74,.98-.38,.18,.15,.42,.19,.61,.32,.26,.27,.59,.44,.87,.69,.46,.32,.48,.9,.48,1.41,.02,.56-.12,1.1-.2,1.65-.08,.41-.09,.89-.42,1.18-.93,.93-2.05-.33-2.26-1.28-.69,.87-1.57,1.58-2.6,2-.46,.19-.9,.46-1.39,.46-.1,0-.21-.01-.31-.04"/><path class="cls-10" d="M49.28,37.17c-.04-.47-.08-.94-.12-1.42h0s0,0,0,0h0s0-.01,0-.01h0s0-.01,0-.01h0s0,0,0,0h0s0-.01,0-.01h0s0,0,0,0h0s0-.01,0-.01h0s0-.01,0-.01h0s0-.01,0-.01h0s0-.01,0-.01h0s0-.01,0-.01h0s0-.01,0-.01h0s0-.01,0-.01h0s0-.01,0-.01h0s0-.02,0-.02h0s0-.01,0-.01h0s0-.01,0-.01h0s0-.01,0-.01h0s0-.02,0-.02h0s0,0,0,0h0s0-.02,0-.02h0s0-.02,0-.02h0v-.02h0v-.02h0v-.02h0s0-.01,0-.01h0s0-.02,0-.02h0v-.02h0s0-.01,0-.01h0s0-.02,0-.02h0s0-.01,0-.01h0v-.02h0s0-.01,0-.01h0s0-.01,0-.01h0s0-.02,0-.02h0s0-.01,0-.01h0s0-.01,0-.01h0s0-.01,0-.01h0s0,0,0,0h0s0,0,0,0h0s0-.01,0-.01h0s0,0,0,0h0s0,0,0,0h0s0,0,0,0h0s0,0,0,0h0s0,0,0,0h0s0,0,0,0h0s0,0,0,0h0s0,0,0,0h0s0,0,0,0h0s0,0,0,0h0s0,0,0,0h0s0,0,0,0h0s0,0,0,0h0s0,0,0,0h0s0,0,0,0h0s0,0,0,0h0s0,0,0,0h0s0,0,0,0h0s0,0,0,0h0c-.09-1.04-.17-2.08-.21-3.11,.28-.73,1.2-.35,1.01,.39,.24,1.72,.27,3.46,.44,5.18-.33-.19-.69-.31-1.06-.41"/><path class="cls-10" d="M54.91,35.22c-.18-.66-.84-1.34-.48-2.03,.31-.53,1.16-.13,.93,.45,.33,.79,.65,1.57,.99,2.35,0,0-.02,0-.03,.01-.29,.11-.57,.23-.85,.37-.03,.01-.06,.03-.09,.04-.17-.39-.33-.79-.47-1.19"/><path class="cls-10" d="M52.87,40.92c-1.42-.07-2.95-.51-3.99-1.51-.3-.52,.4-1.06,.82-.62,.87,.65,1.95,1.01,3.01,1.09,1.5,.11,2.8-.78,3.89-1.71,.29-.26,.57-.52,.83-.81,.19-.21,.54-.19,.73,0,.2,.2,.2,.53,0,.73-.55,.59-1.16,1.13-1.83,1.59-.98,.72-2.13,1.24-3.36,1.24-.03,0-.07,0-.1,0"/><path class="cls-10" d="M51.12,37.86c-.57-.2-2.17-.58-2.43-1.08-.07-.18-.05-.34,.03-.46,.04-.05,.09-.09,.13-.14,.18-.14,.45-.16,.65,0,2.68,1.19,5.07,1.58,7.02-1.03,.41-.53,1.22,.09,.82,.63-1.2,1.58-2.63,2.36-4.35,2.36-.59,0-1.2-.09-1.86-.27"/><path class="cls-10" d="M57.16,37.75c-.19-.75-.25-1.54-.45-2.29-.13,0-.29,.03-.46,.05-.49,.08-1.05,.15-1.1-.46,0-.27,.22-.51,.49-.52,.39-.04,.77-.12,1.16-.11,.45-.03,.79,.31,.89,.72,.23,.76,.27,1.56,.46,2.33,.1,.39-.21,.65-.52,.65-.2,0-.4-.11-.48-.37"/><path class="cls-10" d="M48.7,39.14c-.12-.59-.19-1.18-.22-1.78,.06-.28,.07-.57,.11-.85,0-.02,0-.05,.01-.07,0-.01,.02-.03,.03-.04,.08-.09,.16-.18,.25-.28,0,0,.02-.02,.03-.03,.27-.03,.58,.13,.58,.5,0,.75,.06,1.5,.2,2.23,.04,.15,.03,.3-.05,.43-.09,.17-.26,.25-.44,.25-.22,0-.45-.13-.5-.37"/><path class="cls-10" d="M58.12,38.2c.07-.02,.13-.05,.18-.1-.05,.04-.12,.08-.18,.1"/><path class="cls-10" d="M48.86,37.39c-.13-.06-.24-.14-.34-.24,.03-.21,.04-.43,.07-.64,0-.02,0-.05,.01-.07,0-.01,.02-.03,.03-.04,.08-.09,.17-.18,.25-.27,.02-.03,.05-.06,.07-.08,.16,.18,.31,.37,.45,.56,.24,.33-.05,.8-.43,.8-.04,0-.08,0-.12-.02"/><path class="cls-10" d="M48.72,36.23h0s0,0,0,0h0s0-.01,0-.01h0s0,0,0,0h0s0-.01,0-.01h0s0-.01,0-.01h0s0,0,0,0h0s0-.01,0-.01h0s0-.01,0-.01h0s0-.01,0-.01h0s0,0,0,0h0s0-.01,0-.01h0s0-.01,0-.01h0s0-.01,0-.01h0s0,0,0,0h0s0-.01,0-.01h0s0-.01,0-.01h0s0-.01,0-.01h0s0-.01,0-.01h0s0-.01,0-.01h0s0-.01,0-.01h0s0-.01,0-.01h0s0-.01,0-.01h0s0-.01,0-.01h0s0-.02,0-.02h0s0-.01,0-.01h0s0-.02,0-.02h0s0-.02,0-.02h0s0-.02,0-.02h0s0-.02,0-.02h0s0-.02,0-.02h0s0-.02,0-.02h0s0-.02,0-.02h0s0-.02,0-.02h0s0-.02,0-.02h0s0-.01,0-.01h0s0-.01,0-.01h0s0-.01,0-.01h0s0-.01,0-.01h0s0-.01,0-.01h0s0-.01,0-.01h0s0-.01,0-.01h0s0-.01,0-.01h0s0-.01,0-.01h0s0-.01,0-.01h0s0,0,0,0h0s0-.01,0-.01h0s0,0,0,0h0s0-.01,0-.01h0s0-.01,0-.01h0s0-.01,0-.01h0s0-.01,0-.01h0s0-.01,0-.01h0s0-.01,0-.01h0s0-.01,0-.01h0s0-.01,0-.01h0s0-.02,0-.02h0s0,0,0,0h0s0-.02,0-.02h0s0-.01,0-.01h0v-.02h0v-.02h0v-.02h0v-.02h0v-.02h0s0-.01,0-.01h0s0-.01,0-.01h0s0-.02,0-.02h0s0-.01,0-.01h0v-.02h0c.16,.24,.21,.5,.02,.74-.1,.1-.23,.15-.36,.15-.05,0-.1,0-.15-.02"/><path class="cls-10" d="M45.81,33.07h0s0,0,0,0h0s0,0,0,0h0s0,0,0,0h-.01s0,0,0,0h0s0,0,0,0h0s0,0,0,0h0s0,0,0,0h0s0,0,0,0h0s0,0,0,0h0s0,0,0,0h0s0,0,0,0h0s0,0,0,0h0s0,0,0,0h0s0,0,0,0h0s0,0,0,0h0s0,0,0,0h0s0,0,0,0h0s0,0,0,0h0s0,0,0,0h0s0,0,0,0h0s0,0,0,0h0s0,0,0,0h0s0,0,0,0h0s0,0,0,0h0s0,0,0,0h0s0,0,0,0h0s0,0,0,0h0s0,0,0,0h0s0,0,0,0h0s0,0,0,0h0s0,0,0,0h0s0,0,0,0h0s0,0,0,0h0s0,0,0,0h0s0,0,0,0c.12,.04,.24,.08,.36,.13h0Z"/></g></svg>