<?xml version="1.0" encoding="utf-8"?>
<!-- Generator: Adobe Illustrator 26.4.1, SVG Export Plug-In . SVG Version: 6.00 Build 0)  -->
<svg version="1.1" id="レイヤー_1" xmlns="http://www.w3.org/2000/svg" xmlns:xlink="http://www.w3.org/1999/xlink" x="0px"
	 y="0px" viewBox="0 0 278 79" style="enable-background:new 0 0 278 79;" xml:space="preserve">
<style type="text/css">
	.st0{fill:#FFFFFF;}
	.st1{clip-path:url(#SVGID_00000034083330288208758960000007854697789653072295_);}
</style>
<g id="footer_text01" transform="translate(-741.996 -8536.521)">
	<path id="パス_19693" class="st0" d="M1020,8564.7l-23.3-28.2h4.6L1020,8564.7z"/>
	<path id="パス_19694" class="st0" d="M947.9,8598.8l-91.6,14.5l3.1,2.2L947.9,8598.8z"/>
	<g id="グループ_5061">
		<path id="パス_36562" class="st0" d="M747,8556.6l-4.5,0.6l-0.5-3.5l4.5-0.6l-0.3-2.5l3.4-0.5l0.3,2.5l2.6-0.4
			c-0.4-0.6-0.9-1.3-1.6-2.2l3.8-0.5c1.5,2.3,2.6,4,3.3,5.2c0.7,1.2,1,1.8,1,1.8l-3.6,0.5c-0.4-0.8-0.7-1.4-1-1.9
			c-0.4-0.7-0.9-1.4-1.4-2.1l0.4,2.6l-2.9,0.4l0.3,1.9c0.2-0.1,0.4-0.1,0.5-0.2c0.8-0.1,1.6-0.2,2.4-0.1c0.9,0,1.7,0.2,2.5,0.6
			c0.8,0.4,1.6,0.9,2.1,1.7c0.7,0.9,1.1,2,1.2,3.2c0.2,1.1,0.1,2.3-0.3,3.4c-0.3,0.8-0.8,1.6-1.5,2.2c-0.6,0.5-1.3,1-2.1,1.2
			c-0.7,0.3-1.4,0.4-2.1,0.5l-0.5-3.8c0.7-0.1,1.3-0.3,1.9-0.5c0.4-0.2,0.8-0.5,0.9-1c0.1-0.5,0.2-1,0.1-1.6
			c-0.1-0.8-0.6-1.6-1.3-1.9c-1-0.4-2.1-0.5-3.1-0.2l-0.1,0c-0.1,0-0.1,0-0.1,0l0.6,4.2c0.2,1.1,0.1,2.1-0.4,3.1
			c-0.3,0.6-0.8,1.1-1.4,1.5c-0.5,0.2-1,0.4-1.5,0.4c-0.7,0.1-1.5,0-2.2-0.3c-0.8-0.3-1.5-0.9-2-1.5c-0.6-0.8-1-1.7-1.2-2.7
			c-0.2-1-0.1-1.9,0.2-2.9c0.3-0.9,0.8-1.8,1.5-2.5c0.7-0.8,1.5-1.4,2.5-1.8L747,8556.6z M748.4,8566.5l-0.5-3.8
			c-0.5,0.3-0.9,0.8-1.2,1.3c-0.2,0.5-0.3,1.1-0.3,1.6c0,0.3,0.1,0.6,0.4,0.9c0.2,0.2,0.4,0.3,0.7,0.4c0.2,0.1,0.4,0.1,0.6,0.1
			c0,0,0.1,0,0.2,0S748.4,8566.8,748.4,8566.5z M768.3,8546c-0.8,1.4-1.7,2.7-2.7,4c-1,1.2-2,2.4-3.2,3.4c-0.3-0.5-0.7-1-1-1.4
			c-0.5-0.6-0.8-1-1.2-1.4c0.9-0.8,1.8-1.7,2.6-2.6c0.7-0.9,1.4-1.8,1.9-2.8L768.3,8546z M781.9,8543.4l1.2,8.9l-12.6,1.8l-1.2-8.9
			L781.9,8543.4z M778.7,8547.1l-0.1-0.8l-5.5,0.8l0.1,0.8L778.7,8547.1z M769.6,8551.3c-0.5,1.2-1.1,2.4-1.8,3.5l1.9,13.6l-3.5,0.5
			l-1.4-9.7c-0.5,0.7-1.1,1.3-1.6,1.9c-0.2-0.4-0.5-1-1-1.8c-0.4-0.6-0.7-1.2-1.2-1.8c1.1-1,2.1-2.1,2.9-3.3
			c0.9-1.2,1.6-2.4,2.3-3.7L769.6,8551.3z M779.1,8550.3l-0.1-0.8l-5.5,0.8l0.1,0.8L779.1,8550.3z M785.3,8559.8l-3.2,0.5l0.4,2.8
			c0.1,0.6,0.1,1.3,0,1.9c-0.1,0.5-0.5,0.9-0.9,1.2c-0.5,0.3-1,0.5-1.5,0.7c-0.6,0.1-1.3,0.3-2.3,0.4c-0.2-0.5-0.4-1-0.6-1.4
			c-0.3-0.5-0.6-1-0.8-1.4l-1.7,1.6c-0.4-0.5-0.9-1-1.4-1.4c-0.6-0.6-1.2-1.1-1.8-1.6l1.6-1.5l-3.2,0.4l-0.4-3l8.6-1.2l-0.1-1
			l-8,1.1l-0.4-2.9l14.3-2l0.4,2.9l-2.7,0.4l0.1,1l3.2-0.5L785.3,8559.8z M774.2,8561.3c1,0.7,1.9,1.5,2.8,2.4l-0.5,0.5
			c0.5-0.1,1.2-0.1,2-0.3c0.1,0,0.2-0.1,0.3-0.1c0.1-0.1,0.1-0.2,0-0.3l-0.4-2.8L774.2,8561.3z M789,8551l-2.5,0.3l-0.5-3.7l3.1-0.4
			c0-0.8,0-1.4,0-1.9c0-0.5,0-0.7,0-0.8l3.5-0.5c-0.1,1.3-0.1,2.2-0.1,2.6l3.1-0.4l0.5,3.7l-3.7,0.5c-0.5,5.3-0.7,8.4-0.9,9.2
			l-0.2,1.2l-3.6,0.5C788.6,8556.1,789,8552.6,789,8551z M797.9,8554.1l-1.2-8.1c0.9-0.2,1.9-0.4,2.9-0.5c0.9-0.1,1.7-0.2,2.3-0.2
			c0.3,0,0.6-0.1,0.9-0.1l0.5,3.8c0,0-0.3,0-0.8,0.1c-0.5,0-1.2,0.1-2,0.2l0.7,4.9c0.7,0.1,1.4,0.3,2.1,0.6c0.6,0.2,1,0.3,1,0.4
			l0.6,4l-0.5-0.3c-0.3-0.2-0.8-0.4-1.3-0.6c-0.5-0.2-0.9-0.4-1.4-0.5l0.2,1.6c0.2,1,0.1,2-0.2,2.9c-0.3,0.6-0.7,1.2-1.3,1.5
			c-0.5,0.3-1.1,0.5-1.8,0.6c-0.8,0.1-1.6,0.1-2.4,0c-0.8-0.2-1.6-0.6-2.2-1.2c-0.7-0.8-1.2-1.9-1.2-3c-0.3-1.5,0.1-3,1-4.2
			C794.9,8554.8,796.4,8554.1,797.9,8554.1z M798.1,8560.9c0.2,0,0.4-0.2,0.5-0.5c0.1-0.3,0.1-0.6,0.1-0.9l-0.3-2.1
			c-0.7-0.1-1.4,0.1-2,0.6c-0.4,0.4-0.6,1-0.6,1.5c0,0.5,0.3,1,0.7,1.2C797,8561.1,797.6,8561.1,798.1,8560.9z M817.8,8537.4
			c1.6,1.8,3.5,3.3,5.5,4.6c1.9,1.2,4,2.2,6.2,2.8c-0.8,1.1-1.4,2.3-1.9,3.5c-1.7-0.7-3.4-1.6-5-2.6l0.3,2.1l-10.4,1.5l-0.3-2.1
			c-1.2,1.3-2.6,2.6-4,3.7c-0.4-0.5-0.8-0.9-1.2-1.3c-0.5-0.4-0.9-0.8-1.4-1.2c1.9-1.4,3.7-3.1,5.1-5c1.4-1.7,2.6-3.6,3.5-5.6
			L817.8,8537.4z M821,8544.8c-1.6-1-3.1-2.3-4.4-3.6c-0.9,1.7-1.9,3.2-3.1,4.7L821,8544.8z M826.8,8550c-0.6,2.8-1.7,6.4-3,10.9
			l-4-0.5c0.8-2.4,1.5-4.7,2.1-6.9l-12.1,1.7l-0.5-3.4l13.9-2l0.6-0.2L826.8,8550z M838,8558.3c-0.8-0.8-1.8-1.6-2.9-2.4
			c-1.1-0.8-2.1-1.6-3.1-2.3l2.8-3.1c1.1,0.7,2.2,1.5,3.2,2.3c1.2,0.9,2.2,1.7,2.8,2.4L838,8558.3z"/>
		<g id="グループ_4613" transform="translate(773.322 8542.098)">
			<g>
				<defs>
					<rect id="SVGID_1_" x="-1.4" y="-3.5" width="211" height="70.4"/>
				</defs>
				<clipPath id="SVGID_00000124133282356722985490000004974452625615260323_">
					<use xlink:href="#SVGID_1_"  style="overflow:visible;"/>
				</clipPath>
				<g id="グループ_4612" style="clip-path:url(#SVGID_00000124133282356722985490000004974452625615260323_);">
					<path id="パス_20647" class="st0" d="M19.5,57.6L18.8,57c-0.8-0.6-1.6-1.4-2.3-2.1c-0.8-0.9-1.6-1.8-2.4-2.8
						c-0.2-0.2-0.2-0.5,0-0.8c1-1.9,1.9-3.9,2.6-6c0.8-2.2,1.4-4.4,1.8-6.6c0.1-0.3-0.1-0.6-0.4-0.7c-0.1,0-0.2,0-0.2,0L2.1,40.6
						c-0.4,0.1-0.6,0.4-0.6,0.8v4c0,0.3,0.2,0.6,0.5,0.6c0,0,0.1,0,0.1,0l9.2-1.5c0.5-0.1,0.8,0.4,0.6,0.9c-0.8,2.2-1.8,4.4-3,6.4
						c-1.1,1.9-2.4,3.7-3.9,5.5c-1.3,1.5-2.7,2.9-4.3,4.1c-0.2,0.2-0.3,0.4-0.3,0.7v4.5c0,0.3,0.2,0.6,0.5,0.6c0.1,0,0.3,0,0.4-0.1
						l0.1-0.1c0.9-0.6,1.8-1.3,2.6-2.1c1.2-1.1,2.4-2.3,3.5-3.6c1.1-1.3,2.2-2.7,3.2-4.2c0.2-0.3,0.5-0.4,0.8-0.3
						c0.1,0,0.1,0.1,0.2,0.1c0.7,1,1.5,1.9,2.4,2.7c0.9,0.9,1.8,1.7,2.8,2.5c0.6,0.5,1.2,0.9,1.9,1.4c0.4,0.3,1-0.1,1-0.7v-4.6
						C19.7,57.9,19.7,57.7,19.5,57.6"/>
					<path id="パス_20648" class="st0" d="M177.9,23.3c0,0.7,0.3,1.3,0.9,1.8c0.5,0.5,1.2,0.6,1.9,0.5c0.7-0.1,1.4-0.5,1.8-1.1
						c0.5-0.6,0.8-1.3,0.9-2.1l1-14l0.1-3.7c0.1-1.1-0.3-2.1-1.1-2.8c-0.7-0.7-1.8-1-2.7-0.8c-1.1,0.2-2.1,0.8-2.7,1.7
						c-0.7,0.9-1.1,2-1.1,3.2l0.1,3.7L177.9,23.3z"/>
					<path id="パス_20649" class="st0" d="M99.2,39.2c0,0.3,0.3,0.5,0.6,0.5c0,0,0,0,0,0l1.9-0.3c0.4-0.1,0.7-0.5,0.6-0.9
						l-1.6-9.8c0-0.3-0.3-0.5-0.6-0.5c0,0,0,0,0,0l-1.8,0.3c-0.4,0.1-0.7,0.5-0.6,0.9L99.2,39.2z"/>
					<path id="パス_20650" class="st0" d="M164.1,32.9c-1.9-1.7-3.9-3.3-5.8-5c-2-1.7-3.7-3.2-5.1-4.5c-1.4-1.3-2.4-2.1-2.7-2.5
						c-0.4-0.4-0.6-0.9-0.6-1.4c0-0.5,0.2-0.9,0.5-1.3c0.3-0.5,1.2-1.5,2.7-3.1c1.4-1.6,3.2-3.4,5.1-5.5l3-3.2l-5.2,0.8
						c-0.4,0.1-0.8-0.2-0.8-0.6c0-0.1,0-0.1,0-0.2V5.6c0-0.5,0.3-0.9,0.8-1l8.1-1.3c1.5-1.5,3.1-3.3,4.9-5.2
						c0.6-0.6,0.3-1.7-0.5-1.5l-9.1,1.5c-0.2,0-0.4,0.1-0.5,0.3c-1.7,1.8-3.1,3.3-4.4,4.7c-1.3,1.4-2.7,2.9-4.1,4.5
						c-1.4,1.6-2.7,3-3.9,4.3c-1.2,1.3-2,2.2-2.5,2.8c-1.4,1.8-2.2,4-2.3,6.3c-0.1,2.2,0.8,4.4,2.3,6c0.8,0.8,1.6,1.6,2.5,2.3
						c1.2,1,2.6,2.2,4.1,3.4c1.5,1.2,3,2.5,4.4,3.7c1.4,1.1,3,2.5,4.8,3.9c0.2,0.1,0.4,0.2,0.6,0.1l8.6-1.4c0.6-0.1,0.9-0.6,0.8-1.2
						c0-0.2-0.1-0.3-0.2-0.5C167.3,35.7,165.6,34.2,164.1,32.9"/>
					<path id="パス_20651" class="st0" d="M108.4,26.9l-2.7,0.4c-0.3,0.1-0.6,0.4-0.6,0.7c0,0.3-0.1,0.6-0.1,1.1
						c-0.1,1.1-0.4,2.5-0.7,4.2c-0.4,1.8-0.9,3.5-1.6,5.3c-0.7,1.8-1.7,3.5-3.1,5c-1.3,1.4-2.9,2.5-4.6,3.2
						c-0.3,0.1-0.5,0.4-0.5,0.8v3.3c0,0.3,0.2,0.6,0.5,0.6c0.1,0,0.2,0,0.3,0c1.9-0.7,3.7-1.8,5.2-3.1c1.6-1.5,3-3.2,4.1-5
						c1.1-1.8,1.9-3.7,2.6-5.7c0.6-1.7,1-3.5,1.3-5.3c0.2-1.4,0.4-3,0.6-4.7c0.1-0.3-0.1-0.6-0.5-0.6
						C108.5,26.9,108.4,26.9,108.4,26.9"/>
					<path id="パス_20652" class="st0" d="M91.4,32.7l-9.3,1.9c-0.3,0.1-0.6-0.1-0.6-0.4c0,0,0-0.1,0-0.1l-0.3-2.9
						c0-0.3-0.3-0.5-0.6-0.5c0,0,0,0-0.1,0l-2.6,0.4c-0.4,0.1-0.7,0.5-0.6,0.9l0.3,2.8c0,0.4-0.2,0.8-0.6,0.9l-1.4,0.3
						C75.2,36,75,36.4,75,36.7v3c0,0.3,0.2,0.6,0.5,0.6c0.1,0,0.1,0,0.2,0l1.9-0.4c0.3-0.1,0.6,0.1,0.6,0.4c0,0,0,0.1,0,0.1
						l1.5,13.5c0,0.3,0.3,0.5,0.6,0.5c0,0,0,0,0.1,0l2.6-0.4c0.4-0.1,0.7-0.5,0.6-0.9l-1.5-13.4c0-0.4,0.2-0.8,0.6-0.9l4.5-0.9
						c0.5-0.1,0.8,0.4,0.6,0.9c-0.2,0.5-0.4,0.9-0.6,1.3c-0.4,0.6-0.8,1.3-1.3,1.8c-0.4,0.5-0.8,0.9-1.3,1.3
						c-0.2,0.2-0.3,0.4-0.3,0.6v3.3c0,0.3,0.2,0.6,0.5,0.6c0.2,0,0.3,0,0.4-0.2c0.8-0.6,1.6-1.3,2.3-2c1-1.1,1.9-2.3,2.7-3.6
						c0.9-1.5,1.5-3.2,1.9-5c0-0.1,0-0.1,0-0.2v-3.6c0-0.3-0.2-0.6-0.5-0.6C91.5,32.7,91.5,32.7,91.4,32.7"/>
					<path id="パス_20653" class="st0" d="M96.7,40.2c0.4-0.1,0.7-0.5,0.6-0.9l-1.6-9.8c0-0.3-0.3-0.5-0.6-0.5c0,0,0,0,0,0
						l-1.8,0.3c-0.4,0.1-0.7,0.5-0.6,0.9l1.5,9.8c0,0.3,0.3,0.5,0.6,0.5c0,0,0,0,0,0L96.7,40.2z"/>
					<path id="パス_20654" class="st0" d="M138.8,14.7l-18.3,3c-0.4,0.1-0.8-0.2-0.8-0.6c0-0.1,0-0.1,0-0.2V4.3
						c0-0.4-0.3-0.7-0.7-0.8c-0.1,0-0.1,0-0.2,0l-5.9,1c-0.5,0.1-0.8,0.5-0.8,1v5l2.4-0.4c0.4-0.1,0.8,0.2,0.8,0.6
						c0,0.1,0,0.1,0,0.2v0.8c0,0.5-0.3,0.9-0.8,1l-2.4,0.4v35.4c0,0.4,0.3,0.7,0.7,0.8c0.1,0,0.1,0,0.2,0l5.9-1
						c0.5-0.1,0.8-0.5,0.8-1v-6l-2,0.3c-0.4,0.1-0.8-0.2-0.8-0.6c0-0.1,0-0.1,0-0.2v-0.8c0-0.5,0.3-0.9,0.8-1l2-0.3V27.2
						c0-0.5,0.3-0.9,0.8-1l18.3-3c0.5-0.1,0.8-0.5,0.8-1v-6.6c0-0.4-0.3-0.7-0.7-0.8C138.9,14.7,138.9,14.7,138.8,14.7"/>
					<path id="パス_20655" class="st0" d="M37.9,35.8l-8.7,1.4c-0.3,0-0.6-0.2-0.6-0.5c0-0.1,0-0.2,0-0.2c0,0,0,0,0,0
						c0.1-0.3,0.1-0.6,0.2-1c0.1-0.3-0.1-0.6-0.4-0.7c-0.1,0-0.2,0-0.2,0l-3.4,0.6c-0.3,0.1-0.6,0.3-0.6,0.7
						c-0.2,1.5-0.6,2.9-1.1,4.3c-0.4,1.2-1,2.4-1.6,3.5c-0.4,0.8-0.9,1.5-1.5,2.2c-0.2,0.2-0.3,0.4-0.4,0.5
						c-0.1,0.2-0.2,0.4-0.2,0.6v4.8c0,0.3,0.2,0.6,0.5,0.6c0.2,0,0.4-0.1,0.5-0.2l0.1-0.1c1-1,1.9-2.1,2.8-3.2
						c1.4-1.8,2.5-3.8,3.4-5.9c0.1-0.2,0.3-0.4,0.6-0.5l5.9-1c0.3,0,0.6,0.2,0.6,0.5c0,0.1,0,0.1,0,0.2c-0.1,0.9-0.2,1.7-0.4,2.5
						c-0.1,0.3-0.3,0.6-0.6,0.6l-6.1,1c-0.4,0.1-0.6,0.4-0.6,0.8v3.6c0,0.3,0.2,0.6,0.5,0.6c0,0,0.1,0,0.1,0l3.5-0.6
						c0.5-0.1,0.8,0.6,0.5,1.1c-0.7,1-1.4,1.8-2.3,2.6c-1,1-2.1,1.8-3.2,2.6c-0.8,0.5-1.7,1-2.6,1.4l-0.6,0.2
						c-0.3,0.1-0.5,0.4-0.5,0.7v4c0,0.3,0.2,0.6,0.5,0.6c0.1,0,0.2,0,0.3,0l0.4-0.2c1-0.4,2-1,2.9-1.5c1.4-0.8,2.7-1.8,3.9-2.9
						c0.2-0.2,0.4-0.4,0.6-0.6l-2,0.3c-0.3,0-0.6-0.2-0.6-0.5c0,0,0-0.1,0-0.1v-0.6c0-0.4,0.3-0.7,0.6-0.8l4.2-0.7
						c0.4-0.5,0.8-1,1.2-1.5c1.4-1.9,2.6-4,3.4-6.2c0.9-2.6,1.5-5.4,1.7-8.2c0,0,0,0,0-0.1v-4.4c0-0.3-0.2-0.6-0.5-0.6
						C38,35.8,38,35.8,37.9,35.8"/>
					<path id="パス_20656" class="st0" d="M184.2,30.8L184.2,30.8l-0.1-0.2l0,0c-0.5-0.9-1-1.7-1-1.7l-1,1.9c-0.5,0-0.9,0-1.4,0.1
						c-0.4,0.1-0.8,0.2-1.2,0.3l-0.9-1.6c0,0-1.9,4-2,4.1c-0.3,0.6-0.4,1.3-0.3,2c0,0.3,0.1,0.6,0.2,0.9l0,0l0.1,0.2h0
						c0.4,0.6,1,1.1,1.7,1.4c0.8,0.3,1.7,0.4,2.5,0.3c0.9-0.1,1.8-0.5,2.5-1.1c1.1-0.7,1.8-1.8,2-3.1c0.1-0.6,0-1.3-0.3-1.9
						C184.9,32.1,184.5,31.5,184.2,30.8"/>
					<path id="パス_20657" class="st0" d="M200.8,28.1L200.8,28.1l-0.1-0.2l0,0c-0.5-0.9-1-1.7-1-1.7l-1,1.9c-0.5,0-0.9,0-1.4,0.1
						c-0.4,0.1-0.8,0.2-1.2,0.3l-0.9-1.6c0,0-1.9,4-2,4.1c-0.3,0.6-0.4,1.3-0.3,2c0,0.3,0.1,0.6,0.2,0.9h0l0.1,0.2h0
						c0.4,0.6,1,1.1,1.7,1.4c0.8,0.3,1.7,0.4,2.5,0.3c0.9-0.1,1.8-0.5,2.5-1.1c1.1-0.7,1.8-1.8,2-3.1c0.1-0.6,0-1.3-0.3-1.9
						C201.6,29.3,201.2,28.7,200.8,28.1"/>
					<path id="パス_20658" class="st0" d="M205.2-0.9c-1.8-1.3-4.1-1.7-7.1-1.2c-2.8,0.5-5.4,1.9-7.3,3.9
						c-0.8,0.7-1.2,1.7-1.2,2.8c0,0.8,0.3,1.6,0.9,2.2c0.6,0.5,1.3,0.8,2.1,0.6c0.7-0.1,1.2-0.4,1.7-0.9c0.8-0.8,1.8-1.3,2.9-1.5
						c0.8-0.2,1.6,0,2.3,0.4c0.6,0.6,1,1.4,0.9,2.2c0,0.8-0.2,1.5-0.6,2.2c-0.6,1-1.2,1.9-1.9,2.8c-0.9,1.2-1.5,2.2-2,3
						c-0.5,0.8-0.9,1.7-1.2,2.6c-0.2,0.5-0.3,1-0.3,1.5c0,0.9,0.3,1.8,1,2.5c0.7,0.6,1.6,0.9,2.5,0.7c0.8-0.1,1.5-0.5,2-1.1
						c0.6-0.6,1-1.4,1.2-2.2c0.2-0.9,0.6-1.9,1.1-2.7c0.5-0.8,1.2-1.8,2.1-3c1-1.3,1.9-2.7,2.7-4.1c0.6-1.2,0.9-2.6,0.9-3.9
						C207.9,2.6,207,0.3,205.2-0.9"/>
					<path id="パス_20659" class="st0" d="M52.6,42L40.2,44c-0.4,0.1-0.6,0.4-0.6,0.8v3.8c0,0.3,0.2,0.6,0.5,0.6c0,0,0.1,0,0.1,0
						l12.4-2.1c0.4-0.1,0.6-0.4,0.6-0.8v-3.9c0-0.3-0.2-0.6-0.5-0.6C52.7,41.9,52.7,42,52.6,42"/>
					<path id="パス_20660" class="st0" d="M73.7,32l-6.9,1.1c-0.3,0-0.6-0.1-0.6-0.4c0,0,0-0.1,0-0.1L66,29.4
						c0-0.3-0.2-0.5-0.5-0.5c0,0-0.1,0-0.1,0l-3.5,0.6c-0.4,0.1-0.7,0.4-0.6,0.8l0.2,3c0,0.4-0.2,0.7-0.6,0.8l-5.7,0.9
						c-0.4,0.1-0.6,0.4-0.6,0.8v3.7c0,0.3,0.2,0.6,0.5,0.6c0,0,0.1,0,0.1,0l6.1-1c0.3,0,0.6,0.2,0.6,0.4c0,0,0,0.1,0,0.1l0.2,3.1
						c0,0.4-0.2,0.8-0.6,0.8l-6.2,1c-0.4,0.1-0.6,0.4-0.6,0.8v3.8c0,0.3,0.2,0.6,0.5,0.6c0,0,0.1,0,0.1,0l6.7-1.1
						c0.3,0,0.6,0.1,0.6,0.4c0,0,0,0.1,0,0.1l0.5,7.2c0,0.3,0.2,0.5,0.5,0.5c0,0,0.1,0,0.1,0l3.5-0.6c0.4-0.1,0.7-0.4,0.6-0.8
						l-0.4-7c0-0.4,0.2-0.8,0.6-0.8l5.9-1c0.4-0.1,0.6-0.4,0.6-0.8v-3.8c0-0.3-0.2-0.6-0.5-0.6c0,0-0.1,0-0.1,0l-6.3,1
						c-0.3,0-0.6-0.1-0.6-0.4c0,0,0-0.1,0-0.1L66.6,39c0-0.4,0.2-0.8,0.6-0.8l6.5-1.1c0.4-0.1,0.6-0.4,0.6-0.8v-3.7
						c0-0.3-0.2-0.6-0.5-0.6C73.8,32,73.8,32,73.7,32"/>
					<path id="パス_20661" class="st0" d="M-1.4,42.4v-0.6c0-0.4,0.3-0.7,0.6-0.8L11.7,39c0.3,0,0.6,0.2,0.6,0.5c0,0,0,0.1,0,0.1
						v0.6c0,0.4-0.3,0.7-0.6,0.8L-0.7,43c-0.3,0-0.6-0.2-0.6-0.5C-1.4,42.5-1.4,42.5-1.4,42.4"/>
					<path id="パス_20662" class="st0" d="M24.1,61.3v-0.6c0-0.4,0.3-0.7,0.6-0.8l12.4-2.1c0.3,0,0.6,0.2,0.6,0.5c0,0,0,0.1,0,0.1
						v0.6c0,0.4-0.3,0.7-0.6,0.8l-12.4,2.1c-0.3,0-0.6-0.2-0.6-0.5C24.1,61.4,24.1,61.4,24.1,61.3"/>
					<path id="パス_20663" class="st0" d="M60.4,56.9v-0.6c0-0.4,0.3-0.7,0.6-0.8l6-1c0.3,0,0.6,0.2,0.6,0.5c0,0,0,0.1,0,0.1v0.6
						c0,0.4-0.3,0.7-0.6,0.8l-6,1c-0.3,0-0.6-0.2-0.6-0.5C60.4,57,60.4,56.9,60.4,56.9"/>
					<path id="パス_20664" class="st0" d="M47.7,38.8v-0.6c0-0.4,0.3-0.7,0.6-0.8l12.4-2.1c0.3,0,0.6,0.2,0.6,0.5c0,0,0,0.1,0,0.1
						v0.6c0,0.4-0.3,0.7-0.6,0.8l-12.4,2.1c-0.3,0-0.6-0.2-0.6-0.5C47.7,38.9,47.7,38.9,47.7,38.8"/>
					<path id="パス_20665" class="st0" d="M107.5,10.5V9.7c0-0.5,0.3-0.9,0.8-1L118.6,7c0.4-0.1,0.8,0.2,0.8,0.6
						c0,0.1,0,0.1,0,0.2v0.8c0,0.5-0.3,0.9-0.8,1l-10.3,1.7c-0.4,0.1-0.8-0.2-0.8-0.6C107.5,10.6,107.5,10.6,107.5,10.5"/>
					<path id="パス_20666" class="st0" d="M160.2,3.1V2.3c0-0.5,0.3-0.9,0.8-1l8.1-1.3c0.4-0.1,0.8,0.2,0.8,0.6c0,0.1,0,0.1,0,0.2
						v0.8c0,0.5-0.3,0.9-0.8,1L161,3.8c-0.4,0.1-0.8-0.2-0.8-0.6C160.2,3.2,160.2,3.1,160.2,3.1"/>
					<path id="パス_20667" class="st0" d="M73.9,50.6v-0.6c0-0.4,0.3-0.7,0.6-0.8l6.1-1c0.3,0,0.6,0.2,0.6,0.5c0,0,0,0.1,0,0.1
						v0.6c0,0.4-0.3,0.7-0.6,0.8l-6.1,1c-0.3,0-0.6-0.2-0.6-0.5C73.9,50.7,73.8,50.7,73.9,50.6"/>
					<path id="パス_20668" class="st0" d="M35.4,36.3l3.7-0.6c0.3,0,0.5,0.2,0.5,0.4c0,0.1,0,0.3-0.1,0.4
						c-0.7,0.7-1.1,1.7-1.2,2.7C38.2,41.4,35.4,36.3,35.4,36.3"/>
					<path id="パス_20669" class="st0" d="M15,38.5l3.7-0.6c0.3,0,0.5,0.2,0.5,0.4c0,0.1,0,0.3-0.1,0.4c-0.7,0.7-1.1,1.7-1.2,2.7
						C17.8,43.6,15,38.5,15,38.5"/>
					<path id="パス_20670" class="st0" d="M63.3,29.2l3.7-0.6c0.3,0,0.5,0.2,0.5,0.4c0,0.1,0,0.3-0.1,0.4
						c-0.7,0.7-1.1,1.7-1.2,2.7C66.1,34.3,63.3,29.2,63.3,29.2"/>
					<path id="パス_20671" class="st0" d="M78.5,31l3.7-0.6c0.3,0,0.5,0.2,0.5,0.4c0,0.1,0,0.3-0.1,0.4c-0.7,0.7-1.1,1.7-1.2,2.7
						C81.3,36.1,78.5,31,78.5,31"/>
					<path id="パス_20672" class="st0" d="M115.7,4.1l4.9-0.8c0.3,0,0.6,0.2,0.6,0.6c0,0.2-0.1,0.3-0.2,0.5
						c-0.9,1-1.4,2.2-1.6,3.6C119.4,10.9,115.7,4.1,115.7,4.1"/>
					<path id="パス_20673" class="st0" d="M180.6,1l4.9-0.8c0.3,0,0.6,0.2,0.6,0.6c0,0.2-0.1,0.3-0.2,0.5c-0.9,1-1.4,2.2-1.6,3.6
						C184.3,7.8,180.6,1,180.6,1"/>
					<path id="パス_20674" class="st0" d="M199.8-2.3l9.2,0.3c0.3,0,0.6,0.2,0.6,0.6c0,0.2-0.1,0.3-0.2,0.5
						c-0.7,0.9-2.3,2.3-1.9,4.2C208.3,5.9,199.8-2.3,199.8-2.3"/>
					<path id="パス_20675" class="st0" d="M160.1,40.4l-4.9,0.8c-0.3,0-0.6-0.2-0.6-0.6c0-0.2,0.1-0.3,0.2-0.5
						c0.9-1,1.4-2.2,1.6-3.6C156.4,33.7,160.1,40.4,160.1,40.4"/>
					<path id="パス_20676" class="st0" d="M116.6,38.4v-0.8c0-0.5,0.3-0.9,0.8-1l6.7-1.2c0.4-0.1,0.8,0.2,0.8,0.6
						c0,0.1,0,0.1,0,0.2V37c0,0.5-0.3,0.9-0.8,1l-6.7,1.2c-0.4,0.1-0.8-0.2-0.8-0.6C116.6,38.6,116.6,38.5,116.6,38.4"/>
				</g>
			</g>
		</g>
	</g>
</g>
</svg>
