<?xml version="1.0" encoding="utf-8"?>
<!-- Generator: Adobe Illustrator 26.4.1, SVG Export Plug-In . SVG Version: 6.00 Build 0)  -->
<svg version="1.1" id="レイヤー_1" xmlns="http://www.w3.org/2000/svg" xmlns:xlink="http://www.w3.org/1999/xlink" x="0px"
	 y="0px" viewBox="0 0 128 22" style="enable-background:new 0 0 128 22;" xml:space="preserve">
<style type="text/css">
	.st0{fill:#FDD000;}
</style>
<g id="グループ_4936" transform="matrix(0.966, 0.259, -0.259, 0.966, 493.161, -2144.266)">
	<g id="グループ_4866" transform="matrix(0.985, -0.174, 0.174, 0.985, 94.193, 2185.606)">
		<path id="パス_36403" class="st0" d="M-0.9,24l-0.3-3.6l5.6-0.5L4,16.8l-5.4,0.5l-0.3-3.5l5.2-0.5L3,10.2l3.5-0.3L7,13l6-0.5
			l0.3,3.5l-5.8,0.5L8,19.6l5.6-0.5l0.3,3.6l-5.4,0.5l1,5.8l-3.6,0.3L5,23.5L-0.9,24z M18.3,17.9L16,18.3l-0.3-3l2-0.3l-0.6-3
			l2.9-0.3l0.6,2.9l7.8-0.9l0.3,3c-0.1,1.2-0.5,2.4-1.1,3.4c-0.5,0.9-1.1,1.6-1.8,2.3c-0.7,0.7-1.5,1.2-2.3,1.7l-0.3-3.3
			c0.4-0.3,0.8-0.6,1.1-1c0.3-0.4,0.6-0.8,0.8-1.2c0.3-0.5,0.5-1,0.6-1.6l-4.5,0.6l2.1,10.3l-2.9,0.3L18.3,17.9z M33.7,26.7
			l-0.3-3.2c1.4-0.3,2.7-1.1,3.7-2.1c0.9-0.9,1.6-2.1,2-3.3c0.4-1.2,0.7-2.3,0.9-3.5c0.1-0.9,0.2-1.9,0.3-2.8c0-0.4,0-0.8,0-1.2
			l3-0.3c0,1.2,0,2.5-0.1,3.7s-0.4,2.4-0.7,3.6c-0.4,1.3-0.9,2.6-1.6,3.8c-0.7,1.3-1.7,2.4-2.8,3.3C36.7,25.6,35.3,26.3,33.7,26.7z
			 M33.2,11.1l2,7.8l-2.3,0.2l-2-7.7L33.2,11.1z M36.9,10.8l2.1,7.7l-2.4,0.2l-2-7.8L36.9,10.8z M59.7,11.5l0.3,3.6l-9.3,0.8
			l0.8,9.4L48,25.6L46.4,6.4l3.5-0.3l0.5,6.2L59.7,11.5z M70.6,4.8L76,4.3c-1,1.1-2,2.1-2.8,2.9l-2.5,2.5c-0.9,0.8-1.6,1.6-2.2,2.2
			c-0.6,0.6-1,1.1-1.1,1.3c-0.1,0.1-0.2,0.3-0.2,0.5s0.2,0.5,0.3,0.6c0.2,0.2,0.7,0.5,1.4,1.1c0.7,0.6,1.6,1.3,2.6,2.1l2.9,2.3
			c1,0.8,2.1,1.7,3.4,2.7L72.6,23c-1-0.7-1.8-1.4-2.5-1.9c-0.7-0.6-1.4-1.1-2.2-1.7c-0.8-0.6-1.4-1.1-2-1.6
			c-0.4-0.3-0.9-0.7-1.3-1.1c-0.8-0.7-1.2-1.6-1.3-2.6s0.2-1.9,0.8-2.6c0.2-0.2,0.6-0.6,1.1-1.1s1-1.1,1.7-1.7
			c0.6-0.6,1.2-1.2,1.8-1.8C69.2,6.2,69.9,5.6,70.6,4.8z"/>
		<path id="パス_36404" class="st0" d="M81.6,14.7l-1.3-7.2l-0.5-3.8l4.3-0.4l0.2,3.8v7.3L81.6,14.7z M83.5,21
			c-0.6,0.1-1.2-0.1-1.7-0.5s-0.7-1-0.8-1.6c-0.1-0.6,0.1-1.2,0.5-1.7s1-0.8,1.6-0.8c0.6-0.1,1.2,0.1,1.7,0.5s0.8,1,0.8,1.6
			c0.1,0.6-0.1,1.3-0.5,1.7C84.6,20.6,84.1,20.9,83.5,21z"/>
		<path id="パス_36405" class="st0" d="M89.5,13.9c-0.1-0.2-0.1-0.5-0.1-0.7c-0.1-0.7,0-1.4,0.3-2.1c0.4-0.7,0.8-1.4,1.3-2.1
			c0.3-0.4,0.6-0.9,0.8-1.3C92,7.4,92,7,92,6.7c0-0.4-0.2-0.8-0.5-1.1c-0.3-0.2-0.8-0.3-1.2-0.3c-0.4,0-0.8,0.2-1.1,0.4
			c-0.4,0.3-0.7,0.6-1,1l-2.3-1.9c0.5-0.8,1.2-1.5,2-2s1.7-0.8,2.6-0.9C91.8,1.7,93,2,94.1,2.7c1,0.8,1.6,2,1.6,3.3
			c0.1,0.6,0,1.3-0.3,1.8c-0.3,0.7-0.8,1.3-1.2,1.9c-0.4,0.5-0.7,0.9-0.9,1.2c-0.2,0.3-0.4,0.7-0.5,1.1c-0.1,0.4-0.1,0.9,0,1.3
			L89.5,13.9z M91.8,20.2c-0.6,0.1-1.3-0.1-1.7-0.6c-0.5-0.5-0.8-1.1-0.8-1.8c-0.1-0.7,0.1-1.3,0.5-1.9c0.4-0.5,1-0.8,1.6-0.9
			c0.6-0.1,1.3,0.1,1.7,0.6c0.5,0.4,0.8,1.1,0.8,1.7c0.1,0.7-0.1,1.3-0.5,1.9C93,19.9,92.4,20.2,91.8,20.2z"/>
	</g>
	<path id="パス_26011" class="st0" d="M79.9,2202.1l2.4-3.7l11.7,18.9L79.9,2202.1z"/>
	<path id="パス_26012" class="st0" d="M203.3,2168.1l-4-1.8l0.5,22.3L203.3,2168.1z"/>
</g>
</svg>
