<?xml version="1.0" encoding="utf-8"?>
<!-- Generator: Adobe Illustrator 26.4.1, SVG Export Plug-In . SVG Version: 6.00 Build 0)  -->
<svg version="1.1" id="レイヤー_1" xmlns="http://www.w3.org/2000/svg" xmlns:xlink="http://www.w3.org/1999/xlink" x="0px"
	 y="0px" viewBox="0 0 94 36" style="enable-background:new 0 0 94 36;" xml:space="preserve">
<style type="text/css">
	.st0{fill:#054385;}
</style>
<g id="グループ_4867" transform="translate(-83.33 -2165.213)">
	<g id="グループ_4866" transform="matrix(0.985, -0.174, 0.174, 0.985, -356.035, 53.961)">
		<path id="パス_36569" class="st0" d="M74.7,2187l-0.2-2.8l4.6-0.4l-0.4-2.4l-4.4,0.4L74,2179l4.2-0.4l-0.4-2.4l2.9-0.2l0.4,2.4
			l4.9-0.4l0.2,2.7l-4.7,0.4l0.4,2.4l4.6-0.4l0.2,2.8l-4.4,0.4l0.7,4.6l-2.9,0.2l-0.7-4.6L74.7,2187z M90.3,2182.2l-1.9,0.3
			l-0.2-2.4l1.6-0.2l-0.5-2.3l2.3-0.2l0.5,2.2l6.4-0.7l0.2,2.4c-0.1,0.9-0.4,1.8-0.9,2.6c-0.4,0.7-0.9,1.3-1.5,1.8
			c-0.6,0.5-1.2,1-1.9,1.4l-0.2-2.6c0.3-0.2,0.7-0.5,0.9-0.8c0.3-0.3,0.5-0.6,0.7-0.9c0.2-0.4,0.4-0.8,0.5-1.2l-3.7,0.4l1.7,8
			l-2.3,0.2L90.3,2182.2z M102.8,2189l-0.2-2.5c1.1-0.3,2.2-0.8,3-1.6c0.7-0.7,1.3-1.6,1.6-2.6c0.3-0.9,0.6-1.8,0.7-2.8
			c0.1-0.7,0.2-1.5,0.2-2.2c0-0.3,0-0.6,0-0.9l2.4-0.2c0,1,0,1.9-0.1,2.9c-0.1,0.9-0.3,1.9-0.6,2.8c-0.3,1-0.7,2-1.3,2.9
			c-0.6,1-1.4,1.8-2.3,2.6C105.2,2188.2,104.1,2188.7,102.8,2189z M102.4,2176.9l1.6,6l-1.9,0.2l-1.6-6L102.4,2176.9z M105.4,2176.7
			l1.7,6l-1.9,0.2l-1.6-6L105.4,2176.7z M123.9,2177.1l0.2,2.8l-7.5,0.6l0.6,7.3l-2.8,0.2l-1.3-15l2.8-0.2l0.4,4.8L123.9,2177.1z
			 M132.9,2171.9l4.4-0.4c-0.9,0.9-1.7,1.6-2.4,2.2l-2.1,1.9c-0.7,0.7-1.3,1.2-1.8,1.7s-0.8,0.8-0.9,1c-0.1,0.1-0.2,0.3-0.1,0.4
			c0,0.2,0.1,0.4,0.3,0.5c0.2,0.1,0.5,0.4,1.1,0.9c0.6,0.5,1.3,1,2.1,1.6l2.4,1.8c0.8,0.6,1.7,1.3,2.7,2.1l-4.2,0.4
			c-0.8-0.6-1.4-1.1-2-1.5c-0.6-0.4-1.2-0.9-1.8-1.3c-0.6-0.5-1.2-0.9-1.7-1.2c-0.4-0.3-0.7-0.5-1-0.8c-0.6-0.5-1-1.2-1.1-2
			c-0.1-0.7,0.2-1.5,0.7-2c0.2-0.2,0.5-0.5,0.9-0.9c0.4-0.4,0.9-0.8,1.4-1.3c0.5-0.5,1-1,1.4-1.4S132.3,2172.5,132.9,2171.9z"/>
		<path id="パス_36568" class="st0" d="M140.8,2179.6l-1-5.6l-0.4-3l3.5-0.3l0.2,3l0,5.7L140.8,2179.6z M142.4,2184.5
			c-0.5,0.1-1-0.1-1.4-0.4c-0.4-0.3-0.6-0.8-0.6-1.3c-0.1-0.5,0.1-1,0.4-1.3c0.3-0.4,0.8-0.6,1.3-0.6c0.5-0.1,1,0.1,1.4,0.4
			c0.4,0.3,0.6,0.8,0.6,1.2c0.1,0.5-0.1,1-0.4,1.3C143.3,2184.3,142.8,2184.5,142.4,2184.5z"/>
		<path id="パス_36567" class="st0" d="M147.1,2179c0-0.2-0.1-0.4-0.1-0.5c-0.1-0.5,0-1.1,0.3-1.6c0.3-0.6,0.6-1.1,1-1.6
			c0.3-0.3,0.5-0.7,0.7-1c0.1-0.2,0.2-0.5,0.2-0.8c0-0.3-0.2-0.7-0.4-0.9c-0.3-0.2-0.6-0.3-1-0.2c-0.3,0-0.6,0.1-0.9,0.3
			c-0.3,0.2-0.6,0.5-0.8,0.8l-1.9-1.5c0.4-0.6,1-1.1,1.7-1.5c0.6-0.4,1.4-0.6,2.1-0.7c1-0.1,2.1,0.1,3,0.6c0.8,0.6,1.3,1.6,1.3,2.6
			c0.1,0.5,0,1-0.2,1.4c-0.3,0.5-0.6,1-1,1.5c-0.3,0.4-0.5,0.7-0.7,1c-0.2,0.3-0.3,0.6-0.4,0.9c-0.1,0.3-0.1,0.7,0,1L147.1,2179z
			 M148.9,2183.9c-0.5,0.1-1-0.1-1.4-0.5c-0.4-0.4-0.6-0.8-0.7-1.4c-0.1-0.5,0.1-1,0.4-1.4c0.3-0.4,0.8-0.7,1.3-0.7
			c0.5-0.1,1,0.1,1.4,0.4c0.4,0.3,0.6,0.8,0.7,1.4c0.1,0.5-0.1,1-0.4,1.5C149.9,2183.7,149.4,2183.9,148.9,2183.9z"/>
	</g>
	<path id="パス_26011" class="st0" d="M83.3,2189.6l1.9-2.9l9.2,14.5L83.3,2189.6z"/>
	<path id="パス_26012" class="st0" d="M177.3,2169.5l-3.2-1.4l0.2,17.1L177.3,2169.5z"/>
</g>
</svg>
