<?xml version="1.0" encoding="utf-8"?>
<!-- Generator: Adobe Illustrator 26.3.1, SVG Export Plug-In . SVG Version: 6.00 Build 0)  -->
<svg version="1.1" id="レイヤー_1" xmlns="http://www.w3.org/2000/svg" xmlns:xlink="http://www.w3.org/1999/xlink" x="0px"
	 y="0px" viewBox="0 0 741.9 726.7" style="enable-background:new 0 0 741.9 726.7;" xml:space="preserve">
<style type="text/css">
	.st0{fill:#39C0E9;}
	.st1{fill:#9DFF45;}
	.st2{fill:#C1FF34;}
	.st3{fill:#6295FF;}
	.st4{fill:#ACFF62;}
	.st5{fill:#A5C3FF;}
	.st6{fill:#5DD2F6;}
	.st7{fill:#61DAFF;}
</style>
<g id="hanabi03">
	<path id="パス_15442" class="st0" d="M563.6,257.4c12.7-8.2,26.6-14.2,40.4-20.2c12.4-5.2,25-9.7,38.2-12.5
		c2.2-0.4,4.4-0.7,6.7-0.8c8.2,0,8.6,11.9,0.4,12.4c-7.1-0.4-14.4,1.2-21.4,2.6c-7.3,1.5-14.4,3-21.7,4.8
		C591.7,247.5,577.2,251.3,563.6,257.4"/>
	<path id="パス_15443" class="st1" d="M624.5,224.9c13.3-7.1,27.7-11.9,41.9-16.7c12.8-4.1,25.8-7.6,39.2-9.2
		c2.2-0.2,4.5-0.3,6.7-0.2c8.2,0.7,7.5,12.6-0.7,12.4c-7-1-14.4,0-21.5,0.7c-7.4,0.9-14.6,1.7-22,3
		C653.4,217.4,638.6,220,624.5,224.9"/>
	<path id="パス_15444" class="st0" d="M623,301.6c14.4-4.5,29.4-6.6,44.3-8.8c13.3-1.7,26.7-2.7,40.2-1.9c2.2,0.2,4.4,0.5,6.6,1
		c7.9,2.2,5.1,13.7-3,12.1c-6.7-2.3-14.2-2.6-21.3-3.2c-7.4-0.4-14.7-1-22.2-1.1C652.8,299.6,637.8,299.3,623,301.6"/>
	<path id="パス_15445" class="st1" d="M646.1,280.4c14-5.6,28.8-8.9,43.5-12.2c13.2-2.8,26.4-4.8,39.9-5c2.2,0,4.5,0.2,6.7,0.5
		c8,1.6,6.2,13.3-2,12.2c-6.9-1.8-14.3-1.5-21.5-1.6c-7.4,0.1-14.7,0.2-22.2,0.6C675.7,276,660.7,277,646.1,280.4"/>
	<path id="パス_15446" class="st0" d="M639.3,351.4c14.6-3.7,29.7-5,44.7-6.3c13.4-1,26.8-1.2,40.2,0.4c2.2,0.3,4.4,0.8,6.5,1.4
		c7.8,2.7,4.3,14-3.6,11.9c-6.6-2.6-14-3.4-21.1-4.4c-7.4-0.9-14.6-1.8-22.1-2.4C669.1,351,654.1,349.9,639.3,351.4"/>
	<path id="パス_15447" class="st2" d="M645.8,441.3c15,1.5,29.6,5.6,44.1,9.6c12.9,3.7,25.6,8.1,37.6,14.3c2,1,3.9,2.2,5.7,3.6
		c6.4,5.1-0.8,14.6-7.5,9.9c-5.2-4.7-11.9-8.1-18.3-11.4c-6.6-3.3-13.1-6.7-19.9-9.8C673.9,451.3,660.2,445.1,645.8,441.3"/>
	<path id="パス_15448" class="st1" d="M547.3,435c14.8,3,28.9,8.5,43,13.9c12.5,5,24.6,10.6,36,18c1.9,1.2,3.6,2.6,5.3,4.1
		c5.8,5.8-2.3,14.5-8.5,9.1c-4.7-5.2-11.1-9.2-17-13.2c-6.3-4-12.4-8-18.8-11.8C574.3,447.7,561.3,440.2,547.3,435"/>
	<path id="パス_15449" class="st3" d="M600.2,511.9c14,5.5,27,13.3,40,21c11.5,7,22.5,14.7,32.4,23.8c1.6,1.5,3.1,3.2,4.5,5
		c4.8,6.7-4.7,13.9-9.9,7.5c-3.8-6-9.4-11-14.5-15.9c-5.5-5-10.8-10-16.6-14.8C624.6,529,613.1,519.4,600.2,511.9"/>
	<path id="パス_15450" class="st0" d="M581.9,555.1c12.7,8.2,23.9,18.4,35,28.5c9.8,9.2,19.1,18.8,27.1,29.7
		c1.3,1.8,2.4,3.7,3.4,5.7c3.4,7.5-7.3,12.7-11.2,5.4c-2.5-6.6-7-12.6-11.1-18.5c-4.4-6-8.7-11.9-13.3-17.8
		C602.5,576.7,593,565,581.9,555.1"/>
	<path id="パス_15451" class="st2" d="M550.9,599c10.9,10.5,19.9,22.7,28.9,34.7c7.9,10.9,15.1,22.2,20.8,34.4
		c0.9,2,1.7,4.1,2.3,6.3c1.8,8-9.6,11-12,3.2c-1.2-7-4.4-13.7-7.3-20.3c-3.2-6.7-6.2-13.4-9.6-20C566.9,624.2,559.9,610.9,550.9,599
		"/>
	<path id="パス_15452" class="st0" d="M441.2,620.7c6.2,13.8,10,28.4,13.9,43c3.3,13,5.8,26.2,6.5,39.7c0.1,2.2,0,4.5-0.2,6.7
		c-1.3,8.1-13,6.7-12.3-1.5c1.5-6.9,1-14.4,0.7-21.5c-0.4-7.4-0.8-14.7-1.5-22.1C446.8,650,445.2,635,441.2,620.7"/>
	<path id="パス_15453" class="st2" d="M392.1,631.1c3.4,22.2,6.3,44.5,7.7,66.9c0.3,5.8,0.3,11.6,0,17.4c-0.1,2.2-0.5,4.4-1,6.6
		c-0.8,3.3-4.1,5.4-7.5,4.6c-3.3-0.8-5.4-4.1-4.6-7.5c0.6-1.7,1-3.5,1.4-5.2c0.9-5.3,1.4-10.6,1.7-16
		C391,676.3,392.3,652.6,392.1,631.1"/>
	<path id="パス_15454" class="st0" d="M406.7,578c4,22.1,7.6,44.3,9.6,66.6c0.5,5.8,0.7,11.6,0.5,17.4c-0.1,2.2-0.3,4.4-0.8,6.6
		c-0.7,3.4-4,5.5-7.3,4.8s-5.5-4-4.8-7.3c0.5-1.7,0.9-3.5,1.2-5.3c0.7-5.3,1.1-10.7,1.2-16C406.8,623.3,407.4,599.5,406.7,578"/>
	<path id="パス_15455" class="st3" d="M503.2,534.3c11.5,9.7,21.3,21.3,31.1,32.8c8.6,10.3,16.5,21.1,23,33c1.1,2,1.9,4,2.7,6.1
		c2.4,7.8-8.9,11.6-11.8,3.9c-1.6-6.9-5.3-13.4-8.6-19.7c-3.6-6.5-7-13-10.9-19.3C520.8,558.4,513,545.6,503.2,534.3"/>
	<path id="パス_15456" class="st1" d="M532.4,294.5c13.2-7.3,27.5-12.4,41.6-17.5c12.7-4.4,25.6-8,39-9.8c2.2-0.3,4.5-0.4,6.7-0.3
		c8.2,0.6,7.7,12.4-0.5,12.4c-7-0.9-14.4,0.2-21.5,1.1c-7.3,1.1-14.6,2-21.9,3.3C561.2,286.5,546.4,289.3,532.4,294.5"/>
	<path id="パス_15457" class="st3" d="M567.3,205.4c10.7-10.6,23.1-19.4,35.4-28.1c11.1-7.6,22.5-14.6,34.9-20
		c2.1-0.9,4.2-1.6,6.4-2.1c8-1.6,10.8,9.9,2.9,12.1c-7,1-13.8,4.1-20.4,6.9c-6.8,3-13.5,5.9-20.2,9.2
		C592.8,189.9,579.3,196.6,567.3,205.4"/>
	<path id="パス_15458" class="st0" d="M516.2,178.7c7.9-12.8,17.9-24.2,27.8-35.6c9-10,18.4-19.5,29.2-27.7
		c1.8-1.3,3.7-2.5,5.7-3.5c7.4-3.5,12.8,7.1,5.6,11.1c-6.6,2.7-12.5,7.2-18.2,11.5c-5.9,4.5-11.8,8.9-17.5,13.6
		C537.5,157.7,525.9,167.4,516.2,178.7"/>
	<path id="パス_15459" class="st1" d="M506.4,139.7c6.2-13.8,14.6-26.4,22.9-38.9c7.6-11.1,15.7-21.7,25.4-31.2
		c1.6-1.6,3.3-3,5.2-4.3c6.9-4.4,13.7,5.4,7,10.2c-6.2,3.5-11.4,8.8-16.6,13.8c-5.3,5.2-10.5,10.3-15.6,15.8
		C524.7,116.1,514.6,127.2,506.4,139.7"/>
	<path id="パス_15460" class="st3" d="M434.1,214.9c4.3-14.5,11-28.1,17.5-41.6c6-12,12.7-23.7,21-34.3c1.4-1.8,2.9-3.4,4.6-4.9
		c6.2-5.3,14.2,3.5,8.3,9.2c-5.6,4.3-10.1,10.3-14.6,15.8c-4.5,5.9-9,11.7-13.3,17.7C449.1,189.1,440.5,201.4,434.1,214.9"/>
	<path id="パス_15461" class="st2" d="M423.9,104.2c-0.5-15.1,1.5-30.1,3.5-45c1.9-13.3,4.6-26.5,9-39.2c0.8-2.1,1.7-4.1,2.8-6.1
		c4.2-7,14.6-1.2,10.8,6.1c-4,5.8-6.4,12.9-8.8,19.7c-2.4,7-4.9,13.9-7,21.1C429.9,74.9,425.6,89.4,423.9,104.2"/>
	<path id="パス_15462" class="st0" d="M344.8,106.4c0.5-14.9-1.5-29.8-3.4-44.6c-1-7.4-2.4-14.6-3.7-21.9
		c-1.4-6.8-2.6-13.9-5.4-20.1c-3.6-7.4,7-12.9,11-5.7c0.9,2.3,1.7,4.7,2.1,7.1c2.4,13.3,3,26.7,2.9,40.1
		C348,76.4,347.7,91.6,344.8,106.4"/>
	<path id="パス_15463" class="st2" d="M304.7,107.3c-2.7-14.7-7.8-28.8-12.8-42.9c-2.6-7-5.4-13.7-8.3-20.6
		c-2.8-6.3-5.4-13.1-9.5-18.5c-5-6.5,4.1-14.1,9.6-7.9c1.4,2,2.6,4.2,3.6,6.5c5.2,12.5,8.6,25.4,11.3,38.6
		C301.4,77.3,304.3,92.2,304.7,107.3"/>
	<path id="パス_15464" class="st1" d="M324.1,160.4c-2.7-14.7-7.8-28.8-12.8-42.9c-2.6-7-5.4-13.7-8.3-20.6
		c-2.8-6.3-5.4-13.1-9.5-18.5c-5-6.5,4.1-14.1,9.6-7.9c1.4,2,2.6,4.2,3.6,6.5c5.2,12.5,8.6,25.4,11.3,38.6
		C320.8,130.5,323.8,145.3,324.1,160.4"/>
	<path id="パス_15465" class="st0" d="M262.9,110.7c-5.1-14-12.5-27.1-19.8-40.1c-5.6-9.5-11.4-19-17.7-28c-1.9-2.7-4-5.3-6.4-7.6
		c-2.6-2.2-2.9-6.2-0.7-8.8s6.2-2.9,8.8-0.7c3.3,3.3,5.5,7.1,7.7,10.9c5.6,10,10.5,20.3,14.5,31C254.7,81.8,260,95.9,262.9,110.7"/>
	<path id="パス_15466" class="st0" d="M242.2,159.2c-8-12.6-18.1-23.8-28-34.9c-7.5-8.1-15.2-16.1-23.3-23.5
		c-2.4-2.3-5.1-4.3-7.9-6c-3-1.6-4.1-5.4-2.5-8.4s5.4-4.1,8.4-2.5l0,0c4,2.5,6.9,5.7,9.9,9c7.6,8.5,14.6,17.6,20.9,27.2
		C227.9,132.7,236.2,145.3,242.2,159.2"/>
	<path id="パス_15467" class="st0" d="M178.3,186.1c-11.6-9.3-24.8-16.6-37.8-23.9c-9.7-5.2-19.6-10.3-29.7-14.7
		c-3-1.4-6.2-2.4-9.4-3.1c-3.4-0.6-5.7-3.7-5.1-7.1s3.7-5.7,7.1-5.1l0,0c4.6,1.1,8.3,3.2,12.3,5.3c10,5.6,19.5,11.9,28.6,18.9
		C156.1,165.7,168.1,175,178.3,186.1"/>
	<path id="パス_15468" class="st3" d="M203.6,148.4c-9.6-11.4-21.1-21.2-32.4-30.9c-8.5-7-17.2-13.9-26.2-20.2
		c-2.7-1.9-5.6-3.6-8.6-4.9c-3.2-1.2-4.8-4.8-3.6-8c1.2-3.2,4.8-4.8,8-3.6c4.3,2,7.6,4.8,11,7.6c8.7,7.4,16.8,15.5,24.3,24.2
		C185.9,124.1,195.8,135.5,203.6,148.4"/>
	<path id="パス_15469" class="st1" d="M246.7,260.4c-11.6-9.3-24.8-16.6-37.8-23.9c-9.7-5.2-19.6-10.3-29.7-14.7
		c-3-1.4-6.2-2.4-9.4-3.1c-3.4-0.6-5.7-3.7-5.1-7.1c0.6-3.4,3.7-5.7,7.1-5.1c4.6,1.1,8.3,3.2,12.3,5.3c10,5.6,19.5,11.9,28.6,18.9
		C224.6,240,236.5,249.3,246.7,260.4"/>
	<path id="パス_15470" class="st2" d="M95.2,273.3c-14.5-3.5-29.5-4.5-44.4-5.6c-11-0.6-22.1-1-33.1-0.7c-3.3,0.1-6.6,0.5-9.8,1.2
		c-3.3,0.9-6.7-1-7.7-4.3c-0.9-3.3,1-6.7,4.3-7.7l0,0c4.6-0.9,8.9-0.6,13.4-0.4c11.4,0.8,22.7,2.5,33.9,5
		C66.5,264.2,81.3,267.5,95.2,273.3"/>
	<path id="パス_15471" class="st0" d="M200.2,300.5c-14.5-3.5-29.5-4.5-44.4-5.6c-11-0.6-22.1-1-33.1-0.7
		c-3.3,0.1-6.6,0.5-9.9,1.2c-3.3,0.9-6.7-1-7.7-4.3s1-6.7,4.3-7.7l0,0c4.6-0.9,8.9-0.6,13.4-0.4c11.4,0.8,22.7,2.5,33.9,5
		C171.5,291.4,186.3,294.7,200.2,300.5"/>
	<path id="パス_15472" class="st1" d="M122.2,314.8c-14.8-1.7-29.9-1-44.7-0.3c-11,0.7-22.1,1.7-33,3.3c-3.3,0.5-6.5,1.2-9.6,2.3
		c-3.2,1.3-6.8-0.1-8.1-3.3c-1.3-3.2,0.1-6.8,3.3-8.1c0,0,0.1,0,0.1,0c4.5-1.5,8.8-1.7,13.2-2c11.4-0.5,22.9-0.2,34.3,0.9
		C92.5,309.2,107.6,310.7,122.2,314.8"/>
	<path id="パス_15473" class="st0" d="M144.7,336.6c-14.8-1.7-29.9-1-44.7-0.3c-11,0.7-22.1,1.7-32.9,3.3
		c-3.3,0.5-6.5,1.2-9.6,2.3c-3.2,1.3-6.8-0.2-8.1-3.3s0.2-6.8,3.3-8.1c4.5-1.5,8.8-1.7,13.2-2c11.4-0.5,22.9-0.2,34.3,0.9
		C115.1,331,130.2,332.5,144.7,336.6"/>
	<path id="パス_15474" class="st3" d="M97.1,452.9c-14.3,4.2-27.9,10.8-41.2,17.2c-9.8,5-19.7,10.2-29,15.9
		c-2.8,1.7-5.5,3.7-7.9,5.9c-2.4,2.5-6.3,2.5-8.8,0.1c-2.5-2.4-2.5-6.3-0.1-8.8c3.5-3.1,7.4-5,11.4-7c10.3-5,21-9.2,31.9-12.6
		C67.7,459.3,82.2,454.9,97.1,452.9"/>
	<path id="パス_15475" class="st2" d="M135.5,559.8c-12.1,8.8-22.6,19.6-33,30.2c-7.6,8-15.1,16.2-21.9,24.8
		c-2.1,2.6-3.9,5.3-5.5,8.3c-1.4,3.1-5.1,4.5-8.2,3.1c-3.1-1.4-4.5-5.1-3.1-8.2l0,0c2.3-4.1,5.3-7.2,8.3-10.5
		c8-8.2,16.6-15.7,25.8-22.6C109.9,575.8,122.1,566.7,135.5,559.8"/>
	<path id="パス_15476" class="st4" d="M199.2,528.5c-11.6,9.5-21.4,20.8-31.3,32c-7.1,8.4-14.1,17-20.5,26c-2,2.7-3.6,5.5-5,8.6
		c-1.2,3.2-4.8,4.8-8,3.5c-3.2-1.2-4.8-4.8-3.5-8l0,0c2.1-4.2,4.9-7.5,7.7-10.9c7.5-8.6,15.7-16.6,24.5-24
		C174.6,546,186.2,536.2,199.2,528.5"/>
	<path id="パス_15477" class="st1" d="M218.8,609.7c-8,12.6-13.8,26.5-19.6,40.2c-4.1,10.2-8.1,20.6-11.3,31.1
		c-1,3.2-1.7,6.4-2.1,9.7c-0.2,3.4-3.1,6.1-6.5,5.9c-3.4-0.2-6.1-3.1-5.9-6.5l0,0c0.6-4.7,2.3-8.6,3.9-12.8
		c4.5-10.5,9.7-20.7,15.7-30.5C200.9,634,208.9,621.1,218.8,609.7"/>
	<path id="パス_15478" class="st0" d="M288.3,627.3c-5,14.1-7.6,28.9-10.3,43.5c-1.7,10.9-3.3,21.9-4.2,32.8
		c-0.3,3.3-0.2,6.6,0.1,9.9c0.6,3.4-1.7,6.6-5.1,7.2c-3.4,0.6-6.6-1.7-7.2-5.1c-0.4-4.7,0.3-8.9,1-13.4c2-11.3,4.9-22.4,8.6-33.2
		C276.3,654.9,281.1,640.6,288.3,627.3"/>
	<path id="パス_15479" class="st1" d="M349.2,626.2c-2.6,14.7-2.6,29.8-2.8,44.6c0.1,11,0.4,22.1,1.5,33.1
		c0.3,3.3,0.9,6.6,1.8,9.8c1.1,3.2-0.5,6.8-3.8,7.9c-3.2,1.1-6.8-0.5-7.9-3.8c-1.2-4.5-1.2-8.9-1.3-13.3c0.1-11.4,1-22.9,2.8-34.2
		C342,655.5,344.4,640.5,349.2,626.2"/>
	<path id="パス_15480" class="st0" d="M322.7,552c-4.3,14.3-6.2,29.2-8.2,44c-1.2,11-2.2,22-2.6,33c-0.1,3.3,0.1,6.6,0.6,9.9
		c0.7,3.3-1.4,6.7-4.7,7.4s-6.7-1.4-7.4-4.7l0,0c-0.7-4.7-0.1-8.9,0.3-13.4c1.5-11.3,3.8-22.6,6.9-33.6
		C312,580.1,316.2,565.6,322.7,552"/>
	<path id="パス_15481" class="st0" d="M273.2,520.7c-9.5,11.5-17.1,24.5-24.6,37.3c-5.4,9.6-10.6,19.4-15.2,29.4
		c-1.4,3-2.5,6.1-3.3,9.4c-0.6,3.4-3.9,5.6-7.2,5c-3.4-0.6-5.6-3.9-5-7.2l0,0c1.2-4.5,3.4-8.3,5.5-12.2c5.8-9.9,12.3-19.3,19.5-28.2
		C252.3,542.5,261.9,530.7,273.2,520.7"/>
	<path id="パス_15482" class="st0" d="M194.4,407.9c-14.6,2.9-28.7,8.2-42.7,13.4c-7,2.7-13.7,5.6-20.5,8.6
		c-6.3,2.9-13,5.6-18.4,9.8c-6.4,5.1-14.1-3.9-8-9.4c2-1.4,4.2-2.7,6.5-3.7c12.4-5.4,25.3-9,38.4-11.9
		C164.5,411.7,179.3,408.5,194.4,407.9"/>
	<path id="パス_15483" class="st0" d="M357,197c-1.1-14.9-3.5-29.7-6-44.5c-1.4-7.6-4.4-25.5-6.3-32.7c-0.7-3.2-1.8-6.4-3.1-9.4
		c-1.6-3-0.4-6.8,2.7-8.4s6.8-0.4,8.4,2.7l0,0c0.9,2.3,1.7,4.7,2.1,7.1c1.1,5.7,1.8,11.5,2.2,17.4C358.4,151.8,358.5,174.4,357,197"
		/>
	<path id="パス_15484" class="st0" d="M462.2,213.2c6.2-13.8,14.6-26.4,22.9-38.9c7.6-11.1,15.7-21.7,25.4-31.2
		c1.6-1.6,3.3-3,5.2-4.3c6.9-4.4,13.7,5.4,7,10.2c-6.2,3.5-11.4,8.8-16.6,13.8c-5.3,5.2-10.5,10.3-15.6,15.8
		C480.5,189.6,470.3,200.7,462.2,213.2"/>
	<path id="パス_15485" class="st5" d="M406,354c10.5-10.8,22.8-19.7,35-28.6c10.9-7.8,22.3-15,34.6-20.6c2-0.9,4.2-1.6,6.3-2.2
		c8-1.8,11,9.7,3.1,12c-7,1.1-13.7,4.3-20.3,7.2c-6.7,3.1-13.4,6.1-20.1,9.5C431.4,338.2,418,345.1,406,354"/>
	<path id="パス_15486" class="st3" d="M402.5,246c0.5-15.1,3.4-29.9,6.3-44.7c2.8-13.2,6.2-26.1,11.5-38.5c0.9-2,1.9-4,3.2-5.9
		c4.7-6.7,14.7-0.3,10.4,6.8c-4.4,5.6-7.2,12.5-10.1,19.1c-2.9,6.8-5.8,13.6-8.4,20.6C410.4,217.2,405.2,231.3,402.5,246"/>
	<path id="パス_15487" class="st1" d="M262.8,368.6c-14.9-0.2-29.8,2.1-44.5,4.4c-7.4,1.2-14.5,2.7-21.8,4.2
		c-6.7,1.5-13.9,2.9-20,5.8c-7.3,3.7-13-6.7-5.9-10.9c2.3-1,4.6-1.8,7.1-2.3c13.2-2.7,26.6-3.6,40-3.8
		C232.8,366.2,247.9,366.1,262.8,368.6"/>
	<path id="パス_15488" class="st5" d="M408.7,394c14.3,1.2,28.4,4.3,42.4,7.5c28,6.5,56,14.1,82.9,24.3c10.3,3.7,20.4,8,30.3,12.9
		c3.5,1.8,6.8,3.8,10,6c2.8,2,3.4,5.9,1.3,8.7s-5.9,3.4-8.7,1.3c-0.1-0.1-0.2-0.1-0.3-0.2c-5-4.1-11.3-7.4-17.2-10.5
		c-12.6-6.4-25.9-11.9-38.8-17.4c-19.8-8.1-40-15.3-60.4-21.8C436.6,400.6,422.8,396.3,408.7,394"/>
	<path id="パス_15489" class="st5" d="M403.8,411.1c11.3,8.8,21.5,19.1,31.5,29.3c20,20.7,39.3,42.3,56.4,65.5
		c6.6,8.7,12.8,17.9,18.4,27.3c2,3.4,3.7,6.9,5.1,10.5c1.2,3.2-0.4,6.8-3.6,8c-3.2,1.2-6.8-0.4-8-3.6c0-0.1-0.1-0.2-0.1-0.3
		c-2-6.2-5.5-12.4-8.8-18.2c-7.1-12.2-15.3-24-23.2-35.7c-12.2-17.6-25.2-34.6-38.9-51.2C423.6,431.8,414.4,420.8,403.8,411.1"/>
	<path id="パス_15490" class="st3" d="M386.9,409.9c8,11.9,14.4,24.9,20.7,37.8c12.4,26,24,52.5,32.8,80c3.5,10.4,6.5,21,8.8,31.7
		c0.8,3.8,1.3,7.7,1.5,11.6c0.2,3.4-2.5,6.3-5.9,6.5s-6.3-2.5-6.5-5.9c0-0.1,0-0.3,0-0.4c0-6.5-1.2-13.5-2.6-20
		c-2.9-13.8-6.9-27.6-10.7-41.2c-6-20.5-13-40.8-20.7-60.8C399.2,435.7,393.9,422.4,386.9,409.9"/>
	<path id="パス_15491" class="st3" d="M375.5,408.6c10.7,41.5,17.6,83.9,23.1,126.3c1.4,10.8,2.1,21.7,2.3,32.6
		c0,3.9-0.3,7.7-0.8,11.6c-0.5,3.4-3.7,5.7-7.1,5.1c-3.4-0.5-5.7-3.7-5.1-7.1c0.7-3.3,1.1-6.7,1.3-10c0.4-10.5,0.3-20.9-0.5-31.4
		C385.6,493.3,383,450.6,375.5,408.6"/>
	<path id="パス_15492" class="st3" d="M425.7,367.7c13.7-4.3,27.9-6.9,42.1-9.3c28.4-4.7,57.1-8.4,85.9-9.3
		c11-0.5,22-0.4,32.9,0.4c3.9,0.3,7.7,0.9,11.5,1.8c3.3,0.8,5.4,4.1,4.6,7.5c-0.8,3.3-4.1,5.4-7.5,4.6c-0.1,0-0.2-0.1-0.4-0.1
		c-6.2-1.8-13.3-2.5-19.9-3.1c-14-1.1-28.4-1.1-42.5-1.2c-21.4,0.1-42.8,1.1-64.2,3C454,363.2,439.7,364.5,425.7,367.7"/>
	<path id="パス_15493" class="st3" d="M394.9,369c11.8-8.2,24.6-14.9,37.4-21.4c25.7-12.9,52-25,79.3-34.4
		c10.3-3.8,20.8-6.9,31.5-9.5c3.8-0.9,7.7-1.5,11.5-1.8c3.4-0.2,6.4,2.4,6.6,5.8c0.2,3.4-2.4,6.4-5.8,6.6c-0.1,0-0.2,0-0.3,0
		c-6.5,0.1-13.5,1.5-20,3c-13.7,3.1-27.5,7.4-41,11.5c-20.4,6.4-40.6,13.8-60.4,21.9C420.5,356.3,407.3,361.8,394.9,369"/>
	<path id="パス_15494" class="st3" d="M365,331.4c-5.7-35.6-12.3-71-19.4-106.3c-2.9-14-5.7-28-9.7-41.6
		c-1.9-6.5-4.1-13.3-7.1-19.1c-3.6-7.3,6.9-12.9,10.9-5.8c1.7,3.6,3,7.4,4.1,11.3c7.1,24.6,9.9,50.1,12.8,75.4
		C359.8,273.9,362.8,302.6,365,331.4"/>
	<path id="パス_15495" class="st3" d="M353.4,316.1c-28-41.4-57-82.6-89.8-120.4c-4.5-4.9-9.4-10.1-14.7-13.9
		c-2.8-2-3.5-5.8-1.5-8.6c2-2.8,5.8-3.5,8.6-1.5c0.1,0.1,0.2,0.1,0.3,0.2c6.1,5,10.9,10.6,15.7,16.5c13.6,17,25.7,35,37.3,53.4
		C324.6,266.3,339.4,291,353.4,316.1"/>
	<path id="パス_15496" class="st3" d="M329.3,318.9c-36.7-34-74.2-67.6-114.6-97.1c-5.5-3.8-11.5-7.7-17.4-10.2
		c-3.2-1.3-4.7-4.9-3.4-8.1c1.3-3.2,4.9-4.7,8.1-3.4c0.1,0,0.2,0.1,0.4,0.2c7.1,3.5,13,7.9,19,12.5c17.1,13.5,32.9,28.3,48.3,43.7
		C290.1,276.8,310,297.5,329.3,318.9"/>
	<path id="パス_15497" class="st3" d="M330.5,359.8c-49.1-9.6-98.6-18.4-148.5-22.1c-6.7-0.3-13.8-0.5-20.2,0.5
		c-3.4,0.6-6.6-1.7-7.1-5.1c-0.6-3.4,1.7-6.6,5.1-7.1c0.1,0,0.3,0,0.4-0.1c7.9-0.8,15.2-0.1,22.8,0.6c21.7,2.5,42.9,6.7,64.1,11.7
		C274.9,344.8,302.8,351.9,330.5,359.8"/>
	<path id="パス_15498" class="st3" d="M348.6,382.9c-48.9,10.6-97.9,22.1-145.2,38.4c-6.2,2.4-12.9,5-18.4,8.5
		c-2.9,1.8-6.7,0.9-8.5-2s-0.9-6.7,2-8.5c0.1,0,0.1-0.1,0.2-0.1c6.9-3.8,13.9-6.1,21.2-8.4c20.9-6.3,42.1-10.8,63.5-14.7
		C291.7,391,320.1,386.5,348.6,382.9"/>
	<path id="パス_15499" class="st3" d="M342.7,405.8c-36.1,34.6-71.8,70.1-103.6,108.7c-4.1,5.3-8.4,11-11.2,16.8
		c-1.5,3.1-5.2,4.3-8.3,2.8s-4.3-5.2-2.8-8.3c0-0.1,0.1-0.1,0.1-0.2c3.9-6.9,8.6-12.5,13.6-18.3c14.5-16.3,30.2-31.2,46.4-45.7
		C298.4,442.5,320.2,423.8,342.7,405.8"/>
	<path id="パス_15500" class="st3" d="M365.5,406c-10.6,48.9-20.4,98.3-25.2,148c-0.4,6.7-0.8,13.8,0.1,20.2
		c0.4,3.4-2,6.5-5.4,6.9c-3.4,0.4-6.5-2-6.9-5.4c0,0,0-0.1,0-0.1c-0.6-7.9,0.2-15.2,1.1-22.8c2.9-21.6,7.6-42.8,13-63.8
		C349.2,461.1,356.9,433.4,365.5,406"/>
	<path id="パス_15501" class="st3" d="M361.6,402.4c-17.9,46.7-35,94-47.2,142.6c-1.4,6.5-2.9,13.5-3,20c0,3.4-2.8,6.2-6.2,6.2
		c-3.4,0-6.2-2.8-6.2-6.2c0-0.1,0-0.3,0-0.4c0.6-7.9,2.5-15,4.5-22.3c6.1-20.9,14-41.1,22.4-61.2C337.2,454.5,349,428.3,361.6,402.4
		"/>
	<path id="パス_15502" class="st3" d="M401.7,381.7c20.1-3.3,40.6-3.9,61-4.5c30.6-0.6,61.3-0.2,92,1.7
		c20.6,1.5,40.8,3.6,61.2,6.8c10.5,1.8,20.7,3.7,30.9,7.7c3.2,1.2,4.8,4.8,3.5,8s-4.8,4.8-8,3.5c-0.1,0-0.2-0.1-0.3-0.1
		c-4.4-1.9-8.9-3.4-13.6-4.6c-14.5-3.9-29.4-6.3-44.3-8.5c-20.1-2.9-40.2-5.5-60.4-7.2C483.1,381.4,442.3,378.1,401.7,381.7"/>
	<path id="パス_15503" class="st3" d="M399.6,393.6c19.4,6.4,37.9,15.3,56.2,24.2c27.5,13.6,54.4,28.3,80.8,44
		c17.5,10.8,34.6,22,51.1,34.3c8.5,6.5,16.6,12.8,23.8,21c2.2,2.6,1.9,6.5-0.7,8.7c-2.6,2.2-6.5,1.9-8.7-0.7c0-0.1-0.1-0.1-0.1-0.2
		c-3-3.7-6.3-7.2-9.9-10.4c-11.1-10.2-23.2-19.2-35.4-28.1c-16.5-11.9-33.1-23.4-50.2-34.3C472,430.9,437.2,409.1,399.6,393.6"/>
	<path id="パス_15504" class="st3" d="M411.3,406.1c17.9,9.7,34.5,21.8,51,33.8c24.6,18.3,48.6,37.4,71.6,57.7
		c15.3,13.8,30.1,27.8,44.2,42.9c7.2,7.9,14.1,15.6,19.7,25c1.7,2.9,0.8,6.7-2.2,8.5s-6.7,0.8-8.5-2.2c0-0.1-0.1-0.2-0.1-0.2
		c-2.3-4.2-5-8.2-7.9-12c-9.1-12-19.4-23-29.8-33.9C535.3,511,521,496.6,506,482.9C475.9,455.7,445.6,428.1,411.3,406.1"/>
	<path id="パス_15505" class="st0" d="M403.8,387.6c20.4-0.7,40.8,1.3,61.1,3.3c30.5,3.3,60.8,7.7,91,13.4
		c20.2,4.1,40,8.7,59.8,14.5c10.2,3.1,20.1,6.3,29.6,11.5c3,1.7,4,5.5,2.2,8.5c-1.7,3-5.5,4-8.5,2.2c-4.1-2.4-8.4-4.5-12.9-6.3
		c-13.9-5.7-28.3-10-42.9-14.1c-19.6-5.5-39.1-10.6-59-14.9C484.6,397.7,444.5,389.2,403.8,387.6"/>
	<path id="パス_15506" class="st0" d="M386.6,401.6c14.2,14.7,26.3,31.2,38.4,47.6c18,24.8,35,50.3,50.9,76.6
		c10.5,17.8,20.3,35.6,29.2,54.2c4.5,9.7,8.7,19.1,11.3,29.7c0.8,3.3-1.3,6.7-4.6,7.4s-6.7-1.3-7.4-4.6c0-0.1,0-0.2-0.1-0.2
		c-1-4.7-2.3-9.3-3.9-13.8c-5-14.2-11.5-27.8-18.2-41.3c-9-18.2-18.4-36.2-28.4-53.8C433.2,468.3,412.7,432.9,386.6,401.6"/>
	<path id="パス_15507" class="st5" d="M388.5,362.1c11.5-16.8,25.3-32.1,39-47.2c20.7-22.6,42.3-44.4,64.8-65.2
		c15.3-13.8,30.8-27,47.2-39.5c8.6-6.3,17-12.4,26.9-17c3.1-1.4,6.8-0.1,8.2,3s0.1,6.8-3,8.2c-0.1,0-0.2,0.1-0.3,0.1
		c-4.4,1.9-8.7,4.1-12.7,6.6c-12.9,7.8-24.9,16.9-36.8,26.1c-16,12.5-31.7,25.2-47,38.7C444.6,303.1,414,330.3,388.5,362.1"/>
	<path id="パス_15508" class="st0" d="M388.5,361c9.6-18,21.6-34.7,33.5-51.2c18.1-24.7,37.1-48.8,57.2-72
		c13.7-15.4,27.6-30.3,42.6-44.5c7.8-7.2,15.5-14.2,24.8-19.9c2.9-1.8,6.7-0.8,8.5,2.1c1.8,2.9,0.8,6.7-2.1,8.5
		c-0.1,0-0.1,0.1-0.2,0.1c-4.2,2.4-8.2,5-11.9,8c-11.9,9.2-22.9,19.5-33.7,30c-14.5,14.2-28.8,28.6-42.4,43.6
		C437.7,296.2,410.3,326.7,388.5,361"/>
	<path id="パス_15509" class="st3" d="M376.7,355.7c-2.1-20.3-1.5-40.8-0.8-61.2c1.2-30.6,3.5-61.2,7.3-91.7
		c2.8-20.4,6-40.5,10.5-60.7c2.5-10.4,4.9-20.4,9.5-30.4c1.5-3.1,5.2-4.4,8.2-3c3.1,1.5,4.4,5.2,3,8.2c0,0.1-0.1,0.1-0.1,0.2
		c-2.1,4.3-4,8.7-5.4,13.3c-4.8,14.2-8.1,29-11.2,43.7c-4.1,19.9-7.9,39.8-10.8,59.9C381.3,274.4,375.6,315,376.7,355.7"/>
	<path id="パス_15510" class="st3" d="M365.3,354.5c-7.5-40-21.7-78.5-35.6-116.6c-7.1-19-15-37.7-23.3-56.2
		c-6.2-13.8-12.5-27.5-20.2-40.4c-2.4-4.1-5.1-8.1-8.1-11.8c-2.2-2.6-1.9-6.5,0.8-8.7c2.6-2.2,6.5-1.9,8.7,0.8
		c0.1,0.1,0.1,0.2,0.2,0.2c6.5,8.7,11.1,18,15.7,27.7c8.6,18.8,16.1,37.7,23.1,57.1c10.1,29,18.8,58.4,26.5,88.1
		C358.1,314.3,363,334.2,365.3,354.5"/>
	<path id="パス_15511" class="st0" d="M352.1,362.1c-30.7-26.8-65.6-48.2-100.1-69.6c-17.4-10.5-35.1-20.3-53.1-29.7
		c-13.4-7-26.8-13.8-40.9-19.2c-4.5-1.8-9-3.2-13.7-4.3c-3.3-0.7-5.5-4-4.7-7.4c0.7-3.3,4-5.5,7.4-4.7c0.1,0,0.1,0,0.2,0
		c10.5,2.8,19.9,7.3,29.5,12c18.4,9.4,36,19.7,53.5,30.5c25.9,16.5,50.9,34.2,75.3,52.7C321.5,335,337.7,347.6,352.1,362.1"/>
	<path id="パス_15512" class="st3" d="M356.1,371.7c-39.5-9.7-80.4-12.7-120.9-15.9c-20.3-1.4-40.5-1.9-60.8-2.1
		c-15.1-0.1-30.2,0-45.1,1.7c-4.8,0.5-9.5,1.3-14.1,2.5c-3.3,0.9-6.7-1-7.7-4.2s1-6.7,4.2-7.7c0.1,0,0.3-0.1,0.4-0.1
		c10.7-2.4,21-2.7,31.7-2.9c20.7-0.1,41,1,61.5,2.6c30.6,2.8,60.9,7,91.1,12.3C316.5,361.7,336.7,365.4,356.1,371.7"/>
	<path id="パス_15513" class="st5" d="M351.7,390.5c-37.5,15.9-72,37.9-106.3,59.6c-17.1,11-33.6,22.7-50,34.7
		c-12.1,9-24.2,18.1-35.1,28.4c-3.5,3.2-6.8,6.7-9.8,10.5c-2.1,2.7-6,3.2-8.7,1.1c-2.7-2.1-3.2-6-1.1-8.7c0.1-0.1,0.1-0.1,0.2-0.2
		c7.1-8.3,15.2-14.7,23.7-21.3c16.5-12.4,33.4-23.7,50.8-34.7c26.2-16,52.9-30.9,80.4-44.7C314,406.1,332.4,397,351.7,390.5"/>
	<path id="パス_15514" class="st3" d="M351.4,389c-39.5,9.9-77,26.4-114.2,42.6c-18.5,8.3-36.7,17.3-54.7,26.7
		c-13.4,7-26.6,14.2-39.1,22.6c-4,2.7-7.8,5.6-11.3,8.8c-2.5,2.3-6.4,2.2-8.8-0.3c-2.3-2.5-2.2-6.4,0.3-8.8c0,0,0.1-0.1,0.2-0.1
		c8.3-7.1,17.3-12.2,26.6-17.4c18.2-9.8,36.7-18.3,55.6-26.5c28.3-11.8,57.1-22.4,86.3-31.8C311.7,398.7,331.2,392.5,351.4,389"/>
	<path id="パス_15515" class="st3" d="M361.5,395.1c-22.2,34.1-38.5,71.8-54.8,108.9c-8,18.7-15.1,37.6-22,56.7
		c-5,14.2-9.9,28.5-13.2,43.2c-1.1,4.7-1.9,9.4-2.3,14.2c-0.2,3.4-3.2,6-6.6,5.7c-3.4-0.2-6-3.2-5.7-6.6c0-0.1,0-0.1,0-0.2
		c1.3-10.8,4.4-20.7,7.7-30.9c6.7-19.5,14.4-38.4,22.7-57.2c12.7-27.9,26.7-55.3,41.6-82C339,429.1,349.2,411.3,361.5,395.1"/>
	<path id="パス_15516" class="st0" d="M372.3,397.9c-8.8,39.7-10.9,80.7-13.2,121.2c-0.9,20.3-1,40.5-0.7,60.8
		c0.3,15.1,0.7,30.2,2.7,45.1c0.6,4.8,1.5,9.5,2.8,14.1c1,3.3-0.9,6.7-4.2,7.7c-3.3,1-6.7-0.9-7.7-4.2c0-0.1,0-0.1-0.1-0.2
		c-2.6-10.6-3.1-20.9-3.6-31.6c-0.6-20.6,0-41,1.2-61.6c2.1-30.6,5.6-61.1,10.2-91.4C363.2,437.7,366.4,417.4,372.3,397.9"/>
	<path id="パス_15517" class="st0" d="M397.6,370.1c18.3-9,37.8-15.5,57.1-22c29.1-9.5,58.7-17.9,88.5-25
		c20.1-4.5,40.1-8.4,60.5-11.2c10.6-1.3,20.9-2.4,31.8-1.6c3.4,0.3,5.9,3.3,5.7,6.7s-3.3,5.9-6.7,5.7c-0.1,0-0.2,0-0.3,0
		c-4.8-0.5-9.6-0.7-14.3-0.5c-15,0.5-30,2.5-44.9,4.7c-20.1,3-40,6.4-59.9,10.6C475.4,346.2,435.4,355,397.6,370.1"/>
	<path id="パス_15518" class="st6" d="M527.9,19.7c0,2.5-2,4.5-4.5,4.5c-2.5,0-4.5-2-4.5-4.5c0-2.5,2-4.5,4.5-4.5
		C525.9,15.1,527.9,17.1,527.9,19.7C527.9,19.6,527.9,19.6,527.9,19.7"/>
	<path id="パス_15519" class="st7" d="M480.4,61.9c0,3.9-3.2,7.1-7.1,7.1c-3.9,0-7.1-3.2-7.1-7.1c0-3.9,3.2-7.1,7.1-7.1
		C477.2,54.7,480.4,57.9,480.4,61.9C480.4,61.9,480.4,61.9,480.4,61.9"/>
	<path id="パス_15520" class="st3" d="M407.6,90.7c0,4.4-3.6,7.9-7.9,7.9c-4.4,0-7.9-3.6-7.9-7.9s3.6-7.9,7.9-7.9l0,0
		C404,82.8,407.6,86.3,407.6,90.7"/>
	<path id="パス_15521" class="st3" d="M514.4,81.3c0,4.4-3.6,7.9-7.9,7.9c-4.4,0-7.9-3.6-7.9-7.9c0-4.4,3.6-7.9,7.9-7.9
		C510.8,73.4,514.4,76.9,514.4,81.3"/>
	<path id="パス_15522" class="st6" d="M650.4,125.6c0,3.6-2.9,6.4-6.4,6.4s-6.4-2.9-6.4-6.4s2.9-6.4,6.4-6.4
		S650.4,122,650.4,125.6L650.4,125.6"/>
	<path id="パス_15523" class="st4" d="M679.8,179.4c0,4.4-3.6,7.9-7.9,7.9c-4.4,0-7.9-3.6-7.9-7.9c0-4.4,3.6-7.9,7.9-7.9
		C676.3,171.5,679.8,175.1,679.8,179.4L679.8,179.4"/>
	<path id="パス_15524" class="st1" d="M542.7,266.6c0,4.4-3.6,7.9-7.9,7.9c-4.4,0-7.9-3.6-7.9-7.9c0-4.4,3.6-7.9,7.9-7.9
		S542.7,262.2,542.7,266.6L542.7,266.6"/>
	<path id="パス_15525" class="st2" d="M604.5,138.9c0,4.4-3.6,7.9-7.9,7.9c-4.4,0-7.9-3.6-7.9-7.9c0-4.4,3.6-7.9,7.9-7.9
		C600.9,131,604.5,134.6,604.5,138.9L604.5,138.9"/>
	<path id="パス_15526" class="st2" d="M737,389c0,4.4-3.6,7.9-7.9,7.9c-4.4,0-7.9-3.6-7.9-7.9c0-4.4,3.6-7.9,7.9-7.9
		C733.5,381.1,737,384.6,737,389"/>
	<path id="パス_15527" class="st0" d="M741.9,301.6c0,3.9-3.2,7.1-7.1,7.1c-3.9,0-7.1-3.2-7.1-7.1c0-3.9,3.2-7.1,7.1-7.1
		C738.7,294.5,741.9,297.7,741.9,301.6L741.9,301.6"/>
	<path id="パス_15528" class="st3" d="M691,408.6c0,3.9-3.2,7.1-7.1,7.1c-3.9,0-7.1-3.2-7.1-7.1s3.2-7.1,7.1-7.1
		C687.8,401.4,691,404.6,691,408.6"/>
	<path id="パス_15529" class="st0" d="M720.1,427.9c0,4.4-3.6,7.9-7.9,7.9c-4.4,0-7.9-3.6-7.9-7.9c0-4.4,3.6-7.9,7.9-7.9
		C716.6,419.9,720.1,423.5,720.1,427.9"/>
	<path id="パス_15530" class="st2" d="M710.7,506.3c0,3.6-2.9,6.4-6.4,6.4c-3.6,0-6.4-2.9-6.4-6.4c0-3.6,2.9-6.4,6.4-6.4
		S710.7,502.7,710.7,506.3L710.7,506.3"/>
	<path id="パス_15531" class="st3" d="M486.6,626.2c0,4.4-3.6,7.9-7.9,7.9c-4.4,0-7.9-3.6-7.9-7.9s3.6-7.9,7.9-7.9
		C483,618.3,486.6,621.8,486.6,626.2"/>
	<path id="パス_15532" class="st0" d="M237.9,690c0,3.9-3.2,7.1-7.1,7.1c-3.9,0-7.1-3.2-7.1-7.1c0-3.9,3.2-7.1,7.1-7.1
		C234.7,682.8,237.9,686,237.9,690L237.9,690"/>
	<path id="パス_15533" class="st3" d="M238.7,639.7c0,4.4-3.6,7.9-7.9,7.9s-7.9-3.6-7.9-7.9c0-4.4,3.6-7.9,7.9-7.9
		C235.1,631.8,238.7,635.3,238.7,639.7"/>
	<path id="パス_15534" class="st3" d="M124.3,637.3c0,3.9-3.2,7.1-7.1,7.1s-7.1-3.2-7.1-7.1c0-3.9,3.2-7.1,7.1-7.1
		C121.1,630.1,124.3,633.3,124.3,637.3L124.3,637.3"/>
	<path id="パス_15535" class="st2" d="M179.7,635.3c0,4.4-3.6,7.9-7.9,7.9c-4.4,0-7.9-3.6-7.9-7.9c0-4.4,3.6-7.9,7.9-7.9
		C176.1,627.3,179.7,630.9,179.7,635.3"/>
	<path id="パス_15536" class="st3" d="M215.1,552.5c0,4.4-3.6,7.9-7.9,7.9c-4.4,0-7.9-3.6-7.9-7.9c0-4.4,3.6-7.9,7.9-7.9
		C211.6,544.6,215.1,548.1,215.1,552.5"/>
	<path id="パス_15537" class="st3" d="M131.5,534.3c0,3.6-2.9,6.4-6.4,6.4s-6.4-2.9-6.4-6.4c0-3.6,2.9-6.4,6.4-6.4
		S131.5,530.7,131.5,534.3L131.5,534.3"/>
	<path id="パス_15538" class="st1" d="M41,561.2c0,3.4-2.7,6.1-6.1,6.1c-3.4,0-6.1-2.7-6.1-6.1c0-3.4,2.7-6.1,6.1-6.1c0,0,0,0,0,0
		C38.3,555.1,41,557.8,41,561.2C41,561.2,41,561.2,41,561.2"/>
	<path id="パス_15539" class="st6" d="M75.5,503.9c0,3.9-3.2,7.1-7.1,7.1c-3.9,0-7.1-3.2-7.1-7.1c0-3.9,3.2-7.1,7.1-7.1
		C72.3,496.7,75.5,499.9,75.5,503.9L75.5,503.9"/>
	<path id="パス_15540" class="st3" d="M37.4,417.7c0,4.4-3.6,7.9-7.9,7.9s-7.9-3.6-7.9-7.9c0-4.4,3.6-7.9,7.9-7.9c0,0,0,0,0,0
		C33.8,409.8,37.4,413.3,37.4,417.7"/>
	<path id="パス_15541" class="st2" d="M20.7,369.5c0,3.9-3.2,7.1-7.1,7.1s-7.1-3.2-7.1-7.1c0-3.9,3.2-7.1,7.1-7.1
		C17.5,362.3,20.7,365.5,20.7,369.5"/>
	<path id="パス_15542" class="st1" d="M84.3,389c0,4.4-3.6,7.9-7.9,7.9c-4.4,0-7.9-3.6-7.9-7.9c0-4.4,3.6-7.9,7.9-7.9l0,0
		C80.7,381.1,84.3,384.6,84.3,389"/>
	<path id="パス_15543" class="st6" d="M536.5,647.7c0,4.4-3.6,7.9-7.9,7.9c-4.4,0-7.9-3.6-7.9-7.9c0-4.4,3.6-7.9,7.9-7.9
		C532.9,639.7,536.5,643.3,536.5,647.7"/>
	<path id="パス_15544" class="st6" d="M638.7,655.1c-1.8,1.8-4.6,1.8-6.4,0s-1.8-4.6,0-6.4s4.6-1.8,6.4,0c0,0,0,0,0,0
		C640.5,650.5,640.5,653.3,638.7,655.1"/>
	<path id="パス_15545" class="st1" d="M513.3,702.3c0,3.4-2.7,6.1-6.1,6.1c-3.4,0-6.1-2.7-6.1-6.1c0-3.4,2.7-6.1,6.1-6.1
		C510.5,696.2,513.3,698.9,513.3,702.3L513.3,702.3"/>
	<path id="パス_15546" class="st1" d="M667.6,511.8c0,4.4-3.6,7.9-7.9,7.9c-4.4,0-7.9-3.6-7.9-7.9c0-4.4,3.6-7.9,7.9-7.9
		c0,0,0,0,0,0C664.1,503.9,667.6,507.4,667.6,511.8"/>
	<path id="パス_15547" class="st2" d="M395.9,30.7c0,3.9-3.2,7.1-7.1,7.1c-3.9,0-7.1-3.2-7.1-7.1s3.2-7.1,7.1-7.1l0,0
		C392.7,23.5,395.9,26.7,395.9,30.7"/>
	<path id="パス_15548" class="st2" d="M260,3.6c0,2-1.6,3.6-3.6,3.6c-2,0-3.6-1.6-3.6-3.6s1.6-3.6,3.6-3.6c0,0,0,0,0,0
		C258.4,0,260,1.6,260,3.6"/>
	<path id="パス_15549" class="st2" d="M76,160.4c0,3.6-2.9,6.4-6.4,6.4c-3.6,0-6.4-2.9-6.4-6.4c0-3.6,2.9-6.4,6.4-6.4
		C73.1,154,76,156.9,76,160.4"/>
	<path id="パス_15550" class="st3" d="M104.9,183.3c0,4.4-3.6,7.9-7.9,7.9c-4.4,0-7.9-3.6-7.9-7.9c0-4.4,3.6-7.9,7.9-7.9
		C101.3,175.4,104.9,178.9,104.9,183.3"/>
	<path id="パス_15551" class="st3" d="M186.1,53.9c0,3.5-2.8,6.3-6.3,6.3s-6.3-2.8-6.3-6.3c0-3.5,2.8-6.3,6.3-6.3c0,0,0,0,0,0
		C183.3,47.6,186.1,50.4,186.1,53.9"/>
	<path id="パス_15552" class="st6" d="M65.6,213.2c0,4.4-3.6,7.9-7.9,7.9c-4.4,0-7.9-3.6-7.9-7.9c0-4.4,3.6-7.9,7.9-7.9
		C62,205.3,65.6,208.9,65.6,213.2L65.6,213.2"/>
	<path id="パス_15553" class="st1" d="M126.8,236.5c0,3.9-3.2,7.1-7.1,7.1s-7.1-3.2-7.1-7.1c0-3.9,3.2-7.1,7.1-7.1
		C123.6,229.4,126.8,232.6,126.8,236.5"/>
	<path id="パス_15554" class="st5" d="M394.8,303.3c0.8-15.1,4.2-29.8,7.4-44.5c3.1-13.1,6.9-25.9,12.4-38.2c0.9-2,2-4,3.3-5.8
		c4.8-6.6,14.7,0.1,10.2,7c-4.5,5.5-7.5,12.3-10.5,18.8c-3,6.8-6.1,13.4-8.9,20.4C403.4,274.7,397.9,288.7,394.8,303.3"/>
	<path id="パス_15555" class="st5" d="M350.1,346c-8.7-12.2-19.3-22.8-29.8-33.3c-7.9-7.7-16.1-15.3-24.5-22.2
		c-2.5-2.1-5.3-4-8.2-5.6c-3.1-1.5-4.4-5.2-3-8.3c1.5-3.1,5.2-4.4,8.3-3c4.1,2.3,7.2,5.4,10.4,8.5c8.1,8.1,15.5,16.8,22.3,26
		C334.4,320.3,343.4,332.5,350.1,346"/>
	<path id="パス_15556" class="st5" d="M307.8,339.9c-13.6-6.1-28.2-9.8-42.6-13.6c-10.7-2.6-21.6-5-32.4-6.7
		c-3.3-0.5-6.6-0.8-9.9-0.6c-3.4,0.3-6.4-2.2-6.8-5.6c-0.3-3.4,2.2-6.4,5.6-6.8c4.7-0.1,8.9,1,13.2,2c11.1,2.9,21.9,6.6,32.4,11.1
		C281.2,325.7,295.1,331.7,307.8,339.9"/>
	<path id="パス_15557" class="st5" d="M322.7,378.1c-14.9-0.3-29.8,1.8-44.5,3.9c-7.4,1.1-14.5,2.6-21.8,4
		c-6.7,1.5-13.9,2.7-20,5.7c-7.3,3.6-13-6.9-5.8-10.9c2.3-1,4.7-1.7,7.1-2.2c13.2-2.6,26.6-3.4,40.1-3.4
		C292.7,375.3,307.8,375.4,322.7,378.1"/>
	<path id="パス_15558" class="st5" d="M354.3,406.9c-8.5,12.3-14.9,25.9-21.2,39.3c-4.5,10.1-8.9,20.3-12.6,30.6
		c-1.1,3.1-2,6.3-2.5,9.6c-0.3,3.4-3.3,5.9-6.8,5.6s-5.9-3.3-5.6-6.8c0.8-4.6,2.6-8.5,4.4-12.6c4.9-10.3,10.5-20.3,16.9-29.8
		C335.5,430.4,343.9,417.9,354.3,406.9"/>
	<path id="パス_15559" class="st5" d="M432.7,379.4c14.9-2.4,30-2.2,45.1-2.1c13.4,0.3,26.8,1.3,40,4.1c2.2,0.5,4.3,1.2,6.4,2
		c7.5,3.3,3,14.4-4.7,11.5c-6.3-3.2-13.6-4.7-20.6-6.3c-7.3-1.5-14.4-3.1-21.8-4.4C462.5,381.8,447.6,379.4,432.7,379.4"/>
	<path id="パス_15560" class="st5" d="M382,411.7c7.2,13.2,12.1,27.6,17.1,41.8c4.3,12.7,7.8,25.7,9.5,39.1
		c0.3,2.2,0.4,4.5,0.3,6.7c-0.7,8.2-12.5,7.6-12.4-0.6c0.9-7-0.1-14.4-0.9-21.5c-1-7.4-1.9-14.6-3.2-22
		C389.7,440.5,387,425.7,382,411.7"/>
	<path id="パス_15561" class="st5" d="M382,361.8c2.9-14.1,7.8-27.7,12.6-41.2c9.9-27,20.7-53.9,34.1-79.4
		c4.9-9.8,10.4-19.3,16.5-28.5c2.2-3.2,4.6-6.3,7.2-9.2c2.4-2.5,6.3-2.6,8.8-0.2c2.5,2.4,2.6,6.3,0.2,8.8c-0.1,0.1-0.1,0.1-0.2,0.2
		c-4.7,4.5-8.8,10.3-12.5,15.8c-7.8,11.7-14.9,24.2-21.9,36.5c-10.5,18.7-20.1,37.9-29,57.4C391.9,335,386,348.1,382,361.8"/>
</g>
</svg>
