<?xml version="1.0" encoding="utf-8"?>
<!-- Generator: Adobe Illustrator 26.3.1, SVG Export Plug-In . SVG Version: 6.00 Build 0)  -->
<svg version="1.1" id="レイヤー_1" xmlns="http://www.w3.org/2000/svg" xmlns:xlink="http://www.w3.org/1999/xlink" x="0px"
	 y="0px" viewBox="0 0 309.1 312.5" style="enable-background:new 0 0 309.1 312.5;" xml:space="preserve">
<style type="text/css">
	.st0{fill:#FFEA68;}
	.st1{fill:#FFFBC6;}
	.st2{fill:#FFCE57;}
	.st3{fill:#FFE755;}
	.st4{fill:#FFB15A;}
	.st5{fill:#FF5757;}
	.st6{fill:#FFBF2F;}
	.st7{fill:#FFDE2D;}
	.st8{fill:#F07C2F;}
</style>
<g id="hanabi02">
	<path id="パス_15096" class="st0" d="M204.3,114.7c9.5-15.3,38.7-53.7,56.3-56.8c1.5-0.3,2.9,0.7,3.2,2.2
		c0.3,1.5-0.7,2.9-2.2,3.2c-1.5,0.2-2.9,0.6-4.2,1.1c-4.3,2-8.4,4.5-12,7.6c-3.8,3-7.6,6.2-11.2,9.6
		C223.3,91.7,213.3,102.8,204.3,114.7"/>
	<path id="パス_15097" class="st1" d="M213.9,151.2c16.2-7.9,61.4-24.8,77.9-18.1c1.4,0.6,2.1,2.2,1.5,3.6
		c-0.6,1.4-2.2,2.1-3.6,1.5c0,0-0.1,0-0.1-0.1c-1.3-0.6-2.7-1-4.1-1.2c-4.7-0.6-9.5-0.6-14.2,0c-4.9,0.5-9.8,1.2-14.6,2.1
		C242.1,141.9,227.8,145.9,213.9,151.2"/>
	<path id="パス_15098" class="st1" d="M209.4,130c12.8-12.6,50.4-42.9,68.3-41.7c1.5,0.1,2.7,1.4,2.6,2.9
		c-0.1,1.5-1.4,2.7-2.9,2.6l0,0c-1.5-0.2-2.9-0.1-4.4,0.1c-4.7,0.9-9.2,2.4-13.5,4.5c-4.5,2-8.9,4.2-13.2,6.6
		C233.3,112.2,221,120.5,209.4,130"/>
	<path id="パス_15099" class="st0" d="M226.2,156.7c17.4-4.8,64.9-13,79.9-3.3c1.3,0.8,1.6,2.5,0.8,3.8c-0.8,1.3-2.5,1.6-3.8,0.8
		c0,0-0.1,0-0.1-0.1c-1.2-0.8-2.4-1.5-3.8-2c-4.5-1.5-9.2-2.4-14-2.6c-4.9-0.4-9.8-0.6-14.7-0.6C255.7,152.7,240.8,154,226.2,156.7"
		/>
	<path id="パス_15100" class="st0" d="M223.9,165c17.7-3.4,65.8-7.7,79.9,3.2c1.2,0.9,1.4,2.7,0.5,3.9c-0.9,1.2-2.7,1.4-3.9,0.5
		c0,0-0.1,0-0.1-0.1c-1.1-0.9-2.3-1.7-3.6-2.3c-4.4-1.8-9-3.1-13.7-3.8c-4.8-0.8-9.7-1.4-14.6-1.8
		C253.6,163.4,238.7,163.5,223.9,165"/>
	<path id="パス_15101" class="st1" d="M218.3,180.9c18,1.2,65.5,9.3,76.5,23.4c0.9,1.2,0.7,2.9-0.5,3.9s-2.9,0.7-3.9-0.5
		c0,0-0.1-0.1-0.1-0.1c-0.8-1.2-1.8-2.2-2.9-3.1c-3.8-2.9-7.9-5.3-12.3-7.1c-4.5-2-9-3.8-13.7-5.5
		C247.4,186.9,233,183.3,218.3,180.9"/>
	<path id="パス_15102" class="st2" d="M204.8,176.6c17.9-1.7,66.2-1.4,79.3,10.9c1.1,1,1.2,2.8,0.1,3.9s-2.8,1.2-3.9,0.1
		c0,0,0,0-0.1-0.1c-1-1-2.1-1.9-3.4-2.6c-4.2-2.2-8.7-3.9-13.3-5.1c-4.7-1.2-9.5-2.3-14.4-3.2C234.5,177.9,219.7,176.6,204.8,176.6"
		/>
	<path id="パス_15103" class="st2" d="M181.8,109.8c6.1-16.9,26.9-60.5,43.5-67.1c1.4-0.6,3,0.1,3.6,1.5c0.6,1.4-0.1,3-1.5,3.6
		c-1.4,0.5-2.7,1.1-3.9,2c-3.8,2.8-7.2,6.2-10.2,9.9c-3.1,3.8-6.2,7.7-9,11.6C195.6,83.4,188.1,96.3,181.8,109.8"/>
	<path id="パス_15104" class="st2" d="M183.2,184.4c16.3,7.6,57.8,32.2,62.9,49.4c0.4,1.5-0.4,3-1.9,3.4c-1.5,0.4-3-0.4-3.4-1.9
		l0,0c-0.4-1.4-0.9-2.8-1.6-4.1c-2.5-4.1-5.5-7.8-8.9-11.1c-3.5-3.5-7.1-6.8-10.8-10C208.2,200.5,196,191.9,183.2,184.4"/>
	<path id="パス_15105" class="st0" d="M196.1,189.9c16.9,6.2,60.4,27,67,43.7c0.6,1.4-0.1,3-1.5,3.6c-1.4,0.6-3-0.1-3.6-1.5
		c0,0,0,0,0-0.1c-0.5-1.4-1.1-2.7-2-3.9c-2.8-3.8-6.1-7.3-9.9-10.2c-3.7-3.2-7.6-6.2-11.6-9C222.4,203.7,209.5,196.2,196.1,189.9"/>
	<path id="パス_15106" class="st2" d="M111.1,129.4c-12.2-11.2-25.4-21.1-39.6-29.7c-6.9-3.9-14-8.2-21.8-10
		c-1.4-0.3-2.8-0.4-4.2-0.4c-1.5,0.1-2.8-1-2.9-2.6s1-2.8,2.6-2.9c0.1,0,0.1,0,0.2,0C63.2,83.7,98.9,116,111.1,129.4"/>
	<path id="パス_15107" class="st2" d="M113.1,165.6c-16.4-2.3-32.9-2.9-49.4-1.8c-7.9,0.7-16.2,1.2-23.6,4.2
		c-1.3,0.5-2.5,1.2-3.7,2.1c-1.2,1-2.9,0.8-3.9-0.4s-0.8-2.9,0.4-3.9c0.1-0.1,0.1-0.1,0.2-0.1C47.7,155.3,95.5,161.5,113.1,165.6"/>
	<path id="パス_15108" class="st2" d="M116.7,178.5c-16.5,0.5-32.9,2.8-49,6.6c-7.7,2.1-15.7,4-22.6,8.1c-1.2,0.7-2.3,1.7-3.2,2.7
		c-1,1.1-2.8,1.3-3.9,0.2c-1.1-1-1.3-2.8-0.2-3.9c0,0,0.1-0.1,0.1-0.1C50.5,179.5,98.6,177.5,116.7,178.5"/>
	<path id="パス_15109" class="st1" d="M179.4,180c26.8,8.3,77.8,30.4,96,51.1c1.8,2,3.2,4.2,4.4,6.7c0.6,1.4,0,3-1.4,3.7
		s-3,0-3.7-1.4c0,0,0-0.1,0-0.1c-1.7-4-4.8-7.5-8-10.6c-7.7-7.3-16.9-13.3-25.8-19c-3.4-2.1-7.4-4.5-10.8-6.5
		C213.8,194.7,196.8,186.7,179.4,180"/>
	<path id="パス_15110" class="st0" d="M172.9,122.9c5.8-27.4,23.1-80.3,42-100.3c1.8-1.9,3.9-3.6,6.2-5c1.3-0.7,3-0.3,3.8,1.1
		c0.7,1.3,0.3,3-1.1,3.8c0,0,0,0,0,0c-3.9,2.1-7,5.5-9.8,9c-6.5,8.4-11.7,18-16.5,27.5c-1.8,3.5-3.8,7.8-5.4,11.4
		C184.3,87.4,177.9,104.9,172.9,122.9"/>
	<path id="パス_15111" class="st0" d="M187.9,135c18-21.5,58-60.2,84.1-69c2.5-0.8,5.2-1.3,7.8-1.5c1.5,0,2.8,1.2,2.8,2.7
		s-1.2,2.8-2.7,2.8c0,0,0,0,0,0c-4.4,0-8.8,1.6-12.9,3.3c-9.7,4.4-18.8,10.5-27.5,16.6c-3.2,2.3-7,5.1-10.1,7.5
		C214.7,108.9,200.8,121.5,187.9,135"/>
	<path id="パス_15112" class="st2" d="M189.2,154c22.3-17,69.9-45.7,97.4-48.5c2.7-0.3,5.3-0.2,8,0.3c1.5,0.3,2.4,1.8,2.1,3.3
		s-1.8,2.4-3.3,2.1c-4.3-1-8.9-0.4-13.3,0.4c-10.4,2.1-20.6,6-30.5,10c-3.7,1.5-7.9,3.4-11.5,5.1C221.1,134.5,204.8,143.6,189.2,154
		"/>
	<path id="パス_15113" class="st0" d="M197.2,155.1c24-14.4,74.5-37.7,102.1-37.5c2.7,0,5.3,0.4,7.9,1.2c1.5,0.5,2.3,2,1.8,3.5
		c-0.5,1.5-2,2.3-3.5,1.8c0,0-0.1,0-0.1,0c-4.1-1.4-8.8-1.4-13.2-1.1c-10.6,0.9-21.2,3.7-31.4,6.6c-3.8,1.1-8.3,2.5-12,3.8
		C231,139.2,213.8,146.5,197.2,155.1"/>
	<path id="パス_15114" class="st0" d="M168,215.8c3.1,12.4,4.9,25.1,6.6,37.7c0.8,6.3,1.5,12.7,1.8,19.1c0.5,6.5,0.6,13,0.2,19.5
		c-0.1,1.5-1.5,2.6-3,2.5s-2.6-1.5-2.5-3l0,0c1.2-9.3,0.8-19,0.7-28.3C171.4,247.4,170.6,231.5,168,215.8"/>
	<path id="パス_15115" class="st1" d="M176.5,220.3c5.1,11.7,8.9,23.9,12.6,36.1c1.8,6.1,3.5,12.3,4.9,18.6
		c1.6,6.3,2.7,12.7,3.4,19.2c0.1,1.5-1,2.9-2.5,3c-1.5,0.1-2.9-1-3-2.5l0,0c-0.4-9.4-2.3-18.8-4-28.1
		C185,250.9,181.6,235.3,176.5,220.3"/>
	<path id="パス_15116" class="st1" d="M190.7,213.8c7.8,10.1,14.5,21,21.1,31.9c3.3,5.5,6.4,11.1,9.3,16.8
		c3.1,5.7,5.7,11.6,8,17.7c0.5,1.4-0.3,3-1.8,3.5c-1.4,0.5-2.9-0.3-3.4-1.7c-2.7-9-6.9-17.7-10.7-26.2
		C206.4,241.4,199.3,227.1,190.7,213.8"/>
	<path id="パス_15117" class="st0" d="M194.5,209.4c9.1,8.9,17.2,18.9,25.2,28.8c4,5,7.9,10.1,11.5,15.4
		c3.8,5.3,7.3,10.8,10.3,16.5c0.7,1.4,0.1,3-1.3,3.7c-1.3,0.6-3,0.1-3.6-1.2c-3.9-8.5-9.2-16.6-14.2-24.6
		C213.8,234.7,204.9,221.5,194.5,209.4"/>
	<path id="パス_15118" class="st0" d="M176.6,201.9c6.6,10.9,12,22.5,17.3,34.1c2.6,5.8,5.1,11.7,7.3,17.7
		c2.4,6,4.4,12.2,5.9,18.5c0.3,1.5-0.7,2.9-2.2,3.2c-1.5,0.3-2.9-0.6-3.2-2.1c-1.6-9.2-4.8-18.4-7.6-27.3
		C189,231.2,183.6,216.1,176.6,201.9"/>
	<path id="パス_15119" class="st2" d="M162.5,207.8c-1.1,6.3-1.8,12.6-2,19c-0.5,9.5-0.7,19.1-0.4,28.6c0.4,9.4,0.6,18.9,2.2,28.2
		c0.3,1.5-0.6,3-2.1,3.3c-1.5,0.3-3-0.6-3.3-2.1c0-0.1,0-0.1,0-0.2c-0.4-3.3-0.7-6.6-0.7-9.9c-0.4-16.1,0.6-32.1,2.9-48
		C159.6,220.3,160.8,214,162.5,207.8"/>
	<path id="パス_15120" class="st1" d="M133.9,222.5c-3.4,5.4-6.4,11-9,16.8c-4,8.6-7.8,17.4-11.1,26.3c-3.1,8.8-6.6,17.8-8.5,26.9
		c-0.3,1.5-1.7,2.5-3.2,2.2c-1.5-0.3-2.5-1.7-2.2-3.2c0-0.1,0-0.1,0-0.2c0.8-3.2,1.8-6.3,3-9.4c5.6-15,12.5-29.6,20.6-43.4
		C126.6,233,130.1,227.6,133.9,222.5"/>
	<path id="パス_15121" class="st2" d="M132.4,214.5c-3.9,5-7.5,10.3-10.8,15.8c-5,8.1-9.6,16.5-13.9,25
		c-4.1,8.4-8.5,16.9-11.4,25.9c-0.4,1.5-2,2.3-3.4,1.9c-1.5-0.4-2.3-2-1.9-3.4c0-0.1,0-0.1,0.1-0.2c1.2-3.1,2.5-6.1,4-9
		c7.2-14.3,15.7-28,25.2-40.9C124.1,224.2,128.1,219.2,132.4,214.5"/>
	<path id="パス_15122" class="st1" d="M173.3,86.8c1.2-12.8,4.6-25.2,7.8-37.6c2.5-9.3,5.7-18.5,9.4-27.4c1.3-3.1,2.9-6.1,4.8-9
		c0.9-1.2,2.6-1.5,3.9-0.6s1.5,2.6,0.6,3.9c-0.9,1.2-1.8,2.4-2.5,3.8c-2.3,4.1-4.3,8.3-6.1,12.7c-5.1,11.7-9.5,23.6-13.2,35.8
		C176,74.3,174.4,80.5,173.3,86.8"/>
	<path id="パス_15123" class="st3" d="M123.4,193.5c-5.6,3.1-11,6.5-16.1,10.3c-10.4,7.4-20.3,15.3-29.8,23.8
		c-3.5,3.1-6.9,6.3-10.1,9.8c-1,1.1-1.9,2.2-2.7,3.5c-0.8,1.3-2.5,1.7-3.8,0.8c-1.3-0.8-1.7-2.5-0.8-3.8c0,0,0.1-0.1,0.1-0.1
		c2.1-2.7,4.4-5.1,7-7.3c7.3-6.4,15-12.2,23.1-17.6C100.9,205.8,111.7,198.7,123.4,193.5"/>
	<path id="パス_15124" class="st1" d="M111.3,206.5c-5.1,3.9-9.8,8.1-14.3,12.6c-9.1,8.9-17.7,18.3-25.8,28.1
		c-3,3.6-5.8,7.3-8.4,11.2c-0.8,1.2-1.5,2.5-2.1,3.8c-0.6,1.4-2.2,2-3.6,1.4c-1.4-0.6-2-2.2-1.4-3.6c0,0,0-0.1,0.1-0.1
		c1.6-3,3.6-5.8,5.8-8.3c6.2-7.4,12.9-14.4,20-21C91,222.2,100.5,213.5,111.3,206.5"/>
	<path id="パス_15125" class="st0" d="M103.3,195.4c-6,2.2-11.8,4.9-17.4,7.9c-11.3,5.9-22.3,12.3-32.8,19.4
		c-3.9,2.5-7.7,5.3-11.4,8.3c-1.1,0.9-2.2,2-3.1,3c-1,1.2-2.7,1.3-3.9,0.3s-1.3-2.7-0.3-3.9c0,0,0.1-0.1,0.1-0.1
		c2.4-2.4,5.1-4.5,8-6.3c8.1-5.3,16.5-10,25.3-14.2C79.3,204.4,90.9,198.9,103.3,195.4"/>
	<path id="パス_15126" class="st0" d="M98.4,186.8c-6.3,1.2-12.4,2.9-18.5,4.9c-12.1,3.9-24,8.5-35.6,13.7
		c-4.3,1.9-8.5,4-12.6,6.3c-1.3,0.7-2.5,1.6-3.6,2.5c-1.2,1-2.9,0.8-3.9-0.3c-1-1.2-0.8-2.9,0.3-3.9c0,0,0.1-0.1,0.1-0.1
		c2.8-1.9,5.8-3.6,8.9-4.9c8.9-3.9,18-7.2,27.3-9.8C73.2,191.8,85.6,188.2,98.4,186.8"/>
	<path id="パス_15127" class="st1" d="M86.6,171.9c-6.4,0-12.8,0.5-19.1,1.3c-12.6,1.5-25.2,3.8-37.5,6.7c-4.6,1-9.1,2.3-13.5,3.8
		c-1.4,0.5-2.7,1.1-4,1.8c-1.3,0.8-3,0.3-3.8-1c-0.8-1.3-0.3-3,1-3.8c0.1,0,0.2-0.1,0.2-0.1c3.1-1.4,6.3-2.4,9.7-3.1
		c9.4-2.1,19-3.6,28.6-4.5C61,171.9,73.8,170.8,86.6,171.9"/>
	<path id="パス_15128" class="st0" d="M85.3,160.1c-6.3-0.8-12.7-1.2-19.1-1.1c-12.7-0.1-25.4,0.5-38.1,1.8
		c-4.7,0.4-9.3,1.1-13.9,2c-1.4,0.3-2.8,0.7-4.2,1.2c-1.4,0.6-3-0.1-3.6-1.6c-0.6-1.4,0.1-3,1.6-3.6c0,0,0.1,0,0.1,0
		c3.3-1,6.6-1.6,10-1.8c9.6-0.9,19.3-1.1,29-0.7C59.8,156.9,72.7,157.5,85.3,160.1"/>
	<path id="パス_15129" class="st1" d="M87.3,149.9c-6.2-1.4-12.6-2.3-18.9-2.8c-12.7-1.2-25.4-1.8-38.1-1.6c-4.7,0-9.4,0.3-14,0.8
		c-1.5,0.2-2.9,0.5-4.3,0.8c-1.5,0.4-3-0.4-3.4-1.9c-0.4-1.5,0.4-3,1.9-3.4c0.1,0,0.1,0,0.2,0c3.3-0.7,6.7-1,10.1-0.9
		c9.7,0,19.3,0.6,28.9,1.8C62.3,144.4,75.1,146.1,87.3,149.9"/>
	<path id="パス_15130" class="st0" d="M77.7,143.7c-6-2.1-12.2-3.8-18.4-5.1c-12.4-2.8-25-4.9-37.6-6.2c-4.7-0.6-9.3-0.9-14-0.9
		c-1.5,0-2.9,0.1-4.4,0.3C1.7,132,0.3,131,0,129.5s0.8-2.9,2.3-3.2c0.1,0,0.1,0,0.2,0c3.4-0.2,6.8-0.1,10.1,0.3
		c9.6,1.2,19.1,2.9,28.5,5.4C53.5,135.2,66,138.5,77.7,143.7"/>
	<path id="パス_15131" class="st0" d="M89.7,142.7c-5.7-2.8-11.6-5.2-17.7-7.2c-12-4.2-24.2-7.7-36.6-10.6
		c-4.6-1.1-9.2-2-13.8-2.6c-1.5-0.2-2.9-0.2-4.4-0.2c-1.5,0.1-2.8-1.1-2.9-2.6c-0.1-1.5,1.1-2.8,2.6-2.9c0.1,0,0.1,0,0.2,0
		c3.4,0.1,6.8,0.6,10,1.5c9.4,2.3,18.7,5.2,27.7,8.6C66.7,131.4,78.7,136.1,89.7,142.7"/>
	<path id="パス_15132" class="st1" d="M87.5,122.9c-5.2-3.6-10.7-6.9-16.4-9.8c-11.2-6-22.8-11.3-34.6-16
		c-4.3-1.8-8.8-3.4-13.3-4.6c-1.4-0.4-2.8-0.7-4.3-0.9c-1.5-0.2-2.6-1.5-2.4-3c0.2-1.5,1.5-2.6,3-2.4c0,0,0.1,0,0.1,0
		c3.3,0.7,6.6,1.7,9.7,3c9,3.7,17.7,7.9,26,12.8C66.5,108.2,77.6,114.7,87.5,122.9"/>
	<path id="パス_15133" class="st0" d="M90,120.1c-4.9-4.1-10.1-7.8-15.5-11.1c-10.7-6.9-21.8-13.1-33.2-18.8
		c-4.2-2.1-8.5-4-12.9-5.7c-1.4-0.5-2.8-0.9-4.2-1.2c-1.5-0.3-2.5-1.7-2.2-3.2s1.7-2.5,3.2-2.2c0.1,0,0.1,0,0.2,0
		c3.3,0.9,6.4,2.2,9.4,3.8c8.6,4.4,17,9.3,24.9,14.8C70.2,103.8,80.8,111.2,90,120.1"/>
	<path id="パス_15134" class="st0" d="M103.4,99.2c-3.8-5.1-8-9.9-12.5-14.5c-8.8-9.2-18.1-17.9-27.9-26
		c-3.6-3.1-7.3-5.9-11.2-8.6c-1.2-0.8-2.5-1.5-3.8-2.2c-1.4-0.7-1.9-2.3-1.3-3.7c0.7-1.4,2.3-1.9,3.7-1.3c2.9,1.7,5.7,3.6,8.3,5.9
		c7.4,6.3,14.3,13,20.8,20.2C87.9,78.7,96.5,88.3,103.4,99.2"/>
	<path id="パス_15135" class="st0" d="M109.1,104.2c-3-5.6-6.4-11.1-10.1-16.2C91.8,77.5,84,67.4,75.6,57.8c-3-3.6-6.3-7-9.7-10.2
		c-1.1-1-2.2-1.9-3.4-2.7c-1.3-0.8-1.6-2.5-0.8-3.8c0.8-1.3,2.5-1.6,3.8-0.8c0.1,0,0.1,0.1,0.2,0.1c2.7,2.1,5.1,4.5,7.2,7.1
		c6.3,7.4,12.1,15.1,17.3,23.3C97.1,81.5,104.1,92.4,109.1,104.2"/>
	<path id="パス_15136" class="st2" d="M137.1,117.6c-2.2-6-4.8-11.8-7.8-17.5c-5.8-11.3-12.2-22.3-19.2-33
		c-2.5-4-5.3-7.8-8.2-11.4c-0.9-1.1-1.9-2.2-3-3.2c-1.1-1-1.3-2.7-0.3-3.9s2.7-1.3,3.9-0.3c0,0,0.1,0.1,0.1,0.1
		c2.3,2.4,4.4,5.1,6.2,8c5.2,8.1,9.9,16.6,14,25.4C128.2,93.6,133.7,105.3,137.1,117.6"/>
	<path id="パス_15137" class="st1" d="M125.9,89.9c-1.8-6.1-4-12.1-6.6-17.9c-5-11.7-10.6-23.1-16.9-34.2
		c-2.2-4.1-4.7-8.1-7.4-11.9c-0.8-1.2-1.8-2.3-2.8-3.4c-1.1-1.1-1.1-2.8,0-3.9c1.1-1.1,2.8-1.1,3.9,0c0,0,0.1,0.1,0.1,0.1
		c2.2,2.6,4.1,5.4,5.7,8.4c4.7,8.5,8.8,17.2,12.3,26.3C118.6,65.3,123.3,77.3,125.9,89.9"/>
	<path id="パス_15138" class="st0" d="M139.3,100.6c-1-6.3-2.5-12.5-4.3-18.6c-3.5-12.2-7.7-24.2-12.6-36
		c-1.7-4.4-3.7-8.6-5.9-12.8c-0.7-1.3-1.5-2.5-2.4-3.7c-0.9-1.2-0.7-2.9,0.5-3.9c1.2-0.9,2.9-0.7,3.9,0.5c0,0,0.1,0.1,0.1,0.1
		c1.8,2.8,3.4,5.9,4.6,9c3.6,9,6.6,18.2,9,27.6C135.2,75.3,138.3,87.8,139.3,100.6"/>
	<path id="パス_15139" class="st0" d="M147.3,104.8c-0.2-6.4-0.9-12.7-2-19c-2-12.6-4.7-25-8-37.3c-1.2-4.5-2.6-9-4.3-13.4
		c-0.5-1.4-1.2-2.7-1.9-3.9c-0.8-1.3-0.3-3,1-3.8s3-0.3,3.8,1c0,0,0,0,0,0c1.5,3.1,2.6,6.2,3.4,9.5c2.5,9.4,4.3,18.9,5.5,28.5
		C146.3,79.2,147.9,92,147.3,104.8"/>
	<path id="パス_15140" class="st0" d="M168.1,200.2c5.2,17.3,8.8,35.1,12.3,52.9c2.6,13.4,4.5,26.9,5.6,40.5
		c0.4,4.7,0.3,9.4-0.2,14.1c-0.2,1.5-1.7,2.5-3.2,2.3c-1.5-0.2-2.5-1.7-2.3-3.2c0,0,0,0,0,0c0.4-2.1,0.6-4.2,0.6-6.3
		c0.1-6.7-0.1-13.4-0.8-20c-0.8-9-1.7-17.9-2.9-26.9C174.9,235.7,172.3,217.8,168.1,200.2"/>
	<path id="パス_15141" class="st0" d="M181.7,191.3c13.7,11.9,26.2,25,38.6,38.2c9.4,9.9,18.1,20.4,26.3,31.3
		c2.8,3.8,5.3,7.8,7.3,12.1c0.6,1.4,0,3-1.4,3.6c-1.4,0.6-3,0-3.6-1.4c0,0,0,0,0-0.1c-0.8-2-1.7-3.9-2.8-5.7
		c-3.4-5.7-7.2-11.2-11.3-16.5c-5.4-7.2-11-14.3-16.7-21.2C206.4,217.7,194.6,203.9,181.7,191.3"/>
	<path id="パス_15142" class="st0" d="M157.9,202c-2.6,8.7-4,17.7-5.4,26.6c-2,13.4-3.5,27-4.4,40.5c-0.5,9-1,18.1-0.9,27
		c0,4.4,0.4,8.7,1.2,13c0.4,1.5-0.6,3-2,3.3c-1.5,0.4-3-0.6-3.3-2c0,0,0-0.1,0-0.1c-0.8-4.7-1-9.4-0.8-14.1c0.2-9.2,1-18.2,2-27.4
		c1.7-13.6,4-27,6.7-40.4C152.9,219.5,154.9,210.6,157.9,202"/>
	<path id="パス_15143" class="st0" d="M147.7,200.4c-4.3,8-7.5,16.5-10.7,25c-4.7,12.8-8.9,25.7-12.5,38.8
		c-2.3,8.7-4.7,17.5-6.3,26.3c-0.9,4.3-1.4,8.6-1.4,12.9c0,1.5-1.2,2.8-2.7,2.8c-1.5,0-2.8-1.2-2.8-2.7c0,0,0-0.1,0-0.1
		c0.2-4.7,0.9-9.4,2-14c2.1-9,4.7-17.7,7.5-26.4c4.4-13,9.4-25.7,14.8-38.2C139.2,216.6,142.9,208.2,147.7,200.4"/>
	<path id="パス_15144" class="st0" d="M158.5,112.8c0.5-23,0.2-46-1.4-68.9c-1-11.3-1.8-22.8-4.2-33.9c-0.5-2.1-1.1-4.2-1.8-6.2
		c-0.5-1.4,0.2-3,1.6-3.6s3,0.2,3.6,1.6c0,0,0,0,0,0c1.4,4.6,2.4,9.3,2.8,14.1C162.6,48.1,160.7,80.6,158.5,112.8"/>
	<path id="パス_15145" class="st0" d="M152.1,118.8c-1.4-22.9-3.4-45.9-6.8-68.6c-1.9-11.2-3.6-22.6-6.9-33.4
		c-0.6-2.1-1.4-4.1-2.3-6.1c-0.6-1.4,0-3,1.3-3.7c1.4-0.6,3,0,3.7,1.3c1.8,4.5,3.1,9.1,3.9,13.8C151.1,54,151.8,86.6,152.1,118.8"/>
	<path id="パス_15146" class="st4" d="M132.8,138.2c-9.9-13.2-21.1-25.4-33.5-36.4C93.3,96.7,87.1,91.2,79.8,88
		c-1.3-0.6-2.7-0.9-4.1-1.1c-1.5-0.2-2.6-1.5-2.4-3.1c0.2-1.5,1.5-2.6,3.1-2.4c0.1,0,0.1,0,0.2,0C94.1,84.5,123.3,122.8,132.8,138.2
		"/>
	<path id="パス_15147" class="st4" d="M191.7,119.8c2.6-6.3,5.6-12.3,9.2-18.1c2.6-4.5,5.8-8.7,9.5-12.4c1.5-1.5,3.3-2.6,5.2-3.4
		c1.4-0.5,3,0.3,3.5,1.7s-0.3,3-1.7,3.5c-0.1,0-0.2,0.1-0.4,0.1c-2.5,0.6-5.1,3.1-7,5C203,103.2,196.8,111.2,191.7,119.8"/>
	<path id="パス_15148" class="st4" d="M191.8,159.8c5.8-3.5,11.9-6.6,18.1-9.2c4.8-2.1,9.9-3.6,15-4.4c2.1-0.3,4.2-0.2,6.2,0.4
		c1.5,0.5,2.3,2,1.8,3.5s-2,2.3-3.5,1.8c-0.1,0-0.2-0.1-0.4-0.1c-2.3-1-5.9-0.5-8.6-0.2C210.7,153.2,201,155.9,191.8,159.8"/>
	<path id="パス_15149" class="st4" d="M137.2,146c-6.2-5.6-13-10.5-20.2-14.8c-2.8-1.7-5.7-3.1-8.6-4.3c-1.2-0.5-2.5-0.7-3.9-0.7
		c-1.5,0.2-2.9-0.8-3.1-2.3c-0.2-1.5,0.8-2.9,2.3-3.1c0.1,0,0.1,0,0.2,0c2.2,0,4.4,0.6,6.4,1.6c4.6,2.4,8.9,5.5,12.8,9
		C128.2,135.9,132.9,140.8,137.2,146"/>
	<path id="パス_15150" class="st4" d="M104.5,164.8c-8.4,0.3-16.7,1.4-24.8,3.4c-3.1,0.7-6.2,1.7-9.2,2.9
		c-1.2,0.5-2.3,1.2-3.3,2.2c-1,1.2-2.7,1.3-3.9,0.3c-1.1-1-1.3-2.7-0.3-3.8c1.6-1.5,3.6-2.7,5.7-3.2c5-1.5,10.2-2.2,15.5-2.4
		C90.9,163.8,97.7,164,104.5,164.8"/>
	<path id="パス_15151" class="st4" d="M112.7,189.9c-7.9,2.8-15.5,6.3-22.7,10.6c-2.8,1.6-5.4,3.5-7.9,5.5c-1,0.8-1.9,1.9-2.5,3
		c-0.6,1.4-2.2,2.1-3.6,1.5c-1.4-0.6-2.1-2.2-1.5-3.6c1.1-1.9,2.6-3.6,4.5-4.8c4.4-2.9,9.1-5.2,14.1-6.9
		C99.5,193,106.1,191.2,112.7,189.9"/>
	<path id="パス_15152" class="st4" d="M134.5,190.3c-2.5,2.2-4.9,4.5-7.1,7c-3.4,3.7-6.6,7.4-9.7,11.3c-2,2.6-4.1,5.2-5.9,7.9
		c-0.9,1.2-1.6,2.5-2.2,3.8c-0.5,1.4-2.1,2.2-3.6,1.6c-1.4-0.5-2.2-2.1-1.6-3.6c0.9-1.8,2-3.4,3.4-4.9c3.3-3.9,6.9-7.5,10.7-10.9
		C123.7,198.2,128.8,193.8,134.5,190.3"/>
	<path id="パス_15153" class="st4" d="M136.6,198.6c-2.1,2.6-4,5.3-5.8,8.1c-2.7,4.2-5.2,8.5-7.5,12.9c-1.5,2.9-3.1,5.8-4.3,8.8
		c-0.6,1.3-1.1,2.7-1.4,4.2c-0.3,1.5-1.7,2.5-3.2,2.2c-1.5-0.3-2.5-1.7-2.2-3.2c0.6-1.9,1.4-3.7,2.4-5.4c2.5-4.4,5.4-8.6,8.6-12.6
		C127.4,208.4,131.6,203.1,136.6,198.6"/>
	<path id="パス_15154" class="st4" d="M167.5,198c2.7,6.1,4.4,12.7,6,19.2c1.5,5.8,2.4,11.7,2.8,17.7c0,1,0,2-0.1,3
		c-0.2,1.5-1.6,2.6-3.1,2.3c-1.5-0.2-2.5-1.6-2.3-3.1c0.3-1.6,0.5-3.1,0.5-4.7c0.1-3.2-0.2-6.6-0.3-9.8c-0.3-5-0.8-9.9-1.5-14.8
		C169,204.5,168.4,201.3,167.5,198"/>
	<path id="パス_15155" class="st4" d="M183.7,196.7c4.8,4.7,8.8,10.1,12.8,15.5c3.6,4.8,6.7,10,9.2,15.4c0.4,0.9,0.7,1.8,1,2.8
		c0.4,1.5-0.6,3-2,3.3c-1.4,0.3-2.9-0.5-3.3-1.9c-0.3-1.6-0.7-3.1-1.3-4.6c-1.2-3-2.6-6-4-9c-2.1-4.5-4.4-8.9-6.9-13.2
		C187.5,202.2,185.7,199.4,183.7,196.7"/>
	<path id="パス_15156" class="st4" d="M162.8,123.1c-0.9-12.8,0.4-25.6,1.5-38.4c1-9.6,2.6-19.2,4.8-28.6c0.7-3.3,1.8-6.5,3.2-9.6
		c0.7-1.4,2.3-2,3.7-1.3c1.4,0.7,2,2.3,1.3,3.7c0,0,0,0,0,0.1c-0.7,1.3-1.4,2.7-1.9,4.1c-1.6,4.4-2.9,8.9-4,13.5
		c-3.1,12.3-5.4,24.9-7.1,37.5C163.4,110.4,162.9,116.7,162.8,123.1"/>
	<path id="パス_15157" class="st4" d="M113.7,145.1c-7.4-3.9-15.2-6.9-23.3-9.2c-3.1-0.9-6.2-1.6-9.4-2c-1.3-0.2-2.6-0.1-3.9,0.3
		c-1.4,0.5-3-0.2-3.6-1.6c-0.5-1.4,0.2-3,1.6-3.6c2.2-0.5,4.4-0.5,6.6,0c5.1,1.2,10,3.1,14.6,5.5
		C102.4,137.6,108.2,141.1,113.7,145.1"/>
	<path id="パス_15158" class="st5" d="M170.5,182.4c4.4,4.1,13.6,13.9,13.2,20.2l0,0.7c-0.1,1.6-1.5,2.8-3,2.6
		c-1.6-0.1-2.8-1.5-2.6-3l0,0c0-0.7,0.4-1,0.4-1.7c-0.1-2.1-1-4.1-1.6-6.1C175.1,190.6,173,186.4,170.5,182.4"/>
	<path id="パス_15159" class="st5" d="M168.8,162.9c3.4-5.9,7.3-11.4,11.7-16.7c3.2-4.1,7-7.8,11.2-10.9c1.7-1.3,3.6-2.1,5.7-2.6
		c1.5-0.3,3,0.7,3.2,2.2c0.3,1.5-0.7,3-2.2,3.2l0,0c-1.4,0.1-2.8,0.6-4.1,1.4c-2.8,1.7-5.4,3.5-7.9,5.6
		C180,150.5,174,156.4,168.8,162.9"/>
	<path id="パス_15160" class="st5" d="M178.3,170.7c6.8-0.2,13.6,0.2,20.3,1.1c5.2,0.6,10.3,1.8,15.2,3.7c2,0.8,3.7,1.9,5.2,3.5
		c1,1.1,1,2.9-0.2,3.9c-1.1,1-2.9,1-3.9-0.2c-0.1-0.1-0.2-0.2-0.2-0.3c-1.5-2-4.8-3.4-7.4-4.5C198,174.4,188.3,171.9,178.3,170.7"/>
	<path id="パス_15161" class="st5" d="M204,165.1c6.6-1.4,13.4-2.3,20.2-2.7c5.2-0.4,10.5-0.1,15.6,0.8c2.1,0.4,4,1.2,5.7,2.4
		c1.2,0.9,1.5,2.7,0.5,3.9c-0.9,1.2-2.7,1.5-3.9,0.5c-0.1-0.1-0.2-0.1-0.3-0.2c-1.9-1.7-5.4-2.4-8.1-3C224,165,214,164.4,204,165.1"
		/>
	<path id="パス_15162" class="st5" d="M170.9,175c6.2,2.8,12.1,6.2,17.7,9.9c4.4,2.8,8.5,6.2,12,10c1.4,1.5,2.5,3.4,3.1,5.4
		c0.4,1.5-0.4,3-1.9,3.4c-1.4,0.4-2.9-0.4-3.4-1.8c-0.3-1.4-0.9-2.8-1.8-3.9c-1.9-2.6-4-5-6.4-7.3
		C184.4,184.8,177.9,179.6,170.9,175"/>
	<path id="パス_15163" class="st5" d="M163.2,168.6c3.2-5.1,11-16.1,17.2-16.9l0.7-0.1c1.6-0.2,3,0.9,3.2,2.5
		c0.2,1.6-0.9,3-2.5,3.2l0,0c-0.7,0.1-1-0.2-1.7,0c-2,0.5-3.9,1.8-5.7,2.8C170.4,162.5,166.6,165.3,163.2,168.6"/>
	<path id="パス_15164" class="st5" d="M149.6,142c-3.2-7.7-7.2-15.1-11.9-22.1c-1.8-2.7-3.8-5.2-5.9-7.6c-0.9-1-2-1.8-3.2-2.3
		c-1.4-0.5-2.2-2.1-1.7-3.5c0.5-1.4,2.1-2.2,3.5-1.7l0,0c2,1,3.7,2.4,5.1,4.2c3.1,4.2,5.7,8.8,7.6,13.7
		C145.8,129,148,135.4,149.6,142"/>
	<path id="パス_15165" class="st5" d="M132.5,160.5c-8.2-1.7-16.5-2.6-24.9-2.7c-3.2-0.1-6.4,0.1-9.6,0.6
		c-1.3,0.2-2.6,0.6-3.7,1.3c-1.2,0.9-3,0.6-3.9-0.6s-0.6-3,0.6-3.9c1.9-1.1,4.1-1.7,6.4-1.8c5.2-0.2,10.5,0.3,15.6,1.4
		C119.6,156.3,126.2,158.2,132.5,160.5"/>
	<path id="パス_15166" class="st5" d="M143.5,175.7c-7.9,2.8-15.5,6.3-22.7,10.6c-2.8,1.6-5.4,3.5-7.9,5.5c-1,0.8-1.9,1.9-2.5,3
		c-0.6,1.4-2.2,2.1-3.6,1.5c-1.4-0.6-2.1-2.2-1.5-3.6c1.1-1.9,2.6-3.6,4.5-4.8c4.4-2.9,9.1-5.2,14.1-6.9
		C130.3,178.8,136.8,177,143.5,175.7"/>
	<path id="パス_15167" class="st5" d="M156.4,187.4c-1.2,3.1-2.2,6.3-3,9.5c-1.3,4.8-2.3,9.7-3.2,14.6c-0.5,3.2-1.2,6.5-1.5,9.7
		c-0.2,1.5-0.2,2.9-0.1,4.4c0.2,1.5-0.8,2.9-2.3,3.2s-2.9-0.8-3.2-2.3c0,0,0-0.1,0-0.1c0-2,0.2-4,0.7-5.9c1.1-5,2.5-9.9,4.4-14.6
		C150.6,199.5,153,193.2,156.4,187.4"/>
	<path id="パス_15168" class="st5" d="M165.4,151c0.9-6.7,2.4-13.4,4.4-19.9c1.4-5,3.5-9.9,6.1-14.4c1.1-1.8,2.5-3.4,4.2-4.6
		c1.3-0.9,3-0.5,3.8,0.7c0.9,1.3,0.5,3-0.7,3.8c0,0,0,0,0,0c-1.3,0.7-2.4,1.6-3.2,2.8c-1.9,2.6-3.6,5.3-5.1,8.2
		C170.9,135.2,167.7,143,165.4,151"/>
	<path id="パス_15169" class="st6" d="M164,185.8c0,1.2-0.9,2.1-2.1,2.1s-2.1-0.9-2.1-2.1c0-1.2,0.9-2.1,2.1-2.1c0,0,0,0,0,0
		C163.1,183.7,164,184.7,164,185.8C164,185.8,164,185.8,164,185.8"/>
	<path id="パス_15170" class="st7" d="M43.1,61.5c0,1.9-1.5,3.5-3.5,3.5c-1.9,0-3.5-1.5-3.5-3.5c0-1.9,1.5-3.5,3.5-3.5
		c0,0,0,0,0,0C41.5,58,43.1,59.6,43.1,61.5"/>
	<path id="パス_15171" class="st7" d="M255.6,37c0,1.9-1.5,3.5-3.5,3.5c-1.9,0-3.5-1.5-3.5-3.5c0-1.9,1.5-3.5,3.5-3.5
		S255.6,35.1,255.6,37C255.6,37,255.6,37,255.6,37"/>
	<path id="パス_15172" class="st7" d="M73.2,282.4c-0.8,1.8-2.9,2.7-4.7,1.9s-2.7-2.9-1.9-4.7s2.9-2.7,4.7-1.9c0,0,0,0,0,0
		C73.1,278.5,74,280.6,73.2,282.4"/>
	<path id="パス_15173" class="st7" d="M253.4,203.7c-0.6,1.3-2.1,1.9-3.4,1.4s-1.9-2.1-1.4-3.4c0.6-1.3,2.1-1.9,3.4-1.4
		C253.3,200.9,253.9,202.4,253.4,203.7"/>
	<path id="パス_15174" class="st6" d="M33.1,254.7c-0.4,0.9-1.4,1.3-2.4,1c-0.9-0.4-1.3-1.4-0.9-2.4c0.4-0.9,1.4-1.3,2.4-1
		C33,252.8,33.5,253.8,33.1,254.7L33.1,254.7"/>
	<path id="パス_15175" class="st6" d="M245.2,50.7c-0.4,0.9-1.4,1.3-2.4,1c-0.9-0.4-1.3-1.4-1-2.4c0.4-0.9,1.4-1.3,2.4-1
		S245.6,49.8,245.2,50.7C245.2,50.7,245.2,50.7,245.2,50.7"/>
	<path id="パス_15176" class="st5" d="M156.9,129.1c0,1.2-0.9,2.1-2.1,2.1s-2.1-0.9-2.1-2.1c0-1.2,0.9-2.1,2.1-2.1l0,0
		C155.9,127,156.9,128,156.9,129.1C156.9,129.1,156.9,129.1,156.9,129.1"/>
	<path id="パス_15177" class="st8" d="M160.2,143.9c0,0.6-0.5,1-1,1s-1-0.5-1-1s0.5-1,1-1l0,0
		C159.8,142.8,160.2,143.3,160.2,143.9"/>
	<path id="パス_15178" class="st6" d="M185.9,131.9c-0.4,0.6-1.2,0.7-1.7,0.3c-0.6-0.4-0.7-1.2-0.3-1.7s1.2-0.7,1.7-0.3l0,0
		C186.2,130.6,186.3,131.4,185.9,131.9"/>
	<path id="パス_15179" class="st5" d="M152.2,163.8c-3.4-3.2-7.2-6.1-11.2-8.6c-1.8-1-3.7-2.3-5.7-2.8c-0.2-0.1-0.5-0.1-0.7,0
		c-1.5,0.4-3.1-0.6-3.4-2.1c-0.4-1.5,0.6-3.1,2.1-3.4c0.3-0.1,0.7-0.1,1-0.1l0.7,0.1C141.2,147.7,149,158.7,152.2,163.8"/>
	<path id="パス_15180" class="st5" d="M153.2,167.5c-4.7-0.5-9.4-0.5-14.1,0c-2.1,0.3-4.3,0.4-6.2,1.2c-0.2,0.1-0.4,0.2-0.6,0.4
		c-1,1.2-2.8,1.4-4,0.5s-1.4-2.8-0.5-4c0.2-0.3,0.5-0.5,0.8-0.7l0.6-0.4C134.8,161.4,147.6,165.3,153.2,167.5"/>
	<path id="パス_15181" class="st5" d="M154.4,173.6c-2.9,3.7-5.4,7.8-7.4,12c-0.9,1.9-2,3.9-2.2,5.9c0,0.2,0,0.5,0,0.7
		c0.5,1.5-0.2,3.1-1.7,3.6c-1.5,0.5-3.1-0.2-3.6-1.7c-0.1-0.3-0.2-0.7-0.2-1l0-0.7C139.5,186.1,149.6,177.3,154.4,173.6"/>
</g>
</svg>
