<?xml version="1.0" encoding="utf-8"?>
<!-- Generator: Adobe Illustrator 26.3.1, SVG Export Plug-In . SVG Version: 6.00 Build 0)  -->
<svg version="1.1" id="レイヤー_1" xmlns="http://www.w3.org/2000/svg" xmlns:xlink="http://www.w3.org/1999/xlink" x="0px"
	 y="0px" viewBox="0 0 1027.4 1038.8" style="enable-background:new 0 0 1027.4 1038.8;" xml:space="preserve">
<style type="text/css">
	.st0{clip-path:url(#SVGID_00000027575477728537957850000006544019500862576273_);fill:#FFB368;}
	.st1{clip-path:url(#SVGID_00000027575477728537957850000006544019500862576273_);fill:#FFE8C6;}
	.st2{clip-path:url(#SVGID_00000027575477728537957850000006544019500862576273_);fill:#FF8657;}
	.st3{clip-path:url(#SVGID_00000027575477728537957850000006544019500862576273_);fill:#FFA955;}
	.st4{clip-path:url(#SVGID_00000027575477728537957850000006544019500862576273_);fill:#FF625A;}
	.st5{clip-path:url(#SVGID_00000027575477728537957850000006544019500862576273_);fill:#EE57E8;}
	.st6{clip-path:url(#SVGID_00000027575477728537957850000006544019500862576273_);fill:#FF652F;}
	.st7{clip-path:url(#SVGID_00000027575477728537957850000006544019500862576273_);fill:#FF902D;}
	.st8{clip-path:url(#SVGID_00000027575477728537957850000006544019500862576273_);fill:#F02F53;}
</style>
<g id="hanabi04">
	<defs>
		<rect id="SVGID_1_" width="1027.4" height="1038.8"/>
	</defs>
	<clipPath id="SVGID_00000137849140337337331350000001666988044450758569_">
		<use xlink:href="#SVGID_1_"  style="overflow:visible;"/>
	</clipPath>
	<path id="パス_15562" style="clip-path:url(#SVGID_00000137849140337337331350000001666988044450758569_);fill:#FFB368;" d="
		M679.2,381.3c31.4-51,128.7-178.5,187.3-188.7c5-0.9,9.7,2.4,10.6,7.4c0.9,5-2.4,9.7-7.4,10.6l0,0c-4.8,0.6-9.6,1.9-14.1,3.8
		c-14.4,6.1-27.3,15.5-40,25.2c-12.8,10.1-25.3,20.7-37.3,31.7C742,304.9,708.9,341.7,679.2,381.3"/>
	<path id="パス_15563" style="clip-path:url(#SVGID_00000137849140337337331350000001666988044450758569_);fill:#FFE8C6;" d="
		M710.9,502.6c53.7-26.4,203.9-82.6,259-60c4.7,1.9,6.9,7.3,5,12c-1.9,4.7-7.3,6.9-12,5c-0.1-0.1-0.3-0.1-0.4-0.2
		c-4.3-2-8.8-3.3-13.5-4.1c-15.5-2.5-31.4-1.5-47.2,0c-16.2,1.7-32.4,4-48.5,7C804.8,471.5,757.1,485,710.9,502.6"/>
	<path id="パス_15564" style="clip-path:url(#SVGID_00000137849140337337331350000001666988044450758569_);fill:#FFE8C6;" d="
		M696.1,432c42.7-42,167.5-142.6,226.9-138.6c5,0.4,8.8,4.8,8.4,9.9c-0.4,4.9-4.7,8.7-9.6,8.4c-4.9-0.6-9.8-0.5-14.6,0.3
		c-15.5,2.5-30.2,8.5-44.8,14.9c-14.8,6.7-29.5,14.1-43.8,21.9C775.4,372.8,734.4,400.7,696.1,432"/>
	<path id="パス_15565" style="clip-path:url(#SVGID_00000137849140337337331350000001666988044450758569_);fill:#FFB368;" d="
		M751.9,520.7c57.7-16,215.7-43.2,265.7-10.9c4.2,2.8,5.5,8.4,2.7,12.7c-2.8,4.2-8.4,5.5-12.7,2.7c-0.1-0.1-0.3-0.2-0.4-0.3
		c-3.9-2.7-8.1-4.9-12.5-6.5c-14.7-5.4-30.6-7.3-46.4-8.7c-16.2-1.3-32.6-2.1-48.9-2.1C849.9,507.5,800.5,511.9,751.9,520.7"/>
	<path id="パス_15566" style="clip-path:url(#SVGID_00000137849140337337331350000001666988044450758569_);fill:#FFB368;" d="
		M744.3,548.3c58.8-11.2,218.5-25.5,265.7,10.8c4,3.1,4.8,8.8,1.7,12.9c-3.1,4-8.8,4.8-12.9,1.7c-0.1-0.1-0.2-0.2-0.4-0.3
		c-3.6-3-7.6-5.6-11.9-7.5c-14.3-6.5-29.9-9.7-45.5-12.5c-16-2.6-32.3-4.7-48.6-6.1C843,543.1,793.5,543.5,744.3,548.3"/>
	<path id="パス_15567" style="clip-path:url(#SVGID_00000137849140337337331350000001666988044450758569_);fill:#FFE8C6;" d="
		M725.6,601.2c59.7,4.1,217.9,30.8,254.2,77.8c3.1,4,2.4,9.8-1.7,12.9c-4,3.1-9.8,2.4-12.9-1.7c-0.1-0.1-0.2-0.2-0.3-0.4
		c-2.7-3.9-6-7.3-9.6-10.3c-12.1-9.9-26.4-17-40.9-23.6c-14.9-6.6-30.1-12.7-45.4-18.2C822.4,621.3,774.4,609.1,725.6,601.2"/>
	<path id="パス_15568" style="clip-path:url(#SVGID_00000137849140337337331350000001666988044450758569_);fill:#FF8657;" d="
		M680.6,587.1c59.6-5.5,220-4.5,263.4,36.1c3.7,3.5,3.9,9.3,0.5,13c-3.5,3.7-9.3,3.9-13,0.5c-0.1-0.1-0.2-0.2-0.4-0.4
		c-3.3-3.4-7.1-6.3-11.2-8.6c-13.6-7.9-28.8-12.5-44.1-16.8c-15.7-4.2-31.7-7.8-47.8-10.7C779.5,591.4,730.1,587,680.6,587.1"/>
	<path id="パス_15569" style="clip-path:url(#SVGID_00000137849140337337331350000001666988044450758569_);fill:#FF8657;" d="
		M604.2,364.8c20.3-56.3,89.3-201.1,144.5-223.2c4.7-1.9,10,0.4,11.9,5.1s-0.4,10-5.1,11.9c-4.6,1.6-9,3.8-13,6.6
		c-12.9,8.9-23.6,20.7-33.9,32.8c-10.4,12.5-20.5,25.4-30,38.7C650,277.1,625.1,320,604.2,364.8"/>
	<path id="パス_15570" style="clip-path:url(#SVGID_00000137849140337337331350000001666988044450758569_);fill:#FF8657;" d="
		M608.9,612.8C663.1,638.1,801,720,818,777c1.5,4.8-1.2,10-6.1,11.5c-4.8,1.5-10-1.2-11.5-6.1c0,0,0-0.1,0-0.1
		c-1.2-4.7-3-9.3-5.4-13.5c-7.7-13.6-18.5-25.4-29.6-36.8c-11.5-11.5-23.5-22.7-35.8-33.4C692,666.4,651.6,637.7,608.9,612.8"/>
	<path id="パス_15571" style="clip-path:url(#SVGID_00000137849140337337331350000001666988044450758569_);fill:#FFB368;" d="
		M651.7,631.1c56.3,20.5,200.8,89.9,222.8,145.2c1.8,4.7-0.5,10-5.2,11.9c-4.7,1.8-10-0.4-11.9-5.1c-1.6-4.6-3.8-9-6.6-13
		c-8.9-12.9-20.7-23.6-32.7-34c-12.4-10.5-25.4-20.6-38.6-30.1C739.2,677.2,696.5,652.1,651.7,631.1"/>
	<path id="パス_15572" style="clip-path:url(#SVGID_00000137849140337337331350000001666988044450758569_);fill:#FF8657;" d="
		M369.3,430.2c-40.4-37.2-84.5-70.2-131.5-98.6c-23-13.1-46.6-27.3-72.4-33.3c-4.6-1-9.3-1.4-14-1.2c-5.1,0.4-9.4-3.4-9.8-8.5
		c-0.4-5.1,3.4-9.4,8.5-9.8c0.2,0,0.4,0,0.6,0C210.1,278.2,328.9,385.6,369.3,430.2"/>
	<path id="パス_15573" style="clip-path:url(#SVGID_00000137849140337337331350000001666988044450758569_);fill:#FF8657;" d="
		M375.9,550.5c-54.4-7.6-109.4-9.6-164.2-6.1c-26.4,2.4-53.8,4.1-78.5,13.8c-4.3,1.8-8.4,4.1-12.2,7c-4,3.2-9.7,2.5-12.9-1.5
		c-3.2-4-2.5-9.7,1.5-12.9c0.1-0.1,0.2-0.2,0.4-0.3C158.5,516.2,317.3,536.9,375.9,550.5"/>
	<path id="パス_15574" style="clip-path:url(#SVGID_00000137849140337337331350000001666988044450758569_);fill:#FF8657;" d="
		M387.8,593.3c-54.9,1.8-109.5,9.1-162.9,21.9c-25.6,6.8-52.3,13.2-75,27c-4,2.5-7.6,5.5-10.8,8.9c-3.3,3.8-9.1,4.2-12.9,0.8
		s-4.2-9.1-0.8-12.9c0.1-0.2,0.3-0.3,0.4-0.4C167.8,596.5,327.7,589.8,387.8,593.3"/>
	<path id="パス_15575" style="clip-path:url(#SVGID_00000137849140337337331350000001666988044450758569_);fill:#FFE8C6;" d="
		M596.2,598.3c89,27.6,258.6,100.9,319.2,169.7c5.8,6.7,10.7,14.1,14.5,22.1c2.1,4.6,0.1,10-4.5,12.2c-4.6,2.1-10,0.1-12.2-4.5
		c0-0.1-0.1-0.2-0.1-0.3c-5.6-13.4-16.1-25-26.7-35.2c-25.8-24.1-56.1-44.2-85.9-63.2c-11.1-7.1-24.5-14.9-36-21.5
		C710.4,647.4,654.3,620,596.2,598.3"/>
	<path id="パス_15576" style="clip-path:url(#SVGID_00000137849140337337331350000001666988044450758569_);fill:#FFB368;" d="
		M574.8,408.6c19.3-91.1,76.6-266.9,139.5-333.5c6.1-6.4,13.1-12,20.7-16.5c4.4-2.5,10-1.1,12.5,3.3c2.5,4.4,1.1,10-3.3,12.5
		c-0.1,0.1-0.2,0.1-0.4,0.2c-12.8,6.8-23.4,18.3-32.6,29.8c-21.7,27.9-38.8,59.9-55,91.4c-6,11.8-12.5,25.8-18,37.8
		C613.1,290.4,591,348.8,574.8,408.6"/>
	<path id="パス_15577" style="clip-path:url(#SVGID_00000137849140337337331350000001666988044450758569_);fill:#FFB368;" d="
		M624.6,448.8c59.7-71.5,192.6-200,279.4-229.4c8.4-2.8,17.2-4.5,26-4.9c5.1-0.2,9.3,3.7,9.5,8.8c0.2,5.1-3.7,9.3-8.8,9.5
		c-0.1,0-0.3,0-0.4,0c-14.5,0-29.2,5.2-42.7,11.1c-32.2,14.5-62.3,34.8-91.3,55c-10.8,7.6-23.2,16.9-33.6,25
		C713.8,362.3,667,403.5,624.6,448.8"/>
	<path id="パス_15578" style="clip-path:url(#SVGID_00000137849140337337331350000001666988044450758569_);fill:#FF8657;" d="
		M628.9,511.8c74.2-56.3,232.5-151.8,323.6-161.1c8.8-0.9,17.7-0.5,26.4,1c5,1,8.2,5.8,7.3,10.7c-1,5-5.8,8.2-10.7,7.3
		c-0.1,0-0.2,0-0.3-0.1c-14.2-3.2-29.7-1.4-44.2,1.3c-34.6,6.9-68.5,20-101.3,33.2c-12.2,5-26.4,11.3-38.4,16.8
		C735.2,447.3,680.3,477.1,628.9,511.8"/>
	<path id="パス_15579" style="clip-path:url(#SVGID_00000137849140337337331350000001666988044450758569_);fill:#FFB368;" d="
		M655.4,515.4c79.9-47.9,247.7-125.4,339.3-124.6c8.9,0.1,17.7,1.4,26.2,3.9c4.8,1.5,7.6,6.6,6.1,11.5c-1.5,4.8-6.6,7.6-11.5,6.1
		c-0.1,0-0.2-0.1-0.4-0.1c-13.7-4.7-29.3-4.7-44-3.6c-35.2,3.1-70.3,12.3-104.4,21.9c-12.7,3.6-27.5,8.4-40,12.5
		C768.2,463,710.4,486.5,655.4,515.4"/>
	<path id="パス_15580" style="clip-path:url(#SVGID_00000137849140337337331350000001666988044450758569_);fill:#FFB368;" d="
		M558.5,717.2c10.4,41.1,16.2,83.3,21.8,125.3c2.7,21.1,4.9,42.3,6.1,63.5c1.2,21.5,2.4,43,0.8,64.7c-1.4,12-18.8,10.7-18.3-1.5
		c3.8-30.9,2.6-63,2.2-94.2C569.5,822.3,567,769.3,558.5,717.2"/>
	<path id="パス_15581" style="clip-path:url(#SVGID_00000137849140337337331350000001666988044450758569_);fill:#FFE8C6;" d="
		M586.7,732.2c17,38.9,29.6,79.5,42,120c6.1,20.4,11.7,41,16.4,61.7c4.7,21,9.4,42.1,11.4,63.7c0.5,12.1-16.8,13.6-18.3,1.5
		c-1.3-31.1-7.8-62.6-13.2-93.3C614.8,834,603.6,782.2,586.7,732.2"/>
	<path id="パス_15582" style="clip-path:url(#SVGID_00000137849140337337331350000001666988044450758569_);fill:#FFE8C6;" d="
		M633.9,710.6c26,33.5,48.2,69.8,70.2,106.1c10.9,18.2,21.4,36.8,31,55.8c9.7,19.2,19.5,38.5,26.7,58.9c3.5,11.6-12.9,17.3-17.3,6
		c-8.9-29.9-22.9-58.7-35.7-87.2C686.1,802.5,662.5,754.9,633.9,710.6"/>
	<path id="パス_15583" style="clip-path:url(#SVGID_00000137849140337337331350000001666988044450758569_);fill:#FFB368;" d="
		M646.6,696.1c30.3,29.7,57.2,62.7,83.9,95.6c13.3,16.6,26.2,33.6,38.3,51.1c12.2,17.7,24.5,35.5,34.4,54.8c5,11-10.4,18.9-16.4,8.2
		c-12.8-28.4-30.6-55.1-47.2-81.6C710.7,780,680.9,736.1,646.6,696.1"/>
	<path id="パス_15584" style="clip-path:url(#SVGID_00000137849140337337331350000001666988044450758569_);fill:#FFB368;" d="
		M587.1,671.1c22,36.3,39.8,74.9,57.5,113.4c8.7,19.4,17,39,24.4,59c7.5,20.2,14.9,40.5,19.7,61.6c2.1,11.9-14.8,15.7-17.9,3.9
		c-5.4-30.7-16-61-25.4-90.8C628.3,768.3,610.4,718.4,587.1,671.1"/>
	<path id="パス_15585" style="clip-path:url(#SVGID_00000137849140337337331350000001666988044450758569_);fill:#FF8657;" d="
		M540,690.7c-4.2,20.8-5.5,42-6.8,63.1c-1.7,31.7-2.4,63.4-1.5,95c1.4,31.1,1.8,62.9,7.3,93.6c1,5-2.2,9.8-7.2,10.8
		c-5,1-9.8-2.2-10.8-7.2c0-0.1-0.1-0.3-0.1-0.4c-1.4-10.9-2.2-21.8-2.4-32.8c-1.8-53.4,2.3-106.7,9.5-159.5
		C531.1,732.3,534.1,711.1,540,690.7"/>
	<path id="パス_15586" style="clip-path:url(#SVGID_00000137849140337337331350000001666988044450758569_);fill:#FFE8C6;" d="
		M445.1,739.6c-11.6,17.7-20.8,36.9-30,56c-13.5,28.7-25.9,57.9-36.9,87.6c-10.4,29.4-21.8,59-28.3,89.5c-0.9,5-5.7,8.3-10.7,7.3
		s-8.3-5.7-7.3-10.7c0-0.2,0.1-0.3,0.1-0.5c2.8-10.6,6.1-21,10-31.3c18.3-50.1,42.1-98.1,68.6-144.4
		C421.3,774.8,432,756.3,445.1,739.6"/>
	<path id="パス_15587" style="clip-path:url(#SVGID_00000137849140337337331350000001666988044450758569_);fill:#FF8657;" d="
		M440.2,713.1c-13.5,16.4-24.7,34.4-35.8,52.4c-16.5,27.1-32,54.8-46.2,83.1c-13.5,28.1-28.1,56.3-37.8,85.9
		c-1.5,4.8-6.6,7.6-11.4,6.1c-4.8-1.5-7.6-6.6-6.1-11.4c0-0.1,0.1-0.3,0.1-0.4c3.9-10.2,8.4-20.2,13.4-30
		c23.6-47.9,52.4-93,83.8-136.1C412.7,745.6,425.4,728.4,440.2,713.1"/>
	<path id="パス_15588" style="clip-path:url(#SVGID_00000137849140337337331350000001666988044450758569_);fill:#FFE8C6;" d="
		M575.9,288.4c4-42.4,15.2-83.8,26.1-124.9c8.4-31,18.9-61.5,31.4-91.1c4.6-10.4,9.1-20.2,15.8-29.8c3-4.1,8.7-5.1,12.8-2.1
		s5.1,8.7,2.1,12.8l0,0c-3.1,4-5.9,8.1-8.4,12.5c-7.8,13.5-14.1,27.7-20.4,42.1c-16.8,38.8-31.4,78.5-43.8,118.9
		C585.3,247,579.2,267.4,575.9,288.4"/>
	<path id="パス_15589" style="clip-path:url(#SVGID_00000137849140337337331350000001666988044450758569_);fill:#FFA955;" d="
		M410.1,643.2c-18.9,9.7-36.3,21.9-53.6,34.1c-34.5,24.5-67.6,50.9-99.1,79c-11.7,10.4-23.2,21-33.5,32.6c-3.3,3.6-6.3,7.4-8.9,11.5
		c-2.7,4.3-8.4,5.5-12.7,2.8c-4.3-2.7-5.5-8.4-2.8-12.7c0.1-0.2,0.2-0.3,0.3-0.5c6.9-9.4,14.9-16.8,23.3-24.4
		c24.2-21.1,49.8-40.7,76.6-58.4C335.3,684,371.1,660.4,410.1,643.2"/>
	<path id="パス_15590" style="clip-path:url(#SVGID_00000137849140337337331350000001666988044450758569_);fill:#FFE8C6;" d="
		M369.9,686.5c-17.1,12.6-32.4,27.3-47.7,42c-30.2,29.5-58.8,60.8-85.6,93.5c-9.9,12.1-19.7,24.3-28.1,37.4c-2.7,4.1-5,8.3-7,12.7
		c-2,4.6-7.4,6.7-12.1,4.7c-4.6-2-6.7-7.4-4.7-12.1c0.1-0.2,0.2-0.3,0.2-0.5c5.4-10.4,12.1-18.9,19.2-27.7
		c20.6-24.7,42.9-47.9,66.6-69.6C302.4,738.4,334.1,709.5,369.9,686.5"/>
	<path id="パス_15591" style="clip-path:url(#SVGID_00000137849140337337331350000001666988044450758569_);fill:#FFB368;" d="
		M343.2,649.5c-20,7-39,16.7-57.8,26.3c-37.5,19.5-74,41-109.1,64.5c-13,8.7-25.9,17.5-37.7,27.6c-3.7,3.1-7.2,6.5-10.4,10.1
		c-3.3,3.8-9.1,4.3-12.9,1c-3.8-3.3-4.3-9.1-1-12.9c0.1-0.1,0.2-0.3,0.4-0.4c8.2-8.3,17.1-14.5,26.5-20.9c26.9-17.6,55-33.3,84-47.2
		C263.5,679.5,302.2,661.1,343.2,649.5"/>
	<path id="パス_15592" style="clip-path:url(#SVGID_00000137849140337337331350000001666988044450758569_);fill:#FFB368;" d="
		M326.9,621c-20.9,3.6-41.2,10-61.4,16.4c-40.2,13-79.7,28.2-118.3,45.5c-14.3,6.4-28.4,13-41.8,20.9c-4.2,2.4-8.2,5.2-12,8.3
		c-3.9,3.3-9.7,2.7-12.9-1.1s-2.7-9.7,1.1-12.9c0.1-0.1,0.3-0.2,0.5-0.4c9.4-6.9,19.3-11.5,29.5-16.2c29.5-12.9,59.8-23.8,90.7-32.6
		C243.3,637.4,284.5,625.7,326.9,621"/>
	<path id="パス_15593" style="clip-path:url(#SVGID_00000137849140337337331350000001666988044450758569_);fill:#FFE8C6;" d="
		M287.8,571.2c-21.2-0.4-42.3,2-63.4,4.5c-42,5.1-83.6,12.5-124.8,22.3c-15.2,3.6-30.4,7.4-45,12.7c-4.6,1.6-9,3.6-13.3,5.8
		c-4.4,2.5-10,0.9-12.5-3.5s-0.9-10,3.5-12.5c0.2-0.1,0.4-0.2,0.6-0.3c10.6-5,21.1-7.6,32.1-10.3c31.4-7.1,63.2-12,95.2-14.9
		C202.6,571.5,245.4,567.8,287.8,571.2"/>
	<path id="パス_15594" style="clip-path:url(#SVGID_00000137849140337337331350000001666988044450758569_);fill:#FFB368;" d="
		M283.4,532.3c-21-3.1-42.3-3.4-63.4-3.7c-42.3-0.3-84.6,1.7-126.6,6c-15.6,1.6-31.1,3.4-46.3,6.7c-4.8,1-9.4,2.4-14,4.1
		c-4.7,1.9-10-0.5-11.9-5.2c-1.9-4.7,0.5-10,5.2-11.9c0.2-0.1,0.3-0.1,0.5-0.2c11.1-3.6,21.9-4.9,33.1-6.1c32-3,64.2-3.8,96.3-2.5
		C198.9,521.5,241.7,523.4,283.4,532.3"/>
	<path id="パス_15595" style="clip-path:url(#SVGID_00000137849140337337331350000001666988044450758569_);fill:#FFE8C6;" d="
		M290.2,498.2c-20.6-5-41.8-7.2-62.8-9.4c-42.1-4.1-84.4-5.9-126.6-5.3c-15.7,0.2-31.3,0.6-46.7,2.6c-4.8,0.6-9.6,1.5-14.3,2.8
		c-4.9,1.4-10-1.3-11.4-6.2c-1.4-4.9,1.3-10,6.2-11.4c0.2-0.1,0.4-0.1,0.5-0.1c11.4-2.6,22.2-2.9,33.6-3.1
		c32.2-0.1,64.3,1.9,96.2,6.1C207,479.9,249.5,485.6,290.2,498.2"/>
	<path id="パス_15596" style="clip-path:url(#SVGID_00000137849140337337331350000001666988044450758569_);fill:#FFB368;" d="
		M258.1,477.6c-19.9-7.5-40.6-12.2-61.2-17c-41.3-9.2-83-16.1-125.1-20.7c-15.6-1.7-31.1-3.2-46.6-3.1c-4.9,0-9.7,0.3-14.5,1.1
		c-5,0.8-9.7-2.5-10.6-7.5s2.5-9.7,7.5-10.6c0.2,0,0.4-0.1,0.6-0.1c11.6-1.1,22.4-0.2,33.7,1c31.9,3.8,63.6,9.8,94.7,17.8
		C177.7,449.4,219.2,460.2,258.1,477.6"/>
	<path id="パス_15597" style="clip-path:url(#SVGID_00000137849140337337331350000001666988044450758569_);fill:#FFB368;" d="
		M298.2,474.2c-18.9-9.7-38.9-16.9-58.8-24c-39.9-14-80.6-25.7-121.8-35.1c-15.3-3.5-30.5-6.8-46-8.5c-4.8-0.6-9.7-0.8-14.5-0.6
		c-5.1,0.2-9.4-3.7-9.6-8.7c-0.2-5.1,3.7-9.4,8.7-9.6c0.2,0,0.4,0,0.6,0c11.7,0.2,22.3,2.5,33.3,4.9c31.3,7.5,62,17.1,92,28.7
		C221.7,436.7,261.6,452.3,298.2,474.2"/>
	<path id="パス_15598" style="clip-path:url(#SVGID_00000137849140337337331350000001666988044450758569_);fill:#FFE8C6;" d="
		M290.9,408.4c-17.1-12.5-35.8-22.6-54.5-32.7c-37.3-19.9-75.7-37.7-115-53.3c-14.6-5.8-29.1-11.4-44.1-15.5
		c-4.7-1.3-9.4-2.3-14.3-2.9c-5-0.5-8.7-5-8.2-10.1c0.5-5,5-8.7,10.1-8.2c0.2,0,0.4,0,0.6,0.1c11.5,2,21.6,5.8,32.2,9.9
		c29.7,12.2,58.7,26.4,86.5,42.4C221,359.7,258.1,381.2,290.9,408.4"/>
	<path id="パス_15599" style="clip-path:url(#SVGID_00000137849140337337331350000001666988044450758569_);fill:#FFB368;" d="
		M299.1,399.2c-16.1-13.8-33.9-25.4-51.7-37c-35.6-22.8-72.4-43.7-110.3-62.4c-14-6.9-28.1-13.7-42.7-19c-4.6-1.7-9.2-3-14-4
		c-5-0.9-8.3-5.7-7.4-10.7c0.9-5,5.7-8.3,10.7-7.4c0.2,0,0.4,0.1,0.6,0.1c11.3,2.9,21.1,7.6,31.3,12.5c28.7,14.6,56.3,31,82.8,49.3
		C233.3,345.1,268.5,369.5,299.1,399.2"/>
	<path id="パス_15600" style="clip-path:url(#SVGID_00000137849140337337331350000001666988044450758569_);fill:#FFB368;" d="
		M343.5,329.7c-12.4-17.2-27-32.7-41.6-48.1c-29.2-30.5-60.2-59.4-92.6-86.5c-12-10-24.1-19.9-37.1-28.4c-4-2.7-8.3-5.1-12.7-7.2
		c-4.6-2.1-6.7-7.5-4.6-12.1c2.1-4.6,7.5-6.7,12.1-4.6c0.2,0.1,0.3,0.2,0.5,0.2c10.3,5.5,18.8,12.3,27.5,19.5
		c24.5,20.9,47.5,43.4,69,67.3C292.3,261.7,320.9,293.6,343.5,329.7"/>
	<path id="パス_15601" style="clip-path:url(#SVGID_00000137849140337337331350000001666988044450758569_);fill:#FFB368;" d="
		M362.7,346.2c-9.5-19-21.5-36.5-33.5-54c-24.1-34.7-50.1-68.1-77.9-100c-10.3-11.8-20.7-23.5-32.2-33.9c-3.6-3.3-7.4-6.3-11.4-9.1
		c-4.2-2.8-5.4-8.5-2.7-12.7c2.8-4.2,8.5-5.4,12.7-2.7c0.2,0.1,0.3,0.2,0.5,0.3c9.3,7,16.6,15.1,24.1,23.6
		c20.9,24.5,40.1,50.3,57.6,77.3C322.8,270.9,345.9,307,362.7,346.2"/>
	<path id="パス_15602" style="clip-path:url(#SVGID_00000137849140337337331350000001666988044450758569_);fill:#FF8657;" d="
		M455.5,391c-6.9-20.1-16.4-39.1-25.9-58c-19.2-37.7-40.5-74.3-63.7-109.6c-8.6-13.1-17.4-26-27.3-37.9c-3.1-3.8-6.4-7.3-10.1-10.5
		c-3.8-3.3-4.3-9.1-1-12.9c3.3-3.8,9.1-4.3,12.9-1c0.2,0.1,0.3,0.3,0.5,0.4c8.3,8.2,14.4,17.2,20.7,26.6
		c17.4,27.1,33,55.2,46.6,84.3C426.1,311,444.2,349.9,455.5,391"/>
	<path id="パス_15603" style="clip-path:url(#SVGID_00000137849140337337331350000001666988044450758569_);fill:#FFE8C6;" d="
		M418.3,298.8c-5.5-20.5-13.8-40.1-22-59.6c-16.6-38.9-35.4-76.8-56.2-113.6c-7.7-13.6-15.6-27.1-24.7-39.7c-2.8-4-5.9-7.7-9.3-11.2
		c-3.6-3.6-3.6-9.4,0-13c3.6-3.6,9.4-3.6,13,0c0.1,0.1,0.3,0.3,0.4,0.4c7.7,8.8,13.2,18.1,18.9,27.9c15.5,28.2,29.2,57.3,40.9,87.3
		C394.3,217.1,409.8,257.1,418.3,298.8"/>
	<path id="パス_15604" style="clip-path:url(#SVGID_00000137849140337337331350000001666988044450758569_);fill:#FFB368;" d="
		M463.1,334.3c-2.9-21-8.7-41.5-14.4-61.9c-11.7-40.6-25.6-80.6-41.7-119.7c-6-14.5-12.1-28.8-19.6-42.4c-2.3-4.3-4.9-8.4-7.9-12.2
		c-3.1-4-2.4-9.8,1.6-12.9s9.8-2.4,12.9,1.6c0.1,0.1,0.2,0.3,0.3,0.4c6.6,9.7,10.9,19.6,15.3,30c11.9,29.9,21.9,60.5,29.7,91.7
		C449.4,250.2,459.8,291.8,463.1,334.3"/>
	<path id="パス_15605" style="clip-path:url(#SVGID_00000137849140337337331350000001666988044450758569_);fill:#FFB368;" d="
		M489.6,348.3c-0.3-21.2-3.5-42.2-6.7-63.2c-6.6-41.8-15.5-83.1-26.7-123.9c-4.1-15.1-8.4-30.1-14.2-44.5c-1.8-4.5-3.9-8.9-6.3-13.1
		c-2.6-4.4-1.1-10,3.2-12.6c4.4-2.6,10-1.1,12.6,3.2c0.1,0.1,0.1,0.2,0.2,0.4c5.3,10.4,8.4,20.8,11.5,31.7
		c8.2,31.1,14.3,62.7,18.2,94.6C486.4,263.2,491.6,305.8,489.6,348.3"/>
	<path id="パス_15606" style="clip-path:url(#SVGID_00000137849140337337331350000001666988044450758569_);fill:#FFB368;" d="
		M558.6,665.6c17.3,57.6,29.4,116.7,41,175.8c8.5,44.6,15.3,89.4,18.5,134.7c0.9,15.7,1.6,31-0.7,46.9c-0.8,5-5.4,8.5-10.4,7.7
		s-8.5-5.4-7.7-10.4c0-0.1,0-0.3,0.1-0.4c1.2-7,1.9-14,2.1-21c0.8-22.1-0.7-44.3-2.5-66.5c-2.5-29.8-5.5-59.6-9.5-89.3
		C581.3,783.6,572.6,724,558.6,665.6"/>
	<path id="パス_15607" style="clip-path:url(#SVGID_00000137849140337337331350000001666988044450758569_);fill:#FFB368;" d="
		M603.9,635.7c45.4,39.6,87,83.2,128.3,126.9c30.9,33.2,60.5,67.5,87.4,104.2c9.1,12.8,17.8,25.4,24.4,40.1c2,4.6-0.1,10-4.7,12.1
		c-4.6,2-10-0.1-12.1-4.7c0-0.1-0.1-0.2-0.1-0.3c-2.7-6.5-5.8-12.9-9.4-18.9c-11.1-19.2-24.2-37.1-37.6-55
		c-18-23.9-36.4-47.5-55.6-70.5C685.9,723.5,646.9,677.7,603.9,635.7"/>
	<path id="パス_15608" style="clip-path:url(#SVGID_00000137849140337337331350000001666988044450758569_);fill:#FFB368;" d="
		M525,671.4c-8.6,28.9-13.3,58.8-18,88.5c-6.6,44.7-11.7,89.6-14.7,134.6c-1.6,29.8-3.4,60-2.8,89.8c0.4,14.3,1,29.4,4.1,43.1
		c1.2,4.9-1.8,9.9-6.8,11.1c-4.9,1.2-9.9-1.8-11.1-6.8c0-0.1-0.1-0.3-0.1-0.4c-3-15.9-3-31.2-2.8-47c0.8-30.6,3.3-60.6,6.7-90.9
		c5.5-45.1,13.2-89.9,22.4-134.3C508.3,729.6,514.7,699.9,525,671.4"/>
	<path id="パス_15609" style="clip-path:url(#SVGID_00000137849140337337331350000001666988044450758569_);fill:#FFB368;" d="
		M490.9,666.2c-14.3,26.6-25,54.9-35.6,83c-15.6,42.4-29.7,85.3-41.6,128.8c-7.6,28.8-15.5,58.1-21,87.4c-2.6,14.1-5,29-4.7,43
		c0.2,5.1-3.8,9.3-8.9,9.5c-5.1,0.2-9.3-3.8-9.5-8.9c0-0.1,0-0.2,0-0.4c0.3-16.2,3.4-31.2,6.8-46.6c7-29.8,15.5-58.7,25-87.7
		c14.5-43.1,31.1-85.4,49.1-127C462.8,719.8,475.1,692,490.9,666.2"/>
	<path id="パス_15610" style="clip-path:url(#SVGID_00000137849140337337331350000001666988044450758569_);fill:#FFB368;" d="
		M526.7,374.8c1.6-76.3,0.8-152.9-4.6-229c-3.3-37.6-6-75.7-14-112.6c-1.5-7-3.5-13.9-6.1-20.7c-1.8-4.7,0.5-10,5.2-11.9
		c4.7-1.8,10,0.5,11.9,5.2c0,0.1,0.1,0.2,0.1,0.3c5.3,15.5,7.4,30.9,9.4,46.8C540.3,159.9,534.2,267.8,526.7,374.8"/>
	<path id="パス_15611" style="clip-path:url(#SVGID_00000137849140337337331350000001666988044450758569_);fill:#FFB368;" d="
		M505.6,395c-4.5-76.2-11.3-152.5-22.7-227.9c-6.3-37.2-12-75-22.9-111.1c-2.1-6.9-4.6-13.6-7.7-20.1c-2.2-4.5-0.3-10,4.2-12.3
		c4.5-2.2,10-0.3,12.3,4.2c0.1,0.1,0.1,0.2,0.2,0.3c6.5,15,9.8,30.2,13.1,45.9C502.1,179.7,504.5,287.7,505.6,395"/>
	<path id="パス_15612" style="clip-path:url(#SVGID_00000137849140337337331350000001666988044450758569_);fill:#FF625A;" d="
		M441.5,459.3c-32.9-43.9-70.2-84.5-111.3-120.9c-20.2-17-40.8-35.3-65.1-46c-4.3-1.8-8.9-3.1-13.5-3.7c-5-0.6-8.6-5.1-8.1-10.1
		c0.6-5,5.1-8.6,10.1-8.1c0.2,0,0.4,0,0.5,0.1C312.8,280.8,409.9,408.1,441.5,459.3"/>
	<path id="パス_15613" style="clip-path:url(#SVGID_00000137849140337337331350000001666988044450758569_);fill:#FF625A;" d="
		M637.2,398.1c8.6-20.9,18.8-41,30.5-60.3c9-14.8,18.9-29.1,31.7-41.3c5.1-4.7,10.4-8.8,17.4-11.2c4.8-1.6,10,0.9,11.7,5.7
		c1.6,4.8-0.9,10-5.7,11.7c-0.4,0.1-0.8,0.2-1.2,0.3c-8.2,2-16.8,10.2-23.4,16.5C674.7,343.1,654.2,369.5,637.2,398.1"/>
	<path id="パス_15614" style="clip-path:url(#SVGID_00000137849140337337331350000001666988044450758569_);fill:#FF625A;" d="
		M637.3,531.2c19.3-11.7,39.4-21.9,60.3-30.5c16-6.6,32.5-12.2,50-14.5c6.8-0.8,13.7-0.9,20.7,1.3c4.8,1.5,7.6,6.7,6,11.5
		c-1.5,4.8-6.7,7.6-11.5,6c-0.4-0.1-0.8-0.3-1.2-0.5c-7.8-3.3-19.6-1.8-28.6-0.6C700.1,509.1,668,518.2,637.3,531.2"/>
	<path id="パス_15615" style="clip-path:url(#SVGID_00000137849140337337331350000001666988044450758569_);fill:#FF625A;" d="
		M456.2,485.3c-20.7-18.6-43.2-35-67.2-49.1c-9.3-5.2-18.9-10.8-28.7-14.3c-4.7-1.7-9.5-2.7-12.8-2.4c-5.1,0.6-9.6-3.1-10.1-8.1
		c-0.6-5.1,3.1-9.6,8.1-10.1c7.7-0.3,14.7,2.4,21.3,5.5c15.8,7.9,29.5,18.6,42.5,30C426.1,451.7,441.8,467.9,456.2,485.3"/>
	<path id="パス_15616" style="clip-path:url(#SVGID_00000137849140337337331350000001666988044450758569_);fill:#FF625A;" d="
		M347.3,547.6c-27.8,1-55.4,4.7-82.5,11.3c-10.2,2.7-21.1,5.4-30.6,9.7c-4.6,2-8.7,4.6-10.9,7.2c-3.3,3.9-9.1,4.4-13,1.2
		c-3.9-3.3-4.4-9.1-1.2-13l0,0c5.4-5.6,12.3-8.5,19.1-10.8c16.8-5.3,34.1-7,51.4-7.8C302.3,544.3,324.8,545.1,347.3,547.6"/>
	<path id="パス_15617" style="clip-path:url(#SVGID_00000137849140337337331350000001666988044450758569_);fill:#FF625A;" d="
		M374.7,631.2c-26.3,9.2-51.5,21-75.4,35.3c-9,5.6-18.5,11.4-26.3,18.3c-3.8,3.3-7,7-8.3,10.1c-1.9,4.7-7.3,6.9-12,5
		c-4.7-1.9-6.9-7.3-5-12c3.5-6.9,9.2-11.8,15-16c14.5-10.1,30.5-16.9,46.8-22.8C330.7,641.4,352.5,635.4,374.7,631.2"/>
	<path id="パス_15618" style="clip-path:url(#SVGID_00000137849140337337331350000001666988044450758569_);fill:#FF625A;" d="
		M447.2,632.6c-8.6,7-16.2,15.1-23.8,23.1c-11.2,12.1-22,24.7-32.2,37.7c-6.5,8.5-13.6,17.2-19.5,26.1c-2.7,4-5.6,8.6-7.2,12.8
		c-1.8,4.8-7.1,7.2-11.8,5.4s-7.2-7.1-5.4-11.8c2.9-6.3,7-11.2,11.2-16.3c11-12.9,22.9-25,35.7-36.1
		C411.2,658.9,428.1,644.2,447.2,632.6"/>
	<path id="パス_15619" style="clip-path:url(#SVGID_00000137849140337337331350000001666988044450758569_);fill:#FF625A;" d="
		M454,660.2c-7.2,8.4-13.2,17.8-19.2,27.1c-8.8,14-17.2,28.3-24.8,42.9c-4.9,9.6-10.2,19.4-14.4,29.2c-1.9,4.4-3.9,9.5-4.8,13.9
		c-0.9,5-5.7,8.3-10.7,7.4c-5-0.9-8.3-5.7-7.4-10.7c1.7-6.7,4.9-12.3,8.1-18.1c8.5-14.7,18-28.7,28.6-41.9
		C423.3,692.6,437.3,675.1,454,660.2"/>
	<path id="パス_15620" style="clip-path:url(#SVGID_00000137849140337337331350000001666988044450758569_);fill:#FF625A;" d="
		M556.8,658.2c9,20.4,14.5,42.2,20.1,63.8c4.7,19.3,8.3,38.9,9.2,58.8c0.1,3.3,0,6.6-0.4,9.9c-2.1,12-19.3,9.8-18.2-2.4
		c1.1-5.2,1.6-10.4,1.6-15.7c0.2-10.7-0.6-21.8-1.1-32.6c-0.9-16.5-2.6-32.9-4.8-49.3C561.5,679.9,559.9,668.9,556.8,658.2"/>
	<path id="パス_15621" style="clip-path:url(#SVGID_00000137849140337337331350000001666988044450758569_);fill:#FF625A;" d="
		M610.6,653.8c16,15.6,29.3,33.6,42.6,51.6c11.6,16.2,22.3,32.9,30.7,51.1c1.4,3,2.5,6.1,3.3,9.3c2.6,11.9-14.2,16.3-17.8,4.6
		c-0.9-5.2-2.4-10.3-4.4-15.2c-3.8-10-8.8-20-13.2-29.8c-7-14.9-14.8-29.6-23-43.9C623.1,672.1,617.5,662.6,610.6,653.8"/>
	<path id="パス_15622" style="clip-path:url(#SVGID_00000137849140337337331350000001666988044450758569_);fill:#FF625A;" d="
		M541.2,409.2c-3-42.5,1.2-85.2,5.1-127.5c3.2-32,8.5-63.8,15.9-95c2.8-11,5.6-21.4,10.7-32c2.2-4.5,7.7-6.4,12.3-4.2
		s6.4,7.7,4.2,12.3l0,0c-2.4,4.4-4.5,9-6.2,13.7c-5.4,14.6-9.4,29.7-13.1,44.9c-10.2,41-18.1,82.6-23.7,124.5
		C543.7,366.9,541.1,388,541.2,409.2"/>
	<path id="パス_15623" style="clip-path:url(#SVGID_00000137849140337337331350000001666988044450758569_);fill:#FF625A;" d="
		M377.8,482.4c-24.7-12.8-50.6-23.1-77.4-30.7c-10.3-2.7-21-5.7-31.4-6.6c-5-0.5-9.9-0.3-13,0.9c-4.8,1.8-10.1-0.6-11.9-5.3
		c-1.8-4.8,0.6-10.1,5.3-11.9l0,0c7.4-2.2,14.9-1.4,22,0c17.2,3.7,33.2,10.6,48.6,18.4C340.2,457.4,359.5,469.1,377.8,482.4"/>
	<path id="パス_15624" style="clip-path:url(#SVGID_00000137849140337337331350000001666988044450758569_);fill:#EE57E8;" d="
		M566.8,606.1c14.7,13.7,45.2,46.2,43.9,67.1l-0.2,2.3c-0.4,5.2-4.9,9.2-10.1,8.8s-9.2-4.9-8.8-10.1c0.1-2.3,1.3-3.2,1.3-5.7
		c-0.2-6.8-3.3-13.7-5.4-20.3C582,633.5,575.1,619.4,566.8,606.1"/>
	<path id="パス_15625" style="clip-path:url(#SVGID_00000137849140337337331350000001666988044450758569_);fill:#EE57E8;" d="
		M561,541.6c11.4-19.5,24.4-38,38.8-55.4c11-13.3,22.9-26.1,37.2-36.4c5.7-3.9,11.6-7.3,18.8-8.6c5-1,9.8,2.3,10.8,7.3
		c1,5-2.3,9.8-7.3,10.8l0,0c-4.2,0.2-8.5,1.7-13.6,4.5c-9.2,5-17.8,12.1-26.1,18.6C598.1,500.1,578.5,519.9,561,541.6"/>
	<path id="パス_15626" style="clip-path:url(#SVGID_00000137849140337337331350000001666988044450758569_);fill:#EE57E8;" d="
		M592.7,567.3c22.6-0.5,45.1,0.7,67.5,3.7c17.2,2.3,34.2,5.6,50.5,12.4c6.3,2.7,12.3,6,17.3,11.5c3.4,3.7,3.2,9.6-0.5,13
		c-3.7,3.4-9.6,3.2-13-0.5c-0.3-0.3-0.5-0.6-0.8-1c-5.1-6.7-16.1-11.3-24.5-14.8C658.2,579.6,625.8,571.4,592.7,567.3"/>
	<path id="パス_15627" style="clip-path:url(#SVGID_00000137849140337337331350000001666988044450758569_);fill:#EE57E8;" d="
		M678,548.8c22.1-4.7,44.5-7.7,67-8.9c17.3-0.9,34.7-0.9,51.9,2.8c6.7,1.5,13.2,3.6,19.1,8c4.1,3,4.9,8.8,1.9,12.9
		s-8.8,4.9-12.9,1.9c-0.3-0.3-0.7-0.5-1-0.8c-6.3-5.7-17.9-8.1-26.8-10C744.6,548.5,711.2,546.6,678,548.8"/>
	<path id="パス_15628" style="clip-path:url(#SVGID_00000137849140337337331350000001666988044450758569_);fill:#EE57E8;" d="
		M568,581.6c20.5,9.4,40.2,20.5,59,33c14.4,9.6,28.3,20.1,39.9,33.4c4.5,5.2,8.4,10.8,10.5,17.9c1.5,4.9-1.3,10-6.2,11.4
		c-4.9,1.5-10-1.3-11.4-6.2c-0.7-4.2-2.6-8.3-5.9-13c-5.9-8.6-13.8-16.5-21.1-24.1C613,614.4,591.3,596.8,568,581.6"/>
	<path id="パス_15629" style="clip-path:url(#SVGID_00000137849140337337331350000001666988044450758569_);fill:#EE57E8;" d="
		M542.4,560.3c10.6-17.1,36.4-53.5,57.1-56.3l2.3-0.3c5.2-0.7,9.9,3,10.6,8.2c0.7,5.2-3,9.9-8.2,10.6c-2.3,0.4-3.4-0.6-5.8-0.1
		c-6.6,1.6-12.8,5.9-18.8,9.3C566.2,540,553.8,549.6,542.4,560.3"/>
	<path id="パス_15630" style="clip-path:url(#SVGID_00000137849140337337331350000001666988044450758569_);fill:#EE57E8;" d="
		M497.2,472.1c-10.6-25.7-23.8-50.3-39.4-73.3c-6.1-8.6-12.4-17.9-19.7-25.3c-3.5-3.6-7.4-6.6-10.5-7.7c-4.8-1.7-7.3-6.9-5.6-11.7
		c1.7-4.8,6.9-7.3,11.7-5.6c7.1,3.1,12.3,8.5,16.8,14.1c10.8,13.9,18.5,29.5,25.3,45.4C484.6,428.7,491.8,450.2,497.2,472.1"/>
	<path id="パス_15631" style="clip-path:url(#SVGID_00000137849140337337331350000001666988044450758569_);fill:#EE57E8;" d="
		M440.5,533.6c-27.2-5.8-54.9-8.8-82.8-8.9c-10.6,0.2-21.7,0.1-32,2c-4.9,0.9-9.6,2.4-12.3,4.3c-4.1,3-9.9,2.1-12.9-2
		c-3-4.1-2.1-9.9,2-12.9l0,0c6.6-4.1,14-5.3,21.1-5.9c17.6-1.1,34.8,1.4,51.8,4.8C397.6,519.5,419.4,525.7,440.5,533.6"/>
	<path id="パス_15632" style="clip-path:url(#SVGID_00000137849140337337331350000001666988044450758569_);fill:#EE57E8;" d="
		M477,583.9c-26.3,9.2-51.5,21-75.4,35.3c-9,5.6-18.5,11.4-26.3,18.3c-3.8,3.3-7,7-8.3,10.1c-1.9,4.7-7.3,6.9-12,5
		c-4.7-1.9-6.9-7.3-5-12c3.5-6.9,9.2-11.8,15-16c14.5-10.1,30.5-16.9,46.8-22.8C433,594.1,454.8,588.2,477,583.9"/>
	<path id="パス_15633" style="clip-path:url(#SVGID_00000137849140337337331350000001666988044450758569_);fill:#EE57E8;" d="
		M519.9,622.7c-4.3,10.2-7.2,20.9-10,31.6c-4.2,16-7.8,32.2-10.6,48.4c-1.7,10.6-3.8,21.6-4.9,32.2c-0.5,4.8-0.9,10.2-0.3,14.7
		c0.7,5-2.9,9.6-7.9,10.3c-5,0.6-9.6-2.9-10.3-7.9c-0.4-7,0.9-13.2,2.2-19.7c3.6-16.6,8.5-32.8,14.5-48.6
		C500.5,663,508.6,642,519.9,622.7"/>
	<path id="パス_15634" style="clip-path:url(#SVGID_00000137849140337337331350000001666988044450758569_);fill:#EE57E8;" d="
		M549.7,502c3.1-22.4,8-44.4,14.6-66c5.1-16.6,11.1-32.9,20.4-47.9c3.7-5.8,7.9-11.2,14.1-15.2c4.2-2.8,9.9-1.6,12.7,2.6
		s1.6,9.9-2.6,12.7c-3.8,1.8-7.2,4.9-10.8,9.4c-6.5,8.1-11.8,18-17,27.2C568.1,449.5,557.5,475.3,549.7,502"/>
	<path id="パス_15635" style="clip-path:url(#SVGID_00000137849140337337331350000001666988044450758569_);fill:#FF652F;" d="
		M545.1,617.7c0,3.8-3.1,7-7,7c-3.8,0-7-3.1-7-7s3.1-7,7-7c0,0,0,0,0,0C542,610.7,545.1,613.8,545.1,617.7
		C545.1,617.7,545.1,617.7,545.1,617.7"/>
	<path id="パス_15636" style="clip-path:url(#SVGID_00000137849140337337331350000001666988044450758569_);fill:#FF902D;" d="
		M143.2,204.3c0,6.3-5.1,11.5-11.5,11.5c-6.3,0-11.5-5.1-11.5-11.5c0-6.3,5.1-11.5,11.5-11.5C138,192.8,143.2,198,143.2,204.3
		L143.2,204.3"/>
	<path id="パス_15637" style="clip-path:url(#SVGID_00000137849140337337331350000001666988044450758569_);fill:#FF902D;" d="
		M849.6,122.9c0,6.3-5.1,11.5-11.5,11.5c-6.3,0-11.5-5.1-11.5-11.5c0-6.3,5.1-11.5,11.5-11.5c0,0,0,0,0,0
		C844.4,111.4,849.6,116.6,849.6,122.9"/>
	<path id="パス_15638" style="clip-path:url(#SVGID_00000137849140337337331350000001666988044450758569_);fill:#FF902D;" d="
		M243.2,938.7c-2.6,6.1-9.6,8.9-15.6,6.3s-8.9-9.6-6.3-15.6s9.6-8.9,15.6-6.3C243,925.6,245.8,932.6,243.2,938.7L243.2,938.7"/>
	<path id="パス_15639" style="clip-path:url(#SVGID_00000137849140337337331350000001666988044450758569_);fill:#FF902D;" d="
		M842.1,677.2c-1.8,4.3-6.8,6.4-11.2,4.5c-4.3-1.8-6.4-6.8-4.5-11.2s6.8-6.4,11.2-4.5c0,0,0,0,0,0
		C841.9,667.8,843.9,672.8,842.1,677.2C842.1,677.2,842.1,677.2,842.1,677.2"/>
	<path id="パス_15640" style="clip-path:url(#SVGID_00000137849140337337331350000001666988044450758569_);fill:#FF652F;" d="
		M110,846.7c-1.3,3-4.8,4.4-7.8,3.2S97.7,845,99,842c1.3-3,4.8-4.4,7.8-3.2c0,0,0,0,0,0C109.8,840.1,111.2,843.6,110,846.7
		C110,846.7,110,846.7,110,846.7"/>
	<path id="パス_15641" style="clip-path:url(#SVGID_00000137849140337337331350000001666988044450758569_);fill:#FF652F;" d="
		M814.9,168.7c-1.3,3-4.8,4.4-7.8,3.2c-3-1.3-4.4-4.8-3.2-7.8c1.3-3,4.8-4.4,7.8-3.2c0,0,0,0,0,0
		C814.8,162.1,816.2,165.6,814.9,168.7"/>
	<path id="パス_15642" style="clip-path:url(#SVGID_00000137849140337337331350000001666988044450758569_);fill:#FF652F;" d="
		M903.3,874c-1.3,3-4.8,4.4-7.8,3.2c-3-1.3-4.4-4.8-3.2-7.8s4.8-4.4,7.8-3.2c0,0,0,0,0,0C903.2,867.4,904.6,870.9,903.3,874
		C903.3,874,903.3,874,903.3,874"/>
	<path id="パス_15643" style="clip-path:url(#SVGID_00000137849140337337331350000001666988044450758569_);fill:#EE57E8;" d="
		M521.4,429.1c0,3.8-3.1,7-7,7c-3.8,0-7-3.1-7-7s3.1-7,7-7c0,0,0,0,0,0C518.3,422.2,521.4,425.3,521.4,429.1
		C521.4,429.1,521.4,429.1,521.4,429.1"/>
	<path id="パス_15644" style="clip-path:url(#SVGID_00000137849140337337331350000001666988044450758569_);fill:#F02F53;" d="
		M532.6,478.3c0,1.9-1.6,3.5-3.5,3.5s-3.5-1.6-3.5-3.5s1.6-3.5,3.5-3.5S532.6,476.3,532.6,478.3
		C532.6,478.3,532.6,478.3,532.6,478.3"/>
	<path id="パス_15645" style="clip-path:url(#SVGID_00000137849140337337331350000001666988044450758569_);fill:#FF652F;" d="
		M617.9,438.5c-1.3,1.8-3.9,2.2-5.7,0.9s-2.2-3.9-0.9-5.7c1.3-1.8,3.9-2.2,5.7-0.9C618.8,434.1,619.2,436.7,617.9,438.5
		C617.9,438.5,617.9,438.5,617.9,438.5"/>
	<path id="パス_15646" style="clip-path:url(#SVGID_00000137849140337337331350000001666988044450758569_);fill:#EE57E8;" d="
		M505.8,544.6c-11.4-10.8-23.9-20.4-37.2-28.6c-6-3.4-12.2-7.8-18.8-9.3c-0.7-0.2-1.5-0.2-2.3-0.1c-5.1,1.3-10.2-1.8-11.5-6.9
		c-1.3-5.1,1.8-10.2,6.9-11.5c1.1-0.3,2.3-0.4,3.5-0.2l2.3,0.3C469.4,491.1,495.2,527.4,505.8,544.6"/>
	<path id="パス_15647" style="clip-path:url(#SVGID_00000137849140337337331350000001666988044450758569_);fill:#EE57E8;" d="
		M509.4,556.7c-15.6-1.6-31.3-1.7-46.9-0.1c-6.9,0.9-14.4,1.2-20.6,4c-0.7,0.3-1.3,0.8-1.9,1.3c-3.3,4.1-9.2,4.8-13.3,1.5
		s-4.8-9.2-1.5-13.3c0.7-0.9,1.6-1.7,2.7-2.3l2-1.2C448,536.3,490.5,549.5,509.4,556.7"/>
	<path id="パス_15648" style="clip-path:url(#SVGID_00000137849140337337331350000001666988044450758569_);fill:#EE57E8;" d="
		M513.3,576.9c-9.6,12.4-17.9,25.8-24.8,39.9c-2.8,6.3-6.5,12.9-7.4,19.7c-0.1,0.8-0.1,1.5,0.1,2.3c1.8,4.9-0.8,10.4-5.7,12.1
		c-4.9,1.8-10.4-0.8-12.1-5.7c-0.4-1.1-0.6-2.3-0.5-3.4l0.1-2.3C463.7,618.5,497.3,589.2,513.3,576.9"/>
</g>
</svg>
