<?xml version="1.0" encoding="utf-8"?>
<!-- Generator: Adobe Illustrator 26.3.1, SVG Export Plug-In . SVG Version: 6.00 Build 0)  -->
<svg version="1.1" id="レイヤー_1" xmlns="http://www.w3.org/2000/svg" xmlns:xlink="http://www.w3.org/1999/xlink" x="0px"
	 y="0px" viewBox="0 0 783.7 754" style="enable-background:new 0 0 783.7 754;" xml:space="preserve">
<style type="text/css">
	.st0{fill:#EE57E8;}
	.st1{fill:#764DE8;}
	.st2{fill:#A04DE8;}
	.st3{fill:#E84DE1;}
	.st4{fill:#C483FF;}
	.st5{fill:#FFB15A;}
	.st6{fill:#E84D69;}
	.st7{fill:#FFEA68;}
</style>
<g id="hanabi01">
	<path id="パス_14997" class="st0" d="M597.1,261.4c13.3-8.6,27.9-14.9,42.4-21.2c7.3-3.2,14.8-5.9,22.4-8.3
		c8.1-2.4,15.9-5.1,24.6-5.6c8.7-0.2,9.3,12.5,0.6,13c-7.4-0.4-15.1,1.3-22.5,2.7c-7.6,1.6-15.2,3.1-22.7,5.1
		C626.7,251,611.4,255,597.1,261.4"/>
	<path id="パス_14998" class="st1" d="M661.1,227.2c14-7.4,29.1-12.5,44-17.6c7.6-2.5,15.2-4.7,23-6.4c8.2-1.7,16.3-3.7,24.9-3.4
		c8.7,0.5,8.2,13.2-0.6,13c-7.3-1.1-15.1,0-22.6,0.8c-7.7,1-15.4,1.8-23.1,3.1C691.4,219.4,675.9,222,661.1,227.2"/>
	<path id="パス_14999" class="st2" d="M659.5,307.8c15.1-4.8,30.9-7,46.5-9.2c7.9-1.1,15.8-1.8,23.8-2.1
		c8.4-0.2,16.7-0.7,25.2,1.2c8.5,2.1,5.6,14.5-2.9,12.7c-7-2.4-14.9-2.8-22.4-3.4c-7.8-0.5-15.4-1-23.3-1.2
		C690.8,305.6,675,305.4,659.5,307.8"/>
	<path id="パス_15000" class="st1" d="M683.8,285.5c14.7-5.9,30.2-9.3,45.7-12.8c7.8-1.7,15.7-3,23.6-3.9c8.4-0.9,16.6-2,25.2-0.8
		c8.6,1.5,6.7,14-1.9,12.9c-7.2-1.8-15-1.6-22.6-1.6c-7.8,0.1-15.5,0.2-23.3,0.6C714.8,280.9,699,281.9,683.8,285.5"/>
	<path id="パス_15001" class="st2" d="M676.6,360c15.3-3.9,31.2-5.2,46.9-6.6c7.9-0.7,15.9-0.9,23.9-0.7c8.4,0.3,16.7,0.3,25,2.6
		c8.3,2.6,4.8,14.8-3.6,12.5c-6.9-2.8-14.7-3.6-22.1-4.6c-7.7-0.9-15.4-1.9-23.2-2.5C707.9,359.6,692.2,358.5,676.6,360"/>
	<path id="パス_15002" class="st1" d="M665.3,405.1c15.8-0.3,31.6,2,47.2,4.3c7.9,1.2,15.7,2.7,23.4,4.7
		c8.1,2.2,16.2,4.1,23.8,8.2c7.5,4.4,1.3,15.5-6.4,11.4c-6.1-4.3-13.5-6.9-20.5-9.5c-7.3-2.6-14.5-5.3-22-7.7
		C696,411.8,680.9,407.2,665.3,405.1"/>
	<path id="パス_15003" class="st2" d="M659.3,458.9c15.5,3.2,30.3,8.9,45.1,14.6c13.1,5.2,25.9,11.2,37.8,18.9
		c2,1.3,3.8,2.7,5.5,4.3c6.1,6-2.4,15.2-8.9,9.5c-5-5.5-11.6-9.7-17.9-13.8c-6.6-4.2-13-8.4-19.8-12.4
		C687.6,472.3,674,464.4,659.3,458.9"/>
	<path id="パス_15004" class="st1" d="M683.4,454.4c15.7,1.6,31.1,5.9,46.3,10c7.7,2.1,15.2,4.6,22.7,7.5
		c7.8,3.1,15.6,6,22.6,11.1c6.9,5.3-0.6,15.5-7.7,10.5c-5.5-5-12.5-8.5-19.2-12c-7-3.5-13.8-7.1-20.9-10.3
		C712.9,464.9,698.6,458.4,683.4,454.4"/>
	<path id="パス_15005" class="st2" d="M580,447.8c15.5,3.2,30.3,8.9,45.1,14.6c13.1,5.2,25.9,11.2,37.8,18.9
		c2,1.3,3.8,2.7,5.5,4.3c6.1,6-2.4,15.2-8.9,9.5c-5-5.5-11.6-9.7-17.9-13.9c-6.6-4.2-13-8.4-19.8-12.4
		C608.4,461.1,594.7,453.3,580,447.8"/>
	<path id="パス_15006" class="st2" d="M635.5,528.5c14.7,5.8,28.4,14,42,22c6.8,4.1,13.5,8.5,19.8,13.3c6.7,5.1,13.4,10,18.8,16.7
		c5.2,7-4.7,14.8-10.3,8c-4-6.3-9.8-11.5-15.3-16.7c-5.8-5.2-11.4-10.5-17.4-15.5C661.2,546.5,649.1,536.4,635.5,528.5"/>
	<path id="パス_15007" class="st1" d="M616.3,573.9c13.3,8.6,25.1,19.3,36.8,29.9c5.9,5.4,11.5,11,16.8,17
		c5.5,6.3,11.2,12.4,15.2,20.1c3.8,7.9-7.6,13.6-11.6,5.8c-2.6-6.9-7.4-13.2-11.7-19.4c-4.6-6.3-9.1-12.5-14-18.7
		C637.9,596.6,628,584.3,616.3,573.9"/>
	<path id="パス_15008" class="st2" d="M583.8,620c11.4,11,20.9,23.8,30.3,36.5c4.7,6.4,9.1,13.1,13.2,19.9
		c4.2,7.3,8.6,14.4,11,22.7c2.2,8.4-10,11.9-12.6,3.5c-1.3-7.3-4.7-14.4-7.7-21.3c-3.3-7-6.5-14.1-10.1-21
		C600.6,646.4,593.3,632.4,583.8,620"/>
	<path id="パス_15009" class="st1" d="M544.5,632.2c9.7,12.5,17.3,26.5,24.9,40.4c3.8,7,7.2,14.2,10.3,21.6
		c3.1,7.8,6.5,15.4,7.7,24c1,8.7-11.6,10.3-12.9,1.7c-0.2-7.4-2.6-14.9-4.6-22.1c-2.3-7.4-4.4-14.8-7-22.2
		C557.4,660.7,552.1,645.9,544.5,632.2"/>
	<path id="パス_15010" class="st2" d="M484.7,608.7c7.9,13.7,13.6,28.6,19.2,43.4c2.8,7.5,5.2,15.1,7.3,22.8
		c2.1,8.2,4.3,16.2,4.4,24.8c-0.2,8.7-12.9,8.7-13-0.1c0.8-7.4-0.5-15.1-1.6-22.6c-1.3-7.7-2.4-15.3-4-23
		C493.6,638.7,490.4,623.3,484.7,608.7"/>
	<path id="パス_15011" class="st2" d="M468.7,642.7c6.5,14.4,10.5,29.8,14.6,45.1c2,7.7,3.6,15.5,4.9,23.4
		c1.2,8.3,2.6,16.5,1.8,25.1c-1.1,8.6-13.7,7.3-13-1.4c1.6-7.3,1-15.1,0.7-22.6c-0.5-7.8-0.8-15.5-1.6-23.2
		C474.5,673.5,472.8,657.8,468.7,642.7"/>
	<path id="パス_15012" class="st1" d="M417.1,653.6c2.5,15.5,4.3,31.1,6.1,46.7c0.8,7.8,1.7,15.6,2,23.6c0.3,8.4,0.8,16.8-1,25.2
		c-2.2,8.3-14.4,5.5-12.7-3c3.9-12.5,3.4-32.4,4.4-45.6C416.6,684.9,417.3,669.2,417.1,653.6"/>
	<path id="パス_15013" class="st0" d="M432.4,597.9c3,15.4,5.2,30.9,7.4,46.5c1,7.8,2.1,15.6,2.7,23.5c0.5,8.4,1.3,16.7-0.3,25.2
		c-2,8.4-14.2,5.9-12.8-2.6c3.5-12.6,2.4-32.5,3.1-45.7C432.8,629.2,432.9,613.5,432.4,597.9"/>
	<path id="パス_15014" class="st0" d="M533.7,552c12.1,10.2,22.4,22.4,32.6,34.4c5.1,6.1,10,12.4,14.5,19
		c4.7,7,9.5,13.8,12.4,21.9c2.7,8.3-9.3,12.5-12.3,4.3c-1.7-7.2-5.6-14.1-9.1-20.7c-3.8-6.8-7.4-13.6-11.4-20.3
		C552.2,577.3,544,563.9,533.7,552"/>
	<path id="パス_15015" class="st3" d="M558,305.3c13.8-7.7,28.8-13,43.7-18.3c7.5-2.7,15.2-4.9,22.9-6.8c8.2-1.9,16.2-4,24.9-3.9
		c8.7,0.4,8.4,13.1-0.3,13c-7.4-0.9-15.1,0.2-22.6,1.2c-7.7,1.1-15.3,2.1-23,3.5C588.2,297,572.7,299.9,558,305.3"/>
	<path id="パス_15016" class="st2" d="M621.5,214.6c12.7-9.4,26.9-16.7,41-23.9c7.1-3.6,14.4-6.9,21.8-9.7
		c7.9-2.9,15.6-6.1,24.2-7.1c8.7-0.7,10,11.9,1.4,13c-7.4,0-15,2.2-22.2,4.1c-7.5,2.1-14.9,4.1-22.4,6.5
		C650.4,202.3,635.4,207.3,621.5,214.6"/>
	<path id="パス_15017" class="st2" d="M601,206.7c11.2-11.1,24.2-20.3,37.1-29.5c6.5-4.6,13.3-8.8,20.2-12.7
		c7.4-4,14.5-8.3,22.9-10.5c8.5-2,11.6,10.3,3.2,12.6c-7.3,1.1-14.5,4.3-21.4,7.2c-7.1,3.2-14.2,6.2-21.2,9.6
		C627.8,190.5,613.7,197.5,601,206.7"/>
	<path id="パス_15018" class="st1" d="M598.3,171.8c10.7-11.7,23.2-21.5,35.6-31.3c6.3-4.9,12.8-9.5,19.6-13.7
		c7.2-4.4,14.1-9,22.4-11.6c8.4-2.4,12.1,9.7,3.8,12.5c-7.3,1.5-14.3,5-21,8.3c-7,3.5-13.9,6.9-20.7,10.7
		C624.3,154.3,610.5,162,598.3,171.8"/>
	<path id="パス_15019" class="st2" d="M547.4,178.8c8.3-13.5,18.8-25.4,29.2-37.4c5.3-6,10.8-11.7,16.7-17.1
		c6.2-5.7,12.2-11.4,19.8-15.6c7.8-3.9,13.7,7.3,6.1,11.5c-6.9,2.8-13.1,7.6-19.1,12.1c-6.2,4.7-12.4,9.3-18.4,14.3
		C569.7,156.7,557.6,166.8,547.4,178.8"/>
	<path id="パス_15020" class="st1" d="M537.1,137.8c6.5-14.4,15.3-27.7,24.1-40.8c4.4-6.6,9.2-13,14.3-19.2
		c5.4-6.4,10.6-12.9,17.6-18c7.2-4.9,14.6,5.4,7.5,10.6c-6.5,3.7-12,9.2-17.4,14.4c-5.5,5.5-11,10.9-16.4,16.6
		C556.3,113,545.7,124.7,537.1,137.8"/>
	<path id="パス_15021" class="st1" d="M504.7,118.3c4.5-15.2,11.5-29.5,18.4-43.7c6.3-12.6,13.3-24.8,22-36
		c1.5-1.8,3.1-3.6,4.8-5.2c6.5-5.6,15,3.7,8.8,9.7c-5.9,4.5-10.6,10.8-15.3,16.6c-4.7,6.2-9.5,12.2-14,18.6
		C520.4,91.2,511.4,104.1,504.7,118.3"/>
	<path id="パス_15022" class="st0" d="M461.2,216.7c4.5-15.2,11.5-29.5,18.4-43.7c6.3-12.6,13.3-24.8,22-36
		c1.5-1.8,3.1-3.6,4.8-5.1c6.5-5.6,15,3.7,8.8,9.7c-5.9,4.5-10.6,10.8-15.3,16.6c-4.7,6.2-9.5,12.2-14,18.6
		C477,189.6,467.9,202.6,461.2,216.7"/>
	<path id="パス_15023" class="st2" d="M471.3,128.8c1.8-15.7,6.2-31,10.5-46.2c2.2-7.7,4.8-15.2,7.8-22.6
		c3.2-7.8,6.2-15.5,11.3-22.5c5.4-6.8,15.5,0.8,10.4,7.9c-5,5.4-8.6,12.4-12.2,19c-3.6,6.9-7.2,13.7-10.5,20.8
		C482.1,99.4,475.5,113.7,471.3,128.8"/>
	<path id="パス_15024" class="st1" d="M450.4,100.5c-0.5-15.8,1.6-31.6,3.6-47.3c1.1-7.9,2.5-15.7,4.4-23.5
		c2.1-8.2,3.8-16.3,7.9-23.9c4.3-7.6,15.5-1.5,11.4,6.2c-4.2,6.1-6.7,13.6-9.3,20.6c-2.5,7.4-5.1,14.6-7.4,22.1
		C456.8,69.8,452.3,84.9,450.4,100.5"/>
	<path id="パス_15025" class="st2" d="M410.1,102.8c-2.9-15.5-3.3-31.5-3.7-47.3c-0.2-8,0.1-15.9,0.7-23.9
		c0.8-8.4,1.3-16.7,4.1-24.8c3.1-8.1,15.1-3.9,12.3,4.4c-3.2,6.7-4.5,14.4-6,21.8c-1.4,7.7-2.8,15.2-3.9,23
		C411.6,71.5,409.5,87.1,410.1,102.8"/>
	<path id="パス_15026" class="st4" d="M409.3,196.6c-0.8-15.8,0.3-31.7,1.4-47.5c0.4-8,1.3-15.9,2.6-23.8c1.5-8.3,2.8-16.3,6-24.3
		c3.5-8,15.2-3.1,12,5c-5,10.1-7.7,21.8-10.2,32.8C416.6,157.8,411.6,177.1,409.3,196.6"/>
	<path id="パス_15027" class="st2" d="M367.5,102.8c0.5-15.7-1.5-31.3-3.6-46.8c-1.7-11.5-3.7-23-6.3-34.2
		c-0.8-3.4-1.9-6.7-3.3-9.9c-1.7-3.2-0.4-7.1,2.8-8.8c3.2-1.7,7.1-0.4,8.8,2.8c1.9,4.5,2.5,9,3.2,13.7c1.6,11.9,2.2,23.9,2,35.9
		C370.8,71.3,370.4,87.2,367.5,102.8"/>
	<path id="パス_15028" class="st1" d="M332.4,96.7c-2.8-15.4-8.1-30.3-13.4-45c-4.1-10.8-8.4-21.7-13.4-32.1
		c-1.5-3.2-3.2-6.2-5.3-9c-2.3-2.7-2-6.8,0.7-9.2s6.8-2,9.2,0.7c0.1,0.1,0.1,0.1,0.2,0.2c2.8,4,4.4,8.3,6.1,12.7
		c4,11.3,7.2,22.9,9.5,34.7C328.9,65.3,331.9,80.9,332.4,96.7"/>
	<path id="パス_15029" class="st4" d="M345.7,159.5c-2.8-15.4-8.1-30.3-13.4-45c-4.1-10.8-8.4-21.7-13.4-32.1
		c-1.5-3.2-3.2-6.2-5.3-9c-2.3-2.7-2-6.8,0.7-9.2c2.7-2.3,6.8-2,9.2,0.7c0.1,0.1,0.1,0.1,0.2,0.2c2.8,4,4.4,8.3,6.1,12.7
		c4,11.3,7.2,22.9,9.5,34.7C342.3,128.1,345.3,143.7,345.7,159.5"/>
	<path id="パス_15030" class="st1" d="M281.5,107.4c-5.4-14.7-13.1-28.5-20.8-42.1c-5.9-10-12-19.9-18.6-29.4
		c-2-2.9-4.2-5.5-6.7-7.9c-2.8-2.3-3.1-6.4-0.8-9.2c2.3-2.8,6.4-3.1,9.2-0.8c0,0,0.1,0.1,0.1,0.1c3.5,3.5,5.7,7.4,8.1,11.5
		c5.9,10.5,11,21.4,15.2,32.6C272.8,76.9,278.4,91.8,281.5,107.4"/>
	<path id="パス_15031" class="st2" d="M266.8,151.2c-8.4-13.2-18.9-25-29.4-36.6c-7.9-8.5-16-16.9-24.5-24.7
		c-2.5-2.4-5.3-4.5-8.3-6.3c-3.2-1.7-4.4-5.6-2.7-8.8c1.7-3.2,5.6-4.4,8.8-2.7c0,0,0,0,0.1,0c4.2,2.7,7.2,6,10.4,9.5
		c8,9,15.3,18.5,21.9,28.5C251.7,123.3,260.4,136.7,266.8,151.2"/>
	<path id="パス_15032" class="st2" d="M199.7,179.5c-12.2-9.8-26-17.5-39.7-25.1c-10.2-5.4-20.6-10.8-31.2-15.4
		c-3.2-1.4-6.5-2.5-9.9-3.3c-3.6-0.6-6-3.9-5.4-7.4c0.6-3.6,3.9-6,7.4-5.4c0,0,0.1,0,0.1,0c4.8,1.2,8.8,3.4,12.9,5.6
		c10.5,5.9,20.5,12.5,30,19.9C176.4,158.1,189,167.9,199.7,179.5"/>
	<path id="パス_15033" class="st1" d="M222.7,142.9c-11.4-10.8-24.5-19.6-37.4-28.3c-9.7-6.3-19.6-12.5-29.8-17.9
		c-3-1.7-6.3-3-9.6-4.1c-3.5-0.9-5.6-4.4-4.7-7.9c0.9-3.5,4.4-5.6,7.9-4.7l0,0c4.7,1.6,8.4,4.1,12.4,6.6c10,6.7,19.4,14.2,28.2,22.3
		C201.3,119.6,213,130.4,222.7,142.9"/>
	<path id="パス_15034" class="st4" d="M274.8,271.8c-11.5-10.6-24.7-19.2-37.8-27.8c-9.8-6.1-19.8-12.2-30-17.5
		c-3.1-1.6-6.3-3-9.6-4c-3.5-0.9-5.6-4.4-4.7-7.9c0.9-3.4,4.3-5.6,7.7-4.8c4.7,1.5,8.5,4,12.5,6.5c10,6.6,19.6,13.9,28.5,21.9
		C253.1,248.8,265,259.4,274.8,271.8"/>
	<path id="パス_15035" class="st2" d="M149.6,243.9c-13.6-7.8-28.4-13.3-43-18.8c-10.9-3.8-22-7.5-33.1-10.5
		c-3.4-0.9-6.8-1.5-10.3-1.7c-3.6-0.1-6.4-3.1-6.4-6.7c0.1-3.5,3-6.3,6.5-6.4c4.9,0.4,9.2,2,13.6,3.5c11.3,4.2,22.2,9.2,32.7,15.1
		C123.3,226.2,137.2,234,149.6,243.9"/>
	<path id="パス_15036" class="st1" d="M112.4,271c-15.2-3.7-31-4.8-46.6-5.9c-11.6-0.6-23.2-1-34.8-0.7c-3.5,0.1-6.9,0.5-10.3,1.2
		c-3.5,1-7.1-1.1-8-4.5c-1-3.4,1-7,4.5-8c4.8-1,9.4-0.7,14-0.4c12,0.9,23.9,2.6,35.6,5.3C82.3,261.4,97.8,265,112.4,271"/>
	<path id="パス_15037" class="st0" d="M215.7,306.5c-15.2-3.7-31-4.8-46.6-5.9c-11.6-0.6-23.2-1-34.8-0.7
		c-3.5,0.1-6.9,0.5-10.3,1.2c-3.5,1-7.1-1.1-8-4.5c-1-3.4,1-7,4.5-8c4.8-1,9.4-0.7,14-0.4c12,0.9,23.9,2.6,35.6,5.3
		C185.5,297,201,300.5,215.7,306.5"/>
	<path id="パス_15038" class="st2" d="M133.7,321.5c-15.6-1.8-31.3-1-46.9-0.3c-11.6,0.8-23.2,1.7-34.6,3.4
		c-3.4,0.5-6.8,1.3-10.1,2.5c-3.3,1.4-7.1-0.2-8.5-3.5s0.2-7.1,3.5-8.5c4.7-1.5,9.2-1.8,13.9-2.1c12-0.6,24-0.2,36,1
		C102.6,315.7,118.5,317.3,133.7,321.5"/>
	<path id="パス_15039" class="st3" d="M157.4,344.4c-15.6-1.8-31.3-1-46.9-0.3c-11.6,0.8-23.2,1.7-34.6,3.4
		c-3.4,0.5-6.8,1.3-10.1,2.5c-3.3,1.4-7.1-0.2-8.5-3.5c-1.4-3.3,0.2-7.1,3.5-8.5l0,0c4.7-1.5,9.2-1.8,13.9-2.1c12-0.6,24-0.2,36,1
		C126.3,338.6,142.1,340.2,157.4,344.4"/>
	<path id="パス_15040" class="st1" d="M100.2,395.7c-15.7-0.1-31.3,2.4-46.7,4.8c-11.4,2-22.9,4.2-34,7.2c-3.4,0.8-6.7,2-9.8,3.5
		c-3.2,1.7-7.1,0.6-8.8-2.6s-0.6-7.1,2.6-8.8c0,0,0,0,0,0c4.5-2,9-2.8,13.6-3.6c11.9-1.9,23.9-2.8,35.9-2.9
		C68.6,393.3,84.5,393.2,100.2,395.7"/>
	<path id="パス_15041" class="st2" d="M114.4,459.5c-15,4.4-29.2,11.3-43.3,18.1c-10.3,5.3-20.6,10.7-30.5,16.7
		c-3,1.8-5.8,3.9-8.3,6.2c-2.5,2.6-6.6,2.6-9.2,0.1s-2.6-6.6-0.1-9.2c3.7-3.3,7.8-5.3,12-7.4c10.8-5.2,22-9.6,33.5-13.2
		C83.5,466.3,98.8,461.6,114.4,459.5"/>
	<path id="パス_15042" class="st1" d="M129.8,513.1c-14.1,6.9-26.9,16.1-39.6,25.1c-9.3,6.9-18.6,14-27.2,21.6
		c-2.6,2.3-5,4.8-7.2,7.5c-2.1,2.9-6.1,3.7-9.1,1.6c-2.9-2-3.7-6.1-1.6-9c3.1-3.8,6.8-6.5,10.5-9.3c9.8-7,20.1-13.2,30.8-18.6
		C100.4,525,114.7,517.8,129.8,513.1"/>
	<path id="パス_15043" class="st1" d="M154.7,571.7c-12.7,9.3-23.7,20.5-34.6,31.7c-7.9,8.4-15.8,17-23,26
		c-2.2,2.7-4.1,5.6-5.8,8.7c-1.5,3.3-5.3,4.8-8.6,3.3c-3.3-1.5-4.8-5.3-3.3-8.6c0,0,0-0.1,0-0.1c2.4-4.3,5.5-7.6,8.8-11
		c8.4-8.6,17.5-16.5,27-23.7C127.9,588.6,140.6,579,154.7,571.7"/>
	<path id="パス_15044" class="st0" d="M214.6,546c-12.1,9.9-22.5,21.8-32.8,33.5c-7.5,8.9-14.8,17.9-21.6,27.3
		c-2.1,2.8-3.8,5.8-5.3,9c-1.3,3.4-5.1,5-8.4,3.7c-3.4-1.3-5-5.1-3.7-8.4c2.2-4.4,5.1-7.9,8.1-11.5c7.9-9,16.5-17.4,25.7-25.2
		C188.8,564.3,201,554,214.6,546"/>
	<path id="パス_15045" class="st2" d="M225.4,612.2c-10.7,11.4-19.5,24.6-28.1,37.6c-6.2,9.8-12.4,19.7-17.8,29.9
		c-1.7,3.1-3,6.3-4,9.6c-0.9,3.5-4.4,5.6-7.9,4.8s-5.6-4.4-4.8-7.9c1.5-4.7,4-8.5,6.6-12.4c6.7-10,14.1-19.5,22.2-28.3
		C202.2,633.7,213,621.9,225.4,612.2"/>
	<path id="パス_15046" class="st1" d="M235.2,631.2c-8.4,13.2-14.5,27.8-20.6,42.2c-4.3,10.8-8.5,21.7-11.9,32.7
		c-1.1,3.3-1.8,6.7-2.2,10.2c-0.2,3.6-3.3,6.4-6.8,6.2c-3.6-0.2-6.4-3.3-6.2-6.8c0.6-4.9,2.4-9.1,4.1-13.4
		c4.7-11.1,10.2-21.8,16.5-32C216.4,656.7,224.8,643.2,235.2,631.2"/>
	<path id="パス_15047" class="st1" d="M308.1,649.7c-5.2,14.8-8,30.3-10.8,45.7c-1.8,11.4-3.5,23-4.4,34.5
		c-0.3,3.5-0.3,7,0.1,10.4c0.6,3.5-1.8,6.9-5.3,7.5c-3.5,0.6-6.9-1.8-7.5-5.3l0,0c-0.5-4.9,0.3-9.4,1-14c2.1-11.8,5.1-23.5,9-34.8
		C295.5,678.7,300.6,663.6,308.1,649.7"/>
	<path id="パス_15048" class="st2" d="M372.1,648.5c-2.7,15.4-2.8,31.2-2.9,46.8c0.1,11.6,0.5,23.2,1.5,34.7
		c0.3,3.5,0.9,6.9,1.9,10.2c1.2,3.4-0.7,7.1-4.1,8.3c-3.4,1.1-7-0.6-8.2-3.9c-1.3-4.8-1.3-9.3-1.3-14c0.1-12,1.1-24,3-35.9
		C364.5,679.3,367.1,663.5,372.1,648.5"/>
	<path id="パス_15049" class="st4" d="M344.2,570.6c-4.5,15-6.5,30.7-8.6,46.2c-1.3,11.5-2.4,23.1-2.7,34.7
		c-0.1,3.5,0.1,7,0.6,10.4c0.8,3.5-1.4,7-4.9,7.8s-7-1.4-7.8-4.9c-0.7-4.9-0.1-9.4,0.4-14c1.6-11.9,4-23.7,7.3-35.2
		C333,600.2,337.4,584.9,344.2,570.6"/>
	<path id="パス_15050" class="st0" d="M308.6,509.6c-10,12.1-18,25.7-25.8,39.2c-5.6,10.1-11.2,20.4-16,30.9
		c-1.5,3.1-2.6,6.4-3.5,9.8c-0.6,3.5-4,5.9-7.5,5.3s-5.9-4-5.3-7.5c0,0,0-0.1,0-0.1c1.3-4.8,3.5-8.7,5.8-12.8
		c6.1-10.4,12.9-20.3,20.4-29.6C286.7,532.5,296.7,520.1,308.6,509.6"/>
	<path id="パス_15051" class="st2" d="M214.2,423.8c-15.3,3.4-29.9,9.3-44.4,15.1c-10.7,4.5-21.3,9.3-31.5,14.6
		c-3.1,1.6-6,3.5-8.8,5.6c-2.7,2.4-6.8,2.2-9.2-0.5c-2.4-2.7-2.2-6.8,0.5-9.2c3.9-3,8.1-4.7,12.4-6.6c11.1-4.5,22.6-8.1,34.3-10.9
		C182.9,428.5,198.4,424.8,214.2,423.8"/>
	<path id="パス_15052" class="st0" d="M255.7,197.6c-10.6-11.6-23-21.3-35.3-31c-9.2-7-18.7-13.9-28.4-20.1
		c-2.9-1.9-6-3.5-9.3-4.8c-3.4-1.1-5.3-4.8-4.1-8.2s4.8-5.3,8.2-4.1l0,0c4.6,1.9,8.1,4.7,11.9,7.5c9.4,7.4,18.3,15.6,26.5,24.3
		C236.1,172.8,246.9,184.4,255.7,197.6"/>
	<path id="パス_15053" class="st0" d="M380.3,197.9c-1.1-15.7-3.7-31.2-6.3-46.7c-2.7-12.7-4.7-32.4-9.9-44.2
		c-3.9-8.4,8.6-13.7,11.9-5.1c4.8,15.7,4.5,32.4,5.1,48.6C381.4,166.3,381.5,182.2,380.3,197.9"/>
	<path id="パス_15054" class="st4" d="M490.7,215c6.5-14.4,15.3-27.7,24.1-40.8c4.4-6.6,9.2-13,14.3-19.2
		c5.4-6.4,10.6-12.9,17.6-18c7.2-4.9,14.6,5.4,7.5,10.6c-6.5,3.7-12,9.2-17.4,14.4c-5.5,5.5-11,10.9-16.4,16.6
		C509.9,190.2,499.2,201.8,490.7,215"/>
	<path id="パス_15055" class="st5" d="M419.9,309.6c0.9-15.8,4.4-31.3,7.8-46.8c1.8-7.8,3.9-15.5,6.5-23c2.8-7.9,5.3-15.9,10-23.1
		c5-7.2,15.5-0.1,10.8,7.2c-4.7,5.7-7.9,12.9-11.1,19.7c-3.2,7.1-6.4,14.1-9.3,21.4C428.9,279.5,423.2,294.2,419.9,309.6"/>
	<path id="パス_15056" class="st0" d="M428,249.3c0.5-15.8,3.6-31.4,6.6-46.9c1.6-7.8,3.5-15.5,5.9-23.2c2.6-8,4.9-16,9.4-23.4
		c4.8-7.3,15.5-0.5,11,7c-4.6,5.8-7.5,13.1-10.6,20c-3,7.2-6,14.3-8.8,21.6C436.3,219.1,430.9,233.9,428,249.3"/>
	<path id="パス_15057" class="st0" d="M328.6,347.9c-14.3-6.4-29.6-10.3-44.7-14.3c-11.3-2.7-22.7-5.2-34-7
		c-3.4-0.6-6.9-0.8-10.4-0.7c-3.6,0.4-6.8-2.2-7.1-5.8c-0.4-3.6,2.2-6.8,5.8-7.1c0,0,0.1,0,0.1,0c4.9-0.1,9.3,1,13.9,2.1
		c11.6,3,23,6.9,34,11.7C300.7,333,315.3,339.3,328.6,347.9"/>
	<path id="パス_15058" class="st0" d="M281.4,378.1c-15.7-0.2-31.3,2.2-46.7,4.6c-11.4,2-22.9,4.2-34,7c-3.4,0.8-6.7,2-9.8,3.5
		c-3.2,1.7-7.1,0.6-8.8-2.6s-0.6-7.1,2.6-8.8l0,0c4.5-2,9-2.7,13.6-3.6c11.9-1.8,23.9-2.7,35.9-2.8
		C249.8,375.5,265.8,375.5,281.4,378.1"/>
	<path id="パス_15059" class="st5" d="M406.8,396.1c15,1.3,29.8,4.6,44.5,7.8c29.4,6.9,58.8,14.8,87.1,25.5
		c10.8,3.9,21.5,8.4,31.8,13.6c3.7,1.8,7.2,4,10.5,6.3c2.9,2.1,3.5,6.2,1.4,9.1c-2.1,2.9-6.2,3.5-9.1,1.4c-0.1-0.1-0.2-0.1-0.3-0.2
		c-5.3-4.3-11.9-7.8-18.1-11c-13.2-6.7-27.2-12.4-40.8-18.2c-20.8-8.5-42-16.1-63.5-22.9C436.1,403,421.6,398.6,406.8,396.1"/>
	<path id="パス_15060" class="st5" d="M412.3,408c12.5,8.5,23.8,18.6,35,28.6c22.3,20.4,44.1,41.6,63.5,64.8
		c7.6,8.7,14.6,17.8,21.1,27.4c2.3,3.4,4.3,7,6,10.7c1.5,3.3,0,7.1-3.2,8.6c-3.3,1.5-7.1,0-8.6-3.2c0-0.1-0.1-0.2-0.1-0.3
		c-2.5-6.3-6.5-12.6-10.4-18.5c-8.2-12.3-17.6-24.1-26.7-35.8c-14-17.6-28.8-34.6-44.1-51C434.4,428.3,424,417.4,412.3,408"/>
	<path id="パス_15061" class="st0" d="M411.6,421.4c8.4,12.5,15.1,26.2,21.7,39.7c13,27.3,25.2,55.1,34.4,83.9
		c3.7,10.9,6.8,22,9.2,33.3c0.8,4,1.4,8.1,1.6,12.2c0.1,3.6-2.6,6.6-6.2,6.8c-3.6,0.1-6.6-2.6-6.8-6.2c0-0.1,0-0.2,0-0.3
		c0-6.8-1.3-14.2-2.7-21c-3-14.5-7.2-29-11.2-43.2c-6.3-21.6-13.6-42.9-21.7-63.9C424.5,448.6,419,434.6,411.6,421.4"/>
	<path id="パス_15062" class="st5" d="M399.6,420.1c11.3,43.5,18.4,88,24.2,132.6c1.3,11.3,2.4,22.7,2.4,34.3
		c0,4.1-0.3,8.1-0.9,12.2c-0.6,3.5-3.9,6-7.4,5.4c-3.5-0.6-6-3.9-5.4-7.4l0,0c0.7-3.5,1.2-7,1.3-10.5c0.5-11,0.3-22-0.5-32.9
		C410.3,509,407.6,464.1,399.6,420.1"/>
	<path id="パス_15063" class="st0" d="M452.4,377.2c14.4-4.6,29.3-7.2,44.2-9.8c29.8-4.9,60-8.8,90.2-9.8
		c11.5-0.5,23.1-0.4,34.6,0.4c4.1,0.3,8.1,0.9,12.1,1.8c3.5,0.9,5.6,4.4,4.8,7.9c-0.9,3.5-4.4,5.6-7.9,4.8c-0.1,0-0.2-0.1-0.3-0.1
		c-6.5-1.9-14-2.7-20.9-3.3c-14.7-1.1-29.8-1.1-44.7-1.2c-22.5,0.1-45,1.2-67.4,3.1C482.1,372.4,467.1,373.8,452.4,377.2"/>
	<path id="パス_15064" class="st5" d="M412.8,376.2c9.8-11.5,21.1-21.6,32.3-31.6c22.7-19.9,46.3-39.2,71.5-55.9
		c9.5-6.5,19.4-12.5,29.5-17.9c3.6-1.9,7.4-3.5,11.3-4.8c3.4-1.1,7.1,0.7,8.2,4.2c1.1,3.4-0.7,7.1-4.2,8.2c-0.1,0-0.2,0.1-0.3,0.1
		c-6.6,1.8-13.3,5.1-19.5,8.3c-13.1,6.8-25.9,14.8-38.6,22.5c-19,11.9-37.6,24.7-55.6,38.2C435.5,356.4,423.5,365.5,412.8,376.2"/>
	<path id="パス_15065" class="st0" d="M408,371c3.1-14.8,8.1-29.1,13.2-43.3c10.4-28.4,21.8-56.6,35.8-83.3
		c5.2-10.3,11-20.3,17.3-29.9c2.3-3.4,4.8-6.6,7.6-9.6c2.5-2.6,6.6-2.7,9.2-0.3s2.7,6.6,0.3,9.2c-0.1,0.1-0.1,0.2-0.2,0.2
		c-4.9,4.7-9.2,10.8-13.1,16.6c-8.2,12.3-15.6,25.4-23,38.3c-11,19.6-21.1,39.7-30.4,60.2C418.4,342.8,412.2,356.5,408,371"/>
	<path id="パス_15066" class="st5" d="M397.3,375.4c-2.9-14.8-3.8-29.9-4.7-45c-1.5-30.2-2-60.6,0.6-90.7
		c0.8-11.5,2.2-23,4.3-34.3c0.8-4,1.8-8,3.2-11.8c1.3-3.4,5-5.1,8.4-3.8c3.4,1.3,5.1,5,3.8,8.4c0,0.1-0.1,0.2-0.1,0.3
		c-2.7,6.3-4.2,13.6-5.6,20.4c-2.8,14.5-4.5,29.5-6.3,44.2c-2.5,22.3-4,44.8-4.6,67.3C395.9,345.4,395.6,360.5,397.3,375.4"/>
	<path id="パス_15067" class="st0" d="M387.4,338.1c-5.4-29.8-11.5-59.4-17.9-89c-3.2-14.8-6.5-29.5-10-44.1
		c-3.7-14-7.3-28.6-13.9-41.4c-3.9-7.6,6.9-13.7,11.4-6.3c1.8,3.8,3.4,7.7,4.6,11.7c8,25.6,11.5,52.4,15.1,78.8
		C380.6,277.9,384.4,308,387.4,338.1"/>
	<path id="パス_15068" class="st5" d="M380.5,354.3c-27.2-36-55.7-71.2-85.9-104.7c-7.3-8.3-15.1-16.2-23.4-23.6
		c-2.6-2.3-5.3-4.4-8.2-6.3c-3-1.9-3.9-5.9-2-9c1.9-3,5.9-3.9,9-2c0.1,0.1,0.2,0.1,0.3,0.2c6.7,4.9,12,10.5,17.5,16.4
		c15.3,17,29,35.2,42.2,53.8C347.3,303.8,364.3,328.8,380.5,354.3"/>
	<path id="パス_15069" class="st5" d="M365.2,417.1c-32.8,31.1-64.5,63.3-94.4,97c-7.4,8.2-14.4,16.8-20.8,25.9
		c-2,2.8-3.8,5.8-5.3,8.9c-1.6,3.2-5.5,4.6-8.7,3c-3.2-1.6-4.6-5.5-3-8.7c0.1-0.1,0.1-0.2,0.2-0.3c4.1-7.2,9.1-13.1,14.3-19.2
		c15.2-17.1,31.7-32.8,48.7-48C318.7,455.7,341.7,436,365.2,417.1"/>
	<path id="パス_15070" class="st6" d="M393.2,401c-10.7,43.8-20,88.1-26.8,132.7c-1.8,10.9-3,22-3.5,33c-0.1,3.4,0,6.9,0.3,10.3
		c0.4,3.6-2.1,6.8-5.7,7.2c-3.6,0.4-6.8-2.1-7.2-5.7c0-0.1,0-0.2,0-0.3c-0.5-8.3,0.5-15.9,1.6-23.9c3.5-22.6,8.9-44.7,15-66.7
		C375,458.5,383.6,429.6,393.2,401"/>
	<path id="パス_15071" class="st0" d="M411.6,398c20.4,6.7,39.7,16.1,59,25.4c28.8,14.3,57.1,29.7,84.8,46.2
		c18.4,11.4,36.3,23.1,53.7,36c8.9,6.8,17.5,13.5,25,22.1c2.4,2.7,2.1,6.8-0.6,9.2c-2.7,2.4-6.8,2.1-9.2-0.6
		c-0.1-0.1-0.1-0.2-0.2-0.2c-3.2-3.9-6.7-7.5-10.4-10.9c-11.6-10.7-24.3-20.1-37.1-29.5c-17.3-12.5-34.8-24.6-52.8-36
		C487.6,437.2,451.1,414.3,411.6,398"/>
	<path id="パス_15072" class="st6" d="M437.3,417.4c18.8,10.2,36.2,22.9,53.5,35.5c25.8,19.2,51,39.3,75.2,60.6
		c16.1,14.5,31.6,29.2,46.4,45c7.5,8.3,14.8,16.4,20.7,26.2c1.8,3.1,0.8,7.1-2.3,8.9c-3.1,1.8-7.1,0.8-8.9-2.3
		c-0.1-0.1-0.1-0.2-0.2-0.3c-2.4-4.4-5.2-8.6-8.3-12.6c-9.5-12.6-20.3-24.1-31.3-35.6c-14.8-15.4-29.8-30.4-45.5-44.8
		C505.1,469.5,473.2,440.5,437.3,417.4"/>
	<path id="パス_15073" class="st0" d="M419.7,397.3c42.9-0.7,85.6,5.8,127.9,12c21.2,3.4,42.4,7.5,63.2,12.6
		c21.2,5.4,42.8,10.1,62.4,20.4c3.1,1.7,4.3,5.7,2.6,8.8s-5.7,4.3-8.8,2.6c-0.1-0.1-0.2-0.1-0.3-0.2c-4.3-2.5-8.9-4.8-13.5-6.6
		c-14.6-6-29.8-10.5-45-14.8c-20.5-5.7-41.1-11.1-61.9-15.6C504.5,407.9,462.3,399,419.7,397.3"/>
	<path id="パス_15074" class="st0" d="M405,399.1c14.9,15.4,27.7,32.8,40.3,50c18.9,26.1,36.8,52.8,53.4,80.4
		c11,18.6,21.3,37.3,30.7,56.9c4.7,10.2,9.2,20.1,11.8,31.2c0.8,3.5-1.3,7-4.8,7.8c-3.5,0.8-7-1.3-7.8-4.8c0-0.1-0.1-0.2-0.1-0.4
		c-1-4.9-2.4-9.8-4.1-14.5c-5.3-14.9-12.1-29.1-19.1-43.4c-9.5-19.1-19.3-38-29.9-56.5C454,469.1,432.4,431.9,405,399.1"/>
	<path id="パス_15075" class="st0" d="M412.1,373.6c12.5-17.4,27.3-33,42-48.6c22.3-23.2,45.5-45.6,69.6-66.9
		c16.4-14.1,33-27.6,50.5-40.3c9.2-6.4,18.1-12.6,28.6-17.2c3.3-1.4,7.1,0.1,8.5,3.4s-0.1,7.1-3.4,8.5c-0.1,0-0.2,0.1-0.3,0.1
		c-4.7,1.9-9.2,4.1-13.5,6.6c-13.7,7.9-26.5,17.1-39.3,26.5c-17.1,12.7-33.9,25.7-50.2,39.4C472.4,313,439.6,340.9,412.1,373.6"/>
	<path id="パス_15076" class="st6" d="M409.3,374.8c10.1-18.9,22.7-36.4,35.2-53.7c19-26,39-51.2,60.1-75.6
		c14.4-16.2,29-31.8,44.7-46.7c8.2-7.6,16.3-14.9,26.1-20.9c3.1-1.8,7.1-0.8,8.9,2.2c1.8,3.1,0.8,7.1-2.2,8.9
		c-0.1,0-0.2,0.1-0.2,0.1c-4.4,2.5-8.6,5.3-12.5,8.4c-12.5,9.6-24,20.5-35.4,31.5c-15.3,14.9-30.2,30-44.6,45.8
		C461,306.6,432.2,338.7,409.3,374.8"/>
	<path id="パス_15077" class="st6" d="M391.6,373c-10.5-41.4-27.8-80.8-44.9-119.9c-8.7-19.5-18.2-38.5-28.1-57.4
		c-7.4-14-14.9-28-23.8-41c-2.8-4.2-5.9-8.1-9.3-11.9c-2.5-2.6-2.4-6.7,0.2-9.2c2.6-2.5,6.7-2.4,9.2,0.2c0.1,0.1,0.2,0.2,0.2,0.2
		c7.4,8.7,12.8,18.2,18.3,27.9c10.3,19.1,19.3,38.5,27.9,58.3c12.5,29.7,23.6,59.9,33.5,90.5C381.4,331.4,387.9,351.9,391.6,373"/>
	<path id="パス_15078" class="st0" d="M389.8,382.2c-32.2-28.1-68.9-50.6-105.1-73c-18.3-11-36.9-21.3-55.7-31.2
		c-14.1-7.3-28.2-14.5-42.9-20.1c-4.7-1.8-9.5-3.3-14.4-4.5c-3.5-0.7-5.8-4.1-5.1-7.7c0.7-3.5,4.1-5.8,7.7-5.1
		c0.1,0,0.2,0.1,0.4,0.1c11.1,2.9,20.9,7.6,30.9,12.6c19.3,9.8,37.8,20.6,56.1,32.1c27.2,17.3,53.5,35.9,79.1,55.4
		C357.7,353.8,374.8,367,389.8,382.2"/>
	<path id="パス_15079" class="st6" d="M379.3,381.3c-41.5-10.2-84.4-13.4-126.9-16.7c-21.3-1.4-42.5-2-63.8-2.2
		c-15.9-0.1-31.7,0-47.4,1.8c-5,0.5-10,1.4-14.8,2.6c-3.5,1-7-1-8-4.5s1-7,4.5-8c0.1,0,0.2-0.1,0.4-0.1c21.8-4.4,43.8-3,65.7-2.3
		c21.4,0.9,42.9,2.8,64.2,5.4C295.5,363.2,338.3,368.8,379.3,381.3"/>
	<path id="パス_15080" class="st4" d="M372.1,402.7c-39.5,16.4-75.9,39.3-112.1,61.8c-18,11.5-35.4,23.6-52.7,36.1
		c-12.8,9.3-25.5,18.8-37.1,29.5c-3.7,3.4-7.2,7-10.4,10.9c-2.2,2.8-6.3,3.3-9.1,1.1c-2.8-2.2-3.3-6.3-1.1-9.1
		c0.1-0.1,0.2-0.2,0.2-0.3c7.5-8.6,16.1-15.3,25-22.1c17.4-12.9,35.3-24.7,53.6-36.1c27.6-16.6,55.8-32.1,84.7-46.3
		C332.4,418.8,351.8,409.4,372.1,402.7"/>
	<path id="パス_15081" class="st0" d="M374.3,399.5c-41.4,10.4-80.8,27.7-119.9,44.7c-19.5,8.7-38.5,18.2-57.4,28
		c-14,7.4-28,14.9-41,23.8c-4.2,2.8-8.2,5.9-11.9,9.3c-2.6,2.5-6.7,2.4-9.2-0.2c-2.5-2.6-2.4-6.7,0.2-9.2c0.1-0.1,0.2-0.2,0.3-0.3
		c8.7-7.4,18.2-12.8,28-18.2c19.1-10.3,38.5-19.3,58.3-27.8c29.7-12.4,60-23.5,90.6-33.4C332.7,409.7,353.2,403.2,374.3,399.5"/>
	<path id="パス_15082" class="st0" d="M365,390.9c-42.7-0.1-85.2,6.9-127.3,13.7c-21,3.6-41.8,8.1-62.6,12.9
		c-15.4,3.7-30.8,7.5-45.6,12.9c-4.7,1.7-9.4,3.7-13.8,6.1c-3.1,1.7-7.1,0.6-8.8-2.5c-1.7-3.1-0.6-7.1,2.5-8.8
		c0.1,0,0.2-0.1,0.3-0.1c20.1-9.4,41.8-13.2,63.3-17.7c21.1-4.2,42.4-7.4,63.7-9.8C279.3,393,322.2,388.3,365,390.9"/>
	<path id="パス_15083" class="st0" d="M385,405.9c-23.3,35.8-40.4,75.3-57.5,114.4c-8.4,19.6-15.9,39.5-23.1,59.6
		c-5.3,15-10.4,29.9-13.9,45.3c-1.2,4.9-2,9.9-2.4,14.9c-0.2,3.6-3.3,6.3-6.9,6.1c-3.6-0.2-6.3-3.3-6.1-6.9c0-0.1,0-0.2,0-0.4
		c1.3-11.4,4.6-21.8,8.1-32.4c7-20.5,15.1-40.3,23.8-60.1c13.3-29.3,28-58,43.7-86.1C361.3,441.6,372,422.9,385,405.9"/>
	<path id="パス_15084" class="st0" d="M395.5,402.2c-8.5,41.9-10,84.9-11.6,127.5c-0.6,21.3-0.3,42.6,0.4,63.9
		c0.6,15.9,1.3,31.7,3.7,47.3c0.7,5,1.8,9.9,3.2,14.7c1.1,3.4-0.8,7.1-4.2,8.2c-3.4,1.1-7.1-0.8-8.2-4.2c0-0.1,0-0.2-0.1-0.2
		c-5.3-21.6-4.8-43.6-4.9-65.5c0-21.5,1.1-43,2.9-64.4C380.7,486.7,384.6,443.7,395.5,402.2"/>
	<path id="パス_15085" class="st4" d="M410.4,385.8c38.8-18.2,80.4-29.8,121.6-41.4c20.7-5.6,41.7-10.5,62.8-14.4
		c21.6-3.8,43.2-8.2,65.3-6.9c3.6,0.3,6.2,3.4,6,7c-0.3,3.6-3.4,6.2-7,6c-0.1,0-0.2,0-0.3,0c-5-0.6-10-0.7-15.1-0.5
		c-15.8,0.5-31.5,2.6-47.1,4.9c-21.1,3.2-42,6.7-62.9,11.1C492.1,360.7,450.1,369.8,410.4,385.8"/>
	<path id="パス_15086" class="st7" d="M408.5,381.8c11.1-11.3,23.9-20.7,36.7-30c6.4-4.7,13.1-9,20-13c7.3-4.1,14.4-8.5,22.7-10.8
		c8.5-2.1,11.8,10.1,3.4,12.6c-7.3,1.2-14.4,4.5-21.3,7.5c-7.1,3.3-14.1,6.4-21.1,9.9C435.1,365.2,421.1,372.5,408.5,381.8"/>
	<path id="パス_15087" class="st7" d="M401.6,377.4c-0.3-15.8,2.1-31.6,4.3-47.2c1.2-7.9,2.8-15.7,4.7-23.4
		c2.2-8.1,4.1-16.2,8.2-23.8c4.4-7.5,15.5-1.3,11.3,6.4c-4.3,6.1-6.9,13.5-9.6,20.5c-2.6,7.3-5.3,14.5-7.7,22
		C408.3,346.8,403.7,361.8,401.6,377.4"/>
	<path id="パス_15088" class="st6" d="M383.1,379.4c-13.4-8.1-28.1-13.9-42.6-19.7c-10.8-4.1-21.8-8-32.9-11.2
		c-3.3-1-6.8-1.6-10.2-2c-3.6-0.1-6.4-3.1-6.3-6.7c0.1-3.6,3.1-6.4,6.7-6.3l0,0c4.9,0.5,9.1,2.2,13.5,3.8c11.2,4.5,22,9.7,32.3,15.8
		C357.2,361.2,371,369.3,383.1,379.4"/>
	<path id="パス_15089" class="st7" d="M380.8,391.4c-15.4-2.9-31.2-3.3-46.8-3.7c-11.6,0-23.2,0.1-34.7,0.9
		c-3.5,0.2-6.9,0.8-10.3,1.7c-3.4,1.1-7.1-0.7-8.2-4.1c-1.1-3.4,0.7-7.1,4.1-8.2c4.8-1.2,9.3-1.1,14-1.1c12,0.3,24,1.5,35.8,3.6
		C350.2,383.3,365.9,386.1,380.8,391.4"/>
	<path id="パス_15090" class="st5" d="M389.5,400.3c-9.6,12.4-17.1,26.3-24.5,40c-5.3,10.3-10.5,20.8-14.9,31.4
		c-1.4,3.2-2.4,6.5-3.1,9.9c-0.5,3.6-3.8,6-7.4,5.6c-3.6-0.5-6-3.8-5.6-7.4c0,0,0-0.1,0-0.1c1.1-4.8,3.2-8.8,5.4-13
		c5.7-10.6,12.2-20.7,19.4-30.3C368.4,423.9,378,411.2,389.5,400.3"/>
	<path id="パス_15091" class="st7" d="M379.7,401.8c-14,7.1-26.7,16.4-39.4,25.6c-9.2,7-18.4,14.2-27,21.9c-2.6,2.3-5,4.8-7.1,7.6
		c-1.9,3-6,3.9-9,2c-3-1.9-3.9-6-2-9c0.1-0.1,0.1-0.2,0.2-0.3c3.1-3.9,6.7-6.6,10.4-9.4c9.7-7.1,19.9-13.4,30.6-19
		C350.6,414.1,364.7,406.7,379.7,401.8"/>
	<path id="パス_15092" class="st6" d="M412.3,390.5c15.1-4.8,30.8-7.1,46.5-9.4c7.9-1.1,15.8-1.9,23.8-2.2
		c8.4-0.2,16.7-0.8,25.2,1.1c8.5,2.1,5.7,14.5-2.9,12.7c-7-2.4-14.9-2.7-22.4-3.3c-7.8-0.4-15.5-1-23.3-1.1
		C443.5,388.2,427.8,388,412.3,390.5"/>
	<path id="パス_15093" class="st5" d="M406.1,398c15.1,4.8,29.3,12,43.4,19.2c12.5,6.5,24.6,13.8,35.7,22.6
		c1.8,1.5,3.5,3.1,5.1,4.9c5.5,6.6-4,14.9-9.8,8.6c-4.4-6-10.6-10.8-16.4-15.6c-6.1-4.8-12.1-9.7-18.4-14.3
		C432.9,414.2,420.1,404.9,406.1,398"/>
	<path id="パス_15094" class="st7" d="M398.5,400.6c8.4,13.4,14.5,28.1,20.6,42.7c3.1,7.4,5.7,14.9,8,22.5
		c2.3,8.1,4.9,16,5.2,24.6c0.1,8.7-12.6,9.1-13,0.4c0.5-7.4-1-15.1-2.3-22.5c-1.5-7.6-2.9-15.2-4.7-22.8
		C408.4,430.3,404.7,415,398.5,400.6"/>
	<path id="パス_15095" class="st7" d="M386.4,377.4c-9.1-12.8-20.3-23.9-31.3-35c-8.3-8-16.9-16-25.8-23.3
		c-2.7-2.2-5.6-4.2-8.6-5.8c-3.3-1.5-4.7-5.4-3.2-8.6s5.4-4.7,8.6-3.2c0,0,0.1,0,0.1,0c4.3,2.4,7.5,5.6,10.9,8.9
		c8.5,8.5,16.3,17.6,23.4,27.3C369.9,350.4,379.3,363.2,386.4,377.4"/>
</g>
</svg>
