<?xml version="1.0" encoding="utf-8"?>
<!-- Generator: Adobe Illustrator 26.4.1, SVG Export Plug-In . SVG Version: 6.00 Build 0)  -->
<svg version="1.1" id="レイヤー_1" xmlns="http://www.w3.org/2000/svg" xmlns:xlink="http://www.w3.org/1999/xlink" x="0px"
	 y="0px" viewBox="0 0 210 17" style="enable-background:new 0 0 210 17;" xml:space="preserve">
<style type="text/css">
	.st0{fill:#064B9E;}
</style>
<path id="header_catch" class="st0" d="M11.5,13.9c2.9,0,4.9,0,6-0.1c-0.2,0.4-0.4,0.8-0.6,1.2c-0.2,0.4-0.3,0.9-0.4,1.4h-7
	c-1.4,0-2.8-0.1-4.1-0.5c-1-0.3-1.9-0.9-2.6-1.7c-0.1,0.9-0.4,1.7-0.7,2.6c-0.3-0.2-0.7-0.4-1-0.6C0.7,16,0.4,15.9,0,15.7
	c0.4-1,0.7-2,0.8-3.1C0.9,11.1,1,9.6,1,8.1l2.3,0.1c0,0.6,0,1.4-0.1,2.4c0.2,0.5,0.4,1,0.7,1.4V7.4H0.6V5.2h2.9V3.8H1V1.6h2.5V0h2.4
	v1.6h2.4v2.2H5.9v1.3h2.7v0.2c0.9-0.6,1.6-1.6,1.8-2.7H8.8V0.6h8l0,0.8c-0.1,1.5-0.1,2.5-0.2,3.2c0,0.5-0.2,1-0.5,1.4
	c-0.2,0.2-0.4,0.4-0.6,0.5c-0.2,0.1-0.5,0.2-0.7,0.2c-0.5,0.1-1,0.1-1.5,0.1h-0.6c0-0.4-0.1-0.8-0.2-1.1c-0.1-0.4-0.2-0.7-0.4-1
	c0.4,0,0.8,0.1,1.3,0.1c0.2,0,0.4-0.1,0.5-0.2c0.2-0.6,0.3-1.3,0.3-1.9h-1.4c-0.2,0.7-0.4,1.4-0.7,2c-0.5,1-1.2,1.8-2.1,2.5
	C9.5,6.8,9.1,6.4,8.6,6.1v1.3H6.2V9h2.1v2.2H6.2v2.4c0.5,0.1,1,0.2,1.4,0.3c0.5,0,1.2,0.1,1.9,0.1H11.5z M16.4,13.1H9.2V7.4h7.2
	V13.1z M13.8,9.4h-2.2V11h2.2V9.4z M30.5,3.5h-4.2V1.4h4.2V0h2.5v1.3h4.5v2.1h-4.5v0.7h4v5h-3.1c0.6,0.5,1.2,0.9,1.8,1.3
	c0.7,0.4,1.4,0.7,2.1,1c-0.3,0.3-0.7,0.6-0.9,1c-0.3,0.3-0.6,0.7-0.8,1.1c-1.1-0.6-2.2-1.4-3.1-2.3v2.5h-2.5V11
	c-0.9,1-1.9,1.9-3.2,2.5c-0.2-0.4-0.5-0.7-0.8-1c-0.3-0.3-0.6-0.6-0.9-0.9c0.7-0.3,1.4-0.6,2-1c0.6-0.4,1.2-0.8,1.6-1.4h-2.6v-5h3.8
	V3.5z M24,4.7c-0.3-0.5-0.7-1-1.2-1.4c-0.5-0.5-1.1-1-1.6-1.4l1.9-1.5c0.6,0.4,1.1,0.9,1.7,1.3c0.5,0.4,0.9,0.8,1.3,1.3L24,4.7z
	 M29.2,6.1v1.1h1.4V6.1L29.2,6.1z M34.5,6.1h-1.5v1.1h1.5L34.5,6.1z M25.6,12.4c0.3,0.5,0.8,0.9,1.4,1.2c0.7,0.3,1.5,0.4,2.3,0.4
	c0.4,0,1.2,0,2.4,0c2.6,0,4.7-0.1,6.5-0.2c-0.2,0.4-0.4,0.8-0.5,1.3c-0.1,0.4-0.3,0.9-0.3,1.3c-1.6,0.1-3.2,0.1-4.9,0.1
	c-0.9,0-2,0-3.2-0.1c-0.9,0-1.9-0.2-2.8-0.5c-0.8-0.3-1.4-0.8-2-1.4c-0.9,0.7-1.7,1.4-2.5,2L20.8,14c0.8-0.4,1.6-0.9,2.3-1.4V9.2
	h-1.9V6.9h4.4V12.4z M42.8,2.7h2.7c0,0,0,0.3,0,0.8c0,0.5,0,1.1-0.1,1.9c0,0.8,0,1.6-0.1,2.5s0,1.6,0,2.4c0,0.8,0,1.5,0.1,2.3
	c0.1,0.6,0.3,0.9,0.6,0.9c0.4,0,0.8-0.2,1.1-0.4c0.4-0.2,0.8-0.5,1.1-0.7c0.3-0.2,0.5-0.4,0.5-0.4v3c-0.1,0.1-0.3,0.2-0.4,0.3
	c-0.3,0.3-0.7,0.5-1,0.6c-0.5,0.2-1,0.4-1.6,0.4c-1,0.1-1.9-0.4-2.3-1.2c-0.6-1.3-0.9-2.7-0.8-4.1c0-0.8,0-1.6,0-2.5
	c0-0.9,0-1.8,0-2.7c0-0.9,0-1.6,0.1-2.1C42.8,3,42.8,2.7,42.8,2.7z M50.1,2.7h2.8c0,0,0.1,0.5,0.4,1.4c0.3,1.3,0.5,2.5,0.7,3.8
	c0.3,2.3,0.3,4.6,0.3,6.9h-2.7c0,0,0-0.2,0-0.4s0-0.9,0-1.9c0-1-0.1-2.1-0.2-3.3c-0.1-1.2-0.3-2.3-0.5-3.5
	C50.7,4.7,50.4,3.7,50.1,2.7z M82,13.9c2.9,0,4.9,0,6-0.1c-0.2,0.4-0.4,0.8-0.6,1.2c-0.2,0.4-0.3,0.9-0.4,1.4h-7
	c-1.4,0-2.8-0.1-4.1-0.5c-1-0.3-1.9-0.9-2.6-1.7c-0.1,0.9-0.4,1.7-0.7,2.6c-0.3-0.2-0.7-0.4-1-0.6c-0.4-0.2-0.7-0.4-1.1-0.5
	c0.4-1,0.7-2,0.8-3.1c0.1-1.5,0.2-3,0.2-4.5l2.3,0.1c0,0.6,0,1.4-0.1,2.4c0.2,0.5,0.4,1,0.7,1.4V7.4H71V5.2H74V3.8h-2.5V1.6H74V0
	h2.4v1.6h2.4v2.2h-2.4v1.3H79v0.2c0.9-0.6,1.6-1.6,1.8-2.7h-1.6V0.6h8l0,0.8C87.2,2.9,87.1,4,87,4.7c0,0.5-0.2,1-0.5,1.4
	c-0.2,0.2-0.4,0.4-0.6,0.5c-0.2,0.1-0.5,0.2-0.7,0.2c-0.5,0.1-1,0.1-1.5,0.1h-0.6c0-0.4-0.1-0.8-0.2-1.1c-0.1-0.4-0.2-0.7-0.4-1
	c0.4,0,0.8,0.1,1.3,0.1c0.2,0,0.4-0.1,0.5-0.2c0.2-0.6,0.3-1.3,0.3-1.9h-1.4c-0.2,0.7-0.4,1.4-0.7,2c-0.5,1-1.2,1.8-2.1,2.4
	C80,6.8,79.5,6.4,79,6.1v1.3h-2.4V9h2.1v2.2h-2.1v2.4c0.5,0.1,1,0.2,1.4,0.2c0.5,0,1.2,0.1,1.9,0.1L82,13.9z M86.8,13.1h-7.2V7.4
	h7.2V13.1z M84.2,9.4h-2.2V11h2.2L84.2,9.4z M104.4,10.2c0.8,1.9,2.3,3.5,4.3,4.2c-0.4,0.3-0.7,0.7-1,1.1c-0.3,0.4-0.6,0.8-0.9,1.3
	c-1-0.5-1.9-1.1-2.6-1.9c-0.7-0.9-1.3-1.8-1.8-2.9c-0.9,2-2.4,3.8-4.3,4.8c-0.2-0.4-0.5-0.7-0.8-1c-0.3-0.3-0.7-0.7-1-1
	c2-0.9,3.6-2.6,4.2-4.7h-3.2V7.8h3.6c0-0.3,0-0.7,0-1.3V5H98c0.2,0.6,0.4,1.1,0.5,1.5l-1.9,0.9c-0.1-0.6-0.3-1.1-0.5-1.7v11.2h-2.6
	V6.8c-0.1,0.7-0.3,1.4-0.5,2.1l-1.9-0.7c0.2-0.7,0.4-1.4,0.5-2.2c0.1-0.9,0.3-1.7,0.3-2.5l1.5,0.2V0h2.6v3.4l1-0.4
	c0.3,0.5,0.5,1.2,0.9,1.9V2.6h2.9V0h2.6v2.6h3.8v5.2h0.9v2.4H104.4z M103.5,6.5c0,0.3,0,0.7,0,1.3h1.3V5h-1.3L103.5,6.5z
	 M117.6,13.6c0.7,0.4,1.5,0.6,2.3,0.5c0.7,0,1.7,0.1,2.7,0.1c2.6,0,4.8-0.1,6.5-0.2c-0.2,0.4-0.3,0.8-0.5,1.2
	c-0.1,0.4-0.3,0.9-0.3,1.3c-1.6,0.1-3.3,0.1-5.1,0.1c-1,0-2.1,0-3.4-0.1c-0.9,0-1.8-0.2-2.6-0.5c-0.7-0.3-1.3-0.8-1.8-1.4
	c-0.6,0.6-1.4,1.3-2.3,2l-1.2-2.6c0.7-0.4,1.4-0.9,2.1-1.4V9.2h-1.9V6.9h4.4v5.7C116.8,13,117.1,13.3,117.6,13.6L117.5,4h1.9
	c-0.1-0.3-0.2-0.6-0.3-0.9l0.1,0h-2v-2h4.4V0h2.5v1.1h4.7v2h-2l-0.3,0.6L126.3,4h2.2v7.5c0,0.4,0,0.8-0.2,1.2
	c-0.1,0.3-0.3,0.5-0.6,0.7c-0.3,0.2-0.7,0.3-1,0.3c-0.5,0.1-1,0.1-1.5,0.1c-0.1-0.5-0.2-0.9-0.4-1.3h-2.6v0.5h-1.7V9h1.5V8.1h-1.8
	V6.6h1.8V5.9h-2.2v7.7L117.6,13.6z M114.9,4.9c-0.3-0.5-0.7-1-1.1-1.4c-0.5-0.5-1-1.1-1.6-1.5l2-1.5c0.6,0.4,1.1,0.9,1.6,1.4
	c0.4,0.4,0.8,0.9,1.2,1.4L114.9,4.9z M121.5,3c0.1,0.3,0.2,0.6,0.3,0.9h2.1c0.1-0.4,0.2-0.7,0.3-0.9H121.5z M125.8,11.7
	c0.1,0,0.1,0,0.2-0.1c0-0.1,0.1-0.1,0.1-0.2V5.9h-2.2v0.7h1.8v1.5h-1.8V9h1.6v2.7L125.8,11.7z M123.7,11v-0.7h-1.4V11H123.7z
	 M155.7,13.9c2.9,0,4.9,0,6-0.1c-0.2,0.4-0.4,0.8-0.6,1.2c-0.2,0.4-0.3,0.9-0.4,1.4h-7c-1.4,0-2.8-0.1-4.1-0.5
	c-1-0.3-1.9-0.9-2.6-1.7c-0.1,0.9-0.4,1.7-0.7,2.6c-0.3-0.2-0.7-0.4-1-0.6c-0.4-0.2-0.7-0.4-1.1-0.5c0.4-1,0.7-2,0.8-3.1
	c0.1-1.5,0.2-3,0.2-4.5l2.3,0.1c0,0.6,0,1.4-0.1,2.4c0.2,0.5,0.4,1,0.7,1.4V7.4h-3.3V5.2h2.9V3.8h-2.5V1.6h2.5V0h2.4v1.6h2.4v2.2
	H150v1.3h2.7v0.2c0.9-0.6,1.6-1.6,1.8-2.7h-1.6V0.6h8l0,0.8c-0.1,1.5-0.1,2.5-0.2,3.2c0,0.5-0.2,1-0.5,1.4c-0.2,0.2-0.4,0.4-0.6,0.5
	c-0.2,0.1-0.5,0.2-0.7,0.2c-0.5,0.1-1,0.1-1.5,0.1h-0.6c0-0.4-0.1-0.8-0.2-1.1c-0.1-0.4-0.2-0.7-0.4-1c0.4,0,0.8,0.1,1.3,0.1
	c0.2,0,0.4-0.1,0.5-0.2c0.2-0.6,0.3-1.3,0.3-1.9h-1.4c-0.2,0.7-0.4,1.4-0.7,2c-0.5,1-1.2,1.8-2.1,2.4c-0.4-0.4-0.9-0.8-1.4-1.1v1.3
	h-2.4V9h2.1v2.2h-2.1v2.4c0.5,0.1,1,0.2,1.4,0.2c0.5,0,1.2,0.1,1.9,0.1L155.7,13.9z M160.5,13.1h-7.2V7.4h7.2V13.1z M157.9,9.4h-2.2
	V11h2.2L157.9,9.4z M169.6,6.3h-3.2V3.8h3.3V2.1h2.5v1.8h1.9c-0.2-0.4-0.5-1-0.9-1.7h2.8c0.9,1.7,1.5,3.1,1.8,4
	c0.3,0.9,0.5,1.4,0.5,1.4h-2.6c-0.2-0.6-0.4-1.1-0.5-1.5c-0.2-0.6-0.5-1.1-0.8-1.6v1.9h-2.1v1.4c0.1,0,0.3-0.1,0.4-0.1
	c0.6,0,1.2,0,1.7,0.2c0.6,0.1,1.2,0.3,1.7,0.6c0.6,0.3,1,0.8,1.3,1.4c0.4,0.7,0.6,1.5,0.5,2.4c0,0.8-0.2,1.6-0.5,2.4
	c-0.3,0.6-0.7,1-1.3,1.4c-0.5,0.3-1,0.5-1.6,0.7c-0.5,0.1-1,0.2-1.5,0.2V14c0.5,0,1,0,1.4-0.2c0.3-0.1,0.6-0.3,0.8-0.6
	c0.2-0.3,0.2-0.7,0.2-1.1c0-0.6-0.2-1.1-0.7-1.5c-0.7-0.4-1.4-0.5-2.2-0.5h-0.1c0,0-0.1,0-0.1,0v3c0,0.8-0.2,1.5-0.6,2.1
	c-0.3,0.4-0.7,0.7-1.1,0.9c-0.4,0.1-0.7,0.2-1.1,0.2c-0.5,0-1.1-0.2-1.5-0.4c-0.5-0.3-1-0.8-1.3-1.3c-0.4-0.6-0.6-1.3-0.6-2
	c0-0.7,0.1-1.4,0.4-2c0.3-0.6,0.8-1.2,1.3-1.6c0.6-0.5,1.2-0.8,1.9-1.1V6.3z M169.6,13.5v-2.7c-0.4,0.2-0.7,0.5-1,0.8
	c-0.2,0.3-0.3,0.7-0.3,1.1c0,0.2,0,0.5,0.2,0.7c0.1,0.2,0.3,0.3,0.4,0.4c0.1,0.1,0.3,0.1,0.4,0.1c0,0,0.1,0,0.1,0
	C169.6,13.7,169.6,13.6,169.6,13.5L169.6,13.5z M194.1,6.7v2.8h-7.5v7.3h-2.8V1.9h2.8v4.8L194.1,6.7z M201.6,1.9h2.8
	c0,0.3-0.1,0.6-0.2,1c-0.1,0.3-0.1,0.6-0.2,0.9h5.9v2.7c-0.1,1.4-0.4,2.8-1,4.1c-0.5,1.1-1.2,2.1-2,2.9c-0.7,0.7-1.5,1.3-2.4,1.8
	c-0.7,0.4-1.5,0.8-2.3,1.1c-0.6,0.2-1.1,0.4-1.7,0.6c-0.2,0.1-0.5,0.1-0.7,0.1v-2.9c0.2,0,0.5-0.1,0.7-0.2c0.6-0.2,1.2-0.4,1.7-0.7
	c0.8-0.4,1.5-0.9,2.1-1.5c0.7-0.6,1.3-1.4,1.8-2.3c0.5-1,0.8-2.1,0.9-3.2H203c-0.6,0.9-1.3,1.8-2,2.6c-0.5,0.5-1.1,1-1.6,1.5
	c-0.2,0.2-0.4,0.3-0.7,0.4V7.4c0.1-0.1,0.3-0.2,0.4-0.3c0.3-0.3,0.6-0.7,0.9-1.1c0.4-0.5,0.7-1.1,1-1.7
	C201.3,3.5,201.5,2.7,201.6,1.9z"/>
</svg>
