<?xml version="1.0" encoding="utf-8"?>
<!-- Generator: Adobe Illustrator 26.5.0, SVG Export Plug-In . SVG Version: 6.00 Build 0)  -->
<svg version="1.1" id="レイヤー_1" xmlns="http://www.w3.org/2000/svg" xmlns:xlink="http://www.w3.org/1999/xlink" x="0px"
	 y="0px" viewBox="0 0 264 170" style="enable-background:new 0 0 264 170;" xml:space="preserve">
<style type="text/css">
	.st0{fill:#FC13E2;}
	.st1{fill:#FFFFFF;}
	.st2{fill:#064B9E;}
</style>
<g id="header_menu01_sp" transform="translate(0 -1030.406)">
	<path id="パス_18468" class="st0" d="M0,1030.4v170h264v-170"/>
	<path id="パス_39185" class="st1" d="M38.4,1062.5h-4.7v-3.7h4.7v-2.6H42v2.6h2.7c-0.3-0.7-0.8-1.5-1.4-2.5h4
		c1.2,2.6,2.1,4.5,2.6,5.9c0.5,1.3,0.8,2,0.8,2h-3.8c-0.3-0.9-0.5-1.6-0.8-2.1c-0.3-0.8-0.7-1.6-1.1-2.3v2.8H42v2
		c0.2,0,0.4-0.1,0.6-0.1c0.8,0,1.7,0.1,2.5,0.2c0.9,0.2,1.7,0.5,2.5,0.9c0.8,0.5,1.5,1.2,1.9,2c0.5,1.1,0.8,2.3,0.8,3.5
		c0,1.2-0.2,2.4-0.8,3.5c-0.4,0.8-1.1,1.5-1.9,2c-0.7,0.5-1.5,0.8-2.4,1c-0.7,0.2-1.5,0.3-2.2,0.3v-4c0.7,0,1.4-0.1,2.1-0.3
		c0.5-0.1,0.9-0.5,1.1-0.9c0.2-0.5,0.3-1.1,0.3-1.6c0-0.9-0.3-1.7-1-2.2c-0.9-0.6-2.1-0.8-3.1-0.7h-0.2c-0.1,0-0.1,0-0.2,0v4.4
		c0,1.1-0.3,2.2-0.8,3.1c-0.4,0.6-1,1-1.6,1.3c-0.5,0.2-1.1,0.3-1.6,0.2c-0.8,0-1.5-0.2-2.2-0.6c-0.8-0.5-1.4-1.1-1.8-1.9
		c-0.5-0.9-0.8-1.9-0.8-2.9c0-1,0.2-2,0.6-2.9c0.5-0.9,1.1-1.7,1.9-2.3c0.8-0.7,1.8-1.2,2.8-1.5L38.4,1062.5z M38.4,1072.9v-4
		c-0.6,0.3-1,0.7-1.4,1.2c-0.3,0.5-0.5,1.1-0.5,1.6c0,0.3,0.1,0.7,0.2,1c0.2,0.2,0.4,0.4,0.6,0.5c0.2,0.1,0.4,0.2,0.6,0.1
		c0,0,0.1,0,0.2,0S38.3,1073.1,38.4,1072.9z M57.1,1059.8v3h-3.3v-5.5h9.8v-0.6h-7.9v-2.7h19.5v2.7h-7.9v0.6h10v5.5h-3.5v-3h-6.5
		v5.1h-3.7v-5.1H57.1z M62.9,1060.4v1.9h-4.9v-1.9H62.9z M68,1060.4h4.8v1.9H68V1060.4z M57.5,1064.9v-2h5.4v2H57.5z M68,1064.9v-2
		h5.4v2H68z M73.3,1075c0.3,0,0.7,0,1-0.2c0.2-0.2,0.4-0.4,0.5-0.7c0.1-0.5,0.2-1,0.3-1.5c0.5,0.3,0.9,0.5,1.4,0.7
		c0.5,0.2,1.1,0.4,1.7,0.5c-0.1,0.9-0.3,1.7-0.7,2.5c-0.3,0.5-0.8,1-1.4,1.2c-0.8,0.3-1.6,0.4-2.5,0.4h-5.1c-1,0-2-0.1-3-0.3
		c-0.6-0.2-1.2-0.6-1.5-1.1c-0.3-0.7-0.5-1.4-0.5-2.2h-3.5v1h-3.6v-9.7h18.4v8.7H67c0,0.3,0.1,0.5,0.4,0.7c0.5,0.1,0.9,0.2,1.4,0.1
		H73.3z M63.4,1068h-3.5v0.8h3.5L63.4,1068z M70.9,1068.8v-0.8H67v0.8H70.9z M59.9,1071v0.8h3.5v-0.8H59.9z M67,1071.8h3.9v-0.8H67
		V1071.8z M98.7,1064.2v2.9h4.3v10.7h-3.8v-1.1h-4.9v1.3h-3.6v-10.8h4v-2.9h-5.3v-3.6h5.3v-2.6c-1.2,0.1-2.5,0.3-4,0.3
		c-0.1-0.5-0.2-1.1-0.4-1.6c-0.2-0.5-0.4-1.1-0.6-1.6c2.1-0.2,4.1-0.4,6-0.8c1.7-0.3,3.4-0.7,5-1.2l2.6,3.1
		c-1.6,0.4-3.2,0.8-4.8,1.1v3.1h5.3v3.6L98.7,1064.2z M88.4,1053.9v2.8h-7.9v-2.8H88.4z M79.2,1060.5v-2.9h10.1v2.9L79.2,1060.5z
		 M88.4,1061.4v2.8h-8v-2.8H88.4z M80.4,1067.9v-2.8h8v2.8H80.4z M88.6,1068.8v8.1h-5.1v0.9h-3.1v-9L88.6,1068.8z M99.2,1073.3v-2.8
		h-4.9v2.8L99.2,1073.3z M85.4,1071.8h-1.9v2.2h1.9V1071.8z M107.2,1056.7h3.6c-0.2,1.2-0.3,2.3-0.4,3.3c-0.1,1-0.2,2-0.3,3.2
		c-0.1,1.1-0.1,2.2-0.1,3.3c0,1.3,0,2.5,0.1,3.8c0.1,1.2,0.2,2.4,0.3,3.4c0.1,1,0.3,2.2,0.5,3.5h-3.7c-0.3-2.1-0.5-4-0.6-5.6
		c-0.1-1.6-0.2-3.3-0.2-5c0-1.6,0.1-3.2,0.2-4.7C106.8,1060.4,107,1058.7,107.2,1056.7z M111.6,1063.8v-4h5.5v-3.4l3.5,0v3.4h2.9v4
		h-2.9v4.2c1,0.4,2,0.8,3,1.3v4c-0.6-0.4-1.2-0.8-1.6-1c-0.4-0.3-0.9-0.5-1.4-0.7v1.6c0.1,1-0.2,1.9-0.6,2.8c-0.4,0.6-1,1.1-1.6,1.3
		c-0.6,0.2-1.3,0.3-2,0.3c-0.8,0-1.6-0.1-2.4-0.4c-0.8-0.3-1.4-0.8-1.9-1.5c-0.5-0.9-0.8-1.9-0.7-3c-0.1-1.5,0.5-2.9,1.5-4
		c1.2-1,2.7-1.5,4.3-1.2v-3.7H111.6z M116.4,1074.1c0.2,0,0.4-0.1,0.5-0.3c0.1-0.3,0.2-0.6,0.2-0.8v-2c-0.6-0.2-1.3-0.1-1.9,0.3
		c-0.4,0.3-0.7,0.8-0.7,1.4c-0.1,0.5,0.1,0.9,0.5,1.2C115.4,1074.1,115.9,1074.2,116.4,1074.1z M129.5,1067.1h4.9
		c-0.6,0.5-1.1,0.9-1.7,1.4c-0.4,0.4-0.8,0.9-1.1,1.4c-0.3,0.4-0.4,0.9-0.4,1.5c0,0.3,0.1,0.6,0.3,0.9c0.3,0.3,0.7,0.5,1.1,0.6
		c0.9,0.2,1.8,0.2,2.7,0.2c1.4,0,2.6,0,3.6-0.1c1-0.1,2.2-0.2,3.6-0.4v4.2c-2.6,0.3-5.1,0.5-7.7,0.5c-2.6,0-4.5-0.5-5.8-1.4
		c-1.3-1-2-2.5-1.8-4.1c0-0.9,0.2-1.8,0.6-2.6C128.2,1068.5,128.8,1067.8,129.5,1067.1L129.5,1067.1z M137.6,1063.1h-4.9l2.2-2.1
		h-7.4v-4h14.1v3L137.6,1063.1z M149.7,1062.9h-4v-4h5.4c0.3-0.8,0.6-1.5,0.8-1.9c0.2-0.5,0.2-0.7,0.2-0.7h4.2l-0.5,1.4
		c-0.1,0.4-0.3,0.9-0.5,1.3h7.4v4h-8.8c-0.2,0.5-0.7,1.4-1.4,2.7c0.5-0.2,0.9-0.3,1.4-0.4c0.5-0.1,0.9-0.2,1.4-0.3
		c1.8-0.2,3.7,0.2,5.2,1.3c1.3,1.1,2.1,2.7,2,4.5c0,1.5-0.4,3.1-1.4,4.3c-1.2,1.4-3,2.2-4.8,2.3c-2.7,0.3-5.4,0.2-8.1-0.3v-4
		c1.8,0.3,3.6,0.5,5.4,0.6c1.1,0.1,2.1-0.1,3.2-0.4c0.6-0.2,1.1-0.6,1.5-1.1c0.3-0.4,0.4-0.9,0.4-1.5c0-0.7-0.3-1.3-0.8-1.7
		c-0.9-0.5-1.9-0.6-2.8-0.4c-1.3,0.1-2.5,0.4-3.7,1c-1.4,0.7-2.7,1.4-4,2.3v-4C148.6,1065.4,149.4,1063.7,149.7,1062.9L149.7,1062.9
		z M168.3,1060.7v-4.1l0.8,0c0.5,0,1.1,0,1.9,0s1.6,0,2.4,0c0.8,0,1.7,0.1,2.5,0.2s1.5,0.2,2.1,0.3s0.8,0.1,0.9,0.1v4.2
		c-0.3-0.1-0.6-0.2-0.9-0.2c-0.6-0.1-1.3-0.2-2.1-0.4c-0.8-0.1-1.6-0.2-2.5-0.2c-0.8,0-1.6,0-2.4,0s-1.4,0.1-1.9,0.1L168.3,1060.7z
		 M169.9,1070.6h-3.6v-8.4h3.8v4.2c0,0,0.2-0.2,0.5-0.5c0.5-0.4,1-0.7,1.6-0.9c0.8-0.3,1.7-0.5,2.6-0.6c1.4-0.1,2.8,0.1,4,0.6
		c1.1,0.5,2,1.2,2.6,2.2c0.6,1,0.9,2.2,0.9,3.4c0.1,2.5-1.3,4.8-3.6,5.8c-2.4,1.2-6,1.4-10.7,0.6v-4c1.8,0.3,3.6,0.5,5.4,0.5
		c1.1,0,2.1-0.1,3.2-0.4c0.6-0.2,1.1-0.6,1.5-1.1c0.3-0.4,0.4-1,0.4-1.5c0-0.5-0.1-1-0.4-1.5c-0.3-0.5-0.7-0.9-1.2-1.1
		c-0.7-0.3-1.5-0.3-2.3-0.1c-0.9,0.2-1.8,0.6-2.7,1.1C171.2,1069.5,170.5,1070,169.9,1070.6L169.9,1070.6z M186.1,1064.9v-4.1
		c1.1-0.1,2.2-0.2,3-0.3c0-1.2,0-2.6,0-4.1h4c0,1.5,0,2.8-0.1,4h2c1.1-0.1,2.3,0.4,3,1.3c0.8,1.2,1.3,2.6,1.3,4
		c0.1,1.3,0.2,2.7,0.1,4.1c0,1.3-0.2,2.6-0.4,3.9c-0.2,1.1-0.6,2-1.3,2.9c-0.6,0.7-1.6,1.2-2.5,1.1c-0.7,0-1.5-0.1-2.2-0.2
		c-0.3,0-0.6-0.1-0.8-0.2v-4.2c0.8,0.3,1.6,0.4,2.4,0.5c0.5-0.1,0.8-0.5,0.9-1.3c0.2-1,0.3-1.9,0.2-2.9c0-1.1,0-2.3-0.1-3.4
		c0-0.7-0.1-1.1-0.4-1.3c-0.4-0.2-0.8-0.3-1.3-0.3c-0.2,0-0.4,0-0.5,0c-0.2,0-0.4,0-0.6,0c-0.2,2.3-0.6,4.5-1.1,6.7
		c-0.5,2.1-1.2,4.2-1.9,6.3h-4.2c0.9-2,1.7-4,2.2-6.2c0.5-2.2,0.9-4.4,1.1-6.6c-0.8,0.1-1.5,0.1-2,0.2
		C186.4,1064.9,186.1,1064.9,186.1,1064.9L186.1,1064.9z M197.6,1057.2h3.9c1.5,3.3,2.6,6.9,3.2,10.5h-3.8
		C200.4,1064,199.3,1060.4,197.6,1057.2z M209.6,1060.7v-4.1l0.8,0c0.5,0,1.1,0,1.9,0s1.6,0,2.4,0c0.8,0,1.7,0.1,2.5,0.2
		s1.5,0.2,2.1,0.3c0.6,0.1,0.8,0.1,0.9,0.1v4.2c-0.3-0.1-0.6-0.2-0.9-0.2c-0.6-0.1-1.3-0.2-2.1-0.4c-0.8-0.1-1.6-0.2-2.5-0.2
		c-0.8,0-1.6,0-2.4,0s-1.4,0.1-1.9,0.1L209.6,1060.7z M211.2,1070.6h-3.6v-8.4h3.8v4.2c0,0,0.2-0.2,0.5-0.5c0.5-0.4,1-0.7,1.6-0.9
		c0.8-0.3,1.7-0.5,2.6-0.6c1.4-0.1,2.8,0.1,4,0.6c1.1,0.5,2,1.2,2.6,2.2c0.6,1,0.9,2.2,0.9,3.4c0.1,2.5-1.3,4.8-3.6,5.8
		c-2.4,1.2-6,1.4-10.7,0.6v-4c1.8,0.3,3.6,0.5,5.4,0.5c1.1,0,2.1-0.1,3.2-0.4c0.6-0.2,1.1-0.6,1.5-1.1c0.3-0.4,0.4-1,0.4-1.5
		c0-0.5-0.1-1-0.4-1.5c-0.3-0.5-0.7-0.9-1.2-1.1c-0.7-0.3-1.5-0.3-2.3-0.1c-0.9,0.2-1.8,0.6-2.7,1.1
		C212.4,1069.5,211.8,1070,211.2,1070.6L211.2,1070.6z M229,1068.4l-0.7-8.8l-0.2-4.1h4.7l-0.2,4.1l-0.7,8.8H229z M230.5,1075.8
		c-0.7,0-1.5-0.3-1.9-0.8c-0.5-0.6-0.8-1.3-0.8-2.1c0-0.8,0.3-1.5,0.8-2c0.5-0.5,1.2-0.8,1.9-0.8c0.7,0,1.5,0.3,2,0.8
		c0.5,0.5,0.8,1.3,0.8,2c0,0.8-0.3,1.5-0.8,2.1C232,1075.5,231.2,1075.8,230.5,1075.8z"/>
	<path id="長方形_2419" class="st1" d="M64.6,1097.5h135c22.1,0,40,17.9,40,40l0,0c0,22.1-17.9,40-40,40h-135
		c-22.1,0-40-17.9-40-40l0,0C24.6,1115.4,42.5,1097.5,64.6,1097.5z"/>
	<g id="グループ_5106" transform="translate(49.113 1119.078)">
		<g id="グループ_1653" transform="translate(0 0)">
			<path id="パス_11667" class="st2" d="M0,33.2h54.8V0H0V33.2z M31.3,8.5c0-0.1,0-0.2,0-0.4c0.1-4.1,3.5-7.3,7.6-7.2c0,0,0,0,0,0
				h3.3v6.2h-3.3c0,0-0.1,0-0.2,0c-0.9,0-1.6,0.7-1.6,1.7V12h-5.8V8.5z M19.2,32.1h-6.8V8.5c0-0.1,0-0.2,0-0.4
				c0.1-4.1,3.5-7.3,7.6-7.2c0,0,0,0,0,0h8v6.2h-6.2C20.5,7,19.3,8,19.2,9.3v4.1h17.9v6.2H19.2V32.1z M42.2,32.1h-3.3
				c-4.1,0.1-7.5-3.1-7.6-7.2c0,0,0,0,0,0c0-0.1,0-0.2,0-0.4V21l5.8,0v3.2c0,0.9,0.7,1.6,1.6,1.6c0,0,0,0,0,0c0.1,0,0.1,0,0.2,0h3.3
				L42.2,32.1z"/>
			<path id="パス_11668" class="st2" d="M8.3,35.3c0.1,1.8-0.5,3.5-1.5,4.9c-1.2,1.4-2.9,2.3-4.7,2.6l-0.6-1.4
				c4.1-0.7,4.8-2.8,5.1-4.7H0.8v-1.5H8.3z"/>
			<path id="パス_11669" class="st2" d="M11.4,40.1H9.8V35h1.6V40.1z M15.8,38.7c0,3.5-2.8,3.9-5,4.2l-0.6-1.4
				c1.1,0,2.2-0.3,3.2-0.7c0.6-0.4,0.9-1.1,0.8-1.8v-4h1.6L15.8,38.7z"/>
			<rect id="長方形_1363" x="17.4" y="38" class="st2" width="8.2" height="1.5"/>
			<path id="パス_11670" class="st2" d="M33.8,35.4v6.8h-7v-1.5h5.4v-3.9h-5.3v-1.4L33.8,35.4z"/>
			<rect id="長方形_1364" x="35.5" y="38" class="st2" width="8.2" height="1.5"/>
			<path id="パス_11671" class="st2" d="M47.4,37.3c0,1-0.1,2-0.3,3.1c-0.2,1-0.7,2-1.4,2.7l-1.2-1.2c0.6-0.5,1-1.3,1.1-2.1
				c0.1-0.7,0.2-1.5,0.2-2.3v-2.3h1.5L47.4,37.3z M49.9,40.9c0.6-0.2,1.1-0.6,1.4-1.2c0.3-0.6,0.5-1.3,0.6-2l1.4,0.7
				c-0.2,1.2-0.7,2.3-1.6,3.1c-0.9,0.8-2.1,1.3-3.3,1.3v-7.9h1.5L49.9,40.9z"/>
		</g>
	</g>
	<path id="パス_39187" d="M119.4,1137c0-1.5,0.8-2.3,1.8-2.3c1.1,0,2,0.8,2.3,3c-0.4,0.8-1.2,1.4-2.2,1.4
		C120.1,1139.1,119.4,1138.4,119.4,1137z M120.8,1146.2c2.7,0,5.1-2.1,5.1-7.1c0-4.5-2.3-6.4-4.8-6.4c-2.3-0.1-4.1,1.7-4.2,4
		c0,0.1,0,0.2,0,0.3c0,2.7,1.6,4,3.8,4c1.1-0.1,2.1-0.6,2.7-1.5c-0.1,3.3-1.4,4.5-2.9,4.5c-0.8,0-1.5-0.4-2.1-1l-1.4,1.6
		C118.1,1145.6,119.4,1146.2,120.8,1146.2L120.8,1146.2z M129.7,1139.3c0.9,0,1.7-0.7,1.7-1.6c0,0,0-0.1,0-0.1
		c0-0.9-0.7-1.7-1.6-1.7c0,0-0.1,0-0.1,0c-0.9,0-1.6,0.7-1.6,1.6c0,0,0,0.1,0,0.1C128.1,1138.5,128.8,1139.3,129.7,1139.3
		C129.7,1139.3,129.7,1139.3,129.7,1139.3L129.7,1139.3z M129.7,1146.2c0.9,0,1.7-0.7,1.7-1.7c0,0,0,0,0-0.1c0-0.9-0.7-1.7-1.6-1.7
		c0,0-0.1,0-0.1,0c-0.9,0-1.6,0.7-1.6,1.6c0,0,0,0.1,0,0.1C128.1,1145.3,128.8,1146.1,129.7,1146.2
		C129.7,1146.2,129.7,1146.2,129.7,1146.2L129.7,1146.2z M138,1146.2c2.7,0,4.5-2.4,4.5-6.8c0-4.4-1.8-6.7-4.5-6.7
		c-2.7,0-4.5,2.3-4.5,6.7C133.5,1143.8,135.3,1146.2,138,1146.2L138,1146.2z M138,1144.1c-1.2,0-2-1.1-2-4.7c0-3.6,0.9-4.6,2-4.6
		c1.2,0,2,1,2,4.6C140,1143,139.1,1144.1,138,1144.1L138,1144.1z M148.6,1146.2c2.7,0,4.5-2.4,4.5-6.8c0-4.4-1.8-6.7-4.5-6.7
		c-2.7,0-4.5,2.3-4.5,6.7C144.1,1143.8,145.9,1146.2,148.6,1146.2L148.6,1146.2z M148.6,1144.1c-1.2,0-2-1.1-2-4.7
		c0-3.6,0.9-4.6,2-4.6c1.2,0,2,1,2,4.6C150.6,1143,149.7,1144.1,148.6,1144.1L148.6,1144.1z M162.1,1139.8c1,1.3,2.6,2,4.2,2
		c2.1-0.1,4-1.4,4.9-3.3l-2-1.1c-0.5,1.2-1.6,2-2.9,2.2c-1.1,0-2-0.5-2.7-1.3c-1-1.3-2.6-2-4.2-2c-2.1,0.1-4,1.4-4.9,3.3l2,1.1
		c0.5-1.2,1.6-2,2.9-2.2C160.4,1138.5,161.4,1139,162.1,1139.8z M173.4,1145.9h8v-2.1h-2.5v-10.8h-2c-1,0.6-2,0.9-3.1,1.1v1.6h2.4
		v8.1h-2.9V1145.9z M187.8,1146.2c2.7,0,4.5-1.5,4.5-3.6c0-1.5-0.9-2.8-2.2-3.4v-0.1c1-0.6,1.6-1.7,1.7-2.9c0-2.1-1.5-3.5-3.9-3.5
		c-2.3,0-4,1.4-4,3.5c0,1.3,0.7,2.4,1.8,3.1v0.1c-1.3,0.6-2.2,1.8-2.3,3.3C183.3,1144.7,185.2,1146.2,187.8,1146.2z M188.6,1138.5
		c-1.4-0.5-2.4-1.1-2.4-2.3c-0.1-0.8,0.6-1.6,1.4-1.6c0.1,0,0.1,0,0.2,0c0.9,0,1.7,0.7,1.8,1.6c0,0.1,0,0.2,0,0.2
		C189.5,1137.2,189.2,1137.9,188.6,1138.5z M187.9,1144.3c-1.1,0.1-2.1-0.7-2.2-1.8c0,0,0-0.1,0-0.1c0-0.9,0.5-1.7,1.2-2.3
		c1.7,0.7,3,1.2,3,2.5c0,1-0.7,1.8-1.7,1.8C188,1144.3,187.9,1144.3,187.9,1144.3z M196,1139.3c0.9,0,1.6-0.7,1.7-1.6
		c0,0,0-0.1,0-0.1c0-0.9-0.7-1.7-1.6-1.7c0,0-0.1,0-0.1,0c-0.9,0-1.6,0.7-1.6,1.6c0,0,0,0.1,0,0.1
		C194.3,1138.5,195,1139.3,196,1139.3C196,1139.3,196,1139.3,196,1139.3z M196,1146.2c0.9,0,1.7-0.7,1.7-1.7c0,0,0,0,0-0.1
		c0-0.9-0.7-1.7-1.6-1.7c0,0-0.1,0-0.1,0c-0.9,0-1.6,0.7-1.6,1.6c0,0,0,0.1,0,0.1C194.3,1145.3,195,1146.1,196,1146.2
		C196,1146.2,196,1146.2,196,1146.2z M204.3,1146.2c2.7,0,4.5-2.4,4.5-6.8c0-4.4-1.8-6.7-4.5-6.7c-2.7,0-4.5,2.3-4.5,6.7
		C199.7,1143.8,201.5,1146.2,204.3,1146.2z M204.3,1144.1c-1.2,0-2-1.1-2-4.7c0-3.6,0.9-4.6,2-4.6s2,1,2,4.6
		C206.2,1143,205.4,1144.1,204.3,1144.1z M214.9,1146.2c2.7,0,4.5-2.4,4.5-6.8c0-4.4-1.8-6.7-4.5-6.7s-4.5,2.3-4.5,6.7
		C210.3,1143.8,212.1,1146.2,214.9,1146.2L214.9,1146.2z M214.9,1144.1c-1.2,0-2-1.1-2-4.7c0-3.6,0.9-4.6,2-4.6s2,1,2,4.6
		C216.9,1143,216,1144.1,214.9,1144.1L214.9,1144.1z"/>
	<path id="パス_39188" d="M116.1,1159.5c0,2.9,1.1,5.7,3.2,7.7l1.5-0.7c-1.8-1.9-2.9-4.4-2.9-7c0-2.6,1-5.1,2.9-7l-1.5-0.7
		C117.2,1153.9,116,1156.7,116.1,1159.5z M125.9,1163.9v-3.6h7.1v3.6H125.9z M133,1154.9v3.4h-7.1v-3.4H133z M123.9,1153v13.8h2v-1
		h7.1v1h2.1V1153H123.9z M145.5,1157.5c-1.1,0-2,0.9-2,2c0,1.1,0.9,2,2,2c1.1,0,2-0.9,2-2C147.5,1158.4,146.6,1157.5,145.5,1157.5z
		 M160.8,1160.9c-0.3-0.3-1.5-1.4-2.2-2c0.7-1,1.2-2.1,1.7-3.3l-1.1-0.7l-0.3,0.1h-0.7v-2.9h-1.9v2.9h-2.1v1.7h3.6
		c-1,1.8-2.4,3.4-4.2,4.5c0.4,0.6,0.7,1.2,0.9,1.8c0.6-0.4,1.2-0.9,1.8-1.4v5.4h1.9v-6.2c0.5,0.6,0.9,1.1,1.4,1.7L160.8,1160.9z
		 M162.3,1154.8h4.1v3.2h-4.1L162.3,1154.8z M166.8,1165.3c-0.2,0-0.3-0.1-0.3-0.6v-5.1h1.8v-6.6h-7.8v6.6h1.4
		c-0.1,2.7-0.5,4.7-2.8,5.9c0.5,0.4,0.9,1,1.2,1.5c2.8-1.5,3.3-4,3.5-7.4h0.9v5.1c0,1.6,0.3,2.2,1.7,2.2h1.1c1.2,0,1.6-0.7,1.7-3
		c-0.6-0.2-1.1-0.4-1.6-0.7c0,1.8-0.1,2.2-0.4,2.2H166.8z M174.4,1152.7l-0.3,0.1h-3.5v14.3h1.6v-12.6h1.2c-0.3,1.1-0.6,2.5-0.9,3.5
		c0.7,0.8,1.1,1.8,1.1,2.8c0,0.4-0.1,0.8-0.2,0.9c-0.1,0.1-0.3,0.1-0.4,0.1c-0.2,0-0.4,0-0.7,0c0.3,0.5,0.4,1.1,0.4,1.6
		c0.3,0,0.7,0,1,0c0.3,0,0.6-0.2,0.9-0.3c0.6-0.5,0.8-1.3,0.7-2c0-1.2-0.4-2.3-1.2-3.2c0.4-1.2,1-3,1.4-4.4L174.4,1152.7z
		 M176.5,1161.9c-0.4,1.2-1.1,2.3-2,3.2c0.5,0.3,0.9,0.7,1.3,1.1c1-1.1,1.8-2.4,2.3-3.9L176.5,1161.9z M177.3,1156.7
		c1-0.8,1.9-1.8,2.6-2.9c0.8,1.1,1.7,2.1,2.7,2.9H177.3z M184.2,1161.3v-1.6h-3.4v-1.5h2.2v-1.2c0.4,0.3,0.7,0.5,1.1,0.8
		c0.3-0.6,0.6-1.1,1-1.6c-1.8-1-3.3-2.4-4.5-4.1H179c-1,1.8-2.5,3.2-4.2,4.2c0.4,0.5,0.7,1,0.9,1.5c0.4-0.2,0.8-0.5,1.2-0.8v1.2h2.2
		v1.5h-3.1v1.6h3.1v3.7c0,0.2-0.1,0.2-0.2,0.2c-0.2,0-0.8,0-1.4,0c0.3,0.6,0.5,1.1,0.6,1.8c0.7,0.1,1.5,0,2.2-0.3
		c0.5-0.3,0.7-0.8,0.7-1.6v-3.8H184.2z M181.4,1162.5c0.8,1.1,1.5,2.3,1.9,3.6l1.6-0.8c-0.5-1.3-1.2-2.4-2-3.5L181.4,1162.5z
		 M197.2,1154.1l-1.9-1.6c-0.4,0.5-0.8,0.9-1.2,1.4c-1.1,1-3.3,2.8-4.5,3.8c-1.6,1.3-1.7,2.2-0.1,3.6c1.5,1.2,3.8,3.2,4.8,4.3
		c0.5,0.5,0.9,1,1.4,1.5l1.9-1.7c-1.6-1.6-4.7-4-5.9-5c-0.9-0.8-0.9-0.9,0-1.7c1.1-0.9,3.2-2.5,4.2-3.4
		C196.2,1154.9,196.7,1154.5,197.2,1154.1L197.2,1154.1z M206.8,1159.5c0-2.9-1.1-5.7-3.2-7.7l-1.5,0.7c1.8,1.9,2.9,4.4,2.9,7
		c0,2.6-1,5.1-2.9,7l1.5,0.7C205.8,1165.2,206.9,1162.4,206.8,1159.5L206.8,1159.5z"/>
	<path id="パス_39186" d="M123.9,1113.2c0.3,0.7,0.5,1.5,0.7,2.2h-3.4l0.9-0.3c-0.3-0.7-0.6-1.4-1-2.1c1.5-0.1,3.1-0.2,4.6-0.3
		L123.9,1113.2z M119.4,1117.3H131v2.1h2.1v-3.9h-2.6c0.4-0.7,0.9-1.4,1.3-2.2l-2.3-0.5c-0.3,0.9-0.7,1.8-1.2,2.7h-3.1l1.3-0.3
		c-0.2-0.8-0.4-1.6-0.8-2.3c2.4-0.2,4.7-0.5,6.7-0.9l-1.4-1.7c-4.4,0.7-8.9,1.1-13.4,1.2c0.2,0.6,0.4,1.2,0.5,1.8
		c0.9,0,1.8-0.1,2.7-0.1l-1.6,0.4c0.3,0.6,0.6,1.2,0.8,1.9h-2.6v3.9h2L119.4,1117.3z M127.7,1120.7c-0.7,0.8-1.5,1.5-2.5,2.1
		c-1-0.5-1.9-1.2-2.7-2.1L127.7,1120.7z M129.5,1118.6l-0.4,0.1H120v2h0.8l-0.6,0.3c0.8,1.1,1.7,2.1,2.8,2.8c-2,0.7-4,1.1-6.1,1.3
		c0.5,0.6,0.9,1.2,1.3,1.9c2.4-0.3,4.8-0.9,7-1.9c2.2,1,4.5,1.6,6.9,1.9c0.4-0.7,0.8-1.4,1.3-2c-2-0.2-4-0.6-6-1.2
		c1.5-1.1,2.7-2.5,3.5-4.2L129.5,1118.6z M139,1110.4c-0.9,2.6-2.4,4.9-4.3,6.9c0.5,0.7,0.9,1.5,1.3,2.2c0.4-0.4,0.8-0.9,1.3-1.4v9
		h2.2v-12.4c0.6-1.2,1.2-2.4,1.7-3.6L139,1110.4z M151.6,1114.2h-2v-3.7h-2.2v3.7h-6.9v2.2h6.9v8.2c0,0.4-0.2,0.5-0.6,0.5
		c-0.4,0-2,0-3.4,0c0.4,0.7,0.6,1.4,0.8,2.1c1.4,0.1,2.8,0,4.2-0.4c0.9-0.3,1.2-0.9,1.2-2.3v-8.2h2L151.6,1114.2z M145.7,1121.8
		c-0.5-1.1-1.7-2.8-2.5-4.2l-1.9,0.9c0.9,1.4,1.6,2.8,2.3,4.3L145.7,1121.8z M157,1113.3v3.2h-1.6v-3.2H157z M155.4,1121.7v-3.4h1.7
		v3.4H155.4z M159,1111.4h-5.6v13.8h2v-1.6h3.6V1111.4z M160.1,1122.1c0.8,0.9,1.5,1.9,2.1,3l1.8-1.1c-0.6-1.1-1.3-2.1-2.2-2.9
		L160.1,1122.1z M169.6,1117.5v-1.9h-4.1v-1.6h3.6v-1.9h-3.6v-1.9h-2.1v1.9H160v1.9h3.5v1.6h-4.1v1.9h6.4v1.5h-6.3v1.9h6.3v3.9
		c0,0.3-0.1,0.3-0.4,0.3c-0.3,0-1.3,0-2.1,0c0.3,0.6,0.6,1.3,0.7,2c1,0.1,2,0,3-0.4c0.7-0.3,0.9-0.9,0.9-1.9v-3.9h1.7v-1.9h-1.7
		v-1.5H169.6z M176.6,1112.5v1h-2.8v-1H176.6z M173.8,1116v-1h2.8v1H173.8z M178.6,1117.5v-6.5h-6.9v16.1h2.1v-9.6H178.6z
		 M181.9,1116v-1.1h2.9v1.1H181.9z M184.7,1112.5v1h-2.9v-1H184.7z M177.7,1123.9v-1.1h3v1.1H177.7z M180.7,1121.2h-3v-1.1h3V1121.2
		z M186.9,1111h-7.1v6.5h4.9v7c0,0.3-0.1,0.4-0.4,0.4c-0.2,0-0.9,0-1.6,0v-6.4l-6,0v0h-0.9v7.8h1.9v-0.9h4.5
		c0.2,0.5,0.4,1.1,0.5,1.7c1.1,0.1,2.2,0,3.3-0.4c0.7-0.3,1-1,1-2.1L186.9,1111z"/>
</g>
</svg>
