<?xml version="1.0" encoding="utf-8"?>
<!-- Generator: Adobe Illustrator 26.5.0, SVG Export Plug-In . SVG Version: 6.00 Build 0)  -->
<svg version="1.1" id="レイヤー_1" xmlns="http://www.w3.org/2000/svg" xmlns:xlink="http://www.w3.org/1999/xlink" x="0px"
	 y="0px" viewBox="0 0 378 170" style="enable-background:new 0 0 378 170;" xml:space="preserve">
<style type="text/css">
	.st0{fill:#179DFF;}
	.st1{fill:#FFFFFF;}
</style>
<g id="header_menu02_sp" transform="translate(-264.164 -1030.487)">
	<path id="パス_18467" class="st0" d="M264.2,1030.5v170h378v-170"/>
	<path id="パス_39189" class="st1" d="M319.7,1065.5c1.5,1.3,3.3,2.4,5.1,3.2c-0.5,0.5-1,1-1.5,1.5c-0.5,0.6-0.9,1.2-1.3,1.8
		c-0.8-0.4-1.6-0.9-2.3-1.5v7.3h-4V1067c-1-1.2-2-2.4-2.8-3.7c-0.8,3.1-2.2,6.1-4,8.8c-1.5,2.3-3.6,4.2-5.9,5.6
		c-0.4-0.5-0.9-1.1-1.4-1.5c-0.5-0.5-1-0.9-1.6-1.3c2.8-1.4,5.1-3.6,6.7-6.2c-1-0.9-2.1-1.8-3.3-2.5c-0.5,0.6-0.9,1-1.1,1.3
		c-0.3-0.3-0.8-0.8-1.5-1.3c-0.5-0.4-1.1-0.8-1.6-1.2c1.5-1.4,2.7-3.1,3.6-5c1.1-2.1,1.9-4.4,2.4-6.7l3.8,0.8
		c-0.3,1.1-0.6,2.1-0.9,2.9h2.9l0.6-0.1l2.5,0.8c-0.2,1-0.3,1.8-0.4,2.4l1-0.4c0.3,0.6,0.6,1.1,1,1.7v-8h4V1065.5z M306.7,1060.4
		c-0.4,0.9-0.8,1.8-1.4,2.7c1.1,0.6,2.1,1.3,3.1,2.1c0.6-1.5,1.1-3.1,1.4-4.7H306.7z M343.6,1066.6h4v11.2h-4v-1.5h-13.4v1.5h-3.9
		v-11.2h3.8v6.1h4.6v-7.3h-7.4v-9.8h3.8v6.1h3.6v-8.2h3.9v8.2h3.8v-6.1h4v9.8h-7.8v7.3h4.9V1066.6z M365.9,1061.8
		c0.2,0.1,0.3,0.2,0.5,0.4c0.2,0.1,0.3,0.3,0.5,0.4c1.7,1.3,3.2,2.5,4.5,3.6c1.1,0.9,2.1,1.8,3,2.8l-3.2,2.9
		c-2.2-2.5-4.6-4.7-7.2-6.8v12.7h-4.2v-11.8c-2.2,2.3-4.8,4.3-7.6,5.8c-0.4-0.6-0.8-1.2-1.2-1.8c-0.5-0.7-1-1.2-1.4-1.7
		c2.2-1,4.3-2.4,6.1-4.1c1.8-1.6,3.4-3.5,4.6-5.6h-9.8v-3.9h22.8v3.9h-8c-0.5,0.8-0.9,1.5-1.3,2.2v2.5L365.9,1061.8z M393.9,1070.2
		c-0.5,1-1.2,2-2,2.8c2.4,0.7,4.4,1.3,6,1.9l-2.3,3.1c-2.1-0.8-4.5-1.7-7.1-2.5c-1.5,0.7-3.2,1.2-4.9,1.5c-2.3,0.4-4.6,0.7-6.9,0.9
		c-0.2-0.6-0.4-1.2-0.6-1.7c-0.2-0.5-0.5-1-0.8-1.5c2.6,0,5.2-0.3,7.7-0.8l-1.2-0.3l-0.1,0.2l-3.7-1.1c0.5-0.7,1.1-1.5,1.8-2.5h-5
		v-3h7l0.8-1.3h-6.3v-7.7h5.6v-1h-6.7v-3.2h23v3.2h-6.9v1h6.2v7.7h-10.6l-0.8,1.3h12.7v3H393.9z M385.5,1057.2v1h2.2v-1H385.5z
		 M379.9,1061.2v1.8h2v-1.8H379.9z M385.5,1063h2.2v-1.8h-2.2V1063z M393.8,1061.2h-2.4v1.8h2.4V1061.2z M383.7,1070.9
		c1.2,0.3,2.6,0.6,4.2,1c0.7-0.5,1.2-1.1,1.7-1.7h-5.4L383.7,1070.9z M400.3,1057.3h17.1v4c-1.6,0.1-3.1,0.6-4.5,1.4
		c-1.2,0.7-2.2,1.5-3.1,2.5c-0.7,0.8-1.3,1.7-1.6,2.8c-0.3,0.9-0.3,1.9,0.1,2.8c0.3,0.7,0.9,1.2,1.5,1.5c0.6,0.3,1.2,0.5,1.8,0.5
		c0.7,0,1.3,0,2,0c0.6,0,1.2-0.1,1.7-0.1s0.7-0.1,0.8-0.1v4.2c-0.8,0.1-1.7,0.2-2.5,0.2c-0.7,0-1.5,0-2.3-0.1
		c-0.9-0.1-1.7-0.2-2.5-0.5c-1-0.3-1.9-0.8-2.6-1.4c-0.8-0.7-1.4-1.6-1.8-2.6c-0.4-1.3-0.6-2.6-0.4-4c0.2-1,0.5-2.1,1-3
		c0.4-0.8,0.9-1.6,1.6-2.2c0.4-0.5,0.9-1,1.4-1.4c0.2-0.2,0.4-0.4,0.6-0.5h-8.2L400.3,1057.3z M412.2,1067v-4.1h2v4.1H412.2z
		 M415.3,1067v-4.1h2v4.1H415.3z M423.5,1058.7v3h-3.8v-6.5h9.1v-2.1h4.1v2.1h9.4v6.5h-4.1v-3H423.5z M438.4,1066.3
		c-0.6,2-1.6,3.9-2.9,5.5c2.1,0.8,4.1,1.8,6.1,2.9l-3.1,3.1c-1.9-1.2-4-2.3-6.1-3.2c-1.4,0.9-2.9,1.6-4.5,2c-2,0.6-3.9,1-6,1.3
		c-0.3-0.6-0.6-1.2-0.9-1.7c-0.4-0.6-0.8-1.2-1.2-1.7c2.8-0.1,5.6-0.7,8.2-1.6c-1-0.4-1.8-0.7-2.3-0.8l-0.4,0.7l-4-1.1
		c1-1.6,2-3.4,3-5.3h-5.1v-3.6h6.9c0.1-0.2,0.2-0.4,0.2-0.5s0.1-0.3,0.2-0.4c0.6-1.1,1-2.1,1.3-2.8l4,0.8c-0.3,0.6-0.7,1.6-1.4,2.8
		h12v3.6L438.4,1066.3z M428.8,1066.3l-1.4,2.6c1.3,0.4,2.8,0.9,4.4,1.5c1.1-1.2,1.8-2.6,2.2-4.1H428.8z M453,1053.3
		c1.6,0.6,3.1,1.3,4.6,2.1c1.4,0.8,2.8,1.6,4,2.6l-2.5,3.3c-1.2-1-2.5-1.9-3.9-2.7c-1.5-0.9-3.1-1.7-4.7-2.3L453,1053.3z
		 M454.4,1072.8c0,0.3,0,0.7,0.1,1c0,0.2,0.2,0.3,0.3,0.4c0.3,0.1,0.6,0.1,0.8,0.1h2.9c0.3,0,0.6-0.1,0.9-0.4
		c0.2-0.4,0.4-0.8,0.4-1.3c0.1-0.6,0.2-1.6,0.2-3c0.5,0.4,1.1,0.7,1.7,0.9c0.6,0.3,1.2,0.5,1.9,0.7c-0.1,1.3-0.3,2.6-0.7,3.9
		c-0.2,0.8-0.7,1.5-1.4,2c-0.8,0.4-1.7,0.6-2.6,0.6h-3.7c-1,0-1.9-0.1-2.8-0.5c-0.7-0.3-1.2-0.8-1.4-1.5c-0.3-0.9-0.4-1.9-0.4-2.9
		v-12.1h4L454.4,1072.8z M463.9,1061.3c1.1,1.4,2.1,3,2.9,4.6c0.8,1.5,1.3,3,1.7,4.6l-3.8,1.9c-0.4-1.6-0.9-3.2-1.6-4.7
		c-0.7-1.7-1.6-3.3-2.7-4.8L463.9,1061.3z M449.3,1063.2c-0.2,2-0.5,3.9-0.9,5.9c-0.3,1.5-0.9,3-1.7,4.3l-3.6-2
		c1.3-2,2.1-4.9,2.5-8.9L449.3,1063.2z M471.4,1068.4l-0.7-8.8l-0.2-4.1h4.7l-0.2,4.1l-0.7,8.8H471.4z M472.9,1075.8
		c-0.7,0-1.5-0.3-2-0.8c-0.5-0.6-0.8-1.3-0.8-2.1c0-0.8,0.3-1.5,0.8-2c0.5-0.5,1.2-0.8,2-0.8c0.7,0,1.5,0.3,2,0.8
		c0.5,0.5,0.8,1.3,0.8,2c0,0.8-0.3,1.5-0.8,2.1C474.4,1075.5,473.7,1075.8,472.9,1075.8z"/>
	<path id="長方形_2421" class="st1" d="M332.9,1097.5h110c22.1,0,40,17.9,40,40l0,0c0,22.1-17.9,40-40,40h-110
		c-22.1,0-40-17.9-40-40l0,0C292.9,1115.4,310.8,1097.5,332.9,1097.5z"/>
	<path id="パス_39190" class="st0" d="M327,1112.6h4.4l1.1,8.2l0.7,5.7h0.1c0.3-1.6,0.6-3.5,1.1-5.7l1.8-8.2h3.6l1.8,8.2
		c0.1,0.7,0.3,1.8,0.6,3.2l0.4,2.4h0.1l0.7-5.7l1.2-8.2h4.1l-3.1,17.9h-5.4l-1.6-7.8c-0.3-1.4-0.5-2.8-0.7-4.2h-0.1l-0.3,1.7
		c0,0.3-0.1,0.7-0.2,1.2c-0.1,0.5-0.2,1-0.2,1.3l-1.6,7.8h-5.3L327,1112.6z M351.6,1130.5v-17.9H363v3.6h-7v3.3h6v3.6h-6v3.8h7.3
		v3.6H351.6z M373.5,1112.6c4.4,0,6.6,1.5,6.6,4.4c0,0.8-0.2,1.6-0.6,2.3c-0.4,0.7-1,1.2-1.7,1.5v0.1c0.9,0.2,1.7,0.7,2.3,1.4
		c0.6,0.8,0.9,1.8,0.9,2.8c0.1,1.6-0.6,3.1-1.9,3.9c-1.5,0.9-3.3,1.4-5,1.3h-6.7v-17.9H373.5z M373.3,1119.7c0.7,0.1,1.4-0.1,2-0.5
		c0.4-0.4,0.7-0.9,0.7-1.5c0-0.5-0.2-1.1-0.6-1.4c-0.6-0.3-1.3-0.5-2-0.4h-1.8v3.8H373.3z M373.7,1127.2c2.1,0,3.1-0.8,3.1-2.3
		c0-0.6-0.2-1.2-0.8-1.6c-0.7-0.4-1.5-0.5-2.4-0.5h-2.1v4.3H373.7z M400.9,1114.7l-0.9,1.5h4.6v13c0,0.7-0.1,1.3-0.3,1.9
		c-0.2,0.5-0.6,0.9-1,1.1c-0.5,0.3-1.1,0.4-1.7,0.5c-0.8,0.1-1.7,0.1-2.5,0.1c-0.2-0.8-0.4-1.6-0.7-2.4h-5.7v1.2h-3.1v-7.7h9.7v5.6
		c0.4,0,0.9,0,1.5,0c0.1,0,0.3,0,0.4-0.1c0.1-0.1,0.1-0.2,0.1-0.3v-6.5c-0.2,0.2-0.5,0.4-0.8,0.5c-0.4,0.1-0.7,0.2-1.1,0.1h-1.6
		c-0.6,0-1.2-0.1-1.8-0.3c-0.4-0.2-0.7-0.5-0.8-0.9c-0.2-0.6-0.3-1.2-0.2-1.8v-1.1h-1.4c0,0.8-0.2,1.6-0.5,2.3
		c-0.3,0.7-0.8,1.2-1.4,1.6c-0.9,0.5-1.8,0.9-2.8,1c-0.1-0.3-0.2-0.6-0.4-0.9c-0.2-0.3-0.4-0.6-0.6-0.9v10.4h-3.3v-16.5h4.1
		c-0.2-0.5-0.4-1-0.6-1.5h-4.2v-3.1h8.7v-1.6h3.6v1.6h9v3.1H400.9z M396.1,1116.2c0.3-0.5,0.5-1,0.7-1.5h-5.2c0.2,0.5,0.4,1,0.6,1.5
		H396.1z M387.7,1121.6c0.6-0.1,1.1-0.3,1.6-0.5c0.3-0.2,0.6-0.4,0.8-0.8c0.2-0.4,0.3-0.8,0.3-1.2h-2.7V1121.6z M401.2,1119.2h-3.4
		v1c0,0.2,0,0.3,0.1,0.5c0,0.1,0.1,0.1,0.3,0.1h0.7c0.2,0,0.3-0.1,0.4-0.2c0.1-0.3,0.1-0.7,0.1-1c0.5,0.4,1.1,0.6,1.8,0.8
		L401.2,1119.2z M396.1,1127.9v-1.4h-3.5v1.4H396.1z M427.8,1121.4c-1.4-1.2-2.9-2.3-4.5-3.2c-1.3,1.6-3,2.8-5,3.4
		c-0.2-0.5-0.5-1-0.8-1.5c-0.3-0.5-0.7-0.9-1.1-1.3c1.3-0.3,2.5-1,3.5-1.9c0.7-0.7,1.2-1.7,1.5-2.7c0.3-1.4,0.4-2.9,0.4-4.3h3.4
		c0,1.8-0.2,3.6-0.6,5.3c1.9,1,3.8,2.2,5.5,3.5L427.8,1121.4z M415.9,1110.7v2.6h-7.3v-2.6H415.9z M425.2,1115.1
		c0.3-0.6,0.6-1.3,0.9-2c0.3-0.7,0.5-1.3,0.7-2l3.4,1l-0.5,0.8c-0.9,1.5-1.5,2.5-1.8,3.1L425.2,1115.1z M416.7,1116.7h-9.3v-2.7h9.3
		v1.1c0.4-0.5,0.7-1.1,1-1.7c0.3-0.7,0.5-1.4,0.6-2.1l2.8,0.6c-0.1,0.9-0.4,1.7-0.7,2.5c-0.3,0.7-0.7,1.4-1.2,2l-2.6-1.1V1116.7z
		 M415.9,1117.4v2.6h-7.4v-2.6H415.9z M425.6,1126c0.4,0.8,1,1.5,1.7,2.1c0.9,0.7,1.9,1.3,3,1.7c-0.3,0.4-0.7,0.9-1.1,1.5
		c-0.4,0.6-0.7,1.1-0.9,1.5c-0.8-0.3-1.6-0.7-2.3-1.3c-0.7-0.5-1.2-1.1-1.7-1.8c-0.4-0.5-0.7-1.1-0.9-1.8c-0.3,0.6-0.6,1.2-1,1.7
		c-0.6,0.7-1.2,1.3-1.9,1.8c-0.7,0.6-1.6,1-2.4,1.4c-0.3-0.5-0.5-1-0.9-1.5c-0.3-0.5-0.7-0.9-1-1.4c1.1-0.4,2.2-1,3.2-1.7
		c0.7-0.6,1.3-1.3,1.8-2.1c0.3-0.6,0.5-1.3,0.6-2.1v-3.8h3.6v3.8c0,0.4,0.1,0.8,0.2,1.2c0.6-1.2,1.1-2.4,1.5-3.6l3.4,1
		c-1.1,2-2,3.4-2.5,4.1L425.6,1126z M408.6,1123.3v-2.6h7.4v2.6H408.6z M421,1122.4c-0.2,1-0.4,1.9-0.8,2.8
		c-0.3,0.8-0.8,1.6-1.4,2.2l-2.9-1.4c0.5-0.5,0.9-1.1,1.2-1.8c0.4-0.8,0.6-1.6,0.8-2.4L421,1122.4z M416,1124.1v7.5h-4.6v0.9h-2.9
		v-8.3L416,1124.1z M413,1126.8h-1.6v2h1.6V1126.8z M437.5,1126.9c0.4,0,0.7-0.3,0.9-0.9c0.3-0.8,0.5-1.6,0.6-2.5
		c0.2-1,0.3-2,0.3-3.1s0.1-2.1,0.1-3c-0.7,0.3-1.3,0.7-1.8,1.4c-0.5,0.7-0.8,1.5-1.1,2.3c-0.2,0.8-0.4,1.6-0.4,2.4
		c-0.1,0.9,0,1.8,0.3,2.6C436.8,1126.6,437.1,1126.9,437.5,1126.9L437.5,1126.9z M446.1,1122.1c0-1.1-0.3-2.2-0.8-3.2
		c-0.5-0.9-1.4-1.4-2.4-1.5c0,1.6-0.1,3.1-0.3,4.7c-0.1,1.5-0.4,3-0.9,4.4c-0.4,1.2-0.9,2.2-1.7,3.2c-0.6,0.8-1.6,1.2-2.5,1.1
		c-0.8,0-1.5-0.3-2.1-0.7c-0.8-0.6-1.4-1.4-1.7-2.3c-0.5-1.4-0.8-2.8-0.7-4.3c0-1.7,0.4-3.3,1.1-4.8c0.6-1.4,1.6-2.6,2.8-3.5
		c1.1-0.9,2.5-1.4,3.9-1.5c1.5-0.1,3,0.1,4.3,0.7c1.4,0.6,2.5,1.6,3.3,2.9c0.9,1.6,1.4,3.4,1.4,5.2c0.1,1.6-0.2,3.2-0.7,4.7
		c-0.4,1.2-1.1,2.2-2,3c-0.8,0.7-1.7,1.2-2.6,1.6c-0.8,0.3-1.7,0.5-2.6,0.5v-3.6c1.3,0,2.5-0.6,3.2-1.7
		C445.8,1125.4,446.2,1123.8,446.1,1122.1z M322,1150.8h4.5c-0.5,0.4-1,0.9-1.5,1.3c-0.4,0.4-0.7,0.8-1,1.3
		c-0.3,0.4-0.4,0.9-0.4,1.3c0,0.3,0.1,0.6,0.2,0.8c0.3,0.3,0.6,0.5,1,0.5c0.8,0.2,1.7,0.2,2.5,0.2c1.3,0,2.4,0,3.3-0.1
		s2-0.2,3.3-0.4v3.9c-2.4,0.3-4.7,0.5-7.1,0.5c-1.9,0.1-3.7-0.3-5.3-1.3c-1.2-0.9-1.8-2.3-1.7-3.7c0-0.8,0.2-1.6,0.6-2.4
		C320.8,1152.1,321.4,1151.4,322,1150.8L322,1150.8z M329.5,1147.2h-4.5l2.1-1.9h-6.8v-3.7h13v2.8L329.5,1147.2z M330.3,1150.7v-3.8
		h1.8v3.8H330.3z M333.2,1150.7v-3.8h1.8v3.8H333.2z M359.5,1148.2c-0.5,1.2-1,2.3-1.7,3.5c-0.6,1.1-1.2,2.1-2,3.1l-3-1.7
		c0.5-0.8,1-1.6,1.4-2.5h-4.1v6.6c0,0.7-0.1,1.4-0.4,2c-0.3,0.5-0.8,0.9-1.3,1.1c-0.6,0.2-1.3,0.4-2,0.4c-0.8,0.1-1.8,0.1-3,0.1
		c-0.1-0.6-0.3-1.1-0.5-1.7c-0.2-0.6-0.5-1.1-0.8-1.7c0.9,0,2.1,0.1,3.6,0.1c0.2,0,0.3,0,0.5-0.1c0.1-0.1,0.2-0.2,0.1-0.3v-6.5h-9.3
		v-3.3h9.9c-1.4-0.5-2.8-1-4.1-1.5l1.7-2.6c0.8,0.3,2,0.6,3.4,1.1c0.8-0.5,1.5-1.1,2.3-1.7h-10.8v-3.2h14.1l0.8-0.2l2.5,2
		c-1.6,1.6-3.3,3-5.2,4.3c0.4,0.1,1,0.4,1.7,0.6l-0.7,1.1h3.2l0.6-0.2L359.5,1148.2z M383.6,1141.9c0,0.8,0,1.3,0,1.6
		c-0.1,3.7-0.2,6.6-0.3,8.6c-0.1,1.6-0.2,3.1-0.5,4.7c-0.1,0.8-0.4,1.6-0.8,2.3c-0.3,0.4-0.7,0.8-1.1,1.1c-0.4,0.2-0.9,0.4-1.4,0.5
		c-0.8,0.1-1.5,0.2-2.3,0.1c-0.6,0-1.1,0-1.5,0c-0.1-0.6-0.2-1.2-0.4-1.8c-0.2-0.6-0.5-1.2-0.8-1.7c1,0.1,2.1,0.1,3.5,0.1
		c0.2,0,0.4,0,0.6-0.1c0.2-0.1,0.3-0.2,0.4-0.3c0.3-0.4,0.6-1.4,0.8-3.2c0.2-1.8,0.3-4.6,0.5-8.5h-6c-0.6,1.1-1.2,2.1-1.9,3
		c-0.7-0.6-1.5-1.2-2.3-1.6c0.4,0.8,0.8,1.6,1.1,2.3c0.3,0.7,0.5,1.3,0.6,2l-2.6,1.2c-0.1-0.4-0.2-0.8-0.3-1.2l-0.9,0.1v1.8l2.1-0.7
		c0.3,0.7,0.6,1.5,0.9,2.3c0.3,0.8,0.5,1.6,0.6,2.2l-2.7,1c-0.2-1.2-0.6-2.3-1-3.5v6.6h-3.1v-7.4c-0.1,1.1-0.3,2.1-0.5,3.2
		c-0.2,0.9-0.5,1.8-0.8,2.6c-0.4-0.2-0.8-0.5-1.2-0.7c-0.5-0.2-1-0.4-1.4-0.6c0.7-1.8,1-3.6,1.1-5.5l2.8,0.5v-1.6l-3.4,0.2l-0.3-3
		l1.9-0.1c0.2-0.2,0.4-0.5,0.5-0.7l0.3-0.4c-0.8-1.2-1.7-2.2-2.7-3.2l1.6-2.4l0.5,0.4c0.6-1.3,1.1-2.7,1.6-4l3.1,1.1l-0.3,0.6
		c-1.1,2-1.9,3.5-2.4,4.3l0.5,0.6c0.7-1.2,1.4-2.4,2-3.7l2.9,1.2c-1.2,1.9-2.3,3.4-3.2,4.6l2-0.9c0.9-1,1.7-2.2,2.3-3.5
		c0.7-1.4,1.2-2.9,1.5-4.4l3.6,0.8c-0.3,1.1-0.6,2.1-1,3.2H383.6z M367.8,1148.2c-0.2-0.5-0.4-1-0.6-1.3c-0.5,0.7-0.9,1.1-1.1,1.4
		L367.8,1148.2z M375,1154.7c-0.3-0.9-0.6-1.8-1.1-2.6c-0.5-1-1.1-2-1.7-2.9l2.8-1.4c0.7,0.9,1.3,1.8,1.8,2.8
		c0.5,0.8,0.9,1.7,1.2,2.6L375,1154.7z M387.6,1141.2h3.3c-0.1,1.1-0.3,2.1-0.4,3s-0.2,1.9-0.3,2.9c-0.1,1-0.1,2.1-0.1,3.1
		c0,1.2,0,2.3,0.1,3.5c0.1,1.2,0.2,2.2,0.3,3.2c0.1,1,0.3,2,0.4,3.2h-3.4c-0.3-2-0.5-3.7-0.6-5.1c-0.1-1.5-0.2-3-0.2-4.6
		c0-1.5,0.1-2.9,0.2-4.3C387.2,1144.7,387.3,1143,387.6,1141.2z M391.7,1147.8v-3.7h5v-3.1l3.3,0v3.1h2.6v3.7H400v3.9
		c1,0.4,1.9,0.8,2.8,1.2v3.7c-0.6-0.4-1.1-0.7-1.5-1c-0.4-0.2-0.8-0.5-1.3-0.6v1.5c0.1,0.9-0.1,1.8-0.6,2.6c-0.4,0.6-0.9,1-1.5,1.2
		c-0.6,0.2-1.2,0.3-1.8,0.3c-0.8,0-1.5-0.1-2.2-0.3c-0.7-0.3-1.3-0.8-1.7-1.4c-0.5-0.8-0.7-1.8-0.7-2.8c-0.1-1.4,0.4-2.7,1.4-3.7
		c1.1-0.9,2.5-1.3,3.9-1.1v-3.4H391.7z M396.1,1157.3c0.2,0,0.4-0.1,0.5-0.3c0.1-0.2,0.2-0.5,0.1-0.8v-1.8c-0.6-0.2-1.2-0.1-1.7,0.3
		c-0.4,0.3-0.6,0.8-0.7,1.3c-0.1,0.4,0.1,0.9,0.4,1.1C395.1,1157.2,395.6,1157.3,396.1,1157.3z M408.6,1150.8h4.5
		c-0.5,0.4-1,0.9-1.5,1.3c-0.4,0.4-0.7,0.8-1,1.3c-0.3,0.4-0.4,0.9-0.4,1.3c0,0.3,0.1,0.6,0.2,0.8c0.3,0.3,0.6,0.5,1,0.5
		c0.8,0.2,1.7,0.2,2.5,0.2c1.3,0,2.4,0,3.3-0.1c0.9-0.1,2-0.2,3.3-0.4v3.9c-2.4,0.3-4.7,0.5-7.1,0.5c-1.9,0.1-3.7-0.3-5.3-1.3
		c-1.2-0.9-1.8-2.3-1.7-3.7c0-0.8,0.2-1.6,0.6-2.4C407.5,1152.1,408,1151.4,408.6,1150.8z M416.1,1147.2h-4.5l2.1-1.9h-6.8v-3.7h13
		v2.8L416.1,1147.2z M427.8,1147H424v-3.7h4.9c0.3-0.8,0.6-1.4,0.7-1.8s0.2-0.7,0.2-0.7h3.9l-0.4,1.3c-0.1,0.4-0.3,0.8-0.4,1.2h6.8
		v3.7h-8.1c-0.2,0.5-0.6,1.3-1.3,2.5c0.4-0.1,0.8-0.3,1.3-0.4c0.4-0.1,0.9-0.2,1.3-0.2c1.7-0.2,3.4,0.2,4.8,1.2
		c1.2,1,1.9,2.5,1.9,4.1c0,1.4-0.4,2.8-1.3,3.9c-1.1,1.3-2.7,2.1-4.4,2.1c-2.5,0.3-5,0.2-7.5-0.3v-3.7c1.6,0.3,3.3,0.5,5,0.6
		c1,0.1,2-0.1,2.9-0.3c0.5-0.2,1-0.5,1.4-1c0.3-0.4,0.4-0.9,0.4-1.3c0-0.6-0.2-1.2-0.8-1.5c-0.8-0.4-1.7-0.6-2.6-0.4
		c-1.2,0.1-2.3,0.4-3.4,0.9c-1.3,0.6-2.5,1.3-3.7,2.1v-3.6C426.7,1149.2,427.5,1147.7,427.8,1147L427.8,1147z M445.5,1144.9v-3.8
		l0.7,0c0.5,0,1.1,0,1.8,0c0.7,0,1.4,0,2.2,0c0.8,0,1.5,0.1,2.3,0.2c0.8,0.1,1.4,0.2,1.9,0.2c0.5,0.1,0.8,0.1,0.8,0.1v3.9
		c-0.3-0.1-0.5-0.1-0.8-0.2c-0.5-0.1-1.2-0.2-2-0.3c-0.8-0.1-1.5-0.2-2.3-0.2c-0.8,0-1.5,0-2.2,0c-0.7,0-1.3,0-1.7,0.1L445.5,1144.9
		z M446.9,1154h-3.3v-7.8h3.5v3.9c0,0,0.2-0.2,0.5-0.4c0.5-0.3,1-0.6,1.5-0.8c0.8-0.3,1.6-0.5,2.4-0.5c1.3-0.1,2.5,0.1,3.7,0.6
		c1,0.4,1.8,1.1,2.4,2.1c0.5,1,0.8,2.1,0.8,3.2c0.1,2.3-1.2,4.4-3.3,5.3c-2.2,1.1-5.5,1.3-9.9,0.6v-3.6c1.6,0.3,3.3,0.5,5,0.5
		c1,0,2-0.1,2.9-0.4c0.6-0.2,1-0.5,1.4-1c0.3-0.4,0.4-0.9,0.3-1.4c0-0.5-0.1-0.9-0.4-1.3c-0.3-0.4-0.7-0.8-1.1-1
		c-0.7-0.2-1.4-0.3-2.1-0.1c-0.9,0.2-1.7,0.5-2.4,1C448.1,1153,447.5,1153.5,446.9,1154L446.9,1154z"/>
</g>
</svg>
