<?xml version="1.0" encoding="utf-8"?>
<!-- Generator: Adobe Illustrator 26.3.1, SVG Export Plug-In . SVG Version: 6.00 Build 0)  -->
<svg version="1.1" id="レイヤー_1" xmlns="http://www.w3.org/2000/svg" xmlns:xlink="http://www.w3.org/1999/xlink" x="0px"
	 y="0px" viewBox="0 0 204 68" style="enable-background:new 0 0 204 68;" xml:space="preserve">
<style type="text/css">
	.st0{fill:#FFF100;}
	.st1{fill:#FFFFFF;}
</style>
<g id="header_phone_pc" transform="translate(-1165.7 -31.43)">
	<g id="header_phone_pc-2">
		<g id="グループ_2209" transform="translate(1167.021 52.284)">
			<g id="グループ_1653" transform="translate(0 0)">
				<path id="パス_11667" class="st0" d="M0,23.5h38.6V0H0V23.5z M22.1,6.1c0-0.1,0-0.2,0-0.3c0.1-2.9,2.5-5.2,5.3-5.1
					c0,0,0,0,0,0h2.3v4.4h-2.4c0,0-0.1,0-0.1,0c-0.6,0-1.2,0.5-1.2,1.2v2.3h-4.1V6.1z M13.5,22.7H8.7V6.1c0-0.1,0-0.2,0-0.3
					c0.1-2.9,2.5-5.2,5.3-5.1c0,0,0,0,0,0h5.6v4.4h-4.4c-0.9-0.1-1.7,0.6-1.8,1.6v2.9h12.6v4.4H13.5V22.7z M29.7,22.8h-2.3
					c-2.9,0.1-5.3-2.2-5.3-5.1c0-0.1,0-0.2,0-0.3V15l4.1,0v2.3c0,0.6,0.5,1.2,1.2,1.2c0,0,0.1,0,0.1,0h2.3V22.8z"/>
				<path id="パス_11668" class="st0" d="M5.8,25c0,1.2-0.3,2.5-1.1,3.5c-0.8,1-2,1.7-3.3,1.8l-0.5-1c2.9-0.5,3.4-2,3.6-3.3h-4v-1
					H5.8z"/>
				<path id="パス_11669" class="st0" d="M8,28.4H6.9v-3.6H8V28.4z M11.2,27.4c0,2.5-2,2.8-3.5,3l-0.4-1c0.8,0,1.5-0.2,2.2-0.5
					c0.4-0.3,0.6-0.8,0.6-1.3v-2.9h1.1L11.2,27.4z"/>
				<rect id="長方形_1363" x="12.3" y="26.9" class="st0" width="5.8" height="1.1"/>
				<path id="パス_11670" class="st0" d="M23.9,25.1v4.8h-4.9v-1h3.8v-2.8H19v-1L23.9,25.1z"/>
				<rect id="長方形_1364" x="25" y="26.9" class="st0" width="5.8" height="1.1"/>
				<path id="パス_11671" class="st0" d="M33.4,26.5c0,0.7-0.1,1.5-0.2,2.2c-0.1,0.7-0.5,1.4-1,1.9l-0.8-0.8
					c0.4-0.4,0.7-0.9,0.8-1.5c0.1-0.5,0.2-1.1,0.2-1.6v-1.6h1L33.4,26.5z M35.2,29c0.4-0.1,0.8-0.4,1-0.9c0.2-0.4,0.4-0.9,0.4-1.4
					l1,0.5c-0.1,0.8-0.5,1.6-1.1,2.2c-0.6,0.6-1.5,0.9-2.3,0.9v-5.6h1L35.2,29z"/>
			</g>
		</g>
		<path id="パス_19939" class="st0" d="M1212.9,74.5c-0.2,1.8,0.5,3.6,1.9,4.8c1.1,0.8,2.4,1.2,3.8,1.2c1.4,0,2.8-0.4,3.9-1.3
			c1.3-1.2,2-2.9,1.8-4.7V59.7c0.2-1.6-0.4-3.1-1.4-4.3c-1.1-1.2-2.7-1.8-4.3-1.7c-1.4,0-2.8,0.4-3.9,1.3c-1.3,1.2-1.9,2.9-1.8,4.7
			V74.5z M1220.6,74c0.1,0.7-0.1,1.4-0.4,2.1c-0.3,0.5-0.9,0.8-1.6,0.8c-0.6,0-1.2-0.3-1.6-0.8c-0.3-0.6-0.5-1.4-0.4-2.1V60.3
			c-0.1-0.7,0.1-1.4,0.4-2.1c0.4-0.5,0.9-0.8,1.6-0.8c0.6,0,1.2,0.3,1.6,0.8c0.3,0.6,0.5,1.4,0.4,2.1L1220.6,74z M1231.6,80.1h3.7
			V54.1h-3.5l-4.1,3V61l4-2.9L1231.6,80.1z M1240.8,61.4h3.7v-1c-0.1-0.7,0-1.4,0.3-2.1c0.3-0.6,1-0.9,1.6-0.9
			c0.5,0,1.1,0.2,1.4,0.6c0.4,0.5,0.6,1.2,0.6,1.9v0.6c0,0.7-0.1,1.5-0.3,2.2c-0.2,0.7-0.5,1.3-0.8,1.9l-6.5,12.1v3.4h11.3v-3.5
			h-7.1l5.8-11c0.4-0.6,0.7-1.3,0.9-2.1c0.3-0.8,0.4-1.6,0.3-2.4v-1.4c0-1.5-0.4-3-1.3-4.2c-1.1-1.3-2.7-1.9-4.3-1.8
			c-1.5-0.1-3,0.5-4.1,1.5c-1.1,1.3-1.7,2.9-1.6,4.6L1240.8,61.4z M1254.8,74.5c-0.2,1.8,0.5,3.6,1.9,4.8c1.1,0.8,2.4,1.2,3.8,1.2
			c1.4,0,2.8-0.4,3.9-1.3c1.3-1.2,2-2.9,1.8-4.7V59.7c0.2-1.6-0.4-3.1-1.4-4.3c-1.1-1.2-2.7-1.8-4.3-1.7c-1.4,0-2.8,0.4-3.9,1.3
			c-1.3,1.2-1.9,2.9-1.8,4.7V74.5z M1262.5,74c0.1,0.7-0.1,1.4-0.4,2.1c-0.3,0.5-0.9,0.8-1.6,0.8c-0.6,0-1.2-0.3-1.6-0.8
			c-0.3-0.6-0.5-1.4-0.4-2.1V60.3c-0.1-0.7,0.1-1.4,0.4-2.1c0.4-0.5,0.9-0.8,1.6-0.8c0.6,0,1.2,0.3,1.6,0.8c0.3,0.6,0.5,1.4,0.4,2.1
			V74z M1268.4,67.1v3.3h8.3v-3.3H1268.4z M1282.5,80.1h3.7V54.1h-3.5l-4.1,3V61l4-2.9L1282.5,80.1z M1303.1,59.7c0-0.7,0-6-5.7-6
			s-5.7,5.3-5.7,6v2.9c-0.1,1.5,0.6,3,1.7,4c-2,1.4-1.7,3-1.7,4.6v3.3c0,0.7,0,6,5.7,6s5.7-5.3,5.7-6v-3.3c0-1.6,0.2-3.2-1.7-4.6
			c1.2-1,1.8-2.4,1.7-4V59.7z M1299.4,62.2c0,1-0.1,2.9-2,2.9s-2-1.9-2-2.9v-2c0-1,0.1-2.9,2-2.9s2,1.9,2,2.9V62.2z M1299.4,74
			c0,1-0.1,2.9-2,2.9s-2-1.9-2-2.9v-3.3c0-1,0.1-2.9,2-2.9s2,1.9,2,2.9V74z M1310.4,80.1h3.7V54.1h-3.5l-4.1,3V61l4-2.9L1310.4,80.1
			z M1319.2,67.1v3.3h8.3v-3.3H1319.2z M1329.7,61.4h3.7V60c0-0.7,0.2-1.3,0.6-1.9c0.3-0.4,0.8-0.7,1.4-0.7c0.5,0,1.1,0.2,1.5,0.6
			c0.4,0.4,0.6,1,0.6,1.6v3.3c0,0.6-0.2,1.2-0.6,1.7c-0.4,0.4-1,0.6-1.6,0.6h-0.8v3.3h0.9c0.6-0.1,1.2,0.1,1.6,0.5
			c0.4,0.5,0.6,1.2,0.5,1.9v3.9c0,1.8-1,2.2-2,2.2c-0.6,0-1.2-0.2-1.6-0.7c-0.3-0.5-0.5-1.2-0.5-1.8v-1.7h-3.7v2.6
			c0,1.4,0.5,2.8,1.5,3.7c1.1,1,2.5,1.5,4,1.4c1.6,0.1,3.2-0.4,4.4-1.5c1.4-1.4,1.5-3,1.5-5v-2.5c0-1.6-0.1-3.8-2.3-4.7
			c1.5-0.6,2.4-2.2,2.3-3.8v-3.7c0-1.6-0.6-3.2-1.9-4.2c-1.1-0.8-2.5-1.2-3.9-1.2c-1.4-0.1-2.7,0.4-3.8,1.3c-1.2,1-1.9,2.6-1.8,4.2
			L1329.7,61.4z M1343.8,54.1v6.5h3.3v-3h4l-5.9,22.5h3.7l5.9-22.5v-3.4H1343.8z M1362.4,54.1l-5.5,18.8v3.1h7.3v4h3.7v-4h1.8v-3.3
			h-1.8v-7.4h-3.7v7.3h-3.6l5.4-18.6L1362.4,54.1z"/>
	</g>
	<path id="パス_19940" class="st1" d="M1166.6,45.8c-0.2,0-0.4-0.1-0.6-0.3c-0.2-0.2-0.3-0.4-0.3-0.6V32.3c0-0.2,0.1-0.4,0.3-0.6
		c0.2-0.2,0.4-0.3,0.6-0.3h3.2c0.1,0,0.3,0.1,0.3,0.2c0.1,0.1,0,0.3-0.1,0.4c-0.8,0.9-1.4,1.9-1.8,3.1c-0.4,1.1-0.6,2.3-0.6,3.5
		c0,1.2,0.2,2.4,0.6,3.5c0.4,1.1,1,2.2,1.8,3.1c0.1,0.1,0.1,0.3,0.1,0.4c0,0.1-0.2,0.2-0.3,0.2L1166.6,45.8z M1177.9,39.7
		c-1.1,0.4-1.7,0.9-1.7,1.7c0,0.3,0.1,0.6,0.4,0.9c0.2,0.2,0.5,0.4,0.8,0.4c0.2,0,0.3,0,0.5-0.1c0.1-0.2,0.1-0.4,0.1-0.6v-2.1
		C1178,39.7,1177.9,39.7,1177.9,39.7z M1177.6,44.7c-1,0-1.9-0.3-2.7-1c-0.7-0.6-1.1-1.5-1.1-2.4c0-0.9,0.4-1.7,1-2.4
		c0.8-0.8,1.8-1.3,2.9-1.5c0.1,0,0.1-0.1,0.1-0.2v-1.6c0-0.1,0-0.1-0.1-0.1h-2.4c-0.2,0-0.4-0.1-0.6-0.3c-0.2-0.2-0.3-0.4-0.3-0.6
		v-0.2c0-0.2,0.1-0.4,0.3-0.6c0.2-0.2,0.4-0.3,0.6-0.3h2.4c0.1,0,0.1,0,0.1-0.1v-0.8c0-0.2,0.1-0.4,0.3-0.6c0.2-0.2,0.4-0.3,0.6-0.2
		h0.6c0.2,0,0.4,0.1,0.6,0.2c0.2,0.2,0.2,0.4,0.2,0.6v0.8c0,0.1,0,0.1,0.1,0.1h2.1c0.2,0,0.4,0.1,0.6,0.3c0.2,0.2,0.2,0.4,0.2,0.6
		v0.2c0,0.2-0.1,0.4-0.2,0.6c-0.2,0.2-0.4,0.3-0.6,0.3h-2.1c-0.1,0-0.1,0-0.1,0.1V37c0,0.1,0,0.1,0.1,0.1c0.1,0,0.1,0,0.3,0
		c0.1,0,0.2,0,0.3,0c1.3-0.1,2.5,0.3,3.6,1.1c0.9,0.6,1.4,1.6,1.4,2.6c0,2.2-1.2,3.5-3.5,4c-0.2,0.1-0.5,0-0.6-0.1
		c-0.2-0.1-0.3-0.3-0.4-0.6l-0.1-0.4c-0.1-0.2,0-0.4,0.1-0.6c0.1-0.2,0.3-0.3,0.5-0.4c1.1-0.3,1.6-0.9,1.6-1.8
		c0-0.5-0.3-0.9-0.7-1.1c-0.6-0.3-1.2-0.5-1.9-0.5c-0.1,0-0.2,0-0.3,0c-0.1,0-0.2,0-0.3,0c-0.1,0-0.1,0-0.1,0.1V42
		c0.1,0.7-0.1,1.5-0.6,2.1C1179.1,44.6,1178.4,44.8,1177.6,44.7z M1185.8,33.7c0.6,1,1.1,1.7,1.3,2.1c0.1,0.2,0.2,0.4,0.1,0.6
		c-0.1,0.2-0.2,0.4-0.4,0.5l-0.2,0.1c-0.2,0.1-0.4,0.1-0.7,0.1c-0.2-0.1-0.4-0.2-0.5-0.4c-0.4-0.6-0.8-1.3-1.3-2
		c-0.1-0.2-0.2-0.4-0.1-0.6c0-0.2,0.2-0.4,0.4-0.5l0.2-0.1c0.2-0.1,0.4-0.2,0.6-0.1C1185.5,33.4,1185.7,33.6,1185.8,33.7z
		 M1190.3,37.7c-0.2,0-0.4-0.1-0.6-0.3c-0.2-0.2-0.3-0.4-0.3-0.6v-1.9c0-0.2,0.1-0.4,0.3-0.6c0.2-0.2,0.4-0.3,0.6-0.3h4.8
		c0.1,0,0.1,0,0.1-0.1c0,0,0,0,0,0v-0.1c0-0.1,0-0.1-0.1-0.1h-4.1c-0.2,0-0.4-0.1-0.6-0.3c-0.2-0.2-0.3-0.4-0.3-0.6v-0.1
		c0-0.2,0.1-0.4,0.3-0.6c0.2-0.2,0.4-0.3,0.6-0.2h10.5c0.2,0,0.4,0.1,0.6,0.2c0.2,0.2,0.3,0.4,0.3,0.6v0.1c0,0.2-0.1,0.4-0.3,0.6
		c-0.2,0.2-0.4,0.3-0.6,0.3h-4.1c-0.1,0-0.1,0-0.1,0.1V34c0,0.1,0,0.1,0.1,0.1c0,0,0,0,0,0h4.8c0.2,0,0.4,0.1,0.6,0.3
		c0.2,0.2,0.3,0.4,0.3,0.6v1.9c0,0.2-0.1,0.4-0.3,0.6c-0.2,0.2-0.4,0.3-0.6,0.3h-0.5c-0.2,0-0.4-0.1-0.6-0.3
		c-0.2-0.2-0.2-0.4-0.2-0.6v-1.3c0-0.1,0-0.1-0.1-0.1h-3.3c-0.1,0-0.1,0-0.1,0.1c0,0,0,0,0,0v2c0,0.2-0.1,0.4-0.3,0.6
		c-0.2,0.2-0.4,0.2-0.6,0.2h-0.3c-0.2,0-0.4-0.1-0.6-0.2c-0.2-0.2-0.3-0.4-0.3-0.6v-2c0-0.1,0-0.1-0.1-0.1c0,0,0,0,0,0h-3.3
		c-0.1,0-0.1,0-0.1,0.1v1.3c0,0.2-0.1,0.4-0.2,0.6c-0.2,0.2-0.4,0.3-0.6,0.3H1190.3z M1192.6,36.9c-0.1,0-0.3-0.1-0.4-0.2
		c-0.1-0.1-0.2-0.2-0.2-0.4c0-0.1,0.1-0.3,0.2-0.4c0.1-0.1,0.2-0.2,0.4-0.2h1.6c0.1,0,0.3,0.1,0.4,0.2c0.1,0.1,0.2,0.2,0.1,0.4
		c0,0.1-0.1,0.3-0.1,0.4c-0.1,0.1-0.2,0.2-0.4,0.2H1192.6z M1192.6,38.3c-0.1,0-0.3-0.1-0.4-0.2c-0.1-0.1-0.2-0.2-0.2-0.4
		c0-0.1,0.1-0.3,0.2-0.4c0.1-0.1,0.2-0.2,0.4-0.2h1.6c0.1,0,0.3,0.1,0.4,0.2c0.1,0.1,0.2,0.2,0.1,0.4c0,0.1-0.1,0.3-0.1,0.4
		c-0.1,0.1-0.2,0.2-0.4,0.2H1192.6z M1198.2,36.9c-0.1,0-0.3-0.1-0.4-0.2c-0.1-0.1-0.2-0.2-0.1-0.4c0-0.1,0.1-0.3,0.1-0.4
		c0.1-0.1,0.2-0.2,0.4-0.2h1.6c0.1,0,0.3,0.1,0.4,0.2c0.1,0.1,0.2,0.2,0.2,0.4c0,0.1-0.1,0.3-0.2,0.4c-0.1,0.1-0.2,0.2-0.4,0.2
		H1198.2z M1198.2,38.3c-0.1,0-0.3-0.1-0.4-0.2c-0.1-0.1-0.2-0.2-0.1-0.4c0-0.1,0.1-0.3,0.1-0.4c0.1-0.1,0.2-0.2,0.4-0.2h1.6
		c0.1,0,0.3,0.1,0.4,0.2c0.1,0.1,0.2,0.2,0.2,0.4c0,0.1-0.1,0.3-0.2,0.4c-0.1,0.1-0.2,0.2-0.4,0.2H1198.2z M1196.8,45.5
		c-0.5,0-1-0.1-1.4-0.4c-0.3-0.4-0.4-1-0.3-1.5v-0.2c0-0.1,0-0.1-0.1-0.1h-2.3c-0.1,0-0.1,0-0.1,0.1c0,0,0,0,0,0
		c0,0.2-0.1,0.4-0.2,0.5c-0.1,0.1-0.3,0.2-0.5,0.2h-0.7c-0.2,0-0.4-0.1-0.6-0.3c-0.2-0.2-0.3-0.4-0.3-0.6v-3.8
		c0-0.2,0.1-0.4,0.3-0.6c0.2-0.2,0.4-0.3,0.6-0.3h10.1c0.2,0,0.4,0.1,0.6,0.3c0.2,0.2,0.3,0.4,0.3,0.6v2c0,0.1,0.1,0.1,0.1,0.1
		l0.1,0c0.2,0,0.4,0.1,0.6,0.3c0.2,0.2,0.2,0.4,0.2,0.6c0,0.5-0.1,0.8-0.1,1.1c0,0.3-0.1,0.5-0.2,0.8c-0.1,0.2-0.2,0.4-0.3,0.5
		c-0.2,0.1-0.3,0.2-0.5,0.3c-0.2,0.1-0.5,0.1-0.7,0.1c-0.2,0-0.6,0-1,0.1c-0.4,0-1,0-1.9,0C1197.7,45.6,1197.2,45.6,1196.8,45.5z
		 M1200.8,43.5C1200.8,43.5,1200.8,43.4,1200.8,43.5c0-0.1-0.1-0.1-0.1-0.1h-3.2c-0.1,0-0.1,0-0.1,0.1c0,0.1,0,0.2,0.1,0.2
		c0.1,0,0.2,0.1,0.4,0.1c0.2,0,0.5,0,0.9,0c0.5,0,0.9,0,1.2,0l0.4,0c0.1,0,0.2,0,0.2-0.1C1200.7,43.7,1200.8,43.6,1200.8,43.5z
		 M1197.4,40.2v0.2c0,0.1,0,0.1,0.1,0.1h2.2c0.1,0,0.1,0,0.1-0.1c0,0,0,0,0,0v-0.2c0-0.1,0-0.1-0.1-0.1h-2.2
		C1197.5,40,1197.4,40.1,1197.4,40.2C1197.4,40.2,1197.4,40.2,1197.4,40.2z M1197.4,41.7v0.2c0,0.1,0,0.1,0.1,0.1h2.2
		c0.1,0,0.1,0,0.1-0.1c0,0,0,0,0,0v-0.2c0-0.1,0-0.1-0.1-0.1h-2.2C1197.5,41.6,1197.4,41.6,1197.4,41.7
		C1197.4,41.7,1197.4,41.7,1197.4,41.7z M1192.6,40.2v0.2c0,0.1,0,0.1,0.1,0.1c0,0,0,0,0,0h2.2c0.1,0,0.1,0,0.1-0.1c0,0,0,0,0,0
		v-0.2c0-0.1,0-0.1-0.1-0.1h-2.2C1192.6,40.1,1192.6,40.1,1192.6,40.2z M1194.9,42c0.1,0,0.1,0,0.1-0.1c0,0,0,0,0,0v-0.2
		c0-0.1,0-0.1-0.1-0.1h-2.2c-0.1,0-0.1,0-0.1,0.1v0.2c0,0.1,0,0.1,0.1,0.1c0,0,0,0,0,0H1194.9z M1216.2,37.8c-0.1,0-0.1,0-0.1,0.1
		c0,0,0,0,0,0V39c0,0.1,0,0.1,0.1,0.1h1.5c0.2,0,0.4,0.1,0.6,0.3c0.2,0.2,0.3,0.4,0.3,0.6v4.6c0,0.2-0.1,0.4-0.3,0.6
		c-0.2,0.2-0.4,0.3-0.6,0.3h-0.9c-0.3,0-0.6-0.2-0.6-0.6c0,0,0,0,0,0c0-0.1,0-0.1-0.1-0.1h-2.7c-0.1,0-0.1,0-0.1,0.1
		c0,0.3-0.2,0.6-0.6,0.6c0,0,0,0,0,0h-0.7c-0.2,0-0.4-0.1-0.6-0.3c-0.2-0.2-0.3-0.4-0.3-0.6V40c0-0.2,0.1-0.4,0.2-0.6
		c0.2-0.2,0.4-0.3,0.6-0.3h1.5c0.1,0,0.1,0,0.1-0.1c0,0,0,0,0,0v-1.1c0-0.1,0-0.1-0.1-0.1h-2.2c-0.2,0-0.4-0.1-0.6-0.3
		c-0.2-0.2-0.3-0.4-0.3-0.6v-0.2c0-0.2,0.1-0.4,0.3-0.6c0.2-0.2,0.4-0.3,0.6-0.3h2.2c0.1,0,0.1,0,0.1-0.1v-1c0-0.1,0-0.1-0.1-0.1
		c-0.6,0.1-1.1,0.1-1.5,0.1c-0.2,0-0.4-0.1-0.6-0.2c-0.2-0.1-0.3-0.4-0.3-0.6l0-0.3c0-0.2,0.1-0.4,0.2-0.6c0.1-0.2,0.4-0.3,0.6-0.3
		c1.8-0.1,3.6-0.4,5.3-0.8c0.2-0.1,0.5,0,0.7,0.1c0.2,0.1,0.3,0.3,0.4,0.5l0.1,0.3c0.1,0.2,0,0.5-0.1,0.7c-0.1,0.2-0.3,0.3-0.5,0.4
		c-0.5,0.1-1.1,0.2-1.7,0.3c-0.1,0-0.1,0.1-0.1,0.1v1.3c0,0.1,0,0.1,0.1,0.1c0,0,0,0,0,0h2c0.2,0,0.4,0.1,0.6,0.3
		c0.2,0.2,0.3,0.4,0.3,0.6v0.2c0,0.2-0.1,0.4-0.3,0.6c-0.2,0.2-0.4,0.3-0.6,0.3L1216.2,37.8z M1216.1,40.9h-2.6
		c-0.1,0-0.1,0-0.1,0.1v1.9c0,0.1,0,0.1,0.1,0.1h2.6c0.1,0,0.1,0,0.1-0.1c0,0,0,0,0,0V41C1216.3,40.9,1216.2,40.9,1216.1,40.9
		C1216.2,40.9,1216.2,40.9,1216.1,40.9z M1209.8,32.2c0.2,0,0.4,0.1,0.6,0.3c0.2,0.2,0.3,0.4,0.3,0.6c0,0.2-0.1,0.4-0.2,0.6
		c-0.2,0.2-0.4,0.3-0.6,0.2h-3.4c-0.2,0-0.4-0.1-0.6-0.2c-0.2-0.2-0.3-0.4-0.2-0.6c0-0.2,0.1-0.4,0.3-0.6c0.2-0.2,0.4-0.3,0.6-0.3
		H1209.8z M1206,36.2c-0.2,0-0.4-0.1-0.6-0.3c-0.2-0.2-0.2-0.4-0.2-0.6v-0.2c0-0.2,0.1-0.4,0.2-0.6c0.2-0.2,0.4-0.3,0.6-0.3h4.1
		c0.2,0,0.4,0.1,0.6,0.3c0.2,0.2,0.2,0.4,0.2,0.6v0.2c0,0.2-0.1,0.4-0.2,0.6c-0.2,0.2-0.4,0.3-0.6,0.3L1206,36.2z M1206.5,38.3
		c-0.2,0-0.4-0.1-0.6-0.2c-0.2-0.2-0.2-0.4-0.2-0.6c0-0.2,0.1-0.4,0.2-0.6c0.2-0.2,0.4-0.2,0.6-0.2h3.3c0.2,0,0.4,0.1,0.6,0.2
		c0.2,0.2,0.3,0.4,0.2,0.6c0,0.2-0.1,0.4-0.2,0.6c-0.2,0.2-0.4,0.2-0.6,0.2H1206.5z M1206.5,40.4c-0.2,0-0.4-0.1-0.6-0.2
		c-0.2-0.2-0.2-0.4-0.2-0.6c0-0.2,0.1-0.4,0.2-0.6c0.2-0.2,0.4-0.3,0.6-0.2h3.3c0.2,0,0.4,0.1,0.6,0.2c0.2,0.2,0.2,0.4,0.2,0.6
		c0,0.2-0.1,0.4-0.2,0.6c-0.1,0.2-0.4,0.2-0.6,0.2H1206.5z M1210.7,41.7v2.5c0,0.2-0.1,0.4-0.2,0.6c-0.2,0.2-0.4,0.3-0.6,0.2h-2.2
		c0,0-0.1,0-0.1,0.1c0,0,0,0,0,0c0,0.2-0.2,0.4-0.4,0.4l0,0h-0.8c-0.2,0-0.4-0.1-0.6-0.3c-0.2-0.2-0.3-0.4-0.3-0.6v-3
		c0-0.2,0.1-0.4,0.3-0.6c0.2-0.2,0.4-0.3,0.6-0.2h3.5c0.2,0,0.4,0.1,0.6,0.2C1210.6,41.3,1210.7,41.5,1210.7,41.7L1210.7,41.7z
		 M1208.9,43.3v-0.7c0-0.1,0-0.1-0.1-0.1c0,0,0,0,0,0h-1c-0.1,0-0.1,0-0.1,0.1c0,0,0,0,0,0v0.7c0,0.1,0,0.1,0.1,0.1c0,0,0,0,0,0h1
		C1208.8,43.5,1208.9,43.4,1208.9,43.3C1208.9,43.3,1208.9,43.3,1208.9,43.3z M1232.8,33.4c0.2,0,0.4,0.1,0.6,0.3
		c0.2,0.2,0.3,0.4,0.3,0.6v0.4c0,0.2-0.1,0.4-0.3,0.6c-0.2,0.2-0.4,0.3-0.6,0.3h-4.8c-0.2,0-0.4-0.1-0.6-0.3
		c-0.2-0.2-0.3-0.4-0.3-0.6v-0.4c0-0.2,0.1-0.4,0.3-0.6c0.2-0.2,0.4-0.3,0.6-0.3H1232.8z M1223.6,44.8c-0.2,0-0.5,0-0.7-0.2
		c-0.2-0.1-0.3-0.3-0.4-0.6c-0.4-1.8-0.6-3.6-0.6-5.4c0-1.8,0.2-3.7,0.6-5.4c0-0.2,0.2-0.4,0.4-0.6c0.2-0.1,0.4-0.2,0.7-0.2l0.7,0.1
		c0.2,0,0.4,0.1,0.5,0.3c0.1,0.2,0.2,0.4,0.1,0.6c-0.4,1.7-0.5,3.4-0.5,5.2c0,1.7,0.2,3.5,0.5,5.2c0.1,0.2,0,0.4-0.1,0.6
		c-0.1,0.2-0.3,0.3-0.5,0.3L1223.6,44.8z M1230.5,44.3c-1.2,0.1-2.4-0.2-3.4-0.8c-0.8-0.5-1.2-1.4-1.2-2.3c0-0.4,0.1-0.9,0.3-1.3
		c0.3-0.5,0.6-1,0.9-1.4c0.1-0.2,0.4-0.3,0.6-0.3c0.2,0,0.5,0.1,0.7,0.2l0.3,0.3c0.2,0.1,0.3,0.3,0.3,0.6c0,0.2,0,0.4-0.2,0.6
		c-0.3,0.3-0.5,0.7-0.6,1.2c0,0.4,0.2,0.7,0.5,0.8c0.5,0.2,1.1,0.3,1.7,0.3c0.8,0,1.6-0.1,2.5-0.2c0.2,0,0.4,0,0.6,0.1
		c0.2,0.1,0.3,0.3,0.3,0.5l0.1,0.4c0,0.2,0,0.5-0.1,0.7c-0.1,0.2-0.3,0.3-0.5,0.4C1232.3,44.2,1231.4,44.3,1230.5,44.3z
		 M1241.7,40.7c-1.1,0-1.6,0.4-1.6,1.1c0,0.3,0.1,0.7,0.4,0.9c0.4,0.2,0.8,0.3,1.2,0.3c0.3,0,0.6-0.1,0.9-0.3
		c0.2-0.4,0.3-0.8,0.3-1.2V41c0-0.1-0.1-0.1-0.1-0.2C1242.4,40.8,1242,40.7,1241.7,40.7z M1241.7,45c-1,0.1-2.1-0.2-2.9-0.9
		c-0.7-0.6-1-1.4-1-2.3c0-0.9,0.3-1.7,1-2.3c0.8-0.6,1.9-0.9,2.9-0.8c0.3,0,0.7,0,1,0c0.1,0,0.1,0,0.1-0.1v-5.8
		c0-0.2,0.1-0.4,0.3-0.6c0.2-0.2,0.4-0.2,0.6-0.2h0.7c0.2,0,0.4,0.1,0.6,0.2c0.2,0.2,0.3,0.4,0.3,0.6v1.3c0,0.1,0,0.1,0.1,0.1
		c0,0,0,0,0,0h3.4c0.2,0,0.4,0.1,0.6,0.2c0.2,0.2,0.3,0.4,0.3,0.6v0.4c0,0.2-0.1,0.4-0.3,0.6c-0.2,0.2-0.4,0.2-0.6,0.2h-3.4
		c-0.1,0-0.1,0-0.1,0.1c0,0,0,0,0,0v2.9c0,0.1,0,0.1,0.1,0.2c1.4,0.7,2.7,1.6,3.9,2.6c0.2,0.1,0.3,0.3,0.3,0.6c0,0.2,0,0.4-0.2,0.6
		l-0.3,0.4c-0.2,0.2-0.4,0.3-0.6,0.3c-0.2,0-0.5,0-0.6-0.2c-1.1-0.9-1.9-1.4-2.4-1.8c0,0-0.1,0-0.1,0c0,0-0.1,0-0.1,0.1
		c0,0.8-0.4,1.7-1,2.2C1243.5,44.8,1242.6,45.1,1241.7,45z M1259.8,43c0.1-0.2,0.1-0.5,0.1-0.7c0-0.2-0.1-0.5-0.3-0.6
		c-0.3-0.2-0.7-0.2-1.1-0.2c-0.3,0-0.7,0-1,0.2c-0.2,0.1-0.3,0.3-0.3,0.5c0,0.6,0.8,0.9,2.3,0.9h0l0,0
		C1259.7,43.1,1259.7,43,1259.8,43L1259.8,43z M1254,39.4l-0.1-0.1c-0.1-0.2-0.1-0.4,0-0.7c0.1-0.2,0.2-0.4,0.4-0.5l5.7-3.4l0,0
		h-4.6c-0.2,0-0.4-0.1-0.6-0.3c-0.2-0.2-0.2-0.4-0.2-0.6v-0.3c0-0.2,0.1-0.4,0.2-0.6c0.2-0.2,0.4-0.3,0.6-0.3h8.1
		c0.2,0,0.4,0.1,0.6,0.3c0.2,0.2,0.3,0.4,0.3,0.6v0.3c0,0.5-0.3,1-0.7,1.2l-3.7,2v0h0c0.5-0.1,0.9-0.1,1.4-0.1
		c1.1-0.1,2.2,0.3,3.2,0.9c0.7,0.6,1.2,1.6,1.1,2.5c0.1,1.3-0.5,2.6-1.6,3.3c-1.3,0.9-2.9,1.3-4.5,1.2c-3,0-4.5-0.9-4.5-2.8
		c0-0.7,0.4-1.4,1-1.7c0.8-0.5,1.7-0.8,2.7-0.7c0.9-0.1,1.7,0.1,2.5,0.6c0.5,0.4,0.8,1,0.8,1.7c0,0.2,0,0.3,0,0.5c0,0,0,0,0,0.1
		c0,0,0,0,0.1,0c0.7-0.4,1.2-1.2,1.1-2c0-1.2-0.9-1.9-2.8-1.9c-0.9,0-1.7,0.1-2.6,0.2c-0.9,0.2-1.7,0.5-2.5,0.8
		c-0.2,0.1-0.5,0.1-0.7,0C1254.3,39.8,1254.1,39.6,1254,39.4z M1273,39.7c-1.1,0.4-1.7,0.9-1.7,1.7c0,0.3,0.1,0.6,0.4,0.9
		c0.2,0.2,0.5,0.4,0.8,0.4c0.2,0,0.3,0,0.5-0.1c0.1-0.2,0.1-0.4,0.1-0.6v-2.1C1273.1,39.7,1273.1,39.7,1273,39.7z M1272.8,44.7
		c-1,0-1.9-0.3-2.7-1c-0.7-0.6-1.1-1.5-1.1-2.4c0-0.9,0.4-1.7,1-2.4c0.8-0.8,1.8-1.3,2.9-1.5c0.1,0,0.1-0.1,0.1-0.2v-1.6
		c0-0.1,0-0.1-0.1-0.1h-2.4c-0.2,0-0.4-0.1-0.6-0.3c-0.2-0.2-0.3-0.4-0.2-0.6v-0.2c0-0.2,0.1-0.4,0.3-0.6c0.2-0.2,0.4-0.3,0.6-0.3
		h2.4c0.1,0,0.1,0,0.1-0.1v-0.8c0-0.2,0.1-0.4,0.3-0.6c0.2-0.2,0.4-0.3,0.6-0.2h0.6c0.2,0,0.4,0.1,0.6,0.2c0.2,0.2,0.2,0.4,0.2,0.6
		v0.8c0,0.1,0,0.1,0.1,0.1h2.1c0.2,0,0.4,0.1,0.6,0.3c0.2,0.2,0.2,0.4,0.2,0.6v0.2c0,0.2-0.1,0.4-0.2,0.6c-0.2,0.2-0.4,0.3-0.6,0.3
		h-2.1c-0.1,0-0.1,0-0.1,0.1V37c0,0.1,0,0.1,0.1,0.1c0.1,0,0.1,0,0.3,0c0.1,0,0.2,0,0.3,0c1.3-0.1,2.5,0.3,3.6,1.1
		c0.9,0.6,1.4,1.6,1.4,2.6c0,2.2-1.2,3.5-3.5,4c-0.2,0.1-0.5,0-0.6-0.1c-0.2-0.1-0.3-0.3-0.4-0.6l-0.1-0.4c-0.1-0.2,0-0.4,0.1-0.6
		c0.1-0.2,0.3-0.3,0.5-0.4c1.1-0.3,1.6-0.9,1.6-1.8c0-0.5-0.3-0.9-0.7-1.1c-0.6-0.3-1.2-0.5-1.9-0.5c-0.1,0-0.2,0-0.3,0
		s-0.2,0-0.3,0c-0.1,0-0.1,0-0.1,0.1V42c0.1,0.7-0.1,1.5-0.6,2.1C1274.3,44.6,1273.5,44.8,1272.8,44.7z M1281,33.7
		c0.6,1,1.1,1.7,1.3,2.1c0.1,0.2,0.2,0.4,0.1,0.6c-0.1,0.2-0.2,0.4-0.4,0.5l-0.2,0.1c-0.2,0.1-0.4,0.1-0.7,0.1
		c-0.2-0.1-0.4-0.2-0.5-0.4c-0.4-0.6-0.8-1.3-1.3-2c-0.1-0.2-0.2-0.4-0.1-0.6c0-0.2,0.2-0.4,0.4-0.5l0.2-0.1
		c0.2-0.1,0.4-0.2,0.6-0.1C1280.6,33.4,1280.8,33.6,1281,33.7z M1285.6,45.4c-0.2,0-0.4-0.1-0.6-0.3c-0.2-0.2-0.3-0.4-0.3-0.6V32.8
		c0-0.2,0.1-0.4,0.3-0.6c0.2-0.2,0.4-0.3,0.6-0.2h4.6c0.2,0,0.4,0.1,0.6,0.2c0.2,0.2,0.2,0.4,0.2,0.6v4.4c0,0.2-0.1,0.4-0.2,0.6
		c-0.2,0.2-0.4,0.3-0.6,0.3h-3c-0.1,0-0.1,0-0.1,0.1c0,0,0,0,0,0v6.4c0,0.2-0.1,0.4-0.3,0.6c-0.2,0.2-0.4,0.3-0.6,0.3H1285.6z
		 M1287,33.8v0.4c0,0.1,0,0.1,0.1,0.1c0,0,0,0,0,0h1.9c0.1,0,0.1,0,0.1-0.1c0,0,0,0,0,0v-0.4c0-0.1,0-0.1-0.1-0.1c0,0,0,0,0,0h-1.9
		C1287.1,33.7,1287,33.7,1287,33.8C1287,33.8,1287,33.8,1287,33.8L1287,33.8z M1287,36v0.4c0,0.1,0,0.1,0.1,0.1c0,0,0,0,0,0h1.9
		c0.1,0,0.1,0,0.1-0.1c0,0,0,0,0,0V36c0-0.1,0-0.1-0.1-0.1h-1.9C1287,35.9,1287,35.9,1287,36L1287,36z M1293.4,44.2
		c0-0.1,0-0.1,0-0.2c0-0.1,0-0.1-0.1-0.1h-3.1c0,0-0.1,0-0.1,0.1c0,0,0,0,0,0c0,0.2-0.1,0.3-0.2,0.4c-0.1,0.1-0.2,0.2-0.4,0.2h-0.6
		c-0.2,0-0.4-0.1-0.6-0.3c-0.2-0.2-0.3-0.4-0.3-0.6v-3.8c0-0.2,0.1-0.4,0.3-0.6c0.2-0.2,0.4-0.2,0.6-0.2h4.9c0.2,0,0.4,0.1,0.6,0.2
		c0.2,0.2,0.3,0.4,0.3,0.6V43c0,0.1,0,0.2-0.1,0.3c0,0.1,0,0.1,0.1,0.1h0.4c0.2,0,0.4,0,0.6-0.1c0.1-0.1,0.1-0.2,0.1-0.5v-4.6
		c0-0.1,0-0.1-0.1-0.1c0,0,0,0,0,0h-3.2c-0.2,0-0.4-0.1-0.6-0.3c-0.2-0.2-0.3-0.4-0.3-0.6v-4.4c0-0.2,0.1-0.4,0.3-0.6
		c0.2-0.2,0.4-0.3,0.6-0.2h4.7c0.2,0,0.4,0.1,0.6,0.2c0.2,0.2,0.2,0.4,0.2,0.6v9.9c0,0.5,0,0.8,0,1.1c0,0.2-0.1,0.5-0.1,0.7
		c0,0.2-0.1,0.3-0.2,0.5c-0.1,0.1-0.3,0.2-0.5,0.3c-0.2,0.1-0.5,0.1-0.7,0.1c-0.2,0-0.6,0-1,0c-0.4,0-0.8,0-1.2,0
		c-0.2,0-0.5-0.1-0.6-0.3c-0.2-0.2-0.3-0.4-0.3-0.6L1293.4,44.2z M1293.5,33.8v0.4c0,0.1,0,0.1,0.1,0.1c0,0,0,0,0,0h2.1
		c0.1,0,0.1,0,0.1-0.1c0,0,0,0,0,0v-0.4c0-0.1,0-0.1-0.1-0.1c0,0,0,0,0,0h-2.1C1293.5,33.7,1293.5,33.7,1293.5,33.8
		C1293.5,33.8,1293.5,33.8,1293.5,33.8z M1295.7,36.5c0.1,0,0.1,0,0.1-0.1c0,0,0,0,0,0V36c0-0.1,0-0.1-0.1-0.1h-2.1
		c-0.1,0-0.1,0-0.1,0.1v0.4c0,0.1,0,0.1,0.1,0.1c0,0,0,0,0,0H1295.7z M1292.7,42.3v-1.5c0-0.1,0-0.1-0.1-0.1c0,0,0,0,0,0h-2.3
		c-0.1,0-0.1,0-0.1,0.1c0,0,0,0,0,0v1.5c0,0.1,0,0.1,0.1,0.1h2.3C1292.6,42.4,1292.7,42.3,1292.7,42.3z M1311.2,42.3
		c-0.1-2.6-0.6-5.2-1.5-7.6c-0.1-0.2-0.1-0.4,0-0.6c0.1-0.2,0.3-0.3,0.5-0.4l0.6-0.2c0.2-0.1,0.5-0.1,0.7,0.1
		c0.2,0.1,0.4,0.3,0.5,0.5c1.1,2.6,1.6,5.4,1.7,8.3c0,0.2-0.1,0.4-0.2,0.6c-0.2,0.2-0.4,0.3-0.6,0.2h-0.7c-0.2,0-0.4-0.1-0.6-0.3
		C1311.3,42.8,1311.2,42.6,1311.2,42.3z M1304.8,44.8c-1.1-0.1-2-0.8-2.5-1.8c-0.8-1.3-1.2-2.8-1.1-4.3c0-1.5,0.2-3,0.6-4.5
		c0.1-0.2,0.2-0.4,0.4-0.6c0.2-0.1,0.4-0.2,0.7-0.2l0.7,0.1c0.2,0,0.4,0.1,0.5,0.3c0.1,0.2,0.2,0.4,0.1,0.6
		c-0.3,1.4-0.5,2.8-0.5,4.3c0,0.9,0.1,1.8,0.5,2.6c0.3,0.7,0.6,1.1,0.9,1.1c0.2,0,0.4-0.2,0.8-0.6c0.4-0.5,0.7-1.1,1-1.7
		c0.1-0.2,0.3-0.4,0.5-0.5c0.2-0.1,0.4-0.1,0.7,0l0.5,0.2c0.2,0.1,0.4,0.2,0.5,0.4c0.1,0.2,0.1,0.4,0,0.7c-0.4,1.1-1.1,2.1-1.9,2.9
		C1306.4,44.4,1305.6,44.8,1304.8,44.8z M1327.8,38.8c0.2,0,0.4,0.1,0.6,0.3c0.2,0.2,0.3,0.4,0.3,0.6v4.9c0,0.2-0.1,0.4-0.3,0.6
		c-0.2,0.2-0.4,0.3-0.6,0.2h-1c-0.3,0-0.5-0.2-0.6-0.5c0,0,0,0,0,0c0,0,0-0.1-0.1-0.1c0,0,0,0,0,0h-6.1c0,0-0.1,0-0.1,0.1
		c0,0,0,0,0,0c0,0.2-0.1,0.3-0.2,0.4c-0.1,0.1-0.3,0.2-0.4,0.2h-1c-0.2,0-0.4-0.1-0.6-0.2c-0.2-0.2-0.3-0.4-0.3-0.6v-4.9
		c0-0.2,0.1-0.4,0.3-0.6c0.2-0.2,0.4-0.3,0.6-0.3L1327.8,38.8z M1326.3,42.8v-2c0-0.1,0-0.1-0.1-0.1c0,0,0,0,0,0h-6
		c-0.1,0-0.1,0-0.1,0.1c0,0,0,0,0,0v2c0,0.1,0,0.1,0.1,0.1c0,0,0,0,0,0h6C1326.2,43,1326.3,42.9,1326.3,42.8
		C1326.3,42.8,1326.3,42.8,1326.3,42.8L1326.3,42.8z M1316.6,37.1l-0.2-0.4c-0.1-0.2-0.1-0.5,0-0.7c0.1-0.2,0.2-0.4,0.4-0.5
		c1.5-0.9,2.9-1.9,4.2-3.1c0.4-0.4,0.9-0.6,1.5-0.6h1.3c0.5,0,1.1,0.2,1.5,0.6c1.3,1.2,2.7,2.3,4.2,3.1c0.2,0.1,0.4,0.3,0.4,0.5
		c0.1,0.2,0.1,0.5,0,0.7l-0.2,0.4c-0.1,0.2-0.3,0.4-0.5,0.4c-0.2,0.1-0.4,0.1-0.6-0.1c-0.1-0.1-0.5-0.3-1.1-0.7
		c-0.1-0.1-0.1,0-0.1,0.1c0,0.2-0.1,0.4-0.2,0.6c-0.2,0.2-0.4,0.2-0.6,0.2h-6.7c-0.2,0-0.4-0.1-0.6-0.2c-0.2-0.2-0.2-0.4-0.2-0.6
		c0,0,0-0.1,0-0.1c0,0-0.1,0-0.1,0c-0.4,0.3-0.8,0.5-1.1,0.7c-0.2,0.1-0.4,0.1-0.6,0.1C1316.9,37.5,1316.7,37.3,1316.6,37.1
		L1316.6,37.1z M1320.4,35.7C1320.4,35.8,1320.4,35.8,1320.4,35.7l5.4,0.1c0.1,0,0.1,0,0-0.1c-0.9-0.7-1.8-1.5-2.6-2.3
		c-0.1-0.1-0.1-0.1-0.2,0C1322.2,34.2,1321.3,35,1320.4,35.7L1320.4,35.7z M1332.6,40.2c1-1.2,1.9-2.2,2.6-2.9
		c0.1-0.1,0.1-0.1,0.1-0.2v-0.9c0-0.1,0-0.1-0.1-0.1h-1.8c-0.2,0-0.4-0.1-0.6-0.3c-0.2-0.2-0.3-0.4-0.3-0.6V35
		c0-0.2,0.1-0.4,0.3-0.6c0.2-0.2,0.4-0.3,0.6-0.2h1.8c0.1,0,0.1,0,0.1-0.1v-1.1c0-0.2,0.1-0.4,0.3-0.6c0.2-0.2,0.4-0.3,0.6-0.3h0.5
		c0.2,0,0.4,0.1,0.6,0.3c0.2,0.2,0.2,0.4,0.2,0.6v2.2c0,0.1,0,0.1,0.1,0c1-0.9,2.3-1.5,3.7-1.5c1.2-0.1,2.3,0.4,3.1,1.3
		c0.8,1.3,1.1,2.8,1,4.2c0.1,1.4-0.3,2.8-1.2,3.9c-0.8,0.9-1.9,1.4-3.1,1.4c-0.6,0-1.2-0.1-1.8-0.3c-0.2-0.1-0.4-0.2-0.5-0.5
		c-0.1-0.2-0.1-0.5,0-0.7l0.1-0.4c0.1-0.2,0.2-0.4,0.4-0.5c0.2-0.1,0.4-0.1,0.7-0.1c0.3,0.1,0.7,0.2,1,0.2c1.3,0,1.9-1,1.9-3.1
		c0.1-0.9-0.1-1.8-0.4-2.6c-0.3-0.5-0.9-0.7-1.4-0.6c-0.9,0-2.1,0.7-3.6,2.2c-0.1,0.1-0.1,0.1-0.1,0.2v5.9c0,0.2-0.1,0.4-0.2,0.6
		c-0.2,0.2-0.4,0.3-0.6,0.3h-0.5c-0.2,0-0.4-0.1-0.6-0.3c-0.2-0.2-0.3-0.4-0.3-0.6v-3.6c0,0,0,0,0,0c0,0,0,0-0.1,0
		c-0.6,0.7-1,1.1-1,1.2c-0.1,0.2-0.3,0.3-0.6,0.3c-0.2,0-0.4-0.1-0.6-0.2l-0.4-0.3c-0.2-0.2-0.3-0.4-0.3-0.6
		C1332.3,40.6,1332.4,40.4,1332.6,40.2L1332.6,40.2z M1349.1,36.7c-0.2,0-0.4-0.1-0.6-0.2c-0.2-0.2-0.3-0.4-0.2-0.6v-0.3
		c0-0.2,0.1-0.4,0.2-0.6c0.2-0.2,0.4-0.3,0.6-0.3h1.2c0.1,0,0.1,0,0.1-0.1v-1.4c0-0.2,0.1-0.4,0.3-0.6c0.2-0.2,0.4-0.3,0.6-0.2h0.6
		c0.2,0,0.4,0.1,0.6,0.2c0.2,0.2,0.3,0.4,0.3,0.6v1.3c0,0.1,0,0.1,0.1,0.1c1.9,0,3.2-0.1,4.1-0.1c0.1,0,0.1,0,0.1-0.1c0,0,0,0,0,0
		v-1.5c0-0.2,0.1-0.4,0.3-0.6c0.2-0.2,0.4-0.3,0.6-0.3h0.5c0.2,0,0.4,0.1,0.6,0.3c0.2,0.2,0.3,0.4,0.3,0.6v1.5c0,0.1,0,0.1,0.1,0.1
		c0,0,0,0,0,0c0.1,0,0.3,0,0.5,0c0.2,0,0.4,0,0.5,0c0.2,0,0.4,0.1,0.6,0.2c0.2,0.1,0.3,0.4,0.3,0.6l0,0.3c0,0.2-0.1,0.4-0.2,0.6
		c-0.2,0.2-0.4,0.3-0.6,0.3c-0.1,0-0.3,0-0.6,0c-0.2,0-0.4,0-0.5,0c-0.1,0-0.1,0-0.1,0.1v2.3c0.1,0.6-0.1,1.2-0.5,1.7
		c-0.4,0.4-0.9,0.6-1.5,0.5c-0.8,0-1.6-0.1-2.3-0.3c-0.2,0-0.4-0.2-0.5-0.4c-0.1-0.2-0.2-0.4-0.1-0.7l0.1-0.4c0-0.2,0.2-0.4,0.4-0.5
		c0.2-0.1,0.4-0.2,0.6-0.1c0.4,0.1,0.8,0.1,1.2,0.2c0.2,0,0.3,0,0.3-0.1c0.1-0.2,0.1-0.4,0.1-0.5v-1.4c0-0.1,0-0.1-0.1-0.1l-1.3,0
		l-1.5,0c-0.5,0-1,0-1.3,0c-0.1,0-0.1,0-0.1,0.1c0,0,0,0,0,0V41c0,0.4,0,0.8,0.2,1.1c0.2,0.2,0.4,0.4,0.7,0.5
		c0.6,0.1,1.2,0.2,1.8,0.1c1,0,2.2-0.1,3.5-0.2c0.2,0,0.4,0,0.6,0.2c0.2,0.1,0.3,0.3,0.3,0.6l0,0.4c0,0.2,0,0.5-0.2,0.6
		c-0.1,0.2-0.3,0.3-0.6,0.3c-1.2,0.1-2.5,0.2-3.7,0.2c-0.7,0-1.4,0-2.1-0.1c-0.5-0.1-1-0.2-1.4-0.4c-0.4-0.1-0.7-0.4-0.9-0.7
		c-0.2-0.3-0.4-0.7-0.5-1.1c-0.1-0.5-0.2-1-0.1-1.6v-4.2c0-0.1,0-0.1-0.1-0.1c-0.1,0-0.3,0-0.6,0
		C1349.5,36.7,1349.3,36.7,1349.1,36.7z M1365.5,45.8c-0.1,0-0.3-0.1-0.3-0.2c-0.1-0.1,0-0.3,0.1-0.4c0.8-0.9,1.4-1.9,1.8-3.1
		c0.4-1.1,0.6-2.3,0.6-3.5c0-1.2-0.2-2.4-0.6-3.5c-0.4-1.1-1-2.2-1.8-3.1c-0.1-0.1-0.1-0.3-0.1-0.4c0-0.1,0.2-0.2,0.3-0.2h3.2
		c0.2,0,0.4,0.1,0.6,0.3c0.2,0.2,0.3,0.4,0.3,0.6v12.7c0,0.2-0.1,0.4-0.3,0.6c-0.2,0.2-0.4,0.3-0.6,0.3H1365.5z"/>
	<path id="パス_19941" class="st1" d="M1168.1,94.9c-0.2,0-0.3-0.1-0.4-0.2c-0.1-0.1-0.2-0.3-0.2-0.4v-1.5c0-0.2,0.1-0.3,0.2-0.4
		c0.1-0.1,0.3-0.2,0.4-0.2h1.3c0.1,0,0.1,0,0.1-0.1c-0.1-0.3-0.3-0.6-0.4-0.9c0,0-0.1-0.1-0.1-0.1h-0.1c-0.2,0-0.3-0.1-0.5-0.2
		c-0.1-0.1-0.2-0.3-0.2-0.4l0-0.2c0-0.2,0-0.3,0.1-0.4c0.1-0.1,0.3-0.2,0.4-0.2c2.5,0,4.9-0.2,7.4-0.5c0.2,0,0.3,0,0.5,0.1
		c0.1,0.1,0.2,0.2,0.3,0.4l0.1,0.2c0,0.2,0,0.3-0.1,0.5c-0.1,0.1-0.2,0.2-0.4,0.3c-0.2,0-0.6,0.1-1,0.1c0,0,0,0,0,0s0,0,0,0l0.1,0
		c0.2,0,0.3,0.1,0.4,0.3c0.1,0.1,0.1,0.3,0,0.5l-0.2,0.6c0,0.1,0,0.1,0.1,0.1h1c0.2,0,0.3,0.1,0.4,0.2c0.1,0.1,0.2,0.3,0.2,0.4v1.5
		c0,0.2-0.1,0.3-0.2,0.4c-0.1,0.1-0.3,0.2-0.4,0.2h-0.5c-0.1,0-0.2,0-0.3-0.1c0,0-0.1,0-0.1,0c0,0.4-0.2,0.7-0.4,1
		c-0.4,0.4-0.9,0.8-1.4,1.2c0,0,0,0.1,0,0.1c0.9,0.2,1.7,0.4,2.6,0.6c0.2,0,0.3,0.1,0.4,0.3c0.1,0.1,0.1,0.3,0,0.4l-0.1,0.2
		c-0.1,0.2-0.2,0.3-0.3,0.4c-0.2,0.1-0.3,0.1-0.5,0.1c-1.3-0.2-2.6-0.6-3.9-1.1c-0.1,0-0.1,0-0.2,0c-1.2,0.5-2.4,0.8-3.6,1
		c-0.2,0-0.3,0-0.5-0.1c-0.2-0.1-0.3-0.2-0.3-0.4l-0.1-0.2c-0.1-0.1,0-0.3,0-0.4c0.1-0.1,0.2-0.2,0.4-0.2c0.8-0.1,1.6-0.3,2.4-0.5
		c0,0,0,0,0,0c0,0,0,0,0,0c-0.3-0.2-0.5-0.3-0.8-0.5c-0.1-0.1-0.2-0.2-0.2-0.4c0-0.2,0.1-0.3,0.2-0.4l0.4-0.3c0,0,0,0,0,0
		c0,0,0,0,0,0c0,0,0,0,0,0h-0.6c-0.1,0-0.3,0-0.4-0.1c-0.1-0.1-0.2-0.2-0.2-0.3c0,0-0.1-0.1-0.1-0.1c0,0,0,0,0,0c-0.1,0-0.1,0-0.2,0
		H1168.1z M1173.9,95.4C1173.9,95.4,1173.9,95.4,1173.9,95.4C1173.9,95.4,1173.9,95.4,1173.9,95.4
		C1173.9,95.4,1173.9,95.3,1173.9,95.4l-3.2-0.1c0,0-0.1,0,0,0c0.5,0.4,1.1,0.7,1.6,1c0.1,0,0.1,0,0.2,0
		C1173,96.1,1173.4,95.8,1173.9,95.4z M1173.2,91C1173.1,91,1173.1,91,1173.2,91C1173.1,91,1173.1,91.1,1173.2,91
		c0.2,0.7,0.4,1,0.4,1.1c0,0,0.1,0.1,0.1,0.1h0.4c0.1,0,0.1,0,0.1-0.1c0.2-0.4,0.3-0.8,0.5-1.2c0-0.1,0-0.1-0.1-0.1
		C1174.1,90.9,1173.6,90.9,1173.2,91z M1170.7,91.1C1170.6,91.1,1170.6,91.1,1170.7,91.1c0.1,0.5,0.3,0.8,0.4,1c0,0,0.1,0.1,0.1,0.1
		h0.8c0.1,0,0.1,0,0.1-0.1c-0.2-0.4-0.3-0.8-0.4-1c0-0.1-0.1-0.1-0.1-0.1c-0.1,0-0.2,0-0.4,0C1170.9,91.1,1170.7,91.1,1170.7,91.1
		L1170.7,91.1z M1169.3,93.5C1169.3,93.5,1169.2,93.5,1169.3,93.5C1169.2,93.5,1169.2,93.5,1169.3,93.5l-0.1,0.5
		c0,0.1,0,0.1,0.1,0.1c0,0,0.1,0,0.1,0h5.9c0.1,0,0.2,0,0.3,0.1c0.1,0,0.1,0,0.1,0v-0.5c0,0,0-0.1-0.1-0.1c0,0,0,0,0,0L1169.3,93.5z
		 M1184.4,98.5l0-0.2c0-0.2,0-0.3,0.2-0.4c0.1-0.1,0.3-0.2,0.4-0.2c0.5,0,0.8,0,1.1,0c0.2,0,0.4,0,0.5-0.1c0.1,0,0.1-0.2,0.1-0.4v-5
		c0-0.1,0-0.1-0.1-0.1h-3.8c-0.2,0-0.3-0.1-0.4-0.2c-0.1-0.1-0.2-0.3-0.2-0.4v-0.2c0-0.2,0.1-0.3,0.2-0.4c0.1-0.1,0.3-0.2,0.4-0.2
		h3.8c0.1,0,0.1,0,0.1-0.1v-0.8c0-0.2,0.1-0.3,0.2-0.4c0.1-0.1,0.3-0.2,0.4-0.2h0.5c0.2,0,0.3,0.1,0.4,0.2c0.1,0.1,0.2,0.3,0.2,0.4
		v0.8c0,0,0,0.1,0.1,0.1c0,0,0,0,0,0h0.1c0.2,0,0.3,0.1,0.4,0.2c0.1,0.1,0.2,0.3,0.2,0.4v0.2c0,0.2-0.1,0.3-0.2,0.4
		c-0.1,0.1-0.3,0.2-0.4,0.2h-0.1c0,0-0.1,0-0.1,0.1c0,0,0,0,0,0v4.9c0,0.3,0,0.6,0,0.8c0,0.2,0,0.4-0.1,0.5c0,0.1-0.1,0.3-0.2,0.4
		c-0.1,0.1-0.2,0.2-0.4,0.2c-0.2,0.1-0.4,0.1-0.5,0.1c-0.2,0-0.5,0-0.8,0c-0.3,0-0.8,0-1.3,0c-0.2,0-0.3-0.1-0.4-0.2
		C1184.5,98.8,1184.4,98.7,1184.4,98.5z M1184.8,96.2c-0.1,0.1-0.3,0.1-0.5,0c-0.2,0-0.3-0.1-0.4-0.3c-0.3-0.6-0.7-1.2-1.1-1.8
		c-0.1-0.1-0.1-0.3-0.1-0.5c0-0.2,0.1-0.3,0.3-0.4l0.3-0.2c0.1-0.1,0.3-0.1,0.5-0.1c0.2,0,0.3,0.1,0.4,0.3c0.4,0.7,0.8,1.3,1.2,1.9
		c0.1,0.1,0.1,0.3,0.1,0.5c0,0.2-0.2,0.3-0.3,0.4L1184.8,96.2z M1179.1,95.1l-0.2-0.8c-0.1-0.4,0-0.8,0.2-1.1
		c0.7-1.1,1.1-2.2,1.3-3.4c0-0.2,0.1-0.3,0.3-0.4c0.1-0.1,0.3-0.1,0.5-0.1l0.4,0.1c0.2,0,0.3,0.1,0.4,0.3c0.1,0.1,0.1,0.3,0.1,0.5
		c-0.1,0.5-0.2,1-0.4,1.5c0,0.1,0,0.1,0,0.2v6.9c0,0.2-0.1,0.3-0.2,0.4c-0.1,0.1-0.3,0.2-0.4,0.2h-0.4c-0.2,0-0.3-0.1-0.4-0.2
		c-0.1-0.1-0.2-0.3-0.2-0.4v-3.8c0,0,0,0,0,0c0,0,0,0,0,0c0,0,0,0,0,0c-0.1,0.2-0.3,0.4-0.3,0.5c-0.1,0.1-0.2,0.1-0.3,0.1
		C1179.2,95.3,1179.1,95.2,1179.1,95.1z M1196.9,96.7c0.1,0.1,0.2,0.3,0.1,0.5c0,0.2-0.1,0.3-0.2,0.4l-0.2,0.2
		c-0.1,0.1-0.3,0.2-0.5,0.1c-0.2,0-0.3-0.1-0.4-0.2c-0.2-0.3-0.5-0.5-0.7-0.8c-0.1-0.1-0.2-0.3-0.2-0.4c0-0.2,0.1-0.3,0.2-0.4
		l0.2-0.2c0.1-0.1,0.3-0.2,0.5-0.2c0.2,0,0.3,0.1,0.4,0.2C1196.3,96.1,1196.6,96.3,1196.9,96.7z M1191.5,98.9
		c-0.2,0-0.3-0.1-0.4-0.2c-0.1-0.1-0.2-0.3-0.2-0.4v-8.1c0-0.2,0.1-0.3,0.2-0.4c0.1-0.1,0.3-0.2,0.4-0.2h2.4c0.2,0,0.3,0.1,0.4,0.2
		c0.1,0.1,0.2,0.3,0.2,0.4v2.3c0,0,0,0,0,0c0.1-0.2,0.3-0.4,0.6-0.4h1.6c0.1,0,0.1,0,0.1-0.1v-0.6c0,0,0-0.1-0.1-0.1c0,0,0,0,0,0
		h-1.2c-0.2,0-0.3-0.1-0.4-0.2c-0.1-0.1-0.2-0.3-0.2-0.4v-0.1c0-0.2,0.1-0.3,0.2-0.4c0.1-0.1,0.3-0.2,0.4-0.2h1.2c0,0,0.1,0,0.1-0.1
		c0,0,0,0,0,0v-0.3c0-0.2,0.1-0.3,0.2-0.4c0.1-0.1,0.3-0.2,0.4-0.2h0.5c0.2,0,0.3,0.1,0.4,0.2c0.1,0.1,0.2,0.3,0.2,0.4v0.3
		c0,0,0,0.1,0.1,0.1c0,0,0,0,0,0h1.3c0.2,0,0.3,0.1,0.4,0.2c0.1,0.1,0.2,0.3,0.2,0.4v0.1c0,0.2-0.1,0.3-0.2,0.4
		c-0.1,0.1-0.3,0.2-0.4,0.2h-1.3c0,0-0.1,0-0.1,0.1c0,0,0,0,0,0V92c0,0.1,0,0.1,0.1,0.1h1.6c0.2,0,0.3,0.1,0.4,0.2
		c0.1,0.1,0.2,0.3,0.2,0.4v0.1c0,0.2-0.1,0.3-0.2,0.4c-0.1,0.1-0.3,0.2-0.4,0.2h-0.2c-0.1,0-0.1,0-0.1,0.1v0.5c0,0,0,0.1,0.1,0.1
		c0,0,0,0,0,0h0.2c0.2,0,0.3,0.1,0.4,0.2c0.1,0.1,0.2,0.3,0.2,0.4V95c0,0.2-0.1,0.3-0.2,0.4c-0.1,0.1-0.3,0.2-0.4,0.2h-0.2
		c-0.1,0-0.1,0-0.1,0.1v1.4c0,0.3,0,0.6,0,0.8c0,0.2,0,0.4-0.1,0.5c0,0.1-0.1,0.3-0.2,0.4c-0.1,0.1-0.2,0.2-0.4,0.2
		c-0.2,0.1-0.4,0.1-0.5,0.1c-0.2,0-0.4,0-0.8,0c-0.1,0-0.3,0-0.7,0c-0.2,0-0.3-0.1-0.5-0.2c-0.1-0.1-0.2-0.3-0.2-0.4l0-0.2
		c0-0.2,0-0.3,0.2-0.4c0.1-0.1,0.3-0.2,0.4-0.2c0.3,0,0.5,0,0.5,0c0.2,0,0.4,0,0.5-0.1c0.1,0,0.1-0.2,0.1-0.4v-1.6
		c0,0,0-0.1-0.1-0.1c0,0,0,0,0,0h-3c-0.2,0-0.5-0.1-0.6-0.4c0,0,0,0,0,0v2.4c0,0.2-0.1,0.3-0.2,0.4c-0.1,0.1-0.3,0.2-0.4,0.2h-1.4
		c0,0-0.1,0-0.1,0.1c0,0,0,0,0,0c0,0.1-0.1,0.3-0.2,0.4c-0.1,0.1-0.2,0.1-0.4,0.1H1191.5z M1195.2,93.5c-0.2,0-0.5-0.1-0.6-0.4
		c0,0,0,0,0,0c0,0,0,0,0,0v1.4c0,0,0,0,0,0c0.1-0.2,0.3-0.4,0.6-0.4h3c0.1,0,0.1,0,0.1-0.1v-0.5c0,0,0-0.1-0.1-0.1c0,0,0,0,0,0
		L1195.2,93.5z M1192.4,91.1v2c0,0.1,0,0.1,0.1,0.1h0.5c0.1,0,0.1,0,0.1-0.1v-2c0,0,0-0.1-0.1-0.1c0,0,0,0,0,0L1192.4,91.1
		C1192.5,91,1192.4,91,1192.4,91.1C1192.4,91,1192.4,91.1,1192.4,91.1z M1192.4,94.6v2.1c0,0,0,0.1,0.1,0.1c0,0,0,0,0,0h0.5
		c0,0,0.1,0,0.1-0.1c0,0,0,0,0,0v-2.1c0,0,0-0.1-0.1-0.1c0,0,0,0,0,0L1192.4,94.6C1192.5,94.6,1192.4,94.6,1192.4,94.6
		C1192.4,94.6,1192.4,94.6,1192.4,94.6z M1209.2,94.3c0.2,0,0.3,0.1,0.4,0.2c0.1,0.1,0.2,0.3,0.2,0.4v2.7c0,0,0,0.1,0.1,0.1
		c0,0,0,0,0,0h0.2c0.1,0,0.3,0,0.4-0.1c0,0,0.1-0.2,0.1-0.4v-3.4c0,0,0-0.1-0.1-0.1c0,0,0,0,0,0h-2.3c-0.2,0-0.3-0.1-0.4-0.2
		c-0.1-0.1-0.2-0.3-0.2-0.4v-3.3c0-0.2,0.1-0.3,0.2-0.4c0.1-0.1,0.3-0.2,0.4-0.2h3.5c0.2,0,0.3,0.1,0.4,0.2c0.1,0.1,0.2,0.3,0.2,0.4
		v7.3c0,0.3,0,0.6,0,0.8c0,0.2,0,0.4-0.1,0.5c0,0.1-0.1,0.3-0.2,0.4c-0.1,0.1-0.2,0.2-0.3,0.2c-0.2,0.1-0.3,0.1-0.5,0.1
		c-0.2,0-0.4,0-0.7,0c-0.3,0-0.6,0-0.9,0c-0.2,0-0.3-0.1-0.4-0.2c-0.1-0.1-0.2-0.2-0.2-0.4c0-0.1,0-0.1-0.1-0.1h-2.4
		c0,0-0.1,0-0.1,0c0,0,0,0,0,0c0,0.1,0,0.2-0.1,0.3c-0.1,0.1-0.2,0.1-0.3,0.1h-0.4c-0.2,0-0.3-0.1-0.4-0.2c-0.1-0.1-0.2-0.3-0.2-0.4
		v-3.3c0-0.2,0.1-0.3,0.2-0.4c0.1-0.1,0.3-0.2,0.4-0.2H1209.2z M1208.9,90.7V91c0,0,0,0.1,0.1,0.1c0,0,0,0,0,0h1.5
		c0,0,0.1,0,0.1-0.1c0,0,0,0,0,0v-0.3c0,0,0-0.1-0.1-0.1c0,0,0,0,0,0h-1.5C1209,90.5,1208.9,90.6,1208.9,90.7
		C1208.9,90.6,1208.9,90.6,1208.9,90.7z M1210.5,92.6C1210.6,92.6,1210.6,92.6,1210.5,92.6c0.1-0.1,0.1-0.1,0.1-0.1v-0.3
		c0-0.1,0-0.1-0.1-0.1h-1.5c-0.1,0-0.1,0-0.1,0.1v0.3c0,0,0,0.1,0.1,0.1c0,0,0,0,0,0H1210.5z M1208.4,97.3V97c0,0,0-0.1-0.1-0.1
		c0,0,0,0,0,0h-1.8c0,0-0.1,0-0.1,0.1c0,0,0,0,0,0v0.3c0,0,0,0.1,0.1,0.1c0,0,0,0,0,0h1.8C1208.3,97.4,1208.4,97.3,1208.4,97.3
		C1208.4,97.3,1208.4,97.3,1208.4,97.3z M1208.4,95.8v-0.3c0,0,0-0.1-0.1-0.1c0,0,0,0,0,0h-1.8c0,0-0.1,0-0.1,0.1c0,0,0,0,0,0v0.3
		c0,0.1,0,0.1,0.1,0.1L1208.4,95.8C1208.4,95.9,1208.4,95.8,1208.4,95.8L1208.4,95.8z M1203.1,99.2c-0.2,0-0.3-0.1-0.4-0.2
		c-0.1-0.1-0.2-0.3-0.2-0.4v-8.6c0-0.2,0.1-0.3,0.2-0.4c0.1-0.1,0.3-0.2,0.4-0.2h3.4c0.2,0,0.3,0.1,0.4,0.2c0.1,0.1,0.2,0.3,0.2,0.4
		v3.3c0,0.2-0.1,0.3-0.2,0.4c-0.1,0.1-0.3,0.2-0.4,0.2h-2.2c0,0-0.1,0-0.1,0.1c0,0,0,0,0,0v4.7c0,0.2-0.1,0.3-0.2,0.4
		c-0.1,0.1-0.3,0.2-0.4,0.2H1203.1z M1204.1,90.7V91c0,0,0,0.1,0.1,0.1c0,0,0,0,0,0h1.4c0,0,0.1,0,0.1-0.1c0,0,0,0,0,0v-0.3
		c0,0,0-0.1-0.1-0.1c0,0,0,0,0,0h-1.4C1204.2,90.5,1204.1,90.6,1204.1,90.7C1204.1,90.6,1204.1,90.6,1204.1,90.7z M1204.1,92.2v0.3
		c0,0,0,0.1,0.1,0.1c0,0,0,0,0,0h1.4c0,0,0.1,0,0.1-0.1c0,0,0,0,0,0v-0.3c0-0.1,0-0.1-0.1-0.1L1204.1,92.2
		C1204.2,92.2,1204.1,92.2,1204.1,92.2z M1224.8,91.3c-0.4,0-0.7,0.1-0.9,0.4c-0.2,0.3-0.4,0.6-0.3,1c0,0.4,0.1,0.8,0.3,1.1
		c0.2,0.3,0.6,0.4,1,0.4c0.4,0,0.7-0.1,0.9-0.4c0.2-0.3,0.4-0.7,0.3-1.1c0-0.4-0.1-0.7-0.4-1C1225.5,91.4,1225.1,91.3,1224.8,91.3z
		 M1224.4,95.5c-0.7,0.1-1.5-0.2-2-0.7c-0.5-0.6-0.8-1.3-0.7-2c0-0.8,0.3-1.5,0.8-2c0.6-0.5,1.4-0.8,2.3-0.7
		c0.9-0.1,1.7,0.3,2.3,0.9c0.6,0.7,0.9,1.7,0.8,2.6c0,3.2-1.2,4.7-3.6,4.7c-0.4,0-0.8,0-1.2-0.1c-0.2,0-0.3-0.1-0.4-0.3
		c-0.1-0.1-0.2-0.3-0.2-0.5v-0.2c0-0.1,0.1-0.3,0.2-0.4c0.1-0.1,0.3-0.1,0.4-0.1c0.4,0.1,0.8,0.1,1.2,0.1c0.5,0,1-0.1,1.3-0.5
		c0.3-0.4,0.5-0.9,0.5-1.4c0,0,0,0,0,0c0,0,0,0,0,0h0C1225.6,95.3,1225,95.5,1224.4,95.5z M1231.2,97.5c-0.2,0-0.3-0.1-0.4-0.2
		c-0.1-0.1-0.2-0.3-0.2-0.4V96c0-0.2,0.1-0.3,0.2-0.4c0.1-0.1,0.3-0.2,0.4-0.2h0.8c0.2,0,0.3,0.1,0.4,0.2c0.1,0.1,0.2,0.3,0.2,0.4
		v0.8c0,0.2-0.1,0.3-0.2,0.4c-0.1,0.1-0.3,0.2-0.4,0.2L1231.2,97.5z M1231.2,92.9c-0.2,0-0.3-0.1-0.4-0.2c-0.1-0.1-0.2-0.3-0.2-0.4
		v-0.8c0-0.2,0.1-0.3,0.2-0.4c0.1-0.1,0.3-0.2,0.4-0.2h0.8c0.2,0,0.3,0.1,0.4,0.2c0.1,0.1,0.2,0.3,0.2,0.4v0.8
		c0,0.2-0.1,0.3-0.2,0.4c-0.1,0.1-0.3,0.2-0.4,0.2H1231.2z M1239.5,92c-0.2-0.4-0.6-0.6-1-0.6c-0.4,0-0.8,0.2-1,0.6
		c-0.3,0.7-0.4,1.4-0.3,2.1c0,0.7,0.1,1.4,0.3,2.1c0.2,0.4,0.6,0.6,1,0.6c0.4,0,0.8-0.2,1-0.6c0.3-0.7,0.4-1.4,0.3-2.1
		C1239.8,93.4,1239.7,92.7,1239.5,92z M1240.9,97.3c-0.6,0.7-1.5,1-2.4,1c-0.9,0.1-1.8-0.3-2.4-1c-0.6-0.9-0.9-2.1-0.8-3.2
		c-0.1-1.1,0.2-2.2,0.8-3.2c0.6-0.7,1.5-1,2.4-1c0.9-0.1,1.8,0.3,2.4,1c0.6,0.9,0.9,2.1,0.8,3.2
		C1241.8,95.2,1241.5,96.3,1240.9,97.3z M1247.3,92c-0.2-0.4-0.6-0.6-1-0.6c-0.4,0-0.8,0.2-1,0.6c-0.3,0.7-0.4,1.4-0.3,2.1
		c0,0.7,0.1,1.4,0.3,2.1c0.2,0.4,0.6,0.6,1,0.6c0.4,0,0.8-0.2,1-0.6c0.3-0.7,0.4-1.4,0.3-2.1C1247.6,93.4,1247.5,92.7,1247.3,92z
		 M1248.7,97.3c-0.6,0.7-1.5,1-2.4,1c-0.9,0.1-1.8-0.3-2.4-1c-0.6-0.9-0.9-2.1-0.8-3.2c-0.1-1.1,0.2-2.2,0.8-3.2
		c0.6-0.7,1.5-1,2.4-1c0.9-0.1,1.8,0.3,2.4,1c0.6,0.9,0.9,2.1,0.8,3.2C1249.6,95.2,1249.3,96.3,1248.7,97.3z M1251.7,95l-0.4-0.4
		c-0.1-0.1-0.2-0.3-0.2-0.5c0-0.2,0-0.3,0.1-0.5c0.7-0.8,1.7-1.3,2.8-1.3c0.9,0,1.8,0.3,2.5,0.9c0.4,0.4,0.9,0.6,1.4,0.6
		c0.6,0,1.1-0.3,1.4-0.7c0.1-0.1,0.3-0.2,0.4-0.2c0.2,0,0.3,0,0.4,0.1l0.4,0.4c0.1,0.1,0.2,0.3,0.2,0.4c0,0.2,0,0.3-0.1,0.5
		c-0.7,0.8-1.7,1.3-2.8,1.3c-0.9,0-1.8-0.3-2.5-0.9c-0.4-0.4-0.9-0.6-1.4-0.6c-0.6,0-1.1,0.3-1.5,0.7c-0.1,0.1-0.3,0.2-0.4,0.2
		C1252,95.2,1251.8,95.2,1251.7,95z M1263.7,93.3c-0.1,0.1-0.2,0.1-0.3,0c-0.1-0.1-0.2-0.2-0.2-0.3v-0.8c0-0.4,0.2-0.8,0.5-1
		l1.1-0.8c0.3-0.2,0.7-0.4,1.1-0.4h0.7c0.2,0,0.3,0.1,0.4,0.2c0.1,0.1,0.2,0.3,0.2,0.4v6.8c0,0.2-0.1,0.3-0.2,0.4
		c-0.1,0.1-0.3,0.2-0.4,0.2h-0.7c-0.2,0-0.3-0.1-0.4-0.2c-0.1-0.1-0.2-0.3-0.2-0.4v-5.4h0L1263.7,93.3z M1273.3,94.6
		c-0.3,0.1-0.6,0.3-0.9,0.5c-0.2,0.2-0.3,0.4-0.2,0.7c0,0.3,0.1,0.6,0.4,0.8c0.3,0.2,0.6,0.3,1,0.3c0.4,0,0.7-0.1,1-0.3
		c0.2-0.2,0.4-0.5,0.4-0.8c0-0.3-0.1-0.5-0.3-0.7c-0.4-0.3-0.7-0.4-1.2-0.5C1273.4,94.6,1273.3,94.6,1273.3,94.6L1273.3,94.6z
		 M1273.5,91.3c-0.3,0-0.6,0.1-0.8,0.3c-0.2,0.2-0.3,0.4-0.3,0.7c0,0.2,0.1,0.4,0.3,0.6c0.3,0.2,0.6,0.4,0.9,0.5c0.1,0,0.1,0,0.2,0
		c0.7-0.3,1-0.6,1-1.1c0-0.3-0.1-0.5-0.3-0.7C1274.1,91.4,1273.8,91.3,1273.5,91.3L1273.5,91.3z M1275.9,97.6
		c-0.7,0.5-1.5,0.7-2.3,0.6c-0.8,0-1.6-0.2-2.3-0.6c-0.5-0.4-0.9-1-0.8-1.7c0-0.8,0.5-1.4,1.5-1.9c0,0,0,0,0,0c0,0,0,0,0,0
		c0,0,0,0,0,0c-0.8-0.4-1.3-1.1-1.3-2c0-0.6,0.3-1.2,0.8-1.5c0.6-0.4,1.4-0.6,2.2-0.6c0.8,0,1.5,0.2,2.2,0.6
		c0.5,0.3,0.8,0.9,0.8,1.5c0,0.7-0.4,1.3-1.3,1.7c0,0,0,0,0,0c0,0,0,0,0,0c0,0,0,0,0,0c0.9,0.3,1.6,1.1,1.6,2.1
		C1276.7,96.6,1276.4,97.2,1275.9,97.6z M1280,97.5c-0.2,0-0.3-0.1-0.4-0.2c-0.1-0.1-0.2-0.3-0.2-0.4V96c0-0.2,0.1-0.3,0.2-0.4
		c0.1-0.1,0.3-0.2,0.4-0.2h0.8c0.2,0,0.3,0.1,0.4,0.2c0.1,0.1,0.2,0.3,0.2,0.4v0.8c0,0.2-0.1,0.3-0.2,0.4c-0.1,0.1-0.3,0.2-0.4,0.2
		L1280,97.5z M1280,92.9c-0.2,0-0.3-0.1-0.4-0.2c-0.1-0.1-0.2-0.3-0.2-0.4v-0.8c0-0.2,0.1-0.3,0.2-0.4c0.1-0.1,0.3-0.2,0.4-0.2h0.8
		c0.2,0,0.3,0.1,0.4,0.2c0.1,0.1,0.2,0.3,0.2,0.4v0.8c0,0.2-0.1,0.3-0.2,0.4c-0.1,0.1-0.3,0.2-0.4,0.2H1280z M1288.2,92
		c-0.2-0.4-0.6-0.6-1-0.6c-0.4,0-0.8,0.2-1,0.6c-0.3,0.7-0.4,1.4-0.3,2.1c0,0.7,0.1,1.4,0.3,2.1c0.2,0.4,0.6,0.6,1,0.6
		c0.4,0,0.8-0.2,1-0.6c0.3-0.7,0.4-1.4,0.3-2.1C1288.6,93.4,1288.5,92.7,1288.2,92L1288.2,92z M1289.6,97.3c-0.6,0.7-1.5,1-2.4,1
		c-0.9,0.1-1.8-0.3-2.4-1c-0.6-0.9-0.9-2.1-0.8-3.2c-0.1-1.1,0.2-2.2,0.8-3.2c0.6-0.7,1.5-1,2.4-1c0.9-0.1,1.8,0.3,2.4,1
		c0.6,0.9,0.9,2.1,0.8,3.2C1290.5,95.2,1290.2,96.3,1289.6,97.3z M1296,92c-0.2-0.4-0.6-0.6-1-0.6c-0.4,0-0.8,0.2-1,0.6
		c-0.3,0.7-0.4,1.4-0.3,2.1c0,0.7,0.1,1.4,0.3,2.1c0.2,0.4,0.6,0.6,1,0.6c0.4,0,0.8-0.2,1-0.6c0.3-0.7,0.4-1.4,0.3-2.1
		C1296.4,93.4,1296.3,92.7,1296,92L1296,92z M1297.4,97.3c-0.6,0.7-1.5,1-2.4,1c-0.9,0.1-1.8-0.3-2.4-1c-0.6-0.9-0.9-2.1-0.8-3.2
		c-0.1-1.1,0.2-2.2,0.8-3.2c0.6-0.7,1.5-1,2.4-1c0.9-0.1,1.8,0.3,2.4,1c0.6,0.9,0.9,2.1,0.8,3.2C1298.3,95.2,1298,96.3,1297.4,97.3z
		 M1305.4,99.4c-0.4,0-0.8-0.1-1.1-0.4c-0.6-0.6-1.2-1.4-1.5-2.2c-0.3-0.8-0.5-1.7-0.5-2.6c0-0.9,0.2-1.8,0.5-2.6
		c0.4-0.8,0.9-1.6,1.5-2.2c0.3-0.3,0.7-0.5,1.1-0.4h0.3c0.1,0,0.2,0.1,0.2,0.2c0,0.1,0,0.2,0,0.3c-1.2,1.3-1.9,3-1.9,4.8
		c0,1.8,0.7,3.5,1.9,4.8c0.1,0.1,0.1,0.2,0.1,0.3c0,0.1-0.1,0.2-0.2,0.2L1305.4,99.4z M1310,99.1c-0.2,0-0.3-0.1-0.4-0.2
		c-0.1-0.1-0.2-0.3-0.2-0.4V90c0-0.2,0.1-0.3,0.2-0.4c0.1-0.1,0.3-0.2,0.4-0.2h7.1c0.2,0,0.3,0.1,0.4,0.2c0.1,0.1,0.2,0.3,0.2,0.4
		v8.5c0,0.2-0.1,0.3-0.2,0.4c-0.1,0.1-0.3,0.2-0.4,0.2h-0.6c-0.1,0-0.3-0.1-0.4-0.1c-0.1-0.1-0.2-0.2-0.2-0.4c0,0,0-0.1-0.1-0.1
		c0,0,0,0,0,0h-4.7c0,0-0.1,0-0.1,0.1c0,0,0,0,0,0c0,0.1,0,0.3-0.1,0.4c-0.1,0.1-0.2,0.2-0.4,0.1L1310,99.1z M1311.1,91v2.1
		c0,0.1,0,0.1,0.1,0.1h4.6c0.1,0,0.1,0,0.1-0.1V91c0-0.1,0-0.1-0.1-0.1L1311.1,91C1311.1,90.9,1311.1,90.9,1311.1,91L1311.1,91z
		 M1311.1,94.7V97c0,0.1,0,0.1,0.1,0.1h4.6c0.1,0,0.1,0,0.1-0.1v-2.3c0,0,0-0.1-0.1-0.1c0,0,0,0,0,0h-4.6
		C1311.2,94.6,1311.1,94.6,1311.1,94.7C1311.1,94.7,1311.1,94.7,1311.1,94.7L1311.1,94.7z M1321.8,95.2c-0.2,0-0.3-0.1-0.4-0.2
		c-0.1-0.1-0.2-0.3-0.2-0.4v-0.9c0-0.2,0.1-0.3,0.2-0.4c0.1-0.1,0.3-0.2,0.4-0.2h0.9c0.2,0,0.3,0.1,0.4,0.2c0.1,0.1,0.2,0.3,0.2,0.4
		v0.9c0,0.2-0.1,0.3-0.2,0.4c-0.1,0.1-0.3,0.2-0.4,0.2L1321.8,95.2z M1325.9,96.2l-0.1-0.6c-0.1-0.4,0.1-0.8,0.4-1
		c0.8-0.6,1.3-1.4,1.7-2.3c0-0.1,0-0.1-0.1-0.1h-1.3c-0.2,0-0.3-0.1-0.4-0.2c-0.1-0.1-0.2-0.3-0.2-0.4v-0.3c0-0.2,0.1-0.3,0.2-0.4
		c0.1-0.1,0.3-0.2,0.4-0.2h0.3c0.1,0,0.1,0,0.1-0.1v-0.9c0-0.2,0.1-0.3,0.2-0.4c0.1-0.1,0.3-0.2,0.4-0.2h0.3c0.2,0,0.3,0.1,0.4,0.2
		c0.1,0.1,0.2,0.3,0.2,0.4v0.9c0,0,0,0.1,0.1,0.1c0,0,0,0,0,0h0.3c0.2,0,0.3,0.1,0.4,0.2c0.1,0.1,0.2,0.3,0.2,0.4v0.3
		c0,0.4-0.1,0.8-0.2,1.2c-0.1,0.3-0.2,0.6-0.4,0.8c0,0.1,0,0.1,0,0.2c0.5,0.6,0.8,1,1,1.3c0.1,0.1,0.1,0.3,0.1,0.5
		c0,0.2-0.1,0.3-0.2,0.4l-0.1,0.1c-0.1,0.1-0.3,0.2-0.4,0.1c-0.2,0-0.3-0.1-0.4-0.2c0,0-0.1-0.1-0.2-0.2s-0.2-0.2-0.2-0.3
		c0,0,0,0,0,0c0,0,0,0,0,0c0,0,0,0,0,0v3c0,0.2-0.1,0.3-0.2,0.4c-0.1,0.1-0.3,0.2-0.4,0.2h-0.3c-0.2,0-0.3-0.1-0.4-0.2
		c-0.1-0.1-0.2-0.3-0.2-0.4v-2.4c0,0,0,0,0,0c0,0,0,0,0,0c-0.2,0.1-0.3,0.3-0.4,0.3c-0.1,0.1-0.3,0.1-0.4,0
		C1326,96.5,1325.9,96.3,1325.9,96.2L1325.9,96.2z M1334.5,99c-0.5,0.1-1,0-1.5-0.2c-0.2-0.2-0.3-0.6-0.3-1.2v-3.1
		c0,0,0-0.1-0.1-0.1c0,0,0,0,0,0h-0.3c0,0-0.1,0-0.1,0.1c0,0,0,0,0,0c0,0.9-0.2,1.7-0.6,2.5c-0.3,0.7-0.8,1.3-1.5,1.8
		c-0.1,0.1-0.3,0.2-0.5,0.1c-0.2,0-0.3-0.1-0.4-0.2l-0.3-0.4c-0.1-0.1-0.2-0.3-0.1-0.4c0-0.2,0.1-0.3,0.2-0.4
		c0.5-0.3,0.9-0.8,1.2-1.3c0.3-0.6,0.4-1.2,0.5-1.8c0-0.1,0-0.1-0.1-0.1h-0.1c-0.2,0-0.3-0.1-0.4-0.2c-0.1-0.1-0.2-0.3-0.2-0.4V90
		c0-0.2,0.1-0.3,0.2-0.4c0.1-0.1,0.3-0.2,0.4-0.2h4.8c0.2,0,0.3,0.1,0.4,0.2c0.1,0.1,0.2,0.3,0.2,0.4v3.7c0,0.2-0.1,0.3-0.2,0.4
		c-0.1,0.1-0.3,0.2-0.4,0.2h-0.8c-0.1,0-0.1,0-0.1,0.1v2.8c0,0.1,0,0.2,0,0.3c0.1,0,0.2,0,0.2,0c0.1,0,0.2-0.1,0.3-0.2
		c0.1-0.4,0.1-0.9,0.1-1.3c0-0.2,0.1-0.3,0.2-0.4c0.1-0.1,0.3-0.2,0.4-0.1l0.1,0c0.2,0,0.3,0.1,0.4,0.2c0.1,0.1,0.2,0.3,0.2,0.5
		c0,0.3,0,0.6,0,0.8s0,0.4,0,0.6c0,0.2,0,0.4-0.1,0.5c0,0.1,0,0.2-0.1,0.3c-0.1,0.1-0.1,0.2-0.1,0.3c0,0.1-0.1,0.1-0.2,0.2
		c-0.1,0-0.1,0.1-0.2,0.1c-0.1,0-0.2,0-0.3,0c-0.1,0-0.2,0-0.4,0L1334.5,99z M1331.6,93h2.4c0,0,0.1,0,0.1-0.1c0,0,0,0,0,0v-2
		c0,0,0-0.1-0.1-0.1c0,0,0,0,0,0h-2.4c0,0-0.1,0-0.1,0.1c0,0,0,0,0,0L1331.6,93C1331.5,92.9,1331.6,93,1331.6,93
		C1331.6,93,1331.6,93,1331.6,93L1331.6,93z M1342.9,95.7c0.2,0.1,0.3,0.2,0.3,0.4c0.1,0.2,0.1,0.3,0,0.5c-0.3,0.7-0.7,1.3-1.2,1.9
		c-0.1,0.1-0.3,0.2-0.4,0.2c-0.2,0-0.3,0-0.5-0.2l-0.2-0.2c-0.1-0.1-0.2-0.3-0.2-0.4c0-0.2,0-0.3,0.2-0.4c0.4-0.5,0.7-0.9,1-1.5
		c0.1-0.1,0.2-0.3,0.4-0.3c0.2-0.1,0.3-0.1,0.5,0L1342.9,95.7z M1346.7,95.9c0.4,0.6,0.7,1.1,1,1.6c0.1,0.1,0.1,0.3,0.1,0.5
		c0,0.2-0.1,0.3-0.3,0.4l-0.2,0.2c-0.1,0.1-0.3,0.1-0.4,0.1c-0.2,0-0.3-0.1-0.4-0.3c-0.3-0.6-0.7-1.1-1-1.6
		c-0.1-0.1-0.1-0.3-0.1-0.5c0-0.2,0.1-0.3,0.3-0.4l0.2-0.1c0.1-0.1,0.3-0.1,0.5-0.1C1346.5,95.6,1346.6,95.7,1346.7,95.9z
		 M1338.5,99.2c-0.2,0-0.3-0.1-0.4-0.2c-0.1-0.1-0.2-0.3-0.2-0.4V90c0-0.2,0.1-0.3,0.2-0.4c0.1-0.1,0.3-0.2,0.4-0.2h2.7
		c0.2,0,0.3,0.1,0.4,0.2c0.1,0.1,0.2,0.3,0.2,0.4v0c0,0.3,0,0.6-0.1,0.8c0,0,0,0,0,0c0,0,0,0,0,0c0,0,0,0,0,0c0.5-0.4,1-0.8,1.4-1.3
		c0.3-0.3,0.6-0.5,1-0.5h0.5c0.4,0,0.8,0.2,1,0.5c0.5,0.5,1.1,1,1.7,1.4c0.2,0.1,0.3,0.2,0.3,0.4c0.1,0.2,0.1,0.4,0,0.5l-0.1,0.3
		c0,0.1-0.1,0.3-0.3,0.3c-0.1,0.1-0.3,0-0.4,0c-0.1,0-0.1-0.1-0.2-0.2c-0.1,0-0.1,0-0.1,0c0,0.1-0.1,0.2-0.2,0.3
		c-0.1,0.1-0.2,0.1-0.4,0.1h-0.7c-0.1,0-0.1,0-0.1,0.1v0.7c0,0,0,0.1,0.1,0.1c0,0,0,0,0,0h1.7c0.2,0,0.3,0.1,0.4,0.2
		c0.1,0.1,0.2,0.3,0.2,0.4v0.1c0,0.2-0.1,0.3-0.2,0.4c-0.1,0.1-0.3,0.2-0.4,0.2h-1.7c-0.1,0-0.1,0-0.1,0.1v1.9c0,0.3,0,0.6,0,0.8
		c0,0.2,0,0.4-0.1,0.5c0,0.1-0.1,0.3-0.2,0.4c-0.1,0.1-0.2,0.2-0.3,0.2c-0.1,0.1-0.3,0.1-0.4,0.1c-0.2,0-0.4,0-0.7,0
		c-0.2,0-0.4,0-0.6,0c-0.2,0-0.3-0.1-0.5-0.2c-0.1-0.1-0.2-0.3-0.2-0.5l0-0.2c0-0.2,0.1-0.3,0.2-0.4c0.1-0.1,0.3-0.2,0.4-0.2
		c0.1,0,0.2,0,0.4,0c0.1,0,0.2,0,0.2-0.1c0-0.1,0-0.3,0-0.4v-2c0-0.1,0-0.1-0.1-0.1h-1.4c-0.2,0-0.3-0.1-0.4-0.2
		c-0.1-0.1-0.2-0.3-0.2-0.4v-0.1c0-0.2,0.1-0.3,0.2-0.4c0.1-0.1,0.3-0.2,0.4-0.2h1.4c0,0,0.1,0,0.1-0.1c0,0,0,0,0,0V93
		c0-0.1,0-0.1-0.1-0.1h-0.6c-0.1,0-0.3,0-0.4-0.1c-0.1-0.1-0.2-0.2-0.2-0.3c0-0.1,0-0.1-0.1,0c0,0-0.1,0.1-0.1,0.1
		c-0.1,0-0.1,0.1-0.1,0.1c-0.1,0.1-0.3,0.1-0.4,0c-0.1-0.1-0.2-0.2-0.3-0.3l0,0c0,0,0,0,0,0c0,0,0,0,0,0c-0.1,0.3-0.3,0.6-0.4,0.8
		c0,0.1,0,0.1,0,0.2c0.5,0.6,0.7,1.4,0.7,2.2c0,0.4-0.1,0.9-0.3,1.2c-0.2,0.3-0.5,0.5-0.9,0.5c-0.2,0-0.4,0-0.5-0.1
		c-0.1-0.1-0.3-0.3-0.3-0.4l-0.1-0.5c0,0,0,0,0,0v2.3c0,0.2-0.1,0.3-0.2,0.4c-0.1,0.1-0.3,0.2-0.4,0.2H1338.5z M1344.4,90.3
		c-0.3,0.4-0.7,0.8-1,1.1c0,0,0,0,0,0c0,0,0,0,0,0h2.2c0,0,0,0,0,0c0,0,0,0,0,0c-0.4-0.4-0.7-0.7-1.1-1.1
		C1344.5,90.3,1344.4,90.3,1344.4,90.3z M1339.4,90.8v1.9c0,0,0,0,0,0c0,0,0,0,0,0c0.3-0.6,0.6-1.3,0.8-1.9c0-0.1,0-0.1-0.1-0.1
		h-0.7C1339.5,90.6,1339.4,90.7,1339.4,90.8C1339.4,90.7,1339.4,90.7,1339.4,90.8L1339.4,90.8z M1339.4,93.6v2.2
		c0,0.1,0,0.1,0.1,0.1c0.2,0,0.3,0,0.4-0.1c0.1-0.2,0.1-0.4,0.1-0.6c0-0.3,0-0.5-0.1-0.8C1339.8,94.1,1339.7,93.8,1339.4,93.6
		C1339.5,93.6,1339.5,93.6,1339.4,93.6C1339.4,93.6,1339.4,93.6,1339.4,93.6C1339.4,93.6,1339.4,93.6,1339.4,93.6L1339.4,93.6z
		 M1352.4,96.2c-0.6-0.4-1.1-0.8-1.7-1.3c-0.2-0.3-0.3-0.6-0.3-1c0-0.4,0.1-0.7,0.3-1c0.5-0.5,1.1-0.9,1.7-1.2
		c1.2-0.7,2.2-1.5,3.3-2.2c0.1-0.1,0.3-0.1,0.5-0.1c0.2,0,0.3,0.1,0.4,0.2l0.3,0.4c0.1,0.1,0.1,0.3,0.1,0.5c0,0.2-0.1,0.3-0.3,0.4
		c-1.1,0.8-2.2,1.5-3.2,2.2c-0.3,0.2-0.6,0.4-0.8,0.6c-0.1,0.1-0.2,0.2-0.2,0.3c0,0.1,0.1,0.2,0.2,0.3c0.3,0.2,0.5,0.4,0.8,0.6
		c1.3,0.9,2.5,1.8,3.6,2.7c0.1,0.1,0.2,0.2,0.2,0.4c0,0.2,0,0.3-0.1,0.4l-0.3,0.4c-0.1,0.1-0.3,0.2-0.4,0.2c-0.2,0-0.3,0-0.5-0.1
		C1354.8,98,1353.7,97.1,1352.4,96.2z M1363.9,94.2c0-1.8-0.7-3.5-1.9-4.8c-0.1-0.1-0.1-0.2,0-0.3c0-0.1,0.1-0.2,0.2-0.2h0.3
		c0.4,0,0.8,0.1,1.1,0.4c0.6,0.7,1.1,1.4,1.5,2.2c0.4,0.8,0.5,1.7,0.5,2.6c0,0.9-0.2,1.8-0.5,2.6c-0.4,0.8-0.9,1.6-1.5,2.2
		c-0.3,0.3-0.7,0.4-1.1,0.4h-0.3c-0.1,0-0.2-0.1-0.2-0.2c0-0.1,0-0.2,0.1-0.3C1363.3,97.7,1363.9,96,1363.9,94.2z"/>
</g>
</svg>
