<?xml version="1.0" encoding="utf-8"?>
<!-- Generator: Adobe Illustrator 26.4.1, SVG Export Plug-In . SVG Version: 6.00 Build 0)  -->
<svg version="1.1" id="hero_catch04_pc" xmlns="http://www.w3.org/2000/svg" xmlns:xlink="http://www.w3.org/1999/xlink" x="0px"
	 y="0px" viewBox="0 0 492.6 178.8" style="enable-background:new 0 0 492.6 178.8;" xml:space="preserve">
<style type="text/css">
	.st0{clip-path:url(#SVGID_00000039111997407813979040000011671638567771819916_);}
	.st1{fill:#FDD000;}
</style>
<g>
	<defs>
		<rect id="SVGID_1_" width="492" height="178"/>
	</defs>
	<clipPath id="SVGID_00000078754407909506682340000008319149316221349803_">
		<use xlink:href="#SVGID_1_"  style="overflow:visible;"/>
	</clipPath>
	<g id="グループ_4610" style="clip-path:url(#SVGID_00000078754407909506682340000008319149316221349803_);">
		<path id="パス_20631" class="st1" d="M294.7,158.9l0.4-2.8c0.3-1.9,1.8-3.3,3.7-3.4l30.9-0.2c1.5,0,2.7,1.2,2.8,2.7
			c0,0.2,0,0.4-0.1,0.7l-0.4,2.8c-0.3,1.9-1.8,3.3-3.7,3.4l-30.9,0.2c-1.5,0-2.7-1.2-2.8-2.7C294.7,159.3,294.7,159.1,294.7,158.9"
			/>
		<path id="パス_20632" class="st1" d="M207.3,105l0.4-2.8c0.3-1.9,1.8-3.3,3.7-3.4l30.9-0.2c1.5,0,2.7,1.2,2.8,2.7
			c0,0.2,0,0.4-0.1,0.7l-0.4,2.8c-0.3,1.9-1.8,3.3-3.7,3.4l-30.9,0.2c-1.5,0-2.7-1.2-2.8-2.7C207.2,105.4,207.2,105.2,207.3,105"/>
		<path id="パス_20633" class="st1" d="M350.8,109.2l14.1,0.2c1.5,0,2.1-2,0.9-3.1c-2.9-2.4-5-5.6-5.9-9.3
			C358.2,88.9,350.8,109.2,350.8,109.2"/>
		<path id="パス_20634" class="st1" d="M469.4,85.4l14.1-0.2c1.5,0,2.1,2,0.9,3.1c-2.9,2.4-5,5.6-5.9,9.3
			C476.8,105.7,469.4,85.4,469.4,85.4"/>
		<path id="パス_20635" class="st1" d="M299.6,38.3l14.1-0.2c1.5,0,2.1,2,0.9,3.1c-2.9,2.4-5,5.6-5.9,9.3
			C307.1,58.7,299.6,38.3,299.6,38.3"/>
		<path id="パス_20636" class="st1" d="M0,31l0.4-2.8c0.3-1.8,1.8-3.3,3.7-3.4l61.9-1c1.5,0,2.7,1.2,2.7,2.6c0,0.2,0,0.4-0.1,0.6
			l-0.4,2.8c-0.3,1.8-1.8,3.3-3.7,3.4l-61.9,1c-1.5,0-2.7-1.2-2.7-2.6C0,31.5,0,31.2,0,31"/>
		<path id="パス_20637" class="st1" d="M4.3,142.5l0.4-2.8c0.3-1.8,1.8-3.3,3.7-3.4l61.9-1c1.5,0,2.7,1.2,2.7,2.6
			c0,0.2,0,0.4-0.1,0.6l-0.4,2.8c-0.3,1.8-1.8,3.3-3.7,3.4l-61.9,1c-1.5,0-2.7-1.2-2.7-2.6C4.2,142.9,4.2,142.7,4.3,142.5"/>
		<path id="パス_20638" class="st1" d="M135,155.8l0.4-2.8c0.3-1.8,1.8-3.3,3.7-3.4l61.9-1c1.5,0,2.7,1.2,2.7,2.6
			c0,0.2,0,0.4-0.1,0.6l-0.4,2.8c-0.3,1.8-1.8,3.3-3.7,3.4l-61.9,1c-1.5,0-2.7-1.2-2.7-2.6C134.9,156.2,135,156,135,155.8"/>
		<path id="パス_20639" class="st1" d="M175,8.5l25.5-0.4c2.8,0,3.8,3.6,1.6,5.6c-4.4,3.8-9.1,9.4-10.6,16.8
			C188.5,45.2,175,8.5,175,8.5"/>
		<path id="パス_20640" class="st1" d="M167.7,126.2l0.4-2.8c0.3-1.8,1.8-3.3,3.7-3.4l16.3-0.3V83.8c0-2.3-1.9-4.2-4.3-4.2h-60.7
			c-2.3,0-2.7-1.1-0.8-2.5l19.1-19.3c1.4-1.9,2.7-1.6,2.9,0.8l1.1,10.6c0.3,2.4,2.2,4.3,4.7,4.5c0,0,13,0.9,19.6,0.9
			s11.3-1.4,14.2-4.2c2.9-2.8,5-8.8,6.3-17.8c1.3-9.1,1.9-39.7,1.9-39.7c0-2.3-1.8-4.2-4.1-4.2c0,0-0.1,0-0.1,0H110
			c-2.3,0-4.3,1.9-4.3,4.2V28c0,2.3,1.9,4.2,4.3,4.2h12.9c2.3,0,3.4,1.7,2.3,3.8c0,0-1.9,4.8-7.6,11.1c-3.2,3.5-6.7,6.8-10.4,9.9
			c-1.9,1.4-3.5,1.7-3.5,0.8s-1.9-1.7-4.3-1.7H83c-2.3,0-4.3-1.9-4.3-4.2v-6.6c0-2.3,1.9-4.2,4.3-4.2h14.8c2.3,0,4.3-1.9,4.3-4.2
			V21.2c0-2.3-1.9-4.2-4.3-4.2H83c-2.3,0-4.3-1.9-4.3-4.2V4.2c0-2.3-1.9-4.2-4.3-4.2H54c-2.3,0-4.3,1.9-4.3,4.2v8.5
			c0,2.3-1.9,4.2-4.3,4.2h-18c-2.3,0-4.2,1.9-4.3,4.2v15.5c0,2.3,1.9,4.2,4.3,4.2h18c2.3,0,4.3,1.9,4.3,4.2v6.6
			c0,2.3-1.9,4.2-4.3,4.2H23.2c-2.3,0-4.3,1.9-4.3,4.2v16c0,2.3,1.9,4.2,4.3,4.2H51c2.3,0,4.3,1.9,4.3,4.2v43.6c0,2.3-3.9,0.4-5-0.9
			s-1.8-4.3-1.7-6.6l1.4-26c0.1-2.4-1.7-4.4-4.1-4.7L30,88.5c-2.3-0.2-4.3,1.4-4.5,3.7c0,0,0,0.1,0,0.1l-8.9,69.3
			c-0.4,2.4,0.9,4.8,3.1,5.9l15.9,7c1.7,0.8,3.7,0.1,4.5-1.5c0.1-0.3,0.2-0.6,0.3-0.9l3.4-17c0.4-2.3,2.3-3.1,4.2-1.7
			c0,0,17.5,12.3,31.9,15.5c14.4,3.1,61,4.6,61,4.6c2.3,0.1,6.2,0.1,8.5,0.1h37.8c2.4,0,4.3-1.9,4.5-4.2l1-16.2
			c0.2-2.2-1.5-4.1-3.7-4.2c-0.1,0-0.2,0-0.3,0h-39.3c-2.3,0-6.2,0-8.5-0.1l-53.9-3.2c-2.4-0.3-4.2-2.3-4.2-4.7v-15.1
			c0-2.3,1.9-4.2,4.3-4.2h11.5c2.3,0,4.3-1.9,4.3-4.2v-15.3c0-2.3-1.9-4.2-4.3-4.2H86.9c-2.3,0-4.3-1.9-4.3-4.2v-8.7
			c0-2.3,1.9-4.2,4.3-4.2h12.5c2.3,0,4.3-1.9,4.3-4.2v-8.5c0-2.3,0.9-2.6,2-0.5l4.6,8.6c1.1,2.1,0.9,3.7-0.5,3.7
			c-1.4,0-2.6,1.9-2.6,4.2v51.1c0,2.3,1.9,4.2,4.3,4.2h72.3c2.3,0,4.3-1.9,4.3-4.2v-5.7l-17.7,0.3c-1.5,0-2.7-1.2-2.7-2.6
			C167.6,126.6,167.6,126.4,167.7,126.2 M146.7,47.3l3.2-10.9c0.7-2.4,2.8-4,5.2-4.1h4.5c2.3,0,4.1,1.8,4.1,4.1c0,0,0,0.1,0,0.1
			c0,0-0.3,9.9-1,12.3c-0.6,2.2-2.6,3.7-4.9,3.5c-1.6,0-8.4-0.6-8.4-0.6c-1.7,0-3.1-1.4-3.1-3.1C146.5,48.1,146.6,47.7,146.7,47.3
			 M160,113.8c0,2.3-1.9,4.2-4.3,4.2H138c-2.3,0-4.3-1.9-4.3-4.2v-9.4c0-2.3,1.9-4.2,4.3-4.2h17.8c2.3,0,4.3,1.9,4.3,4.2V113.8z"/>
		<path id="パス_20641" class="st1" d="M348.9,9.6l0.3-2.1c0.2-1.4,1.3-2.4,2.7-2.5l22.7-0.2c1.1,0,2,0.9,2,2c0,0.2,0,0.3-0.1,0.5
			l-0.3,2.1c-0.2,1.4-1.3,2.4-2.7,2.5l-22.7,0.2c-1.1,0-2-0.9-2-2C348.9,9.9,348.9,9.8,348.9,9.6"/>
		<path id="パス_20642" class="st1" d="M408.7,38.6h-45.5c-1.9,0-3.4-1.5-3.4-3.4V19l-15.2,0.1c-1.1,0-2-0.9-2-2
			c0-0.2,0-0.3,0.1-0.5l0.3-2.1c0.2-1.4,1.3-2.4,2.7-2.5l14.2-0.1V8.5c0-1.9-1.5-3.4-3.4-3.4h-12.8c-1.9,0-3.4,1.5-3.4,3.4v97.3
			c0,1.9,1.5,3.4,3.4,3.4h12.8c1.9,0,3.4-1.5,3.4-3.4V61.5c0-1.9,1.5-3.4,3.4-3.4h45.5c1.9,0,3.4-1.5,3.4-3.4c0,0,0,0,0,0V42
			C412.1,40.1,410.6,38.6,408.7,38.6"/>
		<path id="パス_20643" class="st1" d="M464.3,124.9l0.3-2.1c0.2-1.4,1.3-2.4,2.7-2.5l22.7-0.2c1.1,0,2,0.9,2,2
			c0,0.2,0,0.3-0.1,0.5l-0.3,2.1c-0.2,1.4-1.3,2.4-2.7,2.5l-22.7,0.2c-1.1,0-2-0.9-2-2C464.3,125.2,464.3,125.1,464.3,124.9"/>
		<path id="パス_20644" class="st1" d="M457.9,132l0.3-2.1c0.2-1.4,1.3-2.4,2.7-2.5l12.6-0.1c2.6-7.3,4.2-15,4.8-22.7
			c0-0.1,0-0.2,0-0.3V88.3c0-1.6-1.3-3-3-3c0,0,0,0,0,0h-34.2c-1.6,0-3-1.3-3-3c0-0.2,0-0.5,0.1-0.7c0.2-0.8,0.4-1.7,0.6-2.6
			c0.2-1,0.5-2.1,0.7-3.2c0.3-1.6-0.8-3.2-2.4-3.5c-0.2,0-0.4,0-0.5,0h-13.7c-1.4,0-2.6,1-2.9,2.4c-1,5.1-2.6,10-4.7,14.7
			c-1.9,4.2-4.2,8.3-6.8,12.1c-1.7,2.7-3.8,5.2-6.2,7.4c-0.7,0.6-1.3,1.1-1.7,1.5c-0.7,0.6-1.1,1.4-1.1,2.3v17.1c0,1.6,1.3,3,3,3
			c0.6,0,1.2-0.2,1.7-0.5l0.1-0.1c4.1-3.1,7.9-6.5,11.4-10.2c4.9-5.2,9.4-10.8,13.2-16.8c0.6-0.8,1.5-1.4,2.5-1.4h23.8
			c1.7,0,3,1.4,3,3c0,0.2,0,0.3,0,0.5c-0.9,6.7-2.8,13.2-5.8,19.3c-3.1,6-7.3,11.3-12.3,15.8c-4.4,4.1-9.3,7.5-14.6,10.2
			c-3.8,1.9-7.7,3.5-11.8,4.7c-1.1,0.3-2,0.5-2.7,0.7c-1.3,0.3-2.2,1.5-2.2,2.9V175c0,1.6,1.3,3,3,3c0.2,0,0.4,0,0.7-0.1l1.1-0.2
			c4.1-1,8-2.3,11.9-3.9c5.4-2.2,10.7-4.8,15.7-7.7c6-3.5,11.5-7.9,16.5-12.8c5.4-5.5,9.8-11.9,13.1-18.9l-10.7,0.1
			c-1.1,0-2-0.9-2-2C457.9,132.3,457.9,132.1,457.9,132"/>
		<path id="パス_20645" class="st1" d="M403.5,77.2l0.3-2.1c0.2-1.4,1.3-2.4,2.7-2.5l22.7-0.2c1.1,0,2,0.9,2,2
			c0,0.2,0,0.3-0.1,0.5l-0.3,2.1c-0.2,1.4-1.3,2.4-2.7,2.5l-22.7,0.2c-1.1,0-2-0.9-2-2C403.5,77.5,403.5,77.3,403.5,77.2"/>
		<path id="パス_20646" class="st1" d="M301.8,149.3l0.4-2.8c0.3-1.9,1.8-3.3,3.7-3.4l14.1-0.1c0.7-3.6,1-7.2,1-10.9
			c-0.1-9.1-1.7-16.4-4.9-22.1c-2.8-5.3-7.1-9.7-12.2-12.8c-4.9-2.9-10.3-4.9-16-6c-5.2-1-10.5-1.5-15.8-1.4c-0.1,0-0.3,0-0.4,0h0
			c-1.7,0.2-3.2-0.9-3.4-2.6c0-0.1,0-0.3,0-0.4v-6.2c0-1.7,1.3-3,3-3l0,0h13.8c1.7,0,3-1.3,3-3v0v-1.8c0-1.7,1.4-3,3-3
			c1.2,0,2.3,0.7,2.7,1.8c0.5,1.2,1,2.4,1.4,3.4c1.2,3.1,2.5,7,4.1,11.6c0.4,1.2,1.6,2,2.8,2h18c1.7,0,3-1.3,3-3
			c0-0.4-0.1-0.7-0.2-1.1c-0.8-2.1-1.9-5.1-3.4-9c-3.1-8.3-8.4-20.2-16-35.7c-0.5-1-1.6-1.7-2.7-1.7h-18.7c-1.7,0-3,1.3-3,3
			c0,0.5,0.1,1,0.4,1.5c1.5,2.6,2.7,4.9,3.9,7.1c0.8,1.5,0.2,3.3-1.3,4c-0.4,0.2-0.9,0.3-1.4,0.3h-9.6c-1.7,0-3-1.3-3-3v0V40.7
			c0-1.7-1.3-3-3-3l0,0h-17.1c-1.7,0-3,1.3-3,3c0,0,0,0,0,0v10.6c0,1.7-1.3,3-3,3c0,0,0,0,0,0h-24.1c-1.7,0-3,1.3-3,3v0v17.4
			c0,1.7,1.3,3,3,3h24.1c1.7,0,3,1.3,3,3c0,0,0,0,0,0v10.8c0,1.3-0.8,2.4-2,2.8c-5.8,2.2-11.1,5.2-15.9,9.2
			c-5,4.1-9.2,9.2-12.1,14.9c-3,5.8-4.4,12.2-4.1,18.7c0.3,7.3,2.1,13.5,5.3,18.7c2.9,4.9,7,9,11.8,11.9c4.2,2.6,9,4.1,14,4.1
			c3.5,0.2,6.9-0.3,10.2-1.5c3.7-1.2,7.2-4,10.5-8.3c3.3-4.3,5.1-11,5.4-20.1v-28c0.3-0.1,0.7-0.2,1-0.2h1c9-0.3,15.7,1.1,20.1,4.3
			c4.4,3.2,6.7,7.8,6.7,13.9c0.1,3.5-0.5,7-1.9,10.2c-1.3,2.6-3.6,4.5-7,5.6c-3.4,1-6.8,1.6-10.4,1.7c-1.6,0.1-2.9,1.4-2.9,3v19.3
			c0,1.7,1.3,3,3,3c0.1,0,0.1,0,0.2,0c3.7-0.2,7.5-0.8,11.1-1.6c5.3-1.2,10.4-3.3,15-6.2c5-3.2,9.1-7.7,11.9-13
			c0.3-0.5,0.5-1,0.8-1.5l-12.5,0.1c-1.5,0-2.7-1.2-2.8-2.7C301.8,149.7,301.8,149.5,301.8,149.3 M245.3,144.3
			c-0.1,1.5-0.5,2.4-1.2,2.7s-1.1,0.3-1.2,0.2c-1.4,0.1-2.8-0.2-4.1-0.9c-1.6-0.8-3-2-4-3.4c-1.2-1.8-1.8-4-1.6-6.1
			c0-3.7,1.1-7.3,3.2-10.4c1.1-1.6,2.4-3,3.8-4.2c1.3-1.1,3.2-0.9,4.3,0.4c0.5,0.5,0.7,1.2,0.7,1.9L245.3,144.3z"/>
	</g>
</g>
</svg>
