<?xml version="1.0" encoding="utf-8"?>
<!-- Generator: Adobe Illustrator 26.4.1, SVG Export Plug-In . SVG Version: 6.00 Build 0)  -->
<svg version="1.1" id="レイヤー_1" xmlns="http://www.w3.org/2000/svg" xmlns:xlink="http://www.w3.org/1999/xlink" x="0px"
	 y="0px" viewBox="0 0 164 172" style="enable-background:new 0 0 164 172;" xml:space="preserve">
<style type="text/css">
	.st0{fill:#FDD000;}
</style>
<g id="hero_catch04_sp" transform="translate(0.001 -5)">
	<g>
		<g id="グループ_4622" transform="translate(-0.001)">
			<path id="パス_20704" class="st0" d="M31.5,20.5l0.2-1.4c0.1-0.9,0.9-1.6,1.8-1.7l30.7-0.5c0.7,0,1.3,0.6,1.4,1.3
				c0,0.1,0,0.2,0,0.3l-0.2,1.4c-0.1,0.9-0.9,1.6-1.8,1.7l-30.7,0.5c-0.7,0-1.3-0.6-1.4-1.3C31.5,20.7,31.5,20.6,31.5,20.5"/>
			<path id="パス_20705" class="st0" d="M33.6,76.1l0.2-1.4c0.1-0.9,0.9-1.6,1.8-1.7l30.7-0.5c0.7,0,1.3,0.6,1.4,1.3
				c0,0.1,0,0.2,0,0.3l-0.2,1.4c-0.1,0.9-0.9,1.6-1.8,1.7l-30.7,0.5c-0.7,0-1.3-0.6-1.4-1.3C33.6,76.3,33.6,76.2,33.6,76.1"/>
			<path id="パス_20706" class="st0" d="M98.4,82.7l0.2-1.4c0.1-0.9,0.9-1.6,1.8-1.7l30.7-0.5c0.7,0,1.3,0.6,1.4,1.3
				c0,0.1,0,0.2,0,0.3l-0.2,1.4c-0.1,0.9-0.9,1.6-1.8,1.7l-30.7,0.5c-0.7,0-1.3-0.6-1.4-1.3C98.4,82.9,98.4,82.8,98.4,82.7"/>
			<path id="パス_20707" class="st0" d="M118.3,9.2L130.9,9c0.8,0.1,1.5,0.8,1.4,1.7c0,0.4-0.3,0.9-0.6,1.1
				c-2.6,2.1-4.5,5.1-5.3,8.4C125,27.6,118.3,9.2,118.3,9.2"/>
			<path id="パス_20708" class="st0" d="M114.7,67.9l0.2-1.4c0.1-0.9,0.9-1.6,1.8-1.7l8.1-0.1V46.8c0-1.2-0.9-2.1-2.1-2.1H92.5
				c-1.2,0-1.3-0.6-0.4-1.3l9.5-9.6c0.7-0.9,1.3-0.8,1.4,0.4l0.5,5.3c0.2,1.2,1.1,2.1,2.3,2.2c0,0,6.5,0.4,9.7,0.4s5.6-0.7,7-2.1
				c1.4-1.4,2.5-4.4,3.1-8.9c0.7-4.5,0.9-19.8,0.9-19.8c0-1.1-0.9-2.1-2-2.1c0,0,0,0-0.1,0H86.1c-1.2,0-2.1,0.9-2.1,2.1V19
				c0,1.2,0.9,2.1,2.1,2.1h6.4c0.6-0.1,1.2,0.3,1.3,1c0.1,0.3,0,0.7-0.2,0.9c-1,2-2.2,3.9-3.8,5.5c-1.6,1.8-3.3,3.4-5.1,4.9
				c-0.9,0.7-1.7,0.9-1.7,0.4s-1-0.8-2.1-0.8h-8.2c-1.2,0-2.1-0.9-2.1-2.1v-3.3c0-1.2,0.9-2.1,2.1-2.1H80c1.2,0,2.1-0.9,2.1-2.1
				v-7.7c0-1.2-0.9-2.1-2.1-2.1h-7.3c-1.2,0-2.1-0.9-2.1-2.1V7.1c0-1.2-0.9-2.1-2.1-2.1H58.3c-1.2,0-2.1,0.9-2.1,2.1v4.2
				c0,1.2-0.9,2.1-2.1,2.1h-8.9c-1.2,0-2.1,0.9-2.1,2.1v7.7c0,1.2,0.9,2.1,2.1,2.1h8.9c1.2,0,2.1,0.9,2.1,2.1v3.3
				c0,1.2-0.9,2.1-2.1,2.1H43c-1.2,0-2.1,0.9-2.1,2.1v8c0,1.2,0.9,2.1,2.1,2.1h13.8c1.2,0,2.1,0.9,2.1,2.1V69c0,1.2-1.9,0.2-2.5-0.5
				c-0.6-1-0.9-2.1-0.8-3.3l0.7-13c0-1.2-0.8-2.2-2-2.3l-7.9-0.8c-1.1-0.1-2.1,0.7-2.3,1.8c0,0,0,0,0,0.1l-4.4,34.6
				c-0.2,1.2,0.4,2.4,1.5,2.9l7.9,3.5c0.8,0.4,1.8,0.1,2.3-0.8c0.1-0.1,0.1-0.3,0.1-0.4l1.7-8.5c0-0.7,0.6-1.2,1.3-1.2
				c0.3,0,0.6,0.1,0.8,0.3c0,0,8.7,6.1,15.8,7.7s30.3,2.3,30.3,2.3c1.2,0,3.1,0.1,4.2,0.1h18.8c1.2,0,2.2-0.9,2.2-2.1l0.5-8.1
				c0.1-1.1-0.7-2-1.8-2.1c-0.1,0-0.1,0-0.2,0h-19.5c-1.2,0-3.1,0-4.2-0.1l-26.8-1.6c-1.2-0.2-2.1-1.2-2.1-2.4v-7.5
				c0-1.2,0.9-2.1,2.1-2.1h5.7c1.2,0,2.1-0.9,2.1-2.1v-7.6c0-1.2-0.9-2.1-2.1-2.1h-5.7c-1.2,0-2.1-0.9-2.1-2.1v-4.3
				c0-1.2,0.9-2.1,2.1-2.1h6.2c1.2,0,2.1-0.9,2.1-2.1v-4.2c0-1.2,0.5-1.3,1-0.3l2.3,4.3c0.6,1,0.4,1.9-0.3,1.9c-0.7,0-1.3,1-1.3,2.1
				v25.5c0,1.2,0.9,2.1,2.1,2.1h35.8c1.2,0,2.1-0.9,2.1-2.1v-2.8l-8.8,0.1c-0.7,0-1.3-0.6-1.4-1.3C114.6,68.2,114.6,68.1,114.7,67.9
				 M104.3,28.6l1.6-5.4c0.3-1.2,1.4-2,2.6-2.1h2.2c1.1,0,2.1,0.9,2.1,2c0,0,0,0,0,0.1c0,2-0.2,4.1-0.5,6.1
				c-0.3,1.1-1.3,1.8-2.4,1.7c-0.8,0-4.2-0.3-4.2-0.3c-0.9,0-1.5-0.7-1.5-1.6C104.1,29,104.2,28.8,104.3,28.6 M110.9,61.8
				c0,1.2-0.9,2.1-2.1,2.1h-8.8c-1.2,0-2.1-0.9-2.1-2.1v-4.7c0-1.2,0.9-2.1,2.1-2.1h8.8c1.2,0,2.1,0.9,2.1,2.1V61.8z"/>
			<path id="パス_20709" class="st0" d="M45.9,166.9l0.2-1.5c0.1-1,1-1.7,1.9-1.8l16.2-0.1c0.8,0,1.4,0.6,1.4,1.4
				c0,0.1,0,0.2,0,0.3l-0.2,1.5c-0.1,1-1,1.7-1.9,1.8l-16.2,0.1c-0.8,0-1.4-0.6-1.4-1.4C45.9,167.1,45.9,167,45.9,166.9"/>
			<path id="パス_20710" class="st0" d="M0,138.5l0.2-1.5c0.1-1,1-1.7,1.9-1.8l16.2-0.1c0.8,0,1.4,0.6,1.4,1.4c0,0.1,0,0.2,0,0.3
				l-0.2,1.5c-0.1,1-1,1.7-1.9,1.8l-16.2,0.1c-0.8,0-1.4-0.6-1.4-1.4C0,138.7,0,138.6,0,138.5"/>
			<path id="パス_20711" class="st0" d="M48.5,103.3l7.4-0.1c0.5,0,0.9,0.5,0.8,1c0,0.3-0.2,0.5-0.4,0.7c-1.5,1.2-2.6,3-3.1,4.9
				C52.4,114.1,48.5,103.3,48.5,103.3"/>
			<path id="パス_20712" class="st0" d="M78.4,175.2l7.4,0.1c0.5,0,0.9-0.5,0.8-1c0-0.3-0.2-0.5-0.4-0.7c-1.5-1.2-2.6-3-3.1-4.9
				C82.3,164.5,78.4,175.2,78.4,175.2"/>
			<path id="パス_20713" class="st0" d="M77.4,122.7l0.2-1.1c0.1-0.7,0.7-1.3,1.4-1.3l11.9-0.1c0.6,0,1.1,0.5,1.1,1
				c0,0.1,0,0.2,0,0.3l-0.2,1.1c-0.1,0.7-0.7,1.3-1.4,1.3L78.4,124c-0.6,0-1.1-0.5-1.1-1C77.4,122.9,77.4,122.8,77.4,122.7"/>
			<path id="パス_20714" class="st0" d="M108.7,138H84.9c-1,0-1.8-0.8-1.8-1.8l0,0v-8.5l-8,0.1c-0.6,0-1.1-0.5-1.1-1
				c0-0.1,0-0.2,0-0.3l0.2-1.1c0.1-0.7,0.7-1.3,1.4-1.3l7.4-0.1v-1.9c0-1-0.8-1.8-1.8-1.8c0,0,0,0,0,0h-6.7c-1,0-1.8,0.8-1.8,1.8
				l0,0v51.3c0,1,0.8,1.8,1.8,1.8c0,0,0,0,0,0h6.7c1,0,1.8-0.8,1.8-1.8l0,0v-23.3c0-1,0.8-1.8,1.8-1.8c0,0,0,0,0,0h23.9
				c1,0,1.8-0.8,1.8-1.8v0v-6.7C110.5,138.8,109.7,138,108.7,138C108.7,138,108.7,138,108.7,138"/>
			<path id="パス_20715" class="st0" d="M152.1,128.1l7.4-0.1c0.5,0,0.9,0.5,0.8,1c0,0.3-0.2,0.5-0.4,0.7c-1.5,1.2-2.6,3-3.1,4.9
				C156,138.9,152.1,128.1,152.1,128.1"/>
			<path id="パス_20716" class="st0" d="M149.5,149l0.2-1.1c0.1-0.7,0.7-1.3,1.4-1.3l11.9-0.1c0.6,0,1.1,0.5,1.1,1
				c0,0.1,0,0.2,0,0.3l-0.2,1.1c-0.1,0.7-0.7,1.3-1.4,1.3l-11.9,0.1c-0.6,0-1.1-0.5-1.1-1C149.4,149.2,149.4,149.1,149.5,149"/>
			<path id="パス_20717" class="st0" d="M146.1,152.7l0.2-1.1c0.1-0.7,0.7-1.3,1.4-1.3l6.6,0c1.4-3.9,2.2-7.9,2.5-12
				c0-0.1,0-0.1,0-0.2v-8.4c0-0.9-0.7-1.6-1.6-1.6h-18c-0.9,0-1.6-0.7-1.6-1.6c0-0.1,0-0.2,0-0.4c0.1-0.4,0.2-0.9,0.3-1.4
				c0.1-0.5,0.2-1.1,0.3-1.7c0.2-0.9-0.4-1.7-1.3-1.8c-0.1,0-0.2,0-0.3,0h-7.2c-0.7,0-1.4,0.5-1.5,1.3c-0.5,2.7-1.4,5.3-2.5,7.7
				c-1,2.2-2.2,4.4-3.6,6.4c-0.9,1.4-2,2.7-3.2,3.9c-0.4,0.3-0.7,0.6-0.9,0.8c-0.4,0.3-0.6,0.7-0.6,1.2v9c0,0.9,0.7,1.6,1.6,1.6
				c0.3,0,0.6-0.1,0.9-0.3l0,0c2.1-1.6,4.1-3.4,6-5.4c2.6-2.7,4.9-5.7,6.9-8.9c0.3-0.4,0.8-0.7,1.3-0.7h12.5c0.9,0,1.6,0.7,1.6,1.6
				c0,0.1,0,0.2,0,0.2c-0.5,3.5-1.5,7-3.1,10.2c-1.6,3.1-3.8,6-6.4,8.3c-2.3,2.1-4.9,4-7.7,5.4c-2,1-4.1,1.8-6.2,2.5
				c-0.6,0.2-1,0.3-1.4,0.4c-0.7,0.2-1.2,0.8-1.2,1.5v7.5c0,0.9,0.7,1.6,1.6,1.6c0.1,0,0.2,0,0.3,0l0.6-0.1c2.1-0.5,4.2-1.2,6.2-2.1
				c2.8-1.1,5.6-2.5,8.2-4.1c3.2-1.9,6.1-4.1,8.6-6.8c2.8-2.9,5.2-6.3,6.9-10l-5.6,0c-0.6,0-1.1-0.5-1.1-1
				C146.1,152.9,146.1,152.8,146.1,152.7"/>
			<path id="パス_20718" class="st0" d="M117.6,123.8l0.2-1.1c0.1-0.7,0.7-1.3,1.4-1.3l11.9-0.1c0.6,0,1.1,0.5,1.1,1
				c0,0.1,0,0.2,0,0.3l-0.2,1.1c-0.1,0.7-0.7,1.3-1.4,1.3l-11.9,0.1c-0.6,0-1.1-0.5-1.1-1C117.6,124,117.6,123.9,117.6,123.8"/>
			<path id="パス_20719" class="st0" d="M49.6,161.8l0.2-1.5c0.1-1,1-1.7,1.9-1.8l7.4-0.1c0.3-1.9,0.5-3.8,0.5-5.7
				c-0.1-4.8-0.9-8.7-2.6-11.6c-1.5-2.8-3.7-5.1-6.4-6.8c-2.6-1.5-5.4-2.6-8.4-3.1c-2.7-0.5-5.5-0.8-8.3-0.7c-0.1,0-0.1,0-0.2,0h0
				c-0.9,0.1-1.7-0.5-1.8-1.4c0-0.1,0-0.1,0-0.2v-3.3c0-0.9,0.7-1.6,1.6-1.6h7.2c0.9,0,1.6-0.7,1.6-1.6c0,0,0,0,0,0v-0.9
				c0-0.9,0.7-1.6,1.6-1.6c0.6,0,1.2,0.4,1.4,0.9c0.3,0.7,0.5,1.3,0.7,1.8c0.6,1.7,1.3,3.7,2.2,6.1c0.2,0.6,0.8,1.1,1.5,1.1h9.4
				c0.9,0,1.6-0.7,1.6-1.6c0-0.2,0-0.4-0.1-0.6c-0.4-1.1-1-2.7-1.8-4.7c-1.6-4.4-4.4-10.6-8.4-18.8c-0.3-0.5-0.8-0.9-1.4-0.9h-9.8
				c-0.9,0-1.6,0.7-1.6,1.6c0,0.3,0.1,0.5,0.2,0.8c0.8,1.4,1.4,2.6,2,3.7c0.4,0.8,0.1,1.7-0.7,2.1c-0.2,0.1-0.5,0.2-0.7,0.2h-5
				c-0.9,0-1.6-0.7-1.6-1.6v-5.6c0-0.9-0.7-1.6-1.6-1.6c0,0,0,0,0,0h-9c-0.9,0-1.6,0.7-1.6,1.6l0,0v5.6c0,0.9-0.7,1.6-1.6,1.6H5.8
				c-0.9,0-1.6,0.7-1.6,1.6c0,0,0,0,0,0v9.2c0,0.9,0.7,1.6,1.6,1.6c0,0,0,0,0,0h12.6c0.9,0,1.6,0.7,1.6,1.6v5.7c0,0.7-0.4,1.2-1,1.5
				c-3,1.1-5.8,2.8-8.3,4.8c-2.6,2.2-4.8,4.8-6.4,7.9c-1.5,3-2.3,6.4-2.1,9.8c0.1,3.5,1,6.9,2.8,9.9c1.5,2.6,3.6,4.7,6.2,6.3
				c2.2,1.4,4.7,2.1,7.3,2.2c1.8,0.1,3.6-0.2,5.4-0.8c2.2-0.9,4.2-2.4,5.5-4.4c1.7-2.3,2.7-5.8,2.8-10.6v-14.8
				c0.2-0.1,0.3-0.1,0.5-0.1h0.5c4.7-0.2,8.2,0.6,10.6,2.3c2.3,1.7,3.6,4.5,3.5,7.3c0.1,1.8-0.3,3.7-1,5.4c-0.8,1.5-2.1,2.5-3.7,3
				c-1.8,0.6-3.6,0.9-5.4,0.9c-0.8,0-1.5,0.7-1.5,1.6v10.2c0,0.9,0.7,1.6,1.6,1.6c0,0,0.1,0,0.1,0c2-0.1,3.9-0.4,5.8-0.8
				c2.8-0.6,5.5-1.7,7.9-3.3c2.6-1.7,4.8-4.1,6.2-6.9c0.1-0.3,0.3-0.5,0.4-0.8l-6.6,0c-0.8,0-1.4-0.6-1.4-1.4
				C49.6,162.1,49.6,162,49.6,161.8 M20,159.2c-0.1,0.8-0.3,1.3-0.6,1.4c-0.3,0.1-0.6,0.1-0.6,0.1c-0.7,0-1.5-0.1-2.1-0.5
				c-0.8-0.4-1.6-1-2.1-1.8c-0.6-0.9-0.9-2.1-0.8-3.2c0-2,0.6-3.9,1.7-5.5c0.6-0.8,1.2-1.6,2-2.2c0.7-0.6,1.7-0.5,2.2,0.2
				c0.2,0.3,0.4,0.6,0.4,1L20,159.2z"/>
		</g>
	</g>
</g>
</svg>
