<svg xmlns="http://www.w3.org/2000/svg" xmlns:xlink="http://www.w3.org/1999/xlink" width="641.936" height="555.425" viewBox="0 0 641.936 555.425">
  <defs>
    <clipPath id="clip-path">
      <path id="パス_17010" data-name="パス 17010" d="M811.566,90.426l-2.548,10.086,23.543-2.06,2.548-10.087ZM846.389,0,817.21,28.943l10.068-.881-11.5,52.131,20.21-1.768,14.378-52.383,9.82-.859Z" transform="translate(-809.018 0.005)" fill="none"/>
    </clipPath>
    <linearGradient id="linear-gradient" x1="-3.94" y1="5.194" x2="-3.935" y2="5.194" gradientUnits="objectBoundingBox">
      <stop offset="0" stop-color="#fabe00"/>
      <stop offset="1" stop-color="#fff100"/>
    </linearGradient>
    <clipPath id="clip-path-2">
      <rect id="長方形_2219" data-name="長方形 2219" width="641.936" height="507.152" fill="none"/>
    </clipPath>
  </defs>
  <g id="グループ_3341" data-name="グループ 3341" transform="translate(0 48.277)">
    <path id="パス_16995" data-name="パス 16995" d="M68.457,440.318l.472-5.7,29.439-2.575.283-7.2,21.136-1.849-.283,7.2,31.326-2.741-.472,5.7-31.043,2.716-.66,18.552,30.666-2.683-.472,5.7L118.466,460.1l-.66,19.684-21.042,1.841.661-19.684-30.477,2.666.472-5.7,30.194-2.642.567-18.543Z" transform="translate(-43.791 -317.756)" fill="#fff"/>
    <path id="パス_16996" data-name="パス 16996" d="M288.554,476.352l.345-4.174,8.841-.773-.345-5.081,14.919-1.305.345,5.081,33.982-2.973-4.973,17.564-14.3,1.251,3.73-13.311-18.234,1.6,1.589,25.14-14.919,1.306-1.588-25.141Z" transform="translate(-176.541 -342.929)" fill="#fff"/>
    <path id="パス_16997" data-name="パス 16997" d="M408.454,408.994l.472-5.7,29.439-2.575-.472,5.7Zm23.967,46.4,34.629-54.926,24.156-2.113-34.629,54.925Z" transform="translate(-248.365 -302.997)" fill="#fff"/>
    <path id="パス_16998" data-name="パス 16998" d="M660.058,426.389,631.28,387.673,615.522,413.3l-18.116,1.585L621.939,375l21.136-1.849,38.12,51.391Zm25.7-44.487-18.16,1.589,1.362-15.253,18.16-1.589Zm-6.748-8.864-3.019.264-.284,3.8,3.02-.264Z" transform="translate(-361.553 -284.003)" fill="#fff"/>
    <path id="パス_16999" data-name="パス 16999" d="M814.144,442.569l.471-5.7,50.088-4.382-.472,5.7Z" transform="translate(-491.387 -323.441)" fill="#fff"/>
    <path id="パス_17000" data-name="パス 17000" d="M915.784,364.609l.472-5.7L945.7,356.33l-.472,5.7Zm23.967,46.4,34.629-54.926,24.156-2.113L963.906,408.9Z" transform="translate(-552.272 -276.409)" fill="#fff"/>
    <path id="パス_17001" data-name="パス 17001" d="M447.944,812.844l-7.453,74.9-20.183,20.107,16.5,16.9-7.751,77.888-20.183,20.107-76.027,6.652-16.8-16.872L323.8,934.64l20.183-20.107-16.5-16.9,7.454-74.9,20.182-20.107,76.323-6.677Zm-44.144,22.2-28.7,2.51-4.853,4.566-4.781,48.046,3.991,4.088,28.7-2.51,4.882-4.865,4.781-48.046Zm-9.294,93.407-28.7,2.51-4.883,4.865-5.018,50.434,3.992,4.088,28.7-2.51,4.883-4.865,5.018-50.434Z" transform="translate(-195.703 -530.679)" fill="#fff100"/>
    <path id="パス_17002" data-name="パス 17002" d="M817.527,783.09,810.074,858,789.891,878.1l16.5,16.9-7.751,77.888-20.182,20.107-76.027,6.652-16.8-16.872,7.751-77.888,20.182-20.107-16.5-16.9,7.454-74.9L724.7,772.87l76.323-6.677Zm-44.144,22.2-28.7,2.51-4.853,4.566-4.781,48.046,3.992,4.088,28.7-2.51,4.883-4.865,4.781-48.046ZM764.088,898.7l-28.7,2.51-4.883,4.865-5.019,50.434,3.992,4.088,28.7-2.51,4.883-4.865,5.019-50.434Z" transform="translate(-438.745 -512.679)" fill="#fff100"/>
    <path id="パス_17003" data-name="パス 17003" d="M1185.056,747.322l-18.887,189.8-20.182,20.107-75.731,6.625-16.5-16.9,18.887-189.8,20.183-20.107,75.731-6.625Zm-44.144,22.2-28.4,2.485-4.557,4.54-14.4,144.735,3.725,3.816,28.4-2.484,4.854-4.567,14.4-144.735Z" transform="translate(-680.821 -487.838)" fill="#fff100"/>
    <path id="パス_17004" data-name="パス 17004" d="M118.968,176.406l4.149-8.667L99.878,165.3l-6.3,13.326-19.56,1.711L93.04,139.922l3.225-.282L112.6,138.21l25.386-2.221,19.039-1.666,4.266-.373-11.057,23.538,18.519,1.786-1.406,12.9-22.941-2.251-2.133,4.445ZM85.792,65.179l1.354-12.042,93.222-8.156-1.354,12.042-52.957,4.633-2.134,6.149,27.571-2.412,19.976-1.748-6.822,66.179-19.977,1.748-39.12,3.423-19.976,1.748L92.4,70.563l10.716-.938,2.134-6.149Zm21.01,57.782,39.12-3.423.573-6.013-39.12,3.423Zm1.823-18.046,39.12-3.423.677-6.021L109.3,98.895Zm-1.487,44.845-1.431,3.107,23.24,2.438,3.577-7.765Zm3.987-68.911-.573,6.013,39.12-3.423.573-6.013Z" transform="translate(-48.345 -93.258)" fill="#fff100"/>
    <path id="パス_17005" data-name="パス 17005" d="M378.482,162.9l5.32-28.074-58.885,5.152.459-5.544,79.981-7-6.329,33.665Zm-39.257,23.98,12.566-42.466,20.545-1.8-12.566,42.465Z" transform="translate(-193.893 -125.595)" fill="#fff"/>
    <path id="パス_17006" data-name="パス 17006" d="M642.879,145.407l-53.859,4.712,1.192-6.341-20.545,1.8-5.045,27.591,20.546-1.8,2.843-15.658,14.414-1.261-10.273,43.824,20.545-1.8,10.089-43.808.013-.068,18.8-1.645Z" transform="translate(-348.187 -136.11)" fill="#fff"/>
    <path id="パス_17007" data-name="パス 17007" d="M743.683,171.317,740.67,184.4l-11.281.987,3.068-13.088Z" transform="translate(-454.245 -153.837)" fill="#fff"/>
    <path id="パス_17008" data-name="パス 17008" d="M783.1,167.869l-3.013,13.084-11.281.987,3.068-13.089Z" transform="translate(-479.616 -151.618)" fill="#fff"/>
    <g id="グループ_3338" data-name="グループ 3338" transform="translate(303.517 -43.565)">
      <g id="グループ_3337" data-name="グループ 3337" transform="translate(0 0)" clip-path="url(#clip-path)">
        <path id="パス_17009" data-name="パス 17009" d="M781.626,100.435,791.39-.114l60.927.046-9.764,100.549Z" transform="translate(-791.386 0.075)" fill="url(#linear-gradient)"/>
      </g>
    </g>
    <path id="パス_17011" data-name="パス 17011" d="M1484.1,713.642l20.2-1.768-3.875,42.386-20.356,1.781Zm49.811-4.358,20.51-1.794-4.029,42.4-20.356,1.781Zm21.543-13.565-70.32,6.152-28.376,2.482-2.467.216L1443.72,819.177l30.842-2.7,4.477-48.667,70.321-6.152-4.477,48.668,30.843-2.7L1586.3,693.021Z" transform="translate(-944.362 -352.667)" fill="#fff"/>
    <path id="パス_17012" data-name="パス 17012" d="M20.2,1094.808l10.884-73.345,7.093-.621,17.12-1.5,48.67-4.258,20.054-1.754,4.157-.364-6.481,72.959-24.213,2.119,2.2-24.161-51.726,4.525L44.41,1092.69Zm28.859-33.83,51.238-4.483,1.223-13.314-50.382,4.408Zm3.18-20.822,49.892-4.365,1.223-13.314-49.158,4.3Z" transform="translate(-12.058 -683.497)" fill="#fff"/>
    <path id="パス_17013" data-name="パス 17013" d="M20.545,1320.937l11.983-1.048-1.223,14.292-11.983,1.049Zm30.448-10-17.731,1.551-11.984,1.049-14.063,1.23-4.525.4L0,1344.257l2.078-.182,16.508-1.444,11.984-1.048,15.286-1.338,3.3-.289,2.69-29.094Zm-2.446-28.156-14.8,1.295-6.359.557-10.15.887-7.46.653L1.957,1298.6l17.609-1.541L22.5,1292.4l6.481-.567-5.013,8.265-22.134-.02-.612,7.88,17.977.017-3.058,5.036,20.544-1.8,1.957-3.106,16.753,0,.367-7.859-12.351-.02,10.883-17.949Zm-25.8-13.884-.367,3.456-.733.064-16.631,1.455-.978,10.846,16.631-1.455.366-3.456L40.6,1278.1l-.367,3.456,16.631-1.455.978-10.847-.367.032L41.211,1270.7l-1.224.107.367-3.456ZM76.673,1312.6l13.207-1.155-.733,7.4L75.939,1320Zm1.223-13.8,13.207-1.155-.611,6.412-13.207,1.156Zm1.223-13.313,13.207-1.156-.611,5.923-13.207,1.156Zm9.783-21.4-17.609,1.541-11.25.984L59.431,1274l9.9-.867-1.467,6-6.359.556-1.345.118-4.4,49.3,2.324-.2.978-.086-6.6,10.85,17.609-1.541,6.6-10.849,10.15-.888,3.3,9.983,17.609-1.541-3.3-9.982,1.1-.1,2.568-.225,4.4-49.3-3.546.311-16.02,1.4-7.459.653,1.468-6,26.291-2.3.611-7.391Z" transform="translate(-0.001 -837.11)" fill="#fff"/>
    <path id="パス_17014" data-name="パス 17014" d="M483.419,977.3l3.761-13.453,4.548-.4L487.967,976.9Zm14.344-1.274-1.837-12.956,4.548-.4,1.836,12.956Zm7.844-12.595-4.372.389.328-3.673,4.372-.388Zm-1.16-2.7-1.576.14-.147,1.983,1.576-.14Z" transform="translate(-302.581 -635.286)" fill="#fff"/>
    <path id="パス_17015" data-name="パス 17015" d="M461.014,1235.423l.109-1.322,7.106-.631.547-3.766-7.15.766.109-1.322,18.541-2-.109,1.321-6.494.708-.546,3.853,6.975-.62-.109,1.322-7.062.627-.94,6.643-4.876.433.94-6.643Z" transform="translate(-288.273 -806.04)" fill="#fff"/>
    <path id="パス_17016" data-name="パス 17016" d="M853,947.546l3.761-13.453,4.548-.4-3.761,13.453Zm14.344-1.274-1.837-12.956,4.548-.4,1.836,12.956Zm7.844-12.595-4.372.388.328-3.673,4.372-.388Zm-1.16-2.7-1.576.14-.147,1.983,1.576-.14Z" transform="translate(-545.623 -617.286)" fill="#fff"/>
    <path id="パス_17017" data-name="パス 17017" d="M830.6,1205.67l.109-1.322,7.106-.631.547-3.766-7.15.766.109-1.322,18.541-2-.109,1.321-6.494.708-.546,3.853,6.975-.62-.109,1.322-7.062.627-.94,6.643-4.876.433.94-6.643Z" transform="translate(-531.316 -788.04)" fill="#fff"/>
    <path id="パス_17018" data-name="パス 17018" d="M506.985,562.625,58.267,600.107l-6.978,59.6,448.717-37.482Z" transform="translate(-43.549 -398.758)" fill="#fc13e2"/>
    <g id="グループ_3340" data-name="グループ 3340" transform="translate(0 -0.005)">
      <g id="グループ_3339" data-name="グループ 3339" transform="translate(0 -6)" clip-path="url(#clip-path-2)">
        <path id="パス_17032" data-name="パス 17032" d="M121.656,697.761l-7.239.627,2.09-16.808a90.25,90.25,0,0,1-14.381,7.246l-2.668-5.645a83.894,83.894,0,0,0,32.781-22.424l5.486,3.651a103.053,103.053,0,0,1-13.4,11.869Z" transform="translate(-65.057 -446.812)" fill="#fff100"/>
        <path id="パス_17033" data-name="パス 17033" d="M183.571,674.224a42.766,42.766,0,0,0-12.491-5.253l3.736-5.991a44.121,44.121,0,0,1,13.091,4.826Zm-14.258,15.4c14.46-2.46,25.245-8.228,32.447-27.186l5.454,3.57C199.208,685,187.89,693.02,169.945,696.74Z" transform="translate(-96.234 -447.564)" fill="#fff100"/>
        <path id="パス_17034" data-name="パス 17034" d="M238.612,667.4a34.433,34.433,0,0,0,12.479-13.29l24.23-2.1c-1.571,7.554-4.3,15.624-10.967,23.161-4.462,5.053-11.483,10.7-22.422,14.317l-2.781-5.76a42.764,42.764,0,0,0,17.964-9.972,42.756,42.756,0,0,0-9.531-5.676,37.067,37.067,0,0,1-5.092,4.025Zm16.276-7.576c-.86,1.158-1.312,1.739-2.846,3.58a38.549,38.549,0,0,1,9.689,5.079,32.268,32.268,0,0,0,4.527-9.643Z" transform="translate(-127.164 -442.91)" fill="#fff100"/>
        <path id="パス_17035" data-name="パス 17035" d="M324.611,671.906l-.864,6.95-20.763,1.8.864-6.951Z" transform="translate(-155.894 -451.788)" fill="#fff100"/>
        <path id="パス_17036" data-name="パス 17036" d="M364.921,642.111l6.814-.59-.6,4.845,10.816-.936-.707,5.687a105.072,105.072,0,0,1-12.063,10.962l-1.922,15.46-6.814.59,1.383-11.121a89.911,89.911,0,0,1-12.988,6.208l-2.53-5.74c14.807-4.907,22.193-11.464,26.189-15.144l-21.478,1.984.781-6.276,12.519-1.084Zm15.7,28.938a39.27,39.27,0,0,0-10.432-6.224l4.413-5.341a39.244,39.244,0,0,1,10.424,5.266Z" transform="translate(-175.23 -438.227)" fill="#fff100"/>
        <path id="パス_17037" data-name="パス 17037" d="M423.982,665.253a37.042,37.042,0,0,0-2.044-10.325l5.544-1.9a38.168,38.168,0,0,1,2.417,10.376Zm-1.715,9.733c14.967-4.5,19.858-10.3,24.391-25.073l6.407.988c-3.34,9.582-8.131,22.707-27.083,28.764Zm11.468-12.62a43.84,43.84,0,0,0-1.671-10.274l5.5-1.517a34.238,34.238,0,0,1,1.863,10.09Z" transform="translate(-208.985 -441.972)" fill="#fff100"/>
        <path id="パス_17038" data-name="パス 17038" d="M507.461,655.8a60.325,60.325,0,0,0-15.081-7.113L490,667.859l-7.325.634,4.468-35.934,7.324-.634-1.21,9.731a76.18,76.18,0,0,1,18.7,6.841Z" transform="translate(-236.092 -433.944)" fill="#fff100"/>
        <path id="パス_17039" data-name="パス 17039" d="M537.155,662.451a61.72,61.72,0,0,0,7.6-16.5l-4.771.447.647-5.2,5.573-.482c.638-2.627.907-3.954,1.306-6.047l5.7-.081c-.5,2.1-.969,3.891-1.43,5.645l2.107-.216c5.48-.577,6.976,2.449,6.179,8.863-.336,2.7-1.44,9.351-3.726,12.121a7.9,7.9,0,0,1-5.791,3.073,14.8,14.8,0,0,1-3.457-.077l.449-5.287a10.651,10.651,0,0,0,2.476.163,3.565,3.565,0,0,0,3.172-2.641,36.188,36.188,0,0,0,1.746-7.354c.263-2.115.492-3.953-2.562-3.654l-2.107.216c-1.132,3.8-4.511,13.7-8.307,19.412Zm25.595-8.423c.352-5.9-.187-10.2-3.148-14l3.951-2.777c3.475,4.4,4.822,9.186,4.69,15.542Zm3.735-20.834a22.776,22.776,0,0,1,3.443,5.773l-2.634,1.943a21.166,21.166,0,0,0-3.286-5.924Zm4.017-2.749a22.267,22.267,0,0,1,3.438,5.808l-2.634,1.943a21.181,21.181,0,0,0-3.285-5.924Z" transform="translate(-260.408 -433.283)" fill="#fff100"/>
        <path id="パス_17040" data-name="パス 17040" d="M629.9,615.7l6.581-.57-5.165,41.547-7.415.642,4.189-33.692-6.764,4.836-.08-6.691Z" transform="translate(-297.938 -426.449)" fill="#fff100"/>
        <path id="パス_17041" data-name="パス 17041" d="M700.472,612.925l-.777,6.25-13.161,1.139-.518,4.166,11.758-1.018-.755,6.076-11.758,1.018-.718,5.773,14.7-1.272-.777,6.249-14.7,1.272-1.138,9.157-6.757.585,1.138-9.157-20.05,1.735.777-6.249,5.923-.513,1.2-9.678c-.837.8-1.566,1.423-2.535,2.237l-3.587-5.356a33.683,33.683,0,0,0,10.542-13.578l6.731.319c-.437,1.068-.622,1.513-1.381,3.082Zm-29.821,8.764c-.263.366-1.471,2.059-3.545,4.428l12.153-1.052.518-4.166Zm7.852,9.452-7.59.657-.718,5.773,7.591-.657Z" transform="translate(-313.879 -424.944)" fill="#fff100"/>
        <path id="パス_17042" data-name="パス 17042" d="M748.67,605.938l17.988-1.557-2.088,16.8-11.8,1.022-2.855,22.959-6.186.536Zm5.63,3.935-.248,2,5.747-.5.249-2Zm-.718,5.772-.254,2.04,5.748-.5.254-2.04Zm20.229,21.262,2.149-.186c1.316-.114,1.4-.765,1.494-1.546l1.9-15.277-12.109,1.048,2.089-16.8,18.383-1.591-4.365,35.111c-.572,4.6-4.219,4.959-4.482,4.981l-8.424.729-.205-3.932-16.409,1.42,2.116-17.013,19.7-1.7Zm-12.5-9.094-.254,2.04,7.809-.676.254-2.04Zm-.7,5.6-.27,2.17,7.809-.675.27-2.17ZM774.832,608.1l-.248,2,6.055-.524.248-2Zm-.718,5.772-.253,2.04,6.054-.524.254-2.04Z" transform="translate(-352.605 -420.837)" fill="#fff100"/>
        <path id="パス_17043" data-name="パス 17043" d="M112.2,749.835l40.224-3.279,12.607,63.206Z" transform="translate(-64.75 -490.334)" fill="#fc13e2"/>
      </g>
    </g>
  </g>
</svg>
