<?xml version="1.0" encoding="utf-8"?>
<!-- Generator: Adobe Illustrator 26.4.1, SVG Export Plug-In . SVG Version: 6.00 Build 0)  -->
<svg version="1.1" id="レイヤー_1" xmlns="http://www.w3.org/2000/svg" xmlns:xlink="http://www.w3.org/1999/xlink" x="0px"
	 y="0px" viewBox="0 0 518 60" style="enable-background:new 0 0 518 60;" xml:space="preserve">
<style type="text/css">
	.st0{fill:#FDD000;}
	.st1{fill:#FFFFFF;stroke:#FFFFFF;stroke-width:5.0216;stroke-linejoin:round;}
	.st2{fill:#004B9E;}
	.st3{fill:#FFFFFF;}
	.st4{fill:#FFC400;}
</style>
<g id="hero_catch01_pc" transform="translate(-97.649 -1026.605)">
	<path id="パス_36548" class="st0" d="M339.7,1074c0.6,0,1.2-0.5,1.6-1.6c0.5-1.4,0.8-2.8,1-4.2c0.3-1.7,0.5-3.5,0.6-5.4
		c0.1-1.9,0.2-3.6,0.1-5.1c-1.2,0.4-2.3,1.3-3,2.4c-0.8,1.2-1.4,2.5-1.8,3.9c-0.4,1.3-0.6,2.7-0.7,4.1c-0.2,1.5,0,3.1,0.5,4.5
		C338.4,1073.4,339,1073.9,339.7,1074z M354.3,1065.7c0-1.9-0.5-3.8-1.4-5.5c-0.8-1.5-2.3-2.5-4-2.7c-0.1,2.7-0.3,5.4-0.5,8.1
		c-0.2,2.6-0.7,5.1-1.5,7.5c-0.6,2-1.6,3.8-2.9,5.5c-1.1,1.3-2.7,2-4.3,1.9c-1.3-0.1-2.6-0.5-3.7-1.3c-1.3-1-2.3-2.4-3-3.9
		c-0.9-2.4-1.3-4.9-1.2-7.4c0-2.9,0.6-5.7,1.8-8.3c1.1-2.4,2.7-4.4,4.7-6c1.9-1.5,4.2-2.4,6.7-2.7c2.5-0.2,5.1,0.2,7.4,1.2
		c2.3,1,4.3,2.8,5.6,5c1.6,2.7,2.4,5.8,2.4,9c0.1,2.7-0.3,5.5-1.2,8c-0.7,2-1.9,3.8-3.4,5.2c-1.3,1.2-2.8,2.1-4.5,2.7
		c-1.4,0.5-2.9,0.8-4.4,0.8v-6.2c2.2,0,4.2-1.1,5.5-2.9C353.6,1071.9,354.3,1069.2,354.3,1065.7L354.3,1065.7z M385.1,1050h7.4
		c-1.2,2.4-2.6,4.7-4.2,6.8c-1.7,2.1-3.2,4-4.5,5.5v21.8h-6.5v-16.7c-1.9,1.6-3.9,2.9-6.1,4.1c-1.5,0.8-3,1.5-4.6,2.1
		c-1.1,0.4-1.7,0.6-1.8,0.6v-6.7c0,0,0.7-0.3,2.1-0.8c1.8-0.8,3.6-1.7,5.2-2.8c2.4-1.5,4.6-3.3,6.6-5.4
		C381.3,1056,383.4,1053.1,385.1,1050z M416.6,1058h6.5c-1.1,4.4-2.9,8.6-5.5,12.3c-2,2.8-4.4,5.3-7.2,7.3c-2.2,1.6-4.5,2.8-7,3.7
		c-1.8,0.6-3.6,1-5.4,1.3c-0.7,0.1-1.4,0.1-2.2,0.1v-6.7c0.6,0,1.1,0,1.7-0.1c1.4-0.1,2.8-0.4,4.2-0.8c1.9-0.6,3.8-1.6,5.4-2.9
		c2-1.5,3.8-3.3,5.2-5.4C414.2,1064.2,415.6,1061.2,416.6,1058z M395.9,1057.5v-6.5h12.8v6.5H395.9z M434.1,1049h6.4
		c-0.1,0.8-0.3,1.5-0.4,2.2c-0.1,0.6-0.2,1-0.2,1.1h14v6.3c-0.2,3.4-1,6.7-2.4,9.8c-1.1,2.6-2.7,5-4.7,7c-1.7,1.7-3.6,3.3-5.7,4.6
		c-1.7,1.1-3.5,2-5.4,2.8c-1.3,0.5-2.7,1-4.1,1.3c-0.5,0.1-1.1,0.2-1.6,0.3v-6.7c0,0,0.5-0.1,1.4-0.4c1.2-0.3,2.4-0.8,3.5-1.3
		c1.6-0.7,3.1-1.5,4.5-2.5c1.6-1.2,3.1-2.6,4.3-4.2h-7.6v-6.2h10c0.4-1.5,0.7-3.1,0.8-4.7h-9.6c-1.3,2.6-2.9,5-4.9,7.1
		c-1.2,1.2-2.5,2.4-3.9,3.4c-0.5,0.4-1,0.8-1.6,1.1v-8c0.3-0.2,0.6-0.5,0.9-0.8c0.8-0.7,1.5-1.5,2-2.4c0.9-1.3,1.6-2.6,2.3-4
		C433.2,1053,433.8,1051,434.1,1049L434.1,1049z M458.6,1069.4v-6.5h18.9v6.5H458.6z M498.7,1060H483v-6.4h9.5v-4.6h6.5v4.6h10.3
		c-0.5,1.7-1.1,3.4-2,5c-1,1.7-2.1,3.4-3.4,4.9c-1.2,1.4-2.3,2.6-3.2,3.5c1.4,1.1,2.8,2.1,4.3,3c1.1,0.6,2.2,1.2,3.3,1.7
		c0.4,0.2,0.9,0.4,1.3,0.5v7.2c-0.1,0-0.6-0.2-1.7-0.6c-1.4-0.6-2.8-1.3-4.1-2c-1.7-1-3.4-2.1-4.9-3.4v10.6h-6.1v-10
		c-1.7,1.2-3.5,2.2-5.3,3.1c-1.4,0.7-2.8,1.3-4.2,1.8c-1.1,0.4-1.6,0.5-1.7,0.5v-6.6c0.1,0,0.7-0.2,1.9-0.7c1.6-0.6,3.1-1.4,4.6-2.2
		c2-1.1,3.9-2.4,5.6-4C495.5,1064.1,497.2,1062.1,498.7,1060z M516.2,1083.5v-5.8c2.6-0.4,5.1-1.5,7.1-3.1c1.8-1.5,3.3-3.4,4.2-5.6
		c0.9-2,1.6-4.1,2.2-6.2c0.4-1.7,0.8-3.3,1-5c0.1-0.7,0.2-1.4,0.2-2.1h5.5c-0.2,2.2-0.4,4.4-0.9,6.6c-0.4,2.1-1,4.2-1.8,6.3
		c-0.9,2.3-2.1,4.5-3.6,6.5c-1.6,2.1-3.5,4-5.7,5.4C521.9,1082,519.1,1083.1,516.2,1083.5z M517.8,1055.6l2.5,14.2H516l-2.4-14.2
		H517.8z M524.6,1055.6l2.5,14.2h-4.4l-2.4-14.2H524.6z M565.7,1060.4v6.5h-17.2v17h-6.5v-34.7h6.5v11.2H565.7z M572.2,1050.3h5.7
		c-0.2,1.9-0.5,3.7-0.6,5.2c-0.2,1.6-0.3,3.2-0.4,5c-0.1,1.8-0.2,3.6-0.2,5.3c0,2,0.1,4,0.2,6c0.1,2,0.3,3.8,0.5,5.5
		c0.2,1.7,0.5,3.5,0.8,5.5h-5.8c-0.5-3.4-0.8-6.3-1-8.9c-0.2-2.5-0.3-5.2-0.3-7.9c0-2.6,0.1-5,0.3-7.4S571.8,1053.4,572.2,1050.3
		L572.2,1050.3z M579.2,1061.7v-6.4h8.6v-5.4l5.6,0v5.4h4.5v6.4h-4.5v6.7c1.6,0.6,3.2,1.3,4.8,2.1v6.4c-1-0.7-1.9-1.2-2.6-1.7
		c-0.7-0.4-1.4-0.8-2.2-1.1v2.6c0.1,1.5-0.2,3.1-1,4.4c-0.6,1-1.5,1.7-2.6,2c-1,0.3-2.1,0.5-3.1,0.5c-1.3,0.1-2.6-0.1-3.8-0.6
		c-1.2-0.5-2.3-1.3-3-2.4c-0.9-1.4-1.3-3.1-1.2-4.8c-0.1-2.3,0.7-4.6,2.3-6.3c1.5-1.5,3.7-2.2,6.7-2v-5.9L579.2,1061.7z M586.7,1078
		c0.4,0,0.7-0.2,0.9-0.5c0.2-0.4,0.3-0.9,0.2-1.3v-3.2c-1-0.3-2.1-0.1-3,0.5c-0.7,0.5-1.1,1.3-1.1,2.2c-0.1,0.7,0.2,1.5,0.7,1.9
		C585.1,1077.9,585.9,1078.1,586.7,1078L586.7,1078z M610.4,1083.2c-1.2-1.5-2.6-3-4.2-4.7s-3.1-3.1-4.5-4.4l5.2-4.5
		c1.7,1.4,3.2,2.9,4.7,4.5c1.8,1.8,3.1,3.3,4,4.5L610.4,1083.2z"/>
	<g id="グループ_4456" transform="translate(100.154 1029.105)">
		<path id="パス_7029" class="st1" d="M215.9,15.4v4.2c0,0.6-0.5,1.1-1,1.1c0,0,0,0,0,0h-5.1v17.9c0.1,2.2,1.5,4.2,3.6,5
			c0.6,0.2,1.2,0.3,1.9,0.4c0.4,0,0.8,0.4,0.8,0.9V49c0,0.5-0.3,1-0.8,1c-0.9,0.1-1.8,0.1-2.6-0.1c-3.7-0.6-6.9-3-8.3-6.5
			c-0.7-1.7-1-3.5-0.8-5.2V9.5c-0.1-0.5,0.3-1,0.9-1.1c0.1,0,0.1,0,0.2,0h4.3c0.5,0,1,0.4,1,0.9c0,0,0,0.1,0,0.1v4.8h5.1
			C215.4,14.3,215.8,14.8,215.9,15.4C215.9,15.4,215.9,15.4,215.9,15.4"/>
		<path id="パス_7030" class="st1" d="M197.9,17.6c0,8.2,0,21.8,0,23.8c-0.1,3.3-2.1,6.3-5.1,7.7c-3.5,1.5-7.6,1.2-10.9-0.8
			c-2.3-1.5-3.7-4.1-3.8-6.9v-9.6c-0.2-3.2,1.3-6.2,3.9-7.9c2.8-1.6,6.1-2.3,9.3-2.1v-4.3c0-0.8-0.3-1.6-0.9-2.1
			c-1-0.9-2.3-1.2-3.5-0.8c-1.2,0.3-2.1,1.4-2.3,2.7c-0.1,0.9,0,1.7-0.1,2.2c0,0.7-0.4,1-0.9,1h-4.6c-0.6,0-1.1-0.5-1.1-1.1
			c0-3.2,0.4-4.1,0.9-5.3c1.7-3.4,5.1-5.7,8.9-5.8c3.4-0.1,6.6,1.6,8.5,4.4C197.3,14.3,197.8,15.9,197.9,17.6 M191.3,41.5V28.3
			c-1.5-0.1-2.9,0.1-4.4,0.4c-1.3,0.5-2.2,1.7-2.3,3.1l0,9.6c0.1,1.1,0.8,2,1.9,2.2c1.1,0.3,2.2,0.3,3.2-0.1
			C190.7,43.3,191.4,42.4,191.3,41.5"/>
		<path id="パス_7031" class="st1" d="M173.7,39c0.3,3.7-1.3,7.3-4.4,9.4c-2.7,1.8-6.1,2.2-9.2,1.1c-3.7-1.5-6.1-5-6.3-9
			c0-8.5,0-14.7,0-23c0.2-3.7,2.6-7,6-8.3c4.4-1.8,9.5-0.3,12.1,3.7c1.3,1.8,1.6,4,1.6,6.7c0,1.1-0.8,1.1-0.9,1.1h-4.3
			c-0.5,0-1-0.4-1-0.9c0,0,0-0.1,0-0.1c0,0,0-1.2-0.1-2c-0.3-1.2-1.1-2.3-2.3-2.7c-1.1-0.4-2.3-0.3-3.3,0.4
			c-0.9,0.6-1.5,1.6-1.6,2.7v22.6c0.2,1.4,1.2,2.6,2.6,3.1c1.3,0.4,2.7,0,3.6-1c1.2-1.1,0.9-2.2,1-3.7c0-0.6,0.4-1,0.9-1.1h4.4
			c0.5,0,1,0.4,1,0.9C173.7,38.9,173.7,38.9,173.7,39"/>
		<path id="パス_7032" class="st1" d="M144.5,9.4v4.3c0,0.5-0.1,0.9-0.5,1.1c-1.2,0.5-2.2,1.3-3,2.4c-0.8,1-1.2,2.1-1.4,3.4V49
			c0,0.6-0.4,1-1,1.1c0,0-0.1,0-0.1,0h-4.2c-0.5,0.1-1-0.3-1.1-0.8c0-0.1,0-0.2,0-0.3V20.9c0-5.3,3.3-10.1,8.2-12
			C142.3,8.6,144.5,7.7,144.5,9.4"/>
		<path id="パス_7033" class="st1" d="M127.9,17.6c0,8.2,0,21.8,0,23.8c-0.1,3.3-2.1,6.3-5.1,7.7c-3.5,1.5-7.6,1.2-10.9-0.8
			c-2.3-1.5-3.7-4.1-3.8-6.9v-9.6c-0.2-3.2,1.3-6.2,3.9-7.9c2.8-1.6,6.1-2.3,9.3-2.1v-4.3c0-0.8-0.3-1.6-0.9-2.1
			c-1-0.9-2.3-1.2-3.5-0.8c-1.2,0.3-2.2,1.4-2.3,2.7c-0.1,0.9,0,1.7-0.1,2.2c0,0.7-0.4,1-0.9,1h-4.6c-0.6,0-1.1-0.5-1-1.1
			c0-3.2,0.4-4.1,0.9-5.3c1.7-3.4,5.1-5.7,8.9-5.8c3.4-0.1,6.6,1.6,8.5,4.4C127.2,14.3,127.8,15.9,127.9,17.6 M121.3,41.5V28.3
			c-1.5-0.1-2.9,0.1-4.4,0.4c-1.3,0.5-2.2,1.7-2.4,3.1l0,9.6c0.1,1.1,0.8,2,1.9,2.2c1.1,0.3,2.2,0.3,3.2-0.1
			C120.7,43.3,121.3,42.4,121.3,41.5"/>
		<path id="パス_7034" class="st1" d="M103.6,15.4v4.2c0,0.6-0.5,1.1-1,1c0,0,0,0,0,0h-5.1v17.9c0.1,2.2,1.5,4.2,3.6,5
			c0.6,0.2,1.2,0.3,1.9,0.4c0.4,0,0.8,0.4,0.8,0.9V49c0,0.5-0.3,1-0.8,1c-0.9,0.1-1.8,0.1-2.6-0.1c-3.7-0.5-6.9-3-8.3-6.5
			c-0.7-1.7-1-3.5-0.8-5.2V9.5c-0.1-0.5,0.3-1,0.9-1.1c0.1,0,0.1,0,0.2,0h4.3c0.5,0,1,0.4,1,0.9c0,0.1,0,0.1,0,0.2v4.8h5.1
			C103.1,14.3,103.6,14.8,103.6,15.4C103.6,15.4,103.6,15.4,103.6,15.4"/>
		<path id="パス_7035" class="st1" d="M84.9,13.6c1,2,1.1,3.8,1,6.3c0,0.4-0.4,0.8-0.8,0.7h-4.6c-0.4,0-0.7-0.4-0.7-0.8
			c-0.1-1,0.1-2.7-0.5-3.6c-0.6-1-1.6-1.5-2.7-1.5c-1.2,0.1-2.2,0.8-2.7,1.9c-1.3,3.6,2.6,6.2,4.9,8.8c0.7,0.7,4.8,4.6,6.1,6.2
			c3.7,5.4,2.7,13.1-1.9,16.3c-3,2.2-6.8,2.7-10.3,1.4c-3.5-1.4-6-4.5-6.4-8.3c0-1-0.1-2.4-0.1-3.1c0-0.5,0.4-1,0.9-1.1
			c0,0,0.1,0,0.1,0h4.3c0.5,0,0.9,0.4,0.9,0.9c0,0,0,0.1,0,0.1c0,1.6-0.3,3.8,1.6,5.1c0.5,0.3,0.9,0.5,1.5,0.7
			c1.3,0.4,2.7,0,3.6-0.9c1.2-1.1,1.8-2.8,1.5-4.4c-0.1-1.4-0.7-2.7-1.7-3.7c-3.4-3.4-6.3-6.4-9.4-9.5c-2.2-3-3.2-7.3-1.8-10.8
			c0.9-2.5,2.8-4.4,5.2-5.3c1.1-0.4,2.2-0.6,3.3-0.7C80,8.4,83.3,10.4,84.9,13.6"/>
		<path id="パス_7036" class="st1" d="M51.9,12.3L51.9,12.3c2.5,4.2,4.8,8.4,5.9,10.4c1.9,3.5,2.6,7.6,2,11.6
			c-1,7.4-6.1,12.7-13.3,16.5c-5.5,2.9-9.4,3.9-16.6,4.1c-5.8,0.1-11.5-1.3-16.5-4.1c-3.8-2-8.3-5.1-11-9.9l5.8-3.3
			c3.2,5,9.8,6.4,14.7,3.1c4.5-3,6.1-8.9,3.7-13.8L51.9,12.3z M51.4,32.4c-1.3-3.4-4.4-5.8-8-6.1c0.6,4,0.6,8.2,0.1,12.2
			C47.1,38.3,50.2,35.9,51.4,32.4 M42.1,38.6c-0.6-4-0.6-8.2-0.1-12.2c-3.6,0.3-6.8,2.6-8.2,6.1C35.1,36,38.4,38.4,42.1,38.6"/>
		<path id="パス_7037" class="st1" d="M51.2,11.4l0.7,1L26.5,27c2.6,5.3,0.5,11.7-4.7,14.4c-4.8,2.4-10.7,0.8-13.7-3.7L2.4,41l0,0
			l-0.5-1.1l5.7-3.3C4.9,31.3,7,24.9,12.3,22.2c4.8-2.4,10.7-0.8,13.6,3.7L51.2,11.4z M26.2,31.8c0-5.1-4.1-9.2-9.2-9.2
			s-9.2,4.1-9.2,9.2S12,41,17,41C22.1,41,26.2,36.9,26.2,31.8C26.2,31.8,26.2,31.8,26.2,31.8"/>
		<path id="パス_7038" class="st1" d="M1.8,39.9L1.8,39.9c-0.8-1.7-1.4-3.6-1.6-5.5c-0.6-4,0.1-8,2-11.6C2.6,22,15.2,0,15.2,0
			l6.1,10.8c2.7-0.5,5.4-0.8,8.1-0.9c3,0,6.1,0.3,9,0.9L44.8,0c0,0,3.2,5.5,6.5,11.3l-0.1,0.1L25.9,26c-3.2-5-9.8-6.4-14.7-3.2
			c-4.5,3-6.1,8.9-3.7,13.8L1.8,39.9z"/>
		<path id="パス_7039" class="st1" d="M43.4,26.4c3.6,0.3,6.7,2.7,8,6.1c-1.2,3.4-4.3,5.8-7.9,6.1C44,34.5,44,30.4,43.4,26.4"/>
		<path id="パス_7040" class="st1" d="M42,26.4c-0.6,4-0.6,8.2,0.1,12.2c-3.7-0.2-7-2.6-8.2-6.1C35.2,29,38.4,26.7,42,26.4"/>
		<path id="パス_7041" class="st1" d="M17,22.6c5.1,0,9.2,4.1,9.2,9.2S22.1,41,17,41s-9.2-4.1-9.2-9.2c0,0,0,0,0,0
			C7.9,26.7,12,22.6,17,22.6 M24.6,31.8c0-4.2-3.4-7.7-7.6-7.7s-7.6,3.4-7.6,7.7c0,4.2,3.4,7.7,7.6,7.7C21.2,39.5,24.6,36,24.6,31.8
			C24.6,31.8,24.6,31.8,24.6,31.8"/>
		<path id="パス_7042" class="st1" d="M17,24.1c4.2,0,7.6,3.4,7.6,7.7c0,4.2-3.4,7.7-7.6,7.7c-4.2,0-7.6-3.4-7.6-7.7c0,0,0,0,0,0
			C9.4,27.6,12.8,24.1,17,24.1 M23.1,31.8c0-3.4-2.7-6.2-6.1-6.2c-3.4,0-6.1,2.8-6.1,6.2c0,3.4,2.7,6.2,6.1,6.2
			C20.4,38,23.1,35.2,23.1,31.8C23.1,31.8,23.1,31.8,23.1,31.8"/>
		<path id="パス_7043" class="st1" d="M17,25.6c3.4,0,6.1,2.8,6.1,6.2S20.4,38,17,38s-6.1-2.8-6.1-6.2c0,0,0,0,0,0
			C10.9,28.4,13.6,25.6,17,25.6"/>
	</g>
	<g id="グループ_5059">
		<path id="パス_7029-2" class="st2" d="M316,1044.3v4.2c0,0.6-0.5,1.1-1,1.1c0,0,0,0,0,0h-5.1v17.9c0.1,2.2,1.5,4.2,3.6,5
			c0.6,0.2,1.2,0.3,1.9,0.4c0.4,0,0.8,0.4,0.8,0.9v4.2c0,0.5-0.3,1-0.8,1c-0.9,0.1-1.8,0.1-2.6-0.1c-3.7-0.6-6.9-3-8.3-6.5
			c-0.7-1.7-1-3.5-0.8-5.2v-28.6c-0.1-0.5,0.3-1,0.9-1.1c0.1,0,0.1,0,0.2,0h4.3c0.5,0,1,0.4,1,0.9c0,0,0,0.1,0,0.1v4.8h5.1
			C315.5,1043.2,316,1043.7,316,1044.3C316,1044.3,316,1044.3,316,1044.3"/>
		<path id="パス_7030-2" class="st2" d="M298.1,1046.6c0,8.2,0,21.8,0,23.8c-0.1,3.3-2.1,6.3-5.1,7.7c-3.5,1.5-7.6,1.2-10.9-0.8
			c-2.3-1.5-3.7-4.1-3.8-6.9v-9.6c-0.2-3.2,1.3-6.2,3.9-7.9c2.8-1.6,6.1-2.3,9.3-2.1v-4.3c0-0.8-0.3-1.6-0.9-2.1
			c-1-0.9-2.3-1.2-3.5-0.8c-1.2,0.3-2.1,1.4-2.3,2.7c-0.1,0.9,0,1.7-0.1,2.2c0,0.7-0.4,1-0.9,1h-4.6c-0.6,0-1.1-0.5-1.1-1.1
			c0-3.2,0.4-4.1,0.9-5.3c1.7-3.4,5.1-5.7,8.9-5.8c3.4-0.1,6.6,1.6,8.5,4.4C297.4,1043.2,298,1044.8,298.1,1046.6 M291.5,1070.4
			v-13.1c-1.5-0.1-2.9,0.1-4.4,0.4c-1.3,0.5-2.2,1.7-2.3,3.1l0,9.6c0.1,1.1,0.8,2,1.9,2.2c1.1,0.3,2.2,0.3,3.2-0.1
			C290.9,1072.2,291.5,1071.4,291.5,1070.4"/>
		<path id="パス_7031-2" class="st2" d="M273.8,1067.9c0.3,3.7-1.3,7.3-4.4,9.4c-2.7,1.8-6.1,2.2-9.2,1.1c-3.7-1.5-6.1-5-6.3-9
			c0-8.5,0-14.7,0-23c0.2-3.7,2.6-7,6-8.3c4.4-1.8,9.5-0.3,12.1,3.7c1.3,1.8,1.6,4,1.6,6.7c0,1.1-0.8,1.1-0.9,1.1h-4.3
			c-0.5,0-1-0.4-1-0.9c0,0,0-0.1,0-0.1c0,0,0-1.2-0.1-2c-0.3-1.2-1.1-2.3-2.3-2.7c-1.1-0.4-2.3-0.3-3.3,0.4
			c-0.9,0.6-1.5,1.6-1.6,2.7v22.6c0.2,1.4,1.2,2.6,2.6,3.1c1.3,0.4,2.7,0,3.6-1c1.2-1.1,0.9-2.2,1-3.7c0-0.6,0.4-1,0.9-1.1h4.4
			c0.5,0,1,0.4,1,0.9C273.8,1067.8,273.8,1067.8,273.8,1067.9"/>
		<path id="パス_7032-2" class="st2" d="M244.6,1038.3v4.3c0,0.5-0.1,0.9-0.5,1.1c-1.2,0.5-2.2,1.3-3,2.4c-0.8,1-1.2,2.1-1.4,3.4
			v28.3c0,0.6-0.4,1-1,1.1c0,0-0.1,0-0.1,0h-4.2c-0.5,0.1-1-0.3-1.1-0.8c0-0.1,0-0.2,0-0.3v-28.1c0-5.3,3.3-10.1,8.2-12
			C242.4,1037.6,244.6,1036.6,244.6,1038.3"/>
		<path id="パス_7033-2" class="st2" d="M228,1046.6c0,8.2,0,21.8,0,23.8c-0.1,3.3-2.1,6.3-5.1,7.7c-3.5,1.5-7.6,1.2-10.9-0.8
			c-2.3-1.5-3.7-4.1-3.8-6.9v-9.6c-0.2-3.2,1.3-6.2,3.9-7.9c2.8-1.6,6.1-2.3,9.3-2.1v-4.3c0-0.8-0.3-1.6-0.9-2.1
			c-1-0.9-2.3-1.2-3.5-0.8c-1.2,0.3-2.2,1.4-2.3,2.7c-0.1,0.9,0,1.7-0.1,2.2c0,0.7-0.4,1-0.9,1h-4.6c-0.6,0-1.1-0.5-1-1.1
			c0-3.2,0.4-4.1,0.9-5.3c1.7-3.4,5.1-5.7,8.9-5.8c3.4-0.1,6.6,1.6,8.5,4.4C227.4,1043.2,227.9,1044.8,228,1046.6 M221.4,1070.4
			v-13.1c-1.5-0.1-2.9,0.1-4.4,0.4c-1.3,0.5-2.2,1.7-2.4,3.1l0,9.6c0.1,1.1,0.8,2,1.9,2.2c1.1,0.3,2.2,0.3,3.2-0.1
			C220.8,1072.2,221.5,1071.4,221.4,1070.4"/>
		<path id="パス_7034-2" class="st2" d="M203.8,1044.3v4.2c0,0.6-0.5,1.1-1,1c0,0,0,0,0,0h-5.1v17.9c0.1,2.2,1.5,4.2,3.6,5
			c0.6,0.2,1.2,0.3,1.9,0.4c0.4,0,0.8,0.4,0.8,0.9v4.2c0,0.5-0.3,1-0.8,1c-0.9,0.1-1.8,0.1-2.6-0.1c-3.7-0.5-6.9-3-8.3-6.5
			c-0.7-1.7-1-3.5-0.8-5.2v-28.6c-0.1-0.5,0.3-1,0.9-1.1c0.1,0,0.1,0,0.2,0h4.3c0.5,0,1,0.4,1,0.9c0,0.1,0,0.1,0,0.2v4.8h5.1
			C203.3,1043.2,203.8,1043.7,203.8,1044.3C203.8,1044.3,203.8,1044.3,203.8,1044.3"/>
		<path id="パス_7035-2" class="st2" d="M185.1,1042.6c1,2,1.1,3.8,1,6.3c0,0.4-0.4,0.8-0.8,0.7h-4.6c-0.4,0-0.7-0.4-0.7-0.8
			c-0.1-1,0.1-2.7-0.5-3.6c-0.6-1-1.6-1.5-2.7-1.5c-1.2,0.1-2.2,0.8-2.7,1.9c-1.3,3.6,2.6,6.2,4.9,8.8c0.7,0.7,4.8,4.6,6.1,6.2
			c3.7,5.4,2.7,13.1-1.9,16.3c-3,2.2-6.8,2.7-10.3,1.4c-3.5-1.4-6-4.5-6.4-8.3c0-1-0.1-2.4-0.1-3.1c0-0.5,0.4-1,0.9-1.1
			c0,0,0.1,0,0.1,0h4.3c0.5,0,0.9,0.4,0.9,0.9c0,0,0,0.1,0,0.1c0,1.6-0.3,3.8,1.6,5.1c0.5,0.3,0.9,0.5,1.5,0.7
			c1.3,0.4,2.7,0,3.6-0.9c1.2-1.1,1.8-2.8,1.5-4.4c-0.1-1.4-0.7-2.7-1.7-3.7c-3.4-3.4-6.3-6.4-9.4-9.5c-2.2-3-3.2-7.3-1.8-10.8
			c0.9-2.5,2.8-4.4,5.2-5.3c1.1-0.4,2.2-0.6,3.3-0.7C180.2,1037.3,183.4,1039.3,185.1,1042.6"/>
		<path id="パス_7036-2" class="st2" d="M152,1041.3L152,1041.3c2.5,4.2,4.8,8.4,5.9,10.4c1.9,3.5,2.6,7.6,2,11.6
			c-1,7.4-6.1,12.7-13.3,16.5c-5.5,2.9-9.4,3.9-16.6,4.1c-5.8,0.1-11.5-1.3-16.5-4.1c-3.8-2-8.3-5.1-11-9.9l5.8-3.3
			c3.2,5,9.8,6.4,14.7,3.1c4.5-3,6.1-8.9,3.7-13.8L152,1041.3z M151.5,1061.4c-1.3-3.4-4.4-5.8-8-6.1c0.6,4,0.6,8.2,0.1,12.2
			C147.2,1067.2,150.3,1064.8,151.5,1061.4 M142.2,1067.5c-0.6-4-0.6-8.2-0.1-12.2c-3.6,0.3-6.8,2.6-8.2,6.1
			C135.3,1064.9,138.5,1067.3,142.2,1067.5"/>
		<path id="パス_7037-2" class="st3" d="M151.3,1040.3l0.7,1l-25.4,14.7c2.6,5.3,0.5,11.7-4.7,14.4c-4.8,2.4-10.7,0.8-13.7-3.7
			l-5.8,3.3l0,0l-0.5-1.1l5.7-3.3c-2.6-5.3-0.5-11.7,4.7-14.4c4.8-2.4,10.7-0.8,13.6,3.7L151.3,1040.3z M126.3,1060.7
			c0-5.1-4.1-9.2-9.2-9.2c-5.1,0-9.2,4.1-9.2,9.2c0,5.1,4.1,9.2,9.2,9.2C122.2,1070,126.3,1065.8,126.3,1060.7
			C126.3,1060.7,126.3,1060.7,126.3,1060.7"/>
		<path id="パス_7038-2" class="st2" d="M102,1068.8L102,1068.8c-0.8-1.7-1.4-3.6-1.6-5.5c-0.6-4,0.1-8,2-11.6
			c0.4-0.8,13-22.7,13-22.7l6.1,10.8c2.7-0.5,5.4-0.8,8.1-0.9c3,0,6.1,0.3,9,0.9l6.3-10.8c0,0,3.2,5.5,6.5,11.3l-0.1,0.1l-25.3,14.6
			c-3.2-5-9.8-6.4-14.7-3.2c-4.5,3-6.1,8.9-3.7,13.8L102,1068.8z"/>
		<path id="パス_7039-2" class="st4" d="M143.6,1055.3c3.6,0.3,6.7,2.7,8,6.1c-1.2,3.4-4.3,5.8-7.9,6.1
			C144.2,1063.5,144.2,1059.3,143.6,1055.3"/>
		<path id="パス_7040-2" class="st4" d="M142.2,1055.3c-0.6,4-0.6,8.2,0.1,12.2c-3.7-0.2-7-2.6-8.2-6.1
			C135.4,1057.9,138.5,1055.6,142.2,1055.3"/>
		<path id="パス_7041-2" class="st2" d="M117.2,1051.5c5.1,0,9.2,4.1,9.2,9.2c0,5.1-4.1,9.2-9.1,9.2c-5.1,0-9.2-4.1-9.2-9.2
			c0,0,0,0,0,0C108,1055.6,112.1,1051.5,117.2,1051.5 M124.8,1060.7c0-4.2-3.4-7.7-7.6-7.7c-4.2,0-7.6,3.4-7.6,7.7
			c0,4.2,3.4,7.7,7.6,7.7C121.4,1068.4,124.8,1065,124.8,1060.7C124.8,1060.7,124.8,1060.7,124.8,1060.7"/>
		<path id="パス_7042-2" class="st3" d="M117.2,1053.1c4.2,0,7.6,3.4,7.6,7.7c0,4.2-3.4,7.7-7.6,7.7s-7.6-3.4-7.6-7.7c0,0,0,0,0,0
			C109.6,1056.5,113,1053.1,117.2,1053.1 M123.3,1060.7c0-3.4-2.7-6.2-6.1-6.2s-6.1,2.8-6.1,6.2c0,3.4,2.7,6.2,6.1,6.2
			C120.6,1066.9,123.3,1064.2,123.3,1060.7C123.3,1060.7,123.3,1060.7,123.3,1060.7"/>
		<path id="パス_7043-2" class="st2" d="M117.2,1054.5c3.4,0,6.1,2.8,6.1,6.2c0,3.4-2.7,6.2-6.1,6.2c-3.4,0-6.1-2.8-6.1-6.2
			c0,0,0,0,0,0C111,1057.3,113.8,1054.5,117.2,1054.5"/>
	</g>
</g>
</svg>
