<?xml version="1.0" encoding="utf-8"?>
<!-- Generator: Adobe Illustrator 26.4.1, SVG Export Plug-In . SVG Version: 6.00 Build 0)  -->
<svg version="1.1" id="レイヤー_1" xmlns="http://www.w3.org/2000/svg" xmlns:xlink="http://www.w3.org/1999/xlink" x="0px"
	 y="0px" viewBox="0 0 321.8 118.2" style="enable-background:new 0 0 321.8 118.2;" xml:space="preserve">
<style type="text/css">
	.st0{clip-path:url(#SVGID_00000005989390674518163160000010519419658464273811_);}
	.st1{fill:#FDD000;}
</style>
<g id="hero_catch03_pc" transform="translate(0)">
	<g>
		<defs>
			<rect id="SVGID_1_" width="322" height="118"/>
		</defs>
		<clipPath id="SVGID_00000060023527308628700970000018164825514450123453_">
			<use xlink:href="#SVGID_1_"  style="overflow:visible;"/>
		</clipPath>
		
			<g id="グループ_4608" transform="translate(0)" style="clip-path:url(#SVGID_00000060023527308628700970000018164825514450123453_);">
			<path id="パス_20618" class="st1" d="M134.9,32.9l0.3-1.8c0.2-1.2,1.2-2.1,2.4-2.2l20-0.1c1,0,1.8,0.8,1.8,1.7
				c0,0.1,0,0.3,0,0.4l-0.3,1.8c-0.2,1.2-1.2,2.1-2.4,2.2l-20,0.1c-1,0-1.8-0.8-1.8-1.7C134.8,33.2,134.9,33,134.9,32.9"/>
			<path id="パス_20619" class="st1" d="M171.9,105.4l0.3-1.8c0.2-1.2,1.2-2.1,2.4-2.2l20-0.1c1,0,1.8,0.8,1.8,1.7
				c0,0.1,0,0.3,0,0.4l-0.3,1.8c-0.2,1.2-1.2,2.1-2.4,2.2l-20,0.1c-1,0-1.8-0.8-1.8-1.7C171.8,105.7,171.8,105.5,171.9,105.4"/>
			<path id="パス_20620" class="st1" d="M305.3,117.3l9.1,0.1c0.6-0.1,1.1-0.6,1-1.2c0-0.3-0.2-0.6-0.4-0.8
				c-1.9-1.5-3.2-3.6-3.8-6C310.1,104.1,305.3,117.3,305.3,117.3"/>
			<path id="パス_20621" class="st1" d="M216.2,36.5l9.1-0.1c0.6,0.1,1.1,0.6,1,1.2c0,0.3-0.2,0.6-0.4,0.8c-1.9,1.5-3.2,3.6-3.8,6
				C221,49.7,216.2,36.5,216.2,36.5"/>
			<path id="パス_20622" class="st1" d="M0,20.1l0.3-1.8c0.2-1.2,1.2-2.1,2.4-2.2l40.1-0.6c1,0,1.8,0.8,1.8,1.7c0,0.1,0,0.3,0,0.4
				l-0.3,1.8c-0.2,1.2-1.2,2.1-2.4,2.2L1.7,22.3c-1,0-1.8-0.8-1.8-1.7C0,20.4,0,20.3,0,20.1"/>
			<path id="パス_20623" class="st1" d="M2.8,92.5l0.3-1.8c0.2-1.2,1.2-2.1,2.4-2.2l40.1-0.6c1,0,1.8,0.8,1.8,1.7
				c0,0.1,0,0.3,0,0.4L47,91.8c-0.2,1.2-1.2,2.1-2.4,2.2L4.5,94.6c-1,0-1.8-0.8-1.8-1.7C2.7,92.8,2.7,92.6,2.8,92.5"/>
			<path id="パス_20624" class="st1" d="M87.5,101.1l0.3-1.8c0.2-1.2,1.2-2.1,2.4-2.2l40.1-0.6c1,0,1.8,0.8,1.8,1.7
				c0,0.1,0,0.3,0,0.4l-0.3,1.8c-0.2,1.2-1.2,2.1-2.4,2.2l-40.1,0.6c-1,0-1.8-0.8-1.8-1.7C87.5,101.4,87.5,101.2,87.5,101.1"/>
			<path id="パス_20625" class="st1" d="M113.5,5.5L130,5.3c1.8,0,2.5,2.4,1,3.6c-3.4,2.8-5.8,6.6-6.9,10.9
				C122.2,29.4,113.5,5.5,113.5,5.5"/>
			<path id="パス_20626" class="st1" d="M108.7,81.9l0.3-1.8c0.2-1.2,1.2-2.1,2.4-2.2l10.6-0.2V54.4c0-1.5-1.2-2.8-2.8-2.8H79.8
				c-1.5,0-1.8-0.7-0.5-1.6l12.4-12.5c0.9-1.2,1.7-1,1.9,0.5l0.7,6.9c0.2,1.6,1.5,2.8,3,2.9c0,0,8.4,0.6,12.7,0.6
				c4.3,0,7.3-0.9,9.2-2.8c1.9-1.8,3.3-5.7,4.1-11.6s1.2-25.8,1.2-25.8c0-1.5-1.2-2.7-2.6-2.8c0,0,0,0-0.1,0H71.3
				c-1.5,0-2.8,1.2-2.8,2.8v9.9c0,1.5,1.2,2.8,2.8,2.8h8.3c0.8-0.1,1.6,0.4,1.8,1.2c0.1,0.4,0,0.9-0.3,1.2c-1.2,2.6-2.9,5.1-4.9,7.2
				c-2.1,2.3-4.3,4.4-6.7,6.4c-1.2,0.9-2.2,1.1-2.2,0.5s-1.2-1.1-2.8-1.1H53.8c-1.5,0-2.8-1.2-2.8-2.8v-4.3c0-1.5,1.2-2.8,2.8-2.8
				h9.6c1.5,0,2.8-1.2,2.8-2.8v-10c0-1.5-1.2-2.8-2.8-2.8h-9.6C52.3,11,51,9.8,51,8.3V2.8C51,1.2,49.8,0,48.3,0H35
				c-1.5,0-2.8,1.2-2.8,2.8v5.5c0,1.5-1.2,2.8-2.8,2.8H17.8c-1.5,0-2.8,1.2-2.8,2.8v10c0,1.5,1.2,2.8,2.8,2.8h11.6
				c1.5,0,2.8,1.2,2.8,2.8v4.3c0,1.5-1.2,2.7-2.8,2.7H15c-1.5,0-2.8,1.2-2.8,2.8v10.4c0,1.5,1.2,2.8,2.8,2.8h18
				c1.5,0,2.8,1.2,2.8,2.8v28.3c0,1.5-2.5,0.3-3.2-0.6c-0.8-1.3-1.2-2.8-1.1-4.3l0.9-16.9c0-1.5-1.1-2.9-2.6-3l-10.3-1
				c-1.5-0.2-2.8,0.9-2.9,2.4c0,0,0,0.1,0,0.1l-5.8,45c-0.2,1.6,0.6,3.1,2,3.8l10.3,4.5c1.1,0.5,2.4,0.1,2.9-1
				c0.1-0.2,0.2-0.4,0.2-0.6l2.2-11c0-0.9,0.8-1.6,1.7-1.6c0.4,0,0.8,0.2,1.1,0.4c0,0,11.4,8,20.7,10s39.6,3,39.6,3
				c1.5,0,4,0.1,5.5,0.1h24.5c1.5,0,2.8-1.2,2.9-2.7l0.6-10.5c0.1-1.4-1-2.6-2.4-2.7c-0.1,0-0.1,0-0.2,0H96.8c-1.5,0-4,0-5.5-0.1
				l-35-2.1c-1.5-0.2-2.7-1.5-2.7-3.1v-9.8c0-1.5,1.2-2.8,2.8-2.8h7.5c1.5,0,2.8-1.2,2.8-2.8v-9.9c0-1.5-1.2-2.8-2.8-2.8h-7.5
				c-1.5,0-2.8-1.2-2.8-2.8V55c0-1.5,1.2-2.8,2.8-2.8h8.1c1.5,0,2.8-1.2,2.8-2.8V44c0-1.5,0.6-1.7,1.3-0.3l3,5.6
				c0.7,1.3,0.6,2.4-0.3,2.4s-1.7,1.2-1.7,2.8v33.2c0,1.5,1.2,2.8,2.8,2.8h46.8c1.5,0,2.8-1.2,2.8-2.8v-3.7L110.4,84
				c-1,0-1.8-0.8-1.8-1.7C108.7,82.2,108.7,82,108.7,81.9 M95.1,30.7l2.1-7.1c0.4-1.5,1.8-2.6,3.4-2.7h2.9c1.5,0,2.7,1.2,2.7,2.7
				c0,0,0,0.1,0,0.1c0,0-0.2,6.4-0.7,8c-0.4,1.4-1.7,2.4-3.2,2.3c-1.1,0-5.5-0.4-5.5-0.4c-1.1,0-2-0.9-2-2
				C95,31.2,95,30.9,95.1,30.7 M103.8,73.9c0,1.5-1.2,2.8-2.8,2.8H89.5c-1.5,0-2.8-1.2-2.8-2.8v-6.1c0-1.5,1.2-2.7,2.8-2.8H101
				c1.5,0,2.8,1.2,2.8,2.8L103.8,73.9z"/>
			<path id="パス_20627" class="st1" d="M143.4,79.7l-6.6-1.4c-0.7-0.1-1.2-0.8-1.1-1.6c1.5-9,2.9-19.6,4.3-31.9
				c0.1-0.8,0.8-1.3,1.5-1.2c0,0,0,0,0,0l4.7,0.6c0.8,0.1,1.5-0.4,1.6-1.2c0-0.1,0-0.1,0-0.2V26.8c0-0.8,0.6-1.4,1.4-1.4l0,0h11
				c0.8,0,1.4,0.6,1.4,1.4v0v13.7c0,0.8,0.6,1.4,1.4,1.4c0.2,0,0.3,0,0.5-0.1l3-1.1c0.7-0.3,1.5,0.1,1.8,0.8c0,0,0,0,0,0
				c0.5,1.4,1.1,3.3,1.9,5.6v-9.3c0-0.8,0.6-1.4,1.4-1.4h13.4c0.8,0,1.4-0.6,1.4-1.4v-8.8c0-0.8,0.6-1.4,1.4-1.4h12
				c0.8,0,1.4,0.6,1.4,1.4v8.8c0,0.8,0.6,1.4,1.4,1.4h18.8c0.8,0,1.4,0.6,1.4,1.4v26.5c0,0.8,0.6,1.4,1.4,1.4h1.9
				c0.8,0,1.4,0.6,1.4,1.4v9.5c0,0.8-0.6,1.4-1.4,1.4h-20.5c-0.8,0-1.4,0.6-1.4,1.4c0,0.2,0.1,0.5,0.2,0.7
				c3.8,7.1,11.5,13.4,23,19.1c0.7,0.3,1,1.2,0.6,1.8c0,0,0,0.1,0,0.1l-5.7,10c-0.4,0.6-1.2,0.9-1.8,0.6c-5.1-2.5-9.9-5.8-14.1-9.6
				c-3.9-3.5-7.4-7.6-10.3-12c-0.4-0.6-1.3-0.8-1.9-0.4c-0.2,0.1-0.3,0.3-0.4,0.4c-2.9,4.6-6.4,8.7-10.5,12.2
				c-4.4,3.9-9.4,7-14.7,9.4c-0.6,0.3-1.4,0-1.7-0.6l-2.5-4.1c-0.4-0.7-1.2-0.9-1.9-0.5c-0.4,0.2-0.7,0.7-0.7,1.2v2.7
				c0,0.8-0.6,1.4-1.4,1.4l0,0h-11c-0.8,0-1.4-0.6-1.4-1.4v0V78.6c0-0.8-0.6-1.4-1.4-1.4c-0.7,0-1.3,0.5-1.4,1.2c0,0.1,0,0.1,0,0.2
				C144.9,79.4,144.2,79.9,143.4,79.7C143.4,79.7,143.4,79.7,143.4,79.7 M172.8,61.1l-6.7,2.2c-0.7,0.2-1.5-0.2-1.7-0.9
				c0,0,0,0,0-0.1c-0.3-1.2-0.8-2.8-1.3-4.6c-0.8-2.7-1.2-4.4-1.4-5.2v44.4c0,0.8,0.6,1.4,1.4,1.4c0.2,0,0.4,0,0.6-0.1
				c4.8-2.1,9.3-4.9,13.3-8.4c3-2.7,5.4-6.1,7-9.8c0.3-0.7,0-1.5-0.7-1.8c-0.2-0.1-0.4-0.1-0.5-0.1h-17.4c-0.8,0-1.4-0.6-1.4-1.4v0
				v-9.5c0-0.8,0.6-1.4,1.4-1.4l0,0h19.7c0.8,0,1.4-0.6,1.4-1.4V50.5c0-0.8-0.6-1.4-1.4-1.4h-12.3c-0.8,0-1.4,0.6-1.4,1.4
				c0,0.1,0,0.3,0.1,0.4c0.9,2.9,1.8,5.7,2.5,8.4C173.9,60.1,173.5,60.8,172.8,61.1 M201,50.5v13.8c0,0.8,0.6,1.4,1.4,1.4h5.2
				c0.8,0,1.4-0.6,1.4-1.4V50.5c0-0.8-0.6-1.4-1.4-1.4h-5.2C201.7,49.2,201,49.8,201,50.5"/>
			<path id="パス_20628" class="st1" d="M304.1,78.8l0.2-1.4c0.1-0.9,0.9-1.6,1.8-1.6l14.7-0.1c0.7,0,1.3,0.6,1.3,1.3
				c0,0.1,0,0.2,0,0.3l-0.2,1.4c-0.1,0.9-0.9,1.6-1.8,1.6l-14.7,0.1c-0.7,0-1.3-0.6-1.3-1.3C304,79,304,78.9,304.1,78.8"/>
			<path id="パス_20629" class="st1" d="M299.9,83.3l0.2-1.4c0.1-0.9,0.9-1.6,1.8-1.6l7.5-0.1V63.2c0-0.6-0.5-1.2-1.2-1.2l0,0
				h-6.9c-0.7,0-1.2-0.5-1.2-1.2c0-0.2,0-0.3,0.1-0.5c0.5-1.2,0.9-2.1,1.2-2.9c0.2-0.5,0.6-0.8,1.1-0.8h7.1c0.6,0,1.2-0.5,1.2-1.2
				c0,0,0,0,0,0v-7.1c0-0.6-0.5-1.2-1.2-1.2c0,0,0,0,0,0h-18.4c-0.6,0-1.2-0.5-1.2-1.2c0,0,0,0,0,0v-2.9c0-0.6-0.5-1.2-1.2-1.2
				h-10.6c-0.6,0-1.2,0.5-1.2,1.2v2.9c0,0.6-0.5,1.2-1.2,1.2c0,0,0,0,0,0h-18.6c-0.6,0-1.2,0.5-1.2,1.2v7.1c0,0.6,0.5,1.2,1.2,1.2
				h8.2c0.5,0,1,0.3,1.1,0.8c0.3,1.1,0.6,2.1,0.9,3c0.2,0.6-0.2,1.3-0.8,1.5c-0.1,0-0.2,0-0.3,0h-6.6c-0.6,0-1.2,0.5-1.2,1.2
				c0,0,0,0,0,0v38c0,0.6-0.5,1.2-1.2,1.2c-0.3,0-0.6-0.1-0.9-0.4c-0.4-0.5-0.8-1.1-1.2-1.6c-0.1-0.2-0.2-0.4-0.2-0.6V75
				c0-0.6-0.5-1.2-1.2-1.2h-16.7c-0.6,0-1.2,0.5-1.2,1.2v8.1c0,0.6,0.5,1.2,1.2,1.2l0,0h4.4c0.6,0,1.2,0.5,1.2,1.2v16.9
				c0,0.4-0.2,0.7-0.5,0.9c-2.2,1.7-4.5,3.2-6.8,4.7c-0.5,0.3-0.7,1-0.4,1.6l4.7,7.9c0.3,0.6,1.1,0.7,1.6,0.4c0,0,0,0,0,0
				c3.1-2.1,6.1-4.3,9-6.6c0.4-0.3,1-0.3,1.4,0c2.9,2.2,7,3.7,12.3,4.6c5.8,1,14.1,1.5,25,1.5h20.2c0.6,0,1.1-0.5,1.2-1.1l0.5-8
				c0-0.6-0.4-1.2-1.1-1.2c0,0-0.1,0-0.1,0h-21.2c-8.7,0-15.2-0.2-19.4-0.5c-4.2-0.3-7.4-1-9.4-1.9h8.5c0.6,0,1.2-0.5,1.2-1.2V72.6
				c0-0.6,0.5-1.2,1.2-1.2h6.4c0.6,0,1.2,0.5,1.2,1.1c0,0.6-0.5,1.2-1.1,1.2c0,0,0,0-0.1,0h-5c-0.6,0-1.2,0.5-1.2,1.2v5.5
				c0,0.6,0.5,1.2,1.2,1.2h5c0.6,0,1.2,0.5,1.2,1.2v0.4c0,0.6-0.5,1.2-1.2,1.2h-3.7c-0.6,0-1.2,0.5-1.2,1.2v17.7
				c0,0.6,0.5,1.2,1.2,1.2h6.8c0.6,0,1.2-0.5,1.2-1.2l0,0v-0.6c0-0.6,0.5-1.2,1.2-1.2h5.3c0.6,0,1.1,0.5,1.2,1.1l0.1,0.6
				c0.1,0.6,0.5,1,1.1,1.1c5.3,0.2,8.8,0.4,10.5,0.4c2.6,0,4.5-0.3,5.5-0.9c1.1-0.6,1.8-1.9,2.2-3.8c0.5-3.2,0.7-6.5,0.6-9.8v-5.2
				l-8.2,0.1c-0.7,0-1.3-0.6-1.3-1.3C299.9,83.5,299.9,83.4,299.9,83.3 M286.8,93.4c0,0.6-0.5,1.2-1.2,1.2h-2.7
				c-0.6,0-1.2-0.5-1.2-1.2v-1.9c0-0.6,0.5-1.2,1.2-1.2h2.7c0.6,0,1.2,0.5,1.2,1.2V93.4z M289,58.3c-0.5,1.2-1,2.2-1.3,3
				c-0.2,0.4-0.6,0.7-1.1,0.7H281c-0.5,0-1-0.3-1.1-0.8c-0.1-0.5-0.3-1.1-0.5-1.8c-0.1-0.4-0.2-0.9-0.4-1.2
				c-0.2-0.6,0.2-1.3,0.8-1.4c0.1,0,0.2,0,0.3,0h7.8c0.7,0,1.2,0.5,1.2,1.2C289.1,58,289,58.2,289,58.3 M297.9,92.5
				c0.1,0.5,0,1.1-0.2,1.6c-0.1,0.2-0.5,0.3-1.2,0.3c-0.1,0-0.3,0-0.6,0s-0.5,0-0.7,0v-8.8c0-0.6-0.5-1.2-1.2-1.2c0,0,0,0,0,0h-3.8
				c-0.6,0-1.2-0.5-1.2-1.2v-0.4c0-0.6,0.5-1.2,1.2-1.2h5.1c0.6,0,1.2-0.5,1.2-1.2V75c0-0.6-0.5-1.2-1.2-1.2h-5.1
				c-0.6,0-1.2-0.5-1.2-1.1c0-0.6,0.5-1.2,1.1-1.2c0,0,0,0,0.1,0h6.5c0.6,0,1.2,0.5,1.2,1.2c0,0,0,0,0,0V92.5z"/>
			<path id="パス_20630" class="st1" d="M249.3,67.3c0.4,0.5,1.2,0.5,1.7,0.1c0,0,0,0,0,0l6.4-6.1c0.5-0.4,0.5-1.2,0.1-1.6
				c-4.1-4.7-8.3-9.2-12.5-13.4c-0.4-0.4-1.2-0.5-1.6,0l-6.7,6c-0.5,0.4-0.5,1.2-0.1,1.6c0,0,0,0,0,0
				C240.6,57.9,244.8,62.3,249.3,67.3"/>
		</g>
	</g>
</g>
</svg>
