<?xml version="1.0" encoding="utf-8"?>
<!-- Generator: Adobe Illustrator 26.4.1, SVG Export Plug-In . SVG Version: 6.00 Build 0)  -->
<svg version="1.1" id="レイヤー_1" xmlns="http://www.w3.org/2000/svg" xmlns:xlink="http://www.w3.org/1999/xlink" x="0px"
	 y="0px" viewBox="0 0 152 170" style="enable-background:new 0 0 152 170;" xml:space="preserve">
<style type="text/css">
	.st0{fill:#FDD000;}
</style>
<g id="hero_catch03_sp" transform="translate(-0.001 -5)">
	<g>
		<g id="グループ_4620" transform="translate(0.001)">
			<path id="パス_20691" class="st0" d="M25.3,20.5l0.2-1.4c0.1-0.9,0.9-1.6,1.8-1.7l30.8-0.5c0.7,0,1.3,0.6,1.4,1.3
				c0,0.1,0,0.2,0,0.3L59.3,20c-0.1,0.9-0.9,1.6-1.8,1.7l-30.8,0.5c-0.7,0-1.3-0.6-1.4-1.3C25.3,20.7,25.3,20.6,25.3,20.5"/>
			<path id="パス_20692" class="st0" d="M27.4,76.3l0.2-1.4c0.1-0.9,0.9-1.6,1.8-1.7l30.8-0.5c0.7,0,1.3,0.6,1.4,1.3
				c0,0.1,0,0.2,0,0.3l-0.2,1.4c-0.1,0.9-0.9,1.6-1.8,1.7l-30.8,0.5c-0.7,0-1.3-0.6-1.4-1.3C27.4,76.5,27.4,76.4,27.4,76.3"/>
			<path id="パス_20693" class="st0" d="M92.5,82.9l0.2-1.4c0.1-0.9,0.9-1.6,1.8-1.7l30.8-0.5c0.7,0,1.3,0.6,1.4,1.3
				c0,0.1,0,0.2,0,0.3l-0.2,1.4c-0.1,0.9-0.9,1.6-1.8,1.7l-30.8,0.5c-0.7,0-1.3-0.6-1.4-1.3C92.5,83.1,92.5,83,92.5,82.9"/>
			<path id="パス_20694" class="st0" d="M112.4,9.2l12.7-0.2c0.9,0.1,1.5,0.8,1.4,1.7c0,0.4-0.3,0.9-0.6,1.1
				c-2.6,2.1-4.5,5.1-5.3,8.4C119.1,27.6,112.4,9.2,112.4,9.2"/>
			<path id="パス_20695" class="st0" d="M108.8,68.1l0.2-1.4c0.1-0.9,0.9-1.6,1.8-1.7l8.1-0.1v-18c0-1.2-1-2.1-2.1-2.1H86.6
				c-1.2,0-1.4-0.6-0.4-1.3l9.5-9.7c0.7-0.9,1.3-0.8,1.4,0.4l0.5,5.3c0.2,1.2,1.1,2.1,2.3,2.3c0,0,6.5,0.4,9.8,0.4
				c3.3,0,5.6-0.7,7.1-2.1c1.4-1.4,2.5-4.4,3.2-8.9c0.7-4.5,0.9-19.9,0.9-19.9c0-1.1-0.9-2.1-2-2.1c0,0,0,0,0,0H80.1
				c-1.2,0-2.1,1-2.1,2.1V19c0,1.2,0.9,2.1,2.1,2.1h6.4c0.6-0.1,1.2,0.3,1.4,1c0.1,0.3,0,0.7-0.2,0.9c-1,2-2.2,3.9-3.8,5.5
				c-1.6,1.8-3.3,3.4-5.2,4.9c-0.9,0.7-1.7,0.9-1.7,0.4S76,33,74.8,33h-8.2c-1.2,0-2.1-1-2.1-2.1v-3.3c0-1.2,1-2.1,2.1-2.1h7.3
				c1.2,0,2.1-1,2.1-2.1v-7.7c0-1.2-1-2.1-2.1-2.1h-7.3c-1.2,0-2.1-1-2.1-2.1V7.1c0-1.2-1-2.1-2.1-2.1H52.2c-1.2,0-2.1,1-2.1,2.1
				v4.2c0,1.2-0.9,2.1-2.1,2.1H39c-1.2,0-2.1,1-2.1,2.1v7.7c0,1.2,1,2.1,2.1,2.1H48c1.2,0,2.1,1,2.1,2.1v3.3c0,1.2-1,2.1-2.1,2.1
				H36.8c-1.2,0-2.1,1-2.1,2.1v8c0,1.2,0.9,2.1,2.1,2.1h13.8c1.2,0,2.1,1,2.1,2.1v21.8c0,1.2-2,0.2-2.5-0.5c-0.6-1-0.9-2.2-0.8-3.3
				l0.7-13c0-1.2-0.9-2.2-2-2.3l-7.9-0.8c-1.1-0.1-2.1,0.7-2.3,1.8c0,0,0,0,0,0.1l-4.4,34.7c-0.2,1.2,0.4,2.4,1.5,2.9l7.9,3.5
				c0.8,0.4,1.8,0.1,2.3-0.8c0.1-0.1,0.1-0.3,0.1-0.4l1.7-8.5c0-0.7,0.6-1.2,1.3-1.2c0.3,0,0.6,0.1,0.8,0.3c0,0,8.7,6.2,15.9,7.7
				c7.2,1.6,30.4,2.3,30.4,2.3c1.2,0,3.1,0.1,4.2,0.1h18.8c1.2,0,2.2-0.9,2.2-2.1l0.5-8.1c0.1-1.1-0.7-2-1.8-2.1c-0.1,0-0.1,0-0.2,0
				H99.7c-1.2,0-3.1,0-4.2-0.1l-26.9-1.6c-1.2-0.2-2.1-1.2-2.1-2.4v-7.5c0-1.2,0.9-2.1,2.1-2.1h5.7c1.2,0,2.1-1,2.1-2.1V56
				c0-1.2-0.9-2.1-2.1-2.1h-5.7c-1.2,0-2.1-1-2.1-2.1v-4.3c0-1.2,1-2.1,2.1-2.1h6.2c1.2,0,2.1-1,2.1-2.1v-4.2c0-1.2,0.5-1.3,1-0.3
				l2.3,4.3c0.6,1,0.4,1.9-0.3,1.9s-1.3,1-1.3,2.1v25.6c0,1.2,1,2.1,2.1,2.1h36c1.2,0,2.1-1,2.1-2.1v-2.8l-8.8,0.1
				c-0.7,0-1.3-0.6-1.4-1.3C108.7,68.4,108.7,68.2,108.8,68.1 M98.4,28.7l1.6-5.5c0.3-1.2,1.4-2,2.6-2.1h2.3c1.1,0,2.1,0.9,2.1,2.1
				c0,0,0,0,0,0.1c0,2.1-0.2,4.1-0.5,6.1c-0.3,1.1-1.3,1.8-2.4,1.7c-0.8,0-4.2-0.3-4.2-0.3c-0.9,0-1.5-0.7-1.5-1.6
				C98.2,29.1,98.3,28.9,98.4,28.7 M105,61.9c0,1.2-1,2.1-2.1,2.1H94c-1.2,0-2.1-1-2.1-2.1v-4.7c0-1.2,1-2.1,2.1-2.1h8.9
				c1.2,0,2.1,1,2.1,2.1L105,61.9z"/>
			<path id="パス_20696" class="st0" d="M0,110.7l0.2-1.5c0.1-1,1-1.7,1.9-1.8l16.2-0.1c0.8,0,1.4,0.6,1.5,1.4c0,0.1,0,0.2,0,0.3
				l-0.2,1.5c-0.1,1-1,1.7-1.9,1.8l-16.2,0.1c-0.8,0-1.4-0.6-1.5-1.4C0,110.9,0,110.8,0,110.7"/>
			<path id="パス_20697" class="st0" d="M30.1,169.8l0.2-1.5c0.1-1,1-1.7,1.9-1.8l16.2-0.1c0.8,0,1.4,0.6,1.5,1.4
				c0,0.1,0,0.2,0,0.3l-0.2,1.5c-0.1,1-1,1.7-1.9,1.8l-16.2,0.1c-0.8,0-1.4-0.6-1.5-1.4C30,170,30,169.9,30.1,169.8"/>
			<path id="パス_20698" class="st0" d="M66.1,113.6l7.4-0.1c0.5,0,0.9,0.5,0.8,1c0,0.3-0.2,0.5-0.4,0.7c-1.5,1.3-2.6,3-3.1,4.9
				C70,124.4,66.1,113.6,66.1,113.6"/>
			<path id="パス_20699" class="st0" d="M6.9,148.9l-5.4-1.1c-0.6-0.1-1-0.7-0.9-1.3c1.2-7.3,2.4-16,3.5-26c0.1-0.6,0.6-1.1,1.2-1
				c0,0,0,0,0,0l3.8,0.5c0.6,0.1,1.2-0.3,1.3-1c0-0.1,0-0.1,0-0.2v-13.1c0-0.6,0.5-1.1,1.1-1.1c0,0,0,0,0,0h8.9
				c0.6,0,1.1,0.5,1.1,1.1v11.2c0,0.6,0.5,1.1,1.1,1.1c0.1,0,0.3,0,0.4-0.1l2.4-0.9c0.6-0.2,1.2,0.1,1.4,0.7c0,0,0,0,0,0
				c0.4,1.2,0.9,2.7,1.5,4.6v-7.6c0-0.6,0.5-1.1,1.1-1.1h10.9c0.6,0,1.1-0.5,1.1-1.1v-7.2c0-0.6,0.5-1.1,1.1-1.1h9.8
				c0.6,0,1.1,0.5,1.1,1.1v7.2c0,0.6,0.5,1.1,1.1,1.1h15.3c0.6,0,1.1,0.5,1.1,1.1v21.6c0,0.6,0.5,1.1,1.1,1.1H74
				c0.6,0,1.1,0.5,1.1,1.1v7.7c0,0.6-0.5,1.1-1.1,1.1H57.3c-0.6,0-1.1,0.5-1.1,1.1c0,0.2,0,0.4,0.1,0.5c3.1,5.8,9.4,10.9,18.7,15.5
				c0.6,0.3,0.8,0.9,0.5,1.5c0,0,0,0,0,0.1l-4.6,8.2c-0.3,0.5-0.9,0.7-1.5,0.5c-8-4-14.9-10.1-19.8-17.6c-0.3-0.5-1-0.6-1.6-0.3
				c-0.1,0.1-0.3,0.2-0.3,0.4c-2.3,3.7-5.2,7.1-8.5,10c-3.6,3.1-7.6,5.7-12,7.6c-0.5,0.2-1.1,0-1.4-0.5l-2-3.4
				c-0.3-0.5-1-0.7-1.5-0.4c-0.3,0.2-0.6,0.6-0.6,1v2.2c0,0.6-0.5,1.1-1.1,1.1h-8.9c-0.6,0-1.1-0.5-1.1-1.1c0,0,0,0,0,0V148
				c0-0.6-0.5-1.1-1.1-1.1c-0.5,0-1,0.4-1.1,0.9c0,0.1,0,0.1,0,0.2C8.2,148.6,7.6,149,6.9,148.9C7,148.9,7,148.9,6.9,148.9
				 M30.8,133.7l-5.5,1.8c-0.6,0.2-1.2-0.1-1.4-0.7c0,0,0,0,0,0c-0.3-1-0.6-2.3-1.1-3.8c-0.6-2.2-1-3.6-1.1-4.2v36.2
				c0,0.6,0.5,1.1,1.1,1.1c0.2,0,0.3,0,0.5-0.1c3.9-1.7,7.6-4,10.8-6.8c2.5-2.2,4.4-4.9,5.7-8c0.2-0.6,0-1.2-0.6-1.5
				c-0.1-0.1-0.3-0.1-0.4-0.1H24.6c-0.6,0-1.1-0.5-1.1-1.1v-7.7c0-0.6,0.5-1.1,1.1-1.1h16c0.6,0,1.1-0.5,1.1-1.1v-11.3
				c0-0.6-0.5-1.1-1.1-1.1h-10c-0.6,0-1.1,0.5-1.1,1.1c0,0.1,0,0.2,0.1,0.3c0.8,2.4,1.4,4.7,2,6.9C31.7,132.9,31.4,133.5,30.8,133.7
				 M53.7,125.1v11.3c0,0.6,0.5,1.1,1.1,1.1h4.2c0.6,0,1.1-0.5,1.1-1.1v-11.3c0-0.6-0.5-1.1-1.1-1.1h-4.2
				C54.3,124,53.8,124.5,53.7,125.1"/>
			<path id="パス_20700" class="st0" d="M138.4,174.4l7.4,0.1c0.5,0,0.9-0.5,0.8-1c0-0.3-0.2-0.5-0.4-0.7c-1.5-1.3-2.6-3-3.1-4.9
				C142.3,163.7,138.4,174.4,138.4,174.4"/>
			<path id="パス_20701" class="st0" d="M137.4,143l0.2-1.1c0.1-0.7,0.7-1.3,1.4-1.3l11.9-0.1c0.6,0,1.1,0.5,1.1,1
				c0,0.1,0,0.2,0,0.3l-0.2,1.1c-0.1,0.7-0.7,1.3-1.4,1.3l-11.9,0.1c-0.6,0-1.1-0.5-1.1-1C137.4,143.2,137.4,143.1,137.4,143"/>
			<path id="パス_20702" class="st0" d="M134.1,146.7l0.2-1.1c0.1-0.7,0.7-1.3,1.4-1.3l6.1,0v-14c0-0.5-0.4-1-1-1h-5.6
				c-0.5,0-1-0.4-0.9-1c0-0.1,0-0.3,0.1-0.4c0.4-0.9,0.7-1.7,1-2.4c0.1-0.4,0.5-0.6,0.9-0.6h5.8c0.5,0,1-0.4,1-1v-5.8
				c0-0.5-0.4-1-1-1h-14.9c-0.5,0-1-0.4-1-1V114c0-0.5-0.4-1-1-1c0,0,0,0,0,0h-8.6c-0.5,0-1,0.4-1,1v2.4c0,0.5-0.4,1-1,1H99.6
				c-0.5,0-1,0.4-1,1v5.8c0,0.5,0.4,1,1,1h6.6c0.4,0,0.8,0.3,0.9,0.7c0.3,0.9,0.5,1.7,0.8,2.5c0.1,0.5-0.1,1-0.6,1.2
				c-0.1,0-0.2,0-0.3,0h-5.3c-0.5,0-1,0.4-1,1l0,0v31c0,0.5-0.4,1-1,1c-0.3,0-0.5-0.1-0.7-0.3c-0.4-0.4-0.7-0.9-1-1.3
				c-0.1-0.2-0.1-0.3-0.1-0.5v-20.2c0-0.5-0.4-1-1-1l0,0H83.3c-0.5,0-1,0.4-1,1v6.6c0,0.5,0.4,1,1,1h3.6c0.5,0,1,0.4,1,1v13.8
				c0,0.3-0.1,0.6-0.4,0.8c-1.8,1.4-3.6,2.6-5.5,3.8c-0.4,0.3-0.6,0.8-0.3,1.3l3.8,6.4c0.3,0.5,0.9,0.6,1.3,0.3c0,0,0,0,0,0
				c2.5-1.7,4.9-3.5,7.3-5.4c0.3-0.3,0.8-0.3,1.2,0c2.3,1.8,5.7,3,10,3.8c6.7,0.9,13.5,1.4,20.3,1.2H142c0.5,0,0.9-0.4,1-0.9
				l0.4-6.5c0-0.5-0.4-1-0.9-1c0,0,0,0-0.1,0h-17.2c-7.1,0-12.4-0.1-15.8-0.4c-2.6-0.1-5.2-0.6-7.7-1.6h6.9c0.5,0,1-0.4,1-1V138
				c0-0.5,0.4-1,1-1c0,0,0,0,0,0h5.2c0.5,0,1,0.4,1,1c0,0.5-0.4,1-1,1h-4.1c-0.5,0-1,0.4-1,1v4.5c0,0.5,0.4,1,1,1h4.1
				c0.5,0,1,0.4,1,1v0.3c0,0.5-0.4,1-1,1h-3c-0.5,0-1,0.4-1,1c0,0,0,0,0,0v14.4c0,0.5,0.4,1,1,1h5.5c0.5,0,1-0.4,1-1v-0.5
				c0-0.5,0.4-1,1-1c0,0,0,0,0,0h4.3c0.5,0,0.9,0.4,0.9,0.9l0,0.5c0,0.5,0.4,0.8,0.9,0.9c4.3,0.2,7.2,0.3,8.5,0.3
				c1.5,0.1,3.1-0.1,4.5-0.7c1-0.7,1.7-1.9,1.8-3.1c0.4-2.6,0.6-5.3,0.5-8V148l-6.6,0c-0.6,0-1.1-0.5-1.1-1
				C134,146.9,134,146.8,134.1,146.7 M123.4,155c0,0.5-0.4,1-1,1h-2.2c-0.5,0-1-0.4-1-1v-1.5c0-0.5,0.4-1,1-1h2.2c0.5,0,1,0.4,1,1
				V155z M125.2,126.4c-0.4,1-0.8,1.8-1.1,2.5c-0.2,0.3-0.5,0.6-0.9,0.6h-4.5c-0.4,0-0.8-0.3-0.9-0.7c-0.1-0.4-0.3-0.9-0.4-1.5
				c-0.1-0.4-0.2-0.7-0.3-1c-0.1-0.5,0.1-1,0.7-1.2c0.1,0,0.2,0,0.3,0h6.3c0.5,0,1,0.4,1,1C125.2,126.1,125.2,126.2,125.2,126.4
				 M132.4,154.2c0,0.4,0,0.9-0.2,1.3c-0.1,0.2-0.4,0.2-1,0.2c-0.1,0-0.3,0-0.5,0c-0.2,0-0.4,0-0.6,0v-7.1c0-0.5-0.4-1-1-1
				c0,0,0,0,0,0h-3.1c-0.5,0-1-0.4-1-1v-0.3c0-0.5,0.4-1,1-1h4.1c0.5,0,1-0.4,1-1v-4.5c0-0.5-0.4-1-1-1h-4.1c-0.5,0-1-0.4-1-1
				s0.4-1,1-1h5.3c0.5,0,1,0.4,1,1L132.4,154.2z"/>
			<path id="パス_20703" class="st0" d="M93,133.7c0.4,0.4,1,0.4,1.4,0.1c0,0,0,0,0,0l5.2-4.9c0.4-0.4,0.4-0.9,0.1-1.3
				c-3.4-3.8-6.7-7.5-10.1-11c-0.4-0.4-0.9-0.4-1.3,0l-5.4,4.9c-0.4,0.3-0.4,0.9-0.1,1.3c0,0,0,0,0,0C85.9,126,89.3,129.6,93,133.7"
				/>
		</g>
	</g>
</g>
</svg>
