<svg id="hero_price_sp" xmlns="http://www.w3.org/2000/svg" xmlns:xlink="http://www.w3.org/1999/xlink" width="335.551" height="270.684" viewBox="0 0 335.551 270.684">
  <defs>
    <clipPath id="clip-path">
      <rect id="長方形_2927" data-name="長方形 2927" width="335.551" height="270.684" fill="#064b9e"/>
    </clipPath>
  </defs>
  <g id="グループ_5057" data-name="グループ 5057" clip-path="url(#clip-path)">
    <path id="パス_36518" data-name="パス 36518" d="M3.322,39.552c-.175-2-.461-3.988-.636-5.987-.2-2.332.735-3.142,2.961-3.336,1.949-.171,3.906-.23,5.855-.4l15.807-1.383c1.892-.165,3.83-.446,5.723-.612s3.317.1,3.551,2.766c.174,2,.243,4.063.418,6.063l2.361,26.985c.126,1.444.415,2.816.541,4.261.257,2.943.057,5.142-2.595,6.884a15.893,15.893,0,0,1-7.6,2.232c-2.839.249-3.574-.47-4.12-2.213a20.922,20.922,0,0,1-.865-4.121c-.077-.888.138-1.634,1.2-1.727.668-.058,1.856.061,2.8-.022,2.449-.214,2.473-1.223,2.375-2.334l-.51-5.83a1.6,1.6,0,0,0-1.695-1.418L15.422,60.538c-1.5.132-2.076.629-2.224,2.153a35.943,35.943,0,0,1-2.187,8.976c-.588,1.618-2.691,7.062-4.528,7.222C5.036,79.015.159,76.476,0,74.7a2.517,2.517,0,0,1,.658-1.456,28.478,28.478,0,0,0,3.8-11.075A48.162,48.162,0,0,0,4.376,51.6Zm8.618.421a1.6,1.6,0,0,0,1.695,1.419L27.214,40.2a1.6,1.6,0,0,0,1.423-1.691l-.063-.722a1.559,1.559,0,0,0-1.695-1.418L13.3,37.56a1.559,1.559,0,0,0-1.423,1.691Zm16.3,11.891a1.6,1.6,0,0,0,1.423-1.691l-.088-1a1.6,1.6,0,0,0-1.695-1.418L14.518,48.923c-1.225.107-1.723.822-1.616,2.043l.03.333a1.684,1.684,0,0,0,2.057,1.722Z" transform="translate(0 -9.496)" fill="#064b9e"/>
    <path id="パス_36519" data-name="パス 36519" d="M93.659,68.038c-1.057.093-1.215.218-1.142,1.051.117,1.332-.041,1.458-2.045,1.633l-3.005.263c-1.67.146-2.236.084-2.329-.972s-.129-2.115-.216-3.115L84.1,57.46c-.082-.944-.117-1.332-.92-1.542-1.032-.246-3.5-4.058-3.6-5.28-.073-.832.58-1.057,1.34-1.348.922-.36,6.119-2.493,6.047-3.327-.03-.333-.72-1.167-1.276-1.119a1.5,1.5,0,0,0-.908.527,3.54,3.54,0,0,1-1.643,1.095c-1.169.1-4.1-2.606-4.214-3.939-.049-.556.478-.937,1.265-1.566a37.068,37.068,0,0,0,7.063-7.724,6.17,6.17,0,0,0,1.018-1.824.514.514,0,0,0-.6-.451l-.834.074a1.049,1.049,0,0,0-.97,1.092c.024.277.17.656.252,1.6.112,1.277-.6,1.451-2.1,1.583l-2.282.2c-1.67.146-2.4.1-2.515-1.178a13.655,13.655,0,0,1-.025-1.564,6.015,6.015,0,0,0-.032-1L79,29.987c-.082-.943-.272-1.822-.354-2.766-.165-1.887,1.611-2.1,3-2.221,1.28-.112,2.515-.109,3.739-.215s1.769-.938,1.705-1.66c-.034-.389-.242-1.49-.332-1.873-.01-.111-.08-.273-.095-.439-.053-.612.615-.67,1.06-.709,1.559-.136,4.245-.2,5.813-.228,1.289,0,2.347-.093,2.406.573.024.278-.24.469-.55.775a1.57,1.57,0,0,0-.454,1.215,1.614,1.614,0,0,0,1.8,1.353c.5-.044,1.827-.272,3-.374,1.392-.122,3.34-.292,3.51,1.651.078.889.049,1.843.132,2.787l.165,1.887c.092,1.055.257,1.656.33,2.489.063.722-.217,1.361-.774,1.41-.223.02-.779.068-.735.567.024.278.206.431.453.688a5.175,5.175,0,0,1,1.327,2.346c.1,1.166-3.272,5.545-4.136,6.572a1.226,1.226,0,0,0-.423.932c.107,1.222,5.85,2.118,6.184,2.089.724-.064.837-.689.784-1.3l-.671-7.663c-.15-1.721-.417-3.488-.567-5.209-.2-2.277.829-2.7,2.721-2.868l1-.088a1.273,1.273,0,0,0,1-.7,3.923,3.923,0,0,0,.482-1.553c-.049-.555-.56-.622-1.005-.583-1.447.126-2.88.42-4.327.546-1.113.1-1.273-.448-1.429-2.225l-.238-2.72c-.136-1.555-.074-2.12,1.04-2.217,1.336-.117,3.127-.162,5.019-.327l11.855-1.038c1.892-.165,3.664-.433,5-.55,1.113-.1,1.268.393,1.384,1.725l.282,3.221c.14,1.61.072,2.12-.985,2.213-1.447.126-3.3.12-5.079.276l-1.614.142a2.632,2.632,0,0,0-2.25,2.491c.02.222.221.6,1,.527,1.614-.141,3.219-.394,4.832-.535,1.837-.161,2.781.373,2.951,2.316.155,1.777.194,3.507.35,5.284l1.165,13.327c.156,1.776.417,3.489.573,5.265.219,2.5-1.219,2.736-3,2.892-.167.014-.339-.026-.506-.012a.433.433,0,0,0-.411.427c.063.722,5.417,2.939,6.342,3.25.52.178.828.487.861.876.117,1.332-2.386,5.412-3.722,5.529a2.072,2.072,0,0,1-1.092-.3,38.786,38.786,0,0,1-6.658-3.67c-.535-.344-1.554-1.095-1.588-1.484-.063-.722.805-1.692,1.41-2.473l.406-.483c.1-.12.361-.367.462-.488s.259-.246.24-.469a.562.562,0,0,0-.656-.446l-5.4.472c-.389.034-.7.34-.675.619.039.444,1.542,1.6,2.021,1.949.424.354,1.685,1.307,1.729,1.806a.671.671,0,0,1-.615.67c-.39.034-.455-.072-.956-.028a.564.564,0,0,0-.43.2c-1.188,1.168-6.882,5.974-8.217,6.091-1.057.092-2.926-2.038-3.612-2.817-.126-.157-.242-.2-.3-.2-.167.014-.194.352-.184.463l.034.388c.073.833-.464,1.1-1.967,1.236l-4.23.37c-1.113.1-1.157-.4-1.181-.679-.04-.444-.271-.536-.605-.507Zm2.105-15.683c.278-.024.436-.15.411-.427-.039-.444-1.866-1.46-2.979-1.362a2.605,2.605,0,0,0-1.455.686c-.157.126-.685.508-.948.7s-.417.372-.4.539c.024.278.419.3.641.279ZM92.275,39.4c-.389.034-1.113.1-1.065.653.034.389,1.143,1.523,1.81,1.464.779-.068,2.142-1.81,2.127-1.976-.03-.333-1.092-.3-2.094-.209Zm-.521,20.972a1.1,1.1,0,0,0,1.15.962l2.727-.238a1.1,1.1,0,0,0,.966-1.148l-.034-.388a1.059,1.059,0,0,0-1.15-.962l-2.727.238a1.061,1.061,0,0,0-.966,1.147Zm2.2-29.958c-.167.014-.44.094-.421.316s.651.391.99.417c.621.058,1.476.207,1.52.706.034.389-.448.654-.777.739a1.221,1.221,0,0,0-.97,1.092.5.5,0,0,0,.544.456l1.726-.151a.811.811,0,0,0,.706-.9l-.029-.333c-.014-.166-.056-1.282-.07-1.448a.942.942,0,0,0,.022-.394c-.029-.333-.286-.7-1.015-.694Zm10.073,31.793c.059.667.228,1.323.952,1.26a9.32,9.32,0,0,0,1.657-.928c.583-.387,4.234-2.889,4.19-3.388a.4.4,0,0,0-.479-.349l-.39.034c-1.725.151-2.425-.795-2.561-2.35s-.156-3.064-.292-4.618l-.068-.777c-.024-.278-.054-.611-.444-.577-.278.024-.37.256-.558.664a8.764,8.764,0,0,1-1.907,2.573c-.731.623-.724,1.35-.621,2.516ZM119.46,36.015a.692.692,0,0,0-.731-.663l-4.342.379a.691.691,0,0,0-.6.78l.024.278a.692.692,0,0,0,.731.663l4.341-.379a.66.66,0,0,0,.605-.78Zm.627,7.163a.692.692,0,0,0-.731-.664l-4.341.379a.693.693,0,0,0-.605.781l.024.278a.692.692,0,0,0,.731.663l4.341-.38a.692.692,0,0,0,.605-.78Zm.617,7.051a.692.692,0,0,0-.731-.664l-4.342.38a.691.691,0,0,0-.6.78l.029.333a.691.691,0,0,0,.731.663l4.341-.379a.692.692,0,0,0,.605-.78Z" transform="translate(-26.867 -6.262)" fill="#064b9e"/>
    <path id="パス_36520" data-name="パス 36520" d="M32.617,192.454l-.041-.466c-7.246-4.765-15.444-15.549-16.749-30.458-2.14-24.46,12.271-47.55,41.495-50.107s47.427,17.681,49.567,42.14c1.3,14.909-4.9,26.953-11.2,32.9l.041.466c9.7,5.959,18.845,17.833,20.394,35.537,2.547,29.118-16.536,50.035-44.49,52.481S21.252,260.111,18.7,230.993c-1.549-17.7,5.4-30.987,13.912-38.539m36.607,55.01c11.648-1.019,18.69-10.79,17.548-23.835-1.12-12.812-9.752-21.212-21.4-20.193s-18.686,10.79-17.566,23.6c1.142,13.045,9.771,21.445,21.418,20.426M77.877,156.1c-.9-10.25-8.195-18.061-18.15-17.19s-15.784,9.83-14.888,20.08c.877,10.017,8.176,17.829,18.128,16.958s15.786-9.832,14.909-19.848" transform="translate(-5.336 -37.994)" fill="#064b9e"/>
    <path id="パス_36521" data-name="パス 36521" d="M187.023,178.945l-.041-.466c-7.245-4.766-15.444-15.549-16.749-30.458-2.14-24.46,12.271-47.55,41.495-50.107s47.427,17.681,49.567,42.14c1.3,14.909-4.9,26.953-11.2,32.9l.041.466c9.7,5.959,18.845,17.833,20.394,35.537,2.547,29.118-16.536,50.036-44.49,52.481s-50.377-14.841-52.924-43.958c-1.549-17.7,5.4-30.987,13.912-38.539m36.607,55.01c11.648-1.019,18.689-10.79,17.548-23.835-1.12-12.812-9.752-21.212-21.4-20.192s-18.686,10.79-17.566,23.6c1.142,13.045,9.771,21.445,21.418,20.426m8.653-91.363c-.9-10.25-8.195-18.061-18.15-17.19s-15.784,9.83-14.888,20.08c.877,10.017,8.176,17.829,18.128,16.958s15.786-9.832,14.909-19.848" transform="translate(-58.091 -33.379)" fill="#064b9e"/>
    <path id="パス_36522" data-name="パス 36522" d="M180.983,33.636l-.718-.6,6.128-7.263-7.3-6.088.6-.717,7.278,6.11,6.106-7.283.719.6-6.128,7.265,7.3,6.088-.6.716-7.278-6.11Zm2.146-7.579a1.731,1.731,0,1,1-1.864-1.56,1.728,1.728,0,0,1,1.864,1.56m5.128-6.1a1.721,1.721,0,1,1-1.866-1.581,1.728,1.728,0,0,1,1.866,1.581m.981,11.209a1.721,1.721,0,1,1-1.864-1.56,1.714,1.714,0,0,1,1.864,1.56m5.148-6.1a1.731,1.731,0,1,1-1.884-1.558,1.732,1.732,0,0,1,1.884,1.558" transform="translate(-61.191 -6.079)" fill="#064b9e"/>
    <path id="パス_36523" data-name="パス 36523" d="M223.75,12.881c.909-.08,1.812-.22,2.72-.3.5-.043.559.2.611.8l.1,1.133c.055.618.035.869-.461.913-.909.08-1.821.117-2.729.2l-11.278.987c-.909.08-1.814.2-2.724.279-.454.041-.536-.182-.585-.738l-.109-1.236c-.05-.577-.03-.827.444-.87.909-.079,1.824-.1,2.732-.176Zm-8.111,12.441c-.537.047-.793.215-.85.759a14.826,14.826,0,0,1-1.444,5.13c-.157.346-.348.778-.782.816-.516.045-2.449-.636-2.5-1.213a14.282,14.282,0,0,0,1.672-8.244l-.153-1.751c-.051-.577-.144-1.171-.2-1.768-.07-.8.411-1.013,1.113-1.073.723-.063,1.45-.085,2.194-.15l8.034-.7c.64-.057,1.277-.154,1.937-.211.681-.059,1.192.062,1.262.865.052.6.063,1.2.114,1.776l.256,2.927c.072.824.207,1.663.274,2.425.041.474-.182.536-.905.6l-1.218.107c-.619.055-.851.033-.93-.4a.576.576,0,0,0-.711-.519Zm7.105-3.238a.578.578,0,0,0,.528-.627l-.09-1.031a.592.592,0,0,0-.629-.525l-7.27.635a.593.593,0,0,0-.528.628l.083.947a.59.59,0,0,0,.739.6Z" transform="translate(-71.502 -4.297)" fill="#064b9e"/>
    <path id="パス_36524" data-name="パス 36524" d="M250.906,15.692c-.661.058-1.341.139-2,.2-.433.038-.491-.144-.535-.639l-.054-.618c-.045-.516-.044-.744.39-.782.681-.06,1.366-.078,2.027-.136l1.157-.1a.262.262,0,0,0,.246-.292l-.013-.144a.231.231,0,0,0-.248-.207l-.29.026c-.6.052-1.194.146-1.669.187-.413.036-.468-.125-.514-.64l-.07-.8c-.038-.432-.011-.6.381-.635.537-.047,1.078-.053,1.615-.1a.575.575,0,0,0,.529-.607c-.006-.062-.077-.408-.092-.573-.024-.267.183-.286.39-.3.723-.064,1.986-.133,2.359-.145.292,0,.685-.018.709.249.012.145-.086.215-.18.328a.38.38,0,0,0-.1.3c.02.227.182.421.554.388l.93-.081c.5-.043,1.009-.13,1.5-.173.62-.055,1.061-.01,1.126.732.04.453.037.91.079,1.384a.415.415,0,0,0,.431.4l.186-.016c.412-.036.49.144.531.6l.065.742c.043.494-.005.665-.417.7l-.125.011a.455.455,0,0,0-.416.471c.04.454.122.924.165,1.4.061.7-.321.858-.94.912-.517.045-1.037.048-1.554.093l-1.238.109a.273.273,0,0,0-.245.292l0,.041a.261.261,0,0,0,.292.244l1.383-.121c.681-.06,1.359-.161,2.02-.219.435-.038.493.165.538.68l.06.68c.043.5.019.683-.415.721-.661.058-1.346.077-2.028.136l-1.384.121a.275.275,0,0,0-.246.291l.006.063a.257.257,0,0,0,.291.223l1.982-.174c.681-.059,1.34-.138,2.023-.2.411-.036.467.126.51.6l.066.762c.041.474.016.664-.4.7-.682.06-1.347.077-2.028.136l-1.529.134c-.661.057-.647.451-.6,1.007.053.6.2.833.839.777,1.218-.107,2.59-.371,3.54-.454.641-.057.792.242.842.818a2.581,2.581,0,0,1-.365,1.776,1.053,1.053,0,0,1-.843.364l-5.225.457c-3.14.275-5.477.438-7.458-.55a.9.9,0,0,0-.575-.136.914.914,0,0,0-.673.39c-.281.356-1.271,1.419-1.7,1.457-.558.049-2.037-1.38-2.08-1.874-.014-.165.2-.37.624-.718.409-.327,1.279-1.088,1.244-1.479a1.235,1.235,0,0,0-.279-.577,13.5,13.5,0,0,1-1.185-2.119,8.62,8.62,0,0,1-.481-1.225c-.05-.577,1.728-.94,2.161-.978.372-.033.426.108.585.489.184.44.364.84.516,1.138.05.1.1.157.2.148.206-.018.275-.419.4-1.156a10.552,10.552,0,0,0,.133-1.568c-.014-.165-.2-.149-.325-.138l-.351.031a.654.654,0,0,0-.551.36.727.727,0,0,1-.553.338c-.31.027-2.3-.131-2.352-.708-.007-.082.553-1.294.677-1.554a27.645,27.645,0,0,0,1.416-3.55c-.022-.247-.331-.22-.683-.189l-.475.041c-.309.028-.718.126-.924.144-.413.036-.479-.228-.526-.764l-.1-1.154c-.057-.659-.036-.889.378-.926.186-.016.521.016.934-.02l3.223-.282c.764-.067.879.047,1.548.571a.664.664,0,0,1,.3.514,14.783,14.783,0,0,1-1.151,3.734.8.8,0,0,0-.094.361c.016.186.224.188.39.174l.1-.009a1.471,1.471,0,0,1,1.174.333c.4.277.666.481.709.976a3.219,3.219,0,0,1,.019.456c0,.914,0,1.641-.086,2.582a14.4,14.4,0,0,1-.828,3.623.52.52,0,0,0-.06.275c.022.247.243.394.676.584a7.826,7.826,0,0,0,3.608.329c.681-.06.644-.492.6-.966-.045-.515-.2-.813-.775-.762l-.391.034c-.661.058-1.339.159-2,.217-.435.038-.492-.145-.535-.639l-.065-.741c-.039-.454-.014-.642.42-.681.661-.057,1.344-.1,2-.154l.868-.076a.246.246,0,0,0,.247-.271l-.009-.1a.23.23,0,0,0-.248-.206l-.269.024c-.682.06-1.339.158-2.02.218-.413.036-.492-.144-.53-.577l-.072-.824c-.04-.453.006-.644.419-.68.681-.059,1.346-.076,2.028-.136l.268-.024a.23.23,0,0,0,.207-.247l-.011-.124a.231.231,0,0,0-.248-.207l-.29.026c-.558.049-1.131.141-1.689.19-.393.034-.448-.127-.489-.6l-.07-.8c-.042-.474-.015-.643.378-.677.558-.049,1.138-.057,1.7-.106l.289-.026a.231.231,0,0,0,.209-.247l-.015-.165a.244.244,0,0,0-.29-.223Zm5.362-2.462a.276.276,0,0,0,.246-.292l-.009-.1a.261.261,0,0,0-.292-.244l-.847.074a.262.262,0,0,0-.245.292l.009.1c.014.165.125.238.292.244Zm-.673,2.051a.245.245,0,0,0-.248.271l.011.124a.273.273,0,0,0,.292.244l.847-.074a.273.273,0,0,0,.244-.292l-.01-.124a.256.256,0,0,0-.29-.223Z" transform="translate(-82.538 -3.203)" fill="#064b9e"/>
    <path id="パス_36525" data-name="パス 36525" d="M277.875,11.819c.07-.4.139-.8.172-1.136.026-.4.031-.584.3-.607a26.554,26.554,0,0,1,3.154.845c.43.149.564.262.573.365.007.082-.051.13-.13.178a1.253,1.253,0,0,0-.691.911,16.624,16.624,0,0,0-.747,5.963c.1,1.132.147,1.689.415,1.666.145-.013.234-.186.323-.361.106-.217.21-.454.437-.474.248-.022,1.134.606,1.161.916.026.288-.744,1.955-.646,3.067.013.145.1.656.167.962a5.928,5.928,0,0,1,.115.592c.066.762-1.41,1.493-2.05,1.55-.392.034-.6-.217-1.039-.926a14.877,14.877,0,0,1-1.9-6.5,25.345,25.345,0,0,1,.386-7.01m6.681,8.323a3.241,3.241,0,0,0,3.013,1.127,16.847,16.847,0,0,0,4.465-1.055,2.044,2.044,0,0,1,.489-.126c.269-.023.415.234.452.417a20.26,20.26,0,0,1,.29,2.134c.024.267.016.413-.242.56a23.7,23.7,0,0,1-5.044,1.107c-3.325.29-4.936-1.23-4.977-1.7-.034-.391.817-2.563,1.292-2.6.1-.009.194.086.261.144m-.822-8.918a4.165,4.165,0,0,1,.648.027,15.117,15.117,0,0,0,2.751.049,12.7,12.7,0,0,0,3.021-.679,1.821,1.821,0,0,1,.408-.1c.392-.034.554.387.622.693a15.4,15.4,0,0,1,.272,1.679c.043.5-.005.645-.536.774a24.686,24.686,0,0,1-3.448.55c-.62.054-3.479.2-3.9-.095-.178-.13-.232-.748-.252-.974-.133-1.525-.082-1.883.414-1.926" transform="translate(-94.775 -3.442)" fill="#064b9e"/>
    <path id="パス_36526" data-name="パス 36526" d="M315.653,20.908c.1,1.132-1.531,2-2.233,2.064-.455.039-.629-.278-.9-.732-.39-.65-1.411-1.6-1.885-1.558a1.181,1.181,0,0,0-.67.432c-.153.159-.38.408-.5.418-.454.04-1.873-2.141-1.915-2.615-.021-.247.158-.344.395-.491.493-.312,3.664-2.6,3.868-2.891a1.252,1.252,0,0,0,.1-.757l-.07-.8a.478.478,0,0,0-.52-.473c-.082.007-.57.132-.693.163a7.722,7.722,0,0,1-1.142.267c-.413.036-.828.051-1.016-2.092-.068-.783-.072-.824.73-.936q.9-.109,1.786-.28a.678.678,0,0,0,.512-.336,7.307,7.307,0,0,0-.017-1.868l-.031-.35c-.037-.433-.119-.882-.13-1.007a.289.289,0,0,1,.281-.356c.454-.04,2.516.216,3.1.269.19.024.4.068.416.232.009.1-.108.2-.187.246a1.1,1.1,0,0,0-.369.779c-.042.462-.057.774-.051.835a.413.413,0,0,0,.429.379,4.57,4.57,0,0,0,.644-.244,2.2,2.2,0,0,1,.545-.193c.352-.031.576.406.73,1.2a12.082,12.082,0,0,1,.209,1.206c.045.515-.18.556-1.89,1a.632.632,0,0,0-.562.712c.025.29.129.53.46.5a1.982,1.982,0,0,0,.464-.166,9.118,9.118,0,0,1,2.728-.7c2.541-.221,5.061.99,5.3,3.772a4.091,4.091,0,0,1-1.385,3.443,8.362,8.362,0,0,1-4.365,1.481c-.558.049-.991.087-1.184-.207a5.716,5.716,0,0,1-.521-1.906c-.032-.371-.027-.787.427-.826.124-.011.583.011.73.019.25,0,.644-.014.87-.034.888-.078,2.375-.457,2.276-1.591a1.689,1.689,0,0,0-1.991-1.341,7.262,7.262,0,0,0-3.1,1.144.886.886,0,0,0-.207.724c.022.247.119.881.16,1.128.057.409.35,2.087.371,2.334m-3.193-1.3c-.022-.247-.066-.514-.252-.5-.165.015-.336.2-.452.311a.3.3,0,0,0-.144.261c.014.165.082.221.475.436a.661.661,0,0,0,.259.1c.144-.014.155-.139.143-.264Zm9.826-9.955c.51.352,1.307.9,1.779,1.3a.614.614,0,0,1,.3.39c.047.535-1.068,2.065-1.585,2.111a.838.838,0,0,1-.521-.246,35.73,35.73,0,0,0-3.119-2.114c-.243-.145-.483-.27-.5-.5-.026-.289.494-1.018.683-1.242.038-.045.073-.111.111-.156.244-.311.5-.667.751-.688a8.348,8.348,0,0,1,2.1,1.144" transform="translate(-105.078 -2.29)" fill="#064b9e"/>
    <path id="パス_36527" data-name="パス 36527" d="M343.713,17.091c.082.926.2,1.851.285,2.778.043.494-.13.654-1.163.745l-.537.047c-1.054.092-1.237-.1-1.279-.573-.082-.927-.118-1.838-.2-2.744l-.465-5.317c-.02-.226-.042-.474-.228-.458a.315.315,0,0,0-.214.165.883.883,0,0,1-.508.376c-.579.051-1.947-1.781-1.972-2.068A.9.9,0,0,1,337.7,9.5a20.855,20.855,0,0,0,3.431-6.922c.124-.488.153-.638.484-.667a5.365,5.365,0,0,1,1.192.312c.194.066.364.113.471.145.043.018.107.033.214.065.427.129,1.2.353,1.215.559.009.1-.144.261-.328.3-.2.038-.242.082-.972,1.974-.188.473-.55,1.314-.763,1.748a.487.487,0,0,0-.08.277c.018.205.25.248.4.255.167.006.337.054.354.239.015.165-.14.3-.255.418a.551.551,0,0,0-.107.444c.016.186.055.389.07.575Zm8.238-9.337a.579.579,0,0,0-.529.627l.141,1.608c.043.494.288.68.784.636l.269-.024c.7-.061,1.379-.182,2.081-.243.6-.053.681.169.737.808l.088,1.01c.054.618.034.868-.544.918-.723.063-1.429.084-2.132.145l-.351.031a.585.585,0,0,0-.583.716l.162,1.854a.593.593,0,0,0,.63.527l1.259-.111c.764-.066,1.543-.2,2.307-.263.517-.045.621.195.672.772l.1,1.153c.057.66-.005.894-.542.941-.764.067-1.533.072-2.3.138l-6.527.571c-.764.066-1.524.2-2.308.265-.558.049-.622-.216-.682-.9l-.1-1.113c-.049-.556.013-.81.508-.854.784-.068,1.575-.076,2.34-.144l1.074-.093a.591.591,0,0,0,.527-.627l-.158-1.813a.623.623,0,0,0-.723-.643l-.351.03c-.578.051-1.153.143-1.751.195s-.681-.169-.743-.869l-.083-.948c-.056-.639-.014-.87.586-.923.721-.063,1.43-.064,2.132-.125.475-.041.616-.344.577-.776L348.4,8.75c-.043-.494-.348-.654-.823-.613l-.393.034c-.7.062-1.4.184-2.081.244-.6.052-.681-.169-.739-.829l-.09-1.029c-.057-.66-.015-.892.584-.945.681-.06,1.388-.059,2.092-.121l1.321-.115c.289-.025.517-.045.5-.23-.007-.082-.118-.155-.295-.286a18.888,18.888,0,0,0-1.616-1.1c-.157-.111-.332-.221-.349-.406A3.806,3.806,0,0,1,348.386,1.5a.735.735,0,0,1,.469.124c.509.351,1.019.7,1.509,1.072.311.223,1.4,1.02,1.432,1.37.019.227-.343.612-.5.75-.1.092-.134.136-.13.177.011.124.2.107.361.093l1.095-.1c.7-.061,1.4-.185,2.1-.246.557-.049.662.192.712.768l.09,1.03c.059.68.02.953-.558,1-.7.062-1.41.061-2.112.123Z" transform="translate(-115.289 -0.513)" fill="#064b9e"/>
    <path id="パス_36528" data-name="パス 36528" d="M380.687.095c.106.013.294.016.307.181a.7.7,0,0,1-.114.363,2.236,2.236,0,0,0-.217,1.327.452.452,0,0,0,.5.434c.372-.033,2.335-.661,2.862-.832a5,5,0,0,1,.833-.238c.29-.025.429.377.49.6a10.322,10.322,0,0,1,.38,1.731c.043.494-.2.6-.847.78-1.017.277-2.077.535-3.117.771-.491.105-.712.188-.674.619.025.288.19.5.5.475a18.688,18.688,0,0,0,2.151-.624,2.5,2.5,0,0,1,.51-.128c.165-.014.282.142.389.4a8.652,8.652,0,0,1,.317,1.966c.058.66-.575.8-2.457,1.17-.82.154-.976.273-.943.643.1,1.132.134,1.3.792,1.446.893.213,3.764,1.145,3.849,2.113.039.453-.693,2.074-1.354,2.132a4.5,4.5,0,0,1-1.632-.812,2.327,2.327,0,0,0-.953-.415c-.288.026-.352.259-.435.5-.52,1.666-2.132,2.263-3.744,2.4a4.651,4.651,0,0,1-2.575-.418,2.957,2.957,0,0,1-1.514-2.317,2.837,2.837,0,0,1,.979-2.369,5.64,5.64,0,0,1,3.128-1.125l.228-.02a.408.408,0,0,0,.393-.492.491.491,0,0,0-.523-.514c-.373.032-1.644.248-2.552.327-.785.068-.993.066-1.166-.479a8.167,8.167,0,0,1-.456-1.891c-.027-.309-.011-.6.361-.634.6-.052,1.5-.027,2.487-.114L377.422,7c.516-.045.905-.12.865-.573a.473.473,0,0,0-.54-.472c-.7.062-1.955.254-2.926.339l-.619.054c-.826.072-1.489.11-1.639-.168a7.451,7.451,0,0,1-.416-2.144c-.025-.288-.035-.64.357-.675s2.577-.039,3.94-.158l.454-.04c.5-.043.864-.117.826-.55-.016-.185-.22-1.33-.315-1.7A2.7,2.7,0,0,1,377.3.35c-.022-.247.118-.321.366-.343.392-.034,2.5.051,3.024.088m-3.992,14.074c.043.494.81.448,1.161.417.558-.049,1.226-.253,1.165-.953-.025-.288-.275-.287-.667-.252-.413.036-1.712.191-1.659.788" transform="translate(-127.145 0)" fill="#064b9e"/>
    <path id="パス_36529" data-name="パス 36529" d="M405.041,2.128c.209.024.442.065.459.251.007.082-.049.149-.184.265a1.466,1.466,0,0,0-.314.941,15.271,15.271,0,0,0-.015,2.908,9.581,9.581,0,0,0,1.09,3.891c.2.336.624.963,1.079.923.475-.041.876-.928,1.034-1.274.122-.261.284-.544.595-.571.619-.054,2.25.988,2.294,1.481s-.811,1.67-1.127,2.092a3.457,3.457,0,0,1-2.452,1.71,4.4,4.4,0,0,1-3.508-1.79c-1.716-2.009-2.124-5-2.345-7.539-.034-.392-.169-2.892-.174-3.182a.311.311,0,0,1,.322-.361c.268-.023,2.724.2,3.248.256m7.5-1.321c.557-.049,2.3,1.086,3.337,2.469a11.241,11.241,0,0,1,1.9,4.09c.07.327.175.815.2,1.062.038.433-.049.627-.452.787a7.169,7.169,0,0,1-1.931.522c-.764.067-.808-.2-.939-.977a7.352,7.352,0,0,0-3.525-5.567.427.427,0,0,1-.238-.332c-.041-.474,1.032-2,1.652-2.055" transform="translate(-137.168 -0.275)" fill="#064b9e"/>
    <path id="パス_36530" data-name="パス 36530" d="M227.685,54a7.271,7.271,0,0,1,2.652,5.1,7.75,7.75,0,0,1-3.553,7.2,7.957,7.957,0,0,1-2.377,1.142c-.724.064-1.984-1.736-2.034-2.313-.016-.185.162-.284.749-.481,2.343-.828,4.173-2.5,3.941-5.141a4.379,4.379,0,0,0-3.492-4.242c-.352.031-.361.406-.349.779.024,2.884-.5,6.459-2.2,8.891a4.02,4.02,0,0,1-2.845,1.972,3.694,3.694,0,0,1-3.326-1.847,6.99,6.99,0,0,1-.953-3.032,8.775,8.775,0,0,1,8.023-9.651A7.7,7.7,0,0,1,227.685,54m-10.709,7.726c.043.494.3,1.989,1.022,1.926.5-.043,1.078-1.465,1.248-1.916a18.673,18.673,0,0,0,.84-5.388c-.015-.165-.11-.3-.3-.286-.6.053-3.119,2.183-2.814,5.665" transform="translate(-73.07 -17.884)" fill="#064b9e"/>
    <path id="パス_36531" data-name="パス 36531" d="M253.079,53.557c.045.515.349.654.824.613l3.615-.317c.558-.049,1.114-.118,1.65-.165,1.219-.107,1.3.633,1.371,1.4a21.9,21.9,0,0,1-.546,7.316,3.536,3.536,0,0,1-1.346,1.986,3.6,3.6,0,0,1-1.71.44c-1.982.174-2.706.237-2.881-1.762-.041-.473-.071-1.053.425-1.1a6.864,6.864,0,0,1,.877.027A5.128,5.128,0,0,0,256,62a1.347,1.347,0,0,0,1.229-.939,11.08,11.08,0,0,0,.325-3.662c-.061-.7-.311-.7-1.365-.607l-2.643.232c-.537.047-.668.224-.751.688a10,10,0,0,1-.541,1.667,15.757,15.757,0,0,1-4.993,5.981,1.24,1.24,0,0,1-.621.261,2.539,2.539,0,0,1-1.97-1.821c-.03-.35.2-.516.48-.706a15.518,15.518,0,0,0,3.371-3.326,9.283,9.283,0,0,0,1.468-4.633,14.511,14.511,0,0,0-.04-2.115c-.045-.515-.215-.791-.773-.743l-2.706.237c-.826.072-1.648.186-2.475.259-.5.043-.558-.18-.612-.8l-.114-1.3c-.054-.618-.009-.83.486-.873.826-.072,1.637-.081,2.464-.153l3.883-.34c.5-.043.562-.485.525-.9a10.168,10.168,0,0,0-.2-1.352.641.641,0,0,1-.038-.184c-.023-.268.179-.327.407-.347.352-.031,2.015-.052,2.452-.049.208,0,.208,0,.375.009.355.01.585.011.606.258.014.165-.18.307-.3.379-.237.145-.256.167-.168,1.177.036.412.246.664.679.626l4.007-.352c.826-.072,1.626-.2,2.452-.276.5-.043.576.158.63.776l.114,1.3c.054.618.032.849-.463.891-.826.073-1.656.1-2.483.176l-4.627.4c-.413.036-.466.145-.6.468a.841.841,0,0,1-.284.316.492.492,0,0,0-.147.47Z" transform="translate(-83.111 -15.881)" fill="#064b9e"/>
    <path id="パス_36532" data-name="パス 36532" d="M282.421,44.689c-.018-.207.007-.4.255-.417.206-.018,2.589.334,2.991.4.169.027.548.077.566.283.012.144-.127.219-.305.317-.316.194-.35.757-.382,1.342l-.016.291c-.01.126-.031.356-.026.419.042.473.477.456.745.433a3.626,3.626,0,0,1,1.755.3,3.548,3.548,0,0,1,2.044,3.371,15.475,15.475,0,0,1-.741,6.522,4.659,4.659,0,0,1-4.157,2.689c-.6.052-.894,0-1.124-.483a8.236,8.236,0,0,1-.637-2.042c-.023-.267.04-.5.35-.529.288-.025.581-.029.869-.055,1.219-.106,1.542-.218,1.886-1.037a11.956,11.956,0,0,0,.529-4.656c-.083-.947-.255-1.244-1.06-1.173-.683.06-.86.158-.986.855a27.4,27.4,0,0,1-2.58,7.139A13.616,13.616,0,0,1,281.1,60.79a.455.455,0,0,1-.339.175c-.475.041-2.533-.88-2.59-1.539-.018-.206.149-.429.451-.787a16.138,16.138,0,0,0,3.1-5.981,1.123,1.123,0,0,0,.072-.359.289.289,0,0,0-.357-.279,13.256,13.256,0,0,0-1.7.731,1,1,0,0,1-.4.18c-.33.029-.648-.753-.9-1.541a11.043,11.043,0,0,1-.393-1.4c-.024-.269.115-.342.73-.459a22.59,22.59,0,0,0,3.115-.791c.527-.151.637-.325.65-.888A25.976,25.976,0,0,0,282.448,45Zm8.585,1.3a20.657,20.657,0,0,1,3.8,4.609c.059.679-1.727,1.915-2.3,1.966-.227.02-.346-.157-.565-.512a17.452,17.452,0,0,0-3.275-4.364c-.112-.094-.249-.227-.259-.351-.038-.432,1.461-1.623,1.935-1.664a.942.942,0,0,1,.673.315m1.876-1.867c.584.488,1.038.906,1.053,1.092.036.411-.868,1.259-1.115,1.28-.084.007-.218-.106-.332-.221-.5-.516-1.067-1.007-1.628-1.477-.133-.093-.245-.187-.255-.29-.025-.288.94-1.161,1.187-1.184a4.478,4.478,0,0,1,1.09.8m1.326-2.213c.313.243,1.608,1.251,1.633,1.539.036.413-.886,1.282-1.113,1.3-.124.011-.263-.142-.334-.24a21.4,21.4,0,0,0-1.646-1.455c-.089-.075-.244-.186-.254-.309-.026-.288.961-1.144,1.187-1.164.145-.013.461.271.529.328" transform="translate(-94.994 -14.208)" fill="#064b9e"/>
    <path id="パス_36533" data-name="パス 36533" d="M311.716,47.394c-.661.058-1.318.157-1.978.215-.723.064-.779-.1-.895-1.417l-.041-.474c-.061-.7-.024-.994.637-1.051.392-.034.787-.049,1.179-.082.413-.036.555-.319.523-.689l-.057-.659c-.038-.433-.107-.988-.187-1.417a.559.559,0,0,1-.037-.184c-.023-.267.159-.325.386-.344a4.622,4.622,0,0,1,.54-.006c.749,0,1.5-.007,2.248.011.188,0,.458,0,.479.249.013.144-.064.214-.2.35-.153.158-.134.613-.1,1.046l.06.68c.032.371.244.643.636.609.475-.042.967-.127,1.442-.169.64-.056.727.227.787.907l.086.989c.062.7.024.994-.615,1.05-.414.037-.81.029-1.223.065-.082.007-.307.048-.3.172.013.144.264.164.606.258.7.188,1.061.239,1.083.487.014.165-.123.26-.282.336-.261.105-.289.274-.338.652-.084.713-.19,1.408-.336,2.106a2.8,2.8,0,0,0-.084.714c.034.39.414.689.665.937.385.361,1.979,1.924,2.015,2.336a3.6,3.6,0,0,1-1.676,2.016c-.186.016-.277-.08-.4-.236-.23-.271-1.375-1.686-1.664-1.661-.206.018-.311.256-.38.407-.276.647-1.993,3.622-2.635,3.678a3.818,3.818,0,0,1-2.077-1.625c-.013-.144.078-.3.285-.544.528-.627,2.313-3.295,2.246-4.057a.994.994,0,0,0-.493-.643c-.731-.517-1.438-.974-2.207-1.447-.307-.18-.375-.236-.391-.422-.034-.392,1.032-2,1.507-2.042a7.71,7.71,0,0,1,1.884,1.081.835.835,0,0,0,.477.207c.248-.021.295-.192.4-1.176a7.224,7.224,0,0,0,.066-.9c-.034-.392-.329-.428-.66-.4Zm9.548,3.026a13.53,13.53,0,0,1,.857,1.939c.036.413-.277.647-.853.947a6.18,6.18,0,0,1-1.183.519c-.289.026-.393-.215-.5-.435a38.26,38.26,0,0,0-1.8-3.455,1.1,1.1,0,0,1-.182-.421c-.041-.474,1.843-1.3,2.152-1.33.33-.029.458.23,1.507,2.235m5,4.109c.052.6.123,1.172.176,1.77a1.911,1.911,0,0,1-.527,1.583,7.039,7.039,0,0,1-3.092.83c-.785.069-1.16.061-1.409-.4a4.866,4.866,0,0,1-.487-1.764c-.029-.33-.02-.7.394-.741a2.562,2.562,0,0,1,.417.005c.228,0,.5,0,.726-.022.764-.067.753-.191.667-1.18l-.625-7.15a.593.593,0,0,0-.629-.526l-1.467.128c-.641.056-1.378.183-1.833.223-.537.047-.6-.2-.656-.836l-.1-1.132c-.058-.66-.039-.911.5-.958s1.163-.039,1.843-.1l1.508-.132a.566.566,0,0,0,.481-.687l-.135-1.546a10.211,10.211,0,0,0-.182-1.375.536.536,0,0,1-.037-.184c-.024-.267.157-.346.384-.366.146-.012.4.007.54-.005.752.017,1.479.016,2.23.034.188,0,.458,0,.479.248.013.144-.065.193-.2.35a1.7,1.7,0,0,0-.1,1.046l.134,1.525a.528.528,0,0,0,.589.55c.227-.02.452-.061.7-.082.517-.045.6.176.652.774l.113,1.3c.051.577.009.809-.508.854-.226.02-.456.018-.683.039a.544.544,0,0,0-.508.606Z" transform="translate(-105.499 -13.658)" fill="#064b9e"/>
    <path id="パス_36534" data-name="パス 36534" d="M357.159,46.9c.29-.026,1.523.988,1.812,1.211.355.26.532.369.548.555.015.165-.122.259-.288.274-.1.009-.272-.018-.334-.012-.082.007-.156.117-.313.234a13.676,13.676,0,0,1-1.069.862c-.177.119-.352.259-.332.486.038.433,2.5,2.19,2.966,2.5.11.073.2.128.212.272.043.494-1.508,2.042-1.9,2.076-.536.047-3.392-2.86-3.856-3.4a18.831,18.831,0,0,1-2.947-4.413c-.078-.179-.2-.418-.43-.4-.166.014-.743.313-.716.623.012.144.122.217.213.292a6.963,6.963,0,0,1,.868.879,7.837,7.837,0,0,1,1.953,4.481c.246,2.8-1.779,3.207-4.072,3.408-1.219.107-1.4-.065-1.6-1.605-.013-.144-.085-.262-.25-.248a4.839,4.839,0,0,0-.6.281A25.369,25.369,0,0,1,343.7,56.76c-.537.048-1.463-1.263-1.485-1.51s.243-.311.789-.5a31.959,31.959,0,0,0,5.06-2.352c.793-.444,1.243-.773,1.658-1.018.058-.047.138-.1.128-.219-.006-.061-.066-.265-.251-.248a.488.488,0,0,0-.161.055,35.438,35.438,0,0,1-5.554,2.894,2.393,2.393,0,0,1-.627.2c-.516.045-1.23-1.222-1.263-1.593-.02-.226.162-.284.4-.367a28.521,28.521,0,0,0,5.722-2.639c.04-.024.14-.075.13-.178a.223.223,0,0,0-.225-.188.623.623,0,0,0-.182.057,29.4,29.4,0,0,1-5.05,2.227c-.6.053-1.317-1.255-1.352-1.646-.021-.247.1-.258.754-.439a31.087,31.087,0,0,0,3.327-1.226c.24-.1.339-.155.328-.278s-.136-.133-.219-.126c-.207.018-.616.1-.947.124-.641.056-1.105-.029-1.17-.77-.032-.371-.035-.869-.083-1.426l-.091-1.03c-.019-.226-.062-.472-.289-.452a.336.336,0,0,0-.181.078.766.766,0,0,1-.3.109c-.516.045-1.779-1.547-1.815-1.959-.014-.165.145-.241.263-.314a11.593,11.593,0,0,0,4.229-3.526.362.362,0,0,1,.291-.233c.228-.02,2.718.364,3.118.433.213.044.319.076.334.241a.243.243,0,0,1-.147.22.117.117,0,0,0-.053.109c.011.123.176.109.259.1l3.2-.28a2.043,2.043,0,0,1,1.848,1.375c.022.248-.265.542-.438.7a.279.279,0,0,0-.1.238c.014.165.2.149.324.138l.31-.027c.619-.054,1.215-.148,1.835-.2.64-.056,1.1.007,1.17.77.031.351.035.87.082,1.4l.078.885c.049.557.134,1.068.165,1.419.063.722-.358.9-.978.957-.516.045-1.036.049-1.553.095-.207.018-.448.1-.427.349.006.062.475,1.142.867,1.108a5.735,5.735,0,0,0,1.245-1c.23-.228.3-.379.485-.395m-10.418-5.36a.825.825,0,0,0-.643.264,1.234,1.234,0,0,1-.213.185c-.1.071-.115.114-.112.155.009.1.092.1.174.088l3.1-.271c.7-.062.806-.548.8-.569-.007-.082-.074-.118-.259-.1Zm-.147,2.838a.4.4,0,0,0-.379.427l.018.206a.4.4,0,0,0,.447.355L348.6,45.2a.4.4,0,0,0,.379-.428l-.018-.206a.385.385,0,0,0-.447-.355Zm3.2,9.976c.577-.051.835-.2.78-.837a.219.219,0,0,0-.248-.207.392.392,0,0,0-.2.1c-.177.119-.865.573-1.063.695-.08.049-.156.118-.151.179.011.124.24.125.881.069M352.068,43.9a.38.38,0,0,0-.358.425l.018.206a.381.381,0,0,0,.427.357l1.962-.172a.4.4,0,0,0,.379-.428l-.018-.206a.4.4,0,0,0-.448-.355Z" transform="translate(-116.423 -13.074)" fill="#064b9e"/>
    <path id="パス_36535" data-name="パス 36535" d="M35.145,402.943l-.718-.6,6.128-7.263-7.3-6.089.6-.717,7.278,6.111,6.106-7.283.719.6-6.128,7.263,7.3,6.088-.6.717-7.278-6.111Zm2.146-7.579a1.731,1.731,0,1,1-1.864-1.561,1.727,1.727,0,0,1,1.864,1.561m5.128-6.1a1.721,1.721,0,1,1-1.866-1.58,1.728,1.728,0,0,1,1.866,1.58m.982,11.21a1.721,1.721,0,1,1-1.864-1.56,1.714,1.714,0,0,1,1.864,1.56m5.148-6.1a1.731,1.731,0,1,1-1.884-1.559,1.732,1.732,0,0,1,1.884,1.559" transform="translate(-11.363 -132.258)" fill="#064b9e"/>
    <path id="パス_36536" data-name="パス 36536" d="M70.756,397.823c1.074-.094,3.3-.33,3.445-.343.435-.038.527.079.569.552l.159,1.813c.041.474-.03.605-.464.643-.145.012-2.378.167-3.452.261l-2.954.259c-1.095.1-3.508.348-3.652.361-.434.038-.527-.079-.569-.552l-.077-.886a.876.876,0,0,1,.431-1.014c.388-.325.7-.6,1.061-.965,3.652-3.683,5.272-5.631,5.124-7.321-.1-1.134-.912-1.851-2.4-1.721a4.05,4.05,0,0,0-2.807,1.7c-.168.222-.262.334-.385.344s-.237-.083-.439-.251l-1.67-1.5c-.182-.171-.275-.286-.288-.431-.011-.124.061-.254.23-.456a7.9,7.9,0,0,1,5.338-2.73c3.553-.311,5.754,1.531,5.985,4.169.24,2.741-1.688,5.214-4.171,7.757-.153.159-.207.246-.2.309s.132.091.381.069Z" transform="translate(-21.315 -131.73)" fill="#064b9e"/>
    <path id="パス_36537" data-name="パス 36537" d="M98.468,396.792a.738.738,0,0,1-.483.893,12.549,12.549,0,0,1-4.29,1.164c-5.556.486-8.156-2.588-8.509-6.626-.463-5.3,3.007-8.444,7.779-8.861a9.389,9.389,0,0,1,3.762.417c.3.119.457.23.473.415a1.244,1.244,0,0,1-.068.4l-.67,2.343c-.078.3-.147.448-.292.46a.983.983,0,0,1-.427-.128,5.591,5.591,0,0,0-2.531-.381c-2.83.248-4.661,2.151-4.411,5.015.259,2.968,2.368,3.988,4.784,3.776a4.8,4.8,0,0,0,.78-.13c.488-.125.581-.258.537-.752l-.027-.309c-.072-.824-.275-2.425-.287-2.57-.038-.433.079-.526.554-.568l2.293-.2c.475-.042.606.03.644.463.013.144.091,1.757.163,2.581Z" transform="translate(-29.091 -130.968)" fill="#064b9e"/>
    <path id="パス_36538" data-name="パス 36538" d="M120.94,382.98c.619-.054,1.238-.128,1.857-.183.826-.072,1.323.134,1.4,1.019.061.7.1,1.4.161,2.084l.61,6.965c.053.6.147,1.19.2,1.809.076.865.064.97-.907,1.055l-1.178.1c-.785.068-.874-.007-.986-.329-.164-.442-.453-.417-1.135-.357l-8.117.71c-.267.044-.554.09-.843.115-.5.043-.582-.219-.645-.939l-.128-1.464c-.054-.617-.028-.807.4-.845.269-.024.685-.018,1-.045.642-.036,1.282-.091,1.943-.149l6.465-.566a.645.645,0,0,0,.585-.695l-.393-4.492a.645.645,0,0,0-.7-.583l-6.486.567c-.6.052-1.2.1-1.774.176-.373.033-.72.105-1.071.136-.454.04-.574-.137-.655-1.065l-.109-1.236c-.068-.783.024-.916.4-.948.309-.027.623-.013.912-.038Z" transform="translate(-37.726 -130.783)" fill="#064b9e"/>
    <path id="パス_36539" data-name="パス 36539" d="M151.912,386.123c1.219-.106,2.533-.3,2.72-.321.537-.047.64.172.692.77l.086.989c.1,1.133.109,1.485-.551,1.543-.806.07-1.762.092-2.671.171l-9.5.831c-.91.08-1.874.227-2.638.293-.7.062-.737-.33-.832-1.422l-.083-.948c-.054-.617-.014-.871.523-.918.29-.025,1.454-.043,2.755-.157Z" transform="translate(-47.531 -131.812)" fill="#064b9e"/>
    <path id="パス_36540" data-name="パス 36540" d="M178.706,376.832a11.14,11.14,0,0,0,1.419-.186,4.139,4.139,0,0,1,.513-.086c.641-.057,1.911,1.39,1.936,1.678a2.422,2.422,0,0,1-.253.666,38.633,38.633,0,0,1-2.481,4.7.563.563,0,0,0-.132.4.468.468,0,0,0,.328.408,42.856,42.856,0,0,1,4.015,2.6c.223.168,1,.743,1.163.915a.3.3,0,0,1,.145.238,4.686,4.686,0,0,1-2.1,2.592c-.31.027-.607-.278-.858-.527a.373.373,0,0,0-.116-.135,22.215,22.215,0,0,0-3.926-3,1.662,1.662,0,0,0-.712-.292.727.727,0,0,0-.494.293,23.928,23.928,0,0,1-3.027,2.756,14.619,14.619,0,0,1-2.743,1.715c-.371.032-1.236-1.035-1.492-1.344a3.225,3.225,0,0,1-.614-1.068c-.027-.309.251-.458.492-.562a18.522,18.522,0,0,0,7.9-7.5,1.41,1.41,0,0,0,.236-.644c-.03-.35-.385-.361-.736-.33l-3.139.275c-.93.082-1.877.205-2.828.288-.516.045-.579-.2-.644-.94l-.12-1.381c-.063-.721-.035-.868.461-.912.95-.083,1.906-.1,2.857-.188Z" transform="translate(-57.834 -128.656)" fill="#064b9e"/>
    <path id="パス_36541" data-name="パス 36541" d="M212.2,375.162a7.271,7.271,0,0,1,2.653,5.1,7.751,7.751,0,0,1-3.554,7.2,7.968,7.968,0,0,1-2.377,1.142c-.724.064-1.984-1.736-2.034-2.313-.016-.186.163-.285.749-.481,2.343-.828,4.173-2.5,3.942-5.14a4.381,4.381,0,0,0-3.492-4.243c-.352.031-.361.406-.35.779.023,2.884-.5,6.459-2.2,8.892a4.019,4.019,0,0,1-2.845,1.972,3.7,3.7,0,0,1-3.325-1.848,6.993,6.993,0,0,1-.952-3.031,8.774,8.774,0,0,1,8.022-9.651,7.7,7.7,0,0,1,5.76,1.615m-10.708,7.726c.043.494.3,1.988,1.022,1.925.5-.043,1.078-1.465,1.248-1.916a18.674,18.674,0,0,0,.84-5.388c-.014-.165-.11-.3-.3-.286-.6.053-3.118,2.182-2.813,5.665" transform="translate(-67.78 -127.614)" fill="#064b9e"/>
    <path id="パス_36542" data-name="パス 36542" d="M230.15,375.454c-.047-.536-.369-.654-.6-.633-.267.024-.536.068-.8.092-.392.034-.452-.189-.5-.725l-.11-1.256c-.051-.577-.03-.808.384-.845.226-.02.519-.024.745-.044a.555.555,0,0,0,.525-.669l-.17-1.937c-.023-.267-.128-.756-.152-1.024-.022-.247.14-.3.368-.323.288-.025,2.365-.082,2.7-.091.209,0,.439.025.459.252.014.165-.145.24-.318.4a.447.447,0,0,0-.167.471l.175,2c.041.473.345.612.613.589.352-.031.7-.1,1.05-.134.413-.036.473.167.531.826l.1,1.092c.057.66.034.869-.379.905-.351.031-.685.018-1.036.049-.29.025-.561.257-.517.752l.193,2.205c.031.349.1.614.384.589a5.709,5.709,0,0,0,.661-.307c.377-.2.667-.453.628-.907l-.046-.516c-.048-.556-.027-.785.408-.824.764-.066,1.533-.093,2.317-.161l6.4-.56c.764-.067,1.525-.175,2.288-.242.435-.038.491.144.544.741l.084.969c.042.474-.024.667-.417.7-.764.066-1.532.092-2.3.16l-3.924.343c-.661.058-.687.475-.681.536.014.165.223.168.347.157l3.449-.3c.619-.055,1.236-.15,1.855-.2.991-.087,1.1.4,1.171,1.247a20.523,20.523,0,0,1-.085,4.97c-.4,1.572-1.665,1.911-3.111,2.038-1.24.108-1.374-.005-1.643-1.413-.037-.184-.083-.242-.187-.234-.082.008-.177.12-.233.186-.28.378-1.541,1.9-1.954,1.937s-1.472-.66-1.5-.991c-.016-.184.217-.371.352-.487,1.243-1.022,3.186-3.789,3.149-4.221a.147.147,0,0,0-.178-.13l-.124.011c-.228.02-.319.173-.407.346a12.945,12.945,0,0,1-1.25,1.9,14.293,14.293,0,0,1-2.623,2.618.74.74,0,0,1-.363.136,2.039,2.039,0,0,1-1.445-1.058c-.013-.143.166-.242.264-.313,1.65-1.12,3.236-2.982,3.209-3.29-.009-.1-.154-.092-.237-.084a.65.65,0,0,0-.537.3,12.589,12.589,0,0,1-2.55,2.485,1.175,1.175,0,0,1-.5.273,2.422,2.422,0,0,1-1.527-1.279c-.016-.185.163-.284.319-.4a13.19,13.19,0,0,0,2.961-3.021,4.294,4.294,0,0,0,.629-1.135c-.016-.186-.228-.228-.393-.214-.661.058-1.153.142-1.106.677.014.165.069.554.092.822.036.413.014.644-.359.883-1.125.7-3.3,1.826-4.514,2.41a.758.758,0,0,0-.458.477c-.07.151-.118.321-.283.336-.123.011-.236-.083-.338-.3-.153-.319-.372-.923-.688-1.685a3.247,3.247,0,0,1-.283-.847c-.036-.413.292-.462.839-.635,1.051-.362,1.149-.432,1.095-1.051Zm11.181-7.809c.7-.061,1.4-.205,2.119-.269.785-.068,1.259.119,1.336.984.041.474.02.953.071,1.531l.133,1.524c.049.556.155,1.046.2,1.52.073.845-.361,1.111-1.126,1.178-.723.063-1.451.065-2.153.126l-2.706.236c-.7.062-1.4.184-2.121.248-.786.069-1.259-.1-1.334-.963-.041-.473-.022-.974-.07-1.53l-.134-1.524c-.051-.577-.155-1.046-.2-1.52-.074-.845.338-1.13,1.123-1.2.722-.064,1.454-.044,2.155-.105Zm.511,2.51a.258.258,0,0,0,.247-.271l-.015-.165a.273.273,0,0,0-.292-.244l-3.284.287a.275.275,0,0,0-.246.291l.014.165a.258.258,0,0,0,.292.224Zm-3.092,1.785a.326.326,0,0,0-.3.359l0,.041a.326.326,0,0,0,.358.3l3.162-.276a.327.327,0,0,0,.3-.359l0-.041a.315.315,0,0,0-.359-.3Zm4.544,8.635a12.276,12.276,0,0,1-1.023,2.1c-.036.065-.074.11-.068.172.016.186.182.171.39.174a2.615,2.615,0,0,0,.394-.014.529.529,0,0,0,.566-.444,5.126,5.126,0,0,0,.082-1.917c-.009-.1-.024-.267-.168-.255-.1.009-.138.094-.172.181" transform="translate(-77.94 -125.514)" fill="#064b9e"/>
    <path id="パス_36543" data-name="パス 36543" d="M268.268,373.847c-.661.057-1.4.164-1.978.214-.352.031-.465-.084-.531-.826l-.014-.165c-.012-.143-.074-.366-.28-.348-.124.011-.236.145-.335.216a10.591,10.591,0,0,1-2.341,1.783c-.537.047-2.02-1.442-2.068-2-.022-.247.238-.373.514-.543a18.693,18.693,0,0,0,6.668-7.289c.086-.195.142-.282.348-.3.248-.022,2.822.147,3.181.2.169.027.342.1.359.3a.287.287,0,0,1-.086.217.478.478,0,0,0-.1.257,3.457,3.457,0,0,0,.652.795,17.088,17.088,0,0,0,6.774,4.141c.429.15.473.186.489.373A4.786,4.786,0,0,1,279,372.6c-.155.366-.384.843-.693.87a16.573,16.573,0,0,1-3.452-1.629.5.5,0,0,0-.216-.084c-.248.022-.25.229-.222.539l.035.411c.042.473-.047.648-.4.678-.558.049-1.14.059-1.987.132Zm-.244,8.616c-.187.016-.363.136-.346.342l.015.165c.055.639-.11.654-1.39.766l-.661.057c-.743.065-1.036.049-1.083-.487-.026-.289-.036-1.118-.1-1.839l-.3-3.421c-.049-.557-.14-1.13-.19-1.687-.089-1.03.709-1.182,1.535-1.255.662-.058,1.329-.034,2.011-.093l5.515-.483c.661-.058,1.335-.2,2-.256.807-.071,1.64-.061,1.727.948.044.5.053,1.076.108,1.714l.3,3.421c.066.762.2,1.581.221,1.808.049.556-.237.622-.96.685l-1.218.107c-.681.06-.953.042-1-.493-.006-.083.009-.147,0-.208a.333.333,0,0,0-.38-.3Zm4.078-11.672c.269-.024.494-.064.477-.271a.653.653,0,0,0-.332-.448,26.313,26.313,0,0,1-2.1-1.914c-.113-.114-.275-.287-.46-.271a.493.493,0,0,0-.371.282c-.517.751-1.234,1.6-1.818,2.3a.748.748,0,0,0-.268.5c.02.227.085.242.806.179Zm1.317,8.626a.567.567,0,0,0,.527-.628l-.088-1.009a.565.565,0,0,0-.629-.526l-5.474.479a.579.579,0,0,0-.527.627l.089,1.009a.567.567,0,0,0,.628.527Z" transform="translate(-89.078 -124.566)" fill="#064b9e"/>
    <path id="パス_36544" data-name="パス 36544" d="M383.538,238.9,381.8,218.983a17.618,17.618,0,0,1-6.352,1.681c-7.623.667-12.8-2.4-15.549-9.439-1.637-4.081-2.469-8.7-5.506-43.411s-3.02-39.406-2.117-43.71c1.487-7.407,6.051-11.327,13.674-11.994,7.412-.648,12.8,2.4,15.551,9.437,1.637,4.082,2.469,8.7,5.506,43.413.63,7.2,1.128,13.107,1.514,17.99a16.225,16.225,0,0,1,3.272-.63c1.3-.113,2.552-.188,3.768-.261l.078,0c1.161-.068,2.255-.134,3.317-.226l19.765-1.729c-.353-4.986-.824-10.842-1.431-17.787-3.078-35.175-4.769-42.3-7.5-49.108-7.7-19.747-23.585-30.563-46.246-28.581s-36.423,15.392-40.579,36.177c-1.508,7.175-1.934,14.489,1.144,49.664s4.766,42.3,7.5,49.106c7.7,19.747,23.585,30.565,46.244,28.582a58.764,58.764,0,0,0,6.242-.878c-.091-1.247-.169-2.48-.237-3.676-.1-1.659-.184-3.194-.316-4.7" transform="translate(-109.949 -28.833)" fill="#064b9e"/>
    <path id="パス_36545" data-name="パス 36545" d="M437.795,290.818c.289,3.3.843,6.581,1.126,9.818.156,1.783-.627,1.986-3.01,2.194l-4.1.359c-2.384.208-3.255.151-3.406-1.566-.289-3.3-.379-6.622-.668-9.924l-3.1-35.4c-.208-2.378-.542-4.679-.751-7.056-.243-2.774.94-3.743,3.588-3.974,2.383-.209,4.778-.285,7.161-.493l30.387-2.658c2.317-.2,4.623-.538,7.005-.747,2.053-.18,4.068-.023,4.357,3.279.208,2.378.211,4.707.42,7.085l2.82,32.231c.162,1.849.45,3.622.612,5.471.231,2.642.372,5.025-1.512,7.121-2.193,2.388-5.949,2.916-9.06,3.188-2.714.238-4.321.178-5.375-1.194a11.9,11.9,0,0,1-1.588-5.185c-.208-2.378.036-3.4,1.228-3.5.6-.053,2.2.007,3.327-.092,2.648-.232,2.634-1.162,2.432-3.475l-.8-9.115a1.9,1.9,0,0,0-2.015-1.687l-28.335,2.479a1.973,1.973,0,0,0-1.68,2.143Zm8.22-35.661A1.9,1.9,0,0,0,444,253.47l-7.547.66a1.9,1.9,0,0,0-1.691,2.011l.976,11.163a1.9,1.9,0,0,0,2.016,1.687l7.547-.661a1.854,1.854,0,0,0,1.691-2.011Zm10.708,10.311a1.815,1.815,0,0,0,2.016,1.687l7.348-.643a1.9,1.9,0,0,0,1.692-2.011l-.976-11.162a1.9,1.9,0,0,0-2.016-1.687l-7.348.643a1.855,1.855,0,0,0-1.692,2.011Z" transform="translate(-144.815 -82.45)" fill="#064b9e"/>
  </g>
</svg>
