<?xml version="1.0" encoding="UTF-8"?><svg id="_イヤー_2" xmlns="http://www.w3.org/2000/svg" viewBox="0 0 398 154"><defs><style>.cls-1{fill:#fff;}.cls-2{fill:#fff100;}</style></defs><g id="_イヤー_1-2"><g><path id="_ス_16881" class="cls-1" d="M31.09,154l10.71-41.54L0,116.12,6.42,46.3l3.35,.31L3.72,112.42l42.52-3.72-8.45,32.77,31.12-34.75,.66-.06,328.13-28.69,.29,3.35L70.53,109.96l-39.45,44.04Z"/><path id="_ス_16882" class="cls-1" d="M54.43,63.16l-6.6,.58,.31-3.5-7.96,.7-.31,3.5-10.5,.92-.2,2.32,10.5-.92-.39,4.8-10.19,.89-1.13,12.51,18.19-1.59,.86-10.18,6.05-.53-.94,10.19,7.03-.61,1.17-12.51-13.08,1.14,.39-4.8,6.72-.59-.08,3.09,6.72-.59,.23-8.25-6.71,.59-.08,2.85Zm-16.05,18.57l-3.2,.28,.74-7.87,3.12-.27-.67,7.86Z"/><path id="_ス_16883" class="cls-1" d="M72.76,55.37l-7.95,14.13,3.41-.3-1.02,11.8,10.04-.88,1.56-17.69,4.48-7.98-10.52,.92Z"/><path id="_ス_16884" class="cls-1" d="M82.92,63.62l21.28-1.86-.18,2.17-20.8,1.82-.3,3.61,20.8-1.82-.84,10.35,11-.96,.84-10.35,3.59-.31,.3-3.61-3.59,.31,.18-2.17,3.59-.31,.3-3.61-35.86,3.14-.3,3.61Z"/><path id="_ス_16885" class="cls-1" d="M85.55,71.03l2.27,6.01,9.56-.84-2.27-6.01-9.56,.84Z"/><path id="_ス_16886" class="cls-1" d="M95.29,57.16l11.47-1,7.05-.62,3.47-.3,1.25-14.57-2.21,.19-8.31,.73-11.47,1-6.28,.55-4.24,.37-1.25,14.57,2.99-.26,7.53-.66Zm.96-10.96l11.47-1-.18,1.81-11.47,1,.18-1.81Zm-.48,5.42l11.47-1-.18,1.93-11.47,1,.18-1.93Z"/><path id="_ス_16887" class="cls-1" d="M83.88,43.7l-11,.96-6.75,9.55,11-.96,6.75-9.55Z"/><path id="_ス_16888" class="cls-1" d="M145.67,59.71l-12.41,1.09,4.37-4.44,16.01-1.4,.2-2.32-13.74,1.2,1.76-1.79-7.92,.69-1.76,1.79-8.63,.75-.2,2.32,6.32-.55-6.83,6.96,14.68-1.28-.12,1.3-12.73,1.66-.9,10.89,28.11-2.46,.2-2.32-20.14,1.76,.55-6.6,4.68-.6-.31,3.34,7.96-.7,.35-3.66,9.33-1.21,.2-2.32-9.33,1.21,.31-3.3Z"/><path id="_ス_16889" class="cls-1" d="M176.78,35.58l-11.47,1-.42,4.52-5.26,.46-.3,3.61,5.26-.46-1.02,11.92-5.32,1.06-.3,3.61,5.26-1.06-.78,8.85-3.82,.33-.3,3.61,3.82-.33,10.82-.95,.66-.06,1.2-13.84,3.47-.72,.3-3.61-3.41,.72,.9-10.53,3.35-.29,.3-3.61-3.35,.29,.41-4.51Z"/><path id="_ス_16890" class="cls-1" d="M181.56,39.46l15.3-1.34-2.81,31.79,11.95-1.05,2.81-31.78,4.54-.4,.3-3.61-31.79,2.78-.3,3.61Z"/><path id="_ス_16891" class="cls-1" d="M230.9,44.26l-8.59,.75-.55,1.73-7.03,.61-.2,2.32,6.44-.56-2.93,8.96,20.3-1.78-.7,8.02-19.83,1.73-.2,2.32,28.42-2.48,1.09-12.62-19.75,1.73,2.19-6.63,19.4-1.7,.2-2.32-18.82,1.65,.55-1.72Z"/><path id="_ス_16892" class="cls-2" d="M291.02,0l-20.42,20.25,7.05-.62-11.42,40.38-14.89,1.3-.3,3.61,51.69-4.52,.3-3.61-21.17,1.86,5.73-19.38,13.95-1.22,.3-3.61-13.16,1.15,5.13-17.37,6.87-.6L291.02,0Z"/><path id="_ス_16893" class="cls-1" d="M340.69,34.66l-.35,3.85-1.25,.11,.35-3.85-1.68,.15-.35,3.85-1.29,.11,.31-3.85-5.11,.45-.31,2.88-10.46,.92-.2,2.32,10.38-.91-2.07,17.97,7.96-.7,2.07-17.97,3.24-.28,.12-1.34h-.04l.35-3.85-1.67,.15Z"/><path id="_ス_16894" class="cls-1" d="M306.84,58.26l7.96-.7,1.72-19.86-7.96,.7-1.72,19.86Z"/><path id="_ス_16895" class="cls-1" d="M374.19,32.04l-25.77,2.25-.2,2.32,16.44-1.44-2.85,6.8-16.67,1.46-.2,2.32,23.35-2.04-.78,9.24-21.04,1.84-.2,2.32,29.59-2.59,1.21-13.88-6.68,.58,3.8-9.19Z"/><path id="_ス_16896" class="cls-1" d="M397.3,26.59l-10.13,.89-1.03,20.25,8.7-.76,2.46-20.38Z"/><path id="_ス_16897" class="cls-1" d="M384.8,54.56l10.13-.89,.31-3.39-10.13,.89-.31,3.39Z"/></g></g></svg>