<?xml version="1.0" encoding="utf-8"?>
<!-- Generator: Adobe Illustrator 26.4.1, SVG Export Plug-In . SVG Version: 6.00 Build 0)  -->
<svg version="1.1" id="レイヤー_1" xmlns="http://www.w3.org/2000/svg" xmlns:xlink="http://www.w3.org/1999/xlink" x="0px"
	 y="0px" viewBox="0 0 560 226" style="enable-background:new 0 0 560 226;" xml:space="preserve">
<style type="text/css">
	.st0{fill:#064B9E;}
</style>
<g id="hero_price_pc" transform="translate(-219.936 -608.34)">
	<g id="グループ_5049">
		<path id="パス_36447" class="st0" d="M237,684c-0.3-3.1-0.7-6.3-1-9.4c-0.3-3.7,1.2-4.9,4.8-5.3c3.2-0.3,6.3-0.4,9.5-0.7
			l25.6-2.2c3.1-0.3,6.2-0.7,9.3-1c3.1-0.3,5.4,0.1,5.7,4.3c0.3,3.1,0.4,6.4,0.7,9.5l3.7,42.4c0.2,2.3,0.7,4.4,0.9,6.7
			c0.4,4.6,0.1,8.1-4.2,10.8c-3.5,2.2-7.5,3.1-12.3,3.5c-4.6,0.4-5.8-0.7-6.7-3.5c-0.7-2.1-1.1-4.3-1.4-6.5
			c-0.1-1.4,0.2-2.6,1.9-2.7c1.1-0.1,3,0.1,4.5,0c4-0.3,4-1.9,3.9-3.7l-0.8-9.2c-0.2-1.4-1.4-2.3-2.7-2.2l-21.8,1.9
			c-2.4,0.2-3.4,1-3.6,3.4c-0.6,4.8-1.8,9.6-3.6,14.1c-1,2.5-4.4,11.1-7.4,11.4c-2.3,0.2-10.2-3.8-10.5-6.6c0.1-0.9,0.5-1.7,1.1-2.3
			c3.2-4.8,5.4-11.7,6.2-17.4c0.6-5.5,0.6-11.1-0.1-16.6L237,684z M251,684.6c0.2,1.4,1.4,2.3,2.7,2.2l22-1.9
			c1.4-0.1,2.4-1.3,2.3-2.7l-0.1-1.1c-0.1-1.4-1.4-2.4-2.7-2.2c0,0,0,0,0,0l-22,1.9c-1.4,0.1-2.4,1.3-2.3,2.7c0,0,0,0,0,0L251,684.6
			z M277.3,703.2c1.4-0.1,2.4-1.3,2.3-2.7l-0.1-1.6c-0.2-1.4-1.4-2.3-2.7-2.2l-21.7,1.9c-2,0.2-2.8,1.3-2.6,3.2l0,0.5
			c0.2,1.9,1.3,2.9,3.3,2.7L277.3,703.2z"/>
		<path id="パス_36448" class="st0" d="M254.4,826.5c-1.7,0.1-1.9,0.3-1.8,1.7c0.2,2.1-0.1,2.3-3.3,2.6l-4.8,0.4
			c-2.7,0.2-3.6,0.1-3.7-1.5c-0.1-1.7-0.2-3.4-0.3-5l-1.3-15c-0.1-1.5-0.2-2.1-1.5-2.5c-1.6-0.4-5.6-6.5-5.7-8.4
			c-0.1-1.3,0.9-1.7,2.1-2.1c1.5-0.6,9.7-4,9.6-5.3c0-0.5-1.1-1.9-2-1.8c-0.6,0.1-1.1,0.4-1.4,0.8c-0.7,0.8-1.6,1.4-2.6,1.7
			c-1.9,0.2-6.5-4.2-6.7-6.3c-0.1-0.9,0.8-1.5,2-2.5c4.3-3.6,8.1-7.7,11.3-12.3c0.7-1,1.7-2.5,1.6-2.9c0-0.4-0.5-0.8-0.9-0.7
			c0,0,0,0-0.1,0l-1.3,0.1c-0.9,0.1-1.6,0.8-1.5,1.7c0,0.4,0.3,1,0.4,2.6c0.2,2-1,2.3-3.4,2.5l-3.6,0.3c-2.7,0.2-3.8,0.2-4-1.9
			c-0.1-0.8-0.1-1.7,0-2.5c0-0.5,0-1.1-0.1-1.6l-0.2-2.8c-0.1-1.5-0.4-2.9-0.6-4.4c-0.3-3,2.6-3.3,4.8-3.5c2-0.2,4-0.2,6-0.3
			c1.9-0.2,2.8-1.5,2.7-2.6c-0.1-0.6-0.4-2.4-0.5-3c0-0.2-0.1-0.4-0.2-0.7c-0.1-1,1-1.1,1.7-1.1c2.5-0.2,6.8-0.3,9.3-0.4
			c2.1,0,3.7-0.1,3.8,0.9c0,0.4-0.4,0.7-0.9,1.2c-0.5,0.5-0.8,1.2-0.7,1.9c0.2,1.4,1.5,2.3,2.9,2.2c0.8-0.1,2.9-0.4,4.8-0.6
			c2.2-0.2,5.3-0.5,5.6,2.6c0.1,1.4,0.1,2.9,0.2,4.4l0.3,3c0.1,1.7,0.4,2.6,0.5,4c0.1,1.2-0.3,2.2-1.2,2.2c-0.4,0-1.2,0.1-1.2,0.9
			c0,0.4,0.3,0.7,0.7,1.1c1,1,1.8,2.3,2.1,3.7c0.2,1.9-5.2,8.8-6.6,10.5c-0.4,0.4-0.7,0.9-0.7,1.5c0.2,1.9,9.3,3.4,9.9,3.3
			c1.2-0.1,1.3-1.1,1.2-2.1l-1.1-12.2c-0.2-2.7-0.7-5.6-0.9-8.3c-0.3-3.6,1.3-4.3,4.3-4.6l1.6-0.1c0.7-0.1,1.3-0.5,1.6-1.1
			c0.4-0.8,0.7-1.6,0.8-2.5c-0.1-0.9-0.9-1-1.6-0.9c-2.3,0.2-4.6,0.7-6.9,0.9c-1.8,0.2-2-0.7-2.3-3.5l-0.4-4.3
			c-0.2-2.5-0.1-3.4,1.7-3.5c2.1-0.2,5-0.3,8-0.5l18.9-1.6c3-0.3,5.8-0.7,8-0.9c1.8-0.2,2,0.6,2.2,2.8l0.4,5.1
			c0.2,2.6,0.1,3.4-1.6,3.5c-2.3,0.2-5.3,0.2-8.1,0.4l-2.6,0.2c-3.1,0.3-3.6,3.6-3.6,4c0,0.4,0.4,1,1.6,0.8c2.6-0.2,5.1-0.6,7.7-0.9
			c2.9-0.3,4.4,0.6,4.7,3.7c0.2,2.8,0.3,5.6,0.6,8.4l1.9,21.2c0.2,2.8,0.7,5.6,0.9,8.4c0.3,4-1.9,4.4-4.8,4.6c-0.3,0-0.5,0-0.8,0
			c-0.4,0-0.7,0.3-0.7,0.7c0.1,1.2,8.6,4.7,10.1,5.2c0.7,0.1,1.2,0.7,1.4,1.4c0.2,2.1-3.8,8.6-5.9,8.8c-0.6,0-1.2-0.2-1.7-0.5
			c-3.7-1.6-7.3-3.6-10.6-5.9c-0.9-0.5-2.5-1.7-2.5-2.4c-0.1-1.2,1.3-2.7,2.2-3.9l0.6-0.8c0.2-0.2,0.6-0.6,0.7-0.8
			c0.2-0.2,0.4-0.4,0.4-0.7c-0.1-0.5-0.6-0.8-1-0.7l-8.6,0.8c-0.6,0-1,0.4-1.1,1c0.1,0.7,2.5,2.6,3.2,3.1c0.7,0.6,2.7,2.1,2.8,2.9
			c0,0.6-0.4,1-1,1.1c-0.6,0.1-0.7-0.1-1.5,0c-0.3,0-0.5,0.1-0.7,0.3c-1.9,1.9-11,9.5-13.1,9.7c-1.7,0.1-4.7-3.3-5.8-4.5
			c-0.2-0.2-0.4-0.3-0.5-0.3c-0.3,0-0.3,0.6-0.3,0.7l0.1,0.6c0.1,1.3-0.7,1.8-3.1,2l-6.7,0.6c-1.8,0.2-1.8-0.6-1.9-1.1
			c-0.1-0.7-0.4-0.9-1-0.8L254.4,826.5z M257.7,801.5c0.4,0,0.7-0.2,0.7-0.7c-0.1-0.7-3-2.3-4.7-2.2c-0.9,0.1-1.7,0.5-2.3,1.1
			c-0.3,0.2-1.1,0.8-1.5,1.1c-0.4,0.3-0.7,0.6-0.6,0.9c0,0.4,0.7,0.5,1,0.4L257.7,801.5z M251.4,814.2c0.1,0.9,0.9,1.6,1.8,1.5
			l4.3-0.4c0.9-0.1,1.6-0.9,1.5-1.8L259,813c-0.1-0.9-0.9-1.6-1.8-1.5c0,0,0,0,0,0l-4.3,0.4c-0.9,0.1-1.6,0.9-1.5,1.8l0,0
			L251.4,814.2z M252.2,780.8c-0.6,0.1-1.8,0.2-1.7,1c0.1,0.6,1.8,2.4,2.9,2.3c1.2-0.1,3.4-2.9,3.4-3.2c0-0.5-1.7-0.5-3.3-0.3
			L252.2,780.8z M254.9,766.5c-0.3,0-0.7,0.2-0.7,0.5c0,0.4,1,0.6,1.6,0.7c1,0.1,2.4,0.3,2.4,1.1c0.1,0.6-0.7,1-1.2,1.2
			c-0.8,0.2-1.5,0.9-1.5,1.7c0,0.4,0.4,0.8,0.9,0.7l0,0l2.7-0.2c0.7-0.1,1.2-0.7,1.1-1.4l0-0.5c0-0.3-0.1-2-0.1-2.3
			c0.1-0.2,0.1-0.4,0-0.6c0-0.5-0.5-1.1-1.6-1.1L254.9,766.5z M270.9,817.2c0.1,1.1,0.4,2.1,1.5,2c0.9-0.4,1.8-0.9,2.6-1.5
			c0.9-0.6,6.7-4.6,6.7-5.4c0-0.3-0.3-0.6-0.7-0.6c0,0,0,0-0.1,0l-0.6,0.1c-2.7,0.2-3.9-1.3-4.1-3.7c-0.2-2.5-0.2-4.9-0.5-7.4
			l-0.1-1.2c0-0.4-0.1-1-0.7-0.9c-0.4,0-0.6,0.4-0.9,1.1c-0.8,1.5-1.8,2.9-3,4.1c-1.2,1-1.2,2.2-1,4L270.9,817.2z M295.5,775.4
			c0-0.6-0.5-1.1-1.1-1.1c0,0,0,0,0,0l-6.9,0.6c-0.6,0.1-1,0.6-1,1.2c0,0,0,0,0,0l0,0.4c0,0.6,0.5,1.1,1.1,1.1c0,0,0,0,0,0l6.9-0.6
			c0.6,0,1-0.5,1-1.1c0,0,0-0.1,0-0.1L295.5,775.4z M296.5,786.9c0-0.6-0.5-1.1-1.1-1.1c0,0,0,0,0,0l-6.9,0.6c-0.6,0.1-1,0.6-1,1.2
			c0,0,0,0,0,0l0,0.4c0,0.6,0.5,1.1,1.1,1.1c0,0,0,0,0,0l6.9-0.6c0.6-0.1,1-0.6,1-1.2c0,0,0,0,0,0L296.5,786.9z M297.5,798.1
			c0-0.6-0.5-1.1-1.1-1.1c0,0,0,0,0,0l-6.9,0.6c-0.6,0.1-1,0.6-1,1.2c0,0,0,0,0,0l0,0.5c0,0.6,0.5,1.1,1.1,1.1c0,0,0,0,0,0l6.9-0.6
			c0.6-0.1,1-0.6,1-1.2c0,0,0,0,0,0L297.5,798.1z"/>
		<path id="パス_36449" class="st0" d="M694.1,769.1c0.6,6.5,1.7,13,2.2,19.4c0.3,3.5-1.2,3.9-6,4.3l-8.1,0.7
			c-4.7,0.4-6.4,0.3-6.7-3.1c-0.6-6.5-0.7-13.1-1.3-19.6l-6.1-69.9c-0.4-4.7-1.1-9.2-1.5-13.9c-0.5-5.5,1.9-7.4,7.1-7.8
			c4.7-0.4,9.4-0.6,14.2-1l60.1-5.2c4.6-0.4,9.1-1.1,13.9-1.5c4.1-0.4,8,0,8.6,6.5c0.4,4.7,0.4,9.3,0.8,14l5.6,63.7
			c0.3,3.7,0.9,7.2,1.2,10.8c0.5,5.2,0.7,9.9-3,14.1c-4.3,4.7-11.8,5.8-17.9,6.3c-5.4,0.5-8.5,0.4-10.6-2.4
			c-1.8-2.3-2.9-7.2-3.1-10.2c-0.4-4.7,0.1-6.7,2.4-6.9c1.2-0.1,4.4,0,6.6-0.2c5.2-0.5,5.2-2.3,4.8-6.9l-1.6-18c-0.2-2-2-3.5-4-3.3
			l-56,4.9c-2.1,0.3-3.5,2.2-3.3,4.2L694.1,769.1z M710.4,698.7c-0.2-2-2-3.5-4-3.3l-14.9,1.3c-2,0.2-3.5,2-3.3,4l1.9,22
			c0.2,2,2,3.5,4,3.3l14.9-1.3c2-0.2,3.5-1.9,3.3-4c0,0,0,0,0,0L710.4,698.7z M731.5,719c0.1,2,1.8,3.5,3.8,3.3c0.1,0,0.1,0,0.2,0
			l14.5-1.3c2-0.2,3.5-2,3.3-4l-1.9-22c-0.2-2-2-3.5-4-3.3L733,693c-2,0.2-3.5,1.9-3.3,4c0,0,0,0,0,0L731.5,719z"/>
		<path id="パス_36450" class="st0" d="M343.5,731.1l0-0.5c-7.9-5.2-16.9-17-18.3-33.2c-2.3-26.7,13.4-51.9,45.3-54.7
			c31.9-2.8,51.8,19.3,54.1,46c1.4,16.3-5.4,29.4-12.2,35.9l0,0.5c10.6,6.5,20.6,19.5,22.3,38.8c2.8,31.8-18.1,54.6-48.6,57.3
			s-55-16.2-57.8-48C326.6,753.9,334.2,739.4,343.5,731.1 M383.5,791.2c12.7-1.1,20.4-11.8,19.2-26c-1.2-14-10.6-23.2-23.4-22
			c-12.7,1.1-20.4,11.8-19.2,25.8C361.4,783.1,370.8,792.3,383.5,791.2 M393,691.5c-1-11.2-8.9-19.7-19.8-18.8
			c-10.9,0.9-17.2,10.7-16.3,21.9c1,10.9,8.9,19.5,19.8,18.5C387.6,712.2,393.9,702.4,393,691.5"/>
		<path id="パス_36451" class="st0" d="M454.6,721.5l0-0.5c-7.9-5.2-16.9-17-18.3-33.2c-2.3-26.7,13.4-51.9,45.3-54.7
			c31.9-2.8,51.8,19.3,54.1,46c1.4,16.3-5.4,29.4-12.2,35.9l0,0.5c10.6,6.5,20.6,19.5,22.3,38.8c2.8,31.8-18.1,54.6-48.6,57.3
			c-30.5,2.7-55-16.2-57.8-48C437.7,744.2,445.3,729.7,454.6,721.5 M494.6,781.5c12.7-1.1,20.4-11.8,19.2-26
			c-1.2-14-10.6-23.2-23.4-22c-12.7,1.1-20.4,11.8-19.2,25.8C472.4,773.4,481.8,782.6,494.6,781.5 M504,681.8
			c-1-11.2-8.9-19.7-19.8-18.8c-10.9,0.9-17.2,10.7-16.3,21.9c1,10.9,8.9,19.5,19.8,18.5C498.6,702.5,505,692.7,504,681.8"/>
		<path id="パス_36452" class="st0" d="M547.7,717.2c-3.4-38.4-2.9-46.4-1.2-54.2c4.5-22.7,19.6-37.3,44.3-39.5
			c24.8-2.2,42.1,9.7,50.5,31.2c3,7.4,4.8,15.2,8.2,53.6s2.9,46.4,1.2,54.2c-4.5,22.7-19.6,37.3-44.3,39.5
			c-24.8,2.2-42.1-9.7-50.5-31.2C552.9,763.3,551,755.6,547.7,717.2 M603.8,772c8.1-0.7,13.3-5,14.9-13.1c1-4.7,1-9.8-2.3-47.7
			c-3.3-37.9-4.2-42.9-6-47.4c-3-7.7-8.9-11-17-10.3c-8.3,0.7-13.3,5-14.9,13.1c-1,4.7-1,9.8,2.3,47.7c3.3,37.9,4.2,42.9,6,47.4
			C589.8,769.3,595.4,772.7,603.8,772"/>
	</g>
	<g id="グループ_5052" transform="translate(0 0)">
		<path id="パス_36453" class="st0" d="M651,629.6l-0.5-0.4l4.4-5.1l-5.1-4.4l0.4-0.5l5.1,4.4l4.4-5.1l0.5,0.4l-4.4,5.1l5.1,4.4
			l-0.4,0.5l-5.1-4.4L651,629.6z M652.6,624.3c0.1,0.7-0.5,1.3-1.1,1.3s-1.3-0.5-1.3-1.1c-0.1-0.7,0.5-1.3,1.1-1.3c0,0,0,0,0,0
			C652,623.1,652.5,623.6,652.6,624.3 M656.3,620c0,0.7-0.5,1.2-1.1,1.3c-0.7,0-1.2-0.5-1.3-1.1c0-0.7,0.5-1.2,1.1-1.3
			C655.7,618.8,656.2,619.3,656.3,620C656.3,620,656.3,620,656.3,620 M656.8,627.9c0,0.7-0.5,1.2-1.1,1.3c-0.7,0-1.2-0.5-1.3-1.1
			c0-0.7,0.5-1.2,1.1-1.3C656.2,626.8,656.8,627.3,656.8,627.9C656.8,627.9,656.8,627.9,656.8,627.9 M660.6,623.7
			c0.1,0.7-0.4,1.3-1.1,1.3s-1.3-0.4-1.3-1.1c-0.1-0.7,0.4-1.3,1.1-1.3c0,0,0,0,0,0C659.9,622.5,660.5,623,660.6,623.7"/>
		<path id="パス_36454" class="st0" d="M667.7,625.3c-0.4,0-0.6,0.1-0.6,0.5c-0.1,1.3-0.5,2.5-1.1,3.6c-0.1,0.2-0.3,0.5-0.6,0.6
			c-0.4,0-1.7-0.5-1.8-0.9c1-1.8,1.4-3.8,1.3-5.8l-0.1-1.2c0-0.4-0.1-0.8-0.1-1.3c0-0.6,0.3-0.7,0.8-0.7c0.5,0,1,0,1.6-0.1l5.7-0.4
			c0.5,0,0.9-0.1,1.4-0.1c0.5,0,0.8,0.1,0.9,0.6c0,0.4,0,0.8,0.1,1.3l0.1,2.1c0,0.6,0.1,1.2,0.2,1.7c0,0.3-0.1,0.4-0.6,0.4l-0.9,0.1
			c-0.4,0-0.6,0-0.7-0.3c0-0.2-0.2-0.4-0.4-0.4c0,0,0,0-0.1,0L667.7,625.3z M673.6,616.6c0.6,0,1.3-0.1,1.9-0.2
			c0.4,0,0.4,0.1,0.4,0.6l0.1,0.8c0,0.4,0,0.6-0.3,0.6c-0.6,0-1.3,0.1-1.9,0.1l-8,0.6c-0.6,0-1.3,0.1-1.9,0.2
			c-0.3,0-0.4-0.1-0.4-0.5l-0.1-0.9c0-0.4,0-0.6,0.3-0.6c0.6,0,1.3,0,1.9-0.1L673.6,616.6z M672.7,623.1c0.2,0,0.4-0.2,0.4-0.4
			l-0.1-0.7c0-0.2-0.2-0.4-0.4-0.4l-5.1,0.4c-0.2,0-0.4,0.2-0.4,0.4l0,0.7c0,0.3,0.2,0.5,0.5,0.4L672.7,623.1z"/>
		<path id="パス_36455" class="st0" d="M684.3,619.6c-0.5,0-0.9,0.1-1.4,0.1c-0.3,0-0.3-0.1-0.4-0.5l0-0.4c0-0.4,0-0.5,0.3-0.5
			c0.5,0,1,0,1.4-0.1l0.8-0.1c0.1,0,0.2-0.1,0.2-0.2c0,0,0,0,0,0l0-0.1c0-0.1-0.1-0.2-0.2-0.1l-0.2,0c-0.4,0-0.8,0.1-1.2,0.1
			c-0.3,0-0.3-0.1-0.4-0.5l0-0.6c0-0.3,0-0.4,0.3-0.4c0.4,0,0.8,0,1.1,0c0.2,0,0.4-0.2,0.4-0.4c0,0,0-0.3-0.1-0.4
			c0-0.2,0.1-0.2,0.3-0.2c0.5,0,1.4-0.1,1.7-0.1c0.2,0,0.5,0,0.5,0.2c0,0.1-0.1,0.2-0.1,0.2c-0.1,0.1-0.1,0.1-0.1,0.2
			c0,0.2,0.1,0.3,0.4,0.3l0.7,0c0.4,0,0.7-0.1,1.1-0.1c0.4,0,0.7,0,0.8,0.5c0,0.3,0,0.6,0,1c0,0.2,0.1,0.3,0.3,0.3l0.1,0
			c0.3,0,0.3,0.1,0.4,0.4l0,0.5c0,0.4,0,0.5-0.3,0.5l-0.1,0c-0.2,0-0.3,0.2-0.3,0.3c0,0.3,0.1,0.7,0.1,1c0,0.5-0.2,0.6-0.7,0.6
			c-0.4,0-0.7,0-1.1,0l-0.9,0.1c-0.1,0-0.2,0.1-0.2,0.2l0,0c0,0.1,0.1,0.2,0.2,0.2c0,0,0,0,0,0l1-0.1c0.5,0,1-0.1,1.4-0.1
			c0.3,0,0.3,0.1,0.4,0.5l0,0.5c0,0.4,0,0.5-0.3,0.5c-0.5,0-1,0-1.4,0.1l-1,0.1c-0.1,0-0.2,0.1-0.2,0.2l0,0c0,0.1,0.1,0.2,0.2,0.2
			c0,0,0,0,0,0l1.4-0.1c0.5,0,1-0.1,1.4-0.1c0.3,0,0.3,0.1,0.4,0.4l0,0.5c0,0.3,0,0.5-0.3,0.5c-0.5,0-1,0-1.4,0.1l-1.1,0.1
			c-0.5,0-0.5,0.3-0.4,0.7c0,0.4,0.1,0.6,0.6,0.6c0.9-0.1,1.8-0.2,2.5-0.3c0.5,0,0.6,0.2,0.6,0.6c0.1,0.4,0,0.9-0.3,1.3
			c-0.2,0.2-0.4,0.3-0.6,0.2l-3.7,0.3c-2.2,0.2-3.9,0.2-5.3-0.5c-0.1-0.1-0.3-0.1-0.4-0.1c-0.2,0-0.4,0.1-0.5,0.3
			c-0.2,0.2-0.9,1-1.2,1c-0.4,0-1.4-1-1.4-1.4c0-0.1,0.1-0.3,0.4-0.5s0.9-0.8,0.9-1c0-0.2-0.1-0.3-0.2-0.4c-0.3-0.5-0.6-1-0.8-1.5
			c-0.1-0.3-0.2-0.6-0.3-0.9c0-0.4,1.2-0.6,1.5-0.7c0.3,0,0.3,0.1,0.4,0.4c0.1,0.3,0.2,0.6,0.4,0.8c0,0.1,0.1,0.1,0.1,0.1
			c0.1,0,0.2-0.3,0.3-0.8c0.1-0.4,0.1-0.7,0.1-1.1c0-0.1-0.1-0.1-0.2-0.1l-0.2,0c-0.2,0-0.3,0.1-0.4,0.2c-0.1,0.1-0.2,0.2-0.4,0.2
			c-0.2,0-1.6-0.1-1.7-0.5c0-0.1,0.4-0.9,0.5-1.1c0.4-0.8,0.8-1.6,1-2.5c0-0.2-0.2-0.2-0.5-0.1l-0.3,0c-0.2,0-0.5,0.1-0.7,0.1
			c-0.3,0-0.3-0.2-0.4-0.5l-0.1-0.8c0-0.5,0-0.6,0.3-0.6c0.1,0,0.4,0,0.7,0l2.3-0.2c0.5,0,0.6,0,1.1,0.4c0.1,0.1,0.2,0.2,0.2,0.4
			c-0.2,0.9-0.5,1.8-0.9,2.6c0,0.1-0.1,0.2-0.1,0.3c0,0.1,0.2,0.1,0.3,0.1l0.1,0c0.3,0,0.6,0.1,0.8,0.3c0.3,0.2,0.5,0.3,0.5,0.7
			c0,0.1,0,0.2,0,0.3c0,0.6,0,1.2-0.1,1.8c-0.1,0.9-0.3,1.7-0.6,2.6c0,0.1,0,0.1,0,0.2c0,0.2,0.2,0.3,0.5,0.4
			c0.8,0.3,1.7,0.4,2.5,0.3c0.5,0,0.5-0.3,0.4-0.7c0-0.4-0.1-0.6-0.5-0.5l-0.3,0c-0.5,0-0.9,0.1-1.4,0.1c-0.3,0-0.3-0.1-0.4-0.5
			l0-0.5c0-0.3,0-0.5,0.3-0.5c0.5,0,1-0.1,1.4-0.1l0.6,0c0.1,0,0.2-0.1,0.2-0.2c0,0,0,0,0,0l0-0.1c0-0.1-0.1-0.2-0.2-0.1l-0.2,0
			c-0.5,0-0.9,0.1-1.4,0.1c-0.3,0-0.3-0.1-0.4-0.4l0-0.6c0-0.3,0-0.5,0.3-0.5c0.5,0,1,0,1.4-0.1l0.2,0c0.1,0,0.2-0.1,0.1-0.2l0-0.1
			c0-0.1-0.1-0.2-0.2-0.1l-0.2,0c-0.4,0-0.8,0.1-1.2,0.1c-0.3,0-0.3-0.1-0.3-0.4l0-0.6c0-0.3,0-0.5,0.3-0.5c0.4,0,0.8,0,1.2-0.1
			l0.2,0c0.1,0,0.2-0.1,0.1-0.2l0-0.1c0-0.1-0.1-0.2-0.2-0.2c0,0,0,0,0,0L684.3,619.6z M688.1,617.9c0.1,0,0.2-0.1,0.2-0.2l0-0.1
			c0-0.1-0.1-0.2-0.2-0.2c0,0,0,0,0,0l-0.6,0c-0.1,0-0.2,0.1-0.2,0.2c0,0,0,0,0,0l0,0.1c0,0.1,0.1,0.2,0.2,0.2L688.1,617.9z
			 M687.6,619.4c-0.1,0-0.2,0.1-0.2,0.2c0,0,0,0,0,0l0,0.1c0,0.1,0.1,0.2,0.2,0.2l0.6,0c0.1,0,0.2-0.1,0.2-0.2l0-0.1
			c0-0.1-0.1-0.2-0.2-0.2c0,0,0,0,0,0L687.6,619.4z"/>
		<path id="パス_36456" class="st0" d="M694.2,616.9c0.1-0.3,0.1-0.6,0.1-0.8c0-0.3,0-0.4,0.2-0.4c0.8,0.2,1.5,0.4,2.2,0.6
			c0.3,0.1,0.4,0.2,0.4,0.3c0,0.1,0,0.1-0.1,0.1c-0.3,0.1-0.4,0.4-0.5,0.6c-0.5,1.4-0.7,2.8-0.6,4.2c0.1,0.8,0.1,1.2,0.3,1.2
			c0.1,0,0.2-0.1,0.2-0.3c0.1-0.2,0.2-0.3,0.3-0.3c0.2,0,0.8,0.4,0.8,0.7c-0.2,0.7-0.4,1.4-0.5,2.2c0,0.1,0.1,0.5,0.1,0.7
			c0,0.1,0.1,0.3,0.1,0.4c0,0.5-1,1-1.5,1.1c-0.3,0-0.4-0.2-0.7-0.7c-0.8-1.4-1.2-3-1.3-4.6C693.7,620.2,693.8,618.6,694.2,616.9
			 M698.8,622.9c0.5,0.6,1.3,1,2.1,0.8c1.1-0.1,2.1-0.3,3.2-0.7c0.1,0,0.2-0.1,0.3-0.1c0.2,0,0.3,0.2,0.3,0.3c0.1,0.5,0.1,1,0.2,1.5
			c0,0.2,0,0.3-0.2,0.4c-1.2,0.4-2.4,0.6-3.6,0.7c-2.4,0.2-3.5-0.9-3.5-1.3c0-0.3,0.6-1.8,0.9-1.8
			C698.7,622.8,698.7,622.9,698.8,622.9 M698.3,616.6c0.2,0,0.3,0,0.5,0c0.6,0.1,1.3,0.1,1.9,0.1c0.7-0.1,1.4-0.2,2.1-0.4
			c0.1,0,0.2-0.1,0.3-0.1c0.3,0,0.4,0.3,0.4,0.5c0.1,0.4,0.1,0.8,0.2,1.2c0,0.4,0,0.5-0.4,0.5c-0.8,0.2-1.6,0.3-2.4,0.3
			c-0.9,0.1-1.8,0-2.8-0.1c-0.1-0.1-0.2-0.5-0.2-0.7C697.9,616.9,698,616.6,698.3,616.6"/>
		<path id="パス_36457" class="st0" d="M712.9,624.5c0.1,0.8-1.1,1.4-1.6,1.4c-0.3,0-0.4-0.2-0.6-0.5c-0.3-0.5-1-1.1-1.3-1.1
			c-0.2,0-0.4,0.1-0.5,0.3c-0.1,0.1-0.3,0.3-0.4,0.3c-0.3,0-1.3-1.5-1.3-1.9c0-0.2,0.1-0.2,0.3-0.3c0.4-0.2,2.6-1.8,2.8-2
			c0.1-0.2,0.1-0.4,0.1-0.5l0-0.6c0-0.2-0.1-0.3-0.3-0.3c0,0,0,0,0,0c-0.1,0-0.4,0.1-0.5,0.1c-0.3,0.1-0.5,0.1-0.8,0.2
			c-0.3,0-0.6,0-0.7-1.5c0-0.6,0-0.6,0.5-0.7c0.4,0,0.8-0.1,1.3-0.2c0.2,0,0.3-0.1,0.4-0.2c0.1-0.4,0.1-0.9,0-1.3l0-0.2
			c0-0.3-0.1-0.6-0.1-0.7c0-0.1,0-0.2,0.2-0.2c0,0,0,0,0,0c0.3,0,1.8,0.2,2.2,0.2c0.1,0,0.3,0.1,0.3,0.2c0,0.1-0.1,0.1-0.1,0.2
			c-0.2,0.1-0.3,0.3-0.3,0.5c0,0.3,0,0.5,0,0.6c0,0.2,0.1,0.3,0.3,0.3c0.2,0,0.3-0.1,0.5-0.2c0.1-0.1,0.3-0.1,0.4-0.1
			c0.2,0,0.4,0.3,0.5,0.9c0.1,0.3,0.1,0.6,0.1,0.9c0,0.4-0.1,0.4-1.3,0.7c-0.2,0.1-0.4,0.2-0.4,0.5c0,0.2,0.1,0.4,0.3,0.4
			c0.1,0,0.2-0.1,0.3-0.1c0.6-0.3,1.3-0.4,1.9-0.5c1.8-0.1,3.6,0.8,3.7,2.7c0.1,0.9-0.3,1.8-1,2.4c-0.9,0.6-2,1-3.1,1
			c-0.4,0-0.7,0-0.8-0.2c-0.2-0.4-0.3-0.9-0.3-1.4c0-0.3,0-0.6,0.3-0.6c0.1,0,0.4,0,0.5,0c0.2,0,0.5,0,0.6,0c0.6,0,1.7-0.3,1.6-1.1
			c-0.1-0.7-0.7-1.1-1.4-1c0,0,0,0,0,0c-0.8,0.1-1.5,0.3-2.2,0.8c-0.1,0.1-0.2,0.3-0.2,0.5c0,0.2,0.1,0.6,0.1,0.8
			C712.7,623.2,712.9,624.4,712.9,624.5 M710.6,623.6c0-0.2,0-0.4-0.2-0.4c-0.1,0-0.2,0.1-0.3,0.2c-0.1,0-0.1,0.1-0.1,0.2
			c0,0.1,0.1,0.2,0.3,0.3c0.1,0,0.1,0.1,0.2,0.1c0.1,0,0.1-0.1,0.1-0.2L710.6,623.6z M717.7,616.7c0.4,0.3,0.9,0.7,1.2,0.9
			c0.1,0.1,0.2,0.2,0.2,0.3c0,0.4-0.8,1.4-1.1,1.5c-0.1,0-0.2-0.1-0.4-0.2c-0.7-0.5-1.4-1.1-2.2-1.5c-0.2-0.1-0.3-0.2-0.3-0.4
			c0-0.2,0.4-0.7,0.5-0.9c0,0,0.1-0.1,0.1-0.1c0.2-0.2,0.4-0.5,0.5-0.5C716.8,616,717.3,616.3,717.7,616.7"/>
		<path id="パス_36458" class="st0" d="M724.9,623.4c0,0.7,0.1,1.3,0.2,2c0,0.4-0.1,0.5-0.8,0.5l-0.4,0c-0.7,0.1-0.9-0.1-0.9-0.4
			c0-0.7-0.1-1.3-0.1-1.9l-0.3-3.8c0-0.2,0-0.3-0.2-0.3c-0.1,0-0.1,0.1-0.2,0.1c-0.1,0.1-0.2,0.2-0.4,0.3c-0.4,0-1.4-1.3-1.4-1.5
			c0-0.1,0.1-0.3,0.2-0.4c1.1-1.4,2-3.1,2.5-4.9c0.1-0.3,0.1-0.4,0.3-0.5c0.3,0,0.6,0.1,0.8,0.2c0.1,0,0.3,0.1,0.3,0.1
			c0,0,0.1,0,0.2,0c0.3,0.1,0.8,0.3,0.9,0.4c0,0.1-0.1,0.2-0.2,0.2c-0.1,0-0.2,0.1-0.7,1.4c-0.1,0.3-0.4,0.9-0.6,1.2
			c0,0.1-0.1,0.1-0.1,0.2c0,0.1,0.2,0.2,0.3,0.2c0.1,0,0.2,0,0.2,0.2c0,0.1-0.1,0.2-0.2,0.3c-0.1,0.1-0.1,0.2-0.1,0.3
			c0,0.1,0,0.3,0,0.4L724.9,623.4z M730.9,616.9c-0.2,0-0.4,0.2-0.4,0.4c0,0,0,0,0,0l0.1,1.1c0,0.3,0.2,0.5,0.5,0.5l0.2,0
			c0.5,0,1-0.1,1.5-0.1c0.4,0,0.5,0.1,0.5,0.6l0.1,0.7c0,0.4,0,0.6-0.4,0.6c-0.5,0-1,0-1.5,0.1l-0.2,0c-0.2,0-0.4,0.2-0.4,0.4
			c0,0,0,0.1,0,0.1l0.1,1.3c0,0.2,0.2,0.4,0.4,0.4l0.9-0.1c0.5,0,1.1-0.1,1.6-0.2c0.4,0,0.4,0.1,0.5,0.6l0.1,0.8
			c0,0.5,0,0.6-0.4,0.7c-0.5,0-1.1,0-1.6,0.1l-4.6,0.3c-0.5,0-1.1,0.1-1.6,0.2c-0.4,0-0.4-0.2-0.5-0.6l-0.1-0.8c0-0.4,0-0.6,0.4-0.6
			c0.6,0,1.1,0,1.7-0.1l0.8-0.1c0.2,0,0.4-0.2,0.4-0.4l-0.1-1.3c0-0.2-0.2-0.5-0.4-0.5c0,0-0.1,0-0.1,0l-0.2,0
			c-0.4,0-0.8,0.1-1.2,0.1c-0.4,0-0.5-0.1-0.5-0.6l0-0.7c0-0.5,0-0.6,0.4-0.6c0.5,0,1,0,1.5-0.1c0.3,0,0.4-0.2,0.4-0.5l-0.1-1.1
			c0-0.4-0.2-0.5-0.6-0.4l-0.3,0c-0.5,0-1,0.1-1.5,0.1c-0.4,0-0.5-0.1-0.5-0.6l-0.1-0.7c0-0.5,0-0.6,0.4-0.7c0.5,0,1,0,1.5-0.1
			l0.9-0.1c0.2,0,0.4,0,0.4-0.2c0-0.1-0.1-0.1-0.2-0.2c-0.4-0.3-0.7-0.6-1.1-0.8c-0.1-0.1-0.2-0.2-0.2-0.3c0.3-0.6,0.8-1,1.3-1.3
			c0.1,0,0.2,0,0.3,0.1c0.4,0.3,0.7,0.5,1.1,0.8c0.2,0.2,1,0.7,1,1c0,0.2-0.2,0.4-0.4,0.5c-0.1,0.1-0.1,0.1-0.1,0.1
			c0,0.1,0.1,0.1,0.3,0.1l0.8-0.1c0.5,0,1-0.1,1.5-0.1c0.4,0,0.5,0.1,0.5,0.6l0.1,0.7c0,0.5,0,0.7-0.4,0.7c-0.5,0-1,0-1.5,0.1
			L730.9,616.9z"/>
		<path id="パス_36459" class="st0" d="M742.3,612.1c0.1,0,0.2,0,0.2,0.1c0,0.1,0,0.2-0.1,0.3c-0.2,0.3-0.2,0.6-0.2,0.9
			c0,0.2,0.1,0.3,0.3,0.3c0,0,0,0,0,0c0.3,0,1.7-0.4,2-0.6c0.2-0.1,0.4-0.1,0.6-0.2c0.2,0,0.3,0.3,0.3,0.4c0.1,0.4,0.2,0.8,0.2,1.2
			c0,0.4-0.1,0.4-0.6,0.5c-0.7,0.2-1.5,0.4-2.2,0.5c-0.3,0.1-0.5,0.1-0.5,0.4c0,0.2,0.1,0.4,0.3,0.3c0.5-0.1,1-0.2,1.5-0.4
			c0.1,0,0.2-0.1,0.4-0.1c0.1,0,0.2,0.1,0.3,0.3c0.1,0.5,0.2,0.9,0.2,1.4c0,0.5-0.4,0.6-1.7,0.8c-0.6,0.1-0.7,0.2-0.7,0.4
			c0.1,0.8,0.1,0.9,0.5,1c0.6,0.2,2.6,0.9,2.7,1.5c0,0.3-0.5,1.5-1,1.5c-0.4-0.1-0.8-0.3-1.1-0.6c-0.2-0.2-0.4-0.3-0.7-0.3
			c-0.2,0-0.3,0.2-0.3,0.3c-0.5,1.1-1.5,1.7-2.7,1.7c-0.6,0.1-1.3,0-1.8-0.3c-0.6-0.3-1-1-1-1.7c0-0.6,0.2-1.3,0.7-1.7
			c0.6-0.5,1.4-0.7,2.2-0.8l0.2,0c0.2,0,0.3-0.1,0.3-0.3c0,0,0,0,0-0.1c0-0.2-0.1-0.4-0.3-0.4c0,0,0,0,0,0c-0.3,0-1.2,0.2-1.8,0.2
			c-0.6,0-0.7,0-0.8-0.4c-0.2-0.4-0.3-0.9-0.3-1.3c0-0.2,0-0.4,0.3-0.4c0.4,0,1.1,0,1.8-0.1l0.4,0c0.4,0,0.6-0.1,0.6-0.4
			c0-0.2-0.1-0.3-0.3-0.3c0,0,0,0,0,0c-0.5,0-1.4,0.2-2.1,0.2l-0.4,0c-0.6,0-1.1,0.1-1.2-0.1c-0.2-0.5-0.3-1-0.3-1.5
			c0-0.2,0-0.5,0.3-0.5s1.8,0,2.8-0.1l0.3,0c0.4,0,0.6-0.1,0.6-0.4c0-0.1-0.1-0.9-0.2-1.2c0-0.1-0.1-0.3-0.1-0.4
			c0-0.2,0.1-0.2,0.3-0.2C740.4,611.9,741.9,612,742.3,612.1 M739.3,622c0,0.4,0.6,0.3,0.8,0.3c0.4,0,0.9-0.2,0.8-0.7
			c0-0.2-0.2-0.2-0.5-0.2C740.2,621.5,739.3,621.6,739.3,622"/>
		<path id="パス_36460" class="st0" d="M751.8,613.5c0.1,0,0.3,0.1,0.3,0.2c0,0.1,0,0.1-0.1,0.2c-0.2,0.2-0.2,0.4-0.2,0.7
			c-0.1,0.7-0.1,1.4,0,2.1c0,1,0.3,1.9,0.7,2.8c0.1,0.2,0.4,0.7,0.7,0.7c0.3,0,0.6-0.6,0.7-0.9c0.1-0.2,0.2-0.4,0.4-0.4
			c0.4,0,1.6,0.7,1.6,1.1c0,0.3-0.6,1.2-0.8,1.5c-0.4,0.6-1,1.1-1.8,1.2c-1,0-1.9-0.5-2.5-1.3c-1.2-1.4-1.4-3.6-1.6-5.4
			c0-0.3-0.1-2-0.1-2.3c0-0.1,0.1-0.2,0.2-0.2c0,0,0,0,0,0C749.7,613.3,751.4,613.5,751.8,613.5 M757.1,612.7c1,0.3,1.8,1,2.3,1.8
			c0.6,0.9,1.1,1.9,1.3,2.9c0,0.2,0.1,0.6,0.1,0.8c0,0.3,0,0.4-0.3,0.6c-0.4,0.2-0.9,0.3-1.4,0.4c-0.5,0-0.6-0.2-0.7-0.7
			c-0.1-1.6-1-3.1-2.4-4c-0.1,0-0.2-0.1-0.2-0.2C755.9,613.8,756.7,612.7,757.1,612.7"/>
		<path id="パス_36461" class="st0" d="M674.9,636.6c1.1,0.9,1.7,2.2,1.8,3.6c0.1,2-0.9,4-2.6,5.1c-0.5,0.4-1.1,0.6-1.7,0.8
			c-0.5,0-1.4-1.3-1.4-1.7c0-0.1,0.1-0.2,0.5-0.3c1.7-0.6,3-1.7,2.8-3.6c0-1.5-1-2.7-2.4-3c-0.2,0-0.3,0.3-0.3,0.5
			c0.1,2.2-0.5,4.4-1.7,6.3c-0.4,0.7-1.2,1.2-2,1.4c-1,0-1.9-0.5-2.3-1.3c-0.4-0.7-0.6-1.4-0.6-2.2c-0.3-3.4,2.2-6.4,5.6-6.7
			c0,0,0.1,0,0.1,0C672.3,635.3,673.8,635.7,674.9,636.6 M667.3,642c0,0.4,0.2,1.4,0.7,1.4c0.4,0,0.8-1,0.9-1.3
			c0.4-1.2,0.6-2.5,0.7-3.8c0-0.1-0.1-0.2-0.2-0.2C667.9,638.8,667.1,640.3,667.3,642"/>
		<path id="パス_36462" class="st0" d="M685.2,638c0,0.4,0.2,0.5,0.6,0.4l2.6-0.2c0.4,0,0.8-0.1,1.2-0.1c0.9-0.1,0.9,0.5,1,1
			c0.1,1.7,0,3.5-0.5,5.2c-0.2,0.6-0.5,1.1-1,1.4c-0.4,0.2-0.8,0.3-1.2,0.3c-1.4,0.1-1.9,0.1-2-1.3c0-0.3,0-0.7,0.3-0.8
			c0.2,0,0.4,0,0.6,0c0.2,0,0.3,0,0.5,0c0.4,0,0.8-0.3,0.9-0.6c0.2-0.8,0.3-1.7,0.3-2.6c0-0.5-0.2-0.5-1-0.4l-1.9,0.1
			c-0.4,0-0.5,0.2-0.5,0.5c-0.1,0.4-0.2,0.8-0.4,1.2c-0.8,1.7-2.1,3.1-3.6,4.2c-0.1,0.1-0.3,0.2-0.4,0.2c-0.7-0.1-1.2-0.6-1.4-1.3
			c0-0.2,0.2-0.4,0.3-0.5c0.9-0.6,1.7-1.4,2.4-2.3c0.6-1,1-2.1,1.1-3.3c0-0.5,0-1,0-1.5c0-0.4-0.1-0.6-0.5-0.5l-1.9,0.1
			c-0.6,0-1.2,0.1-1.8,0.2c-0.4,0-0.4-0.1-0.4-0.6l-0.1-0.9c0-0.4,0-0.6,0.4-0.6c0.6,0,1.2,0,1.7-0.1l2.7-0.2c0.4,0,0.4-0.3,0.4-0.6
			c0-0.3-0.1-0.6-0.1-1c0,0,0-0.1,0-0.1c0-0.2,0.1-0.2,0.3-0.2c0.2,0,1.4,0,1.7,0c0.1,0,0.1,0,0.3,0c0.3,0,0.4,0,0.4,0.2
			c0,0.1-0.1,0.2-0.2,0.3c-0.2,0.1-0.2,0.1-0.1,0.8c0,0.3,0.2,0.5,0.5,0.5l2.8-0.2c0.6,0,1.2-0.1,1.7-0.2c0.4,0,0.4,0.1,0.4,0.6
			l0.1,0.9c0,0.4,0,0.6-0.3,0.6c-0.6,0-1.2,0.1-1.8,0.1l-3.3,0.2c-0.3,0-0.3,0.1-0.4,0.3c0,0.1-0.1,0.2-0.2,0.2
			c-0.1,0.1-0.1,0.2-0.1,0.3L685.2,638z"/>
		<path id="パス_36463" class="st0" d="M697,633.1c0-0.1,0-0.3,0.2-0.3c0.1,0,1.8,0.3,2.1,0.3c0.1,0,0.4,0.1,0.4,0.2
			c0,0.1-0.1,0.2-0.2,0.2c-0.2,0.1-0.3,0.5-0.3,0.9l0,0.2c0,0.1,0,0.3,0,0.3c0,0.3,0.3,0.3,0.5,0.3c0.4,0,0.8,0.1,1.2,0.2
			c0.9,0.4,1.5,1.4,1.4,2.4c0.1,1.6-0.1,3.1-0.6,4.6c-0.6,1.1-1.7,1.9-3,1.9c-0.4,0-0.6,0-0.8-0.4c-0.2-0.5-0.3-0.9-0.4-1.4
			c0-0.2,0-0.4,0.3-0.4s0.4,0,0.6,0c0.9-0.1,1.1-0.1,1.3-0.7c0.4-1.1,0.5-2.2,0.4-3.3c0-0.7-0.2-0.9-0.7-0.8c-0.5,0-0.6,0.1-0.7,0.6
			c-0.4,1.8-1,3.4-1.9,5c-0.3,0.5-0.6,1-0.9,1.5c-0.1,0.1-0.1,0.1-0.2,0.1c-0.3,0-1.8-0.7-1.8-1.1c0-0.1,0.1-0.3,0.3-0.6
			c1-1.2,1.8-2.7,2.3-4.2c0-0.1,0-0.2,0.1-0.3c0-0.1-0.1-0.2-0.2-0.2c0,0,0,0-0.1,0c-0.4,0.1-0.8,0.3-1.2,0.5
			c-0.1,0.1-0.2,0.1-0.3,0.1c-0.2,0-0.4-0.5-0.6-1.1c-0.1-0.3-0.2-0.7-0.3-1c0-0.2,0.1-0.2,0.5-0.3c0.7-0.1,1.5-0.3,2.2-0.5
			c0.4-0.1,0.5-0.2,0.5-0.6c0-0.7,0-1.4,0-2L697,633.1z M703.1,634.2c0.5,0.4,0.9,0.9,1.3,1.4c0.5,0.6,1,1.2,1.3,1.9
			c0,0.5-1.2,1.3-1.7,1.4c-0.2,0-0.2-0.1-0.4-0.4c-0.6-1.2-1.3-2.2-2.3-3.1c-0.1-0.1-0.1-0.1-0.2-0.3c0-0.3,1.1-1.1,1.4-1.2
			C702.8,633.9,702.9,634,703.1,634.2 M704.4,632.9c0.4,0.4,0.7,0.7,0.7,0.8c0,0.3-0.6,0.9-0.8,0.9c-0.1,0-0.2-0.1-0.2-0.2
			c-0.4-0.4-0.7-0.7-1.1-1.1c-0.1-0.1-0.2-0.1-0.2-0.2c0-0.2,0.7-0.8,0.9-0.8C703.7,632.3,704.1,632.6,704.4,632.9 M705.4,631.3
			c0.2,0.2,1.1,0.9,1.1,1.1c0,0.3-0.6,0.9-0.8,0.9c-0.1,0-0.2-0.1-0.2-0.2c-0.4-0.4-0.7-0.7-1.1-1.1c-0.1-0.1-0.2-0.1-0.2-0.2
			c0-0.2,0.7-0.8,0.9-0.8C705.1,631.1,705.3,631.3,705.4,631.3"/>
		<path id="パス_36464" class="st0" d="M709.7,635.7c-0.5,0-0.9,0.1-1.4,0.1c-0.5,0-0.5-0.1-0.6-1l0-0.3c0-0.5,0-0.7,0.5-0.7
			c0.3,0,0.6,0,0.8,0c0.3,0,0.4-0.2,0.4-0.5l0-0.5c0-0.3-0.1-0.7-0.1-1c0,0,0-0.1,0-0.1c0-0.2,0.1-0.2,0.3-0.2c0.1,0,0.3,0,0.4,0
			c0.5,0,1.1,0,1.6,0c0.1,0,0.3,0,0.3,0.2c0,0.1,0,0.1-0.1,0.2c-0.1,0.1-0.1,0.4-0.1,0.7l0,0.5c0,0.3,0.2,0.5,0.4,0.4
			c0.3,0,0.7-0.1,1-0.1c0.5,0,0.5,0.2,0.5,0.7l0,0.7c0,0.5,0,0.7-0.4,0.7c-0.3,0-0.6,0-0.9,0c-0.1,0-0.2,0-0.2,0.1
			c0,0.1,0.2,0.1,0.4,0.2c0.5,0.1,0.7,0.2,0.8,0.4c0,0.1-0.1,0.2-0.2,0.2c-0.2,0.1-0.2,0.2-0.2,0.5c-0.1,0.5-0.1,1-0.3,1.5
			c0,0.2-0.1,0.3-0.1,0.5c0,0.3,0.3,0.5,0.5,0.7c0.5,0.5,1,1.1,1.4,1.7c0,0.3-0.9,1.4-1.2,1.4c-0.1,0-0.2-0.1-0.3-0.2
			c-0.2-0.2-1-1.2-1.2-1.2c-0.1,0-0.2,0.2-0.3,0.3c-0.2,0.5-1.5,2.5-1.9,2.6c-0.4,0-1.4-0.9-1.4-1.2c0-0.1,0.1-0.2,0.2-0.4
			c0.4-0.4,1.7-2.3,1.6-2.8c0-0.2-0.2-0.4-0.3-0.5c-0.5-0.4-1-0.7-1.5-1.1c-0.2-0.1-0.3-0.2-0.3-0.3c0-0.3,0.8-1.4,1.1-1.4
			c0.5,0.2,0.9,0.5,1.3,0.8c0.1,0.1,0.2,0.1,0.3,0.2c0.2,0,0.2-0.1,0.3-0.8c0-0.2,0.1-0.4,0.1-0.6c0-0.3-0.2-0.3-0.5-0.3
			L709.7,635.7z M716.4,638c0.2,0.4,0.4,0.9,0.6,1.4c0,0.3-0.2,0.5-0.6,0.7c-0.3,0.1-0.6,0.3-0.8,0.4c-0.2,0-0.3-0.2-0.3-0.3
			c-0.4-0.8-0.8-1.7-1.2-2.5c-0.1-0.1-0.1-0.2-0.1-0.3c0-0.3,1.3-0.9,1.5-0.9C715.6,636.3,715.7,636.5,716.4,638 M719.9,640.9
			c0,0.4,0.1,0.8,0.1,1.3c0,0.4-0.1,0.8-0.4,1.1c-0.7,0.4-1.4,0.5-2.2,0.6c-0.6,0-0.8,0-1-0.3c-0.2-0.4-0.3-0.8-0.3-1.3
			c0-0.2,0-0.5,0.3-0.5c0.1,0,0.2,0,0.3,0c0.2,0,0.4,0,0.5,0c0.5,0,0.5-0.1,0.5-0.8l-0.4-5.1c0-0.2-0.2-0.4-0.4-0.4l-1,0.1
			c-0.5,0-1,0.1-1.3,0.1c-0.4,0-0.4-0.1-0.5-0.6l-0.1-0.8c0-0.5,0-0.6,0.4-0.7c0.4,0,0.8,0,1.3,0l1.1-0.1c0.2,0,0.4-0.2,0.3-0.5
			l-0.1-1.1c0-0.3-0.1-0.7-0.1-1c0,0,0-0.1,0-0.1c0-0.2,0.1-0.2,0.3-0.3c0.1,0,0.3,0,0.4,0c0.5,0,1,0,1.6,0.1c0.1,0,0.3,0,0.3,0.2
			c0,0.1,0,0.1-0.1,0.2c-0.1,0.2-0.1,0.5-0.1,0.7l0.1,1.1c0,0.2,0.1,0.4,0.3,0.4c0,0,0,0,0.1,0c0.2,0,0.3,0,0.5-0.1
			c0.4,0,0.4,0.1,0.4,0.6l0.1,0.9c0,0.4,0,0.6-0.4,0.6c-0.2,0-0.3,0-0.5,0c-0.2,0-0.4,0.2-0.4,0.4c0,0,0,0,0,0L719.9,640.9z"/>
		<path id="パス_36465" class="st0" d="M733.4,636.2c0.2,0,1.1,0.7,1.3,0.9c0.2,0.2,0.4,0.3,0.4,0.4c0,0.1-0.1,0.2-0.2,0.2
			c-0.1,0-0.2,0-0.2,0c0,0-0.1,0.1-0.2,0.2c-0.2,0.2-0.5,0.4-0.8,0.6c-0.1,0.1-0.3,0.2-0.2,0.3c0,0.3,1.7,1.6,2.1,1.8
			c0.1,0.1,0.1,0.1,0.1,0.2c0,0.3-1.1,1.4-1.4,1.4c-0.4,0-2.4-2.1-2.7-2.5c-0.8-1-1.5-2-2-3.2c-0.1-0.1-0.1-0.3-0.3-0.3
			c-0.1,0-0.5,0.2-0.5,0.4c0,0.1,0.1,0.2,0.1,0.2c0.2,0.2,0.4,0.4,0.6,0.6c0.8,0.9,1.2,2,1.3,3.2c0.1,2-1.3,2.2-2.9,2.4
			c-0.9,0.1-1-0.1-1.1-1.2c0-0.1-0.1-0.2-0.2-0.2c-0.1,0.1-0.3,0.1-0.4,0.2c-0.8,0.4-1.6,0.7-2.4,1c-0.4,0-1-0.9-1-1.1
			c0-0.2,0.2-0.2,0.6-0.3c1.2-0.4,2.5-1,3.6-1.6c0.6-0.3,0.9-0.5,1.2-0.7c0,0,0.1-0.1,0.1-0.2c0,0,0-0.2-0.2-0.2c0,0-0.1,0-0.1,0
			c-1.3,0.8-2.6,1.4-4,2c-0.1,0.1-0.3,0.1-0.4,0.1c-0.4,0-0.9-0.9-0.9-1.1c0-0.2,0.1-0.2,0.3-0.3c1.4-0.4,2.8-1,4.1-1.8
			c0,0,0.1-0.1,0.1-0.1c0-0.1-0.1-0.1-0.2-0.1c0,0-0.1,0-0.1,0c-1.1,0.6-2.4,1.1-3.6,1.5c-0.4,0-0.9-0.9-0.9-1.2
			c0-0.2,0.1-0.2,0.5-0.3c0.8-0.2,1.6-0.5,2.4-0.8c0.2-0.1,0.2-0.1,0.2-0.2c0-0.1-0.1-0.1-0.2-0.1c-0.1,0-0.4,0.1-0.7,0.1
			c-0.5,0-0.8,0-0.8-0.6c0-0.3,0-0.6,0-1l-0.1-0.7c0-0.2,0-0.3-0.2-0.3c0,0-0.1,0-0.1,0.1c-0.1,0-0.1,0.1-0.2,0.1
			c-0.4,0-1.2-1.1-1.3-1.4c0-0.1,0.1-0.2,0.2-0.2c1.2-0.6,2.2-1.4,3-2.4c0-0.1,0.1-0.2,0.2-0.2c0.2,0,1.9,0.3,2.2,0.3
			c0.1,0,0.2,0.1,0.2,0.2c0,0.1,0,0.1-0.1,0.2c0,0,0,0,0,0.1c0,0.1,0.1,0.1,0.2,0.1l2.3-0.2c0.6,0,1.1,0.4,1.3,1
			c0,0.2-0.2,0.4-0.3,0.5c-0.1,0-0.1,0.1-0.1,0.2c0,0.1,0.1,0.1,0.2,0.1l0.2,0c0.4,0,0.9-0.1,1.3-0.1s0.8,0,0.8,0.6c0,0.2,0,0.6,0,1
			l0,0.6c0,0.4,0.1,0.8,0.1,1c0,0.5-0.3,0.6-0.7,0.7c-0.4,0-0.7,0-1.1,0c-0.1,0-0.3,0.1-0.3,0.2c0,0,0.3,0.8,0.6,0.8
			c0.3-0.2,0.6-0.4,0.9-0.7C733.3,636.4,733.3,636.3,733.4,636.2 M726.2,632.3c-0.2,0-0.3,0.1-0.5,0.2c0,0-0.1,0.1-0.2,0.1
			c-0.1,0-0.1,0.1-0.1,0.1c0,0.1,0.1,0.1,0.1,0.1l2.2-0.2c0.5,0,0.6-0.4,0.6-0.4c0-0.1,0-0.1-0.2-0.1L726.2,632.3z M726,634.3
			c-0.2,0-0.3,0.1-0.3,0.3c0,0,0,0,0,0l0,0.1c0,0.2,0.1,0.3,0.3,0.3c0,0,0,0,0,0l1.4-0.1c0.2,0,0.3-0.1,0.3-0.3c0,0,0,0,0,0l0-0.1
			c0-0.2-0.1-0.3-0.3-0.3c0,0,0,0,0,0L726,634.3z M728.2,641.4c0.4,0,0.6-0.1,0.6-0.6c0-0.1-0.1-0.2-0.2-0.2c0,0,0,0,0,0
			c-0.1,0-0.1,0-0.1,0.1c-0.1,0.1-0.6,0.4-0.8,0.5c-0.1,0-0.1,0.1-0.1,0.1C727.5,641.5,727.7,641.5,728.2,641.4 M729.9,634.1
			c-0.1,0-0.3,0.1-0.3,0.3c0,0,0,0,0,0l0,0.1c0,0.1,0.1,0.3,0.3,0.3c0,0,0,0,0,0l1.4-0.1c0.2,0,0.3-0.1,0.3-0.3c0,0,0,0,0,0l0-0.1
			c0-0.2-0.1-0.3-0.3-0.3c0,0,0,0,0,0L729.9,634.1z"/>
		<path id="パス_36466" class="st0" d="M653.4,664.6l-0.5-0.4l4.4-5.1l-5.1-4.4l0.4-0.5l5.1,4.4l4.4-5.1l0.5,0.4l-4.4,5.1l5.1,4.4
			l-0.4,0.5l-5.1-4.4L653.4,664.6z M655,659.3c0.1,0.7-0.5,1.3-1.1,1.3c-0.7,0.1-1.3-0.5-1.3-1.1c-0.1-0.7,0.5-1.3,1.1-1.3
			c0,0,0,0,0,0C654.4,658.1,655,658.6,655,659.3 M658.7,655c0,0.7-0.5,1.2-1.1,1.3c-0.7,0-1.2-0.5-1.3-1.1c0-0.7,0.5-1.2,1.1-1.3
			C658.1,653.9,658.7,654.4,658.7,655C658.7,655,658.7,655,658.7,655 M659.3,663c0,0.7-0.5,1.2-1.1,1.3c-0.7,0-1.2-0.5-1.3-1.1
			c0-0.7,0.5-1.2,1.1-1.3C658.7,661.8,659.3,662.3,659.3,663C659.3,663,659.3,663,659.3,663 M663,658.7c0.1,0.7-0.4,1.3-1.1,1.3
			s-1.3-0.4-1.3-1.1c-0.1-0.7,0.4-1.3,1.1-1.3c0,0,0,0,0,0C662.4,657.6,663,658.1,663,658.7"/>
		<path id="パス_36467" class="st0" d="M671,661.7c0.8-0.1,2.3-0.2,2.4-0.2c0.3,0,0.4,0.1,0.4,0.4l0.1,1.3c0,0.3,0,0.4-0.3,0.4
			c-0.1,0-1.7,0.1-2.4,0.1l-2.1,0.1c-0.8,0.1-2.5,0.2-2.6,0.2c-0.3,0-0.4-0.1-0.4-0.4l0-0.6c-0.1-0.3,0.1-0.6,0.3-0.7
			c0.3-0.2,0.5-0.4,0.8-0.7c2.6-2.6,3.8-3.9,3.7-5.1c-0.1-0.8-0.6-1.3-1.7-1.2c-0.8,0.1-1.5,0.5-2,1.2c-0.1,0.2-0.2,0.2-0.3,0.2
			c-0.1,0-0.2-0.1-0.3-0.2l-1.2-1.1c-0.1-0.1-0.2-0.2-0.2-0.3c0-0.1,0-0.2,0.2-0.3c1-1.1,2.3-1.8,3.8-1.9c2.5-0.2,4,1.2,4.2,3
			c0.1,1.9-1.3,3.7-3,5.4c-0.1,0.1-0.1,0.2-0.1,0.2c0,0,0.1,0.1,0.3,0.1L671,661.7z"/>
		<path id="パス_36468" class="st0" d="M684.5,661.8c0,0.4,0,0.5-0.4,0.6c-1,0.4-2,0.7-3,0.8c-3.9,0.3-5.7-1.9-5.9-4.8
			c-0.3-3.8,2.2-5.9,5.6-6.2c0.9-0.1,1.8,0,2.7,0.3c0.2,0.1,0.3,0.2,0.3,0.3c0,0.1,0,0.2-0.1,0.3l-0.5,1.7c-0.1,0.2-0.1,0.3-0.2,0.3
			c-0.1,0-0.2,0-0.3-0.1c-0.6-0.2-1.2-0.3-1.8-0.3c-1.7,0-3.2,1.3-3.2,3.1c0,0.1,0,0.3,0,0.4c0.1,2.1,1.6,2.9,3.3,2.7
			c0.2,0,0.4,0,0.6-0.1c0.3-0.1,0.4-0.2,0.4-0.5l0-0.2c0-0.6-0.2-1.7-0.2-1.8c0-0.3,0.1-0.4,0.4-0.4l1.6-0.1c0.3,0,0.4,0,0.4,0.3
			c0,0.1,0,1.2,0.1,1.8L684.5,661.8z"/>
		<path id="パス_36469" class="st0" d="M693.9,652.4c0.4,0,0.9-0.1,1.3-0.1c0.6,0,0.9,0.1,1,0.7c0,0.5,0.1,1,0.1,1.5l0.3,4.9
			c0,0.4,0.1,0.8,0.1,1.3c0,0.6,0,0.7-0.6,0.7l-0.8,0.1c-0.6,0-0.6,0-0.7-0.2c-0.1-0.3-0.3-0.3-0.8-0.3l-5.7,0.4
			c-0.2,0-0.4,0.1-0.6,0.1c-0.4,0-0.4-0.2-0.4-0.7l-0.1-1c0-0.4,0-0.6,0.3-0.6c0.2,0,0.5,0,0.7,0c0.5,0,0.9,0,1.4-0.1l4.6-0.3
			c0.2,0,0.4-0.2,0.4-0.5l-0.2-3.2c0-0.2-0.2-0.4-0.5-0.4L689,655c-0.4,0-0.8,0.1-1.3,0.1c-0.3,0-0.5,0.1-0.8,0.1
			c-0.3,0-0.4-0.1-0.5-0.8l-0.1-0.9c0-0.6,0-0.6,0.3-0.7c0.2,0,0.4,0,0.6,0L693.9,652.4z"/>
		<path id="パス_36470" class="st0" d="M708.2,654.2c0.9-0.1,1.8-0.2,1.9-0.2c0.4,0,0.5,0.1,0.5,0.6l0,0.7
			c0.1,0.8,0.1,1.1-0.4,1.1c-0.6,0-1.2,0-1.9,0.1l-6.7,0.5c-0.6,0-1.3,0.1-1.9,0.2c-0.5,0-0.5-0.2-0.6-1l0-0.7c0-0.4,0-0.6,0.4-0.6
			c0.2,0,1,0,1.9-0.1L708.2,654.2z"/>
		<path id="パス_36471" class="st0" d="M719.4,650.1c0.3,0,0.7-0.1,1-0.1c0.1,0,0.2,0,0.4-0.1c0.5,0,1.3,1,1.3,1.2
			c0,0.2-0.1,0.3-0.2,0.5c-0.5,1.1-1.1,2.2-1.8,3.3c-0.1,0.1-0.1,0.2-0.1,0.3c0,0.1,0.1,0.2,0.2,0.3c1,0.6,1.9,1.2,2.8,1.9
			c0.2,0.1,0.7,0.5,0.8,0.7c0.1,0,0.1,0.1,0.1,0.2c-0.3,0.8-0.8,1.4-1.5,1.8c-0.2,0-0.4-0.2-0.6-0.4c0,0,0-0.1-0.1-0.1
			c-0.8-0.8-1.7-1.6-2.7-2.2c-0.1-0.1-0.3-0.2-0.5-0.2c-0.1,0-0.3,0.1-0.4,0.2c-0.7,0.7-1.4,1.3-2.2,1.9c-0.6,0.5-1.3,0.9-2,1.2
			c-0.3,0-0.9-0.7-1-1c-0.2-0.2-0.3-0.5-0.4-0.8c0-0.2,0.2-0.3,0.4-0.4c2.4-1.1,4.3-2.9,5.7-5.2c0.1-0.1,0.2-0.3,0.2-0.5
			c0-0.2-0.3-0.3-0.5-0.2l-2.2,0.2c-0.7,0-1.3,0.1-2,0.2c-0.4,0-0.4-0.1-0.4-0.7l-0.1-1c0-0.5,0-0.6,0.3-0.6c0.7,0,1.3-0.1,2-0.1
			L719.4,650.1z"/>
		<path id="パス_36472" class="st0" d="M735.4,650c1.1,0.9,1.7,2.2,1.8,3.6c0.1,2-0.9,4-2.6,5.1c-0.5,0.4-1.1,0.6-1.7,0.8
			c-0.5,0-1.4-1.3-1.4-1.7c0-0.1,0.1-0.2,0.5-0.3c1.7-0.6,3-1.7,2.8-3.6c0-1.5-1-2.7-2.4-3c-0.2,0-0.3,0.3-0.3,0.5
			c0.1,2.2-0.5,4.4-1.7,6.3c-0.4,0.7-1.2,1.2-2,1.4c-1,0-1.9-0.5-2.3-1.3c-0.4-0.7-0.6-1.4-0.6-2.2c-0.3-3.4,2.2-6.4,5.6-6.7
			c0,0,0.1,0,0.1,0C732.8,648.6,734.3,649.1,735.4,650 M727.8,655.3c0,0.4,0.2,1.4,0.7,1.4c0.4,0,0.8-1,0.9-1.3
			c0.4-1.2,0.6-2.5,0.7-3.8c0-0.1-0.1-0.2-0.2-0.2C728.4,652.1,727.6,653.7,727.8,655.3"/>
		<path id="パス_36473" class="st0" d="M740.3,651.8c0-0.4-0.3-0.5-0.4-0.5c-0.2,0-0.4,0-0.6,0.1c-0.3,0-0.3-0.1-0.3-0.5l-0.1-0.9
			c0-0.4,0-0.6,0.3-0.6c0.2,0,0.4,0,0.5,0c0.2,0,0.4-0.2,0.4-0.4c0,0,0,0,0-0.1l-0.1-1.4c0-0.2-0.1-0.5-0.1-0.7s0.1-0.2,0.3-0.2
			c0.2,0,1.7,0,1.9,0c0.1,0,0.3,0,0.3,0.2c0,0.1-0.1,0.2-0.2,0.3c-0.1,0.1-0.2,0.2-0.1,0.3l0.1,1.4c0,0.3,0.2,0.4,0.4,0.4
			c0.2,0,0.5-0.1,0.7-0.1c0.3,0,0.3,0.1,0.4,0.6l0.1,0.8c0,0.5,0,0.6-0.3,0.6c-0.2,0-0.5,0-0.7,0c-0.2,0-0.4,0.2-0.4,0.5l0.1,1.6
			c0,0.2,0.1,0.4,0.3,0.4c0.2-0.1,0.3-0.1,0.5-0.2c0.3-0.1,0.5-0.3,0.5-0.6l0-0.4c0-0.4,0-0.6,0.3-0.6c0.5,0,1.1,0,1.6-0.1l4.5-0.3
			c0.5,0,1.1-0.1,1.6-0.1c0.3,0,0.3,0.1,0.4,0.5l0,0.7c0,0.3,0,0.5-0.3,0.5c-0.5,0-1.1,0-1.6,0.1l-2.8,0.2c-0.5,0-0.5,0.3-0.5,0.4
			c0,0.1,0.2,0.1,0.2,0.1l2.4-0.2c0.4,0,0.9-0.1,1.3-0.1c0.7,0,0.8,0.3,0.8,0.9c0.1,1.2,0.1,2.4-0.1,3.5c-0.3,1.1-1.2,1.3-2.2,1.4
			c-0.9,0.1-1,0-1.1-1c0-0.1-0.1-0.2-0.1-0.2c-0.1,0-0.1,0.1-0.2,0.1c-0.2,0.3-1.1,1.3-1.4,1.3s-1-0.5-1.1-0.7
			c0-0.1,0.2-0.3,0.3-0.3c0.9-0.8,1.7-1.8,2.3-2.9c0-0.1-0.1-0.1-0.1-0.1c0,0,0,0,0,0l-0.1,0c-0.2,0-0.2,0.1-0.3,0.2
			c-0.3,0.5-0.6,0.9-0.9,1.3c-0.5,0.7-1.2,1.3-1.9,1.8c-0.1,0.1-0.2,0.1-0.3,0.1c-0.3,0-1-0.5-1-0.8c0-0.1,0.1-0.2,0.2-0.2
			c0.9-0.6,1.7-1.4,2.3-2.3c0-0.1-0.1-0.1-0.2-0.1c-0.2,0-0.3,0.1-0.4,0.2c-0.5,0.7-1.1,1.2-1.8,1.7c-0.1,0.1-0.2,0.2-0.4,0.2
			c-0.3,0-1-0.7-1.1-0.9c0-0.1,0.1-0.2,0.2-0.3c0.8-0.6,1.5-1.3,2.1-2.1c0.2-0.2,0.3-0.5,0.5-0.8c0-0.1-0.2-0.2-0.3-0.2
			c-0.5,0-0.8,0.1-0.8,0.5c0,0.1,0,0.4,0.1,0.6c0,0.3,0,0.5-0.3,0.6c-0.8,0.5-2.4,1.3-3.2,1.6c-0.2,0.1-0.3,0.2-0.3,0.3
			c-0.1,0.1-0.1,0.2-0.2,0.2c-0.1,0-0.2-0.1-0.2-0.2c-0.1-0.2-0.3-0.7-0.5-1.2c-0.1-0.2-0.2-0.4-0.2-0.6c0-0.3,0.2-0.3,0.6-0.4
			c0.7-0.2,0.8-0.3,0.8-0.7L740.3,651.8z M748.3,646.4c0.5,0,1-0.1,1.5-0.2c0.6,0,0.9,0.1,0.9,0.7c0,0.3,0,0.7,0,1.1l0.1,1.1
			c0,0.4,0.1,0.7,0.1,1.1c0,0.6-0.3,0.8-0.8,0.8c-0.5,0-1,0-1.5,0.1l-1.9,0.1c-0.5,0-1,0.1-1.5,0.1c-0.6,0-0.9-0.1-0.9-0.7
			c0-0.3,0-0.7,0-1.1l-0.1-1.1c0-0.4-0.1-0.7-0.1-1.1c0-0.6,0.3-0.8,0.8-0.8c0.5,0,1,0,1.5,0L748.3,646.4z M748.6,648.2
			c0.1,0,0.2-0.1,0.2-0.2c0,0,0,0,0,0l0-0.1c0-0.1-0.1-0.2-0.2-0.2l-2.3,0.2c-0.1,0-0.2,0.1-0.2,0.2l0,0.1c0,0.1,0.1,0.2,0.2,0.2
			c0,0,0,0,0,0L748.6,648.2z M746.4,649.4c-0.1,0-0.2,0.1-0.2,0.2c0,0,0,0,0,0l0,0c0,0.1,0.1,0.2,0.2,0.2c0,0,0,0,0,0l2.2-0.2
			c0.1,0,0.2-0.1,0.2-0.2c0,0,0,0,0,0l0,0c0-0.1-0.1-0.2-0.2-0.2c0,0,0,0,0,0L746.4,649.4z M749.5,655.6c-0.2,0.5-0.5,1-0.7,1.5
			c0,0-0.1,0.1-0.1,0.1c0,0.1,0.1,0.1,0.3,0.1c0.1,0,0.2,0,0.3,0c0.2,0,0.4-0.1,0.4-0.3c0.1-0.4,0.1-0.9,0.1-1.4
			c0-0.1,0-0.2-0.1-0.2C749.6,655.5,749.6,655.5,749.5,655.6"/>
		<path id="パス_36474" class="st0" d="M758.8,651.7c-0.5,0-1,0.1-1.4,0.1c-0.2,0-0.3-0.1-0.4-0.6l0-0.1c0-0.1,0-0.3-0.2-0.2
			c-0.1,0-0.2,0.1-0.2,0.1c-0.5,0.5-1.1,0.9-1.7,1.2c-0.4,0-1.4-1-1.4-1.4c0-0.2,0.2-0.3,0.4-0.4c2-1.2,3.7-3,4.8-5.1
			c0.1-0.1,0.1-0.2,0.2-0.2c0.2,0,2,0.1,2.2,0.2c0.1,0,0.2,0.1,0.2,0.2c0,0.1,0,0.1-0.1,0.2c0,0.1-0.1,0.1-0.1,0.2
			c0.1,0.2,0.3,0.4,0.5,0.6c1.3,1.4,2.9,2.4,4.7,3c0.3,0.1,0.3,0.1,0.3,0.3c-0.1,0.4-0.2,0.8-0.4,1.2c-0.1,0.3-0.3,0.6-0.5,0.6
			c-0.8-0.3-1.7-0.7-2.4-1.2c0,0-0.1-0.1-0.2-0.1c-0.2,0-0.2,0.2-0.2,0.4l0,0.3c0,0.3,0,0.5-0.3,0.5c-0.4,0-0.8,0-1.4,0.1
			L758.8,651.7z M758.5,657.8c-0.1,0-0.2,0.1-0.2,0.2c0,0,0,0,0,0l0,0.1c0,0.5-0.1,0.5-1,0.5l-0.5,0c-0.5,0-0.7,0-0.8-0.4
			c0-0.2,0-0.8,0-1.3l-0.2-2.4c0-0.4-0.1-0.8-0.1-1.2c-0.1-0.7,0.5-0.8,1.1-0.9c0.5,0,0.9,0,1.4,0l3.9-0.3c0.5,0,0.9-0.1,1.4-0.2
			c0.6,0,1.2,0,1.2,0.7c0,0.4,0,0.8,0.1,1.2l0.2,2.4c0,0.5,0.1,1.1,0.1,1.3c0,0.4-0.2,0.4-0.7,0.5l-0.9,0.1c-0.5,0-0.7,0-0.7-0.4
			c0-0.1,0-0.1,0-0.1c0-0.1-0.1-0.2-0.3-0.2c0,0,0,0,0,0L758.5,657.8z M762.4,655.7c0.2,0,0.4-0.2,0.4-0.4c0,0,0,0,0,0l-0.1-0.7
			c0-0.2-0.2-0.4-0.4-0.4c0,0,0,0,0,0l-3.9,0.3c-0.2,0-0.4,0.2-0.4,0.4v0l0.1,0.7c0,0.2,0.2,0.4,0.4,0.4c0,0,0,0,0,0L762.4,655.7z
			 M761.5,649.6c0.2,0,0.3,0,0.3-0.2c0-0.1-0.1-0.3-0.2-0.3c-0.5-0.4-1-0.9-1.5-1.4c-0.1-0.1-0.2-0.2-0.3-0.2
			c-0.1,0-0.2,0.1-0.3,0.2c-0.4,0.5-0.9,1.1-1.3,1.6c-0.1,0.1-0.2,0.2-0.2,0.4c0,0.2,0.1,0.2,0.6,0.1L761.5,649.6z"/>
	</g>
</g>
</svg>
