<svg xmlns="http://www.w3.org/2000/svg" xmlns:xlink="http://www.w3.org/1999/xlink" width="498.228" height="117.472" viewBox="0 0 498.228 117.472">
  <defs>
    <clipPath id="clip-path">
      <rect id="長方形_843" data-name="長方形 843" width="216.281" height="54.774" fill="none"/>
    </clipPath>
    <clipPath id="clip-path-2">
      <rect id="長方形_842" data-name="長方形 842" width="215.977" height="54.47" fill="none"/>
    </clipPath>
  </defs>
  <g id="hero_catch01_sp" transform="translate(-101.002 -1077.646)">
    <g id="グループ_4626" data-name="グループ 4626" transform="translate(-0.77 -10)">
      <path id="パス_18448" data-name="パス 18448" d="M0,17.142,9.964,0,31.017,78.508Z" transform="translate(101.771 1127.195) rotate(-7)" fill="#fdd000"/>
      <path id="パス_18449" data-name="パス 18449" d="M0,61.366,9.964,78.508,31.017,0Z" transform="translate(590.432 1205.118) rotate(-173)" fill="#fdd000"/>
    </g>
    <path id="パス_36564" data-name="パス 36564" d="M-148.564-37.8h9.36a46.47,46.47,0,0,1-5.33,8.528q-3.146,4-5.746,6.968V5.044H-158.5V-15.964a47.239,47.239,0,0,1-7.7,5.148,46.541,46.541,0,0,1-5.876,2.678q-2.184.754-2.236.754v-8.372q.052,0,2.652-1.066a49.143,49.143,0,0,0,6.63-3.536,48.141,48.141,0,0,0,8.4-6.76A49.663,49.663,0,0,0-148.564-37.8Zm39.936,10.088h8.268a47.261,47.261,0,0,1-6.968,15.5A38.974,38.974,0,0,1-116.4-2.99a34.524,34.524,0,0,1-8.918,4.6A33.116,33.116,0,0,1-132.21,3.2a25.972,25.972,0,0,1-2.73.182V-5.1a16.349,16.349,0,0,0,2.132-.078,26.03,26.03,0,0,0,5.33-1.066,21.946,21.946,0,0,0,6.838-3.588,32.208,32.208,0,0,0,6.63-6.734A39.579,39.579,0,0,0-108.628-27.716Zm-26.312-.624v-8.112h16.224v8.112ZM-86.372-39h8.164q-.26,1.508-.52,2.73t-.312,1.326h17.784v7.956a38.153,38.153,0,0,1-2.99,12.376,28.915,28.915,0,0,1-5.9,8.762A40.938,40.938,0,0,1-77.324-.078,39.459,39.459,0,0,1-84.136,3.38a40.393,40.393,0,0,1-5.148,1.638,13.5,13.5,0,0,1-2.028.39V-3.016q.052,0,1.82-.442a32.81,32.81,0,0,0,4.5-1.586,31.421,31.421,0,0,0,5.694-3.2,24.354,24.354,0,0,0,5.46-5.33h-9.62V-21.32h12.74a27.77,27.77,0,0,0,.988-5.876h-12.22a36.152,36.152,0,0,1-6.24,8.866,52.17,52.17,0,0,1-4.94,4.29,11.414,11.414,0,0,1-2.028,1.352V-22.724a13.49,13.49,0,0,0,1.17-.962,18.214,18.214,0,0,0,2.6-2.99,28.7,28.7,0,0,0,2.86-5.07A31.572,31.572,0,0,0-86.372-39Zm31.1,25.584V-21.58h24.024v8.164Zm50.8-11.856H-24.388V-33.28h12.064V-39h8.216v5.72H8.944a25.016,25.016,0,0,1-2.6,6.24A36.039,36.039,0,0,1,2.054-20.9q-2.366,2.7-4.082,4.42a42.106,42.106,0,0,0,5.486,3.718,41.573,41.573,0,0,0,4.16,2.08,7.642,7.642,0,0,0,1.69.6v9.1q-.1,0-2.132-.754A38.022,38.022,0,0,1,1.95-4.316,52.141,52.141,0,0,1-4.316-8.528V4.784h-7.8V-7.8A44.987,44.987,0,0,1-18.85-3.874a52.108,52.108,0,0,1-5.356,2.21q-2.054.676-2.158.676V-9.256q.1,0,2.418-.884a50.819,50.819,0,0,0,5.85-2.808A41.689,41.689,0,0,0-11-17.914,37.544,37.544,0,0,0-4.472-25.272ZM17.784,4.264v-7.28a18.486,18.486,0,0,0,9.022-3.952,19.69,19.69,0,0,0,5.356-7.02,46.128,46.128,0,0,0,2.73-7.8,56.174,56.174,0,0,0,1.248-6.318,22.1,22.1,0,0,0,.26-2.626h6.968a71.781,71.781,0,0,1-1.092,8.294,51.139,51.139,0,0,1-2.314,7.9,33.266,33.266,0,0,1-4.524,8.19A28.855,28.855,0,0,1,28.21.468,25.48,25.48,0,0,1,17.784,4.264Zm2.028-35.048,3.12,17.836h-5.46L14.456-30.784Zm8.684,0L31.72-12.948H26.156L23.14-30.784Zm52.156,6.032v8.164H58.812V4.784H50.6V-38.792h8.216v14.04ZM88.868-37.44h7.176q-.468,3.64-.78,6.578t-.546,6.344q-.234,3.406-.234,6.63,0,3.8.286,7.54t.676,6.864q.39,3.12.962,6.968H89.024Q88.14-2.86,87.75-7.644t-.39-9.984q0-4.836.364-9.334T88.868-37.44Zm8.84,14.3v-8.008h10.92V-37.96l7.072.052v6.76h5.72v8.008H115.7v8.372a57.267,57.267,0,0,1,6.032,2.652v8.008q-1.924-1.3-3.25-2.106A15.158,15.158,0,0,0,115.7-7.54v3.224a10.094,10.094,0,0,1-1.248,5.564A6.229,6.229,0,0,1,111.176,3.8a12.461,12.461,0,0,1-3.952.676,12.057,12.057,0,0,1-4.784-.754A7.862,7.862,0,0,1,98.67.7,10.5,10.5,0,0,1,97.188-5.3q.052-5.1,2.938-7.93t8.5-2.47V-23.14Zm9.516,20.488a1.226,1.226,0,0,0,1.092-.65,3.717,3.717,0,0,0,.312-1.69V-9a4.729,4.729,0,0,0-3.744.572,3.7,3.7,0,0,0-1.456,2.756,2.567,2.567,0,0,0,.936,2.444A4.258,4.258,0,0,0,107.224-2.652Zm30.056,6.6Q134.992,1.2,132-1.9t-5.746-5.538l6.6-5.668a77.751,77.751,0,0,1,6.006,5.616q3.354,3.432,5.122,5.668Z" transform="translate(364.934 1188.527)" fill="#fdd000"/>
    <g id="グループ_4625" data-name="グループ 4625" transform="translate(-9.795 -21.384)">
      <g id="グループ_3345" data-name="グループ 3345" transform="translate(197.451 1100.586)">
        <path id="パス_36563" data-name="パス 36563" d="M11.655-6.615q1.035.045,1.733-1.755a22.294,22.294,0,0,0,1.125-4.613q.427-2.812.63-5.872t.158-5.58a6.606,6.606,0,0,0-3.307,2.565,14.462,14.462,0,0,0-2.025,4.253,18.56,18.56,0,0,0-.787,4.432,11.37,11.37,0,0,0,.585,4.927Q10.485-6.705,11.655-6.615Zm16.02-9.045A12.657,12.657,0,0,0,26.1-21.667a5.857,5.857,0,0,0-4.41-2.9q-.135,4.365-.562,8.82A36.476,36.476,0,0,1,19.44-7.56a17.8,17.8,0,0,1-3.15,5.94A5.759,5.759,0,0,1,11.52.5,7.726,7.726,0,0,1,7.493-.877,9.711,9.711,0,0,1,4.253-5.13,20.551,20.551,0,0,1,2.88-13.185,21.8,21.8,0,0,1,4.9-22.253a17.727,17.727,0,0,1,5.175-6.57,14.048,14.048,0,0,1,7.335-2.9,17.163,17.163,0,0,1,8.123,1.282,13.38,13.38,0,0,1,6.1,5.423,19.947,19.947,0,0,1,2.655,9.765,22.952,22.952,0,0,1-1.327,8.73,14.644,14.644,0,0,1-3.69,5.692,14.1,14.1,0,0,1-4.927,2.947,15.255,15.255,0,0,1-4.86.9v-6.75a7.438,7.438,0,0,0,6.03-3.128Q27.72-9.855,27.675-15.66Z" transform="translate(256.766 51.415)" fill="#fdd000"/>
      </g>
      <g id="グループ_4624" data-name="グループ 4624" transform="translate(128.795 72.425)">
        <g id="グループ_4453" data-name="グループ 4453" transform="translate(100.154 1029.105)">
          <g id="グループ_4454" data-name="グループ 4454" transform="translate(0 0)">
            <g id="グループ_891" data-name="グループ 891" transform="translate(0 0)">
              <g id="グループ_4455" data-name="グループ 4455">
                <g id="グループ_889" data-name="グループ 889">
                  <g id="グループ_4456" data-name="グループ 4456">
                    <path id="パス_7029" data-name="パス 7029" d="M133.144,11.923v4.138a1.044,1.044,0,0,1-1.069,1.043h-5.14V34.833a5.462,5.462,0,0,0,3.559,4.969,13.518,13.518,0,0,0,1.867.409.826.826,0,0,1,.775.843v4.138a.95.95,0,0,1-.805,1.025,9.764,9.764,0,0,1-2.619-.1,10.68,10.68,0,0,1-8.321-6.484,11.022,11.022,0,0,1-.817-5.194V6.118a.969.969,0,0,1,1.069-1.062h4.26a.977.977,0,0,1,1.032,1.062v4.736h5.135a1.045,1.045,0,0,1,1.074,1.069" transform="translate(82.833 3.327)" fill="#fff" stroke="#fff" stroke-linejoin="round" stroke-width="5"/>
                    <path id="パス_7030" data-name="パス 7030" d="M125.476,14.156c0,8.106-.007,21.566-.007,23.594a8.764,8.764,0,0,1-5.1,7.588,12.052,12.052,0,0,1-10.916-.745,8.457,8.457,0,0,1-3.828-6.843V28.276a8.476,8.476,0,0,1,3.944-7.8A16.865,16.865,0,0,1,118.89,18.4V14.156a2.573,2.573,0,0,0-.917-2.045,3.649,3.649,0,0,0-3.541-.77,3.064,3.064,0,0,0-2.288,2.637c-.111.88-.013,1.655-.056,2.2,0,.728-.39.947-.854.947h-4.572a1.118,1.118,0,0,1-1.057-1.118c0-3.168.41-4.108.922-5.28a10.216,10.216,0,0,1,8.895-5.709,9.881,9.881,0,0,1,8.484,4.36,10.269,10.269,0,0,1,1.57,4.773m-6.593,23.606v-13a14.724,14.724,0,0,0-4.358.409,3.578,3.578,0,0,0-2.339,3.1l-.012,9.492a2.325,2.325,0,0,0,1.9,2.143,5.264,5.264,0,0,0,3.242-.074,2.06,2.06,0,0,0,1.569-2.075" transform="translate(72.548 3.304)" fill="#fff" stroke="#fff" stroke-linejoin="round" stroke-width="5"/>
                    <path id="パス_7031" data-name="パス 7031" d="M111.082,35.3a10.172,10.172,0,0,1-4.358,9.266,10.511,10.511,0,0,1-9.163,1.106,10.173,10.173,0,0,1-6.306-8.925c0-8.437-.019-14.59.007-22.782A9.318,9.318,0,0,1,97.3,5.776a10.033,10.033,0,0,1,12.141,3.655c1.283,1.746,1.582,3.968,1.582,6.6,0,1.062-.824,1.081-.88,1.081h-4.334a.992.992,0,0,1-1.043-1.015s-.012-1.146-.086-1.984a3.71,3.71,0,0,0-2.318-2.685,3.571,3.571,0,0,0-3.321.378,3.335,3.335,0,0,0-1.563,2.7V36.884a3.807,3.807,0,0,0,2.614,3.041,3.664,3.664,0,0,0,3.65-.959c1.16-1.1.927-2.217,1-3.65a1.052,1.052,0,0,1,.939-1.081h4.395a.954.954,0,0,1,1.008,1.062" transform="translate(62.664 3.302)" fill="#fff" stroke="#fff" stroke-linejoin="round" stroke-width="5"/>
                    <path id="パス_7032" data-name="パス 7032" d="M90.265,6.015v4.3c0,.53-.086.9-.532,1.123a6.629,6.629,0,0,0-2.983,2.393,6.235,6.235,0,0,0-1.356,3.352V45.231a1.006,1.006,0,0,1-1.05,1.055h-4.2a.943.943,0,0,1-1.062-1.062V17.4A12.69,12.69,0,0,1,87.306,5.539c.745-.294,2.96-1.209,2.96.476" transform="translate(54.289 3.307)" fill="#fff" stroke="#fff" stroke-linejoin="round" stroke-width="5"/>
                    <path id="パス_7033" data-name="パス 7033" d="M83.965,14.156c0,8.106-.007,21.566-.007,23.594a8.752,8.752,0,0,1-5.1,7.588,12.053,12.053,0,0,1-10.916-.745,8.457,8.457,0,0,1-3.828-6.843V28.276a8.483,8.483,0,0,1,3.949-7.8A16.864,16.864,0,0,1,77.379,18.4V14.156a2.553,2.553,0,0,0-.917-2.045,3.636,3.636,0,0,0-3.534-.77,3.057,3.057,0,0,0-2.29,2.637c-.117.88-.019,1.655-.061,2.2,0,.728-.39.947-.854.947H65.151a1.112,1.112,0,0,1-1.05-1.118c0-3.168.409-4.108.922-5.28a10.2,10.2,0,0,1,8.888-5.709A9.864,9.864,0,0,1,82.4,9.383a10.269,10.269,0,0,1,1.57,4.773M77.372,37.762v-13a14.77,14.77,0,0,0-4.358.409,3.606,3.606,0,0,0-2.364,3.1l.019,9.492a2.325,2.325,0,0,0,1.893,2.143,5.28,5.28,0,0,0,3.247-.074,2.061,2.061,0,0,0,1.563-2.075" transform="translate(43.975 3.304)" fill="#fff" stroke="#fff" stroke-linejoin="round" stroke-width="5"/>
                    <path id="パス_7034" data-name="パス 7034" d="M66.642,11.923v4.138A1.044,1.044,0,0,1,65.573,17.1h-5.14V34.833A5.446,5.446,0,0,0,63.986,39.8a13.61,13.61,0,0,0,1.874.409.83.83,0,0,1,.775.843v4.138a.955.955,0,0,1-.805,1.025,9.764,9.764,0,0,1-2.619-.1,10.687,10.687,0,0,1-8.326-6.484,11.083,11.083,0,0,1-.812-5.194V6.118a.967.967,0,0,1,1.069-1.062h4.253a.978.978,0,0,1,1.038,1.062v4.736h5.128a1.049,1.049,0,0,1,1.081,1.069" transform="translate(37.051 3.327)" fill="#fff" stroke="#fff" stroke-linejoin="round" stroke-width="5"/>
                    <path id="パス_7035" data-name="パス 7035" d="M58.075,10.2c1.05,2,1.087,3.723.971,6.227a.782.782,0,0,1-.843.714H53.582a.79.79,0,0,1-.745-.77c-.122-.976.1-2.686-.5-3.564a3.159,3.159,0,0,0-2.735-1.5,3.1,3.1,0,0,0-2.693,1.874c-1.319,3.578,2.644,6.19,4.945,8.7.7.7,4.81,4.542,6.068,6.183C61.6,33.372,60.67,41,56.061,44.19a10.715,10.715,0,0,1-10.256,1.391,10.1,10.1,0,0,1-6.416-8.216c-.049-1.015-.1-2.332-.054-3.065a.987.987,0,0,1,1.025-1.057H44.7a.916.916,0,0,1,.927.989c0,1.594-.311,3.772,1.629,5.1a5.82,5.82,0,0,0,1.466.7,3.838,3.838,0,0,0,3.632-.891,4.76,4.76,0,0,0,1.472-4.365,6.284,6.284,0,0,0-1.68-3.632c-3.368-3.4-6.33-6.3-9.383-9.462-2.173-2.973-3.228-7.191-1.776-10.678a8.9,8.9,0,0,1,5.251-5.286,11.327,11.327,0,0,1,3.3-.7,9.621,9.621,0,0,1,8.54,5.177" transform="translate(26.914 3.304)" fill="#fff" stroke="#fff" stroke-linejoin="round" stroke-width="5"/>
                    <path id="パス_7036" data-name="パス 7036" d="M51.017,7.333l.005-.007c2.448,4.218,4.836,8.375,5.884,10.316a17.945,17.945,0,0,1,2.021,11.5c-.994,7.355-6.153,12.611-13.339,16.341C40.12,48.33,36.2,49.354,29,49.581a33.2,33.2,0,0,1-16.511-4.1c-3.809-2.021-8.321-5.018-11.007-9.8l5.763-3.3A10.613,10.613,0,0,0,25.64,21.86Zm-.471,19.907a9.284,9.284,0,0,0-7.959-6.007,42.914,42.914,0,0,1,.054,12.087,9.228,9.228,0,0,0,7.905-6.08m-9.315,6.073a41.2,41.2,0,0,1-.056-12.093A9.628,9.628,0,0,0,33,27.239a9.152,9.152,0,0,0,8.229,6.073" transform="translate(0.868 4.89)" fill="#fff" stroke="#fff" stroke-linejoin="round" stroke-width="5"/>
                    <path id="パス_7037" data-name="パス 7037" d="M50.541,6.751l.7.976L25.861,22.256A10.613,10.613,0,0,1,7.469,32.787l-5.763,3.3-.049.025L1.163,35.02l5.714-3.272A10.612,10.612,0,0,1,25.269,21.224ZM25.525,27.005a9.156,9.156,0,1,0-9.156,9.156,9.155,9.155,0,0,0,9.156-9.156" transform="translate(0.647 4.494)" fill="#fff" stroke="#fff" stroke-linejoin="round" stroke-width="5"/>
                    <path id="パス_7038" data-name="パス 7038" d="M1.9,39.605l-.012.007A18.245,18.245,0,0,1,.272,34.123a18.914,18.914,0,0,1,2.019-11.5C2.652,21.841,15.319.11,15.319.11l6.11,10.683a49.492,49.492,0,0,1,8.076-.854,43.427,43.427,0,0,1,9.047.854L44.858.091s3.223,5.494,6.526,11.184l-.1.061L26.007,25.809A10.612,10.612,0,0,0,7.614,36.333Z" transform="translate(-0.091 -0.091)" fill="#fff" stroke="#fff" stroke-linejoin="round" stroke-width="5"/>
                    <path id="パス_7039" data-name="パス 7039" d="M25.828,15.562a9.286,9.286,0,0,1,7.961,6.007,9.23,9.23,0,0,1-7.905,6.08,42.981,42.981,0,0,0-.056-12.087" transform="translate(17.627 10.56)" fill="#fff" stroke="#fff" stroke-linejoin="round" stroke-width="5"/>
                    <path id="パス_7040" data-name="パス 7040" d="M28.326,15.555a41.168,41.168,0,0,0,.054,12.093,9.15,9.15,0,0,1-8.229-6.073,9.63,9.63,0,0,1,8.175-6.019" transform="translate(13.719 10.555)" fill="#fff" stroke="#fff" stroke-linejoin="round" stroke-width="5"/>
                    <path id="パス_7041" data-name="パス 7041" d="M13.9,13.324A9.156,9.156,0,1,1,4.746,22.48,9.156,9.156,0,0,1,13.9,13.324M21.5,22.48a7.594,7.594,0,1,0-7.595,7.6,7.595,7.595,0,0,0,7.595-7.6" transform="translate(3.113 9.019)" fill="#fff" stroke="#fff" stroke-linejoin="round" stroke-width="5"/>
                    <path id="パス_7042" data-name="パス 7042" d="M13.265,14.249a7.6,7.6,0,1,1-7.593,7.595,7.595,7.595,0,0,1,7.593-7.595m6.129,7.595a6.129,6.129,0,1,0-6.129,6.136,6.129,6.129,0,0,0,6.129-6.136" transform="translate(3.751 9.656)" fill="#fff" stroke="#fff" stroke-linejoin="round" stroke-width="5"/>
                    <path id="パス_7043" data-name="パス 7043" d="M12.668,15.117a6.132,6.132,0,1,1-6.129,6.129,6.129,6.129,0,0,1,6.129-6.129" transform="translate(4.348 10.253)" fill="#fff" stroke="#fff" stroke-linejoin="round" stroke-width="5"/>
                  </g>
                </g>
              </g>
            </g>
          </g>
        </g>
        <g id="グループ_893" data-name="グループ 893" transform="translate(100 1028.775)">
          <g id="グループ_892" data-name="グループ 892" transform="translate(0 0)" clip-path="url(#clip-path)">
            <g id="グループ_891-2" data-name="グループ 891" transform="translate(0.154 0.154)">
              <g id="グループ_890" data-name="グループ 890" clip-path="url(#clip-path-2)">
                <g id="グループ_889-2" data-name="グループ 889">
                  <g id="グループ_888" data-name="グループ 888" clip-path="url(#clip-path-2)">
                    <path id="パス_7029-2" data-name="パス 7029" d="M133.144,11.923v4.138a1.044,1.044,0,0,1-1.069,1.043h-5.14V34.833a5.462,5.462,0,0,0,3.559,4.969,13.518,13.518,0,0,0,1.867.409.826.826,0,0,1,.775.843v4.138a.95.95,0,0,1-.805,1.025,9.764,9.764,0,0,1-2.619-.1,10.68,10.68,0,0,1-8.321-6.484,11.022,11.022,0,0,1-.817-5.194V6.118a.969.969,0,0,1,1.069-1.062h4.26a.977.977,0,0,1,1.032,1.062v4.736h5.135a1.045,1.045,0,0,1,1.074,1.069" transform="translate(82.833 3.326)" fill="#004b9e"/>
                    <path id="パス_7030-2" data-name="パス 7030" d="M125.476,14.156c0,8.106-.007,21.566-.007,23.594a8.764,8.764,0,0,1-5.1,7.588,12.052,12.052,0,0,1-10.916-.745,8.457,8.457,0,0,1-3.828-6.843V28.276a8.476,8.476,0,0,1,3.944-7.8A16.865,16.865,0,0,1,118.89,18.4V14.156a2.573,2.573,0,0,0-.917-2.045,3.649,3.649,0,0,0-3.541-.77,3.064,3.064,0,0,0-2.288,2.637c-.111.88-.013,1.655-.056,2.2,0,.728-.39.947-.854.947h-4.572a1.118,1.118,0,0,1-1.057-1.118c0-3.168.41-4.108.922-5.28a10.216,10.216,0,0,1,8.895-5.709,9.881,9.881,0,0,1,8.484,4.36,10.269,10.269,0,0,1,1.57,4.773m-6.593,23.606v-13a14.724,14.724,0,0,0-4.358.409,3.578,3.578,0,0,0-2.339,3.1l-.012,9.492a2.325,2.325,0,0,0,1.9,2.143,5.264,5.264,0,0,0,3.242-.074,2.06,2.06,0,0,0,1.569-2.075" transform="translate(72.548 3.303)" fill="#004b9e"/>
                    <path id="パス_7031-2" data-name="パス 7031" d="M111.082,35.3a10.172,10.172,0,0,1-4.358,9.266,10.511,10.511,0,0,1-9.163,1.106,10.173,10.173,0,0,1-6.306-8.925c0-8.437-.019-14.59.007-22.782A9.318,9.318,0,0,1,97.3,5.776a10.033,10.033,0,0,1,12.141,3.655c1.283,1.746,1.582,3.968,1.582,6.6,0,1.062-.824,1.081-.88,1.081h-4.334a.992.992,0,0,1-1.043-1.015s-.012-1.146-.086-1.984a3.71,3.71,0,0,0-2.318-2.685,3.571,3.571,0,0,0-3.321.378,3.335,3.335,0,0,0-1.563,2.7V36.884a3.807,3.807,0,0,0,2.614,3.041,3.664,3.664,0,0,0,3.65-.959c1.16-1.1.927-2.217,1-3.65a1.052,1.052,0,0,1,.939-1.081h4.395a.954.954,0,0,1,1.008,1.062" transform="translate(62.664 3.301)" fill="#004b9e"/>
                    <path id="パス_7032-2" data-name="パス 7032" d="M90.265,6.015v4.3c0,.53-.086.9-.532,1.123a6.629,6.629,0,0,0-2.983,2.393,6.235,6.235,0,0,0-1.356,3.352V45.231a1.006,1.006,0,0,1-1.05,1.055h-4.2a.943.943,0,0,1-1.062-1.062V17.4A12.69,12.69,0,0,1,87.306,5.539c.745-.294,2.96-1.209,2.96.476" transform="translate(54.289 3.306)" fill="#004b9e"/>
                    <path id="パス_7033-2" data-name="パス 7033" d="M83.965,14.156c0,8.106-.007,21.566-.007,23.594a8.752,8.752,0,0,1-5.1,7.588,12.053,12.053,0,0,1-10.916-.745,8.457,8.457,0,0,1-3.828-6.843V28.276a8.483,8.483,0,0,1,3.949-7.8A16.864,16.864,0,0,1,77.379,18.4V14.156a2.553,2.553,0,0,0-.917-2.045,3.636,3.636,0,0,0-3.534-.77,3.057,3.057,0,0,0-2.29,2.637c-.117.88-.019,1.655-.061,2.2,0,.728-.39.947-.854.947H65.151a1.112,1.112,0,0,1-1.05-1.118c0-3.168.409-4.108.922-5.28a10.2,10.2,0,0,1,8.888-5.709A9.864,9.864,0,0,1,82.4,9.383a10.269,10.269,0,0,1,1.57,4.773M77.372,37.762v-13a14.77,14.77,0,0,0-4.358.409,3.606,3.606,0,0,0-2.364,3.1l.019,9.492a2.325,2.325,0,0,0,1.893,2.143,5.28,5.28,0,0,0,3.247-.074,2.061,2.061,0,0,0,1.563-2.075" transform="translate(43.975 3.303)" fill="#004b9e"/>
                    <path id="パス_7034-2" data-name="パス 7034" d="M66.642,11.923v4.138A1.044,1.044,0,0,1,65.573,17.1h-5.14V34.833A5.446,5.446,0,0,0,63.986,39.8a13.61,13.61,0,0,0,1.874.409.83.83,0,0,1,.775.843v4.138a.955.955,0,0,1-.805,1.025,9.764,9.764,0,0,1-2.619-.1,10.687,10.687,0,0,1-8.326-6.484,11.083,11.083,0,0,1-.812-5.194V6.118a.967.967,0,0,1,1.069-1.062h4.253a.978.978,0,0,1,1.038,1.062v4.736h5.128a1.049,1.049,0,0,1,1.081,1.069" transform="translate(37.051 3.326)" fill="#004b9e"/>
                    <path id="パス_7035-2" data-name="パス 7035" d="M58.075,10.2c1.05,2,1.087,3.723.971,6.227a.782.782,0,0,1-.843.714H53.582a.79.79,0,0,1-.745-.77c-.122-.976.1-2.686-.5-3.564a3.159,3.159,0,0,0-2.735-1.5,3.1,3.1,0,0,0-2.693,1.874c-1.319,3.578,2.644,6.19,4.945,8.7.7.7,4.81,4.542,6.068,6.183C61.6,33.372,60.67,41,56.061,44.19a10.715,10.715,0,0,1-10.256,1.391,10.1,10.1,0,0,1-6.416-8.216c-.049-1.015-.1-2.332-.054-3.065a.987.987,0,0,1,1.025-1.057H44.7a.916.916,0,0,1,.927.989c0,1.594-.311,3.772,1.629,5.1a5.82,5.82,0,0,0,1.466.7,3.838,3.838,0,0,0,3.632-.891,4.76,4.76,0,0,0,1.472-4.365,6.284,6.284,0,0,0-1.68-3.632c-3.368-3.4-6.33-6.3-9.383-9.462-2.173-2.973-3.228-7.191-1.776-10.678a8.9,8.9,0,0,1,5.251-5.286,11.327,11.327,0,0,1,3.3-.7,9.621,9.621,0,0,1,8.54,5.177" transform="translate(26.914 3.303)" fill="#004b9e"/>
                    <path id="パス_7036-2" data-name="パス 7036" d="M51.017,7.333l.005-.007c2.448,4.218,4.836,8.375,5.884,10.316a17.945,17.945,0,0,1,2.021,11.5c-.994,7.355-6.153,12.611-13.339,16.341C40.12,48.33,36.2,49.354,29,49.581a33.2,33.2,0,0,1-16.511-4.1c-3.809-2.021-8.321-5.018-11.007-9.8l5.763-3.3A10.613,10.613,0,0,0,25.64,21.86Zm-.471,19.907a9.284,9.284,0,0,0-7.959-6.007,42.914,42.914,0,0,1,.054,12.087,9.228,9.228,0,0,0,7.905-6.08m-9.315,6.073a41.2,41.2,0,0,1-.056-12.093A9.628,9.628,0,0,0,33,27.239a9.152,9.152,0,0,0,8.229,6.073" transform="translate(0.868 4.889)" fill="#004b9e"/>
                    <path id="パス_7037-2" data-name="パス 7037" d="M50.541,6.751l.7.976L25.861,22.256A10.613,10.613,0,0,1,7.469,32.787l-5.763,3.3-.049.025L1.163,35.02l5.714-3.272A10.612,10.612,0,0,1,25.269,21.224ZM25.525,27.005a9.156,9.156,0,1,0-9.156,9.156,9.155,9.155,0,0,0,9.156-9.156" transform="translate(0.647 4.493)" fill="#fff"/>
                    <path id="パス_7038-2" data-name="パス 7038" d="M1.9,39.605l-.012.007A18.245,18.245,0,0,1,.272,34.123a18.914,18.914,0,0,1,2.019-11.5C2.652,21.841,15.319.11,15.319.11l6.11,10.683a49.492,49.492,0,0,1,8.076-.854,43.427,43.427,0,0,1,9.047.854L44.858.091s3.223,5.494,6.526,11.184l-.1.061L26.007,25.809A10.612,10.612,0,0,0,7.614,36.333Z" transform="translate(-0.091 -0.092)" fill="#004b9e"/>
                    <path id="パス_7039-2" data-name="パス 7039" d="M25.828,15.562a9.286,9.286,0,0,1,7.961,6.007,9.23,9.23,0,0,1-7.905,6.08,42.981,42.981,0,0,0-.056-12.087" transform="translate(17.627 10.559)" fill="#ffc400"/>
                    <path id="パス_7040-2" data-name="パス 7040" d="M28.326,15.555a41.168,41.168,0,0,0,.054,12.093,9.15,9.15,0,0,1-8.229-6.073,9.63,9.63,0,0,1,8.175-6.019" transform="translate(13.719 10.554)" fill="#ffc400"/>
                    <path id="パス_7041-2" data-name="パス 7041" d="M13.9,13.324A9.156,9.156,0,1,1,4.746,22.48,9.156,9.156,0,0,1,13.9,13.324M21.5,22.48a7.594,7.594,0,1,0-7.595,7.6,7.595,7.595,0,0,0,7.595-7.6" transform="translate(3.113 9.018)" fill="#004b9e"/>
                    <path id="パス_7042-2" data-name="パス 7042" d="M13.265,14.249a7.6,7.6,0,1,1-7.593,7.595,7.595,7.595,0,0,1,7.593-7.595m6.129,7.595a6.129,6.129,0,1,0-6.129,6.136,6.129,6.129,0,0,0,6.129-6.136" transform="translate(3.751 9.655)" fill="#fff"/>
                    <path id="パス_7043-2" data-name="パス 7043" d="M12.668,15.117a6.132,6.132,0,1,1-6.129,6.129,6.129,6.129,0,0,1,6.129-6.129" transform="translate(4.348 10.252)" fill="#004b9e"/>
                  </g>
                </g>
              </g>
            </g>
          </g>
        </g>
      </g>
    </g>
  </g>
</svg>
