<svg xmlns="http://www.w3.org/2000/svg" xmlns:xlink="http://www.w3.org/1999/xlink" width="1040.818" height="728.829" viewBox="0 0 1040.818 728.829">
  <defs>
    <clipPath id="clip-path">
      <path id="パス_16877" data-name="パス 16877" d="M1248.774,193.4l-18.293,1.6L1203.7,292.584l-37.648,3.294,21.417-97.112-18.756,1.641,54.356-53.925ZM1153.453,333.73l43.857-3.837,4.747-18.79L1158.2,314.94Z" transform="translate(-1153.453 -146.482)" fill="none"/>
    </clipPath>
    <linearGradient id="linear-gradient" x1="-3.686" y1="3.548" x2="-3.683" y2="3.548" gradientUnits="objectBoundingBox">
      <stop offset="0" stop-color="#fabe00"/>
      <stop offset="1" stop-color="#fff100"/>
    </linearGradient>
    <clipPath id="clip-path-2">
      <rect id="長方形_2216" data-name="長方形 2216" width="1040.818" height="728.829" fill="none"/>
    </clipPath>
  </defs>
  <g id="グループ_3323" data-name="グループ 3323" transform="translate(0 0.003)">
    <path id="パス_16862" data-name="パス 16862" d="M642.987,763.566,631.8,875.989l-30.292,30.178,24.765,25.362-11.633,116.9-30.292,30.178-114.108,9.983-25.209-25.323,11.633-116.9,30.292-30.178-24.765-25.361L473.379,778.4l30.292-30.177,114.551-10.022Zm-66.255,33.325-43.068,3.768-7.284,6.853L519.2,879.623l5.992,6.136,43.068-3.768,7.328-7.3,7.176-72.111ZM562.781,937.083l-43.068,3.768-7.329,7.3-7.532,75.694,5.991,6.136,43.068-3.768,7.329-7.3,7.532-75.7Z" transform="translate(-250.72 -415.888)" fill="#fff100"/>
    <path id="パス_16863" data-name="パス 16863" d="M1105.652,723.088l-11.187,112.424-30.292,30.178,24.765,25.362-11.633,116.9-30.291,30.178-114.108,9.984L907.7,1022.79l11.633-116.9,30.292-30.178L924.857,850.35l11.187-112.423,30.292-30.178,114.551-10.022ZM1039.4,756.413l-43.068,3.768-7.284,6.853-7.176,72.111,5.992,6.135,43.068-3.768,7.328-7.3,7.176-72.112ZM1025.446,896.6l-43.068,3.768-7.329,7.3-7.532,75.694,5.991,6.136,43.068-3.768,7.329-7.3,7.532-75.695Z" transform="translate(-511.374 -393.084)" fill="#fff100"/>
    <path id="パス_16864" data-name="パス 16864" d="M1574.547,682.165,1546.2,967.029l-30.291,30.178-113.663,9.944-24.765-25.361,28.347-284.864,30.292-30.178,113.664-9.944Zm-66.255,33.325-42.623,3.729-6.84,6.814-21.617,217.231,5.592,5.727,42.624-3.729,7.284-6.854,21.616-217.231Z" transform="translate(-776.038 -370.029)" fill="#fff100"/>
    <path id="パス_16865" data-name="パス 16865" d="M109.927,430.7l6.814-14.233-38.165-4L68.237,434.346l-32.122,2.81,31.232-66.373,5.3-.463,26.826-2.347,41.69-3.648,31.267-2.735,7.005-.613-18.158,38.654,30.413,2.934-2.309,21.182-37.675-3.7-3.5,7.3ZM55.444,248.039l2.223-19.776,153.092-13.394-2.223,19.777-86.968,7.609-3.5,10.1,45.278-3.961,32.8-2.87-11.2,108.68-32.806,2.87-64.243,5.621-32.806,2.87,11.2-108.68,17.6-1.54,3.5-10.1Zm34.5,94.892,64.244-5.621.941-9.874-64.244,5.621ZM92.94,313.3l64.244-5.62,1.112-9.888-64.244,5.621ZM90.5,386.941l-2.35,5.1,38.165,4,5.875-12.753Zm6.548-113.168-.941,9.874,64.244-5.621.941-9.874Z" transform="translate(-20.346 -121.054)" fill="#fff100"/>
    <path id="パス_16866" data-name="パス 16866" d="M517.307,406.287l9.91-52.3-109.693,9.6.854-10.327L567.37,340.226l-11.79,62.713Zm-73.129,44.67,23.408-79.106,38.273-3.348L482.451,447.61Z" transform="translate(-235.223 -191.676)" fill="#fff"/>
    <path id="パス_16867" data-name="パス 16867" d="M1330.208,416.967l.514-6.21,32.057-2.8.308-7.836L1386.1,398.1l-.308,7.836,34.112-2.984-.514,6.21-33.8,2.957-.719,20.2,33.393-2.921-.514,6.21-33.085,2.894-.719,21.434-22.913,2,.72-21.434-33.188,2.9.514-6.21,32.879-2.877.617-20.192Z" transform="translate(-748.48 -224.283)" fill="#fff"/>
    <path id="パス_16868" data-name="パス 16868" d="M1550.171,452.466l.376-4.545,9.627-.842-.376-5.533,16.246-1.421.376,5.533,37-3.238-5.415,19.126-15.569,1.362,4.061-14.5-19.856,1.737,1.73,27.376-16.246,1.422-1.73-27.376Z" transform="translate(-873.327 -247.957)" fill="#fff"/>
    <path id="パス_16869" data-name="パス 16869" d="M1670.071,385.048l.514-6.21,32.057-2.8-.514,6.21Zm26.1,50.528,37.708-59.81,26.3-2.3-37.708,59.81Z" transform="translate(-940.876 -210.402)" fill="#fff"/>
    <path id="パス_16870" data-name="パス 16870" d="M1927.247,406.808,1895.91,364.65l-17.159,27.908-19.727,1.726,26.714-43.436,23.015-2.013,41.51,55.961Zm27.985-48.443-19.775,1.73,1.483-16.61,19.775-1.73Zm-7.348-9.652L1944.6,349l-.309,4.137,3.288-.287Z" transform="translate(-1047.327 -192.538)" fill="#fff"/>
    <path id="パス_16871" data-name="パス 16871" d="M2075.761,418.572l.513-6.21,54.542-4.771-.514,6.21Z" transform="translate(-1169.431 -229.628)" fill="#fff"/>
    <path id="パス_16872" data-name="パス 16872" d="M2177.914,334.452l-.514,6.21,32.057-2.8.515-6.21Zm63.292-3.072L2203.5,391.19l26.3-2.3,37.708-59.81Z" transform="translate(-1226.692 -185.396)" fill="#fff"/>
    <path id="パス_16873" data-name="パス 16873" d="M927.7,368.094l-100.331,8.778,2.221-11.812-38.273,3.349-9.4,51.4,38.273-3.348,5.3-29.168,26.85-2.349-19.136,81.638,38.274-3.349,18.794-81.607.024-.126,35.025-3.064Z" transform="translate(-440.515 -205.667)" fill="#fff"/>
    <path id="パス_16874" data-name="パス 16874" d="M1059.029,406.925l-5.613,24.372-21.015,1.838,5.715-24.381Z" transform="translate(-581.629 -229.253)" fill="#fff"/>
    <path id="パス_16875" data-name="パス 16875" d="M1118.946,401.683l-5.613,24.372-21.015,1.838,5.715-24.381Z" transform="translate(-615.384 -226.3)" fill="#fff"/>
    <g id="グループ_3320" data-name="グループ 3320" transform="translate(503.627 63.956)">
      <g id="グループ_3319" data-name="グループ 3319" clip-path="url(#clip-path)">
        <path id="パス_16876" data-name="パス 16876" d="M1111.811,333.623,1130,146.317l113.5.086-18.189,187.306Z" transform="translate(-1129.993 -146.389)" fill="url(#linear-gradient)"/>
      </g>
    </g>
    <path id="パス_16878" data-name="パス 16878" d="M1986.49,777.175l6.14-66.733-96.424,8.436-6.139,66.733-42.291,3.7,14.5-157.149,3.383-.3,38.908-3.4,96.424-8.436,42.291-3.7-14.5,157.149ZM1903.147,644.6l-5.524,58.138,27.912-2.442,5.313-58.12Zm96.424-8.436-28.123,2.461-5.313,58.119,27.912-2.442Z" transform="translate(-1040.99 -347.224)" fill="#fff"/>
    <path id="パス_16879" data-name="パス 16879" d="M25.982,1171.29,40.27,1075l9.312-.815,22.476-1.966,63.9-5.59,26.329-2.3,5.459-.478-8.509,95.787-31.788,2.781,2.89-31.72-67.91,5.942-4.656,31.874Zm37.888-44.414,67.268-5.885,1.605-17.479L66.6,1109.3Zm4.174-27.337,65.5-5.731,1.605-17.479-64.538,5.646Z" transform="translate(-14.638 -599.345)" fill="#fff"/>
    <path id="パス_16880" data-name="パス 16880" d="M19.732,1441.859l3.532-38.2,5.94-.519,18.462-1.616L63.4,1400.15l23.279-2.037,1.124-.1-3.532,38.2-4.334.379-20.068,1.756-15.733,1.376-21.674,1.9Zm21.192-41.027,4.013-6.612-23.6-.022.8-10.345,29.058.026,6.582-10.85-8.509.744-3.853,6.117L22.3,1381.912,32.575,1365.6l9.793-.857,13.325-1.166,8.348-.73,19.425-1.7,7.546-.66-14.288,23.566,16.215.026-.482,10.317-21.995,0-2.569,4.078Zm-15.894-37.14,1.285-14.24,21.834-1.91.963-.084.482-4.537,23.118-2.023-.482,4.537,1.605-.141,21.352-1.868.482-.042-1.284,14.24-21.834,1.91.482-4.537-25.687,2.247-.482,4.537ZM45.1,1430.008l15.733-1.377,1.605-18.764L46.7,1411.244Zm52.659-80.384.8-9.7,14.77-1.292,23.118-2.022,32.751-2.866-.8,9.7-34.517,3.02-1.927,7.875,9.793-.857,21.032-1.84,4.655-.407-5.78,64.724-3.371.3-1.445.126,4.334,13.106-23.118,2.023-4.334-13.106-13.325,1.166-8.67,14.244-23.118,2.023,8.67-14.245-1.285.113-3.051.267,5.78-64.723,1.766-.155,8.348-.73,1.927-7.875Zm21.673,60.395,17.339-1.517.963-9.717-17.339,1.517Zm1.766-19.42,17.339-1.517.8-8.418L122,1382.18Zm1.605-18.121,17.339-1.517.8-7.776L123.6,1364.7Z" transform="translate(-11.117 -751.397)" fill="#fff"/>
    <path id="パス_16881" data-name="パス 16881" d="M1483.4,213.928l10.71-41.572-41.808,3.658,6.423-69.882,3.353.31-6.051,65.866,42.532-3.721-8.449,32.8,31.128-34.78.664-.059,328.265-28.719.294,3.355-327.6,28.661Z" transform="translate(-818.192 -59.793)" fill="#fff"/>
    <path id="パス_16882" data-name="パス 16882" d="M1542.838,140.351l-6.6.578.313-3.5-7.967.7-.313,3.5-10.505.919-.2,2.322,10.506-.919-.39,4.8-10.193.892-1.133,12.518,18.2-1.592.859-10.19,6.053-.53-.937,10.2,7.03-.615,1.172-12.522-13.084,1.145.39-4.8,6.718-.588-.078,3.092,6.718-.588.234-8.261-6.717.588Zm-16.052,18.589-3.2.28.742-7.876,3.125-.273Z" transform="translate(-854.278 -77.131)" fill="#fff"/>
    <path id="パス_16883" data-name="パス 16883" d="M1608.757,125.731l-7.951,14.147,3.408-.3-1.016,11.807,10.044-.879L1614.8,132.8l4.484-7.985Z" transform="translate(-901.854 -70.316)" fill="#fff"/>
    <path id="パス_16884" data-name="パス 16884" d="M1642.294,137.12l21.284-1.862-.179,2.168-20.805,1.82-.3,3.613,20.805-1.82-.837,10.356,11-.962.837-10.357,3.587-.314.3-3.613-3.587.314.179-2.168,3.587-.314.3-3.613-35.871,3.138Z" transform="translate(-925.227 -73.448)" fill="#fff"/>
    <path id="パス_16885" data-name="パス 16885" d="M1648.319,161.751l2.272,6.019,9.566-.837-2.272-6.019Z" transform="translate(-928.622 -90.656)" fill="#fff"/>
    <path id="パス_16886" data-name="パス 16886" d="M1657.061,109.736l11.479-1,7.055-.617,3.467-.3,1.255-14.578-2.211.193-8.311.727-11.478,1-6.278.549-4.244.372-1.255,14.578,2.989-.262Zm.957-10.965,11.479-1-.18,1.809-11.478,1Zm-.479,5.422,11.479-1-.179,1.929-11.479,1Z" transform="translate(-927.619 -52.527)" fill="#fff"/>
    <path id="パス_16887" data-name="パス 16887" d="M1621.575,100.181l-11,.962-6.756,9.559,11-.962Z" transform="translate(-903.551 -56.441)" fill="#fff"/>
    <path id="パス_16888" data-name="パス 16888" d="M1756.583,126.985l-12.419,1.087,4.374-4.445,16.013-1.4.2-2.322-13.747,1.2,1.757-1.794-7.928.694-1.757,1.794-8.631.755-.2,2.322,6.327-.554-6.834,6.964L1748.42,130l-.118,1.3-12.732,1.66-.9,10.9,28.12-2.46.2-2.322-20.152,1.763.547-6.609,4.686-.605-.313,3.347,7.968-.7.351-3.663,9.334-1.207.2-2.321-9.334,1.207Z" transform="translate(-976.743 -67.22)" fill="#fff"/>
    <path id="パス_16889" data-name="パス 16889" d="M1833.037,81.559l-11.479,1-.419,4.52-5.261.461-.3,3.613,5.261-.46-1.016,11.926-5.32,1.063-.3,3.614,5.261-1.058-.777,8.857-3.826.334-.3,3.614,3.826-.335,10.821-.947.658-.058,1.2-13.855,3.468-.721.3-3.614-3.407.716.9-10.541,3.348-.293.3-3.613-3.348.293Z" transform="translate(-1022.077 -45.95)" fill="#fff"/>
    <path id="パス_16890" data-name="パス 16890" d="M1868.29,82.206l15.305-1.339-2.81,31.813,11.957-1.046,2.81-31.812,4.544-.4.3-3.613-31.806,2.783Z" transform="translate(-1052.547 -42.712)" fill="#fff"/>
    <path id="パス_16891" data-name="パス 16891" d="M1960.23,101.461l-8.592.752-.547,1.727-7.03.615-.2,2.321,6.444-.564-2.929,8.966,20.309-1.777-.7,8.029-19.84,1.736-.2,2.321,28.432-2.487,1.094-12.632-19.762,1.729,2.187-6.635,19.411-1.7.2-2.322-18.825,1.647Z" transform="translate(-1095.125 -57.162)" fill="#fff"/>
    <path id="パス_16892" data-name="パス 16892" d="M2067.471,0l-20.433,20.271,7.051-.617-11.42,40.412-14.9,1.3-.3,3.613,51.714-4.524.3-3.614L2058.3,58.7l5.73-19.393,13.951-1.221.3-3.613-13.162,1.151,5.136-17.383,6.876-.6Z" transform="translate(-1142.223 0)" fill="#fff100"/>
    <path id="パス_16893" data-name="パス 16893" d="M2206.636,79.265l-.352,3.858-1.25.109.352-3.858-1.68.147-.351,3.858-1.289.113.313-3.855-5.116.448-.312,2.879-10.467.916-.2,2.321,10.389-.909-2.07,17.99,7.967-.7,2.07-17.99,3.241-.284.117-1.338-.039,0,.351-3.858Z" transform="translate(-1231.699 -44.575)" fill="#fff"/>
    <path id="パス_16894" data-name="パス 16894" d="M2155.338,107.015l7.968-.7,1.719-19.873-7.968.7Z" transform="translate(-1214.263 -48.703)" fill="#fff"/>
    <path id="パス_16895" data-name="パス 16895" d="M2271.9,73.455l-25.776,2.255-.2,2.321,16.442-1.438-2.851,6.81-16.677,1.459-.2,2.321L2266,85.14l-.781,9.246-21.051,1.842-.2,2.321,29.6-2.59,1.21-13.892-6.678.584Z" transform="translate(-1263.451 -41.384)" fill="#fff"/>
    <path id="パス_16896" data-name="パス 16896" d="M2348.2,60.952l-10.133.887-1.031,20.267,8.7-.761Z" transform="translate(-1316.629 -34.34)" fill="#fff"/>
    <path id="パス_16897" data-name="パス 16897" d="M2333.957,119.556l10.134-.887.314-3.39-10.134.886Z" transform="translate(-1314.892 -64.947)" fill="#fff"/>
    <path id="パス_16898" data-name="パス 16898" d="M652.962,968.044l5.644-20.191,6.826-.606-5.644,20.191Zm21.527-1.912-2.756-19.445,6.826-.606,2.756,19.445Zm11.773-18.9-6.562.583.492-5.512,6.562-.583Zm-1.741-4.058-2.365.21-.222,2.977,2.365-.21Z" transform="translate(-367.862 -530.541)" fill="#fff"/>
    <path id="パス_16899" data-name="パス 16899" d="M625.126,1286.327l.164-1.984,10.665-.947.82-5.652-10.731,1.15.164-1.984,27.828-3-.164,1.984-9.747,1.063-.82,5.783,10.469-.93-.164,1.984-10.6.942-1.411,9.97-7.318.65,1.411-9.97Z" transform="translate(-352.18 -717.693)" fill="#fff"/>
    <path id="パス_16900" data-name="パス 16900" d="M1115.627,927.566l5.644-20.191,6.826-.606-5.644,20.191Zm21.528-1.912-2.757-19.445,6.826-.607,2.756,19.445Zm11.773-18.9-6.562.583.492-5.512,6.562-.583Zm-1.742-4.058-2.365.21-.222,2.977,2.365-.21Z" transform="translate(-628.516 -507.737)" fill="#fff"/>
    <path id="パス_16901" data-name="パス 16901" d="M1087.791,1245.849l.164-1.984,10.665-.948.821-5.652-10.731,1.15.164-1.984,27.828-3-.164,1.984-9.747,1.063-.82,5.783,10.469-.93-.164,1.984-10.6.942-1.411,9.97-7.318.65,1.411-9.97Z" transform="translate(-612.834 -694.889)" fill="#fff"/>
    <path id="パス_16902" data-name="パス 16902" d="M13.227,770.985,0,881.412l165.011-14.437,26.9,34.7-8.774-47.492,11.813-99.094Z" transform="translate(0 -425.399)" fill="#fc13e2"/>
    <path id="パス_16903" data-name="パス 16903" d="M22.061,1639.607l-.084,3.751,2.966-.26.084-3.751ZM16.69,1633.1l-.084,3.751,2.966-.26.084-3.752Zm11.055-.967-.084,3.751,2.966-.26.084-3.751Zm-5.371-6.508-.084,3.751,2.965-.26.085-3.751Zm1.319,7.2-5.895-7.142-1.247,1.64,5.894,7.142-6.238,8.2,1.178,1.428,6.239-8.2,5.894,7.142,1.248-1.641-5.895-7.142,6.238-8.2-1.178-1.428Z" transform="translate(-9.131 -915.273)" fill="#fff"/>
    <path id="パス_16904" data-name="パス 16904" d="M72.31,1638.49l2.467-15.1,1.581-.138,3.438-.3L90.612,1622l4.416-.386.4-.036-.83,9.037-1.028.09-3.789.332-11.468,1-.986,6.01Zm1.554-16.861.169-1.916,22.484-1.967-.168,1.916Zm16.579,2.287-10.966.959-.844,5.237,11.317-.99Z" transform="translate(-40.738 -911.399)" fill="#fff"/>
    <path id="パス_16905" data-name="パス 16905" d="M142.429,1627.775l.165-1.788,4.617-.4.1-1.054-3.588.314.165-1.788,3.589-.314.1-1.15-3.588.314.165-1.788,3.588-.314.1-1.212-4.517.4.166-1.788,4.517-.4.1-1.308-3.613.316.165-1.788,3.614-.316.065-.671,4.818-.422-.065.671,1.129-.1,3.689-.323.326-.028-.295,3.1.9-.079-.166,1.788-.9.079-.268,3-.351.031-3.664.321-1.1.1-.1,1.15,5.571-.487-.165,1.788-5.571.487-.1,1.054,5.972-.522-.166,1.788-5.947.521-.165,1.756,5.955.239-.2,2.172-17.292-.641-.678,2.34-4.417.387.841-2.893-.725-.032.2-2.172,1.15.058,1.522-5.3-.9.08-1.029.09,2.029-6.766-1.731.151.168-1.916,2.133-.187,4.09-.358.326-.029-2.029,6.766,1.932-.168-2.253,7.768,6.156.253.1-1.181Zm11.337-9.7-1.1.1-.1,1.213,1.1-.1Zm.3-3.1-1.13.1-.1,1.307,1.1-.1Z" transform="translate(-76.109 -908.507)" fill="#fff"/>
    <path id="パス_16906" data-name="パス 16906" d="M199.6,1629.928l1.662-18.264,5.52-.484-1.687,18.266Zm8.591-2.24.178-2.36,11.987.44-.2,2.361Zm1.558-13.662.142-1.881,11.017-.964-.143,1.882Z" transform="translate(-112.452 -907.7)" fill="#fff"/>
    <path id="パス_16907" data-name="パス 16907" d="M262.85,1608.81l.167-1.884,6.75-.591.265-2.843,5.119-.448-.264,2.843,4.241-.371.1-2.321,4.316-.378-.3,6.71-4.317.378.106-2.511-4.316.377-.337,3.894,8.406-.735-.979,10.158-4.517.4.786-8.273-3.89.341-.736,8.268-11.693,1.023.954-10.156,6.55-.573.338-3.894Zm5.651,11.574.569-6.385-2.008.176-.619,6.389Z" transform="translate(-147.468 -902.989)" fill="#fff"/>
    <path id="パス_16908" data-name="パス 16908" d="M323.767,1607.2l3.527-9.843,4.416-.386-1.9,5.3-1.265,13.985-4.216.369.865-9.547Zm6.914,8.866.169-1.915,4.969-.434.6-6.514-4.341.38.168-1.915,4.366-.382.462-4.982-4.943.433.167-1.915,4.894-.428-.183-1.885,5.019-.439.183,1.885.05,0,4.818-.422-.168,1.915-4.818.422-.462,4.982,4.191-.367-.169,1.915-4.215.368-.6,6.514,4.793-.419-.168,1.915-4.793.419-5.019.439Z" transform="translate(-182.402 -899.186)" fill="#fff"/>
    <path id="パス_16909" data-name="パス 16909" d="M389.052,1596.43l.168-1.884,9.611-.84.133-1.469,5.119-.448-.133,1.468,5.646-.494-.167,1.884-5.647.494-.264,2.874,5.621-.492-.168,1.884-5.621.492-.33,3.545,5.922-.518-.166,1.852-5.922.518-.469,5.268-14.078,1.232.66-7.121,8.933-.781.331-3.545-9.636.843.168-1.884,9.636-.843.265-2.874Zm8.381,12.7.3-3.384-3.814.334-.327,3.386Z" transform="translate(-218.762 -896.776)" fill="#fff"/>
    <path id="パス_16910" data-name="パス 16910" d="M448.678,1608.012,450.309,1590l5.294-.463-1.463,16.124,2.635-.231-.167,1.884Zm15.4-3.216.991-15.164,5.294-.463-.965,15.163Z" transform="translate(-252.774 -895.299)" fill="#fff"/>
    <path id="パス_16911" data-name="パス 16911" d="M511.408,1601.447l1.7-17.887,20.476-1.792-1.678,17.886-4.919.43,1.461-16-2.861.251-2.615,16.1Zm9.29-16.682-2.861.251-1.343,14.118,1.907-.167Z" transform="translate(-288.114 -891.13)" fill="#fff"/>
    <path id="パス_16912" data-name="パス 16912" d="M574.36,1579.716l.168-1.916,8.532-.746.162-1.661,5.22-.457-.162,1.661,8.607-.753-.194,1.917-12.045,1.054-1.367,4.017,6.7-.586,4.291-.376.929-.081-1.037,11.652-5.219.456.87-9.737-7.2.63-3.429,9.961-5.219.456,5.467-15.936Z" transform="translate(-323.356 -887.281)" fill="#fff"/>
    <path id="パス_16913" data-name="パス 16913" d="M636.789,1574.8l.168-1.884,3.764-.33.629-2.4,5.119-.448-.629,2.4,8.055-.7-1.471,16.442-5.119.448,1.3-14.558-3.287.288-3.913,14.786-5.119.448,3.913-14.787Zm17.8,10.543.245-13.2,1.129-.1.3-3.13,1.079-.095-.27,3.128.778-.068.3-3.131,1.079-.094-.3,3.13-.928.082-.221,13.2Z" transform="translate(-358.469 -883.745)" fill="#fff"/>
    <path id="パス_16914" data-name="パス 16914" d="M697.642,1569.211l.168-1.916,3.438-.3.266-2.938,4.417-.386-.266,2.938,3.488-.3-.168,1.915-1.1.1-3.029,6.632,3,1.48-.229,2.427-3.691-1.83-2.766,6.07-4.618.4,3.742-8.246-2.279-1.131.229-2.428,3,1.48,2.028-4.453-2.184.191Zm10.989,9.206.476-7.8,3.211-.281-.475,7.8Zm1.056-10.26.169-1.916,4.818-.421.266-2.938,4.818-.422-.266,2.938.9-.079-.168,1.916-.9.078-1.3,14.3-4.819.421,1.3-14.3Z" transform="translate(-392.416 -880.253)" fill="#fff"/>
    <path id="パス_16915" data-name="パス 16915" d="M768.209,1577.776l.13-1.341-8.254,1.8.223-2.173,8.205-1.795.1-1.149-8.1,1.786.171-2.042,8.13-1.788.1-1.18-8.832,1.881.169-1.915,13.011-2.785-4.141.362-3.363.294-4.517.4.469-5.236.476-.042,1.981-3.468.176-.015,4.643-.406,7.528-.659,3.187-.278,1.631-.143-1.83,3.454,2.911-.255.025,0-.468,5.236-4.517.4-1.229.107-.135,1.533-2.189.476-.067.734,2.911-.255.753,1.043,1.771-1.9,3.011-.264-3.567,3.829,3.254,4.562-5.019.439-3.376-4.677-.438,5.012Zm1.077-12.258.131-1.405-3.362.294-.131,1.405Zm-1.45-4.561-.834,1.466,2.584-.226,4.919-.43.175-.015.784-1.463Zm9.781,3.832.132-1.406-3.413.3-.131,1.405Z" transform="translate(-428.209 -877.67)" fill="#fff"/>
    <g id="グループ_3322" data-name="グループ 3322" transform="translate(0 -0.003)">
      <g id="グループ_3321" data-name="グループ 3321" clip-path="url(#clip-path-2)">
        <path id="パス_16916" data-name="パス 16916" d="M60.641,838.72l-4.075.353,1.176-9.46a50.824,50.824,0,0,1-8.094,4.078l-1.5-3.177A47.217,47.217,0,0,0,66.6,817.893l3.087,2.055a57.971,57.971,0,0,1-7.541,6.681Z" transform="translate(-27.125 -460.779)" fill="#fff100"/>
        <path id="パス_16917" data-name="パス 16917" d="M106.031,825.727A24.08,24.08,0,0,0,99,822.771l2.1-3.372a24.818,24.818,0,0,1,7.368,2.716ZM98.006,834.4c8.139-1.384,14.209-4.631,18.262-15.3l3.069,2.009c-4.506,10.686-10.876,15.2-20.976,17.3Z" transform="translate(-55.214 -461.456)" fill="#fff100"/>
        <path id="パス_16918" data-name="パス 16918" d="M147.467,820.312a19.38,19.38,0,0,0,7.024-7.48l13.638-1.18a27.1,27.1,0,0,1-6.173,13.036,28.278,28.278,0,0,1-12.62,8.058L147.77,829.5a24.06,24.06,0,0,0,10.111-5.613,24.058,24.058,0,0,0-5.364-3.194,20.853,20.853,0,0,1-2.866,2.265Zm9.161-4.264c-.485.652-.739.978-1.6,2.015a21.706,21.706,0,0,1,5.454,2.859,18.181,18.181,0,0,0,2.548-5.427Z" transform="translate(-83.079 -457.263)" fill="#fff100"/>
        <path id="パス_16919" data-name="パス 16919" d="M205.584,825.85l-.486,3.912-11.686,1.011.486-3.912Z" transform="translate(-108.963 -465.262)" fill="#fff100"/>
        <path id="パス_16920" data-name="パス 16920" d="M234.809,804.495l3.835-.332-.339,2.727,6.088-.527-.4,3.2a59.158,59.158,0,0,1-6.79,6.169l-1.082,8.7-3.835.332.778-6.259a50.558,50.558,0,0,1-7.31,3.494l-1.424-3.231a37.587,37.587,0,0,0,14.74-8.523l-12.088,1.117.439-3.533,7.047-.609Zm8.834,16.287a22.1,22.1,0,0,0-5.871-3.5l2.484-3.006a22.1,22.1,0,0,1,5.867,2.963Z" transform="translate(-126.384 -453.044)" fill="#fff100"/>
        <path id="パス_16921" data-name="パス 16921" d="M279.464,818.786a20.883,20.883,0,0,0-1.15-5.811l3.12-1.067a21.483,21.483,0,0,1,1.36,5.839Zm-.966,5.478c8.424-2.535,11.177-5.8,13.728-14.112l3.606.556c-1.88,5.393-4.576,12.78-15.243,16.19Zm6.455-7.1a24.662,24.662,0,0,0-.941-5.782l3.093-.854a19.281,19.281,0,0,1,1.049,5.679Z" transform="translate(-156.795 -456.418)" fill="#fff100"/>
        <path id="パス_16922" data-name="パス 16922" d="M335.613,810.755a33.961,33.961,0,0,0-8.488-4l-1.341,10.788-4.123.357,2.515-20.224,4.123-.357-.681,5.477a42.869,42.869,0,0,1,10.523,3.851Z" transform="translate(-181.216 -449.186)" fill="#fff100"/>
        <path id="パス_16923" data-name="パス 16923" d="M360.548,814.272a34.717,34.717,0,0,0,4.277-9.289l-2.685.252.364-2.927,3.137-.271c.359-1.479.511-2.226.735-3.4l3.206-.046c-.284,1.183-.545,2.19-.805,3.178l1.186-.122c3.084-.325,3.927,1.378,3.478,4.988-.189,1.522-.81,5.263-2.1,6.822a4.451,4.451,0,0,1-3.259,1.73,8.311,8.311,0,0,1-1.946-.044l.253-2.975a6.029,6.029,0,0,0,1.394.092,2.006,2.006,0,0,0,1.785-1.487,20.376,20.376,0,0,0,.983-4.139c.148-1.19.276-2.225-1.442-2.056l-1.186.122c-.637,2.14-2.539,7.71-4.676,10.926Zm14.406-4.741c.2-3.318-.106-5.743-1.772-7.877l2.224-1.563a12.712,12.712,0,0,1,2.64,8.748Zm2.1-11.726a12.824,12.824,0,0,1,1.938,3.249l-1.482,1.093a11.929,11.929,0,0,0-1.849-3.334Zm2.261-1.547a12.529,12.529,0,0,1,1.935,3.269l-1.482,1.094a11.923,11.923,0,0,0-1.849-3.334Z" transform="translate(-203.124 -448.59)" fill="#fff100"/>
        <path id="パス_16924" data-name="パス 16924" d="M70.644,884.359l8.092-.7-6.351,51.082-9.116.789,5.15-41.423L60.1,900.052l-.1-8.227Z" transform="translate(-33.805 -497.83)" fill="#fff100"/>
        <path id="パス_16925" data-name="パス 16925" d="M169.191,879.833l-.956,7.684-16.183,1.4-.637,5.122,14.457-1.251-.929,7.471-14.457,1.251-.882,7.1,18.071-1.564-.955,7.684-18.071,1.564-1.4,11.259-8.307.719,1.4-11.259-24.651,2.134.955-7.684,7.282-.63,1.479-11.9c-1.029.987-1.925,1.75-3.116,2.751l-4.411-6.586A41.4,41.4,0,0,0,130.842,878.4l8.275.392c-.537,1.313-.765,1.861-1.7,3.789Zm-36.665,10.775c-.323.45-1.809,2.532-4.359,5.445l14.942-1.293.637-5.123Zm9.654,11.622-9.332.808-.882,7.1,9.332-.808Z" transform="translate(-65.177 -494.868)" fill="#fff100"/>
        <path id="パス_16926" data-name="パス 16926" d="M257.051,868.209l22.116-1.914L276.6,886.945,262.089,888.2l-3.51,28.228-7.605.658Zm6.922,4.838-.305,2.455,7.066-.612.305-2.455Zm-.882,7.1-.312,2.508,7.066-.612.312-2.508Zm24.871,26.141,2.643-.228c1.619-.14,1.718-.94,1.837-1.9l2.336-18.783-14.888,1.289,2.567-20.651,22.6-1.956-5.367,43.169c-.7,5.656-5.187,6.1-5.511,6.125l-10.357.9-.253-4.834L263.4,911.156l2.6-20.918,24.22-2.1ZM272.6,895.1l-.312,2.508,9.6-.831.312-2.508Zm-.856,6.884-.332,2.668,9.6-.831.332-2.668Zm17.477-31.126-.305,2.455,7.444-.644.305-2.455Zm-.882,7.1-.312,2.508,7.444-.644.312-2.508Z" transform="translate(-141.392 -486.785)" fill="#fff100"/>
      </g>
    </g>
  </g>
</svg>
