<?xml version="1.0" encoding="utf-8"?>
<!-- Generator: Adobe Illustrator 26.4.1, SVG Export Plug-In . SVG Version: 6.00 Build 0)  -->
<svg version="1.1" id="レイヤー_1" xmlns="http://www.w3.org/2000/svg" xmlns:xlink="http://www.w3.org/1999/xlink" x="0px"
	 y="0px" viewBox="0 0 138 170" style="enable-background:new 0 0 138 170;" xml:space="preserve">
<style type="text/css">
	.st0{fill:#FDD000;}
</style>
<g id="hero_catch02_sp" transform="translate(-0.001)">
	<g>
		<g id="グループ_4618" transform="translate(0.001)">
			<path id="パス_20678" class="st0" d="M18.7,15.5l0.2-1.4c0.1-0.9,0.9-1.6,1.8-1.7l30.6-0.5c0.7,0,1.3,0.6,1.3,1.3
				c0,0.1,0,0.2,0,0.3L52.4,15c-0.1,0.9-0.9,1.6-1.8,1.7L20,17.2c-0.7,0-1.3-0.6-1.3-1.3C18.6,15.7,18.6,15.6,18.7,15.5"/>
			<path id="パス_20679" class="st0" d="M20.8,71.3l0.2-1.4c0.1-0.9,0.9-1.6,1.8-1.7l30.6-0.5c0.7,0,1.3,0.6,1.3,1.3
				c0,0.1,0,0.2,0,0.3l-0.2,1.4c-0.1,0.9-0.9,1.6-1.8,1.7l-30.6,0.5c-0.7,0-1.3-0.6-1.3-1.3C20.7,71.5,20.8,71.4,20.8,71.3"/>
			<path id="パス_20680" class="st0" d="M85.4,77.9l0.2-1.4c0.1-0.9,0.9-1.6,1.8-1.7l30.6-0.5c0.7,0,1.3,0.6,1.3,1.3
				c0,0.1,0,0.2,0,0.3l-0.2,1.4c-0.1,0.9-0.9,1.6-1.8,1.7l-30.6,0.5c-0.7,0-1.3-0.6-1.3-1.3C85.4,78.1,85.4,78,85.4,77.9"/>
			<path id="パス_20681" class="st0" d="M105.2,4.2l12.6-0.2c0.8,0.1,1.5,0.8,1.4,1.7c0,0.4-0.3,0.9-0.6,1.1
				c-2.6,2.1-4.4,5.1-5.2,8.4C111.8,22.6,105.2,4.2,105.2,4.2"/>
			<path id="パス_20682" class="st0" d="M101.5,63.1l0.2-1.4c0.1-0.9,0.9-1.6,1.8-1.7l8-0.1v-18c0-1.2-0.9-2.1-2.1-2.1h-30
				c-1.2,0-1.3-0.6-0.4-1.3l9.4-9.6c0.7-0.9,1.3-0.8,1.4,0.4l0.5,5.3c0.2,1.2,1.1,2.1,2.3,2.3c0,0,6.4,0.4,9.7,0.4s5.6-0.7,7-2.1
				c1.4-1.4,2.5-4.4,3.1-8.9c0.7-4.5,0.9-19.9,0.9-19.9c0-1.1-0.9-2.1-2-2.1c0,0,0,0,0,0H73c-1.2,0-2.1,0.9-2.1,2.1V14
				c0,1.2,0.9,2.1,2.1,2.1h6.4c0.6-0.1,1.2,0.3,1.3,1c0.1,0.3,0,0.7-0.2,0.9c-0.9,2-2.2,3.9-3.8,5.5c-1.6,1.8-3.3,3.4-5.1,4.9
				c-0.9,0.7-1.7,0.9-1.7,0.4c0-0.5-0.9-0.8-2.1-0.8h-8.1c-1.2,0-2.1-1-2.1-2.1v-3.3c0-1.2,0.9-2.1,2.1-2.1H67c1.2,0,2.1-1,2.1-2.1
				v-7.7c0-1.2-0.9-2.1-2.1-2.1h-7.3c-1.2,0-2.1-1-2.1-2.1V2.1C57.6,1,56.6,0,55.5,0H45.4c-1.2,0-2.1,1-2.1,2.1v4.2
				c0,1.2-0.9,2.1-2.1,2.1h-8.9c-1.2,0-2.1,1-2.1,2.1v7.7c0,1.2,0.9,2.1,2.1,2.1h8.9c1.2,0,2.1,1,2.1,2.1v3.3c0,1.2-0.9,2.1-2.1,2.1
				h-11C29,28,28,29,28,30.1v8c0,1.2,0.9,2.1,2.1,2.1h13.7c1.2,0,2.1,1,2.1,2.1v21.8c0,1.2-1.9,0.2-2.5-0.5c-0.6-1-0.9-2.2-0.8-3.3
				l0.7-13c0-1.2-0.8-2.2-2-2.3l-7.9-0.8c-1.1-0.1-2.1,0.7-2.2,1.8c0,0,0,0,0,0.1l-4.4,34.7c-0.2,1.2,0.4,2.4,1.5,2.9l7.8,3.5
				c0.8,0.4,1.8,0.1,2.2-0.8c0.1-0.1,0.1-0.3,0.1-0.4l1.7-8.5c0-0.7,0.6-1.2,1.3-1.2c0.3,0,0.6,0.1,0.8,0.3c0,0,8.7,6.2,15.8,7.7
				c7.1,1.6,30.2,2.3,30.2,2.3c1.2,0,3.1,0.1,4.2,0.1h18.7c1.2,0,2.1-0.9,2.2-2.1l0.5-8.1c0.1-1.1-0.7-2-1.8-2.1c-0.1,0-0.1,0-0.2,0
				H92.5c-1.2,0-3.1,0-4.2-0.1l-26.7-1.6c-1.2-0.2-2.1-1.2-2.1-2.4v-7.5c0-1.2,0.9-2.1,2.1-2.1h5.7c1.2,0,2.1-1,2.1-2.1V51
				c0-1.2-0.9-2.1-2.1-2.1h-5.7c-1.2,0-2.1-1-2.1-2.1v-4.3c0-1.2,0.9-2.1,2.1-2.1h6.2c1.2,0,2.1-1,2.1-2.1v-4.2c0-1.2,0.5-1.3,1-0.3
				l2.3,4.3c0.6,1,0.4,1.9-0.3,1.9s-1.3,1-1.3,2.1v25.6c0,1.2,0.9,2.1,2.1,2.1h35.7c1.2,0,2.1-1,2.1-2.1v-2.8l-8.8,0.1
				c-0.7,0-1.3-0.6-1.3-1.3C101.5,63.3,101.5,63.2,101.5,63.1 M91.2,23.7l1.6-5.5c0.3-1.2,1.4-2,2.6-2.1h2.2c1.1,0,2,0.9,2,2.1
				c0,0,0,0,0,0.1c0,2.1-0.2,4.1-0.5,6.1c-0.3,1.1-1.3,1.8-2.4,1.7c-0.8,0-4.2-0.3-4.2-0.3c-0.8,0-1.5-0.7-1.5-1.6
				C91.1,24.1,91.1,23.9,91.2,23.7 M97.8,56.9c0,1.2-0.9,2.1-2.1,2.1h-8.8c-1.2,0-2.1-1-2.1-2.1v-4.7c0-1.2,0.9-2.1,2.1-2.1h8.8
				c1.2,0,2.1,1,2.1,2.1L97.8,56.9z"/>
			<path id="パス_20683" class="st0" d="M0,133.5l0.2-1.5c0.1-1,0.9-1.7,1.9-1.8l16.1-0.1c0.8,0,1.4,0.6,1.4,1.4
				c0,0.1,0,0.2,0,0.3l-0.2,1.5c-0.1,1-0.9,1.7-1.9,1.8l-16.1,0.1c-0.8,0-1.4-0.6-1.4-1.4C0,133.7,0,133.6,0,133.5"/>
			<path id="パス_20684" class="st0" d="M123.5,134.7l0.2-1.1c0.1-0.7,0.7-1.3,1.4-1.3l11.8-0.1c0.6,0,1.1,0.5,1.1,1
				c0,0.1,0,0.2,0,0.3l-0.2,1.1c-0.1,0.7-0.7,1.3-1.4,1.3l-11.8,0.1c-0.6,0-1.1-0.5-1.1-1C123.5,134.9,123.5,134.8,123.5,134.7"/>
			<path id="パス_20685" class="st0" d="M88.8,126.7l0.2-1.1c0.1-0.7,0.7-1.3,1.4-1.3l11.8-0.1c0.6,0,1.1,0.5,1.1,1
				c0,0.1,0,0.2,0,0.3l-0.2,1.1c-0.1,0.7-0.7,1.3-1.4,1.3L89.8,128c-0.6,0-1.1-0.5-1.1-1C88.8,126.9,88.8,126.8,88.8,126.7"/>
			<path id="パス_20686" class="st0" d="M120,119.6l7.4-0.1c0.5,0,0.9,0.5,0.8,1c0,0.3-0.2,0.5-0.4,0.7c-1.5,1.3-2.6,3-3.1,4.9
				C123.9,130.4,120,119.6,120,119.6"/>
			<path id="パス_20687" class="st0" d="M70.1,168.8l7.4,0.1c0.5,0,0.9-0.5,0.8-1c0-0.3-0.2-0.5-0.4-0.7c-1.5-1.3-2.6-3-3.1-4.9
				C74,158,70.1,168.8,70.1,168.8"/>
			<path id="パス_20688" class="st0" d="M6.3,127.4h17.2c0.5,0,0.9,0.4,0.9,0.9l0,0v23.5c0,0.2,0.1,0.4,0.1,0.5
				c1,1.7,2.4,3,4.1,3.9c1.7,0.8,4.6,1.4,8.6,1.8c4.1,0.4,10.4,0.6,18.9,0.6h18.2c0.5,0,0.9,0.4,0.9,0.9c0,0,0,0,0,0.1l-0.5,8.2
				c0,0.5-0.4,0.9-0.9,0.9H56.1c-10.4,0-18.4-0.5-23.9-1.5c-5.1-0.9-9-2.5-11.7-4.6c-0.3-0.3-0.8-0.3-1.2,0
				c-2.8,2.3-5.7,4.5-8.9,6.7c-0.4,0.3-1,0.2-1.3-0.3c0,0,0,0,0,0l-4.6-7.8c-0.2-0.4-0.1-1,0.3-1.3c2.7-1.8,5.3-3.6,7.7-5.4
				c0.2-0.2,0.4-0.5,0.4-0.7v-15.5c0-0.5-0.4-0.9-0.9-0.9c0,0,0,0,0,0H6.3c-0.5,0-0.9-0.4-0.9-0.9l0,0v-8.1
				C5.4,127.8,5.8,127.4,6.3,127.4C6.3,127.4,6.3,127.4,6.3,127.4 M26.7,114.1l-6.4,6.8c-0.3,0.4-0.9,0.4-1.3,0c0,0,0,0,0,0
				c-4-4.1-8.3-8.2-12.9-12.2c-0.4-0.3-0.4-0.9-0.1-1.3c0,0,0,0,0.1-0.1l6.4-6.2c0.4-0.3,0.9-0.3,1.3,0c2.8,2.7,5.7,5.5,8.5,8.4
				c0.4,0.4,0.9,0.4,1.3,0c0.2-0.2,0.3-0.4,0.3-0.7v-5c0-0.5,0.4-0.9,0.9-0.9c0,0,0,0,0,0H43c0.5,0,0.9-0.4,0.9-0.9v-2.7
				c0-0.5,0.4-0.9,0.9-0.9l0,0h10.3c0.5,0,0.9,0.4,0.9,0.9l0,0v2.7c0,0.5,0.4,0.9,0.9,0.9l0,0h16.5c0.5,0,0.9,0.4,0.9,0.9
				c0,0,0,0,0,0v7.9c0,0.5-0.4,0.9-0.9,0.9c0,0,0,0,0,0H57.6c-0.8,0-1.5,0.7-1.5,1.6c0,0.8,0.7,1.5,1.5,1.5h13.8
				c0.5,0,0.9,0.4,0.9,0.9c0,0,0,0,0,0v20.8c0,0.5-0.4,0.9-0.9,0.9c0,0,0,0,0,0h-7.9c-0.5,0-0.9,0.4-0.9,0.9c0,0.3,0.2,0.6,0.4,0.8
				c3.6,2.3,7.3,4.4,11.2,6.1c0.5,0.2,0.7,0.7,0.5,1.2c0,0,0,0.1,0,0.1l-4.2,7.8c-0.2,0.4-0.8,0.6-1.2,0.4c-4.1-2.1-8-4.7-11.7-7.6
				c-0.4-0.3-1-0.3-1.3,0.1c-0.1,0.2-0.2,0.4-0.2,0.6v7c0,0.5-0.4,0.9-0.9,0.9l0,0H44.8c-0.5,0-0.9-0.4-0.9-0.9l0,0v-6.3
				c0-0.5-0.4-0.9-0.9-0.9c-0.2,0-0.4,0.1-0.6,0.2c-3.4,2.7-7,5-10.8,7c-0.4,0.2-1,0.1-1.2-0.3l-4.9-7.9c-0.3-0.4-0.1-1,0.3-1.3
				c0,0,0.1-0.1,0.1-0.1c5.1-2,10-4.6,14.5-7.7H28.5c-0.5,0-0.9-0.4-0.9-0.9l0,0v-20.8c0-0.5,0.4-0.9,0.9-0.9h0h13.9
				c0.8,0,1.5-0.6,1.6-1.5c0-0.8-0.6-1.6-1.5-1.6c0,0-0.1,0-0.1,0h-17l0.7,0.7L26.7,114.1 M39.1,130.9H43c0.5,0,0.9-0.4,0.9-0.9l0,0
				v-5c0-0.5-0.4-0.9-0.9-0.9l0,0h-3.9c-0.5,0-0.9,0.4-0.9,0.9l0,0v5C38.1,130.5,38.5,130.9,39.1,130.9L39.1,130.9 M57,130.9h3.6
				c0.5,0,0.9-0.4,0.9-0.9c0,0,0,0,0,0v-5c0-0.5-0.4-0.9-0.9-0.9c0,0,0,0,0,0H57c-0.5,0-0.9,0.4-0.9,0.9c0,0,0,0,0,0v5
				C56.1,130.5,56.5,130.9,57,130.9C57,130.9,57,130.9,57,130.9"/>
			<path id="パス_20689" class="st0" d="M102.6,158c-1.2,0.8-2.7,1.3-4.1,1.4c-1.1-0.1-1.8-1.3-2.1-3.4c-0.4-2.8-0.5-5.6-0.5-8.4
				c0-2.7,0.1-5.6,0.2-8.8c0.1-3.2,0.1-6.2,0.2-9.1c0.1-2.9,0.2-5.3,0.3-7.1c0-0.4,0-0.8,0.1-1.2c0-0.9-0.7-1.7-1.6-1.8
				c0,0-0.1,0-0.1,0h-6.4c-0.9,0-1.6,0.7-1.7,1.6c0,0.4,0,1-0.1,1.6c-0.1,2.1-0.1,4.7-0.2,7.9c-0.1,3.2-0.1,6.5-0.1,9.9
				c0,3.4,0,6.6,0,9.4c0,6.9,0.9,12,2.8,15.4c1.6,3.2,4.9,5,8.4,4.6c2-0.2,4-0.7,5.8-1.6c1.4-0.6,2.6-1.4,3.8-2.4
				c0.3-0.3,0.6-0.5,0.8-0.7c0.4-0.3,0.6-0.8,0.6-1.3v-10.1c-0.1,0-0.7,0.5-1.9,1.4C105.4,156.3,104,157.2,102.6,158"/>
			<path id="パス_20690" class="st0" d="M120.2,138.4l0.2-1.1c0.1-0.7,0.7-1.3,1.4-1.3l4.8,0c-0.4-3.7-1.1-7.4-1.9-11.1
				c-0.9-3.5-1.3-5.3-1.4-5.3h-7.8c-0.9,0-1.7,0.7-1.7,1.7c0,0.2,0,0.3,0.1,0.5c0.9,3.1,1.7,6.2,2.2,9.4c0.7,4.3,1.3,8.6,1.7,13
				c0.4,4.4,0.6,8.4,0.8,12.1c0.1,3.7,0.2,6.7,0.1,8.9c0,0.7,0,1.3,0,1.8c0,0.9,0.7,1.7,1.7,1.7c0,0,0,0,0,0h6.2
				c0.9,0,1.7-0.8,1.7-1.7c0.2-8.7-0.2-17.3-1-26c-0.1-0.5-0.1-0.9-0.2-1.4l-5.8,0c-0.6,0-1.1-0.5-1.1-1
				C120.2,138.6,120.2,138.5,120.2,138.4"/>
		</g>
	</g>
</g>
</svg>
