<?xml version="1.0" encoding="utf-8"?>
<!-- Generator: Adobe Illustrator 26.4.1, SVG Export Plug-In . SVG Version: 6.00 Build 0)  -->
<svg version="1.1" id="レイヤー_1" xmlns="http://www.w3.org/2000/svg" xmlns:xlink="http://www.w3.org/1999/xlink" x="0px"
	 y="0px" viewBox="0 0 304 114" style="enable-background:new 0 0 304 114;" xml:space="preserve">
<style type="text/css">
	.st0{fill:#FDD000;}
</style>
<g id="hero_catch02_pc" transform="translate(0 -0.001)">
	<path id="パス_20605" class="st0" d="M132.6,68l0.3-1.9c0.2-1.2,1.2-2.2,2.4-2.2l20-0.1c1,0,1.8,0.8,1.8,1.7c0,0.1,0,0.3,0,0.4
		l-0.3,1.9c-0.2,1.2-1.2,2.1-2.4,2.2l-20,0.1c-1,0-1.8-0.8-1.8-1.8C132.5,68.3,132.5,68.1,132.6,68"/>
	<path id="パス_20606" class="st0" d="M286,69.5l0.2-1.4c0.1-0.9,0.9-1.6,1.8-1.6l14.7-0.1c0.7,0,1.3,0.6,1.3,1.3
		c0,0.1,0,0.2,0,0.3l-0.2,1.4c-0.1,0.9-0.9,1.6-1.8,1.6l-14.7,0.1c-0.7,0-1.3-0.6-1.3-1.3C286,69.7,286,69.6,286,69.5"/>
	<path id="パス_20607" class="st0" d="M242.9,59.6l0.2-1.4c0.1-0.9,0.9-1.6,1.8-1.6l14.7-0.1c0.7,0,1.3,0.6,1.3,1.3
		c0,0.1,0,0.2,0,0.3l-0.2,1.4c-0.1,0.9-0.9,1.6-1.8,1.6l-14.7,0.1c-0.7,0-1.3-0.6-1.3-1.3C242.8,59.8,242.8,59.7,242.9,59.6"/>
	<path id="パス_20608" class="st0" d="M281.6,50.9l9.2-0.1c0.6,0.1,1.1,0.6,1,1.2c0,0.3-0.2,0.6-0.4,0.8c-1.9,1.5-3.2,3.7-3.8,6
		C286.4,64.1,281.6,50.9,281.6,50.9"/>
	<path id="パス_20609" class="st0" d="M219.6,111.5l9.2,0.1c0.6-0.1,1.1-0.6,1-1.2c0-0.3-0.2-0.6-0.4-0.8c-1.9-1.5-3.2-3.7-3.8-6
		C224.4,98.2,219.6,111.5,219.6,111.5"/>
	<path id="パス_20610" class="st0" d="M0,20.2l0.3-1.8c0.2-1.2,1.2-2.1,2.4-2.2l40.2-0.6c1,0,1.8,0.8,1.8,1.7c0,0.1,0,0.3,0,0.4
		l-0.3,1.8c-0.2,1.2-1.2,2.1-2.4,2.2L1.8,22.4c-1,0-1.8-0.8-1.8-1.7C0,20.5,0,20.4,0,20.2"/>
	<path id="パス_20611" class="st0" d="M2.8,93l0.3-1.8c0.2-1.2,1.2-2.1,2.4-2.2l40.2-0.6c1,0,1.8,0.8,1.8,1.7c0,0.1,0,0.3,0,0.4
		l-0.3,1.8c-0.2,1.2-1.2,2.1-2.4,2.2L4.5,95.1c-1,0-1.8-0.8-1.8-1.7C2.8,93.2,2.8,93.1,2.8,93"/>
	<path id="パス_20612" class="st0" d="M87.7,101.6l0.3-1.8c0.2-1.2,1.2-2.1,2.4-2.2l40.2-0.6c1,0,1.8,0.8,1.8,1.7
		c0,0.1,0,0.3,0,0.4l-0.3,1.8c-0.2,1.2-1.2,2.1-2.4,2.2l-40.2,0.6c-1,0-1.8-0.8-1.8-1.7C87.7,101.9,87.7,101.8,87.7,101.6"/>
	<path id="パス_20613" class="st0" d="M113.7,5.5l16.5-0.2c1.8,0,2.5,2.4,1,3.6c-3.4,2.8-5.8,6.6-6.9,10.9
		C122.4,29.5,113.7,5.5,113.7,5.5"/>
	<path id="パス_20614" class="st0" d="M108.9,82.3l0.3-1.8c0.2-1.2,1.2-2.1,2.4-2.2l10.6-0.2V54.7c0-1.5-1.2-2.8-2.8-2.8H80
		c-1.5,0-1.8-0.7-0.5-1.6l12.4-12.6c0.9-1.2,1.7-1,1.9,0.5l0.7,6.9c0.2,1.6,1.5,2.8,3,2.9c0,0,8.5,0.6,12.7,0.6s7.3-0.9,9.2-2.8
		s3.3-5.7,4.1-11.6s1.2-25.9,1.2-25.9c0-1.5-1.2-2.7-2.6-2.8c0,0,0,0-0.1,0H71.5c-1.5,0-2.8,1.2-2.8,2.8v10c0,1.5,1.2,2.8,2.8,2.8
		h8.4c0.8-0.1,1.6,0.4,1.8,1.2c0.1,0.4,0,0.9-0.3,1.2c-1.2,2.7-2.9,5.1-5,7.2c-2.1,2.3-4.3,4.5-6.7,6.4c-1.2,0.9-2.2,1.1-2.2,0.5
		s-1.2-1.1-2.8-1.1H53.9c-1.5,0-2.8-1.2-2.8-2.8v-4.3c0-1.5,1.2-2.8,2.8-2.8h9.6c1.5,0,2.8-1.2,2.8-2.8V13.8c0-1.5-1.2-2.8-2.8-2.8
		h-9.6c-1.5,0-2.8-1.2-2.8-2.8V2.8c0-1.5-1.2-2.8-2.8-2.8H35.1c-1.5,0-2.8,1.2-2.8,2.8v5.5c0,1.5-1.2,2.8-2.8,2.8H17.9
		c-1.5,0-2.8,1.2-2.8,2.8v10.1c0,1.5,1.2,2.8,2.8,2.8h11.7c1.5,0,2.8,1.2,2.8,2.8v4.3c0,1.5-1.2,2.8-2.8,2.8H15.1
		c-1.5,0-2.8,1.2-2.8,2.8v10.5c0,1.5,1.2,2.8,2.8,2.8h18.1c1.5,0,2.8,1.2,2.8,2.8v28.4c0,1.5-2.5,0.3-3.3-0.6
		c-0.8-1.3-1.2-2.8-1.1-4.3l0.9-17c0-1.5-1.1-2.9-2.6-3l-10.3-1c-1.5-0.2-2.8,0.9-2.9,2.4c0,0,0,0.1,0,0.1l-5.8,45.2
		c-0.2,1.6,0.6,3.1,2,3.8l10.3,4.5c1.1,0.5,2.4,0.1,3-1c0.1-0.2,0.2-0.4,0.2-0.6l2.2-11.1c0-0.9,0.8-1.6,1.7-1.6
		c0.4,0,0.8,0.2,1.1,0.4c0,0,11.4,8,20.7,10.1s39.6,3,39.6,3c1.5,0,4,0.1,5.5,0.1h24.6c1.5,0,2.8-1.2,2.9-2.8l0.6-10.6
		c0.1-1.4-1-2.7-2.4-2.8c-0.1,0-0.1,0-0.2,0H97c-1.5,0-4,0-5.5-0.1l-35-2.1c-1.5-0.2-2.7-1.5-2.7-3.1V82c0-1.5,1.2-2.8,2.8-2.8H64
		c1.5,0,2.8-1.2,2.8-2.8v-10c0-1.5-1.2-2.8-2.8-2.8h-7.5c-1.5,0-2.8-1.2-2.8-2.8v-5.7c0-1.5,1.2-2.8,2.8-2.8h8.1
		c1.5,0,2.8-1.2,2.8-2.8v-5.5c0-1.5,0.6-1.7,1.3-0.3l3,5.6c0.7,1.3,0.6,2.4-0.3,2.4c-0.9,0-1.7,1.2-1.7,2.8V88
		c0,1.5,1.2,2.8,2.8,2.8h46.9c1.5,0,2.8-1.2,2.8-2.8v-3.7l-11.5,0.2c-1,0-1.8-0.8-1.8-1.7C108.9,82.6,108.9,82.5,108.9,82.3
		 M95.3,30.9l2.1-7.1c0.4-1.5,1.8-2.6,3.4-2.7h2.9c1.5,0,2.7,1.2,2.7,2.7c0,0,0,0.1,0,0.1c0,0-0.2,6.5-0.7,8
		c-0.4,1.4-1.7,2.4-3.2,2.3c-1.1,0-5.5-0.4-5.5-0.4c-1.1,0-2-0.9-2-2C95.2,31.4,95.2,31.1,95.3,30.9 M104,74.2
		c0,1.5-1.2,2.8-2.8,2.8H89.7c-1.5,0-2.8-1.2-2.8-2.8v-6.2c0-1.5,1.2-2.8,2.8-2.8h11.5c1.5,0,2.8,1.2,2.8,2.8L104,74.2z"/>
	<path id="パス_20615" class="st0" d="M140.3,60.5h21.3c0.6,0,1.1,0.5,1.1,1.1v29c0,0.2,0.1,0.4,0.2,0.6c1.2,2.1,3,3.7,5.1,4.8
		c2.1,1,5.7,1.8,10.7,2.3c5.1,0.5,12.9,0.8,23.5,0.8h22.6c0.6,0,1.1,0.5,1.1,1.1c0,0,0,0,0,0.1l-0.6,10.1c0,0.6-0.5,1.1-1.1,1.1
		h-22.1c-13,0-22.9-0.6-29.7-1.8c-6.3-1.1-11.2-3-14.5-5.7c-0.4-0.4-1-0.4-1.4,0c-3.4,2.8-7.1,5.6-11.1,8.3
		c-0.5,0.4-1.3,0.2-1.6-0.3c0,0,0,0,0,0l-5.7-9.6c-0.3-0.5-0.1-1.2,0.4-1.5c3.3-2.2,6.5-4.4,9.6-6.7c0.3-0.2,0.5-0.6,0.5-0.9V73.9
		c0-0.6-0.5-1.1-1.1-1.1h-7.1c-0.6,0-1.1-0.5-1.1-1.1v-10C139.2,61,139.7,60.5,140.3,60.5 M165.7,44l-8,8.4c-0.4,0.5-1.2,0.5-1.6,0
		c0,0,0,0,0,0c-4.9-5.1-10.3-10.1-16-15.1c-0.5-0.4-0.5-1.1-0.1-1.6c0,0,0-0.1,0.1-0.1l7.9-7.6c0.4-0.4,1.1-0.4,1.6,0
		c3.5,3.4,7,6.8,10.6,10.3c0.4,0.4,1.2,0.4,1.6,0c0.2-0.2,0.3-0.5,0.3-0.8v-6.1c0-0.6,0.5-1.1,1.1-1.1c0,0,0,0,0,0h22.7
		c0.6,0,1.1-0.5,1.1-1.1v-3.4c0-0.6,0.5-1.1,1.1-1.1h12.8c0.6,0,1.1,0.5,1.1,1.1v3.4c0,0.6,0.5,1.1,1.1,1.1h20.5
		c0.6,0,1.1,0.5,1.1,1.1c0,0,0,0,0,0v9.7c0,0.6-0.5,1.1-1.1,1.1l0,0h-19.7c-1,0-1.9,0.8-1.9,1.9c0,1,0.8,1.9,1.9,1.9h17.2
		c0.6,0,1.1,0.5,1.1,1.1v0v25.6c0,0.6-0.5,1.1-1.1,1.1h-9.8c-0.6,0-1.2,0.5-1.2,1.2c0,0.4,0.2,0.8,0.5,1c4.4,2.9,9.1,5.4,13.9,7.5
		c0.6,0.2,0.8,0.9,0.6,1.5c0,0,0,0.1,0,0.1l-5.2,9.6c-0.3,0.6-1,0.8-1.5,0.5c-5.1-2.6-10-5.8-14.5-9.4c-0.5-0.4-1.2-0.3-1.6,0.1
		c-0.2,0.2-0.3,0.5-0.3,0.7v8.7c0,0.6-0.5,1.1-1.1,1.1h-12.8c-0.6,0-1.1-0.5-1.1-1.1l0,0v-7.8c0-0.6-0.5-1.1-1.2-1.1
		c-0.3,0-0.5,0.1-0.7,0.3c-4.2,3.3-8.7,6.2-13.4,8.6c-0.5,0.3-1.2,0.1-1.5-0.4l-6.1-9.8c-0.3-0.5-0.2-1.2,0.4-1.6
		c0.1,0,0.1-0.1,0.2-0.1c6.3-2.5,12.4-5.7,18-9.5h-14.8c-0.6,0-1.1-0.5-1.1-1.1V47.3c0-0.6,0.5-1.1,1.1-1.1l0,0h17.3
		c1,0,1.9-0.8,1.9-1.9c0-1-0.8-1.9-1.9-1.9c0,0,0,0,0,0H164l0.9,0.9L165.7,44z M181.1,64.8h4.9c0.6,0,1.1-0.5,1.1-1.1v-6.1
		c0-0.6-0.5-1.1-1.1-1.1h-4.9c-0.6,0-1.1,0.5-1.1,1.1v6.1C179.9,64.3,180.4,64.8,181.1,64.8 M203.4,64.8h4.4c0.6,0,1.1-0.5,1.1-1.1
		v-6.1c0-0.6-0.5-1.1-1.1-1.1h-4.4c-0.6,0-1.1,0.5-1.1,1.1v6.1C202.2,64.3,202.7,64.8,203.4,64.8"/>
	<path id="パス_20616" class="st0" d="M260.1,98.2c-1.5,1-3.3,1.6-5.1,1.7c-1.3-0.2-2.2-1.6-2.6-4.2c-0.5-3.4-0.7-6.9-0.6-10.4
		c0.1-3.3,0.1-6.9,0.2-10.8c0.1-3.9,0.2-7.7,0.3-11.2c0.1-3.6,0.2-6.5,0.3-8.8c0-0.5,0-1,0.1-1.4c0.1-1.1-0.8-2.1-2-2.2
		c0,0-0.1,0-0.1,0h-8c-1.1,0-2,0.9-2.1,2c0,0.5,0,1.2-0.1,2c-0.1,2.5-0.2,5.8-0.2,9.7c-0.1,3.9-0.1,8-0.2,12.2c0,4.2,0,8.1,0,11.6
		c0,8.5,1.1,14.8,3.4,18.9c1.9,3.9,6.1,6.2,10.5,5.6c2.5-0.2,4.9-0.9,7.2-2c1.7-0.8,3.3-1.8,4.7-2.9c0.4-0.3,0.7-0.6,1-0.8
		c0.5-0.4,0.7-1,0.7-1.6V93.1c-0.1,0.1-0.9,0.6-2.3,1.7C263.5,96.1,261.8,97.2,260.1,98.2"/>
	<path id="パス_20617" class="st0" d="M281.9,74.1l0.2-1.4c0.1-0.9,0.9-1.6,1.8-1.6l5.9,0c-0.5-4.6-1.3-9.1-2.4-13.6
		c-1.1-4.3-1.6-6.5-1.7-6.5H276c-1.1,0-2.1,0.9-2.1,2.1c0,0.2,0,0.4,0.1,0.6c1.2,3.8,2.1,7.7,2.7,11.6c0.9,5.3,1.6,10.6,2.1,16
		c0.5,5.4,0.8,10.4,0.9,14.9c0.1,4.5,0.2,8.2,0.2,11c0,0.9,0,1.6,0,2.2c0,1.1,0.9,2.1,2.1,2.1c0,0,0,0,0,0h7.7
		c1.1,0,2.1-0.9,2.1-2.1c0.2-10.7-0.2-21.4-1.3-32c-0.1-0.6-0.1-1.1-0.2-1.7l-7.2,0.1c-0.7,0-1.3-0.6-1.3-1.3
		C281.8,74.3,281.8,74.2,281.9,74.1"/>
</g>
</svg>
