<?xml version="1.0" encoding="utf-8"?>
<!-- Generator: Adobe Illustrator 26.5.0, SVG Export Plug-In . SVG Version: 6.00 Build 0)  -->
<svg version="1.1" id="レイヤー_1" xmlns="http://www.w3.org/2000/svg" xmlns:xlink="http://www.w3.org/1999/xlink" x="0px"
	 y="0px" viewBox="0 0 644.6 274.6" style="enable-background:new 0 0 644.6 274.6;" xml:space="preserve">
<style type="text/css">
	.st0{fill:#064B9E;}
</style>
<g id="グループ_5054">
	<path id="パス_36488" class="st0" d="M104.2,165.3c-0.5-0.3-1.2-0.9-2.1-1.6c-2.3-1.8-4.4-3.8-6.3-5.9c-2.2-2.3-4.4-4.9-6.6-7.8
		c-0.4-0.6-0.5-1.5-0.1-2.1c2.7-5.4,5.1-10.9,7.2-16.5c2.2-5.9,3.8-12.1,4.9-18.3c0.2-0.8-0.2-1.7-1.1-1.9c-0.2-0.1-0.4-0.1-0.7,0
		l-43.2,7.1c-1,0.2-1.8,1.1-1.7,2.2v11c-0.1,0.8,0.6,1.6,1.4,1.6c0.1,0,0.2,0,0.4,0l25.3-4.2c1.3-0.2,2.1,1.1,1.6,2.4
		c-2.1,6.2-4.9,12.1-8.2,17.7c-3.2,5.3-6.7,10.3-10.7,15.1c-3.5,4.2-7.5,8-11.9,11.4c-0.6,0.4-0.9,1.1-0.9,1.8v12.3
		c-0.1,0.8,0.6,1.6,1.4,1.7c0.4,0,0.8-0.1,1.1-0.3l0.3-0.2c2.5-1.8,4.8-3.7,7.1-5.7c3.4-3.1,6.6-6.3,9.6-9.8
		c3.2-3.7,6.1-7.5,8.8-11.5c0.4-0.8,1.4-1.2,2.3-0.8c0.2,0.1,0.3,0.2,0.5,0.4c2.1,2.6,4.3,5.2,6.6,7.5c2.4,2.5,5,4.8,7.7,7
		c1.6,1.3,3.3,2.5,5.2,3.8c1.1,0.8,2.8-0.4,2.8-2v-12.8C104.9,166.1,104.7,165.6,104.2,165.3"/>
	<path id="パス_36489" class="st0" d="M155.1,105.2l-24.1,4c-0.9,0.1-1.6-0.5-1.8-1.3c0-0.2,0-0.5,0.1-0.7c0,0,0,0,0-0.1
		c0.2-0.8,0.3-1.7,0.5-2.7c0.2-0.8-0.3-1.7-1.1-1.9c-0.2-0.1-0.4-0.1-0.6,0l-9.3,1.5c-0.9,0.2-1.6,0.9-1.7,1.8
		c-0.7,4-1.7,8-3.1,11.8c-1.2,3.4-2.7,6.6-4.5,9.7c-1.2,2.1-2.5,4.1-4.1,6c-0.5,0.6-0.9,1.1-1.2,1.4c-0.4,0.4-0.6,1-0.6,1.5v13.2
		c-0.1,0.9,0.6,1.6,1.5,1.7c0.5,0,1-0.2,1.3-0.6c0.1-0.1,0.3-0.3,0.4-0.4c2.7-2.8,5.3-5.8,7.8-8.9c3-3.7,6.1-9.1,9.3-16.2
		c0.3-0.7,0.9-1.1,1.5-1.3l16.3-2.7c0.8-0.1,1.6,0.5,1.8,1.3c0,0.2,0,0.4,0,0.5c-0.2,2.4-0.6,4.7-1.1,7c-0.2,0.9-0.8,1.5-1.7,1.7
		l-16.9,2.8c-1,0.2-1.7,1.1-1.7,2.2v9.9c-0.1,0.8,0.5,1.6,1.4,1.6c0.1,0,0.2,0,0.4,0l9.7-1.6c1.5-0.2,2.3,1.6,1.3,3
		c-1.8,2.6-3.9,5.1-6.3,7.3c-2.8,2.7-5.8,5-9,7.1c-2.3,1.5-4.6,2.8-7.1,4l-1.5,0.7c-0.8,0.4-1.3,1.2-1.3,2.1v11.1
		c-0.1,0.8,0.5,1.6,1.4,1.6c0.3,0,0.5,0,0.8-0.1c0.3-0.1,0.7-0.3,1.1-0.4c2.8-1.2,5.5-2.7,8.1-4.2c3.8-2.3,7.4-4.9,10.7-7.9
		c0.6-0.5,1.2-1,1.7-1.6l-5.5,0.9c-0.8,0.1-1.6-0.4-1.7-1.2c0-0.1,0-0.2,0-0.4v-1.6c0-1,0.7-2,1.7-2.2l11.6-1.8
		c1.1-1.3,2.3-2.7,3.4-4.1c3.9-5.2,7.1-10.9,9.3-17c2.6-7.3,4.2-14.9,4.7-22.6c0-0.1,0-0.1,0-0.2v-12.1c0.1-0.8-0.6-1.6-1.4-1.6
		C155.3,105.1,155.2,105.1,155.1,105.2"/>
	<path id="パス_36490" class="st0" d="M195.7,122.1l-34.3,5.7c-1,0.2-1.7,1.1-1.7,2.2v10.6c-0.1,0.8,0.6,1.6,1.4,1.6
		c0.1,0,0.2,0,0.4,0l34.3-5.7c1-0.2,1.8-1.1,1.7-2.2v-10.6c0.1-0.8-0.6-1.6-1.4-1.6C195.9,122,195.8,122,195.7,122.1"/>
	<path id="パス_36491" class="st0" d="M46.6,123.3v-1.6c0-1.1,0.7-2,1.7-2.2l34.3-5.7c0.8-0.1,1.6,0.4,1.7,1.2c0,0.1,0,0.2,0,0.4
		v1.6c0,1-0.7,2-1.7,2.2l-34.3,5.7c-0.8,0.1-1.6-0.4-1.7-1.3C46.6,123.6,46.6,123.4,46.6,123.3"/>
	<path id="パス_36492" class="st0" d="M117,175.5v-1.6c0-1,0.7-2,1.7-2.2l34.3-5.7c0.8-0.1,1.6,0.4,1.7,1.2c0,0.1,0,0.2,0,0.4v1.6
		c0,1.1-0.7,2-1.7,2.2l-34.3,5.7c-0.8,0.1-1.6-0.4-1.7-1.2C117,175.8,117,175.7,117,175.5"/>
	<path id="パス_36493" class="st0" d="M148.2,106.4l10.3-1.7c0.7,0,1.3,0.5,1.4,1.2c0,0.4-0.1,0.7-0.4,1c-1.9,2.1-3,4.7-3.3,7.5
		C155.9,120.5,148.2,106.4,148.2,106.4"/>
	<path id="パス_36494" class="st0" d="M91.7,112.4l10.3-1.7c0.7,0,1.3,0.5,1.4,1.2c0,0.4-0.1,0.7-0.4,1c-1.9,2.1-3,4.7-3.3,7.5
		C99.4,126.5,91.7,112.4,91.7,112.4"/>
	<path id="パス_36495" class="st0" d="M223.4,220.9c0.1,0.9,0.9,1.5,1.7,1.4c0,0,0.1,0,0.1,0l5.5-0.9c1.2-0.3,2-1.5,1.8-2.7
		l-4.8-28.8c-0.1-0.9-0.9-1.5-1.7-1.4c0,0-0.1,0-0.1,0l-5.2,0.9c-1.2,0.3-2,1.4-1.8,2.7L223.4,220.9z"/>
	<path id="パス_36496" class="st0" d="M250.6,184.5l-7.9,1.3c-1,0.2-1.8,1.1-1.9,2.1c-0.1,0.8-0.2,1.9-0.3,3.2
		c-0.3,3.2-1,7.3-2.1,12.3c-1.1,5.3-2.7,10.4-4.6,15.5c-2,5.4-5.1,10.4-9,14.7c-3.8,4.2-8.4,7.4-13.7,9.4c-0.9,0.4-1.5,1.3-1.5,2.2
		v9.6c-0.1,0.9,0.6,1.7,1.5,1.7c0.3,0,0.5,0,0.8-0.1c5.6-2.1,10.8-5.2,15.3-9.3c4.8-4.3,8.9-9.3,12.2-14.9
		c3.2-5.3,5.7-10.9,7.6-16.7c1.6-5.1,2.9-10.3,3.9-15.6c0.7-4.1,1.3-8.7,1.7-13.7c0.2-0.9-0.4-1.7-1.3-1.9
		C250.9,184.5,250.7,184.5,250.6,184.5"/>
	<path id="パス_36497" class="st0" d="M200.6,201.8l-27.5,5.5c-0.9,0.2-1.7-0.4-1.9-1.2c0-0.1,0-0.2,0-0.3l-0.9-8.6
		c0-0.9-0.8-1.6-1.7-1.5c-0.1,0-0.1,0-0.2,0l-7.7,1.3c-1.2,0.3-2,1.4-1.9,2.6l0.9,8.2c0.1,1.2-0.6,2.2-1.8,2.5l-4,0.9
		c-1,0.3-1.8,1.2-1.8,2.3v8.9c-0.1,0.9,0.6,1.7,1.5,1.7c0.2,0,0.3,0,0.5,0l5.5-1.2c0.9-0.2,1.7,0.3,1.9,1.2c0,0.1,0,0.2,0,0.3
		l4.5,39.8c0,0.9,0.8,1.5,1.7,1.5c0.1,0,0.1,0,0.2,0l7.6-1.3c1.2-0.3,2-1.4,1.9-2.6l-4.3-39.4c-0.1-1.2,0.6-2.3,1.8-2.6l13.3-2.7
		c1.4-0.3,2.3,1.1,1.8,2.6c-0.5,1.3-1.1,2.6-1.8,3.9c-1.1,1.9-2.3,3.7-3.7,5.4c-1.2,1.4-2.5,2.7-3.9,3.9c-0.6,0.5-0.9,1.2-0.9,1.9
		v9.6c-0.1,0.9,0.6,1.7,1.5,1.8c0.5,0,0.9-0.1,1.3-0.5c2.4-1.9,4.6-3.9,6.8-6c3-3.2,5.6-6.7,7.8-10.5c2.7-4.5,4.6-9.5,5.5-14.7
		c0-0.2,0-0.3,0-0.5v-10.6c0.1-0.9-0.6-1.7-1.5-1.7C200.9,201.7,200.7,201.7,200.6,201.8"/>
	<path id="パス_36498" class="st0" d="M216,223.8c1.2-0.3,2-1.4,1.8-2.7l-4.6-28.8c-0.1-0.9-0.9-1.5-1.7-1.4c0,0-0.1,0-0.1,0
		l-5.2,0.9c-1.2,0.3-2,1.4-1.8,2.7l4.5,28.9c0.1,0.9,0.9,1.5,1.7,1.4c0,0,0.1,0,0.1,0L216,223.8z"/>
	<path id="パス_36499" class="st0" d="M148.5,199.5l-20.3,3.4c-0.9,0.1-1.7-0.4-1.8-1.3c0-0.1,0-0.2,0-0.3l-0.6-9.5
		c0-0.9-0.7-1.6-1.6-1.6c-0.1,0-0.2,0-0.3,0l-10.3,1.7c-1.1,0.3-1.9,1.3-1.9,2.5l0.5,8.9c0.1,1.2-0.7,2.2-1.9,2.5l-16.7,2.8
		c-1.1,0.2-1.9,1.2-1.9,2.3v11c-0.1,0.9,0.6,1.7,1.5,1.7c0.1,0,0.3,0,0.4,0l17.9-3c0.9-0.1,1.7,0.4,1.8,1.3c0,0.1,0,0.2,0,0.3l0.5,9
		c0.1,1.2-0.7,2.2-1.9,2.5l-18.4,3c-1.1,0.2-1.9,1.2-1.9,2.3v11.3c-0.1,0.9,0.6,1.7,1.5,1.7c0.1,0,0.3,0,0.4,0l19.6-3.2
		c0.9-0.1,1.7,0.4,1.8,1.3c0,0.1,0,0.2,0,0.3l1.3,21.3c0,0.9,0.7,1.6,1.6,1.6c0.1,0,0.2,0,0.3,0l10.3-1.7c1.1-0.3,1.9-1.3,1.9-2.5
		l-1.3-20.8c-0.1-1.2,0.7-2.2,1.9-2.5l17.4-2.9c1.1-0.2,1.9-1.2,1.9-2.3v-11.3c0.1-0.9-0.6-1.7-1.5-1.7c-0.1,0-0.3,0-0.4,0
		l-18.7,3.1c-0.9,0.1-1.7-0.4-1.8-1.3c0-0.1,0-0.2,0-0.3l-0.5-9c-0.1-1.2,0.7-2.2,1.9-2.5l19.2-3.2c1.1-0.2,1.9-1.2,1.9-2.3v-11
		c0.1-0.9-0.6-1.7-1.5-1.7C148.7,199.5,148.6,199.5,148.5,199.5"/>
	<path id="パス_36500" class="st0" d="M109.1,272.9v-1.7c0-1.1,0.8-2.1,1.9-2.3l17.7-3c0.9-0.1,1.7,0.5,1.9,1.3c0,0.1,0,0.3,0,0.4
		v1.7c0,1.1-0.8,2.1-1.9,2.3l-17.7,3c-0.9,0.1-1.7-0.5-1.9-1.3C109.1,273.1,109.1,273,109.1,272.9"/>
	<path id="パス_36501" class="st0" d="M71.7,219.7V218c0-1.1,0.8-2.1,1.9-2.3l36.6-6.1c0.9-0.1,1.7,0.5,1.8,1.3c0,0.1,0,0.3,0,0.4
		v1.7c0,1.1-0.8,2.1-1.9,2.3l-36.6,6.1c-0.9,0.1-1.7-0.5-1.9-1.3C71.7,220,71.7,219.9,71.7,219.7"/>
	<path id="パス_36502" class="st0" d="M148.8,254.5v-1.7c0-1.1,0.8-2.1,1.9-2.3l18.1-2.8c0.9-0.1,1.7,0.5,1.9,1.3
		c0,0.1,0,0.3,0,0.4v1.7c0,1.1-0.8,2.1-1.9,2.3l-18.1,2.8c-0.9,0.1-1.7-0.5-1.9-1.3C148.8,254.8,148.8,254.7,148.8,254.5"/>
	<path id="パス_36503" class="st0" d="M117.7,191.3l11-1.8c0.7-0.1,1.4,0.5,1.4,1.3c0,0.4-0.1,0.8-0.4,1.1c-2,2.2-3.2,5-3.5,8
		C125.9,206.4,117.7,191.3,117.7,191.3"/>
	<path id="パス_36504" class="st0" d="M162.7,196.6l11-1.8c0.7-0.1,1.4,0.5,1.4,1.3c0,0.4-0.1,0.8-0.4,1.1c-2,2.2-3.2,5-3.5,8
		C170.9,211.7,162.7,196.6,162.7,196.6"/>
	<path id="パス_36505" class="st0" d="M500.1,148.7c0.2,2.8,1.4,5.5,3.6,7.4c2.1,1.9,5,2.7,7.8,2.1c3-0.5,5.7-2.2,7.6-4.7
		c2.1-2.4,3.3-5.4,3.6-8.6l4-58.4l0.5-15.5c0.1-4.9-1.4-8.9-4.5-11.8c-3-2.9-7.3-4.2-11.5-3.3c-4.6,0.8-8.6,3.4-11.3,7.2
		c-3,3.7-4.6,8.4-4.5,13.2l0.6,15.3L500.1,148.7z"/>
	<path id="パス_36506" class="st0" d="M449.8,192.1c-6.8-5.9-13.8-11.9-20.8-18c-7-6.1-13.1-11.4-18.2-15.9
		c-5.2-4.5-8.4-7.5-9.8-8.8c-1.4-1.4-2.1-3.2-2.2-5.2c0-1.7,0.6-3.4,1.7-4.7c1.2-1.7,4.4-5.4,9.6-11.1c5.2-5.7,11.3-12.2,18.3-19.7
		c3.6-3.8,7.1-7.5,10.7-11.2l-18.5,2.9c-1.4,0.2-2.7-0.7-2.9-2.1c0-0.2,0-0.4,0-0.6v-2.7c0-1.8,1.2-3.3,3-3.7l28.8-4.5
		c5.2-5.5,11.1-11.7,17.6-18.7c2.2-2.3,0.9-5.9-1.9-5.4l-32.6,5.4c-0.7,0.1-1.4,0.5-1.9,1c-6,6.3-11.2,11.9-15.7,16.8
		c-4.7,5.2-9.6,10.5-14.7,16.1s-9.7,10.6-13.8,15.2c-4.1,4.6-7.1,7.9-8.9,10.1c-5.1,6.4-7.9,14.2-8.1,22.4
		c-0.3,7.9,2.7,15.6,8.2,21.2c2.7,3,5.7,5.8,8.8,8.4c4.3,3.7,9.1,7.7,14.5,12.2c5.4,4.4,10.6,8.8,15.7,13c4.9,4.1,10.5,8.7,17,14.1
		c0.6,0.5,1.3,0.6,2,0.5l30.7-5.1c2.7-0.4,4-4.3,2-6C461.4,202,455.2,196.8,449.8,192.1"/>
	<path id="パス_36507" class="st0" d="M359.7,127.2L294.4,138c-1.4,0.2-2.7-0.7-3-2.1c0-0.2,0-0.4,0-0.6v-45
		c0.1-1.4-0.9-2.7-2.4-2.8c-0.2,0-0.4,0-0.6,0L267.5,91c-1.7,0.4-3,1.9-3,3.7v17.8l8.6-1.3c1.4-0.2,2.7,0.7,2.9,2.1
		c0,0.2,0,0.4,0,0.6v2.7c0,1.8-1.2,3.3-3,3.7l-8.6,1.3v126.2c-0.1,1.4,0.9,2.7,2.3,2.8c0.2,0,0.4,0,0.6,0l20.9-3.5
		c1.7-0.4,3-1.9,3-3.7v-21.2l-7,1.1c-1.4,0.2-2.7-0.7-3-2.1c0-0.2,0-0.4,0-0.6v-2.7c0-1.8,1.2-3.3,3-3.7l7-1.1v-41.4
		c0-1.8,1.2-3.3,3-3.7l65.3-10.8c1.7-0.4,3-1.9,3-3.7v-23.4c0.1-1.4-0.9-2.7-2.3-2.8C360.1,127.1,359.9,127.2,359.7,127.2"/>
	<path id="パス_36508" class="st0" d="M526.2,180L526.2,180l-0.4-0.7h0c-2.1-3.6-4.2-7.1-4.2-7.1l-4,8.1c-1.9-0.1-3.9,0-5.8,0.4
		c-1.8,0.3-3.5,0.8-5.2,1.5l-3.9-6.8c0,0-8.1,16.5-8.4,17.1c-1.2,2.6-1.6,5.4-1.3,8.2c0.1,1.3,0.5,2.5,1,3.7l0,0l0.3,0.7l0,0
		c1.6,2.6,4.1,4.6,7.1,5.7c3.3,1.4,7,1.8,10.6,1.1c3.9-0.6,7.5-2.2,10.6-4.6c4.6-3.4,7.9-7.6,8.5-12.8c0.4-2.7,0-5.4-1.3-7.8
		C529.3,185.3,527.8,182.7,526.2,180"/>
	<path id="パス_36509" class="st0" d="M602.5,163.8L602.5,163.8l-0.4-0.8h0c-2.4-4.2-4.8-8.1-4.8-8.1l-4.6,9.3
		c-2.2-0.1-4.4,0-6.6,0.4c-2,0.4-4,0.9-5.9,1.7l-4.5-7.8c0,0-9.3,18.9-9.6,19.6c-1.4,3-1.9,6.2-1.5,9.4c0.2,1.5,0.6,2.9,1.2,4.2l0,0
		l0.4,0.8l0,0c2,3.5,5.3,5.3,8.1,6.5c3.8,1.6,8,2.1,12.1,1.3c4.4-0.7,8.6-2.5,12.2-5.3c5.3-3.8,9.1-8.7,9.8-14.7
		c0.5-3.1,0-6.2-1.5-8.9C606.1,169.9,604.3,166.9,602.5,163.8"/>
	<path id="パス_36510" class="st0" d="M623.6,25.3c-8.5-6.1-19.7-7.9-33.7-5.6c-12.9,2.1-24.6,8.3-35.1,18.6
		c-3.7,3.4-5.9,8.3-5.9,13.3c-0.2,3.9,1.4,7.6,4.2,10.3c2.7,2.6,6.4,3.6,10.1,2.9c3.1-0.6,6-2.1,8.2-4.3c4.3-4.1,9-6.5,13.9-7.3
		c4.5-0.7,8.1,0,10.9,2.1s4.2,5.7,4.2,10.7c-0.1,3.6-1,7.2-2.8,10.3c-2.7,4.7-5.7,9.3-8.9,13.6c-4.1,5.9-7.2,10.6-9.6,14.3
		c-2.4,3.9-4.3,8-5.8,12.3c-0.8,2.3-1.3,4.8-1.3,7.3c-0.2,4.5,1.6,8.8,4.8,11.9c3.1,3,7.5,4.3,11.8,3.4c3.8-0.7,7.2-2.6,9.8-5.4
		c2.8-2.9,4.8-6.5,5.8-10.4c1.1-4.5,2.9-8.9,5.2-12.9c2.4-4,5.7-8.8,9.9-14.6c4.8-6.2,9-12.8,12.7-19.7c2.9-5.8,4.4-12.3,4.3-18.8
		C636.3,42,632,31.4,623.6,25.3"/>
	<path id="パス_36511" class="st0" d="M248,112.2v-2.7c0-1.8,1.2-3.3,3-3.7l36.6-5.9c1.4-0.2,2.7,0.7,3,2.1c0,0.2,0,0.4,0,0.6v2.7
		c0,1.8-1.2,3.3-3,3.7l-36.6,5.9c-1.4,0.2-2.7-0.7-2.9-2.1C248,112.6,248,112.4,248,112.2"/>
	<path id="パス_36512" class="st0" d="M435.8,85.7V83c0-1.8,1.2-3.3,3-3.7l28.8-4.5c1.4-0.2,2.7,0.7,2.9,2.1c0,0.2,0,0.4,0,0.6
		v2.7c0,1.8-1.2,3.3-3,3.7l-28.8,4.5c-1.4,0.2-2.7-0.7-2.9-2.1C435.8,86.1,435.8,85.9,435.8,85.7"/>
	<path id="パス_36513" class="st0" d="M277.3,89.5l17.5-2.9c1.9-0.3,3,2.1,1.7,3.7c-2.6,3.1-5.3,7.4-5.6,12.7
		C290.3,113.5,277.3,89.5,277.3,89.5"/>
	<path id="パス_36514" class="st0" d="M511.4,55.7l20.5-3.4c2.2-0.4,3.5,2.5,2,4.3c-3.1,3.6-6.2,8.7-6.5,14.8
		C526.7,83.8,511.4,55.7,511.4,55.7"/>
	<path id="パス_36515" class="st0" d="M597.7,18.6l43.9,1.3c2.6-0.4,4,2.8,2.2,4.9c-3.5,4.1-11.2,11-8.9,19.9
		C638.3,58.1,597.7,18.6,597.7,18.6"/>
	<path id="パス_36516" class="st0" d="M435.6,218.9l-17.5,2.9c-1.9,0.3-3-2.1-1.7-3.7c2.6-3.1,5.3-7.4,5.6-12.7
		C422.5,194.9,435.6,218.9,435.6,218.9"/>
	<path id="パス_36517" class="st0" d="M280.5,211.8v-2.7c0-1.8,1.2-3.3,3-3.7l23.8-4.1c1.4-0.2,2.7,0.7,2.9,2.1c0,0.2,0,0.4,0,0.6
		v2.7c0,1.8-1.2,3.3-3,3.7l-23.8,4.1c-1.4,0.2-2.7-0.7-2.9-2.1C280.5,212.2,280.5,212,280.5,211.8"/>
	<g>
		<path class="st0" d="M62.3,74.8c1.6-1.2,3.2-2.6,4.9-4.2c1.4-1.3,3.3-0.6,3.3,1.2v18.4c0,1.2,0.9,2.1,2,1.9l4.7-0.8
			c1.1-0.2,2-1.3,2-2.6V59.1c0-0.5,0.2-1,0.5-1.5c1.7-2.5,3.6-5.4,5.7-8.7c1.5-2.5,2.9-5,4.1-7.6c0.8-1.6-0.2-3.3-1.8-3l-5.5,0.9
			c-0.7,0.1-1.4,0.7-1.8,1.4c-2.5,5-5.1,9.3-8,13c-3.1,3.9-6.1,7.1-8.9,9.6c-2.9,2.4-5.2,4.2-7.1,5.4c-0.6,0.4-1.2,0.7-1.6,1
			c-0.8,0.5-1.2,1.4-1.2,2.2v8.5c0,0,0.8-0.4,2.4-1.3C57.6,78.2,59.7,76.8,62.3,74.8z"/>
		<path class="st0" d="M97.7,48l13.2-2.2c1.1-0.2,2-1.3,2-2.6V38c0-1.2-0.9-2.1-2-1.9l-13.2,2.2c-1.1,0.2-2,1.3-2,2.6v5.3
			C95.6,47.3,96.5,48.2,97.7,48z"/>
		<path class="st0" d="M97.8,85.8c0.2-0.1,0.4-0.1,0.7-0.2c1.9-0.5,4.3-1.5,7.3-3.1c3-1.6,6.2-3.9,9.5-7.1c3.3-3.1,6.6-7.4,9.7-12.6
			c2.7-4.6,4.9-10.2,6.7-16.7c0.4-1.5-0.6-2.8-1.9-2.6l-4.6,0.8c-0.9,0.1-1.6,0.9-1.9,1.8c-1.6,5.2-3.3,9.4-5.3,12.7
			c-2.2,3.6-4.5,6.7-7.1,9.2c-2.5,2.5-5,4.4-7.3,5.5c-2.3,1.1-4.2,1.9-5.7,2.2c-1.5,0.3-2.2,0.5-2.3,0.5v7.8
			C95.6,85.2,96.7,86.1,97.8,85.8z"/>
		<path class="st0" d="M11.6,86.5c-0.3,1.3-0.6,2.4-1,3.3c-0.4,0.9-1,2-1.7,3.1c-0.7,1.1-1.5,2.1-2.4,3c-0.9,0.9-2.1,1.8-3.4,2.7
			c-0.6,0.4-1.2,0.8-1.8,1.2c-1.3,0.8-1.7,2.5-0.9,3.6c0.3,0.4,0.6,0.7,0.8,1.2c0.5,0.7,0.9,1.4,1.3,2.1c0.5,0.9,1.6,1.2,2.6,0.6
			c2-1.2,3.8-2.6,5.4-4c2-1.8,3.7-3.6,4.9-5.4c1.2-1.8,2.2-3.8,3-6.2c0.8-2.3,1.3-4.5,1.7-6.5c0.2-1.5,0.4-3.3,0.6-5.2
			c0.1-1.2,1-2.2,2-2.3l2.5-0.4c1.1-0.2,2,0.7,2,1.9v14.3c0,4.1,0.6,6.8,1.7,8.1c1.2,1.3,3.4,1.7,6.7,1.2l5.7-0.9
			c2.9-0.5,4.9-1.8,6.1-3.9c1-1.9,1.8-5,2.2-9.5c0.1-1.1-0.5-1.9-1.4-2.1c-0.7-0.2-1.5-0.4-2.3-0.6c-0.2-0.1-0.4-0.1-0.5-0.2
			c-1.3-0.5-2.8,0.8-2.9,2.4c-0.1,2-0.3,3.3-0.4,4c-0.2,1.1-0.8,1.7-1.5,1.9L37,94.2c-0.8,0.1-1.3,0.1-1.5-0.2
			c-0.2-0.3-0.3-1-0.3-2.1V77.7c0-1.2,0.9-2.4,2-2.6l9.6-1.6c1.1-0.2,2-1.3,2-2.6v-3.8c0-1.2-0.9-2.1-2-1.9l-16.6,2.7
			c-1.1,0.2-2-0.7-2-1.9V49c0-1.2-0.9-2.1-2-1.9l-3.9,0.6c-1.1,0.2-2,1.3-2,2.6v17.2c0,1.2-0.9,2.4-2,2.6L2.1,72.7
			c-1.1,0.2-2,1.3-2,2.6v3.8c0,1.2,0.9,2.1,2,1.9l8.2-1.4c1.2-0.2,2.2,0.8,2,2.1c0,0.5-0.1,0.9-0.1,1.3
			C12.1,84.1,11.9,85.2,11.6,86.5z"/>
		<path class="st0" d="M34.4,63.6l3.2,0.8c0.9,0.2,1.9-0.3,2.5-1.3c1.5-2.9,3.3-6.8,5.4-11.7c0.5-1.3,0-2.7-1.1-2.9l-4.2-0.9
			c-1.1-0.2-2.3,0.6-2.6,1.9c-1.1,3.9-2.5,7.6-4.1,11.1C32.8,61.9,33.3,63.3,34.4,63.6z"/>
		<path class="st0" d="M8.2,67.9c0.3,1.2,1.6,1.7,2.7,1l3.7-2.3c1-0.6,1.5-1.8,1.2-2.9c-0.8-2.9-2.3-6.2-4.3-10.1
			c-0.5-0.9-1.6-1.2-2.6-0.6l-3.3,2c-1.1,0.7-1.6,2.1-1.1,3.2C6.3,61.9,7.5,65.1,8.2,67.9z"/>
		<path class="st0" d="M295.4,54.9l4.7-0.8c1.1-0.2,2-1.3,2-2.6V30.5c0-1.2,0.9-2.4,2-2.6l19.2-3.2c1.1-0.2,2-1.3,2-2.6v-5.3
			c0-1.2-0.9-2.1-2-1.9l-19.2,3.2c-1.1,0.2-2-0.7-2-1.9V3.9c0-1.2-0.9-2.1-2-1.9l-4.7,0.8c-1.1,0.2-2,1.3-2,2.6v47.7
			C293.3,54.3,294.2,55.1,295.4,54.9z"/>
		<path class="st0" d="M260,51.1c-0.9,0.4-1.6,1.4-1.6,2.4v4.2c0,1.4,1.2,2.3,2.5,1.8c3.3-1.4,6.1-3.2,8.6-5.4
			c3-2.8,5.6-5.9,7.7-9.4c2.1-3.5,3.7-7,4.8-10.6c1.1-3.6,1.9-6.9,2.5-9.9c0.4-2.3,0.7-4.9,1-7.7c0.1-1.3-0.8-2.3-2-2.1l-3.3,0.5
			c-1,0.2-1.9,1.1-2,2.3c0,0.4-0.1,0.8-0.1,1.2c-0.2,2-0.7,4.6-1.3,7.8c-0.7,3.1-1.6,6.4-2.9,9.8c-1.3,3.4-3.2,6.5-5.7,9.3
			C265.8,47.8,263.1,49.7,260,51.1z"/>
		<path class="st0" d="M267,36.6c0.2,1,1,1.7,2,1.5l1.8-0.3c1.3-0.2,2.2-1.6,2-2.9l-2.7-16.4c-0.2-1-1-1.7-2-1.5l-1.6,0.3
			c-1.3,0.2-2.2,1.6-2,2.9L267,36.6z"/>
		<path class="st0" d="M257.7,38.1c0.2,1,1,1.7,2,1.5l1.7-0.3c1.3-0.2,2.2-1.6,2-2.9l-2.6-16.5c-0.2-1-1-1.7-2-1.5l-1.6,0.3
			c-1.3,0.2-2.2,1.6-2,2.9L257.7,38.1z"/>
		<path class="st0" d="M182.6,51.8l21.5-3.6c1.1-0.2,2-1.3,2-2.6v-5.3c0-1.2-0.9-2.1-2-1.9L182.6,42c-1.1,0.2-2,1.3-2,2.6v5.3
			C180.5,51.2,181.4,52,182.6,51.8z"/>
		<path class="st0" d="M219.3,57.2c1.3-0.9,2.7-1.9,4-3.1c1.4-1.1,3.1-0.4,3.1,1.3v8.7c0,1.2,0.9,2.1,2,1.9l4.2-0.7
			c1.1-0.2,2-1.3,2-2.6v-9.3c0-1.8,1.9-3.1,3.2-2.3c1.1,0.7,2.3,1.3,3.4,1.8c2.3,1.1,4.1,1.8,5.6,2.2c1.4,0.4,2.2,0.5,2.3,0.5V44.8
			c-0.1,0.1-0.7-0.1-1.8-0.4c-1.1-0.3-2.6-0.9-4.4-1.8c-1.3-0.6-2.6-1.3-4-2.2c-1-0.6-1.1-2.1-0.3-3.3c0.9-1.2,1.8-2.5,2.8-4
			c1.7-2.4,3.2-5.1,4.6-8.1c0.8-1.7,1.4-3.3,1.9-4.7c0.5-1.6-0.5-3-1.9-2.7l-9.1,1.5c-1.1,0.2-2-0.7-2-1.9v-2.4c0-1.2-0.9-2.1-2-1.9
			l-4.7,0.8c-1.1,0.2-2,1.3-2,2.6v2.4c0,1.2-0.9,2.4-2,2.6l-8.8,1.5c-1.1,0.2-2,1.3-2,2.6v5.1c0,1.2,0.9,2.1,2,1.9l15.2-2.5
			c1.7-0.3,2.7,1.7,1.6,3.3c-1.4,2.2-2.9,4.2-4.5,6c-2.5,2.8-5.1,5.2-7.6,7.2c-2.5,2-4.6,3.4-6.2,4.4c-0.5,0.3-0.9,0.6-1.3,0.8
			c-0.8,0.5-1.3,1.4-1.3,2.3v8.3c0.1,0,0.8-0.4,2.3-1.2C215.1,60,217,58.8,219.3,57.2z"/>
		<path class="st0" d="M145.4,52.1c2-2.4,4-5.9,6.1-10.4c0.4-0.8,1-1.4,1.8-1.5l9.6-1.6c1.2-0.2,2.2,0.8,2,2.2
			c-0.1,0.9-0.3,1.9-0.5,2.9c-0.2,1-1,1.9-2,2l-9.9,1.6c-1.1,0.2-2,1.3-2,2.6v4.8c0,1.2,0.9,2.1,2,1.9l3.7-0.6
			c1.8-0.3,2.7,2,1.5,3.6c-0.9,1.1-1.8,2.1-2.8,3c-2.1,2-4.1,3.6-6.1,4.8c-1.9,1.2-3.5,2.1-4.8,2.7c-1.3,0.6-1.9,0.8-1.9,0.8V81
			c0,0,0.8-0.2,2.2-0.8c1.4-0.6,3.2-1.5,5.5-2.9c2.3-1.3,4.7-3.1,7.3-5.3c2.6-2.2,5.1-5,7.6-8.2c2.5-3.2,4.6-7.1,6.3-11.5
			c1.7-4.4,2.7-9.5,3.2-15.2c0-0.1,0-0.2,0-0.2v-7.2c0-1.2-0.9-2.1-2-1.9l-16.9,2.8c0-0.1,0.1-0.6,0.3-1.6c0-0.2,0.1-0.4,0.1-0.6
			c0.2-1.4-0.7-2.5-2-2.3l-4.6,0.8c-1,0.2-1.8,1.1-2,2.1c-0.5,2.7-1.2,5.1-2,7.2c-1,2.6-2,4.8-3,6.6c-1.1,1.8-2,3.1-2.8,4
			c-0.8,0.9-1.2,1.4-1.2,1.4v12c0.1,0,0.8-0.6,2.2-2C141.5,56.7,143.3,54.7,145.4,52.1z"/>
		<path class="st0" d="M344.6,29.2c-1.8,0.5-3.2,1.4-4.2,2.7c-1.4,1.8-2.1,4-2.1,6.8c0,2.1,0.4,3.6,1.1,4.7c0.7,1.1,1.6,1.7,2.7,2
			c1.1,0.3,2.3,0.3,3.5,0c0.9-0.2,1.9-0.5,2.9-1s1.8-1.3,2.4-2.5c0.6-1.1,0.9-2.7,0.9-4.7v-2.6c0.7,0.2,1.4,0.4,2,0.7
			c0.6,0.3,1.4,0.8,2.3,1.3v-5.1c0-0.9-0.5-1.6-1.2-1.8c-0.7-0.3-1.4-0.5-2-0.7c-0.8-0.2-1.2-0.9-1.2-1.8v-3.1c0-1.2,0.9-2.4,2-2.6
			l0.1,0c1.1-0.2,2-1.3,2-2.6V17c0-1.2-0.9-2.1-2-1.9l-0.1,0c-1.1,0.2-2-0.7-2-1.9v-1.1c0-1.2-0.9-2.1-2-1.9l-1,0.2
			c-1.1,0.2-2.1,1.3-2.1,2.6v1.1c0,1.2-0.9,2.4-2,2.6l-3.8,0.6c-1.1,0.2-2,1.3-2,2.6v2.1c0,1.2,0.9,2.1,2,1.9l3.8-0.6
			c1.1-0.2,2,0.7,2,1.9v1.6C346.5,27.9,345.7,28.9,344.6,29.2z M346.5,37.6c0,0.6-0.1,1.1-0.2,1.4c-0.1,0.3-0.4,0.6-0.8,0.7
			c-0.9,0.2-1.6,0.2-2.1-0.1c-0.5-0.3-0.7-0.9-0.7-1.9c0.1-1,0.4-1.8,1.1-2.4c0.6-0.6,1.5-0.9,2.7-0.9V37.6z"/>
		<path class="st0" d="M332.1,44.9c0.1,1.1,1,1.8,2,1.6l1.2-0.2c1.2-0.2,2.2-1.6,2-2.9c-0.1-1.1-0.3-2.1-0.4-3.1
			c-0.2-1.7-0.4-3.5-0.5-5.5c-0.1-2-0.2-4-0.2-6.1c0-1.7,0.1-3.5,0.2-5.4c0.1-1.9,0.2-3.6,0.4-5.2c0.1-0.9,0.2-1.9,0.3-2.9
			c0.1-1.3-0.8-2.4-2-2.2l-1.1,0.2c-1,0.2-1.9,1.2-2,2.3c-0.3,2.5-0.5,4.7-0.6,6.6c-0.2,2.5-0.3,5-0.3,7.6c0,2.8,0.1,5.5,0.3,8.1
			C331.6,40,331.8,42.3,332.1,44.9z"/>
	</g>
</g>
</svg>
