<?xml version="1.0" encoding="UTF-8"?><svg id="_イヤー_2" xmlns="http://www.w3.org/2000/svg" viewBox="0 0 460 94"><defs><style>.cls-1{fill:#fff;}</style></defs><g id="_イヤー_1-2"><g><path id="_ス_16867" class="cls-1" d="M1.64,49.02l.51-6.21,32.01-2.8,.31-7.84,22.98-2.02-.31,7.84,34.06-2.98-.51,6.21-33.75,2.96-.72,20.21,33.34-2.92-.51,6.21-33.03,2.89-.72,21.44-22.88,2,.72-21.44L0,75.46l.51-6.21,32.83-2.88,.62-20.2L1.64,49.02Z"/><path id="_ス_16868" class="cls-1" d="M96.61,60.85l.38-4.55,9.61-.84-.38-5.53,16.22-1.42,.38,5.53,36.94-3.24-5.41,19.13-15.54,1.36,4.05-14.5-19.82,1.74,1.73,27.39-16.22,1.42-1.73-27.39-10.21,.9Z"/><path id="_ス_16869" class="cls-1" d="M148.87,30.97l.51-6.21,32.01-2.8-.51,6.21-32.01,2.8Zm26.06,50.54l37.65-59.83,26.26-2.3-37.65,59.83-26.26,2.3Z"/><path id="_ス_16870" class="cls-1" d="M299.36,70.61l-31.29-42.17-17.13,27.92-19.7,1.73,26.67-43.45,22.98-2.01,41.44,55.98-22.98,2.01Zm27.94-48.46l-19.74,1.73,1.48-16.62,19.74-1.73-1.48,16.62Zm-7.34-9.66l-3.28,.29-.31,4.14,3.28-.29,.3-4.14Z"/><path id="_ス_16871" class="cls-1" d="M325.73,45.27l.51-6.21,54.46-4.77-.51,6.21-54.45,4.77Z"/><path id="_ス_16872" class="cls-1" d="M370.55,5.37l-.51,6.21,32.01-2.8,.51-6.21-32.01,2.8Zm63.19-3.07l-37.65,59.83,26.26-2.3L460,0l-26.26,2.3Z"/></g></g></svg>