<?xml version="1.0" encoding="utf-8"?>
<!-- Generator: Adobe Illustrator 26.3.1, SVG Export Plug-In . SVG Version: 6.00 Build 0)  -->
<svg version="1.1" id="レイヤー_1" xmlns="http://www.w3.org/2000/svg" xmlns:xlink="http://www.w3.org/1999/xlink" x="0px"
	 y="0px" viewBox="0 0 420 105" style="enable-background:new 0 0 420 105;" xml:space="preserve">
<style type="text/css">
	.st0{fill:#004B9E;}
	.st1{fill:#FFAF00;}
</style>
<g>
	<g>
		<path id="パス_19129" class="st0" d="M12.7,90.5c-0.8,2.3,0.4,4.5,5.5,4.5c3.8,0,6.9-2.1,7.6-4.1c0.8-2.1,0.6-3.3-3.8-4.7
			l-7-2.3c-3.1-1.1-9.6-3.3-6.2-12.6c3.2-8.8,12.8-14.2,23.8-14.2c8.8,0,14.3,4.3,11.3,13.4H32.7c1.1-3.1-2.6-4.3-4.5-4.3
			c-3.4,0-6.2,1.3-7.2,3.4c-1.3,2.7,0.8,3.7,4.1,4.8l6.9,2.3c7,2.3,9,6.5,6.8,12.7c-2.8,7.8-12,15.7-25.3,15.7
			c-5.5,0-10.3-1.3-12.6-5.6c-1.6-3.2-0.6-6.8,0.1-8.9L12.7,90.5z"/>
		<path id="パス_19130" class="st0" d="M62.1,84.8l6.4-17.6h10.1l3.2-8.8H71.7l5-13.8l0,0l-13.5,4.9l0,0l-3.2,8.9h-8.8l-3.2,8.8
			h8.8l-5.9,16.2l0,0l0,0l-0.4,1.2c-1.8,5-5.6,19,13.1,19h1.9l4.1-11.4h-3.4C62.6,92.2,59.9,91.1,62.1,84.8L62.1,84.8z"/>
		<path id="パス_19131" class="st0" d="M256.6,84.8l6.4-17.6h10.1l3.2-8.8h-10.1l5-13.8l0,0l-13.5,4.9l-3.2,8.9h-8.8l-3.2,8.8h8.8
			l-5.9,16.2l0,0l0,0l-0.4,1.2c-1.8,5-5.6,19,13.1,19h1.9l4.1-11.4h-3.4C257.1,92.2,254.4,91.1,256.6,84.8L256.6,84.8z"/>
		<path id="パス_19132" class="st0" d="M142.1,67.1l3.3-9.1h-12.5l-16.6,45.7h12.5l6.4-17.6c2.1-5.7,7.5-14.6,18.7-14.6l3.2-8.8
			C151.8,62.7,146.6,64.2,142.1,67.1"/>
		<path id="パス_19133" class="st0" d="M169.3,94.3c-5.9,0-3.8-7.6-2-12.6c0.1-0.2,0.1-0.4,0.2-0.6s0.2-0.4,0.2-0.6
			c1.8-5,5.2-12.6,11.2-12.6c4.8,0,3.6,4.8,3.1,6.5h12.3c4.4-12.3-3.3-17-11.2-17c-5.7,0-21,2.9-28.5,23.6c0,0.1,0,0.1-0.1,0.2
			s0,0.1-0.1,0.2c-7.5,20.7,5.7,23.6,11.4,23.6c10.6-0.2,20-7,23.6-17h-12.2C176.4,89.4,174.2,94.3,169.3,94.3"/>
		<path id="パス_19134" class="st0" d="M102.4,98.9l6.7,4.8l10.2-29.9c0.8-2.1,2.3-7.5,0.4-11.2c-2.5-5.1-9.2-5.4-12.8-5.4
			c-4.8-0.1-9.5,1.2-13.5,3.7c-4.1,2.3-7.2,5.9-9,10.2h11.5c0.4-1.1,2.9-5.4,7.9-5.4c4.9,0,4.8,2.6,4.3,4.5l-0.4,1.2l-1,2.9
			c-4.1,0-11.7,0-17.8,2.5c-9.3,3.9-12.1,9.8-13.4,13.4s-1.4,7.1,1.3,10c4.3,4.5,13.7,3.2,18.2,2C97.5,101.6,100.1,100.5,102.4,98.9
			 M86.7,89c1.8-5,8.8-7.5,17-6.8l-3.4,9.4c-0.3,0.2-0.6,0.4-0.9,0.7C96.9,94,94,94.9,91,95C86.6,95,85.7,91.8,86.7,89"/>
		<path id="パス_19135" class="st0" d="M220.5,98.9l6.7,4.8l10.2-29.9c0.8-2.1,2.3-7.5,0.4-11.2c-2.5-5.1-9.2-5.4-12.8-5.4
			c-4.8-0.1-9.5,1.2-13.5,3.7c-4.1,2.3-7.2,5.9-9,10.2H214c0.4-1.1,2.9-5.4,7.9-5.4c4.9,0,4.8,2.6,4.3,4.5l-0.4,1.2l-1,2.9
			c-4.1,0-11.7,0-17.8,2.5c-9.3,3.9-12.1,9.8-13.4,13.4s-1.4,7.1,1.3,10c4.3,4.5,13.7,3.2,18.2,2
			C215.6,101.6,218.2,100.5,220.5,98.9 M204.8,89c1.8-5,8.8-7.5,17-6.8l-3.4,9.4c-0.3,0.2-0.6,0.4-0.9,0.7c-2.5,1.7-5.4,2.7-8.4,2.8
			C204.7,95,203.8,91.8,204.8,89"/>
		<path id="パス_19136" class="st1" d="M393.8,56.3c2,3,4.2,6.5,5.9,9.5l0,0c2.7,4.3,3.6,8,2.1,10.5c-4.9,8.5-34.3,0.6-65.6-17.6
			s-52.9-39.7-48-48.2c1.4-2.5,5-3.6,10.1-3.4l0,0c3.4,0,7.5,0.2,11.1,0.4c-23.6-8.6-41.5-10.2-45.9-2.7
			c-6.8,11.8,22.5,41.4,65.5,66.3s83.2,35.5,90,23.7C423.3,87.3,413,72.5,393.8,56.3"/>
		<path id="パス_19137" class="st0" d="M361.5,44.7l30.3-24.6L376.5,9.4l-22.1,29.2L361.5,44.7z"/>
		<path id="パス_19138" class="st0" d="M329.6,37.4l-9-29.5l-15,7.4l15,27.4L329.6,37.4z"/>
		<path id="パス_19139" class="st0" d="M291.7,48.7l-2.8,7.6h12.9c-3.5-2.5-6.8-5.1-9.9-7.6L291.7,48.7z"/>
		<path id="パス_19140" class="st0" d="M355.6,61.6l0.9-2.4c-5.5-2.6-11.2-5.6-16.9-8.9c-2.9-1.7-5.6-3.3-8.3-5.1l-0.9,2.5
			c2.6,1.7,5.4,3.3,8.2,4.9C344.3,56,350.1,59,355.6,61.6"/>
		<path id="パス_19141" class="st0" d="M346.2,48.7l16.1-44.4h-16.2l-14.4,39.6c2.8,1.7,5.6,3.5,8.5,5.2
			c5.7,3.3,11.3,6.2,16.7,8.8l0.6-1.6h28l2.8-7.6L346.2,48.7z"/>
		<path id="パス_19142" class="st0" d="M337.1,56.3h4c-1.2-0.7-2.4-1.3-3.6-2c-3.2-1.8-6.2-3.7-9.2-5.6h-3.6c3.8,2.5,7.8,5,12,7.4
			C336.9,56.2,337,56.2,337.1,56.3"/>
		<path id="パス_19143" class="st0" d="M354.9,63.4c-4.1-2-8.4-4.1-12.7-6.5l-0.7,1.9c4.3,2.4,8.6,4.5,12.7,6.5L354.9,63.4z"/>
		<path id="パス_19144" class="st0" d="M309,69.5c3.9,2.6,8,5.1,12.2,7.6c0.5-0.8,0.9-1.6,1.4-2.4c-4.3-2.6-8.5-5.1-12.5-7.8
			C309.8,67.8,309.4,68.6,309,69.5"/>
		<path id="パス_19145" class="st0" d="M305.3,76.7c-4.4,5.8-11.7,9.6-17.8,12c-2.6,1-5.2,1.8-7.9,2.5c-2,0.5-3.2,0.7-3.2,0.7
			l-0.7,0.1l-4.4,12.6l1.9-0.4c6.8-1.3,21.2-4.1,32.2-11.3c6-3.7,11.1-8.7,14.9-14.7c-4.2-2.5-8.2-5-12-7.5
			C307.5,72.7,306.5,74.7,305.3,76.7"/>
		<path id="パス_19146" class="st0" d="M310.9,65.1c4,2.7,8.2,5.3,12.6,7.9c0.3-0.6,0.6-1.3,0.9-1.9c-4.4-2.6-8.7-5.3-12.8-8
			C311.4,63.8,311.1,64.5,310.9,65.1"/>
		<path id="パス_19147" class="st0" d="M332.5,83.6c4.3,2.3,8.5,4.5,12.7,6.6c0.2-0.5,0.4-1.1,0.6-1.7l0.3-1
			c-4.2-2-8.4-4.2-12.7-6.5L332.5,83.6z"/>
		<path id="パス_19148" class="st0" d="M347.6,83.6c-4.2-2-8.4-4.2-12.7-6.5l-0.7,2.1c4.3,2.3,8.5,4.5,12.7,6.6L347.6,83.6z"/>
		<path id="パス_19149" class="st0" d="M349,94.6c-3.9,0-4.6-1.1-4.1-3.3c-4.2-2-8.5-4.2-12.8-6.6l-2.1,5.8
			c-3.8,10.5,2.7,13.9,13.4,13.9H368l3.6-9.9L349,94.6z"/>
	</g>
</g>
</svg>
