<?xml version="1.0" encoding="utf-8"?>
<!-- Generator: Adobe Illustrator 26.4.1, SVG Export Plug-In . SVG Version: 6.00 Build 0)  -->
<svg version="1.1" id="レイヤー_1" xmlns="http://www.w3.org/2000/svg" xmlns:xlink="http://www.w3.org/1999/xlink" x="0px"
	 y="0px" viewBox="0 0 62 62" style="enable-background:new 0 0 62 62;" xml:space="preserve">
<style type="text/css">
	.st0{fill:#FDD000;}
</style>
<g id="icon_twitter" transform="translate(10)">
	<g id="グループ_2211" transform="translate(-10)">
		<path id="パス_14273" class="st0" d="M31,0C13.9,0,0,13.9,0,31s13.9,31,31,31s31-13.9,31-31l0,0C62,13.9,48.1,0,31,0 M46.6,25.1
			c0,0.3,0,0.6,0,1c0,9.9-7.5,21.3-21.3,21.3c-4.1,0-8-1.2-11.5-3.4c0.6,0.1,1.2,0.1,1.8,0.1c3.4,0,6.6-1.1,9.3-3.2
			c-3.2-0.1-6-2.1-7-5.2c1.1,0.2,2.3,0.2,3.4-0.1c-3.5-0.7-6-3.8-6-7.3v-0.1c1,0.6,2.2,0.9,3.4,0.9c-3.3-2.2-4.3-6.6-2.3-10
			c3.8,4.7,9.4,7.5,15.4,7.8c-0.9-4,1.6-8,5.6-9c2.6-0.6,5.3,0.2,7.2,2.2c1.7-0.3,3.3-0.9,4.7-1.8c-0.6,1.7-1.7,3.2-3.3,4.1
			c1.5-0.2,2.9-0.6,4.3-1.2C49.3,22.8,48,24.1,46.6,25.1"/>
	</g>
</g>
</svg>
