<?xml version="1.0" encoding="utf-8"?>
<!-- Generator: Adobe Illustrator 26.4.1, SVG Export Plug-In . SVG Version: 6.00 Build 0)  -->
<svg version="1.1" id="icon_line" xmlns="http://www.w3.org/2000/svg" xmlns:xlink="http://www.w3.org/1999/xlink" x="0px" y="0px"
	 viewBox="0 0 62 62" style="enable-background:new 0 0 62 62;" xml:space="preserve">
<style type="text/css">
	.st0{fill:#FDD000;}
</style>
<g id="グループ_2212" transform="translate(0 0)">
	<path id="パス_14274" class="st0" d="M31,0C13.9,0,0,13.9,0,31s13.9,31,31,31s31-13.9,31-31l0,0C62,13.9,48.1,0,31,0 M47.2,39.5
		c-4.3,5-14.1,11.1-16.3,12s-1.9-0.6-1.8-1.1c0.1-0.3,0.3-1.8,0.3-1.8c0.1-0.6,0.1-1.3-0.1-1.9c-0.2-0.6-1.1-0.9-1.8-1
		c-9.9-1.3-17.3-8.3-17.3-16.6c0-9.3,9.3-16.8,20.7-16.8s20.7,7.5,20.7,16.8C51.7,32.9,50.2,36.2,47.2,39.5L47.2,39.5z"/>
	<path id="パス_14275" class="st0" d="M44.8,24.6h-6c-0.2,0-0.4,0.2-0.4,0.4l0,0l0,0l0,0v9.2l0,0l0,0c0,0.2,0.2,0.4,0.4,0.4l0,0h6
		c0.2,0,0.4-0.2,0.4-0.4l0,0v-1.5c0-0.2-0.2-0.4-0.4-0.4h-4.1v-1.6h4.1c0.2,0,0.4-0.2,0.4-0.4l0,0v-1.5c0-0.2-0.2-0.4-0.4-0.4h-4.1
		v-1.6h4.1c0.2,0,0.4-0.2,0.4-0.4l0,0V25C45.2,24.8,45.1,24.6,44.8,24.6"/>
	<path id="パス_14276" class="st0" d="M23.4,32.4h-4.1V25c0-0.2-0.2-0.4-0.4-0.4h-1.5c-0.2,0-0.4,0.2-0.4,0.4l0,0v9.2l0,0l0,0
		c0,0.2,0.2,0.4,0.4,0.4l0,0h6c0.2,0,0.4-0.2,0.4-0.4l0,0v-1.5C23.8,32.5,23.6,32.4,23.4,32.4"/>
	<path id="パス_14277" class="st0" d="M26.8,24.6h-1.5c-0.2,0-0.4,0.2-0.4,0.4l0,0v9.3c0,0.2,0.2,0.4,0.4,0.4l0,0h1.5
		c0.2,0,0.4-0.2,0.4-0.4l0,0V25C27.2,24.8,27,24.6,26.8,24.6L26.8,24.6"/>
	<path id="パス_14278" class="st0" d="M36.9,24.6h-1.5c-0.2,0-0.4,0.2-0.4,0.4l0,0v5.5l-4.2-5.7l0,0l0,0l0,0l0,0l0,0l0,0l0,0l0,0
		l0,0l0,0l0,0l0,0l0,0l0,0l0,0l0,0l0,0h-1.5c-0.2,0-0.4,0.2-0.4,0.4v9.3c0,0.2,0.2,0.4,0.4,0.4l0,0h1.5c0.2,0,0.4-0.2,0.4-0.4l0,0
		V29l4.2,5.7l0.1,0.1l0,0l0,0l0,0l0,0l0,0l0,0l0,0l0,0h0.1h1.5c0.2,0,0.4-0.2,0.4-0.4l0,0V25C37.3,24.8,37.1,24.6,36.9,24.6
		L36.9,24.6"/>
</g>
</svg>
