<?xml version="1.0" encoding="utf-8"?>
<!-- Generator: Adobe Illustrator 26.4.1, SVG Export Plug-In . SVG Version: 6.00 Build 0)  -->
<svg version="1.1" id="icon_facebook" xmlns="http://www.w3.org/2000/svg" xmlns:xlink="http://www.w3.org/1999/xlink" x="0px"
	 y="0px" viewBox="0 0 62 62" style="enable-background:new 0 0 62 62;" xml:space="preserve">
<style type="text/css">
	.st0{clip-path:url(#SVGID_00000000214656755262056000000002159909006390683571_);}
	.st1{fill:#FDD000;}
</style>
<g>
	<g>
		<defs>
			<rect id="SVGID_1_" width="62" height="62"/>
		</defs>
		<clipPath id="SVGID_00000074444230065143238050000009193038230504289452_">
			<use xlink:href="#SVGID_1_"  style="overflow:visible;"/>
		</clipPath>
		
			<g id="グループ_2205" transform="translate(0 0)" style="clip-path:url(#SVGID_00000074444230065143238050000009193038230504289452_);">
			<path id="パス_14279" class="st1" d="M31,0C13.9,0,0,14,0,31.2C0,46.5,11.1,59.6,26.2,62V40.2h-7.9v-9h7.9v-6.9
				c0-7.8,4.6-12.1,11.7-12.1c2.3,0,4.6,0.2,6.9,0.6v7.7h-3.9c-3.9,0-5.1,2.4-5.1,4.9v5.9h8.6l-1.4,9h-7.2V62
				c16.9-2.7,28.5-18.7,25.8-35.7C59.3,11.2,46.3,0,31,0"/>
		</g>
	</g>
</g>
</svg>
