<?xml version="1.0" encoding="utf-8"?>
<!-- Generator: Adobe Illustrator 26.4.1, SVG Export Plug-In . SVG Version: 6.00 Build 0)  -->
<svg version="1.1" id="レイヤー_1" xmlns="http://www.w3.org/2000/svg" xmlns:xlink="http://www.w3.org/1999/xlink" x="0px"
	 y="0px" viewBox="0 0 745 128" style="enable-background:new 0 0 745 128;" xml:space="preserve">
<style type="text/css">
	.st0{fill:#064B9E;}
</style>
<g id="グループ_2911" transform="translate(-29.191 -5374.743)">
	<path id="パス_36561" class="st0" d="M102.6,5374.3c7.3,10.5,16,20.1,25.8,28.3c9.3,8,19.7,14.6,30.9,19.6
		c-3.8,3.7-8.1,9.4-12.9,17c-8.8-5.1-17.1-10.8-24.8-17.3v11.4H65.4v-11c-7.5,6.2-15.5,11.8-23.9,16.8c-1.6-2.8-3.5-5.5-5.6-8
		c-2.1-2.6-4.4-5.1-6.8-7.4c11.3-6.1,21.8-13.7,31.1-22.6c9.9-9.3,17.4-18.2,22.5-26.7H102.6z M114.1,5415.5
		c-7.6-6.7-14.6-14.1-20.7-22.2c-5.9,8.1-12.6,15.6-20.1,22.2H114.1z M140.7,5447.3c-5.5,14.4-13.6,32.7-24.3,55l-20.9-5.6
		c6.1-12,11.6-23.6,16.5-34.7H46.4v-18.2h75.3l3.4-0.8L140.7,5447.3z M167.9,5453.5v-14c3.9-0.4,7.4-0.6,10.4-0.9
		c0.1-4.2,0.1-8.9,0.1-14.1H192c0.1,5.1,0,9.6-0.2,13.4h6.8c4.5,0,7.9,1.4,10.3,4.3c2.4,2.9,3.8,7.4,4.3,13.6
		c0.4,4.6,0.6,9.2,0.5,13.8c-0.1,4.4-0.5,8.8-1.5,13.1c-0.7,3.6-2.2,6.9-4.5,9.8c-2.2,2.5-5.4,3.9-8.7,3.9c-2.5,0-5-0.2-7.5-0.7
		c-1-0.1-1.9-0.4-2.8-0.7V5481c2.6,1,5.4,1.5,8.2,1.6c1.5-0.2,2.6-1.6,3.2-4.4c0.6-3.3,0.9-6.6,0.8-9.9c0-3.9-0.1-7.7-0.4-11.5
		c0-2.2-0.4-3.7-1.2-4.3c-1.4-0.8-2.9-1.1-4.5-1.1c-0.6,0-1.2,0-1.8,0.1c-0.7,0.1-1.3,0.1-2,0.1c-0.7,7.7-1.9,15.3-3.7,22.8
		c-1.8,7.2-4,14.4-6.6,21.4h-14.3c3.1-6.8,5.7-13.8,7.6-20.9c1.8-7.3,3.1-14.8,3.7-22.4c-2.9,0.2-5.2,0.5-7,0.7
		C168.9,5453.4,168,5453.5,167.9,5453.5z M208.8,5430.1h13.1c5,10.3,8.3,21.4,9.7,32.8h-13.1
		C217.8,5452.4,214.5,5441.4,208.8,5430.1L208.8,5430.1z M209,5427.2v-14h6.8v14L209,5427.2z M219.6,5427.2v-14h6.8v14L219.6,5427.2
		z M276.4,5451.2h-35.6v-20.8h36v-15h-32.2v-20.8H325v20.8h-26.8v15h30.7v20.8H298c-0.8,8.7-3.3,16-7.5,22
		c-3.8,5.5-8.5,10.4-13.9,14.5c-4.6,3.5-9.7,6.3-15,8.5c-4,1.6-8.1,3-12.3,4.1c-3.3,0.8-4.9,1.1-5,1.1v-22.1
		c1.6-0.2,3.3-0.5,4.8-0.9c3.7-0.9,7.2-2.3,10.6-4c4.1-2,7.8-5,10.7-8.5C273.5,5462.1,275.5,5457.2,276.4,5451.2z M355.6,5442.1
		l-14.1,0.7v-17.6l11.9-0.5l-2-17.3H369l2,16.8l47.8-1.5v17.6c-1.5,6.9-4.4,13.3-8.6,19c-3.4,4.7-7.5,8.8-12,12.4
		c-4.6,3.4-9.5,6.4-14.7,8.9v-19.3c2.7-1.4,5.2-3.1,7.4-5.2c2.1-2,4-4.1,5.7-6.5c1.9-2.7,3.3-5.7,4.3-8.8l-27.8,0.9l7.4,60.4h-17.4
		L355.6,5442.1z M501.5,5418.3h21.3c-4.5,16.2-10.5,29.4-18,39.7s-15.3,18.1-23.4,23.6c-7.1,5-14.8,9-23,11.8
		c-5.8,2-11.7,3.3-17.8,4.1c-2.3,0.3-4.7,0.4-7,0.5v-21.7c1.8,0.1,3.7,0,5.5-0.2c4.7-0.4,9.3-1.3,13.8-2.7
		c5.6-1.6,11.5-4.7,17.6-9.2c6.5-4.9,12.3-10.7,17.1-17.2C492.8,5439.9,497.4,5430.4,501.5,5418.3z M433.6,5416.7V5396h41.9v20.8
		H433.6z M588.4,5416.5h-48.6V5395H617c-1.7,9.8-4.6,19.4-8.7,28.6c-3.6,8.3-7.9,16.2-12.8,23.8c4,5.2,8,10,12,14.4
		c3.2,3.6,6.6,6.9,10.3,10c2.9,2.4,4.4,3.6,4.5,3.7v25.4c-4.8-3.5-9.2-6.8-13.1-10.1c-4.4-3.7-8.6-7.7-12.6-11.9
		c-4.6-4.9-9-10-13-15.4c-5.1,6.2-10.6,12.1-16.7,17.4c-4.9,4.4-10.2,8.3-15.8,11.9c-3.8,2.4-7.7,4.6-11.7,6.6
		c-3,1.4-4.5,2.1-4.6,2.1v-23.8c7.6-3.8,14.7-8.6,21-14.4c6.4-5.9,12.3-12.4,17.5-19.3C578.8,5436.8,583.9,5427.6,588.4,5416.5z
		 M687.2,5453.9l-4-42l-0.8-22.1h26.3l-0.8,22.1l-4,42L687.2,5453.9z M695.5,5490.8c-3.7,0.1-7.3-1.3-9.9-3.9
		c-2.6-2.6-3.9-6.1-3.8-9.7c-0.1-3.6,1.3-7.1,3.9-9.6c2.6-2.5,6.2-3.8,9.8-3.7c3.6-0.1,7.2,1.2,9.8,3.7c2.6,2.5,4,6,3.9,9.6
		c0.1,3.6-1.3,7.1-3.9,9.7C702.7,5489.6,699.2,5491,695.5,5490.8L695.5,5490.8z"/>
</g>
</svg>
