<?xml version="1.0" encoding="utf-8"?>
<!-- Generator: Adobe Illustrator 26.4.1, SVG Export Plug-In . SVG Version: 6.00 Build 0)  -->
<svg version="1.1" id="レイヤー_1" xmlns="http://www.w3.org/2000/svg" xmlns:xlink="http://www.w3.org/1999/xlink" x="0px"
	 y="0px" viewBox="0 0 1030 632" style="enable-background:new 0 0 1030 632;" xml:space="preserve">
<style type="text/css">
	.st0{fill:#FFFFFF;}
	.st1{fill:#FFF100;}
	.st2{fill:#064B9E;}
	.st3{fill:none;stroke:#064B9E;stroke-width:3;stroke-linecap:round;}
	.st4{opacity:0.502;fill:none;stroke:#FFF100;stroke-width:12;enable-background:new    ;}
</style>
<g id="opt_pc" transform="translate(19661.609 1056.963)">
	<g id="パス_36407" transform="translate(-19631.109 -1024.833)">
		<path class="st0" d="M979.5,594.9H20c-4,0-7.8-1.6-10.6-4.4c-2.8-2.8-4.4-6.6-4.4-10.6V20c0-4,1.6-7.8,4.4-10.6
			C12.2,6.6,16,5,20,5h959.5c4,0,7.8,1.6,10.6,4.4c2.8,2.8,4.4,6.6,4.4,10.6v559.9c0,4-1.6,7.8-4.4,10.6
			C987.3,593.3,983.5,594.9,979.5,594.9z"/>
		<path class="st1" d="M20,10c-5.5,0-10,4.5-10,10v559.9c0,5.5,4.5,10,10,10h959.5c5.5,0,10-4.5,10-10V20c0-5.5-4.5-10-10-10H20
			 M20,0h959.5c11,0,20,9,20,20v559.9c0,11-8.9,20-20,20H20c-11,0-20-9-20-20V20C0,8.9,8.9,0,20,0z"/>
	</g>
	<path id="パス_36408" class="st2" d="M-19510.2-942h332.8v71h-332.8V-942z"/>
	<path id="パス_36421" class="st2" d="M-19154.4-942h332.8v71h-332.8V-942z"/>
	<path id="パス_36409" class="st1" d="M-19477.8-923.4v6.7h-8.6v-14.7h20.5v-5.2h9v5.2h20.8v14.7h-9v-6.7H-19477.8z
		 M-19446.8-912.8h-29.3v-7.6h29.3V-912.8z M-19443.7-889.9c0.5,0,1-0.1,1.3-0.5c0.4-0.6,0.6-1.2,0.6-1.9c0.1-0.9,0.2-2.3,0.3-4.3
		c1.1,0.7,2.2,1.3,3.4,1.8c1.4,0.6,2.7,1,4.1,1.4c-0.2,2.3-0.6,4.6-1.4,6.8c-0.5,1.4-1.5,2.6-2.7,3.3c-1.5,0.7-3.2,1-4.8,1h-6.6
		c-2,0.1-3.9-0.2-5.8-0.9c-1.3-0.6-2.3-1.6-2.8-3c-0.6-1.9-0.9-3.9-0.8-5.8v-10.1h-6.1c-0.3,3.2-1.1,6.3-2.3,9.2
		c-1.3,2.7-3.2,5-5.7,6.7c-3.5,2.3-7.3,3.9-11.3,4.8c-0.5-1.4-1.2-2.7-2.1-4c-0.8-1.3-1.7-2.5-2.8-3.6c3.2-0.5,6.2-1.6,9.1-3
		c1.8-0.9,3.3-2.4,4.3-4.2c0.9-1.9,1.4-3.9,1.6-5.9h-13.2v-7.9h52.2v7.9h-15.3v10c-0.1,0.6,0.1,1.3,0.4,1.8c0.5,0.3,1.2,0.5,1.8,0.4
		H-19443.7z M-19398.9-890.3h20.8v7.5h-49.6v-7.5h19.9v-5.6h-15.3v-7.2h15.3v-5.4h-12.2v-4.8c-2,1.4-4.1,2.6-6.2,3.7
		c-0.7-1.2-1.5-2.4-2.4-3.5c-0.9-1.2-1.9-2.3-2.9-3.3c5-2.4,9.5-5.6,13.6-9.3c3.8-3.3,7.1-7,9.7-11.2h8.8c3.1,4.5,6.9,8.5,11.2,11.9
		c4.1,3.3,8.6,6,13.5,7.9c-2.1,2.3-4,4.9-5.6,7.6c-2-1.1-4.1-2.3-6.1-3.7v4.6h-12.6v5.4h15.5v7.2h-15.5V-890.3z M-19390.2-915.9
		c-2.7-1.9-5.2-4.1-7.6-6.4c-2.1-2-4-4.1-5.7-6.4c-3.6,4.9-8,9.2-12.9,12.8H-19390.2z M-19317.8-911.8c-1.2,2.9-2.5,5.7-4,8.4
		c-1.4,2.6-3,5-4.7,7.4l-7.2-4.2c1.3-1.9,2.4-3.9,3.4-6h-10v15.9c0.1,1.7-0.2,3.4-0.9,4.9c-0.7,1.2-1.8,2.1-3.2,2.6
		c-1.6,0.6-3.2,0.9-4.9,1c-1.9,0.2-4.2,0.2-7.1,0.2c-0.3-1.4-0.7-2.8-1.2-4.1c-0.5-1.4-1.1-2.7-1.8-4c2.1,0.1,5,0.2,8.8,0.2
		c0.4,0,0.8-0.1,1.2-0.3c0.2-0.2,0.4-0.5,0.3-0.8v-15.6h-22.5v-8h23.8c-3.4-1.3-6.7-2.5-9.9-3.6l4.2-6.4c2,0.6,4.8,1.5,8.2,2.6
		c1.9-1.3,3.7-2.6,5.4-4.1h-26v-7.7h34.1l1.9-0.5l6,4.8c-3.9,3.8-8,7.3-12.5,10.5c1,0.3,2.4,0.9,4.2,1.6l-1.7,2.7h7.7l1.4-0.6
		L-19317.8-911.8z M-19260.9-927.1c0,1.9,0,3.1-0.1,3.8c-0.3,8.9-0.6,15.9-0.8,20.8c-0.2,3.8-0.6,7.6-1.1,11.4
		c-0.2,2-0.9,3.9-1.9,5.6c-0.7,1-1.6,1.9-2.7,2.6c-1.1,0.6-2.3,1-3.5,1.1c-1.9,0.3-3.7,0.4-5.6,0.3c-1.5,0-2.7,0-3.5-0.1
		c-0.1-1.5-0.4-2.9-0.9-4.3c-0.5-1.5-1.1-2.9-1.9-4.2c2.4,0.2,5.1,0.3,8.3,0.3c0.5,0,1-0.1,1.4-0.2c0.4-0.2,0.8-0.5,1.1-0.8
		c0.8-0.9,1.4-3.4,1.9-7.7c0.4-4.3,0.8-11.1,1.1-20.6h-14.4c-1.3,2.5-2.9,4.9-4.7,7.2c-1.7-1.5-3.5-2.8-5.4-3.9
		c1,1.9,1.8,3.8,2.6,5.7c0.7,1.6,1.2,3.2,1.5,4.9l-6.3,2.9c-0.2-0.9-0.4-1.9-0.7-2.9l-2.3,0.2v4.5l5.2-1.7c0.7,1.7,1.4,3.6,2.1,5.7
		s1.2,3.8,1.5,5.2l-6.5,2.4c-0.6-2.8-1.4-5.7-2.3-8.4v16h-7.4v-18c-0.3,2.6-0.7,5.1-1.2,7.7c-0.5,2.1-1.1,4.2-1.9,6.3
		c-1-0.6-2-1.1-3-1.6c-1.3-0.6-2.4-1.1-3.3-1.4c1.4-3,2.2-7.5,2.7-13.4l6.8,1.2v-3.8l-8.2,0.6l-0.7-7.2l4.6-0.2
		c0.5-0.5,0.9-1.1,1.3-1.7l0.8-1c-1.9-2.8-4.1-5.4-6.6-7.8l3.9-5.9l1.2,1c1.5-3.1,2.8-6.4,3.8-9.7l7.4,2.6l-0.8,1.4
		c-2.6,4.9-4.5,8.4-5.9,10.5l1.2,1.5c1.8-2.9,3.4-5.9,4.9-8.9l7.1,2.9c-3,4.6-5.6,8.3-7.8,11.2l4.8-2.1c2.2-2.5,4.1-5.3,5.5-8.4
		c1.6-3.4,2.9-7,3.7-10.7l8.8,1.9c-0.7,2.6-1.5,5.1-2.5,7.7L-19260.9-927.1z M-19299-911.9c-0.5-1.3-1-2.3-1.4-3.1
		c-1.2,1.6-2.1,2.7-2.6,3.3L-19299-911.9z M-19281.6-896.3c-0.7-2.2-1.5-4.3-2.6-6.3c-1.2-2.4-2.6-4.7-4.1-7l6.7-3.4
		c1.6,2.2,3.1,4.4,4.4,6.8c1.2,2,2.1,4,2.8,6.2L-19281.6-896.3z M-19235.8-918.3h11.9v7.6h-11.9v3.2h11v14.3c0,1.3-0.1,2.7-0.5,3.9
		c-0.3,1-0.9,1.8-1.8,2.3c-0.9,0.5-1.8,0.9-2.8,1c-1.3,0.2-2.6,0.2-3.9,0.2c-0.1-1.2-0.3-2.3-0.7-3.4c-0.3-1.2-0.7-2.4-1.2-3.5v11.1
		h-8V-900h-3.2v13.9h-7.5v-21.4h10.7v-3.2h-12.7v-7.6h4.6c-1.9-0.9-3.9-1.7-5.9-2.4c1.2-2.1,2.2-4.4,3-6.7c0.9-2.7,1.6-5.5,2.1-8.3
		l7.7,1.6c-0.5,2.2-0.9,3.8-1.2,4.9h2.4v-6.9h8v6.9h9.7v7.6h-9.7L-19235.8-918.3z M-19203.6-891c0.1,1.7-0.2,3.4-0.7,5
		c-0.5,1.2-1.3,2.2-2.4,2.8c-1.3,0.7-2.7,1.1-4.2,1.3c-2.1,0.3-4.2,0.4-6.3,0.3c-0.2-1.4-0.5-2.8-1-4.1c-0.4-1.5-0.9-2.9-1.5-4.3
		c1.9,0.1,4.1,0.1,6.7,0.1c0.3,0,0.7-0.1,1-0.3c0.2-0.3,0.3-0.6,0.3-1v-44.4h8.1V-891z M-19214.3-932.1v33.2h-7.8v-33.2
		L-19214.3-932.1z M-19243.8-918.3v-3.4h-4.9c-0.4,1-0.9,2.1-1.4,3.4H-19243.8z M-19235.8-892.8c0.7,0,1.7,0.1,2.8,0.1
		c0.2,0,0.3,0,0.5-0.1c0.1-0.1,0.1-0.3,0.1-0.5v-6.6h-3.4V-892.8z"/>
	<path id="パス_36424" class="st1" d="M-19122-923.4v6.7h-8.6v-14.7h20.5v-5.2h9v5.2h20.8v14.7h-9v-6.7H-19122z M-19090.9-912.8
		h-29.3v-7.6h29.3V-912.8z M-19087.9-889.9c0.5,0,1-0.1,1.3-0.5c0.4-0.6,0.6-1.2,0.6-1.9c0.1-0.9,0.2-2.3,0.3-4.3
		c1.1,0.7,2.2,1.3,3.4,1.8c1.4,0.6,2.7,1,4.1,1.4c-0.2,2.3-0.6,4.6-1.4,6.8c-0.5,1.4-1.5,2.6-2.7,3.3c-1.5,0.7-3.2,1-4.8,1h-6.6
		c-2,0.1-3.9-0.2-5.8-0.9c-1.3-0.6-2.3-1.6-2.8-3c-0.6-1.9-0.9-3.9-0.8-5.8v-10.1h-6.1c-0.3,3.2-1.1,6.3-2.3,9.2
		c-1.3,2.7-3.2,5-5.7,6.7c-3.5,2.3-7.3,3.9-11.3,4.8c-0.5-1.4-1.2-2.7-2.1-4c-0.8-1.3-1.7-2.5-2.8-3.6c3.2-0.5,6.2-1.6,9.1-3
		c1.8-0.9,3.3-2.4,4.3-4.2c0.9-1.9,1.4-3.9,1.6-5.9h-13.2v-7.9h52.2v7.9h-15.2v10c-0.1,0.6,0,1.3,0.4,1.8c0.5,0.3,1.2,0.5,1.8,0.4
		H-19087.9z M-19043.1-890.3h20.8v7.5h-49.6v-7.5h19.9v-5.6h-15.3v-7.2h15.3v-5.4h-12.2v-4.8c-2,1.4-4.1,2.6-6.2,3.7
		c-0.7-1.2-1.5-2.4-2.4-3.5c-0.9-1.2-1.9-2.3-2.9-3.3c5-2.4,9.5-5.6,13.6-9.3c3.8-3.3,7.1-7,9.7-11.2h8.8c3.1,4.5,6.9,8.5,11.2,11.9
		c4.1,3.3,8.6,6,13.5,7.9c-2.1,2.3-4,4.9-5.6,7.6c-2-1.1-4.1-2.3-6.1-3.7v4.6h-12.6v5.4h15.5v7.2h-15.5V-890.3z M-19034.4-915.9
		c-2.7-1.9-5.2-4.1-7.6-6.4c-2.1-2-4-4.1-5.7-6.4c-3.6,4.9-8,9.2-12.9,12.8H-19034.4z M-18994.9-897c-2.8,7.1-8.2,12.9-15.1,16.2
		c-0.8-1.1-1.7-2.2-2.7-3.2c-1.1-1.1-2.2-2.1-3.4-3.1c4.3-1.7,8.1-4.6,10.8-8.4l-6.4,0.9c-0.9,0.1-1.7,0.2-2.3,0.3
		c-0.7,0.1-1.3,0.2-1.8,0.3l-1.5-8.4c3.1-0.3,8.3-0.8,15.8-1.6c0.3-1.5,0.5-2.9,0.6-4.4h-13.1v-7.6h13.1v-5.8h-13.7v-7.8h13.7v-6.8
		h8.3v27.2c0,1.4-0.1,2.9-0.3,4.3l3.7-0.5l0.3,7.4L-18994.9-897z M-18962.1-902.3v7.8h-16.2v13h-8.5v-54.8h8.5v6.8h15.2v7.8h-15.2
		v5.8h13.8v7.6h-13.8v5.9L-18962.1-902.3z M-18904.2-916.2h-5.8v24.5c0.1,1.8-0.2,3.6-0.7,5.4c-0.4,1.3-1.3,2.3-2.5,3
		c-1.4,0.8-2.9,1.2-4.4,1.4c-2.2,0.3-4.4,0.4-6.6,0.4c-0.2-1.5-0.5-3-1-4.5c-0.5-1.6-1-3.1-1.7-4.6c2,0.1,4.4,0.2,7.1,0.2
		c0.4,0,0.7-0.1,1-0.3c0.2-0.3,0.3-0.7,0.3-1v-24.4h-13.8v-4.1h-26v-7.8h9.6v-8.5h8.1v8.5h10.3v3.8h11.8v-12.4h8.3v12.4h5.8V-916.2z
		 M-18934.1-918.1c-0.9,5.6-2.4,11-4.5,16.2c2.2,2.9,4.1,5.9,5.7,9.1l-6.7,5.7c-1-2.2-2.1-4.3-3.4-6.4c-2.9,4.5-6.7,8.4-11.1,11.4
		c-0.8-1.2-1.7-2.3-2.6-3.4c-0.9-1.2-1.9-2.2-3-3.2c4.9-2.9,9-7.1,11.7-12.2c-3.1-4.1-6.1-7.9-9.3-11.4l5.9-4.8
		c2.4,2.5,4.7,5.1,6.9,7.8c1-3.3,1.8-6.6,2.3-10L-18934.1-918.1z M-18926.7-912.4c1.4,2,2.8,4.1,3.9,6.3c1,1.8,1.9,3.8,2.4,5.8
		l-7.2,3.7c-0.5-2.1-1.3-4.1-2.3-6c-1.1-2.2-2.3-4.4-3.6-6.5L-18926.7-912.4z M-18846.9-925.7h-22.7l-1.3,4.1h21.4v40.1h-8.6v-2.9
		h-31.5v2.9h-8.1v-40.1h17.8l0.6-4.1h-20.6v-7.9h53V-925.7z M-18889.5-913.9v21.7h4.6v-21.7L-18889.5-913.9z M-18870.4-911.2v-2.7
		h-7v2.7H-18870.4z M-18858-892.1v-21.7h-4.9v21.7H-18858z M-18870.4-901.6v-3.1h-7v3.1H-18870.4z M-18877.4-895.1v3h7v-3
		L-18877.4-895.1z"/>
	<path id="パス_36432" class="st2" d="M-18803.2-901h26.2v6.1c-2.4,0.2-4.8,0.9-6.9,2.1c-1.8,1-3.4,2.4-4.8,3.9
		c-1.1,1.2-2,2.7-2.5,4.3c-0.5,1.4-0.5,3,0.1,4.3c0.5,1,1.3,1.8,2.3,2.4c0.9,0.5,1.8,0.7,2.8,0.8c1,0.1,2.1,0.1,3.1,0
		c1-0.1,1.9-0.1,2.6-0.2c0.8-0.1,1.2-0.1,1.2-0.1v6.4c-1.3,0.2-2.6,0.3-3.9,0.3c-1.1,0-2.3,0-3.5-0.1c-1.3-0.1-2.7-0.4-3.9-0.8
		c-1.5-0.5-2.9-1.2-4.1-2.2c-1.3-1.1-2.2-2.4-2.8-4c-0.7-2-0.9-4.1-0.5-6.1c0.3-1.6,0.8-3.2,1.5-4.6c0.7-1.2,1.5-2.4,2.4-3.5
		c0.7-0.8,1.4-1.5,2.2-2.2c0.3-0.3,0.6-0.5,1-0.8h-12.6V-901z M-18784.8-885.9v-6.3h3v6.3H-18784.8z M-18780.1-885.9v-6.3h3v6.3
		H-18780.1z M-18764.8-870c-1.2-1.4-2.5-2.9-4.1-4.5c-1.5-1.6-3-3-4.4-4.3l5.1-4.4c1.6,1.4,3.2,2.8,4.6,4.3c1.7,1.8,3,3.2,3.9,4.4
		L-18764.8-870z"/>
	<path id="パス_36410" class="st2" d="M-19343.5-820.3h9.6c-1.1,0.9-2.2,1.8-3.2,2.8c-0.8,0.8-1.6,1.7-2.2,2.7
		c-0.6,0.8-0.9,1.8-0.9,2.9c0,0.6,0.2,1.2,0.5,1.8c0.6,0.6,1.4,1,2.2,1.1c1.8,0.3,3.5,0.5,5.3,0.5c2.8,0,5.1-0.1,7-0.3
		c1.9-0.2,4.3-0.4,7-0.8v8.3c-5,0.7-10.1,1-15.1,1.1c-5.1,0-8.9-0.9-11.3-2.8c-2.5-1.9-3.8-4.9-3.6-8c0-1.8,0.4-3.5,1.2-5
		C-19346-817.6-19344.9-819-19343.5-820.3z M-19327.6-828.1h-9.6l4.4-4.1h-14.4v-7.8h27.6v5.9L-19327.6-828.1z M-19325.9-820.7v-8.1
		h3.9v8.1H-19325.9z M-19319.8-820.7v-8.1h3.9v8.1H-19319.8z M-19298.5-828.2c0.8,0.9,2,2.3,3.5,4.1c1.5,1.9,2.7,3.3,3.5,4.4l-4.1,6
		c-0.8-1.8-1.8-3.7-2.8-5.4v19.9h-7.1v-17.7c-1.2,3.3-2.8,6.5-4.8,9.3c-0.4-1.2-0.9-2.3-1.4-3.4c-0.6-1.3-1.3-2.5-2-3.6
		c1.7-2.2,3.1-4.5,4.2-7.1c1.3-2.8,2.3-5.7,3.1-8.7h-5.9v-7h6.8v-10.3h7.1v10.3h5.9v7h-5.9V-828.2z M-19291-845h24.6v45h-7.4v-2.5
		h-10v2.9h-7.1V-845z M-19273.9-838.1h-10v5h10V-838.1z M-19273.9-826.3h-10v5.2h10V-826.3z M-19284-809.3h10v-5.2h-10V-809.3z
		 M-19218.9-823.3c-3-2.5-6.2-4.8-9.5-6.9c-2.2,3.2-5.8,5.6-10.7,7.3c-0.5-1.1-1.1-2.1-1.8-3.1c-0.7-1-1.4-1.9-2.3-2.8
		c2.8-0.7,5.4-2.1,7.5-4.1c1.6-1.6,2.6-3.5,3.1-5.7c0.5-3,0.8-6.1,0.9-9.1h7.2c0,3.8-0.5,7.6-1.3,11.3c4.1,2.2,8,4.7,11.7,7.5
		L-19218.9-823.3z M-19244.2-846.2v5.5h-15.4v-5.5H-19244.2z M-19224.5-836.7c0.7-1.4,1.3-2.7,1.8-4.2c0.6-1.4,1-2.8,1.4-4.3
		l7.1,2.1l-1,1.7c-1.8,3.2-3.1,5.4-3.9,6.6L-19224.5-836.7z M-19242.5-833.4h-19.8v-5.8h19.8v2.4c0.9-1.1,1.6-2.3,2.1-3.6
		c0.6-1.4,1-2.9,1.3-4.5l6,1.2c-0.3,1.8-0.8,3.6-1.4,5.4c-0.6,1.6-1.4,3-2.5,4.3l-5.5-2.2L-19242.5-833.4z M-19244.1-831.9v5.5
		h-15.7v-5.5H-19244.1z M-19223.6-813.6c0.9,1.7,2.1,3.3,3.6,4.5c1.9,1.6,4.1,2.8,6.5,3.6c-0.7,0.9-1.4,1.9-2.3,3.1
		c-0.8,1.2-1.5,2.3-2,3.2c-1.8-0.6-3.4-1.6-4.8-2.8c-1.4-1.1-2.6-2.4-3.6-3.8c-0.9-1.1-1.5-2.4-2-3.8c-0.5,1.3-1.3,2.6-2.2,3.7
		c-1.2,1.4-2.5,2.7-4,3.8c-1.6,1.2-3.3,2.2-5.2,2.9c-0.5-1.1-1.2-2.2-1.9-3.2c-0.7-1-1.4-2-2.2-2.9c2.4-0.8,4.7-2.1,6.7-3.7
		c1.6-1.2,2.9-2.8,3.8-4.5c0.7-1.4,1.1-2.9,1.2-4.4v-8h7.6v8c0,0.9,0.1,1.7,0.4,2.5c1.3-2.5,2.3-5.1,3.1-7.8l7.3,2.2
		c-2.4,4.3-4.2,7.2-5.3,8.8L-19223.6-813.6z M-19259.8-819.3v-5.5h15.7v5.5H-19259.8z M-19233.3-821.3c-0.3,2.1-0.9,4.1-1.7,6
		c-0.7,1.7-1.7,3.4-2.9,4.8l-6.1-3c1.1-1.1,2-2.4,2.6-3.9c0.8-1.6,1.3-3.4,1.7-5.1L-19233.3-821.3z M-19244-817.7v15.9h-9.7v1.8
		h-6.2v-17.7L-19244-817.7z M-19250.3-811.9h-3.5v4.3h3.5V-811.9z M-19209.4-820.6v-6.5c1.8-0.2,3.4-0.3,4.8-0.4c0-1.9,0-4.1,0-6.5
		h6.3c0,2.4,0,4.5-0.1,6.2h3.1c1.8-0.1,3.6,0.6,4.7,2c1.1,1.3,1.8,3.4,2,6.3c0.2,2.1,0.3,4.3,0.2,6.4c0,2-0.2,4.1-0.7,6.1
		c-0.3,1.7-1,3.2-2.1,4.5c-1,1.2-2.5,1.8-4,1.8c-1.2,0-2.3-0.1-3.5-0.3c-0.4-0.1-0.9-0.2-1.3-0.3v-6.6c1.2,0.4,2.5,0.7,3.8,0.7
		c0.7-0.1,1.2-0.8,1.5-2c0.3-1.5,0.4-3.1,0.4-4.6c0-1.8-0.1-3.6-0.2-5.3c0-1-0.2-1.7-0.6-2c-0.6-0.4-1.3-0.5-2-0.5
		c-0.3,0-0.6,0-0.8,0c-0.3,0-0.6,0-0.9,0c-0.3,3.6-0.9,7.1-1.7,10.6c-0.8,3.4-1.8,6.7-3,9.9h-6.6c1.4-3.1,2.6-6.4,3.5-9.7
		c0.8-3.4,1.4-6.9,1.7-10.4c-1.3,0.1-2.4,0.2-3.2,0.3C-19208.9-820.7-19209.4-820.7-19209.4-820.6z M-19191.3-832.8h6.1
		c2.4,5.3,4.1,10.8,5,16.6h-6C-19186.9-822-19188.6-827.6-19191.3-832.8z M-19172.3-827.2v-6.4l1.2,0c0.8,0,1.8,0,3-0.1
		c1.2,0,2.5,0,3.8,0.1c1.3,0.1,2.6,0.2,3.9,0.3c1.3,0.1,2.4,0.3,3.3,0.4c0.9,0.1,1.3,0.2,1.4,0.2v6.6c-0.5-0.1-0.9-0.2-1.4-0.3
		c-0.9-0.2-2-0.4-3.4-0.6c-1.3-0.2-2.6-0.3-3.9-0.3c-1.3,0-2.6,0-3.8,0c-1.2,0-2.2,0.1-2.9,0.1
		C-19171.9-827.2-19172.3-827.2-19172.3-827.2L-19172.3-827.2z M-19169.9-811.7h-5.7V-825h6v6.6c0,0,0.3-0.3,0.9-0.7
		c0.8-0.6,1.6-1.1,2.6-1.4c1.3-0.5,2.7-0.8,4-0.9c2.2-0.2,4.3,0.1,6.3,0.9c1.7,0.7,3.1,2,4.1,3.5c0.9,1.6,1.4,3.5,1.4,5.4
		c0.2,3.9-2,7.6-5.6,9.1c-3.8,1.8-9.4,2.2-16.9,1v-6.2c2.8,0.5,5.7,0.8,8.5,0.8c1.7,0.1,3.4-0.2,5-0.7c0.9-0.3,1.8-0.9,2.3-1.7
		c0.4-0.7,0.7-1.5,0.6-2.4c0-0.8-0.2-1.6-0.7-2.3c-0.5-0.8-1.1-1.3-1.9-1.7c-1.2-0.4-2.4-0.5-3.6-0.2c-1.5,0.3-2.9,0.9-4.2,1.7
		C-19167.9-813.3-19168.9-812.5-19169.9-811.7L-19169.9-811.7z M-19138.8-820.3h9.6c-1.1,0.9-2.2,1.8-3.2,2.8
		c-0.8,0.8-1.6,1.7-2.2,2.7c-0.6,0.8-0.9,1.8-0.9,2.9c0,0.6,0.2,1.2,0.5,1.8c0.6,0.6,1.4,1,2.2,1.1c1.8,0.3,3.5,0.5,5.3,0.5
		c2.8,0,5.1-0.1,7-0.3c1.9-0.2,4.3-0.4,7-0.8v8.3c-5,0.7-10.1,1-15.1,1.1c-5.1,0-8.9-0.9-11.3-2.8c-2.5-1.9-3.8-4.9-3.6-8
		c0-1.8,0.4-3.5,1.2-5C-19141.3-817.6-19140.1-819-19138.8-820.3L-19138.8-820.3z M-19122.9-828.1h-9.6l4.4-4.1h-14.4v-7.8h27.6v5.9
		L-19122.9-828.1z M-19121.1-820.7v-8.1h3.9v8.1H-19121.1z M-19115-820.7v-8.1h3.9v8.1H-19115z M-19073.1-839.6
		c-0.2,2.7-0.6,5.3-1.3,7.9c-0.6,2.2-1.6,4.3-3,6.1c-1.5,1.9-3.4,3.5-5.5,4.7c-0.4-0.8-0.8-1.5-1.3-2.2c-0.6-0.8-1.2-1.5-1.8-2.2
		l0.1,1.7c-6.3,0.7-13.1,1.5-20.2,2.1l-1.2,0.2l-0.6-6c1-0.1,2-0.1,3.1-0.2s2-0.2,3-0.2l2.3-0.2v-3.3h-6.5v-5.5h6.5v-2.2h-7.4v-5.5
		h7.4v-3.2h6.8v3.2h6.6v5.5h-6.6v2.2h6v5.5h-6v2.7l6.6-0.6l0.1,2.5c2-1.2,3.6-3,4.5-5.1c0.9-2.5,1.5-5.1,1.6-7.8h-5v-6.2h23.2
		l-0.1,2.7c-0.2,6.2-0.5,10.6-0.8,13.4c-0.3,2.8-0.8,4.6-1.4,5.4c-0.5,0.6-1,1.2-1.7,1.6c-0.7,0.4-1.4,0.6-2.1,0.7
		c-1.9,0.3-3.8,0.4-5.7,0.3c-0.1-1.2-0.3-2.3-0.6-3.4c-0.3-1.1-0.7-2.2-1.3-3.1c1.1,0.1,2.3,0.2,3.8,0.2c0.3,0,0.6,0,0.9-0.1
		c0.3-0.1,0.5-0.3,0.7-0.5c0.4-0.9,0.7-2,0.7-3c0.2-1.6,0.3-4.2,0.5-7.8L-19073.1-839.6z M-19077.7-812.2c1.8,2,4.2,3.5,6.8,4.3
		c3.6,1.1,7.4,1.6,11.1,1.7c-0.9,1-1.8,2.1-2.5,3.3c-0.8,1.2-1.5,2.5-2,3.8c-4-0.3-7.9-1.3-11.6-2.9c-2.9-1.4-5.4-3.5-7.3-6.1
		c-3.3,4.7-10.4,7.7-21.3,9.1c-0.6-1.1-1.2-2.1-1.9-3.1c-0.8-1.2-1.6-2.2-2.3-3.1c10.4-1.2,16.8-3.5,19.1-6.9h-17.6v-6.2h18.7v-2.6
		h7.5v2.6h19.7v6.2H-19077.7z M-19010-839.3c0,1.6,0,2.7-0.1,3.3c-0.2,7.9-0.5,13.9-0.7,18.3c-0.2,3.3-0.5,6.7-1,10
		c-0.2,1.7-0.8,3.4-1.7,4.9c-0.6,0.9-1.4,1.7-2.3,2.3c-1,0.5-2,0.8-3.1,1c-1.6,0.2-3.3,0.3-4.9,0.3c-1.4,0-2.4,0-3.1-0.1
		c-0.1-1.3-0.4-2.6-0.8-3.8c-0.4-1.3-1-2.5-1.7-3.7c2.1,0.2,4.5,0.3,7.3,0.3c0.4,0,0.8-0.1,1.2-0.2c0.4-0.2,0.7-0.4,0.9-0.7
		c0.7-0.7,1.3-3,1.6-6.8c0.4-3.8,0.7-9.8,1-18.1h-12.6c-1.2,2.2-2.6,4.3-4.1,6.3c-1.5-1.3-3.1-2.4-4.8-3.5c0.8,1.7,1.6,3.3,2.3,5
		c0.6,1.4,1,2.8,1.4,4.3l-5.6,2.5c-0.2-0.8-0.4-1.7-0.6-2.5l-2,0.1v3.9l4.5-1.5c0.6,1.5,1.3,3.2,1.9,5c0.6,1.8,1,3.3,1.3,4.6
		l-5.7,2.1c-0.5-2.5-1.2-5-2-7.4v14.1h-6.5V-815c-0.2,2.3-0.6,4.5-1.1,6.7c-0.4,1.9-1,3.7-1.7,5.5c-0.8-0.5-1.7-1-2.6-1.4
		c-1.1-0.5-2.1-0.9-2.9-1.2c1.2-2.7,2-6.6,2.3-11.8l6,1.1v-3.4l-7.2,0.5l-0.6-6.4l4-0.2c0.4-0.5,0.8-1,1.1-1.5l0.7-0.9
		c-1.7-2.5-3.6-4.8-5.8-6.8l3.4-5.1l1,0.9c1.3-2.8,2.4-5.6,3.3-8.6l6.5,2.2l-0.7,1.2c-2.3,4.3-4,7.4-5.1,9.2l1.1,1.3
		c1.6-2.5,3-5.2,4.3-7.9l6.2,2.5c-2.7,4-4.9,7.3-6.8,9.8l4.2-1.9c2-2.2,3.6-4.7,4.8-7.4c1.4-3,2.5-6.2,3.2-9.4l7.7,1.7
		c-0.6,2.3-1.3,4.5-2.2,6.7L-19010-839.3z M-19043.6-825.9c-0.5-1.1-0.9-2-1.3-2.8c-1.1,1.4-1.8,2.4-2.2,2.9L-19043.6-825.9z
		 M-19028.3-812.2c-0.6-1.9-1.3-3.8-2.3-5.6c-1.1-2.1-2.3-4.2-3.6-6.1l5.9-3c1.4,1.9,2.7,3.9,3.9,5.9c1,1.7,1.9,3.5,2.5,5.4
		L-19028.3-812.2z M-19005.1-817.3v-5.6h10.6v-2.3h-11.4v-5.7h11.4v-3.5h5.9v3.5h8.6v5.7h-8.6v2.3h8v5.6h-8v3
		c1.3,0.5,2.5,1.1,3.7,1.8c1.1,0.6,2.1,1.3,3.1,2c0.4,0.3,0.8,0.6,1.2,1v7.1c0,0-0.4-0.4-1.2-1.1c-0.8-0.7-1.8-1.5-3-2.5
		c-1.2-0.9-2.5-1.8-3.8-2.5v1.3c0.1,1.7-0.4,3.4-1.4,4.7c-0.8,1-1.9,1.7-3.1,2c-1.2,0.3-2.5,0.4-3.7,0.4c-1.5,0-3.1-0.3-4.5-0.8
		c-1.3-0.5-2.4-1.3-3.3-2.4c-0.8-1.2-1.2-2.5-1.2-3.9c-0.1-1.6,0.5-3.3,1.5-4.5c1.1-1.2,2.6-2,4.2-2.4c1.8-0.5,3.7-0.8,5.6-0.8v-2.2
		L-19005.1-817.3z M-18996.8-805.6c0.5,0,1.1-0.2,1.5-0.5c0.4-0.3,0.7-0.8,0.7-1.4v-2.6c-1.4-0.3-2.8-0.1-4.1,0.5
		c-1,0.5-1.6,1.1-1.6,1.7c0,0.6,0.2,1.2,0.7,1.6C-18998.7-805.7-18997.7-805.5-18996.8-805.6L-18996.8-805.6z M-18975.4-832.7h26.9
		v6.3c-2.5,0.2-4.9,0.9-7,2.2c-1.9,1.1-3.5,2.4-5,4c-1.2,1.2-2,2.7-2.6,4.4c-0.5,1.4-0.5,3,0.1,4.4c0.5,1,1.4,1.9,2.4,2.4
		c0.9,0.5,1.9,0.8,2.8,0.8c1.1,0.1,2.1,0.1,3.2,0c1-0.1,1.9-0.1,2.7-0.2c0.8-0.1,1.2-0.1,1.2-0.1v6.6c-1.3,0.2-2.6,0.3-4,0.3
		c-1.1,0-2.3,0-3.6-0.1c-1.4-0.1-2.7-0.4-4-0.8c-1.5-0.5-2.9-1.2-4.2-2.2c-1.3-1.1-2.3-2.5-2.9-4.1c-0.7-2-0.9-4.2-0.6-6.3
		c0.3-1.6,0.8-3.2,1.6-4.7c0.7-1.3,1.5-2.5,2.5-3.5c0.7-0.8,1.5-1.5,2.3-2.2c0.3-0.3,0.7-0.6,1-0.8h-12.9L-18975.4-832.7z
		 M-18956.5-817.2v-6.5h3.1v6.5H-18956.5z M-18951.6-817.2v-6.5h3.1v6.5H-18951.6z M-18936-800.9c-1.2-1.4-2.6-3-4.2-4.6
		c-1.6-1.6-3.1-3.1-4.5-4.4l5.2-4.5c1.7,1.4,3.2,2.9,4.7,4.4c1.8,1.8,3.1,3.3,4,4.5L-18936-800.9z"/>
	<path id="パス_36411" class="st2" d="M-19436.9-739.9h18.2v6.6h-43.6v-6.6h17.5v-4.9h-13.5v-6.4h13.5v-4.7h-10.7v-4.2
		c-1.8,1.2-3.6,2.3-5.5,3.3c-0.6-1.1-1.4-2.1-2.1-3.1c-0.8-1-1.6-2-2.5-2.9c4.4-2.1,8.4-4.9,12-8.2c3.3-2.9,6.2-6.2,8.6-9.9h7.7
		c2.7,4,6,7.5,9.8,10.5c3.6,2.9,7.6,5.2,11.9,6.9c-1.9,2-3.5,4.3-4.9,6.7c-1.8-1-3.6-2.1-5.4-3.2v4.1h-11.1v4.7h13.6v6.4h-13.6
		V-739.9z M-19429.2-762.4c-2.3-1.7-4.6-3.6-6.7-5.6c-1.8-1.7-3.5-3.6-5-5.7c-3.2,4.3-7,8.1-11.4,11.3H-19429.2z M-19412.9-765.7
		h26.9v6.3c-2.5,0.2-4.9,0.9-7,2.2c-1.9,1.1-3.5,2.4-5,4c-1.2,1.2-2,2.7-2.6,4.4c-0.5,1.4-0.5,3,0.1,4.4c0.5,1,1.4,1.9,2.4,2.4
		c0.9,0.5,1.9,0.8,2.8,0.8c1.1,0.1,2.1,0.1,3.2,0c1-0.1,1.9-0.1,2.7-0.2c0.8-0.1,1.2-0.1,1.2-0.1v6.6c-1.3,0.2-2.6,0.3-4,0.3
		c-1.1,0-2.3,0-3.6-0.1c-1.4-0.1-2.7-0.4-4-0.8c-1.5-0.5-2.9-1.2-4.2-2.2c-1.3-1.1-2.3-2.5-2.9-4.1c-0.7-2-0.9-4.2-0.6-6.3
		c0.3-1.6,0.8-3.2,1.6-4.7c0.7-1.3,1.5-2.5,2.5-3.5c0.7-0.8,1.5-1.5,2.3-2.2c0.3-0.3,0.7-0.6,1-0.8h-12.9L-19412.9-765.7z
		 M-19353.6-732h-8v-22.2c-1.5,3.6-3.5,6.9-6,9.9c-2,2.4-4.2,4.6-6.6,6.6c-1.6,1.3-3.3,2.6-5.1,3.6c-1.3,0.7-2,1.1-2.1,1.1v-9.2
		c0,0,0.6-0.3,1.6-1c1.4-0.9,2.7-2,4-3.1c1.9-1.7,3.6-3.7,5.1-5.8c2-2.8,3.6-5.9,4.9-9.1h-15.5v-7.8h19.8v-6.4h8v6.4h5.8v7.8h-5.8
		L-19353.6-732z M-19317-764.2h8.1c-1.3,5.4-3.7,10.6-6.8,15.2c-2.4,3.5-5.4,6.6-8.9,9.1c-2.7,1.9-5.6,3.4-8.7,4.5
		c-2.2,0.8-4.5,1.3-6.8,1.6c-0.9,0.1-1.8,0.2-2.7,0.2v-8.3c0.7,0,1.4,0,2.1-0.1c1.8-0.2,3.5-0.5,5.2-1c2.4-0.8,4.7-2,6.7-3.5
		c2.5-1.9,4.7-4.1,6.5-6.6C-19320-756.6-19318.2-760.3-19317-764.2z M-19342.8-764.9v-8h15.9v8H-19342.8z M-19280.2-753.4h-23.4
		v-7.6h33c0.1,3.9-0.6,7.9-1.9,11.6c-1.1,3.1-3,5.8-5.4,8c-2.1,1.9-4.5,3.5-7,4.8c-2.2,1-4.4,1.9-6.8,2.4c-2.1,0.5-3.9,0.8-5.2,1
		s-2,0.3-2.1,0.3v-8.2c0.6,0,1.1-0.1,1.7-0.2c1.4-0.2,2.8-0.5,4.1-0.9c1.8-0.5,3.5-1.2,5.2-2c1.8-0.9,3.4-2.1,4.8-3.6
		C-19281.7-749.3-19280.7-751.3-19280.2-753.4z M-19302.2-765.8v-7.6h29.4v7.6H-19302.2z M-19239.9-774.1h9.2
		c-1.4,3-3.2,5.8-5.2,8.4c-2.1,2.6-3.9,4.9-5.6,6.8v26.8h-8.1v-20.6c-2.3,1.9-4.9,3.6-7.5,5c-1.9,1-3.8,1.9-5.8,2.6
		c-1.4,0.5-2.2,0.7-2.2,0.7v-8.2c0,0,0.9-0.3,2.6-1c2.2-1,4.4-2.1,6.5-3.5c3-1.9,5.7-4.1,8.2-6.6
		C-19244.7-766.8-19242.1-770.3-19239.9-774.1z M-19200.8-764.2h8.1c-1.3,5.4-3.7,10.6-6.8,15.2c-2.4,3.5-5.4,6.6-8.9,9.1
		c-2.7,1.9-5.6,3.4-8.7,4.5c-2.2,0.8-4.5,1.3-6.8,1.6c-0.9,0.1-1.8,0.2-2.7,0.2v-8.3c0.7,0,1.4,0,2.1-0.1c1.8-0.2,3.5-0.5,5.2-1
		c2.4-0.8,4.7-2,6.7-3.5c2.5-1.9,4.7-4.1,6.5-6.6C-19203.7-756.6-19201.9-760.3-19200.8-764.2z M-19226.5-764.9v-8h15.9v8H-19226.5z
		 M-19188-765.7h26.9v6.3c-2.5,0.2-4.9,0.9-7,2.2c-1.9,1.1-3.5,2.4-5,4c-1.2,1.2-2,2.7-2.6,4.4c-0.5,1.4-0.5,3,0.1,4.4
		c0.5,1,1.4,1.9,2.4,2.4c0.9,0.5,1.9,0.8,2.8,0.8c1.1,0.1,2.1,0.1,3.2,0c1-0.1,1.9-0.1,2.7-0.2c0.8-0.1,1.2-0.1,1.2-0.1v6.6
		c-1.3,0.2-2.6,0.3-4,0.3c-1.1,0-2.3,0-3.6-0.1c-1.4-0.1-2.7-0.4-4-0.8c-1.5-0.5-2.9-1.2-4.2-2.2c-1.3-1.1-2.3-2.5-2.9-4.1
		c-0.7-2-0.9-4.2-0.6-6.3c0.3-1.6,0.8-3.2,1.6-4.7c0.7-1.3,1.5-2.5,2.5-3.5c0.7-0.8,1.5-1.5,2.3-2.2c0.3-0.3,0.7-0.6,1-0.8h-13
		V-765.7z M-19169.2-750.3v-6.5h3.1v6.5H-19169.2z M-19164.3-750.3v-6.5h3.1v6.5H-19164.3z M-19139-777.7c-2.1,2.7-4.4,5.3-6.9,7.6
		c-2.4,2.3-5,4.5-7.7,6.4c-0.5-0.9-1.2-2-2-3.2c-0.6-1-1.3-2-2.1-2.9c2.3-1.5,4.5-3.2,6.4-5.1c1.9-1.7,3.6-3.7,5.1-5.7L-19139-777.7
		z M-19110.8-777.9v7h-24.8v-7H-19110.8z M-19137.2-766.7c-1.6,2.7-3.3,5.3-5.3,7.8v26.8h-7.4v-18.4l-0.8,0.7
		c-1.6,1.4-2.4,2.1-2.5,2.2c-0.6-0.9-1.4-2-2.4-3.4c-0.8-1.1-1.7-2.1-2.6-3.1c2.8-2,5.4-4.3,7.7-6.9c2.4-2.5,4.5-5.4,6.2-8.4
		L-19137.2-766.7z M-19109.5-756.6h-6.7v16.1c0.1,1.5-0.2,3.1-0.7,4.5c-0.5,1.1-1.4,2-2.5,2.4c-1.3,0.5-2.6,0.9-4,1
		c-1.6,0.2-3.6,0.2-6.2,0.2c-0.2-1.3-0.5-2.6-0.8-3.8c-0.4-1.3-0.8-2.6-1.4-3.8c1.7,0.1,3.9,0.2,6.8,0.2c0.3,0,0.7,0,1-0.2
		c0.2-0.2,0.3-0.4,0.3-0.7v-15.9h-14v-7h28.2V-756.6z M-19101-760.8v-5.5l1.1-0.1c0.7,0,1.7-0.1,3-0.1c1.3,0,2.7,0,4.3,0.1
		c1.6,0.1,3.1,0.2,4.4,0.3c1.4,0.1,2.5,0.3,3.3,0.4c0.8,0.1,1.3,0.2,1.3,0.2v5.7c-0.1,0-0.5-0.1-1.3-0.3c-0.8-0.2-1.9-0.3-3.3-0.5
		s-2.9-0.2-4.5-0.3c-2.5,0-4.5,0-6,0L-19101-760.8z M-19104.2-752.4v-5.7h20.7v5.1l-4.5,4.3c0.8,0.2,1.5,0.8,1.7,1.6
		c0.2,0.7,0.2,1.4,0.2,2.2v3.5c0,0.3,0,0.6,0.1,0.9c0.1,0.1,0.3,0.2,0.8,0.2c0.9,0,1.8,0,2.7-0.2c0.9-0.2,1.9-0.4,2.8-0.6
		c0.8-0.2,1.1-0.3,1.2-0.3v6.3c-2.5,0.7-5,1.1-7.6,1.1c-1.6,0.1-3.1-0.4-4.4-1.3c-0.9-0.8-1.4-2.3-1.3-4.4v-4c0,0,0-0.1,0-0.3
		c0-0.2-0.1-0.3-0.1-0.5c-0.1-0.1-0.2-0.1-0.4,0l-12.3,11.6v-8.6l12.1-10.7L-19104.2-752.4z M-19071.3-759.5v-6.4h19.3v5.7l-7.3,5.4
		c2-0.5,4.2-0.4,6.2,0.4c1.6,0.7,2.9,2,3.8,3.5c0.9,1.7,1.4,3.7,1.4,5.7c0.1,2.1-0.5,4.3-1.6,6.1c-1,1.7-2.5,3-4.3,3.9
		c-1.8,0.9-3.7,1.4-5.7,1.6c-2,0.2-4,0.1-5.9-0.5c-1.4-0.4-2.7-1.1-3.7-2.3c-0.9-1.1-1.4-2.5-1.3-4c0-1.1,0.2-2.2,0.7-3.2
		c0.5-1.1,1.4-2.1,2.5-2.6c1.5-0.6,3.2-0.8,4.8-0.5c1.6,0.2,3.1,0.9,4.3,2c1.1,1.1,2,2.4,2.5,3.8c0.6-0.6,1-1.2,1.3-2
		c0.2-0.8,0.4-1.6,0.3-2.4c0.1-1.3-0.5-2.5-1.5-3.3c-1-0.8-2.6-1.1-4.8-1.1c-1.8,0-3.7,0.4-5.3,1.1c-1.4,0.7-2.7,1.5-3.8,2.5l-4.8,4
		v-7.8l12.8-9.7H-19071.3z M-19063.4-742.6c-0.6-0.1-1.3,0.2-1.6,0.7c-0.3,0.5-0.3,1.2,0,1.7c0.4,0.7,1,1.2,1.8,1.4
		c0.8,0.2,1.6,0.3,2.5,0.2c0.4,0,0.7-0.1,1.1-0.2c-0.1-1-0.6-1.9-1.3-2.6C-19061.6-742-19062.5-742.5-19063.4-742.6L-19063.4-742.6z
		 M-19015.8-764.2h8.1c-1.3,5.4-3.7,10.6-6.8,15.2c-2.4,3.5-5.4,6.6-8.9,9.1c-2.7,1.9-5.6,3.4-8.7,4.5c-2.2,0.8-4.5,1.3-6.8,1.6
		c-0.9,0.1-1.8,0.2-2.7,0.2v-8.3c0.7,0,1.4,0,2.1-0.1c1.8-0.2,3.5-0.5,5.2-1c2.4-0.8,4.7-2,6.7-3.5c2.5-1.9,4.7-4.1,6.5-6.6
		C-19018.8-756.6-19017-760.3-19015.8-764.2L-19015.8-764.2z M-19041.6-765.4v-8h14.9v8H-19041.6z M-19041.6-753v-8h14.9v8
		L-19041.6-753z M-18983.3-765h-18.5v-8.2h29.3c-0.7,3.8-1.8,7.5-3.3,11c-1.4,3.2-3,6.2-4.9,9.1c1.5,2,3,3.8,4.6,5.5
		c1.2,1.4,2.5,2.7,3.9,3.8c1.1,0.9,1.7,1.4,1.7,1.4v9.7c-1.8-1.3-3.5-2.6-5-3.9c-1.7-1.4-3.3-3-4.8-4.6c-1.8-1.9-3.4-3.8-4.9-5.9
		c-1.9,2.4-4,4.6-6.3,6.7c-1.9,1.7-3.9,3.2-6,4.6c-1.4,0.9-2.9,1.8-4.4,2.5c-1.1,0.5-1.7,0.8-1.7,0.8v-9.1c2.9-1.5,5.6-3.3,8-5.5
		c2.4-2.3,4.7-4.7,6.7-7.4C-18986.6-757.7-18984.7-761.2-18983.3-765z M-18951-752.4h-14.4v-7.8h33.2v7.8h-10.6
		c-0.1,3.2-1,6.3-2.6,9.1c-1.3,2.3-3.2,4.2-5.4,5.7c-1.9,1.3-4,2.3-6.2,3.1c-1.6,0.6-3.3,1-4.9,1.2c-0.7,0.1-1.3,0.2-2,0.2v-8.2
		c0.7,0,1.3-0.1,1.9-0.2c1.5-0.3,3-0.7,4.5-1.3c1.7-0.7,3.2-1.8,4.4-3.3C-18951.8-748-18951-750.2-18951-752.4z M-18963.9-765.6
		v-7.8h30.4v7.8H-18963.9z M-18916.9-773.8h8.2c-1.2,5.7-2.3,10.8-3.5,15.3s-2.3,8.1-3.2,10.9c-1,2.8-1.6,4.6-1.9,5.3h16.2
		c-0.6-2.6-1.3-5.3-2.1-7.8c-0.9-2.9-2-5.9-3.4-9.1h8.4c1.7,4.1,3.1,8.2,4.3,12.4c1.2,4.1,2.1,8.3,2.8,12.5h-35.5v-7.6
		c1.4-3.5,2.6-6.7,3.7-9.7c1.1-3,2.1-6.4,3.2-10.2C-18918.6-765.6-18917.7-769.6-18916.9-773.8z M-18886.2-765.7h26.9v6.3
		c-2.5,0.2-4.9,0.9-7,2.2c-1.9,1.1-3.5,2.4-5,4c-1.2,1.2-2,2.7-2.6,4.4c-0.5,1.4-0.5,3,0.1,4.4c0.5,1,1.4,1.9,2.4,2.4
		c0.9,0.5,1.9,0.8,2.8,0.8c1.1,0.1,2.1,0.1,3.2,0c1-0.1,1.9-0.1,2.7-0.2c0.8-0.1,1.2-0.1,1.2-0.1v6.6c-1.3,0.2-2.6,0.3-4,0.3
		c-1.1,0-2.3,0-3.6-0.1c-1.4-0.1-2.7-0.4-4-0.8c-1.5-0.5-2.9-1.2-4.2-2.2c-1.3-1.1-2.3-2.5-2.9-4.1c-0.7-2-0.9-4.2-0.6-6.3
		c0.3-1.6,0.8-3.2,1.6-4.7c0.7-1.3,1.5-2.5,2.5-3.5c0.7-0.8,1.5-1.5,2.3-2.2c0.3-0.3,0.7-0.6,1-0.8h-13L-18886.2-765.7z
		 M-18867.3-750.3v-6.5h3.1v6.5H-18867.3z M-18862.5-750.3v-6.5h3.1v6.5H-18862.5z M-18839-757.7h-15.8v-5.8h15.8v-4.2h5.8v4.2h6.1
		v5.8h-6.1v8c0.6,1.6,1,3.2,1.2,4.9c0.1,2-0.1,4.1-0.6,6c-0.5,1.9-1.4,3.8-2.5,5.5h-6.3c0.6-1,1.2-2,1.6-3.1c0.4-1,0.7-1.9,1-2.9
		c0.2-0.8,0.3-1.3,0.3-1.3c-0.7,0.9-1.4,1.6-2.3,2.2c-0.9,0.5-1.8,0.8-2.8,0.8c-1.5,0.1-2.9-0.3-4.1-1.1c-1.2-0.8-2.2-2-2.8-3.4
		c-0.7-1.6-1.1-3.4-1-5.2c0-1.6,0.5-3.3,1.2-4.7c0.7-1.4,1.8-2.5,3.1-3.3c1.5-0.8,3.2-1.2,4.8-1.1c0.7,0,1.4,0.2,2,0.4
		c0.5,0.1,0.9,0.3,1.3,0.6L-18839-757.7z M-18838.6-747.3l0-0.5c-0.1-0.4-0.2-0.9-0.3-1.3c-0.2-0.5-0.5-1-0.9-1.4
		c-0.7-0.6-1.6-0.9-2.5-0.9c-1.1-0.1-2.2,0.4-2.9,1.2c-0.6,0.8-0.8,1.7-0.8,2.7c-0.1,1.2,0.3,2.3,1.1,3.2c0.8,0.7,1.8,1,2.8,0.8
		c0.9-0.1,1.7-0.5,2.3-1.2c0.5-0.5,0.8-1.1,1-1.7C-18838.7-746.7-18838.6-747-18838.6-747.3L-18838.6-747.3z M-18807.2-748l-1.2-13
		l-0.2-6.8h8l-0.2,6.8l-1.2,13H-18807.2z M-18804.7-736.6c-1.1,0-2.2-0.4-3-1.2c-0.8-0.8-1.2-1.9-1.2-3c0-1.1,0.4-2.2,1.2-3
		c0.8-0.8,1.9-1.2,3-1.1c1.1,0,2.2,0.4,3,1.1c0.8,0.8,1.2,1.8,1.2,3c0,1.1-0.4,2.2-1.2,3C-18802.5-737-18803.6-736.5-18804.7-736.6
		L-18804.7-736.6z"/>
	<g id="パス_36412" transform="translate(-19631.109 -680)">
		<path class="st1" d="M979.5,250H20c-4,0-7.8-1.6-10.6-4.4C6.5,242.8,5,239,5,235V4.9h989.5V235c0,4-1.6,7.8-4.4,10.6
			C987.3,248.5,983.5,250,979.5,250z"/>
		<path class="st1" d="M10,9.9V235c0,5.5,4.5,10,10,10h959.5c5.5,0,10-4.5,10-10V9.9H10 M0-0.1h999.5V235c0,11-8.9,20-20,20H20
			c-11,0-20-9-20-20V-0.1z"/>
	</g>
	<path id="パス_16219" class="st1" d="M-19661.6-1057h430.5l-33.6,84.6h-396.9V-1057z"/>
	<path id="パス_36406" class="st2" d="M-19635.2-1035.8h10.9l2.8,20.4l1.8,14.2h0.2c0.7-4,1.6-8.7,2.6-14.2l4.6-20.4h9.1l4.6,20.4
		c0.4,1.8,0.9,4.4,1.5,8l1.1,6.1h0.3l1.7-14.2l2.9-20.4h10.1l-7.7,44.7h-13.5l-4-19.4c-0.7-3.4-1.3-6.9-1.7-10.4h-0.2l-0.7,4.1
		c-0.1,0.7-0.3,1.7-0.5,2.9c-0.2,1.3-0.4,2.4-0.6,3.3l-3.9,19.4h-13.3L-19635.2-1035.8z M-19574.9-991.2v-44.7h28.3v8.9h-17.6v8.3
		h14.9v9h-14.9v9.5h18.2v9H-19574.9z M-19521.5-1035.8c11.1,0,16.6,3.7,16.6,11.1c0,2.1-0.6,4.1-1.6,5.8c-0.9,1.7-2.4,3.1-4.2,3.8
		v0.2c2.3,0.5,4.3,1.8,5.8,3.6c1.5,2,2.3,4.4,2.2,6.9c0,4.4-1.6,7.6-4.9,9.9s-7.4,3.3-12.6,3.3h-16.9v-44.7H-19521.5z
		 M-19521.9-1018.1c1.8,0.1,3.5-0.3,4.9-1.3c1.1-0.9,1.7-2.3,1.7-3.7c0.1-1.3-0.5-2.6-1.6-3.4c-1.5-0.8-3.3-1.2-5-1.1h-4.4v9.5
		H-19521.9z M-19521-999.4c5.2,0,7.8-1.9,7.8-5.7c0.1-1.6-0.6-3.1-1.9-3.9c-1.8-0.9-3.8-1.4-5.9-1.2h-5.3v10.9H-19521z
		 M-19454.2-1030.7l-2.3,3.8h11.6v32.4c0.1,1.7-0.2,3.3-0.8,4.9c-0.5,1.2-1.4,2.2-2.6,2.8c-1.3,0.6-2.8,1-4.3,1.2
		c-2.1,0.2-4.2,0.3-6.4,0.3c-0.4-2-1-4-1.7-5.9h-14.2v3h-7.7v-19.2h24.2v13.9c1.1,0,2.3,0.1,3.7,0.1c0.4,0,0.7-0.1,1-0.3
		c0.2-0.2,0.3-0.6,0.3-0.9v-16.3c-0.5,0.6-1.2,1-1.9,1.3c-0.9,0.3-1.9,0.4-2.8,0.4h-4.1c-1.5,0.1-3.1-0.2-4.5-0.7
		c-1-0.4-1.7-1.3-2.1-2.3c-0.4-1.5-0.6-3-0.6-4.5v-2.7h-3.5c-0.1,2-0.5,4-1.3,5.8c-0.8,1.6-2,3-3.5,4c-2.2,1.3-4.6,2.2-7,2.6
		c-0.3-0.8-0.6-1.5-1-2.2c-0.5-0.8-1-1.6-1.6-2.3v26h-8.3v-41.3h10.1c-0.4-1.2-0.9-2.4-1.4-3.8h-10.4v-7.9h21.8v-3.9h9v3.9h22.4v7.9
		H-19454.2z M-19466.1-1026.9c0.7-1.2,1.2-2.5,1.7-3.8h-13c0.6,1.2,1.1,2.5,1.5,3.8H-19466.1z M-19487.2-1013.3
		c1.4-0.2,2.8-0.6,4.1-1.3c0.8-0.4,1.5-1.1,2-1.9c0.4-0.9,0.7-1.9,0.7-2.9h-6.8V-1013.3z M-19453.3-1019.5h-8.5v2.6
		c0,0.4,0,0.9,0.1,1.3c0.1,0.2,0.4,0.2,0.8,0.2h1.9c0.4,0,0.7-0.2,0.9-0.5c0.2-0.8,0.4-1.6,0.4-2.5c1.3,0.9,2.9,1.6,4.4,1.9V-1019.5
		z M-19466.1-997.6v-3.6h-8.7v3.6H-19466.1z M-19388.1-1013.8c-3.5-3-7.2-5.7-11.2-8.1c-2.6,3.7-6.8,6.6-12.6,8.6
		c-0.6-1.3-1.3-2.5-2.1-3.7c-0.8-1.2-1.7-2.3-2.7-3.2c4-1.2,6.9-2.8,8.8-4.8c1.8-1.8,3.1-4.2,3.7-6.7c0.6-3.5,1-7.1,1.1-10.7h8.5
		c-0.1,4.5-0.6,8.9-1.5,13.3c4.8,2.6,9.4,5.6,13.7,8.8L-19388.1-1013.8z M-19417.9-1040.7v6.5h-18.1v-6.5H-19417.9z
		 M-19394.7-1029.6c0.8-1.6,1.5-3.2,2.2-4.9c0.7-1.7,1.2-3.3,1.7-5.1l8.4,2.5l-1.1,2c-2.2,3.8-3.7,6.3-4.6,7.7L-19394.7-1029.6z
		 M-19415.8-1025.7h-23.3v-6.8h23.3v2.8c1-1.3,1.8-2.7,2.4-4.2c0.7-1.7,1.2-3.4,1.5-5.2l7.1,1.4c-0.3,2.2-0.9,4.3-1.7,6.3
		c-0.7,1.9-1.7,3.6-2.9,5.1l-6.4-2.6V-1025.7z M-19417.8-1023.9v6.5h-18.4v-6.5H-19417.8z M-19393.6-1002.4c1,2.1,2.4,3.9,4.2,5.3
		c2.3,1.9,4.8,3.3,7.6,4.3c-0.8,1-1.7,2.2-2.7,3.7c-1,1.5-1.8,2.7-2.4,3.7c-2.1-0.8-4-1.9-5.7-3.3c-1.6-1.3-3.1-2.8-4.3-4.5
		c-1-1.4-1.8-2.8-2.4-4.4c-0.6,1.6-1.5,3-2.6,4.3c-1.4,1.7-3,3.2-4.7,4.5c-1.9,1.4-3.9,2.6-6.1,3.4c-0.6-1.3-1.4-2.6-2.2-3.7
		c-0.8-1.2-1.6-2.3-2.6-3.4c2.9-1,5.5-2.4,7.9-4.3c1.8-1.5,3.4-3.3,4.5-5.3c0.9-1.6,1.3-3.4,1.4-5.2v-9.4h8.9v9.4c0,1,0.1,2,0.4,3
		c1.5-2.9,2.7-6,3.7-9.1l8.6,2.6c-2.8,5-4.9,8.5-6.2,10.3L-19393.6-1002.4z M-19436.2-1009.1v-6.5h18.4v6.5H-19436.2z
		 M-19405-1011.4c-0.4,2.4-1.1,4.8-2,7c-0.8,2-2,3.9-3.4,5.6l-7.2-3.5c1.3-1.3,2.3-2.9,3.1-4.6c0.9-1.9,1.6-4,2-6.1L-19405-1011.4z
		 M-19417.7-1007.2v18.7h-11.5v2.2h-7.3v-20.8H-19417.7z M-19425.1-1000.4h-4.1v5.1h4.1V-1000.4z M-19353.6-1012.7v6.5
		c-2.5,0.1-4.6,0.3-6.4,0.5c-1.8,0.2-3.6,0.6-5.3,1.1c-1.6,0.5-3.1,1.2-4.4,2.2c-1.2,0.9-1.8,2.2-1.9,3.6c-0.1,1.2,0.4,2.3,1.4,3.1
		c0.9,0.7,2,1.1,3.2,1.2c1.3,0.2,2.7,0.2,4,0.2c1.7,0,3.2-0.1,4.6-0.2c1.4-0.1,2.6-0.3,3.4-0.4l1.3-0.2v6.4
		c-3.1,0.4-6.2,0.6-9.3,0.5c-2.4,0-4.8-0.3-7.2-0.8c-2.2-0.5-4.1-1.5-5.7-3.1c-1.6-1.5-2.3-3.9-2.1-6.9c0.1-1.5,0.5-3,1.1-4.3
		c0.6-1.2,1.4-2.2,2.3-3c0.9-0.8,1.9-1.5,2.9-2.2l-1.8-11.8h5.6l1.5,9.6c2-0.7,4-1.2,6.1-1.6
		C-19358-1012.4-19355.8-1012.6-19353.6-1012.7z M-19353.6-1012.7v6.5c-2.5,0.1-4.6,0.3-6.4,0.5c-1.8,0.2-3.6,0.6-5.3,1.1
		c-1.6,0.5-3.1,1.2-4.4,2.2c-1.2,0.9-1.8,2.2-1.9,3.6c-0.1,1.2,0.4,2.3,1.4,3.1c0.9,0.7,2,1.1,3.2,1.2c1.3,0.2,2.7,0.2,4,0.2
		c1.7,0,3.2-0.1,4.6-0.2c1.4-0.1,2.6-0.3,3.4-0.4l1.3-0.2v6.4c-3.1,0.4-6.2,0.6-9.3,0.5c-2.4,0-4.8-0.3-7.2-0.8
		c-2.2-0.5-4.1-1.5-5.7-3.1c-1.6-1.5-2.3-3.9-2.1-6.9c0.1-1.5,0.5-3,1.1-4.3c0.6-1.2,1.4-2.2,2.3-3c0.9-0.8,1.9-1.5,2.9-2.2
		l-1.8-11.8h5.6l1.5,9.6c2-0.7,4-1.2,6.1-1.6C-19358-1012.4-19355.8-1012.6-19353.6-1012.7z M-19346.6-1019.9h5.5
		c-0.2,1.9-0.4,3.6-0.6,5.1s-0.3,3.1-0.4,4.9c-0.1,1.7-0.2,3.4-0.2,5.1c0,1.9,0.1,3.9,0.2,5.8c0.1,1.9,0.3,3.7,0.5,5.3
		c0.2,1.6,0.4,3.4,0.7,5.4h-5.7c-0.5-3.3-0.8-6.1-1-8.6c-0.2-2.5-0.3-5-0.3-7.7c0-2.5,0.1-4.9,0.3-7.2S-19347-1016.9-19346.6-1019.9
		L-19346.6-1019.9z M-19339.8-1008.9v-6.2h8.4v-5.2l5.4,0v5.2h4.4v6.2h-4.4v6.4c1.6,0.6,3.1,1.3,4.6,2v6.2c-1-0.7-1.8-1.2-2.5-1.6
		c-0.7-0.4-1.4-0.8-2.1-1v2.5c0.1,1.5-0.2,3-1,4.3c-0.6,0.9-1.5,1.6-2.5,2c-1,0.3-2,0.5-3,0.5c-1.3,0.1-2.5-0.1-3.7-0.6
		c-1.2-0.4-2.2-1.3-2.9-2.3c-0.8-1.4-1.2-3-1.1-4.6c-0.1-2.3,0.7-4.5,2.3-6.1c1.5-1.5,3.7-2.1,6.5-1.9v-5.7H-19339.8z
		 M-19332.5-993.2c0.4,0,0.7-0.2,0.8-0.5c0.2-0.4,0.3-0.9,0.2-1.3v-3.1c-1-0.3-2-0.1-2.9,0.4c-0.7,0.5-1.1,1.3-1.1,2.1
		c-0.1,0.7,0.2,1.4,0.7,1.9C-19334-993.2-19333.2-993.1-19332.5-993.2L-19332.5-993.2z M-19307.4-1009.2c-0.1-0.7-0.2-1.3-0.1-2
		c0-2.1,0.5-4.1,1.5-5.9c1.3-2,2.7-3.9,4.3-5.7c1.1-1.2,2-2.4,2.9-3.7c0.6-0.8,0.9-1.8,0.9-2.8c0.1-1.3-0.4-2.5-1.3-3.3
		c-1-0.8-2.2-1.2-3.5-1.1c-1.2,0-2.4,0.3-3.5,0.9c-1.2,0.7-2.3,1.6-3.3,2.6l-6.6-6c1.9-2.1,4.1-3.9,6.7-5.2c2.5-1.3,5.3-1.9,8.1-1.9
		c4.5,0,8,1.1,10.8,3.3c2.7,2.2,4.1,5.5,4.1,10c0.1,1.8-0.4,3.7-1.3,5.3c-1.2,1.9-2.6,3.6-4.2,5.3c-1.2,1.3-2.2,2.5-2.9,3.4
		c-0.7,1-1.3,2-1.7,3.1c-0.4,1.2-0.6,2.6-0.4,3.9L-19307.4-1009.2z M-19302.2-990.2c-1.9,0.1-3.8-0.7-5.1-2.1
		c-1.3-1.4-2.1-3.3-2-5.3c-0.1-2,0.7-3.8,2-5.3c1.3-1.4,3.2-2.2,5.1-2.1c1.9-0.1,3.8,0.7,5.1,2.1c1.3,1.4,2.1,3.3,2,5.3
		c0.1,2-0.7,3.9-2,5.3C-19298.5-991-19300.3-990.2-19302.2-990.2z"/>
	<path id="パス_36413" class="st2" d="M-19188.3-711.1c17.7,0,32,14.5,32,32.5s-14.3,32.5-32,32.5c-17.7,0-32-14.5-32-32.5
		S-19206-711.1-19188.3-711.1z"/>
	<path id="パス_36417" class="st2" d="M-19131.4-711.1c18.2,0,33,14.5,33,32.5s-14.8,32.5-33,32.5c-18.2,0-33-14.5-33-32.5
		S-19149.6-711.1-19131.4-711.1z"/>
	<path id="パス_36425" class="st2" d="M-19074.4-711.1c17.7,0,32,14.5,32,32.5s-14.3,32.5-32,32.5s-32-14.5-32-32.5
		S-19092.1-711.1-19074.4-711.1z"/>
	<path id="パス_36414" class="st0" d="M-19195.3-684.4h-4.6v-5.4h5.2c0.1-1.3,0.2-2.3,0.3-3.1c0.1-0.7,0.1-1.1,0.1-1.1h5.2
		c-0.1,1.4-0.2,2.8-0.3,4.2h5.4v4.6c3.5-0.1,6.8-0.1,9.7,0v5.6c-1.5-0.1-3.1-0.1-4.8-0.1c-1.8,0-4.1,0-7.2,0.1l-0.1-4.7h-3.5
		c-0.6,4.4-1.2,8.1-1.8,11.2s-1.2,5.6-1.6,7.3c-0.4,1.7-0.6,2.6-0.6,2.6h-5.8c1.1-3.7,2-7.5,2.7-11.1
		C-19196.3-678.1-19195.8-681.4-19195.3-684.4z M-19188.4-675.3h5.3c-1,1.3-1.6,2.9-1.6,4.6c0.1,1.2,1.3,1.8,3.6,1.8
		c1.4,0,2.7,0,3.7-0.1c1-0.1,1.9-0.1,2.6-0.2l1.1-0.1v5.9c-1.6,0.1-3.1,0.2-4.4,0.2c-1.4,0-2.9,0-4.7-0.1c-1.5,0-3-0.4-4.4-1.1
		c-1-0.6-1.8-1.4-2.2-2.5c-0.4-1-0.6-2-0.6-3.1c0-1,0.1-2,0.4-2.9C-19189.4-673.6-19188.9-674.5-19188.4-675.3z M-19181.7-692.8v-6
		h2.9v6H-19181.7z M-19177.2-692.8v-6h2.9v6H-19177.2z"/>
	<path id="パス_36422" class="st0" d="M-19143.5-681.5v-6c1.7-0.2,3.2-0.3,4.4-0.4c0-1.8,0-3.8,0-6h5.8c0,2.2,0,4.1-0.1,5.8h2.9
		c1.7-0.1,3.3,0.6,4.4,1.9c1,1.2,1.6,3.2,1.8,5.9c0.2,2,0.2,3.9,0.2,5.9c0,1.9-0.2,3.8-0.6,5.6c-0.3,1.5-0.9,3-1.9,4.2
		c-0.9,1.1-2.3,1.7-3.7,1.7c-1.1,0-2.2-0.1-3.2-0.3c-0.4-0.1-0.8-0.2-1.2-0.3v-6.1c1.1,0.4,2.3,0.6,3.5,0.7c0.7-0.1,1.1-0.7,1.3-1.9
		c0.3-1.4,0.4-2.8,0.4-4.3c0-1.7-0.1-3.3-0.2-4.9c0-1-0.2-1.6-0.5-1.8c-0.6-0.3-1.2-0.5-1.9-0.5c-0.3,0-0.5,0-0.8,0
		c-0.3,0-0.6,0-0.9,0c-0.3,3.3-0.8,6.6-1.6,9.8c-0.8,3.1-1.7,6.2-2.8,9.2h-6.1c1.3-2.9,2.4-5.9,3.2-9c0.8-3.2,1.3-6.4,1.6-9.6
		c-1.2,0.1-2.2,0.2-3,0.3C-19143-681.5-19143.4-681.5-19143.5-681.5z M-19126.6-692.8h5.7c2.2,4.9,3.8,10,4.6,15.3h-5.6
		C-19122.6-682.8-19124.2-687.9-19126.6-692.8z"/>
	<path id="パス_36427" class="st0" d="M-19082.3-687.5v-6l1.1,0c0.7,0,1.7,0,2.8-0.1c1.1,0,2.3,0,3.5,0.1s2.4,0.1,3.6,0.3
		c1.2,0.1,2.2,0.3,3,0.4s1.2,0.2,1.3,0.2v6.1c-0.4-0.1-0.9-0.2-1.3-0.3c-0.8-0.2-1.9-0.4-3.1-0.5c-1.2-0.2-2.4-0.3-3.6-0.3
		c-1.2,0-2.4,0-3.5,0c-1.1,0-2,0.1-2.7,0.1C-19081.9-687.6-19082.2-687.5-19082.3-687.5z M-19080-673.1h-5.3v-12.3h5.6v6.1
		c0,0,0.3-0.2,0.8-0.7c0.7-0.5,1.5-1,2.4-1.3c1.2-0.5,2.5-0.8,3.7-0.9c2-0.2,4,0.1,5.9,0.9c1.6,0.7,2.9,1.8,3.8,3.3
		c0.9,1.5,1.3,3.2,1.3,5c0.2,3.6-1.9,7-5.2,8.4c-3.5,1.7-8.7,2-15.7,0.9v-5.8c2.6,0.5,5.2,0.7,7.9,0.8c1.6,0.1,3.1-0.2,4.6-0.6
		c0.9-0.3,1.6-0.9,2.2-1.6c0.4-0.6,0.6-1.4,0.6-2.2c0-0.8-0.2-1.5-0.6-2.1c-0.4-0.7-1-1.2-1.8-1.6c-1.1-0.4-2.3-0.5-3.4-0.2
		c-1.4,0.3-2.7,0.8-3.9,1.6C-19078.2-674.7-19079.1-674-19080-673.1z"/>
	<path id="パス_36423" class="st2" d="M-19369.2-564.1c0.3,0.2,0.6,0.5,1,0.8c0.3,0.3,0.7,0.5,1,0.9c3.5,2.7,6.5,5.1,9,7.2
		c2.1,1.7,4.1,3.6,6,5.6l-6.5,5.8c-2.3-2.9-7.1-7.4-14.4-13.6v25.5h-8.3v-23.5c-4.4,4.6-9.6,8.5-15.3,11.5c-0.7-1.2-1.6-2.4-2.4-3.6
		c-1-1.4-2-2.5-2.8-3.4c4.5-2.1,8.5-4.8,12.1-8.2c3.6-3.3,6.7-7,9.3-11.1h-19.6v-7.8h45.6v7.7h-16c-0.9,1.6-1.8,3-2.7,4.3v4.9
		L-19369.2-564.1z M-19311.1-547.1c-1.1,2.1-2.4,4-4,5.7c4.7,1.4,8.7,2.6,12,3.7l-4.5,6.1c-4.2-1.7-9-3.4-14.2-5
		c-3.1,1.4-6.4,2.5-9.7,3.1c-4.5,0.9-9.1,1.5-13.7,1.8c-0.3-1.2-0.7-2.3-1.2-3.5c-0.4-1-1-2-1.6-3c5.2-0.1,10.3-0.6,15.4-1.6
		l-2.5-0.6l-0.3,0.4l-7.3-2.2c1.1-1.4,2.3-3.1,3.6-5h-10.1v-6h14l1.6-2.5h-12.5v-15.3h11.1v-2.1h-13.4v-6.5h45.9v6.5h-13.8v2.1h12.4
		v15.3h-21.2l-1.6,2.5h25.4v6H-19311.1z M-19327.9-573.1v2.1h4.5v-2.1H-19327.9z M-19339-565.2v3.6h4.1v-3.6H-19339z
		 M-19327.9-561.5h4.5v-3.6h-4.5V-561.5z M-19311.4-565.2h-4.9v3.6h4.9L-19311.4-565.2z M-19331.4-545.7c2.3,0.5,5.1,1.2,8.4,2.1
		c1.3-1,2.5-2.2,3.4-3.5h-10.9L-19331.4-545.7z M-19292-550.8l-1.4-17.6l-0.3-8.3h9.3l-0.3,8.3l-1.4,17.6L-19292-550.8z
		 M-19289-536.1c-1.5,0-2.9-0.6-3.9-1.7c-1-1.1-1.6-2.6-1.6-4.1c0-1.5,0.5-3,1.6-4.1c1-1.1,2.4-1.7,3.9-1.6c1.5,0,2.9,0.6,3.9,1.6
		c1,1.1,1.6,2.6,1.6,4.1c0,1.5-0.5,3-1.6,4.1C-19286.1-536.6-19287.5-536-19289-536.1z M-19271.3-550.8l-1.4-17.6l-0.3-8.3h9.3
		l-0.3,8.3l-1.4,17.6H-19271.3z M-19268.4-536.1c-1.5,0-2.9-0.6-3.9-1.7c-1-1.1-1.6-2.6-1.6-4.1c0-1.5,0.5-3,1.6-4.1
		c1-1.1,2.4-1.7,3.9-1.6c1.5,0,2.9,0.6,3.9,1.6c1,1.1,1.6,2.6,1.6,4.1c0,1.5-0.5,3-1.6,4.1
		C-19265.4-536.6-19266.9-536-19268.4-536.1z"/>
	<path id="パス_36429" class="st2" d="M-19026-560.3l-6,0.2v-8l6.1-0.2v-7.3h7.8v7l21.6-0.7v8.1h-0.1c-0.7,3-2.2,5.8-4.3,8.1
		c-1.8,2-3.8,3.7-6,5.1c-1.6,1-3.2,1.9-5,2.7c-1.4,0.5-2.1,0.8-2.2,0.8v-8.2c0.4-0.1,0.8-0.2,1.2-0.4c1-0.4,1.9-0.9,2.8-1.5
		c1.1-0.7,2.1-1.5,2.9-2.5c0.9-1.1,1.7-2.4,2.1-3.8l-13.2,0.5c-0.1,3.2-0.1,6-0.1,8.4s0.1,4.5,0.1,6.4c0.1,0.8,0.2,1.6,0.5,2.4
		c0.3,0.7,0.7,1.2,1.4,1.6c1.2,0.5,2.4,0.7,3.7,0.7c1.7,0,3.4,0,5.2,0s3.4-0.1,4.9-0.2c1.5-0.1,2.8-0.2,3.7-0.3
		c0.9-0.1,1.4-0.2,1.5-0.2v8.4c0,0-0.8,0-2.4,0.1c-1.5,0.1-3.5,0.2-5.8,0.2c-2.3,0.1-5,0-7.9,0c-3.8-0.1-6.7-0.9-8.8-2.5
		s-3.3-4.3-3.5-8.4c-0.1-2.7-0.1-5.3-0.2-7.8C-19025.9-554.3-19026-557.1-19026-560.3z M-19006.5-573.3v-8.2h3.9v8.2H-19006.5z
		 M-19000.3-573.3v-8.2h3.9v8.2H-19000.3z M-18956.6-534.7h-32.7v-38.1h32.7V-534.7z M-18965.1-564.6h-15.7v21.7h15.7V-564.6z
		 M-18945-550.8l-1.3-17.6l-0.3-8.3h9.3l-0.3,8.3l-1.3,17.6H-18945z M-18942-536.1c-1.5,0-2.9-0.6-3.9-1.7c-1-1.1-1.6-2.6-1.6-4.1
		c0-1.5,0.5-3,1.6-4.1c1-1.1,2.4-1.7,3.9-1.6c1.5,0,2.9,0.6,4,1.6c1,1.1,1.6,2.6,1.6,4.1c0,1.5-0.5,3-1.6,4.1
		C-18939.1-536.6-18940.5-536-18942-536.1z M-18924.4-550.8l-1.4-17.6l-0.3-8.3h9.3l-0.3,8.3l-1.3,17.6H-18924.4z M-18921.4-536.1
		c-1.5,0-2.9-0.6-3.9-1.7c-1-1.1-1.6-2.6-1.6-4.1c0-1.5,0.5-3,1.6-4.1c1-1.1,2.4-1.7,3.9-1.6c1.5,0,2.9,0.6,3.9,1.6
		c1,1.1,1.6,2.6,1.6,4.1c0,1.5-0.5,3-1.6,4.1C-18918.5-536.6-18919.9-536-18921.4-536.1z"/>
	<path id="パス_36418" class="st2" d="M-19397.6-602.3h6.2c-0.7,0.6-1.4,1.2-2.1,1.8c-0.5,0.5-1,1.1-1.4,1.8
		c-0.4,0.5-0.6,1.2-0.6,1.8c0,0.4,0.1,0.8,0.3,1.1c0.4,0.4,0.9,0.7,1.4,0.7c1.1,0.2,2.3,0.3,3.4,0.3c1.8,0,3.3-0.1,4.6-0.2
		c1.3-0.1,2.8-0.3,4.5-0.5v5.4c-3.2,0.4-6.5,0.7-9.8,0.7c-3.3,0-5.7-0.6-7.3-1.8c-1.6-1.2-2.5-3.1-2.3-5.1c0-1.1,0.3-2.3,0.8-3.3
		C-19399.2-600.5-19398.5-601.5-19397.6-602.3z M-19387.3-607.4h-6.2l2.8-2.6h-9.3v-5h17.9v3.8L-19387.3-607.4z M-19386.1-602.5
		v-5.2h2.5v5.2H-19386.1z M-19382.2-602.5v-5.2h2.5v5.2H-19382.2z M-19356.9-601.1c1.4,1.6,3,3,4.8,4.3c1.8,1.3,3.7,2.3,5.7,3.2
		c-0.7,0.6-1.3,1.2-1.8,1.9c-0.6,0.7-1.1,1.4-1.6,2.1c-1.9-1-3.6-2.1-5.3-3.5c-1.7-1.4-3.2-3-4.6-4.7v9.1h-5.1v-9.1
		c-1.4,1.7-3,3.2-4.7,4.6c-1.6,1.3-3.4,2.5-5.3,3.5c-0.5-0.7-1-1.5-1.6-2.1c-0.6-0.7-1.2-1.3-1.8-1.9c2-0.8,4-1.9,5.8-3.2
		c1.8-1.2,3.4-2.7,4.9-4.2h-9.6v-4.6h5.7c-0.2-0.9-0.5-1.7-0.9-2.5c-0.4-0.9-0.8-1.8-1.3-2.7l3.1-1.2h-5v-4.6h10.9v-3.4h5.1v3.4
		h11.1v4.6h-4.7l3.3,1c-1.2,2.2-2.3,4-3.1,5.4h5.7v4.6H-19356.9z M-19369.1-612c0.5,0.9,1,1.7,1.5,2.7c0.4,0.8,0.7,1.6,0.9,2.5
		l-3.1,1.2h5v-6.3H-19369.1z M-19359.7-612v6.3h4.9l-2.7-0.9c0.5-0.9,0.9-1.7,1.3-2.6c0.4-0.9,0.8-1.9,1.1-2.8H-19359.7z
		 M-19314-616.4v4.6h-23.5v3.7c0,3.6-0.3,7.1-0.8,10.6c-0.4,3.1-1.3,6.1-2.8,8.8c-0.6-0.5-1.3-1-2-1.5c-0.7-0.5-1.4-0.9-2.1-1.2
		c1.3-2.3,2.1-4.8,2.4-7.4c0.4-3.1,0.6-6.2,0.6-9.3v-8.2h11.6v-3.6h5v3.6H-19314z M-19324.4-611.4v2.6h9.9v4.2h-9.9v3h8.1v13h-4.9
		v-1.1h-10.3v1.1h-4.7v-13h6.9v-9.8L-19324.4-611.4z M-19321.1-594v-3.5h-10.3v3.5H-19321.1z"/>
	<path id="パス_36430" class="st2" d="M-19023.1-618.1c-1.2,1.7-2.6,3.3-4.1,4.7c-1.5,1.4-3.1,2.7-4.8,3.8c-0.3-0.7-0.7-1.4-1-2
		c-0.5-0.8-0.9-1.5-1.2-2c1.4-0.8,2.6-1.8,3.8-2.9c1.1-1,2.1-2.1,2.9-3.4L-19023.1-618.1z M-19006.5-605.7v2h3.6v4.3h-3.6v5.9
		c0,0.9-0.1,1.8-0.4,2.7c-0.3,0.7-0.8,1.2-1.5,1.4c-0.7,0.3-1.5,0.5-2.4,0.6c-1.2,0.1-2.3,0.2-3.5,0.1c-0.1-0.8-0.3-1.5-0.5-2.2
		c-0.2-0.8-0.5-1.5-0.9-2.2c0.9,0.1,1.8,0.1,2.7,0.1l1,0c0.2,0,0.4,0,0.5-0.1c0.1-0.1,0.2-0.3,0.1-0.4v-5.8h-6.9
		c0.7,0.9,1.5,1.8,2.1,2.8c0.6,0.8,1.1,1.7,1.5,2.6l-4.2,2.3c-0.4-1-0.8-1.9-1.4-2.8c-0.6-1.1-1.4-2.1-2.1-3.1l3.5-1.8h-4.9v-4.3
		h12.5v-2h-12.8v-2.7l-1.1,1.5v18.2h-4.6v-13.1c-0.9,0.8-1.7,1.6-2.5,2.2c-0.2-0.5-0.5-1.4-1-2.5c-0.3-0.9-0.7-1.7-1.2-2.5
		c1.6-1.1,3-2.4,4.4-3.8c1.3-1.3,2.5-2.8,3.5-4.5l4.1,1.8c-0.1,0.2-0.3,0.5-0.6,0.9h7.2v-2.1h-6.5v-4.3h6.5v-3.3h4.8v3.3h6.9v4.3
		h-6.9v2.1h8.3v4.4H-19006.5z M-18995-607.6h-5.1v-5h6.8c0.4-1.1,0.8-1.9,1-2.5c0.2-0.6,0.3-0.9,0.3-0.9h5.4l-0.6,1.7
		c-0.2,0.6-0.4,1.1-0.6,1.7h9.4v5h-11.2c-0.3,0.7-0.9,1.8-1.8,3.4c0.6-0.2,1.2-0.4,1.8-0.5c0.6-0.1,1.2-0.3,1.8-0.3
		c2.3-0.3,4.6,0.3,6.5,1.6c1.7,1.4,2.7,3.5,2.6,5.7c0,2-0.6,3.9-1.8,5.4c-1.2,1.6-3.2,2.6-6.1,2.9c-3.4,0.4-6.9,0.2-10.3-0.4v-5.1
		c2.3,0.4,4.6,0.7,6.9,0.8c1.4,0.1,2.7-0.1,4-0.5c0.8-0.2,1.4-0.7,1.9-1.3c0.4-0.5,0.5-1.2,0.5-1.8c0.1-0.8-0.3-1.6-1-2.1
		c-1.1-0.6-2.4-0.8-3.6-0.6c-1.6,0.1-3.2,0.6-4.6,1.2c-1.8,0.8-3.5,1.8-5.1,2.9v-5C-18996.5-604.5-18995.5-606.6-18995-607.6z
		 M-18947.6-606.2v2.3h2.8v4.2h-2.8v6.3c0,0.9-0.1,1.8-0.4,2.6c-0.3,0.6-0.8,1.2-1.5,1.4c-0.7,0.3-1.5,0.6-2.3,0.6
		c-1.1,0.1-2.2,0.2-3.4,0.1c-0.1-0.8-0.3-1.5-0.6-2.2c-0.3-0.8-0.6-1.5-0.9-2.3c0.9,0,2.1,0.1,3.7,0.1c0.2,0,0.4,0,0.5-0.1
		c0.1-0.1,0.2-0.3,0.1-0.4v-6.2h-11.1v-4.2h11.1v-2.3h-11.1v-4.2h7v-2.2h-6.1v-4.1h6.1v-3.3h4.7v3.3h6.3v4.1h-6.3v2.2h7v4.2
		H-18947.6z M-18964-618v23.1h-6.5v3.1h-4.4V-618H-18964z M-18968.4-613.8h-2v5h2V-613.8z M-18970.4-599.2h2v-5.4h-2V-599.2z
		 M-18958.9-592.2c-0.4-0.9-0.8-1.8-1.4-2.6c-0.7-1-1.4-1.9-2.1-2.8l3.8-2.2c0.8,0.9,1.6,1.8,2.3,2.7c0.6,0.8,1.1,1.6,1.6,2.5
		L-18958.9-592.2z M-18928.2-606.5h-8.4v17.8h-4.8v-30.2h13.1V-606.5z M-18912.9-594.1c0,1-0.1,2-0.4,2.9c-0.3,0.7-0.8,1.3-1.5,1.6
		c-0.8,0.4-1.6,0.6-2.5,0.7c-1.3,0.1-2.6,0.2-3.9,0.2c-0.1-1-0.4-2.1-0.8-3.1h-7.5v1.7h-4.3v-14.7h13v11.3h2.2c0.2,0,0.4,0,0.6-0.2
		c0.1-0.2,0.2-0.4,0.2-0.6v-12.2h-8.6v-12.4h13.5L-18912.9-594.1z M-18932.7-615.4h-3.9v1.1h3.9V-615.4z M-18917.8-615.4h-4.1v1.1
		h4.1V-615.4z M-18936.6-609.8h3.9v-1.3h-3.9V-609.8z M-18921.8-609.7h4.1v-1.4h-4.1V-609.7z M-18925.2-601.3h-4.2v1.4h4.2V-601.3z
		 M-18929.4-595.2h4.2v-1.4h-4.2V-595.2z"/>
	<path id="パス_20677" class="st3" d="M-19034.9-523.8h139.9"/>
	<path id="パス_36428" class="st2" d="M-19386-502.1c0.9,0.8,2,1.5,3.1,2c-0.3,0.3-0.6,0.6-0.9,1c-0.3,0.3-0.6,0.7-0.8,1.1
		c-0.5-0.3-1-0.6-1.4-0.9v4.5h-2.4v-6.7c-0.6-0.7-1.2-1.5-1.7-2.3c-0.5,1.9-1.3,3.7-2.5,5.4c-0.9,1.4-2.2,2.6-3.7,3.4
		c-0.3-0.3-0.6-0.7-0.9-0.9c-0.3-0.3-0.6-0.6-1-0.8c1.7-0.9,3.1-2.2,4.1-3.8c-0.6-0.6-1.3-1.1-2-1.6c-0.3,0.4-0.5,0.6-0.7,0.8
		c-0.2-0.2-0.5-0.5-0.9-0.8c-0.3-0.3-0.7-0.5-1-0.7c0.9-0.9,1.7-1.9,2.2-3c0.7-1.3,1.2-2.7,1.5-4.1l2.3,0.5
		c-0.2,0.7-0.4,1.3-0.5,1.8h1.8l0.4-0.1l1.5,0.5c-0.1,0.6-0.2,1.1-0.3,1.5l0.6-0.2c0.2,0.4,0.4,0.7,0.6,1v-4.9h2.4V-502.1z
		 M-19394-505.2c-0.2,0.6-0.5,1.1-0.8,1.6c0.7,0.4,1.3,0.8,1.9,1.3c0.4-0.9,0.7-1.9,0.9-2.9L-19394-505.2z M-19370.6-501.4h2.4v6.9
		h-2.4v-0.9h-8.3v0.9h-2.4v-6.9h2.4v3.7h2.8v-4.5h-4.5v-6h2.3v3.8h2.2v-5.1h2.4v5.1h2.4v-3.8h2.5v6h-4.8v4.5h3L-19370.6-501.4z
		 M-19362.6-498.3c0.2,0,0.5-0.2,0.6-0.6c0.2-0.5,0.3-1.1,0.4-1.6c0.1-0.7,0.2-1.4,0.2-2.1s0.1-1.4,0.1-2c-0.5,0.2-0.9,0.5-1.2,0.9
		c-0.3,0.5-0.6,1-0.7,1.5c-0.2,0.5-0.2,1-0.3,1.6c-0.1,0.6,0,1.2,0.2,1.8C-19363.1-498.5-19362.9-498.4-19362.6-498.3z
		 M-19356.9-501.5c0-0.7-0.2-1.5-0.6-2.1c-0.3-0.6-0.9-1-1.6-1c0,1-0.1,2.1-0.2,3.1c-0.1,1-0.3,2-0.6,2.9c-0.2,0.8-0.6,1.5-1.1,2.1
		c-0.4,0.5-1,0.8-1.7,0.8c-0.5,0-1-0.2-1.4-0.5c-0.5-0.4-0.9-0.9-1.2-1.5c-0.4-0.9-0.5-1.9-0.5-2.9c0-1.1,0.2-2.2,0.7-3.2
		c0.4-0.9,1-1.7,1.8-2.3c0.8-0.6,1.7-0.9,2.6-1c1-0.1,2,0.1,2.9,0.5c0.9,0.4,1.7,1.1,2.2,1.9c0.6,1.1,0.9,2.3,0.9,3.5
		c0,1.1-0.1,2.1-0.5,3.1c-0.3,0.8-0.7,1.5-1.3,2c-0.5,0.5-1.1,0.8-1.8,1.1c-0.6,0.2-1.1,0.3-1.7,0.3v-2.4c0.9,0,1.7-0.4,2.1-1.1
		C-19357.1-499.4-19356.8-500.4-19356.9-501.5L-19356.9-501.5z M-19345.1-505.2c-0.5-0.4-1-0.9-1.7-1.4c-0.7-0.5-1.4-1-2-1.4
		l1.5-1.7c1.1,0.7,2.3,1.5,3.7,2.6L-19345.1-505.2z M-19340-498.5c-0.2-0.8-0.5-1.5-0.8-2.2c-0.4-0.8-0.8-1.6-1.3-2.4
		c-1.3,1.7-2.8,3.2-4.4,4.6v0.5c0,0.2,0,0.4,0.1,0.6c0,0.1,0.1,0.2,0.2,0.2c0.2,0.1,0.4,0.1,0.6,0.1h2c0.2,0,0.4-0.1,0.6-0.2
		c0.2-0.2,0.3-0.4,0.3-0.7c0.1-0.5,0.1-1.1,0.2-1.6c0.3,0.2,0.7,0.4,1.1,0.6c0.4,0.2,0.8,0.3,1.2,0.4c-0.1,0.8-0.2,1.6-0.5,2.3
		c-0.2,0.5-0.5,0.9-0.9,1.2c-0.5,0.3-1.1,0.4-1.7,0.4h-2.6c-0.5,0-1.1,0-1.6-0.2c-0.4-0.1-0.7-0.3-0.9-0.6c-0.2-0.4-0.4-0.8-0.5-1.2
		c-0.9,0.6-1.7,1.1-2.7,1.5c-0.2-0.3-0.5-0.7-0.7-1c-0.2-0.3-0.5-0.6-0.8-0.9c1.5-0.7,2.8-1.5,4.1-2.5v-6.7h2.5v4.6
		c1.1-1.1,2.1-2.2,2.9-3.5c0.8-1.1,1.5-2.4,2.1-3.6l2.3,0.9c-0.8,1.6-1.8,3-2.8,4.4l1.8-0.9c0.5,0.8,1,1.6,1.4,2.4
		c0.4,0.7,0.7,1.5,1,2.2L-19340-498.5z M-19349.4-505.1c-0.2,1.9-0.8,3.8-1.6,5.6l-2.3-0.8c0.4-0.8,0.7-1.6,1-2.4
		c0.3-0.9,0.5-1.9,0.6-2.9L-19349.4-505.1z M-19325.1-499.2c-0.3,0.6-0.7,1.2-1.2,1.7c1.4,0.4,2.7,0.8,3.7,1.2l-1.4,1.9
		c-1.3-0.5-2.8-1-4.4-1.5c-1,0.4-2,0.8-3,1c-1.4,0.3-2.8,0.4-4.2,0.6c-0.1-0.4-0.2-0.7-0.4-1.1c-0.1-0.3-0.3-0.6-0.5-0.9
		c1.6,0,3.2-0.2,4.8-0.5l-0.8-0.2l-0.1,0.1l-2.3-0.7c0.3-0.4,0.7-0.9,1.1-1.5h-3.1v-1.9h4.3l0.5-0.8h-3.9v-4.7h3.4v-0.6h-4.1v-2
		h14.1v2h-4.2v0.6h3.8v4.7h-6.5l-0.5,0.8h7.8v1.9H-19325.1z M-19330.3-507.2v0.6h1.4v-0.6H-19330.3z M-19333.7-504.7v1.1h1.2v-1.1
		H-19333.7z M-19330.3-503.6h1.4v-1.1h-1.4V-503.6z M-19325.2-504.7h-1.5v1.1h1.5V-504.7z M-19331.4-498.7c0.7,0.2,1.6,0.4,2.6,0.6
		c0.4-0.3,0.8-0.7,1.1-1.1h-3.3L-19331.4-498.7z M-19319.1-503.8h-1.6v-2.4h2c0.1-0.5,0.1-0.9,0.2-1.2c0-0.3,0.1-0.5,0.1-0.5h2.2
		c-0.2,0.8-0.2,1.4-0.3,1.7h2v2.4h-2.4c-0.8,3.3-1.2,5.2-1.4,5.7l-0.2,0.8h-2.3C-19319.8-500.6-19319.2-502.7-19319.1-503.8z
		 M-19313.7-501l0-5.3c0.6-0.1,1.2-0.1,1.9-0.1c0.6,0,1.1,0,1.5,0c0.2,0,0.4,0,0.6,0v2.5l-0.5,0c-0.3,0-0.8,0-1.3,0v3.2
		c0.4,0.2,0.9,0.3,1.3,0.6c0.4,0.2,0.6,0.3,0.6,0.3v2.6l-0.3-0.2c-0.2-0.1-0.4-0.3-0.7-0.5c-0.3-0.2-0.6-0.3-0.9-0.4v1
		c0,0.6-0.1,1.3-0.4,1.8c-0.2,0.4-0.6,0.7-1,0.8c-0.4,0.1-0.8,0.2-1.2,0.2c-0.5,0-1-0.1-1.5-0.2c-0.5-0.2-0.9-0.5-1.3-1
		c-0.4-0.6-0.6-1.3-0.5-2c0-1,0.3-1.9,1-2.6C-19315.7-500.8-19314.7-501.1-19313.7-501z M-19314.2-496.6c0.2,0,0.3-0.1,0.4-0.2
		c0.1-0.2,0.1-0.4,0.1-0.6v-1.4c-0.4-0.1-0.9,0-1.3,0.2c-0.3,0.2-0.5,0.6-0.5,0.9c0,0.3,0.1,0.6,0.3,0.8
		C-19314.9-496.7-19314.5-496.6-19314.2-496.6z M-19301.5-507.6h3.9c-0.9,0.7-1.6,1.3-2.3,1.8l-2,1.6c-0.7,0.5-1.2,1-1.7,1.4
		c-0.5,0.4-0.8,0.7-0.9,0.8c-0.1,0.1-0.2,0.2-0.2,0.4c0,0.2,0.1,0.3,0.2,0.5c0.1,0.1,0.4,0.4,0.9,0.9s1.1,1,1.7,1.6l2,1.8
		c0.6,0.6,1.4,1.3,2.3,2.1h-3.7c-0.6-0.6-1.2-1.1-1.7-1.5c-0.5-0.4-1-0.9-1.5-1.3s-1-0.9-1.4-1.2c-0.3-0.3-0.6-0.5-0.8-0.8
		c-0.5-0.5-0.8-1.2-0.8-1.9c0-0.7,0.3-1.3,0.8-1.8c0.2-0.2,0.5-0.4,0.8-0.7c0.4-0.3,0.8-0.7,1.3-1.1c0.5-0.4,0.9-0.8,1.4-1.1
		C-19302.6-506.7-19302.1-507.1-19301.5-507.6L-19301.5-507.6z M-19293-494.8c-0.5-0.6-1-1.2-1.6-1.8c-0.6-0.6-1.2-1.2-1.8-1.7
		l2-1.7c0.6,0.5,1.3,1.1,1.9,1.7c0.7,0.7,1.2,1.3,1.6,1.7L-19293-494.8z M-19396-477.1h3c-0.4,0.3-0.7,0.6-1,0.9
		c-0.3,0.3-0.5,0.5-0.7,0.9c-0.2,0.3-0.3,0.6-0.3,0.9c0,0.2,0.1,0.4,0.2,0.6c0.2,0.2,0.4,0.3,0.7,0.4c0.6,0.1,1.1,0.2,1.7,0.1
		c0.9,0,1.6,0,2.2-0.1c0.6-0.1,1.3-0.1,2.2-0.3v2.6c-1.6,0.2-3.2,0.3-4.8,0.3c-1.2,0.1-2.5-0.2-3.6-0.9c-0.8-0.6-1.2-1.5-1.1-2.5
		c0-0.6,0.1-1.1,0.4-1.6C-19396.8-476.2-19396.4-476.7-19396-477.1z M-19391-479.5h-3l1.4-1.3h-4.5v-2.4h8.7v1.9L-19391-479.5z
		 M-19390.5-477.2v-2.5h1.2v2.5L-19390.5-477.2z M-19388.6-477.2v-2.5h1.2v2.5L-19388.6-477.2z M-19372.8-483.6v13.1h-2.5v-0.8h-7.1
		v0.8h-2.3v-13.1h4.1c0.1-0.7,0.3-1.3,0.3-2l2.8,0.3c-0.2,0.4-0.4,1-0.7,1.7L-19372.8-483.6z M-19375.3-481.4h-7.1v1.2h7.1V-481.4z
		 M-19375.3-478h-7.1v1.2h7.1V-478z M-19382.4-473.4h7.1v-1.3h-7.1V-473.4z M-19367.5-482.2v1.8h-2.4v-4h5.7v-1.2h2.5v1.2h5.7v4
		h-2.5v-1.8L-19367.5-482.2z M-19358.8-472.9c0.2,0,0.4,0,0.6-0.2c0.2-0.2,0.3-0.4,0.3-0.6c0.1-0.5,0.1-0.9,0.2-1.4
		c0.3,0.2,0.7,0.4,1.1,0.6c0.4,0.2,0.8,0.3,1.3,0.4c-0.1,0.7-0.2,1.4-0.5,2.1c-0.2,0.5-0.5,0.8-1,1c-0.6,0.2-1.2,0.3-1.8,0.3h-2.8
		c-0.7,0-1.4-0.1-2-0.3c-0.4-0.2-0.8-0.5-1-0.9c-0.2-0.6-0.3-1.2-0.3-1.9v-1.4l-5.1,0.5l-0.3-2.3l5.4-0.5v-1.2
		c-0.8,0.1-1.9,0.2-3.1,0.3c-0.1-0.3-0.2-0.7-0.3-1c-0.1-0.3-0.3-0.7-0.4-1c1.6-0.1,3.1-0.4,4.7-0.7c1.3-0.2,2.5-0.6,3.7-1l1.8,1.9
		c-1.3,0.5-2.6,0.8-3.9,1.1v1.4l6.2-0.6l0.3,2.2l-6.5,0.6v1.6c0,0.2,0,0.4,0.1,0.6c0.1,0.1,0.2,0.2,0.3,0.2c0.2,0,0.5,0.1,0.7,0.1
		L-19358.8-472.9z M-19354-483.1h10.5v2.4c-1,0.1-1.9,0.4-2.7,0.8c-0.7,0.4-1.4,0.9-1.9,1.6c-0.5,0.5-0.8,1.1-1,1.7
		c-0.2,0.6-0.2,1.2,0,1.7c0.2,0.4,0.5,0.7,0.9,0.9c0.3,0.2,0.7,0.3,1.1,0.3c0.4,0,0.8,0,1.2,0c0.4,0,0.7-0.1,1-0.1s0.5-0.1,0.5-0.1
		v2.6c-0.5,0.1-1,0.1-1.6,0.1c-0.4,0-0.9,0-1.4,0c-0.5,0-1.1-0.1-1.6-0.3c-0.6-0.2-1.1-0.5-1.6-0.9c-0.5-0.4-0.9-1-1.1-1.6
		c-0.3-0.8-0.3-1.6-0.2-2.4c0.1-0.6,0.3-1.3,0.6-1.8c0.3-0.5,0.6-1,1-1.4c0.3-0.3,0.6-0.6,0.9-0.9c0.1-0.1,0.3-0.2,0.4-0.3h-5.1
		L-19354-483.1z M-19346.6-477.1v-2.5h1.2v2.5L-19346.6-477.1z M-19344.7-477.1v-2.5h1.2v2.5L-19344.7-477.1z M-19334.2-477.1h-7.3
		v-2.4h10.4c0,1.2-0.2,2.5-0.6,3.6c-0.4,1-0.9,1.8-1.7,2.5c-0.7,0.6-1.4,1.1-2.2,1.5c-0.7,0.3-1.4,0.6-2.1,0.8
		c-0.7,0.2-1.2,0.3-1.6,0.3c-0.4,0.1-0.6,0.1-0.7,0.1v-2.6c0.2,0,0.4,0,0.5,0c0.4-0.1,0.9-0.2,1.3-0.3c0.6-0.2,1.1-0.4,1.6-0.6
		c0.6-0.3,1.1-0.7,1.5-1.1C-19334.7-475.8-19334.4-476.4-19334.2-477.1L-19334.2-477.1z M-19341.1-481v-2.4h9.2v2.4L-19341.1-481z
		 M-19326.7-484h2.5c0,0.3-0.1,0.6-0.2,0.9c-0.1,0.3-0.1,0.5-0.2,0.8h5.3v2.4c-0.1,1.3-0.4,2.5-0.9,3.7c-0.4,1-1,1.9-1.8,2.6
		c-0.6,0.6-1.3,1.2-2.1,1.6c-0.6,0.4-1.3,0.7-2,1c-0.5,0.2-1,0.4-1.5,0.5c-0.2,0.1-0.4,0.1-0.6,0.1v-2.6c0.2,0,0.4-0.1,0.6-0.2
		c0.5-0.2,1-0.4,1.5-0.6c0.7-0.3,1.3-0.8,1.9-1.3c0.6-0.6,1.2-1.3,1.6-2c0.4-0.9,0.7-1.9,0.8-2.9h-3.7c-0.5,0.8-1.1,1.6-1.8,2.3
		c-0.4,0.5-0.9,0.9-1.5,1.3c-0.2,0.2-0.4,0.3-0.6,0.4v-3.1c0.1-0.1,0.2-0.2,0.4-0.3c0.3-0.3,0.6-0.6,0.8-1c0.3-0.5,0.6-1,0.9-1.6
		C-19327.1-482.5-19326.8-483.2-19326.7-484z M-19310-477.1h-7.4v-2.4h10.4c0,1.2-0.2,2.5-0.6,3.6c-0.4,1-0.9,1.8-1.7,2.5
		c-0.7,0.6-1.4,1.1-2.2,1.5c-0.7,0.3-1.4,0.6-2.1,0.8c-0.7,0.2-1.2,0.3-1.6,0.3c-0.4,0.1-0.6,0.1-0.7,0.1v-2.6c0.2,0,0.4,0,0.5,0
		c0.4-0.1,0.9-0.2,1.3-0.3c0.6-0.2,1.1-0.4,1.6-0.6c0.6-0.3,1.1-0.7,1.5-1.1C-19310.5-475.8-19310.2-476.4-19310-477.1z
		 M-19316.9-481v-2.4h9.2v2.4H-19316.9z M-19302.5-484h2.5c0,0.3-0.1,0.6-0.2,0.9c-0.1,0.3-0.1,0.5-0.2,0.8h5.3v2.4
		c-0.1,1.3-0.4,2.5-0.9,3.7c-0.4,1-1,1.9-1.8,2.6c-0.6,0.6-1.3,1.2-2.1,1.6c-0.6,0.4-1.3,0.7-2,1c-0.5,0.2-1,0.4-1.5,0.5
		c-0.2,0.1-0.4,0.1-0.6,0.1v-2.6c0.2,0,0.4-0.1,0.6-0.2c0.5-0.2,1-0.4,1.5-0.6c0.7-0.3,1.3-0.8,1.9-1.3c0.6-0.6,1.2-1.3,1.6-2
		c0.4-0.9,0.7-1.9,0.8-2.9h-3.7c-0.5,0.8-1.1,1.6-1.8,2.3c-0.4,0.5-0.9,0.9-1.5,1.3c-0.2,0.2-0.4,0.3-0.6,0.4v-3.1
		c0.1-0.1,0.2-0.2,0.4-0.3c0.3-0.3,0.6-0.6,0.8-1c0.3-0.5,0.6-1,0.9-1.6C-19302.9-482.5-19302.7-483.2-19302.5-484z M-19287.2-476.2
		l-0.5-5.1l-0.1-2.7h3.1l-0.1,2.7l-0.5,5.1H-19287.2z M-19286.2-471.8c-0.4,0-0.9-0.2-1.2-0.5c-0.3-0.3-0.5-0.7-0.5-1.2
		c0-0.4,0.2-0.9,0.5-1.2c0.7-0.6,1.7-0.6,2.3,0c0.3,0.3,0.5,0.7,0.5,1.2C-19284.5-472.5-19285.2-471.8-19286.2-471.8
		C-19286.1-471.8-19286.1-471.8-19286.2-471.8L-19286.2-471.8z"/>
	<path id="パス_36431" class="st2" d="M-19030.4-503.9h-2.9v-2.3h2.9v-1.6h2.2v1.6h1.7c-0.2-0.4-0.5-0.9-0.8-1.5h2.5
		c0.8,1.6,1.3,2.8,1.6,3.6s0.5,1.2,0.5,1.3h-2.4c-0.2-0.5-0.3-1-0.5-1.3c-0.2-0.5-0.4-1-0.7-1.4v1.7h-1.9v1.2c0.1,0,0.2,0,0.4-0.1
		c0.5,0,1,0,1.5,0.1c0.5,0.1,1.1,0.3,1.5,0.6c0.5,0.3,0.9,0.7,1.2,1.2c0.3,0.7,0.5,1.4,0.5,2.1c0,0.7-0.1,1.5-0.5,2.1
		c-0.3,0.5-0.7,0.9-1.1,1.3c-0.4,0.3-0.9,0.5-1.4,0.6c-0.5,0.1-0.9,0.2-1.4,0.2v-2.4c0.4,0,0.9,0,1.3-0.2c0.3-0.1,0.5-0.3,0.7-0.5
		c0.1-0.3,0.2-0.6,0.2-1c0-0.5-0.2-1-0.6-1.3c-0.6-0.3-1.3-0.5-1.9-0.4h-0.1c0,0-0.1,0-0.1,0v2.7c0,0.7-0.2,1.4-0.5,1.9
		c-0.2,0.4-0.6,0.6-1,0.8c-0.3,0.1-0.6,0.2-1,0.1c-0.5,0-0.9-0.1-1.3-0.4c-0.5-0.3-0.9-0.7-1.1-1.2c-0.3-0.5-0.5-1.2-0.5-1.8
		c0-0.6,0.1-1.2,0.4-1.8c0.3-0.6,0.7-1,1.2-1.4c0.5-0.4,1.1-0.7,1.7-1V-503.9z M-19030.4-497.5v-2.5c-0.3,0.2-0.6,0.4-0.8,0.7
		c-0.2,0.3-0.3,0.7-0.3,1c0,0.2,0,0.4,0.2,0.6c0.1,0.1,0.2,0.3,0.4,0.3c0.1,0.1,0.3,0.1,0.4,0.1c0,0,0,0,0.1,0
		C-19030.5-497.3-19030.4-497.4-19030.4-497.5z M-19018.9-505.6v1.9h-2v-3.4h6v-0.4h-4.8v-1.7h12v1.7h-4.9v0.4h6.1v3.4h-2.1v-1.9h-4
		v3.2h-2.3v-3.2H-19018.9z M-19015.4-505.2v1.2h-3v-1.2H-19015.4z M-19012.2-505.2h3v1.2h-3L-19012.2-505.2z M-19018.7-502.4v-1.2
		h3.3v1.2H-19018.7z M-19012.2-502.4v-1.2h3.3v1.2H-19012.2z M-19009-496.2c0.2,0,0.4,0,0.6-0.1c0.1-0.1,0.2-0.2,0.3-0.4
		c0.1-0.3,0.1-0.6,0.2-0.9c0.3,0.2,0.6,0.3,0.9,0.4c0.3,0.1,0.7,0.2,1,0.3c0,0.5-0.2,1-0.4,1.5c-0.2,0.3-0.5,0.6-0.8,0.7
		c-0.5,0.2-1,0.2-1.5,0.2h-3.2c-0.6,0-1.3,0-1.9-0.2c-0.4-0.1-0.7-0.3-0.9-0.7c-0.2-0.4-0.3-0.9-0.3-1.4h-2.1v0.6h-2.2v-6h11.3v5.3
		h-4.7c0,0.2,0.1,0.3,0.2,0.4c0.3,0.1,0.6,0.1,0.9,0.1H-19009z M-19015.1-500.5h-2.1v0.5h2.1L-19015.1-500.5z M-19010.4-500v-0.5
		h-2.4v0.5H-19010.4z M-19017.2-498.7v0.5h2.1v-0.5H-19017.2z M-19012.8-498.2h2.4v-0.5h-2.4L-19012.8-498.2z M-18993.3-502.8v1.8
		h2.7v6.6h-2.3v-0.7h-3v0.8h-2.2v-6.6h2.5v-1.8h-3.3v-2.2h3.3v-1.6c-0.7,0.1-1.5,0.2-2.4,0.2c-0.1-0.3-0.1-0.7-0.2-1
		c-0.1-0.3-0.2-0.7-0.4-1c1.3-0.1,2.5-0.3,3.7-0.5c1-0.2,2.1-0.4,3.1-0.7l1.6,1.9c-1,0.3-1.9,0.5-2.9,0.7v1.9h3.3v2.2H-18993.3z
		 M-18999.6-509.2v1.7h-4.8v-1.7H-18999.6z M-19005.3-505.1v-1.8h6.2v1.8H-19005.3z M-18999.6-504.6v1.7h-4.9v-1.7H-18999.6z
		 M-19004.6-500.6v-1.7h4.9v1.7H-19004.6z M-18999.6-500v5h-3.1v0.6h-1.9v-5.6H-18999.6z M-18993-497.3v-1.7h-3v1.7H-18993z
		 M-19001.5-498.2h-1.2v1.4h1.2L-19001.5-498.2z M-18988.2-508.2h13v13.4h-2.6v-1.3h-8v1.3h-2.4L-18988.2-508.2z M-18985.8-498.4h8
		v-7.4h-8L-18985.8-498.4z M-18972.8-507.1h10.5v2.4c-1,0.1-1.9,0.4-2.7,0.8c-0.7,0.4-1.4,0.9-1.9,1.6c-0.5,0.5-0.8,1.1-1,1.7
		c-0.2,0.6-0.2,1.2,0,1.7c0.2,0.4,0.5,0.7,0.9,0.9c0.3,0.2,0.7,0.3,1.1,0.3c0.4,0,0.8,0,1.2,0c0.4,0,0.7-0.1,1-0.1
		c0.3,0,0.5-0.1,0.5-0.1v2.6c-0.5,0.1-1,0.1-1.6,0.1c-0.5,0-0.9,0-1.4,0c-0.5,0-1.1-0.1-1.6-0.3c-0.6-0.2-1.1-0.5-1.6-0.9
		c-0.5-0.4-0.9-1-1.1-1.6c-0.3-0.8-0.3-1.6-0.2-2.4c0.1-0.6,0.3-1.3,0.6-1.8c0.3-0.5,0.6-1,1-1.4c0.3-0.3,0.6-0.6,0.9-0.9
		c0.1-0.1,0.3-0.2,0.4-0.3h-5.1L-18972.8-507.1z M-18965.5-501.1v-2.5h1.2v2.5H-18965.5z M-18963.6-501.1v-2.5h1.2v2.5H-18963.6z
		 M-18955.6-508.7c-0.6,0.8-1.3,1.6-2,2.3c-0.7,0.7-1.5,1.3-2.3,1.9c-0.1-0.3-0.3-0.7-0.5-1c-0.2-0.4-0.4-0.7-0.6-1
		c0.7-0.4,1.3-0.9,1.8-1.4c0.5-0.5,1-1,1.4-1.6L-18955.6-508.7z M-18947.6-502.7v1h1.7v2.1h-1.7v2.9c0,0.4,0,0.9-0.2,1.3
		c-0.1,0.3-0.4,0.6-0.7,0.7c-0.4,0.2-0.8,0.3-1.1,0.3c-0.6,0.1-1.1,0.1-1.7,0.1c-0.1-0.4-0.1-0.7-0.3-1.1c-0.1-0.4-0.3-0.7-0.4-1.1
		c0.4,0,0.9,0,1.3,0l0.5,0c0.1,0,0.2,0,0.3,0c0.1-0.1,0.1-0.1,0.1-0.2v-2.8h-3.3c0.4,0.4,0.7,0.9,1,1.4c0.3,0.4,0.5,0.8,0.7,1.2
		l-2,1.1c-0.2-0.5-0.4-0.9-0.7-1.3c-0.3-0.5-0.7-1-1-1.5l1.7-0.9h-2.4v-2.1h6v-1h-6.2v-1.3l-0.5,0.7v8.9h-2.2v-6.3
		c-0.4,0.4-0.8,0.8-1.2,1.1c-0.1-0.3-0.2-0.7-0.5-1.2c-0.2-0.4-0.4-0.8-0.6-1.2c0.8-0.5,1.5-1.2,2.1-1.8c0.7-0.7,1.2-1.4,1.7-2.2
		l2,0.9c-0.1,0.1-0.1,0.2-0.3,0.4h3.5v-1h-3.1v-2.1h3.2v-1.6h2.3v1.6h3.3v2.1h-3.3v1h4v2.1L-18947.6-502.7z M-18942.4-503.7h-1.9
		v-2.3h2.2c0.1-0.6,0.1-1,0.1-1.3c0-0.3,0-0.5,0-0.5h2.2c0,0.6-0.1,1.2-0.1,1.8h2.3v2c1.5,0,2.9,0,4.1,0v2.4c-0.6,0-1.3-0.1-2-0.1
		c-0.7,0-1.7,0-3,0l0-2h-1.5c-0.2,1.8-0.5,3.4-0.8,4.7c-0.3,1.3-0.5,2.3-0.7,3.1c-0.2,0.7-0.3,1.1-0.3,1.1h-2.4
		c0.5-1.6,0.8-3.1,1.1-4.7S-18942.6-502.4-18942.4-503.7z M-18939.5-499.9h2.2c-0.4,0.6-0.7,1.2-0.7,1.9c0,0.5,0.5,0.7,1.5,0.8
		c0.6,0,1.1,0,1.6,0c0.4,0,0.8,0,1.1-0.1l0.4,0v2.5c-0.7,0.1-1.3,0.1-1.9,0.1s-1.2,0-2,0c-0.6,0-1.3-0.2-1.8-0.5
		c-0.4-0.2-0.7-0.6-0.9-1c-0.2-0.4-0.3-0.8-0.3-1.3c0-0.4,0.1-0.8,0.2-1.2C-18939.9-499.2-18939.8-499.5-18939.5-499.9z
		 M-18931.3-503v-2.5c1,0,1.8,0,2.4,0c0.7,0,1.3,0,2,0c-0.2-0.7-0.3-1.2-0.4-1.6c-0.1-0.4-0.1-0.6-0.2-0.6h2.5c0,0,0,0.2,0.1,0.4
		l0.2,0.8c0.1,0.3,0.1,0.6,0.2,0.9c0.6,0,1.2-0.1,1.7-0.1c0.6-0.1,1.2-0.2,2-0.2v2.5c-0.6,0.1-1.1,0.2-1.6,0.2
		c-0.5,0.1-1,0.1-1.6,0.1c0.3,1.3,0.6,2.2,0.8,2.9l0.3,1h-2.6c-0.1-0.4-0.2-1-0.4-1.7c-0.2-0.7-0.3-1.3-0.5-2c-0.5,0-1.1,0-1.7,0
		c-0.6,0-1.2,0-1.7,0H-18931.3z M-18929.5-501.2h2.6c-0.4,0.6-0.7,1.1-0.9,1.5c-0.2,0.4-0.3,0.8-0.3,1.2c0,0.2,0,0.4,0.1,0.6
		c0.1,0.2,0.4,0.4,0.6,0.5c0.5,0.2,1,0.2,1.5,0.2c0.7,0,1.5,0,2.2-0.1c0.7-0.1,1.2-0.2,1.6-0.2c0.4-0.1,0.6-0.1,0.6-0.1v2.7
		c-0.5,0.1-1,0.1-1.5,0.2s-1.6,0.1-3.1,0.1c-1.3,0.1-2.5-0.3-3.5-1c-0.8-0.6-1.2-1.5-1.2-2.5c0-0.6,0.1-1.1,0.3-1.6
		C-18930.1-500.3-18929.9-500.8-18929.5-501.2z M-18913.9-494.4h-2.4v-4.5c-0.4,0.6-0.9,1.2-1.2,1.7c-0.4,0.5-0.8,1.1-1.2,1.8v-3.8
		c0.9-1.3,1.8-2.4,2.4-3.3v-0.4h-2.4v-2.4h2.4v-2.6h2.4v3.4c0.4-0.5,0.8-0.8,1.3-1.1c0.5-0.2,1-0.4,1.5-0.4c0.5-0.1,1.1,0,1.5,0.3
		c0.4,0.3,0.6,0.7,0.7,1.2c0.1,0.6,0.2,1.1,0.1,1.7c0,0.4,0,0.8-0.1,1.3c0,0.5-0.1,1-0.1,1.5c0,0.5,0,1-0.1,1.4s0,0.7,0,0.8
		c0,0.2,0,0.3,0.1,0.3c0.1,0,0.1,0.1,0.2,0c0.2,0,0.3-0.1,0.4-0.2c0.2-0.2,0.4-0.3,0.6-0.5v2.7c-0.3,0.2-0.6,0.4-0.9,0.6
		c-0.3,0.1-0.7,0.2-1,0.1c-0.6,0-1.1-0.4-1.5-0.9c-0.3-0.6-0.5-1.2-0.5-1.9c0-0.3,0-0.7,0-1.1s0-1,0.1-1.5s0.1-1,0.1-1.4
		s0-0.7,0-0.8c0-0.2,0-0.4-0.1-0.7c-0.1-0.2-0.3-0.3-0.5-0.3c-0.4,0.1-0.7,0.3-1,0.5c-0.4,0.4-0.8,0.8-1.2,1.3V-494.4z
		 M-18905-504.7v-2.5h7.5v2.2l-2.8,2.1c0.8-0.2,1.6-0.2,2.4,0.2c0.6,0.3,1.2,0.8,1.5,1.4c0.4,0.7,0.6,1.4,0.6,2.2
		c0,0.8-0.2,1.7-0.6,2.4c-0.4,0.7-1,1.2-1.7,1.5c-0.7,0.3-1.4,0.6-2.2,0.6c-0.8,0.1-1.6,0-2.3-0.2c-0.6-0.1-1.1-0.4-1.4-0.9
		c-0.3-0.4-0.5-1-0.5-1.6c0-0.4,0.1-0.9,0.3-1.3c0.2-0.4,0.5-0.8,1-1c0.6-0.2,1.2-0.3,1.9-0.2c0.6,0.1,1.2,0.4,1.7,0.8
		c0.4,0.4,0.8,0.9,1,1.5c0.2-0.2,0.4-0.5,0.5-0.8c0.1-0.3,0.1-0.6,0.1-0.9c0-0.5-0.2-1-0.6-1.3c-0.6-0.3-1.2-0.5-1.9-0.4
		c-0.7,0-1.4,0.2-2.1,0.4c-0.5,0.3-1,0.6-1.5,1l-1.9,1.6v-3l5-3.8H-18905z M-18901.9-498.2c-0.3,0-0.5,0.1-0.6,0.3
		c-0.1,0.2-0.1,0.5,0,0.7c0.1,0.3,0.4,0.5,0.7,0.5c0.3,0.1,0.6,0.1,1,0.1c0.1,0,0.3,0,0.4-0.1c-0.1-0.4-0.2-0.7-0.5-1
		C-18901.2-497.9-18901.6-498.1-18901.9-498.2L-18901.9-498.2z M-19032.2-477.1h3c-0.4,0.3-0.7,0.6-1,0.9c-0.3,0.3-0.5,0.5-0.7,0.9
		c-0.2,0.3-0.3,0.6-0.3,0.9c0,0.2,0.1,0.4,0.2,0.6c0.2,0.2,0.4,0.3,0.7,0.4c0.6,0.1,1.1,0.2,1.7,0.1c0.9,0,1.6,0,2.2-0.1
		c0.6-0.1,1.3-0.1,2.2-0.3v2.6c-1.6,0.2-3.2,0.3-4.8,0.3c-1.2,0.1-2.5-0.2-3.5-0.9c-0.8-0.6-1.2-1.5-1.1-2.5c0-0.6,0.1-1.1,0.4-1.6
		C-19033-476.2-19032.6-476.7-19032.2-477.1z M-19027.2-479.5h-3l1.4-1.3h-4.5v-2.4h8.7v1.9L-19027.2-479.5z M-19012.3-480.6v2.6
		c-1,0-1.8,0.1-2.6,0.2c-0.7,0.1-1.4,0.2-2.1,0.4c-0.6,0.2-1.2,0.5-1.8,0.9c-0.5,0.3-0.7,0.9-0.7,1.5c0,0.5,0.2,0.9,0.5,1.2
		c0.4,0.3,0.8,0.4,1.3,0.5c0.5,0.1,1.1,0.1,1.6,0.1c0.7,0,1.3,0,1.9-0.1c0.6-0.1,1-0.1,1.4-0.2l0.5-0.1v2.6
		c-1.2,0.2-2.5,0.2-3.7,0.2c-1,0-1.9-0.1-2.9-0.3c-0.9-0.2-1.7-0.6-2.3-1.2c-0.7-0.8-1-1.8-0.8-2.8c0-0.6,0.2-1.2,0.4-1.7
		c0.2-0.5,0.5-0.9,0.9-1.2c0.4-0.3,0.8-0.6,1.2-0.9l-0.7-4.7h2.2l0.6,3.9c0.8-0.3,1.6-0.5,2.4-0.6
		C-19014-480.5-19013.2-480.6-19012.3-480.6z M-19012.3-480.6v2.6c-1,0-1.8,0.1-2.6,0.2c-0.7,0.1-1.4,0.2-2.1,0.4
		c-0.6,0.2-1.2,0.5-1.8,0.9c-0.5,0.3-0.7,0.9-0.7,1.5c0,0.5,0.2,0.9,0.5,1.2c0.4,0.3,0.8,0.4,1.3,0.5c0.5,0.1,1.1,0.1,1.6,0.1
		c0.7,0,1.3,0,1.9-0.1c0.6-0.1,1-0.1,1.4-0.2l0.5-0.1v2.6c-1.2,0.2-2.5,0.2-3.7,0.2c-1,0-1.9-0.1-2.9-0.3c-0.9-0.2-1.7-0.6-2.3-1.2
		c-0.7-0.8-1-1.8-0.8-2.8c0-0.6,0.2-1.2,0.4-1.7c0.2-0.5,0.5-0.9,0.9-1.2c0.4-0.3,0.8-0.6,1.2-0.9l-0.7-4.7h2.2l0.6,3.9
		c0.8-0.3,1.6-0.5,2.4-0.6C-19014-480.5-19013.2-480.6-19012.3-480.6z M-19007.9-479.6h-2.4v-2.4h2.5c0-0.6,0.1-1.2,0.1-1.8h2.4
		c0,0.7-0.1,1.3-0.1,1.8h3.5v2.4h-3.6c0,0.2,0,0.5,0,0.7c0,0.2,0,0.5,0,0.7h2.6v2.3h-2.6c-0.1,0.7,0,1.5,0.2,2.1
		c0.3,0.5,0.8,0.9,1.4,0.8c0.4,0,0.8-0.1,1.2-0.3c0.2-0.2,0.4-0.4,0.5-0.7c0.1-0.3,0.2-0.5,0.2-0.8c0-0.4,0-0.7-0.1-1.1
		c-0.1-0.4-0.2-0.9-0.3-1.5h2.4c0.3,1,0.4,2,0.4,3c0,0.4-0.1,0.7-0.1,1.1c-0.2,1-1,1.9-1.9,2.4c-0.7,0.3-1.5,0.5-2.3,0.5
		c-0.9,0-1.9-0.2-2.6-0.8c-0.6-0.5-1-1.3-1.2-2c-0.2-0.8-0.2-1.7-0.2-2.6h-2.3v-2.3h2.3c0-0.2,0-0.5,0-0.7
		C-19007.9-479.1-19007.9-479.3-19007.9-479.6z M-18996-477.1h3c-0.4,0.3-0.7,0.6-1,0.9c-0.3,0.3-0.5,0.5-0.7,0.9
		c-0.2,0.3-0.3,0.6-0.3,0.9c0,0.2,0.1,0.4,0.2,0.6c0.2,0.2,0.4,0.3,0.7,0.4c0.6,0.1,1.1,0.2,1.7,0.1c0.9,0,1.6,0,2.2-0.1
		c0.6-0.1,1.3-0.1,2.2-0.3v2.6c-1.6,0.2-3.2,0.3-4.7,0.3c-1.2,0.1-2.5-0.2-3.6-0.9c-0.8-0.6-1.2-1.5-1.1-2.5c0-0.6,0.1-1.1,0.4-1.6
		C-18996.8-476.2-18996.4-476.7-18996-477.1z M-18991-479.5h-3l1.4-1.3h-4.5v-2.4h8.7v1.9L-18991-479.5z M-18990.5-477.2v-2.5h1.2
		v2.5H-18990.5z M-18988.6-477.2v-2.5h1.2v2.5H-18988.6z M-18985.8-479v-2.5c1,0,1.8,0,2.4,0c0.7,0,1.3,0,2,0
		c-0.2-0.7-0.3-1.2-0.4-1.6c-0.1-0.4-0.1-0.6-0.2-0.6h2.5c0,0,0,0.2,0.1,0.4l0.2,0.8c0.1,0.3,0.1,0.6,0.2,0.9c0.6,0,1.2-0.1,1.7-0.1
		c0.6-0.1,1.2-0.2,2-0.2v2.5c-0.6,0.1-1.1,0.2-1.6,0.2c-0.5,0.1-1,0.1-1.6,0.1c0.3,1.3,0.6,2.2,0.8,2.9l0.3,1h-2.6
		c-0.1-0.4-0.2-1-0.4-1.7c-0.2-0.7-0.3-1.3-0.5-2c-0.5,0-1.1,0-1.7,0s-1.2,0-1.7,0H-18985.8z M-18984.1-477.2h2.6
		c-0.4,0.6-0.7,1.1-0.9,1.5c-0.2,0.4-0.3,0.8-0.3,1.2c0,0.5,0.3,0.9,0.7,1.1c0.5,0.2,1,0.2,1.5,0.2c0.7,0,1.5,0,2.2-0.1
		c0.7-0.1,1.2-0.2,1.6-0.2c0.4-0.1,0.6-0.1,0.6-0.1v2.7c-0.5,0.1-1,0.1-1.5,0.2c-0.5,0.1-1.6,0.1-3.1,0.1c-1.3,0.1-2.5-0.3-3.5-1
		c-0.8-0.6-1.2-1.5-1.2-2.5c0-0.6,0.1-1.1,0.3-1.6C-18984.7-476.3-18984.4-476.8-18984.1-477.2L-18984.1-477.2z M-18978.3-483.3
		v-2.5h1.2v2.5L-18978.3-483.3z M-18976.4-483.3v-2.5h1.2v2.5L-18976.4-483.3z M-18972.6-483.3h2.4c0,0,0,0.3,0,0.7s0,1-0.1,1.7
		c0,0.7,0,1.4-0.1,2.2c0,0.8,0,1.5,0,2.1c0,0.7,0,1.4,0.1,2c0.1,0.5,0.3,0.8,0.5,0.8c0.4,0,0.7-0.1,1-0.3c0.3-0.2,0.7-0.4,1-0.7
		c0.3-0.2,0.4-0.3,0.5-0.3v2.7c-0.1,0.1-0.2,0.2-0.3,0.3c-0.3,0.2-0.6,0.4-0.9,0.6c-0.4,0.2-0.9,0.3-1.4,0.4
		c-0.9,0.1-1.7-0.3-2.1-1.1c-0.5-1.2-0.8-2.5-0.7-3.7c0-0.7,0-1.4,0-2.3c0-0.8,0-1.6,0-2.4c0-0.8,0-1.4,0-1.9
		S-18972.6-483.2-18972.6-483.3L-18972.6-483.3z M-18966.1-483.3h2.5c0,0,0.1,0.4,0.3,1.3c0.3,1.1,0.5,2.3,0.6,3.5
		c0.2,2.1,0.3,4.2,0.2,6.2h-2.4c0,0,0-0.1,0-0.4c0-0.2,0-0.8,0-1.7c0-0.9-0.1-1.9-0.2-2.9c-0.1-1.1-0.2-2.1-0.4-3.2
		C-18965.6-481.4-18965.8-482.3-18966.1-483.3L-18966.1-483.3z M-18959.9-477.2v-2.2h4.1v-0.9h-4.4v-2.2h4.4v-1.4h2.3v1.4h3.4v2.2
		h-3.4v0.9h3.1v2.2h-3.1v1.2c0.5,0.2,1,0.4,1.4,0.7c0.4,0.2,0.8,0.5,1.2,0.8c0.2,0.1,0.3,0.2,0.5,0.4v2.8c0,0-0.2-0.2-0.5-0.4
		c-0.3-0.3-0.7-0.6-1.2-1c-0.5-0.4-1-0.7-1.5-1v0.5c0,0.7-0.1,1.3-0.5,1.8c-0.3,0.4-0.7,0.7-1.2,0.8c-0.5,0.1-1,0.2-1.4,0.2
		c-0.6,0-1.2-0.1-1.8-0.3c-0.5-0.2-0.9-0.5-1.3-0.9c-0.3-0.5-0.5-1-0.5-1.5c0-0.6,0.2-1.3,0.6-1.8c0.4-0.5,1-0.8,1.6-1
		c0.7-0.2,1.4-0.3,2.2-0.3v-0.8L-18959.9-477.2z M-18956.6-472.6c0.2,0,0.4-0.1,0.6-0.2c0.2-0.1,0.3-0.3,0.3-0.5v-1
		c-0.5-0.1-1.1,0-1.6,0.2c-0.4,0.2-0.6,0.4-0.6,0.7c0,0.2,0.1,0.5,0.3,0.6C-18957.4-472.6-18957-472.5-18956.6-472.6L-18956.6-472.6
		z M-18946.9-478.8h-1.4v-2.5h1.4c0-0.8,0-1.6,0-2.3h2.3c0,0.7,0,1.4-0.1,2.3h3.4c0-0.8,0-1.6-0.1-2.3h2.3c0,0.7,0,1.4,0,2.3h1.4
		v2.4h-1.4v1.2c0,0.7-0.1,1.5-0.4,2.2c-0.2,0.5-0.6,0.8-1,1.1c-0.6,0.2-1.2,0.3-1.8,0.2c-0.5,0-1.1-0.1-1.6-0.3v-2
		c0.4,0.1,0.7,0.1,1,0.2c0.2,0,0.4,0,0.6,0c0.2,0,0.3,0,0.5-0.1c0.2-0.1,0.3-0.2,0.3-0.4c0.1-0.3,0.1-0.6,0.1-0.9v-1.1h-3.5
		c0,0.1,0,0.3,0,0.7s0,0.8,0,1.3c0,0.5,0,0.9,0,1.4c0,0.5,0.1,0.9,0.3,1.3c0.1,0.3,0.4,0.6,0.7,0.7c0.4,0.2,0.9,0.3,1.4,0.3
		c0.6,0,1.3,0,1.9,0c0.6,0,1.3-0.1,2-0.2v2.5c-0.7,0.1-1.3,0.1-1.9,0.1c-0.6,0-1.3,0-2,0c-0.7,0-1.5-0.2-2.2-0.4
		c-0.7-0.2-1.3-0.7-1.7-1.3c-0.5-0.8-0.7-1.8-0.7-2.7c0-0.4,0-0.9,0-1.5C-18946.9-477.2-18946.9-477.9-18946.9-478.8L-18946.9-478.8
		z M-18932.4-483.6h2.7c-0.3,0.9-0.6,1.7-0.8,2.4c-0.2,0.8-0.5,1.6-0.8,2.6c0.2-0.2,0.5-0.4,0.8-0.4c0.5-0.2,1-0.2,1.5,0
		c0.5,0.2,0.9,0.7,0.9,1.2c0.1,0.6,0.2,1.2,0.1,1.9c0,0.5,0,1.1,0,1.6c0.1,0.5,0.2,0.7,0.4,0.7c0.3,0,0.6-0.2,0.8-0.4
		c0.3-0.2,0.6-0.5,0.9-0.9c0.3-0.3,0.6-0.6,0.8-0.9c0.1-0.1,0.2-0.3,0.3-0.4v3.4c-0.3,0.4-0.5,0.7-0.9,1c-0.3,0.3-0.6,0.5-1,0.7
		c-0.4,0.2-0.8,0.3-1.3,0.3c-0.8,0-1.6-0.4-1.9-1.2c-0.4-0.9-0.5-1.9-0.4-2.9c0-0.5,0-1,0-1.4c-0.1-0.4-0.3-0.5-0.7-0.4
		c-0.3,0.1-0.5,0.3-0.7,0.5c-0.2,0.3-0.4,0.6-0.5,0.9c-0.1,0.3-0.2,0.7-0.3,1c-0.1,0.6-0.3,1.1-0.4,1.7c-0.1,0.6-0.3,1.1-0.4,1.7
		h-2.5c0.4-1.5,0.7-2.9,1-4.1s0.7-2.6,1.1-4.1C-18933.4-480.5-18932.9-482.1-18932.4-483.6L-18932.4-483.6z M-18917-476.2l-0.5-5.1
		l-0.1-2.7h3.1l-0.1,2.7l-0.5,5.1L-18917-476.2z M-18916-471.8c-0.4,0-0.9-0.2-1.2-0.5c-0.3-0.3-0.5-0.7-0.5-1.2
		c0-0.4,0.2-0.9,0.5-1.2c0.7-0.6,1.7-0.6,2.3,0c0.3,0.3,0.5,0.7,0.5,1.2C-18914.3-472.5-18915-471.8-18916-471.8
		C-18915.9-471.8-18915.9-471.8-18916-471.8L-18916-471.8z"/>
	<path id="パス_36419" class="st0" d="M-19135.9-625.1c45,0,81.5,36.5,81.5,81.5s-36.5,81.5-81.5,81.5c-45,0-81.5-36.5-81.5-81.5
		S-19180.9-625.1-19135.9-625.1z"/>
	<path id="パス_36420" class="st0" d="M-19499.7-625.1c45,0,81.5,36.5,81.5,81.5s-36.5,81.5-81.5,81.5c-45,0-81.5-36.5-81.5-81.5
		S-19544.7-625.1-19499.7-625.1z"/>
	<path id="パス_16223" class="st2" d="M-19153.3-570.3c0.1,3.2,1.5,6.3,3.9,8.5l7.4,6.9c1.6,1.5,2.7,3.4,3.2,5.5
		c0,1.7,1.4,3.2,3.2,3.2c1.7,0,3.1-1.4,3.2-3.2c0.5-2.1,1.6-4,3.2-5.5l7.4-6.9c2.4-2.2,3.8-5.3,3.9-8.5H-19153.3z"/>
	<path id="パス_16224" class="st2" d="M-19135.6-541.8c-1.1,0-2.1,0.9-2.1,2.1c0,1.1,0.9,2.1,2.1,2.1c1.1,0,2.1-0.9,2.1-2.1
		C-19133.5-540.8-19134.5-541.8-19135.6-541.8C-19135.6-541.8-19135.6-541.8-19135.6-541.8z"/>
	<path id="パス_16225" class="st2" d="M-19135.6-530.6c-1.1,0-2.1,0.9-2.1,2.1c0,1.1,0.9,2.1,2.1,2.1s2.1-0.9,2.1-2.1
		C-19133.5-529.6-19134.5-530.6-19135.6-530.6C-19135.6-530.6-19135.6-530.6-19135.6-530.6z"/>
	<path id="パス_16226" class="st2" d="M-19107.7-589.7h-55.9v11.2h1.9c0,0.1,0,0.2,0,0.3v8.1c0,5.8,2.4,11.3,6.6,15.2l7.4,6.9
		c0.6,0.6,0.9,1.3,0.9,2.2v3.3c0,0.8-0.3,1.6-0.9,2.2l-7.4,6.9c-4.2,3.9-6.6,9.4-6.6,15.2v8h-1.9v11.2h55.9v-11.2h-1.9v-8
		c0-5.8-2.4-11.3-6.6-15.2l-7.4-6.9c-0.6-0.6-0.9-1.3-0.9-2.2v-3.3c0-0.8,0.3-1.6,0.9-2.2l7.4-6.9c4.2-3.9,6.6-9.4,6.6-15.2v-8.1
		c0-0.1,0-0.2,0-0.3h1.9L-19107.7-589.7L-19107.7-589.7z M-19129.1-545.8v3.3c0,2.1,0.9,4.1,2.4,5.6l7.4,6.9
		c3.3,3.1,5.1,7.3,5.1,11.8v8h-7.2l-11.5-11.5c-1.5-1.5-4.1-1.5-5.6,0l-11.5,11.5h-7.2v-8c0-4.5,1.8-8.7,5.1-11.8l7.4-6.9
		c1.5-1.4,2.4-3.5,2.4-5.6v-3.3c0-2.1-0.9-4.1-2.4-5.6l-7.4-6.9c-3.3-3.1-5.1-7.3-5.1-11.8v-8.1c0-0.1,0-0.2,0-0.3h42.8
		c0,0.1,0,0.2,0,0.3v8.1c0,4.5-1.8,8.7-5.1,11.8l-7.4,6.9C-19128.2-549.9-19129.1-547.9-19129.1-545.8z"/>
	<path id="パス_16220" class="st2" d="M-19519.7-568.1c-4.5,0-8.2-3.7-8.2-8.2s3.7-8.2,8.2-8.2s8.2,3.7,8.2,8.2
		C-19511.5-571.7-19515.2-568.1-19519.7-568.1C-19519.7-568.1-19519.7-568.1-19519.7-568.1z"/>
	<path id="パス_16221" class="st2" d="M-19551-544.4l5.5-8.2c1.3-1.9,3.1-3.5,5.1-4.7l10.7-6c2-0.9,3.4-1.5,5.3-1.2l5.1,0.7
		c1.9,0.3,3.6,1.2,4.9,2.7l9.7,10.4l8.9,3.3c1.7,0.6,2.6,2.5,2.1,4.2l0,0.1c-0.5,1.7-2.3,2.7-4,2.3l-7.3-1.7
		c-1.8-0.4-3.5-1.2-5.1-2.2l-5.1-3.4l-1.8,13.6c-0.1,1,0.1,2,0.6,2.9l15.1,26.3c1.1,1.9,0.4,4.3-1.4,5.4l-0.1,0.1
		c-1.8,1-4,0.5-5.2-1.1l-16.9-24.2l-5.1,10.2c-0.4,0.8-0.9,1.4-1.5,2l-11.4,11.1c-1.4,1.4-3.7,1.5-5.2,0.1l-0.2-0.2
		c-1.6-1.4-1.8-3.8-0.4-5.4c0,0,0,0,0,0l9.6-10.7l5.2-18.9l0,0l1.5-14.8l-5.3,2.4l-8.5,8.9c-1.1,1.1-2.8,1.3-4.1,0.4l-0.1-0.1
		C-19551.6-541.1-19552-543-19551-544.4z"/>
	<path id="パス_16222" class="st2" d="M-19474-571.1l17.4-11.9h-44.4v-6.8h53.2v88.2h-8.8l-17.4,11.9v-11.9h-21.2v-6.8h21.2
		V-571.1z"/>
	<path id="パス_36415" class="st4" d="M-19416.7-625.6l-163.9,163"/>
	<path id="パス_36416" class="st4" d="M-19054.4-625.6l-163.9,163"/>
	<path id="パス_36426" class="st3" d="M-19398.7-523.8h139.9"/>
</g>
</svg>
