<?xml version="1.0" encoding="utf-8"?>
<!-- Generator: Adobe Illustrator 26.4.1, SVG Export Plug-In . SVG Version: 6.00 Build 0)  -->
<svg version="1.1" id="レイヤー_1" xmlns="http://www.w3.org/2000/svg" xmlns:xlink="http://www.w3.org/1999/xlink" x="0px"
	 y="0px" viewBox="0 0 622 1136" style="enable-background:new 0 0 622 1136;" xml:space="preserve">
<style type="text/css">
	.st0{fill:#FFFFFF;}
	.st1{fill:#FFF100;}
	.st2{fill:#064B9E;}
	.st3{fill:none;stroke:#064B9E;stroke-width:3;stroke-linecap:round;}
	.st4{opacity:0.502;fill:none;stroke:#FFF100;stroke-width:12;enable-background:new    ;}
</style>
<g id="opt_sp" transform="translate(18580.5 -59.846)">
	<g id="パス_36433" transform="translate(-18560 91.976)">
		<path class="st0" d="M581.5,983H20c-4,0-7.8-1.6-10.6-4.4C6.5,975.8,5,972,5,968V20c0-4,1.6-7.8,4.4-10.6C12.2,6.6,16,5,20,5
			h561.5c4,0,7.8,1.6,10.6,4.4c2.8,2.8,4.4,6.6,4.4,10.6v948c0,4-1.6,7.8-4.4,10.6C589.3,981.5,585.5,983,581.5,983z"/>
		<path class="st1" d="M20,10c-5.5,0-10,4.5-10,10v948c0,5.5,4.5,10,10,10h561.5c5.5,0,10-4.5,10-10V20c0-5.5-4.5-10-10-10H20 M20,0
			h561.5c11,0,20,9,20,20v948c0,11-8.9,20-20,20H20c-11,0-20-9-20-20V20C0,9,8.9,0,20,0z"/>
	</g>
	<path id="パス_16219" class="st1" d="M-18580.5,59.8h502.1l-33.6,84.6h-468.5V59.8z"/>
	<path id="パス_36434" class="st2" d="M-18554,72.5h12.2l3.1,22.8l2,15.8h0.3c0.8-4.5,1.7-9.7,2.9-15.8l5.1-22.8h10.1l5.2,22.8
		c0.4,2,1,5,1.7,9l1.2,6.8h0.3l1.9-15.8l3.3-22.8h11.3l-8.6,49.9h-15.1l-4.5-21.7c-0.8-3.8-1.4-7.7-1.9-11.6h-0.3l-0.8,4.6
		c-0.1,0.8-0.3,1.9-0.5,3.3c-0.2,1.4-0.4,2.7-0.7,3.7l-4.4,21.7h-14.8L-18554,72.5z M-18486.6,122.5V72.5h31.6v10h-19.6v9.2h16.7
		v10.1h-16.7v10.6h20.4v10.1H-18486.6z M-18427.1,72.5c12.4,0,18.5,4.1,18.5,12.4c0,2.3-0.6,4.5-1.8,6.5c-1,1.9-2.7,3.4-4.7,4.3V96
		c2.5,0.6,4.8,2,6.4,4c1.7,2.2,2.5,4.9,2.4,7.7c0,4.9-1.8,8.5-5.4,11c-3.6,2.5-8.3,3.7-14.1,3.7h-18.8V72.5H-18427.1z
		 M-18427.5,92.4c2,0.1,3.9-0.4,5.5-1.5c1.2-1,1.9-2.6,1.8-4.2c0.1-1.5-0.6-2.9-1.8-3.8c-1.2-0.8-3-1.2-5.6-1.2h-5v10.7H-18427.5z
		 M-18426.5,113.3c5.8,0,8.7-2.1,8.7-6.4c0.1-1.7-0.7-3.4-2.1-4.4c-1.4-0.9-3.6-1.4-6.6-1.4h-6v12.1L-18426.5,113.3z M-18352,78.3
		l-2.5,4.2h12.9v36.2c0.1,1.8-0.2,3.7-0.8,5.4c-0.6,1.3-1.6,2.4-2.9,3.1c-1.5,0.7-3.1,1.2-4.8,1.3c-2.4,0.3-4.7,0.4-7.1,0.3
		c-0.4-2.3-1.1-4.5-1.9-6.6h-15.8v3.4h-8.6v-21.4h27v15.5c1.2,0,2.6,0.1,4.1,0.1c0.4,0,0.8-0.1,1.1-0.3c0.2-0.3,0.4-0.6,0.3-1v-18.2
		c-0.6,0.7-1.3,1.1-2.1,1.4c-1,0.3-2.1,0.4-3.1,0.4h-4.6c-1.7,0.1-3.4-0.2-5-0.8c-1.1-0.5-1.9-1.4-2.3-2.5c-0.5-1.6-0.7-3.3-0.6-5
		v-3h-3.9c-0.1,2.2-0.6,4.4-1.4,6.5c-0.8,1.8-2.2,3.4-3.9,4.5c-2.4,1.4-5.1,2.4-7.9,2.9c-0.3-0.9-0.7-1.7-1.1-2.5
		c-0.5-0.9-1.1-1.7-1.7-2.5v29h-9.2V82.5h11.3c-0.4-1.3-1-2.7-1.6-4.2h-11.6v-8.8h24.3v-4.4h10v4.4h25v8.8L-18352,78.3z
		 M-18365.3,82.5c0.7-1.4,1.4-2.8,1.9-4.2h-14.5c0.6,1.4,1.2,2.8,1.7,4.2H-18365.3z M-18388.8,97.7c1.6-0.2,3.1-0.7,4.6-1.4
		c0.9-0.5,1.7-1.2,2.2-2.2c0.5-1,0.7-2.1,0.8-3.3h-7.6V97.7z M-18350.9,90.8h-9.5v2.9c0,0.5,0,1,0.2,1.4c0.1,0.2,0.4,0.3,0.9,0.3
		h2.1c0.4,0,0.8-0.2,1-0.6c0.3-0.9,0.4-1.8,0.4-2.7c1.5,1,3.2,1.7,5,2.1L-18350.9,90.8z M-18365.2,115.3v-4h-9.7v4H-18365.2z
		 M-18278.1,97.1c-3.9-3.3-8.1-6.3-12.5-9c-2.9,4.2-7.6,7.3-14.1,9.6c-0.6-1.4-1.4-2.8-2.3-4.1c-0.9-1.3-1.9-2.5-3-3.6
		c4.5-1.4,7.8-3.2,9.9-5.3c2.1-2,3.5-4.6,4.1-7.5c0.7-4,1.1-8,1.2-12h9.5c-0.1,5-0.6,9.9-1.7,14.8c5.3,2.9,10.5,6.2,15.3,9.8
		L-18278.1,97.1z M-18311.4,67.1v7.2h-20.2v-7.2H-18311.4z M-18285.5,79.5c0.9-1.8,1.7-3.6,2.4-5.5c0.7-1.9,1.4-3.7,1.9-5.7l9.4,2.8
		l-1.3,2.3c-2.4,4.2-4.1,7.1-5.2,8.6L-18285.5,79.5z M-18309.1,83.9h-26v-7.6h26v3.1c1.1-1.4,2-3,2.7-4.7c0.8-1.9,1.3-3.9,1.7-5.9
		l7.9,1.5c-0.4,2.4-1,4.8-1.9,7c-0.8,2.1-1.9,4-3.3,5.7l-7.2-2.9V83.9z M-18311.3,85.9v7.2h-20.6v-7.2H-18311.3z M-18284.3,109.9
		c1.1,2.3,2.7,4.3,4.7,6c2.5,2.1,5.4,3.7,8.5,4.8c-0.9,1.1-1.9,2.5-3,4.1c-1.1,1.6-2,3-2.6,4.2c-2.3-0.8-4.5-2.1-6.4-3.7
		c-1.8-1.5-3.4-3.2-4.8-5.1c-1.1-1.5-2-3.2-2.6-5c-0.7,1.8-1.7,3.4-2.9,4.9c-1.5,1.9-3.3,3.6-5.3,5c-2.1,1.6-4.4,2.9-6.8,3.8
		c-0.7-1.5-1.5-2.9-2.4-4.2c-0.9-1.3-1.8-2.6-2.9-3.8c3.2-1.1,6.2-2.7,8.8-4.8c2.1-1.6,3.8-3.7,5-6c1-1.8,1.5-3.7,1.5-5.8V93.9h10
		v10.5c0,1.1,0.2,2.3,0.5,3.4c1.7-3.3,3-6.7,4.1-10.2l9.6,2.9c-3.2,5.6-5.5,9.5-6.9,11.5L-18284.3,109.9z M-18331.9,102.3v-7.2h20.6
		v7.2H-18331.9z M-18297,99.8c-0.4,2.7-1.2,5.3-2.2,7.9c-0.9,2.3-2.2,4.4-3.8,6.3l-8-4c1.4-1.5,2.6-3.2,3.4-5.1
		c1-2.2,1.7-4.4,2.2-6.8L-18297,99.8z M-18311.2,104.6v20.8h-12.8v2.4h-8.1v-23.2H-18311.2z M-18319.4,112.1h-4.6v5.7h4.6V112.1z
		 M-18242.7,100.8v6.5c-2.5,0.1-4.6,0.3-6.4,0.5c-1.8,0.2-3.6,0.6-5.3,1.1c-1.6,0.5-3.1,1.2-4.4,2.2c-1.2,0.9-1.8,2.2-1.9,3.6
		c-0.1,1.2,0.4,2.3,1.4,3.1c0.9,0.7,2,1.1,3.2,1.2c1.3,0.2,2.7,0.2,4,0.2c1.7,0,3.2-0.1,4.6-0.2s2.6-0.3,3.4-0.4l1.3-0.2v6.4
		c-3.1,0.4-6.2,0.6-9.3,0.5c-2.4,0-4.8-0.3-7.2-0.8c-2.2-0.5-4.1-1.5-5.7-3.1c-1.6-1.5-2.3-3.9-2.1-6.9c0.1-1.5,0.5-3,1.1-4.3
		c0.6-1.2,1.4-2.2,2.3-3c0.9-0.8,1.9-1.5,2.9-2.2l-1.8-11.8h5.6l1.5,9.6c2-0.7,4-1.2,6.1-1.6
		C-18247.2,101.2-18245,101-18242.7,100.8z M-18242.7,100.8v6.5c-2.5,0.1-4.6,0.3-6.4,0.5c-1.8,0.2-3.6,0.6-5.3,1.1
		c-1.6,0.5-3.1,1.2-4.4,2.2c-1.2,0.9-1.8,2.2-1.9,3.6c-0.1,1.2,0.4,2.3,1.4,3.1c0.9,0.7,2,1.1,3.2,1.2c1.3,0.2,2.7,0.2,4,0.2
		c1.7,0,3.2-0.1,4.6-0.2s2.6-0.3,3.4-0.4l1.3-0.2v6.4c-3.1,0.4-6.2,0.6-9.3,0.5c-2.4,0-4.8-0.3-7.2-0.8c-2.2-0.5-4.1-1.5-5.7-3.1
		c-1.6-1.5-2.3-3.9-2.1-6.9c0.1-1.5,0.5-3,1.1-4.3c0.6-1.2,1.4-2.2,2.3-3c0.9-0.8,1.9-1.5,2.9-2.2l-1.8-11.8h5.6l1.5,9.6
		c2-0.7,4-1.2,6.1-1.6C-18247.2,101.2-18245,101-18242.7,100.8z M-18235.8,93.6h5.5c-0.2,1.9-0.4,3.6-0.6,5.1
		c-0.2,1.5-0.3,3.1-0.4,4.9c-0.1,1.7-0.2,3.4-0.2,5.1c0,1.9,0.1,3.9,0.2,5.8s0.3,3.7,0.5,5.3c0.2,1.6,0.4,3.4,0.7,5.4h-5.7
		c-0.5-3.3-0.8-6.1-1-8.6c-0.2-2.5-0.3-5-0.3-7.7c0-2.5,0.1-4.9,0.3-7.2C-18236.5,99.4-18236.2,96.7-18235.8,93.6z M-18229,104.6
		v-6.2h8.4v-5.2l5.4,0v5.2h4.4v6.2h-4.4v6.4c1.6,0.6,3.1,1.3,4.6,2v6.2c-1-0.7-1.8-1.2-2.5-1.6c-0.7-0.4-1.4-0.8-2.1-1v2.5
		c0.1,1.5-0.2,3-1,4.3c-0.6,0.9-1.5,1.6-2.5,2c-1,0.3-2,0.5-3,0.5c-1.3,0.1-2.5-0.1-3.7-0.6c-1.2-0.5-2.2-1.3-2.9-2.3
		c-0.8-1.4-1.2-3-1.1-4.6c-0.1-2.3,0.7-4.5,2.3-6.1c1.5-1.5,3.7-2.1,6.5-1.9v-5.7H-18229z M-18221.7,120.4c0.4,0,0.7-0.2,0.8-0.5
		c0.2-0.4,0.3-0.9,0.2-1.3v-3.1c-1-0.3-2-0.1-2.9,0.4c-0.7,0.5-1.1,1.3-1.1,2.1c-0.1,0.7,0.2,1.4,0.7,1.9
		C-18223.2,120.4-18222.4,120.5-18221.7,120.4z M-18196.6,104.4c-0.1-0.7-0.2-1.3-0.1-2c0-2.1,0.5-4.1,1.5-5.9
		c1.3-2,2.7-3.9,4.3-5.7c1.1-1.2,2-2.4,2.9-3.7c0.6-0.8,0.9-1.8,0.9-2.8c0.1-1.3-0.4-2.5-1.3-3.4c-1-0.8-2.2-1.2-3.5-1.1
		c-1.2,0-2.4,0.3-3.5,0.9c-1.2,0.7-2.3,1.6-3.3,2.6l-6.6-6c1.9-2.1,4.1-3.9,6.7-5.2c2.5-1.3,5.3-1.9,8.1-1.9c4.5,0,8,1.1,10.7,3.3
		c2.7,2.2,4.1,5.5,4,10c0.1,1.8-0.4,3.7-1.3,5.3c-1.2,1.9-2.6,3.6-4.2,5.3c-1.2,1.3-2.2,2.5-2.9,3.4c-0.7,1-1.3,2-1.7,3.1
		c-0.4,1.2-0.6,2.6-0.4,3.9L-18196.6,104.4z M-18191.4,123.4c-1.9,0.1-3.8-0.7-5.1-2.1c-1.3-1.4-2.1-3.3-2-5.3c-0.1-2,0.7-3.8,2-5.3
		c1.3-1.4,3.2-2.2,5.1-2.1c1.9-0.1,3.8,0.7,5.1,2.1c1.3,1.4,2.1,3.3,2,5.3c0.1,2-0.7,3.9-2,5.3
		C-18187.7,122.6-18189.5,123.4-18191.4,123.4z"/>
	<path id="パス_36435" class="st2" d="M-18508.1,165.3h387.8v75h-387.8V165.3z"/>
	<path id="パス_36437" class="st2" d="M-18508.1,249.3h387.8v75h-387.8V249.3z"/>
	<path id="パス_36436" class="st1" d="M-18459.3,186.6v7h-8.9v-15.2h21.2v-5.4h9.4v5.4h21.5v15.2h-9.4v-7H-18459.3z
		 M-18427.2,197.5h-30.3v-7.9h30.3V197.5z M-18424,221.2c0.5,0,1-0.1,1.3-0.5c0.4-0.6,0.6-1.2,0.7-1.9c0.1-0.9,0.2-2.4,0.3-4.5
		c1.1,0.8,2.3,1.4,3.5,1.8c1.4,0.6,2.8,1.1,4.3,1.5c-0.2,2.4-0.7,4.8-1.5,7c-0.5,1.4-1.5,2.7-2.8,3.5c-1.6,0.7-3.3,1.1-5,1h-6.8
		c-2,0.1-4.1-0.2-6-0.9c-1.3-0.6-2.4-1.7-2.9-3.1c-0.6-1.9-0.9-4-0.8-6v-10.5h-6.3c-0.3,3.3-1.1,6.5-2.4,9.5
		c-1.3,2.8-3.4,5.2-5.9,6.9c-3.6,2.4-7.5,4.1-11.7,5c-0.6-1.4-1.3-2.8-2.1-4.1c-0.8-1.4-1.8-2.6-2.9-3.7c3.3-0.6,6.5-1.6,9.4-3.2
		c1.9-1,3.4-2.5,4.5-4.3c0.9-1.9,1.5-4,1.6-6.2h-13.6v-8.2h54v8.2h-15.8V219c-0.1,0.7,0.1,1.3,0.4,1.9c0.5,0.3,1.2,0.5,1.8,0.4
		H-18424z M-18374.7,220.8h21.5v7.7h-51.3v-7.7h20.6v-5.8h-15.8v-7.5h15.8V202h-12.6v-4.9c-2.1,1.4-4.3,2.7-6.4,3.8
		c-0.8-1.3-1.6-2.5-2.5-3.7c-0.9-1.2-1.9-2.4-3-3.4c5.1-2.5,9.9-5.7,14.1-9.6c3.9-3.4,7.3-7.3,10.1-11.6h9.1
		c3.2,4.7,7.1,8.8,11.5,12.4c4.2,3.4,8.9,6.2,14,8.2c-2.2,2.4-4.1,5-5.8,7.9c-2.1-1.2-4.2-2.4-6.3-3.8v4.8h-13v5.6h16v7.5h-16V220.8
		z M-18365.7,194.4c-2.8-2-5.4-4.2-7.8-6.6c-2.1-2.1-4.1-4.3-5.9-6.7c-3.8,5.1-8.3,9.5-13.4,13.3H-18365.7z M-18287.8,198.6
		c-1.2,3-2.6,5.9-4.2,8.7c-1.5,2.7-3.1,5.2-4.9,7.7l-7.5-4.3c1.3-2,2.5-4,3.5-6.2h-10.3v16.4c0.1,1.7-0.2,3.5-0.9,5.1
		c-0.7,1.3-1.9,2.2-3.3,2.6c-1.6,0.6-3.3,1-5,1.1c-1.9,0.2-4.4,0.2-7.4,0.2c-0.3-1.4-0.7-2.9-1.3-4.2c-0.5-1.4-1.2-2.8-1.9-4.2
		c2.2,0.1,5.2,0.2,9.1,0.2c0.4,0,0.8-0.1,1.2-0.3c0.3-0.2,0.4-0.5,0.3-0.9v-16.1h-23.3v-8.3h24.6c-3.6-1.4-7-2.6-10.3-3.7l4.3-6.6
		c2.1,0.6,5,1.5,8.5,2.7c1.9-1.3,3.8-2.7,5.6-4.2h-26.9v-8h35.3l2-0.5l6.2,5c-4,4-8.3,7.6-12.9,10.9c1.1,0.4,2.5,0.9,4.3,1.6
		l-1.7,2.8h8l1.5-0.6L-18287.8,198.6z M-18225.9,182.7c0,1.9,0,3.2-0.1,3.9c-0.3,9.2-0.6,16.4-0.9,21.5c-0.2,3.9-0.6,7.9-1.2,11.8
		c-0.5,2.8-1.1,4.7-2,5.8c-0.7,1.1-1.7,2-2.8,2.7c-1.1,0.6-2.3,1-3.6,1.2c-1.9,0.3-3.9,0.4-5.8,0.4c-1.6,0-2.8,0-3.7-0.1
		c-0.1-1.5-0.4-3-0.9-4.4c-0.5-1.5-1.1-3-2-4.3c2.4,0.2,5.3,0.3,8.6,0.3c0.5,0,1-0.1,1.5-0.2c0.4-0.2,0.8-0.5,1.1-0.8
		c0.8-0.9,1.5-3.5,1.9-8c0.4-4.4,0.8-11.5,1.1-21.3h-14.9c-1.4,2.6-3,5.1-4.9,7.4c-1.8-1.5-3.6-2.9-5.6-4.1c1,2,1.9,3.9,2.7,5.9
		c0.7,1.6,1.2,3.3,1.6,5.1l-6.5,3c-0.2-1-0.4-2-0.7-3l-2.3,0.2v4.6l5.3-1.7c0.8,1.8,1.5,3.8,2.2,5.9s1.2,3.9,1.6,5.4l-6.7,2.5
		c-0.6-2.9-1.4-5.9-2.4-8.7v16.6h-7.7v-18.6c-0.3,2.7-0.7,5.3-1.3,7.9c-0.5,2.2-1.1,4.4-1.9,6.5c-1-0.6-2-1.2-3.1-1.7
		c-1.3-0.6-2.5-1.1-3.4-1.5c1.4-3.1,2.3-7.7,2.8-13.9l7,1.3v-4l-8.5,0.6l-0.7-7.5l4.7-0.2c0.5-0.6,0.9-1.1,1.3-1.7l0.8-1.1
		c-2-2.9-4.3-5.6-6.8-8l4-6.1l1.2,1c1.6-3.3,2.9-6.6,3.9-10.1l7.7,2.6l-0.8,1.4c-2.7,5-4.7,8.7-6.1,10.9l1.3,1.6
		c1.8-3,3.5-6.1,5-9.2l7.3,3c-3.1,4.7-5.8,8.6-8,11.6l5-2.2c2.3-2.6,4.2-5.5,5.7-8.7c1.7-3.5,2.9-7.3,3.8-11.1l9.1,2
		c-0.7,2.7-1.6,5.3-2.6,7.9H-18225.9z M-18265.4,198.4c-0.6-1.3-1.1-2.4-1.5-3.2c-1.3,1.7-2.2,2.8-2.6,3.4L-18265.4,198.4z
		 M-18247.4,214.6c-0.7-2.3-1.6-4.5-2.7-6.6c-1.3-2.5-2.7-4.9-4.2-7.2l7-3.5c1.7,2.2,3.2,4.6,4.6,7c1.2,2,2.2,4.2,2.9,6.4
		L-18247.4,214.6z M-18197,191.8h12.3v7.9h-12.3v3.3h11.3v14.8c0,1.4-0.1,2.8-0.5,4.1c-0.3,1-1,1.8-1.9,2.4
		c-0.9,0.6-1.9,0.9-2.9,1.1c-1.4,0.2-2.7,0.2-4.1,0.2c-0.1-1.2-0.3-2.4-0.7-3.5c-0.3-1.2-0.8-2.5-1.3-3.7v11.5h-8.3v-19.1h-3.3v14.4
		h-7.7V203h11v-3.3h-13.1v-7.9h4.7c-2-0.9-4-1.7-6.1-2.5c1.3-2.2,2.3-4.5,3.1-7c0.9-2.8,1.7-5.7,2.1-8.6l8,1.6
		c-0.5,2.2-0.9,3.9-1.2,5h2.5v-7.1h8.3v7.1h10v7.9h-10V191.8z M-18163.7,220.1c0.1,1.8-0.2,3.5-0.7,5.2c-0.5,1.2-1.3,2.3-2.5,2.9
		c-1.3,0.7-2.8,1.1-4.3,1.3c-2.1,0.3-4.3,0.4-6.5,0.4c-0.2-1.4-0.6-2.9-1-4.3c-0.4-1.5-1-3-1.6-4.4c1.9,0.1,4.2,0.1,6.9,0.1
		c0.4,0,0.7-0.1,1-0.3c0.2-0.3,0.3-0.6,0.3-1v-45.9h8.3V220.1z M-18174.8,177.6v34.3h-8.1v-34.3H-18174.8z M-18205.2,191.8v-3.5h-5
		c-0.4,1-0.9,2.2-1.5,3.5H-18205.2z M-18197,218.2c0.8,0,1.7,0.1,2.9,0.1c0.2,0,0.4,0,0.5-0.1c0.1-0.1,0.1-0.3,0.1-0.5v-6.8h-3.5
		V218.2z"/>
	<path id="パス_36438" class="st1" d="M-18459.3,270.4v7h-8.9v-15.2h21.2v-5.4h9.4v5.4h21.5v15.2h-9.4v-7H-18459.3z
		 M-18427.2,281.3h-30.3v-7.9h30.3V281.3z M-18424,305c0.5,0,1-0.1,1.3-0.5c0.4-0.6,0.6-1.2,0.7-1.9c0.1-0.9,0.2-2.4,0.3-4.5
		c1.1,0.8,2.3,1.4,3.5,1.8c1.4,0.6,2.8,1.1,4.3,1.5c-0.2,2.4-0.7,4.8-1.5,7c-0.5,1.4-1.5,2.7-2.8,3.5c-1.6,0.7-3.3,1.1-5,1h-6.8
		c-2,0.1-4.1-0.2-6-0.9c-1.3-0.6-2.4-1.7-2.9-3.1c-0.6-1.9-0.9-4-0.8-6v-10.5h-6.3c-0.3,3.3-1.1,6.5-2.4,9.5
		c-1.3,2.8-3.4,5.2-5.9,6.9c-3.6,2.4-7.5,4.1-11.7,5c-0.6-1.4-1.3-2.8-2.1-4.1c-0.8-1.4-1.8-2.6-2.9-3.7c3.3-0.6,6.5-1.6,9.4-3.2
		c1.9-1,3.4-2.5,4.5-4.3c0.9-1.9,1.5-4,1.6-6.2h-13.6v-8.2h54v8.2h-15.8v10.4c-0.1,0.7,0.1,1.3,0.4,1.9c0.5,0.3,1.2,0.5,1.8,0.4
		H-18424z M-18374.7,304.6h21.5v7.7h-51.3v-7.7h20.6v-5.8h-15.8v-7.5h15.8v-5.6h-12.6v-4.9c-2.1,1.4-4.3,2.7-6.4,3.8
		c-0.8-1.3-1.6-2.5-2.5-3.7c-0.9-1.2-1.9-2.4-3-3.4c5.1-2.5,9.9-5.7,14.1-9.6c3.9-3.4,7.3-7.3,10.1-11.6h9.1
		c3.2,4.7,7.1,8.8,11.5,12.4c4.2,3.4,8.9,6.2,14,8.2c-2.2,2.4-4.1,5-5.8,7.9c-2.1-1.2-4.2-2.4-6.3-3.8v4.8h-13v5.6h16v7.5h-16V304.6
		z M-18365.7,278.2c-2.8-2-5.4-4.2-7.8-6.6c-2.1-2.1-4.1-4.3-5.9-6.7c-3.8,5.1-8.3,9.5-13.4,13.3H-18365.7z M-18321.9,297.7
		c-2.9,7.4-8.4,13.4-15.6,16.7c-0.9-1.2-1.8-2.3-2.8-3.3c-1.1-1.1-2.3-2.2-3.5-3.2c4.5-1.7,8.4-4.8,11.2-8.7l-6.6,1
		c-0.9,0.1-1.7,0.2-2.4,0.3s-1.3,0.2-1.8,0.3l-1.6-8.6c3.2-0.3,8.6-0.8,16.3-1.6c0.3-1.5,0.5-3,0.6-4.6h-13.5v-7.9h13.5v-6h-14.1
		v-8.1h14.1V257h8.6v28.1c0,1.5-0.1,3-0.3,4.4l3.8-0.5l0.3,7.7L-18321.9,297.7z M-18287.9,292.1v8.1h-16.8v13.4h-8.8V257h8.8v7.1
		h15.7v8.1h-15.7v6h14.3v7.9h-14.3v6.1H-18287.9z M-18225,277.8h-6v25.3c0.1,1.9-0.2,3.8-0.7,5.6c-0.5,1.3-1.4,2.4-2.6,3.1
		c-1.4,0.8-3,1.3-4.6,1.5c-2.3,0.3-4.5,0.4-6.8,0.4c-0.2-1.6-0.5-3.1-1-4.6c-0.5-1.6-1-3.2-1.7-4.8c2.1,0.1,4.5,0.2,7.4,0.2
		c0.4,0,0.8-0.1,1.1-0.3c0.2-0.3,0.3-0.7,0.3-1.1v-25.3h-14.3v-4.2h-26.9v-8h10v-8.8h8.3v8.8h10.6v3.9h12.2v-12.8h8.6v12.8h6V277.8z
		 M-18256,275.9c-1,5.7-2.5,11.4-4.7,16.8c2.3,3,4.2,6.1,5.9,9.4l-7,5.9c-1-2.3-2.2-4.5-3.5-6.6c-3,4.7-6.9,8.7-11.5,11.8
		c-0.8-1.2-1.7-2.4-2.7-3.5c-1-1.2-2-2.3-3.1-3.3c5.1-3,9.3-7.4,12.1-12.6c-3.2-4.3-6.4-8.2-9.6-11.8l6.1-5c2.4,2.6,4.8,5.3,7.1,8
		c1-3.4,1.8-6.9,2.3-10.4L-18256,275.9z M-18248.3,281.7c1.5,2.1,2.8,4.3,4.1,6.5c1.1,1.9,1.9,3.9,2.5,6l-7.5,3.8
		c-0.6-2.1-1.3-4.2-2.3-6.2c-1.1-2.3-2.3-4.5-3.7-6.7L-18248.3,281.7z M-18162.8,268h-23.5l-1.3,4.2h22.2v41.5h-8.9v-3h-32.6v3h-8.4
		v-41.5h18.4l0.6-4.2h-21.3v-8.2h54.8V268z M-18206.9,280.2v22.5h4.7v-22.5H-18206.9z M-18187.1,283v-2.8h-7.3v2.8H-18187.1z
		 M-18174.3,302.7v-22.5h-5v22.5H-18174.3z M-18187.1,292.9v-3.2h-7.3v3.2H-18187.1z M-18194.4,299.6v3.1h7.3v-3.1H-18194.4z"/>
	<path id="パス_36453" class="st2" d="M-18099,286.2h30.2v7c-2.8,0.2-5.5,1-7.9,2.4c-2.1,1.2-4,2.7-5.6,4.5
		c-1.3,1.4-2.3,3.1-2.9,4.9c-0.6,1.6-0.5,3.4,0.1,5c0.6,1.2,1.5,2.1,2.7,2.7c1,0.5,2.1,0.8,3.2,0.9c1.2,0.1,2.4,0.1,3.5,0
		c1.1-0.1,2.1-0.1,3-0.3c0.9-0.1,1.3-0.2,1.4-0.2v7.4c-1.5,0.2-3,0.3-4.5,0.3c-1.3,0-2.6,0-4-0.1c-1.5-0.1-3-0.4-4.5-0.9
		c-1.7-0.5-3.3-1.4-4.7-2.5c-1.4-1.2-2.6-2.8-3.2-4.6c-0.8-2.3-1-4.7-0.6-7c0.3-1.8,0.9-3.6,1.8-5.3c0.8-1.4,1.7-2.8,2.8-4
		c0.8-0.9,1.6-1.7,2.6-2.5c0.4-0.3,0.7-0.6,1.1-0.9h-14.5V286.2z M-18077.8,303.5v-7.3h3.5v7.3L-18077.8,303.5z M-18072.3,303.5
		v-7.3h3.5v7.3L-18072.3,303.5z M-18054.8,321.8c-1.3-1.6-2.9-3.4-4.7-5.2c-1.8-1.8-3.5-3.5-5.1-4.9l5.8-5c1.9,1.6,3.6,3.2,5.3,5
		c2,2,3.5,3.7,4.5,5L-18054.8,321.8z"/>
	<path id="パス_36439" class="st2" d="M-18500.9,373.7h9.1c-1.1,0.8-2.1,1.7-3,2.7c-0.8,0.8-1.5,1.6-2,2.6
		c-0.5,0.8-0.8,1.7-0.8,2.7c0,0.6,0.2,1.2,0.5,1.7c0.5,0.6,1.3,1,2.1,1.1c1.7,0.3,3.3,0.5,5,0.4c2.6,0,4.8-0.1,6.6-0.2
		c1.8-0.2,4-0.4,6.6-0.8v7.8c-4.7,0.6-9.5,1-14.2,1c-4.8,0-8.3-0.9-10.6-2.6c-2.3-1.8-3.6-4.6-3.4-7.5c0-1.7,0.4-3.3,1.2-4.8
		C-18503.2,376.3-18502.1,374.9-18500.9,373.7z M-18485.9,366.3h-9l4.1-3.8h-13.6v-7.3h26v5.6L-18485.9,366.3z M-18484.2,373.3v-7.6
		h3.6v7.6H-18484.2z M-18478.5,373.3v-7.6h3.6v7.6H-18478.5z M-18458.5,366.3c0.8,0.8,1.9,2.1,3.3,3.9c1.4,1.8,2.5,3.1,3.3,4.1
		l-3.9,5.6c-0.8-1.7-1.7-3.4-2.6-5.1v18.7h-6.7v-16.7c-1.1,3.1-2.6,6.1-4.5,8.8c-0.4-1.1-0.8-2.2-1.3-3.2c-0.6-1.2-1.2-2.4-1.9-3.4
		c1.6-2,2.9-4.3,4-6.6c1.2-2.6,2.2-5.4,2.9-8.2h-5.6v-6.6h6.4v-9.7h6.7v9.7h5.5v6.6h-5.5V366.3z M-18451.5,350.4h23.1v42.3h-7v-2.4
		h-9.4v2.7h-6.7V350.4z M-18435.3,357h-9.4v4.8h9.4V357z M-18435.3,368h-9.4v4.9h9.4V368z M-18444.8,384.1h9.4v-4.9h-9.4V384.1z
		 M-18383.5,370.8c-2.8-2.4-5.8-4.5-8.9-6.5c-2.1,3-5.4,5.3-10.1,6.9c-0.4-1-1-2-1.7-2.9c-0.6-0.9-1.4-1.8-2.2-2.6
		c2.6-0.7,5.1-2,7.1-3.8c1.5-1.5,2.5-3.3,2.9-5.4c0.5-2.8,0.8-5.7,0.8-8.6h6.8c0,3.6-0.4,7.1-1.2,10.6c3.8,2.1,7.5,4.4,11,7.1
		L-18383.5,370.8z M-18407.4,349.3v5.2h-14.5v-5.2H-18407.4z M-18388.8,358.2c0.6-1.3,1.2-2.6,1.7-3.9c0.5-1.3,1-2.7,1.3-4.1l6.7,2
		l-0.9,1.6c-1.7,3-3,5.1-3.7,6.2L-18388.8,358.2z M-18405.7,361.3h-18.6v-5.4h18.6v2.3c0.8-1,1.5-2.2,1.9-3.4c0.6-1.4,1-2.8,1.2-4.2
		l5.7,1.1c-0.3,1.7-0.7,3.4-1.3,5c-0.6,1.5-1.3,2.9-2.4,4.1l-5.1-2.1L-18405.7,361.3z M-18407.3,362.8v5.2h-14.7v-5.2H-18407.3z
		 M-18388,380c0.8,1.6,2,3.1,3.4,4.3c1.8,1.5,3.9,2.7,6.1,3.4c-0.6,0.8-1.4,1.8-2.1,3c-0.8,1.2-1.4,2.2-1.9,3
		c-1.7-0.6-3.2-1.5-4.6-2.6c-1.3-1.1-2.4-2.3-3.4-3.6c-0.8-1.1-1.4-2.3-1.9-3.6c-0.5,1.3-1.2,2.4-2.1,3.5c-1.1,1.4-2.4,2.6-3.8,3.6
		c-1.5,1.1-3.1,2-4.9,2.7c-0.5-1-1.1-2-1.8-3c-0.6-1-1.3-1.9-2.1-2.7c2.3-0.8,4.4-1.9,6.3-3.5c1.5-1.2,2.7-2.6,3.6-4.3
		c0.7-1.3,1.1-2.7,1.1-4.1v-7.5h7.1v7.5c0,0.8,0.1,1.6,0.3,2.4c1.2-2.3,2.2-4.8,2.9-7.3l6.9,2.1c-2.3,4-3.9,6.8-4.9,8.3L-18388,380z
		 M-18422.1,374.6v-5.2h14.7v5.2H-18422.1z M-18397.1,372.8c-0.3,1.9-0.9,3.8-1.6,5.6c-0.6,1.6-1.6,3.2-2.7,4.5l-5.8-2.8
		c1-1.1,1.9-2.3,2.4-3.6c0.7-1.6,1.2-3.2,1.6-4.8L-18397.1,372.8z M-18407.2,376.2v14.9h-9.2v1.7h-5.8v-16.7H-18407.2z
		 M-18413.1,381.6h-3.3v4.1h3.3V381.6z M-18374.6,373.2V367c1.7-0.2,3.2-0.3,4.6-0.4c0-1.8,0-3.9,0-6.2h6c0,2.3,0,4.2-0.1,5.9h3
		c1.7-0.1,3.4,0.6,4.5,1.9c1.1,1.3,1.7,3.3,1.9,6c0.2,2,0.3,4.1,0.2,6.1c0,1.9-0.2,3.9-0.6,5.8c-0.3,1.6-1,3.1-2,4.3
		c-1,1.1-2.3,1.7-3.8,1.7c-1.1,0-2.2-0.1-3.3-0.3c-0.4-0.1-0.8-0.2-1.2-0.3v-6.2c1.2,0.4,2.4,0.7,3.6,0.7c0.7-0.1,1.1-0.7,1.4-1.9
		c0.3-1.4,0.4-2.9,0.4-4.4c0-1.7-0.1-3.4-0.2-5.1c0-1-0.2-1.6-0.5-1.9c-0.6-0.3-1.3-0.5-1.9-0.5c-0.3,0-0.5,0-0.8,0
		c-0.3,0-0.6,0-0.9,0c-0.3,3.4-0.9,6.8-1.6,10.1c-0.8,3.2-1.7,6.4-2.9,9.4h-6.3c1.4-3,2.5-6.1,3.3-9.2c0.8-3.2,1.3-6.5,1.6-9.9
		c-1.3,0.1-2.3,0.2-3.1,0.3C-18374.2,373.1-18374.6,373.2-18374.6,373.2L-18374.6,373.2z M-18357.4,361.6h5.8
		c2.3,5,3.9,10.3,4.8,15.8h-5.7C-18353.2,371.9-18354.9,366.5-18357.4,361.6L-18357.4,361.6z M-18339.4,367v-6.1l1.2,0
		c0.8,0,1.7,0,2.9-0.1s2.4,0,3.6,0.1c1.2,0.1,2.5,0.1,3.7,0.3c1.2,0.1,2.3,0.3,3.1,0.4c0.8,0.1,1.3,0.2,1.3,0.2v6.3
		c-0.4-0.1-0.9-0.2-1.3-0.3c-0.9-0.2-1.9-0.4-3.2-0.5c-1.2-0.2-2.4-0.3-3.7-0.3c-1.2,0-2.4,0-3.6,0s-2.1,0.1-2.8,0.1
		C-18339,366.9-18339.3,367-18339.4,367L-18339.4,367z M-18337,381.7h-5.4v-12.6h5.7v6.3c0,0,0.3-0.3,0.8-0.7c0.7-0.6,1.6-1,2.4-1.3
		c1.2-0.5,2.5-0.8,3.8-0.9c2.1-0.2,4.1,0.1,6,0.9c1.6,0.7,3,1.9,3.9,3.4c0.9,1.6,1.3,3.3,1.3,5.1c0.2,3.7-1.9,7.2-5.4,8.7
		c-3.6,1.7-9,2.1-16.1,1v-5.9c2.7,0.5,5.4,0.8,8.1,0.8c1.6,0.1,3.2-0.2,4.7-0.6c0.9-0.3,1.7-0.9,2.2-1.7c0.4-0.7,0.6-1.5,0.6-2.2
		c0-0.8-0.2-1.5-0.6-2.2c-0.4-0.7-1.1-1.3-1.8-1.6c-1.1-0.4-2.3-0.5-3.5-0.2c-1.4,0.3-2.8,0.8-4,1.6
		C-18335.1,380.1-18336.1,380.9-18337,381.7L-18337,381.7z M-18307.6,373.7h9.1c-1.1,0.8-2.1,1.7-3,2.7c-0.8,0.8-1.5,1.6-2,2.6
		c-0.5,0.8-0.8,1.7-0.8,2.7c0,0.6,0.2,1.2,0.5,1.7c0.5,0.6,1.3,1,2.1,1.1c1.7,0.3,3.3,0.5,5,0.4c2.6,0,4.8-0.1,6.6-0.2
		c1.8-0.2,4-0.4,6.6-0.8v7.8c-4.7,0.6-9.5,1-14.2,1c-4.8,0-8.3-0.9-10.6-2.6c-2.3-1.8-3.6-4.6-3.4-7.5c0-1.7,0.4-3.3,1.2-4.8
		C-18309.9,376.3-18308.8,374.9-18307.6,373.7L-18307.6,373.7z M-18292.6,366.3h-9l4.1-3.8h-13.6v-7.3h26v5.6L-18292.6,366.3z
		 M-18290.9,373.3v-7.6h3.6v7.6H-18290.9z M-18285.2,373.3v-7.6h3.6v7.6H-18285.2z M-18245.7,355.5c-0.2,2.5-0.6,5-1.2,7.4
		c-0.6,2.1-1.5,4-2.8,5.7c-1.4,1.8-3.2,3.3-5.2,4.4c-0.3-0.7-0.8-1.4-1.2-2.1c-0.5-0.7-1.1-1.4-1.7-2l0,1.6c-5.9,0.7-12.3,1.4-19,2
		l-1.2,0.1l-0.5-5.7c1-0.1,1.9-0.1,2.9-0.2c1-0.1,1.9-0.1,2.8-0.2l2.2-0.2v-3.1h-6.1v-5.1h6.1v-2.1h-7v-5.1h7v-3h6.4v3h6.2v5.1h-6.2
		v2.1h5.6v5.1h-5.6v2.5l6.2-0.6l0,2.4c1.9-1.1,3.4-2.8,4.3-4.8c0.9-2.4,1.4-4.8,1.5-7.3h-4.7v-5.8h21.9l0,2.5
		c-0.2,5.8-0.4,10-0.7,12.6c-0.3,2.6-0.8,4.3-1.4,5.1c-0.4,0.6-1,1.1-1.6,1.5c-0.6,0.3-1.3,0.6-2,0.7c-1.8,0.2-3.6,0.3-5.4,0.3
		c-0.1-1.1-0.3-2.2-0.6-3.2c-0.3-1-0.7-2-1.2-3c1,0.1,2.2,0.1,3.5,0.1c0.3,0,0.6,0,0.9-0.1c0.3-0.1,0.5-0.3,0.6-0.5
		c0.4-0.9,0.7-1.9,0.7-2.8c0.2-1.5,0.3-4,0.5-7.3L-18245.7,355.5z M-18250,381.3c1.7,1.9,3.9,3.3,6.4,4c3.4,1,6.9,1.5,10.5,1.6
		c-0.9,1-1.7,2-2.3,3.1c-0.7,1.1-1.4,2.3-1.9,3.6c-3.8-0.3-7.4-1.2-10.9-2.7c-2.7-1.3-5.1-3.3-6.9-5.7c-3.1,4.4-9.8,7.2-20,8.5
		c-0.5-1-1.1-2-1.8-3c-0.8-1.1-1.5-2.1-2.2-2.9c9.8-1.2,15.8-3.3,17.9-6.5h-16.6v-5.8h17.6v-2.4h7.1v2.4h18.6v5.8H-18250z
		 M-18186.4,355.8c0,1.5,0,2.6,0,3.1c-0.2,7.4-0.5,13.1-0.7,17.2c-0.1,3.2-0.5,6.3-0.9,9.4c-0.2,1.6-0.7,3.2-1.6,4.6
		c-0.6,0.9-1.3,1.6-2.2,2.1c-0.9,0.5-1.9,0.8-2.9,0.9c-1.5,0.2-3.1,0.3-4.7,0.3c-1.3,0-2.3,0-2.9,0c-0.1-1.2-0.4-2.4-0.7-3.6
		c-0.4-1.2-0.9-2.4-1.6-3.5c2,0.2,4.3,0.2,6.9,0.2c0.4,0,0.8-0.1,1.2-0.2c0.3-0.2,0.6-0.4,0.9-0.7c0.7-0.7,1.2-2.8,1.5-6.4
		s0.7-9.2,0.9-17.1h-11.9c-1.1,2.1-2.4,4.1-3.9,6c-1.4-1.2-2.9-2.3-4.5-3.3c0.8,1.6,1.5,3.1,2.1,4.7c0.5,1.3,1,2.7,1.3,4.1l-5.2,2.4
		c-0.2-0.8-0.4-1.6-0.6-2.4l-1.9,0.1v3.7l4.3-1.4c0.6,1.4,1.2,3,1.8,4.7c0.6,1.7,1,3.1,1.3,4.3l-5.4,2c-0.5-2.4-1.1-4.7-1.9-7v13.2
		h-6.1v-14.9c-0.2,2.1-0.6,4.2-1,6.3c-0.4,1.8-0.9,3.5-1.6,5.2c-0.8-0.5-1.6-0.9-2.5-1.3c-1.1-0.5-2-0.9-2.8-1.2
		c1.1-2.5,1.9-6.2,2.2-11.1l5.6,1v-3.2l-6.8,0.5l-0.6-6l3.8-0.1c0.4-0.4,0.7-0.9,1.1-1.4l0.6-0.9c-1.6-2.3-3.4-4.5-5.5-6.4l3.2-4.8
		l1,0.8c1.2-2.6,2.3-5.3,3.1-8.1l6.1,2.1l-0.6,1.2c-2.1,4-3.8,6.9-4.8,8.7l1,1.2c1.5-2.4,2.8-4.9,4-7.4l5.9,2.4
		c-2.5,3.8-4.6,6.9-6.4,9.3l4-1.8c1.9-2.1,3.4-4.4,4.5-6.9c1.3-2.8,2.4-5.8,3-8.9l7.2,1.6c-0.6,2.1-1.3,4.3-2.1,6.3L-18186.4,355.8z
		 M-18218,368.4c-0.4-1.1-0.8-1.9-1.2-2.6c-1,1.3-1.7,2.3-2.1,2.7L-18218,368.4z M-18203.6,381.4c-0.5-1.8-1.3-3.6-2.2-5.3
		c-1-2-2.1-3.9-3.4-5.8l5.6-2.8c1.3,1.8,2.5,3.7,3.6,5.6c1,1.6,1.7,3.3,2.3,5.1L-18203.6,381.4z M-18181.8,376.4v-5.3h10.1v-2.2
		h-10.8v-5.4h10.8v-3.4h5.7v3.4h8.2v5.4h-8.2v2.2h7.6v5.3h-7.6v2.8c1.2,0.5,2.4,1,3.5,1.7c1,0.6,2,1.2,2.9,1.9
		c0.4,0.3,0.8,0.6,1.2,0.9v6.7c0,0-0.4-0.4-1.2-1c-0.8-0.7-1.7-1.4-2.8-2.3c-1.1-0.9-2.3-1.7-3.6-2.4v1.2c0.1,1.6-0.4,3.2-1.3,4.5
		c-0.8,0.9-1.8,1.6-3,1.9c-1.2,0.3-2.3,0.4-3.5,0.4c-1.5,0-2.9-0.3-4.3-0.8c-1.2-0.5-2.3-1.3-3.1-2.3c-0.8-1.1-1.2-2.4-1.2-3.7
		c-0.1-1.6,0.4-3.1,1.4-4.3c1.1-1.1,2.5-1.9,4-2.3c1.7-0.5,3.5-0.7,5.3-0.8v-2.1L-18181.8,376.4z M-18173.8,387.5
		c0.5,0,1-0.1,1.4-0.4c0.4-0.3,0.7-0.8,0.7-1.3v-2.5c-1.3-0.2-2.7-0.1-3.9,0.4c-1,0.5-1.5,1-1.5,1.6c0,0.6,0.2,1.1,0.6,1.5
		C-18175.7,387.4-18174.7,387.6-18173.8,387.5z M-18153.5,361.8h25.6v6c-2.3,0.2-4.6,0.9-6.7,2c-1.8,1-3.4,2.3-4.7,3.8
		c-1.1,1.2-1.9,2.6-2.4,4.2c-0.5,1.4-0.4,2.9,0.1,4.2c0.5,1,1.3,1.8,2.3,2.3c0.8,0.4,1.8,0.7,2.7,0.8c1,0.1,2,0.1,3,0
		c1-0.1,1.8-0.1,2.6-0.2s1.1-0.1,1.1-0.1v6.2c-1.3,0.2-2.5,0.3-3.8,0.3c-1.1,0-2.2,0-3.4-0.1c-1.3-0.1-2.6-0.3-3.8-0.8
		c-1.4-0.4-2.8-1.2-4-2.1c-1.2-1-2.2-2.4-2.7-3.9c-0.7-1.9-0.8-4-0.5-6c0.3-1.6,0.8-3.1,1.5-4.5c0.6-1.2,1.4-2.3,2.3-3.4
		c0.7-0.8,1.4-1.5,2.2-2.1c0.3-0.3,0.6-0.5,1-0.7h-12.3V361.8z M-18135.5,376.4v-6.2h3v6.2H-18135.5z M-18130.9,376.4v-6.2h3v6.2
		H-18130.9z M-18116,392c-1.1-1.4-2.5-2.8-4-4.4c-1.5-1.5-2.9-2.9-4.3-4.2l4.9-4.3c1.6,1.3,3.1,2.7,4.5,4.2c1.7,1.7,3,3.1,3.8,4.3
		L-18116,392z"/>
	<path id="パス_36440" class="st2" d="M-18476,450h17.5v6.3h-41.9V450h16.8v-4.7h-12.9v-6.1h12.9v-4.6h-10.3v-4
		c-1.7,1.1-3.5,2.2-5.2,3.1c-0.6-1-1.3-2-2.1-3c-0.7-1-1.6-1.9-2.4-2.8c4.2-2.1,8.1-4.7,11.5-7.8c3.2-2.8,6-6,8.2-9.5h7.4
		c2.6,3.8,5.8,7.2,9.4,10.1c3.4,2.8,7.3,5,11.4,6.7c-1.8,2-3.4,4.1-4.7,6.4c-1.7-0.9-3.4-2-5.1-3.1v3.9h-10.6v4.6h13.1v6.1h-13.1
		V450z M-18468.6,428.4c-2.3-1.6-4.4-3.4-6.4-5.4c-1.8-1.7-3.4-3.5-4.8-5.4c-3.1,4.1-6.7,7.8-10.9,10.8H-18468.6z M-18452.8,424.8
		h26.2v6.1c-2.4,0.2-4.7,0.9-6.9,2.1c-1.8,1-3.4,2.4-4.8,3.9c-1.1,1.2-2,2.7-2.5,4.3c-0.5,1.4-0.5,3,0.1,4.3c0.5,1,1.3,1.9,2.3,2.4
		c0.9,0.5,1.8,0.7,2.8,0.8c1,0.1,2.1,0.1,3.1,0c1-0.1,1.9-0.1,2.6-0.2c0.8-0.1,1.2-0.1,1.2-0.1v6.4c-1.3,0.2-2.6,0.3-3.9,0.3
		c-1.1,0-2.3,0-3.5-0.1c-1.3-0.1-2.6-0.4-3.9-0.8c-1.5-0.5-2.9-1.2-4.1-2.2c-1.3-1.1-2.2-2.4-2.8-4c-0.7-2-0.9-4.1-0.5-6.1
		c0.3-1.6,0.8-3.2,1.5-4.6c0.7-1.2,1.5-2.4,2.4-3.5c0.7-0.8,1.4-1.5,2.2-2.2c0.3-0.3,0.6-0.5,1-0.8h-12.6V424.8z M-18395.5,457.7
		h-7.6v-21.4c-1.4,3.4-3.4,6.7-5.8,9.5c-1.9,2.3-4,4.4-6.3,6.3c-1.5,1.3-3.2,2.5-4.9,3.5c-1.3,0.7-2,1.1-2,1.1v-8.8
		c0,0,0.5-0.3,1.5-0.9c1.3-0.9,2.6-1.9,3.8-3c1.8-1.7,3.5-3.6,4.9-5.6c1.9-2.7,3.5-5.6,4.7-8.7h-14.9v-7.5h19V416h7.6v6.1h5.6v7.5
		h-5.6L-18395.5,457.7z M-18360.3,426.6h7.8c-1.3,5.2-3.5,10.2-6.6,14.6c-2.3,3.4-5.2,6.3-8.5,8.7c-2.6,1.8-5.4,3.3-8.4,4.3
		c-2.1,0.7-4.3,1.2-6.5,1.5c-0.9,0.1-1.7,0.2-2.6,0.2v-8c0.7,0,1.3,0,2-0.1c1.7-0.2,3.4-0.5,5-1c2.3-0.7,4.5-1.9,6.4-3.4
		c2.4-1.8,4.5-3.9,6.2-6.3C-18363.2,433.9-18361.5,430.4-18360.3,426.6z M-18385.1,426v-7.6h15.3v7.6H-18385.1z M-18324.9,437.1
		h-22.5v-7.3h31.7c0.1,3.8-0.5,7.6-1.8,11.1c-1.1,2.9-2.8,5.6-5.1,7.7c-2,1.9-4.3,3.4-6.8,4.6c-2.1,1-4.3,1.8-6.5,2.3
		c-2.1,0.5-3.7,0.8-5,1c-1.3,0.2-1.9,0.2-2,0.2v-7.9c0.5,0,1.1-0.1,1.6-0.1c1.3-0.2,2.7-0.5,4-0.8c1.7-0.5,3.4-1.1,5-1.9
		c1.7-0.8,3.3-2,4.6-3.4C-18326.4,441-18325.4,439.1-18324.9,437.1z M-18346.1,425.2v-7.3h28.2v7.3H-18346.1z M-18286.3,417.1h8.8
		c-1.4,2.9-3.1,5.5-5,8c-2,2.5-3.8,4.7-5.4,6.6v25.8h-7.7v-19.8c-2.2,1.9-4.7,3.5-7.2,4.9c-1.8,1-3.6,1.8-5.5,2.5
		c-1.4,0.5-2.1,0.7-2.1,0.7v-7.9c0,0,0.9-0.3,2.5-1c2.2-0.9,4.2-2.1,6.2-3.3c2.9-1.8,5.5-4,7.9-6.4
		C-18290.9,424.2-18288.3,420.8-18286.3,417.1z M-18248.7,426.6h7.8c-1.3,5.2-3.5,10.2-6.6,14.6c-2.3,3.4-5.2,6.3-8.5,8.7
		c-2.6,1.8-5.4,3.3-8.4,4.3c-2.1,0.7-4.3,1.2-6.5,1.5c-0.9,0.1-1.7,0.2-2.6,0.2v-8c0.7,0,1.3,0,2-0.1c1.7-0.2,3.4-0.5,5-1
		c2.3-0.7,4.5-1.9,6.4-3.4c2.4-1.8,4.5-3.9,6.2-6.3C-18251.5,433.9-18249.8,430.4-18248.7,426.6L-18248.7,426.6z M-18273.4,426v-7.6
		h15.3v7.6H-18273.4z M-18236.4,424.8h26.2v6.1c-2.4,0.2-4.7,0.9-6.9,2.1c-1.8,1-3.4,2.4-4.8,3.9c-1.1,1.2-2,2.7-2.5,4.3
		c-0.5,1.4-0.5,3,0.1,4.3c0.5,1,1.3,1.9,2.3,2.4c0.9,0.5,1.8,0.7,2.8,0.8c1,0.1,2.1,0.1,3.1,0c1-0.1,1.9-0.1,2.6-0.2
		c0.8-0.1,1.2-0.1,1.2-0.1v6.4c-1.3,0.2-2.6,0.3-3.9,0.3c-1.1,0-2.3,0-3.5-0.1c-1.3-0.1-2.6-0.4-3.9-0.8c-1.5-0.5-2.9-1.2-4.1-2.2
		c-1.3-1.1-2.2-2.4-2.8-4c-0.7-2-0.9-4.1-0.5-6.1c0.3-1.6,0.8-3.2,1.5-4.6c0.7-1.2,1.5-2.4,2.4-3.5c0.7-0.8,1.4-1.5,2.2-2.2
		c0.3-0.3,0.6-0.5,1-0.8h-12.6V424.8z M-18218,439.9v-6.3h3v6.3H-18218z M-18213.3,439.9v-6.3h3v6.3H-18213.3z M-18188.8,413.7
		c-2,2.6-4.2,5-6.6,7.3c-2.3,2.2-4.8,4.3-7.4,6.1c-0.5-0.9-1.1-1.9-1.9-3.1c-0.6-1-1.3-1.9-2-2.8c2.2-1.4,4.3-3.1,6.2-4.9
		c1.8-1.7,3.5-3.5,4.9-5.5L-18188.8,413.7z M-18161.8,413.5v6.8h-23.8v-6.8H-18161.8z M-18187.1,424.2c-1.5,2.6-3.2,5.1-5.1,7.4
		v25.7h-7.1v-17.7l-0.7,0.7c-1.5,1.3-2.3,2-2.4,2.1c-0.5-0.8-1.3-1.9-2.3-3.2c-0.8-1-1.6-2-2.5-3c2.7-1.9,5.2-4.1,7.4-6.6
		c2.3-2.5,4.3-5.2,6-8.1L-18187.1,424.2z M-18160.5,433.9h-6.4v15.5c0.1,1.5-0.2,3-0.7,4.4c-0.5,1.1-1.3,1.9-2.4,2.3
		c-1.2,0.5-2.5,0.9-3.9,1c-1.5,0.1-3.5,0.2-5.9,0.2c-0.2-1.2-0.4-2.5-0.8-3.7c-0.3-1.3-0.8-2.5-1.3-3.7c1.6,0.1,3.8,0.1,6.5,0.1
		c0.3,0,0.6,0,0.9-0.2c0.2-0.2,0.3-0.4,0.2-0.7v-15.3h-13.4v-6.8h27.1V433.9z M-18152.2,429.6v-5.4l1.1-0.1c0.7,0,1.7-0.1,2.9-0.1
		c1.2,0,2.6,0,4.2,0.1c1.5,0.1,3,0.2,4.3,0.3s2.4,0.3,3.2,0.4s1.2,0.2,1.3,0.2v5.5c-0.1,0-0.5-0.1-1.3-0.3s-1.9-0.3-3.2-0.5
		c-1.3-0.1-2.8-0.2-4.4-0.3c-2.4,0-4.3,0-5.9,0L-18152.2,429.6z M-18155.4,437.8v-5.5h20.2v5l-4.4,4.2c0.8,0.2,1.5,0.8,1.7,1.5
		c0.2,0.7,0.2,1.4,0.2,2.1v3.4c0,0.3,0,0.6,0.1,0.9c0.1,0.1,0.3,0.2,0.8,0.2c0.9,0,1.8,0,2.6-0.2c0.9-0.2,1.8-0.4,2.7-0.6
		c0.7-0.2,1.1-0.3,1.1-0.3v6.1c-2.4,0.7-4.9,1.1-7.4,1.1c-1.5,0.1-3-0.3-4.3-1.3c-0.9-0.8-1.3-2.3-1.3-4.3v-3.9c0,0,0-0.1,0-0.3
		c0-0.2-0.1-0.3-0.1-0.5c-0.1-0.1-0.2-0.1-0.4,0l-12,11.3v-8.4l11.8-10.5L-18155.4,437.8z M-18123.3,430.8v-6.2h18.9v5.6l-7.1,5.2
		c2-0.5,4.1-0.4,6,0.4c1.6,0.7,2.9,1.9,3.7,3.5c0.9,1.7,1.4,3.6,1.4,5.5c0.1,2.1-0.5,4.2-1.6,5.9c-1,1.6-2.5,3-4.2,3.8
		c-1.7,0.8-3.6,1.4-5.5,1.6c-1.9,0.2-3.9,0.1-5.7-0.5c-1.4-0.3-2.7-1.1-3.6-2.2c-0.9-1.1-1.3-2.5-1.3-3.9c0-1.1,0.2-2.2,0.7-3.2
		c0.5-1.1,1.4-2,2.5-2.6c1.5-0.6,3.1-0.8,4.7-0.4c1.5,0.2,3,0.9,4.2,2c1.1,1,1.9,2.3,2.5,3.7c0.6-0.5,1-1.2,1.2-2
		c0.2-0.8,0.4-1.6,0.3-2.4c0.1-1.2-0.5-2.4-1.4-3.2c-0.9-0.8-2.5-1.1-4.7-1.1c-1.8,0-3.6,0.4-5.2,1.1c-1.3,0.6-2.6,1.5-3.7,2.4
		l-4.7,3.9v-7.6l12.5-9.4L-18123.3,430.8z M-18115.6,447.3c-0.6-0.1-1.3,0.2-1.6,0.7c-0.3,0.5-0.3,1.1,0,1.7c0.4,0.7,1,1.2,1.8,1.3
		c0.8,0.2,1.6,0.3,2.4,0.2c0.4,0,0.7-0.1,1.1-0.2c-0.1-0.9-0.6-1.8-1.3-2.5C-18113.9,447.9-18114.7,447.5-18115.6,447.3
		L-18115.6,447.3z M-18476.2,486.6h7.8c-1.3,5.2-3.5,10.2-6.6,14.6c-2.3,3.4-5.2,6.3-8.5,8.7c-2.6,1.8-5.4,3.3-8.4,4.3
		c-2.1,0.7-4.3,1.2-6.5,1.5c-0.9,0.1-1.7,0.2-2.6,0.2v-8c0.7,0,1.3,0,2-0.1c1.7-0.2,3.4-0.5,5-1c2.3-0.7,4.5-1.9,6.4-3.4
		c2.4-1.8,4.5-3.9,6.2-6.3C-18479.1,493.9-18477.3,490.4-18476.2,486.6z M-18501,485.5v-7.7h14.3v7.7H-18501z M-18501,497.4v-7.7
		h14.3v7.7H-18501z M-18444.9,486h-17.7v-7.9h28.2c-0.6,3.6-1.7,7.2-3.2,10.5c-1.3,3-2.9,6-4.7,8.8c1.5,1.9,2.9,3.7,4.4,5.3
		c1.2,1.3,2.4,2.6,3.8,3.7c1.1,0.9,1.6,1.3,1.6,1.3v9.4c-1.8-1.3-3.4-2.5-4.8-3.7c-1.6-1.4-3.2-2.8-4.6-4.4
		c-1.7-1.8-3.3-3.7-4.8-5.7c-1.8,2.3-3.9,4.4-6.1,6.4c-1.8,1.6-3.7,3.1-5.8,4.4c-1.4,0.9-2.8,1.7-4.3,2.4c-1.1,0.5-1.6,0.8-1.7,0.8
		v-8.8c2.8-1.4,5.4-3.2,7.7-5.3c2.3-2.2,4.5-4.5,6.4-7.1C-18448.2,493-18446.3,489.6-18444.9,486z M-18413.9,498h-13.8v-7.5h31.9
		v7.5h-10.2c-0.1,3.1-1,6.1-2.5,8.7c-1.3,2.2-3.1,4.1-5.2,5.5c-1.9,1.2-3.9,2.2-6,2.9c-1.5,0.5-3.1,0.9-4.8,1.2
		c-0.6,0.1-1.3,0.2-1.9,0.2v-7.9c0.6,0,1.2-0.1,1.9-0.2c1.5-0.3,2.9-0.7,4.3-1.3c1.7-0.7,3.1-1.8,4.2-3.2
		C-18414.7,502.3-18414,500.2-18413.9,498z M-18426.3,485.4v-7.5h29.2v7.5H-18426.3z M-18381.1,477.5h7.9
		c-1.1,5.5-2.2,10.4-3.4,14.7s-2.2,7.8-3.1,10.5c-0.9,2.7-1.5,4.4-1.8,5.1h15.6c-0.5-2.5-1.2-5.1-2-7.5c-0.9-2.8-2-5.7-3.2-8.7h8
		c1.6,3.9,3,7.9,4.1,12c1.1,3.9,2,7.9,2.7,12h-34.1v-7.3c1.3-3.4,2.5-6.5,3.5-9.4c1-2.9,2-6.1,3.1-9.8
		C-18382.8,485.3-18381.9,481.5-18381.1,477.5z M-18351.6,484.8h26.2v6.1c-2.4,0.2-4.8,0.9-6.9,2.1c-1.8,1-3.4,2.4-4.8,3.9
		c-1.1,1.2-2,2.7-2.5,4.3c-0.5,1.4-0.5,3,0.1,4.3c0.5,1,1.3,1.9,2.3,2.4c0.9,0.5,1.8,0.7,2.8,0.8c1,0.1,2.1,0.1,3.1,0
		c1-0.1,1.9-0.1,2.6-0.2c0.8-0.1,1.2-0.1,1.2-0.1v6.4c-1.3,0.2-2.6,0.3-3.9,0.3c-1.1,0-2.3,0-3.5-0.1c-1.3-0.1-2.6-0.4-3.9-0.8
		c-1.5-0.5-2.9-1.2-4.1-2.2c-1.3-1.1-2.2-2.4-2.8-4c-0.7-2-0.9-4.1-0.5-6.1c0.3-1.6,0.8-3.2,1.5-4.6c0.7-1.2,1.5-2.4,2.4-3.5
		c0.7-0.8,1.4-1.5,2.2-2.2c0.3-0.3,0.6-0.5,1-0.8h-12.6V484.8z M-18333.3,499.9v-6.3h3v6.3H-18333.3z M-18328.5,499.9v-6.3h3v6.3
		H-18328.5z M-18305.6,492.6h-15.4v-5.7h15.4v-4.1h5.7v4.1h6v5.7h-6v7.8c0.6,1.5,1,3.2,1.2,4.8c0.1,2-0.1,4-0.6,5.9
		c-0.5,1.9-1.3,3.7-2.4,5.3h-6.1c0.6-0.9,1.2-1.9,1.6-3c0.4-0.9,0.7-1.9,1-2.8c0.2-0.8,0.3-1.2,0.3-1.3c-0.6,0.8-1.4,1.6-2.3,2.1
		c-0.8,0.5-1.8,0.8-2.8,0.8c-1.4,0.1-2.8-0.3-4-1.1c-1.2-0.8-2.2-1.9-2.8-3.3c-0.7-1.6-1-3.3-1-5.1c0-1.6,0.5-3.2,1.2-4.6
		c0.7-1.3,1.7-2.5,3-3.2c1.4-0.8,3.1-1.2,4.7-1.1c0.7,0,1.3,0.2,2,0.4c0.5,0.1,0.9,0.3,1.3,0.6V492.6z M-18305.2,502.8l0-0.4
		c-0.1-0.4-0.2-0.8-0.3-1.2c-0.2-0.5-0.5-1-0.9-1.4c-0.7-0.6-1.5-0.9-2.4-0.9c-1.1-0.1-2.1,0.4-2.8,1.2c-0.5,0.8-0.8,1.7-0.8,2.6
		c-0.1,1.1,0.3,2.3,1,3.1c0.7,0.7,1.7,1,2.7,0.8c0.9-0.1,1.7-0.5,2.3-1.2c0.4-0.5,0.8-1.1,1-1.7
		C-18305.4,503.4-18305.3,503.1-18305.2,502.8z M-18274.6,502.1l-1.2-12.6l-0.2-6.6h7.8l-0.2,6.6l-1.2,12.6H-18274.6z
		 M-18272.2,513.2c-1.1,0-2.2-0.4-2.9-1.2c-0.8-0.8-1.2-1.8-1.1-2.9c0-1.1,0.4-2.1,1.2-2.9c1.7-1.5,4.2-1.5,5.8,0
		c0.8,0.8,1.2,1.8,1.2,2.9c0.1,2.2-1.7,4-3.8,4.1C-18272,513.2-18272.1,513.2-18272.2,513.2z"/>
	<g id="パス_36441" transform="translate(-18558 544.976)">
		<path class="st1" d="M579.5,645.9H20c-4,0-7.8-1.6-10.6-4.4c-2.8-2.8-4.4-6.6-4.4-10.6V5h589.5v625.9c0,4-1.6,7.8-4.4,10.6
			C587.3,644.3,583.5,645.9,579.5,645.9z"/>
		<path class="st1" d="M10,10v620.9c0,5.5,4.5,10,10,10h559.6c5.5,0,10-4.5,10-10V10H10 M0,0h599.5v630.9c0,11-8.9,20-20,20H20
			c-11,0-20-9-20-20V0z"/>
	</g>
	<path id="パス_36442" class="st2" d="M-18137.5,484c20.5,4.7,33.2,25.5,28.4,46.3c-4.8,20.8-25.3,33.9-45.8,29.1
		c-20.5-4.7-33.2-25.5-28.4-46.3C-18178.5,492.3-18158,479.3-18137.5,484z"/>
	<path id="パス_36454" class="st2" d="M-18071.4,499.3c21.1,4.9,34.4,25.7,29.6,46.6s-25.8,33.8-47,28.9
		c-21.1-4.9-34.4-25.7-29.6-46.6C-18113.6,507.3-18092.5,494.4-18071.4,499.3z"/>
	<path id="パス_36459" class="st2" d="M-18005.3,514.5c20.5,4.7,33.2,25.5,28.4,46.3c-4.8,20.8-25.3,33.9-45.8,29.1
		c-20.5-4.7-33.2-25.5-28.4-46.3S-18025.8,509.8-18005.3,514.5z"/>
	<path id="パス_36443" class="st0" d="M-18161.2,537.8c4.7-8.1,8.9-16.5,12.5-25.2l10.7,2.5l1.5-6.5l-9.6-2.2
		c0.8-2,0.9-2.4,1.7-4.5l-7.2-1.9c-0.7,2.4-1,3.2-1.5,4.8l-6.4-1.5l-1.5,6.5l5.5,1.3c-3.3,8.1-7.4,15.8-12.3,23L-18161.2,537.8z
		 M-18133.6,504.6c1.1,3.1,1.7,6.4,1.9,9.7l4.2-0.8c-0.3-3.3-1-6.5-2.1-9.5L-18133.6,504.6z M-18147.3,525.4
		c-1.9,1.5-3.2,3.6-3.9,5.9c-0.5,2.3,0.2,4.7,1.9,6.3c2.3,2.2,5,3.4,12,5c3.4,0.8,5,1.1,6.8,1.4l1.5-6.9c-2.8-0.4-5.6-0.9-8.3-1.5
		c-5.8-1.3-7.4-2.4-6.9-4.3c0.3-1,1-1.9,1.9-2.5L-18147.3,525.4z M-18126.8,504.5c1,3.1,1.7,6.4,1.9,9.6l4.2-0.8
		c-0.3-3.3-1.1-6.5-2.2-9.6L-18126.8,504.5z M-18125.2,518c-9.7-2.3-13.1-2.7-19.2-1.7l1.1,6.4c3.9-0.5,7.8-0.2,11.6,0.8
		c2.1,0.5,3.7,0.9,4.9,1.3L-18125.2,518z"/>
	<path id="パス_36455" class="st0" d="M-18093.8,553c5.1-5.5,10-15.7,13-22.3l3.2,0.7c3.5,0.8,3.8,2.5,2.8,6.5
		c-0.7,3.2-2,6.4-3.7,9.2c-0.8,1.2-1.8,1.7-3.8,1.3c-1.4-0.4-2.7-0.8-4-1.4l-1.1,7.1c1.5,0.6,3,1,4.5,1.4c3.6,0.8,6.8,0.7,9.4-2.7
		c2.4-3.2,4.3-9.1,5.1-12.5c2-8.8,0.5-13.4-6.5-15l-3.5-0.8c1.2-3,1.7-4.2,2.6-6.8l-7.2-2.1c-0.6,2.2-1.4,4.4-2.4,7.3l-7-1.6
		l-1.5,6.7l5.9,1.3c-4,8.6-8.1,14.9-12,19L-18093.8,553z M-18057.4,546.2c1.9-11.3-0.3-17.4-1.9-21.1l-6.7,1.5c1.7,4.3,3,9.8,1,19.1
		L-18057.4,546.2z"/>
	<path id="パス_36460" class="st0" d="M-17996.9,537.8c-6-3.2-12.3-5.7-18.9-7.3l-2.7,6.2c8,2.4,14.1,5.1,18.2,8L-17996.9,537.8z
		 M-18023.8,537.1c-1.7,4.4-2.4,6.4-5.2,17.8l6.8,1.8c0.1-0.4,0.2-0.8,0.3-1.2c3.3-2.4,8.7-3.1,13.1-2.1c1.2,0.3,5.8,1.7,4.7,6.1
		c-0.8,3.6-4.2,6.3-15.2,3.7c-3-0.7-5.9-1.6-8.8-2.6l-0.7,6.9c1.8,0.5,3.6,1.2,7.7,2.1c10.2,2.3,21.7,3.1,24.3-8.3
		c1-4.5,0-11.6-9.6-13.9c-4.6-1-9.3-0.7-13.7,0.8c0.7-3.1,1.8-6.1,3.2-9L-18023.8,537.1z"/>
	<path id="パス_36444" class="st2" d="M-18258.1,648.8c0.3,0.3,0.7,0.6,1.1,0.8c0.4,0.3,0.8,0.6,1.2,1c3.9,3,7.2,5.6,10.1,8
		c2.4,1.9,4.6,4,6.7,6.3l-7.2,6.5c-2.5-3.2-7.9-8.3-16.1-15.1v28.4h-9.3v-26.2c-5,5.2-10.7,9.5-17,12.9c-0.8-1.4-1.7-2.7-2.7-4
		c-1.2-1.5-2.2-2.8-3.1-3.7c5-2.3,9.5-5.4,13.5-9.1c4-3.6,7.5-7.8,10.3-12.4h-21.8v-8.6h50.9v8.6h-17.8c-1,1.7-2,3.3-3,4.8v5.5
		L-18258.1,648.8z M-18193.2,667.7c-1.2,2.3-2.7,4.4-4.4,6.3c5.3,1.5,9.7,2.9,13.3,4.2l-5,6.8c-4.7-1.9-10-3.8-15.9-5.6
		c-3.5,1.6-7.1,2.8-10.8,3.5c-5.1,0.9-10.2,1.6-15.3,2c-0.3-1.3-0.8-2.6-1.3-3.9c-0.5-1.2-1.1-2.3-1.8-3.3
		c5.8-0.1,11.5-0.6,17.2-1.7l-2.8-0.7l-0.3,0.4l-8.2-2.4c1.2-1.5,2.6-3.4,4.1-5.6h-11.2V661h15.7l1.8-2.8h-14V641h12.4v-2.3h-15
		v-7.3h51.2v7.3h-15.4v2.3h13.9v17.1h-23.6l-1.7,2.8h28.3v6.7H-18193.2z M-18211.9,638.7v2.3h5v-2.3H-18211.9z M-18224.3,647.6v4.1
		h4.5v-4.1H-18224.3z M-18211.9,651.6h5v-4.1h-5L-18211.9,651.6z M-18193.5,647.6h-5.4v4.1h5.4L-18193.5,647.6z M-18215.8,669.3
		c2.6,0.6,5.7,1.4,9.3,2.3c1.5-1.1,2.7-2.4,3.8-3.9h-12.1L-18215.8,669.3z M-18171.7,663.6l-1.5-19.6l-0.3-9.2h10.4l-0.3,9.2
		l-1.5,19.6H-18171.7z M-18168.4,680.1c-1.6,0-3.2-0.6-4.3-1.9c-1.2-1.2-1.8-2.9-1.7-4.6c-0.1-1.7,0.6-3.3,1.7-4.6
		c1.1-1.2,2.7-1.9,4.3-1.8c1.7,0,3.3,0.6,4.4,1.8c1.2,1.2,1.8,2.9,1.7,4.6c0,1.7-0.6,3.3-1.7,4.6
		C-18165.1,679.4-18166.7,680.1-18168.4,680.1z M-18148.5,663.6l-1.5-19.6l-0.3-9.2h10.4l-0.3,9.2l-1.5,19.6H-18148.5z
		 M-18145.2,680.1c-1.6,0-3.2-0.6-4.3-1.9c-1.2-1.2-1.8-2.9-1.7-4.6c-0.1-1.7,0.6-3.3,1.7-4.6c1.1-1.2,2.7-1.9,4.3-1.8
		c1.7,0,3.3,0.6,4.4,1.8c1.2,1.2,1.8,2.9,1.7,4.6c0,1.7-0.6,3.3-1.7,4.6C-18141.9,679.4-18143.5,680.1-18145.2,680.1z"/>
	<path id="パス_36445" class="st2" d="M-18282.9,604.8h7.9c-0.9,0.7-1.8,1.5-2.7,2.3c-0.7,0.7-1.3,1.4-1.8,2.2
		c-0.5,0.7-0.7,1.5-0.7,2.4c0,0.5,0.1,1,0.4,1.4c0.5,0.5,1.1,0.9,1.8,0.9c1.4,0.3,2.9,0.4,4.4,0.4c2.3,0,4.2-0.1,5.8-0.2
		c1.6-0.1,3.5-0.4,5.8-0.7v6.9c-4.1,0.5-8.3,0.8-12.5,0.9c-4.2,0-7.3-0.8-9.3-2.3c-2-1.5-3.2-4-3-6.6c0-1.4,0.4-2.9,1-4.2
		C-18285,607.1-18284,605.9-18282.9,604.8z M-18269.8,598.4h-7.9l3.6-3.4h-11.9v-6.4h22.7v4.9L-18269.8,598.4z M-18268.4,604.6v-6.6
		h3.2v6.6H-18268.4z M-18263.4,604.6v-6.6h3.2v6.6H-18263.4z M-18231.2,606.4c1.8,2,3.9,3.9,6.1,5.4c2.3,1.6,4.7,3,7.2,4.1
		c-0.8,0.8-1.6,1.6-2.3,2.5c-0.7,0.9-1.4,1.8-2,2.7c-2.4-1.2-4.6-2.7-6.7-4.5c-2.1-1.8-4.1-3.8-5.9-6v11.6h-6.5v-11.6
		c-1.8,2.1-3.8,4.1-6,5.9c-2.1,1.7-4.4,3.2-6.8,4.4c-0.6-0.9-1.3-1.8-2-2.7c-0.7-0.9-1.5-1.7-2.3-2.4c2.6-1.1,5.1-2.4,7.3-4.1
		c2.3-1.6,4.3-3.4,6.2-5.4h-12.3v-5.8h7.3c-0.3-1.1-0.7-2.2-1.1-3.2c-0.5-1.2-1.1-2.3-1.7-3.4l3.9-1.5h-6.4v-5.8h13.8v-4.3h6.5v4.3
		h14.1v5.8h-5.9l4.2,1.2c-1.5,2.8-2.9,5.1-4,6.8h7.3v5.8L-18231.2,606.4z M-18246.7,592.5c0.7,1.1,1.3,2.2,1.8,3.4
		c0.5,1,0.9,2.1,1.2,3.1l-3.9,1.6h6.4v-8.1H-18246.7z M-18234.7,592.5v8.1h6.2l-3.5-1.1c0.6-1.1,1.2-2.2,1.7-3.4
		c0.5-1.2,1-2.4,1.4-3.6H-18234.7z M-18176.6,587v5.8h-29.9v4.7c0,4.5-0.3,9-1,13.5c-0.5,3.9-1.7,7.7-3.6,11.2
		c-0.8-0.7-1.7-1.3-2.6-1.9c-0.9-0.6-1.8-1.1-2.7-1.6c1.6-2.9,2.7-6.1,3.1-9.4c0.5-3.9,0.7-7.9,0.7-11.8V587h14.8v-4.6h6.4v4.6
		L-18176.6,587z M-18189.8,593.2v3.4h12.6v5.3h-12.6v3.8h10.4v16.5h-6.3v-1.4h-13.1v1.4h-6v-16.5h8.8v-12.5L-18189.8,593.2z
		 M-18185.6,615.4V611h-13.1v4.4H-18185.6z"/>
	<path id="パス_36446" class="st3" d="M-18285.6,700.2h237.3"/>
	<path id="パス_36447" class="st2" d="M-18266.9,726.9c1.4,1.2,3,2.2,4.7,2.9c-0.5,0.4-0.9,0.9-1.3,1.4c-0.4,0.5-0.8,1.1-1.2,1.6
		c-0.7-0.4-1.5-0.9-2.2-1.3v6.7h-3.6v-10c-0.9-1.1-1.8-2.2-2.6-3.4c-0.8,2.9-2,5.6-3.7,8.1c-1.4,2.1-3.3,3.9-5.5,5.2
		c-0.4-0.5-0.8-1-1.3-1.4c-0.4-0.4-0.9-0.9-1.5-1.2c2.6-1.3,4.7-3.3,6.2-5.8c-0.9-0.9-2-1.6-3-2.4c-0.4,0.5-0.8,0.9-1,1.2
		c-0.3-0.3-0.8-0.7-1.4-1.2c-0.5-0.4-1-0.8-1.5-1.1c1.4-1.3,2.5-2.9,3.4-4.6c1-2,1.7-4.1,2.2-6.2l3.5,0.7c-0.3,1-0.5,1.9-0.8,2.7
		h2.7l0.6-0.1l2.3,0.8c-0.1,0.9-0.3,1.6-0.4,2.2l0.9-0.3c0.3,0.5,0.6,1,0.9,1.5v-7.4h3.6L-18266.9,726.9z M-18278.9,722.2
		c-0.4,0.8-0.8,1.7-1.2,2.4c1,0.6,1.9,1.2,2.8,1.9c0.6-1.4,1-2.9,1.3-4.4L-18278.9,722.2z M-18243.9,727.9h3.6v10.4h-3.6v-1.3h-12.4
		v1.3h-3.5v-10.4h3.5v5.6h4.2v-6.8h-6.8v-9h3.5v5.6h3.3v-7.6h3.6v7.6h3.5v-5.7h3.7v9h-7.2v6.8h4.6V727.9z M-18231.9,732.5
		c0.4,0,0.7-0.3,0.9-0.9c0.3-0.8,0.5-1.6,0.6-2.5c0.2-1,0.3-2,0.3-3.1c0.1-1.1,0.1-2.1,0.1-3c-0.7,0.3-1.3,0.7-1.8,1.4
		c-0.5,0.7-0.8,1.5-1.1,2.3c-0.2,0.8-0.4,1.6-0.4,2.4c-0.1,0.9,0,1.8,0.3,2.6C-18232.7,732.2-18232.3,732.5-18231.9,732.5
		L-18231.9,732.5z M-18223.4,727.7c0-1.1-0.3-2.2-0.8-3.2c-0.5-0.9-1.4-1.4-2.3-1.5c0,1.6-0.1,3.1-0.3,4.7c-0.1,1.5-0.4,3-0.9,4.4
		c-0.4,1.2-0.9,2.2-1.7,3.2c-0.6,0.8-1.6,1.2-2.5,1.1c-0.8,0-1.5-0.3-2.1-0.7c-0.8-0.6-1.4-1.4-1.7-2.3c-0.5-1.4-0.8-2.8-0.7-4.3
		c0-1.7,0.4-3.3,1.1-4.8c0.6-1.4,1.6-2.6,2.8-3.5c1.1-0.9,2.5-1.4,3.9-1.5c1.5-0.1,3,0.1,4.3,0.7c1.4,0.6,2.5,1.6,3.2,2.9
		c0.9,1.6,1.4,3.4,1.4,5.2c0.1,1.6-0.2,3.2-0.7,4.7c-0.4,1.2-1.1,2.2-2,3c-0.8,0.7-1.7,1.2-2.6,1.6c-0.8,0.3-1.7,0.5-2.6,0.5V734
		c1.3,0,2.5-0.6,3.2-1.7C-18223.7,731-18223.3,729.3-18223.4,727.7z M-18205.6,722.2c-0.7-0.6-1.6-1.3-2.6-2.1
		c-1.1-0.8-2-1.5-2.9-2.1l2.3-2.5c1.6,1,3.4,2.3,5.6,3.9L-18205.6,722.2z M-18198.1,732.3c-0.3-1.1-0.7-2.2-1.2-3.3
		c-0.6-1.3-1.2-2.5-1.9-3.7c-2,2.5-4.2,4.9-6.6,6.9v0.8c0,0.3,0,0.7,0.1,1c0,0.2,0.2,0.3,0.3,0.4c0.3,0.1,0.6,0.1,0.9,0.1h3.1
		c0.3,0,0.6-0.1,0.9-0.3c0.2-0.3,0.4-0.7,0.4-1.1c0.1-0.8,0.2-1.6,0.2-2.5c0.5,0.3,1,0.6,1.6,0.9c0.6,0.3,1.2,0.5,1.8,0.6
		c-0.1,1.2-0.3,2.4-0.7,3.5c-0.2,0.7-0.7,1.4-1.4,1.8c-0.8,0.4-1.6,0.6-2.5,0.6h-3.9c-0.8,0-1.6-0.1-2.4-0.3c-0.5-0.2-1-0.5-1.4-0.9
		c-0.4-0.5-0.6-1.2-0.7-1.8c-1.3,0.9-2.6,1.6-4,2.3c-0.3-0.5-0.7-1-1.1-1.5c-0.4-0.5-0.8-0.9-1.2-1.3c2.2-1,4.3-2.3,6.2-3.7v-10.1
		h3.7v6.9c1.6-1.6,3.1-3.3,4.4-5.2c1.2-1.7,2.3-3.5,3.2-5.4l3.5,1.4c-1.2,2.3-2.6,4.6-4.2,6.7l2.8-1.3c0.7,1.2,1.4,2.3,2.1,3.6
		c0.6,1.1,1,2.2,1.4,3.4L-18198.1,732.3z M-18212.1,722.4c-0.4,2.9-1.1,5.7-2.3,8.4l-3.4-1.2c0.6-1.2,1.1-2.4,1.5-3.6
		c0.4-1.4,0.7-2.9,0.9-4.3L-18212.1,722.4z M-18175.7,731.2c-0.5,1-1.1,1.8-1.8,2.6c2.2,0.6,4,1.2,5.5,1.7l-2.1,2.8
		c-1.9-0.8-4.1-1.6-6.6-2.3c-1.4,0.7-2.9,1.1-4.5,1.4c-2.1,0.4-4.2,0.7-6.3,0.8c-0.1-0.5-0.3-1.1-0.6-1.6c-0.2-0.5-0.5-0.9-0.7-1.4
		c2.4,0,4.8-0.3,7.1-0.7l-1.2-0.3l-0.1,0.2l-3.4-1c0.5-0.6,1.1-1.4,1.7-2.3h-4.7v-2.8h6.5l0.7-1.2h-5.8v-7.1h5.1v-1h-6.2v-3h21.2v3
		h-6.4v1h5.7v7.1h-9.8l-0.7,1.2h11.7v2.8H-18175.7z M-18183.5,719.2v1h2.1v-1H-18183.5z M-18188.6,722.9v1.7h1.9v-1.7H-18188.6z
		 M-18183.5,724.6h2.1v-1.7h-2.1V724.6z M-18175.9,722.9h-2.3v1.7h2.3V722.9z M-18185.1,731.9c1.1,0.2,2.4,0.6,3.9,1
		c0.6-0.5,1.1-1,1.6-1.6h-5L-18185.1,731.9z M-18166.6,724.3h-2.4v-3.6h3c0.1-0.7,0.2-1.3,0.3-1.8c0.1-0.5,0.1-0.7,0.1-0.7h3.4
		c-0.2,1.2-0.4,2-0.4,2.5h3v3.6h-3.6c-1.1,5-1.8,7.8-2.1,8.6l-0.3,1.2h-3.5C-18167.7,729.1-18166.9,725.9-18166.6,724.3
		L-18166.6,724.3z M-18158.6,728.5l0-7.9c0.9-0.1,1.9-0.1,2.8-0.1c0.9,0,1.6,0,2.2,0.1c0.3,0,0.6,0,0.9,0.1v3.7l-0.8,0
		c-0.5,0-1.2-0.1-2-0.1v4.8c0.7,0.2,1.3,0.5,1.9,0.8c0.6,0.3,0.9,0.5,0.9,0.5v3.9l-0.4-0.3c-0.3-0.2-0.7-0.4-1.1-0.7
		c-0.4-0.3-0.8-0.5-1.3-0.6v1.6c0.1,1-0.2,1.9-0.6,2.7c-0.3,0.6-0.9,1-1.5,1.2c-0.6,0.2-1.2,0.3-1.8,0.3c-0.8,0-1.5-0.1-2.3-0.4
		c-0.8-0.3-1.4-0.8-1.9-1.5c-0.6-0.9-0.8-1.9-0.8-3c-0.1-1.4,0.5-2.9,1.5-3.9C-18161.6,728.8-18160.1,728.3-18158.6,728.5
		L-18158.6,728.5z M-18159.3,735c0.2,0,0.4-0.1,0.5-0.4c0.1-0.3,0.2-0.6,0.2-0.9v-2c-0.7-0.2-1.4-0.1-2,0.3
		c-0.4,0.3-0.7,0.8-0.7,1.4c-0.1,0.5,0.1,1,0.5,1.3C-18160.4,735-18159.8,735.1-18159.3,735L-18159.3,735z M-18140.3,718.6h5.9
		c-1.3,1-2.4,1.9-3.4,2.7l-2.9,2.3c-1,0.8-1.9,1.5-2.6,2.1c-0.7,0.6-1.2,1-1.4,1.2c-0.2,0.1-0.2,0.3-0.2,0.6c0,0.3,0.1,0.5,0.3,0.7
		c0.2,0.2,0.7,0.6,1.4,1.3c0.7,0.7,1.6,1.5,2.6,2.4l2.9,2.7c1,0.9,2.1,1.9,3.4,3.1h-5.6c-1-0.8-1.8-1.6-2.5-2.2
		c-0.7-0.6-1.5-1.3-2.2-2c-0.8-0.7-1.4-1.3-2.1-1.8c-0.4-0.4-0.9-0.8-1.2-1.2c-0.8-0.8-1.2-1.8-1.2-2.8c0-1,0.4-2,1.1-2.7
		c0.3-0.2,0.7-0.6,1.3-1.1c0.6-0.5,1.2-1,2-1.6c0.7-0.6,1.4-1.2,2.1-1.7C-18142,720-18141.2,719.3-18140.3,718.6z M-18127.5,737.8
		c-0.7-0.8-1.5-1.7-2.4-2.7c-0.9-1-1.8-1.8-2.7-2.6l3-2.6c1,0.8,1.9,1.7,2.8,2.6c1,1.1,1.8,1.9,2.4,2.6L-18127.5,737.8z
		 M-18282,760.4h4.5c-0.5,0.4-1,0.9-1.5,1.3c-0.4,0.4-0.7,0.8-1,1.3c-0.3,0.4-0.4,0.9-0.4,1.3c0,0.3,0.1,0.6,0.2,0.8
		c0.3,0.3,0.6,0.5,1,0.5c0.8,0.2,1.7,0.2,2.5,0.2c1.3,0,2.4,0,3.3-0.1c0.9-0.1,2-0.2,3.3-0.4v3.9c-2.4,0.3-4.7,0.5-7.1,0.5
		c-1.9,0.1-3.7-0.3-5.3-1.3c-1.2-0.9-1.8-2.3-1.7-3.7c0-0.8,0.2-1.6,0.6-2.4C-18283.2,761.6-18282.6,761-18282,760.4z
		 M-18274.5,756.7h-4.5l2.1-1.9h-6.8v-3.7h13v2.8L-18274.5,756.7z M-18273.7,760.2v-3.8h1.8v3.8L-18273.7,760.2z M-18270.8,760.2
		v-3.8h1.8v3.8L-18270.8,760.2z M-18247.2,750.5v19.7h-3.7v-1.1h-10.7v1.1h-3.5v-19.7h6.2c0.2-1,0.4-2,0.5-3l4.3,0.4
		c-0.2,0.6-0.6,1.5-1.1,2.6H-18247.2z M-18250.9,753.8h-10.7v1.8h10.7V753.8z M-18250.9,758.9h-10.7v1.9h10.7V758.9z
		 M-18261.6,765.9h10.7V764h-10.7V765.9z M-18239.2,752.7v2.7h-3.6v-6h8.5v-1.9h3.7v1.9h8.6v6h-3.7v-2.7H-18239.2z M-18226.2,766.7
		c0.3,0,0.7-0.1,1-0.2c0.2-0.2,0.4-0.5,0.5-0.9c0.1-0.7,0.2-1.4,0.2-2.1c0.5,0.3,1,0.6,1.6,0.8c0.6,0.3,1.2,0.5,1.9,0.6
		c-0.1,1.1-0.3,2.1-0.7,3.2c-0.3,0.7-0.8,1.2-1.5,1.5c-0.8,0.3-1.7,0.5-2.6,0.5h-4.2c-1,0-2.1-0.1-3.1-0.4c-0.7-0.2-1.2-0.7-1.5-1.4
		c-0.3-0.9-0.5-1.9-0.4-2.8v-2.1l-7.7,0.8l-0.4-3.4l8.1-0.7v-1.8c-1.2,0.2-2.8,0.3-4.6,0.5c-0.1-0.5-0.2-1-0.4-1.5
		c-0.2-0.5-0.4-1-0.6-1.5c2.4-0.2,4.7-0.5,7-1c1.9-0.3,3.8-0.9,5.6-1.6l2.7,2.9c-1.9,0.7-3.9,1.2-5.9,1.6v2.1l9.3-0.8l0.4,3.2
		l-9.7,1v2.4c0,0.3,0,0.6,0.1,0.8c0.1,0.2,0.2,0.3,0.4,0.3c0.3,0.1,0.7,0.1,1.1,0.1L-18226.2,766.7z M-18219,751.3h15.7v3.7
		c-1.4,0.1-2.9,0.5-4.1,1.3c-1.1,0.6-2.1,1.4-2.9,2.4c-0.7,0.7-1.2,1.6-1.5,2.6c-0.3,0.8-0.3,1.8,0.1,2.6c0.3,0.6,0.8,1.1,1.4,1.4
		c0.5,0.3,1.1,0.4,1.7,0.5c0.6,0,1.2,0,1.8,0c0.6,0,1.1-0.1,1.6-0.1c0.5-0.1,0.7-0.1,0.7-0.1v3.8c-0.8,0.1-1.5,0.2-2.3,0.2
		c-0.7,0-1.4,0-2.1-0.1c-0.8-0.1-1.6-0.2-2.3-0.5c-0.9-0.3-1.7-0.7-2.4-1.3c-0.8-0.6-1.3-1.5-1.7-2.4c-0.4-1.2-0.5-2.4-0.3-3.7
		c0.2-1,0.5-1.9,0.9-2.8c0.4-0.7,0.9-1.4,1.4-2.1c0.4-0.5,0.9-0.9,1.3-1.3c0.2-0.2,0.4-0.3,0.6-0.5h-7.6V751.3z M-18207.9,760.3
		v-3.8h1.8v3.8H-18207.9z M-18205.1,760.3v-3.8h1.8v3.8H-18205.1z M-18189.3,760.3h-11v-3.6h15.5c0,1.9-0.3,3.7-0.9,5.4
		c-0.5,1.4-1.4,2.7-2.5,3.8c-1,0.9-2.1,1.7-3.3,2.3c-1,0.5-2.1,0.9-3.2,1.1c-1,0.2-1.8,0.4-2.4,0.5c-0.6,0.1-1,0.1-1,0.1v-3.9
		c0.3,0,0.5,0,0.8-0.1c0.7-0.1,1.3-0.2,1.9-0.4c0.8-0.2,1.7-0.5,2.4-0.9c0.8-0.4,1.6-1,2.2-1.7
		C-18190.1,762.2-18189.6,761.3-18189.3,760.3z M-18199.7,754.5v-3.6h13.8v3.6H-18199.7z M-18178.1,750h3.8
		c-0.1,0.4-0.1,0.9-0.2,1.3c-0.1,0.4-0.2,0.8-0.3,1.2h7.9v3.7c-0.1,1.9-0.6,3.8-1.4,5.5c-0.6,1.5-1.5,2.8-2.7,3.9
		c-0.9,1-2,1.8-3.2,2.5c-1,0.6-2,1.1-3,1.5c-0.7,0.3-1.5,0.6-2.3,0.8c-0.3,0.1-0.6,0.1-0.9,0.2v-3.9c0.3-0.1,0.6-0.1,0.9-0.2
		c0.8-0.2,1.5-0.5,2.3-0.9c1-0.5,2-1.2,2.8-2c1-0.9,1.8-1.9,2.4-3c0.7-1.4,1.1-2.9,1.2-4.4h-5.5c-0.8,1.3-1.7,2.4-2.7,3.5
		c-0.7,0.7-1.4,1.4-2.2,2c-0.3,0.2-0.6,0.4-0.9,0.6v-4.6c0.2-0.1,0.4-0.3,0.5-0.4c0.5-0.4,0.9-0.9,1.2-1.4c0.5-0.7,0.9-1.5,1.3-2.3
		C-18178.6,752.3-18178.3,751.2-18178.1,750z M-18153.1,760.3h-11v-3.6h15.5c0,1.9-0.3,3.7-0.9,5.4c-0.5,1.4-1.4,2.7-2.5,3.8
		c-1,0.9-2.1,1.7-3.3,2.3c-1,0.5-2.1,0.9-3.2,1.1c-1,0.2-1.8,0.4-2.4,0.5c-0.6,0.1-1,0.1-1,0.1v-3.9c0.3,0,0.5,0,0.8-0.1
		c0.7-0.1,1.3-0.2,1.9-0.4c0.8-0.2,1.7-0.5,2.4-0.9c0.8-0.4,1.6-1,2.2-1.7C-18153.8,762.2-18153.3,761.3-18153.1,760.3
		L-18153.1,760.3z M-18163.4,754.5v-3.6h13.8v3.6H-18163.4z M-18141.8,750h3.8c-0.1,0.4-0.1,0.9-0.2,1.3c-0.1,0.4-0.2,0.8-0.3,1.2
		h7.9v3.7c-0.1,1.9-0.6,3.8-1.4,5.5c-0.6,1.5-1.5,2.8-2.7,3.9c-0.9,1-2,1.8-3.2,2.5c-1,0.6-2,1.1-3,1.5c-0.7,0.3-1.5,0.6-2.3,0.8
		c-0.3,0.1-0.6,0.1-0.9,0.2v-3.9c0.3-0.1,0.6-0.1,0.9-0.2c0.8-0.2,1.5-0.5,2.3-0.9c1-0.5,2-1.2,2.8-2c1-0.9,1.8-1.9,2.4-3
		c0.7-1.4,1.1-2.9,1.2-4.4h-5.5c-0.8,1.3-1.7,2.4-2.7,3.5c-0.7,0.7-1.4,1.4-2.2,2c-0.3,0.2-0.6,0.4-0.9,0.6v-4.6
		c0.2-0.1,0.4-0.3,0.5-0.4c0.5-0.4,0.9-0.9,1.2-1.4c0.5-0.7,0.9-1.5,1.3-2.3C-18142.4,752.3-18142,751.2-18141.8,750z
		 M-18118.8,761.6l-0.7-7.6l-0.1-4h4.7l-0.1,4l-0.7,7.6H-18118.8z M-18117.3,768.3c-0.7,0-1.3-0.2-1.8-0.7c-0.5-0.5-0.7-1.1-0.7-1.8
		c0-0.6,0.2-1.3,0.7-1.7c1-0.9,2.5-0.9,3.5,0c0.5,0.5,0.7,1.1,0.7,1.7c0,1.3-1,2.4-2.3,2.4
		C-18117.2,768.3-18117.2,768.3-18117.3,768.3L-18117.3,768.3z"/>
	<path id="パス_36448" class="st0" d="M-18410.7,580.7c53.3,0,96.5,43.2,96.5,96.6c0,53.3-43.2,96.6-96.5,96.6
		c-53.3,0-96.5-43.2-96.5-96.6C-18507.1,623.9-18464,580.7-18410.7,580.7C-18410.7,580.7-18410.7,580.7-18410.7,580.7z"/>
	<path id="パス_16220" class="st2" d="M-18434.4,648.2c-5.4,0-9.7-4.4-9.7-9.8c0-5.4,4.4-9.7,9.7-9.7c5.4,0,9.7,4.4,9.7,9.7
		C-18424.7,643.9-18429,648.2-18434.4,648.2L-18434.4,648.2z"/>
	<path id="パス_16221" class="st2" d="M-18471.5,676.2l6.5-9.7c1.6-2.3,3.6-4.2,6.1-5.6l12.7-7.1c2.3-1.1,4.1-1.8,6.3-1.5l6.1,0.8
		c2.3,0.3,4.3,1.5,5.8,3.2l11.5,12.3l10.6,3.9c2,0.7,3.1,2.9,2.4,5l0,0.2c-0.6,2-2.7,3.2-4.7,2.7l-8.6-2c-2.1-0.5-4.2-1.4-6-2.6
		l-6-4l-2.1,16.1c-0.2,1.2,0.1,2.4,0.7,3.4l17.9,31.2c1.3,2.2,0.5,5.1-1.7,6.4l-0.2,0.1c-2.1,1.2-4.8,0.6-6.2-1.4l-20-28.7
		l-6.1,12.1c-0.4,0.9-1,1.7-1.8,2.4l-13.5,13.2c-1.7,1.7-4.4,1.7-6.2,0.2l-0.2-0.2c-1.9-1.7-2.1-4.5-0.4-6.4c0,0,0,0,0,0l11.4-12.7
		l6.2-22.4l0,0l1.8-17.5l-6.3,2.8l-10,10.6c-1.3,1.3-3.3,1.5-4.8,0.5l-0.1-0.1C-18472.1,680.2-18472.6,677.9-18471.5,676.2z"/>
	<path id="パス_16222" class="st2" d="M-18380.2,644.7l20.6-14.1h-52.6v-8h63v104.6h-10.4l-20.6,14.1v-14.1h-25.1v-8h25.1V644.7z"
		/>
	<path id="パス_36449" class="st4" d="M-18312.4,580.1l-194.1,193.1"/>
	<path id="パス_36456" class="st2" d="M-18280.6,875.1l-6.7,0.2v-8.9l6.8-0.2V858h8.7v7.8l24.1-0.8v9h-0.1
		c-0.8,3.4-2.5,6.5-4.8,9.1c-2,2.2-4.2,4.1-6.6,5.7c-1.8,1.2-3.6,2.2-5.6,3c-1.5,0.6-2.3,0.9-2.4,0.9v-9.2c0.5-0.1,0.9-0.3,1.3-0.5
		c1.1-0.5,2.1-1,3.1-1.6c1.2-0.8,2.3-1.7,3.3-2.8c1.1-1.3,1.9-2.7,2.4-4.3l-14.7,0.6c-0.1,3.6-0.2,6.7-0.1,9.4
		c0,2.7,0.1,5.1,0.1,7.2c0.1,0.9,0.3,1.8,0.6,2.7c0.3,0.7,0.8,1.4,1.5,1.7c1.3,0.5,2.7,0.8,4.1,0.8c1.9,0,3.8,0,5.8,0
		s3.8-0.1,5.5-0.3c1.7-0.1,3.1-0.2,4.1-0.3c1-0.1,1.6-0.2,1.6-0.2v9.3c0,0-0.9,0-2.6,0.1c-1.7,0.1-3.9,0.2-6.5,0.2
		c-2.6,0.1-5.5,0-8.9,0c-4.2-0.1-7.5-1-9.8-2.8c-2.3-1.7-3.6-4.8-3.9-9.4c-0.1-3.1-0.1-6-0.2-8.7
		C-18280.6,881.8-18280.6,878.7-18280.6,875.1z M-18258.9,860.6v-9.2h4.4v9.2H-18258.9z M-18252.1,860.6v-9.2h4.4v9.2H-18252.1z
		 M-18203.1,903.7h-36.5v-42.5h36.5V903.7z M-18212.6,870.4h-17.5v24.2h17.5V870.4z M-18190,885.7l-1.5-19.6l-0.3-9.2h10.4l-0.3,9.2
		l-1.5,19.6H-18190z M-18186.7,902.1c-1.6,0-3.2-0.6-4.3-1.9c-1.2-1.2-1.8-2.9-1.7-4.6c0-1.7,0.6-3.3,1.7-4.6
		c1.1-1.2,2.7-1.9,4.3-1.8c1.7,0,3.3,0.6,4.4,1.8c1.2,1.2,1.8,2.9,1.7,4.6c0,1.7-0.6,3.3-1.7,4.6
		C-18183.4,901.5-18185,902.2-18186.7,902.1z M-18166.8,885.7l-1.5-19.6l-0.3-9.2h10.4l-0.3,9.2l-1.5,19.6H-18166.8z
		 M-18163.5,902.1c-1.6,0-3.2-0.6-4.3-1.9c-1.2-1.2-1.8-2.9-1.7-4.6c0-1.7,0.6-3.3,1.7-4.6c1.1-1.2,2.7-1.9,4.3-1.8
		c1.7,0,3.3,0.6,4.4,1.8c1.2,1.2,1.8,2.9,1.7,4.6c0,1.7-0.6,3.3-1.7,4.6C-18160.2,901.5-18161.8,902.2-18163.5,902.1z"/>
	<path id="パス_36450" class="st2" d="M-18273,810.8c-1.6,2.2-3.3,4.2-5.2,6c-1.9,1.8-3.9,3.5-6.1,4.9c-0.4-0.9-0.8-1.8-1.3-2.6
		c-0.6-1.1-1.1-1.9-1.6-2.6c1.7-1.1,3.3-2.3,4.8-3.7c1.4-1.3,2.7-2.7,3.7-4.3L-18273,810.8z M-18252,826.6v2.6h4.5v5.5h-4.5v7.5
		c0.1,1.2-0.1,2.3-0.5,3.4c-0.4,0.8-1.1,1.5-1.9,1.8c-1,0.4-2,0.7-3,0.8c-1.5,0.1-3,0.2-4.5,0.2c-0.1-1-0.4-1.9-0.7-2.9
		c-0.3-1-0.7-1.9-1.1-2.9c1.1,0.1,2.3,0.1,3.5,0.1l1.3,0c0.2,0,0.5,0,0.7-0.1c0.1-0.1,0.2-0.3,0.2-0.5v-7.4h-8.7
		c1,1.1,1.9,2.3,2.7,3.6c0.7,1,1.4,2.1,1.9,3.3l-5.4,2.9c-0.5-1.2-1.1-2.4-1.8-3.5c-0.8-1.4-1.7-2.7-2.7-3.9l4.4-2.3h-6.3v-5.5h15.9
		v-2.6h-16.2v-3.4l-1.4,1.9v23.2h-5.8v-16.6c-1.1,1.1-2.2,2-3.2,2.9c-0.2-0.7-0.6-1.8-1.2-3.2c-0.4-1.1-0.9-2.2-1.5-3.2
		c2-1.4,3.9-3,5.6-4.8c1.7-1.7,3.2-3.6,4.5-5.7l5.2,2.3c-0.1,0.3-0.4,0.6-0.7,1.1h9.1v-2.7h-8.3v-5.5h8.3v-4.2h6.1v4.2h8.8v5.5h-8.8
		v2.7h10.6v5.5L-18252,826.6z M-18237.4,824.2h-6.5v-6.4h8.6c0.6-1.3,1-2.4,1.2-3.2c0.3-0.8,0.4-1.1,0.4-1.2h6.8l-0.7,2.2
		c-0.2,0.7-0.5,1.4-0.8,2.1h12v6.4h-14.2c-0.4,0.8-1.1,2.3-2.3,4.3c0.7-0.3,1.5-0.5,2.2-0.7c0.7-0.2,1.5-0.3,2.2-0.4
		c3.4-0.2,6.2,0.5,8.3,2.1c2.2,1.8,3.4,4.4,3.3,7.2c0.1,2.5-0.7,4.9-2.2,6.9c-1.5,2-4.1,3.2-7.7,3.7c-4.4,0.5-8.8,0.3-13.1-0.5v-6.5
		c2.9,0.5,5.8,0.9,8.7,1c1.7,0.1,3.4-0.1,5.1-0.6c1-0.3,1.8-0.9,2.4-1.7c0.5-0.7,0.7-1.5,0.7-2.3c0.1-1.1-0.4-2.1-1.3-2.7
		c-0.9-0.6-2.4-0.9-4.6-0.7c-2,0.2-4,0.7-5.9,1.6c-2.2,1.1-4.4,2.3-6.4,3.6v-6.4C-18239.2,828.1-18237.9,825.5-18237.4,824.2z
		 M-18177,825.9v2.9h3.6v5.3h-3.6v8c0,1.1-0.1,2.3-0.5,3.3c-0.4,0.8-1,1.5-1.8,1.8c-0.9,0.4-1.9,0.7-2.9,0.8
		c-1.4,0.1-2.9,0.2-4.3,0.2c-0.2-1-0.4-1.9-0.7-2.8c-0.3-1-0.7-1.9-1.2-2.9c1.2,0.1,2.7,0.1,4.7,0.1c0.2,0,0.5,0,0.7-0.1
		c0.1-0.1,0.2-0.3,0.2-0.5v-7.9h-14.1v-5.3h14.1v-2.9h-14.1v-5.3h8.9v-2.8h-7.7v-5.3h7.7v-4.2h6v4.2h8v5.3h-8v2.8h8.9v5.3
		L-18177,825.9z M-18197.8,810.9v29.4h-8.2v3.9h-5.6v-33.3H-18197.8z M-18203.5,816.3h-2.6v6.3h2.6V816.3z M-18206.1,834.8h2.6v-6.9
		h-2.6V834.8z M-18191.4,843.8c-0.5-1.2-1.1-2.3-1.8-3.3c-0.8-1.3-1.8-2.5-2.7-3.6l4.9-2.8c1,1.1,2,2.3,2.9,3.5c0.8,1,1.4,2.1,2,3.2
		L-18191.4,843.8z M-18152.3,825.6h-10.7v22.7h-6v-38.4h16.7L-18152.3,825.6z M-18132.9,841.3c0.1,1.3-0.1,2.5-0.5,3.7
		c-0.4,0.9-1,1.6-1.9,2.1c-1,0.5-2,0.8-3.1,0.9c-1.7,0.2-3.3,0.2-5,0.2c-0.2-1.3-0.5-2.6-1-3.9h-9.5v2.1h-5.5v-18.7h16.5v14.4h2.8
		c0.3,0,0.6,0,0.8-0.2c0.2-0.2,0.3-0.5,0.2-0.8v-15.5h-10.9v-15.8h17.1V841.3z M-18158,814.2h-5v1.4h5V814.2z M-18139,814.2h-5.2
		v1.4h5.2V814.2z M-18163,821.3h5v-1.6h-5V821.3z M-18144.2,821.5h5.2v-1.8h-5.2V821.5z M-18148.5,832.2h-5.3v1.8h5.3V832.2z
		 M-18153.8,840h5.3v-1.8h-5.3V840z"/>
	<path id="パス_36457" class="st3" d="M-18285.6,922.2h237.3"/>
	<path id="パス_36458" class="st2" d="M-18279.4,946h-4.3v-3.4h4.3v-2.4h3.3v2.4h2.5c-0.3-0.6-0.7-1.4-1.2-2.3h3.7
		c1.2,2.4,2,4.2,2.4,5.4c0.5,1.2,0.7,1.9,0.7,1.9h-3.5c-0.3-0.8-0.5-1.5-0.7-2c-0.3-0.7-0.6-1.5-1-2.2v2.5h-2.9v1.9
		c0.2,0,0.4-0.1,0.5-0.1c0.8,0,1.5,0.1,2.3,0.2c0.8,0.2,1.6,0.4,2.3,0.9c0.7,0.4,1.4,1.1,1.8,1.9c0.5,1,0.7,2.1,0.7,3.2
		c0,1.1-0.2,2.2-0.7,3.2c-0.4,0.8-1,1.4-1.7,1.9c-0.7,0.4-1.4,0.7-2.2,0.9c-0.7,0.2-1.4,0.2-2.1,0.2v-3.7c0.6,0,1.3-0.1,1.9-0.3
		c0.4-0.1,0.8-0.4,1-0.8c0.2-0.5,0.3-1,0.3-1.5c0-0.8-0.3-1.6-1-2c-0.9-0.5-1.9-0.7-2.9-0.6h-0.1c0,0-0.1,0-0.1,0v4.1
		c0,1-0.2,2-0.8,2.9c-0.4,0.5-0.9,1-1.5,1.2c-0.5,0.2-1,0.2-1.5,0.2c-0.7,0-1.4-0.2-2-0.6c-0.7-0.4-1.3-1-1.7-1.7
		c-0.5-0.8-0.8-1.8-0.8-2.7c0-0.9,0.2-1.9,0.6-2.7c0.4-0.8,1-1.6,1.8-2.2c0.8-0.6,1.6-1.1,2.6-1.4V946z M-18279.4,955.7V952
		c-0.5,0.2-0.9,0.6-1.3,1.1c-0.3,0.5-0.5,1-0.5,1.5c0,0.3,0,0.6,0.2,0.9c0.2,0.2,0.3,0.4,0.6,0.5c0.2,0.1,0.4,0.1,0.6,0.1
		c0,0,0.1,0,0.2,0C-18279.5,956-18279.4,955.9-18279.4,955.7L-18279.4,955.7z M-18262.1,943.6v2.8h-3.1v-5h9v-0.6h-7.2v-2.5h17.9
		v2.5h-7.3v0.6h9.2v5h-3.2v-2.8h-6v4.8h-3.4v-4.8H-18262.1z M-18256.8,944.1v1.8h-4.6v-1.8H-18256.8z M-18252,944.1h4.4v1.8h-4.4
		V944.1z M-18261.8,948.3v-1.8h5v1.8H-18261.8z M-18252,948.3v-1.8h5v1.8H-18252z M-18247.2,957.6c0.3,0,0.6,0,0.9-0.2
		c0.2-0.1,0.4-0.4,0.4-0.6c0.1-0.5,0.2-0.9,0.2-1.4c0.4,0.3,0.9,0.5,1.3,0.6c0.5,0.2,1,0.3,1.5,0.4c-0.1,0.8-0.3,1.6-0.6,2.3
		c-0.3,0.5-0.7,0.9-1.2,1.1c-0.7,0.2-1.5,0.4-2.3,0.3h-4.7c-0.9,0-1.9-0.1-2.8-0.3c-0.6-0.1-1.1-0.5-1.4-1c-0.3-0.6-0.5-1.3-0.5-2
		h-3.2v1h-3.3v-9h16.9v8h-7c0,0.3,0.1,0.5,0.4,0.6c0.4,0.1,0.9,0.2,1.3,0.1L-18247.2,957.6z M-18256.3,951.2h-3.2v0.7h3.2V951.2z
		 M-18249.4,951.9v-0.7h-3.6v0.7H-18249.4z M-18259.5,953.9v0.7h3.2v-0.7H-18259.5z M-18253,954.6h3.6v-0.7h-3.6V954.6z
		 M-18223.8,947.7v2.7h4v9.8h-3.5v-1.1h-4.6v1.1h-3.3v-9.9h3.7v-2.7h-4.9v-3.3h4.9V942c-1.1,0.1-2.3,0.2-3.7,0.3
		c-0.1-0.5-0.2-1-0.4-1.5c-0.2-0.5-0.4-1-0.6-1.5c1.9-0.2,3.8-0.4,5.6-0.7c1.6-0.3,3.1-0.6,4.6-1.1l2.4,2.9c-1.4,0.4-2.9,0.7-4.4,1
		v2.9h4.9v3.3H-18223.8z M-18233.2,938.2v2.6h-7.2v-2.6H-18233.2z M-18241.8,944.3v-2.7h9.3v2.7H-18241.8z M-18233.2,945.1v2.6h-7.4
		v-2.6H-18233.2z M-18240.6,951.1v-2.6h7.4v2.6L-18240.6,951.1z M-18233.1,951.9v7.5h-4.7v0.9h-2.9v-8.3H-18233.1z M-18223.2,956
		v-2.5h-4.6v2.5H-18223.2z M-18236,954.6h-1.8v2h1.8V954.6z M-18216.1,939.7h19.5v20.1h-3.8V958h-12v1.9h-3.6V939.7z
		 M-18212.5,954.4h12v-11.1h-12V954.4z M-18193,941.2h15.7v3.7c-1.4,0.1-2.8,0.5-4.1,1.3c-1.1,0.6-2.1,1.4-2.9,2.4
		c-0.7,0.7-1.2,1.6-1.5,2.6c-0.3,0.8-0.3,1.8,0.1,2.6c0.3,0.6,0.8,1.1,1.4,1.4c0.5,0.3,1.1,0.4,1.7,0.5c0.6,0,1.2,0,1.8,0
		c0.6,0,1.1-0.1,1.6-0.1c0.5-0.1,0.7-0.1,0.7-0.1v3.8c-0.8,0.1-1.5,0.2-2.3,0.2c-0.7,0-1.4,0-2.1-0.1c-0.8-0.1-1.6-0.2-2.3-0.5
		c-0.9-0.3-1.7-0.7-2.4-1.3c-0.8-0.6-1.3-1.5-1.7-2.4c-0.4-1.2-0.5-2.4-0.3-3.7c0.2-1,0.5-1.9,0.9-2.8c0.4-0.7,0.9-1.4,1.4-2.1
		c0.4-0.5,0.9-0.9,1.3-1.3c0.2-0.2,0.4-0.3,0.6-0.5h-7.6V941.2z M-18182,950.3v-3.8h1.8v3.8H-18182z M-18179.1,950.3v-3.8h1.8v3.8
		H-18179.1z M-18167.2,938.8c-0.9,1.2-1.9,2.4-3,3.4c-1.1,1-2.2,2-3.5,2.8c-0.2-0.5-0.5-1-0.8-1.5c-0.3-0.6-0.6-1.1-0.9-1.5
		c1-0.6,1.9-1.3,2.7-2.1c0.8-0.7,1.5-1.6,2.1-2.4L-18167.2,938.8z M-18155.2,947.9v1.5h2.6v3.1h-2.6v4.3c0,0.7-0.1,1.3-0.3,1.9
		c-0.2,0.5-0.6,0.8-1.1,1c-0.5,0.2-1.1,0.4-1.7,0.4c-0.8,0.1-1.7,0.1-2.6,0.1c-0.1-0.6-0.2-1.1-0.4-1.6c-0.2-0.6-0.4-1.1-0.6-1.6
		c0.7,0,1.3,0.1,2,0.1l0.7,0c0.1,0,0.3,0,0.4-0.1c0.1-0.1,0.1-0.2,0.1-0.3v-4.2h-5c0.5,0.7,1.1,1.3,1.5,2.1c0.4,0.6,0.8,1.2,1.1,1.9
		l-3.1,1.7c-0.3-0.7-0.6-1.4-1-2c-0.5-0.8-1-1.5-1.5-2.2l2.5-1.3h-3.6v-3.1h9.1v-1.5h-9.3v-1.9l-0.8,1.1v13.3h-3.3v-9.5
		c-0.6,0.6-1.3,1.2-1.8,1.6c-0.1-0.4-0.4-1-0.7-1.8c-0.2-0.6-0.5-1.2-0.9-1.8c1.1-0.8,2.2-1.7,3.2-2.7c1-1,1.8-2.1,2.6-3.3l3,1.3
		c-0.1,0.1-0.2,0.4-0.4,0.6h5.2v-1.6h-4.7V940h4.7v-2.4h3.5v2.4h5v3.1h-5v1.6h6.1v3.2H-18155.2z M-18147.4,946.4h-2.9V943h3.3
		c0.1-0.8,0.1-1.5,0.2-1.9c0-0.5,0.1-0.7,0.1-0.7h3.3c0,0.9-0.1,1.8-0.2,2.7h3.4v2.9c2.2,0,4.3-0.1,6.1,0v3.5c-0.9,0-1.9-0.1-3-0.1
		c-1.1,0-2.6,0-4.5,0.1l-0.1-3h-2.2c-0.4,2.8-0.7,5.1-1.1,7.1s-0.7,3.5-1,4.6c-0.3,1.1-0.4,1.6-0.4,1.6h-3.6c0.7-2.4,1.3-4.7,1.7-7
		C-18148.1,950.4-18147.7,948.3-18147.4,946.4L-18147.4,946.4z M-18143.1,952.2h3.3c-0.6,0.8-1,1.8-1,2.9c0,0.7,0.8,1.1,2.3,1.1
		c0.9,0,1.7,0,2.3,0c0.7,0,1.2-0.1,1.7-0.1l0.7,0v3.7c-1,0.1-1.9,0.1-2.8,0.2c-0.9,0-1.8,0-2.9-0.1c-1,0-1.9-0.2-2.8-0.7
		c-0.6-0.4-1.1-0.9-1.4-1.6c-0.3-0.6-0.4-1.3-0.4-1.9c0-0.6,0.1-1.2,0.3-1.8C-18143.7,953.2-18143.4,952.7-18143.1,952.2
		L-18143.1,952.2z M-18130.7,947.4v-3.8c1.4,0,2.7,0,3.6,0c1,0,2,0,3.1-0.1c-0.2-1-0.4-1.8-0.6-2.4c-0.1-0.6-0.2-0.9-0.2-0.9h3.8
		c0,0,0,0.2,0.1,0.6l0.2,1.3c0.1,0.5,0.2,0.9,0.3,1.3c0.9,0,1.7-0.1,2.6-0.2c0.9-0.1,1.8-0.2,3-0.4v3.8c-0.9,0.1-1.7,0.2-2.4,0.3
		c-0.7,0.1-1.5,0.2-2.3,0.2c0.5,1.9,0.9,3.3,1.2,4.3l0.4,1.5h-3.9c-0.1-0.7-0.3-1.5-0.6-2.5c-0.2-1-0.5-2-0.8-3.1
		c-0.8,0-1.6,0.1-2.5,0.1s-1.8,0-2.5,0L-18130.7,947.4z M-18128.1,950.2h3.9c-0.6,0.9-1,1.7-1.3,2.3c-0.3,0.5-0.5,1.1-0.5,1.8
		c0,0.3,0.1,0.6,0.2,0.9c0.2,0.3,0.5,0.6,0.9,0.7c0.7,0.3,1.5,0.4,2.3,0.3c1.1,0,2.2,0,3.3-0.2c1-0.1,1.8-0.2,2.4-0.4
		s0.9-0.2,0.9-0.2v4c-0.7,0.1-1.5,0.2-2.3,0.3c-0.8,0.1-2.3,0.2-4.6,0.2c-1.9,0.1-3.7-0.5-5.3-1.5c-1.2-0.9-1.8-2.3-1.7-3.7
		c0-0.8,0.2-1.6,0.5-2.4C-18129,951.5-18128.6,950.8-18128.1,950.2L-18128.1,950.2z M-18104.7,960.3h-3.5v-6.7
		c-0.7,0.9-1.3,1.8-1.8,2.6c-0.6,0.8-1.2,1.7-1.8,2.7v-5.7c1.4-1.9,2.6-3.6,3.7-5v-0.7h-3.7v-3.7h3.7V940h3.5v5.2
		c0.5-0.7,1.2-1.3,2-1.6c0.7-0.4,1.4-0.6,2.2-0.7c0.8-0.1,1.6,0.1,2.3,0.5c0.6,0.4,1,1.1,1.1,1.8c0.2,0.8,0.2,1.7,0.2,2.5
		c0,0.5-0.1,1.2-0.1,1.9c0,0.7-0.1,1.5-0.1,2.3c0,0.8-0.1,1.4-0.1,2c0,0.6,0,1,0,1.2c0,0.3,0,0.4,0.1,0.5c0.1,0.1,0.2,0.1,0.3,0.1
		c0.2,0,0.5-0.1,0.6-0.3c0.3-0.2,0.7-0.5,1-0.8v4c-0.4,0.3-0.9,0.6-1.4,0.8c-0.5,0.2-1,0.3-1.5,0.2c-0.9-0.1-1.7-0.5-2.2-1.3
		c-0.5-0.9-0.7-1.9-0.7-2.9c0-0.4,0-1,0-1.7c0-0.7,0.1-1.4,0.1-2.2c0-0.8,0.1-1.5,0.1-2.1c0-0.6,0.1-1,0.1-1.2c0-0.3,0-0.7-0.1-1
		c-0.1-0.3-0.4-0.5-0.7-0.4c-0.6,0.1-1.1,0.4-1.5,0.8c-0.7,0.6-1.3,1.3-1.8,2L-18104.7,960.3z M-18091.3,944.8v-3.7h11.3v3.4
		l-4.3,3.1c1.2-0.3,2.5-0.2,3.6,0.2c0.9,0.4,1.7,1.2,2.2,2.1c0.5,1,0.8,2.2,0.8,3.3c0,1.3-0.3,2.5-0.9,3.6c-0.6,1-1.5,1.8-2.5,2.3
		c-1,0.5-2.2,0.8-3.3,0.9c-1.2,0.1-2.3,0-3.4-0.3c-0.8-0.2-1.6-0.7-2.2-1.3c-0.5-0.7-0.8-1.5-0.8-2.3c0-0.7,0.1-1.3,0.4-1.9
		c0.3-0.7,0.8-1.2,1.5-1.5c0.9-0.4,1.9-0.5,2.8-0.3c0.9,0.1,1.8,0.5,2.5,1.2c0.6,0.6,1.2,1.4,1.5,2.2c0.3-0.3,0.6-0.7,0.7-1.2
		c0.1-0.5,0.2-0.9,0.2-1.4c0-0.7-0.3-1.5-0.9-1.9c-0.8-0.5-1.8-0.7-2.8-0.6c-1.1,0-2.1,0.2-3.1,0.7c-0.8,0.4-1.6,0.9-2.2,1.5
		l-2.8,2.4v-4.6l7.5-5.7L-18091.3,944.8z M-18086.7,954.7c-0.4-0.1-0.8,0.1-1,0.4c-0.2,0.3-0.2,0.7,0,1c0.2,0.4,0.6,0.7,1.1,0.8
		c0.5,0.1,1,0.2,1.4,0.1c0.2,0,0.4,0,0.6-0.1c-0.1-0.6-0.3-1.1-0.8-1.5C-18085.6,955.1-18086.1,954.8-18086.7,954.7L-18086.7,954.7z
		 M-18282,982.3h4.5c-0.5,0.4-1,0.9-1.5,1.3c-0.4,0.4-0.7,0.8-1,1.3c-0.3,0.4-0.4,0.9-0.4,1.3c0,0.3,0.1,0.6,0.2,0.8
		c0.3,0.3,0.6,0.5,1,0.5c0.8,0.2,1.7,0.2,2.5,0.2c1.3,0,2.4,0,3.3-0.1c0.9-0.1,2-0.2,3.3-0.4v3.9c-2.4,0.3-4.7,0.5-7.1,0.5
		c-1.9,0.1-3.7-0.3-5.3-1.3c-1.2-0.9-1.8-2.3-1.7-3.7c0-0.8,0.2-1.6,0.6-2.4C-18283.2,983.6-18282.6,982.9-18282,982.3z
		 M-18274.5,978.7h-4.5l2.1-1.9h-6.8v-3.7h13v2.8L-18274.5,978.7z M-18252.1,977v3.9c-1.5,0.1-2.8,0.2-3.9,0.3
		c-1.1,0.1-2.1,0.4-3.2,0.7c-0.9,0.3-1.8,0.7-2.6,1.3c-0.7,0.5-1.1,1.3-1.1,2.2c0,0.7,0.3,1.4,0.8,1.9c0.6,0.4,1.2,0.7,1.9,0.7
		c0.8,0.1,1.6,0.1,2.4,0.1c1,0,1.9-0.1,2.8-0.1c0.8-0.1,1.5-0.2,2.1-0.2l0.8-0.1v3.8c-1.8,0.2-3.7,0.3-5.6,0.3
		c-1.4,0-2.9-0.2-4.3-0.5c-1.3-0.3-2.5-0.9-3.4-1.8c-1-1.1-1.5-2.7-1.2-4.2c0.1-0.9,0.3-1.8,0.7-2.6c0.3-0.7,0.8-1.3,1.4-1.8
		c0.6-0.5,1.1-0.9,1.8-1.3l-1.1-7.1h3.3l0.9,5.8c1.2-0.4,2.4-0.7,3.6-0.9C-18254.8,977.2-18253.5,977.1-18252.1,977z M-18252.1,977
		v3.9c-1.5,0.1-2.8,0.2-3.9,0.3c-1.1,0.1-2.1,0.4-3.2,0.7c-0.9,0.3-1.8,0.7-2.6,1.3c-0.7,0.5-1.1,1.3-1.1,2.2c0,0.7,0.3,1.4,0.8,1.9
		c0.6,0.4,1.2,0.7,1.9,0.7c0.8,0.1,1.6,0.1,2.4,0.1c1,0,1.9-0.1,2.8-0.1c0.8-0.1,1.5-0.2,2.1-0.2l0.8-0.1v3.8
		c-1.8,0.2-3.7,0.3-5.6,0.3c-1.4,0-2.9-0.2-4.3-0.5c-1.3-0.3-2.5-0.9-3.4-1.8c-1-1.1-1.5-2.7-1.2-4.2c0.1-0.9,0.3-1.8,0.7-2.6
		c0.3-0.7,0.8-1.3,1.4-1.8c0.6-0.5,1.1-0.9,1.8-1.3l-1.1-7.1h3.3l0.9,5.8c1.2-0.4,2.4-0.7,3.6-0.9
		C-18254.8,977.2-18253.5,977.1-18252.1,977z M-18245.6,978.6h-3.6V975h3.7c0.1-0.8,0.1-1.8,0.2-2.8h3.6c-0.1,1-0.1,1.9-0.2,2.8h5.2
		v3.6h-5.4c0,0.4-0.1,0.7-0.1,1.1c0,0.4,0,0.7,0,1h3.9v3.5h-4c-0.1,1.1,0,2.2,0.3,3.2c0.4,0.8,1.2,1.3,2.1,1.2
		c0.6,0,1.3-0.1,1.8-0.4c0.4-0.2,0.6-0.6,0.8-1c0.2-0.4,0.3-0.8,0.3-1.2c0-0.6-0.1-1.1-0.2-1.7c-0.1-0.6-0.3-1.4-0.5-2.3h3.6
		c0.4,1.5,0.6,3,0.6,4.5c0,0.6-0.1,1.1-0.2,1.6c-0.4,1.6-1.4,2.9-2.9,3.5c-1.1,0.5-2.2,0.7-3.4,0.7c-1.4,0.1-2.8-0.4-3.9-1.2
		c-0.9-0.8-1.5-1.9-1.8-3.1c-0.3-1.3-0.3-2.6-0.3-3.9h-3.4v-3.5h3.5c0-0.3,0-0.7,0-1S-18245.6,978.9-18245.6,978.6z M-18227.8,982.3
		h4.5c-0.5,0.4-1,0.9-1.5,1.3c-0.4,0.4-0.7,0.8-1,1.3c-0.3,0.4-0.4,0.9-0.4,1.3c0,0.3,0.1,0.6,0.2,0.8c0.3,0.3,0.6,0.5,1,0.5
		c0.8,0.2,1.7,0.2,2.5,0.2c1.3,0,2.4,0,3.3-0.1c0.9-0.1,2-0.2,3.3-0.4v3.9c-2.4,0.3-4.7,0.5-7.1,0.5c-1.9,0.1-3.7-0.3-5.3-1.3
		c-1.2-0.9-1.8-2.3-1.7-3.7c0-0.8,0.2-1.6,0.6-2.4C-18228.9,983.6-18228.4,982.9-18227.8,982.3z M-18220.3,978.7h-4.5l2.1-1.9h-6.8
		v-3.7h13v2.8L-18220.3,978.7z M-18219.5,982.2v-3.8h1.8v3.8L-18219.5,982.2z M-18216.6,982.2v-3.8h1.8v3.8L-18216.6,982.2z
		 M-18212.4,979.4v-3.8c1.4,0,2.7,0,3.6,0c1,0,2,0,3.1-0.1c-0.2-1-0.4-1.8-0.6-2.4c-0.1-0.6-0.2-0.9-0.2-0.9h3.8c0,0,0,0.2,0.1,0.6
		l0.3,1.3c0.1,0.5,0.2,0.9,0.3,1.3c0.9,0,1.7-0.1,2.6-0.2c0.9-0.1,1.8-0.2,3-0.4v3.8c-0.9,0.1-1.7,0.2-2.3,0.3
		c-0.7,0.1-1.5,0.2-2.3,0.2c0.5,1.9,0.9,3.3,1.2,4.3l0.4,1.5h-3.9c-0.1-0.7-0.3-1.5-0.6-2.5s-0.5-2-0.8-3.1c-0.8,0-1.6,0.1-2.5,0.1
		s-1.8,0-2.5,0L-18212.4,979.4z M-18209.8,982.2h3.9c-0.6,0.9-1,1.7-1.3,2.3c-0.3,0.5-0.5,1.1-0.5,1.8c-0.1,0.7,0.4,1.4,1.1,1.6
		c0.7,0.3,1.5,0.4,2.3,0.3c1.1,0,2.2,0,3.3-0.2c1-0.1,1.8-0.2,2.4-0.4s0.9-0.2,0.9-0.2v4c-0.7,0.1-1.5,0.2-2.3,0.3
		c-0.8,0.1-2.3,0.2-4.6,0.2c-1.9,0.1-3.7-0.5-5.3-1.5c-1.2-0.9-1.8-2.3-1.7-3.7c0-0.8,0.2-1.6,0.5-2.4
		C-18210.7,983.5-18210.3,982.8-18209.8,982.2L-18209.8,982.2z M-18201.1,973v-3.7h1.8v3.7H-18201.1z M-18198.3,973v-3.7h1.8v3.7
		H-18198.3z M-18192.6,973.1h3.6c0,0,0,0.4,0,1.1c0,0.7-0.1,1.5-0.1,2.6c0,1.1-0.1,2.2-0.1,3.3s0,2.2-0.1,3.2c0,1,0,2.1,0.2,3.1
		c0.1,0.8,0.4,1.2,0.8,1.2c0.5,0,1.1-0.2,1.5-0.5c0.5-0.3,1-0.6,1.5-1c0.4-0.3,0.7-0.5,0.7-0.5v4c-0.2,0.1-0.4,0.3-0.5,0.4
		c-0.4,0.3-0.9,0.6-1.4,0.9c-0.7,0.3-1.4,0.5-2.1,0.6c-1.3,0.2-2.5-0.5-3.1-1.7c-0.8-1.8-1.1-3.7-1-5.6c0-1,0-2.2,0-3.4s0-2.5,0-3.6
		c0-1.2,0-2.1,0.1-2.9C-18192.6,973.5-18192.6,973.1-18192.6,973.1L-18192.6,973.1z M-18183,973.1h3.7c0,0,0.2,0.6,0.5,1.9
		c0.4,1.7,0.7,3.4,0.9,5.2c0.3,3.1,0.5,6.2,0.4,9.4h-3.6c0,0,0-0.2,0-0.6c0-0.3,0-1.2,0-2.5s-0.1-2.8-0.2-4.4
		c-0.1-1.6-0.3-3.2-0.6-4.7C-18182.1,975.9-18182.5,974.4-18183,973.1L-18183,973.1z M-18173.6,982.2v-3.3h6.2v-1.3h-6.6v-3.3h6.6
		v-2.1h3.5v2.1h5.1v3.3h-5.1v1.3h4.7v3.3h-4.7v1.8c0.8,0.3,1.5,0.6,2.2,1c0.6,0.4,1.2,0.7,1.8,1.2c0.3,0.2,0.5,0.4,0.7,0.6v4.1
		c0,0-0.3-0.2-0.7-0.6c-0.5-0.4-1-0.9-1.8-1.4c-0.7-0.5-1.4-1-2.2-1.5v0.7c0.1,1-0.2,2-0.8,2.8c-0.5,0.6-1.1,1-1.8,1.2
		c-0.7,0.2-1.4,0.3-2.2,0.2c-0.9,0-1.8-0.2-2.6-0.5c-0.8-0.3-1.4-0.8-1.9-1.4c-0.5-0.7-0.7-1.5-0.7-2.3c0-1,0.3-1.9,0.9-2.6
		c0.7-0.7,1.5-1.2,2.5-1.4c1.1-0.3,2.2-0.5,3.2-0.5v-1.3L-18173.6,982.2z M-18168.7,989.1c0.3,0,0.6-0.1,0.9-0.3
		c0.3-0.2,0.4-0.5,0.4-0.8v-1.5c-0.8-0.2-1.7-0.1-2.4,0.3c-0.6,0.3-0.9,0.6-0.9,1c0,0.4,0.1,0.7,0.4,0.9
		C-18169.8,989-18169.3,989.1-18168.7,989.1L-18168.7,989.1z M-18154.2,979.8h-2.1v-3.7h2.2c0-1.3,0-2.4,0.1-3.4h3.5
		c0,1-0.1,2.2-0.1,3.4h5.1c0-1.2-0.1-2.4-0.1-3.4h3.5c0,1,0.1,2.1,0.1,3.4h2.1v3.7h-2v1.8c0,1.1-0.2,2.2-0.7,3.3
		c-0.3,0.7-0.8,1.3-1.5,1.6c-0.9,0.3-1.8,0.4-2.7,0.3c-0.8,0-1.6-0.2-2.4-0.5v-3.1c0.6,0.1,1.1,0.2,1.5,0.3c0.3,0,0.6,0.1,0.9,0.1
		c0.3,0,0.5,0,0.8-0.1c0.2-0.1,0.4-0.3,0.5-0.6c0.1-0.5,0.2-0.9,0.2-1.4v-1.7h-5.3c0,0.1,0,0.4,0,1c0,0.6,0,1.2,0,2
		c0,0.7,0,1.4,0,2.1c0,0.7,0.1,1.4,0.4,2c0.2,0.5,0.6,0.9,1,1.1c0.6,0.3,1.3,0.4,2,0.4c1,0.1,1.9,0.1,2.9,0c0.9-0.1,1.9-0.2,3-0.4
		v3.7c-1,0.1-2,0.2-2.9,0.2c-0.9,0-1.9,0-3,0c-1.1,0-2.2-0.2-3.3-0.6c-1.1-0.3-1.9-1.1-2.5-2c-0.7-1.3-1.1-2.7-1-4.1
		c0-0.7-0.1-1.4,0-2.2S-18154.1,981.1-18154.2,979.8L-18154.2,979.8z M-18132.4,972.5h4.1c-0.5,1.3-0.9,2.5-1.3,3.7
		s-0.8,2.4-1.2,3.9c0.3-0.3,0.8-0.5,1.2-0.7c0.7-0.3,1.5-0.3,2.2,0c0.8,0.3,1.3,1,1.4,1.8c0.2,0.9,0.2,1.9,0.2,2.8
		c-0.1,0.8,0,1.6,0,2.4c0.1,0.7,0.3,1.1,0.7,1.1c0.4,0,0.8-0.2,1.1-0.6c0.4-0.4,0.9-0.8,1.4-1.3c0.5-0.5,0.9-0.9,1.2-1.3
		c0.2-0.2,0.3-0.4,0.5-0.6v5.1c-0.4,0.6-0.8,1.1-1.3,1.5c-0.4,0.4-1,0.8-1.5,1c-0.6,0.3-1.2,0.5-1.9,0.4c-1.2,0-2.4-0.7-2.9-1.8
		c-0.6-1.4-0.8-2.9-0.7-4.4c0.1-0.7,0.1-1.5,0-2.2c-0.1-0.5-0.5-0.7-1.1-0.6c-0.4,0.1-0.8,0.4-1.1,0.7c-0.3,0.4-0.6,0.8-0.8,1.3
		c-0.2,0.5-0.3,1-0.5,1.4c-0.2,0.8-0.4,1.7-0.6,2.6c-0.2,0.9-0.4,1.7-0.6,2.5h-3.8c0.5-2.2,1-4.3,1.5-6.1c0.5-1.9,1-3.9,1.7-6.2
		C-18133.9,977.2-18133.1,974.9-18132.4,972.5z M-18109.2,983.6l-0.7-7.6l-0.1-4h4.7l-0.1,4l-0.7,7.6L-18109.2,983.6z
		 M-18107.7,990.3c-0.7,0-1.3-0.2-1.8-0.7c-0.5-0.5-0.7-1.1-0.7-1.8c0-0.6,0.2-1.3,0.7-1.7c1-0.9,2.5-0.9,3.5,0
		c0.5,0.5,0.7,1.1,0.7,1.7c0,1.3-1,2.4-2.3,2.4C-18107.6,990.3-18107.7,990.3-18107.7,990.3L-18107.7,990.3z"/>
	<path id="パス_36451" class="st0" d="M-18410.5,805.1c53.2,0,96.3,43.2,96.3,96.4s-43.1,96.4-96.3,96.4
		c-53.2,0-96.3-43.2-96.3-96.4c0,0,0,0,0,0C-18506.9,848.3-18463.7,805.1-18410.5,805.1z"/>
	<path id="パス_16223" class="st2" d="M-18431.1,869.9c0.2,3.8,1.8,7.4,4.6,10.1l8.7,8.2c1.9,1.8,3.2,4,3.8,6.5
		c0,2.1,1.7,3.7,3.8,3.7c2,0,3.6-1.7,3.7-3.7c0.6-2.5,1.9-4.8,3.8-6.5l8.7-8.2c2.8-2.6,4.4-6.2,4.6-10.1H-18431.1z"/>
	<path id="パス_16224" class="st2" d="M-18410.2,903.7c-1.4,0-2.4,1.1-2.4,2.5s1.1,2.4,2.4,2.4c1.3,0,2.4-1.1,2.4-2.4
		C-18407.8,904.8-18408.9,903.7-18410.2,903.7C-18410.2,903.7-18410.2,903.7-18410.2,903.7z"/>
	<path id="パス_16225" class="st2" d="M-18410.2,917c-1.4,0-2.4,1.1-2.4,2.5c0,1.4,1.1,2.4,2.4,2.4c1.4,0,2.4-1.1,2.4-2.5
		C-18407.8,918.1-18408.9,917-18410.2,917C-18410.2,917-18410.2,917-18410.2,917z"/>
	<path id="パス_16226" class="st2" d="M-18377.2,847h-66.1v13.2h2.2c0,0.1,0,0.3,0,0.4v9.6c0,6.8,2.8,13.3,7.8,18l8.7,8.2
		c0.7,0.7,1.1,1.6,1.1,2.6v4c0,1-0.4,1.9-1.1,2.6l-8.7,8.2c-5,4.7-7.8,11.2-7.8,18v9.4h-2.2v13.2h66.1v-13.2h-2.2v-9.4
		c0-6.8-2.8-13.3-7.8-18l-8.7-8.2c-0.7-0.7-1.1-1.6-1.1-2.6v-4c0-1,0.4-1.9,1.1-2.6l8.8-8.2c5-4.7,7.8-11.2,7.8-18v-9.6
		c0-0.1,0-0.3,0-0.4h2.2V847L-18377.2,847z M-18402.5,899v4c0,2.5,1,4.9,2.8,6.6l8.8,8.2c3.9,3.6,6,8.7,6,14v9.4h-8.5l-13.6-13.6
		c-1.8-1.8-4.8-1.8-6.6,0l-13.6,13.6h-8.5v-9.4c0-5.3,2.2-10.3,6-14l8.7-8.2c1.8-1.7,2.8-4.1,2.8-6.6v-4c0-2.5-1-4.9-2.8-6.6
		l-8.7-8.2c-3.9-3.6-6-8.7-6-14v-9.6c0-0.1,0-0.3,0-0.4h50.6c0,0.1,0,0.3,0,0.4v9.6c0,5.3-2.2,10.3-6,14l-8.7,8.2
		C-18401.5,894.1-18402.5,896.5-18402.5,899z"/>
	<path id="パス_36452" class="st4" d="M-18314.2,804.5l-193.9,192.9"/>
</g>
</svg>
