<svg id="レイヤー_1" data-name="レイヤー 1" xmlns="http://www.w3.org/2000/svg" viewBox="0 0 376.1 94.84"><defs><style>.cls-1{fill:#005bac;}.cls-2{fill:#fff;}.cls-3{fill:#fdd000;}</style></defs><path class="cls-1" d="M485.9,400.75V408a1.82,1.82,0,0,1-1.86,1.81h-9v30.87a9.51,9.51,0,0,0,6.19,8.66,23.62,23.62,0,0,0,3.26.72c1,.18,1.23.71,1.35,1.47v7.2a1.68,1.68,0,0,1-1.41,1.79,17.27,17.27,0,0,1-4.56-.18A18.62,18.62,0,0,1,465.44,449a19.17,19.17,0,0,1-1.43-9V390.63a1.68,1.68,0,0,1,1.86-1.84h7.41a1.7,1.7,0,0,1,1.81,1.85v8.25H484A1.82,1.82,0,0,1,485.9,400.75Z" transform="translate(-109.8 -374.19)"/><path class="cls-1" d="M454.62,404.59v41.09c0,6.09-4.45,11.23-8.89,13.2-6.29,2.65-13.91,2.1-19-1.28a14.76,14.76,0,0,1-6.66-11.92v-16.5c-.08-6.24,2.32-10.65,6.87-13.58s11-3.82,16.24-3.62v-7.39a4.43,4.43,0,0,0-1.61-3.55,6.26,6.26,0,0,0-6.15-1.34,5.31,5.31,0,0,0-4,4.59c-.19,1.53,0,2.88-.11,3.83,0,1.27-.68,1.64-1.48,1.64h-8a1.94,1.94,0,0,1-1.82-1.94c0-5.51.71-7.15,1.6-9.19a17.79,17.79,0,0,1,15.49-9.94,17.18,17.18,0,0,1,14.76,7.58A17.81,17.81,0,0,1,454.62,404.59ZM443.14,445.7V423.06a25.42,25.42,0,0,0-7.58.72,6.23,6.23,0,0,0-4.08,5.4v16.53a4,4,0,0,0,3.31,3.73,9.08,9.08,0,0,0,5.64-.13A3.59,3.59,0,0,0,443.14,445.7Z" transform="translate(-109.8 -374.19)"/><path class="cls-1" d="M412.35,441.41c.4,5.86-1.92,12.46-7.59,16.13-4.34,2.93-11.3,3.95-15.95,1.92-5.15-2.12-10.9-7.85-11-15.53,0-14.7,0-25.42,0-39.68A16.19,16.19,0,0,1,388.36,390c7.28-3.13,16.88-.53,21.14,6.36,2.22,3.05,2.75,6.92,2.75,11.49,0,1.86-1.43,1.89-1.53,1.89h-7.54a1.73,1.73,0,0,1-1.82-1.76s0-2-.15-3.47a6.5,6.5,0,0,0-4-4.67,6.2,6.2,0,0,0-5.77.66,5.8,5.8,0,0,0-2.72,4.69v39c0,2,2.18,4.6,4.54,5.29a6.42,6.42,0,0,0,6.36-1.66c2-1.94,1.61-3.87,1.75-6.37a1.83,1.83,0,0,1,1.63-1.88h7.65A1.66,1.66,0,0,1,412.35,441.41Z" transform="translate(-109.8 -374.19)"/><path class="cls-1" d="M361.52,390.43v7.49c0,.93-.14,1.57-.93,1.95a11.88,11.88,0,0,0-5.2,4.16,11,11,0,0,0-2.35,5.84V458.7a1.74,1.74,0,0,1-1.82,1.85H343.9a1.64,1.64,0,0,1-1.85-1.86V410.24a22.06,22.06,0,0,1,14.32-20.64C357.67,389.09,361.52,387.49,361.52,390.43Z" transform="translate(-109.8 -374.19)"/><path class="cls-1" d="M332.59,404.59c0,14.12,0,37.54,0,41.09,0,6.09-4.45,11.23-8.88,13.2-6.3,2.65-13.92,2.1-19-1.28A14.77,14.77,0,0,1,298,445.68v-16.5c-.07-6.24,2.32-10.65,6.87-13.58s11-3.82,16.23-3.62v-7.39a4.44,4.44,0,0,0-1.59-3.55,6.3,6.3,0,0,0-6.17-1.34,5.29,5.29,0,0,0-4,4.59c-.19,1.53,0,2.88-.1,3.83,0,1.27-.68,1.64-1.49,1.64h-8a1.94,1.94,0,0,1-1.84-1.94c0-5.51.72-7.15,1.62-9.19a17.76,17.76,0,0,1,15.48-9.94,17.22,17.22,0,0,1,14.77,7.58A17.92,17.92,0,0,1,332.59,404.59ZM321.11,445.7V423.06a25.45,25.45,0,0,0-7.59.72,6.28,6.28,0,0,0-4.12,5.4l0,16.53a4,4,0,0,0,3.3,3.73,9.08,9.08,0,0,0,5.64-.13A3.59,3.59,0,0,0,321.11,445.7Z" transform="translate(-109.8 -374.19)"/><path class="cls-1" d="M290.36,400.75V408a1.81,1.81,0,0,1-1.85,1.81h-9v30.87a9.5,9.5,0,0,0,6.2,8.66A23.56,23.56,0,0,0,289,450a1.44,1.44,0,0,1,1.35,1.47v7.2a1.67,1.67,0,0,1-1.4,1.79,17.35,17.35,0,0,1-4.57-.18A18.63,18.63,0,0,1,269.9,449a19.17,19.17,0,0,1-1.43-9V390.63a1.69,1.69,0,0,1,1.87-1.84h7.41a1.7,1.7,0,0,1,1.8,1.85v8.25h8.94A1.82,1.82,0,0,1,290.36,400.75Z" transform="translate(-109.8 -374.19)"/><path class="cls-1" d="M257.79,397.7c1.83,3.49,1.89,6.48,1.69,10.84a1.35,1.35,0,0,1-1.47,1.24h-8a1.36,1.36,0,0,1-1.29-1.34c-.22-1.69.17-4.66-.87-6.2a5.52,5.52,0,0,0-4.76-2.6,5.41,5.41,0,0,0-4.7,3.27C236.06,409.14,243,413.67,247,418c1.22,1.24,8.37,7.92,10.57,10.78,6.38,9.24,4.77,22.52-3.26,28.07a18.64,18.64,0,0,1-17.85,2.42A17.59,17.59,0,0,1,225.26,445c-.09-1.77-.17-4.06-.1-5.33a1.71,1.71,0,0,1,1.79-1.84h7.55a1.59,1.59,0,0,1,1.62,1.71c0,2.78-.55,6.57,2.83,8.9a10.1,10.1,0,0,0,2.57,1.21,6.72,6.72,0,0,0,6.32-1.55c2.19-2.06,2.89-4.39,2.56-7.62-.07-2.53-1.72-4.91-2.93-6.33-5.86-5.9-11-11-16.33-16.47-3.79-5.16-5.62-12.52-3.09-18.58a15.45,15.45,0,0,1,9.14-9.2,19.47,19.47,0,0,1,5.74-1.22A16.78,16.78,0,0,1,257.79,397.7Z" transform="translate(-109.8 -374.19)"/><path class="cls-1" d="M200.15,395.47h0c4.27,7.34,8.42,14.57,10.24,18,3.52,7,4.53,12.59,3.52,20-1.72,12.8-10.71,22-23.22,28.44-9.52,5-16.35,6.73-28.88,7.15-12-.11-20.28-2.64-28.75-7.15-6.64-3.51-14.5-8.72-19.18-17.05l10-5.74a18.48,18.48,0,0,0,32-18.34Zm-.83,34.67a16.1,16.1,0,0,0-13.85-10.46,75,75,0,0,1,.1,21A16,16,0,0,0,199.32,430.14Zm-16.21,10.57a72.09,72.09,0,0,1-.1-21c-5.9.2-12,4.67-14.23,10.48A16,16,0,0,0,183.11,440.71Z" transform="translate(-109.8 -374.19)"/><path class="cls-2" d="M200.15,395.46h0L156,420.76a18.48,18.48,0,0,1-32,18.34l-10,5.74-.07,0-.93-1.83,0,0,10-5.7a18.48,18.48,0,0,1,32-18.34l44.2-25.3h0Zm-44.77,33.59A15.95,15.95,0,1,0,139.43,445,15.94,15.94,0,0,0,155.38,429.05Z" transform="translate(-109.8 -374.19)"/><path class="cls-1" d="M199.12,393.67,154.92,419a18.49,18.49,0,0,0-32,18.34l-10,5.7a31.79,31.79,0,0,1-2.82-9.55,33.2,33.2,0,0,1,3.51-20c.64-1.35,22.7-39.19,22.7-39.19L147,392.83A85.21,85.21,0,0,1,161,391.34a75.41,75.41,0,0,1,15.76,1.49l11-18.64S193.37,383.75,199.12,393.67Z" transform="translate(-109.8 -374.19)"/><path class="cls-3" d="M185.47,419.68a16.1,16.1,0,0,1,13.85,10.46,16,16,0,0,1-13.75,10.58A75,75,0,0,0,185.47,419.68Z" transform="translate(-109.8 -374.19)"/><path class="cls-3" d="M183,419.66a72.09,72.09,0,0,0,.1,21,16,16,0,0,1-14.33-10.57C171,424.33,177.11,419.86,183,419.66Z" transform="translate(-109.8 -374.19)"/><path class="cls-1" d="M139.43,413.1a15.95,15.95,0,1,1-15.94,15.95A15.94,15.94,0,0,1,139.43,413.1Zm13.23,15.95a13.23,13.23,0,1,0-13.23,13.22A13.23,13.23,0,0,0,152.66,429.05Z" transform="translate(-109.8 -374.19)"/><path class="cls-2" d="M139.43,415.82a13.23,13.23,0,1,1-13.22,13.23A13.23,13.23,0,0,1,139.43,415.82Zm10.68,13.23a10.68,10.68,0,1,0-10.68,10.67A10.68,10.68,0,0,0,150.11,429.05Z" transform="translate(-109.8 -374.19)"/><path class="cls-1" d="M139.43,418.37a10.68,10.68,0,1,1-10.67,10.68A10.68,10.68,0,0,1,139.43,418.37Z" transform="translate(-109.8 -374.19)"/></svg>