<?xml version="1.0" encoding="utf-8"?>
<!-- Generator: Adobe Illustrator 26.3.1, SVG Export Plug-In . SVG Version: 6.00 Build 0)  -->
<svg version="1.1" id="レイヤー_1" xmlns="http://www.w3.org/2000/svg" xmlns:xlink="http://www.w3.org/1999/xlink" x="0px"
	 y="0px" viewBox="0 0 220 246" style="enable-background:new 0 0 220 246;" xml:space="preserve">
<style type="text/css">
	.st0{opacity:0.496;}
	.st1{clip-path:url(#SVGID_00000052064130412336930560000014928592462963160723_);}
	.st2{fill:#FFFFFF;}
</style>
<g id="se_don" transform="translate(0 0.001)" class="st0">
	<g>
		<defs>
			<rect id="SVGID_1_" y="0" width="220" height="246"/>
		</defs>
		<clipPath id="SVGID_00000001665742836423994190000001740409549723360421_">
			<use xlink:href="#SVGID_1_"  style="overflow:visible;"/>
		</clipPath>
		
			<g id="グループ_3067" transform="translate(0 -0.001)" style="clip-path:url(#SVGID_00000001665742836423994190000001740409549723360421_);">
			<path id="パス_16214" class="st2" d="M152.7,74.6c-6.6-8.9-13.8-17.3-21.6-25.3l-13.4,9.1c7.6,8.4,14.6,17.4,20.8,26.8
				L152.7,74.6z"/>
			<path id="パス_16215" class="st2" d="M100.1,70.8c7.4,9.1,14.2,18.6,20.3,28.6l14.3-10.9c-6.5-9.1-14.7-19.4-21.2-27
				L100.1,70.8z"/>
			<path id="パス_16216" class="st2" d="M218.9,176.2l-35.9-10c3.8,11.8,6.6,32.4,6.6,40.3c0,1-0.1,1.9-0.3,2.8
				c-0.8,2.1-1.8,3.1-3,3.1c-1.2,0-2.6-1.2-4.1-3.6c-3.5-6.3-6.8-18.8-12.5-26.5c-5.3-6.9-9.9-7.5-13.1-7.5c-3.8,0-9.3,2.5-16.8,9.7
				c11-20.1,27.3-44.3,36-53.1l-35.3-18.3l-8.3,4V97.7C115.8,106,85.7,114,66,114c-7.4,0-16.5-0.9-23-3.3c-3.9-1.5-5.6-3.9-5.6-6.5
				c0.1-2.2,1-4.3,2.4-5.9c3.7-4.5,8-8.6,12.8-12c2.8,5.4,5.4,10.3,7.4,14.4l31.8-23.8c-1.7-3.3-3.7-7-5.8-10.9
				c17.8-9.4,36.8-18.1,52.4-24.4L107.6,5l-19.1,8.7l2.2,6.3c-6.7,3.7-14.5,8.5-23,14c-5.2-8.5-10-16.3-13.9-21.8l2-4.1L15,0
				L1.1,13.1l8.5,3.5c7.6,9.1,17.3,24.4,26.6,40.1C31,61,26,65.4,21.6,69.6C8.5,82.2,0,94.9,0,111c0,14.8,9.5,26,21.7,32.7
				c13.4,7.2,33.1,9.2,51.3,9.2c17.2,0.1,34.4-1.3,51.4-4.2c-10.7,21.4-23.6,50.7-35.1,79.9l31.4,17.3c8.6-22.7,17.1-34.2,22.4-38.2
				c0.9-0.8,2-1.2,3.2-1.3c2.1,0,3.5,1.9,4.4,4c1.2,3,4.2,15.5,10.5,24.3c6.3,8.5,15,10.7,23.4,10.7c10.5,0,20-3.3,27.6-15.4
				c5.9-9.2,8-23.9,8-37.6C220,187.1,219.6,181.6,218.9,176.2 M132.5,133.5V131l0.8,1C133,132.5,132.7,133,132.5,133.5"/>
		</g>
	</g>
</g>
</svg>
