<?xml version="1.0" encoding="utf-8"?>
<!-- Generator: Adobe Illustrator 26.3.1, SVG Export Plug-In . SVG Version: 6.00 Build 0)  -->
<svg version="1.1" id="レイヤー_1" xmlns="http://www.w3.org/2000/svg" xmlns:xlink="http://www.w3.org/1999/xlink" x="0px"
	 y="0px" viewBox="0 0 80 134" style="enable-background:new 0 0 80 134;" xml:space="preserve">
<style type="text/css">
	.st0{opacity:0.497;}
	.st1{clip-path:url(#SVGID_00000031926165200011024380000005245059596348018069_);}
	.st2{fill:#FFFFFF;}
</style>
<g id="se_pachi" class="st0">
	<g>
		<defs>
			<rect id="SVGID_1_" width="80" height="134"/>
		</defs>
		<clipPath id="SVGID_00000049197769632407217200000002702759665307698091_">
			<use xlink:href="#SVGID_1_"  style="overflow:visible;"/>
		</clipPath>
		<g id="グループ_3069" style="clip-path:url(#SVGID_00000049197769632407217200000002702759665307698091_);">
			<path id="パス_16217" class="st2" d="M25.7,43.5c-3.1,10.3-7.8,19.1-12,24.6L0,48.6c5.1-4.3,7.1-7.9,9.2-14
				c2-5.8,2.6-13.6,2.6-19.3l-4.1-2.6l6.1-5.3l17.7,3.3C30.7,21.8,28.8,32.8,25.7,43.5 M53.2,63.1C49,48.5,43.1,34.5,35.7,21.3
				L49.1,8.7C57.7,21,64.9,34.1,70.6,47.9L53.2,63.1z M62.8,17.2c-4.7,0-8.5-3.8-8.5-8.6S58.1,0,62.8,0c4.7,0,8.5,3.8,8.5,8.6
				C71.3,13.3,67.5,17.2,62.8,17.2C62.8,17.2,62.8,17.2,62.8,17.2 M62.8,5c-2,0-3.6,1.6-3.6,3.6s1.6,3.6,3.6,3.6s3.6-1.6,3.6-3.6
				l0,0C66.4,6.6,64.8,5,62.8,5C62.8,5,62.8,5,62.8,5"/>
			<path id="パス_16218" class="st2" d="M75.6,109.8c-4.5-1.8-11-2.8-17.2-3.2v2.9c0.1,5.9-2,11.6-6.1,15.9
				c-4.3,4.2-10.7,7.2-16.4,8.6l-9-16.1c6.4-0.3,11.5-1,14.1-4c1.5-1.5,2.2-3.6,2.1-5.8v-1.5c-7.8,0.6-15.6,2.2-23,4.8L13.7,97
				l5.9-7.8l4.2,4.9c5.4-0.6,11.8-1.1,18.3-1.5c-0.3-1.8-0.5-3.4-0.8-5.2c-4.7,0.6-9.4,0.9-14.1,1L19,72.9c4.6,0.9,9.2,1.4,13.8,1.3
				c1.8,0,3.4-0.1,5-0.1c5-0.2,9.1-1.2,11.1-2.3l-1.8-2.2l8-3.1l17.8,10.7c-5,3.3-10.5,5.8-16.3,7.3c0.2,2.5,0.5,5.2,0.8,7.6
				c1.5,0,3-0.1,4.4-0.1c2.1,0,4.1,0.1,6,0.1l5.8-6.8l6.4,7.2L75.6,109.8z"/>
		</g>
	</g>
</g>
</svg>
