<?xml version="1.0" encoding="utf-8"?>
<!-- Generator: Adobe Illustrator 26.4.1, SVG Export Plug-In . SVG Version: 6.00 Build 0)  -->
<svg version="1.1" id="sec02_text03_pc" xmlns="http://www.w3.org/2000/svg" xmlns:xlink="http://www.w3.org/1999/xlink" x="0px"
	 y="0px" viewBox="0 0 953 310" style="enable-background:new 0 0 953 310;" xml:space="preserve">
<style type="text/css">
	.st0{clip-path:url(#SVGID_00000096047697628689485200000014575153081142851729_);}
	.st1{fill:#004385;}
</style>
<g>
	<defs>
		<rect id="SVGID_1_" width="953" height="310"/>
	</defs>
	<clipPath id="SVGID_00000116939410986157516860000009316536682610026375_">
		<use xlink:href="#SVGID_1_"  style="overflow:visible;"/>
	</clipPath>
	<g id="グループ_4475" style="clip-path:url(#SVGID_00000116939410986157516860000009316536682610026375_);">
		<path id="パス_19976" class="st1" d="M30.8,75.5c-4.5,0-9.1,0.4-13.6,0.4c-3.2,0-3.3-1.6-3.3-4.3v-0.4c0-2.8-1.8-4-3.5-4
			c-0.4,0-0.8,0.1-1.3,0.1c-3.7,0-6.4,0-6.4-3.4c0-1.8,0.4-5,0.4-7.6v-3c0-3.8-0.3-7.9-0.3-9.2c0-4.8,5-4.9,8.6-4.9
			c4.8,0,9.7,0.3,14.5,0.3H43c2.3,0,4-0.9,4-3.4c0-2.5-0.5-5.3-0.5-6.1c0-1.6,1.4-1.8,2.8-1.8c3.4,0,10.5,0.5,14,0.8
			c0.5,0.1,1.1,0.1,1.6,0.1c2.4,0.3,4.2,0.4,4.2,1.9c0,0.6-0.6,1.1-1.4,1.8c-0.8,0.9-1.2,2.2-1.1,3.4c0,2.6,2.4,3.3,4.5,3.3h16.8
			c4.8,0,9.7-0.3,14.5-0.3c3.5,0,8.7,0.1,8.7,4.9c0,0.9-0.4,5.3-0.4,9.2v3.4c0,2.8,0.4,5.8,0.4,7.6c0,3-1.9,3.4-5.7,3.4H103
			c-2.6,0-4,1.8-4,3.4v0.5c0,3-0.4,4.3-3.4,4.3c-4.5,0-9-0.4-13.5-0.4H67.6c-0.9,0-1.6,0.7-1.6,1.6v0.8c0,0.9,0.7,1.6,1.6,1.6h10.8
			c4.5,0,9.1-0.3,13.6-0.3c3,0,3.3,1.3,3.3,4.8V89c0,3.7-0.3,4.9-3.3,4.9c-4.5,0-9.1-0.3-13.6-0.3h-11c-2.1,0-2.5,1.4-2.5,2
			c0,1.8,1.6,1.8,2.5,1.8h27.4c4.9,0,9.8-0.3,14.8-0.3c3,0,3.3,1.3,3.3,5.3v5.2c0,3.3-0.3,4.5-3.3,4.5c-4.9,0-9.8-0.3-14.8-0.3H80.2
			c-1.6,0-2.8,0-2.8,1.3c0,1.6,5.5,4,7.1,4.8c7.6,3.7,15.6,6.2,24,7.6c2.6,0.4,4.9,0.4,4.9,3.3c-0.2,3.3-1.3,6.6-3.2,9.3
			c-2.4,3.4-3.5,5-6.2,5c-1.5-0.1-3.1-0.4-4.5-0.9c-7.9-2-16.6-4.8-23.8-8.8c-5.8-3.2-11-7.3-15.5-12.1c-0.8-0.9-2.4-2.1-3.7-2.1
			c-1.4,0-2.6,1.3-3.5,2.3c-9.2,9.7-24.5,16.3-37.3,19.2c-2.5,0.6-5.1,1-7.7,1.3C3.2,142,0,131.4,0,128.6c0-3,2.6-3,7.1-3.8
			c8.4-1.4,17.7-3.9,24.8-8.3c0.9-0.5,3.8-2.4,3.8-3.3c0-1.1-1.1-1.3-2.8-1.3H18.5c-4.9,0-10,0.3-14.9,0.3c-2.9,0-3.2-1.1-3.2-4.9
			v-5c0-3.9,0.3-5,3.3-5c4.9,0,9.8,0.3,14.8,0.3h25.6c1.8,0,2.4-1,2.4-2c0-1.3-0.9-1.8-2-1.8h-9.6c-4.5,0-9,0.3-13.5,0.3
			c-3.2,0-3.4-1.4-3.4-5.2v-4.7c0-3.5,0.4-4.8,3.4-4.8c4.5,0,9.1,0.3,13.5,0.3h11.3c0.9,0,1.6-0.7,1.6-1.6v-0.8
			c0-0.9-0.7-1.6-1.6-1.6L30.8,75.5z M45.4,61.2c1.3,0,2.4-0.5,2.4-1.9c0-2.9-0.3-3.9-2.9-3.9H23.8c-1.4,0-2.5,0.4-2.5,2
			c0,2.6,0.4,3.7,3.2,3.7h0.3c2,0,4,0.1,6.1,0.1L45.4,61.2z M82.1,61.2c2.5,0,5-0.1,7.6-0.1c2.6,0,2.8-1.3,2.8-3.5
			c0-1.8-1.1-2.1-2.6-2.1H71c-1,0-1.6,0-1.6,0.8v0.6c0,0.9-0.8,1.4-1.5,1.8c-0.5,0.3-0.9,0.5-0.9,1.1c0,0.8,0.5,1.5,2.1,1.5
			L82.1,61.2z"/>
		<path id="パス_19977" class="st1" d="M47,253.8c-1.9,0-3,0.1-3,1.4c0,1.1,1.8,3,3,4.5c0.8,1,3.5,4.4,3.5,5.5c0,0.6-0.6,1-1.4,1
			c-0.9-0.1-1.8-0.2-2.6-0.4c-0.4-0.1-0.8-0.1-1.1-0.1c-0.7,0-1.5,0.2-2.1,0.5c-12.5,4.2-17.3,5-30.3,7.1c-1,0.1-3.4,0.5-4.4,0.5
			c-4.3,0-7.8-10-7.8-11.9c0-1.5,0.8-1.5,3.9-1.8c8-0.7,16-2,23.8-3.9c3.4-0.9,4-0.9,4-1.8c0-0.5-0.4-0.8-0.9-0.8
			c-2.5,0-4.9,0.3-7.4,0.3c-3.5,0-8.4,0-8.4-4.8c0-1.9,0.4-5.2,0.4-8.7v-22.9c0-3.7-0.4-6.8-0.4-8.8c0-4.5,4.7-4.7,8.1-4.7
			c4.5,0,9.2,0.3,13.9,0.3h38.8c4.5,0,9.2-0.3,13.9-0.3c3.4,0,7.9,0.1,7.9,4.7c0,2.5-0.4,5.4-0.4,8.8v22.9c0,3.5,0.4,6.8,0.4,8.7
			c0,4.8-4.9,4.8-8.4,4.8c-1.6,0-3.4-0.1-5.2-0.1c-0.5,0-1.4,0-1.4,0.8s1.6,1,2.5,1.3c6.2,1.6,18.5,4,24.7,4c1.4,0,3.5,0,3.5,1.9
			c0,0.8-2.5,12-7.9,12c-4.5,0-14.8-2-19.4-3.2c-4-1-16.3-4.2-19.8-5.5c-0.8-0.4-1.8-0.9-1.8-1.8c0-1,1.1-2.8,1.9-4
			c0.2-0.3,0.4-0.7,0.6-1c0.5-0.8,1.6-2.3,1.6-3.2c0-1.3-1.1-1.4-2.5-1.4L47,253.8z M7.9,168.2c0-4.8,2.8-4.5,8.8-4.8
			c8.6-0.4,21.4-1.5,29.8-3.9c0.4-0.2,0.7-0.3,1.1-0.4c1.8,0,2.9,1.8,4.5,4.5c0.9,1.4,1.8,2.6,3,4.8c0.4,0.6,0.8,1.3,0.9,2
			c-0.2,0.9-1,1.6-1.9,1.5c-0.7-0.1-1.3-0.3-1.9-0.6c-0.7-0.2-1.3-0.4-2-0.5c-7.4,1.2-14.9,2-22.4,2.4c-2.5,0.1-3.3,0.3-3.3,1.6
			c0,0.9,0.3,1.9,1.4,1.9h18.8c3.5,0,8.1-0.3,9.8-0.3c2.3,0,2.5,1.5,2.5,4.3v3.8c0,2.3-0.1,4.2-2.4,4.2c-1.5,0-2.9-0.1-4.4-0.1
			c-1.9-0.2-3.6,1.3-3.8,3.2c0,0.1,0,0.2,0,0.3c0,2.1,0.3,4.2,0.3,6.2c0,3-1.4,3.4-5.9,3.4h-6c-3.2,0-4.5-0.1-4.5-3.2
			c0-2.4,0.3-4.7,0.3-7.1V190c0-0.8-0.6-1.5-1.4-1.5c0,0-0.1,0-0.1,0h-2.6c-2.9,0-3.2,1.9-3.5,3.4c-0.9,3.1-2.1,6-3.7,8.8
			c-1.8,3.3-2.5,4.7-4.9,4.7c-3.3,0-12.7-4.9-12.7-7.4c0-0.4,0.2-0.8,0.5-1.1c4.4-5.4,5.9-13.2,5.9-20.1L7.9,168.2z M77.5,218.7
			c0.9,0,1.6-0.7,1.6-1.6v-0.9c0-0.9-0.7-1.6-1.6-1.6h-41c-0.9,0-1.5,0.7-1.5,1.6c0,0,0,0,0,0v0.9c0,0.9,0.6,1.6,1.5,1.6
			c0,0,0,0,0,0H77.5z M37.1,226.7c-1.1,0-2,0.9-2,2c0,0,0,0,0,0.1v0.4c0,1.1,0.9,2,2,2c0,0,0,0,0.1,0h40.1c1.1,0,2-0.9,2-2
			c0,0,0,0,0-0.1v-0.4c0-1.1-0.9-2-2-2c0,0,0,0-0.1,0H37.1z M37.1,239.2c-1.1,0-2,0.9-2,2c0,0,0,0,0,0.1v0.5c0,1.1,0.9,2,2,2h40.1
			c1.1,0,2-0.9,2-2v-0.5c0-1.1-0.9-2-2-2c0,0,0,0-0.1,0H37.1z M78.8,188.5c-2.4,0-2.9,1.3-3.4,3c-0.9,2.8-4.3,12-7.6,12
			c-3.4,0-13.2-4.4-13.2-6.7c0-0.5,0.4-0.9,0.9-1.4c4.2-5.5,5.5-12.4,5.5-19.2v-7.9c0-4.4,2.6-4.4,8.7-4.7
			c6.6-0.3,24.3-2.1,29.9-4.3c0.5-0.2,1.1-0.4,1.6-0.4c1.5,0,2.4,1.5,4,3.7c0.9,1.1,5.3,6.9,5.3,7.8c0,0.8-1,1.1-1.6,1.1
			c-0.7-0.1-1.5-0.3-2.1-0.6c-0.5-0.2-1.1-0.4-1.6-0.4c-0.4,0-0.8,0-1.1,0.1c-4.4,1-18.9,2.4-24.1,2.8c-1.5,0.1-2.5,0.1-2.5,1.1
			c0,0.9,0.1,2,1.4,2h20.4c3.5,0,6.9-0.3,10.3-0.3c2.3,0,2.5,1.6,2.5,4.3v4.2c0,2.1-0.3,3.9-2.4,3.9c-1.1,0-4.3-0.1-6.2-0.1
			c-1.9-0.1-3.6,1.4-3.7,3.3c0,0.1,0,0.2,0,0.3c0,2.1,0.3,4.2,0.3,6.3c0,3.3-2,3.4-4.8,3.4h-8.6c-3.3,0-4-0.9-4-3
			c0-2.5,0.3-4.9,0.3-7.3V190c0-0.8-0.6-1.4-1.4-1.5L78.8,188.5z"/>
		<path id="パス_19978" class="st1" d="M204.2,89.5c0-1.6-1-4.6-3-4.6c-2.3,0-5.6,4.6-6.9,6.3c-3.3,4.3-8.2,11.5-14.1,11.5
			c-7.9,0-32.2-13.5-32.2-22c0-2,3-4.3,4.3-5.9c19.4-20.1,34.5-44.1,46.1-69.4c1.3-3,2-5.3,5.6-5.3c3.3,0,33.2,6.3,38.2,7.6
			c8.9,2.3,8.9,3.3,8.9,5.3c0,3.6-5.6,5.6-8.6,6.3c-3.3,0.7-5.9,2.3-5.9,5.9c0,3.3,2.6,4.3,5.6,4.3h144.8c12.2,0,24.7-0.7,36.9-0.7
			c7.6,0,8.6,3,8.6,12.2v20.1c0,9.2-0.7,12.2-8.2,12.2c-3.6,0-7.2-0.3-10.9-0.3c-5.6,0-9.5,3-9.5,9.2v15.5c0,6.3,4.9,8.6,10.2,8.6
			c7.6,0,15.1-0.7,22.7-0.7c8.2,0,8.9,3.6,8.9,12.8v17.1c0,10.2-0.7,13.5-9.5,13.5c-7.6,0-14.8-0.7-22.4-0.7c-5.3,0-9.9,3.6-9.9,8.9
			v16.5c0,5.6,4.6,9.2,9.9,9.2c5.6,0,10.9-0.7,16.1-0.7c8.6,0,9.2,3.9,9.2,13.8v16.8c0,10.2-0.7,14.1-9.5,14.1
			c-3.6,0-7.6-0.3-11.2-0.3c-2.6,0-6.6,0.7-6.6,3.9c0,2.3,3.3,5.9,4.6,7.9c7.6,8.9,16.8,21.4,23.7,30.9c2,2.6,5.9,7.2,5.9,10.5
			c0,7.9-24.7,22-32.6,22c-4.9,0-7.9-5.3-10.2-8.9c-6.9-11.5-22-31.9-31.3-41.8c-1.3-1.3-3.9-3.6-3.9-5.6c0-4.3,11.8-12.5,15.5-14.2
			c2-1,4.3-2,4.3-3.3c0-2-3-2.3-4.3-2.3H211.8c-1,0-3.9,0.3-3.9,2.3c0,2.3,16.1,8.6,18.8,9.5s5.6,2.6,5.6,5.9c0,3.6-3.6,4.3-5.6,4.6
			c-3,1-3.9,2.3-5.3,5.3c-6.8,13.6-14.6,26.7-23.4,39.2c-6.6,9.2-7.2,10.5-11.8,10.5c-9.2,0-34.5-14.5-34.5-21.4
			c0-1.6,1.3-3.3,2.6-4.9c12.2-15.1,18.4-28.3,28-43.8c0.8-0.9,1.2-2.1,1.3-3.3c0-1.6-1-3.3-3.6-3.3c-1.6,0-3.6,0.3-5.3,0.3
			c-14.1,0-14.1-0.3-14.1-22.4v-8.6c0-9.9,0.7-13.8,9.5-13.8c8.2,0,16.5,0.7,24.7,0.7c4.9,0,9.5-3.6,9.5-8.9V157
			c0-5.3-4.3-9.2-10.2-9.2c-10.5,0-21.1,1-31.6,1c-7.9,0-8.6-3.9-8.6-13.5v-15.5c0-9.9,0.7-14.5,8.6-14.5c10.9,0,21.7,1,32.2,1
			c5.9,0,8.9-3.9,9.5-9.2L204.2,89.5z M261.8,233c4.2-0.7,8.5-1,12.8-1c9.9,0,11.2,2.3,14.5,20.4c1.6,9.5,4.9,25.7,4.9,34.6
			c0,6.3-4.6,7.9-10.5,9.2c-9.4,1.9-19,3-28.6,3.3c-7.9,0-8.6-3.6-8.9-10.2c-0.7-12.2-2.3-33.2-5.3-44.4c-0.4-1.1-0.6-2.2-0.7-3.3
			C240.1,236.3,249.7,235.3,261.8,233 M249.7,72.1c-2.9,0-5.2,2.3-5.3,5.1c0,0,0,0.1,0,0.1V101c0,2.9,2.3,5.2,5.1,5.3
			c0,0,0.1,0,0.1,0h2.3c2.9-0.1,5.2-2.4,5.3-5.3V77.3c0-3-2.3-4.9-5.3-5.3L249.7,72.1z M252,183c2.8-0.2,5.1-2.4,5.3-5.3V153
			c-0.2-2.8-2.4-5.1-5.3-5.3h-2.3c-2.9,0.1-5.2,2.4-5.3,5.3v24.7c0,2.6,2,4.9,5.3,5.3H252z M302.6,72.1c-2.9,0-5.2,2.3-5.3,5.1
			c0,0,0,0.1,0,0.1V101c0,2.9,2.3,5.2,5.1,5.3c0,0,0.1,0,0.1,0h2c2.9,0,5.2-2.3,5.3-5.1c0,0,0-0.1,0-0.1V77.3c0-3-2-4.9-5.3-5.3
			L302.6,72.1z M304.6,183c2.9-0.1,5.2-2.4,5.3-5.3V153c-0.1-2.9-2.4-5.2-5.3-5.3h-2c-2.9,0.1-5.2,2.4-5.3,5.3v24.7
			c0,2.6,2,4.9,5.3,5.3L304.6,183z M321.7,232.3c4.6-0.7,14.8-2.6,19.4-2.6c9.2,0,10.5,6.3,18.8,37.2c3,10.9,4.6,17.8,4.6,20.1
			c0,4.9-6.3,7.9-19.4,9.5c-5.6,0.7-16.1,2.3-21.4,2.3c-5.9,0-6.9-4.6-8.2-16.5c-1.5-12.8-4.2-25.5-7.9-37.8c-0.5-1.6-0.8-3.3-1-4.9
			c0-3.9,6.9-5.6,12.5-6.6C320.1,232.7,320.7,232.7,321.7,232.3 M355.6,72.1c-2.9,0-5.2,2.3-5.3,5.1c0,0,0,0.1,0,0.1V101
			c0,2.9,2.3,5.2,5.1,5.3c0,0,0.1,0,0.1,0h2.3c2.9,0,5.2-2.3,5.3-5.1c0,0,0-0.1,0-0.1V77.3c0-3-2.3-4.9-5.3-5.3L355.6,72.1z
			 M357.9,183c2.9-0.1,5.2-2.4,5.3-5.3V153c-0.1-2.9-2.4-5.2-5.3-5.3h-2.3c-2.9,0.1-5.2,2.4-5.3,5.3v24.7c0,2.6,2.3,4.9,5.3,5.3
			H357.9z"/>
		<path id="パス_19979" class="st1" d="M712.3,173.1c4.9-1,6.3-3.6,6.3-8.2V43.8c0-10.5,0-22-1-30.3c-0.3-1.1-0.4-2.2-0.3-3.3
			c0-4.3,3.3-4.6,6.6-4.6c10.5,0,24.7,0.7,35.5,1.3c3.3,0,10.5,0,10.5,4.9c0,2-1.6,3-3.3,4.6c-2.3,2.3-2.3,5.3-2.6,8.2
			c-0.3,3.6-0.3,9.9-0.3,16.5v115.5c0,4.9,2,5.3,3.6,5.3c2.6,0,8.9-1.6,11.5-2.3c1.4-0.4,2.8-0.6,4.3-0.7c6.3,0,7.9,7.2,9.5,21.4
			l1,8.6c0.5,2.8,0.8,5.7,1,8.6c0,7.9-4.6,8.2-16.8,9.9c-5.9,0.7-14.1,1.3-14.1,8.9v23.7c0,18.1,1,36.2,1,54.3
			c0,7.9-3.3,8.9-13.2,8.9H731c-9.9,0-13.5-0.7-13.5-8.9c0-18.1,1-36.2,1-54.3V228c0-5.9-3.3-8.2-7.9-8.2c-1,0-2,0.1-3,0.3
			l-47.1,9.5c-4.3,1-22.7,5.6-25,5.6c-6.6,0-8.6-11.5-9.5-16.5c-0.7-1.6-1.3-5.6-3.6-5.6c-1.6,0-4.6,3.3-5.9,4.3
			c-2,1.6-4.6,3.6-7.2,3.6c-4.6,0-11.5-12.2-14.1-16.1c-0.7-1.3-3-4.9-4.9-4.9c-1.3,0-1.6,2-1.6,3v44.1c0,15.5,1,30.9,1,46.7
			c0,7.2-3.6,7.9-13.2,7.9h-19.1c-9.5,0-12.8-0.7-12.8-7.9c0-15.5,0.7-31.3,0.7-46.7v-9.5c0-0.7,0-2-1-2c-1.3,0-2.3,2.6-3.3,4.9
			c-3,5.6-12.2,24-19.1,24c-5.9,0-16.1-9.2-20.4-12.8c-4.6-3.9-12.2-9.5-12.2-15.1c0-3.3,2-4.9,3.9-6.9c13.2-15.1,28-41.5,35.5-59.9
			c2-4.3,7.2-16.8,7.2-20.7c0-3.3-3.9-3.6-7.6-3.6c-7.9,0-16.1,1-23.7,1s-8.2-4-8.2-14.2v-19.1c0-9.9,0.7-13.5,8.6-13.5
			c6.6,0,16.8,1,28,1h3.3c5.6,0,8.9-3.9,8.9-9.5V22.7c0-2.6-0.7-6.9-0.7-9.2c0-4.3,1-7.6,5.6-7.6c4.9,0,29,1.6,35.2,2.3
			c4.6,0.3,11.2,0.3,11.2,3.3s-2.3,3.3-4.3,5.3c-2.6,3-3,4.9-3.3,8.9c-0.3,9.5-0.3,19.1-0.3,28.6v37.5c0,6.3,6.3,8.9,11.5,8.9
			c7.9,0,15.8-1,23-1c7.6,0,8.6,3.3,8.6,12.5v21.7c0,8.9-0.7,12.5-8.2,12.5c-4.9,0-10.2-0.7-15.1-0.7c-1.6,0-5.3,0-5.3,2.3
			c0,3.9,13.2,19.7,20.1,28c1.3,1.6,2.3,3,3,3.6c3.3,3.9,5.6,7.2,11.5,7.2c3.6,0,8.9-1,12.8-1.6L712.3,173.1z M518.8,23
			c6.9,0,9.5,8.6,15.1,31.3c1.3,5.6,5.6,25.7,5.6,29.9c0,8.6-21.1,13.8-27.6,13.8c-6.3,0-6.3-5.3-7.2-10.5
			c-2-12.8-8.2-39.2-12.8-51.3c-0.4-0.9-0.6-1.9-0.7-3C491.2,26.7,513.5,23,518.8,23 M642.2,30c3.3,1,10.5,2.6,10.5,6.9
			c0,2.6-2.3,3.6-4.6,4.3c-4.3,1.6-4.3,2.3-5.6,7.2c-3.5,14.2-7.8,28.1-12.8,41.8c-1.3,3.6-3,6.9-6.9,6.9c-1.6,0-28.3-5.6-28.3-11.8
			c0-1.6,3-10.5,3.6-12.8c4.6-14.5,8.9-29.3,10.9-44.8c0.7-3,1-5.9,4.6-5.9C615.2,21.7,638.2,29,642.2,30 M669.8,103.7
			c5.3,5.3,30.9,32.6,30.9,37.8c0,5.6-22.4,25.3-29.3,25.3c-2,0-3.3-1.6-4.3-3.3c-6.6-8.2-21.1-26.3-28.3-32.9
			c-1.6-1.3-3.6-2.6-3.6-4.9c0-5.6,21.1-26.3,29-26.3C666.9,99.4,667.2,101,669.8,103.7 M685.6,30.6c4.9,4.9,30.3,31.9,30.3,37.2
			c0,5.6-21.4,23.7-29.9,23.7c-1.6,0-2.6-1.3-3.6-2.6c-5.9-7.6-22-27-29-32.9c-1.6-1.3-3.6-3-3.6-4.9c0-5.3,21.4-25,29.3-25
			C681.7,26,682.3,27.6,685.6,30.6"/>
		<path id="パス_19980" class="st1" d="M853.1,182.1c-0.7,5.6,0.9,11.3,4.4,15.7c3.5,4.5,8.3,6.8,14.5,6.8
			c5.9,0.1,11.4-2.1,16.5-6.5c4.9-4,8.3-9.5,10-15.6l28.1-113.1l6.4-30.1c1.9-9.6,0.4-17.9-4.7-24.8C923.2,7.8,916.1,4.4,907,4.3
			c-8.9-0.1-17,3.3-24.5,10.1c-7.5,6.8-11.9,15-13.4,24.4l-4.2,30.2L853.1,182.1z"/>
		<path id="パス_19981" class="st1" d="M893.2,252.5L893.2,252.5l-0.5-1.4l0,0c-2.9-7.8-5.7-15.4-5.7-15.4l-10.7,14.5
			c-3.8-0.9-7.6-1.3-11.5-1.3c-3.6,0-7.1,0.4-10.6,1.1l-5.3-14.7c0,0-21.6,29.5-22.2,30.6c-3.2,4.6-5.1,10.1-5.4,15.7
			c-0.1,2.5,0.1,5.1,0.8,7.5l0,0l0.4,1.5l0.1,0c2.3,6.6,7.4,10.7,11.8,13.5c5.6,3.6,11.4,5.7,20.3,5.9c9.3-0.2,14.6-1.6,22.4-5.4
			c10.1-5,18.1-12.1,21.1-22.1c1.8-5.1,1.8-10.6,0.2-15.8C897.5,264,895.4,258.3,893.2,252.5"/>
		<path id="パス_19982" class="st1" d="M907.4,4l41.2,0.5c4.5,0.1,6,6.1,2.3,9.1c-7.2,5.9-15.1,14.9-17.9,26.8
			C927.5,64.4,907.4,4,907.4,4"/>
	</g>
</g>
</svg>
