<?xml version="1.0" encoding="utf-8"?>
<!-- Generator: Adobe Illustrator 26.4.1, SVG Export Plug-In . SVG Version: 6.00 Build 0)  -->
<svg version="1.1" id="レイヤー_1" xmlns="http://www.w3.org/2000/svg" xmlns:xlink="http://www.w3.org/1999/xlink" x="0px"
	 y="0px" viewBox="0 0 918 118" style="enable-background:new 0 0 918 118;" xml:space="preserve">
<style type="text/css">
	.st0{fill:#054385;}
	.st1{fill:#FDD000;}
</style>
<g id="sec01_price02_pc" transform="translate(-376.449 -2333.376)">
	<path id="パス_36556" d="M519.6,2397h8.5c-0.3,1.6-0.6,3.1-0.9,4.5c-0.4,1.4-0.7,2.8-1.2,4h22.2v8.6h-8.4c-0.4,4.6-1.7,9-3.8,13
		c-1.7,3.1-3.9,5.9-6.6,8.2c-2.1,1.8-4.4,3.3-6.8,4.6c-1.7,0.9-3.5,1.7-5.3,2.3c-0.7,0.3-1.4,0.4-2.1,0.6v-8.7
		c0.7-0.2,1.5-0.4,2.2-0.7c1.8-0.7,3.5-1.7,5-2.8c2.2-1.6,4.1-3.7,5.5-6c1.9-3.2,3.1-6.8,3.5-10.5h-8.9c-1.4,2.6-3.2,5-5.3,7.1
		c-1.4,1.4-2.9,2.7-4.5,3.8c-1.2,0.8-1.8,1.2-1.9,1.2v-9.8c0,0,0.4-0.3,1.2-0.9c1-1,1.8-2.1,2.5-3.3c1.1-1.9,2.1-3.9,3-6
		C518.4,2403.1,519.2,2400.1,519.6,2397z M604.7,2431.1c0.1,2.1-0.2,4.1-1,6c-0.7,1.4-1.9,2.6-3.4,3.2c-1.8,0.8-3.7,1.3-5.6,1.4
		c-2.9,0.3-5.8,0.4-8.8,0.3c-0.4-1.7-0.9-3.3-1.5-4.8c-0.6-1.7-1.4-3.3-2.3-4.8c1.9,0.2,4.8,0.3,8.8,0.3h2.1
		c0.5,0.1,1.1-0.1,1.5-0.4c0.3-0.4,0.5-0.9,0.4-1.4v-7.2h-25.1c-2,8.1-5.5,14.3-10.6,18.5c-1-1.3-2.1-2.5-3.3-3.6
		c-1.2-1.1-2.4-2.2-3.8-3.1c2.8-2.3,5-5.1,6.5-8.4c1.4-3.1,2.4-6.3,2.9-9.7c0.5-3.6,0.7-7.2,0.7-10.8v-21.6h42.6V2431.1z
		 M595,2394.1h-23.4v6H595V2394.1z M595,2414.8v-6h-23.4c-0.1,2-0.2,4-0.4,6H595z M643.7,2408.2h-16v34h-9.1v-57.6h25.1
		L643.7,2408.2z M672.8,2431.7c0.1,1.9-0.2,3.8-0.8,5.6c-0.5,1.3-1.6,2.5-2.8,3.1c-1.5,0.8-3.1,1.2-4.7,1.4c-2.5,0.2-5,0.3-7.5,0.3
		c-0.3-2-0.8-4-1.4-5.9h-14.2v3.2h-8.2v-28.1h24.8v21.6h4.2c0.4,0,0.8-0.1,1.2-0.3c0.3-0.3,0.4-0.7,0.3-1.1v-23.2h-16.4v-23.7h25.7
		L672.8,2431.7z M635.1,2391.1h-7.4v2.1h7.4V2391.1z M663.6,2391.1h-7.7v2.1h7.7V2391.1z M627.7,2401.7h7.4v-2.5h-7.4L627.7,2401.7z
		 M655.8,2401.9h7.7v-2.6h-7.7V2401.9z M649.4,2418.1h-8v2.6h8V2418.1z M641.4,2429.7h8v-2.6h-8V2429.7z"/>
	<path id="パス_36555" class="st0" d="M414.6,2334.8h-21l-17.1,10.9v22.2l14.2-8.8v75h23.9V2334.8z M495.5,2414.3h-30.4l17-19.6
		c6.5-7.5,15.1-18,15.1-31.7c0-16.3-14-29.7-32.8-29.7c-18,0-32.5,12.5-32.5,29.8h20.6c0.6-6.6,4.6-10.2,10.5-10.2
		c5.6,0,10.5,3.3,10.5,10.2c0,6.2-2.3,11.8-8.2,18.7l-32.4,38.2v14.1h62.6L495.5,2414.3z"/>
	<path id="パス_19974" class="st0" d="M729.4,2334.9l-33.8,70.3v16.4h44.8v13.3h24.1v-13.3h9.1v-20h-9.1V2378h-24.1v23.6H726
		l30.2-66.7L729.4,2334.9z M801.9,2400.9h-22.6v50.5l22.6-19.3V2400.9z M862.2,2334.9h-25.5l-20,36.8c-7.4,13.3-10.3,23.1-10.3,31.3
		c0,24.4,16.5,33.4,36.1,33.4c19.3,0,35.8-9,35.8-33.4c0-17.5-12.9-30.2-28-30.2c-3.4-0.1-6.7,0.5-9.9,1.7L862.2,2334.9z
		 M830.4,2404.4c0-7,3.6-12,12-12c8.3,0,11.7,5.1,11.7,12c0,7-3.5,12-11.7,12C834,2416.4,830.4,2411.3,830.4,2404.4L830.4,2404.4z
		 M947.1,2415h-30.6l17.1-19.7c6.5-7.5,15.2-18.1,15.2-31.9c0-16.4-14.1-29.9-33.1-29.9c-18.1,0-32.8,12.6-32.8,30h20.7
		c0.6-6.7,4.6-10.3,10.6-10.3c5.7,0,10.6,3.3,10.6,10.3c0,6.2-2.3,11.9-8.3,18.9l-32.6,38.4v14.2h63.1L947.1,2415z M1026.1,2403.1
		v-36.4c0-25.7-16.5-33.2-36-33.2c-19.4,0-36,7.5-36,33.4v36.3c0,24.4,16.5,33.4,36,33.4C1009.6,2436.4,1026.1,2427.4,1026.1,2403.1
		L1026.1,2403.1z M978.1,2369.6c0-10.7,2.9-16.1,12-16.1c9,0,11.9,5.4,11.9,16.1v30.7c0,10.7-2.9,16.1-11.9,16.1
		c-9.1,0-12-5.4-12-16.1V2369.6z"/>
	<path id="パス_36557" d="M1094.7,2431.3c0.1,1.9-0.2,3.8-0.8,5.5c-0.6,1.3-1.7,2.4-3,3.1c-1.5,0.8-3.1,1.2-4.8,1.4
		c-2.5,0.2-5.1,0.3-7.6,0.3c-0.3-1.6-0.7-3.1-1.3-4.6c-0.6-1.6-1.2-3.1-2-4.5c1.5,0.1,3.7,0.2,6.6,0.2h2c0.4,0,0.9-0.1,1.3-0.3
		c0.3-0.3,0.4-0.7,0.4-1.2v-13h-35.8v23.4h-9.2v-55.9h54.2V2431.3z M1049.7,2394.7v14.4h12.8v-14.4H1049.7z M1071.7,2409.2h13.8
		v-14.4h-13.8V2409.2z M1127.6,2368.8v6.3h15.7v14.3h-3.9v7.1h-12v2.3h10.9v7.4h-10.9v2.3h15.1v8.5h-40.9v-8.5h15.2v-2.3h-10.9v-7.4
		h10.9v-2.3h-11.9v-7.1h-3.6v-14.3h15.2v-6.3H1127.6z M1173.4,2429.7c0.1,2.4-0.2,4.8-1,7.1c-0.7,1.7-1.9,3-3.5,3.8
		c-1.9,1-4,1.6-6.1,1.8c-3.1,0.4-6.2,0.5-9.3,0.5c-0.3-2-0.8-3.9-1.4-5.8c-0.6-2-1.4-4-2.2-5.9c2.9,0.2,6.4,0.2,10.5,0.2
		c0.5,0,1-0.1,1.5-0.4c0.3-0.4,0.5-0.9,0.4-1.4v-60h11.1L1173.4,2429.7z M1156.6,2376.5v44.8h-10.8v-44.8H1156.6z M1132.7,2388.6v-5
		h-21.5v5h5.5v-3.8h10.6v3.8H1132.7z M1105.5,2443.3v-24.3h33.7v23.6h-10.8v-2.6h-12.6v3.3H1105.5z M1128.4,2427.3h-12.6v4.3h12.6
		V2427.3z M1234.5,2369.6h11.6v73.6h-11.6V2369.6z M1219.6,2406.1c0,1.6-0.1,3.1-0.3,4.7c-0.3,6.4-1,12.8-2.1,19.2
		c-0.8,4.2-2,7.1-3.4,8.7c-1,1.2-2.3,2.2-3.8,2.8c-1.6,0.6-3.2,1-4.9,1.2c-2.6,0.3-5.3,0.4-8,0.4l-4.4-0.1c-0.2-2.1-0.6-4.2-1.3-6.2
		c-0.7-2.1-1.7-4-2.9-5.8c3.6,0.3,7.5,0.5,11.7,0.5c0.7,0,1.4-0.1,2-0.2c0.6-0.1,1.1-0.4,1.6-0.8c1.4-1.2,2.5-5.7,3.2-13.7h-13.3
		l-0.7,3.6l-11.5-1.8c0.9-4.1,1.9-8.8,2.7-14.3s1.6-10.6,2.1-15.4h21.3v-7h-22.8v-10.7h34.1v28.3h-22.3c-0.3,1.5-0.6,3.8-1,6.7
		L1219.6,2406.1z"/>
	<path id="パス_19975" d="M1272.9,2367.7h21.5l-2.6,53h-16.3L1272.9,2367.7z M1274.5,2445.1v-15.9h18.4v15.9H1274.5z"/>
	<g id="グループ_2989" transform="translate(564.027 2334.996)">
		<path id="パス_16044" class="st0" d="M4.9,0h110.7l-5,45.6H-0.1L4.9,0z"/>
		<path id="パス_36558" class="st1" d="M50.9,24.5c0,0.5-0.1,1-0.2,1.8c0,0.3,0,0.6-0.1,0.9h3.7V31h-4.3c-0.1,0.8-0.4,1.6-0.9,2.4
			c-0.3,0.5-0.8,0.9-1.3,1.2c-0.5,0.3-1.1,0.4-1.6,0.5c-0.7,0.1-1.5,0.2-2.2,0.2c-0.5,0-1.2,0-2.1-0.1c0-0.6-0.1-1.1-0.3-1.6
			c-0.2-0.6-0.4-1.1-0.7-1.7C42,32,43.1,32,44,32c0.2,0,0.5,0,0.7-0.1c0.2-0.1,0.4-0.3,0.5-0.4c0.1-0.1,0.2-0.3,0.2-0.5H34.2
			l-0.3,1.6l-4.6-0.3c0.4-2,0.9-4.7,1.4-7.9H26v-4h5.2c0.2-1.5,0.4-3.1,0.6-4.8c-0.6,0.7-1.2,1.3-1.9,2c-0.5-0.6-1.1-1.1-1.8-1.6
			c-0.6-0.5-1.3-0.9-2-1.3c1.5-1.2,2.9-2.6,4-4.2c1.1-1.5,1.9-3.2,2.6-4.9l4.9,0.8c-0.5,1-0.8,1.6-0.9,1.9h17.3v4H34.3
			c-0.4,0.6-0.8,1.2-1.2,1.7h18.3L51.3,16c-0.1,2-0.2,3.5-0.2,4.5h4.1v4L50.9,24.5z M39.1,20.5c0.1-0.5,0.1-1.3,0.2-2.5H36l-0.3,2.5
			H39.1z M43.5,18c0,0.5-0.1,1.4-0.2,2.5h3.5l0.1-2.5H43.5z M35.2,24.5l-0.4,2.6h3.5l0.3-2.6H35.2z M46.2,27.1
			c0.1-0.6,0.1-1.2,0.2-1.7l0.1-1h-3.7l-0.3,2.6H46.2z M82.5,29.6c0,1-0.1,2-0.5,3c-0.4,0.7-0.9,1.3-1.7,1.6
			c-0.9,0.4-1.8,0.6-2.8,0.7c-1.4,0.1-2.9,0.2-4.3,0.2c-0.2-0.8-0.4-1.6-0.7-2.4c-0.3-0.8-0.7-1.6-1.1-2.4c1,0.1,2.4,0.1,4.3,0.1h1
			c0.3,0,0.5,0,0.7-0.2c0.2-0.2,0.2-0.4,0.2-0.7V26H65.3c-0.7,3.5-2.5,6.7-5.2,9.1c-0.5-0.6-1-1.2-1.6-1.8c-0.6-0.6-1.2-1.1-1.9-1.5
			c1.4-1.1,2.4-2.5,3.2-4.1c0.7-1.5,1.2-3.1,1.4-4.8c0.2-1.8,0.3-3.5,0.3-5.3V7h20.9L82.5,29.6z M77.7,11.4H66.2v3h11.5V11.4z
			 M77.7,21.6v-3H66.2c0,1-0.1,2-0.2,3H77.7z"/>
		<path id="パス_16043" class="st0" d="M106.6,29.9l25,15.7h-21.8L106.6,29.9z"/>
	</g>
</g>
</svg>
