<?xml version="1.0" encoding="utf-8"?>
<!-- Generator: Adobe Illustrator 26.3.1, SVG Export Plug-In . SVG Version: 6.00 Build 0)  -->
<svg version="1.1" id="レイヤー_1" xmlns="http://www.w3.org/2000/svg" xmlns:xlink="http://www.w3.org/1999/xlink" x="0px"
	 y="0px" viewBox="0 0 214 120" style="enable-background:new 0 0 214 120;" xml:space="preserve">
<style type="text/css">
	.st0{fill:#FFF100;}
	.st1{clip-path:url(#SVGID_00000002380297141031444740000008798825702137874583_);}
	.st2{clip-path:url(#SVGID_00000005984021162716222730000013081215435130505863_);}
</style>
<g id="sec03_text01_pc" transform="matrix(0.985, -0.174, 0.174, 0.985, -1.797, 35.099)">
	<path id="パス_15428" class="st0" d="M17.7,82.5l2.4-4.9L6.9,76.2l-3.6,7.6l-11.1,1L3,61.7l1.8-0.2l9.3-0.8l14.4-1.3l10.8-1
		l2.4-0.2l-6.3,13.4l10.5,1l-0.8,7.4l-13-1.3l-1.2,2.5L17.7,82.5z M-1.1,19.1l0.8-6.9l53-4.7l-0.8,6.9l-30.1,2.7l-1.2,3.5l15.7-1.4
		l11.4-1l-3.9,37.8l-11.4,1l-22.2,2l-11.4,1l3.9-37.8l6.1-0.5l1.2-3.5L-1.1,19.1z M10.8,52.1l22.2-2l0.3-3.4l-22.2,2L10.8,52.1z
		 M11.8,41.8l22.2-2l0.4-3.4l-22.2,2L11.8,41.8z M11,67.4l-0.8,1.8l13.2,1.4l2-4.4L11,67.4z M13.3,28L13,31.5l22.2-2l0.3-3.4
		L13.3,28z"/>
	<path id="パス_15429" class="st0" d="M84.3,49.5l3.4-18.2l-38,3.4l0.3-3.6l51.6-4.6l-4.1,21.8L84.3,49.5z M59,65l8.1-27.5
		l13.2-1.2l-8.1,27.5L59,65z"/>
	<path id="パス_15430" class="st0" d="M155.3,31.3l-34.7,3.1l0.8-4.1l-13.2,1.2l-3.3,17.9l13.2-1.2L120,38l9.3-0.8l-6.6,28.4
		l13.2-1.2l6.5-28.4l0,0l12.1-1.1L155.3,31.3z"/>
	<path id="パス_15431" class="st0" d="M151.9,36.6l-1.9,8.5l-7.3,0.6l2-8.5L151.9,36.6z"/>
	<path id="パス_15432" class="st0" d="M161,35.8l-1.9,8.5l-7.3,0.6l2-8.5L161,35.8z"/>
	<g id="グループ_2838" transform="translate(169.087 0)">
		<g>
			<defs>
				<path id="SVGID_1_" d="M24.9,13.4l-6.3,0.6L9.3,47.8l-13,1.2l7.4-33.7l-6.5,0.6L16.1-2.9L24.9,13.4z M-8.1,62.1l15.2-1.3
					l1.6-6.5l-15.2,1.3L-8.1,62.1z"/>
			</defs>
			<clipPath id="SVGID_00000060017581287460655900000002960259664392273336_">
				<use xlink:href="#SVGID_1_"  style="overflow:visible;"/>
			</clipPath>
			<g id="グループ_2825" style="clip-path:url(#SVGID_00000060017581287460655900000002960259664392273336_);">
				<path id="パス_15367" class="st0" d="M-14.4,62.1L-8-2.9l39.3,0l-6.3,65.1L-14.4,62.1z"/>
			</g>
		</g>
	</g>
	<g id="グループ_2991" transform="translate(194.002 22.677)">
		<g>
			<defs>
				<path id="SVGID_00000141422158950522690010000005446792128018267574_" d="M19.2,10.6L14,11.1L6.3,39.1l-10.8,1l6.2-27.9
					l-5.4,0.5L11.9-2.9L19.2,10.6z M-8.1,51l12.6-1.1l1.4-5.4l-12.6,1.1L-8.1,51z"/>
			</defs>
			<clipPath id="SVGID_00000137103934611558342230000003293389239898720951_">
				<use xlink:href="#SVGID_00000141422158950522690010000005446792128018267574_"  style="overflow:visible;"/>
			</clipPath>
			<g id="グループ_2825-2" style="clip-path:url(#SVGID_00000137103934611558342230000003293389239898720951_);">
				<path id="パス_15367-2" class="st0" d="M-13.3,51l5.2-53.9l32.5,0L19.2,51L-13.3,51z"/>
			</g>
		</g>
	</g>
</g>
</svg>
