<svg xmlns="http://www.w3.org/2000/svg" width="521.57" height="67.48" viewBox="0 0 521.57 67.48">
  <path id="sec03_text02_sp" d="M66.78-44.31l-.07,4.34q-.28,15.4-.63,23.555T65.135-3.85Q64.54.56,63.42,2.17A9.171,9.171,0,0,1,60.83,4.9a11.213,11.213,0,0,1-3.36,1.33,31.858,31.858,0,0,1-6.09.42H48.65a22.769,22.769,0,0,0-.945-4.97,19.832,19.832,0,0,0-2-4.69q2.8.28,6.58.28a2.9,2.9,0,0,0,1.365-.28,3.063,3.063,0,0,0,1.015-.98q.98-1.33,1.47-8.225T56.91-35H52.64a130.119,130.119,0,0,1-2.065,17.85,50.1,50.1,0,0,1-4.76,13.79A34.061,34.061,0,0,1,37.03,7.28a26.958,26.958,0,0,0-4.48-5.53Q18.41,3.15,2.8,4.48L1.68-3.92,15.4-4.76V-7.77H3.64v-7.07H15.4v-1.82H3.92V-38.92H15.4v-1.75H2.24v-7.21H15.4v-1.68q-5.6.28-11.13.42a25.218,25.218,0,0,0-.84-3.57A25.311,25.311,0,0,0,2.1-56.28q8.26-.35,16.415-1.26t13.9-2.1l4.27,7.49q-4.62.98-12.11,1.82v2.45H37.24v7.21H24.57v1.75H36.33v22.26H24.57v1.82H36.75v7.07H24.57v2.38L35.7-6.23l1.05-1.54a34.44,34.44,0,0,0,4.515-11.515A100.779,100.779,0,0,0,43.05-35H37.52v-9.31h5.74V-58.52h9.73q0,9.73-.07,14.21ZM11.9-30.66h3.5v-2.1H11.9ZM28-32.76H24.57v2.1H28ZM11.9-22.82h3.5v-2.1H11.9ZM28-24.92H24.57v2.1H28ZM80.22-55.86h63.7v9.45H116.9V-42h11.76V-9.8H95.41V-42h11.2v-4.41H80.22ZM131.81-6.93V-43.12h9.87V6.65h-9.87V2.66H92.26V6.65H82.39V-43.12h9.87V-6.93ZM103.67-33.81v4.06h3.78v-4.06Zm16.31,4.06v-4.06h-3.85v4.06Zm-16.31,7.63v4.13h3.78v-4.13Zm16.31,4.13v-4.13h-3.85v4.13Zm36.4-30.52V-57.4h32.48v8.89h-8.33v4.27h7.07V5.18h-7.98V1.96H165.06v4.2h-7.63v-50.4h7.98v-4.27ZM210.21-3.85a2.2,2.2,0,0,0,1.855-.77,6.447,6.447,0,0,0,.875-2.905q.28-2.135.49-6.895a20.465,20.465,0,0,0,4.27,2.38,28.659,28.659,0,0,0,4.83,1.68,39.946,39.946,0,0,1-1.68,9.625,9.114,9.114,0,0,1-3.465,4.865A11.469,11.469,0,0,1,211.12,5.6h-8.68a15.952,15.952,0,0,1-6.79-1.155A6.835,6.835,0,0,1,192.22.56a22.518,22.518,0,0,1-1.05-7.77V-35.77h18.76V-46.83H190.89v-9.8H219.8v34.65h-9.87v-4.13h-8.68V-7.28a8.929,8.929,0,0,0,.21,2.31,1.3,1.3,0,0,0,.735.91,5.613,5.613,0,0,0,1.855.21ZM173.95-44.24v-4.27h-2.1v4.27Zm3.29,24.36q-2.45,0-3.29-1.155t-.84-4.515V-35.91h-1.54v5.53q0,8.05-3.22,12.11a15.785,15.785,0,0,0-1.505-1.435,15.954,15.954,0,0,0-1.785-1.365v4.97h14.56v-3.78Zm-12.18-1.61a9.5,9.5,0,0,0,1.715-3.99,28.678,28.678,0,0,0,.385-4.97v-5.46h-2.1Zm14.56-14.42h-2.1v10.29a6.428,6.428,0,0,0,.035.8.274.274,0,0,0,.315.245h.42a1.111,1.111,0,0,0,.91-.28l.42.35ZM165.06-5.81h14.56V-9.24H165.06Zm92.33-50.82a129.524,129.524,0,0,1-6.23,13.02V6.44H241.5V-29.05a59.448,59.448,0,0,1-4.76,5.32,42.075,42.075,0,0,0-2.31-5.355,52.724,52.724,0,0,0-2.87-5.215,63.762,63.762,0,0,0,9.24-11.41,73.382,73.382,0,0,0,7.14-14Zm36.19-.77v7.84h-32.2V-57.4ZM254.66-47.25h44.8v8.12h-44.8Zm40.18,10.43v7.84H260.12v-7.84ZM260.12-18.83v-7.84h34.37v7.84ZM258.79,6.58V-16.45h37.24V6.37H285.74V4.13H268.52V6.58ZM285.74-8.68H268.52v4.9h17.22Zm43.12-6.51H318.29V-30.73h-7.14v-11.2h7.14v-9.8h10.57v9.8h13.37V-52.01H352.8v10.08h7.49v11.2H352.8v9.8a24.592,24.592,0,0,1-3.08,12.285,23.622,23.622,0,0,1-7.56,7.91,40.645,40.645,0,0,1-8.995,4.445,48.882,48.882,0,0,1-7.35,1.96q-2.975.49-3.045.49V-5.18q.07,0,2.065-.28a36.022,36.022,0,0,0,4.97-1.155A20.977,20.977,0,0,0,335.44-9.24a17.619,17.619,0,0,0,4.69-4.62,12.3,12.3,0,0,0,2.1-7.07v-9.8H328.86Zm45.08-2.87V-29.05h32.34v10.99Zm49,6.79V-50.68h10.71v9.24h29.96v10.99H433.65v18.13a6.211,6.211,0,0,0,1.715,4.235Q436.94-6.51,441.28-6.3q6.16.07,10.99-.28t11.34-1.4V3.22q-6.3.7-11.55,1.015t-11.62.175q-7.7-.35-12.6-3.99T422.94-11.27Zm27.02-37.87V-60.2h5.32v11.06Zm8.33,0V-60.2h5.32v11.06Zm47.25,10.85H480.2V-49.56h40.25a66.9,66.9,0,0,1-4.515,15.05,87.669,87.669,0,0,1-6.685,12.53q3.15,4.13,6.265,7.56a52.5,52.5,0,0,0,5.39,5.285Q523.18-7.28,523.25-7.21V6.16q-3.78-2.73-6.86-5.32a82.961,82.961,0,0,1-6.58-6.265,88.026,88.026,0,0,1-6.79-8.085,74.614,74.614,0,0,1-8.715,9.135A67.069,67.069,0,0,1,486.08,1.89a60.477,60.477,0,0,1-6.09,3.465q-2.31,1.085-2.38,1.085V-6.09a48.161,48.161,0,0,0,10.955-7.56A75.42,75.42,0,0,0,497.7-23.8,64.094,64.094,0,0,0,505.54-38.29Z" transform="translate(-1.68 60.2)" fill="#fff"/>
</svg>
