<?xml version="1.0" encoding="utf-8"?>
<!-- Generator: Adobe Illustrator 26.4.1, SVG Export Plug-In . SVG Version: 6.00 Build 0)  -->
<svg version="1.1" id="レイヤー_1" xmlns="http://www.w3.org/2000/svg" xmlns:xlink="http://www.w3.org/1999/xlink" x="0px"
	 y="0px" viewBox="0 0 384 134" style="enable-background:new 0 0 384 134;" xml:space="preserve">
<g id="sec01_text03_pc" transform="translate(-777.752 -1736.152)">
	<path id="パス_36551" d="M809.5,1816.8H821c-1.8,3.7-4,7.3-6.6,10.5c-2.6,3.3-4.9,6.2-7.1,8.6v33.8h-10.1v-26
		c-2.9,2.4-6.1,4.6-9.5,6.4c-2.3,1.3-4.8,2.4-7.2,3.3c-1.8,0.6-2.7,0.9-2.8,0.9V1844c0,0,1.1-0.4,3.3-1.3c2.8-1.2,5.6-2.7,8.2-4.4
		c3.8-2.4,7.2-5.2,10.4-8.4C803.5,1826,806.8,1821.6,809.5,1816.8z M862,1829.2h10.2c-2.1,7.8-5,14.2-8.6,19.1
		c-3.1,4.4-6.9,8.3-11.2,11.4c-3.4,2.4-7.1,4.3-11,5.7c-2.8,1-5.6,1.6-8.5,2c-1.1,0.1-2.2,0.2-3.4,0.2v-10.5c0.9,0,1.8,0,2.6-0.1
		c2.2-0.2,4.4-0.6,6.6-1.3c3.1-1,5.9-2.5,8.4-4.4c3.1-2.4,5.9-5.2,8.2-8.3C858.3,1838.8,860.5,1834.1,862,1829.2z M829.5,1828.5v-10
		h20v10H829.5z M892.6,1815.3h10.1c-0.2,1.2-0.4,2.4-0.6,3.4c-0.2,1-0.3,1.6-0.4,1.6h21.9v9.8c-0.4,5.3-1.6,10.4-3.7,15.3
		c-1.7,4-4.2,7.7-7.3,10.8c-2.7,2.7-5.6,5.1-8.9,7.1c-2.7,1.7-5.5,3.1-8.4,4.3c-2.1,0.8-4.2,1.5-6.4,2c-0.8,0.2-1.7,0.4-2.5,0.5
		v-10.4c0,0,0.8-0.2,2.2-0.5c1.9-0.5,3.7-1.2,5.5-2c2.5-1.1,4.8-2.4,7-4c2.6-1.8,4.8-4,6.7-6.6h-11.9v-9.6h15.7
		c0.7-2.4,1.1-4.8,1.2-7.3h-15.1c-2,4-4.6,7.7-7.7,11c-1.9,1.9-4,3.7-6.1,5.3c-0.8,0.6-1.6,1.2-2.5,1.7v-12.4c0.5-0.4,1-0.8,1.4-1.2
		c1.2-1.1,2.3-2.3,3.2-3.7c1.4-2,2.6-4.1,3.5-6.3C891.2,1821.4,892.1,1818.4,892.6,1815.3z M934.2,1846.9v-10.1h29.6v10.1H934.2z
		 M1000.1,1832.3h-24.6v-9.9h14.9v-7.1h10.1v7.1h16.1c-0.7,2.7-1.8,5.3-3.2,7.7c-1.5,2.7-3.3,5.2-5.3,7.6c-1.9,2.2-3.6,4-5,5.5
		c2.1,1.7,4.4,3.2,6.8,4.6c1.7,1,3.4,1.8,5.1,2.6c0.7,0.3,1.4,0.6,2.1,0.7v11.2c-0.1,0-1-0.3-2.6-0.9c-2.2-0.9-4.4-2-6.4-3.2
		c-2.7-1.5-5.3-3.3-7.7-5.2v16.4h-9.6v-15.5c-2.6,1.9-5.4,3.5-8.3,4.9c-2.1,1-4.4,1.9-6.6,2.7c-1.7,0.6-2.6,0.8-2.7,0.8V1852
		c0.1,0,1.1-0.4,3-1.1c2.5-1,4.9-2.2,7.2-3.5c3.1-1.7,6.1-3.8,8.8-6.1C995.1,1838.7,997.8,1835.6,1000.1,1832.3z M1030.7,1868.7v-9
		c4.1-0.6,7.9-2.3,11.1-4.9c2.8-2.4,5.1-5.3,6.6-8.7c1.4-3.1,2.5-6.3,3.4-9.6c0.7-2.6,1.2-5.2,1.5-7.8c0.2-1.1,0.3-2.2,0.3-3.2h8.6
		c-0.2,3.4-0.7,6.9-1.3,10.2c-0.7,3.3-1.6,6.6-2.9,9.8c-1.4,3.6-3.2,7-5.6,10.1c-2.5,3.3-5.5,6.1-8.9,8.4
		C1039.7,1866.5,1035.3,1868.1,1030.7,1868.7z M1033.2,1825.4l3.8,22h-6.7l-3.7-22H1033.2z M1043.9,1825.4l4,22h-6.9l-3.7-22H1043.9
		z M1111.5,1832.9v10.1h-26.9v26.4h-10.1v-53.8h10.1v17.3H1111.5z M1122.3,1841.1v-8.7c2.4-0.2,4.6-0.4,6.4-0.6
		c0-2.6,0.1-5.5,0.1-8.8h8.4c0,3.2,0,6-0.1,8.4h4.2c2.4-0.1,4.8,0.9,6.4,2.7c1.5,1.8,2.4,4.6,2.7,8.5c0.3,2.9,0.4,5.7,0.3,8.6
		c0,2.8-0.3,5.5-0.9,8.2c-0.4,2.2-1.4,4.3-2.8,6.1c-1.3,1.6-3.3,2.5-5.4,2.4c-1.6,0-3.1-0.1-4.7-0.4c-0.6-0.1-1.2-0.2-1.7-0.4v-8.8
		c1.6,0.6,3.3,0.9,5.1,1c1-0.1,1.6-1,2-2.7c0.4-2,0.6-4.1,0.5-6.2c0-2.4-0.1-4.8-0.2-7.2c0-1.4-0.3-2.3-0.8-2.7
		c-0.8-0.5-1.8-0.7-2.8-0.7c-0.4,0-0.8,0-1.1,0.1c-0.4,0-0.8,0.1-1.2,0.1c-0.4,4.8-1.2,9.6-2.3,14.2c-1.1,4.5-2.5,9-4.1,13.4h-8.9
		c1.9-4.2,3.5-8.6,4.7-13.1c1.1-4.6,1.9-9.3,2.3-14c-1.8,0.1-3.2,0.3-4.3,0.4S1122.4,1841.1,1122.3,1841.1L1122.3,1841.1z
		 M1147.6,1826.5h8.1c3.1,6.5,5.1,13.4,6,20.5h-8.1C1153,1839.9,1151,1832.9,1147.6,1826.5z M1147.8,1824.7v-8.7h4.2v8.7
		L1147.8,1824.7z M1154.4,1824.7v-8.7h4.2v8.7L1154.4,1824.7z"/>
	<path id="パス_36552" d="M791.3,1783.1c0.8,0,1.6-0.7,2.1-2.2c0.7-1.8,1.1-3.7,1.4-5.7c0.3-2.3,0.6-4.7,0.8-7.2s0.2-4.8,0.2-6.8
		c-1.7,0.6-3.1,1.7-4.1,3.1c-1.1,1.6-1.9,3.4-2.5,5.2c-0.5,1.8-0.9,3.6-1,5.4c-0.2,2,0,4.1,0.7,6
		C789.5,1782.3,790.3,1783,791.3,1783.1z M810.9,1772c0-2.6-0.7-5.1-1.9-7.4c-1.1-2-3.1-3.3-5.4-3.6c-0.1,3.6-0.3,7.2-0.7,10.8
		c-0.3,3.4-1,6.8-2.1,10c-0.8,2.7-2.1,5.1-3.9,7.3c-1.4,1.7-3.6,2.7-5.8,2.6c-1.8-0.1-3.5-0.7-4.9-1.7c-1.8-1.3-3.2-3.1-4-5.2
		c-1.2-3.1-1.8-6.5-1.7-9.9c0-3.8,0.9-7.6,2.5-11.1c1.4-3.2,3.6-5.9,6.3-8.1c2.6-2,5.7-3.3,9-3.6c3.4-0.3,6.8,0.2,9.9,1.6
		c3.1,1.4,5.7,3.7,7.5,6.7c2.1,3.6,3.2,7.8,3.3,12c0.2,3.6-0.4,7.3-1.6,10.7c-0.9,2.6-2.5,5-4.5,7c-1.7,1.6-3.8,2.8-6,3.6
		c-1.9,0.7-3.9,1.1-6,1.1v-8.3c2.9,0,5.7-1.4,7.4-3.8C810.1,1780.3,810.9,1776.7,810.9,1772z M870.1,1786.8
		c10.2,0,17.4-0.1,21.4-0.3c-0.8,1.3-1.5,2.8-2.1,4.3c-0.6,1.6-1.1,3.3-1.5,5h-25.1c-4.9,0.1-9.9-0.4-14.7-1.6
		c-3.7-1-6.9-3.2-9.2-6.2c-0.5,3.2-1.4,6.3-2.6,9.3c-1.1-0.8-2.3-1.5-3.6-2.1c-1.3-0.7-2.6-1.3-3.9-1.8c1.6-3.5,2.5-7.3,2.8-11.2
		c0.5-5.5,0.7-11,0.7-16.4l8.1,0.5c0,2.1-0.1,4.9-0.3,8.6c0.6,1.8,1.5,3.5,2.5,5.1v-16.8h-11.9v-8.2h10.5v-4.8h-8.9v-8h8.9v-5.8h8.5
		v5.8h8.6v8h-8.6v4.8h9.6v0.8c3.3-2.3,5.6-5.7,6.5-9.6h-5.6v-7.7h28.5l-0.1,3c-0.2,5.3-0.5,9.2-0.8,11.8c-0.3,2.5-0.9,4.3-1.7,5.2
		c-0.6,0.7-1.3,1.3-2.1,1.7c-0.8,0.4-1.7,0.7-2.6,0.8c-1.7,0.2-3.5,0.3-5.2,0.3h-2c-0.1-1.4-0.4-2.7-0.7-4.1
		c-0.3-1.3-0.8-2.5-1.5-3.7c1.3,0.1,2.9,0.2,4.6,0.2c0.7,0,1.4-0.2,1.9-0.6c0.5-0.7,0.9-3,1.1-6.9h-5.1c-0.5,2.5-1.4,5-2.5,7.3
		c-1.7,3.6-4.4,6.6-7.6,8.9c-1.6-1.5-3.3-2.8-5.1-4v4.8h-8.5v5.8h7.6v8h-7.6v8.7c1.7,0.5,3.4,0.8,5.2,0.9c1.9,0.2,4.2,0.3,6.8,0.3
		L870.1,1786.8z M887.3,1783.6h-25.7v-20.5h25.7V1783.6z M878,1770.5h-7.7v5.8h7.7V1770.5z M935.2,1741.2h23.9v7.9h-56.6v-7.9h23.1
		v-5h9.6V1741.2z M948.7,1750.9v14.7H913v-14.7H948.7z M939.2,1759.5v-2.6h-17.4v2.6H939.2z M957.4,1787.9c0.1,1.7-0.2,3.4-0.8,5
		c-0.5,1.2-1.5,2.3-2.7,2.8c-1.3,0.7-2.7,1.1-4.2,1.3c-2,0.2-4,0.3-6.1,0.3c-0.3-1.7-0.7-3.3-1.2-4.9h-16v2.8h-8v-17.7h24.7v11.1
		c1.2,0.1,2.5,0.1,3.7,0c0.3,0,0.6,0,0.9-0.2c0.2-0.2,0.3-0.4,0.3-0.7v-12.5h-34v22.2h-9.1v-29.8h52.5V1787.9z M935,1786.3v-2.7
		h-8.5v2.7H935z M1005.2,1748.9h-15.1v-7.7h15.1v-4.9h9v4.9h16v7.7h-16v2.5h14.2v18.1h-11.2c2,1.8,4.2,3.3,6.6,4.7
		c2.4,1.4,5,2.6,7.7,3.6c-1.2,1-2.3,2.2-3.4,3.4c-1.1,1.2-2,2.5-2.9,3.9c-4.1-2.2-7.8-5.1-11-8.5v9.2h-9v-9.7
		c-3.1,3.8-7,6.9-11.3,9.1c-0.8-1.3-1.7-2.6-2.7-3.7c-1-1.2-2-2.3-3.2-3.3c2.5-1,5-2.2,7.2-3.7c2.2-1.4,4.1-3.1,5.9-5h-9.3v-18.1
		h13.4L1005.2,1748.9z M981.8,1753.5c-1.2-1.8-2.6-3.5-4.2-5c-1.8-1.8-3.8-3.6-5.8-5.2l6.9-5.6c2.1,1.5,4.1,3.1,6,4.9
		c1.7,1.4,3.2,3,4.5,4.7L981.8,1753.5z M1000.3,1758.4v4.1h4.9v-4.1H1000.3z M1019.4,1758.4h-5.2v4.1h5.2V1758.4z M987.7,1781.3
		c1.1,1.9,2.9,3.4,4.9,4.3c2.6,1,5.3,1.5,8.1,1.6c1.6,0.1,4.4,0.1,8.6,0.1c9.2,0,16.9-0.3,23.1-0.8c-0.7,1.5-1.3,3.1-1.7,4.7
		c-0.5,1.6-0.9,3.2-1.2,4.9c-5.6,0.3-11.4,0.4-17.4,0.4c-3.3,0-7.1-0.1-11.5-0.3c-3.4-0.1-6.7-0.7-9.9-1.8c-2.7-1.1-5.2-2.8-7-5.1
		c-3.1,2.7-6,5.2-8.8,7.4l-4.5-9.8c2.8-1.6,5.6-3.3,8.3-5.2v-11.9H972v-8.6h15.7V1781.3z"/>
</g>
</svg>
