<?xml version="1.0" encoding="utf-8"?>
<!-- Generator: Adobe Illustrator 26.4.1, SVG Export Plug-In . SVG Version: 6.00 Build 0)  -->
<svg version="1.1" id="レイヤー_1" xmlns="http://www.w3.org/2000/svg" xmlns:xlink="http://www.w3.org/1999/xlink" x="0px"
	 y="0px" viewBox="0 0 474 474" style="enable-background:new 0 0 474 474;" xml:space="preserve">
<style type="text/css">
	.st0{fill:none;stroke:#FDD000;stroke-width:5;}
	.st1{fill:#FDD000;}
	.st2{fill:#FFFFFF;}
</style>
<g>
	<path class="st0" d="M432,366.1c24.6-37,39-81.4,39-129.1C471,108.1,366.2,3.5,237,3.5c-37.5,0-73,8.8-104.5,24.5"/>
	<path class="st0" d="M67.8,398.2c42.6,44.5,102.7,72.3,169.3,72.3c65.3,0,124.3-26.7,166.8-69.7"/>
	<path class="st0" d="M33.2,122.2C14,156.1,3,195.2,3,236.9c0,38.7,9.5,75.3,26.2,107.4"/>
	<g>
		<path id="パス_19997" class="st1" d="M116.2,276c-36.8,0-71.3-19.3-72-66.6h41.2c0.6,20.3,14.6,29.5,30.8,29.5
			c17.8,0,30.4-11.1,30.4-31.4c0-18.7-11.4-31.1-31.7-31.1h-6v-35.8h6c20,0,28.5-12.4,28.5-28.2c0-19-12.7-28.9-27.6-28.9
			c-15.5,0-27,10.1-27.9,27.3H46.8c1-40.3,31.1-64.4,69.1-64.4c40,0,68.8,26.6,68.8,64.7c0,24.4-11.1,38.4-26,46.3
			c16.2,8.6,29.2,24.1,29.2,51.4C187.9,253.8,154.9,276,116.2,276"/>
		<path id="パス_19998" class="st1" d="M281.6,190.5c5.2-0.2,10.5-0.3,15.9-0.3c3.8,0,4.6,2,4.6,6.4v6.4c0,4.2-0.2,7.1-4.7,7.1
			c-5.2,0-10.5-0.2-15.7-0.2H280c-3,0-4.1,2-4.4,4.7c-1,13.1-5.6,25.6-13.2,36.2c-6.1,8.2-13.8,15-22.6,20.1c-1.1,0.7-2.4,1-3.8,1.1
			c-4.1,0-14-9.3-14-12.4c0-1.7,1.7-2.7,3-3.5c14.3-7.4,25.3-18.2,29.1-34.1c0.8-3,1.3-6.1,1.6-9.3c0.1-1.6-1.2-2.9-2.8-3
			c-0.1,0-0.1,0-0.2,0h-9.3c-3.9,0-5.2,2-7.9,6c-4.1,5.7-8.6,11.1-13.5,16.2c-0.9,1.1-2.2,2.4-3.8,2.4c-3.1,0-15.6-7.4-15.6-11.3
			c0-1.4,1.7-2.8,2.8-3.8c8-6.9,15.3-17.1,20.4-26.4c4.7-8.5,7.6-15.2,9.3-24.8c0.3-1.4,0.8-3.8,2.4-3.8c1.7,0.3,3.4,0.6,5,1.1
			c2.5,0.8,11.3,3.5,13.5,4.4c1.1,0.3,2.7,0.9,2.7,2.4c0,1.1-0.9,1.6-1.7,2c-1.4,0.9-2.4,2.3-2.8,3.9c-0.3,0.8-1.3,3.5-2.5,6.7
			c-0.3,0.6-0.5,1.3-0.5,2c0,2.4,1.6,3.3,3.8,3.5L281.6,190.5z"/>
		<path id="パス_19999" class="st1" d="M329.1,164.1c0-5.6-0.3-11.3-0.3-16.9c0-6.6,2.8-8.6,9.1-8.6c5.5,0,11,0.3,16.5,0.3h44.7
			c5.3,0,10.9-0.3,16.2-0.3s9.3,1.1,9.3,8.6c0,5.6-0.3,11.5-0.3,17.1v76.3c0,4.1,0.5,8,0.5,12.1c0,8.3-1.1,14.4-9,18.7
			c-6.4,3.5-13.5,4.4-21.9,4.4c-8,0-9.9-2.2-11-7.2c-0.9-3.9-1.3-7.8-1.4-11.8c0-2.5,0.8-4.6,3.8-4.6c1.9,0,5.2,0.6,7.9,0.6
			c6.9,0,7.2-2.8,7.2-6v-16.5c-0.1-2.4-2-4.3-4.4-4.4h-38.1c-4.2,0-6,1.3-6.8,5.5c-1.4,8.2-4.7,16.9-8.3,24.6
			c-2,4.4-9.3,19.1-14.5,19.1c-4.1,0-17.1-8.3-17.1-13.3c0-1.4,1.3-2.8,2.2-3.9c6.3-8,11.2-20.1,13.4-30.1s2.4-19.8,2.4-29.7
			L329.1,164.1z M353.2,167.4c0.1,2.4,2,4.3,4.4,4.4h38.4c2.4-0.1,4.3-2,4.4-4.4v-2c0-2.4-2-4.4-4.4-4.4c0,0,0,0,0,0h-38.4
			c-2.4,0-4.4,2-4.4,4.4c0,0,0,0,0,0V167.4z M395.9,204.8c2.4-0.1,4.3-2,4.4-4.4v-2.8c-0.1-2.4-2-4.3-4.4-4.4h-37.8
			c-3.5,0-5,1.9-5,5.3v0.9c0,3.5,1.7,5.3,5.3,5.3L395.9,204.8z"/>
		<path id="パス_20000" class="st1" d="M60.9,386.1c-3.3,1-6.7,1.6-10.1,2c-3.2,0-4.6-4.5-5.4-7c-0.6-1.7-1-3.4-1-5.2
			c0-2.2,1.6-2.3,4.1-2.5c8.5-0.7,17.3-3,22.7-10.2c1.7-2.2,2.8-4.9,3.1-7.6c0-0.9-0.7-1.7-1.6-1.7c0,0,0,0,0,0
			c-0.9,0-1.7,0.5-2,1.4c-0.4,1.1-1.8,1.1-6.1,1.1h-6.2c-1.9,0-3-0.3-3-2.4c0-2.6,0.2-6.5,0.2-10v-33.6c0-3.2-0.1-6.4-0.1-9.6
			c0-3.6,1.7-4.5,5-4.5c3.6,0,7.1,0.2,10.7,0.2h39.5c3.5,0,7-0.2,10.6-0.2c3.1,0,5.1,0.7,5.1,4.5c0,3.2-0.2,6.4-0.2,9.6v33.6
			c0,3.7,0.2,7.4,0.2,10c0,2.2-1,2.4-4.5,2.4h-5c-3.8,0-5.1-0.1-5.8-1.1c-0.4-0.7-0.7-1.4-1.7-1.4h-0.3c-0.9,0-1.7,0.7-1.7,1.6
			c0,0,0,0,0,0v11.4c0,4.7,0.3,5.6,5.1,5.6h4.2c6.3,0,6.5-1.7,7.1-9.6c0.1-1.5,0.8-1.9,2.3-1.9c2.8,0,11.2,1.7,11.2,6.3
			c0,4.8-2.3,13.1-5.7,16.6c-2.7,2.9-7.5,2.9-11.7,2.9h-17.9c-6.3,0-9.9-2.5-9.9-9.3c0-1.6,0.1-5.1,0.1-7v-13.8
			c0-1.6-1.3-2.9-2.9-2.9c0,0,0,0,0,0h-7.2c-0.4,0-1.4,0-1.4,0.7c0,0.5,1.3,1,2.8,1.7c2.7,1,7.5,2.8,7.5,4.4c0,1.3-1.5,1.6-2.4,1.8
			c-0.6,0.2-1,0.6-1.3,1.1C82.6,375.8,73.4,382.5,60.9,386.1 M70.7,311.6c0,0.7,0.5,1.3,1.3,1.4c0,0,0.1,0,0.1,0h37.8
			c0.7,0,1.3-0.6,1.3-1.3c0,0,0,0,0,0v-0.5c0-0.7-0.5-1.3-1.2-1.4c0,0,0,0,0,0H72c-0.7,0-1.3,0.6-1.4,1.4L70.7,311.6z M70.7,325.6
			c0,0.7,0.6,1.3,1.4,1.4h37.8c0.7,0,1.3-0.6,1.3-1.3c0,0,0,0,0,0V325c0-0.7-0.5-1.3-1.2-1.4c0,0,0,0,0,0H72c-0.7,0-1.3,0.5-1.4,1.3
			c0,0,0,0.1,0,0.1L70.7,325.6z M70.7,339.9c0,0.7,0.5,1.3,1.3,1.4c0,0,0.1,0,0.1,0h37.8c0.7,0,1.2-0.5,1.3-1.2c0,0,0-0.1,0-0.1
			v-0.5c0.1-0.7-0.4-1.3-1.1-1.4c0,0-0.1,0-0.1,0H72c-0.7-0.1-1.3,0.5-1.4,1.2c0,0.1,0,0.1,0,0.2L70.7,339.9z"/>
		<path id="パス_20001" class="st1" d="M151.9,328.6c0-4.3-0.2-6.1-2.6-6.1h-1c-2.9,0-3.2-1.1-3.2-4.5v-5.4c0-3.6,0.3-4.7,3.2-4.7
			c1.8,0,5,0.3,7.7,0.3c1.6,0.1,3-1.2,3-2.8c0-0.1,0-0.2,0-0.3v-1.3c0.1-2.6-0.1-5.2-0.4-7.7c-0.1-0.3-0.1-0.6-0.1-0.9
			c0-1.5,1.5-1.6,2.6-1.6c1.8,0,11.1,0.7,13.2,0.9c1,0.1,2.2,0.2,2.2,1.5c0,0.8-0.5,1.6-1.4,1.8c-1.2,0.4-1.2,0.6-1.2,6.3v0.5
			c0,1.3,0.2,3.7,3,3.7c2.7,0,6-0.3,8-0.3c2.9,0,3.2,0.9,3.2,4.8v4.9c0,3.4-0.1,4.9-3.2,4.9c-1.7,0-5-0.2-8.5-0.2h-8.6
			c-0.3,0-0.3,0-0.3,0.1c0,0.1,0,0.1,0.1,0.2c0.6,0.2,1,0.7,0.9,1.4c0,0.7-0.6,1-1.1,1.5c-1.4,0.8-1.5,1.6-1.5,3.1v0.8
			c0,1.4,0.3,3.6,2.8,3.6h3c2.4,0,4.9-0.2,7.4-0.2c1.4,0,2.8,0.4,4,1.3c0.2,0.2,0.5,0.4,0.8,0.4c0.5,0,0.7-0.3,0.9-0.7
			c0.8-1.7,2.3-4.7,3-6.4c3.9-8.7,9.4-23.2,10.9-32.5c0.2-1.1,0.3-1.8,1.5-1.8c1.6,0,8.8,2.1,10.9,2.7c1.2,0.3,3.6,0.8,3.6,2.4
			c0,0.8-0.6,1.1-1.5,1.5c-1.5,0.5-1.7,1.4-2.5,4.6c-0.4,1.5-0.7,2.9-1.7,5.5c-0.2,0.5-0.3,1-0.4,1.5c0,1.3,1,1.7,2.2,1.7h14.8
			c3.5,0,6.7-0.3,9.5-0.3c2.3,0,2.5,1,2.5,4.1v6.3c0,2.9-0.2,4.1-2.4,4.1c-1.7,0-4.9-0.3-5.9-0.3c-0.5,0-0.7,0.2-0.7,0.4
			c0,0.4,0.3,0.5,4.1,0.8c0.9,0.1,2.6,0.5,2.6,1.7c0,0.8-1.6,2-2.5,2.5c-0.8,0.6-1.3,1.5-1.5,2.5c-1.5,7.7-3.6,14.9-7.3,21.7
			c-0.8,1.2-1.3,2.5-1.5,3.9c0,3.1,12,12.3,15,14.3c0.6,0.4,1.6,1.2,1.6,2c0,2.6-6.9,10.4-9.8,10.4c-2.7,0-11.4-9.2-13.5-11.5
			c-0.7-1.1-1.9-1.7-3.1-1.9c-1.5,0-2.6,1.1-3.6,2.1c-2.3,2.3-14.2,12.7-17,12.7c-2.3,0-8.9-7.7-8.9-9.9c0-1.4,1.5-2.1,3.2-3
			c0.4-0.2,0.7-0.4,1-0.6c3.2-2,16.2-11.5,16.2-15c-0.1-1.2-0.5-2.4-1.1-3.4c-1.9-3.7-3.4-7.7-4.5-11.7c-0.3-1-0.5-2.3-1.7-2.3
			c-0.8,0-1.7,1.3-2.1,2c-0.4,0.8-1.2,1.3-2.1,1.4c-1.3,0-2.8-1.1-4.1-2c-0.3-0.2-0.6-0.4-0.8-0.6c-0.4-0.4-1-0.7-1.6-0.7
			c-1.3,0-1.3,2.2-1.3,3c0,8-0.5,29.4-2.6,35.7c-2.1,6.5-6.8,7.2-13.3,7.2c-5.4,0-8.2-0.3-8.2-12.2c0-2.7,0.2-3.6,1.8-3.6
			c0.9,0,2,0.2,2.9,0.2c1.3,0.2,2.6-0.7,2.9-2c1-2.9,2.2-17,2.2-21.3c0-1.1,0-2.8-2.5-2.8s-2.5,2.4-2.7,4c-1.4,11-4,21.8-7.9,32.3
			c-1,2.8-1.4,4.1-3,4.1c-3,0-11.3-4.5-11.3-7.8c0.2-1.2,0.6-2.3,1.2-3.3c5-13.1,7.6-27,7.7-41.1L151.9,328.6z M208.2,326.8
			c-1,0-2.1,0.3-2.1,1.7c0,1.9,3.2,10.6,4.1,12.7c0.4,1,1.8,4.8,2.7,4.8c0.7,0,1-0.8,2-3.3c2-5.4,2.2-8.5,2.9-14v-0.7
			c0-0.8-0.5-1.1-1.4-1.1L208.2,326.8z"/>
		<path id="パス_20002" class="st1" d="M326.3,296.6c3.4,0,6.7-0.2,10.1-0.2c2.2,0,2.4,0.8,2.4,3.4v5.2c0,2.3-0.2,3.1-2.4,3.1
			c-3.1,0-6.6-0.2-10.1-0.2h-5.3c-2,0-2.3,2.6-2.3,2.8c0,1.3,1.3,1.5,2.2,1.5c3.1,0,6.2-0.1,9.3-0.1c3.4,0,5.2,0.7,5.2,4.4
			c0,2.6-0.2,5.1-0.2,7.7v21.5c0,2.5,0.2,5,0.2,7.6c0,3.7-2,4.5-5.2,4.5c-1,0-2-0.1-2.9-0.1c-0.3,0-0.7,0.1-0.7,0.5
			c0,1.3,9.8,4.8,11.4,5.3c0.7,0.2,1.7,0.4,1.7,1.4c0,1.9-2.8,5.5-4.2,7c-0.2,0.2-0.4,0.4-0.4,0.7c0,0.4,0.5,0.4,0.8,0.4h1.9
			c1.7,0,2.1,1.4,2.1,2.8c0,4.6-1.5,9.8-3.8,10.7c-1.8,0.6-4.7,0.6-6.7,0.6c-13.4,0-26.7,0-40.1-0.2c-16.3-0.2-23.5-0.8-28.8-6.5
			c-0.2-0.2-0.5-0.6-0.8-0.6c-0.7,0-1,1-1.2,1.7c-1.3,7.3-2.2,7.3-3.5,7.3c-2.5,0-11.2-1.3-11.2-4.6c0.1-0.8,0.3-1.6,0.6-2.4
			c2.4-8.3,3.7-16.9,3.9-25.6v-0.5c0-1.6,0.1-2.1,1.7-2.1c3.6,0,7.7,0.8,11.3,1.3c0.7,0.1,1.9,0.4,1.9,1.4c0,1-0.9,1.6-1.7,2
			c-0.5,0.3-0.5,2.5-0.5,3.6c0,2.2,1.8,5.5,2.7,5.5c0.5,0,0.6-0.3,0.6-1.6V353c0.1-1.3-1-2.5-2.3-2.5c-0.1,0-0.1,0-0.2,0h-3.1
			c-3.4,0-6.7,0.2-10.1,0.2c-2.8,0-3-1-3-3.9v-4.6c0-2.7,0.2-3.9,2.8-3.9c3.5,0,6.9,0.2,10.3,0.2h19.8c3.5,0,6.9-0.2,10.4-0.2
			c2.4,0,2.8,1.1,2.8,3.7v5c0,2.7-0.4,3.7-3,3.7c-2.7,0-5.4-0.2-8.2-0.2c-1.6,0-2.5,0.5-2.5,2.2c-0.1,1.1,0.8,2.1,1.9,2.2
			c0.1,0,0.3,0,0.4,0c2.4,0,4.9-0.2,7.3-0.2c1.9,0,2.1,0.8,2.1,3.3v3c0,1,0.3,2.4,1.7,2.4s10.3-4.1,10.3-5c0-0.5-0.5-0.6-0.9-0.6
			c-0.7,0-1.4,0.1-2.1,0.1c-3.4,0-5.2-0.9-5.2-4.6c0-2.5,0.3-5,0.3-7.5v-21.5c0-2.6-0.3-5.1-0.3-7.6c0-3.4,1.8-4.5,5-4.5h3.9
			c1.9,0,2.6-2.6,2.6-3c0-1-1.2-1.1-2.7-1.1h-2.2c-2.5,0-5,0.2-7.5,0.2c-2.1,0-2.3-0.8-2.3-3.1v-5.3c0-2.5,0.2-3.3,2.3-3.3
			c3.4,0,6.8,0.2,10.2,0.2L326.3,296.6z M273,296.5c2.8,0,5.6-0.2,8.4-0.2c3.1,0,6,0.3,6,4.2c0,2.3-0.2,4.7-0.2,7.2v16
			c0,2.5,0.2,4.9,0.2,7.2c0,3.9-2.8,4.2-6,4.2c-2.8,0-5.5-0.2-8.4-0.2h-7.4c-2.8,0-5.7,0.2-8.4,0.2c-3.1,0-6-0.3-6-4.2
			c0-2.4,0.2-4.8,0.2-7.2v-16c0-2.4-0.2-4.8-0.2-7.2c0-3.9,2.8-4.2,6-4.2c2.7,0,5.5,0.2,8.4,0.2L273,296.5z M263.9,309.7
			c0.1,0.7,0.5,1.1,1.2,1.1h8.7c0.7,0,1.2-0.5,1.3-1.1c0,0,0,0,0,0v-0.6c0-0.7-0.6-1.2-1.2-1.2c0,0,0,0,0,0H265
			c-0.6,0-1.1,0.5-1.2,1.1V309.7z M263.9,321.9c0,0.7,0.6,1.3,1.3,1.4c0,0,0.1,0,0.1,0h8.4c0.7,0,1.3-0.5,1.4-1.3c0,0,0-0.1,0-0.1
			v-0.3c0-0.7-0.6-1.3-1.3-1.3c0,0,0,0,0,0h-8.4c-0.7-0.1-1.3,0.4-1.4,1.1c0,0,0,0.1,0,0.1V321.9z M291.1,371
			c-0.2-0.3-1.2-1.5-1.4-1.9c-1.5-2.2-1.6-2.4-8.7-2.4c-1.7,0-3.1,1.3-3.2,3c0,0.1,0,0.2,0,0.3c0,2.3,1,3.6,3.5,3.6s4.8-0.1,7.2-0.1
			h1.5c0.7,0,2,0,2-1C292,371.8,291.5,371.4,291.1,371 M311.5,357.7c-0.9,0-2.3,0-2.3,1.3c0,0.8,1.5,2.5,2,3.1
			c0.7,0.7,2.2,2.3,2.2,3.4c-0.1,0.6-0.6,1-1.2,0.9c-0.3,0-0.6-0.1-0.8-0.2c-0.2-0.1-0.5-0.2-0.7-0.2c-0.2,0-0.6,0.4-0.8,0.5
			c-2.8,1.8-5.7,3.4-8.7,4.8c-1,0.5-2.3,0.9-2.3,1.6c0,0.4,0.7,0.6,1.2,0.6h16c4.1,0,8.2-0.1,12.3-0.1c0.3,0,1.2-0.1,1.2-0.6
			c0-0.6-1.6-1.1-2.1-1.4c-1.8-0.8-11.4-5.3-11.4-7.1c0-1.3,2.3-3.8,3.1-4.7c0.3-0.3,0.8-0.8,0.8-1.3c0-0.5-0.7-0.7-1.2-0.7
			L311.5,357.7z M320,325.3c0.6,0,1.1-0.5,1.2-1.1v-0.5c0-0.7-0.5-1.2-1.1-1.3c0,0,0,0,0,0h-11.1c-0.7,0-1.2,0.6-1.2,1.2
			c0,0,0,0,0,0v0.5c0,0.6,0.4,1.1,1,1.1c0,0,0.1,0,0.1,0H320z M308.9,333.2c-0.6,0-1.1,0.5-1.2,1.1v0.5c0,0.7,0.5,1.2,1.2,1.3H320
			c0.7-0.1,1.2-0.6,1.2-1.3v-0.5c0-0.6-0.4-1.1-1-1.2c0,0-0.1,0-0.1,0L308.9,333.2z M309,344.5c-0.7,0-1.3,0.6-1.3,1.3c0,0,0,0,0,0
			v0.2c-0.1,0.7,0.4,1.3,1.1,1.4c0,0,0.1,0,0.1,0h10.8c0.7,0,1.3-0.5,1.4-1.3c0,0,0-0.1,0-0.1v-0.2c0-0.7-0.6-1.3-1.4-1.4H309z"/>
		<path id="パス_20003" class="st2" d="M235,125.8v-6.3h20.1v6.3c-1.1,2.6-2.6,5.1-4.4,7.2c2.4,1.1,4.9,1.9,7.4,2.5l-2.2,6.2
			c-3.8-0.9-7.4-2.3-10.8-4.1c-2.9,1.7-6,3.1-9.1,4.1l-2.4-4.7v5.1H226v-3.9c-6.1,0.9-11.7,1.7-16.9,2.2l-0.7-6.3
			c1.4-0.2,2.8-0.3,4.3-0.5v-15.4h-3.8v-6.3h48.6v6.3h-24v17.1c1.9-0.6,3.7-1.3,5.4-2.1c-1.6-1.3-3-2.8-4.3-4.3l4.1-3.3H235z
			 M221,110.4h-8.4V94.5h41.2v15.9H221z M226,118.3h-6.2v1.8h6.2L226,118.3z M219.9,126.2h6.2v-1.9h-6.2V126.2z M226,131.9v-1.4
			h-6.2v2.3C221,132.6,223,132.3,226,131.9 M221,101.1h24.6v-1.4H221L221,101.1z M221,106.3h24.6v-1.4H221L221,106.3z M244.7,129.5
			c1.2-1.1,2.3-2.4,3.2-3.8h-7.1C242,127.2,243.3,128.4,244.7,129.5"/>
		<path id="パス_20004" class="st2" d="M265.4,111.2v-7.3H284V93.8h8.6v10.1h18.6v7.3h-18.1c0.8,5,2.8,9.8,6,13.7
			c3.6,4.2,8.1,7.7,13.1,10l-4.7,6.5c-4.1-1.9-7.8-4.6-10.9-7.9c-3.3-3.5-6-7.4-7.9-11.8c-2,4.4-4.8,8.3-8.2,11.8
			c-3.3,3.3-7.1,6-11.4,7.9l-4.7-6.5c5-2.4,9.5-5.8,13.1-10c3.2-4,5.3-8.7,6-13.7H265.4z"/>
		<path id="パス_20005" class="st1" d="M359.5,351.5c-0.2,1.7,0.3,3.4,1.3,4.8c1.1,1.4,2.7,2.1,4.4,2.1c1.9,0,3.6-0.7,5-2
			c1.5-1.2,2.5-2.9,3-4.7l8.5-34.2l1.9-9.1c0.7-2.6,0.1-5.3-1.4-7.5c-1.5-2.1-3.9-3.2-6.4-3.2c-2.8,0-5.5,1.1-7.4,3.1
			c-2.2,1.9-3.6,4.5-4.1,7.4l-1.3,9.1L359.5,351.5z"/>
		<path id="パス_20006" class="st1" d="M371.7,372.8L371.7,372.8l-0.2-0.4l0,0c-0.9-2.4-1.7-4.7-1.7-4.7l-3.3,4.4
			c-1.1-0.3-2.3-0.4-3.5-0.4c-1.1,0-2.2,0.1-3.2,0.3l-1.6-4.4c0,0-6.5,8.9-6.7,9.2c-1,1.4-1.5,3-1.6,4.8c0,0.8,0,1.5,0.2,2.3l0,0
			l0.1,0.4l0,0c0.7,1.7,2,3.2,3.6,4.1c1.8,1.2,4,1.8,6.1,1.8c2.4,0,4.7-0.5,6.8-1.6c3.1-1.5,5.5-3.7,6.4-6.7
			c0.5-1.5,0.6-3.2,0.1-4.8C373,376.3,372.4,374.6,371.7,372.8"/>
		<path id="パス_20007" class="st1" d="M376,297.7l12.5,0.2c0.8,0.1,1.4,0.8,1.4,1.7c0,0.4-0.3,0.8-0.6,1.1
			c-2.6,2-4.6,4.9-5.4,8.1C382.1,315.9,376,297.7,376,297.7"/>
		<path id="パス_20008" class="st1" d="M397.1,350.8c-0.2,1.7,0.3,3.4,1.3,4.8c1.1,1.4,2.7,2.1,4.4,2.1c1.9,0,3.6-0.7,5-2
			c1.5-1.2,2.5-2.9,3-4.7l8.5-34.2l1.9-9.1c0.7-2.6,0.1-5.3-1.4-7.5c-1.5-2.1-3.9-3.2-6.4-3.2c-2.8,0-5.5,1.1-7.4,3.1
			c-2.2,1.9-3.6,4.5-4.1,7.4l-1.3,9.1L397.1,350.8z"/>
		<path id="パス_20009" class="st1" d="M409.3,372.1L409.3,372.1l-0.2-0.4l0,0c-0.9-2.4-1.7-4.7-1.7-4.7l-3.2,4.4
			c-1.1-0.3-2.3-0.4-3.5-0.4c-1.1,0-2.2,0.1-3.2,0.3l-1.6-4.4c0,0-6.5,8.9-6.7,9.2c-1,1.4-1.5,3-1.6,4.8c0,0.8,0,1.5,0.2,2.3l0,0
			l0.1,0.4l0,0c0.7,1.7,2,3.2,3.6,4.1c1.8,1.2,4,1.8,6.1,1.8c2.4,0,4.7-0.5,6.8-1.6c3.1-1.5,5.5-3.7,6.4-6.7
			c0.5-1.5,0.6-3.2,0.1-4.8C410.6,375.6,409.9,373.9,409.3,372.1"/>
		<path id="パス_20010" class="st1" d="M413.5,296.9l12.5,0.2c0.8,0.1,1.4,0.8,1.4,1.7c0,0.4-0.3,0.8-0.6,1.1
			c-2.6,2-4.6,4.9-5.4,8.1C419.6,315.2,413.5,296.9,413.5,296.9"/>
	</g>
</g>
</svg>
