<?xml version="1.0" encoding="utf-8"?>
<!-- Generator: Adobe Illustrator 26.4.1, SVG Export Plug-In . SVG Version: 6.00 Build 0)  -->
<svg version="1.1" id="sec03_text01_pc" xmlns="http://www.w3.org/2000/svg" xmlns:xlink="http://www.w3.org/1999/xlink" x="0px"
	 y="0px" viewBox="0 0 276 92" style="enable-background:new 0 0 276 92;" xml:space="preserve">
<style type="text/css">
	.st0{clip-path:url(#SVGID_00000130627476087220602980000015305872425665260694_);}
	.st1{fill:#FDD000;}
</style>
<g>
	<defs>
		<rect id="SVGID_1_" width="276" height="92"/>
	</defs>
	<clipPath id="SVGID_00000064328917972659638620000015973204034415797405_">
		<use xlink:href="#SVGID_1_"  style="overflow:visible;"/>
	</clipPath>
	<g id="グループ_4471" style="clip-path:url(#SVGID_00000064328917972659638620000015973204034415797405_);">
		<path id="パス_19945" class="st1" d="M231,38.1c0.1,1,0.5,1.9,1.2,2.5c0.7,0.7,1.7,0.9,2.6,0.7c1-0.2,2-0.8,2.6-1.6
			c0.7-0.8,1.1-1.8,1.2-2.9l1.4-19.9l0.2-5.3c0.1-1.5-0.4-3-1.5-4c-1-1-2.5-1.4-3.9-1.1c-1.5,0.3-2.9,1.2-3.8,2.4
			c-1,1.3-1.6,2.9-1.5,4.5l0.2,5.2L231,38.1z"/>
		<path id="パス_19946" class="st1" d="M115.1,57.2c0.1,0.5,0.5,0.9,1.1,0.9c0,0,0,0,0.1,0l3.5-0.6c0.8-0.2,1.3-0.9,1.2-1.7
			l-3-18.2c-0.1-0.5-0.5-0.9-1.1-0.9c0,0,0,0-0.1,0l-3.3,0.5c-0.8,0.2-1.3,0.9-1.2,1.7L115.1,57.2z"/>
		<path id="パス_19947" class="st1" d="M211.4,51.8c-2.7-2.4-5.5-4.8-8.3-7.2c-2.8-2.4-5.2-4.6-7.3-6.4c-2-1.8-3.3-3-3.9-3.5
			c-0.5-0.6-0.9-1.3-0.9-2.1c0-0.7,0.2-1.3,0.7-1.9c0.5-0.7,1.8-2.2,3.8-4.4s4.5-4.9,7.3-7.9l4.2-4.5l-7.4,1.2
			c-0.6,0.1-1.1-0.3-1.2-0.8c0-0.1,0-0.2,0-0.3v-1.1c0-0.7,0.5-1.3,1.2-1.5l11.4-1.8c2.1-2.2,4.4-4.7,7-7.5c0.9-0.9,0.4-2.4-0.8-2.2
			l-13,2.2c-0.3,0.1-0.6,0.2-0.7,0.4c-2.4,2.5-4.5,4.7-6.2,6.7c-1.9,2.1-3.8,4.2-5.8,6.4c-2,2.2-3.9,4.2-5.5,6.1
			c-1.6,1.8-2.8,3.2-3.5,4.1c-2,2.5-3.1,5.7-3.2,8.9c-0.1,3.2,1.1,6.2,3.3,8.5c1.1,1.2,2.3,2.3,3.5,3.3c1.7,1.5,3.6,3.1,5.8,4.9
			c2.1,1.8,4.2,3.5,6.2,5.2c1.9,1.6,4.2,3.5,6.7,5.6c0.2,0.2,0.5,0.3,0.8,0.2l12.2-2c0.8-0.2,1.3-0.9,1.1-1.7c0-0.2-0.2-0.5-0.3-0.7
			C216,55.7,213.6,53.6,211.4,51.8"/>
		<path id="パス_19948" class="st1" d="M132.1,34.3l-5,0.8c-0.6,0.1-1.1,0.7-1.2,1.3c0,0.5-0.1,1.2-0.2,2c-0.2,2-0.7,4.6-1.3,7.7
			c-0.7,3.3-1.7,6.6-2.9,9.8c-1.3,3.4-3.2,6.6-5.6,9.3c-2.4,2.6-5.3,4.6-8.6,5.9c-0.6,0.2-0.9,0.8-0.9,1.4v6.1
			c0,0.6,0.4,1.1,0.9,1.1c0.2,0,0.3,0,0.5-0.1c3.5-1.3,6.8-3.3,9.6-5.8c3-2.7,5.6-5.9,7.6-9.4c2-3.3,3.6-6.8,4.8-10.5
			c1-3.2,1.8-6.5,2.4-9.8c0.4-2.6,0.8-5.5,1-8.7c0.1-0.6-0.3-1.1-0.8-1.2C132.3,34.2,132.2,34.2,132.1,34.3"/>
		<path id="パス_19949" class="st1" d="M100.7,45.1l-17.2,3.5c-0.5,0.1-1.1-0.2-1.2-0.8c0-0.1,0-0.1,0-0.2l-0.6-5.4
			c0-0.6-0.5-1-1-1c0,0-0.1,0-0.1,0l-4.8,0.8c-0.7,0.2-1.2,0.9-1.2,1.6l0.5,5.2c0.1,0.7-0.4,1.4-1.1,1.6l-2.5,0.5
			c-0.7,0.2-1.1,0.8-1.1,1.5v5.6c0,0.6,0.4,1,0.9,1.1c0.1,0,0.2,0,0.3,0l3.4-0.8c0.5-0.1,1.1,0.2,1.2,0.8c0,0.1,0,0.1,0,0.2
			l2.8,25.1c0,0.6,0.5,1,1,0.9c0,0,0.1,0,0.1,0l4.8-0.8c0.7-0.2,1.2-0.9,1.2-1.6l-2.7-24.8c-0.1-0.7,0.4-1.4,1.1-1.6l8.3-1.7
			c0.9-0.2,1.5,0.7,1.1,1.6c-0.3,0.8-0.7,1.7-1.1,2.4c-0.7,1.2-1.5,2.3-2.3,3.4c-0.7,0.9-1.6,1.7-2.5,2.5c-0.4,0.3-0.6,0.7-0.6,1.2
			V72c0,0.6,0.4,1.1,1,1.1c0.3,0,0.6-0.1,0.8-0.3c1.5-1.2,2.9-2.4,4.3-3.8c1.9-2,3.5-4.2,4.9-6.6c1.7-2.9,2.9-6,3.5-9.2
			c0-0.1,0-0.2,0-0.3v-6.7c0-0.6-0.4-1.1-0.9-1.1C100.9,45.1,100.8,45.1,100.7,45.1"/>
		<path id="パス_19950" class="st1" d="M110.5,59c0.8-0.2,1.3-0.9,1.2-1.7l-2.9-18.2c-0.1-0.5-0.5-0.9-1.1-0.9c0,0,0,0-0.1,0
			l-3.3,0.5c-0.8,0.2-1.3,0.9-1.2,1.7l2.8,18.2c0.1,0.5,0.5,0.9,1.1,0.9c0,0,0,0,0.1,0L110.5,59z"/>
		<path id="パス_19951" class="st1" d="M175.6,25.8l-26,4.3c-0.6,0.1-1.1-0.3-1.2-0.8c0-0.1,0-0.2,0-0.3v-18
			c0-0.6-0.4-1.1-0.9-1.1c-0.1,0-0.2,0-0.3,0l-8.3,1.4c-0.7,0.2-1.2,0.8-1.2,1.5V20l3.4-0.5c0.6-0.1,1.1,0.3,1.2,0.8
			c0,0.1,0,0.2,0,0.3v1.1c0,0.7-0.5,1.3-1.2,1.5l-3.4,0.5v50.4c0,0.6,0.4,1.1,0.9,1.1c0.1,0,0.2,0,0.2,0l8.3-1.4
			c0.7-0.2,1.2-0.8,1.2-1.5v-8.5l-2.8,0.4c-0.6,0.1-1.1-0.3-1.2-0.8c0-0.1,0-0.2,0-0.2v-1.1c0-0.7,0.5-1.3,1.2-1.5l2.8-0.4V43.6
			c0-0.7,0.5-1.3,1.2-1.5l26-4.3c0.7-0.2,1.2-0.8,1.2-1.5v-9.4c0-0.6-0.4-1.1-0.9-1.1C175.8,25.8,175.7,25.8,175.6,25.8"/>
		<path id="パス_19952" class="st1" d="M239.9,48.8L239.9,48.8l-0.1-0.2l0,0c-0.7-1.2-1.4-2.4-1.4-2.4l-1.4,2.8
			c-0.7,0-1.3,0-2,0.1c-0.6,0.1-1.2,0.3-1.8,0.5l-1.3-2.3c0,0-2.8,5.6-2.8,5.8c-0.4,0.9-0.6,1.9-0.4,2.8c0.1,0.4,0.2,0.9,0.4,1.2h0
			l0.1,0.2l0,0c0.6,0.9,1.4,1.6,2.4,1.9c1.1,0.5,2.4,0.6,3.6,0.4c1.3-0.2,2.6-0.8,3.6-1.6c1.5-1,2.6-2.6,2.9-4.4
			c0.1-0.9,0-1.8-0.4-2.7C240.9,50.6,240.4,49.7,239.9,48.8"/>
		<path id="パス_19953" class="st1" d="M263.5,44.9L263.5,44.9l-0.1-0.2l0,0c-0.7-1.2-1.4-2.4-1.4-2.4l-1.4,2.8
			c-0.7,0-1.3,0-2,0.1c-0.6,0.1-1.2,0.3-1.8,0.5l-1.3-2.3c0,0-2.8,5.6-2.8,5.8c-0.4,0.9-0.6,1.9-0.4,2.8c0.1,0.4,0.2,0.9,0.4,1.2h0
			l0.1,0.2l0,0c0.6,0.9,1.4,1.6,2.4,1.9c1.1,0.5,2.4,0.6,3.6,0.4c1.3-0.2,2.6-0.8,3.6-1.6c1.5-1,2.6-2.6,2.9-4.4
			c0.1-0.9,0-1.8-0.4-2.7C264.6,46.7,264,45.8,263.5,44.9"/>
		<path id="パス_19954" class="st1" d="M269.8,3.6c-2.5-1.8-5.8-2.4-10-1.7c-4,0.7-7.6,2.6-10.4,5.5c-1.1,1-1.7,2.5-1.7,4
			c0,1.2,0.4,2.3,1.2,3.1c0.8,0.8,1.9,1.1,3,0.9c0.9-0.2,1.8-0.6,2.4-1.3c1.1-1.1,2.6-1.9,4.1-2.2c1.1-0.3,2.3,0,3.2,0.6
			c0.9,0.8,1.4,2,1.2,3.2c0,1.1-0.3,2.1-0.8,3.1c-0.8,1.4-1.7,2.8-2.6,4.1c-1.2,1.7-2.1,3.2-2.8,4.3c-0.7,1.1-1.3,2.4-1.7,3.7
			c-0.2,0.7-0.4,1.4-0.4,2.2c0,1.3,0.5,2.6,1.4,3.5c0.9,0.9,2.2,1.3,3.5,1c1.1-0.2,2.1-0.8,2.9-1.6c0.8-0.9,1.4-1.9,1.7-3.1
			c0.3-1.4,0.8-2.6,1.6-3.8c0.7-1.2,1.7-2.6,2.9-4.3c1.4-1.8,2.7-3.8,3.8-5.9c0.9-1.7,1.3-3.7,1.3-5.6
			C273.5,8.6,272.3,5.4,269.8,3.6"/>
		<path id="パス_19955" class="st1" d="M65.2,27.9l-17.3,2.9c-0.7,0.1-1.4-0.4-1.6-1.1c0-0.1,0-0.2,0-0.2l-0.5-8.1
			c0-0.8-0.6-1.4-1.4-1.4c-0.1,0-0.2,0-0.2,0l-8.7,1.4c-1,0.2-1.6,1.1-1.6,2.1l0.5,7.6c0.1,1-0.6,1.9-1.6,2.1l-14.2,2.4
			c-0.9,0.2-1.6,1-1.6,2V47c-0.1,0.8,0.5,1.4,1.3,1.5c0.1,0,0.2,0,0.3,0L33.9,46c0.7-0.1,1.4,0.4,1.6,1.1c0,0.1,0,0.2,0,0.2l0.5,7.7
			c0.1,1-0.6,1.9-1.6,2.1l-15.6,2.6c-0.9,0.2-1.6,1-1.6,2v9.7c-0.1,0.8,0.5,1.4,1.3,1.5c0.1,0,0.2,0,0.3,0l16.7-2.8
			c0.7-0.1,1.4,0.4,1.6,1.1c0,0.1,0,0.2,0,0.2l1.1,18.2c0,0.8,0.6,1.4,1.3,1.4c0.1,0,0.2,0,0.2,0l8.8-1.5c1-0.2,1.6-1.1,1.6-2.1
			l-1.1-17.7c-0.1-1,0.6-1.9,1.6-2.1l14.8-2.4c0.9-0.2,1.6-1,1.6-2v-9.7c0.1-0.8-0.5-1.4-1.3-1.5c-0.1,0-0.2,0-0.3,0l-15.9,2.6
			c-0.7,0.1-1.4-0.4-1.6-1.1c0-0.1,0-0.2,0-0.2l-0.5-7.7c-0.1-1,0.6-1.9,1.6-2.1l16.3-2.7c0.9-0.2,1.6-1,1.6-2v-9.3
			c0.1-0.8-0.5-1.4-1.3-1.5C65.4,27.9,65.3,27.9,65.2,27.9"/>
		<path id="パス_19956" class="st1" d="M31.8,90.5v-1.5c0-1,0.7-1.8,1.6-2l15-2.6c0.7-0.1,1.5,0.4,1.6,1.1c0,0.1,0,0.2,0,0.3v1.5
			c0,1-0.7,1.8-1.6,2l-15,2.6c-0.7,0.1-1.5-0.4-1.6-1.1C31.8,90.7,31.8,90.6,31.8,90.5"/>
		<path id="パス_19957" class="st1" d="M0,45.2v-1.5c0-1,0.7-1.8,1.6-2l31.1-5.2c0.7-0.1,1.4,0.4,1.6,1.1c0,0.1,0,0.2,0,0.3v1.5
			c0,1-0.7,1.8-1.6,2L1.6,46.6c-0.7,0.1-1.5-0.4-1.6-1.1C0,45.4,0,45.3,0,45.2"/>
		<path id="パス_19958" class="st1" d="M131.2,19.9v-1.1c0-0.7,0.5-1.3,1.2-1.5l14.6-2.4c0.6-0.1,1.1,0.3,1.2,0.8
			c0,0.1,0,0.2,0,0.3v1.1c0,0.7-0.5,1.3-1.2,1.5L132.4,21c-0.6,0.1-1.1-0.3-1.2-0.8C131.2,20,131.2,19.9,131.2,19.9"/>
		<path id="パス_19959" class="st1" d="M205.9,9.3V8.2c0-0.7,0.5-1.3,1.2-1.5l11.4-1.8c0.6-0.1,1.1,0.3,1.2,0.8c0,0.1,0,0.2,0,0.2
			v1.1c0,0.7-0.5,1.3-1.2,1.5l-11.4,1.8c-0.6,0.1-1.1-0.3-1.2-0.8C205.9,9.4,205.9,9.4,205.9,9.3"/>
		<path id="パス_19960" class="st1" d="M68.3,78.4v-1.1c0-0.7,0.5-1.3,1.2-1.5l11.3-1.8c0.6-0.1,1.1,0.3,1.2,0.8
			c0,0.1,0,0.2,0,0.2v1.1c0,0.7-0.5,1.3-1.2,1.5l-11.3,1.8c-0.6,0.1-1.1-0.3-1.2-0.8C68.3,78.5,68.3,78.5,68.3,78.4"/>
		<path id="パス_19961" class="st1" d="M39.1,20.9l9.3-1.5c0.6,0,1.2,0.4,1.2,1.1c0,0.3-0.1,0.7-0.3,0.9c-1.7,1.9-2.7,4.3-3,6.8
			C46,33.8,39.1,20.9,39.1,20.9"/>
		<path id="パス_19962" class="st1" d="M77,41.9l6.9-1.1c0.5,0,0.9,0.3,0.9,0.8c0,0.2-0.1,0.5-0.3,0.7c-1.3,1.4-2,3.1-2.2,5
			C82.1,51.4,77,41.9,77,41.9"/>
		<path id="パス_19963" class="st1" d="M142.9,10.8l7-1.1c0.5,0,0.9,0.3,0.9,0.8c0,0.2-0.1,0.5-0.3,0.7c-1.3,1.4-2.1,3.2-2.2,5.1
			C148.1,20.4,142.9,10.8,142.9,10.8"/>
		<path id="パス_19964" class="st1" d="M234.9,6.4l7-1.1c0.5,0,0.9,0.3,0.9,0.8c0,0.2-0.1,0.5-0.3,0.7c-1.3,1.4-2.1,3.2-2.2,5.1
			C240.1,16,234.9,6.4,234.9,6.4"/>
		<path id="パス_19965" class="st1" d="M262.1,1.6l13,0.4c0.5,0,0.9,0.3,0.9,0.8c0,0.2-0.1,0.5-0.3,0.7c-1,1.2-3.3,3.3-2.6,5.9
			C274.1,13.4,262.1,1.6,262.1,1.6"/>
		<path id="パス_19966" class="st1" d="M205.8,62.5l-7,1.1c-0.5,0-0.9-0.3-0.9-0.8c0-0.3,0.1-0.5,0.3-0.7c1.3-1.4,2.1-3.2,2.2-5.1
			C200.6,52.9,205.8,62.5,205.8,62.5"/>
		<path id="パス_19967" class="st1" d="M144.1,59.6v-1.1c0-0.7,0.5-1.3,1.2-1.5l9.5-1.6c0.6-0.1,1.1,0.3,1.2,0.8
			c0,0.1,0,0.2,0,0.3v1.1c0,0.7-0.5,1.3-1.2,1.5l-9.5,1.6c-0.6,0.1-1.1-0.3-1.2-0.8C144.1,59.8,144.1,59.7,144.1,59.6"/>
	</g>
</g>
</svg>
