<?xml version="1.0" encoding="utf-8"?>
<!-- Generator: Adobe Illustrator 26.4.1, SVG Export Plug-In . SVG Version: 6.00 Build 0)  -->
<svg version="1.1" id="レイヤー_1" xmlns="http://www.w3.org/2000/svg" xmlns:xlink="http://www.w3.org/1999/xlink" x="0px"
	 y="0px" viewBox="0 0 846 68" style="enable-background:new 0 0 846 68;" xml:space="preserve">
<style type="text/css">
	.st0{fill:#FDD000;}
</style>
<path id="sec04_ttl01_pc" class="st0" d="M48,51.9c3.1,1.5,6.3,2.9,9.7,3.9C61,57,64.5,58,68.1,58.7c-1.2,1.2-2.3,2.5-3.3,3.8
	c-1.1,1.4-2.1,2.8-3,4.3c-4-1.1-7.8-2.5-11.5-4.3c-3.8-1.8-7.4-3.8-10.8-6.1v10.9H29.2V56.8c-3.5,2.3-7.1,4.3-10.9,6
	c-3.8,1.7-7.8,3.2-11.9,4.3c-0.9-1.5-1.9-3-3-4.4c-1.1-1.4-2.2-2.8-3.4-4C3.8,58,7.5,57,11.1,55.9c3.4-1.1,6.8-2.4,10.1-3.9H2.7v-8
	h26.6v-2H10.4V23.5l-2.7,2.2c-1-1.4-2.1-2.6-3.3-3.8c-1.2-1.2-2.5-2.3-3.8-3.2c3.6-2.5,6.9-5.4,9.8-8.6c2.7-3,5-6.2,7-9.8l10.4,2.1
	c-1,1.7-2.1,3.5-3.4,5.3h7.8c1.1-2.3,2-4.8,2.8-7.3l11.5,1.3c-1,1.9-2.2,3.9-3.5,5.9h19.7v7.8H41.3v1.9H59v6.5H41.3v2H59v6.5H41.3v2
	h23.2v7.6h-25v2h26.9v8H48z M31.5,17.4v-1.9H20v1.9H31.5z M31.5,25.9v-2H20v2H31.5z M20,32.3v2h11.5v-2H20z M112.5,0.5
	c3.7,5.4,8.3,10.3,13.4,14.4c4.9,4,10.4,7.2,16.3,9.4c-2.6,2.8-4.8,5.9-6.6,9.2c-3.5-1.9-6.8-3.9-10-6.2V32h-35v-5
	c-3.3,2.4-6.7,4.6-10.4,6.5c-0.9-1.5-1.8-2.9-2.9-4.3c-1-1.4-2.2-2.8-3.5-4c5.9-2.9,11.4-6.6,16.3-11.1c4.5-3.9,8.5-8.5,11.7-13.6
	H112.5z M119.9,23c-4.6-3.6-8.7-7.8-12.2-12.5c-3.4,4.7-7.4,8.9-12,12.5L119.9,23z M85.5,67.5V38h45.6v29.5h-10.5V65H95.5v2.5H85.5z
	 M120.6,46.9H95.5v9.2h25.1V46.9z M214.9,55.5v9.7h-45.4v-9.7h17.8V43.6h-14.1V34h14.1V23.5h-16.3v-9.7h17.3c-3.7-2.6-7-4.7-9.7-6.2
	l6.7-7.3c2.9,1.5,5.9,3.2,9,5.1c2.5,1.5,4.9,3.1,7.1,5l-3.1,3.5h15.5v9.7h-16.2V34h14.3v9.7h-14.3v11.9H214.9z M172.8,3.7
	c-1.8,4.5-3.9,8.9-6.2,13.1v50.4h-9.7V31.4c-1.5,1.9-3.1,3.7-4.8,5.4c-0.6-1.8-1.4-3.6-2.3-5.4c-0.9-1.8-1.8-3.6-2.9-5.2
	c3.5-3.5,6.6-7.3,9.2-11.5c2.9-4.4,5.3-9.2,7.1-14.1L172.8,3.7z M234.7,15.6v7.9h-10.4V6h24.8V0.5H260V6h25.1v17.5h-10.9v-7.9
	L234.7,15.6z M272.8,56.8c1,0.1,2-0.2,2.8-0.7c0.7-0.7,1.2-1.6,1.3-2.6c0.4-2,0.6-4,0.7-6c1.4,1,3,1.8,4.7,2.5
	c1.8,0.7,3.6,1.3,5.5,1.8c-0.3,3.2-1,6.3-2.1,9.3c-0.8,2-2.3,3.6-4.2,4.5c-2.4,1-5.1,1.5-7.7,1.3h-12.3c-3,0.1-6-0.3-8.9-1.2
	c-2-0.7-3.5-2.2-4.4-4.1c-1-2.6-1.4-5.4-1.3-8.2V47l-22.5,2.3l-1.3-9.9l23.7-2.2v-5.3c-3.6,0.5-8.1,1-13.4,1.4
	c-0.3-1.5-0.7-3-1.2-4.5c-0.5-1.5-1.1-3-1.8-4.5c6.9-0.6,13.7-1.6,20.5-2.9c5.6-1,11-2.6,16.3-4.6l7.8,8.5c-5.5,2-11.3,3.6-17.1,4.7
	v6.1l27.1-2.5l1.2,9.5L258,45.9v7.2c0,0.8,0.1,1.7,0.3,2.5c0.2,0.5,0.7,0.8,1.2,1c1,0.2,2,0.3,3.1,0.2H272.8z M315.9,38.8h9.7
	c-0.8,1.4-1.4,2.9-2,4.4c-0.4,1.3-0.7,2.7-0.7,4.1c-0.1,0.9,0.1,1.7,0.5,2.5c0.5,0.9,1.3,1.6,2.3,2c1.6,0.6,3.3,0.9,5.1,0.8
	c3,0,6.1-0.1,9.1-0.4c1.1-0.1,2.2-0.2,3.2-0.5v11.2c-1.7,0.3-3.4,0.5-5.1,0.6c-1.9,0.1-4.5,0.2-7.9,0.2c-5.5-0.1-9.6-1.5-12.4-4.1
	c-2.8-2.4-4.4-5.8-4.5-9.5c-0.1-2.1,0.1-4.2,0.6-6.2C314.3,42.3,315,40.5,315.9,38.8z M300.3,10.7h10.5c-0.7,5.4-1.2,10.2-1.5,14.3
	c-0.3,4.1-0.5,8.3-0.6,12.5c0.1,4.5,0.3,8.9,0.7,13c0.4,4.2,1,9,1.9,14.5h-10.8c-0.7-5.3-1.3-10-1.6-14.1s-0.5-8.5-0.6-13.2
	c0-4.4,0.2-8.7,0.6-12.8S299.6,16.1,300.3,10.7z M315.3,13.8h26.6v10.8h-26.6V13.8z M370,25.6h-12.7v-9.9H370v-7h9.7v7h7.3
	c-0.8-1.8-2.1-4-3.6-6.8h10.8c3.4,7,5.7,12.2,7.1,15.9c1.4,3.6,2,5.5,2,5.5h-10.3c-0.8-2.3-1.5-4.3-2-5.8c-0.9-2.2-1.9-4.3-3-6.4
	v7.5h-8.3V31c0.5-0.1,1-0.2,1.5-0.3c2.3,0,4.5,0.2,6.7,0.6c2.4,0.4,4.6,1.3,6.7,2.5c2.2,1.3,3.9,3.2,5.1,5.5
	c1.4,2.9,2.2,6.1,2.1,9.4c0.1,3.2-0.6,6.5-2,9.4c-1.2,2.2-2.9,4.2-5,5.5c-1.9,1.3-4.1,2.1-6.3,2.6c-2,0.4-4,0.7-6,0.7V56.2
	c1.9,0.1,3.8-0.2,5.6-0.7c1.3-0.4,2.3-1.2,2.9-2.4c0.6-1.4,0.9-2.8,0.8-4.3c0.1-2.3-0.9-4.6-2.8-5.9c-1.9-1.4-4.7-2-8.5-1.8h-0.4
	c-0.1,0-0.3,0-0.4,0.1v11.9c-0.1,3.9-0.9,6.7-2.3,8.5c-1.1,1.6-2.6,2.8-4.4,3.5c-1.4,0.5-2.8,0.7-4.3,0.6c-2.1,0-4.1-0.6-5.9-1.8
	c-2-1.3-3.7-3-5-5.1c-1.4-2.4-2.2-5.2-2.2-8c-0.1-2.7,0.5-5.5,1.7-7.9c1.3-2.4,3-4.6,5.1-6.3c2.2-1.8,4.8-3.3,7.5-4.2V25.6z
	 M370,53.9V43.1c-1.5,0.7-2.8,1.8-3.7,3.2c-0.9,1.3-1.3,2.9-1.3,4.4c-0.1,0.9,0.1,1.8,0.7,2.6c0.4,0.6,1,1.1,1.7,1.4
	c0.5,0.3,1.1,0.4,1.7,0.4c0,0,0.2,0,0.5-0.1C369.8,54.9,369.9,54.6,370,53.9L370,53.9z M480,55.5v9.7h-45.4v-9.7h17.8V43.6h-14.1V34
	h14.1V23.5h-16.3v-9.7h17.3c-3.7-2.6-7-4.7-9.7-6.2l6.7-7.3c2.9,1.5,5.9,3.2,9,5.1c2.5,1.5,4.9,3.1,7.1,5l-3.1,3.5H479v9.7h-16.2V34
	h14.3v9.7h-14.3v11.9H480z M437.9,3.7c-1.8,4.5-3.9,8.9-6.2,13.1v50.4H422V31.4c-1.5,1.9-3.1,3.7-4.8,5.4c-0.6-1.8-1.4-3.6-2.3-5.4
	c-0.9-1.8-1.8-3.6-2.9-5.2c3.5-3.5,6.6-7.3,9.2-11.5c2.9-4.4,5.3-9.2,7.1-14.1L437.9,3.7z M489.5,37.8v-9.6h18.1v-3.9h-19.4v-9.8
	h19.4V8.5h10.1v6.1h14.8v9.8h-14.8v3.9h13.6v9.6h-13.6V43c2.2,0.8,4.3,1.8,6.3,3c1.8,1,3.6,2.2,5.2,3.4c0.7,0.5,1.4,1.1,2.1,1.7
	v12.1c0,0-0.7-0.7-2.1-1.9c-1.4-1.2-3.1-2.6-5.1-4.2c-2-1.6-4.2-3.1-6.4-4.3V55c0,3.7-0.8,6.4-2.3,8.1c-1.4,1.7-3.2,2.9-5.3,3.4
	c-2.1,0.5-4.2,0.8-6.3,0.7c-2.6,0-5.2-0.5-7.7-1.4c-2.2-0.8-4.1-2.3-5.6-4.2c-1.4-2-2.1-4.3-2.1-6.8c-0.1-2.8,0.8-5.6,2.6-7.8
	c1.9-2.1,4.4-3.5,7.2-4.2c3.1-0.9,6.3-1.3,9.5-1.4v-3.7H489.5z M503.8,58c0.9,0,1.8-0.3,2.6-0.8c0.8-0.6,1.2-1.4,1.3-2.4v-4.4
	c-2.4-0.4-4.8-0.2-7.1,0.8c-1.8,0.9-2.7,1.9-2.7,2.9c0,1,0.4,2,1.1,2.8C499.8,57.6,501.4,58,503.8,58z M546.3,11h10.5
	c0,0.1,0,1.1-0.1,3.1c-0.1,2-0.2,4.5-0.3,7.7c-0.1,3.1-0.2,6.4-0.2,9.8s-0.1,6.5-0.2,9.4c0,3,0.1,6,0.5,9c0.3,2.3,1.1,3.5,2.3,3.7
	c1.6-0.1,3.1-0.7,4.4-1.5c1.5-0.9,3-1.8,4.4-2.9c1.3-1,1.9-1.5,2-1.5v11.7c-0.5,0.4-1,0.8-1.5,1.2c-1.2,1-2.6,1.9-4.1,2.5
	c-2,0.9-4,1.5-6.2,1.7c-3.7,0.5-7.4-1.5-9.1-4.9c-2-3.6-3-9.1-3-16.5c0-3,0-6.4,0-10c0-3.7,0.1-7.2,0.1-10.6
	c0.1-3.4,0.1-6.2,0.2-8.4S546.3,11.1,546.3,11z M574.5,11h10.8c0,0,0.5,1.9,1.5,5.7c1.2,5,2.1,10.1,2.7,15.2
	c0.9,6.4,1.2,15.5,1.1,27.5H580c0-0.1,0-0.6,0-1.7c0-1,0-3.5,0-7.4c0-3.9-0.2-8.3-0.7-13s-1-9.3-1.8-13.9
	C576.9,19.2,575.9,15,574.5,11L574.5,11z M618.9,50.3c1.1,0,2-0.9,2.7-2.7c0.8-2.3,1.4-4.8,1.7-7.2c0.4-2.9,0.8-6,1-9.2
	c0.2-3.2,0.3-6.1,0.2-8.7c-2.1,0.7-3.9,2.2-5.1,4c-1.4,2-2.5,4.3-3.1,6.7c-0.7,2.3-1.1,4.6-1.2,6.9c-0.1,3.5,0.2,6.1,0.9,7.7
	C616.7,49.4,617.7,50.2,618.9,50.3L618.9,50.3z M643.8,36.1c0-3.3-0.9-6.5-2.4-9.4c-1.4-2.5-4-4.2-6.9-4.5
	c-0.1,4.6-0.4,9.2-0.9,13.8c-0.4,4.4-1.3,8.7-2.6,12.8c-1,3.4-2.7,6.5-4.9,9.3c-1.8,2.2-4.6,3.5-7.4,3.3c-2.2-0.1-4.4-0.9-6.3-2.1
	c-2.3-1.7-4-4-5-6.7c-1.4-3.1-2.1-7.3-2.1-12.6c0-4.9,1.1-9.7,3.1-14.2c1.8-4,4.6-7.6,8-10.3c3.3-2.6,7.2-4.2,11.4-4.5
	c4.3-0.4,8.6,0.3,12.6,2c4,1.8,7.3,4.7,9.5,8.5c2.5,4,3.8,9.1,4.1,15.3c0.2,4.6-0.5,9.3-2.1,13.7c-1.2,3.4-3.2,6.4-5.7,8.9
	c-2.2,2.1-4.8,3.6-7.7,4.6c-2.4,0.9-5,1.4-7.6,1.4V54.8c3.7,0,7.2-1.8,9.4-4.9C642.7,46.8,643.8,42.2,643.8,36.1z M696,21
	c-0.1,2.9-0.4,5.5-0.7,7.8h26.6c0,1.4-0.1,2.9-0.3,4.3c-0.3,7-1.1,13.9-2.1,20.9c-0.8,4.5-1.9,7.6-3.4,9.2c-1,1.1-2.2,2-3.6,2.6
	c-1.5,0.6-3.2,1-4.8,1.2c-1.7,0.1-3.9,0.2-6.6,0.2c-2.5,0-4.4,0-5.7-0.1c-0.1-1.7-0.5-3.5-1.1-5.1c-0.6-1.8-1.4-3.4-2.5-5
	c3.2,0.3,7.1,0.4,11.8,0.4c0.7,0,1.4,0,2-0.2c0.5-0.1,1-0.4,1.5-0.7c1.7-1.4,2.9-7.4,3.7-18h-17.1c-1.4,6.1-3.9,11.9-7.6,16.9
	c-4,5.3-9.2,9.6-15.1,12.6c-0.9-1.7-1.9-3.2-3.1-4.7c-1.2-1.5-2.6-2.9-4.1-4.1c5.8-2.7,10.2-6.1,13.1-10.1c2.8-3.7,4.8-8,5.9-12.5
	c1.1-5.2,1.7-10.4,1.9-15.7h-19.3v-9.8h26.2V0h10.6v11.2h27.1V21L696,21z M750,27.2h-10.4V16.7h10.8c0.2-2.4,0.4-5.1,0.6-8.1h10.4
	c-0.2,3-0.3,5.7-0.5,8.1h15.2v10.5h-15.8c-0.1,1-0.2,2.1-0.2,3.1c0,1-0.1,2-0.1,3h11.3v10.2h-11.5c-0.3,4,0,7.1,0.9,9.4
	c1,2.3,3,3.4,6.2,3.5c2.5,0,4.3-0.4,5.4-1.2c1.1-0.7,1.9-1.7,2.4-2.9c0.5-1.2,0.7-2.4,0.7-3.7c0-1.6-0.2-3.3-0.5-4.9
	c-0.3-1.8-0.8-4-1.4-6.6H784c1.2,4.3,1.8,8.7,1.9,13.1c0,1.6-0.2,3.2-0.6,4.8c-0.5,2.1-1.4,4-2.7,5.7c-1.5,2-3.5,3.6-5.7,4.7
	c-3.1,1.4-6.5,2.1-9.9,2c-4.9,0-8.7-1.3-11.4-3.6c-2.7-2.3-4.5-5.5-5.2-9c-0.8-3.7-1-7.5-0.7-11.3h-10V33.3h10.1c0-1,0-2,0-3
	C749.8,29.3,749.9,28.2,750,27.2L750,27.2z M803.3,41.6l-1.8-23.8l-0.4-11.2h12.5l-0.4,11.2l-1.8,23.8H803.3z M807.3,61.7
	c-2,0-3.9-0.8-5.2-2.3c-1.4-1.5-2.2-3.5-2.1-5.6c-0.1-2.1,0.7-4,2.1-5.5c1.4-1.5,3.3-2.3,5.2-2.2c2-0.1,3.9,0.7,5.3,2.2
	c1.4,1.5,2.2,3.5,2.1,5.5c0.1,2.1-0.7,4.1-2.1,5.6C811.3,60.9,809.3,61.7,807.3,61.7z M834.6,41.6l-1.8-23.8l-0.4-11.2h12.5
	l-0.4,11.2l-1.8,23.8H834.6z M838.6,61.7c-2,0-3.9-0.8-5.2-2.3c-1.4-1.5-2.2-3.5-2.1-5.6c-0.1-2.1,0.7-4,2.1-5.5
	c1.4-1.5,3.3-2.3,5.2-2.2c2-0.1,3.9,0.7,5.3,2.2c1.4,1.5,2.2,3.5,2.1,5.5c0.1,2.1-0.7,4.1-2.1,5.6C842.5,60.9,840.6,61.7,838.6,61.7
	z"/>
</svg>
