<?xml version="1.0" encoding="utf-8"?>
<!-- Generator: Adobe Illustrator 26.4.1, SVG Export Plug-In . SVG Version: 6.00 Build 0)  -->
<svg version="1.1" id="sec01_text01_pc" xmlns="http://www.w3.org/2000/svg" xmlns:xlink="http://www.w3.org/1999/xlink" x="0px"
	 y="0px" viewBox="0 0 586 194" style="enable-background:new 0 0 586 194;" xml:space="preserve">
<style type="text/css">
	.st0{clip-path:url(#SVGID_00000101090966799500547680000003630864775052781498_);}
	.st1{fill:#07569E;}
</style>
<g>
	<defs>
		<rect id="SVGID_1_" width="586" height="194"/>
	</defs>
	<clipPath id="SVGID_00000027587386651980079490000004329463280491939259_">
		<use xlink:href="#SVGID_1_"  style="overflow:visible;"/>
	</clipPath>
	<g id="グループ_4471" style="clip-path:url(#SVGID_00000027587386651980079490000004329463280491939259_);">
		<path id="パス_19945" class="st1" d="M490.5,80.4c0.1,2,1,4,2.6,5.3c1.5,1.4,3.6,1.9,5.6,1.5c2.2-0.4,4.1-1.6,5.5-3.4
			c1.5-1.7,2.4-3.9,2.6-6.2l2.9-42l0.4-11.1c0.2-3.2-1-6.3-3.2-8.5c-2.2-2.1-5.3-3-8.3-2.4c-3.3,0.6-6.2,2.4-8.1,5.2
			c-2.2,2.7-3.3,6.1-3.2,9.5l0.4,11L490.5,80.4z"/>
		<path id="パス_19946" class="st1" d="M244.3,120.6c0.1,1.2,1.1,2,2.3,1.9c0.1,0,0.1,0,0.2,0l7.4-1.2c1.6-0.4,2.7-1.9,2.4-3.6
			l-6.3-38.3c-0.1-1.2-1.2-2-2.3-1.8c0,0-0.1,0-0.1,0l-7,1.2c-1.6,0.4-2.7,1.9-2.5,3.5L244.3,120.6z"/>
		<path id="パス_19947" class="st1" d="M448.9,109.1c-5.8-5-11.6-10-17.5-15.2s-11.1-9.6-15.4-13.4c-4.3-3.8-7.1-6.3-8.2-7.4
			c-1.1-1.2-1.8-2.7-1.9-4.3c0-1.4,0.5-2.8,1.4-3.9c1-1.5,3.7-4.6,8.1-9.4c4.3-4.8,9.5-10.3,15.5-16.6c3-3.2,6-6.3,9-9.5l-15.6,2.4
			c-1.2,0.2-2.3-0.6-2.5-1.8c0-0.2,0-0.3,0-0.5v-2.3c0-1.5,1-2.8,2.5-3.1l24.3-3.8c4.4-4.6,9.4-9.9,14.9-15.8c1.8-1.9,0.8-5-1.6-4.6
			l-27.5,4.5c-0.6,0.1-1.2,0.4-1.6,0.9c-5.1,5.3-9.5,10-13.3,14.2c-4,4.3-8.1,8.9-12.4,13.5c-4.3,4.7-8.2,8.9-11.7,12.8
			c-3.5,3.8-6,6.7-7.5,8.5c-4.3,5.4-6.7,12-6.8,18.9c-0.2,6.7,2.3,13.1,6.9,17.9c2.3,2.5,4.8,4.9,7.4,7c3.6,3.1,7.7,6.5,12.2,10.3
			c4.5,3.7,9,7.4,13.2,11c4.1,3.4,8.9,7.4,14.3,11.8c0.5,0.4,1.1,0.5,1.7,0.4l25.9-4.3c2.3-0.4,3.4-3.6,1.7-5
			C458.7,117.5,453.5,113.1,448.9,109.1"/>
		<path id="パス_19948" class="st1" d="M280.5,72.2L269.9,74c-1.4,0.3-2.4,1.5-2.5,2.8c-0.1,1.1-0.2,2.5-0.4,4.2
			c-0.5,4.3-1.4,9.7-2.8,16.3c-1.5,7-3.6,13.9-6.1,20.6c-2.7,7.2-6.8,13.9-12,19.6c-5,5.5-11.2,9.8-18.2,12.5c-1.2,0.5-2,1.7-2,3
			v12.8c-0.1,1.2,0.8,2.2,2,2.3c0.3,0,0.7,0,1-0.2c7.5-2.8,14.4-7,20.3-12.3c6.3-5.8,11.8-12.4,16.2-19.8c4.2-7,7.6-14.4,10.1-22.2
			c2.2-6.8,3.9-13.7,5.2-20.7c0.9-5.5,1.7-11.6,2.2-18.2c0.2-1.2-0.6-2.3-1.8-2.5C281,72.2,280.7,72.2,280.5,72.2"/>
		<path id="パス_19949" class="st1" d="M213.9,95.2l-36.6,7.3c-1.1,0.2-2.3-0.5-2.5-1.6c0-0.1,0-0.2,0-0.3l-1.2-11.4
			c-0.1-1.2-1-2.1-2.2-2c-0.1,0-0.2,0-0.3,0l-10.3,1.7c-1.6,0.4-2.6,1.8-2.5,3.4l1.1,10.9c0.1,1.5-0.9,3-2.4,3.4l-5.3,1.2
			c-1.4,0.4-2.4,1.6-2.4,3.1v11.8c-0.1,1.2,0.8,2.2,2,2.3c0.2,0,0.4,0,0.6,0l7.3-1.6c1.1-0.3,2.3,0.4,2.5,1.6c0,0.1,0,0.3,0.1,0.4
			l6,53c0.1,1.2,1,2.1,2.2,2c0.1,0,0.2,0,0.3,0l10.1-1.7c1.6-0.4,2.6-1.8,2.5-3.4l-5.8-52.3c-0.2-1.6,0.9-3,2.4-3.4l17.7-3.6
			c1.8-0.4,3.1,1.5,2.4,3.4c-0.7,1.8-1.4,3.5-2.4,5.1c-1.5,2.5-3.1,4.9-4.9,7.1c-1.6,1.9-3.3,3.6-5.2,5.2c-0.8,0.6-1.2,1.6-1.2,2.5
			v12.8c-0.1,1.2,0.8,2.3,2,2.3c0.6,0,1.2-0.2,1.7-0.6c3.2-2.5,6.2-5.2,9-8c4-4.2,7.5-8.9,10.4-13.9c3.6-6,6.1-12.6,7.4-19.5
			c0-0.2,0.1-0.4,0.1-0.7V97.5c0.1-1.2-0.8-2.2-2-2.3C214.3,95.1,214.1,95.1,213.9,95.2"/>
		<path id="パス_19950" class="st1" d="M234.5,124.4c1.6-0.4,2.7-1.9,2.5-3.6l-6.1-38.3c-0.1-1.2-1.2-2-2.3-1.9c0,0-0.1,0-0.1,0
			l-7,1.2c-1.6,0.4-2.7,1.9-2.5,3.5l5.9,38.4c0.1,1.2,1.1,2,2.3,1.9c0.1,0,0.1,0,0.2,0L234.5,124.4z"/>
		<path id="パス_19951" class="st1" d="M372.9,54.5l-55.1,9.1c-1.2,0.2-2.3-0.6-2.5-1.8c0-0.2,0-0.4,0-0.5V23.4
			c0.1-1.2-0.8-2.2-2-2.3c-0.2,0-0.4,0-0.5,0L295.1,24c-1.5,0.3-2.5,1.6-2.5,3.1v15l7.2-1.1c1.2-0.2,2.3,0.6,2.5,1.8
			c0,0.2,0,0.4,0,0.5v2.3c0,1.5-1,2.8-2.5,3.1l-7.3,1.1v106.3c-0.1,1.2,0.8,2.2,2,2.3c0.2,0,0.4,0,0.5,0l17.6-2.9
			c1.5-0.3,2.5-1.6,2.5-3.1v-17.9l-5.9,0.9c-1.2,0.2-2.3-0.6-2.5-1.8c0-0.2,0-0.3,0-0.5v-2.3c0-1.5,1-2.8,2.5-3.1l5.9-0.9V91.9
			c0-1.5,1-2.8,2.5-3.1l55.1-9.1c1.5-0.3,2.5-1.6,2.5-3.1V56.8c0.1-1.2-0.8-2.2-2-2.3C373.3,54.5,373.1,54.5,372.9,54.5"/>
		<path id="パス_19952" class="st1" d="M509.3,102.9L509.3,102.9l-0.3-0.5l0,0c-1.5-2.6-3-5.1-3-5.1l-2.9,5.9
			c-1.4-0.1-2.8,0-4.2,0.3c-1.3,0.2-2.5,0.6-3.7,1l-2.8-4.9c0,0-5.9,11.9-6,12.3c-0.9,1.9-1.2,3.9-0.9,5.9c0.1,0.9,0.4,1.8,0.8,2.6
			l0,0l0.2,0.5l0,0c1.2,1.9,3,3.3,5.1,4.1c2.4,1,5.1,1.3,7.6,0.8c2.8-0.4,5.4-1.6,7.7-3.3c3.3-2.4,5.7-5.5,6.2-9.2
			c0.3-1.9,0-3.9-0.9-5.6C511.6,106.7,510.5,104.8,509.3,102.9"/>
		<path id="パス_19953" class="st1" d="M559.5,94.6L559.5,94.6l-0.3-0.5l0,0c-1.5-2.6-3-5.1-3-5.1l-2.9,5.9
			c-1.4-0.1-2.8,0-4.2,0.3c-1.3,0.2-2.5,0.6-3.7,1l-2.8-4.9c0,0-5.9,11.9-6,12.3c-0.9,1.9-1.2,3.9-0.9,5.9c0.1,0.9,0.4,1.8,0.8,2.6
			l0,0l0.2,0.5l0,0c1.2,1.9,3,3.3,5.1,4.1c2.4,1,5.1,1.3,7.6,0.8c2.8-0.4,5.4-1.6,7.7-3.3c3.3-2.4,5.7-5.5,6.2-9.2
			c0.3-1.9,0-3.9-0.9-5.6C561.7,98.5,560.6,96.6,559.5,94.6"/>
		<path id="パス_19954" class="st1" d="M572.7,7.6c-5.3-3.8-12.4-5-21.2-3.5c-8.1,1.3-15.5,5.2-22.1,11.7
			c-2.4,2.2-3.7,5.2-3.7,8.4c-0.1,2.4,0.9,4.8,2.6,6.5c1.7,1.6,4.1,2.3,6.4,1.8c2-0.4,3.8-1.3,5.2-2.7c2.4-2.4,5.4-4,8.7-4.6
			c2.4-0.6,4.9-0.1,6.9,1.3c1.8,1.3,2.6,3.6,2.6,6.8c0,2.3-0.7,4.5-1.8,6.5c-1.7,3-3.6,5.8-5.6,8.5c-2.6,3.7-4.6,6.7-6,9
			c-1.5,2.4-2.7,5-3.6,7.7c-0.5,1.5-0.8,3-0.8,4.6c-0.1,2.8,1,5.5,3,7.5c2,1.9,4.7,2.7,7.4,2.2c2.4-0.4,4.5-1.6,6.2-3.4
			c1.8-1.8,3-4.1,3.6-6.6c0.7-2.8,1.8-5.6,3.3-8.1c1.5-2.5,3.6-5.5,6.2-9.2c3-3.9,5.7-8,8-12.4c1.8-3.7,2.8-7.7,2.7-11.8
			C580.7,18.1,578.1,11.4,572.7,7.6"/>
		<path id="パス_19955" class="st1" d="M138.5,58.9l-36.7,6c-1.6,0.3-3.1-0.8-3.3-2.4c0-0.2,0-0.3,0-0.5l-1.1-17
			c0-1.6-1.3-2.9-2.9-2.9c-0.2,0-0.3,0-0.5,0l-18.5,3.1c-2.1,0.5-3.5,2.3-3.4,4.4l1,16.1c0.1,2.1-1.3,4-3.4,4.4l-30.1,5
			c-2,0.4-3.4,2.2-3.4,4.2v19.7c-0.1,1.6,1.1,3,2.7,3.1c0.2,0,0.5,0,0.7,0l32.2-5.3c1.6-0.3,3.1,0.8,3.3,2.4c0,0.2,0,0.3,0,0.5
			l1,16.2c0.1,2.1-1.3,4-3.4,4.4l-33.2,5.5c-2,0.4-3.4,2.2-3.4,4.2v20.4c-0.1,1.6,1.1,3,2.7,3.1c0.2,0,0.5,0,0.7,0l35.4-5.8
			c1.6-0.3,3.1,0.8,3.3,2.4c0,0.2,0,0.3,0,0.5l2.4,38.3c0,1.6,1.3,2.9,2.8,2.9c0.2,0,0.3,0,0.5,0l18.6-3.1c2.1-0.5,3.5-2.4,3.4-4.5
			l-2.4-37.3c-0.1-2.1,1.3-4,3.4-4.5l31.3-5.2c2-0.4,3.4-2.2,3.4-4.2v-20.4c0.1-1.6-1.1-3-2.7-3.1c-0.2,0-0.5,0-0.7,0l-33.7,5.6
			c-1.6,0.3-3-0.8-3.3-2.4c0-0.2,0-0.3,0-0.5l-1-16.2c-0.1-2.1,1.3-4,3.4-4.4l34.6-5.7c2-0.4,3.4-2.2,3.4-4.2V62
			c0.1-1.6-1.1-3-2.7-3.1C138.9,58.9,138.7,58.9,138.5,58.9"/>
		<path id="パス_19956" class="st1" d="M67.5,190.9v-3.1c0-2,1.4-3.8,3.4-4.2l31.9-5.5c1.6-0.3,3.1,0.8,3.3,2.4c0,0.2,0,0.5,0,0.7
			v3.1c0,2-1.4,3.8-3.4,4.2L70.9,194c-1.6,0.3-3.1-0.8-3.3-2.4C67.5,191.3,67.5,191.1,67.5,190.9"/>
		<path id="パス_19957" class="st1" d="M0,95.2v-3.1c0-2,1.4-3.8,3.4-4.2l66.1-10.9c1.6-0.3,3.1,0.8,3.3,2.4c0,0.2,0,0.5,0,0.7
			v3.1c0,2-1.4,3.8-3.4,4.2L3.4,98.3c-1.6,0.3-3.1-0.8-3.3-2.4C0,95.7,0,95.5,0,95.2"/>
		<path id="パス_19958" class="st1" d="M278.7,41.9v-2.3c0-1.5,1-2.8,2.5-3.1l30.9-5c1.2-0.2,2.3,0.6,2.5,1.8c0,0.2,0,0.4,0,0.5
			v2.3c0,1.5-1,2.8-2.5,3.1l-30.9,5c-1.2,0.2-2.3-0.6-2.5-1.8C278.7,42.2,278.7,42,278.7,41.9"/>
		<path id="パス_19959" class="st1" d="M437.1,19.5v-2.3c0-1.5,1-2.8,2.5-3.1l24.3-3.8c1.2-0.2,2.3,0.6,2.5,1.8c0,0.2,0,0.3,0,0.5
			v2.3c0,1.5-1,2.8-2.5,3.1l-24.3,3.8c-1.2,0.2-2.3-0.6-2.5-1.8C437.1,19.9,437.1,19.7,437.1,19.5"/>
		<path id="パス_19960" class="st1" d="M145,165.3V163c0-1.5,1-2.8,2.5-3.1l24-3.8c1.2-0.2,2.3,0.6,2.5,1.8c0,0.2,0,0.3,0,0.5v2.3
			c0,1.5-1,2.8-2.5,3.1l-24,3.7c-1.2,0.2-2.3-0.6-2.5-1.8C145,165.6,145,165.5,145,165.3"/>
		<path id="パス_19961" class="st1" d="M82.9,44.1l19.8-3.2c2.2-0.4,3.4,2.4,1.9,4.2c-3,3.4-6,8.4-6.3,14.3
			C97.7,71.2,82.9,44.1,82.9,44.1"/>
		<path id="パス_19962" class="st1" d="M163.4,88.3l14.6-2.4c1.6-0.3,2.5,1.8,1.4,3.1c-2.7,2.9-4.3,6.6-4.7,10.6
			C174.3,108.4,163.4,88.3,163.4,88.3"/>
		<path id="パス_19963" class="st1" d="M303.3,22.7l14.8-2.4c1.6-0.3,2.5,1.8,1.4,3.1c-2.7,2.9-4.4,6.7-4.7,10.7
			C314.4,43,303.3,22.7,303.3,22.7"/>
		<path id="パス_19964" class="st1" d="M498.7,13.5l14.8-2.4c1.6-0.3,2.5,1.8,1.4,3.1c-2.7,2.9-4.4,6.7-4.7,10.7
			C509.7,33.7,498.7,13.5,498.7,13.5"/>
		<path id="パス_19965" class="st1" d="M556.4,3.4l27.7,0.8c1.6-0.3,2.5,1.8,1.4,3.1c-2.2,2.6-7.1,6.9-5.6,12.5
			C582,28.2,556.4,3.4,556.4,3.4"/>
		<path id="パス_19966" class="st1" d="M436.9,131.7l-14.8,2.4c-1.6,0.3-2.5-1.8-1.4-3.1c2.7-2.9,4.4-6.7,4.7-10.7
			C425.9,111.5,436.9,131.7,436.9,131.7"/>
		<path id="パス_19967" class="st1" d="M306,125.8v-2.3c0-1.5,1-2.8,2.5-3.1l20.1-3.5c1.2-0.2,2.3,0.6,2.5,1.8c0,0.2,0,0.3,0,0.5
			v2.3c0,1.5-1,2.8-2.5,3.1l-20.1,3.5c-1.2,0.2-2.3-0.6-2.5-1.8C306,126.1,306,125.9,306,125.8"/>
	</g>
</g>
</svg>
