<?xml version="1.0" encoding="utf-8"?>
<!-- Generator: Adobe Illustrator 26.4.1, SVG Export Plug-In . SVG Version: 6.00 Build 0)  -->
<svg version="1.1" id="レイヤー_1" xmlns="http://www.w3.org/2000/svg" xmlns:xlink="http://www.w3.org/1999/xlink" x="0px"
	 y="0px" viewBox="0 0 614 152" style="enable-background:new 0 0 614 152;" xml:space="preserve">
<style type="text/css">
	.st0{fill:none;stroke:#08569E;stroke-width:4.9995;}
	.st1{fill:#08569E;}
</style>
<g>
	<line id="線_101" class="st0" x1="0.1" y1="68.7" x2="342.1" y2="49.7"/>
	<path id="パス_16035" class="st0" d="M33.8,149.5l574.6-32.1"/>
	<g>
		
			<rect x="3" y="11.7" transform="matrix(0.9986 -5.239576e-02 5.239576e-02 0.9986 -0.7625 1.336)" class="st1" width="44.1" height="7"/>
		<path class="st1" d="M44.5,20.8L7.9,22.8l0.6,10.9c0.2,3.7,0,7.4-0.7,11c-0.8,3.4-2.5,6.5-5.1,8.8c1.1,0.6,2.2,1.4,3.1,2.2
			c1,0.8,1.9,1.7,2.8,2.6c3.8-3.7,6.2-9,7.1-16.1l22.5-1.2l0.2,3.2l7.4-0.4L44.5,20.8z M15.9,35.5c0-0.5,0-1.2-0.1-2.2l-0.2-4.3
			l21.8-1.1l0.3,6.4L15.9,35.5z"/>
		<path class="st1" d="M68,24.8c0,6.2-0.8,12.3-2.3,18.3c2.3,1.4,4.9,2.3,7.5,2.6c3.3,0.4,6.7,0.5,10,0.4c8.9-0.5,14.8-0.8,17.6-1.1
			c-0.6,1.1-1.1,2.2-1.4,3.4c-0.4,1.3-0.7,2.5-0.9,3.9L83.4,53c-3.8,0.3-7.7,0.1-11.5-0.4c-3.1-0.4-6.1-1.5-8.7-3.1
			c-1.1,2.4-2.8,4.4-4.7,6.2c-0.8-0.9-1.7-1.8-2.7-2.5c-0.9-0.8-1.9-1.5-3-2c2.1-1.7,3.9-3.9,5-6.4c-2.2-2.9-4-6.1-5.3-9.5l5.5-2.2
			c0.6,1.5,1.3,3,2.1,4.3c0.4-2.2,0.7-4.4,0.9-6.7l-2,0.1L58.6,32L52,30.7c1.9-4.8,3.6-9.4,5.2-13.9l-5.7,0.3l-0.3-6.3l8.8-0.5
			l1-0.3l5,1c-1.3,4.2-2.8,8.6-4.5,13.3l1-0.1l1.2-0.2L68,24.8z"/>
		<path class="st1" d="M98.5,35l-12.7,0.7l-0.1-1.3l10.4-0.5l-0.3-5.1l-10.4,0.5l-0.1-1.3l10.1-0.5l-0.3-6.5l3.7-0.2l-0.3-5.5
			l-3.7,0.2l-0.3-6.5L84.4,9.3l-0.1-2.3l-7,0.4l0.1,2.3l-8.6,0.5l0.3,5.4l8.6-0.5l0.1,1.1l-12,0.6l0.3,5.5l12-0.6l0.1,1.1l-8.8,0.5
			l0.3,5.4l8.8-0.5l0.1,1.3L69.3,30l0.3,5.1l9.1-0.5l0.1,1.3l-11.3,0.6l0.3,5.6L79,41.7l0.2,3.3l7-0.4L86,41.3l12.7-0.7L98.5,35z
			 M84.6,14.7l2.9-0.2l0.1,1.1l-2.9,0.2L84.6,14.7z M85,21.3l2.9-0.2l0.1,1.1L85,22.5L85,21.3z"/>
	</g>
	<path d="M117.1,32.1l6.9-0.4c-0.5,1-0.9,2.1-1.2,3.2c-0.3,1-0.4,1.9-0.3,2.9c0,0.6,0.1,1.2,0.4,1.8c0.4,0.6,1,1.1,1.7,1.3
		c1.2,0.4,2.4,0.5,3.6,0.4c2.2-0.1,4.3-0.3,6.5-0.6c0.8-0.1,1.5-0.3,2.3-0.4l0.4,7.9c-1.2,0.3-2.4,0.5-3.6,0.6
		c-1.3,0.1-3.2,0.3-5.6,0.4c-3.9,0.1-6.9-0.7-9-2.4c-2.1-1.6-3.3-4-3.5-6.6c-0.2-1.5-0.1-2.9,0.2-4.4
		C116.1,34.6,116.5,33.3,117.1,32.1z"/>
	<path d="M104.9,12.8l7.5-0.4c-0.3,3.9-0.5,7.3-0.6,10.2s-0.1,5.9,0.1,8.9c0.2,3.2,0.6,6.3,1,9.2s1.1,6.4,1.9,10.2l-7.7,0.4
		c-0.7-3.7-1.3-7-1.7-9.9c-0.4-2.9-0.7-6-0.9-9.4c-0.1-3.1-0.2-6.2-0.1-9.1S104.6,16.6,104.9,12.8z"/>
	<rect x="115.9" y="13.9" transform="matrix(0.9986 -5.239576e-02 5.239576e-02 0.9986 -0.7557 6.5961)" width="19" height="7.7"/>
	<path d="M174.5,29.4c-0.9-1.6-2.3-2.8-3.9-3.7c-1.5-0.8-3.2-1.3-4.9-1.5c-1.6-0.2-3.2-0.3-4.8-0.2c-0.4,0.1-0.7,0.2-1.1,0.3
		l-0.2-3.8l5.9-0.3l-0.3-5.3c0.9,1.4,1.7,2.9,2.4,4.4c0.5,1.1,1,2.4,1.7,4l7.3-0.4c0,0-0.6-1.3-1.7-3.8c-1.1-2.5-3-6.2-5.6-11
		l-7.7,0.4c1.2,1.9,2.2,3.4,2.8,4.7l-5.2,0.3l-0.3-5l-6.9,0.4l0.3,5l-9,0.5l0.4,7l9-0.5l0.3,4.8c-1.9,0.8-3.7,1.9-5.2,3.3
		c-1.4,1.3-2.6,2.9-3.4,4.7c-0.8,1.8-1.1,3.7-0.9,5.7c0.1,2,0.8,3.9,1.9,5.6c0.9,1.4,2.2,2.6,3.7,3.4c1.3,0.7,2.8,1.1,4.3,1
		c1,0,2.1-0.2,3-0.6c1.3-0.6,2.3-1.5,3-2.7c0.9-1.4,1.3-3.4,1.3-6.1l-0.4-8.4c0.1,0,0.2-0.1,0.3-0.1l0.3,0c2.7-0.2,4.7,0.1,6.1,1
		c1.4,0.9,2.2,2.4,2.2,4.1c0.1,1.1,0,2.1-0.4,3.1c-0.4,0.9-1.1,1.5-2,1.8c-1.3,0.5-2.6,0.7-3.9,0.7l0.4,7.6c1.4-0.1,2.9-0.3,4.3-0.7
		c1.6-0.4,3.1-1.1,4.4-2.1c1.5-1.1,2.6-2.5,3.4-4.1c0.9-2.1,1.3-4.4,1.1-6.7C176.3,33.7,175.6,31.4,174.5,29.4z M153.5,41.7
		c-0.2,0.1-0.3,0.1-0.3,0.1c-0.4,0-0.9,0-1.2-0.2c-0.5-0.2-0.9-0.5-1.3-1c-0.4-0.5-0.6-1.2-0.6-1.8c0-1.1,0.2-2.2,0.8-3.2
		c0.6-1,1.5-1.8,2.5-2.4l0.4,7.7C153.7,41.4,153.6,41.6,153.5,41.7z"/>
	<path d="M229.8,38.1l0.4,6.9l-32.4,1.7l-0.4-6.9l12.7-0.7l-0.4-8.4l-10,0.5l-0.4-6.8l10-0.5l-0.4-7.4L197.3,17l-0.4-6.9l12.4-0.6
		c-2.8-1.7-5.1-3-7.2-4l4.5-5.4c2.2,1,4.4,2,6.6,3.3c1.8,1,3.6,2,5.3,3.3l-2.1,2.6l11-0.6l0.4,6.9L216.3,16l0.4,7.4l10.2-0.5
		l0.4,6.8L217,30.3l0.4,8.4L229.8,38.1z"/>
	<path d="M197.8,2.9c-1.1,3.2-2.5,6.4-4,9.5l1.9,35.7l-6.9,0.4l-1.3-25.3c-1,1.4-2.1,2.7-3.2,4c-0.5-1.3-1.1-2.5-1.8-3.7
		c-0.7-1.2-1.4-2.5-2.2-3.6c2.4-2.6,4.4-5.4,6.2-8.5C188.3,8,189.8,4.6,191,1L197.8,2.9z"/>
	<path d="M263.8,33.1c-0.5-0.4-1-0.8-1.6-1.1c-1.3-0.8-2.5-1.6-3.9-2.2c-1.5-0.8-3-1.4-4.6-1.9l-0.2-3.6l9.7-0.5l-0.4-6.8l-9.7,0.5
		l-0.1-2.8l10.5-0.6l-0.4-6.9l-10.5,0.6l-0.2-4.3l-7.2,0.4l0.2,4.3l-13.8,0.7l0.4,6.9l13.8-0.7l0.1,2.8l-12.9,0.7l0.4,6.8l12.9-0.7
		l0.1,2.6c-2.3,0.1-4.5,0.6-6.7,1.3c-1.9,0.6-3.6,1.7-5,3.2c-1.2,1.6-1.8,3.6-1.6,5.6c0.1,1.7,0.7,3.4,1.8,4.7
		c1.1,1.3,2.5,2.2,4.1,2.7c1.8,0.6,3.7,0.8,5.5,0.7c1.5,0,3-0.3,4.5-0.7c1.5-0.5,2.7-1.4,3.7-2.6c1-1.3,1.5-3.3,1.4-5.9l-0.1-1.5
		c1.7,0.8,3.2,1.8,4.8,2.8c1.5,1.1,2.8,2,3.8,2.8c1,0.8,1.5,1.2,1.6,1.2L263.8,33.1z M246.2,38.4c-0.5,0.4-1.2,0.6-1.8,0.7
		c-1.7,0.1-2.9-0.1-3.5-0.6c-0.6-0.5-0.9-1.2-0.9-1.9c0-0.7,0.6-1.5,1.8-2.2c1.5-0.8,3.3-1.1,5-0.8l0.2,3.1
		C247,37.3,246.7,38,246.2,38.4z"/>
	<path d="M270.5,4.3l7.5-0.4c0,0.1,0,0.8,0,2.2c0,1.4,0,3.2,0.1,5.4s0.1,4.5,0.2,6.9s0.2,4.6,0.2,6.7c0.1,2.1,0.3,4.3,0.7,6.4
		c0.3,1.6,0.9,2.5,1.8,2.5c1.1-0.2,2.2-0.6,3.1-1.2c1-0.7,2.1-1.4,3-2.2c0.9-0.7,1.3-1.1,1.4-1.1l0.4,8.3c-0.4,0.3-0.7,0.6-1,0.9
		c-0.9,0.8-1.8,1.4-2.8,2c-1.4,0.7-2.8,1.2-4.4,1.5c-2.7,0.5-5.3-0.8-6.6-3.1c-1.5-2.5-2.5-6.3-2.7-11.6c-0.1-2.1-0.2-4.5-0.3-7.1
		s-0.2-5.1-0.3-7.5c-0.1-2.4-0.1-4.4-0.2-6C270.5,5.1,270.5,4.3,270.5,4.3z"/>
	<path d="M290.6,3.2l7.7-0.4c0,0,0.5,1.3,1.3,4c1,3.5,1.8,7.1,2.5,10.7c1,6.4,1.6,12.9,1.8,19.5l-7.5,0.4c0-0.1,0-0.5,0-1.2
		c0-0.7-0.1-2.5-0.3-5.3c-0.2-2.8-0.5-5.9-1-9.2c-0.5-3.3-1.1-6.6-1.8-9.8C292.6,8.9,291.7,6,290.6,3.2z"/>
	<path d="M309.8,2.6l32.7-1.7l0.4,7.6c-3,0.4-5.9,1.5-8.4,3.1c-2.2,1.4-4.1,3.2-5.8,5.2c-1.3,1.6-2.3,3.5-2.8,5.5
		c-0.5,2.3-0.3,4.1,0.4,5.4c0.7,1.2,1.8,2.2,3.1,2.8c1.1,0.5,2.3,0.8,3.5,0.8c1.3,0,2.6-0.1,3.8-0.2c1.2-0.1,2.3-0.3,3.3-0.4
		c0.9-0.2,1.4-0.3,1.5-0.3l0.4,8c-1.6,0.3-3.2,0.5-4.8,0.6c-1.4,0.1-2.8,0.1-4.3,0.1c-1.7,0-3.3-0.3-4.9-0.7
		c-1.9-0.5-3.6-1.3-5.2-2.5c-1.6-1.2-2.9-2.9-3.8-4.8c-1-2.4-1.4-5-1.1-7.6c0.2-2,0.8-4,1.6-5.8c0.7-1.6,1.7-3.1,2.8-4.5
		c0.8-1,1.7-2,2.6-2.9c0.4-0.4,0.8-0.7,1.2-1l-15.8,0.8L309.8,2.6z"/>
	
		<rect x="333.5" y="12.1" transform="matrix(0.9986 -5.227622e-02 5.227622e-02 0.9986 -0.3824 17.5548)" width="3.8" height="7.9"/>
	<rect x="339.4" y="11.8" transform="matrix(0.9986 -5.227622e-02 5.227622e-02 0.9986 -0.358 17.8648)" width="3.8" height="7.9"/>
	<g>
		<path class="st1" d="M37.5,95.3l9.1-0.5l3.2,16.9l2.1,11.7l0.2,0c0.4-3.4,0.9-7.3,1.6-11.9l2.9-17.2l7.5-0.4l4.7,16.8
			c0.4,1.4,0.9,3.7,1.6,6.6l1.2,5l0.2,0l0.8-11.9l1.6-17.1l8.4-0.4l-4.5,37.6L66.9,131l-4.2-16c-0.7-2.8-1.4-5.7-1.9-8.6l-0.2,0
			l-0.4,3.5c-0.1,0.6-0.2,1.4-0.3,2.5c-0.1,1.1-0.2,2-0.4,2.8l-2.4,16.4l-11,0.6L37.5,95.3z"/>
		<path class="st1" d="M112.2,113.2c-0.1-2.4-0.7-4.8-1.7-7c-1-1.9-2.5-3.6-4.3-4.7c-2.1-1.1-4.4-1.6-6.8-1.4
			c-2.3,0.1-4.6,0.9-6.5,2.2c-2,1.4-3.7,3.3-4.7,5.5c-1.2,2.5-1.7,5.2-1.5,7.9c0.1,2.8,0.9,5.5,2.3,7.9c1.3,2.1,3.2,3.8,5.4,4.9
			c2.3,1.1,4.9,1.6,7.5,1.4c1.8-0.1,3.5-0.5,5.2-1.1c1.7-0.6,3.3-1.5,4.7-2.7l-3.2-5.2c-1.7,1.2-3.8,2-5.9,2.1
			c-1.6,0.1-3.3-0.2-4.7-1.1c-1.4-1-2.3-2.4-2.7-4L112,117C112.2,115.8,112.3,114.5,112.2,113.2z M94.9,112.1
			c0.1-1.4,0.7-2.7,1.7-3.7c0.9-0.9,2-1.4,3.3-1.4c1.3-0.2,2.5,0.3,3.5,1.1c0.8,1,1.3,2.2,1.3,3.5L94.9,112.1z"/>
		<path class="st1" d="M145,112.2c-0.1-2.6-0.7-5.1-1.8-7.5c-0.9-2-2.3-3.7-4.2-4.8c-1.8-1.1-3.9-1.6-6-1.5c-1.3,0.1-2.6,0.4-3.8,1
			c-1.3,0.6-2.4,1.4-3.4,2.4l0-4.3l-0.5-9.6l-8.9,0.5l2.1,39.9l6.9-0.4l0.5-3.1l0.2,0c1,1.1,2.3,2,3.7,2.6c1.2,0.6,2.5,0.8,3.8,0.8
			c2.1-0.1,4.1-0.9,5.7-2.2c1.9-1.5,3.3-3.4,4.1-5.6C144.8,117.8,145.2,115,145,112.2z M134.9,118.9c-0.7,1.3-2,2.1-3.4,2.1
			c-1.6,0.1-3.1-0.4-4.3-1.4l-0.6-11.2c0.6-0.8,1.3-1.4,2.1-1.9c0.7-0.4,1.5-0.7,2.3-0.7c1.4-0.2,2.8,0.5,3.6,1.6
			c1,1.7,1.4,3.6,1.4,5.5C136,115.5,135.7,117.6,134.9,118.9z"/>
	</g>
	<path d="M150.7,106.4l-0.4-7.9c2.2-0.3,4.1-0.6,5.8-0.8c-0.1-2.4-0.2-5-0.4-7.9l7.6-0.4c0.2,2.9,0.3,5.4,0.3,7.6l3.8-0.2
		c2.2-0.2,4.4,0.5,5.9,2.1c1.4,1.6,2.4,4.1,2.8,7.6c0.4,2.6,0.6,5.2,0.7,7.8c0.1,2.5,0,5-0.4,7.5c-0.3,2-1,4-2.2,5.7
		c-1.1,1.5-2.9,2.4-4.8,2.5c-1.4,0.1-2.8,0-4.2-0.2c-0.5-0.1-1.1-0.2-1.6-0.3l-0.4-8c1.5,0.5,3.1,0.7,4.6,0.7c0.9-0.1,1.4-1,1.6-2.6
		c0.2-1.9,0.3-3.8,0.2-5.6c-0.1-2.2-0.3-4.4-0.5-6.5c-0.1-1.3-0.3-2.1-0.8-2.4c-0.8-0.4-1.7-0.6-2.5-0.5c-0.3,0-0.7,0-1,0.1
		c-0.4,0.1-0.7,0.1-1.1,0.1c-0.2,4.4-0.6,8.7-1.4,13c-0.8,4.2-1.8,8.3-3.1,12.3l-8,0.4c1.5-3.9,2.8-7.9,3.6-12.1
		c0.8-4.2,1.3-8.5,1.4-12.7c-1.6,0.2-2.9,0.4-3.9,0.6C151.2,106.3,150.7,106.3,150.7,106.4z"/>
	<path d="M172,90.4l7.5-0.4c3.3,6.3,5.7,12.9,7.1,19.9l-7.3,0.4C178,103.2,175.5,96.5,172,90.4z"/>
	<path d="M195.4,96l-0.4-7.8c0,0,0.5,0,1.5-0.1c1-0.1,2.2-0.2,3.7-0.3c1.5-0.1,3-0.2,4.6-0.2c1.6,0,3.2,0,4.8,0.1
		c1.6,0.1,2.9,0.2,4,0.3c1.1,0.1,1.6,0.2,1.7,0.2l0.4,8c-0.6-0.1-1.2-0.2-1.7-0.3c-1.1-0.2-2.5-0.3-4.1-0.5
		c-1.6-0.1-3.2-0.2-4.7-0.2c-1.6,0.1-3.1,0.1-4.6,0.3c-1.4,0.1-2.6,0.2-3.6,0.3C195.9,95.9,195.4,96,195.4,96z"/>
	<path d="M199.4,114.8l-6.9,0.4l-0.8-16.2l7.3-0.4l0.4,8c0,0,0.4-0.3,1-0.9c0.9-0.8,1.9-1.4,3-1.9c1.5-0.7,3.2-1.2,4.9-1.4
		c2.6-0.4,5.3-0.2,7.8,0.7c2.1,0.8,3.9,2.2,5.2,4.1c1.2,1.9,1.9,4.2,2,6.5c0.5,4.8-2,9.3-6.3,11.5c-4.5,2.5-11.3,3.2-20.5,2.3
		l-0.4-7.6c3.5,0.4,6.9,0.6,10.4,0.5c2.1,0,4.1-0.4,6-1.1c1.1-0.4,2.1-1.2,2.7-2.3c0.5-0.9,0.7-1.9,0.6-2.9c-0.1-1-0.4-1.9-0.9-2.8
		c-0.6-0.9-1.5-1.6-2.5-2c-1.5-0.4-3-0.5-4.5,0c-1.8,0.5-3.5,1.3-5,2.4C201.7,112.6,200.5,113.6,199.4,114.8z"/>
	<g>
		<path class="st1" d="M234.8,106.2l9.4-0.5c-1.1,0.9-2.1,1.9-3,2.9c-0.8,0.8-1.4,1.8-2,2.8c-0.5,0.9-0.8,1.8-0.7,2.8
			c0,0.6,0.2,1.2,0.6,1.7c0.6,0.6,1.4,0.9,2.2,1c1.7,0.2,3.5,0.3,5.2,0.2c2.7-0.1,5-0.3,6.9-0.6c1.9-0.3,4.2-0.7,6.8-1.2l0.4,8.1
			c-4.9,0.9-9.8,1.5-14.8,1.8c-5,0.3-8.7-0.4-11.2-2.1c-2.5-1.7-4-4.6-4-7.6c-0.1-1.7,0.3-3.4,1-5
			C232.5,109.1,233.6,107.6,234.8,106.2z"/>
		<polygon class="st1" points="250,97.8 240.6,98.3 244.7,94.1 230.6,94.8 230.2,87.2 257.2,85.7 257.5,91.5 		"/>
		
			<rect x="251.9" y="97" transform="matrix(0.9986 -5.227622e-02 5.227622e-02 0.9986 -4.9297 13.4057)" class="st1" width="3.8" height="7.9"/>
		
			<rect x="257.8" y="96.7" transform="matrix(0.9986 -5.227622e-02 5.227622e-02 0.9986 -4.9053 13.7157)" class="st1" width="3.8" height="7.9"/>
		<path class="st1" d="M298.1,83.9c0,2.6-0.3,5.2-0.9,7.8c-0.5,2.2-1.4,4.3-2.6,6.1c-1.4,2-3.1,3.6-5.2,4.9
			c-0.4-0.7-0.9-1.5-1.4-2.1c-0.6-0.7-1.2-1.4-1.9-2l0.1,1.7c-6.1,1.1-12.7,2.1-19.6,3.1l-1.2,0.2l-0.9-5.9c1-0.1,2-0.2,3-0.4
			c1-0.1,2-0.3,2.9-0.4l2.2-0.3l-0.2-3.2l-6.4,0.3l-0.3-5.3l6.4-0.3l-0.1-2.2l-7.3,0.4l-0.3-5.3l7.3-0.4l-0.2-3.1l6.7-0.4l0.2,3.1
			l6.5-0.3l0.3,5.3l-6.5,0.3l0.1,2.2l5.8-0.3l0.3,5.3l-5.8,0.3l0.1,2.6l6.5-0.9l0.2,2.5c1.9-1.3,3.4-3.1,4.2-5.3
			c0.8-2.5,1.2-5.1,1.2-7.7l-4.9,0.3l-0.3-6l22.8-1.2l0.1,2.6c0.1,6,0.1,10.4-0.1,13.2c-0.2,2.7-0.6,4.5-1.1,5.4
			c-0.4,0.6-1,1.2-1.6,1.6c-0.6,0.4-1.3,0.7-2,0.8c-1.8,0.3-3.7,0.5-5.6,0.6c-0.1-1.1-0.4-2.3-0.8-3.3c-0.3-1.1-0.8-2.1-1.4-3
			c1,0,2.3,0,3.7,0c0.3,0,0.6-0.1,0.9-0.2c0.3-0.1,0.5-0.3,0.6-0.6c0.4-0.9,0.6-2,0.5-3c0.1-1.6,0.1-4.1,0.1-7.7L298.1,83.9z"/>
		<path class="st1" d="M295.1,111c1.9,1.9,4.3,3.2,6.9,3.8c3.6,0.9,7.3,1.2,11,1.1c-0.9,1-1.6,2.2-2.3,3.3c-0.7,1.2-1.3,2.5-1.8,3.8
			c-3.9-0.1-7.8-0.9-11.5-2.2c-2.9-1.2-5.5-3.1-7.5-5.6c-3,4.7-9.8,8.1-20.3,10c-0.6-1-1.3-2-2-3c-0.9-1.1-1.7-2.1-2.4-2.9
			c10.1-1.7,16.2-4.3,18.3-7.8l-17.3,0.9l-0.3-6l18.3-1L284,103l7.4-0.4l0.1,2.5l19.3-1l0.3,6L295.1,111z"/>
		<path class="st1" d="M360,84.3c0-0.6,0-1.7-0.1-3.2l-16.4,0.9c0.7-2.2,1.3-4.4,1.8-6.7l-7.6-1.3c-0.5,3.2-1.4,6.4-2.7,9.4
			c-1.1,2.7-2.5,5.2-4.3,7.5l-4,2.1c1.7-2.6,3.8-5.9,6.2-10l-6.2-2.2c-1.1,2.7-2.4,5.3-3.8,7.9l-1.1-1.2c1-1.9,2.6-5,4.6-9.3
			l0.6-1.2l-6.5-1.9c-0.7,2.9-1.7,5.8-2.8,8.6l-1-0.8l-3.1,5.2c2.2,1.9,4.3,4.1,6,6.4l-0.6,0.9c-0.3,0.5-0.7,1-1,1.5l-3.9,0.4
			l0.9,6.2l7-0.9l0.2,3.3l-5.9-0.7c-0.1,5.1-0.7,9-1.7,11.7c0.8,0.3,1.8,0.6,2.9,1.1c0.9,0.3,1.8,0.8,2.6,1.2c0.6-1.8,1-3.6,1.3-5.5
			c0.4-2.2,0.6-4.4,0.7-6.7l0.8,15.5l6.4-0.3l-0.7-13.8c0.9,2.3,1.7,4.7,2.4,7.1l5.5-2.3c-0.4-1.2-0.9-2.7-1.6-4.5
			c-0.7-1.7-1.4-3.3-2.1-4.8l-4.4,1.7l-0.2-3.8l1.9-0.3c0.3,0.9,0.5,1.7,0.7,2.5l5.3-2.8c-0.4-1.4-0.9-2.8-1.5-4.2
			c-0.7-1.6-1.6-3.2-2.5-4.8c1.7,0.9,3.3,2,4.9,3.2c1.4-2,2.7-4.2,3.7-6.4l12.4-0.6c0.2,8.2,0.2,14.1,0,17.8
			c-0.2,3.7-0.6,5.9-1.3,6.7c-0.2,0.3-0.5,0.6-0.9,0.7c-0.4,0.2-0.8,0.3-1.2,0.3c-2.8,0.1-5.2,0.2-7.2,0.1c0.8,1.1,1.4,2.3,1.9,3.5
			c0.5,1.2,0.8,2.4,1,3.7c0.7,0,1.7,0,3-0.1c1.6,0,3.2-0.2,4.8-0.6c1-0.2,2-0.6,2.9-1.1c0.9-0.6,1.6-1.4,2.2-2.3
			c0.8-1.5,1.3-3.2,1.4-4.9c0.3-3.3,0.5-6.6,0.5-9.8C360.2,98,360.2,92,360,84.3z M324.3,96.2c0.4-0.5,1.1-1.5,2-3
			c0.4,0.7,0.9,1.6,1.4,2.6L324.3,96.2z"/>
		<path class="st1" d="M343.4,108.6c-0.7-1.9-1.5-3.7-2.5-5.4c-1.2-2-2.4-4-3.8-5.8l5.6-3.2c1.5,1.8,2.8,3.7,4.1,5.6
			c1.1,1.6,2,3.4,2.7,5.2L343.4,108.6z"/>
	</g>
	<path d="M366.7,80l7.5-0.4c0,0.1,0,0.8,0,2.2c0,1.4,0,3.2,0.1,5.4c0,2.2,0.1,4.5,0.2,6.9c0.1,2.4,0.2,4.6,0.2,6.7
		c0.1,2.1,0.3,4.3,0.7,6.4c0.3,1.6,0.9,2.5,1.8,2.5c1.1-0.2,2.2-0.6,3.1-1.2c1-0.7,2.1-1.4,3-2.2c0.9-0.7,1.3-1.1,1.4-1.1l0.4,8.3
		c-0.4,0.3-0.7,0.6-1,0.9c-0.9,0.8-1.8,1.4-2.8,2c-1.4,0.7-2.8,1.2-4.4,1.5c-2.7,0.5-5.3-0.8-6.6-3.1c-1.5-2.5-2.5-6.3-2.7-11.6
		c-0.1-2.1-0.2-4.5-0.3-7.1c-0.1-2.6-0.2-5.1-0.3-7.5c-0.1-2.4-0.1-4.4-0.2-6S366.7,80.1,366.7,80z"/>
	<path d="M386.8,78.9l7.7-0.4c0,0,0.5,1.3,1.3,4c1,3.5,1.8,7.1,2.5,10.7c1,6.4,1.6,12.9,1.8,19.5l-7.5,0.4c0-0.1,0-0.5,0-1.2
		c0-0.7-0.1-2.5-0.3-5.3c-0.2-2.8-0.5-5.9-1-9.2c-0.5-3.3-1.1-6.6-1.8-9.8C388.9,84.7,388,81.7,386.8,78.9L386.8,78.9z"/>
	<path d="M412.9,88.7l-6,0.3l-0.4-7.1l6.9-0.4c0.1-1.7,0.1-3.1,0.2-4.1c0-1,0-1.5,0-1.5l6.9-0.4c0,1.9-0.1,3.8-0.2,5.6l7.1-0.4
		l0.3,6.1c4.7-0.3,8.9-0.6,12.7-0.7l0.4,7.3c-1.9,0-4.1,0.1-6.3,0.2c-2.3,0.1-5.4,0.3-9.4,0.6l-0.5-6.2l-4.6,0.2
		c-0.4,5.8-1,10.7-1.6,14.9c-0.6,4.2-1.1,7.4-1.5,9.7c-0.4,2.3-0.6,3.4-0.7,3.4l-7.6,0.4c1.2-5,2.1-9.9,2.8-14.8
		S412.5,92.6,412.9,88.7L412.9,88.7z"/>
	<path d="M422.6,100.2l6.9-0.4c-1.4,2.5-2,4.6-1.8,6.1c0.2,1.5,1.8,2.3,4.8,2.1c1.9-0.1,3.5-0.2,4.9-0.4c1.4-0.1,2.5-0.3,3.5-0.4
		l1.4-0.2l0.4,7.7c-2.1,0.3-4,0.5-5.8,0.6s-3.8,0.2-6.1,0.2c-2,0.1-4-0.3-5.8-1.2c-1.3-0.7-2.4-1.8-3.1-3.1c-0.6-1.2-1-2.6-1.1-4
		c-0.1-1.3,0-2.6,0.4-3.9C421.5,102.5,422,101.3,422.6,100.2z"/>
	<path d="M453.4,86.6l-6,0.3l-0.4-7.1l6.9-0.4c0.1-1.7,0.1-3.1,0.2-4.1c0-1,0-1.5,0-1.5l6.9-0.4c0,1.9-0.1,3.8-0.2,5.6l7.1-0.4
		l0.3,6.1c4.7-0.3,8.9-0.6,12.7-0.7l0.4,7.3c-1.9,0-4.1,0.1-6.3,0.2c-2.3,0.1-5.4,0.3-9.4,0.6l-0.5-6.2l-4.6,0.2
		c-0.4,5.8-1,10.7-1.6,14.9c-0.6,4.2-1.1,7.4-1.5,9.7c-0.4,2.3-0.6,3.4-0.7,3.4l-7.6,0.4c1.2-5,2.1-9.9,2.8-14.8
		S453.1,90.5,453.4,86.6L453.4,86.6z"/>
	<path d="M463.1,98.1l6.9-0.4c-1.4,2.5-2,4.6-1.8,6.1s1.8,2.3,4.8,2.1c1.9-0.1,3.5-0.2,4.9-0.4c1.4-0.1,2.5-0.3,3.5-0.4l1.4-0.2
		l0.4,7.7c-2.1,0.3-4,0.5-5.8,0.6c-1.8,0.1-3.8,0.2-6.1,0.2c-2,0.1-4-0.3-5.8-1.2c-1.3-0.7-2.4-1.8-3.1-3.1c-0.6-1.2-1-2.6-1.1-4
		c-0.1-1.3,0-2.6,0.4-3.9C462,100.3,462.5,99.2,463.1,98.1L463.1,98.1z"/>
	
		<rect x="470.5" y="66.7" transform="matrix(0.9986 -5.227622e-02 5.227622e-02 0.9986 -3.0466 24.7928)" width="3.8" height="7.9"/>
	
		<rect x="476.5" y="66.4" transform="matrix(0.9986 -5.227622e-02 5.227622e-02 0.9986 -3.0222 25.1028)" width="3.8" height="7.9"/>
	<path d="M488.9,73.6l7.5-0.4c0,0.1,0,0.8,0,2.2c0,1.4,0,3.2,0.1,5.4s0.1,4.5,0.2,6.9c0.1,2.4,0.2,4.6,0.2,6.7
		c0.1,2.1,0.3,4.3,0.7,6.4c0.3,1.6,0.9,2.5,1.8,2.5c1.1-0.2,2.2-0.6,3.1-1.2c1-0.7,2.1-1.4,3-2.2c0.9-0.7,1.3-1.1,1.4-1.1l0.4,8.3
		c-0.4,0.3-0.7,0.6-1,0.9c-0.9,0.8-1.8,1.4-2.8,2c-1.4,0.7-2.8,1.2-4.4,1.5c-2.7,0.5-5.3-0.8-6.6-3.1c-1.5-2.5-2.5-6.3-2.7-11.6
		c-0.1-2.1-0.2-4.5-0.3-7.1c-0.1-2.6-0.2-5.1-0.3-7.5c-0.1-2.4-0.1-4.4-0.2-6C489,74.5,488.9,73.6,488.9,73.6L488.9,73.6z"/>
	<path d="M509,72.5l7.7-0.4c0,0,0.5,1.3,1.3,4c1,3.5,1.8,7.1,2.5,10.7c1,6.4,1.6,12.9,1.8,19.5l-7.5,0.4c0-0.1,0-0.5,0-1.2
		c0-0.7-0.1-2.5-0.3-5.3c-0.2-2.8-0.5-5.9-1-9.2c-0.5-3.3-1.1-6.6-1.8-9.8C511.1,78.2,510.2,75.3,509,72.5L509,72.5z"/>
	<path d="M535.1,82.3l-6,0.3l-0.4-7.1l6.9-0.4c0.1-1.7,0.1-3.1,0.2-4.1c0-1,0-1.5,0-1.5l6.9-0.4c0,1.9-0.1,3.8-0.2,5.6l7.1-0.4
		l0.3,6.1c4.7-0.3,8.9-0.6,12.7-0.7l0.4,7.3c-1.9,0-4,0.1-6.3,0.2c-2.3,0.1-5.4,0.3-9.4,0.6l-0.5-6.2l-4.6,0.2
		c-0.4,5.8-1,10.7-1.6,14.9c-0.6,4.2-1.1,7.4-1.5,9.7s-0.6,3.4-0.7,3.4l-7.6,0.4c1.2-5,2.1-9.9,2.8-14.8
		C534.2,90.7,534.7,86.2,535.1,82.3L535.1,82.3z"/>
	<path d="M544.8,93.8l6.9-0.4c-1.4,2.5-2,4.6-1.8,6.1c0.2,1.5,1.8,2.3,4.8,2.1c1.9-0.1,3.5-0.2,4.9-0.4c1.4-0.1,2.5-0.3,3.5-0.4
		l1.4-0.2l0.4,7.7c-2.1,0.3-4,0.5-5.8,0.6c-1.8,0.1-3.8,0.2-6.1,0.2c-2,0.1-4-0.3-5.8-1.2c-1.3-0.7-2.4-1.8-3.1-3.1
		c-0.6-1.2-1-2.6-1.1-4c-0.1-1.3,0-2.6,0.4-3.9C543.7,96.1,544.2,94.9,544.8,93.8L544.8,93.8z"/>
	<path d="M590.2,75.4c0,2.1-0.1,3.9-0.2,5.6l19-1c0,1,0,2,0,3.1c0,5-0.2,9.9-0.7,14.9c-0.4,3.2-1.1,5.4-2.1,6.6
		c-0.7,0.8-1.5,1.5-2.5,2c-1.1,0.5-2.2,0.8-3.4,1c-1.2,0.2-2.8,0.3-4.7,0.4c-1.8,0.1-3.1,0.1-4,0.2c-0.2-1.2-0.5-2.4-1-3.6
		c-0.5-1.2-1.2-2.4-2-3.4c2.3,0.1,5.1,0,8.4-0.1c0.5,0,1-0.1,1.4-0.2c0.4-0.1,0.7-0.3,1-0.6c1.1-1.1,1.8-5.4,2-12.9l-12.2,0.6
		c-0.8,4.4-2.4,8.6-4.8,12.3c-2.6,3.9-6.2,7.2-10.3,9.5c-0.7-1.1-1.5-2.2-2.4-3.2c-0.9-1-1.9-1.9-3-2.7c3.6-1.8,6.7-4.4,9-7.6
		c1.9-2.7,3.1-5.8,3.7-9.1c0.6-3.7,0.8-7.4,0.7-11.2l-13.8,0.7l-0.4-6.9l18.7-1l-0.4-7.9l7.5-0.4l0.4,7.9l19.4-1l0.4,6.9L590.2,75.4
		z"/>
</g>
</svg>
