<?xml version="1.0" encoding="utf-8"?>
<!-- Generator: Adobe Illustrator 26.4.1, SVG Export Plug-In . SVG Version: 6.00 Build 0)  -->
<svg version="1.1" id="レイヤー_1" xmlns="http://www.w3.org/2000/svg" xmlns:xlink="http://www.w3.org/1999/xlink" x="0px"
	 y="0px" viewBox="0 0 640 114" style="enable-background:new 0 0 640 114;" xml:space="preserve">
<path id="sec02_text02_pc" d="M62.5,20.8h-30V9.5H49c-0.8-2-1.9-4.3-3.2-7l14.2-2.4c2,3,3.6,6.1,4.9,9.4h14.3c1.6-3.1,3-6.3,4.2-9.5
	l16.5,2.4c-1.7,2.8-3.2,5.2-4.7,7.1h16.3v11.3H78.2L77,23.3h24.7v36H41.8v-36H62L62.5,20.8z M20.1,26.1c-2.1-2.7-4.4-5.3-6.9-7.6
	c-3-2.8-6.1-5.5-9.4-8l11.2-9.4c3.3,2.2,6.5,4.7,9.8,7.4c2.7,2.1,5.1,4.6,7.3,7.3L20.1,26.1z M85.4,78.1h25.8V91H85.4v6.7
	c0,3.9-0.5,6.8-1.4,8.9c-1.1,2.2-3.1,3.9-5.4,4.7c-2.6,1-5.4,1.6-8.2,1.8c-3,0.3-7.1,0.4-12.1,0.4c-0.4-2.5-1.1-5-2-7.4
	c-0.9-2.6-2-5.1-3.3-7.5c2.2,0.2,4.6,0.3,7.2,0.3c2.6,0,4.6,0,6-0.1c0.6,0.1,1.3-0.1,1.9-0.4c0.4-0.3,0.6-0.8,0.5-1.3V91H38.8
	c3.6,2.6,6.9,5.6,10,8.8L36,110.3c-1.9-2.4-4-4.7-6.4-6.7c-2.9-2.7-5.8-5.1-8.6-7.3l6.5-5.2H0.8V78.1h67.7v-3.6
	c-7.6,0-14-0.1-19.2-0.4c-6.2-0.2-11.2-1.2-15.1-2.7c-4-1.7-7.5-4.4-10.1-7.9c-3.7,2.5-9.8,6.3-18.4,11.6L0,61.7
	c4.8-2,9.5-4.2,14.1-6.8v-13H1.2V29.1h28.6v23.6c1.6,3,4.1,5.4,7.3,6.8c3.9,1.6,8.1,2.5,12.3,2.4c3.1,0.2,9.1,0.2,18,0.2
	c19.7,0,35.1-0.4,46.1-1.3c-0.7,1.6-1.5,3.7-2.4,6.3c-0.8,2.2-1.4,4.4-1.8,6.7c-7.6,0.3-15.6,0.5-23.9,0.6L85.4,78.1z M84.9,33.1
	v-2.6h-27v2.6H84.9z M84.9,42.6v-2.7h-27v2.7H84.9z M84.9,52.3v-2.9h-27v2.9H84.9z M199.4,6.7c0,17.2,3.1,34.3,9.1,50.4
	c6,16.3,18.5,29.9,37.3,40.8c-2.7,2.1-5.1,4.5-7.4,7.1c-2.4,2.6-4.6,5.3-6.7,8.2c-10.4-6-19.4-14.2-26.4-23.9
	c-6.9-9.6-12.3-20.2-16-31.4c-9.3,25.3-23.5,43.8-42.6,55.5c-2.4-2.6-4.9-5-7.5-7.3c-2.7-2.4-5.5-4.8-8.5-6.9
	c23.2-11.4,38-33,44.4-64.8l8.6,1.5c-0.6-3.5-1.2-7.4-1.6-11.7h-26.5V6.7H199.4z M329.7,88.3H376v17.5H265.1V88.3h44.6v-58H272V12.2
	h96.8v18.1h-39L329.7,88.3z M508.7,80.6h-12.6v20.7h-17.8v-4.9h-17.5v1.4c0,3.9-0.5,6.8-1.6,8.8c-1.2,2.1-3.1,3.8-5.4,4.8
	c-2.7,1.1-5.6,1.8-8.5,2c-3.2,0.3-7.8,0.4-13.6,0.4c-0.5-2.3-1.3-4.6-2.3-6.7c-1-2.3-2.1-4.5-3.4-6.6c3.3,0.2,7.9,0.2,13.9,0.2
	c0.8,0,1.7-0.2,2.3-0.7c0.5-0.6,0.7-1.4,0.7-2.1v-1.4h-35.2V84.2H443v-3.6h-46.8v-13H443v-3.2h-34.4V53H443v-3.6h-31.7V24.2H443
	v-3.6h-43.8V7.1H443V0.4h17.8v6.8h44.9v13.5h-44.9v3.6h33.2v25.3h-33.2V53h35.3v14.7h12.6V80.6z M428,38.8h15v-4.1h-15V38.8z
	 M476,34.8h-15.3v4.1H476L476,34.8z M460.8,64.4v3.2h17.5v-3.2H460.8z M478.3,84.2v-3.6h-17.5v3.6H478.3z M612.3,95.1
	c11.6,4,20.9,7.5,27.7,10.6l-19.7,8.1c-3.4-1.9-8-4.1-13.6-6.5c-5.6-2.4-11.4-4.7-17.2-6.7l9.1-5.5h-28.5l9.2,4.2
	c-5.6,3.3-11.5,6-17.5,8.3c-6.7,2.6-13.5,4.7-20.4,6.5c-1.5-1.8-3.6-4-6.1-6.6c-2-2.1-4.2-4-6.5-5.8c9.6-1.3,19-3.5,28.1-6.6h-12.4
	V60.8c-1.8,0.3-4.5,0.7-7.9,1.2c-1-2.4-2.2-4.7-3.7-6.8c-1.4-2.3-2.9-4.4-4.6-6.5c13.5-1.4,22.9-3.8,28-7.3h-7.2l-0.4,0.8l-15.7-1
	c3.1-7.5,5.8-15.2,7.9-23h22.3v-3.6h-26.3V4.9h26.3V0.4H579v4.5h10.6V0.4H606v4.5h24.9V28H606v3.6h32.7l-0.1,4.2
	c-0.1,3.3-0.5,6.6-1.1,9.9c-0.3,1.9-1.1,3.7-2.3,5.2c-2,2-4.7,3.2-7.6,3.3l-1.3,0.1v40.7H612.3z M579,14.7v3.6h10.6v-3.6H579z
	 M615.1,14.7H606v3.6h9.1V14.7z M562.8,31.6c0.2-0.8,0.3-2,0.5-3.6h-9.4l-1.2,3.6H562.8z M579,28l-0.1,3.6h10.7V28H579z M576.7,41.3
	c-1,2.7-2.6,5.1-4.6,7.1h17.4v-7.1H576.7z M606,41.3v7.1h8.5c-0.4-1.5-1-2.9-1.7-4.3c1.9,0.3,3.8,0.4,5.8,0.4c0.5,0,0.9,0,1.4-0.1
	c0.4-0.1,0.8-0.4,1-0.7c0.3-0.8,0.5-1.6,0.7-2.4H606z M608.5,57.9h-47.1v3.3h47.1V57.9z M608.5,70h-47.1v3.3h47.1V70z M608.5,82.2
	h-47.1v3.5h47.1V82.2z"/>
</svg>
