<svg xmlns="http://www.w3.org/2000/svg" xmlns:xlink="http://www.w3.org/1999/xlink" width="499.073" height="311.341" viewBox="0 0 499.073 311.341">
  <defs>
    <clipPath id="clip-path">
      <rect id="長方形_2516" data-name="長方形 2516" width="423.546" height="179.677" fill="none"/>
    </clipPath>
  </defs>
  <g id="sec01_text03_sp" transform="translate(-100.072 -1931.597)">
    <path id="パス_36566" data-name="パス 36566" d="M-212.634-4q13.862,0,19.372-.29a19.5,19.5,0,0,0-1.856,3.857,29.125,29.125,0,0,0-1.334,4.495h-22.736A48.6,48.6,0,0,1-232.47,2.581a16.384,16.384,0,0,1-8.352-5.6,38.326,38.326,0,0,1-2.378,8.41,27.6,27.6,0,0,0-3.219-1.885,38.422,38.422,0,0,0-3.509-1.653,30.475,30.475,0,0,0,2.552-10.092,146.873,146.873,0,0,0,.638-14.848l7.308.464q0,2.784-.232,7.772a19.934,19.934,0,0,0,2.262,4.64V-25.346h-10.73v-7.366h9.454V-37h-8.062v-7.25h8.062v-5.278h7.714v5.278h7.772V-37h-7.772v4.292h8.7v.754a14.431,14.431,0,0,0,5.858-8.7h-5.1v-6.96h25.81l-.058,2.726q-.29,7.192-.754,10.643a9.936,9.936,0,0,1-1.508,4.727,5.754,5.754,0,0,1-1.885,1.537,8.822,8.822,0,0,1-2.349.725,34.871,34.871,0,0,1-4.7.232h-1.8a18.866,18.866,0,0,0-.667-3.683,13.134,13.134,0,0,0-1.363-3.335q1.8.174,4.176.174a2.278,2.278,0,0,0,1.682-.58q.7-.928.986-6.206h-4.582a29.53,29.53,0,0,1-2.262,6.612,20.57,20.57,0,0,1-6.9,8,34.155,34.155,0,0,0-4.582-3.654v4.35h-7.714v5.22h6.9v7.25h-6.9v7.83a26.279,26.279,0,0,0,4.669.812Q-222.726-4-219.13-4Zm15.544-2.842h-23.2v-18.5h23.2Zm-8.41-11.832h-6.96v5.22h6.96Zm45.994-26.506h21.634v7.134h-51.214v-7.134h20.88v-4.524h8.7Zm12.122,8.816v13.282h-32.248V-36.366Zm-8.526,7.772v-2.32h-15.718v2.32ZM-139.5-3.016a12.075,12.075,0,0,1-.7,4.524,4.893,4.893,0,0,1-2.436,2.552,11.177,11.177,0,0,1-3.8,1.131,46.49,46.49,0,0,1-5.481.261,24.45,24.45,0,0,0-1.1-4.408h-14.442V3.538h-7.25v-15.95h22.33V-2.378a23,23,0,0,0,3.364,0,1.4,1.4,0,0,0,.812-.174.753.753,0,0,0,.232-.638V-14.442H-178.7V5.568h-8.236V-21.344H-139.5Zm-20.242-1.45V-6.9h-7.714v2.436Zm57.652-33.7h-13.63v-6.96h13.63v-4.408h8.178v4.408h14.5v6.96h-14.5V-35.9h12.876v16.3H-91.124a36.92,36.92,0,0,0,5.945,4.2,44.075,44.075,0,0,0,6.931,3.277,25.952,25.952,0,0,0-3.045,3.1A31.288,31.288,0,0,0-83.932-5.51a40.052,40.052,0,0,1-9.976-7.656v8.294h-8.178V-13.63a33.087,33.087,0,0,1-10.208,8.236,27.783,27.783,0,0,0-2.465-3.364,26.16,26.16,0,0,0-2.871-3.016,34.1,34.1,0,0,0,6.525-3.335A25.709,25.709,0,0,0-105.8-19.6h-8.41V-35.9h12.122Zm-21.17,4.118a28.054,28.054,0,0,0-3.8-4.495A57.932,57.932,0,0,0-132.3-43.21l6.264-5.046a68.133,68.133,0,0,1,5.423,4.379,30.828,30.828,0,0,1,4.089,4.263Zm16.762,4.466v3.712h4.408V-29.58Zm17.284,0h-4.7v3.712h4.7ZM-117.862-8.932A9.384,9.384,0,0,0-113.4-5.075a20.683,20.683,0,0,0,7.308,1.421q2.146.116,7.772.116,12.412,0,20.88-.754A35.662,35.662,0,0,0-79-.087a32.082,32.082,0,0,0-1.1,4.379Q-87.7,4.7-95.88,4.7q-4.466,0-10.382-.232a28.851,28.851,0,0,1-8.961-1.6,15.747,15.747,0,0,1-6.351-4.611q-4.176,3.654-7.946,6.67l-4.06-8.816a81.986,81.986,0,0,0,7.482-4.7V-19.372h-5.974v-7.772h14.21Zm72.616-33.234h10.44a51.832,51.832,0,0,1-5.945,9.512q-3.509,4.466-6.409,7.772V5.626h-9.164V-17.806a52.688,52.688,0,0,1-8.584,5.742,51.911,51.911,0,0,1-6.554,2.987q-2.436.841-2.494.841v-9.338q.058,0,2.958-1.189a54.814,54.814,0,0,0,7.4-3.944,53.7,53.7,0,0,0,9.367-7.54A55.393,55.393,0,0,0-45.246-42.166ZM-.7-30.914H8.52Q5.62-20.3.748-13.63A43.471,43.471,0,0,1-9.373-3.335,38.507,38.507,0,0,1-19.32,1.8,36.937,36.937,0,0,1-27,3.567a28.969,28.969,0,0,1-3.045.2V-5.684a18.235,18.235,0,0,0,2.378-.087A29.034,29.034,0,0,0-21.727-6.96a24.478,24.478,0,0,0,7.627-4A35.924,35.924,0,0,0-6.7-18.473,44.146,44.146,0,0,0-.7-30.914Zm-29.348-.7v-9.048h18.1v9.048ZM24.122-43.5h9.106q-.29,1.682-.58,3.045T32.3-38.976H52.136V-30.1A42.555,42.555,0,0,1,48.8-16.3a32.251,32.251,0,0,1-6.583,9.773,45.661,45.661,0,0,1-8,6.438,44.011,44.011,0,0,1-7.6,3.857A45.054,45.054,0,0,1,20.874,5.6a15.059,15.059,0,0,1-2.262.435v-9.4q.058,0,2.03-.493a36.6,36.6,0,0,0,5.017-1.769A35.046,35.046,0,0,0,32.01-9.193a27.164,27.164,0,0,0,6.09-5.945H27.37V-23.78H41.58a30.974,30.974,0,0,0,1.1-6.554H29.052a40.323,40.323,0,0,1-6.96,9.889,58.189,58.189,0,0,1-5.51,4.785,12.73,12.73,0,0,1-2.262,1.508V-25.346a15.043,15.043,0,0,0,1.3-1.073,20.315,20.315,0,0,0,2.9-3.335,32.014,32.014,0,0,0,3.19-5.655A35.215,35.215,0,0,0,24.122-43.5ZM58.806-14.964V-24.07H85.6v9.106Zm56.666-13.224H93.258V-37.12h13.456V-43.5h9.164v6.38h14.558a27.9,27.9,0,0,1-2.9,6.96,40.2,40.2,0,0,1-4.785,6.844q-2.639,3.016-4.553,4.93a46.964,46.964,0,0,0,6.119,4.147,46.37,46.37,0,0,0,4.64,2.32,8.524,8.524,0,0,0,1.885.667V-1.1q-.116,0-2.378-.841a42.409,42.409,0,0,1-5.829-2.871,58.157,58.157,0,0,1-6.989-4.7V5.336h-8.7V-8.7a50.178,50.178,0,0,1-7.511,4.379,58.121,58.121,0,0,1-5.974,2.465Q91.17-1.1,91.054-1.1v-9.222q.116,0,2.7-.986a56.683,56.683,0,0,0,6.525-3.132,46.5,46.5,0,0,0,7.917-5.539A41.876,41.876,0,0,0,115.472-28.188ZM140.3,4.756v-8.12a20.619,20.619,0,0,0,10.063-4.408,21.962,21.962,0,0,0,5.974-7.83,51.451,51.451,0,0,0,3.045-8.7,62.658,62.658,0,0,0,1.392-7.047,24.642,24.642,0,0,0,.29-2.929h7.772a80.065,80.065,0,0,1-1.218,9.251,57.04,57.04,0,0,1-2.581,8.816,37.1,37.1,0,0,1-5.046,9.135,32.184,32.184,0,0,1-8.062,7.6A28.42,28.42,0,0,1,140.3,4.756Zm2.262-39.092,3.48,19.894h-6.09l-3.364-19.894Zm9.686,0,3.6,19.894h-6.206L146.27-34.336Zm58.174,6.728V-18.5h-24.36V5.336h-9.164v-48.6h9.164v15.66Zm6.552,9.383v-7.11q2.97-.27,5.265-.45.045-3.195.045-7.155h6.885q.045,3.915-.09,6.84h3.42a6.362,6.362,0,0,1,5.2,2.2q1.822,2.2,2.182,6.93a63.524,63.524,0,0,1,.247,7.02,34.245,34.245,0,0,1-.742,6.682,11.319,11.319,0,0,1-2.273,4.972,5.7,5.7,0,0,1-4.387,1.98,21.651,21.651,0,0,1-3.8-.337,9.2,9.2,0,0,1-1.418-.338v-7.2a13.572,13.572,0,0,0,4.14.81q1.17-.135,1.6-2.227a25.708,25.708,0,0,0,.428-5.063q0-2.97-.18-5.85,0-1.71-.63-2.182a4.328,4.328,0,0,0-2.25-.562,8.055,8.055,0,0,0-.923.045,9.053,9.053,0,0,1-1.012.045,82.316,82.316,0,0,1-1.89,11.61,97.979,97.979,0,0,1-3.33,10.89h-7.245A66.11,66.11,0,0,0,220.03-7.335a76.855,76.855,0,0,0,1.89-11.385q-2.205.18-3.533.338T216.97-18.225Zm20.655-11.88h6.615a54.933,54.933,0,0,1,4.9,16.7H242.53A43.537,43.537,0,0,0,237.625-30.105Zm.135-1.485V-38.7h3.42v7.11Zm5.355,0V-38.7h3.42v7.11ZM-186.662,80.352h10.586V52.011h-9.179v-7.37a40.607,40.607,0,0,0,6.8-1.809,31.073,31.073,0,0,0,5.527-2.747h8.777V80.352h8.978V90h-31.49ZM-86.5,82.63h-22.244V96.365h-10.05V82.63h-29.882V73.25h10.385V58.175q-1.608,1.876-2.412,2.68-1.474-1.34-4.087-3.35a47.851,47.851,0,0,0-4.288-3.015,39.407,39.407,0,0,0,7.873-9.615,58.2,58.2,0,0,0,5.661-12.429l9.983,2.546q-.938,2.613-1.809,4.69H-90.45v9.38h-18.291V55.9h16.683v9.045h-16.683V73.25H-86.5Zm-45.56-33.567a61.63,61.63,0,0,1-4.489,6.834h17.755V49.063Zm3.551,24.187h9.715V64.942h-9.715Zm75.978-13.065H-69.546v36.18h-9.648V35.127h26.666Zm31.021,25.058a16.325,16.325,0,0,1-.871,5.963,6.649,6.649,0,0,1-3.015,3.35,13.519,13.519,0,0,1-4.991,1.474,73.284,73.284,0,0,1-7.939.335,29.1,29.1,0,0,0-1.541-6.231H-55.007v3.417h-8.777V63.669h26.4V86.65h4.422a1.83,1.83,0,0,0,1.239-.335,1.589,1.589,0,0,0,.368-1.206V60.386H-48.843V35.127h27.336ZM-61.64,42.028h-7.906v2.278h7.906Zm30.284,0H-39.6v2.278h8.241Zm-38.19,11.323h7.906V50.738h-7.906Zm29.949.2h8.241V50.738H-39.6ZM-46.5,70.7h-8.509v2.814H-46.5ZM-55.007,83.1H-46.5V80.285h-8.509ZM12.06,56.232H-13.8V46.718H12.06v-6.9h9.514v6.9h10.05v9.514H21.574V69.364a27.414,27.414,0,0,1,1.943,8.04,31.728,31.728,0,0,1-.938,9.849,32.155,32.155,0,0,1-4.02,8.911H8.308a25.43,25.43,0,0,0,2.613-5.025,46.078,46.078,0,0,0,1.608-4.757q.536-2.01.536-2.144a16.331,16.331,0,0,1-3.785,3.585,9.381,9.381,0,0,1-4.656,1.306,11.776,11.776,0,0,1-6.767-1.842,12.8,12.8,0,0,1-4.623-5.494A19.4,19.4,0,0,1-8.375,73.25a17.479,17.479,0,0,1,2.01-7.705,13.074,13.074,0,0,1,5.092-5.393,15.684,15.684,0,0,1,7.906-1.843,13.174,13.174,0,0,1,3.283.637,9,9,0,0,1,2.144.971ZM12.8,73.317l-.067-.737a9.429,9.429,0,0,0-.536-2.077,6.873,6.873,0,0,0-1.541-2.312,5.87,5.87,0,0,0-4.02-1.507q-3.417.134-4.757,1.977a7.259,7.259,0,0,0-1.34,4.388q0,3.551,1.742,5.226a5.164,5.164,0,0,0,4.556,1.273A6.379,6.379,0,0,0,10.653,77.6a8.407,8.407,0,0,0,1.708-2.814A12.871,12.871,0,0,0,12.8,73.317ZM23.919,42.966V32.38h5.092V42.966Zm7.973,0V32.38h5.092V42.966Zm5.963,23.651V56.9a67.169,67.169,0,0,1,10.151-3.149,49.8,49.8,0,0,1,9.882-1.072,24.468,24.468,0,0,1,9.782,2.044,15.446,15.446,0,0,1,6.9,5.862,18.736,18.736,0,0,1,2.68,9.581q.469,11.926-7.5,17.855t-24.857,6V85.377q8.576.134,13.869-1.708T66.2,78.376a14.174,14.174,0,0,0,2.01-8.074,8.067,8.067,0,0,0-2.479-6.03q-2.479-2.412-8.576-2.747a22.667,22.667,0,0,0-6.4.636q-3.115.771-6.131,1.776t-4.891,1.809A13.463,13.463,0,0,0,37.855,66.617ZM127.1,53.82V64.741q-6.231.268-10.787.8a48.635,48.635,0,0,0-8.844,1.876,22.513,22.513,0,0,0-7.336,3.752,7.65,7.65,0,0,0-3.116,6.1,6.2,6.2,0,0,0,2.278,5.192,11.159,11.159,0,0,0,5.326,2.043,52.746,52.746,0,0,0,6.733.4q4.221-.067,7.772-.4t5.762-.67L127.1,83.5v10.72a116.294,116.294,0,0,1-15.544.871,58.362,58.362,0,0,1-12.027-1.307,19.277,19.277,0,0,1-9.548-5.125Q86.028,84.774,86.5,77.069a20.917,20.917,0,0,1,1.842-7.236,15.161,15.161,0,0,1,3.919-5.025,56.1,56.1,0,0,1,4.891-3.685l-3.082-19.7h9.313l2.479,16.147a59.23,59.23,0,0,1,10.184-2.646A107.315,107.315,0,0,1,127.1,53.82Zm0,0V64.741q-6.231.268-10.787.8a48.635,48.635,0,0,0-8.844,1.876,22.513,22.513,0,0,0-7.336,3.752,7.65,7.65,0,0,0-3.116,6.1,6.2,6.2,0,0,0,2.278,5.192,11.159,11.159,0,0,0,5.326,2.043,52.746,52.746,0,0,0,6.733.4q4.221-.067,7.772-.4t5.762-.67L127.1,83.5v10.72a116.294,116.294,0,0,1-15.544.871,58.362,58.362,0,0,1-12.027-1.307,19.277,19.277,0,0,1-9.548-5.125Q86.028,84.774,86.5,77.069a20.917,20.917,0,0,1,1.842-7.236,15.161,15.161,0,0,1,3.919-5.025,56.1,56.1,0,0,1,4.891-3.685l-3.082-19.7h9.313l2.479,16.147a59.23,59.23,0,0,1,10.184-2.646A107.315,107.315,0,0,1,127.1,53.82Zm47.637,18.09-1.742-22.646-.4-10.653h11.993l-.4,10.653L182.441,71.91Zm3.819,19.028a6.6,6.6,0,0,1-5.025-2.144,7.445,7.445,0,0,1-2.01-5.293,7.328,7.328,0,0,1,2.01-5.259,6.652,6.652,0,0,1,5.025-2.111,6.73,6.73,0,0,1,5.092,2.111,7.328,7.328,0,0,1,2.01,5.259,7.445,7.445,0,0,1-2.01,5.293A6.679,6.679,0,0,1,178.555,90.938Z" transform="translate(350 2146.573)"/>
    <g id="グループ_4198" data-name="グループ 4198" transform="translate(116.682 1931.597)">
      <g id="グループ_4197" data-name="グループ 4197" clip-path="url(#clip-path)">
        <path id="パス_19129" data-name="パス 19129" d="M48.345,98.745c-.649,1.779.337,3.457,4.227,3.457,2.961,0,5.365-1.656,5.914-3.166.582-1.6.468-2.516-2.915-3.628l-5.379-1.739c-2.375-.833-7.425-2.571-4.818-9.732,2.479-6.815,9.876-10.985,18.435-10.985,6.794,0,11.067,3.338,8.771,10.36H63.762c.864-2.374-1.987-3.336-3.49-3.336-2.613,0-4.77,1.025-5.535,2.641-.97,2.048.6,2.85,3.169,3.683l5.311,1.739c5.376,1.738,7,5.005,5.251,9.8-2.2,6.047-9.3,12.1-19.56,12.1-4.246,0-7.942-.973-9.732-4.311-1.27-2.432-.453-5.212.09-6.88Z" transform="translate(10.771 20.408)" fill="#004b9e"/>
        <path id="パス_19130" data-name="パス 19130" d="M78.43,96.476,83.37,82.9h7.84l2.481-6.815h-7.84l3.873-10.636h0L79.257,69.205h0l-2.5,6.884h-6.84L67.431,82.9h6.84l-4.55,12.5v0l-.006.015-.344.944c-1.362,3.866-4.356,14.625,10.161,14.625h1.456l3.19-8.766H81.543c-2.712-.106-4.8-.909-3.112-5.749Z" transform="translate(18.864 18.31)" fill="#004b9e"/>
        <path id="パス_19131" data-name="パス 19131" d="M195.974,96.476l4.94-13.572h7.841l2.476-6.815h-7.838l3.872-10.636h0L196.8,69.205l-2.5,6.884h-6.839l-2.48,6.815h6.839l-4.551,12.5v0l-.005.015-.344.944c-1.363,3.866-4.359,14.625,10.161,14.625h1.455l3.192-8.766h-2.635c-2.713-.106-4.8-.909-3.112-5.749Z" transform="translate(51.746 18.31)" fill="#004b9e"/>
        <path id="パス_19132" data-name="パス 19132" d="M128.736,80.538l2.566-7.046h-9.668L108.8,108.741h9.667l4.935-13.559C125,90.8,129.175,83.9,137.9,83.9l2.481-6.813a21.707,21.707,0,0,0-11.644,3.448" transform="translate(30.438 20.559)" fill="#004b9e"/>
        <path id="パス_19133" data-name="パス 19133" d="M143.728,101.61c-4.574,0-2.954-5.889-1.563-9.712.054-.145.115-.311.182-.488s.122-.342.173-.485c1.392-3.824,4.058-9.712,8.631-9.712,3.724,0,2.758,3.733,2.43,4.986h9.475c3.4-9.525-2.534-13.142-8.675-13.142-4.377,0-16.227,2.225-22.048,18.216-.017.046-.029.091-.046.137s-.037.092-.055.139c-5.818,15.988,4.411,18.215,8.787,18.215a19.742,19.742,0,0,0,18.242-13.139h-9.473c-.586,1.25-2.338,4.985-6.06,4.985" transform="translate(36.504 20.438)" fill="#004b9e"/>
        <path id="パス_19134" data-name="パス 19134" d="M105.142,105.17l5.178,3.692,7.851-23.035c.584-1.6,1.762-5.772.33-8.62-1.97-3.924-7.133-4.148-9.877-4.148a19.6,19.6,0,0,0-10.477,2.849,16.15,16.15,0,0,0-6.971,7.9h8.916a6.86,6.86,0,0,1,6.074-4.15c3.778,0,3.739,2.026,3.307,3.509l-.334.915-.811,2.228c-3.2,0-9.016,0-13.775,1.948-7.163,2.991-9.378,7.579-10.389,10.361s-1.1,5.516.994,7.716c3.3,3.476,10.563,2.5,14.057,1.56a20.192,20.192,0,0,0,5.928-2.727M93,97.566c1.406-3.865,6.794-5.793,13.149-5.279l-2.634,7.238c-.21.156-.444.326-.706.514a11.913,11.913,0,0,1-6.537,2.16c-3.373,0-4.07-2.446-3.272-4.634" transform="translate(23.351 20.438)" fill="#004b9e"/>
        <path id="パス_19135" data-name="パス 19135" d="M176.48,105.17l5.175,3.692,7.854-23.035c.582-1.6,1.758-5.772.329-8.62-1.968-3.924-7.133-4.148-9.877-4.148a19.59,19.59,0,0,0-10.476,2.849,16.149,16.149,0,0,0-6.971,7.9h8.916a6.855,6.855,0,0,1,6.071-4.15c3.779,0,3.742,2.026,3.307,3.509l-.333.915-.81,2.228c-3.2,0-9.017,0-13.776,1.948-7.163,2.991-9.377,7.579-10.389,10.361s-1.1,5.516.993,7.716c3.3,3.476,10.566,2.5,14.058,1.56a20.19,20.19,0,0,0,5.929-2.727m-12.141-7.6c1.408-3.865,6.8-5.793,13.151-5.279l-2.635,7.238c-.209.156-.444.326-.709.514a11.9,11.9,0,0,1-6.533,2.16c-3.375,0-4.071-2.446-3.274-4.634" transform="translate(43.307 20.438)" fill="#004b9e"/>
        <path id="パス_19136" data-name="パス 19136" d="M298.623,81.989c1.533,2.337,3.267,5.052,4.566,7.3l-.006-.005c2.106,3.352,2.772,6.156,1.661,8.076-3.762,6.52-26.49.447-50.756-13.564S213.2,53.14,216.963,46.62c1.111-1.921,3.866-2.744,7.818-2.6h0c2.6,0,5.818.142,8.608.3-18.236-6.627-32.127-7.867-35.468-2.08-5.238,9.072,17.431,31.969,50.637,51.139s64.368,27.356,69.606,18.283c3.341-5.786-4.679-17.2-19.537-29.676" transform="translate(55.157 10.783)" fill="#ffaf00"/>
        <path id="パス_19137" data-name="パス 19137" d="M258.149,71.414l23.463-18.981-11.849-8.2L252.692,66.793Z" transform="translate(70.69 12.375)" fill="#004b9e"/>
        <path id="パス_19138" data-name="パス 19138" d="M241.73,66.092l-6.953-22.737-11.6,5.712,11.6,21.163Z" transform="translate(62.432 12.128)" fill="#004b9e"/>
        <path id="パス_19139" data-name="パス 19139" d="M215.225,67.907l-2.132,5.865h9.968q-4.048-2.945-7.659-5.865Z" transform="translate(59.612 18.997)" fill="#004b9e"/>
        <path id="パス_19140" data-name="パス 19140" d="M257.647,78.438l.687-1.885c-4.235-2.007-8.625-4.305-13.073-6.87q-3.325-1.922-6.446-3.9l-.692,1.9q3.06,1.931,6.323,3.819c4.488,2.594,8.926,4.914,13.2,6.929" transform="translate(66.615 18.404)" fill="#004b9e"/>
        <path id="パス_19141" data-name="パス 19141" d="M250.129,75.4,262.6,41.122H250.077L238.943,71.707q3.19,2.023,6.6,3.994c4.388,2.535,8.727,4.809,12.913,6.793l.447-1.229h21.62l2.135-5.865Z" transform="translate(66.844 11.504)" fill="#004b9e"/>
        <path id="パス_19142" data-name="パス 19142" d="M244.309,73.772h3.1c-.924-.513-1.851-1.031-2.78-1.568q-3.663-2.114-7.077-4.3h-2.772c2.933,1.932,6.03,3.848,9.268,5.719.086.05.17.1.256.146" transform="translate(65.681 18.997)" fill="#004b9e"/>
        <path id="パス_19143" data-name="パス 19143" d="M255.248,77.864c-3.2-1.51-6.493-3.184-9.835-5.018l-.531,1.456c3.343,1.831,6.638,3.5,9.839,5.006Z" transform="translate(68.505 20.379)" fill="#004b9e"/>
        <path id="パス_19144" data-name="パス 19144" d="M225.24,80.848q4.53,2.975,9.419,5.893.543-.9,1.055-1.838-5-2.958-9.631-6-.42,1-.842,1.945" transform="translate(63.011 22.073)" fill="#004b9e"/>
        <path id="パス_19145" data-name="パス 19145" d="M228.743,85.769c-3.441,4.473-9.015,7.44-13.744,9.244a54.1,54.1,0,0,1-6.079,1.912c-1.555.392-2.493.548-2.5.552l-.514.084-3.375,9.683,1.5-.276c5.292-.978,16.422-3.13,24.938-8.689a36.361,36.361,0,0,0,11.5-11.3q-4.828-2.87-9.308-5.816a48.3,48.3,0,0,1-2.424,4.612" transform="translate(56.659 22.704)" fill="#004b9e"/>
        <path id="パス_19146" data-name="パス 19146" d="M226.352,78.144q4.678,3.073,9.745,6.085c.247-.484.488-.98.727-1.483q-5.122-3.025-9.868-6.139c-.2.52-.406,1.04-.6,1.537" transform="translate(63.322 21.431)" fill="#004b9e"/>
        <path id="パス_19147" data-name="パス 19147" d="M239.448,89.361c3.321,1.8,6.607,3.492,9.834,5.054.132-.4.287-.827.457-1.293l.27-.745q-4.834-2.342-9.822-5.045Z" transform="translate(66.985 24.431)" fill="#004b9e"/>
        <path id="パス_19148" data-name="パス 19148" d="M250.824,90.044Q245.99,87.7,241,85l-.577,1.582q4.976,2.7,9.82,5.054Z" transform="translate(67.259 23.777)" fill="#004b9e"/>
        <path id="パス_19149" data-name="パス 19149" d="M252.8,97.258c-3.038,0-3.568-.818-3.18-2.508q-4.87-2.355-9.9-5.077l-1.635,4.492c-2.957,8.13,2.086,10.7,10.368,10.7h19.021l2.767-7.6Z" transform="translate(66.365 25.086)" fill="#004b9e"/>
      </g>
    </g>
    <path id="パス_36565" data-name="パス 36565" d="M-8.112-7.644q1.2.052,2-2.028A25.762,25.762,0,0,0-4.81-15q.494-3.25.728-6.786t.182-6.448a7.634,7.634,0,0,0-3.822,2.964,16.711,16.711,0,0,0-2.34,4.914,21.447,21.447,0,0,0-.91,5.122A13.138,13.138,0,0,0-10.3-9.542Q-9.464-7.748-8.112-7.644ZM10.4-18.1a14.626,14.626,0,0,0-1.82-6.942,6.768,6.768,0,0,0-5.1-3.354q-.156,5.044-.65,10.192A42.15,42.15,0,0,1,.884-8.736a20.571,20.571,0,0,1-3.64,6.864A6.655,6.655,0,0,1-8.268.572a8.928,8.928,0,0,1-4.654-1.586,11.222,11.222,0,0,1-3.744-4.914,23.748,23.748,0,0,1-1.586-9.308,25.187,25.187,0,0,1,2.34-10.478,20.485,20.485,0,0,1,5.98-7.592A16.233,16.233,0,0,1-1.456-36.66,19.833,19.833,0,0,1,7.93-35.178a15.461,15.461,0,0,1,7.046,6.266,23.049,23.049,0,0,1,3.068,11.284A26.523,26.523,0,0,1,16.51-7.54,16.922,16.922,0,0,1,12.246-.962,16.29,16.29,0,0,1,6.552,2.444,17.628,17.628,0,0,1,.936,3.484v-7.8A8.6,8.6,0,0,0,7.9-7.93Q10.452-11.388,10.4-18.1Z" transform="translate(519.227 2066.435)"/>
  </g>
</svg>
