<?xml version="1.0" encoding="utf-8"?>
<!-- Generator: Adobe Illustrator 26.4.1, SVG Export Plug-In . SVG Version: 6.00 Build 0)  -->
<svg version="1.1" id="レイヤー_1" xmlns="http://www.w3.org/2000/svg" xmlns:xlink="http://www.w3.org/1999/xlink" x="0px"
	 y="0px" viewBox="0 0 186 140" style="enable-background:new 0 0 186 140;" xml:space="preserve">
<style type="text/css">
	.st0{fill:#FC13E2;}
	.st1{fill:#FFF100;}
</style>
<g id="sec01_text04_pc" transform="translate(-970.788 -1880)">
	<ellipse id="楕円形_21" class="st0" cx="1065.5" cy="1947.3" rx="91.3" ry="67.3"/>
	<path id="パス_36553" class="st1" d="M1010.6,1937.9h6.9v-18.7h-6v-4.9c1.5-0.3,3-0.7,4.5-1.2c1.3-0.5,2.5-1.1,3.6-1.8h5.8v26.6
		h5.9v6.4h-20.6V1937.9z M1076.2,1939.4h-14.6v9.1h-6.6v-9.1h-19.6v-6.2h6.8v-9.9c-0.7,0.8-1.2,1.4-1.6,1.8
		c-0.6-0.6-1.5-1.3-2.7-2.2c-0.9-0.7-1.8-1.4-2.8-2c2-1.8,3.8-4,5.2-6.3c1.6-2.6,2.8-5.3,3.7-8.2l6.5,1.7c-0.4,1.1-0.8,2.2-1.2,3.1
		h24.2v6.2h-12v4.5h10.9v6h-10.9v5.5h14.6V1939.4z M1046.3,1917.3c-0.9,1.6-1.9,3.1-2.9,4.5h11.6v-4.5L1046.3,1917.3z
		 M1048.7,1933.2h6.4v-5.5h-6.4L1048.7,1933.2z M1098.4,1924.6h-11.2v23.9h-6.3v-40.4h17.5L1098.4,1924.6z M1118.8,1941.1
		c0.1,1.3-0.1,2.7-0.6,3.9c-0.4,0.9-1.1,1.7-2,2.2c-1,0.5-2.1,0.9-3.3,1c-1.7,0.2-3.5,0.2-5.2,0.2c-0.2-1.4-0.5-2.8-1-4.1h-9.9v2.3
		h-5.8v-19.7h17.3v15.2h2.9c0.3,0,0.6-0.1,0.8-0.2c0.2-0.2,0.3-0.5,0.2-0.8v-16.3h-11.5v-16.7h17.9V1941.1z M1092.5,1912.6h-5.2v1.5
		h5.2V1912.6z M1112.3,1912.6h-5.4v1.5h5.4V1912.6z M1087.3,1920.1h5.2v-1.7h-5.2V1920.1z M1106.9,1920.2h5.4v-1.9h-5.4V1920.2z
		 M1102.4,1931.6h-5.6v1.9h5.6V1931.6z M1096.8,1939.7h5.6v-1.9h-5.6V1939.7z"/>
	<path id="パス_36554" class="st1" d="M1035.4,1966.7h-12.7v-4.7h12.7v-3.4h4.7v3.4h4.9v4.7h-4.9v6.5c0.5,1.3,0.8,2.6,1,4
		c0.1,1.6-0.1,3.3-0.5,4.9c-0.4,1.6-1.1,3-2,4.4h-5c0.5-0.8,0.9-1.6,1.3-2.5c0.3-0.8,0.6-1.6,0.8-2.4c0.2-0.7,0.3-1,0.3-1.1
		c-0.5,0.7-1.1,1.3-1.9,1.8c-0.7,0.4-1.5,0.6-2.3,0.6c-1.2,0-2.3-0.3-3.3-0.9c-1-0.7-1.8-1.6-2.3-2.7c-0.6-1.3-0.8-2.8-0.8-4.2
		c0-1.3,0.4-2.6,1-3.8c0.6-1.1,1.4-2,2.5-2.7c1.2-0.6,2.5-1,3.9-0.9c0.5,0,1.1,0.1,1.6,0.3c0.4,0.1,0.7,0.3,1.1,0.5L1035.4,1966.7z
		 M1035.8,1975.2l0-0.4c0-0.4-0.1-0.7-0.3-1c-0.2-0.4-0.4-0.8-0.8-1.1c-0.5-0.5-1.2-0.8-2-0.7c-0.9-0.1-1.8,0.3-2.3,1
		c-0.4,0.6-0.7,1.4-0.7,2.2c-0.1,0.9,0.2,1.9,0.9,2.6c0.6,0.6,1.4,0.8,2.2,0.6c0.7-0.1,1.4-0.4,1.9-1c0.4-0.4,0.7-0.9,0.8-1.4
		C1035.7,1975.7,1035.7,1975.4,1035.8,1975.2z M1041.3,1960.2v-5.2h2.5v5.2H1041.3z M1045.2,1960.2v-5.2h2.5v5.2H1045.2z
		 M1046.8,1971.9v-4.8c1.6-0.7,3.3-1.2,5-1.6c1.6-0.3,3.2-0.5,4.9-0.5c1.7,0,3.3,0.3,4.8,1c1.4,0.6,2.6,1.6,3.4,2.9
		c0.9,1.4,1.3,3.1,1.3,4.7c0.2,3.9-1.1,6.9-3.7,8.8c-2.6,2-6.7,2.9-12.2,3v-4.3c2.3,0.1,4.6-0.2,6.8-0.8c1.5-0.4,2.8-1.3,3.7-2.6
		c0.7-1.2,1.1-2.6,1-4c0-1.1-0.4-2.2-1.2-3c-0.8-0.8-2.2-1.2-4.2-1.4c-1.1,0-2.1,0.1-3.1,0.3c-1,0.3-2,0.5-3,0.9
		c-1,0.3-1.8,0.6-2.4,0.9C1047.4,1971.6,1047.1,1971.7,1046.8,1971.9z M1089.3,1965.6v5.4c-2,0.1-3.8,0.2-5.3,0.4
		c-1.5,0.2-2.9,0.5-4.3,0.9c-1.3,0.4-2.5,1-3.6,1.9c-1,0.7-1.5,1.8-1.5,3c-0.1,1,0.4,1.9,1.1,2.6c0.8,0.6,1.7,0.9,2.6,1
		c1.1,0.1,2.2,0.2,3.3,0.2c1.4,0,2.7-0.1,3.8-0.2c1.2-0.1,2.1-0.2,2.8-0.3l1.1-0.2v5.3c-2.5,0.3-5.1,0.5-7.6,0.4c-2,0-4-0.2-5.9-0.6
		c-1.8-0.4-3.4-1.3-4.7-2.5c-1.3-1.3-1.9-3.2-1.7-5.7c0.1-1.2,0.4-2.5,0.9-3.6c0.5-1,1.1-1.8,1.9-2.5c0.8-0.7,1.6-1.3,2.4-1.8
		l-1.5-9.7h4.6l1.2,8c1.6-0.6,3.3-1,5-1.3C1085.7,1965.8,1087.5,1965.6,1089.3,1965.6L1089.3,1965.6z M1089.3,1965.6v5.4
		c-2,0.1-3.8,0.2-5.3,0.4c-1.5,0.2-2.9,0.5-4.3,0.9c-1.3,0.4-2.5,1-3.6,1.9c-1,0.7-1.5,1.8-1.5,3c-0.1,1,0.4,1.9,1.1,2.6
		c0.8,0.6,1.7,0.9,2.6,1c1.1,0.1,2.2,0.2,3.3,0.2c1.4,0,2.7-0.1,3.8-0.2c1.2-0.1,2.1-0.2,2.8-0.3l1.1-0.2v5.3
		c-2.5,0.3-5.1,0.5-7.6,0.4c-2,0-4-0.2-5.9-0.6c-1.8-0.4-3.4-1.3-4.7-2.5c-1.3-1.3-1.9-3.2-1.7-5.7c0.1-1.2,0.4-2.5,0.9-3.6
		c0.5-1,1.1-1.8,1.9-2.5c0.8-0.7,1.6-1.3,2.4-1.8l-1.5-9.7h4.6l1.2,8c1.6-0.6,3.3-1,5-1.3
		C1085.7,1965.8,1087.5,1965.6,1089.3,1965.6L1089.3,1965.6z M1110.1,1974.5l-0.9-11.2l-0.2-5.3h5.9l-0.2,5.3l-0.9,11.2H1110.1z
		 M1112,1983.9c-0.9,0-1.8-0.4-2.5-1.1c-0.7-0.7-1-1.6-1-2.6c0-1,0.3-1.9,1-2.6c0.6-0.7,1.5-1.1,2.5-1c0.9,0,1.9,0.4,2.5,1
		c0.7,0.7,1,1.6,1,2.6c0,1-0.3,1.9-1,2.6C1113.8,1983.6,1112.9,1983.9,1112,1983.9z"/>
	<path id="パス_19150" class="st0" d="M992.9,1975.6l27.1,17.8l-49.2,26.6L992.9,1975.6z"/>
</g>
</svg>
