<svg xmlns="http://www.w3.org/2000/svg" xmlns:xlink="http://www.w3.org/1999/xlink" width="600" height="85.096" viewBox="0 0 600 85.096">
  <defs>
    <clipPath id="clip-path">
      <path id="パス_15368" data-name="パス 15368" d="M1187.409,102.759l-6.34.555-9.283,33.821-13.048,1.142,7.423-33.658-6.5.569L1178.5,86.5ZM1154.372,151.4l15.2-1.33,1.645-6.512-15.2,1.33Z" transform="translate(-1154.372 -86.497)" fill="#fff100"/>
    </clipPath>
    <clipPath id="clip-path-2">
      <path id="パス_15368-2" data-name="パス 15368" d="M1181.722,99.96l-5.249.459-7.685,28-10.8.945,6.146-27.864-5.382.471,15.6-15.473Zm-27.351,40.264,12.584-1.1,1.362-5.391-12.584,1.1Z" transform="translate(-1154.372 -86.497)" fill="#fff100"/>
    </clipPath>
  </defs>
  <g id="グループ_3361" data-name="グループ 3361" transform="translate(193.117 -10.31) rotate(5)">
    <path id="パス_15428" data-name="パス 15428" d="M62.616,229.689l2.362-4.933L51.75,223.368l-3.583,7.585-11.133.974,10.825-23,1.836-.161,9.3-.813,14.449-1.264,10.837-.948,2.428-.212-6.293,13.4,10.541,1.017-.8,7.341L77.095,226l-1.214,2.53ZM43.732,166.38l.771-6.854,53.06-4.642-.771,6.854L66.65,164.375l-1.214,3.5L81.129,166.5l11.37-.995-3.883,37.668-11.37.995-22.266,1.948-11.37.995,3.883-37.668,6.1-.534,1.214-3.5ZM55.69,199.269l22.266-1.948.326-3.422-22.266,1.948ZM56.728,189l22.266-1.948.385-3.427-22.266,1.948Zm-.847,25.525-.815,1.768,13.228,1.388,2.036-4.42Zm2.27-39.223-.326,3.422,22.266-1.948.326-3.422Z" transform="translate(-37.033 -144.535)" fill="#fff100"/>
    <path id="パス_15429" data-name="パス 15429" d="M453.027,303.137l3.435-18.125-38.019,3.326.3-3.579,51.639-4.518-4.086,21.736ZM427.681,318.62l8.113-27.418,13.265-1.16-8.113,27.418Z" transform="translate(-360.724 -250.922)" fill="#fff100"/>
    <path id="パス_15430" data-name="パス 15430" d="M833.366,306.127l-34.774,3.042.77-4.094L786.1,306.235l-3.257,17.813,13.265-1.16,1.836-10.109,9.306-.814-6.633,28.295L813.88,339.1l6.514-28.284.008-.044,12.139-1.062Z" transform="translate(-669.977 -271.998)" fill="#fff100"/>
    <path id="パス_15431" data-name="パス 15431" d="M1042.549,346.94l-1.945,8.447-7.284.637,1.981-8.45Z" transform="translate(-882.552 -307.527)" fill="#fff100"/>
    <path id="パス_15432" data-name="パス 15432" d="M1102.465,341.7l-1.945,8.447-7.284.637,1.981-8.45Z" transform="translate(-933.401 -303.079)" fill="#fff100"/>
    <g id="グループ_2838" data-name="グループ 2838" transform="translate(169.087 0)">
      <g id="グループ_2825" data-name="グループ 2825" clip-path="url(#clip-path)">
        <path id="パス_15367" data-name="パス 15367" d="M1112.73,151.251l6.3-64.919,39.337.03-6.3,64.919Z" transform="translate(-1119.032 -86.357)" fill="#fff100"/>
      </g>
    </g>
    <g id="グループ_2991" data-name="グループ 2991" transform="translate(194.002 22.677)">
      <g id="グループ_2825-2" data-name="グループ 2825" clip-path="url(#clip-path-2)">
        <path id="パス_15367-2" data-name="パス 15367" d="M1112.73,140.076l5.219-53.744,32.565.025L1145.3,140.1Z" transform="translate(-1117.947 -86.353)" fill="#fff100"/>
      </g>
    </g>
    <line id="線_132" data-name="線 132" x2="170" transform="matrix(0.996, -0.087, 0.087, 0.996, -187.66, 70.801)" fill="none" stroke="#fff100" stroke-width="1"/>
    <line id="線_133" data-name="線 133" x2="171" transform="matrix(0.996, -0.087, 0.087, 0.996, 239.707, 33.411)" fill="none" stroke="#fff100" stroke-width="1"/>
  </g>
</svg>
