<?xml version="1.0" encoding="utf-8"?>
<!-- Generator: Adobe Illustrator 26.4.1, SVG Export Plug-In . SVG Version: 6.00 Build 0)  -->
<svg version="1.1" id="レイヤー_1" xmlns="http://www.w3.org/2000/svg" xmlns:xlink="http://www.w3.org/1999/xlink" x="0px"
	 y="0px" viewBox="0 0 510 234" style="enable-background:new 0 0 510 234;" xml:space="preserve">
<style type="text/css">
	.st0{fill:#FFFFFF;}
</style>
<path id="sec03_text02_pc" class="st0" d="M111.5,26.5l-0.1,7.5c-0.3,17.6-0.7,31.1-1.1,40.5c-0.4,9.3-0.9,16.5-1.6,21.6
	c-0.7,5.1-1.7,8.5-2.9,10.3c-1.1,1.9-2.6,3.5-4.4,4.7c-1.8,1.1-3.7,1.8-5.8,2.3c-3.4,0.6-6.9,0.8-10.4,0.7h-4.7
	c-0.2-2.9-0.8-5.8-1.6-8.5c-0.8-2.8-1.9-5.5-3.4-8.1c3.2,0.3,7,0.5,11.3,0.5c0.8,0,1.6-0.1,2.3-0.5c0.7-0.4,1.3-1,1.7-1.7
	c1.1-1.5,2-6.2,2.5-14.1s1-21,1.3-39.2h-7.3c-0.5,10.3-1.7,20.5-3.5,30.7c-1.6,8.3-4.3,16.2-8.2,23.7c-3.7,7.1-8.8,13.3-15,18.3
	c-2.1-3.5-4.7-6.7-7.7-9.5c-16.1,1.6-33.1,3.2-51,4.7L0,95.9l23.5-1.4v-5.2H3.4V77.1h20.1V74H3.8V35.7h19.7v-3H1V20.3h22.5v-2.9
	c-6.4,0.3-12.7,0.6-19.1,0.7C4.1,16.1,3.6,14,3,12C2.4,9.9,1.6,7.9,0.7,5.9c9.4-0.4,18.8-1.1,28.1-2.2c9.3-1,17.2-2.2,23.8-3.6
	L59.9,13c-5.3,1.1-12.2,2.2-20.7,3.1v4.2h21.7v12.4H39.2v3h20.1V74H39.2v3.1h20.9v12.2H39.2v4.1l19.1-1.4l1.8-2.6
	c3.7-6.1,6.4-12.8,7.7-19.8c1.7-8.9,2.7-17.9,3.1-27h-9.5v-16h9.8V2h16.7c0,11.1,0,19.3-0.1,24.4H111.5z M17.5,49.9h6v-3.6h-6V49.9z
	 M45.1,46.3h-5.9v3.6h5.9V46.3z M17.5,63.4h6v-3.6h-6V63.4z M45.1,59.8h-5.9v3.6h5.9V59.8z M134.5,6.6h109.1v16.2h-46.3v7.6h20.1
	v55.3h-56.9V30.4h19.2v-7.6h-45.2L134.5,6.6z M222.9,90.7V28.5h16.9v85.5h-16.9v-6.9h-67.7v6.9h-16.9V28.5h16.9v62.2L222.9,90.7z
	 M174.7,44.5v7h6.5v-7H174.7z M202.6,51.5v-7H196v7H202.6z M174.7,64.6v7.1h6.5v-7.1H174.7z M202.6,71.7v-7.1H196v7.1H202.6z
	 M265,19.2V4h55.6v15.3h-14.3v7.3h12.1v84.9h-13.7V106h-24.9v7.2h-13.1V26.6h13.7v-7.3L265,19.2z M357.1,96c1.2,0.1,2.4-0.4,3.2-1.3
	c0.7-0.9,1.2-2.5,1.5-5s0.6-6.4,0.8-11.9c2.3,1.7,4.7,3,7.3,4.1c2.7,1.2,5.4,2.2,8.3,2.9c-0.6,7.1-1.5,12.7-2.9,16.5
	s-3.3,6.7-5.9,8.4s-6.2,2.5-10.7,2.5h-14.9c-5,0-8.9-0.7-11.6-2c-2.8-1.4-4.9-3.8-5.9-6.7c-1.2-3.1-1.8-7.6-1.8-13.4V41.1h32.1v-19
	h-32.6V5.3h49.5v59.6h-16.9v-7.1h-14.9v32.4c-0.1,1.3,0.1,2.7,0.4,4c0.1,0.7,0.6,1.3,1.3,1.6c1,0.3,2.1,0.4,3.2,0.4H357.1z
	 M295,26.6v-7.3h-3.6v7.3H295z M300.7,68.5c-2.8,0-4.7-0.7-5.6-2c-1-1.3-1.4-3.9-1.4-7.8V40.9H291v9.5c0,9.2-1.8,16.2-5.5,20.8
	c-0.8-0.9-1.7-1.7-2.6-2.5c-1-0.9-2-1.6-3.1-2.3V75h24.9v-6.5H300.7z M279.8,65.7c1.5-2,2.5-4.4,2.9-6.9c0.5-2.8,0.7-5.7,0.7-8.5
	v-9.4h-3.6V65.7z M304.8,40.9h-3.6v17.7c0,0.5,0,0.9,0.1,1.4c0,0.3,0.3,0.4,0.5,0.4c0,0,0,0,0,0h0.7c0.6,0.1,1.1-0.1,1.6-0.5
	l0.7,0.6V40.9z M279.8,92.6h24.9v-5.9h-24.9V92.6z M437.9,5.3c-3.1,7.7-6.7,15.1-10.7,22.4v86h-16.5v-61c-2.5,3.2-5.3,6.3-8.2,9.1
	c-1.1-3.2-2.4-6.2-4-9.2c-1.5-3.1-3.1-6.1-4.9-9c6-5.9,11.3-12.5,15.8-19.6c4.9-7.6,9-15.6,12.2-24.1L437.9,5.3z M499.9,4v13.5
	h-55.1V4H499.9z M433.3,21.4H510v14h-76.7V21.4z M502.1,39.3v13.5h-59.5V39.3L502.1,39.3z M442.6,70.3V56.8h58.9v13.5H442.6z
	 M440.3,113.9V74.4h63.8v39.2h-17.6v-3.8H457v4.2H440.3z M486.5,87.7H457v8.4h29.5L486.5,87.7z M32.8,196.8H14.7v-26.7H2.5v-19.2
	h12.2V134h18.1v16.8h22.9v-17.3h18.1v17.3h12.8v19.2H73.9V187c-0.2,8.4-1.9,15.5-5.3,21.1c-3.2,5.5-7.6,10.1-12.9,13.6
	c-4.8,3.2-10,5.7-15.4,7.6c-4.1,1.4-8.3,2.6-12.6,3.4c-3.4,0.6-5.1,0.8-5.2,0.8V214c0.1,0,1.3-0.2,3.5-0.5c2.9-0.5,5.7-1.1,8.5-2
	c3.4-1,6.7-2.5,9.7-4.5c3.2-2.1,5.9-4.8,8-7.9c2.4-3.6,3.7-7.8,3.6-12.2v-16.8H32.8V196.8z M110.1,191.9V173h55.4v18.9H110.1z
	 M194,203.6v-67.7h18.3v15.9h51.3v18.9h-51.3v31.2c0,2.7,1.1,5.3,2.9,7.3c1.8,1.8,5.2,2.8,10.1,3.1c7,0.1,13.3-0.1,18.8-0.5
	c5.5-0.4,12-1.2,19.4-2.4v19.2c-7.2,0.8-13.8,1.4-19.8,1.7c-6,0.4-12.6,0.5-19.9,0.3c-8.8-0.4-16-2.7-21.6-6.9S194,212.8,194,203.6z
	 M240.3,138.5v-19h9.1v19H240.3z M254.5,138.5v-19h9.1v19H254.5z M335.4,157.1H292v-19.4H361c-1.6,8.9-4.2,17.6-7.7,25.9
	c-3.2,7.5-7.1,14.7-11.4,21.5c3.6,4.7,7.2,9.1,10.7,13c2.9,3.2,5.9,6.3,9.2,9.1c2.6,2.1,3.9,3.2,4,3.3v23c-4.3-3.1-8.2-6.2-11.7-9.1
	c-3.9-3.4-7.7-7-11.3-10.8c-4.1-4.4-8-9-11.6-13.9c-4.5,5.6-9.5,10.9-14.9,15.7c-4.4,3.9-9.1,7.5-14.1,10.8c-3.4,2.2-6.8,4.2-10.4,6
	c-2.6,1.2-4,1.9-4.1,1.9v-21.5c6.8-3.4,13.1-7.8,18.8-13c5.7-5.3,11-11.2,15.6-17.4C326.9,175.5,331.4,167.2,335.4,157.1
	L335.4,157.1z"/>
</svg>
