<?xml version="1.0" encoding="utf-8"?>
<!-- Generator: Adobe Illustrator 26.4.1, SVG Export Plug-In . SVG Version: 6.00 Build 0)  -->
<svg version="1.1" id="sec01_price01_pc" xmlns="http://www.w3.org/2000/svg" xmlns:xlink="http://www.w3.org/1999/xlink" x="0px"
	 y="0px" viewBox="0 0 908 298" style="enable-background:new 0 0 908 298;" xml:space="preserve">
<style type="text/css">
	.st0{clip-path:url(#SVGID_00000070107009922193186740000008962173861426742671_);}
	.st1{fill:#004385;}
</style>
<g>
	<defs>
		<rect id="SVGID_1_" width="908" height="298"/>
	</defs>
	<clipPath id="SVGID_00000074411656675582698500000006011936469136926363_">
		<use xlink:href="#SVGID_1_"  style="overflow:visible;"/>
	</clipPath>
	<g id="グループ_4473" style="clip-path:url(#SVGID_00000074411656675582698500000006011936469136926363_);">
		<path id="パス_19968" class="st1" d="M26.4,27.8c0-5.5-0.3-11-0.3-16.5C26.1,4.9,28.9,3,35,3c5.4,0,10.7,0.3,16.1,0.3h43.4
			C99.7,3.3,105,3,110.2,3c5.2,0,9,1.1,9,8.4c0,5.5-0.3,11.1-0.3,16.6v74.1c0,4,0.5,7.8,0.5,11.7c0,8.1-1.1,14-8.7,18.2
			c-6.3,3.4-13.1,4.3-21.2,4.3c-7.8,0-9.6-2.1-10.7-7c-0.8-3.8-1.3-7.6-1.4-11.4c0-2.4,0.8-4.4,3.7-4.4c1.8,0,5,0.6,7.6,0.6
			c6.7,0,7-2.7,7-5.8v-16c-0.1-2.3-1.9-4.2-4.3-4.3h-37c-4.1,0-5.8,1.2-6.6,5.3c-1.4,7.9-4.6,16.5-8.1,23.9c-2,4.3-9,18.6-14.1,18.6
			c-4,0-16.7-8.1-16.7-13c0-1.4,1.2-2.7,2.1-3.8c6.1-7.8,10.9-19.5,13-29.3s2.3-19.2,2.3-28.8L26.4,27.8z M49.8,31
			c0.1,2.3,1.9,4.2,4.3,4.3h37.3c2.3,0,4.2-1.9,4.3-4.3v-2c0-2.4-1.9-4.3-4.3-4.3c0,0,0,0,0,0H54.1c-2.4,0-4.3,1.9-4.3,4.3
			c0,0,0,0,0,0L49.8,31z M91.4,67.3c2.3,0,4.2-1.9,4.3-4.3v-2.7c-0.1-2.3-1.9-4.2-4.3-4.3H54.7c-3.4,0-4.9,1.8-4.9,5.2v0.9
			c0,3.4,1.7,5.2,5.2,5.2L91.4,67.3z"/>
		<path id="パス_19969" class="st1" d="M34.2,288c-2.9,0-3.4,0.3-3.4,2.6c0,3.7-0.5,4-6,4h-8.3c-4.6,0-6.1-0.3-6.1-3.2
			c0-2.9,0.2-5.8,0.2-8.5v-25.9c0-2.6,0-3.7-2.1-4.4C5.8,251.6,0,240.6,0,237.2c0-2.3,1.8-2.7,4-3.4c2.6-0.8,17.3-5.3,17.3-7.6
			c0-0.9-1.7-3.4-3.2-3.4c-1,0.1-1.9,0.5-2.6,1.2c-1.1,0.9-3.2,2.6-4.7,2.6c-3.2,0-10.5-8.1-10.5-11.7c0-1.5,1.5-2.4,3.8-4
			c8.3-5.6,16.7-13.6,21.1-19.4c1.4-1.7,3.2-4,3.2-4.7c0-0.8-0.6-1.4-1.4-1.4c0,0-0.1,0-0.1,0h-2.3c-1.5,0-2.8,1.2-2.9,2.7
			c0,0.8,0.3,1.8,0.3,4.4c0,3.5-2,3.8-6.1,3.8H9.5c-4.6,0-6.6-0.3-6.6-3.8c0-1.4,0.1-2.9,0.3-4.3c0.1-0.9,0.2-1.8,0.2-2.7v-4.9
			c0-2.6-0.3-5-0.3-7.6c0-5.2,4.9-5.3,8.7-5.3c3.5,0,6.9,0.3,10.2,0.3s5-2.1,5-4.1c0-1.1-0.3-4.1-0.5-5.2c0-0.3-0.2-0.8-0.2-1.2
			c0-1.7,1.8-1.7,3.1-1.7c4.3,0,11.6,0.5,15.9,0.8c3.5,0.3,6.4,0.3,6.4,2.1c0,0.8-0.8,1.2-1.7,2c-0.9,0.8-1.5,2-1.5,3.2
			c0.2,2.4,2.2,4.2,4.6,4.1c1.4,0,5-0.3,8.3-0.3c3.8,0,9.2,0,9.2,5.3c0,2.4-0.3,5-0.3,7.6v5.2c0,2.9,0.3,4.6,0.3,6.9
			c0,2-0.9,3.7-2.4,3.7c-0.6,0-2.1,0-2.1,1.4c0,0.8,0.5,1.2,1.1,2c1.2,1.5,3.1,4.7,3.1,6.7c0,3.2-10.2,14.3-12.8,16.9
			c-0.8,0.6-1.3,1.5-1.4,2.4c0,3.4,15.4,7.2,16.4,7.2c2,0,2.4-1.7,2.4-3.4v-21c0-4.7-0.3-9.6-0.3-14.3c0-6.3,2.9-7.2,8.1-7.2h2.8
			c1.2,0,2.3-0.7,2.9-1.7c0.8-1.2,1.4-2.6,1.7-4.1c0-1.5-1.4-1.8-2.6-1.8c-4,0-7.9,0.5-11.9,0.5c-3.1,0-3.4-1.5-3.4-6.4v-7.5
			c0-4.3,0.3-5.8,3.4-5.8c3.7,0,8.6,0.3,13.8,0.3h32.6c5.2,0,10.1-0.3,13.8-0.3c3.1,0,3.4,1.4,3.4,5v8.8c0,4.4-0.3,5.8-3.2,5.8
			c-4,0-9-0.5-13.9-0.5h-4.4c-5.4,0-6.7,5.6-6.7,6.3c0,0.6,0.5,1.7,2.6,1.7c4.4,0,8.9-0.3,13.3-0.3c5,0,7.5,1.7,7.5,7
			c0,4.9-0.3,9.6-0.3,14.5v36.6c0,4.9,0.3,9.6,0.3,14.5c0,6.9-4,7.2-8.9,7.2c-0.5,0-0.9-0.2-1.4-0.2c-0.6,0-1.2,0.4-1.2,1.1
			c0,2,14.1,9.3,16.5,10.4c1.4,0.6,2.1,1.5,2.1,2.6c0,3.7-7.8,14.2-11.5,14.2c-1-0.1-2.1-0.4-2.9-1.1c-6.1-3.3-11.9-7.2-17.3-11.6
			c-1.4-1.1-4-3.4-4-4.4c0-2,2.6-4.4,4.4-6.4l1.2-1.2c0.3-0.3,1.1-0.9,1.4-1.2c0.3-0.3,0.8-0.6,0.8-1.2c-0.1-0.8-0.8-1.5-1.7-1.4
			H96.8c-1-0.1-1.8,0.6-2,1.5c0,1.2,3.8,4.7,5,5.8c1.1,1.1,4.3,4,4.3,5.3c-0.1,1-0.9,1.7-1.8,1.7c-1.1,0-1.2-0.3-2.6-0.3
			c-0.5,0-0.9,0.1-1.2,0.5c-3.5,2.9-20.2,14.6-23.8,14.6c-2.9,0-7.5-6.3-9.2-8.5c-0.3-0.5-0.6-0.6-0.8-0.6c-0.5,0-0.6,0.9-0.6,1.2
			v1.1c0,2.3-1.5,2.9-5.7,2.9H46.8c-3.1,0-3.1-1.4-3.1-2.1c0-1.2-0.6-1.5-1.5-1.5H34.2z M43.7,245.8c0.8,0,1.2-0.3,1.2-1.1
			c0-1.2-4.7-4.4-7.8-4.4c-1.5,0.1-2.9,0.6-4.1,1.5c-0.5,0.3-2,1.2-2.8,1.7c-0.8,0.5-1.2,0.9-1.2,1.4c0,0.8,1.1,0.9,1.7,0.9
			L43.7,245.8z M30.9,266.7c0.1,1.6,1.3,2.9,2.9,2.9h7.5c1.6-0.1,2.8-1.3,2.9-2.9v-1.1c0-1.6-1.3-2.9-2.9-2.9h-7.5
			c-1.6,0-2.9,1.3-2.9,2.9c0,0,0,0,0,0L30.9,266.7z M37.3,209.6c-1.1,0-3.1,0-3.1,1.5c0,1.1,2.8,4.4,4.6,4.4c2.1,0,6.3-4.4,6.3-4.9
			c0-0.9-2.9-1.1-5.7-1.1H37.3z M44,185.5c-0.5,0-1.2,0.2-1.2,0.8c0,0.6,1.7,1.2,2.6,1.4c1.7,0.3,4,0.9,4,2.3c0,1.1-1.4,1.7-2.3,1.8
			c-1.5,0.2-2.7,1.3-2.9,2.7c0,0.8,0.6,1.4,1.4,1.4c0,0,0,0,0,0h4.7c1.2,0,2.2-1.1,2.1-2.3v-0.9c0-0.5,0.2-3.5,0.2-4
			c0.1-0.3,0.2-0.7,0.2-1.1c0-0.9-0.6-2-2.6-2.1L44,185.5z M63.9,274.6c0,1.8,0.3,3.7,2.3,3.7c0.9,0,3.7-1.7,4.7-2.1
			c1.7-0.9,12.2-6.9,12.2-8.2c0-0.6-0.5-1.1-1.1-1.1c0,0-0.1,0-0.1,0h-1.1c-4.7,0-6.4-2.7-6.4-7s0.3-8.4,0.3-12.7V245
			c0-0.8,0-1.7-1.1-1.7c-0.8,0-1.1,0.6-1.7,1.7c-1.5,2.5-3.5,4.7-5.8,6.6c-2.1,1.5-2.3,3.5-2.3,6.7L63.9,274.6z M112.2,206.9
			c0-1-0.8-1.9-1.8-2c0,0,0,0,0,0H98.4c-1,0-1.9,0.9-1.8,2c0,0,0,0,0,0v0.8c0,1,0.8,1.9,1.8,2c0,0,0,0,0,0h11.9c1,0,1.8-0.8,1.8-1.8
			c0-0.1,0-0.1,0-0.2L112.2,206.9z M112.2,226.6c0.1-1-0.8-1.9-1.8-2c0,0,0,0,0,0H98.4c-1,0-1.9,0.9-1.8,1.9c0,0,0,0,0,0v0.8
			c0,1,0.8,1.9,1.8,2c0,0,0,0,0,0h11.9c1,0,1.9-0.9,1.8-2c0,0,0,0,0,0L112.2,226.6z M112.2,245.9c0.1-1-0.8-1.9-1.8-2c0,0,0,0,0,0
			H98.4c-1,0-1.9,0.9-1.8,1.9c0,0,0,0,0,0v0.9c0,1,0.8,1.9,1.8,2c0,0,0,0,0,0h11.9c1,0,1.9-0.9,1.8-2c0,0,0,0,0,0L112.2,245.9z"/>
		<path id="パス_19970" class="st1" d="M768.5,256.2c0,10.9,0.9,21.8,0.9,32.5c0,5.9-2.6,6.3-10.5,6.3h-13.5
			c-7.9,0-10.7-0.4-10.7-6.1c0-10.9,0.7-21.8,0.7-32.7V139.5c0-7.8-0.4-15.5-0.4-23.3c0-9.1,4.2-12,12.9-12c7.9,0,15.7,0.4,23.6,0.4
			h100.2c7.6,0,15.3-0.4,23.1-0.4c6.8,0,13.3,1.1,13.3,12c0,7.8-0.7,15.5-0.7,23.3v106.3c0,6.1,0.4,12,0.4,18.1
			c0,8.7-0.2,16.6-7,22.9c-7.9,7.2-20.3,7.8-30.6,7.8c-9,0-14.2-0.7-17.2-5.4c-2.6-4.1-3.7-12.4-3.7-17.4c0-7.8,1.1-11.1,5-11.1
			c2,0,7.2,0.7,10.9,0.7c8.7,0,8.9-3.1,8.9-10.7v-30.1c-0.1-3.3-2.8-6-6.1-6.1h-93.4c-3.5,0.2-6.1,3.1-6.1,6.5V256.2z M805.6,141.9
			c-0.1-3.3-2.8-6-6.1-6.1h-24.9c-3.3,0.1-6,2.8-6.1,6.1v36.8c0.1,3.3,2.8,6,6.1,6.1h24.9c3.4,0,6.1-2.7,6.1-6.1c0,0,0,0,0,0
			L805.6,141.9z M837.7,178.7c-0.1,3.3,2.5,6,5.8,6.1c0.1,0,0.2,0,0.3,0h24.2c3.3-0.1,6-2.8,6.1-6.1v-36.8c-0.1-3.3-2.8-6-6.1-6.1
			h-24.2c-3.4,0-6.1,2.7-6.1,6.1c0,0,0,0,0,0L837.7,178.7z"/>
		<path id="パス_19971" class="st1" d="M193.7,142.6v-0.8c-12.3-9.8-25.5-30.6-25.5-57.7c0-44.6,29.7-84.1,83-84.1
			s83,39.5,83,84.1c0,27.2-13.1,48-25.5,57.7v0.8c16.6,12.3,31.3,35.2,31.3,67.5c0,53.1-37.8,87.9-88.8,87.9s-88.7-34.8-88.7-87.9
			C162.4,177.9,177.1,154.9,193.7,142.6 M251.2,247.9c21.2,0,35.5-16.6,35.5-40.3c0-23.3-14.3-39.9-35.5-39.9s-35.5,16.6-35.5,39.9
			C215.7,231.4,230,247.9,251.2,247.9 M281.3,84.1c0-18.7-12-34-30.1-34s-30.1,15.3-30.1,34c0,18.3,12,33.5,30.1,33.5
			S281.3,102.3,281.3,84.1"/>
		<path id="パス_19972" class="st1" d="M378.9,142.6v-0.8c-12.3-9.8-25.5-30.6-25.5-57.7c0-44.6,29.7-84.1,83-84.1
			s83,39.5,83,84.1c0,27.2-13.1,48-25.5,57.7v0.8c16.6,12.3,31.3,35.2,31.3,67.5c0,53.1-37.8,87.9-88.8,87.9s-88.7-34.8-88.7-87.9
			C347.7,177.9,362.3,154.9,378.9,142.6 M436.4,247.9c21.2,0,35.5-16.6,35.5-40.3c0-23.3-14.3-39.9-35.5-39.9s-35.5,16.6-35.5,39.9
			C400.9,231.4,415.2,247.9,436.4,247.9 M466.5,84.1c0-18.7-12-34-30.1-34s-30.1,15.3-30.1,34c0,18.3,12,33.5,30.1,33.5
			S466.5,102.3,466.5,84.1"/>
		<path id="パス_19973" class="st1" d="M533.6,149c0-64.1,1.9-77.3,5.8-90c10.8-36.9,37.8-59,79.1-59s68.3,22.1,79.1,59
			c3.9,12.7,5.8,25.9,5.8,90s-1.9,77.3-5.8,90c-10.8,36.9-37.8,59-79.1,59s-68.3-22.1-79.1-59C535.6,226.3,533.6,213.1,533.6,149
			 M618.5,247.9c13.5,0,22.8-6.4,26.6-19.5c2.3-7.6,3.1-16.1,3.1-79.4s-0.8-71.7-3.1-79.4c-3.9-13.2-13.1-19.5-26.6-19.5
			c-13.9,0-22.8,6.4-26.6,19.5c-2.3,7.6-3.1,16.1-3.1,79.4s0.8,71.7,3.1,79.4C595.8,241.5,604.6,247.9,618.5,247.9"/>
	</g>
</g>
</svg>
