<?xml version="1.0" encoding="utf-8"?>
<!-- Generator: Adobe Illustrator 26.4.1, SVG Export Plug-In . SVG Version: 6.00 Build 0)  -->
<svg version="1.1" id="レイヤー_1" xmlns="http://www.w3.org/2000/svg" xmlns:xlink="http://www.w3.org/1999/xlink" x="0px"
	 y="0px" viewBox="0 0 666 666" style="enable-background:new 0 0 666 666;" xml:space="preserve">
<style type="text/css">
	.st0{fill:none;stroke:#FDD000;stroke-width:5;}
	.st1{fill:#FDD000;}
	.st2{fill:#FFFFFF;}
</style>
<g id="sec03_text03_pc" transform="translate(-685.534 -4395.234)">
	<path class="st0" d="M896.8,5035c37.7,15,78.8,23.2,121.8,23.2c182.3,0,330-147.7,330-330s-147.7-330-330-330
		c-55.8,0-108.4,13.9-154.5,38.4"/>
	<path class="st0" d="M744.5,4544.3c-35.3,52.6-56,115.8-56,183.9c0,63.1,17.7,122.1,48.5,172.3"/>
</g>
<g id="グループ_4483">
	<path id="パス_19997" class="st1" d="M177.7,353c-45.3,0-87.9-23.8-88.6-82h50.8c0.8,25,18,36.3,37.9,36.3
		c21.9,0,37.5-13.7,37.5-38.7c0-23-14.1-38.3-39.1-38.3h-7.4v-44.1h7.4c24.6,0,35.1-15.2,35.1-34.8c0-23.4-15.6-35.5-34-35.5
		c-19.1,0-33.2,12.5-34.4,33.6H92.2c1.2-49.6,38.3-79.3,85.1-79.3c49.2,0,84.7,32.8,84.7,79.7c0,30.1-13.7,47.3-32,57
		c19.9,10.5,35.9,29.7,35.9,63.3C266,325.7,225.3,353,177.7,353"/>
	<path id="パス_19998" class="st1" d="M381.4,247.7c6.4-0.2,13-0.4,19.6-0.4c4.6,0,5.6,2.5,5.6,7.9v7.9c0,5.2-0.2,8.7-5.8,8.7
		c-6.4,0-13-0.2-19.4-0.2h-1.9c-3.7,0-5,2.5-5.4,5.8c-1.4,15.8-6.8,31.7-16.3,44.6c-7,9.5-17.6,19.1-27.9,24.7
		c-1.4,0.8-3,1.3-4.6,1.4c-5,0-17.2-11.4-17.2-15.3c0-2.1,2.1-3.3,3.7-4.3c17.6-9.1,31.2-22.4,35.8-41.9c1-3.7,1.7-7.5,1.9-11.4
		c0.1-2-1.5-3.6-3.4-3.7c-0.1,0-0.2,0-0.3,0h-11.4c-4.8,0-6.4,2.5-9.7,7.3c-5.1,7-10.6,13.7-16.7,19.9c-1.2,1.4-2.7,2.9-4.6,2.9
		c-3.9,0-19.2-9.1-19.2-13.9c0-1.7,2.1-3.5,3.5-4.6c9.9-8.5,18.8-21.1,25.2-32.5c5.8-10.4,9.3-18.7,11.4-30.5c0.4-1.7,1-4.6,2.9-4.6
		c2.1,0.3,4.2,0.8,6.2,1.4c3.1,1,13.9,4.3,16.7,5.4c1.4,0.4,3.3,1.2,3.3,2.9c0,1.4-1.2,1.9-2.1,2.5c-1.7,1.2-2.9,2.9-3.5,4.8
		c-0.4,1-1.5,4.3-3.1,8.3c-0.4,0.8-0.6,1.6-0.6,2.5c0,2.9,1.9,4.1,4.6,4.3L381.4,247.7z"/>
	<path id="パス_19999" class="st1" d="M439.9,215.3c0-7-0.4-13.9-0.4-20.9c0-8.1,3.5-10.6,11.2-10.6c6.8,0,13.6,0.4,20.3,0.4h55
		c6.6,0,13.4-0.4,20-0.4c6.6,0,11.4,1.4,11.4,10.6c0,7-0.4,14.1-0.4,21.1v93.9c0,5,0.6,9.9,0.6,14.9c0,10.2-1.4,17.8-11,23
		c-7.9,4.3-16.7,5.4-26.9,5.4c-9.9,0-12.2-2.7-13.6-8.9c-1.1-4.8-1.7-9.6-1.7-14.5c0-3.1,1-5.6,4.6-5.6c2.3,0,6.4,0.8,9.7,0.8
		c8.5,0,8.9-3.5,8.9-7.3v-20.3c-0.1-3-2.5-5.4-5.4-5.4h-46.9c-5.2,0-7.4,1.5-8.3,6.8c-1.7,10.1-5.8,20.9-10.3,30.3
		c-2.5,5.4-11.4,23.6-17.8,23.6c-5,0-21.1-10.2-21.1-16.4c0-1.7,1.6-3.5,2.7-4.8c7.7-9.9,13.8-24.7,16.5-37.1s2.9-24.4,2.9-36.5
		L439.9,215.3z M469.5,219.3c0.1,3,2.5,5.4,5.4,5.4h47.3c3-0.1,5.4-2.4,5.4-5.4v-2.5c0-3-2.4-5.4-5.4-5.4c0,0,0,0,0,0h-47.3
		c-3,0-5.4,2.4-5.4,5.4c0,0,0,0,0,0L469.5,219.3z M522.2,265.3c3-0.1,5.4-2.4,5.4-5.4v-3.5c-0.1-3-2.5-5.4-5.4-5.4h-46.5
		c-4.3,0-6.2,2.3-6.2,6.6v1.2c0,4.3,2.1,6.6,6.6,6.6H522.2z"/>
	<path id="パス_20000" class="st1" d="M109.6,488.6c-2.6,0.8-9.9,2.4-12.4,2.4c-4,0-5.7-5.5-6.7-8.6c-0.7-2.1-1.2-4.2-1.3-6.4
		c0-2.7,1.9-2.8,5-3.1c10.4-0.9,21.3-3.7,28-12.6c2.1-2.7,3.4-6,3.9-9.4c0-1.1-0.9-2-2-2.1c0,0,0,0-0.1,0c-1.1,0-2.1,0.7-2.4,1.7
		c-0.5,1.4-2.2,1.4-7.5,1.4h-7.6c-2.3,0-3.7-0.4-3.7-3c0-3.2,0.3-8,0.3-12.4v-41.4c0-4-0.1-7.8-0.1-11.8c0-4.4,2.1-5.5,6.2-5.5
		c4.4,0,8.8,0.3,13.2,0.3h48.6c4.3,0,8.6-0.3,13-0.3c3.9,0,6.3,0.9,6.3,5.5c0,4-0.3,7.8-0.3,11.8v41.4c0,4.5,0.3,9.1,0.3,12.4
		c0,2.7-1.3,3-5.5,3h-6.2c-4.6,0-6.3-0.1-7.1-1.4c-0.5-0.9-0.9-1.7-2.1-1.7h-0.4c-1.1,0-2,0.9-2.1,2c0,0,0,0,0,0.1v14
		c0,5.8,0.4,6.9,6.3,6.9h5.2c7.7,0,8-2.1,8.8-11.8c0.1-1.8,1-2.3,2.8-2.3c3.5,0,13.8,2.1,13.8,7.7c0,5.9-2.8,16.1-7,20.5
		c-3.4,3.6-9.3,3.6-14.4,3.6h-22.1c-7.7,0-12.3-3.1-12.3-11.5c0-1.9,0.1-6.3,0.1-8.6v-17c0-2-1.6-3.6-3.6-3.6c0,0,0,0,0,0h-8.9
		c-0.5,0-1.7,0-1.7,0.9c0,0.6,1.5,1.3,3.5,2.1c3.4,1.3,9.3,3.5,9.3,5.4c0,1.5-1.8,1.9-3,2.2c-0.7,0.2-1.3,0.7-1.5,1.4
		C136.3,475.9,125,484.2,109.6,488.6 M121.6,396.9c0,0.9,0.7,1.6,1.6,1.7c0,0,0.1,0,0.1,0h46.6c0.9,0,1.6-0.8,1.5-1.6c0,0,0,0,0,0
		v-0.6c0-0.9-0.6-1.6-1.5-1.7c0,0,0,0,0,0h-46.6c-0.9,0-1.7,0.8-1.7,1.7L121.6,396.9z M121.6,414.1c0,0.9,0.8,1.7,1.7,1.7h46.6
		c0.9,0,1.6-0.8,1.5-1.6c0,0,0,0,0,0v-0.8c0-0.9-0.6-1.6-1.5-1.7c0,0,0,0,0,0h-46.6c-0.9,0-1.6,0.7-1.7,1.6c0,0,0,0.1,0,0.1
		L121.6,414.1z M121.6,431.7c0,0.9,0.7,1.6,1.6,1.7c0,0,0.1,0,0.1,0h46.6c0.8,0,1.5-0.7,1.6-1.5c0-0.1,0-0.1,0-0.2v-0.6
		c0.1-0.8-0.5-1.6-1.4-1.7c-0.1,0-0.1,0-0.2,0h-46.6c-0.9-0.1-1.6,0.6-1.7,1.4c0,0.1,0,0.2,0,0.2L121.6,431.7z"/>
	<path id="パス_20001" class="st1" d="M221.7,417.9c0-5.3-0.3-7.5-3.2-7.5h-1.3c-3.6,0-4-1.4-4-5.5v-6.7c0-4.4,0.4-5.8,4-5.8
		c2.2,0,6.2,0.4,9.5,0.4c2,0.1,3.7-1.5,3.7-3.5c0-0.1,0-0.3,0-0.4v-1.5c0.1-3.2-0.1-6.4-0.5-9.5c-0.1-0.4-0.1-0.8-0.1-1.2
		c0-1.8,1.8-1.9,3.2-1.9c2.2,0,13.7,0.9,16.2,1.2c1.3,0.1,2.7,0.3,2.7,1.8c0,1-0.7,1.9-1.7,2.2c-1.4,0.5-1.4,0.8-1.4,7.7v0.6
		c0,1.5,0.3,4.5,3.7,4.5c3.4,0,7.3-0.4,9.8-0.4c3.6,0,4,1.2,4,5.9v6c0,4.2-0.1,6-4,6c-2.1,0-6.2-0.3-10.4-0.3h-10.6
		c-0.4,0-0.4,0-0.4,0.1s0,0.1,0.1,0.3c0.7,0.2,1.2,0.9,1.2,1.7c0,0.9-0.8,1.3-1.4,1.8c-1.7,1-1.8,1.9-1.8,3.9v1
		c0,1.7,0.4,4.4,3.5,4.4h3.7c3,0,6.1-0.3,9.2-0.3c1.7,0,4,0.6,4.9,1.5c0.3,0.3,0.6,0.5,1,0.5c0.6,0,0.9-0.4,1.2-0.9
		c1-2.1,2.8-5.8,3.7-7.8c4.8-10.7,11.6-28.6,13.4-40c0.3-1.4,0.4-2.2,1.8-2.2c1.9,0,10.8,2.6,13.4,3.3c1.4,0.4,4.4,1,4.4,3
		c0,1-0.8,1.4-1.8,1.8c-1.8,0.6-2.1,1.7-3.1,5.7c-0.5,1.8-0.9,3.6-2.1,6.8c-0.2,0.6-0.4,1.2-0.5,1.8c0,1.5,1.3,2.1,2.7,2.1h18.2
		c4.3,0,8.3-0.4,11.7-0.4c2.8,0,3.1,1.3,3.1,5v7.7c0,3.6-0.3,5-3,5c-2.1,0-6.1-0.4-7.2-0.4c-0.6,0-0.9,0.3-0.9,0.5
		c0,0.5,0.4,0.6,5,1c1.2,0.1,3.2,0.6,3.2,2.1c0,1-1.9,2.4-3.1,3.1c-1,0.7-1.6,1.9-1.8,3.1c-1.8,9.5-4.4,18.4-9,26.8
		c-0.9,1.4-1.5,3.1-1.8,4.8c0,3.9,14.8,15.2,18.4,17.6c0.8,0.5,1.9,1.4,1.9,2.4c0,3.2-8.5,12.9-12.1,12.9
		c-3.4,0-14.1-11.3-16.6-14.2c-1-1.2-2.2-2.3-3.9-2.3c-1.8,0-3.2,1.4-4.4,2.6c-2.8,2.8-17.5,15.7-20.9,15.7c-2.8,0-11-9.5-11-12.2
		c0-1.7,1.8-2.6,4-3.7c0.4-0.2,0.9-0.5,1.3-0.8c4-2.4,20-14.2,20-18.5c-0.1-1.5-0.6-3-1.4-4.2c-2.3-4.6-4.2-9.4-5.5-14.4
		c-0.4-1.3-0.6-2.8-2.1-2.8c-1,0-2.1,1.5-2.6,2.4c-0.5,1-1.5,1.6-2.6,1.7c-1.5,0-3.5-1.4-5-2.4c-0.4-0.2-0.7-0.5-1-0.8
		c-0.5-0.5-1.2-0.8-1.9-0.9c-1.5,0-1.5,2.7-1.5,3.7c0,9.9-0.6,36.2-3.2,44c-2.6,8-8.4,8.9-16.4,8.9c-6.7,0-10.1-0.4-10.1-15.1
		c0-3.3,0.3-4.4,2.2-4.4c1.2,0,2.5,0.3,3.6,0.3c1.8,0,3-0.5,3.6-2.4c1.3-3.6,2.7-21,2.7-26.2c0-1.4,0-3.5-3.1-3.5s-3.1,3-3.4,4.9
		c-1.7,13.6-5,26.9-9.7,39.8c-1.3,3.5-1.7,5-3.7,5c-3.7,0-13.9-5.5-13.9-9.6c0.3-1.4,0.8-2.8,1.4-4.1c6.2-16.1,9.4-33.3,9.5-50.6
		L221.7,417.9z M290.9,415.5c-1.3,0-2.6,0.4-2.6,2.1c0,2.3,4,13,5,15.7c0.5,1.3,2.2,5.9,3.4,5.9c0.9,0,1.3-1,2.4-4.1
		c2.4-6.7,2.7-10.4,3.6-17.2V417c0-1-0.6-1.4-1.7-1.4L290.9,415.5z"/>
	<path id="パス_20002" class="st1" d="M436.4,378.4c4.1,0,8.3-0.3,12.4-0.3c2.7,0,3,1,3,4.2v6.4c0,2.8-0.3,3.9-3,3.9
		c-3.9,0-8.1-0.3-12.4-0.3h-6.6c-2.4,0-2.8,3.2-2.8,3.5c0,1.5,1.5,1.8,2.7,1.8c3.9,0,7.6-0.1,11.5-0.1c4.1,0,6.4,0.9,6.4,5.4
		c0,3.2-0.3,6.3-0.3,9.5v26.5c0,3.1,0.3,6.2,0.3,9.4c0,4.5-2.5,5.5-6.4,5.5c-1.3,0-2.5-0.1-3.6-0.1c-0.4,0-0.9,0.1-0.9,0.6
		c0,1.5,12.1,5.9,14.1,6.6c0.9,0.3,2.1,0.5,2.1,1.7c0,2.3-3.5,6.8-5.2,8.6c-0.3,0.2-0.5,0.5-0.5,0.9c0,0.5,0.6,0.5,1,0.5h2.3
		c2.1,0,2.6,1.7,2.6,3.5c0,5.7-1.8,12.1-4.6,13.1c-2.2,0.8-5.8,0.8-8.3,0.8c-16.5,0-32.9,0-49.4-0.3c-20.1-0.3-28.9-1-35.5-8
		c-0.3-0.3-0.6-0.8-1-0.8c-0.9,0-1.3,1.3-1.4,2.1c-1.5,9-2.7,9-4.3,9c-3.1,0-13.8-1.5-13.8-5.7c0.1-1,0.4-2,0.8-3
		c2.7-9.9,4.8-21.2,4.8-31.5v-0.6c0-1.9,0.1-2.6,2.1-2.6c4.4,0,9.5,1,13.9,1.5c0.9,0.1,2.3,0.5,2.3,1.7c0,1.3-1.2,1.9-2.1,2.4
		c-0.6,0.4-0.6,3.1-0.6,4.4c0,2.7,2.2,6.8,3.4,6.8c0.6,0,0.8-0.4,0.8-1.9v-15.8c0.1-1.6-1.2-3-2.9-3.1c-0.1,0-0.2,0-0.2,0h-3.9
		c-4.1,0-8.3,0.3-12.4,0.3c-3.5,0-3.7-1.3-3.7-4.8v-5.7c0-3.3,0.3-4.8,3.5-4.8c4.3,0,8.5,0.3,12.6,0.3h24.4c4.3,0,8.5-0.3,12.8-0.3
		c3,0,3.5,1.4,3.5,4.5v6.2c0,3.3-0.5,4.5-3.7,4.5c-3.4,0-6.7-0.3-10.1-0.3c-1.9,0-3.1,0.6-3.1,2.7c-0.1,1.4,1,2.6,2.4,2.7
		c0.2,0,0.3,0,0.5,0c3,0,6.1-0.3,9-0.3c2.3,0,2.6,1,2.6,4.1v3.7c0,1.3,0.4,3,2.1,3s12.6-5,12.6-6.2c0-0.6-0.6-0.8-1.2-0.8
		c-0.9,0-1.7,0.1-2.6,0.1c-4.1,0-6.4-1.2-6.4-5.7c0-3.1,0.4-6.2,0.4-9.3v-26.5c0-3.2-0.4-6.3-0.4-9.4c0-4.2,2.2-5.5,6.2-5.5h4.8
		c2.3,0,3.2-3.2,3.2-3.7c0-1.3-1.4-1.4-3.4-1.4h-2.7c-3.1,0-6.2,0.3-9.3,0.3c-2.6,0-2.8-1-2.8-3.9v-6.6c0-3.1,0.3-4.1,2.8-4.1
		c4.1,0,8.4,0.3,12.5,0.3H436.4z M370.8,378.2c3.5,0,6.8-0.3,10.3-0.3c3.9,0,7.4,0.4,7.4,5.1c0,2.8-0.3,5.8-0.3,8.9v19.7
		c0,3.1,0.3,6,0.3,8.9c0,4.8-3.5,5.1-7.4,5.1c-3.5,0-6.8-0.3-10.3-0.3h-9.2c-3.5,0-7,0.3-10.3,0.3c-3.9,0-7.4-0.4-7.4-5.1
		c0-3,0.3-5.9,0.3-8.9V392c0-3-0.3-5.9-0.3-8.9c0-4.8,3.5-5.1,7.4-5.1c3.4,0,6.8,0.3,10.3,0.3L370.8,378.2z M359.6,394.6
		c0.1,0.9,0.6,1.4,1.4,1.4h10.7c0.8,0,1.5-0.6,1.5-1.4c0,0,0,0,0,0v-0.8c0-0.8-0.7-1.4-1.5-1.4c0,0,0,0,0,0H361
		c-0.8,0-1.4,0.6-1.4,1.4V394.6z M359.6,409.5c0,0.9,0.7,1.6,1.6,1.7c0,0,0.1,0,0.1,0h10.3c0.9,0,1.6-0.7,1.7-1.6c0,0,0-0.1,0-0.1
		v-0.4c0-0.9-0.8-1.6-1.7-1.5c0,0,0,0,0,0h-10.3c-0.8-0.1-1.6,0.5-1.7,1.4c0,0.1,0,0.1,0,0.2L359.6,409.5z M393.1,470
		c-0.3-0.4-1.4-1.8-1.7-2.3c-1.8-2.7-1.9-3-10.7-3c-2.1-0.1-3.8,1.6-3.9,3.7c0,0.1,0,0.3,0,0.4c0,2.8,1.3,4.4,4.3,4.4
		s5.9-0.1,8.9-0.1h1.8c0.9,0,2.5,0,2.5-1.3C394.2,471,393.6,470.5,393.1,470 M418.2,453.6c-1.2,0-2.8,0-2.8,1.5c0,1,1.8,3.1,2.5,3.9
		c0.9,0.9,2.7,2.8,2.7,4.2c-0.1,0.7-0.7,1.2-1.4,1.2c-0.4,0-0.7-0.1-1-0.3c-0.3-0.1-0.6-0.2-0.9-0.3c-0.3,0-0.8,0.5-1,0.6
		c-3.5,2.2-7,4.2-10.7,5.9c-1.3,0.6-2.8,1.2-2.8,1.9c0,0.5,0.9,0.8,1.4,0.8h19.7c5,0,10.1-0.1,15.1-0.1c0.4,0,1.4-0.1,1.4-0.8
		c0-0.8-1.9-1.4-2.6-1.7c-2.2-1-14.1-6.6-14.1-8.7c0-1.5,2.8-4.6,3.9-5.8c0.4-0.4,1-1,1-1.5c0-0.6-0.9-0.9-1.4-0.9L418.2,453.6z
		 M428.7,413.7c0.8,0,1.4-0.6,1.4-1.4v-0.6c0-0.8-0.6-1.5-1.4-1.5c0,0,0,0,0,0H415c-0.8,0-1.4,0.7-1.4,1.5c0,0,0,0,0,0v0.6
		c0,0.7,0.5,1.4,1.3,1.4c0,0,0.1,0,0.1,0H428.7z M415,423.5c-0.8,0-1.4,0.6-1.4,1.4v0.6c0,0.8,0.6,1.5,1.4,1.5h13.7
		c0.8-0.1,1.4-0.7,1.4-1.5v-0.6c0-0.7-0.5-1.4-1.3-1.4c0,0-0.1,0-0.1,0H415z M415.1,437.4c-0.9,0-1.6,0.8-1.5,1.7c0,0,0,0,0,0v0.3
		c-0.1,0.8,0.5,1.6,1.4,1.7c0.1,0,0.1,0,0.2,0h13.3c0.9,0,1.6-0.7,1.7-1.6c0,0,0-0.1,0-0.1v-0.3c0-0.9-0.8-1.7-1.7-1.7H415.1z"/>
	<path id="パス_20003" class="st2" d="M324,168v-7.7h24.8v7.7c-1.3,3.2-3.2,6.2-5.5,8.9c2.9,1.3,6,2.4,9.1,3.1l-2.7,7.7
		c-4.6-1.1-9.1-2.8-13.3-5c-3.6,2.1-7.3,3.8-11.3,5l-3-5.7v6.3H313v-4.8c-7.5,1.2-14.5,2.1-20.9,2.7l-0.8-7.7
		c1.7-0.2,3.5-0.4,5.3-0.6v-18.9h-4.7v-7.7h59.8v7.7h-29.5V180c2.3-0.7,4.5-1.5,6.7-2.6c-1.9-1.6-3.7-3.4-5.3-5.3l5-4.1L324,168z
		 M306.7,149.1h-10.3v-19.6h50.8v19.6L306.7,149.1z M313,158.8h-7.6v2.3h7.6V158.8z M305.4,168.6h7.6v-2.3h-7.6V168.6z M313,175.5
		v-1.7h-7.6v2.8C306.7,176.4,309.3,176.1,313,175.5 M306.7,137.6H337v-1.7h-30.2V137.6z M306.7,144H337v-1.7h-30.2V144z
		 M335.9,172.6c1.5-1.4,2.8-2.9,3.9-4.6h-8.7C332.6,169.7,334.2,171.3,335.9,172.6"/>
	<path id="パス_20004" class="st2" d="M361.5,150v-8.9h22.9v-12.5H395v12.5h22.9v8.9h-22.3c0.9,6.2,3.5,12,7.4,16.9
		c3.9,4.8,9.3,8.9,16.2,12.3l-5.8,8c-5.1-2.4-9.6-5.7-13.5-9.8c-4-4.3-7.3-9.1-9.8-14.5c-2.5,5.4-5.9,10.3-10.1,14.5
		c-4,4.1-8.8,7.4-14,9.8l-5.8-8c6.9-3.4,12.3-7.5,16.2-12.3c3.9-4.9,6.5-10.7,7.4-16.9L361.5,150z"/>
	<path id="パス_20005" class="st1" d="M477.4,446.1c-0.3,2.1,0.3,4.2,1.7,5.9c1.3,1.7,3.3,2.6,5.4,2.5c2.3,0,4.5-0.9,6.2-2.4
		c1.8-1.5,3.1-3.5,3.7-5.8l10.5-42.1l2.4-11.2c0.8-3.2,0.2-6.6-1.7-9.2c-1.8-2.5-4.8-4-7.9-3.9c-3.4,0-6.7,1.4-9.2,3.8
		c-2.7,2.3-4.5,5.6-5,9.1l-1.6,11.2L477.4,446.1z"/>
	<path id="パス_20006" class="st1" d="M492.4,472.3L492.4,472.3l-0.2-0.5l0,0c-1.1-2.9-2.1-5.7-2.1-5.7l-4,5.4
		c-1.4-0.3-2.8-0.5-4.3-0.5c-1.3,0-2.7,0.1-4,0.4l-2-5.5c0,0-8.1,11-8.3,11.4c-1.2,1.7-1.9,3.8-2,5.9c-0.1,0.9,0,1.9,0.3,2.8l0,0
		l0.2,0.5l0,0c0.9,2.1,2.4,3.9,4.4,5c2.3,1.5,4.9,2.2,7.6,2.2c2.9,0,5.8-0.6,8.4-2c3.8-1.9,6.7-4.5,7.9-8.2c0.7-1.9,0.7-4,0.1-5.9
		C494,476.6,493.2,474.4,492.4,472.3"/>
	<path id="パス_20007" class="st1" d="M497.7,379.7l15.4,0.2c1.7,0,2.3,2.3,0.9,3.4c-3.3,2.5-5.6,6-6.7,10
		C505.2,402.2,497.7,379.7,497.7,379.7"/>
	<path id="パス_20008" class="st1" d="M523.6,445.2c-0.3,2.1,0.3,4.2,1.7,5.9c1.3,1.7,3.3,2.6,5.4,2.5c2.3,0,4.5-0.9,6.2-2.4
		c1.8-1.5,3.1-3.5,3.7-5.8l10.5-42.1l2.4-11.2c0.8-3.2,0.2-6.6-1.7-9.2c-1.8-2.5-4.8-4-7.9-3.9c-3.4,0-6.7,1.4-9.2,3.8
		c-2.7,2.3-4.5,5.6-5,9.1L528,403L523.6,445.2z"/>
	<path id="パス_20009" class="st1" d="M538.6,471.4L538.6,471.4l-0.2-0.5l0,0c-1.1-2.9-2.1-5.7-2.1-5.7l-4,5.4
		c-1.4-0.3-2.8-0.5-4.3-0.5c-1.3,0-2.7,0.1-4,0.4l-2-5.5c0,0-8.1,11-8.3,11.4c-1.2,1.7-1.9,3.8-2,5.9c-0.1,0.9,0,1.9,0.3,2.8l0,0
		l0.2,0.5l0,0c0.9,2.1,2.4,3.9,4.4,5c2.3,1.5,4.9,2.2,7.6,2.2c2.9,0,5.8-0.6,8.4-2c3.8-1.9,6.7-4.5,7.9-8.2c0.7-1.9,0.7-4,0.1-5.9
		C540.2,475.7,539.4,473.6,538.6,471.4"/>
	<path id="パス_20010" class="st1" d="M543.9,378.8l15.4,0.2c1.7,0,2.3,2.3,0.9,3.4c-3.3,2.5-5.6,6-6.7,10
		C551.4,401.3,543.9,378.8,543.9,378.8"/>
</g>
</svg>
