<?xml version="1.0" encoding="utf-8"?>
<!-- Generator: Adobe Illustrator 26.4.1, SVG Export Plug-In . SVG Version: 6.00 Build 0)  -->
<svg version="1.1" id="レイヤー_1" xmlns="http://www.w3.org/2000/svg" xmlns:xlink="http://www.w3.org/1999/xlink" x="0px"
	 y="0px" viewBox="0 0 324 104" style="enable-background:new 0 0 324 104;" xml:space="preserve">
<style type="text/css">
	.st0{fill:#FDD000;}
</style>
<path id="sec04_ttl01_sp" class="st0" d="M36.3,39.2c2.4,1.2,4.8,2.2,7.3,3c2.6,0.9,5.2,1.6,7.9,2.1c-0.9,0.9-1.8,1.9-2.5,2.9
	c-0.8,1.1-1.6,2.1-2.2,3.3c-3-0.8-5.9-1.9-8.7-3.3c-2.8-1.3-5.6-2.9-8.2-4.6v8.2h-7.7v-8c-2.6,1.7-5.4,3.3-8.3,4.5
	c-2.9,1.3-5.9,2.4-9,3.3c-0.7-1.1-1.5-2.3-2.3-3.3c-0.8-1.1-1.7-2.1-2.6-3c2.8-0.5,5.7-1.3,8.4-2.1c2.6-0.8,5.2-1.8,7.6-3H2v-6.1
	h20.1v-1.5H7.9v-14l-2,1.7c-0.8-1-1.6-2-2.5-2.9c-0.9-0.9-1.9-1.7-2.9-2.4c2.7-1.9,5.2-4.1,7.4-6.5c2-2.3,3.8-4.7,5.3-7.4l7.9,1.6
	c-0.8,1.3-1.6,2.7-2.5,4h5.9C25.3,3.8,26,2,26.6,0.1l8.7,1c-0.8,1.5-1.7,3-2.6,4.5h14.9v5.9H31.2V13h13.4v4.9H31.2v1.5h13.4v4.9
	H31.2v1.5h17.5v5.8H29.8v1.5h20.4v6.1L36.3,39.2z M23.9,13v-1.4h-8.7V13H23.9z M23.9,19.4v-1.5h-8.7v1.5H23.9z M15.1,24.3v1.5h8.7
	v-1.5H15.1z M85.1,0.2c2.8,4.1,6.3,7.8,10.1,10.9c3.7,3,7.9,5.4,12.3,7.2c-2,2.1-3.6,4.5-5,7c-2.6-1.4-5.1-3-7.6-4.7v3.5H68.5v-3.8
	c-2.5,1.8-5.1,3.5-7.8,4.9C60,24,59.3,23,58.5,21.9c-0.8-1.1-1.7-2.1-2.6-3c4.5-2.2,8.7-5,12.4-8.4c3.4-3,6.4-6.5,8.9-10.3H85.1z
	 M90.7,17.3c-3.5-2.8-6.6-6-9.3-9.5c-2.6,3.6-5.6,6.8-9,9.5H90.7z M64.7,51V28.6h34.5V51h-7.9v-1.9h-19V51H64.7z M91.2,35.4h-19v7
	h19V35.4z M162.6,41.9v7.4h-34.3v-7.4h13.4v-9H131v-7.3h10.6v-7.9h-12.3v-7.4h13.1c-2.8-2-5.3-3.5-7.4-4.7l5.1-5.6
	c2.2,1.1,4.5,2.4,6.8,3.8c1.9,1.1,3.7,2.4,5.4,3.8l-2.3,2.6h11.7v7.4h-12.3v7.9h10.8v7.3h-10.8v9L162.6,41.9z M130.7,2.6
	c-1.4,3.4-3,6.7-4.7,9.9v38.2h-7.3V23.6c-1.1,1.4-2.3,2.8-3.6,4.1c-0.5-1.4-1.1-2.8-1.7-4.1c-0.6-1.4-1.4-2.7-2.2-4
	c2.7-2.6,5-5.5,7-8.7c2.2-3.4,4-6.9,5.4-10.7L130.7,2.6z M177.6,11.7v6h-7.8V4.3h18.7V0.2h8.3v4.2h19v13.3h-8.3v-6H177.6z
	 M206.4,42.9c0.7,0.1,1.5-0.1,2.1-0.5c0.5-0.5,0.9-1.2,1-2c0.3-1.5,0.5-3,0.5-4.6c1.1,0.8,2.3,1.4,3.5,1.9c1.3,0.6,2.7,1,4.2,1.3
	c-0.2,2.4-0.7,4.8-1.6,7c-0.6,1.5-1.8,2.7-3.2,3.4c-1.8,0.8-3.8,1.1-5.8,1h-9.3c-2.3,0.1-4.6-0.2-6.7-0.9c-1.5-0.5-2.7-1.7-3.3-3.1
	c-0.7-2-1-4.1-1-6.3v-4.8l-17,1.7l-1-7.5l17.9-1.7v-4c-2.8,0.4-6.1,0.7-10.2,1.1c-0.2-1.2-0.5-2.3-0.9-3.4c-0.4-1.2-0.8-2.3-1.4-3.4
	c5.2-0.5,10.4-1.2,15.5-2.2c4.2-0.8,8.4-2,12.4-3.5l5.9,6.4c-4.2,1.6-8.5,2.8-12.9,3.6v4.6l20.5-1.9l0.9,7.2l-21.4,2.1v5.5
	c0,0.6,0,1.3,0.2,1.9c0.2,0.4,0.5,0.6,0.9,0.7c0.8,0.2,1.5,0.2,2.3,0.2L206.4,42.9z M236.4,31.7h6.2c-0.5,0.9-0.9,1.9-1.3,2.9
	c-0.3,0.9-0.4,1.7-0.4,2.6c0,0.6,0.1,1.1,0.3,1.6c0.3,0.6,0.8,1,1.5,1.3c1,0.4,2.1,0.6,3.3,0.5c1.9,0,3.9-0.1,5.8-0.2
	c0.7-0.1,1.4-0.2,2.1-0.3v7.2c-1.1,0.2-2.2,0.3-3.3,0.4c-1.2,0.1-2.9,0.1-5.1,0.1c-3.5-0.1-6.2-1-8-2.6c-1.8-1.5-2.8-3.8-2.9-6.1
	c-0.1-1.3,0-2.7,0.4-4C235.4,34,235.8,32.8,236.4,31.7z M226.4,13.6h6.7c-0.4,3.5-0.8,6.6-1,9.2s-0.3,5.3-0.4,8.1
	c0.1,2.9,0.2,5.7,0.5,8.4c0.3,2.7,0.7,5.8,1.2,9.4h-7c-0.5-3.4-0.8-6.4-1.1-9.1c-0.2-2.7-0.4-5.5-0.4-8.5c0-2.8,0.1-5.6,0.4-8.2
	C225.6,20.2,226,17.1,226.4,13.6z M236,15.6h17.1v6.9H236V15.6z M12.2,76.7H4.1v-6.4h8.1v-4.5h6.2v4.5h4.7c-0.5-1.1-1.3-2.6-2.3-4.4
	h7c2.2,4.5,3.7,7.9,4.5,10.2c0.9,2.3,1.3,3.5,1.3,3.6H27c-0.5-1.5-0.9-2.8-1.3-3.7c-0.6-1.4-1.2-2.8-1.9-4.1v4.8h-5.3v3.5
	c0.3-0.1,0.7-0.1,1-0.2c1.4,0,2.9,0.1,4.3,0.4c1.5,0.3,3,0.8,4.3,1.6c1.4,0.9,2.5,2.1,3.3,3.5c0.9,1.9,1.4,3.9,1.3,6
	c0.1,2.1-0.4,4.2-1.3,6c-0.8,1.4-1.9,2.7-3.2,3.6c-1.2,0.8-2.6,1.4-4.1,1.7c-1.3,0.3-2.6,0.4-3.9,0.5v-6.9c1.2,0,2.4-0.1,3.6-0.5
	c0.8-0.2,1.5-0.8,1.9-1.5c0.4-0.9,0.6-1.8,0.5-2.8c0.1-1.5-0.6-2.9-1.8-3.8c-1.2-0.9-3-1.3-5.4-1.2h-0.3c-0.1,0-0.2,0-0.3,0v7.7
	c0.1,1.9-0.4,3.8-1.5,5.5c-0.7,1-1.7,1.8-2.8,2.3c-0.9,0.3-1.8,0.5-2.8,0.4c-1.3,0-2.6-0.4-3.8-1.1c-1.3-0.8-2.4-1.9-3.2-3.3
	C3.5,96.5,3,94.7,3,92.9c-0.1-1.8,0.3-3.5,1.1-5.1c0.8-1.6,1.9-3,3.3-4.1c1.4-1.2,3.1-2.1,4.8-2.7V76.7z M12.2,94.9v-7
	c-1,0.5-1.8,1.2-2.4,2C9.3,90.8,9,91.8,9,92.8c-0.1,0.6,0.1,1.2,0.4,1.7c0.3,0.4,0.6,0.7,1.1,0.9c0.3,0.2,0.7,0.3,1.1,0.3
	c0,0,0.1,0,0.3,0C12.1,95.6,12.2,95.3,12.2,94.9z M82.9,96v6.3H53.7V96h11.4v-7.7h-9v-6.2h9v-6.7H54.7v-6.3h11.1
	c-2.4-1.7-4.5-3-6.2-4l4.3-4.7c1.9,1,3.8,2.1,5.8,3.3c1.6,0.9,3.1,2,4.6,3.2l-2,2.2h9.9v6.3H71.8v6.7H81v6.2h-9.2V96L82.9,96z
	 M55.8,62.6c-1.2,2.9-2.5,5.7-4,8.4v32.5h-6.2v-23c-0.9,1.2-2,2.4-3.1,3.4c-0.4-1.2-0.9-2.4-1.5-3.5c-0.6-1.2-1.2-2.3-1.8-3.4
	c2.3-2.2,4.2-4.7,5.9-7.4c1.8-2.9,3.4-5.9,4.6-9.1L55.8,62.6z M89,84.6v-6.2h11.6v-2.5H88.2v-6.3h12.4v-3.9h6.5v3.9h9.5v6.3h-9.5
	v2.5h8.7v6.2h-8.7v3.3c1.4,0.5,2.8,1.2,4,2c1.2,0.7,2.3,1.4,3.4,2.2c0.5,0.3,0.9,0.7,1.3,1.1v7.8c0,0-0.5-0.4-1.3-1.2
	c-0.9-0.8-2-1.7-3.3-2.7c-1.3-1-2.7-2-4.1-2.8v1.4c0.1,1.9-0.4,3.7-1.5,5.2c-0.9,1.1-2.1,1.8-3.4,2.2c-1.3,0.3-2.7,0.5-4.1,0.5
	c-1.7,0-3.4-0.3-4.9-0.9c-1.4-0.5-2.7-1.5-3.6-2.7c-0.9-1.3-1.4-2.8-1.4-4.4c-0.1-1.8,0.5-3.6,1.7-5c1.2-1.3,2.8-2.3,4.6-2.7
	c2-0.6,4-0.9,6.1-0.9v-2.4H89z M98.2,97.6c0.6,0,1.2-0.2,1.7-0.5c0.5-0.4,0.8-0.9,0.8-1.5v-2.9c-1.5-0.3-3.1-0.1-4.5,0.5
	c-1.1,0.6-1.7,1.2-1.8,1.9c0,0.7,0.3,1.3,0.7,1.8C95.6,97.3,96.6,97.6,98.2,97.6z M125.5,67.3h6.7c0,0.1,0,0.7-0.1,2
	s-0.1,2.9-0.2,4.9c-0.1,2-0.1,4.1-0.2,6.3s-0.1,4.2-0.1,6.1c0,1.9,0.1,3.9,0.3,5.8c0.2,1.5,0.7,2.3,1.5,2.4c1-0.1,2-0.4,2.9-1
	c1-0.6,1.9-1.2,2.8-1.9c0.8-0.6,1.2-0.9,1.3-1v7.5c-0.3,0.2-0.7,0.5-1,0.8c-0.8,0.6-1.7,1.2-2.6,1.6c-1.3,0.6-2.6,1-4,1.1
	c-2.4,0.3-4.7-1-5.8-3.2c-1.3-2.3-1.9-5.8-1.9-10.6c0-1.9,0-4.1,0-6.5c0-2.4,0-4.7,0.1-6.9c0-2.2,0.1-4,0.1-5.4
	C125.5,68.1,125.5,67.3,125.5,67.3z M143.6,67.3h7c0,0,0.3,1.2,0.9,3.7c0.7,3.2,1.3,6.5,1.7,9.8c0.6,5.9,0.9,11.8,0.7,17.7h-6.8
	c0-0.1,0-0.4,0-1.1c0-0.7,0-2.2,0-4.8c0-2.5-0.2-5.3-0.4-8.4s-0.7-6-1.1-9C145.1,72.6,144.5,69.9,143.6,67.3z M172.1,92.6
	c0.7,0,1.3-0.6,1.7-1.8c0.5-1.5,0.9-3.1,1.1-4.7c0.3-1.9,0.5-3.9,0.6-5.9s0.2-3.9,0.2-5.6c-1.3,0.5-2.5,1.4-3.3,2.6
	c-0.9,1.3-1.6,2.8-2,4.3c-0.4,1.5-0.7,3-0.8,4.5c-0.2,1.7,0,3.4,0.6,5C170.7,92,171.3,92.5,172.1,92.6L172.1,92.6z M188.1,83.5
	c0-2.1-0.6-4.2-1.6-6.1c-0.9-1.6-2.6-2.7-4.4-2.9c-0.1,2.9-0.3,5.9-0.6,8.9c-0.2,2.8-0.8,5.6-1.7,8.3c-0.7,2.2-1.7,4.2-3.1,6
	c-1.2,1.4-2.9,2.2-4.8,2.1c-1.4-0.1-2.8-0.6-4-1.4c-1.5-1.1-2.6-2.6-3.2-4.3c-1-2.6-1.5-5.4-1.4-8.1c0-3.2,0.7-6.3,2-9.1
	c1.2-2.6,2.9-4.9,5.2-6.6c2.1-1.7,4.7-2.7,7.3-2.9c2.8-0.2,5.6,0.2,8.1,1.3c2.5,1.1,4.7,3.1,6.1,5.5c1.7,3,2.6,6.4,2.7,9.9
	c0.1,3-0.3,6-1.3,8.8c-0.8,2.2-2,4.1-3.7,5.7c-1.4,1.3-3.1,2.3-4.9,3c-1.6,0.6-3.2,0.9-4.9,0.9v-6.8c2.4,0,4.6-1.2,6-3.2
	C187.4,90.3,188.1,87.4,188.1,83.5z M221.6,73.7c-0.1,1.9-0.2,3.6-0.4,5h17.1c0,0.9-0.1,1.9-0.2,2.8c-0.2,4.5-0.7,9-1.4,13.4
	c-0.5,2.9-1.3,4.9-2.2,5.9c-0.6,0.7-1.4,1.3-2.3,1.7c-1,0.4-2,0.6-3.1,0.7c-1.1,0.1-2.5,0.1-4.2,0.1c-1.6,0-2.8,0-3.6,0
	c-0.1-1.1-0.3-2.2-0.7-3.3c-0.4-1.1-0.9-2.2-1.6-3.2c2,0.2,4.6,0.3,7.6,0.3c0.4,0,0.9,0,1.3-0.1c0.3-0.1,0.7-0.2,0.9-0.5
	c1.1-0.9,1.9-4.8,2.4-11.6h-11c-0.9,3.9-2.5,7.6-4.9,10.9c-2.6,3.4-5.9,6.2-9.7,8.1c-0.6-1.1-1.2-2.1-2-3c-0.8-1-1.6-1.8-2.6-2.6
	c3.3-1.4,6.2-3.7,8.4-6.5c1.8-2.4,3.1-5.1,3.8-8.1c0.7-3.3,1.1-6.7,1.2-10.1h-12.4v-6.3h16.8v-7.2h6.8v7.2H243v6.3H221.6z
	 M256.3,77.7h-6.6V71h7c0.1-1.6,0.2-3.3,0.4-5.2h6.7c-0.1,1.9-0.2,3.6-0.3,5.2h9.8v6.8H263c-0.1,0.7-0.1,1.3-0.1,2
	c0,0.7-0.1,1.3-0.1,2h7.3v6.6h-7.4c-0.3,2-0.1,4.1,0.6,6.1c0.6,1.5,1.9,2.2,4,2.2c1.2,0.1,2.4-0.2,3.4-0.8c0.7-0.5,1.2-1.1,1.5-1.9
	c0.3-0.7,0.5-1.5,0.5-2.4c0-1-0.1-2.1-0.3-3.1c-0.2-1.1-0.5-2.6-0.9-4.3h6.7c0.7,2.8,1.2,5.6,1.2,8.4c0,1-0.2,2.1-0.4,3.1
	c-0.7,2.9-2.7,5.4-5.4,6.7c-2,0.9-4.2,1.3-6.4,1.3c-3.1,0-5.6-0.8-7.3-2.3c-1.7-1.5-2.9-3.6-3.3-5.8c-0.5-2.4-0.7-4.8-0.5-7.3h-6.4
	v-6.6h6.5c0-0.6,0-1.3,0-2S256.3,78.4,256.3,77.7z M291.7,84.8l-1.4-18.1l-0.3-8.5h9.5l-0.3,8.5l-1.4,18.1L291.7,84.8z M294.7,100
	c-1.5,0-3-0.6-4-1.7c-1.1-1.1-1.6-2.7-1.6-4.2c0-1.6,0.5-3.1,1.6-4.2c1-1.1,2.5-1.7,4-1.7c1.5,0,3,0.6,4,1.7
	c1.1,1.1,1.6,2.6,1.6,4.2c0,1.6-0.5,3.1-1.6,4.2C297.7,99.4,296.3,100.1,294.7,100z M315.4,84.8L314,66.8l-0.3-8.5h9.5l-0.3,8.5
	l-1.4,18.1L315.4,84.8z M318.4,100c-1.5,0-3-0.6-4-1.7c-1.1-1.1-1.6-2.7-1.6-4.2c0-1.6,0.5-3.1,1.6-4.2c1-1.1,2.5-1.7,4-1.7
	c1.5,0,3,0.6,4,1.7c1.1,1.1,1.6,2.6,1.6,4.2c0,1.6-0.5,3.1-1.6,4.2C321.4,99.4,319.9,100.1,318.4,100z"/>
</svg>
