<?xml version="1.0" encoding="utf-8"?>
<!-- Generator: Adobe Illustrator 26.3.1, SVG Export Plug-In . SVG Version: 6.00 Build 0)  -->
<svg version="1.1" id="レイヤー_1" xmlns="http://www.w3.org/2000/svg" xmlns:xlink="http://www.w3.org/1999/xlink" x="0px"
	 y="0px" viewBox="0 0 608 106" style="enable-background:new 0 0 608 106;" xml:space="preserve">
<style type="text/css">
	.st0{clip-path:url(#SVGID_00000070094234722530685280000012966470279430044603_);}
	.st1{fill:#E41F1B;}
	.st2{fill:#ABCD03;}
	.st3{clip-path:url(#SVGID_00000132766231663719058250000015093842166050781568_);}
	.st4{fill:#1E1210;}
	.st5{fill:#FFFFFF;}
	.st6{clip-path:url(#SVGID_00000173153902415150235670000016048080800955357850_);}
	.st7{fill:#5A5A5D;}
	.st8{fill:#EB7A1D;}
	.st9{fill:#84B231;}
</style>
<g id="service_logo" transform="translate(-330 -4224.732)">
	<g id="グループ_2867" transform="translate(330 4224.732)">
		<rect id="長方形_1440" y="0" width="202.7" height="106"/>
		<g id="グループ_1738" transform="translate(0)">
			<g>
				<defs>
					<rect id="SVGID_1_" y="0" width="202.7" height="106"/>
				</defs>
				<clipPath id="SVGID_00000130615159820324630720000013025109147338703791_">
					<use xlink:href="#SVGID_1_"  style="overflow:visible;"/>
				</clipPath>
				<g id="グループ_1737" style="clip-path:url(#SVGID_00000130615159820324630720000013025109147338703791_);">
					<path id="パス_12217" class="st1" d="M145.5,71c2.2,0.2,4.4,0.4,6.6,0.5V32.5h-6.6V71z M39.1,56.5l-8.6-24.1h-6.3V75
						c2.2-0.3,4.4-0.6,6.6-0.9V51l7.7,22.2c2.4-0.3,4.8-0.5,7.2-0.8V32.5h-6.6V56.5z M52,71.7c6.1-0.6,12.2-1,18.4-1.4v-6.6
						c-3.9,0.2-7.9,0.5-11.8,0.8v-9.9c2.6,0,5.9-0.1,8.9-0.1V48c-2.4,0-6.2,0-8.9,0.1v-9h11.8v-6.6H52V71.7z M74.7,39.1h6.9v30.7
						c2.2-0.1,4.4-0.2,6.6-0.2V39.1h6.9v-6.6H74.7V39.1z M99.4,69.4h6.6V54.2h9v-6.6h-9v-8.6h11.9v-6.6H99.4L99.4,69.4z M181.3,32.5
						h-7.3l-4.8,11.2L165,32.5h-7.2l7.7,20l-8.4,19.6c2.3,0.2,4.6,0.5,7,0.7l4.9-11.4l4.8,12.6c2.5,0.3,5,0.7,7.5,1h0l-8.6-22.4
						L181.3,32.5z M128.7,32.5h-6.6v37.3c6,0.2,12,0.5,18,0.9v-6.6c-3.8-0.3-7.6-0.5-11.4-0.6L128.7,32.5z"/>
				</g>
			</g>
		</g>
	</g>
	<g id="グループ_2868" transform="translate(552.486 4224.732)">
		<rect id="長方形_1442" x="0.1" y="0" class="st2" width="168.8" height="106"/>
		<g id="グループ_1741" transform="translate(0 0)">
			<g>
				<defs>
					<rect id="SVGID_00000166674205019035041810000001905256577785433227_" x="0.1" y="0" width="168.8" height="106"/>
				</defs>
				<clipPath id="SVGID_00000078723912091261352380000000348855344350369970_">
					<use xlink:href="#SVGID_00000166674205019035041810000001905256577785433227_"  style="overflow:visible;"/>
				</clipPath>
				<g id="グループ_1740" style="clip-path:url(#SVGID_00000078723912091261352380000000348855344350369970_);">
					<path id="パス_12218" class="st4" d="M49.6,45.8h-5.2c-0.9,0-1.9,0.1-2.7,0.5v-11h-8.1V69h8.1V55.4c0-1.2,1-2.2,2.2-2.2h4.7
						c1.2,0,2.2,1,2.2,2.2c0,0,0,0,0,0V69h8.1V54.4C58.8,48.2,54.7,45.8,49.6,45.8 M127.3,45.8v13.6c0,1.2-1,2.2-2.2,2.2
						c0,0,0,0,0,0h-4.7c-1.2,0-2.2-1-2.2-2.2c0,0,0,0,0,0V45.8h-8.1v14.3c0,5.8,3.7,8.9,9.2,8.9h7.9v0c5.1,0,8.1-3.6,8.1-8.9V45.8
						H127.3z M81.7,59.4c0,1.2-1,2.2-2.2,2.2c0,0,0,0,0,0h-4.7c-1.2,0-2.2-1-2.2-2.2c0,0,0,0,0,0V45.8h-8.1v14.3
						c0,5.8,3.7,8.9,9.2,8.9h7.9v0c5.1,0,8.1-3.6,8.1-8.9V45.8h-8.1V59.4z M95.9,69h8.1V35.3h-8.1V69z"/>
				</g>
			</g>
		</g>
	</g>
	<g id="グループ_2869" transform="translate(742.206 4224.732)">
		<path id="パス_15287" class="st5" d="M110.4,106c-15.2-0.1-29.4-7.5-38.1-20c-21.5,14.2-50.3,8.1-64.4-13.5S-0.3,21.9,21.2,7.7
			C27.4,3.6,34.5,1,41.8,0.3C43.5,0.1,45.1,0,46.8,0c15.1,0,29.3,7.4,38,19.8c16.8-11.2,38.8-10.2,54.6,2.4
			C150.2,8.4,170,6,183.7,16.9c13.7,10.9,16.1,30.9,5.3,44.7c-8,10.3-21.4,14.5-33.9,10.8c-5.4,18.2-21.1,31.4-39.9,33.4
			C113.7,105.9,112,106,110.4,106"/>
		<g id="グループ_1747" transform="translate(0 0)">
			<g>
				<defs>
					<rect id="SVGID_00000166647684201828327410000009283958272039462311_" x="0.2" y="0" width="195.6" height="106"/>
				</defs>
				<clipPath id="SVGID_00000028291610042485063960000016146131448198044321_">
					<use xlink:href="#SVGID_00000166647684201828327410000009283958272039462311_"  style="overflow:visible;"/>
				</clipPath>
				
					<g id="グループ_1746" transform="translate(0 0)" style="clip-path:url(#SVGID_00000028291610042485063960000016146131448198044321_);">
					<path id="パス_12220" class="st7" d="M110.5,67.5v1.7h7.6c0,0,0.3,4.9-6.7,5.7v1.8c6.1-0.6,8.6-3.4,8.6-9.2H110.5z"/>
					<rect id="長方形_1446" x="122" y="67.3" class="st7" width="9.5" height="1.7"/>
					<path id="パス_12221" class="st7" d="M121.9,70.3V72h7.7c0,0-0.1,3-7,3v1.7c5.3-0.1,8.9-1.2,9-6.4L121.9,70.3z"/>
					<path id="パス_12222" class="st7" d="M133.1,67.3V69h6.1c0,0,0,5.1-6.4,5.9v1.7c2.3-0.2,4.5-1.3,6.1-3
						c0.9,1.4,2.3,2.5,3.9,2.9v-1.9c-1.2-0.5-2.1-1.3-2.8-2.4c0.7-1.6,1.1-3.3,1.1-5L133.1,67.3z"/>
					<path id="パス_12223" class="st7" d="M119.3,65c-1,0-1.8,0.8-1.8,1.8c0,1,0.8,1.8,1.7,1.8s1.8-0.8,1.8-1.8l0,0
						C121.1,65.8,120.3,65,119.3,65C119.3,65,119.3,65,119.3,65 M119.3,67.4c-0.4,0-0.6-0.3-0.6-0.6s0.3-0.6,0.6-0.6
						c0.4,0,0.6,0.3,0.6,0.6S119.7,67.4,119.3,67.4L119.3,67.4z"/>
					<path id="パス_12224" class="st7" d="M93.6,67.3c-0.2,1.3-0.3,2.5-0.5,3.4c0.8,0,1.6,0.2,2.4,0.4c0-1.1,0-1.8-0.1-3h1.7
						c0,0.8,0.1,1.6,0.1,2.4c0,0.4,0,0.8,0,1.1c0.3,0.1,0.6,0.3,1,0.5l0,1.9c-0.4-0.2-0.8-0.5-1.2-0.7c-0.2,1.9-1.6,3.4-3.5,3.7
						v-1.8c1.1-0.3,1.9-1.3,1.9-2.5c-0.8-0.2-1.7-0.4-2.5-0.4c-0.6,3-1,4.4-2.8,4.4c-1.3-0.1-2.2-1.1-2.2-2.4c0,0,0-0.1,0-0.1
						c0-2.3,1.4-3.3,3.6-3.6c0.1-0.5,0.2-1.2,0.2-1.7l-3.3,0.1v-1.7L93.6,67.3z M89.4,74.1c0,0.7,0.3,0.9,0.5,0.9
						c0.5,0,0.7-0.5,1.1-2.7C90.1,72.4,89.4,73.2,89.4,74.1z"/>
					<path id="パス_12225" class="st7" d="M99.6,71.3c2-0.7,4.3-1.6,6.1-2.4c-1.8,0.1-3.3,0.1-5.5,0.2v-1.7l8.4-0.1v1.5
						c-1.3,0.7-2.1,1-3.4,1.5c0.3,0,0.5-0.1,0.8-0.1c2.4,0,3.5,1.5,3.5,2.9c0,2.1-1.8,3.6-5.2,3.6c-1.5,0-3.5-0.5-3.5-2.4
						c0-1.5,1.6-2,2.8-2c1.5-0.1,2.9,0.9,3.4,2.3c0.5-0.3,0.9-0.9,0.8-1.5c0-1.1-0.9-1.7-2.7-1.7c-1.9,0.1-3.8,0.6-5.4,1.6V71.3z
						 M103.3,73.9c-0.8,0-1,0.4-1,0.6c0,0.6,0.7,0.9,1.9,0.9c0.4,0,0.7,0,1.1-0.1C105.1,74.4,104.2,73.8,103.3,73.9"/>
					<path id="パス_12226" class="st7" d="M110.4,106c-15.2-0.1-29.4-7.5-38.1-20c-21.5,14.2-50.3,8.1-64.4-13.5
						S-0.3,21.9,21.2,7.7C27.4,3.6,34.5,1,41.8,0.3C43.5,0.1,45.1,0,46.8,0c15.1,0,29.3,7.4,38,19.8c16.8-11.2,38.8-10.2,54.6,2.4
						C150.2,8.4,170,6,183.7,16.9s16.1,30.9,5.3,44.7c-8,10.3-21.4,14.5-33.9,10.8c-5.4,18.2-21.1,31.4-39.9,33.4
						C113.7,105.9,112,106,110.4,106 M73.6,78.9l1.4,2.3c12.2,19.7,37.9,25.7,57.4,13.5c9.4-5.9,16.1-15.3,18.6-26.1l0.7-2.8
						l2.7,1.1c13.7,5.5,29.2-1.3,34.6-15s-1.3-29.4-14.9-34.8c-3.1-1.2-6.4-1.9-9.8-1.9c-0.9,0-1.9,0.1-2.8,0.2
						c-8,0.8-15.1,5.2-19.5,12l-1.6,2.4l-2.2-1.9c-7.6-6.9-17.5-10.6-27.7-10.6c-1.5,0-2.9,0.1-4.4,0.2c-7.4,0.8-14.5,3.6-20.5,8
						l-2.2,1.6L82,24.7C69.8,5,44.1-0.9,24.7,11.4S-0.7,49.4,11.5,69C19,81.3,32.3,88.7,46.7,88.7c1.5,0,2.9-0.1,4.4-0.2
						c7.4-0.8,14.4-3.5,20.4-8L73.6,78.9z"/>
					<path id="パス_12227" class="st8" d="M38.2,37c-2.3,0-4.6,0.8-6.3,2.4c-4-3.5-10.2-3.1-13.7,1c-1.5,1.8-2.4,4.1-2.4,6.4v12.5
						c0,1.9,1.5,3.4,3.4,3.4s3.4-1.5,3.4-3.4V46.8c0-1.7,1.3-3,3-3c1.6,0,3,1.3,3,3c0,0,0,0,0,0v12.5c0,1.9,1.5,3.4,3.4,3.4
						s3.4-1.5,3.4-3.4V46.8c0-1.7,1.3-3,3-3c1.6,0,3,1.3,3,3c0,0,0,0,0,0v12.5c0,1.9,1.5,3.4,3.4,3.4s3.4-1.5,3.4-3.4V46.8
						C47.9,41.4,43.6,37,38.2,37"/>
					<path id="パス_12228" class="st9" d="M127,62.6c-5.4,0-9.7-4.4-9.7-9.8V40.3c0-1.9,1.5-3.4,3.4-3.4c1.9,0,3.4,1.5,3.4,3.4
						v12.5c-0.1,1.7,1.2,3,2.9,3.1c1.6,0.1,3-1.2,3.1-2.9c0,0,0,0,0-0.1V40.3c0-1.9,1.5-3.4,3.4-3.4c1.9,0,3.4,1.5,3.4,3.4l0,0v12.5
						C136.7,58.2,132.4,62.6,127,62.6"/>
					<path id="パス_12229" class="st8" d="M56.7,62.6c-1.9,0-3.4-1.5-3.4-3.4V40.3c0-1.9,1.5-3.4,3.4-3.4c1.9,0,3.4,1.5,3.4,3.4
						v18.9C60,61.1,58.5,62.6,56.7,62.6C56.7,62.6,56.7,62.6,56.7,62.6L56.7,62.6z"/>
					<path id="パス_12230" class="st8" d="M68.8,62.6c-1.9,0-3.4-1.5-3.4-3.4V29.6c0-1.9,1.5-3.4,3.4-3.4s3.4,1.5,3.4,3.4v29.6
						C72.1,61.1,70.6,62.6,68.8,62.6C68.8,62.6,68.8,62.6,68.8,62.6L68.8,62.6z"/>
					<path id="パス_12231" class="st9" d="M109.5,62.6c-1.9,0-3.4-1.5-3.4-3.4V29.6c0-1.9,1.5-3.4,3.3-3.4c1.8,0,3.3,1.4,3.4,3.3
						c0,0,0,0.1,0,0.1v29.6C112.9,61.1,111.4,62.6,109.5,62.6C109.5,62.6,109.5,62.6,109.5,62.6z"/>
					<path id="パス_12232" class="st9" d="M80.9,74.6c-1.9,0-3.4-1.5-3.4-3.4V49.5C77.5,42.6,83.1,37,90,37
						c6.9,0,12.5,5.6,12.5,12.5c0,6.9-5.6,12.6-12.5,12.6c0,0,0,0,0,0h0c-1.9,0-3.4-1.5-3.4-3.4s1.5-3.4,3.4-3.4l0,0
						c3.2,0,5.7-2.6,5.7-5.8c0-3.2-2.6-5.8-5.7-5.8c-3.2,0-5.7,2.6-5.7,5.8l0,0v21.7C84.2,73.1,82.7,74.6,80.9,74.6"/>
					<path id="パス_12233" class="st9" d="M154.1,49.2c-1.4-1.6-3.4-2.7-5.5-2.8c-0.7-0.1-1.3-0.7-1.2-1.4
						c0.1-0.7,0.7-1.3,1.4-1.2c0.4,0,0.7,0.2,1,0.6c1.1,1.5,3.2,1.9,4.7,0.8c1.5-1.1,1.9-3.2,0.8-4.7c-2.6-3.7-7.6-4.5-11.2-1.9
						c-3.6,2.6-4.5,7.7-1.9,11.3c1.4,2,3.5,3.2,5.9,3.4c0.3,0,0.7,0.2,0.9,0.5c0.5,0.6,0.4,1.4-0.2,1.9c-0.5,0.4-1.3,0.4-1.8-0.1
						c0,0-0.1-0.1-0.1-0.1c-1.1-1.5-3.3-1.7-4.7-0.6c-1.4,1.1-1.7,3-0.8,4.5c1.4,2,3.5,3.2,5.9,3.4c0.2,0,0.4,0,0.7,0
						c4.4,0,8.1-3.6,8.1-8.1C156,52.6,155.4,50.7,154.1,49.2L154.1,49.2z"/>
					<path id="パス_12234" class="st8" d="M53.3,24.2v12.1l10.4-6.1L53.3,24.2z"/>
				</g>
			</g>
		</g>
	</g>
</g>
</svg>
