<?xml version="1.0" encoding="utf-8"?>
<!-- Generator: Adobe Illustrator 26.4.1, SVG Export Plug-In . SVG Version: 6.00 Build 0)  -->
<svg version="1.1" id="_レイヤー_2" xmlns="http://www.w3.org/2000/svg" xmlns:xlink="http://www.w3.org/1999/xlink" x="0px"
	 y="0px" viewBox="0 0 48.9 51" style="enable-background:new 0 0 48.9 51;" xml:space="preserve">
<style type="text/css">
	.st0{fill:none;stroke:#FFFFFF;stroke-width:2.27;stroke-linecap:round;}
</style>
<g id="_レイヤー_1-2">
	<g>
		<line class="st0" x1="1.1" y1="42.8" x2="10.5" y2="33.5"/>
		<line class="st0" x1="3.3" y1="47.5" x2="10.7" y2="40.1"/>
		<line class="st0" x1="8.1" y1="49.8" x2="17.5" y2="40.5"/>
		<g>
			<path class="st0" d="M11,13.3c-4.7-0.7-9,2.5-9.7,7.2c-0.7,4.7,2.5,9,7.2,9.7"/>
			<path class="st0" d="M26.6,6.1c-2-4.3-7.1-6.1-11.4-4.1S9.2,9,11.2,13.3"/>
			<path class="st0" d="M38,33c4.7,0.7,9-2.5,9.7-7.2c0.7-4.7-2.5-9-7.2-9.7"/>
			<path class="st0" d="M22.3,40.2c2,4.3,7.1,6.1,11.4,4.1c4.3-2,6.1-7.1,4.1-11.4"/>
			<path class="st0" d="M40.6,15.8c2.7-3.9,1.8-9.2-2.1-11.9S29.3,2.2,26.6,6"/>
		</g>
	</g>
</g>
</svg>
