<?xml version="1.0" encoding="utf-8"?>
<!-- Generator: Adobe Illustrator 26.4.1, SVG Export Plug-In . SVG Version: 6.00 Build 0)  -->
<svg version="1.1" id="_レイヤー_2" xmlns="http://www.w3.org/2000/svg" xmlns:xlink="http://www.w3.org/1999/xlink" x="0px"
	 y="0px" viewBox="0 0 28.2 29.4" style="enable-background:new 0 0 28.2 29.4;" xml:space="preserve">
<style type="text/css">
	.st0{fill:none;stroke:#FFFFFF;stroke-width:1.31;stroke-linecap:round;}
</style>
<g id="_レイヤー_1-2">
	<g>
		<line class="st0" x1="27.5" y1="24.7" x2="22.1" y2="19.3"/>
		<line class="st0" x1="26.3" y1="27.4" x2="22" y2="23.1"/>
		<line class="st0" x1="23.5" y1="28.7" x2="18.1" y2="23.3"/>
		<g>
			<path class="st0" d="M21.8,7.7c2.7-0.4,5.2,1.5,5.6,4.1c0.4,2.7-1.5,5.2-4.1,5.6"/>
			<path class="st0" d="M12.8,3.5C14,1,16.9,0,19.4,1.1c2.5,1.2,3.5,4.1,2.4,6.6"/>
			<path class="st0" d="M6.3,19c-2.7,0.4-5.2-1.5-5.6-4.1c-0.4-2.7,1.5-5.2,4.1-5.6"/>
			<path class="st0" d="M15.3,23.2c-1.2,2.5-4.1,3.5-6.6,2.4S5.2,21.5,6.4,19"/>
			<path class="st0" d="M4.8,9.1C3.2,6.9,3.7,3.8,6,2.3s5.3-1,6.8,1.2"/>
		</g>
	</g>
</g>
</svg>
