<svg xmlns="http://www.w3.org/2000/svg" width="342.305" height="130.235" viewBox="0 0 342.305 130.235">
  <g id="グループ_3336" data-name="グループ 3336" transform="translate(0 5.915)">
    <g id="グループ_3965" data-name="グループ 3965">
      <g id="グループ_3964" data-name="グループ 3964" transform="translate(0 -5.915)">
        <path id="パス_16978" data-name="パス 16978" d="M8.714,126.533l3.417-.3L11.4,134.84l-3.5.307Zm20.332-15.149-.085,3.125-7.219.632.342-3.832-8.714.762-.342,3.832-11.49,1.006-.214,2.539,11.49-1.006-.427,5.249-11.149.975L0,138.359l19.905-1.741.939-11.145,6.621-.579-1.025,11.153,7.688-.673,1.282-13.7L21.1,122.929l.427-5.249,7.347-.643-.086,3.382,7.347-.643.256-9.035Z" transform="translate(0 -89.886)" fill="#fff"/>
        <path id="パス_16979" data-name="パス 16979" d="M135.709,93.556l-8.7,15.473,3.727-.326-1.112,12.913,10.985-.961,1.7-19.372,4.9-8.733Z" transform="translate(-86.686 -77.469)" fill="#fff"/>
        <path id="パス_16980" data-name="パス 16980" d="M189.412,108.292l23.278-2.036-.2,2.371-22.755,1.991-.327,3.952,22.755-1.991-.915,11.327,12.031-1.052.916-11.327,3.923-.343.327-3.952-3.923.343.2-2.371,3.923-.343.327-3.952-39.232,3.433Z" transform="translate(-129.274 -83.174)" fill="#fff"/>
        <path id="パス_16981" data-name="パス 16981" d="M198.475,147.765l2.485,6.583,10.462-.915-2.485-6.583Z" transform="translate(-135.459 -114.53)" fill="#fff"/>
        <path id="パス_16982" data-name="パス 16982" d="M207.306,63.1l12.554-1.1,7.716-.675L231.368,61l1.373-15.944-2.419.211-9.089.8-12.554,1.1-6.866.6-4.643.406L195.8,64.111l3.269-.286Zm1.046-11.992,12.554-1.1-.2,1.979-12.554,1.1Zm-.523,5.931,12.554-1.1-.2,2.109-12.554,1.1Z" transform="translate(-133.632 -45.055)" fill="#fff"/>
        <path id="パス_16983" data-name="パス 16983" d="M150.963,55.5l-12.031,1.053-7.389,10.455,12.031-1.053Z" transform="translate(-89.778 -52.187)" fill="#fff"/>
        <path id="パス_16984" data-name="パス 16984" d="M351.932,92.671l-13.583,1.188L343.133,89l17.513-1.532.214-2.539-15.035,1.315,1.922-1.962-8.671.759L337.153,87l-9.44.826-.214,2.539,6.92-.605-7.475,7.617,16.061-1.405-.128,1.421-13.925,1.816-.983,11.918,30.754-2.691.214-2.539L336.9,107.826l.6-7.229,5.125-.662-.342,3.661,8.714-.762.385-4.007,10.209-1.32.214-2.539-10.209,1.32Z" transform="translate(-223.139 -71.826)" fill="#fff"/>
        <path id="パス_16985" data-name="パス 16985" d="M125.973,235.963l-11.768,1.03-.429,4.635-5.394.472-.306,3.7,5.394-.472-1.042,12.227-5.455,1.09-.307,3.7,5.393-1.085-.8,9.08-3.923.343-.306,3.7,3.922-.343,11.094-.971.674-.059,1.226-14.2,3.555-.74.307-3.7-3.494.735.92-10.807,3.432-.3.307-3.7-3.432.3Z" transform="translate(-74.92 -170.357)" fill="#fff"/>
        <path id="パス_16986" data-name="パス 16986" d="M188.012,233.875,203.7,232.5l-2.881,32.615,12.258-1.073,2.881-32.614,4.658-.407.307-3.7-32.608,2.853Z" transform="translate(-132.056 -164.285)" fill="#fff"/>
        <path id="パス_16987" data-name="パス 16987" d="M318.459,265.9l-8.809.771-.56,1.771-7.207.63-.2,2.38,6.607-.578-3,9.192,20.821-1.822-.721,8.231-20.34,1.779-.2,2.38,29.149-2.55,1.121-12.951-20.26,1.773,2.242-6.8,19.9-1.741.2-2.38-19.3,1.688Z" transform="translate(-211.895 -191.383)" fill="#fff"/>
        <path id="パス_16988" data-name="パス 16988" d="M459.036,173.469l5.874-19.882,14.3-1.252.307-3.7-13.494,1.18,5.265-17.822,7.05-.617-9.907-18.083-20.949,20.783,7.228-.632-11.707,41.431-15.279,1.337-.306,3.7,53.018-4.638.306-3.7Z" transform="translate(-300.212 -84.195)" fill="#fff100"/>
        <path id="パス_16989" data-name="パス 16989" d="M687.156,232.442l-.36,3.956-1.281.112.36-3.956-1.722.151-.36,3.956-1.322.115.321-3.952-5.245.459-.32,2.951-10.73.939-.2,2.38,10.651-.932-2.122,18.444,8.168-.715,2.122-18.444,3.323-.291.12-1.372-.04,0,.36-3.956Z" transform="translate(-467.991 -167.779)" fill="#fff"/>
        <path id="パス_16990" data-name="パス 16990" d="M619.746,264.4l8.168-.715,1.762-20.374-8.168.715Z" transform="translate(-435.297 -175.52)" fill="#fff"/>
        <path id="パス_16991" data-name="パス 16991" d="M781.052,223.774l-26.427,2.312-.2,2.38,16.857-1.475-2.923,6.982-17.1,1.5-.2,2.38,23.944-2.095-.8,9.48-21.581,1.888-.2,2.38,30.35-2.655,1.241-14.243-6.847.6Z" transform="translate(-527.53 -161.796)" fill="#fff"/>
        <path id="パス_16992" data-name="パス 16992" d="M904.476,204.969l-10.389.909-1.058,20.778,8.918-.78Z" transform="translate(-627.245 -148.588)" fill="#fff"/>
      </g>
      <path id="パス_16993" data-name="パス 16993" d="M888.4,291.064l10.389-.909.322-3.476-10.389.909Z" transform="translate(-623.99 -208.482)" fill="#fff"/>
    </g>
    <path id="パス_16994" data-name="パス 16994" d="M284.564,0l-5.422,54.575L316.295,89.79,276.717,78.983l-1.693,17.041L51,113.191l.185,2.129L276.092,98.077l.884-.077,1.589-15.993,45.927,12.7L281.382,53.644,286.691.211Z" transform="translate(17.813 9)" fill="#fff"/>
  </g>
</svg>
