<?xml version="1.0" encoding="utf-8"?>
<!-- Generator: Adobe Illustrator 26.4.1, SVG Export Plug-In . SVG Version: 6.00 Build 0)  -->
<svg version="1.1" id="レイヤー_1" xmlns="http://www.w3.org/2000/svg" xmlns:xlink="http://www.w3.org/1999/xlink" x="0px"
	 y="0px" viewBox="0 0 640 44" style="enable-background:new 0 0 640 44;" xml:space="preserve">
<style type="text/css">
	.st0{fill:#064B9E;}
</style>
<g id="sp_navi_phone" transform="translate(24862 -1149.948)">
	<g id="グループ_3324" transform="translate(-24862 1139.643)">
		<g id="グループ_2209" transform="translate(0 10.305)">
			<g id="グループ_1653" transform="translate(0 0)">
				<path id="パス_11667" class="st0" d="M0,33.9h54.8V0H0V33.9z M31.3,8.7c0-0.1,0-0.2,0-0.4c0.1-4.2,3.5-7.5,7.6-7.4
					c0,0,0,0,0,0h3.3v6.3h-3.3c0,0-0.1,0-0.2,0c-0.9,0-1.6,0.8-1.6,1.7v3.3h-5.8V8.7z M19.2,32.8h-6.8V8.7c0-0.1,0-0.2,0-0.4
					c0.1-4.2,3.5-7.5,7.6-7.4c0,0,0,0,0,0h8v6.3h-6.2c-1.3-0.1-2.5,0.9-2.6,2.3v4.2h17.9V20H19.2V32.8z M42.2,32.8h-3.3
					c-4.1,0.1-7.5-3.2-7.6-7.4c0,0,0,0,0,0c0-0.1,0-0.2,0-0.4v-3.5l5.8,0v3.3c0,0.9,0.7,1.7,1.6,1.7c0,0,0,0,0,0c0.1,0,0.1,0,0.2,0
					h3.3L42.2,32.8z"/>
				<path id="パス_11668" class="st0" d="M8.3,36.1c0.1,1.8-0.5,3.6-1.5,5.1c-1.2,1.4-2.9,2.4-4.7,2.7l-0.6-1.4
					c4.1-0.7,4.8-2.8,5.1-4.8H0.8v-1.5H8.3z"/>
				<path id="パス_11669" class="st0" d="M11.4,41H9.8v-5.2h1.6V41z M15.8,39.5c0,3.6-2.8,4-5,4.3l-0.6-1.5c1.1,0,2.2-0.3,3.2-0.8
					c0.6-0.4,0.9-1.1,0.8-1.9v-4.1h1.6L15.8,39.5z"/>
				<rect id="長方形_1363" x="17.4" y="38.8" class="st0" width="8.2" height="1.6"/>
				<path id="パス_11670" class="st0" d="M33.8,36.2v7h-7v-1.5h5.4v-4h-5.3v-1.5L33.8,36.2z"/>
				<rect id="長方形_1364" x="35.5" y="38.8" class="st0" width="8.2" height="1.6"/>
				<path id="パス_11671" class="st0" d="M47.4,38.1c0,1-0.1,2.1-0.3,3.1c-0.2,1-0.7,2-1.4,2.7l-1.2-1.2c0.6-0.6,1-1.3,1.1-2.1
					c0.1-0.8,0.2-1.5,0.2-2.3v-2.4h1.5L47.4,38.1z M49.9,41.8c0.6-0.2,1.1-0.6,1.4-1.2c0.3-0.6,0.5-1.3,0.6-2l1.4,0.7
					c-0.2,1.2-0.7,2.3-1.6,3.2c-0.9,0.8-2.1,1.3-3.3,1.3v-8.1h1.5L49.9,41.8z"/>
			</g>
		</g>
		<path id="パス_36461" class="st0" d="M64.8,36.6c0,2.2,0.3,4.4,2.4,6.1c1.3,1,3,1.6,4.7,1.5c1.8,0.1,3.5-0.5,4.8-1.6
			c2.1-1.8,2.3-4,2.3-5.9V17.9c0.2-2-0.4-3.9-1.7-5.4c-1.4-1.5-3.3-2.2-5.3-2.2c-1.8-0.1-3.5,0.5-4.9,1.6c-2.1,1.8-2.2,4.3-2.2,6
			V36.6z M74.3,36c0.1,0.9-0.1,1.8-0.6,2.6c-0.4,0.7-1.2,1.1-1.9,1c-0.8,0.1-1.5-0.3-1.9-1c-0.4-0.8-0.6-1.7-0.6-2.6V18.6
			c-0.1-0.9,0.1-1.8,0.6-2.6c0.4-0.6,1.2-1,1.9-1c0.8,0,1.5,0.3,1.9,1c0.4,0.8,0.6,1.7,0.6,2.6V36z M87.6,43.7h4.6V10.8h-4.4
			l-5.2,3.9v4.8l5-3.7V43.7z M98.6,20h4.6v-1.3c-0.1-0.9,0.1-1.8,0.4-2.7c0.4-0.7,1.2-1.2,2-1.1c0.7,0,1.3,0.2,1.8,0.8
			c0.5,0.7,0.7,1.5,0.7,2.4v0.7c0,1-0.1,1.9-0.4,2.8c-0.3,0.8-0.6,1.7-1,2.4l-8.1,15.3v4.3h14.1v-4.5h-8.8l7.3-14
			c0.5-0.8,0.9-1.7,1.2-2.6c0.3-1,0.5-2,0.4-3v-1.7c0.1-1.9-0.5-3.8-1.7-5.3c-1.3-1.6-3.3-2.4-5.3-2.3c-1.9-0.1-3.8,0.6-5.2,1.9
			c-1.4,1.6-2.1,3.7-2,5.8V20z M115.6,36.6c0,2.2,0.3,4.4,2.4,6.1c1.3,1,3,1.6,4.7,1.5c1.8,0.1,3.5-0.5,4.8-1.6
			c2.1-1.8,2.3-4,2.3-5.9V17.9c0.2-2-0.4-3.9-1.7-5.4c-1.4-1.5-3.3-2.2-5.3-2.2c-1.8-0.1-3.5,0.5-4.9,1.6c-2.1,1.8-2.2,4.3-2.2,6
			V36.6z M125.1,36c0.1,0.9-0.1,1.8-0.6,2.6c-0.4,0.7-1.2,1.1-1.9,1c-0.8,0.1-1.5-0.3-1.9-1c-0.4-0.8-0.6-1.7-0.6-2.6V18.6
			c-0.1-0.9,0.1-1.8,0.6-2.6c0.4-0.6,1.2-1,1.9-1c0.8,0,1.5,0.3,1.9,1c0.4,0.8,0.6,1.7,0.6,2.6V36z M132,27.2v4.2h10.3v-4.2H132z
			 M149.2,43.7h4.6V10.8h-4.4l-5.2,3.9v4.8l5-3.7V43.7z M174.4,17.9c0-0.9,0-7.6-7.1-7.6s-7.1,6.7-7.1,7.6v3.7
			c-0.1,1.9,0.7,3.8,2.2,5c-2.4,1.8-2.2,3.8-2.2,5.8v4.1c0,0.9,0,7.6,7.1,7.6s7.1-6.7,7.1-7.6v-4.1c0-2,0.3-4-2.2-5.8
			c1.4-1.2,2.2-3.1,2.2-5V17.9z M169.8,21.1c0,1.2-0.1,3.6-2.5,3.6s-2.5-2.4-2.5-3.6v-2.5c0-1.2,0.1-3.6,2.5-3.6s2.5,2.4,2.5,3.6
			V21.1z M169.8,36c0,1.2-0.1,3.6-2.5,3.6s-2.5-2.4-2.5-3.6v-4.2c0-1.2,0.1-3.6,2.5-3.6s2.5,2.4,2.5,3.6V36z M183,43.7h4.6V10.8
			h-4.4l-5.2,3.9v4.8l5-3.7V43.7z M193.6,27.2v4.2h10.3v-4.2H193.6z M206.2,20.1h4.6v-1.9c-0.1-0.9,0.2-1.7,0.7-2.4
			c0.4-0.5,1-0.9,1.7-0.8c0.7,0,1.4,0.2,1.8,0.7c0.5,0.5,0.8,1.2,0.7,2v4.2c0,0.8-0.2,1.6-0.7,2.2c-0.5,0.5-1.3,0.8-2,0.7H212v4.2
			h1.1c0.7-0.1,1.5,0.1,2,0.7c0.5,0.7,0.7,1.5,0.6,2.4v4.9c0,2.3-1.3,2.8-2.4,2.8c-0.7,0-1.5-0.3-1.9-0.8c-0.4-0.7-0.6-1.5-0.6-2.3
			v-2.2h-4.6v3.3c-0.1,1.8,0.6,3.5,1.8,4.8c1.4,1.3,3.2,1.9,5,1.8c2,0.2,4-0.5,5.4-1.9c1.8-1.8,1.9-3.8,1.9-6.4v-3.2
			c0-2-0.1-4.8-2.8-5.9c1.9-0.8,3-2.8,2.8-4.8v-4.8c0.1-2.1-0.8-4-2.3-5.4c-1.4-1-3.1-1.6-4.9-1.5c-1.7-0.1-3.4,0.5-4.7,1.6
			c-1.5,1.3-2.3,3.3-2.3,5.3L206.2,20.1z M223.3,10.8V19h4.1v-3.9h5l-7.3,28.6h4.6l7.4-28.6v-4.3H223.3z M246.1,10.8l-6.9,23.9v4
			h9.1v5.1h4.6v-5.1h2.2v-4.2h-2.2v-9.4h-4.6v9.3h-4.5l6.7-23.6H246.1z"/>
	</g>
	<path id="パス_36463" d="M-24487.8,1165.9c0-1.9,0.9-2.8,2-2.8c1.3,0,2.3,1,2.5,3.8c-0.5,1-1.4,1.6-2.4,1.6
		C-24487,1168.5-24487.8,1167.6-24487.8,1165.9z M-24486.2,1176.5c2.9,0,5.7-2.5,5.7-8.2c0-5.3-2.5-7.5-5.3-7.5
		c-2.6,0-4.7,2.1-4.7,4.7c0,0.1,0,0.2,0,0.3c0,3.2,1.8,4.8,4.2,4.8c1.2-0.1,2.3-0.7,3-1.6c-0.1,3.8-1.5,5.1-3.2,5.1
		c-0.9,0-1.7-0.4-2.3-1.1l-1.6,1.8C-24489.2,1175.9-24487.7,1176.5-24486.2,1176.5z M-24469.5,1165.7c1,0,1.9-0.8,1.9-1.8
		c0,0,0,0,0-0.1c0-1.1-0.8-1.9-1.8-1.9c0,0-0.1,0-0.1,0c-1,0-1.9,0.8-1.9,1.9c0,0,0,0.1,0,0.1
		C-24471.4,1164.8-24470.6,1165.7-24469.5,1165.7C-24469.5,1165.7-24469.5,1165.7-24469.5,1165.7z M-24469.5,1175.4
		c1,0,1.9-0.8,1.9-1.8c0,0,0,0,0-0.1c0-1.1-0.8-1.9-1.8-1.9c0,0-0.1,0-0.1,0c-1,0-1.9,0.8-1.9,1.9c0,0,0,0.1,0,0.1
		C-24471.4,1174.6-24470.6,1175.4-24469.5,1175.4C-24469.5,1175.4-24469.5,1175.4-24469.5,1175.4z M-24453.6,1176.5c3,0,5-2.7,5-7.9
		s-2-7.8-5-7.8s-5,2.6-5,7.8C-24458.6,1173.8-24456.6,1176.5-24453.6,1176.5z M-24453.6,1174.2c-1.3,0-2.2-1.3-2.2-5.6
		c0-4.2,1-5.5,2.2-5.5c1.3,0,2.2,1.2,2.2,5.5C-24451.4,1172.9-24452.3,1174.2-24453.6,1174.2z M-24441.8,1176.5c3,0,5-2.7,5-7.9
		s-2-7.8-5-7.8s-5,2.6-5,7.8C-24446.8,1173.8-24444.8,1176.5-24441.8,1176.5z M-24441.8,1174.2c-1.3,0-2.2-1.3-2.2-5.6
		c0-4.2,1-5.5,2.2-5.5c1.3,0,2.2,1.2,2.2,5.5C-24439.6,1172.9-24440.5,1174.2-24441.8,1174.2z M-24426.8,1169.3
		c1.2,1.4,2.9,2.3,4.7,2.3c2.1,0,4.1-1.2,5.4-3.8l-2.2-1.2c-0.5,1.4-1.8,2.3-3.2,2.5c-1.2,0-2.3-0.5-3-1.5c-1.2-1.4-2.9-2.3-4.7-2.3
		c-2.1,0-4.1,1.2-5.4,3.8l2.2,1.2c0.5-1.4,1.8-2.3,3.2-2.5C-24428.6,1167.8-24427.5,1168.4-24426.8,1169.3z M-24414.3,1176.2h8.9
		v-2.4h-2.8v-12.7h-2.2c-1.1,0.7-2.2,1.1-3.4,1.3v1.9h2.7v9.6h-3.2V1176.2z M-24398.3,1176.5c3,0,5-1.8,5-4.1c0-1.7-0.9-3.3-2.5-4.1
		v-0.1c1.1-0.8,1.8-2.1,1.9-3.5c0-2.4-1.7-4-4.3-4c-2.6,0-4.5,1.6-4.5,4c0,1.5,0.8,2.8,2,3.6v0.1c-1.5,0.7-2.5,2.2-2.5,3.9
		C-24403.2,1174.8-24401.1,1176.5-24398.3,1176.5z M-24397.3,1167.6c-1.6-0.6-2.7-1.3-2.7-2.8c-0.1-1,0.6-1.8,1.6-1.9
		c0.1,0,0.1,0,0.2,0c1,0,1.9,0.8,2,1.8c0,0.1,0,0.2,0,0.3C-24396.3,1166-24396.6,1166.9-24397.3,1167.6z M-24398.2,1174.4
		c-1.2,0.1-2.4-0.8-2.5-2.1c0-0.1,0-0.1,0-0.2c0-1.1,0.5-2.1,1.4-2.8c1.9,0.8,3.3,1.5,3.3,3c0,1.1-0.8,2-1.9,2
		C-24398,1174.4-24398.1,1174.4-24398.2,1174.4z M-24382.3,1165.7c1,0,1.9-0.8,1.9-1.8c0,0,0,0,0-0.1c0-1.1-0.8-1.9-1.8-1.9
		c0,0-0.1,0-0.1,0c-1,0-1.9,0.8-1.9,1.9c0,0,0,0.1,0,0.1C-24384.3,1164.8-24383.4,1165.7-24382.3,1165.7
		C-24382.4,1165.7-24382.4,1165.7-24382.3,1165.7z M-24382.3,1175.4c1,0,1.9-0.8,1.9-1.8c0,0,0,0,0-0.1c0-1.1-0.8-1.9-1.8-1.9
		c0,0-0.1,0-0.1,0c-1,0-1.9,0.8-1.9,1.9c0,0,0,0.1,0,0.1C-24384.3,1174.6-24383.4,1175.4-24382.3,1175.4
		C-24382.4,1175.4-24382.4,1175.4-24382.3,1175.4z M-24366.4,1176.5c3,0,5-2.7,5-7.9s-2-7.8-5-7.8c-3,0-5,2.6-5,7.8
		C-24371.5,1173.8-24369.5,1176.5-24366.4,1176.5z M-24366.4,1174.2c-1.3,0-2.2-1.3-2.2-5.6c0-4.2,1-5.5,2.2-5.5
		c1.3,0,2.2,1.2,2.2,5.5C-24364.2,1172.9-24365.2,1174.2-24366.4,1174.2z M-24354.7,1176.5c3,0,5-2.7,5-7.9s-2-7.8-5-7.8
		c-3,0-5,2.6-5,7.8C-24359.7,1173.8-24357.7,1176.5-24354.7,1176.5z M-24354.7,1174.2c-1.3,0-2.2-1.3-2.2-5.6c0-4.2,1-5.5,2.2-5.5
		c1.3,0,2.2,1.2,2.2,5.5C-24352.4,1172.9-24353.4,1174.2-24354.7,1174.2z M-24335.5,1168.5c-0.1,3.7,1.4,7.2,3.9,9.8l1.9-0.9
		c-2.3-2.4-3.6-5.6-3.6-9c0-3.4,1.3-6.6,3.6-9l-1.9-0.9C-24334.1,1161.2-24335.6,1164.8-24335.5,1168.5z M-24323.2,1174v-4.6h8.9
		v4.6H-24323.2z M-24314.3,1162.6v4.4h-8.9v-4.4H-24314.3z M-24325.7,1160.1v17.6h2.5v-1.3h8.9v1.3h2.6v-17.6H-24325.7z
		 M-24298.8,1165.8c-1.4,0-2.6,1.2-2.6,2.6c0,1.4,1.2,2.6,2.6,2.6c1.4,0,2.6-1.2,2.6-2.6
		C-24296.2,1167-24297.4,1165.8-24298.8,1165.8z M-24279.6,1170.2c-0.4-0.4-1.8-1.8-2.7-2.6c0.8-1.3,1.5-2.7,2.1-4.2l-1.3-0.9
		l-0.4,0.1h-0.8v-3.8h-2.3v3.8h-2.6v2.2h4.5c-1.2,2.3-3,4.3-5.2,5.7c0.5,0.7,0.8,1.5,1.1,2.3c0.8-0.5,1.5-1.2,2.2-1.8v6.9h2.3v-8
		c0.6,0.7,1.2,1.5,1.7,2.2L-24279.6,1170.2z M-24277.7,1162.3h5.2v4.2h-5.2V1162.3z M-24272.1,1175.9c-0.3,0-0.3-0.1-0.3-0.8v-6.5
		h2.3v-8.5h-9.7v8.5h1.7c-0.1,3.5-0.6,6-3.5,7.5c0.6,0.6,1.1,1.2,1.5,2c3.5-1.9,4.1-5.2,4.3-9.5h1.1v6.5c0,2.1,0.4,2.8,2.2,2.8h1.4
		c1.5,0,2-0.9,2.2-3.8c-0.7-0.2-1.4-0.5-2-0.9c-0.1,2.3-0.1,2.8-0.5,2.8H-24272.1z M-24262.6,1159.7l-0.3,0.1h-4.3v18.2h2.1V1162
		h1.6c-0.3,1.4-0.7,3.2-1.1,4.5c0.9,1,1.4,2.3,1.4,3.6c0,0.6-0.1,1-0.3,1.1c-0.2,0.1-0.4,0.2-0.6,0.2c-0.3,0-0.5,0-0.9,0
		c0.3,0.6,0.5,1.3,0.5,2.1c0.4,0,0.9,0,1.3,0c0.4-0.1,0.8-0.2,1.2-0.4c0.6-0.5,0.9-1.3,0.9-2.6c0-1.5-0.5-3-1.5-4.1
		c0.6-1.6,1.2-3.8,1.7-5.6L-24262.6,1159.7z M-24259.9,1171.4c-0.5,1.6-1.3,3-2.5,4.1c0.6,0.4,1.2,0.9,1.7,1.4
		c1.3-1.4,2.3-3.1,2.9-5L-24259.9,1171.4z M-24258.9,1164.8c1.2-1.1,2.3-2.3,3.2-3.7c1,1.4,2.1,2.6,3.4,3.7H-24258.9z
		 M-24250.3,1170.7v-2h-4.2v-1.9h2.8v-1.5c0.5,0.3,0.9,0.7,1.4,1c0.3-0.7,0.8-1.4,1.3-2.1c-2.3-1.3-4.2-3-5.6-5.2h-2.1
		c-1.3,2.2-3.1,4.1-5.3,5.4c0.5,0.6,0.9,1.2,1.2,1.9c0.5-0.3,1-0.6,1.4-1v1.5h2.7v1.9h-3.9v2h3.9v4.8c0,0.2-0.1,0.3-0.3,0.3
		c-0.3,0-1,0-1.8,0c0.4,0.7,0.6,1.5,0.8,2.3c0.9,0.1,1.8-0.1,2.7-0.4c0.7-0.4,0.9-1,0.9-2.1v-4.8H-24250.3z M-24253.9,1172.2
		c1,1.4,1.8,3,2.4,4.6l2-1c-0.6-1.6-1.5-3.1-2.5-4.5L-24253.9,1172.2z M-24234.1,1161.5l-2.3-2.1c-0.5,0.6-1,1.2-1.5,1.7
		c-1.3,1.3-4.1,3.6-5.7,4.9c-2,1.7-2.2,2.8-0.2,4.5c1.8,1.6,4.8,4.2,6,5.4c0.6,0.6,1.2,1.3,1.7,1.9l2.3-2.2c-2-2-5.8-5.1-7.3-6.4
		c-1.1-1-1.1-1.2,0-2.1c1.3-1.2,4-3.3,5.3-4.3C-24235.3,1162.5-24234.7,1162-24234.1,1161.5L-24234.1,1161.5z M-24222,1168.5
		c0.1-3.7-1.4-7.2-3.9-9.8l-1.9,0.9c2.3,2.4,3.6,5.6,3.6,9c0,3.4-1.3,6.6-3.6,9l1.9,0.9
		C-24223.4,1175.7-24221.9,1172.1-24222,1168.5z"/>
	<path id="パス_36462" d="M-24569.3,1163.6c0.3,0.7,0.5,1.5,0.7,2.3h-3.4l0.9-0.3c-0.3-0.7-0.6-1.4-1-2.1c1.5-0.1,3.1-0.2,4.6-0.3
		L-24569.3,1163.6z M-24573.7,1167.8h11.6v2.1h2.1v-4h-2.6c0.4-0.7,0.9-1.4,1.3-2.2l-2.3-0.6c-0.3,0.9-0.7,1.9-1.2,2.8h-3.1l1.3-0.3
		c-0.2-0.8-0.4-1.6-0.8-2.4c2.4-0.2,4.7-0.5,6.7-0.9l-1.4-1.8c-4.4,0.7-8.9,1.1-13.4,1.3c0.2,0.6,0.4,1.2,0.5,1.9
		c0.9,0,1.8-0.1,2.7-0.1l-1.6,0.5c0.3,0.6,0.6,1.2,0.8,1.9h-2.6v4h2L-24573.7,1167.8z M-24565.4,1171.2c-0.7,0.9-1.5,1.6-2.4,2.1
		c-1-0.6-1.9-1.3-2.7-2.1L-24565.4,1171.2z M-24563.7,1169.1l-0.4,0.1h-9.1v2h0.8l-0.6,0.3c0.8,1.1,1.7,2.1,2.8,2.9
		c-2,0.7-4,1.2-6.1,1.3c0.5,0.6,0.9,1.2,1.3,1.9c2.4-0.3,4.8-0.9,7-2c2.2,1,4.5,1.7,6.9,1.9c0.4-0.7,0.8-1.4,1.3-2
		c-2-0.2-4-0.6-6-1.3c1.5-1.1,2.7-2.6,3.5-4.3L-24563.7,1169.1z M-24554.1,1160.7c-0.9,2.6-2.4,5-4.3,7c0.5,0.7,0.9,1.5,1.3,2.3
		c0.4-0.4,0.8-0.9,1.3-1.5v9.2h2.2v-12.6c0.6-1.2,1.2-2.4,1.7-3.7L-24554.1,1160.7z M-24541.5,1164.6h-2v-3.8h-2.2v3.8h-6.9v2.2h6.9
		v8.4c0,0.4-0.2,0.6-0.6,0.6c-0.4,0-2,0-3.4,0c0.4,0.7,0.6,1.4,0.8,2.2c1.4,0.1,2.8,0,4.2-0.4c0.9-0.3,1.2-0.9,1.2-2.3v-8.4h2
		L-24541.5,1164.6z M-24547.4,1172.4c-0.5-1.1-1.7-2.9-2.5-4.3l-1.9,0.9c0.9,1.4,1.6,2.9,2.3,4.4L-24547.4,1172.4z M-24536.1,1163.7
		v3.2h-1.7v-3.2H-24536.1z M-24537.8,1172.3v-3.5h1.7v3.5H-24537.8z M-24534.1,1161.8h-5.6v14.1h2v-1.6h3.7V1161.8z M-24533,1172.7
		c0.8,0.9,1.5,2,2.1,3.1l1.8-1.1c-0.6-1.1-1.3-2.1-2.2-3L-24533,1172.7z M-24523.5,1168v-1.9h-4.1v-1.6h3.6v-1.9h-3.6v-1.9h-2.1v1.9
		h-3.5v1.9h3.5v1.6h-4.1v1.9h6.4v1.6h-6.3v1.9h6.3v4c0,0.3-0.1,0.3-0.4,0.3c-0.3,0-1.3,0-2.1,0c0.3,0.6,0.6,1.3,0.7,2.1
		c1,0.1,2-0.1,3-0.4c0.7-0.3,0.9-0.9,0.9-1.9v-4h1.7v-1.9h-1.7v-1.6H-24523.5z M-24516.5,1162.9v1h-2.8v-1H-24516.5z
		 M-24519.3,1166.4v-1h2.8v1H-24519.3z M-24514.5,1168v-6.6h-6.9v16.5h2.1v-9.8H-24514.5z M-24511.3,1166.5v-1.1h2.9v1.1H-24511.3z
		 M-24508.4,1162.9v1h-2.9v-1H-24508.4z M-24515.4,1174.5v-1.1h3v1.1H-24515.4z M-24512.5,1171.8h-3v-1.1h3V1171.8z
		 M-24506.2,1161.3h-7.1v6.7h4.9v7.2c0,0.3-0.1,0.4-0.4,0.4c-0.2,0-0.9,0-1.6,0v-6.5l-6.1,0v0h-0.9v8h1.9v-0.9h4.5
		c0.2,0.6,0.4,1.1,0.5,1.7c1.1,0.1,2.2,0,3.3-0.4c0.7-0.3,1-1,1-2.2L-24506.2,1161.3z"/>
</g>
</svg>
